<?xml version="1.0" encoding="UTF-8" standalone="no"?>
<!-- Created with Inkscape (http://www.inkscape.org/) -->

<svg
   xmlns:dc="http://purl.org/dc/elements/1.1/"
   xmlns:cc="http://creativecommons.org/ns#"
   xmlns:rdf="http://www.w3.org/1999/02/22-rdf-syntax-ns#"
   xmlns:svg="http://www.w3.org/2000/svg"
   xmlns="http://www.w3.org/2000/svg"
   xmlns:sodipodi="http://sodipodi.sourceforge.net/DTD/sodipodi-0.dtd"
   xmlns:inkscape="http://www.inkscape.org/namespaces/inkscape"
   width="256"
   height="256"
   viewBox="0 0 256 256"
   id="svg2"
   version="1.1"
   inkscape:version="0.92.4 (unknown)"
   sodipodi:docname="edit-find-replace.svg">
  <sodipodi:namedview
     id="base"
     pagecolor="#ffffff"
     bordercolor="#666666"
     borderopacity="1.0"
     inkscape:pageopacity="0.0"
     inkscape:pageshadow="2"
     inkscape:zoom="3.3046875"
     inkscape:cx="127.99999"
     inkscape:cy="127.99998"
     inkscape:document-units="px"
     inkscape:current-layer="svg2"
     showgrid="true"
     units="px"
     inkscape:window-width="1920"
     inkscape:window-height="1048"
     inkscape:window-x="0"
     inkscape:window-y="0"
     inkscape:window-maximized="1">
    <inkscape:grid
       spacingy="5"
       spacingx="5"
       id="grid4191"
       type="xygrid" />
  </sodipodi:namedview>
  <defs
     id="defs4">
    <inkscape:path-effect
       is_visible="true"
       id="path-effect4176"
       effect="spiro" />
    <inkscape:path-effect
       effect="spiro"
       id="path-effect4172"
       is_visible="true" />
    <inkscape:path-effect
       effect="spiro"
       id="path-effect4829"
       is_visible="true" />
    <inkscape:path-effect
       effect="spiro"
       id="path-effect4153"
       is_visible="true" />
    <inkscape:path-effect
       effect="spiro"
       id="path-effect4175"
       is_visible="true" />
    <clipPath
       id="clipPath4174"
       clipPathUnits="userSpaceOnUse">
      <circle
         r="128"
         cy="924.36218"
         cx="128"
         id="circle4176"
         style="fill:#cc2828;fill-opacity:1;stroke:none;stroke-width:0;stroke-linecap:round;stroke-linejoin:round;stroke-miterlimit:4;stroke-dasharray:none;stroke-opacity:1" />
    </clipPath>
    <clipPath
       id="clipPath4183"
       clipPathUnits="userSpaceOnUse">
      <circle
         transform="matrix(0,-1,1,0,0,0)"
         r="128"
         cy="128.00002"
         cx="-924.36218"
         id="circle4185"
         style="fill:#cc2828;fill-opacity:1;stroke:none;stroke-width:0;stroke-linecap:round;stroke-linejoin:round;stroke-miterlimit:4;stroke-dasharray:none;stroke-opacity:1" />
    </clipPath>
    <clipPath
       id="clipPath4187"
       clipPathUnits="userSpaceOnUse">
      <circle
         r="128"
         cy="924.36218"
         cx="128"
         id="circle4189"
         style="fill:#cc2828;fill-opacity:1;stroke:none;stroke-width:0;stroke-linecap:round;stroke-linejoin:round;stroke-miterlimit:4;stroke-dasharray:none;stroke-opacity:1" />
    </clipPath>
    <clipPath
       id="clipPath4209"
       clipPathUnits="userSpaceOnUse">
      <circle
         transform="matrix(0,-1,1,0,0,0)"
         r="128"
         cy="128"
         cx="-924.36218"
         id="circle4211"
         style="fill:#cc2828;fill-opacity:1;stroke:none;stroke-width:0;stroke-linecap:round;stroke-linejoin:round;stroke-miterlimit:4;stroke-dasharray:none;stroke-opacity:1" />
    </clipPath>
    <clipPath
       id="clipPath4213"
       clipPathUnits="userSpaceOnUse">
      <circle
         r="128"
         cy="924.36218"
         cx="128"
         id="circle4215"
         style="fill:#cc2828;fill-opacity:1;stroke:none;stroke-width:0;stroke-linecap:round;stroke-linejoin:round;stroke-miterlimit:4;stroke-dasharray:none;stroke-opacity:1" />
    </clipPath>
    <clipPath
       clipPathUnits="userSpaceOnUse"
       id="clipPath4381">
      <circle
         r="128"
         cy="640.4978"
         cx="686.50537"
         id="circle4383"
         style="fill:#d83838;fill-opacity:1;stroke:none;stroke-width:0;stroke-linecap:round;stroke-linejoin:round;stroke-miterlimit:4;stroke-dasharray:none;stroke-opacity:1"
         transform="matrix(0.77780341,0.62850764,-0.62850764,0.77780341,0,0)" />
    </clipPath>
    <clipPath
       clipPathUnits="userSpaceOnUse"
       id="clipPath4857">
      <circle
         r="128"
         cy="924.36218"
         cx="128"
         id="circle4859"
         style="fill:#68bdff;fill-opacity:1;stroke:none;stroke-width:0;stroke-linecap:round;stroke-linejoin:round;stroke-miterlimit:4;stroke-dasharray:none;stroke-opacity:1" />
    </clipPath>
    <clipPath
       clipPathUnits="userSpaceOnUse"
       id="clipPath5081">
      <circle
         style="fill:#68bdff;fill-opacity:1;stroke:none;stroke-width:0;stroke-linecap:round;stroke-linejoin:round;stroke-miterlimit:4;stroke-dasharray:none;stroke-opacity:1"
         id="circle5083"
         cx="-127.94974"
         cy="924.36218"
         r="128"
         transform="scale(-1,1)" />
    </clipPath>
    <clipPath
       clipPathUnits="userSpaceOnUse"
       id="clipPath5081-7">
      <circle
         style="fill:#68bdff;fill-opacity:1;stroke:none;stroke-width:0;stroke-linecap:round;stroke-linejoin:round;stroke-miterlimit:4;stroke-dasharray:none;stroke-opacity:1"
         id="circle5083-5"
         cx="-127.94974"
         cy="924.36218"
         r="128"
         transform="scale(-1,1)" />
    </clipPath>
    <clipPath
       id="clipPath4286"
       clipPathUnits="userSpaceOnUse">
      <circle
         r="128"
         cy="927.36218"
         cx="125"
         id="circle4288"
         style="fill:#ff7b68;fill-opacity:1;stroke:none;stroke-width:0;stroke-linecap:round;stroke-linejoin:round;stroke-miterlimit:4;stroke-dasharray:none;stroke-opacity:1" />
    </clipPath>
    <clipPath
       clipPathUnits="userSpaceOnUse"
       id="clipPath4298">
      <circle
         style="fill:#df241d;fill-opacity:1;stroke:none;stroke-width:71;stroke-linecap:butt;stroke-miterlimit:4;stroke-dasharray:none;stroke-opacity:1"
         id="circle4300"
         cx="128"
         cy="924.36218"
         r="128" />
    </clipPath>
    <clipPath
       id="clipPath4292"
       clipPathUnits="userSpaceOnUse">
      <circle
         transform="matrix(0,-1,1,0,0,0)"
         style="fill:#df241d;fill-opacity:1;stroke:none;stroke-width:71;stroke-linecap:butt;stroke-miterlimit:4;stroke-dasharray:none;stroke-opacity:1"
         id="circle4294"
         cx="-920.63922"
         cy="128.00002"
         r="128" />
    </clipPath>
    <clipPath
       clipPathUnits="userSpaceOnUse"
       id="clipPath4753">
      <circle
         style="fill:#1f9c4a;fill-opacity:1;stroke:none;stroke-width:71;stroke-linecap:butt;stroke-miterlimit:4;stroke-dasharray:none;stroke-opacity:1"
         id="circle4755"
         cx="-486.26294"
         cy="798.66675"
         r="120.95755"
         transform="matrix(0.77485215,-0.63214251,0.63214251,0.77485215,0,0)" />
    </clipPath>
    <clipPath
       clipPathUnits="userSpaceOnUse"
       id="clipPath4774">
      <circle
         style="fill:#1f9c4a;fill-opacity:1;stroke:none;stroke-width:71;stroke-linecap:butt;stroke-miterlimit:4;stroke-dasharray:none;stroke-opacity:1"
         id="circle4776"
         cx="850.09076"
         cy="385.71805"
         r="120.95754"
         transform="matrix(-0.81688221,0.57680453,0.57680453,0.81688221,0,0)" />
    </clipPath>
    <clipPath
       clipPathUnits="userSpaceOnUse"
       id="clipPath4780">
      <circle
         style="fill:#1f9c4a;fill-opacity:1;stroke:none;stroke-width:71;stroke-linecap:butt;stroke-miterlimit:4;stroke-dasharray:none;stroke-opacity:1"
         id="circle4782"
         cx="850.09076"
         cy="385.71805"
         r="120.95754"
         transform="matrix(-0.81688221,0.57680453,0.57680453,0.81688221,0,0)" />
    </clipPath>
    <clipPath
       clipPathUnits="userSpaceOnUse"
       id="clipPath4237">
      <rect
         ry="10"
         y="31"
         x="-75"
         height="175"
         width="25"
         id="rect4239"
         style="opacity:1;fill:#ffeb6a;fill-opacity:1;stroke:none;stroke-width:3.5;stroke-linecap:round;stroke-linejoin:round;stroke-miterlimit:4;stroke-dasharray:none;stroke-opacity:1" />
    </clipPath>
    <clipPath
       clipPathUnits="userSpaceOnUse"
       id="clipPath4245">
      <rect
         ry="10"
         y="31"
         x="-75"
         height="175"
         width="25"
         id="rect4247"
         style="opacity:1;fill:#ffeb6a;fill-opacity:1;stroke:none;stroke-width:3.5;stroke-linecap:round;stroke-linejoin:round;stroke-miterlimit:4;stroke-dasharray:none;stroke-opacity:1" />
    </clipPath>
    <clipPath
       clipPathUnits="userSpaceOnUse"
       id="clipPath4331">
      <path
         sodipodi:nodetypes="sssscsss"
         inkscape:connector-curvature="0"
         id="path4333"
         d="m -65,29.537143 5,0 c 5.54,0 10,4.46 10,10 l 0,154.999997 c 0,5.54 -5.922857,-2.6781 -13.962857,-2.6781 -8.04,0 -11.037143,8.2181 -11.037143,2.6781 l 0,-154.999997 c 0,-5.54 4.46,-10 10,-10 z"
         style="opacity:1;fill:#ffeb6a;fill-opacity:1;stroke:none;stroke-width:3.5;stroke-linecap:round;stroke-linejoin:round;stroke-miterlimit:4;stroke-dasharray:none;stroke-opacity:1" />
    </clipPath>
    <clipPath
       clipPathUnits="userSpaceOnUse"
       id="clipPath4348">
      <path
         sodipodi:nodetypes="sssscsss"
         inkscape:connector-curvature="0"
         id="path4350"
         d="m -65,29.537143 5,0 c 5.54,0 10,4.46 10,10 l 0,154.999997 c 0,5.54 -5.922857,-2.6781 -13.962857,-2.6781 -8.04,0 -11.037143,8.2181 -11.037143,2.6781 l 0,-154.999997 c 0,-5.54 4.46,-10 10,-10 z"
         style="opacity:1;fill:#ffeb6a;fill-opacity:1;stroke:none;stroke-width:3.5;stroke-linecap:round;stroke-linejoin:round;stroke-miterlimit:4;stroke-dasharray:none;stroke-opacity:1" />
    </clipPath>
    <clipPath
       clipPathUnits="userSpaceOnUse"
       id="clipPath4358">
      <path
         sodipodi:nodetypes="sssscsss"
         inkscape:connector-curvature="0"
         id="path4360"
         d="m -65,29.537143 5,0 c 5.54,0 10,4.46 10,10 l 0,154.999997 c 0,5.54 -5.922857,-2.6781 -13.962857,-2.6781 -8.04,0 -11.037143,8.2181 -11.037143,2.6781 l 0,-154.999997 c 0,-5.54 4.46,-10 10,-10 z"
         style="opacity:1;fill:#ffeb6a;fill-opacity:1;stroke:none;stroke-width:3.5;stroke-linecap:round;stroke-linejoin:round;stroke-miterlimit:4;stroke-dasharray:none;stroke-opacity:1" />
    </clipPath>
    <clipPath
       clipPathUnits="userSpaceOnUse"
       id="clipPath4375">
      <path
         sodipodi:nodetypes="cccc"
         inkscape:connector-curvature="0"
         id="path4377"
         d="m -98.169524,188.31809 17.558096,31.21905 16.466666,-30.24381 z"
         style="fill:none;fill-rule:evenodd;stroke:#000000;stroke-width:1px;stroke-linecap:butt;stroke-linejoin:miter;stroke-opacity:1" />
    </clipPath>
    <clipPath
       clipPathUnits="userSpaceOnUse"
       id="clipPath4421">
      <path
         sodipodi:nodetypes="sssscsss"
         inkscape:connector-curvature="0"
         id="path4423"
         d="m -82.554286,31 5,0 c 5.54,0 10,4.46 10,10 l 0,155 c 0,5.54 -5.922857,-2.6781 -13.962857,-2.6781 -8.04,0 -11.037143,8.2181 -11.037143,2.6781 l 0,-155 c 0,-5.54 4.46,-10 10,-10 z"
         style="opacity:1;fill:#ffeb6a;fill-opacity:1;stroke:none;stroke-width:3.5;stroke-linecap:round;stroke-linejoin:round;stroke-miterlimit:4;stroke-dasharray:none;stroke-opacity:1" />
    </clipPath>
    <clipPath
       clipPathUnits="userSpaceOnUse"
       id="clipPath4431">
      <circle
         style="opacity:1;fill:#ffce86;fill-opacity:1;stroke:none;stroke-width:3.5;stroke-linecap:round;stroke-linejoin:round;stroke-miterlimit:4;stroke-dasharray:none;stroke-opacity:1"
         id="circle4433"
         cx="-81.46286"
         cy="231.24762"
         r="15" />
    </clipPath>
  </defs>
  <metadata
     id="metadata7">
    <rdf:RDF>
      <cc:Work
         rdf:about="">
        <dc:format>image/svg+xml</dc:format>
        <dc:type
           rdf:resource="http://purl.org/dc/dcmitype/StillImage" />
        <dc:title />
      </cc:Work>
    </rdf:RDF>
  </metadata>
  <g
     inkscape:label="Layer 1"
     inkscape:groupmode="layer"
     id="layer1"
     transform="translate(0,-796.36216)">
    <ellipse
       ry="20"
       rx="17.5"
       cy="837.36218"
       cx="27.5"
       id="path4172"
       style="fill:none;fill-opacity:1;stroke:none;stroke-width:71;stroke-linecap:butt;stroke-miterlimit:4;stroke-dasharray:none;stroke-opacity:1" />
    <circle
       r="128"
       cy="924.36218"
       cx="128"
       id="path4174"
       style="fill:#1f9c4a;fill-opacity:1;stroke:none;stroke-width:71;stroke-linecap:butt;stroke-miterlimit:4;stroke-dasharray:none;stroke-opacity:1" />
    <rect
       y="817.36218"
       x="100"
       height="65"
       width="45"
       id="rect4193"
       style="opacity:1;fill:none;fill-opacity:1;stroke:none;stroke-width:20;stroke-linecap:round;stroke-linejoin:round;stroke-miterlimit:4;stroke-dasharray:none;stroke-opacity:1" />
    <g
       transform="matrix(-0.86444316,0.61038755,0.61038755,0.86444316,-771.58522,516.18664)"
       id="g4665"
       clip-path="url(#clipPath4780)"
       style="fill:#0b391b;fill-opacity:1;stroke:#0b391b;stroke-opacity:1">
      <g
         style="opacity:1;fill:#0b391b;fill-opacity:1;stroke:#0b391b;stroke-width:20;stroke-linecap:butt;stroke-linejoin:round;stroke-miterlimit:4;stroke-dasharray:none;stroke-opacity:1"
         id="g4667">
        <path
           inkscape:connector-curvature="0"
           d="m -470.56909,839.90366 c -29.88856,0 -54.11801,-24.22946 -54.11801,-54.11802 l 500,0 c 0,29.88856 24.22945,54.11802 54.11801,54.11802 z"
           id="path4669"
           style="fill:#0b391b;fill-opacity:1;stroke:#0b391b;stroke-opacity:1" />
        <path
           inkscape:connector-curvature="0"
           d="m -524.6871,785.78564 c 0,-29.88855 24.22946,-54.11801 54.11801,-54.11801 l 500,0 c -29.88855,0 -54.11801,24.22946 -54.11801,54.11801 z"
           id="path4671"
           style="fill:#0b391b;fill-opacity:1;stroke:#0b391b;stroke-opacity:1" />
        <path
           inkscape:connector-curvature="0"
           d="m -470.56909,731.66763 c 77.15185,7.97182 56.96239,106.50469 0,108.23603 l 500,0 c 56.96239,-1.73134 77.15185,-100.26421 0,-108.23603 z"
           id="path4673"
           style="fill:#0b391b;fill-opacity:1;stroke:#0b391b;stroke-opacity:1" />
      </g>
      <path
         style="opacity:1;fill:#0b391b;fill-opacity:1;stroke:#0b391b;stroke-width:20;stroke-linecap:butt;stroke-linejoin:round;stroke-miterlimit:4;stroke-dasharray:none;stroke-opacity:1"
         d="m -470.56909,839.90366 c -29.88856,0 -54.11801,-24.22946 -54.11801,-54.11802 0,-29.88855 24.22946,-54.11801 54.11801,-54.11801 77.15185,7.97182 56.96239,106.50469 0,108.23603 z"
         id="path4182"
         inkscape:connector-curvature="0"
         sodipodi:nodetypes="cscc" />
    </g>
    <g
       transform="matrix(-0.86444316,0.61038755,0.61038755,0.86444316,-771.58522,516.18664)"
       id="g4676"
       clip-path="url(#clipPath4774)"
       style="fill:#0b391b;fill-opacity:1">
      <g
         style="opacity:1;fill:#0b391b;fill-opacity:1;stroke:none;stroke-width:30;stroke-linecap:butt;stroke-linejoin:round;stroke-miterlimit:4;stroke-dasharray:none;stroke-opacity:1"
         id="g4678">
        <path
           inkscape:connector-curvature="0"
           d="m -470.56909,834.71136 c 5.54,0 10,4.50325 10,10.09697 l 500,0 c 0,-5.59372 -4.46,-10.09697 -10,-10.09697 z"
           id="path4680"
           style="fill:#0b391b;fill-opacity:1" />
        <path
           inkscape:connector-curvature="0"
           d="m -460.56909,844.80833 0,49.80607 500,0 0,-49.80607 z"
           id="path4682"
           style="fill:#0b391b;fill-opacity:1" />
        <path
           inkscape:connector-curvature="0"
           d="m -460.56909,894.6144 c 0,5.59372 -4.46,10.09696 -10,10.09696 l 500,0 c 5.54,0 10,-4.50324 10,-10.09696 z"
           id="path4684"
           style="fill:#0b391b;fill-opacity:1" />
        <path
           inkscape:connector-curvature="0"
           d="m -470.56909,904.71136 c -5.54,0 -10,-4.50324 -10,-10.09696 l 500,0 c 0,5.59372 4.46,10.09696 10,10.09696 z"
           id="path4686"
           style="fill:#0b391b;fill-opacity:1" />
        <path
           inkscape:connector-curvature="0"
           d="m -480.56909,894.6144 0,-49.80607 500,0 0,49.80607 z"
           id="path4688"
           style="fill:#0b391b;fill-opacity:1" />
        <path
           inkscape:connector-curvature="0"
           d="m -480.56909,844.80833 c 0,-5.59372 4.46,-10.09697 10,-10.09697 l 500,0 c -5.54,0 -10,4.50325 -10,10.09697 z"
           id="path4690"
           style="fill:#0b391b;fill-opacity:1" />
      </g>
      <path
         style="opacity:1;fill:#0b391b;fill-opacity:1;stroke:none;stroke-width:30;stroke-linecap:butt;stroke-linejoin:round;stroke-miterlimit:4;stroke-dasharray:none;stroke-opacity:1"
         d="m -470.56909,834.71136 c 5.54,0 10,4.50325 10,10.09697 l 0,49.80607 c 0,5.59372 -4.46,10.09696 -10,10.09696 -5.54,0 -10,-4.50324 -10,-10.09696 l 0,-49.80607 c 0,-5.59372 4.46,-10.09697 10,-10.09697 z"
         id="rect4180"
         inkscape:connector-curvature="0"
         sodipodi:nodetypes="sssssss" />
    </g>
    <ellipse
       style="opacity:1;fill:#3c3232;fill-opacity:1;stroke:none;stroke-width:3.5;stroke-linecap:round;stroke-linejoin:round;stroke-miterlimit:4;stroke-dasharray:none;stroke-opacity:1"
       id="path4371"
       cx="-80.243813"
       cy="1017.8536"
       rx="45"
       ry="15"
       clip-path="url(#clipPath4375)" />
  </g>
  <rect
     transform="matrix(0.80987382,-0.58660412,0.58660412,0.80987382,0,0)"
     ry="10.684832"
     y="209.79486"
     x="17.173645"
     height="74.075569"
     width="21.16445"
     id="rect4180-2"
     style="opacity:1;fill:#ffffff;fill-opacity:1;stroke:none;stroke-width:30;stroke-linecap:butt;stroke-linejoin:round;stroke-miterlimit:4;stroke-dasharray:none;stroke-opacity:1" />
  <circle
     transform="matrix(0.80987382,-0.58660412,0.58660412,0.80987382,0,0)"
     r="57.268894"
     cy="158.02057"
     cx="27.755869"
     id="path4182-2"
     style="opacity:1;fill:none;fill-opacity:0;stroke:#ffffff;stroke-width:21.16444969;stroke-linecap:butt;stroke-linejoin:round;stroke-miterlimit:4;stroke-dasharray:none;stroke-opacity:1" />
  <path
     style="opacity:1;fill:#22d560;fill-opacity:1;stroke:none;stroke-width:21.16444969;stroke-linecap:butt;stroke-linejoin:round;stroke-miterlimit:4;stroke-dasharray:none;stroke-opacity:1"
     d="M 81.764651,98.374221 A 26.229797,26.229797 0 0 0 78.419019,132.89145 26.229797,26.229797 0 0 0 103.4513,143.44002 37.785929,38.930957 0 0 1 80.616938,107.70083 37.785929,38.930957 0 0 1 81.764651,98.374221 Z"
     id="circle4195"
     inkscape:connector-curvature="0" />
  <g
     transform="matrix(0.63058536,0.63058536,-0.63058536,0.63058536,232.92449,59.381366)"
     id="g960">
    <path
       inkscape:connector-curvature="0"
       style="opacity:1;fill:#f2484b;fill-opacity:1;stroke:none;stroke-width:29.39999962;stroke-miterlimit:4;stroke-dasharray:none;stroke-opacity:1"
       d="m -15,16 c -8.31,0 -15,6.69 -15,15 V 71 H 20 V 31 C 20,22.69 13.31,16 5,16 Z"
       id="path944" />
    <path
       inkscape:connector-curvature="0"
       style="opacity:1;fill:#f2ebd9;fill-opacity:1;stroke:none;stroke-width:29.39999962;stroke-miterlimit:4;stroke-dasharray:none;stroke-opacity:1"
       d="M -30,56 H 20 V 71 H -30 Z"
       id="rect946" />
    <g
       id="g958">
      <path
         inkscape:connector-curvature="0"
         style="opacity:1;fill:#185f8d;fill-opacity:1;stroke:none;stroke-width:17.90669441;stroke-miterlimit:4;stroke-dasharray:none;stroke-opacity:1"
         d="M -5,71 H 20 V 186 H -5 Z"
         id="rect948" />
      <path
         inkscape:connector-curvature="0"
         style="opacity:1;fill:#6da8d6;fill-opacity:1;stroke:none;stroke-width:17.90669441;stroke-miterlimit:4;stroke-dasharray:none;stroke-opacity:1"
         d="M -30,71 H -5 V 186 H -30 Z"
         id="rect950" />
      <g
         id="g956">
        <path
           inkscape:connector-curvature="0"
           transform="matrix(0.6415003,0,0,1,14.245009,17.499999)"
           style="opacity:1;fill:#ffcc75;fill-opacity:1;stroke:none;stroke-width:29.39999962;stroke-miterlimit:4;stroke-dasharray:none;stroke-opacity:1"
           inkscape:transform-center-y="11.25"
           d="M -29.999999,236 -49.485572,202.25 -68.971144,168.5 H -30 8.9711426 l -19.4855716,33.75 z"
           id="path952" />
        <path
           inkscape:connector-curvature="0"
           transform="matrix(0.19007416,0,0,0.29629629,0.70222453,183.57407)"
           style="opacity:1;fill:#274b6d;fill-opacity:1;stroke:none;stroke-width:29.39999962;stroke-miterlimit:4;stroke-dasharray:none;stroke-opacity:1"
           inkscape:transform-center-y="3.3333288"
           d="M -29.999999,236 -49.485572,202.25 -68.971144,168.5 H -30 8.9711426 l -19.4855716,33.75 z"
           id="path954" />
      </g>
    </g>
  </g>
</svg>
