<?xml version="1.0" encoding="UTF-8" standalone="no"?>
<!-- Created with Inkscape (http://www.inkscape.org/) -->

<svg
   xmlns:dc="http://purl.org/dc/elements/1.1/"
   xmlns:cc="http://creativecommons.org/ns#"
   xmlns:rdf="http://www.w3.org/1999/02/22-rdf-syntax-ns#"
   xmlns:svg="http://www.w3.org/2000/svg"
   xmlns="http://www.w3.org/2000/svg"
   xmlns:sodipodi="http://sodipodi.sourceforge.net/DTD/sodipodi-0.dtd"
   xmlns:inkscape="http://www.inkscape.org/namespaces/inkscape"
   sodipodi:docname="format-text-bold-symbolic.svg"
   inkscape:version="0.92.4 (unknown)"
   version="1.1"
   id="svg2"
   viewBox="0 0 256 256"
   height="256"
   width="256">
  <sodipodi:namedview
     inkscape:window-maximized="1"
     inkscape:window-y="0"
     inkscape:window-x="0"
     inkscape:window-height="1048"
     inkscape:window-width="1920"
     units="px"
     showgrid="true"
     inkscape:current-layer="layer1"
     inkscape:document-units="px"
     inkscape:cy="128"
     inkscape:cx="128"
     inkscape:zoom="3.3046875"
     inkscape:pageshadow="2"
     inkscape:pageopacity="0.0"
     borderopacity="1.0"
     bordercolor="#666666"
     pagecolor="#ffffff"
     id="base">
    <inkscape:grid
       type="xygrid"
       id="grid4191"
       spacingx="5"
       spacingy="5" />
  </sodipodi:namedview>
  <defs
     id="defs4">
    <inkscape:path-effect
       is_visible="true"
       id="path-effect4829"
       effect="spiro" />
    <inkscape:path-effect
       is_visible="true"
       id="path-effect4153"
       effect="spiro" />
    <inkscape:path-effect
       is_visible="true"
       id="path-effect4175"
       effect="spiro" />
    <clipPath
       clipPathUnits="userSpaceOnUse"
       id="clipPath4174">
      <circle
         style="fill:#cc2828;fill-opacity:1;stroke:none;stroke-width:0;stroke-linecap:round;stroke-linejoin:round;stroke-miterlimit:4;stroke-dasharray:none;stroke-opacity:1"
         id="circle4176"
         cx="128"
         cy="924.36218"
         r="128" />
    </clipPath>
    <clipPath
       clipPathUnits="userSpaceOnUse"
       id="clipPath4183">
      <circle
         style="fill:#cc2828;fill-opacity:1;stroke:none;stroke-width:0;stroke-linecap:round;stroke-linejoin:round;stroke-miterlimit:4;stroke-dasharray:none;stroke-opacity:1"
         id="circle4185"
         cx="-924.36218"
         cy="128.00002"
         r="128"
         transform="matrix(0,-1,1,0,0,0)" />
    </clipPath>
    <clipPath
       clipPathUnits="userSpaceOnUse"
       id="clipPath4187">
      <circle
         style="fill:#cc2828;fill-opacity:1;stroke:none;stroke-width:0;stroke-linecap:round;stroke-linejoin:round;stroke-miterlimit:4;stroke-dasharray:none;stroke-opacity:1"
         id="circle4189"
         cx="128"
         cy="924.36218"
         r="128" />
    </clipPath>
    <clipPath
       clipPathUnits="userSpaceOnUse"
       id="clipPath4209">
      <circle
         style="fill:#cc2828;fill-opacity:1;stroke:none;stroke-width:0;stroke-linecap:round;stroke-linejoin:round;stroke-miterlimit:4;stroke-dasharray:none;stroke-opacity:1"
         id="circle4211"
         cx="-924.36218"
         cy="128"
         r="128"
         transform="matrix(0,-1,1,0,0,0)" />
    </clipPath>
    <clipPath
       clipPathUnits="userSpaceOnUse"
       id="clipPath4213">
      <circle
         style="fill:#cc2828;fill-opacity:1;stroke:none;stroke-width:0;stroke-linecap:round;stroke-linejoin:round;stroke-miterlimit:4;stroke-dasharray:none;stroke-opacity:1"
         id="circle4215"
         cx="128"
         cy="924.36218"
         r="128" />
    </clipPath>
    <clipPath
       id="clipPath4381"
       clipPathUnits="userSpaceOnUse">
      <circle
         transform="matrix(0.77780341,0.62850764,-0.62850764,0.77780341,0,0)"
         style="fill:#d83838;fill-opacity:1;stroke:none;stroke-width:0;stroke-linecap:round;stroke-linejoin:round;stroke-miterlimit:4;stroke-dasharray:none;stroke-opacity:1"
         id="circle4383"
         cx="686.50537"
         cy="640.4978"
         r="128" />
    </clipPath>
    <clipPath
       id="clipPath4857"
       clipPathUnits="userSpaceOnUse">
      <circle
         style="fill:#68bdff;fill-opacity:1;stroke:none;stroke-width:0;stroke-linecap:round;stroke-linejoin:round;stroke-miterlimit:4;stroke-dasharray:none;stroke-opacity:1"
         id="circle4859"
         cx="128"
         cy="924.36218"
         r="128" />
    </clipPath>
    <clipPath
       clipPathUnits="userSpaceOnUse"
       id="clipPath5081">
      <circle
         style="fill:#68bdff;fill-opacity:1;stroke:none;stroke-width:0;stroke-linecap:round;stroke-linejoin:round;stroke-miterlimit:4;stroke-dasharray:none;stroke-opacity:1"
         id="circle5083"
         cx="-127.94974"
         cy="924.36218"
         r="128"
         transform="scale(-1,1)" />
    </clipPath>
    <inkscape:path-effect
       is_visible="true"
       id="path-effect4168"
       effect="spiro" />
    <inkscape:path-effect
       fuse_tolerance="0"
       vertical_pattern="false"
       prop_units="false"
       tang_offset="0"
       normal_offset="0"
       spacing="0"
       scale_y_rel="false"
       prop_scale="1"
       copytype="single_stretched"
       pattern="m 0,790.36216 1,0"
       is_visible="true"
       id="path-effect4170"
       effect="skeletal" />
    <inkscape:path-effect
       is_visible="true"
       id="path-effect4174"
       effect="spiro" />
    <inkscape:path-effect
       fuse_tolerance="0"
       vertical_pattern="false"
       prop_units="false"
       tang_offset="0"
       normal_offset="0"
       spacing="0"
       scale_y_rel="false"
       prop_scale="1"
       copytype="single_stretched"
       pattern="m 0,802.36216 1,0"
       is_visible="true"
       id="path-effect4176"
       effect="skeletal" />
    <clipPath
       id="clipPath3479"
       clipPathUnits="userSpaceOnUse">
      <circle
         style="fill:#68bdff;fill-opacity:1;stroke:none;stroke-width:0;stroke-linecap:round;stroke-linejoin:round;stroke-miterlimit:4;stroke-dasharray:none;stroke-opacity:1"
         id="circle3481"
         cx="128"
         cy="924.36218"
         r="128" />
    </clipPath>
    <clipPath
       clipPathUnits="userSpaceOnUse"
       id="clipPath4421">
      <circle
         style="fill:#82adce;fill-opacity:1;stroke:none;stroke-width:0;stroke-linecap:round;stroke-linejoin:round;stroke-miterlimit:4;stroke-dasharray:none;stroke-opacity:1"
         id="circle4423"
         cx="127.8719"
         cy="922.36218"
         r="128" />
    </clipPath>
    <clipPath
       id="clipPath3472"
       clipPathUnits="userSpaceOnUse">
      <circle
         style="fill:#ee5858;fill-opacity:1;stroke:none;stroke-width:0;stroke-linecap:round;stroke-linejoin:round;stroke-miterlimit:4;stroke-dasharray:none;stroke-opacity:1"
         id="circle3474"
         cx="128"
         cy="924.36218"
         r="128" />
    </clipPath>
    <clipPath
       id="clipPath5510"
       clipPathUnits="userSpaceOnUse">
      <path
         inkscape:connector-curvature="0"
         style="fill:#ee5858;fill-opacity:1;stroke:none;stroke-width:0;stroke-linecap:round;stroke-linejoin:round;stroke-miterlimit:4;stroke-dasharray:none;stroke-opacity:1"
         d="M 234.53337,924.10347 A 105.87133,105.87133 0 0 1 128.66203,1029.9748 105.87133,105.87133 0 0 1 22.790696,924.10347 105.87133,105.87133 0 0 1 128.66203,818.23214 105.87133,105.87133 0 0 1 234.53337,924.10347 Z"
         id="path5512" />
    </clipPath>
    <clipPath
       clipPathUnits="userSpaceOnUse"
       id="clipPath1043">
      <path
         style="fill:#ee5858;fill-opacity:1;stroke:none;stroke-width:0;stroke-linecap:round;stroke-linejoin:round;stroke-miterlimit:4;stroke-dasharray:none;stroke-opacity:1"
         d="M 234.21875,924.3622 A 106.21875,106.21875 0 0 1 128,1030.581 106.21875,106.21875 0 0 1 21.781249,924.3622 106.21875,106.21875 0 0 1 128,818.14345 106.21875,106.21875 0 0 1 234.21875,924.3622 Z"
         id="path1045"
         inkscape:connector-curvature="0" />
    </clipPath>
  </defs>
  <metadata
     id="metadata7">
    <rdf:RDF>
      <cc:Work
         rdf:about="">
        <dc:format>image/svg+xml</dc:format>
        <dc:type
           rdf:resource="http://purl.org/dc/dcmitype/StillImage" />
        <dc:title />
      </cc:Work>
    </rdf:RDF>
  </metadata>
  <g
     transform="translate(0,-796.36216)"
     id="layer1"
     inkscape:groupmode="layer"
     inkscape:label="Layer 1">
    <g
       id="g2150"
       transform="translate(275,19.999977)">
      <path
         style="fill:#ae2020;fill-opacity:1;stroke:none;stroke-width:31.56804466;stroke-linecap:round;stroke-linejoin:round;stroke-miterlimit:4;stroke-dasharray:none;stroke-opacity:1"
         d="M 131.01953 0.03515625 A 128 128 0 0 0 64 17.148438 A 128 128 0 0 0 0 128 A 128 128 0 0 0 64 238.85156 A 128 128 0 0 0 192 238.85156 A 128 128 0 0 0 256 128 A 128 128 0 0 0 192 17.148438 A 128 128 0 0 0 131.01953 0.03515625 z M 127.20508 43 C 156.40576 43 177.46312 48.783025 190.37695 60.347656 C 203.38715 71.81591 209.89258 90.511514 209.89258 116.43555 L 209.89258 208.80859 L 157.70703 208.80859 L 157.70703 184.81055 C 150.76826 194.64048 142.96254 201.82013 134.28906 206.34961 C 125.6156 210.78272 115.06284 213 102.63086 213 C 85.862156 213 72.225237 208.13395 61.720703 198.40039 C 51.31254 188.57046 46.107422 175.84858 46.107422 160.23633 C 46.107422 141.25107 52.612843 127.3252 65.623047 118.45898 C 78.729622 109.59276 99.257234 105.16016 127.20508 105.16016 L 157.70703 105.16016 L 157.70703 101.11133 C 157.70703 92.919717 154.4784 86.945996 148.02148 83.1875 C 141.56457 79.332617 131.4934 77.404297 117.80859 77.404297 C 106.72583 77.404297 96.413862 78.513912 86.873047 80.730469 C 77.332232 82.947026 68.467 86.270019 60.275391 90.703125 L 60.275391 51.240234 C 71.358157 48.541823 82.488831 46.517179 93.667969 45.167969 C 104.84711 43.72239 116.02594 43 127.20508 43 z M 130.81836 135.95117 C 120.02472 135.95117 111.88187 137.78122 106.38867 141.44336 C 100.99185 145.10549 98.292969 150.50324 98.292969 157.63477 C 98.292969 164.18805 100.4621 169.34306 104.79883 173.10156 C 109.23193 176.76369 115.35208 178.5957 123.1582 178.5957 C 132.89176 178.5957 141.08276 175.12628 147.73242 168.1875 C 154.38208 161.15236 157.70703 152.38149 157.70703 141.87695 L 157.70703 135.95117 L 130.81836 135.95117 z "
         transform="translate(-275,776.36218)"
         id="path867" />
    </g>
    <g
       transform="matrix(1.3157974,0,0,1.3157974,-40.422068,-291.91119)"
       id="text5047"
       style="font-style:normal;font-variant:normal;font-weight:bold;font-stretch:normal;font-size:225px;line-height:125%;font-family:sans-serif;-inkscape-font-specification:'sans-serif Bold';letter-spacing:0px;word-spacing:0px;fill:#ffffff;fill-opacity:1;stroke:none;stroke-width:1px;stroke-linecap:butt;stroke-linejoin:miter;stroke-opacity:1" />
  </g>
</svg>
