<?xml version="1.0" encoding="UTF-8" standalone="no"?>
<!-- Created with Inkscape (http://www.inkscape.org/) -->

<svg
   width="256"
   height="256"
   viewBox="0 0 256 256"
   id="svg2"
   version="1.1"
   inkscape:version="1.2.1 (9c6d41e410, 2022-07-14)"
   sodipodi:docname="mail-archive-symbolic.svg"
   xmlns:inkscape="http://www.inkscape.org/namespaces/inkscape"
   xmlns:sodipodi="http://sodipodi.sourceforge.net/DTD/sodipodi-0.dtd"
   xmlns="http://www.w3.org/2000/svg"
   xmlns:svg="http://www.w3.org/2000/svg"
   xmlns:rdf="http://www.w3.org/1999/02/22-rdf-syntax-ns#"
   xmlns:cc="http://creativecommons.org/ns#"
   xmlns:dc="http://purl.org/dc/elements/1.1/">
  <sodipodi:namedview
     id="base"
     pagecolor="#ffffff"
     bordercolor="#666666"
     borderopacity="1.0"
     inkscape:pageopacity="0.0"
     inkscape:pageshadow="2"
     inkscape:zoom="3.3359375"
     inkscape:cx="56.505855"
     inkscape:cy="128"
     inkscape:document-units="px"
     inkscape:current-layer="layer1"
     showgrid="true"
     units="px"
     inkscape:window-width="1920"
     inkscape:window-height="1048"
     inkscape:window-x="0"
     inkscape:window-y="0"
     inkscape:window-maximized="1"
     inkscape:showpageshadow="2"
     inkscape:pagecheckerboard="0"
     inkscape:deskcolor="#d1d1d1">
    <inkscape:grid
       spacingy="5"
       spacingx="5"
       id="grid4136"
       type="xygrid" />
  </sodipodi:namedview>
  <defs
     id="defs4">
    <clipPath
       id="clipPath4828"
       clipPathUnits="userSpaceOnUse">
      <circle
         style="opacity:1;fill:#68bdff;fill-opacity:1;stroke:none;stroke-width:52.82038116;stroke-linecap:round;stroke-linejoin:round;stroke-miterlimit:4;stroke-dasharray:none;stroke-opacity:1"
         id="circle4830"
         cx="128"
         cy="924.36218"
         r="128" />
    </clipPath>
    <clipPath
       id="clipPath4851"
       clipPathUnits="userSpaceOnUse">
      <path
         inkscape:connector-curvature="0"
         style="opacity:1;fill:#68bdff;fill-opacity:1;stroke:none;stroke-width:52.82038116;stroke-linecap:round;stroke-linejoin:round;stroke-miterlimit:4;stroke-dasharray:none;stroke-opacity:1"
         d="m 128,796.36216 a 128,128 0 0 0 -87.652344,34.83789 l 86.988284,87.51367 90.69336,-85.25976 A 128,128 0 0 0 128,796.36216 Z M 23.730469,850.28404 A 128,128 0 0 0 0,924.36216 128,128 0 0 0 128,1052.3622 128,128 0 0 0 256,924.36216 128,128 0 0 0 234.1582,852.93052 l -95.94336,90.19922 c -0.48074,0.45195 -0.99482,0.84265 -1.52148,1.20508 -0.25351,0.30378 -0.51825,0.602 -0.80469,0.88672 -4.95863,4.92876 -12.91888,4.90394 -17.84765,-0.0547 L 23.730469,850.28404 Z"
         id="path4853" />
    </clipPath>
    <clipPath
       id="clipPath4147"
       clipPathUnits="userSpaceOnUse">
      <path
         inkscape:connector-curvature="0"
         style="opacity:1;fill:#fff168;fill-opacity:1;stroke:none;stroke-width:52.82038116;stroke-linecap:round;stroke-linejoin:round;stroke-miterlimit:4;stroke-dasharray:none;stroke-opacity:1"
         d="M 23.730469,850.28404 A 128,128 0 0 0 0,924.36216 128,128 0 0 0 128,1052.3622 128,128 0 0 0 256,924.36216 128,128 0 0 0 234.1582,852.93052 l -95.94336,90.19922 c -0.48074,0.45195 -0.99482,0.84265 -1.52148,1.20508 -0.25351,0.30378 -0.51825,0.602 -0.80469,0.88672 -4.95863,4.92876 -12.91888,4.90394 -17.84765,-0.0547 l -94.310551,-94.8828 z"
         id="path4149" />
    </clipPath>
    <filter
       id="filter5743"
       inkscape:label="Drop Shadow"
       style="color-interpolation-filters:sRGB">
      <feFlood
         id="feFlood5745"
         result="flood"
         flood-color="rgb(0,0,0)"
         flood-opacity="0.498039" />
      <feComposite
         id="feComposite5747"
         result="composite1"
         operator="in"
         in2="SourceGraphic"
         in="flood" />
      <feGaussianBlur
         id="feGaussianBlur5749"
         result="blur"
         stdDeviation="3.7"
         in="composite1" />
      <feOffset
         id="feOffset5751"
         result="offset"
         dy="-4"
         dx="-3.7" />
      <feComposite
         id="feComposite5753"
         result="composite2"
         operator="over"
         in2="offset"
         in="SourceGraphic" />
    </filter>
    <clipPath
       clipPathUnits="userSpaceOnUse"
       id="clipPath4296">
      <path
         style="opacity:1;fill:#0592ff;fill-opacity:1;stroke:none;stroke-width:52.82038116;stroke-linecap:round;stroke-linejoin:round;stroke-miterlimit:4;stroke-dasharray:none;stroke-opacity:1"
         d="m 123.12381,809.73359 a 128,128 0 0 0 -87.652345,34.83789 l 86.988285,87.51367 90.69336,-85.25976 a 128,128 0 0 0 -90.0293,-37.0918 z M 18.854278,863.65547 a 128,128 0 0 0 -23.7304687,74.07812 128,128 0 0 0 128.0000007,128.00001 128,128 0 0 0 128,-128.00001 128,128 0 0 0 -21.8418,-71.43164 l -95.94336,90.19922 c -0.48074,0.45195 -0.99482,0.84265 -1.52148,1.20508 -0.25351,0.30378 -0.51825,0.602 -0.80469,0.88672 -4.95863,4.92876 -12.91888,4.90394 -17.84765,-0.0547 L 18.854278,863.65547 Z"
         id="path4298"
         inkscape:connector-curvature="0" />
    </clipPath>
    <clipPath
       id="clipPath956"
       clipPathUnits="userSpaceOnUse">
      <path
         inkscape:connector-curvature="0"
         style="opacity:1;fill:#0592ff;fill-opacity:1;stroke:none;stroke-width:52.82038116;stroke-linecap:round;stroke-linejoin:round;stroke-miterlimit:4;stroke-dasharray:none;stroke-opacity:1"
         d="m 128,796.36216 a 128,128 0 0 0 -87.652344,34.83789 l 86.988284,87.51367 90.69336,-85.25976 A 128,128 0 0 0 128,796.36216 Z M 23.730469,850.28404 A 128,128 0 0 0 0,924.36216 128,128 0 0 0 128,1052.3622 128,128 0 0 0 256,924.36216 128,128 0 0 0 234.1582,852.93052 l -95.94336,90.19922 c -0.48074,0.45195 -0.99482,0.84265 -1.52148,1.20508 -0.25351,0.30378 -0.51825,0.602 -0.80469,0.88672 -4.95863,4.92876 -12.91888,4.90394 -17.84765,-0.0547 z"
         id="path958" />
    </clipPath>
    <clipPath
       clipPathUnits="userSpaceOnUse"
       id="clipPath961">
      <path
         style="opacity:1;fill:#ff2a2a;fill-opacity:1;stroke:none;stroke-width:37.4144249;stroke-linecap:round;stroke-linejoin:round;stroke-miterlimit:4;stroke-dasharray:none;stroke-opacity:1"
         d="m 172.46796,836.44555 a 90.666641,90.666641 0 0 0 -62.08706,24.67684 l 61.61669,61.98883 64.24111,-60.39232 A 90.666641,90.666641 0 0 0 172.46796,836.44555 Z M 98.610398,874.6402 a 90.666641,90.666641 0 0 0 -16.809077,52.47199 90.666641,90.666641 0 0 0 90.666639,90.66661 90.666641,90.666641 0 0 0 90.66664,-90.66661 90.666641,90.666641 0 0 0 -15.47127,-50.59739 l -67.95986,63.89109 c -0.34052,0.32013 -0.70466,0.59688 -1.07771,0.8536 -0.17957,0.21518 -0.3671,0.42642 -0.56999,0.62809 -3.51236,3.49121 -9.15087,3.47363 -12.64208,-0.0387 z"
         id="path963"
         inkscape:connector-curvature="0" />
    </clipPath>
  </defs>
  <metadata
     id="metadata7">
    <rdf:RDF>
      <cc:Work
         rdf:about="">
        <dc:format>image/svg+xml</dc:format>
        <dc:type
           rdf:resource="http://purl.org/dc/dcmitype/StillImage" />
        <dc:title />
      </cc:Work>
    </rdf:RDF>
  </metadata>
  <g
     transform="translate(0,-796.36216)"
     id="layer1"
     inkscape:groupmode="layer"
     inkscape:label="Layer 1">
    <g
       id="g846"
       transform="translate(-319.76169,-36.815379)">
      <path
         id="path247"
         style="fill:#0592ff;fill-opacity:1;fill-rule:evenodd;stroke:none;stroke-width:35.8179"
         d="m 447.76169,833.17755 c -70.69224,0 -128,57.30776 -128,128 -2e-5,70.69205 57.30775,127.99995 128,127.99995 70.69225,0 128.00002,-57.3079 128,-127.99995 0,-70.69224 -57.30776,-128 -128,-128 z m -0.52148,8 c 36.77991,0.0443 71.12979,18.37706 91.63867,48.9082 l 0.0508,-0.0488 c 0.0889,0.15408 0.17745,0.30838 0.26562,0.46289 -0.10514,-0.13827 -0.21061,-0.27629 -0.3164,-0.41406 l -82.81641,77.85547 c -0.41524,0.39035 -0.85958,0.72797 -1.31445,1.04102 -0.21897,0.26235 -0.44792,0.5197 -0.69531,0.76562 -4.28281,4.25715 -11.15705,4.23598 -15.41407,-0.0469 l -81.33984,-81.83008 c 20.66153,-29.19773 54.17274,-46.59519 89.94141,-46.69336 z m 50.57031,106.23437 h 18.60937 c 4.62159,0 8.3418,3.72217 8.3418,8.34375 v 55.18753 h 32.45703 l -25.05273,28.2343 -25.05078,28.2344 -25.05274,-28.2344 -25.05273,-28.2343 h 32.45703 v -55.18753 c 0,-4.62158 3.72216,-8.34375 8.34375,-8.34375 z" />
    </g>
    <g
       id="g772" />
  </g>
</svg>
