<?xml version="1.0" encoding="UTF-8" standalone="no"?>
<!-- Created with Inkscape (http://www.inkscape.org/) -->

<svg
   xmlns:dc="http://purl.org/dc/elements/1.1/"
   xmlns:cc="http://creativecommons.org/ns#"
   xmlns:rdf="http://www.w3.org/1999/02/22-rdf-syntax-ns#"
   xmlns:svg="http://www.w3.org/2000/svg"
   xmlns="http://www.w3.org/2000/svg"
   xmlns:sodipodi="http://sodipodi.sourceforge.net/DTD/sodipodi-0.dtd"
   xmlns:inkscape="http://www.inkscape.org/namespaces/inkscape"
   width="256"
   height="256"
   viewBox="0 0 256 256"
   id="svg2"
   version="1.1"
   inkscape:version="0.92.2 (5c3e80d, 2017-08-06)"
   sodipodi:docname="mail-reply-all.svg">
  <sodipodi:namedview
     id="base"
     pagecolor="#ffffff"
     bordercolor="#666666"
     borderopacity="1.0"
     inkscape:pageopacity="0.0"
     inkscape:pageshadow="2"
     inkscape:zoom="2.0507812"
     inkscape:cx="39.253331"
     inkscape:cy="88.990478"
     inkscape:document-units="px"
     inkscape:current-layer="layer1"
     showgrid="true"
     units="px"
     inkscape:window-width="1920"
     inkscape:window-height="1054"
     inkscape:window-x="0"
     inkscape:window-y="0"
     inkscape:window-maximized="1">
    <inkscape:grid
       type="xygrid"
       id="grid4136"
       spacingx="5"
       spacingy="5" />
  </sodipodi:namedview>
  <defs
     id="defs4">
    <inkscape:path-effect
       effect="spiro"
       id="path-effect8228"
       is_visible="true" />
    <clipPath
       clipPathUnits="userSpaceOnUse"
       id="clipPath4828">
      <circle
         r="128"
         cy="924.36218"
         cx="128"
         id="circle4830"
         style="opacity:1;fill:#68bdff;fill-opacity:1;stroke:none;stroke-width:52.82038116;stroke-linecap:round;stroke-linejoin:round;stroke-miterlimit:4;stroke-dasharray:none;stroke-opacity:1" />
    </clipPath>
    <clipPath
       clipPathUnits="userSpaceOnUse"
       id="clipPath4851">
      <path
         id="path4853"
         d="m 128,796.36216 a 128,128 0 0 0 -87.652344,34.83789 l 86.988284,87.51367 90.69336,-85.25976 A 128,128 0 0 0 128,796.36216 Z M 23.730469,850.28404 A 128,128 0 0 0 0,924.36216 128,128 0 0 0 128,1052.3622 128,128 0 0 0 256,924.36216 128,128 0 0 0 234.1582,852.93052 l -95.94336,90.19922 c -0.48074,0.45195 -0.99482,0.84265 -1.52148,1.20508 -0.25351,0.30378 -0.51825,0.602 -0.80469,0.88672 -4.95863,4.92876 -12.91888,4.90394 -17.84765,-0.0547 L 23.730469,850.28404 Z"
         style="opacity:1;fill:#68bdff;fill-opacity:1;stroke:none;stroke-width:52.82038116;stroke-linecap:round;stroke-linejoin:round;stroke-miterlimit:4;stroke-dasharray:none;stroke-opacity:1"
         inkscape:connector-curvature="0" />
    </clipPath>
    <clipPath
       clipPathUnits="userSpaceOnUse"
       id="clipPath4147">
      <path
         id="path4149"
         d="M 23.730469,850.28404 A 128,128 0 0 0 0,924.36216 128,128 0 0 0 128,1052.3622 128,128 0 0 0 256,924.36216 128,128 0 0 0 234.1582,852.93052 l -95.94336,90.19922 c -0.48074,0.45195 -0.99482,0.84265 -1.52148,1.20508 -0.25351,0.30378 -0.51825,0.602 -0.80469,0.88672 -4.95863,4.92876 -12.91888,4.90394 -17.84765,-0.0547 l -94.310551,-94.8828 z"
         style="opacity:1;fill:#fff168;fill-opacity:1;stroke:none;stroke-width:52.82038116;stroke-linecap:round;stroke-linejoin:round;stroke-miterlimit:4;stroke-dasharray:none;stroke-opacity:1"
         inkscape:connector-curvature="0" />
    </clipPath>
    <filter
       style="color-interpolation-filters:sRGB"
       inkscape:label="Drop Shadow"
       id="filter5743">
      <feFlood
         flood-opacity="0.498039"
         flood-color="rgb(0,0,0)"
         result="flood"
         id="feFlood5745" />
      <feComposite
         in="flood"
         in2="SourceGraphic"
         operator="in"
         result="composite1"
         id="feComposite5747" />
      <feGaussianBlur
         in="composite1"
         stdDeviation="3.7"
         result="blur"
         id="feGaussianBlur5749" />
      <feOffset
         dx="-3.7"
         dy="-4"
         result="offset"
         id="feOffset5751" />
      <feComposite
         in="SourceGraphic"
         in2="offset"
         operator="over"
         result="composite2"
         id="feComposite5753" />
    </filter>
    <inkscape:path-effect
       is_visible="true"
       id="path-effect4208"
       effect="spiro" />
    <inkscape:path-effect
       is_visible="true"
       id="path-effect4208-6"
       effect="spiro" />
    <inkscape:path-effect
       effect="spiro"
       id="path-effect4197"
       is_visible="true" />
    <inkscape:path-effect
       is_visible="true"
       id="path-effect4208-9"
       effect="spiro" />
    <clipPath
       id="clipPath4264"
       clipPathUnits="userSpaceOnUse">
      <path
         inkscape:connector-curvature="0"
         id="path4266"
         d="m 135.27854,796.36216 a 128,128 0 0 0 -87.652344,34.83789 l 86.988284,87.51367 90.69336,-85.25976 a 128,128 0 0 0 -90.0293,-37.0918 z M 31.009009,850.28404 a 128,128 0 0 0 -23.730469,74.07812 128,128 0 0 0 128,128.00004 128,128 0 0 0 128,-128.00004 128,128 0 0 0 -21.8418,-71.43164 l -95.94336,90.19922 c -0.48074,0.45195 -0.99482,0.84265 -1.52148,1.20508 -0.25351,0.30378 -0.51825,0.602 -0.80469,0.88672 -4.95863,4.92876 -12.91888,4.90394 -17.84765,-0.0547 L 31.009009,850.28404 Z"
         style="opacity:1;fill:#0592ff;fill-opacity:1;stroke:none;stroke-width:52.82038116;stroke-linecap:round;stroke-linejoin:round;stroke-miterlimit:4;stroke-dasharray:none;stroke-opacity:1" />
    </clipPath>
    <clipPath
       clipPathUnits="userSpaceOnUse"
       id="clipPath1063">
      <path
         id="path1065"
         d="m 72.366516,763.68107 a 139.17778,139.17778 0 0 0 -78.5501065,65.94055 l 119.7183305,60.56754 64.44064,-119.022 A 139.17778,139.17778 0 0 0 72.366516,763.68107 Z m -89.172776,91.32177 a 139.17778,139.17778 0 0 0 0.847816,84.57482 139.17778,139.17778 0 0 0 175.896584,88.32494 139.17778,139.17778 0 0 0 88.32496,-175.89657 139.17778,139.17778 0 0 0 -46.97835,-66.25413 l -68.16957,125.91599 c -0.34158,0.63092 -0.73852,1.21002 -1.15812,1.76425 -0.15773,0.40025 -0.32896,0.79861 -0.5272,1.19046 -3.43187,6.78328 -11.65626,9.48068 -18.43955,6.04881 z"
         style="opacity:1;fill:#0592ff;fill-opacity:1;stroke:none;stroke-width:57.43299484;stroke-linecap:round;stroke-linejoin:round;stroke-miterlimit:4;stroke-dasharray:none;stroke-opacity:1"
         inkscape:connector-curvature="0" />
    </clipPath>
  </defs>
  <metadata
     id="metadata7">
    <rdf:RDF>
      <cc:Work
         rdf:about="">
        <dc:format>image/svg+xml</dc:format>
        <dc:type
           rdf:resource="http://purl.org/dc/dcmitype/StillImage" />
        <dc:title />
      </cc:Work>
    </rdf:RDF>
  </metadata>
  <g
     inkscape:label="Layer 1"
     inkscape:groupmode="layer"
     id="layer1"
     transform="translate(0,-796.36216)">
    <path
       style="opacity:1;fill:#0592ff;fill-opacity:1;stroke:none;stroke-width:52.82038116;stroke-linecap:round;stroke-linejoin:round;stroke-miterlimit:4;stroke-dasharray:none;stroke-opacity:1"
       d="M 128 0 A 128 128 0 0 0 40.347656 34.837891 L 127.33594 122.35156 L 218.0293 37.091797 A 128 128 0 0 0 128 0 z M 23.730469 53.921875 A 128 128 0 0 0 0 128 A 128 128 0 0 0 128 256 A 128 128 0 0 0 256 128 A 128 128 0 0 0 234.1582 56.568359 L 138.21484 146.76758 C 137.7341 147.21953 137.22002 147.61023 136.69336 147.97266 C 136.43985 148.27644 136.17511 148.57466 135.88867 148.85938 C 130.93004 153.78814 122.96979 153.76332 118.04102 148.80469 L 23.730469 53.921875 z "
       transform="translate(0,796.36216)"
       id="path4135" />
    <g
       id="g936"
       transform="matrix(0.87298826,0.28933675,-0.28933675,0.87298826,285.78588,108.73926)"
       style="fill:#00579a;fill-opacity:1"
       clip-path="url(#clipPath1063)">
      <g
         transform="rotate(22.167918,155.65045,1009.6704)"
         inkscape:transform-center-y="-65.410517"
         inkscape:transform-center-x="-30.802819"
         id="g932"
         style="fill:#00579a;fill-opacity:1">
        <g
           id="g1003"
           transform="rotate(-40.504796,1218.175,586.18577)"
           style="fill:#00579a;fill-opacity:1">
          <g
             id="g1000"
             style="fill:#00579a;fill-opacity:1;stroke:none;stroke-width:28.23530197;stroke-linecap:butt;stroke-linejoin:miter;stroke-miterlimit:4;stroke-dasharray:none;stroke-opacity:1">
            <path
               id="path966"
               d="M230.0 104.85938L192.61328 110.05664L51.1919237627 251.477996237L88.5786437627 246.280736237Z"
               style="fill:#00579a;fill-opacity:1" />
            <path
               id="path968"
               d="M192.61328 110.05664L155.22461 115.25391L13.8032537627 256.675266237L51.1919237627 251.477996237Z"
               style="fill:#00579a;fill-opacity:1" />
            <path
               id="path970"
               d="M155.22461 115.25391L179.9043 136.33594L38.4829437627 277.757296237L13.8032537627 256.675266237Z"
               style="fill:#00579a;fill-opacity:1" />
            <path
               id="path972"
               d="M179.9043 136.33594L133.49219 190.66797L-7.92916623731 332.089326237L38.4829437627 277.757296237Z"
               style="fill:#00579a;fill-opacity:1" />
            <path
               id="path974"
               d="M133.49219 190.66797L86.419922 137.76758L-55.0014342373 279.188936237L-7.92916623731 332.089326237Z"
               style="fill:#00579a;fill-opacity:1" />
            <path
               id="path976"
               d="M86.419922 137.76758L110.66797 116.19141L-30.7533862373 257.612766237L-55.0014342373 279.188936237Z"
               style="fill:#00579a;fill-opacity:1" />
            <path
               id="path978"
               d="M110.66797 116.19141L73.183594 111.75195L-68.2377622373 253.173306237L-30.7533862373 257.612766237Z"
               style="fill:#00579a;fill-opacity:1" />
            <path
               id="path980"
               d="M73.183594 111.75195L35.699219 107.31055L-105.722137237 248.731906237L-68.2377622373 253.173306237Z"
               style="fill:#00579a;fill-opacity:1" />
            <path
               id="path982"
               d="M35.699219 107.31055L35.751949 145.05859L-105.669407237 286.479946237L-105.722137237 248.731906237Z"
               style="fill:#00579a;fill-opacity:1" />
            <path
               id="path984"
               d="M35.751949 145.05859L35.806639 182.80469L-105.614717237 324.226046237L-105.669407237 286.479946237Z"
               style="fill:#00579a;fill-opacity:1" />
            <path
               id="path986"
               d="M35.806639 182.80469L60.054686 161.22852L-81.3666702373 302.649876237L-105.614717237 324.226046237Z"
               style="fill:#00579a;fill-opacity:1" />
            <path
               id="path988"
               d="M60.054686 161.22852L120.89844 223.66406L-20.5229162373 365.085416237L-81.3666702373 302.649876237Z"
               style="fill:#00579a;fill-opacity:1" />
            <path
               id="path990"
               d="M120.89844 223.66406L134.25781 223.66406L-7.16354623731 365.085416237L-20.5229162373 365.085416237Z"
               style="fill:#00579a;fill-opacity:1" />
            <path
               id="path992"
               d="M134.25781 223.66406L147.29102 223.66406L5.86966376269 365.085416237L-7.16354623731 365.085416237Z"
               style="fill:#00579a;fill-opacity:1" />
            <path
               id="path994"
               d="M147.29102 223.66406L206.74023 159.25977L65.3188737627 300.681126237L5.86966376269 365.085416237Z"
               style="fill:#00579a;fill-opacity:1" />
            <path
               id="path996"
               d="M206.74023 159.25977L231.41797 180.33984L89.9966137627 321.761196237L65.3188737627 300.681126237Z"
               style="fill:#00579a;fill-opacity:1" />
            <path
               id="path998"
               d="M231.41797 180.33984L230.70898 142.59961L89.2876237627 284.020966237L89.9966137627 321.761196237Z"
               style="fill:#00579a;fill-opacity:1" />
          </g>
          <path
             style="fill:#00579a;fill-opacity:1;stroke:none;stroke-width:28.23530197;stroke-linecap:butt;stroke-linejoin:miter;stroke-miterlimit:4;stroke-dasharray:none;stroke-opacity:1"
             d="m 230,104.85938 -37.38672,5.19726 -37.38867,5.19727 24.67969,21.08203 -46.41211,54.33203 -47.072268,-52.90039 24.248048,-21.57617 -37.484376,-4.43946 -37.484375,-4.4414 0.05273,37.74804 0.05469,37.7461 24.248047,-21.57617 60.843754,62.43554 h 13.35937 13.03321 l 59.44921,-64.40429 24.67774,21.08007 -0.70899,-37.74023 z"
             transform=""
             id="path930"
             inkscape:connector-curvature="0"
             sodipodi:nodetypes="ccccccccccccccccccc" />
        </g>
      </g>
      <g
         id="g934"
         style="fill:#00579a;fill-opacity:1" />
    </g>
    <g
       style="fill:#ffffff;fill-opacity:1"
       transform="matrix(0.87298826,0.28933675,-0.28933675,0.87298826,285.78588,108.73926)"
       id="g925">
      <g
         style="fill:#ffffff;fill-opacity:1"
         id="g913"
         inkscape:transform-center-x="-30.802819"
         inkscape:transform-center-y="-65.410517"
         transform="rotate(22.167918,155.65045,1009.6704)">
        <path
           sodipodi:nodetypes="ccccccccccccccccccc"
           inkscape:connector-curvature="0"
           id="rect845"
           transform="rotate(-40.504796,1218.175,586.18577)"
           d="m 230,104.85938 -37.38672,5.19726 -37.38867,5.19727 24.67969,21.08203 -46.41211,54.33203 -47.072268,-52.90039 24.248048,-21.57617 -37.484376,-4.43946 -37.484375,-4.4414 0.05273,37.74804 0.05469,37.7461 24.248047,-21.57617 60.843754,62.43554 h 13.35937 13.03321 l 59.44921,-64.40429 24.67774,21.08007 -0.70899,-37.74023 z"
           style="fill:#ffffff;fill-opacity:1;stroke:none;stroke-width:28.23530197;stroke-linecap:butt;stroke-linejoin:miter;stroke-miterlimit:4;stroke-dasharray:none;stroke-opacity:1" />
      </g>
      <g
         style="fill:#ffffff;fill-opacity:1"
         id="g917" />
    </g>
  </g>
</svg>
