<?xml version="1.0" encoding="UTF-8" standalone="no"?>
<!-- Created with Inkscape (http://www.inkscape.org/) -->

<svg
   xmlns:dc="http://purl.org/dc/elements/1.1/"
   xmlns:cc="http://creativecommons.org/ns#"
   xmlns:rdf="http://www.w3.org/1999/02/22-rdf-syntax-ns#"
   xmlns:svg="http://www.w3.org/2000/svg"
   xmlns="http://www.w3.org/2000/svg"
   xmlns:sodipodi="http://sodipodi.sourceforge.net/DTD/sodipodi-0.dtd"
   xmlns:inkscape="http://www.inkscape.org/namespaces/inkscape"
   sodipodi:docname="mail-reply-sender.svg"
   inkscape:version="0.91 r13725"
   version="1.1"
   id="svg2"
   viewBox="0 0 256 256"
   height="256"
   width="256">
  <sodipodi:namedview
     inkscape:window-maximized="1"
     inkscape:window-y="0"
     inkscape:window-x="0"
     inkscape:window-height="721"
     inkscape:window-width="1366"
     units="px"
     showgrid="true"
     inkscape:current-layer="layer1"
     inkscape:document-units="px"
     inkscape:cy="128"
     inkscape:cx="128"
     inkscape:zoom="2.0507812"
     inkscape:pageshadow="2"
     inkscape:pageopacity="0.0"
     borderopacity="1.0"
     bordercolor="#666666"
     pagecolor="#ffffff"
     id="base">
    <inkscape:grid
       spacingy="5"
       spacingx="5"
       id="grid4136"
       type="xygrid" />
  </sodipodi:namedview>
  <defs
     id="defs4">
    <clipPath
       id="clipPath4828"
       clipPathUnits="userSpaceOnUse">
      <circle
         style="opacity:1;fill:#68bdff;fill-opacity:1;stroke:none;stroke-width:52.82038116;stroke-linecap:round;stroke-linejoin:round;stroke-miterlimit:4;stroke-dasharray:none;stroke-opacity:1"
         id="circle4830"
         cx="128"
         cy="924.36218"
         r="128" />
    </clipPath>
    <clipPath
       id="clipPath4851"
       clipPathUnits="userSpaceOnUse">
      <path
         inkscape:connector-curvature="0"
         style="opacity:1;fill:#68bdff;fill-opacity:1;stroke:none;stroke-width:52.82038116;stroke-linecap:round;stroke-linejoin:round;stroke-miterlimit:4;stroke-dasharray:none;stroke-opacity:1"
         d="m 128,796.36216 a 128,128 0 0 0 -87.652344,34.83789 l 86.988284,87.51367 90.69336,-85.25976 A 128,128 0 0 0 128,796.36216 Z M 23.730469,850.28404 A 128,128 0 0 0 0,924.36216 128,128 0 0 0 128,1052.3622 128,128 0 0 0 256,924.36216 128,128 0 0 0 234.1582,852.93052 l -95.94336,90.19922 c -0.48074,0.45195 -0.99482,0.84265 -1.52148,1.20508 -0.25351,0.30378 -0.51825,0.602 -0.80469,0.88672 -4.95863,4.92876 -12.91888,4.90394 -17.84765,-0.0547 L 23.730469,850.28404 Z"
         id="path4853" />
    </clipPath>
    <clipPath
       id="clipPath4147"
       clipPathUnits="userSpaceOnUse">
      <path
         inkscape:connector-curvature="0"
         style="opacity:1;fill:#fff168;fill-opacity:1;stroke:none;stroke-width:52.82038116;stroke-linecap:round;stroke-linejoin:round;stroke-miterlimit:4;stroke-dasharray:none;stroke-opacity:1"
         d="M 23.730469,850.28404 A 128,128 0 0 0 0,924.36216 128,128 0 0 0 128,1052.3622 128,128 0 0 0 256,924.36216 128,128 0 0 0 234.1582,852.93052 l -95.94336,90.19922 c -0.48074,0.45195 -0.99482,0.84265 -1.52148,1.20508 -0.25351,0.30378 -0.51825,0.602 -0.80469,0.88672 -4.95863,4.92876 -12.91888,4.90394 -17.84765,-0.0547 l -94.310551,-94.8828 z"
         id="path4149" />
    </clipPath>
    <filter
       id="filter5743"
       inkscape:label="Drop Shadow"
       style="color-interpolation-filters:sRGB">
      <feFlood
         id="feFlood5745"
         result="flood"
         flood-color="rgb(0,0,0)"
         flood-opacity="0.498039" />
      <feComposite
         id="feComposite5747"
         result="composite1"
         operator="in"
         in2="SourceGraphic"
         in="flood" />
      <feGaussianBlur
         id="feGaussianBlur5749"
         result="blur"
         stdDeviation="3.7"
         in="composite1" />
      <feOffset
         id="feOffset5751"
         result="offset"
         dy="-4"
         dx="-3.7" />
      <feComposite
         id="feComposite5753"
         result="composite2"
         operator="over"
         in2="offset"
         in="SourceGraphic" />
    </filter>
    <inkscape:path-effect
       effect="spiro"
       id="path-effect4208"
       is_visible="true" />
    <inkscape:path-effect
       effect="spiro"
       id="path-effect4208-6"
       is_visible="true" />
    <inkscape:path-effect
       is_visible="true"
       id="path-effect4197"
       effect="spiro" />
    <inkscape:path-effect
       effect="spiro"
       id="path-effect4208-9"
       is_visible="true" />
    <clipPath
       clipPathUnits="userSpaceOnUse"
       id="clipPath4389">
      <path
         style="opacity:1;fill:#0592ff;fill-opacity:1;stroke:none;stroke-width:52.82038116;stroke-linecap:round;stroke-linejoin:round;stroke-miterlimit:4;stroke-dasharray:none;stroke-opacity:1"
         d="m 127.21515,803.35239 a 90.333204,90.333204 0 0 0 -61.858724,24.58608 l 61.390084,61.76086 64.00485,-60.17022 a 90.333204,90.333204 0 0 0 -63.53621,-26.17672 z m -73.585941,38.05418 a 90.333204,90.333204 0 0 0 -16.74726,52.27902 90.333204,90.333204 0 0 0 90.333201,90.3332 90.333204,90.333204 0 0 0 90.33321,-90.3332 90.333204,90.333204 0 0 0 -15.41438,-50.41132 l -67.70993,63.65613 c -0.33927,0.31895 -0.70207,0.59468 -1.07375,0.85046 -0.17891,0.21438 -0.36574,0.42485 -0.56789,0.62578 -3.49945,3.47837 -9.11722,3.46085 -12.59559,-0.0386 L 53.629209,841.40657 Z"
         id="path4391"
         inkscape:connector-curvature="0" />
    </clipPath>
  </defs>
  <metadata
     id="metadata7">
    <rdf:RDF>
      <cc:Work
         rdf:about="">
        <dc:format>image/svg+xml</dc:format>
        <dc:type
           rdf:resource="http://purl.org/dc/dcmitype/StillImage" />
        <dc:title />
      </cc:Work>
    </rdf:RDF>
  </metadata>
  <g
     transform="translate(0,-796.36216)"
     id="layer1"
     inkscape:groupmode="layer"
     inkscape:label="Layer 1">
    <path
       id="path4135"
       transform="translate(0,796.36216)"
       d="M 128 0 A 128 128 0 0 0 40.347656 34.837891 L 127.33594 122.35156 L 218.0293 37.091797 A 128 128 0 0 0 128 0 z M 23.730469 53.921875 A 128 128 0 0 0 0 128 A 128 128 0 0 0 128 256 A 128 128 0 0 0 256 128 A 128 128 0 0 0 234.1582 56.568359 L 138.21484 146.76758 C 137.7341 147.21953 137.22002 147.61023 136.69336 147.97266 C 136.43985 148.27644 136.17511 148.57466 135.88867 148.85938 C 130.93004 153.78814 122.96979 153.76332 118.04102 148.80469 L 23.730469 53.921875 z "
       style="opacity:1;fill:#0592ff;fill-opacity:1;stroke:none;stroke-width:52.82038116;stroke-linecap:round;stroke-linejoin:round;stroke-miterlimit:4;stroke-dasharray:none;stroke-opacity:1" />
    <g
       transform="matrix(1.4169762,0,0,1.4169762,-52.260844,-341.96905)"
       id="g4228"
       style="fill:#005da5;fill-opacity:1"
       clip-path="url(#clipPath4389)">
      <g
         id="g4297"
         transform="matrix(0.70572816,0,0,0.70572816,36.881949,803.35239)"
         style="fill:#005da5;fill-opacity:1">
        <g
           id="g4299"
           style="fill:#005da5;fill-opacity:1;stroke:#000000;stroke-width:0;stroke-linecap:round;stroke-linejoin:round;stroke-miterlimit:4;stroke-dasharray:none;stroke-opacity:1">
          <path
             id="path4301"
             d="M123.68945 114.21875L92.271484 145.63672L-261.281906593 499.190110593L-229.863940593 467.772140593Z"
             style="fill:#005da5;fill-opacity:1" />
          <path
             id="path4303"
             d="M92.271484 145.63672L83.457031 145.63672L-270.096359593 499.190110593L-261.281906593 499.190110593Z"
             style="fill:#005da5;fill-opacity:1" />
          <path
             id="path4305"
             d="M83.457031 145.63672C79.5839104989 145.63672 76.0883045955 147.195765403 73.5609790191 149.723090981L-279.992411574 503.276481574C-277.465085998 500.749155997 -273.969480094 499.190110593 -270.096359593 499.190110593Z"
             style="fill:#005da5;fill-opacity:1" />
          <path
             id="path4307"
             d="M73.5609790191 149.723090981C71.0336540966 152.250415905 69.474609 155.746020501 69.474609 159.61914L-284.078781593 513.172530593C-284.078781593 509.299411094 -282.519736497 505.803806498 -279.992411574 503.276481574Z"
             style="fill:#005da5;fill-opacity:1" />
          <path
             id="path4309"
             d="M69.474609 159.61914L69.474609 168.43359L-284.078781593 521.986980593L-284.078781593 513.172530593Z"
             style="fill:#005da5;fill-opacity:1" />
          <path
             id="path4311"
             d="M69.474609 168.43359L68.708984 169.19922L-284.844406593 522.752610593L-284.078781593 521.986980593Z"
             style="fill:#005da5;fill-opacity:1" />
          <path
             id="path4313"
             d="M68.708984 169.19922L69.474609 169.96484L-284.078781593 523.518230593L-284.844406593 522.752610593Z"
             style="fill:#005da5;fill-opacity:1" />
          <path
             id="path4315"
             d="M69.474609 169.96484L69.474609 178.78125L-284.078781593 532.334640593L-284.078781593 523.518230593Z"
             style="fill:#005da5;fill-opacity:1" />
          <path
             id="path4317"
             d="M69.474609 178.78125C69.474609 186.52749 75.710791 192.76367 83.457031 192.76367L-270.096359593 546.317060593C-277.842599593 546.317060593 -284.078781593 540.080880593 -284.078781593 532.334640593Z"
             style="fill:#005da5;fill-opacity:1" />
          <path
             id="path4319"
             d="M83.457031 192.76367L92.273438 192.76367L-261.279952593 546.317060593L-270.096359593 546.317060593Z"
             style="fill:#005da5;fill-opacity:1" />
          <path
             id="path4321"
             d="M92.273438 192.76367L123.68945 224.18164L-229.863940593 577.735030593L-261.279952593 546.317060593Z"
             style="fill:#005da5;fill-opacity:1" />
          <path
             id="path4323"
             d="M123.68945 224.18164L123.68945 192.76367L-229.863940593 546.317060593L-229.863940593 577.735030593Z"
             style="fill:#005da5;fill-opacity:1" />
          <path
             id="path4325"
             d="M123.68945 192.76367L189.01758 192.76367L-164.535810593 546.317060593L-229.863940593 546.317060593Z"
             style="fill:#005da5;fill-opacity:1" />
          <path
             id="path4327"
             d="M189.01758 192.76367C196.76382 192.76367 203.0 186.52749 203.0 178.78125L-150.553390593 532.334640593C-150.553390593 540.080880593 -156.789570593 546.317060593 -164.535810593 546.317060593Z"
             style="fill:#005da5;fill-opacity:1" />
          <path
             id="path4329"
             d="M203.0 178.78125L203.0 159.61914L-150.553390593 513.172530593L-150.553390593 532.334640593Z"
             style="fill:#005da5;fill-opacity:1" />
          <path
             id="path4331"
             d="M203.0 159.61914C203.0 151.8729 196.76382 145.63672 189.01758 145.63672L-164.535810593 499.190110593C-156.789570593 499.190110593 -150.553390593 505.426290593 -150.553390593 513.172530593Z"
             style="fill:#005da5;fill-opacity:1" />
          <path
             id="path4333"
             d="M189.01758 145.63672L123.68945 145.63672L-229.863940593 499.190110593L-164.535810593 499.190110593Z"
             style="fill:#005da5;fill-opacity:1" />
          <path
             id="path4335"
             d="M123.68945 145.63672L123.68945 114.21875L-229.863940593 467.772140593L-229.863940593 499.190110593Z"
             style="fill:#005da5;fill-opacity:1" />
        </g>
        <path
           id="rect4216"
           transform=""
           d="M 123.68945 114.21875 L 92.271484 145.63672 L 83.457031 145.63672 C 75.710791 145.63672 69.474609 151.8729 69.474609 159.61914 L 69.474609 168.43359 L 68.708984 169.19922 L 69.474609 169.96484 L 69.474609 178.78125 C 69.474609 186.52749 75.710791 192.76367 83.457031 192.76367 L 92.273438 192.76367 L 123.68945 224.18164 L 123.68945 192.76367 L 189.01758 192.76367 C 196.76382 192.76367 203 186.52749 203 178.78125 L 203 159.61914 C 203 151.8729 196.76382 145.63672 189.01758 145.63672 L 123.68945 145.63672 L 123.68945 114.21875 z "
           style="fill:#005da5;fill-opacity:1;stroke:#000000;stroke-width:0;stroke-linecap:round;stroke-linejoin:round;stroke-miterlimit:4;stroke-dasharray:none;stroke-opacity:1" />
      </g>
    </g>
    <g
       id="g4154"
       transform="matrix(1.4169762,0,0,1.4169762,-52.260844,-341.96905)">
      <rect
         transform="matrix(0,-1,-1,0,0,0)"
         style="fill:#f77408;fill-opacity:1;stroke:#000000;stroke-width:0;stroke-linecap:round;stroke-linejoin:round;stroke-miterlimit:4;stroke-dasharray:none;stroke-opacity:1"
         id="rect4156"
         width="33.258682"
         height="94.232941"
         x="-939.39093"
         y="-180.14476"
         ry="9.8677626" />
      <path
         inkscape:connector-curvature="0"
         inkscape:original-d="m 124.17311,961.56339 -38.8018,-38.8018 38.8018,-38.8018"
         inkscape:path-effect="#path-effect4208-9"
         id="path4158"
         d="m 124.17311,961.56339 -38.8018,-38.8018 38.8018,-38.8018"
         style="fill:none;fill-rule:evenodd;stroke:#f77408;stroke-width:22.17245674;stroke-linecap:round;stroke-linejoin:round;stroke-miterlimit:4;stroke-dasharray:none;stroke-opacity:1" />
    </g>
  </g>
</svg>
