<?xml version="1.0" encoding="UTF-8" standalone="no"?>
<!-- Created with Inkscape (http://www.inkscape.org/) -->

<svg
   xmlns:dc="http://purl.org/dc/elements/1.1/"
   xmlns:cc="http://creativecommons.org/ns#"
   xmlns:rdf="http://www.w3.org/1999/02/22-rdf-syntax-ns#"
   xmlns:svg="http://www.w3.org/2000/svg"
   xmlns="http://www.w3.org/2000/svg"
   xmlns:sodipodi="http://sodipodi.sourceforge.net/DTD/sodipodi-0.dtd"
   xmlns:inkscape="http://www.inkscape.org/namespaces/inkscape"
   width="256"
   height="256"
   viewBox="0 0 256 256"
   id="svg2"
   version="1.1"
   inkscape:version="0.92pre3 r"
   sodipodi:docname="evolution-symbolic.svg">
  <sodipodi:namedview
     id="base"
     pagecolor="#ffffff"
     bordercolor="#666666"
     borderopacity="1.0"
     inkscape:pageopacity="0.0"
     inkscape:pageshadow="2"
     inkscape:zoom="3.3359375"
     inkscape:cx="24.281031"
     inkscape:cy="113.56981"
     inkscape:document-units="px"
     inkscape:current-layer="layer1"
     showgrid="true"
     units="px"
     inkscape:window-width="1920"
     inkscape:window-height="1054"
     inkscape:window-x="0"
     inkscape:window-y="0"
     inkscape:window-maximized="1">
    <inkscape:grid
       spacingy="5"
       spacingx="5"
       id="grid4168"
       type="xygrid" />
  </sodipodi:namedview>
  <defs
     id="defs4">
    <clipPath
       id="clipPath5002"
       clipPathUnits="userSpaceOnUse">
      <g
         id="g5004">
        <path
           style="fill:#0f9d58;fill-opacity:1;stroke:none;stroke-width:4.85768509;stroke-linejoin:round;stroke-miterlimit:4;stroke-dasharray:none;stroke-opacity:1"
           d="M 88.118406,249.43519 C 46.103287,235.29134 14.771284,201.68742 4.1335861,159.36053 1.3377997,148.23623 0.92261224,144.16281 0.92582381,127.88908 0.92787958,117.47222 1.134384,112.01362 1.6577819,108.54099 4.4653598,89.913336 12.17654,70.638106 23.042737,55.086148 c 3.958678,-5.665755 8.344812,-10.93092 9.101533,-10.925587 0.32809,0.0023 10.488643,18.309713 22.579009,40.683112 12.090365,22.373397 22.374546,41.334697 22.853732,42.136217 0.479186,0.80151 0.924733,2.44098 0.990103,3.64326 0.343424,6.31639 2.524175,14.20976 5.6424,20.42304 2.954444,5.88693 5.065381,8.73258 10.434696,14.06652 6.71418,6.66995 12.88853,10.28643 21.73204,12.72904 3.16587,0.87442 5.10478,1.05037 11.57517,1.05037 8.82596,0 12.60219,-0.76201 19.26429,-3.88733 2.04584,-0.95974 3.93661,-1.66536 4.20172,-1.56805 0.2651,0.0973 -11.0555,17.66459 -25.1569,39.0384 l -25.6389,38.86148 -3.094121,0.11221 c -2.554618,0.0927 -4.195204,-0.25845 -9.409103,-2.01364 z"
           id="path5006"
           inkscape:connector-curvature="0"
           transform="translate(0,796.36216)" />
        <path
           style="fill:#f4b400;fill-opacity:1;stroke:none;stroke-width:4.85768509;stroke-linejoin:round;stroke-miterlimit:4;stroke-dasharray:none;stroke-opacity:1"
           d="m 112.35984,1051.5167 c -10.0014,-1.4495 -12.15632,-1.8201 -12.531784,-2.1556 -0.248854,-0.2223 1.738304,-3.7475 4.550294,-8.0722 7.16635,-11.0213 49.77231,-74.64801 50.25856,-75.05489 3.57509,-2.99158 8.63523,-8.0414 10.57512,-10.55356 3.36154,-4.35318 7.55784,-12.9141 9.06523,-18.494 6.19314,-22.92535 -2.59253,-47.15185 -21.69967,-59.83688 l -2.96081,-1.96565 17.02469,0.29584 c 9.36358,0.1627 31.17032,0.43384 48.45941,0.60252 l 31.43471,0.30668 1.54584,4.18869 c 2.24597,6.08579 4.67816,15.0947 5.93451,21.9816 1.52517,8.36049 1.92536,28.85896 0.73851,37.82758 -3.0805,23.27845 -12.81326,45.72018 -27.80202,64.10577 -20.47622,25.1166 -51.4599,42.1974 -84.14612,46.3885 -5.31244,0.6812 -26.64601,0.9864 -30.44647,0.4356 z"
           id="path5008"
           inkscape:connector-curvature="0" />
        <path
           style="fill:#db4437;fill-opacity:1;stroke:none;stroke-width:10;stroke-linejoin:round;stroke-miterlimit:4;stroke-dasharray:none;stroke-opacity:1"
           d="M 67.989788,108.87302 C 41.284246,59.575543 33.290284,45.149038 32.233625,44.344765 31.651257,43.901497 32.811213,42.549931 38.695603,36.815353 53.43581,22.450419 68.809334,13.040746 87.839196,6.7360352 101.68742,2.1480329 112.58238,0.43719165 127.95142,0.43719165 c 21.3099,0 37.80488,3.80960275 56.83492,13.12633035 25.29351,12.383198 46.19421,33.578863 58.51993,59.345832 1.61138,3.368591 2.92978,6.372442 2.92978,6.675231 0,0.560033 -10.54865,0.49527 -71.16508,-0.436914 l -24.28843,-0.373518 -3.93063,-1.764495 c -6.75732,-3.033425 -10.64587,-3.839529 -18.6576,-3.867747 -5.0296,-0.01773 -7.97946,0.207636 -10.31642,0.788106 -14.50826,3.603659 -26.283291,12.94777 -33.291614,26.418653 -3.58502,6.89086 -5.24713,13.08166 -6.331628,23.58317 l -0.33738,3.26696 -9.92748,-18.32578 z"
           id="path5010"
           inkscape:connector-curvature="0"
           transform="translate(0,796.36216)" />
      </g>
    </clipPath>
    <clipPath
       clipPathUnits="userSpaceOnUse"
       id="clipPath4271">
      <circle
         style="fill:#292929;fill-opacity:0.26020412;stroke:none;stroke-width:10;stroke-linejoin:round;stroke-miterlimit:4;stroke-dasharray:none;stroke-opacity:0.25882353"
         id="circle4273"
         cx="128"
         cy="128.00002"
         r="128" />
    </clipPath>
    <clipPath
       id="clipPath4363"
       clipPathUnits="userSpaceOnUse">
      <circle
         style="fill:#4285f4;fill-opacity:1;stroke:none;stroke-width:10;stroke-linejoin:round;stroke-miterlimit:4;stroke-dasharray:none;stroke-opacity:0.25882353"
         id="circle4365"
         cx="128"
         cy="924.36218"
         r="128" />
    </clipPath>
    <clipPath
       clipPathUnits="userSpaceOnUse"
       id="clipPath4452">
      <circle
         style="fill:#4285f4;fill-opacity:1;stroke:none;stroke-width:10;stroke-linejoin:round;stroke-miterlimit:4;stroke-dasharray:none;stroke-opacity:0.25882353"
         id="circle4454"
         cx="128"
         cy="924.36218"
         r="128" />
    </clipPath>
    <clipPath
       clipPathUnits="userSpaceOnUse"
       id="clipPath4546">
      <circle
         style="fill:#4285f4;fill-opacity:1;stroke:none;stroke-width:10;stroke-linejoin:round;stroke-miterlimit:4;stroke-dasharray:none;stroke-opacity:0.25882353"
         id="circle4548"
         cx="128"
         cy="924.36218"
         r="128" />
    </clipPath>
    <clipPath
       clipPathUnits="userSpaceOnUse"
       id="clipPath4552">
      <circle
         style="fill:#4285f4;fill-opacity:1;stroke:none;stroke-width:10;stroke-linejoin:round;stroke-miterlimit:4;stroke-dasharray:none;stroke-opacity:0.25882353"
         id="circle4554"
         cx="128"
         cy="924.36218"
         r="128" />
    </clipPath>
    <clipPath
       id="clipPath4803"
       clipPathUnits="userSpaceOnUse">
      <circle
         style="fill:#8ab4ff;fill-opacity:1;stroke:none;stroke-width:10;stroke-linejoin:round;stroke-miterlimit:4;stroke-dasharray:none;stroke-opacity:0.25882353"
         id="circle4805"
         cx="128"
         cy="924.36218"
         r="128" />
    </clipPath>
    <clipPath
       clipPathUnits="userSpaceOnUse"
       id="clipPath4147">
      <circle
         style="fill:#8ab4ff;fill-opacity:1;stroke:none;stroke-width:7.015625;stroke-linejoin:round;stroke-miterlimit:4;stroke-dasharray:none;stroke-opacity:0.25882353"
         id="circle4149"
         cx="128"
         cy="879.94446"
         r="89.799995" />
    </clipPath>
  </defs>
  <metadata
     id="metadata7">
    <rdf:RDF>
      <cc:Work
         rdf:about="">
        <dc:format>image/svg+xml</dc:format>
        <dc:type
           rdf:resource="http://purl.org/dc/dcmitype/StillImage" />
        <dc:title />
      </cc:Work>
    </rdf:RDF>
  </metadata>
  <g
     inkscape:label="Layer 1"
     inkscape:groupmode="layer"
     id="layer1"
     transform="translate(0,-796.36216)">
    <path
       style="fill:#8ab4ff;fill-opacity:1;stroke:none;stroke-width:10;stroke-linejoin:round;stroke-miterlimit:4;stroke-dasharray:none;stroke-opacity:0.25882353"
       d="M 128 0 A 128 128 0 0 0 0 128 A 128 128 0 0 0 128 256 A 128 128 0 0 0 256 128 A 128 128 0 0 0 128 0 z M 131.4082 38 C 143.3013 38 154.1239 39.636207 163.87891 42.910156 C 173.63392 46.117283 182.35337 50.995085 190.03711 57.542969 C 198.92353 64.959443 205.57262 73.41264 209.98242 82.900391 C 214.39222 92.388141 216.59766 102.94448 216.59766 114.57031 C 216.59766 133.01129 211.31851 147.37648 200.76172 157.66602 C 190.20493 167.95555 175.43839 173.09961 156.46289 173.09961 L 153.35547 173.09961 L 153.35547 158.26758 C 150.4156 163.07827 146.54116 166.75204 141.73047 169.29102 C 136.9866 171.82999 131.60711 173.09961 125.59375 173.09961 C 112.83206 173.09961 102.8102 169.09204 95.527344 161.07422 C 88.2445 153.0564 84.603516 141.99838 84.603516 127.90039 C 84.603516 113.80239 88.2445 102.77717 95.527344 94.826172 C 102.8102 86.808355 112.83206 82.798828 125.59375 82.798828 C 131.60711 82.798828 136.9866 84.068446 141.73047 86.607422 C 146.54116 89.146397 150.4156 92.789335 153.35547 97.533203 L 153.35547 85.003906 L 175.30469 85.003906 L 175.30469 159.36914 C 184.85925 156.76334 192.2435 151.55174 197.45508 143.73438 C 202.66666 135.917 205.27148 126.12861 205.27148 114.36914 C 205.27148 104.81458 203.43459 96.129879 199.75977 88.3125 C 196.08493 80.495135 190.47198 73.379098 182.92188 66.964844 C 176.77488 61.753263 169.55852 57.743736 161.27344 54.9375 C 152.98836 52.131264 144.16857 50.728516 134.81445 50.728516 C 126.12848 50.728516 118.01104 51.897805 110.46094 54.236328 C 102.91082 56.574865 95.995467 60.049918 89.714844 64.660156 C 80.227093 71.742561 72.910391 80.761066 67.765625 91.71875 C 62.687674 102.67643 60.148438 114.7378 60.148438 127.90039 C 60.148438 138.25673 61.751857 148.04514 64.958984 157.26562 C 68.232926 166.41931 72.844461 174.36887 78.791016 181.11719 C 85.940229 189.0682 94.158 195.08249 103.44531 199.1582 C 112.79943 203.23393 122.92164 205.27148 133.8125 205.27148 C 141.96395 205.27148 149.84792 204.135 157.46484 201.86328 C 165.08177 199.59157 172.33094 196.21881 179.21289 191.74219 L 184.92578 201.16211 C 176.37344 206.77458 167.45528 210.98478 158.16797 213.79102 C 148.94748 216.59725 139.52568 218 129.9043 218 C 116.94217 218 105.04866 215.89489 94.224609 211.68555 C 83.400556 207.47619 73.745303 201.16285 65.259766 192.74414 C 56.841058 184.45906 50.427378 174.80379 46.017578 163.7793 C 41.607793 152.68798 39.402344 140.7289 39.402344 127.90039 C 39.402344 115.07188 41.607793 103.1456 46.017578 92.121094 C 50.427378 81.096602 56.841058 71.408541 65.259766 63.056641 C 73.812111 54.637933 83.534906 48.35543 94.425781 44.212891 C 105.38346 40.070352 117.71111 38 131.4082 38 z M 130.80664 95.527344 C 124.19195 95.527344 118.84722 98.467924 114.77148 104.34766 C 110.76258 110.16058 108.75781 118.01175 108.75781 127.90039 C 108.75781 137.78903 110.76258 145.673 114.77148 151.55273 C 118.84722 157.43247 124.19195 160.37109 130.80664 160.37109 C 137.55496 160.37109 143.00004 157.79907 147.14258 152.6543 C 151.28512 147.44272 153.35547 140.49456 153.35547 131.80859 L 153.35547 124.19141 C 153.35547 115.57226 151.28512 108.65689 147.14258 103.44531 C 143.00004 98.166909 137.55496 95.527344 130.80664 95.527344 z "
       id="path4152"
       transform="translate(0,796.36216)" />
  </g>
</svg>
