<?xml version="1.0" encoding="UTF-8" standalone="no"?>
<!-- Created with Inkscape (http://www.inkscape.org/) -->

<svg
   xmlns:dc="http://purl.org/dc/elements/1.1/"
   xmlns:cc="http://creativecommons.org/ns#"
   xmlns:rdf="http://www.w3.org/1999/02/22-rdf-syntax-ns#"
   xmlns:svg="http://www.w3.org/2000/svg"
   xmlns="http://www.w3.org/2000/svg"
   xmlns:sodipodi="http://sodipodi.sourceforge.net/DTD/sodipodi-0.dtd"
   xmlns:inkscape="http://www.inkscape.org/namespaces/inkscape"
   width="256"
   height="256"
   viewBox="0 0 256 256"
   id="svg2"
   version="1.1"
   inkscape:version="0.92.4 (unknown)"
   sodipodi:docname="mail-mark-notjunk.svg">
  <defs
     id="defs4">
    <clipPath
       clipPathUnits="userSpaceOnUse"
       id="clipPath4828">
      <circle
         r="128"
         cy="924.36218"
         cx="128"
         id="circle4830"
         style="opacity:1;fill:#68bdff;fill-opacity:1;stroke:none;stroke-width:52.82038116;stroke-linecap:round;stroke-linejoin:round;stroke-miterlimit:4;stroke-dasharray:none;stroke-opacity:1" />
    </clipPath>
    <clipPath
       clipPathUnits="userSpaceOnUse"
       id="clipPath4851">
      <path
         id="path4853"
         d="m 128,796.36216 a 128,128 0 0 0 -87.652344,34.83789 l 86.988284,87.51367 90.69336,-85.25976 A 128,128 0 0 0 128,796.36216 Z M 23.730469,850.28404 A 128,128 0 0 0 0,924.36216 128,128 0 0 0 128,1052.3622 128,128 0 0 0 256,924.36216 128,128 0 0 0 234.1582,852.93052 l -95.94336,90.19922 c -0.48074,0.45195 -0.99482,0.84265 -1.52148,1.20508 -0.25351,0.30378 -0.51825,0.602 -0.80469,0.88672 -4.95863,4.92876 -12.91888,4.90394 -17.84765,-0.0547 L 23.730469,850.28404 Z"
         style="opacity:1;fill:#68bdff;fill-opacity:1;stroke:none;stroke-width:52.82038116;stroke-linecap:round;stroke-linejoin:round;stroke-miterlimit:4;stroke-dasharray:none;stroke-opacity:1"
         inkscape:connector-curvature="0" />
    </clipPath>
    <clipPath
       clipPathUnits="userSpaceOnUse"
       id="clipPath4147">
      <path
         id="path4149"
         d="M 23.730469,850.28404 A 128,128 0 0 0 0,924.36216 128,128 0 0 0 128,1052.3622 128,128 0 0 0 256,924.36216 128,128 0 0 0 234.1582,852.93052 l -95.94336,90.19922 c -0.48074,0.45195 -0.99482,0.84265 -1.52148,1.20508 -0.25351,0.30378 -0.51825,0.602 -0.80469,0.88672 -4.95863,4.92876 -12.91888,4.90394 -17.84765,-0.0547 l -94.310551,-94.8828 z"
         style="opacity:1;fill:#fff168;fill-opacity:1;stroke:none;stroke-width:52.82038116;stroke-linecap:round;stroke-linejoin:round;stroke-miterlimit:4;stroke-dasharray:none;stroke-opacity:1"
         inkscape:connector-curvature="0" />
    </clipPath>
  </defs>
  <sodipodi:namedview
     id="base"
     pagecolor="#ffffff"
     bordercolor="#666666"
     borderopacity="1.0"
     inkscape:pageopacity="0.0"
     inkscape:pageshadow="2"
     inkscape:zoom="3.3046875"
     inkscape:cx="62.638258"
     inkscape:cy="127.99996"
     inkscape:document-units="px"
     inkscape:current-layer="layer1"
     showgrid="true"
     units="px"
     inkscape:window-width="1920"
     inkscape:window-height="1048"
     inkscape:window-x="0"
     inkscape:window-y="0"
     inkscape:window-maximized="1">
    <inkscape:grid
       type="xygrid"
       id="grid4136"
       spacingx="5"
       spacingy="5" />
  </sodipodi:namedview>
  <metadata
     id="metadata7">
    <rdf:RDF>
      <cc:Work
         rdf:about="">
        <dc:format>image/svg+xml</dc:format>
        <dc:type
           rdf:resource="http://purl.org/dc/dcmitype/StillImage" />
        <dc:title />
      </cc:Work>
    </rdf:RDF>
  </metadata>
  <g
     inkscape:label="Layer 1"
     inkscape:groupmode="layer"
     id="layer1"
     transform="translate(0,-796.36216)">
    <g
       id="g847"
       transform="translate(221.69336,-3.0274032)">
      <circle
         style="opacity:1;fill:#095d34;fill-opacity:1;stroke:none;stroke-width:171.73001099;stroke-miterlimit:4;stroke-dasharray:none;stroke-opacity:1"
         id="path841"
         cx="-93.693359"
         cy="927.38953"
         r="128" />
      <path
         inkscape:connector-curvature="0"
         style="opacity:1;fill:#0f9d58;fill-opacity:1;stroke:none;stroke-width:52.82038116;stroke-linecap:round;stroke-linejoin:round;stroke-miterlimit:4;stroke-dasharray:none;stroke-opacity:1"
         d="m -197.96289,853.31138 a 128,128 0 0 0 -23.73047,74.07812 128,128 0 0 0 128,128.0001 128,128 0 0 0 128,-128.0001 128,128 0 0 0 -21.8418,-71.43164 l -95.94336,90.19922 c -0.48074,0.45195 -0.99482,0.84265 -1.52148,1.20508 -0.25351,0.30378 -0.51825,0.602 -0.80469,0.88672 -4.95863,4.92878 -12.91888,4.90398 -17.84765,-0.0547 z"
         id="path4135-3" />
    </g>
    <g
       aria-label="✔"
       style="font-style:normal;font-weight:normal;font-size:294.1472168px;line-height:1.25;font-family:sans-serif;letter-spacing:0px;word-spacing:0px;fill:#000000;fill-opacity:1;stroke:none;stroke-width:1.53201675"
       id="text827"
       transform="matrix(0.89838712,0,0,0.89838712,13.00645,93.927061)">
      <path
         d="m 69.974865,915.88824 c 3.734291,0 6.558947,3.06403 8.473968,9.1921 3.830042,11.49013 6.558947,17.23519 8.186715,17.23519 1.244763,0 2.537402,-0.95751 3.877917,-2.87254 26.906045,-39.54518 51.801315,-67.69599 74.685815,-84.45242 9.67086,-7.08557 19.10234,-10.62836 28.29444,-10.62836 12.16038,0 19.48533,0.383 21.97486,1.14901 1.05326,0.28725 1.57989,1.48414 1.57989,3.59066 0,1.72352 -1.10114,3.87792 -3.30341,6.4632 -61.56792,70.66427 -98.24647,116.62151 -110.01795,137.88151 -4.027446,7.27381 -13.309396,10.91561 -27.863555,10.91561 -4.787553,0 -9.814483,-1.2448 -15.08079,-3.7343 -2.202274,-1.149 -6.032316,-8.47395 -11.490126,-21.97485 -6.894075,-17.04369 -10.341113,-31.98085 -10.341113,-44.81149 0,-4.6918 3.351287,-8.56972 10.05386,-11.63375 9.192101,-4.21305 16.086176,-6.31957 20.682226,-6.31957 z"
         style="fill:#ffffff;fill-opacity:1;stroke-width:1.53201675"
         id="path833"
         inkscape:connector-curvature="0"
         sodipodi:nodetypes="scsccscscssccscss" />
    </g>
    <text
       xml:space="preserve"
       style="font-style:normal;font-weight:normal;font-size:192px;line-height:1.25;font-family:sans-serif;letter-spacing:0px;word-spacing:0px;fill:#000000;fill-opacity:1;stroke:none"
       x="50"
       y="887.36218"
       id="text838"><tspan
         sodipodi:role="line"
         id="tspan836"
         x="50"
         y="1057.2372" /></text>
    <text
       xml:space="preserve"
       style="font-style:normal;font-weight:normal;font-size:192px;line-height:1.25;font-family:sans-serif;letter-spacing:0px;word-spacing:0px;fill:#000000;fill-opacity:1;stroke:none"
       x="20"
       y="892.36218"
       id="text828"><tspan
         sodipodi:role="line"
         id="tspan826"
         x="20"
         y="1062.2372" /></text>
  </g>
</svg>
