<?xml version="1.0" encoding="UTF-8" standalone="no"?>
<!-- Created with Inkscape (http://www.inkscape.org/) -->

<svg
   xmlns:dc="http://purl.org/dc/elements/1.1/"
   xmlns:cc="http://creativecommons.org/ns#"
   xmlns:rdf="http://www.w3.org/1999/02/22-rdf-syntax-ns#"
   xmlns:svg="http://www.w3.org/2000/svg"
   xmlns="http://www.w3.org/2000/svg"
   xmlns:sodipodi="http://sodipodi.sourceforge.net/DTD/sodipodi-0.dtd"
   xmlns:inkscape="http://www.inkscape.org/namespaces/inkscape"
   sodipodi:docname="tools-check-spelling.svg"
   inkscape:version="0.91 r13725"
   version="1.1"
   id="svg2"
   viewBox="0 0 256 256"
   height="256"
   width="256">
  <sodipodi:namedview
     inkscape:window-maximized="1"
     inkscape:window-y="0"
     inkscape:window-x="0"
     inkscape:window-height="721"
     inkscape:window-width="1366"
     units="px"
     showgrid="true"
     inkscape:current-layer="layer1"
     inkscape:document-units="px"
     inkscape:cy="128"
     inkscape:cx="45.10476"
     inkscape:zoom="2.0507812"
     inkscape:pageshadow="2"
     inkscape:pageopacity="0.0"
     borderopacity="1.0"
     bordercolor="#666666"
     pagecolor="#ffffff"
     id="base">
    <inkscape:grid
       type="xygrid"
       id="grid4191"
       spacingx="5"
       spacingy="5" />
  </sodipodi:namedview>
  <defs
     id="defs4">
    <inkscape:path-effect
       is_visible="true"
       id="path-effect4829"
       effect="spiro" />
    <inkscape:path-effect
       is_visible="true"
       id="path-effect4153"
       effect="spiro" />
    <inkscape:path-effect
       is_visible="true"
       id="path-effect4175"
       effect="spiro" />
    <clipPath
       clipPathUnits="userSpaceOnUse"
       id="clipPath4174">
      <circle
         style="fill:#cc2828;fill-opacity:1;stroke:none;stroke-width:0;stroke-linecap:round;stroke-linejoin:round;stroke-miterlimit:4;stroke-dasharray:none;stroke-opacity:1"
         id="circle4176"
         cx="128"
         cy="924.36218"
         r="128" />
    </clipPath>
    <clipPath
       clipPathUnits="userSpaceOnUse"
       id="clipPath4183">
      <circle
         style="fill:#cc2828;fill-opacity:1;stroke:none;stroke-width:0;stroke-linecap:round;stroke-linejoin:round;stroke-miterlimit:4;stroke-dasharray:none;stroke-opacity:1"
         id="circle4185"
         cx="-924.36218"
         cy="128.00002"
         r="128"
         transform="matrix(0,-1,1,0,0,0)" />
    </clipPath>
    <clipPath
       clipPathUnits="userSpaceOnUse"
       id="clipPath4187">
      <circle
         style="fill:#cc2828;fill-opacity:1;stroke:none;stroke-width:0;stroke-linecap:round;stroke-linejoin:round;stroke-miterlimit:4;stroke-dasharray:none;stroke-opacity:1"
         id="circle4189"
         cx="128"
         cy="924.36218"
         r="128" />
    </clipPath>
    <clipPath
       clipPathUnits="userSpaceOnUse"
       id="clipPath4209">
      <circle
         style="fill:#cc2828;fill-opacity:1;stroke:none;stroke-width:0;stroke-linecap:round;stroke-linejoin:round;stroke-miterlimit:4;stroke-dasharray:none;stroke-opacity:1"
         id="circle4211"
         cx="-924.36218"
         cy="128"
         r="128"
         transform="matrix(0,-1,1,0,0,0)" />
    </clipPath>
    <clipPath
       clipPathUnits="userSpaceOnUse"
       id="clipPath4213">
      <circle
         style="fill:#cc2828;fill-opacity:1;stroke:none;stroke-width:0;stroke-linecap:round;stroke-linejoin:round;stroke-miterlimit:4;stroke-dasharray:none;stroke-opacity:1"
         id="circle4215"
         cx="128"
         cy="924.36218"
         r="128" />
    </clipPath>
    <clipPath
       id="clipPath4381"
       clipPathUnits="userSpaceOnUse">
      <circle
         transform="matrix(0.77780341,0.62850764,-0.62850764,0.77780341,0,0)"
         style="fill:#d83838;fill-opacity:1;stroke:none;stroke-width:0;stroke-linecap:round;stroke-linejoin:round;stroke-miterlimit:4;stroke-dasharray:none;stroke-opacity:1"
         id="circle4383"
         cx="686.50537"
         cy="640.4978"
         r="128" />
    </clipPath>
    <clipPath
       id="clipPath4857"
       clipPathUnits="userSpaceOnUse">
      <circle
         style="fill:#68bdff;fill-opacity:1;stroke:none;stroke-width:0;stroke-linecap:round;stroke-linejoin:round;stroke-miterlimit:4;stroke-dasharray:none;stroke-opacity:1"
         id="circle4859"
         cx="128"
         cy="924.36218"
         r="128" />
    </clipPath>
    <clipPath
       clipPathUnits="userSpaceOnUse"
       id="clipPath5081">
      <circle
         style="fill:#68bdff;fill-opacity:1;stroke:none;stroke-width:0;stroke-linecap:round;stroke-linejoin:round;stroke-miterlimit:4;stroke-dasharray:none;stroke-opacity:1"
         id="circle5083"
         cx="-127.94974"
         cy="924.36218"
         r="128"
         transform="scale(-1,1)" />
    </clipPath>
    <inkscape:path-effect
       is_visible="true"
       id="path-effect4168"
       effect="spiro" />
    <inkscape:path-effect
       fuse_tolerance="0"
       vertical_pattern="false"
       prop_units="false"
       tang_offset="0"
       normal_offset="0"
       spacing="0"
       scale_y_rel="false"
       prop_scale="1"
       copytype="single_stretched"
       pattern="m 0,790.36216 1,0"
       is_visible="true"
       id="path-effect4170"
       effect="skeletal" />
    <inkscape:path-effect
       is_visible="true"
       id="path-effect4174"
       effect="spiro" />
    <inkscape:path-effect
       fuse_tolerance="0"
       vertical_pattern="false"
       prop_units="false"
       tang_offset="0"
       normal_offset="0"
       spacing="0"
       scale_y_rel="false"
       prop_scale="1"
       copytype="single_stretched"
       pattern="m 0,802.36216 1,0"
       is_visible="true"
       id="path-effect4176"
       effect="skeletal" />
    <clipPath
       id="clipPath3479"
       clipPathUnits="userSpaceOnUse">
      <circle
         style="fill:#68bdff;fill-opacity:1;stroke:none;stroke-width:0;stroke-linecap:round;stroke-linejoin:round;stroke-miterlimit:4;stroke-dasharray:none;stroke-opacity:1"
         id="circle3481"
         cx="128"
         cy="924.36218"
         r="128" />
    </clipPath>
    <clipPath
       clipPathUnits="userSpaceOnUse"
       id="clipPath4421">
      <circle
         style="fill:#82adce;fill-opacity:1;stroke:none;stroke-width:0;stroke-linecap:round;stroke-linejoin:round;stroke-miterlimit:4;stroke-dasharray:none;stroke-opacity:1"
         id="circle4423"
         cx="127.8719"
         cy="922.36218"
         r="128" />
    </clipPath>
    <clipPath
       id="clipPath3472"
       clipPathUnits="userSpaceOnUse">
      <circle
         style="fill:#ee5858;fill-opacity:1;stroke:none;stroke-width:0;stroke-linecap:round;stroke-linejoin:round;stroke-miterlimit:4;stroke-dasharray:none;stroke-opacity:1"
         id="circle3474"
         cx="128"
         cy="924.36218"
         r="128" />
    </clipPath>
    <clipPath
       id="clipPath5510"
       clipPathUnits="userSpaceOnUse">
      <path
         inkscape:connector-curvature="0"
         style="fill:#ee5858;fill-opacity:1;stroke:none;stroke-width:0;stroke-linecap:round;stroke-linejoin:round;stroke-miterlimit:4;stroke-dasharray:none;stroke-opacity:1"
         d="M 234.53337,924.10347 A 105.87133,105.87133 0 0 1 128.66203,1029.9748 105.87133,105.87133 0 0 1 22.790696,924.10347 105.87133,105.87133 0 0 1 128.66203,818.23214 105.87133,105.87133 0 0 1 234.53337,924.10347 Z"
         id="path5512" />
    </clipPath>
    <clipPath
       clipPathUnits="userSpaceOnUse"
       id="clipPath4468">
      <path
         style="fill:#ee5858;fill-opacity:1;stroke:none;stroke-width:0;stroke-linecap:round;stroke-linejoin:round;stroke-miterlimit:4;stroke-dasharray:none;stroke-opacity:1"
         d="m 259.42147,920.51939 a 128,128 0 0 1 -128,128.00001 128,128 0 0 1 -128.000002,-128.00001 128,128 0 0 1 128.000002,-128 128,128 0 0 1 128,128 z"
         id="path4470"
         inkscape:connector-curvature="0" />
    </clipPath>
  </defs>
  <metadata
     id="metadata7">
    <rdf:RDF>
      <cc:Work
         rdf:about="">
        <dc:format>image/svg+xml</dc:format>
        <dc:type
           rdf:resource="http://purl.org/dc/dcmitype/StillImage" />
        <dc:title />
      </cc:Work>
    </rdf:RDF>
  </metadata>
  <g
     transform="translate(0,-796.36216)"
     id="layer1"
     inkscape:groupmode="layer"
     inkscape:label="Layer 1">
    <path
       id="path4136"
       d="M 256,924.36218 A 128,128 0 0 1 128,1052.3622 128,128 0 0 1 0,924.36218 a 128,128 0 0 1 128,-128 128,128 0 0 1 128,128 z"
       style="fill:#ee5858;fill-opacity:1;stroke:none;stroke-width:0;stroke-linecap:round;stroke-linejoin:round;stroke-miterlimit:4;stroke-dasharray:none;stroke-opacity:1" />
    <g
       transform="translate(-3.421468,3.8427922)"
       id="g4170"
       clip-path="url(#clipPath4468)"
       style="fill:#af1d1d;fill-opacity:1">
      <g
         id="g4228"
         transform="translate(3.421468,792.51937)"
         style="fill:#af1d1d;fill-opacity:1">
        <g
           id="g4230"
           style="font-style:normal;font-weight:normal;font-size:135.36547852px;line-height:125%;font-family:sans-serif;letter-spacing:0px;word-spacing:0px;fill:#af1d1d;fill-opacity:1;stroke:none;stroke-width:1px;stroke-linecap:butt;stroke-linejoin:miter;stroke-opacity:1">
          <path
             id="path4232"
             d="M146.77148 61.230469L146.77148 164.07617L-65.360554356 376.208204356L-65.360554356 273.362503356Z"
             style="fill:#af1d1d;fill-opacity:1" />
          <path
             id="path4234"
             d="M146.77148 164.07617L159.0 164.07617L-53.132034356 376.208204356L-65.360554356 376.208204356Z"
             style="fill:#af1d1d;fill-opacity:1" />
          <path
             id="path4236"
             d="M159.0 164.07617L159.0 152.97266L-53.132034356 365.104694356L-53.132034356 376.208204356Z"
             style="fill:#af1d1d;fill-opacity:1" />
          <path
             id="path4238"
             d="M159.0 152.97266C161.55573 157.37908 164.77078 160.66312 168.64844 162.82227L-43.483594356 374.954304356C-47.361254356 372.795154356 -50.576304356 369.511114356 -53.132034356 365.104694356Z"
             style="fill:#af1d1d;fill-opacity:1" />
          <path
             id="path4240"
             d="M168.64844 162.82227C172.57016 164.93735 177.2422 165.99414 182.66211 165.99414L-29.469924356 378.126174356C-34.889834356 378.126174356 -39.561874356 377.069384356 -43.483594356 374.954304356Z"
             style="fill:#af1d1d;fill-opacity:1" />
          <path
             id="path4242"
             d="M182.66211 165.99414C190.334743646 165.99414 196.770725567 163.394244819 201.97124349 158.193726895L-10.1607908655 370.325761251C-15.361308789 375.526279175 -21.7972907101 378.126174356 -29.469924356 378.126174356Z"
             style="fill:#af1d1d;fill-opacity:1" />
          <path
             id="path4244"
             d="M201.97124349 158.193726895C202.863552337 157.301418049 203.719489173 156.332546976 204.53906 155.28711L-7.59297435596 367.419144356C-8.41254518268 368.464581332 -9.26848201933 369.433452405 -10.1607908655 370.325761251Z"
             style="fill:#af1d1d;fill-opacity:1" />
          <path
             id="path4246"
             d="M204.53906 155.28711C210.17929 148.1487 213.0 138.76188 213.0 127.12891L0.867965644036 339.260944356C0.867965644036 350.893914356 -1.95274435596 360.280734356 -7.59297435596 367.419144356Z"
             style="fill:#af1d1d;fill-opacity:1" />
          <path
             id="path4248"
             d="M213.0 127.12891C213.0 115.49594 210.17929 106.11107 204.53906 98.972656L-7.59297435596 311.104690356C-1.95274435596 318.243104356 0.867965644036 327.627974356 0.867965644036 339.260944356Z"
             style="fill:#af1d1d;fill-opacity:1" />
          <path
             id="path4250"
             d="M204.53906 98.972656C198.9429 91.834242 191.65122 88.263672 182.66211 88.263672L-29.469924356 300.395706356C-20.480814356 300.395706356 -13.189134356 303.966276356 -7.59297435596 311.104690356Z"
             style="fill:#af1d1d;fill-opacity:1" />
          <path
             id="path4252"
             d="M182.66211 88.263672C177.2422 88.263672 172.57016 89.344756 168.64844 91.503906L-43.483594356 303.635940356C-39.561874356 301.476790356 -34.889834356 300.395706356 -29.469924356 300.395706356Z"
             style="fill:#af1d1d;fill-opacity:1" />
          <path
             id="path4254"
             d="M168.64844 91.503906C166.757231725 92.5354735294 165.023638342 93.8393186992 163.447278168 95.4156788732L-48.6847561875 307.547713229C-47.1083960135 305.971353055 -45.3748026313 304.667507885 -43.483594356 303.635940356Z"
             style="fill:#af1d1d;fill-opacity:1" />
          <path
             id="path4256"
             d="M163.447278168 95.4156788732C161.791530662 97.0714263799 160.30925204 99.0278284015 159.0 101.28516L-53.132034356 313.417194356C-51.8227823157 311.159862757 -50.3405036942 309.203460736 -48.6847561875 307.547713229Z"
             style="fill:#af1d1d;fill-opacity:1" />
          <path
             id="path4258"
             d="M159.0 101.28516L159.0 61.230469L-53.132034356 273.362503356L-53.132034356 313.417194356Z"
             style="fill:#af1d1d;fill-opacity:1" />
          <path
             id="path4260"
             d="M159.0 61.230469L146.77148 61.230469L-65.360554356 273.362503356L-53.132034356 273.362503356Z"
             style="fill:#af1d1d;fill-opacity:1" />
          <path
             id="path4262"
             d="M80.675781 65.394531L43.0 164.07617L-169.132034356 376.208204356L-131.456253356 277.526565356Z"
             style="fill:#af1d1d;fill-opacity:1" />
          <path
             id="path4264"
             d="M43.0 164.07617L57.078125 164.07617L-155.053909356 376.208204356L-169.132034356 376.208204356Z"
             style="fill:#af1d1d;fill-opacity:1" />
          <path
             id="path4266"
             d="M57.078125 164.07617L66.068359 138.76172L-146.063675356 350.893754356L-155.053909356 376.208204356Z"
             style="fill:#af1d1d;fill-opacity:1" />
          <path
             id="path4268"
             d="M66.068359 138.76172L110.55078 138.76172L-101.581254356 350.893754356L-146.063675356 350.893754356Z"
             style="fill:#af1d1d;fill-opacity:1" />
          <path
             id="path4270"
             d="M110.55078 138.76172L119.53906 164.07617L-92.592974356 376.208204356L-101.581254356 350.893754356Z"
             style="fill:#af1d1d;fill-opacity:1" />
          <path
             id="path4272"
             d="M119.53906 164.07617L133.41992 164.07617L-78.712114356 376.208204356L-92.592974356 376.208204356Z"
             style="fill:#af1d1d;fill-opacity:1" />
          <path
             id="path4274"
             d="M133.41992 164.07617L95.810547 65.394531L-116.321487356 277.526565356L-78.712114356 376.208204356Z"
             style="fill:#af1d1d;fill-opacity:1" />
          <path
             id="path4276"
             d="M95.810547 65.394531L80.675781 65.394531L-131.456253356 277.526565356L-116.321487356 277.526565356Z"
             style="fill:#af1d1d;fill-opacity:1" />
          <path
             id="path4278"
             d="M88.208984 78.548828L106.38672 127.6582L-105.745314356 339.790234356L-123.923050356 290.680862356Z"
             style="fill:#af1d1d;fill-opacity:1" />
          <path
             id="path4280"
             d="M106.38672 127.6582L70.099609 127.6582L-142.032425356 339.790234356L-105.745314356 339.790234356Z"
             style="fill:#af1d1d;fill-opacity:1" />
          <path
             id="path4282"
             d="M70.099609 127.6582L88.208984 78.548828L-123.923050356 290.680862356L-142.032425356 339.790234356Z"
             style="fill:#af1d1d;fill-opacity:1" />
          <path
             id="path4284"
             d="M179.6875 98.443359C186.12089 98.443359 191.16688 100.99987 194.82422 106.11133L-17.307814356 318.243364356C-20.965154356 313.131904356 -26.011144356 310.575393356 -32.444534356 310.575393356Z"
             style="fill:#af1d1d;fill-opacity:1" />
          <path
             id="path4286"
             d="M194.82422 106.11133C198.52562 111.17872 200.375 118.18386 200.375 127.12891L-11.757034356 339.260944356C-11.757034356 330.315894356 -13.606414356 323.310754356 -17.307814356 318.243364356Z"
             style="fill:#af1d1d;fill-opacity:1" />
          <path
             id="path4288"
             d="M200.375 127.12891C200.375 136.07396 198.52562 143.10339 194.82422 148.21484L-17.307814356 360.346874356C-13.606414356 355.235424356 -11.757034356 348.205994356 -11.757034356 339.260944356Z"
             style="fill:#af1d1d;fill-opacity:1" />
          <path
             id="path4290"
             d="M194.82422 148.21484C194.167010685 149.125431436 193.464960964 149.954159946 192.718078088 150.701042821L-19.4139562681 362.833077177C-18.6670733924 362.086194302 -17.9650236706 361.257465792 -17.307814356 360.346874356Z"
             style="fill:#af1d1d;fill-opacity:1" />
          <path
             id="path4292"
             d="M192.718078088 150.701042821C189.308591667 154.110529242 184.964835646 155.81445 179.6875 155.81445L-32.444534356 367.946484356C-27.1671987104 367.946484356 -22.8234426889 366.242563598 -19.4139562681 362.833077177Z"
             style="fill:#af1d1d;fill-opacity:1" />
          <path
             id="path4294"
             d="M179.6875 155.81445C173.25411 155.81445 168.18577 153.28224 164.48438 148.21484L-47.647654356 360.346874356C-43.946264356 365.414274356 -38.877924356 367.946484356 -32.444534356 367.946484356Z"
             style="fill:#af1d1d;fill-opacity:1" />
          <path
             id="path4296"
             d="M164.48438 148.21484C160.82704 143.10339 159.0 136.07396 159.0 127.12891L-53.132034356 339.260944356C-53.132034356 348.205994356 -51.304994356 355.235424356 -47.647654356 360.346874356Z"
             style="fill:#af1d1d;fill-opacity:1" />
          <path
             id="path4298"
             d="M159.0 127.12891C159.0 118.18386 160.82704 111.17872 164.48438 106.11133L-47.647654356 318.243364356C-51.304994356 323.310754356 -53.132034356 330.315894356 -53.132034356 339.260944356Z"
             style="fill:#af1d1d;fill-opacity:1" />
          <path
             id="path4300"
             d="M164.48438 106.11133C165.149779521 105.192441952 165.859355195 104.356122995 166.613095985 103.602382205L-45.5189383711 315.734416561C-46.272679161 316.488157351 -46.9822548354 317.324476308 -47.647654356 318.243364356Z"
             style="fill:#af1d1d;fill-opacity:1" />
          <path
             id="path4302"
             d="M166.613095985 103.602382205C170.052157468 100.163320722 174.410641633 98.443359 179.6875 98.443359L-32.444534356 310.575393356C-37.7213927228 310.575393356 -42.079876888 312.295355078 -45.5189383711 315.734416561Z"
             style="fill:#af1d1d;fill-opacity:1" />
          <path
             id="path4304"
             d="M43.0 174.78125C58.484504 174.78125 42.244012 190.61719 57.728516 190.61719L-154.403518356 402.749224356C-169.888022356 402.749224356 -153.647530356 386.913284356 -169.132034356 386.913284356Z"
             style="fill:#af1d1d;fill-opacity:1" />
          <path
             id="path4306"
             d="M57.728516 190.61719C61.1435973204 190.61719 63.1382688661 189.846904963 64.3390687574 188.646105071L-147.792965599 400.778139427C-148.99376549 401.978939319 -150.988437036 402.749224356 -154.403518356 402.749224356Z"
             style="fill:#af1d1d;fill-opacity:1" />
          <path
             id="path4308"
             d="M64.3390687574 188.646105071C67.6469138292 185.33826 64.9305595264 178.763504843 69.2869827429 176.02430009L-142.845051613 388.156334446C-147.20147483 390.895539199 -144.485120527 397.470294356 -147.792965599 400.778139427Z"
             style="fill:#af1d1d;fill-opacity:1" />
          <path
             id="path4310"
             d="M69.2869827429 176.02430009C70.5196471524 175.249233013 72.3185763844 174.78125 74.980469 174.78125L-137.151565356 386.913284356C-139.813457972 386.913284356 -141.612387204 387.381267369 -142.845051613 388.156334446Z"
             style="fill:#af1d1d;fill-opacity:1" />
          <path
             id="path4312"
             d="M74.980469 174.78125L43.0 174.78125L-169.132034356 386.913284356L-137.151565356 386.913284356Z"
             style="fill:#af1d1d;fill-opacity:1" />
          <path
             id="path4314"
             d="M74.980469 174.78125C90.464979 174.78125 76.747912 190.61719 92.232422 190.61719L-119.899612356 402.749224356C-135.384122356 402.749224356 -121.667055356 386.913284356 -137.151565356 386.913284356Z"
             style="fill:#af1d1d;fill-opacity:1" />
          <path
             id="path4316"
             d="M92.232422 190.61719C95.6477114311 190.61719 97.6425133461 189.846811676 98.8434380856 188.645886937L-113.28859627 400.777921293C-114.48952101 401.978846032 -116.484322925 402.749224356 -119.899612356 402.749224356Z"
             style="fill:#af1d1d;fill-opacity:1" />
          <path
             id="path4318"
             d="M98.8434380856 188.645886937C102.15131347 185.338011553 99.4360896928 178.763605985 103.792528578 176.024400928L-108.339505778 388.156435284C-112.695944663 390.89564034 -109.980720886 397.470045909 -113.28859627 400.777921293Z"
             style="fill:#af1d1d;fill-opacity:1" />
          <path
             id="path4320"
             d="M103.792528578 176.024400928C105.025293102 175.249273603 106.824321087 174.78125 109.48633 174.78125L-102.645704356 386.913284356C-105.307713269 386.913284356 -107.106741254 387.381307959 -108.339505778 388.156435284Z"
             style="fill:#af1d1d;fill-opacity:1" />
          <path
             id="path4322"
             d="M109.48633 174.78125L74.980469 174.78125L-137.151565356 386.913284356L-102.645704356 386.913284356Z"
             style="fill:#af1d1d;fill-opacity:1" />
          <path
             id="path4324"
             d="M109.48633 174.78125C124.97084 174.78125 111.25377 190.61719 126.73828 190.61719L-85.393754356 402.749224356C-100.878264356 402.749224356 -87.161194356 386.913284356 -102.645704356 386.913284356Z"
             style="fill:#af1d1d;fill-opacity:1" />
          <path
             id="path4326"
             d="M126.73828 190.61719C130.153363235 190.61719 132.148035549 189.846904895 133.348835531 188.646104913L-78.7831988252 400.778139269C-79.9839988072 401.978939251 -81.9786711211 402.749224356 -85.393754356 402.749224356Z"
             style="fill:#af1d1d;fill-opacity:1" />
          <path
             id="path4328"
             d="M133.348835531 188.646104913C136.656680907 185.338259537 133.940321567 178.763503793 138.296744859 176.024299461L-73.8352894972 388.156333817C-78.1917127886 390.895538149 -75.4753534488 397.470293893 -78.7831988252 400.778139269Z"
             style="fill:#af1d1d;fill-opacity:1" />
          <path
             id="path4330"
             d="M138.296744859 176.024299461C139.529408881 175.24923276 141.328337761 174.78125 143.99023 174.78125L-68.141804356 386.913284356C-70.8036965954 386.913284356 -72.6026254747 387.381267116 -73.8352894972 388.156333817Z"
             style="fill:#af1d1d;fill-opacity:1" />
          <path
             id="path4332"
             d="M143.99023 174.78125L109.48633 174.78125L-102.645704356 386.913284356L-68.141804356 386.913284356Z"
             style="fill:#af1d1d;fill-opacity:1" />
          <path
             id="path4334"
             d="M143.99023 174.78125C159.47474 174.78125 145.75768 190.61719 161.24219 190.61719L-50.889844356 402.749224356C-66.374354356 402.749224356 -52.657294356 386.913284356 -68.141804356 386.913284356Z"
             style="fill:#af1d1d;fill-opacity:1" />
          <path
             id="path4336"
             d="M161.24219 190.61719C164.657479461 190.61719 166.65228131 189.846811862 167.853205801 188.645887371L-44.2788285551 400.777921727C-45.4797530462 401.978846218 -47.4745548953 402.749224356 -50.889844356 402.749224356Z"
             style="fill:#af1d1d;fill-opacity:1" />
          <path
             id="path4338"
             d="M167.853205801 188.645887371C171.16108136 185.338011812 168.445853243 178.763604846 172.802291664 176.024400142L-39.3297426923 388.156434498C-43.6861811127 390.895639202 -40.9709529957 397.470046168 -44.2788285551 400.777921727Z"
             style="fill:#af1d1d;fill-opacity:1" />
          <path
             id="path4340"
             d="M172.802291664 176.024400142C174.035055468 175.249273287 175.834082503 174.78125 178.49609 174.78125L-33.635944356 386.913284356C-36.2979518529 386.913284356 -38.0969788884 387.381307643 -39.3297426923 388.156434498Z"
             style="fill:#af1d1d;fill-opacity:1" />
          <path
             id="path4342"
             d="M178.49609 174.78125L143.99023 174.78125L-68.141804356 386.913284356L-33.635944356 386.913284356Z"
             style="fill:#af1d1d;fill-opacity:1" />
          <path
             id="path4344"
             d="M178.49609 174.78125C193.9806 174.78125 180.26354 190.61719 195.74805 190.61719L-16.383984356 402.749224356C-31.868494356 402.749224356 -18.151434356 386.913284356 -33.635944356 386.913284356Z"
             style="fill:#af1d1d;fill-opacity:1" />
          <path
             id="path4346"
             d="M195.74805 190.61719C199.163133235 190.61719 201.157805549 189.846904895 202.358605531 188.646104913L-9.77342882523 400.778139269C-10.9742288072 401.978939251 -12.9689011211 402.749224356 -16.383984356 402.749224356Z"
             style="fill:#af1d1d;fill-opacity:1" />
          <path
             id="path4348"
             d="M202.358605531 188.646104913C205.666450907 185.338259537 202.950091567 178.763503793 207.306514859 176.024299461L-4.82551949722 388.156333817C-9.18194278856 390.895538149 -6.46558344881 397.470293893 -9.77342882523 400.778139269Z"
             style="fill:#af1d1d;fill-opacity:1" />
          <path
             id="path4350"
             d="M207.306514859 176.024299461C208.539178881 175.24923276 210.338107761 174.78125 213.0 174.78125L0.867965644036 386.913284356C-1.79392659537 386.913284356 -3.59285547467 387.381267116 -4.82551949722 388.156333817Z"
             style="fill:#af1d1d;fill-opacity:1" />
          <path
             id="path4352"
             d="M213.0 174.78125L178.49609 174.78125L-33.635944356 386.913284356L0.867965644036 386.913284356Z"
             style="fill:#af1d1d;fill-opacity:1" />
        </g>
        <path
           id="text3380"
           transform=""
           d="M 146.77148 61.230469 L 146.77148 164.07617 L 159 164.07617 L 159 152.97266 C 161.55573 157.37908 164.77078 160.66312 168.64844 162.82227 C 172.57016 164.93735 177.2422 165.99414 182.66211 165.99414 C 191.65122 165.99414 198.9429 162.42552 204.53906 155.28711 C 210.17929 148.1487 213 138.76188 213 127.12891 C 213 115.49594 210.17929 106.11107 204.53906 98.972656 C 198.9429 91.834242 191.65122 88.263672 182.66211 88.263672 C 177.2422 88.263672 172.57016 89.344756 168.64844 91.503906 C 164.77078 93.618992 161.55573 96.878728 159 101.28516 L 159 61.230469 L 146.77148 61.230469 z M 80.675781 65.394531 L 43 164.07617 L 57.078125 164.07617 L 66.068359 138.76172 L 110.55078 138.76172 L 119.53906 164.07617 L 133.41992 164.07617 L 95.810547 65.394531 L 80.675781 65.394531 z M 88.208984 78.548828 L 106.38672 127.6582 L 70.099609 127.6582 L 88.208984 78.548828 z M 179.6875 98.443359 C 186.12089 98.443359 191.16688 100.99987 194.82422 106.11133 C 198.52562 111.17872 200.375 118.18386 200.375 127.12891 C 200.375 136.07396 198.52562 143.10339 194.82422 148.21484 C 191.16688 153.28224 186.12089 155.81445 179.6875 155.81445 C 173.25411 155.81445 168.18577 153.28224 164.48438 148.21484 C 160.82704 143.10339 159 136.07396 159 127.12891 C 159 118.18386 160.82704 111.17872 164.48438 106.11133 C 168.18577 100.99987 173.25411 98.443359 179.6875 98.443359 z M 43 174.78125 C 58.484504 174.78125 42.244012 190.61719 57.728516 190.61719 C 73.213018 190.61719 59.495961 174.78125 74.980469 174.78125 L 43 174.78125 z M 74.980469 174.78125 C 90.464979 174.78125 76.747912 190.61719 92.232422 190.61719 C 107.71693 190.61719 94.001817 174.78125 109.48633 174.78125 L 74.980469 174.78125 z M 109.48633 174.78125 C 124.97084 174.78125 111.25377 190.61719 126.73828 190.61719 C 142.22279 190.61719 128.50572 174.78125 143.99023 174.78125 L 109.48633 174.78125 z M 143.99023 174.78125 C 159.47474 174.78125 145.75768 190.61719 161.24219 190.61719 C 176.7267 190.61719 163.01158 174.78125 178.49609 174.78125 L 143.99023 174.78125 z M 178.49609 174.78125 C 193.9806 174.78125 180.26354 190.61719 195.74805 190.61719 C 211.23256 190.61719 197.51549 174.78125 213 174.78125 L 178.49609 174.78125 z "
           style="font-style:normal;font-weight:normal;font-size:135.36547852px;line-height:125%;font-family:sans-serif;letter-spacing:0px;word-spacing:0px;fill:#af1d1d;fill-opacity:1;stroke:none;stroke-width:1px;stroke-linecap:butt;stroke-linejoin:miter;stroke-opacity:1" />
      </g>
    </g>
    <g
       id="g4175"
       transform="translate(-3.4214675,3.8427918)">
      <g
         id="text4177"
         style="font-style:normal;font-weight:normal;font-size:135.36547852px;line-height:125%;font-family:sans-serif;letter-spacing:0px;word-spacing:0px;fill:#ffffff;fill-opacity:1;stroke:none;stroke-width:1px;stroke-linecap:butt;stroke-linejoin:miter;stroke-opacity:1">
        <path
           id="path4184"
           d="m 91.63142,871.06772 -18.110421,49.10965 36.286941,0 -18.17652,-49.10965 z m -7.534993,-13.15319 15.136082,0 37.608861,98.68197 -13.88024,0 -8.98912,-25.31493 -44.482893,0 -8.989114,25.31493 -14.078538,0 37.674962,-98.68197 z"
           inkscape:connector-curvature="0" />
        <path
           id="path4186"
           d="m 203.79705,919.64859 q 0,-13.41757 -5.5521,-21.01866 -5.486,-7.66718 -15.13608,-7.66718 -9.65008,0 -15.20217,7.66718 -5.48601,7.60109 -5.48601,21.01866 0,13.41758 5.48601,21.08476 5.55209,7.60109 15.20217,7.60109 9.65008,0 15.13608,-7.60109 5.5521,-7.66718 5.5521,-21.08476 z m -41.37636,-25.8437 q 3.83359,-6.60964 9.65008,-9.78227 5.88258,-3.23872 14.01244,-3.23872 13.48367,0 21.87792,10.70762 8.46034,10.70762 8.46034,28.15707 0,17.44946 -8.46034,28.15708 -8.39425,10.70762 -21.87792,10.70762 -8.12986,0 -14.01244,-3.17263 -5.81649,-3.23872 -9.65008,-9.84836 l 0,11.1042 -12.22784,0 0,-102.84604 12.22784,0 0,40.05443 z"
           inkscape:connector-curvature="0" />
      </g>
      <path
         sodipodi:nodetypes="csssssssssc"
         inkscape:connector-curvature="0"
         id="path4181"
         d="m 46.421466,967.30099 c 15.484504,0 -0.755903,15.83574 14.728601,15.83574 15.484502,0 1.767874,-15.83574 17.252382,-15.83574 15.48451,0 1.76786,15.83574 17.25237,15.83574 15.484511,0 1.76787,-15.83574 17.252381,-15.83574 15.48451,0 1.76787,15.83574 17.25238,15.83574 15.48451,0 1.76787,-15.83574 17.25238,-15.83574 15.48451,0 1.76786,15.83574 17.25237,15.83574 15.48451,0 1.76787,-15.83574 17.25238,-15.83574 15.48451,0 1.76787,15.83574 17.25238,15.83574 15.48451,0 1.76787,-15.83574 17.25238,-15.83574"
         style="fill:none;fill-rule:evenodd;stroke:#ffffff;stroke-width:8.30309296;stroke-linecap:butt;stroke-linejoin:miter;stroke-miterlimit:4;stroke-dasharray:none;stroke-opacity:1" />
    </g>
  </g>
</svg>
