<?xml version="1.0" encoding="UTF-8" standalone="no"?>
<!-- Created with Inkscape (http://www.inkscape.org/) -->

<svg
   xmlns:dc="http://purl.org/dc/elements/1.1/"
   xmlns:cc="http://creativecommons.org/ns#"
   xmlns:rdf="http://www.w3.org/1999/02/22-rdf-syntax-ns#"
   xmlns:svg="http://www.w3.org/2000/svg"
   xmlns="http://www.w3.org/2000/svg"
   xmlns:sodipodi="http://sodipodi.sourceforge.net/DTD/sodipodi-0.dtd"
   xmlns:inkscape="http://www.inkscape.org/namespaces/inkscape"
   width="256"
   height="256"
   viewBox="0 0 256 256"
   id="svg2"
   version="1.1"
   inkscape:version="0.92.4 (unknown)"
   sodipodi:docname="view-right-new.svg">
  <sodipodi:namedview
     id="base"
     pagecolor="#ffffff"
     bordercolor="#666666"
     borderopacity="1.0"
     inkscape:pageopacity="0.0"
     inkscape:pageshadow="2"
     inkscape:zoom="3.3046875"
     inkscape:cx="128"
     inkscape:cy="127.99998"
     inkscape:document-units="px"
     inkscape:current-layer="layer1"
     showgrid="true"
     units="px"
     inkscape:window-width="1920"
     inkscape:window-height="1048"
     inkscape:window-x="0"
     inkscape:window-y="0"
     inkscape:window-maximized="1">
    <inkscape:grid
       spacingy="5"
       spacingx="5"
       id="grid4191"
       type="xygrid" />
  </sodipodi:namedview>
  <defs
     id="defs4">
    <inkscape:path-effect
       is_visible="true"
       id="path-effect4187"
       effect="spiro" />
    <inkscape:path-effect
       is_visible="true"
       id="path-effect4202"
       effect="spiro" />
    <inkscape:path-effect
       effect="spiro"
       id="path-effect4198"
       is_visible="true" />
    <inkscape:path-effect
       effect="spiro"
       id="path-effect4176"
       is_visible="true" />
    <inkscape:path-effect
       is_visible="true"
       id="path-effect4172"
       effect="spiro" />
    <inkscape:path-effect
       is_visible="true"
       id="path-effect4829"
       effect="spiro" />
    <inkscape:path-effect
       is_visible="true"
       id="path-effect4153"
       effect="spiro" />
    <inkscape:path-effect
       is_visible="true"
       id="path-effect4175"
       effect="spiro" />
    <clipPath
       clipPathUnits="userSpaceOnUse"
       id="clipPath4174">
      <circle
         style="fill:#cc2828;fill-opacity:1;stroke:none;stroke-width:0;stroke-linecap:round;stroke-linejoin:round;stroke-miterlimit:4;stroke-dasharray:none;stroke-opacity:1"
         id="circle4176"
         cx="128"
         cy="924.36218"
         r="128" />
    </clipPath>
    <clipPath
       clipPathUnits="userSpaceOnUse"
       id="clipPath4183">
      <circle
         style="fill:#cc2828;fill-opacity:1;stroke:none;stroke-width:0;stroke-linecap:round;stroke-linejoin:round;stroke-miterlimit:4;stroke-dasharray:none;stroke-opacity:1"
         id="circle4185"
         cx="-924.36218"
         cy="128.00002"
         r="128"
         transform="matrix(0,-1,1,0,0,0)" />
    </clipPath>
    <clipPath
       clipPathUnits="userSpaceOnUse"
       id="clipPath4187">
      <circle
         style="fill:#cc2828;fill-opacity:1;stroke:none;stroke-width:0;stroke-linecap:round;stroke-linejoin:round;stroke-miterlimit:4;stroke-dasharray:none;stroke-opacity:1"
         id="circle4189"
         cx="128"
         cy="924.36218"
         r="128" />
    </clipPath>
    <clipPath
       clipPathUnits="userSpaceOnUse"
       id="clipPath4209">
      <circle
         style="fill:#cc2828;fill-opacity:1;stroke:none;stroke-width:0;stroke-linecap:round;stroke-linejoin:round;stroke-miterlimit:4;stroke-dasharray:none;stroke-opacity:1"
         id="circle4211"
         cx="-924.36218"
         cy="128"
         r="128"
         transform="matrix(0,-1,1,0,0,0)" />
    </clipPath>
    <clipPath
       clipPathUnits="userSpaceOnUse"
       id="clipPath4213">
      <circle
         style="fill:#cc2828;fill-opacity:1;stroke:none;stroke-width:0;stroke-linecap:round;stroke-linejoin:round;stroke-miterlimit:4;stroke-dasharray:none;stroke-opacity:1"
         id="circle4215"
         cx="128"
         cy="924.36218"
         r="128" />
    </clipPath>
    <clipPath
       id="clipPath4381"
       clipPathUnits="userSpaceOnUse">
      <circle
         transform="matrix(0.77780341,0.62850764,-0.62850764,0.77780341,0,0)"
         style="fill:#d83838;fill-opacity:1;stroke:none;stroke-width:0;stroke-linecap:round;stroke-linejoin:round;stroke-miterlimit:4;stroke-dasharray:none;stroke-opacity:1"
         id="circle4383"
         cx="686.50537"
         cy="640.4978"
         r="128" />
    </clipPath>
    <clipPath
       id="clipPath4857"
       clipPathUnits="userSpaceOnUse">
      <circle
         style="fill:#68bdff;fill-opacity:1;stroke:none;stroke-width:0;stroke-linecap:round;stroke-linejoin:round;stroke-miterlimit:4;stroke-dasharray:none;stroke-opacity:1"
         id="circle4859"
         cx="128"
         cy="924.36218"
         r="128" />
    </clipPath>
    <clipPath
       id="clipPath5081"
       clipPathUnits="userSpaceOnUse">
      <circle
         transform="scale(-1,1)"
         r="128"
         cy="924.36218"
         cx="-127.94974"
         id="circle5083"
         style="fill:#68bdff;fill-opacity:1;stroke:none;stroke-width:0;stroke-linecap:round;stroke-linejoin:round;stroke-miterlimit:4;stroke-dasharray:none;stroke-opacity:1" />
    </clipPath>
    <clipPath
       id="clipPath5081-7"
       clipPathUnits="userSpaceOnUse">
      <circle
         transform="scale(-1,1)"
         r="128"
         cy="924.36218"
         cx="-127.94974"
         id="circle5083-5"
         style="fill:#68bdff;fill-opacity:1;stroke:none;stroke-width:0;stroke-linecap:round;stroke-linejoin:round;stroke-miterlimit:4;stroke-dasharray:none;stroke-opacity:1" />
    </clipPath>
    <clipPath
       clipPathUnits="userSpaceOnUse"
       id="clipPath4286">
      <circle
         style="fill:#ff7b68;fill-opacity:1;stroke:none;stroke-width:0;stroke-linecap:round;stroke-linejoin:round;stroke-miterlimit:4;stroke-dasharray:none;stroke-opacity:1"
         id="circle4288"
         cx="125"
         cy="927.36218"
         r="128" />
    </clipPath>
    <clipPath
       clipPathUnits="userSpaceOnUse"
       id="clipPath4607">
      <circle
         r="128"
         cy="924.36218"
         cx="128"
         id="circle4609"
         style="fill:#1ce089;fill-opacity:1;stroke:none;stroke-width:6.37599993;stroke-linecap:round;stroke-linejoin:round;stroke-miterlimit:4;stroke-dasharray:none;stroke-opacity:1" />
    </clipPath>
    <clipPath
       clipPathUnits="userSpaceOnUse"
       id="clipPath4192">
      <circle
         r="128"
         cy="924.36218"
         cx="136"
         id="circle4194"
         style="fill:#1ce089;fill-opacity:1;stroke:none;stroke-width:6.37599993;stroke-linecap:round;stroke-linejoin:round;stroke-miterlimit:4;stroke-dasharray:none;stroke-opacity:1" />
    </clipPath>
    <clipPath
       clipPathUnits="userSpaceOnUse"
       id="clipPath1001">
      <circle
         r="147.2"
         cy="936.86218"
         cx="132.325"
         style="fill:#757575;fill-opacity:1;stroke:none;stroke-width:7.33239985;stroke-linecap:round;stroke-linejoin:round;stroke-miterlimit:4;stroke-dasharray:none;stroke-opacity:1"
         id="circle1003" />
    </clipPath>
  </defs>
  <metadata
     id="metadata7">
    <rdf:RDF>
      <cc:Work
         rdf:about="">
        <dc:format>image/svg+xml</dc:format>
        <dc:type
           rdf:resource="http://purl.org/dc/dcmitype/StillImage" />
        <dc:title />
      </cc:Work>
    </rdf:RDF>
  </metadata>
  <g
     transform="translate(0,-796.36216)"
     id="layer1"
     inkscape:groupmode="layer"
     inkscape:label="Layer 1">
    <circle
       id="path4178"
       style="fill:#757575;fill-opacity:1;stroke:none;stroke-width:6.37599993;stroke-linecap:round;stroke-linejoin:round;stroke-miterlimit:4;stroke-dasharray:none;stroke-opacity:1"
       cx="128"
       cy="924.36218"
       r="128" />
    <g
       style="fill:#414141;fill-opacity:1"
       transform="matrix(0.86956522,0,0,0.86956522,12.934783,109.69939)"
       id="g859"
       clip-path="url(#clipPath1001)">
      <g
         id="g964"
         transform="matrix(1.15,0,0,1.15,-14.875,789.66218)">
        <g
           id="g961"
           style="opacity:1;fill:#414141;fill-opacity:1;stroke:none;stroke-width:25.56521797;stroke-miterlimit:4;stroke-dasharray:none;stroke-opacity:1">
          <path
             id="path909"
             d="M126.5 23.0L126.5 233.0L-14.9213562373 374.421356237L-14.9213562373 164.421356237Z" />
          <path
             id="path911"
             d="M129.5 233.0L129.5 23.0L-11.9213562373 164.421356237L-11.9213562373 374.421356237Z" />
          <path
             id="path913"
             d="M172.06445 78.0C171.342333875 78.0 170.690872051 78.2906478278 170.21974287 78.7617770089L28.7983866326 220.183133246C29.2695158138 219.712004065 29.9209776376 219.421356237 30.6430937627 219.421356237Z" />
          <path
             id="path915"
             d="M170.21974287 78.7617770089C169.747975777 79.2335441021 169.45703 79.8862816254 169.45703 80.609375L28.0356737627 222.030731237C28.0356737627 221.307637863 28.3266195395 220.654900339 28.7983866326 220.183133246Z" />
          <path
             id="path917"
             d="M169.45703 80.609375L169.45703 114.95703L28.0356737627 256.378386237L28.0356737627 222.030731237Z" />
          <path
             id="path919"
             d="M169.45703 114.95703L135.10938 114.95703L-6.31197623731 256.378386237L28.0356737627 256.378386237Z" />
          <path
             id="path921"
             d="M135.10938 114.95703C134.386285 114.95703 133.73354532 115.247976682 133.26177693 115.719745072L-8.15957930726 257.141101309C-7.68781091768 256.669332919 -7.03507123708 256.378386237 -6.31197623731 256.378386237Z" />
          <path
             id="path923"
             d="M133.26177693 115.719745072C132.790647921 116.190874081 132.5 116.842335 132.5 117.56445L-8.92135623731 258.985806237C-8.92135623731 258.263691237 -8.63070831639 257.612230318 -8.15957930726 257.141101309Z" />
          <path
             id="path925"
             d="M132.5 117.56445L132.5 138.43555L-8.92135623731 279.856906237L-8.92135623731 258.985806237Z" />
          <path
             id="path927"
             d="M132.5 138.43555C132.5 139.88075 133.66417 141.04297 135.10938 141.04297L-6.31197623731 282.464326237C-7.75718623731 282.464326237 -8.92135623731 281.302106237 -8.92135623731 279.856906237Z" />
          <path
             id="path929"
             d="M135.10938 141.04297L169.45703 141.04297L28.0356737627 282.464326237L-6.31197623731 282.464326237Z" />
          <path
             id="path931"
             d="M169.45703 141.04297L169.45703 175.39062L28.0356737627 316.811976237L28.0356737627 282.464326237Z" />
          <path
             id="path933"
             d="M169.45703 175.39062C169.45703 176.83583 170.61924 178.0 172.06445 178.0L30.6430937627 319.421356237C29.1978837627 319.421356237 28.0356737627 318.257186237 28.0356737627 316.811976237Z" />
          <path
             id="path935"
             d="M172.06445 178.0L192.93555 178.0L51.5141937627 319.421356237L30.6430937627 319.421356237Z" />
          <path
             id="path937"
             d="M192.93555 178.0C193.657665 178.0 194.309125919 177.709352079 194.780254928 177.23822307L53.3588986911 318.659579307C52.887769682 319.130708316 52.2363087629 319.421356237 51.5141937627 319.421356237Z" />
          <path
             id="path939"
             d="M194.780254928 177.23822307C195.252023318 176.76645468 195.54297 176.113715 195.54297 175.39062L54.1216137627 316.811976237C54.1216137627 317.535071237 53.8306670807 318.187810918 53.3588986911 318.659579307Z" />
          <path
             id="path941"
             d="M195.54297 175.39062L195.54297 141.04297L54.1216137627 282.464326237L54.1216137627 316.811976237Z" />
          <path
             id="path943"
             d="M195.54297 141.04297L229.89062 141.04297L88.4692637627 282.464326237L54.1216137627 282.464326237Z" />
          <path
             id="path945"
             d="M229.89062 141.04297C230.613713751 141.04297 231.266452427 140.752021819 231.738220627 140.280253619L90.3168643893 281.701609857C89.8450961894 282.173378057 89.1923575142 282.464326237 88.4692637627 282.464326237Z" />
          <path
             id="path947"
             d="M231.738220627 140.280253619C232.209351074 139.809123172 232.5 139.157661252 232.5 138.43555L91.0786437627 279.856906237C91.0786437627 280.579017489 90.7879948369 281.230479409 90.3168643893 281.701609857Z" />
          <path
             id="path949"
             d="M232.5 138.43555L232.5 117.56445L91.0786437627 258.985806237L91.0786437627 279.856906237Z" />
          <path
             id="path951"
             d="M232.5 117.56445C232.5 116.11924 231.33583 114.95703 229.89062 114.95703L88.4692637627 256.378386237C89.9144737627 256.378386237 91.0786437627 257.540596237 91.0786437627 258.985806237Z" />
          <path
             id="path953"
             d="M229.89062 114.95703L195.54297 114.95703L54.1216137627 256.378386237L88.4692637627 256.378386237Z" />
          <path
             id="path955"
             d="M195.54297 114.95703L195.54297 80.609375L54.1216137627 222.030731237L54.1216137627 256.378386237Z" />
          <path
             id="path957"
             d="M195.54297 80.609375C195.54297 79.164166 194.38076 78.0 192.93555 78.0L51.5141937627 219.421356237C52.9594037627 219.421356237 54.1216137627 220.585522237 54.1216137627 222.030731237Z" />
          <path
             id="path959"
             d="M192.93555 78.0L172.06445 78.0L30.6430937627 219.421356237L51.5141937627 219.421356237Z" />
        </g>
        <path
           transform=""
           id="rect855"
           d="M 127.97656 21.480469 A 1.50015 1.50015 0 0 0 126.5 23 L 126.5 233 A 1.50015 1.50015 0 1 0 129.5 233 L 129.5 23 A 1.50015 1.50015 0 0 0 127.97656 21.480469 z M 172.06445 78 C 170.61924 78 169.45703 79.164166 169.45703 80.609375 L 169.45703 114.95703 L 135.10938 114.95703 C 133.66417 114.95703 132.5 116.11924 132.5 117.56445 L 132.5 138.43555 C 132.5 139.88075 133.66417 141.04297 135.10938 141.04297 L 169.45703 141.04297 L 169.45703 175.39062 C 169.45703 176.83583 170.61924 178 172.06445 178 L 192.93555 178 C 194.38076 178 195.54297 176.83583 195.54297 175.39062 L 195.54297 141.04297 L 229.89062 141.04297 C 231.33583 141.04297 232.5 139.88075 232.5 138.43555 L 232.5 117.56445 C 232.5 116.11924 231.33583 114.95703 229.89062 114.95703 L 195.54297 114.95703 L 195.54297 80.609375 C 195.54297 79.164166 194.38076 78 192.93555 78 L 172.06445 78 z "
           style="opacity:1;fill:#414141;fill-opacity:1;stroke:none;stroke-width:25.56521797;stroke-miterlimit:4;stroke-dasharray:none;stroke-opacity:1" />
      </g>
    </g>
    <g
       id="g858"
       transform="matrix(0.86956522,0,0,0.86956522,12.934783,109.69939)"
       style="fill:#ffffff;fill-opacity:1">
      <rect
         ry="2.9999774"
         y="879.36218"
         x="180"
         height="115"
         width="30"
         id="rect852"
         style="opacity:1;fill:#ffffff;fill-opacity:1;stroke:none;stroke-width:29.39999962;stroke-miterlimit:4;stroke-dasharray:none;stroke-opacity:1" />
      <rect
         transform="rotate(90)"
         style="opacity:1;fill:#ffffff;fill-opacity:1;stroke:none;stroke-width:29.39999962;stroke-miterlimit:4;stroke-dasharray:none;stroke-opacity:1"
         id="rect854"
         width="30"
         height="115"
         x="921.86218"
         y="-252.5"
         ry="2.9999774" />
    </g>
    <path
       style="fill:none;stroke:#ffffff;stroke-width:3;stroke-linecap:round;stroke-linejoin:miter;stroke-miterlimit:4;stroke-dasharray:none;stroke-opacity:1"
       d="M 128,819.36214 V 1029.3622"
       id="path860"
       inkscape:connector-curvature="0" />
  </g>
</svg>
