<?xml version="1.0" encoding="UTF-8" standalone="no"?>
<!-- Created with Inkscape (http://www.inkscape.org/) -->

<svg
   xmlns:dc="http://purl.org/dc/elements/1.1/"
   xmlns:cc="http://creativecommons.org/ns#"
   xmlns:rdf="http://www.w3.org/1999/02/22-rdf-syntax-ns#"
   xmlns:svg="http://www.w3.org/2000/svg"
   xmlns="http://www.w3.org/2000/svg"
   xmlns:sodipodi="http://sodipodi.sourceforge.net/DTD/sodipodi-0.dtd"
   xmlns:inkscape="http://www.inkscape.org/namespaces/inkscape"
   width="256"
   height="256"
   viewBox="0 0 256 256"
   id="svg2"
   version="1.1"
   inkscape:version="0.92.4 (unknown)"
   sodipodi:docname="view-more-horizontal-symbolic.svg">
  <sodipodi:namedview
     id="base"
     pagecolor="#ffffff"
     bordercolor="#666666"
     borderopacity="1.0"
     inkscape:pageopacity="0.0"
     inkscape:pageshadow="2"
     inkscape:zoom="3.3281247"
     inkscape:cx="128"
     inkscape:cy="127.99999"
     inkscape:document-units="px"
     inkscape:current-layer="layer1"
     showgrid="true"
     units="px"
     inkscape:window-width="1920"
     inkscape:window-height="1043"
     inkscape:window-x="0"
     inkscape:window-y="0"
     inkscape:window-maximized="1">
    <inkscape:grid
       type="xygrid"
       id="grid4191"
       spacingx="5"
       spacingy="5" />
  </sodipodi:namedview>
  <defs
     id="defs4">
    <inkscape:path-effect
       is_visible="true"
       id="path-effect4187"
       effect="spiro" />
    <inkscape:path-effect
       is_visible="true"
       id="path-effect4202"
       effect="spiro" />
    <inkscape:path-effect
       effect="spiro"
       id="path-effect4198"
       is_visible="true" />
    <inkscape:path-effect
       effect="spiro"
       id="path-effect4176"
       is_visible="true" />
    <inkscape:path-effect
       is_visible="true"
       id="path-effect4172"
       effect="spiro" />
    <inkscape:path-effect
       is_visible="true"
       id="path-effect4829"
       effect="spiro" />
    <inkscape:path-effect
       is_visible="true"
       id="path-effect4153"
       effect="spiro" />
    <inkscape:path-effect
       is_visible="true"
       id="path-effect4175"
       effect="spiro" />
    <clipPath
       clipPathUnits="userSpaceOnUse"
       id="clipPath4174">
      <circle
         style="fill:#cc2828;fill-opacity:1;stroke:none;stroke-width:0;stroke-linecap:round;stroke-linejoin:round;stroke-miterlimit:4;stroke-dasharray:none;stroke-opacity:1"
         id="circle4176"
         cx="128"
         cy="924.36218"
         r="128" />
    </clipPath>
    <clipPath
       clipPathUnits="userSpaceOnUse"
       id="clipPath4183">
      <circle
         style="fill:#cc2828;fill-opacity:1;stroke:none;stroke-width:0;stroke-linecap:round;stroke-linejoin:round;stroke-miterlimit:4;stroke-dasharray:none;stroke-opacity:1"
         id="circle4185"
         cx="-924.36218"
         cy="128.00002"
         r="128"
         transform="matrix(0,-1,1,0,0,0)" />
    </clipPath>
    <clipPath
       clipPathUnits="userSpaceOnUse"
       id="clipPath4187">
      <circle
         style="fill:#cc2828;fill-opacity:1;stroke:none;stroke-width:0;stroke-linecap:round;stroke-linejoin:round;stroke-miterlimit:4;stroke-dasharray:none;stroke-opacity:1"
         id="circle4189"
         cx="128"
         cy="924.36218"
         r="128" />
    </clipPath>
    <clipPath
       clipPathUnits="userSpaceOnUse"
       id="clipPath4209">
      <circle
         style="fill:#cc2828;fill-opacity:1;stroke:none;stroke-width:0;stroke-linecap:round;stroke-linejoin:round;stroke-miterlimit:4;stroke-dasharray:none;stroke-opacity:1"
         id="circle4211"
         cx="-924.36218"
         cy="128"
         r="128"
         transform="matrix(0,-1,1,0,0,0)" />
    </clipPath>
    <clipPath
       clipPathUnits="userSpaceOnUse"
       id="clipPath4213">
      <circle
         style="fill:#cc2828;fill-opacity:1;stroke:none;stroke-width:0;stroke-linecap:round;stroke-linejoin:round;stroke-miterlimit:4;stroke-dasharray:none;stroke-opacity:1"
         id="circle4215"
         cx="128"
         cy="924.36218"
         r="128" />
    </clipPath>
    <clipPath
       id="clipPath4381"
       clipPathUnits="userSpaceOnUse">
      <circle
         transform="matrix(0.77780341,0.62850764,-0.62850764,0.77780341,0,0)"
         style="fill:#d83838;fill-opacity:1;stroke:none;stroke-width:0;stroke-linecap:round;stroke-linejoin:round;stroke-miterlimit:4;stroke-dasharray:none;stroke-opacity:1"
         id="circle4383"
         cx="686.50537"
         cy="640.4978"
         r="128" />
    </clipPath>
    <clipPath
       id="clipPath4857"
       clipPathUnits="userSpaceOnUse">
      <circle
         style="fill:#68bdff;fill-opacity:1;stroke:none;stroke-width:0;stroke-linecap:round;stroke-linejoin:round;stroke-miterlimit:4;stroke-dasharray:none;stroke-opacity:1"
         id="circle4859"
         cx="128"
         cy="924.36218"
         r="128" />
    </clipPath>
    <clipPath
       id="clipPath5081"
       clipPathUnits="userSpaceOnUse">
      <circle
         transform="scale(-1,1)"
         r="128"
         cy="924.36218"
         cx="-127.94974"
         id="circle5083"
         style="fill:#68bdff;fill-opacity:1;stroke:none;stroke-width:0;stroke-linecap:round;stroke-linejoin:round;stroke-miterlimit:4;stroke-dasharray:none;stroke-opacity:1" />
    </clipPath>
    <clipPath
       id="clipPath5081-7"
       clipPathUnits="userSpaceOnUse">
      <circle
         transform="scale(-1,1)"
         r="128"
         cy="924.36218"
         cx="-127.94974"
         id="circle5083-5"
         style="fill:#68bdff;fill-opacity:1;stroke:none;stroke-width:0;stroke-linecap:round;stroke-linejoin:round;stroke-miterlimit:4;stroke-dasharray:none;stroke-opacity:1" />
    </clipPath>
    <clipPath
       clipPathUnits="userSpaceOnUse"
       id="clipPath4286">
      <circle
         style="fill:#ff7b68;fill-opacity:1;stroke:none;stroke-width:0;stroke-linecap:round;stroke-linejoin:round;stroke-miterlimit:4;stroke-dasharray:none;stroke-opacity:1"
         id="circle4288"
         cx="125"
         cy="927.36218"
         r="128" />
    </clipPath>
    <clipPath
       clipPathUnits="userSpaceOnUse"
       id="clipPath4607">
      <circle
         r="128"
         cy="924.36218"
         cx="128"
         id="circle4609"
         style="fill:#1ce089;fill-opacity:1;stroke:none;stroke-width:6.37599993;stroke-linecap:round;stroke-linejoin:round;stroke-miterlimit:4;stroke-dasharray:none;stroke-opacity:1" />
    </clipPath>
    <clipPath
       clipPathUnits="userSpaceOnUse"
       id="clipPath4192">
      <circle
         r="128"
         cy="924.36218"
         cx="136"
         id="circle4194"
         style="fill:#1ce089;fill-opacity:1;stroke:none;stroke-width:6.37599993;stroke-linecap:round;stroke-linejoin:round;stroke-miterlimit:4;stroke-dasharray:none;stroke-opacity:1" />
    </clipPath>
  </defs>
  <metadata
     id="metadata7">
    <rdf:RDF>
      <cc:Work
         rdf:about="">
        <dc:format>image/svg+xml</dc:format>
        <dc:type
           rdf:resource="http://purl.org/dc/dcmitype/StillImage" />
        <dc:title></dc:title>
      </cc:Work>
    </rdf:RDF>
  </metadata>
  <g
     transform="translate(0,-796.36216)"
     id="layer1"
     inkscape:groupmode="layer"
     inkscape:label="Layer 1">
    <path
       style="fill:#757575;fill-opacity:1;stroke:none;stroke-width:4.88172865;stroke-opacity:1"
       d="m 256,924.36216 a 128,128 0 0 0 -128,-128 128,128 0 0 0 -128,128 128,128 0 0 0 128,128.00004 128,128 0 0 0 128,-128.00004 z m -28,-12.5 v 25 c 0,8.30999 -6.69001,15 -15,15 h -25 c -8.30999,0 -15,-6.69001 -15,-15 v -25 c 0,-8.30999 6.69001,-15 15,-15 h 25 c 8.30999,0 15,6.69001 15,15 z m -72.5,0 v 25 c 0,8.30999 -6.69001,15 -15,15 h -25 c -8.30999,0 -15,-6.69001 -15,-15 v -25 c 0,-8.30999 6.69001,-15 15,-15 h 25 c 8.30999,0 15,6.69001 15,15 z m -72.5,0 v 25 c 0,8.30999 -6.69001,15 -15,15 H 43 c -8.31,0 -15,-6.69001 -15,-15 v -25 c 0,-8.30999 6.69,-15 15,-15 h 25 c 8.30999,0 15,6.69001 15,15 z"
       id="circle848"
       inkscape:connector-curvature="0" />
    <path
       style="fill:#757575;fill-opacity:1;stroke:none;stroke-width:4.88172865;stroke-opacity:1"
       d="M 128,0 A 128,128 0 0 0 117.0957,0.54492188 128,128 0 0 1 128,0 Z"
       transform="translate(0,796.36216)"
       id="path978" />
    <path
       style="fill:#757575;fill-opacity:1;stroke:none;stroke-width:4.88172865;stroke-opacity:1"
       d="M 138.9043,0.54492188 A 128,128 0 0 1 145.30078,1.3222656 128,128 0 0 0 138.9043,0.54492188 Z"
       transform="translate(0,796.36216)"
       id="path976" />
    <path
       style="fill:#757575;fill-opacity:1;stroke:none;stroke-width:4.88172865;stroke-opacity:1"
       d="m 110.69922,1.3222656 a 128,128 0 0 0 -6.26172,0.9453125 128,128 0 0 1 6.26172,-0.9453125 z"
       transform="translate(0,796.36216)"
       id="path974" />
    <path
       style="fill:#757575;fill-opacity:1;stroke:none;stroke-width:4.88172865;stroke-opacity:1"
       d="m 151.5625,2.2675781 a 128,128 0 0 1 6.26953,1.4082031 128,128 0 0 0 -6.26953,-1.4082031 z"
       transform="translate(0,796.36216)"
       id="path972" />
    <path
       style="fill:#757575;fill-opacity:1;stroke:none;stroke-width:4.88172865;stroke-opacity:1"
       d="m 98.167969,3.6757812 a 128,128 0 0 0 -6.1875,1.5800782 128,128 0 0 1 6.1875,-1.5800782 z"
       transform="translate(0,796.36216)"
       id="path970" />
    <path
       style="fill:#757575;fill-opacity:1;stroke:none;stroke-width:4.88172865;stroke-opacity:1"
       d="m 164.01953,5.2558594 a 128,128 0 0 1 6.07422,2.0175781 128,128 0 0 0 -6.07422,-2.0175781 z"
       transform="translate(0,796.36216)"
       id="path968" />
    <path
       style="fill:#757575;fill-opacity:1;stroke:none;stroke-width:4.88172865;stroke-opacity:1"
       d="M 85.90625,7.2734375 A 128,128 0 0 0 79.925781,9.4570312 128,128 0 0 1 85.90625,7.2734375 Z"
       transform="translate(0,796.36216)"
       id="path966" />
    <path
       style="fill:#757575;fill-opacity:1;stroke:none;stroke-width:4.88172865;stroke-opacity:1"
       d="m 176.07422,9.4570312 a 128,128 0 0 1 5.87305,2.6289068 128,128 0 0 0 -5.87305,-2.6289068 z"
       transform="translate(0,796.36216)"
       id="path964" />
    <path
       style="fill:#757575;fill-opacity:1;stroke:none;stroke-width:4.88172865;stroke-opacity:1"
       d="m 74.052734,12.085938 a 128,128 0 0 0 -5.734375,2.769531 128,128 0 0 1 5.734375,-2.769531 z"
       transform="translate(0,796.36216)"
       id="path962" />
    <path
       style="fill:#757575;fill-opacity:1;stroke:none;stroke-width:4.88172865;stroke-opacity:1"
       d="m 187.68164,14.855469 a 128,128 0 0 1 5.5332,3.173828 128,128 0 0 0 -5.5332,-3.173828 z"
       transform="translate(0,796.36216)"
       id="path960" />
    <path
       style="fill:#757575;fill-opacity:1;stroke:none;stroke-width:4.88172865;stroke-opacity:1"
       d="m 62.785156,18.029297 a 128,128 0 0 0 -5.474609,3.357422 128,128 0 0 1 5.474609,-3.357422 z"
       transform="translate(0,796.36216)"
       id="path958" />
    <path
       style="fill:#757575;fill-opacity:1;stroke:none;stroke-width:4.88172865;stroke-opacity:1"
       d="m 198.68945,21.386719 a 128,128 0 0 1 5.17383,3.699219 128,128 0 0 0 -5.17383,-3.699219 z"
       transform="translate(0,796.36216)"
       id="path956" />
    <path
       style="fill:#757575;fill-opacity:1;stroke:none;stroke-width:4.88172865;stroke-opacity:1"
       d="m 52.136719,25.085938 a 128,128 0 0 0 -5.109375,3.884765 128,128 0 0 1 5.109375,-3.884765 z"
       transform="translate(0,796.36216)"
       id="path954" />
    <path
       style="fill:#757575;fill-opacity:1;stroke:none;stroke-width:4.88172865;stroke-opacity:1"
       d="m 208.97266,28.970703 a 128,128 0 0 1 4.79687,4.212891 128,128 0 0 0 -4.79687,-4.212891 z"
       transform="translate(0,796.36216)"
       id="path952" />
    <path
       style="fill:#757575;fill-opacity:1;stroke:none;stroke-width:4.88172865;stroke-opacity:1"
       d="m 42.230469,33.183594 a 128,128 0 0 0 -4.683594,4.363281 128,128 0 0 1 4.683594,-4.363281 z"
       transform="translate(0,796.36216)"
       id="path950" />
    <path
       style="fill:#757575;fill-opacity:1;stroke:none;stroke-width:4.88172865;stroke-opacity:1"
       d="m 218.45312,37.546875 a 128,128 0 0 1 4.36329,4.683594 128,128 0 0 0 -4.36329,-4.683594 z"
       transform="translate(0,796.36216)"
       id="path948" />
    <path
       style="fill:#757575;fill-opacity:1;stroke:none;stroke-width:4.88172865;stroke-opacity:1"
       d="m 33.183594,42.230469 a 128,128 0 0 0 -4.212891,4.796875 128,128 0 0 1 4.212891,-4.796875 z"
       transform="translate(0,796.36216)"
       id="path946" />
    <path
       style="fill:#757575;fill-opacity:1;stroke:none;stroke-width:4.88172865;stroke-opacity:1"
       d="m 227.0293,47.027344 a 128,128 0 0 1 3.88476,5.109375 128,128 0 0 0 -3.88476,-5.109375 z"
       transform="translate(0,796.36216)"
       id="path944" />
    <path
       style="fill:#757575;fill-opacity:1;stroke:none;stroke-width:4.88172865;stroke-opacity:1"
       d="m 25.085938,52.136719 a 128,128 0 0 0 -3.699219,5.173828 128,128 0 0 1 3.699219,-5.173828 z"
       transform="translate(0,796.36216)"
       id="path942" />
    <path
       style="fill:#757575;fill-opacity:1;stroke:none;stroke-width:4.88172865;stroke-opacity:1"
       d="m 234.61328,57.310547 a 128,128 0 0 1 3.35742,5.474609 128,128 0 0 0 -3.35742,-5.474609 z"
       transform="translate(0,796.36216)"
       id="path936" />
    <path
       style="fill:#757575;fill-opacity:1;stroke:none;stroke-width:4.88172865;stroke-opacity:1"
       d="m 18.029297,62.785156 a 128,128 0 0 0 -3.173828,5.533203 128,128 0 0 1 3.173828,-5.533203 z"
       transform="translate(0,796.36216)"
       id="path934" />
    <path
       style="fill:#757575;fill-opacity:1;stroke:none;stroke-width:4.88172865;stroke-opacity:1"
       d="m 241.14453,68.318359 a 128,128 0 0 1 2.76953,5.734375 128,128 0 0 0 -2.76953,-5.734375 z"
       transform="translate(0,796.36216)"
       id="path932" />
    <path
       style="fill:#757575;fill-opacity:1;stroke:none;stroke-width:4.88172865;stroke-opacity:1"
       d="M 12.085938,74.052734 A 128,128 0 0 0 9.4570312,79.925781 128,128 0 0 1 12.085938,74.052734 Z"
       transform="translate(0,796.36216)"
       id="path930" />
    <path
       style="fill:#757575;fill-opacity:1;stroke:none;stroke-width:4.88172865;stroke-opacity:1"
       d="m 246.54297,79.925781 a 128,128 0 0 1 2.18359,5.980469 128,128 0 0 0 -2.18359,-5.980469 z"
       transform="translate(0,796.36216)"
       id="path928" />
    <path
       style="fill:#757575;fill-opacity:1;stroke:none;stroke-width:4.88172865;stroke-opacity:1"
       d="M 7.2734375,85.90625 A 128,128 0 0 0 5.2558594,91.980469 128,128 0 0 1 7.2734375,85.90625 Z"
       transform="translate(0,796.36216)"
       id="path926" />
    <path
       style="fill:#757575;fill-opacity:1;stroke:none;stroke-width:4.88172865;stroke-opacity:1"
       d="m 250.74414,91.980469 a 128,128 0 0 1 1.58008,6.1875 128,128 0 0 0 -1.58008,-6.1875 z"
       transform="translate(0,796.36216)"
       id="path924" />
    <path
       style="fill:#757575;fill-opacity:1;stroke:none;stroke-width:4.88172865;stroke-opacity:1"
       d="M 3.6757812,98.167969 A 128,128 0 0 0 2.2675781,104.4375 128,128 0 0 1 3.6757812,98.167969 Z"
       transform="translate(0,796.36216)"
       id="path922" />
    <path
       style="fill:#757575;fill-opacity:1;stroke:none;stroke-width:4.88172865;stroke-opacity:1"
       d="m 253.73242,104.4375 a 128,128 0 0 1 0.94531,6.26172 128,128 0 0 0 -0.94531,-6.26172 z"
       transform="translate(0,796.36216)"
       id="path920" />
    <path
       style="fill:#757575;fill-opacity:1;stroke:none;stroke-width:4.88172865;stroke-opacity:1"
       d="M 1.3222656,110.69922 A 128,128 0 0 0 0.54492188,117.0957 128,128 0 0 1 1.3222656,110.69922 Z"
       transform="translate(0,796.36216)"
       id="path918" />
    <path
       style="fill:#757575;fill-opacity:1;stroke:none;stroke-width:4.88172865;stroke-opacity:1"
       d="M 255.45508,117.0957 A 128,128 0 0 1 256,128 128,128 0 0 0 255.45508,117.0957 Z"
       transform="translate(0,796.36216)"
       id="path916" />
    <path
       style="fill:#757575;fill-opacity:1;stroke:none;stroke-width:4.88172865;stroke-opacity:1"
       d="M 0,128 A 128,128 0 0 0 0.54492188,138.9043 128,128 0 0 1 0,128 Z"
       transform="translate(0,796.36216)"
       id="path914" />
    <path
       style="fill:#757575;fill-opacity:1;stroke:none;stroke-width:4.88172865;stroke-opacity:1"
       d="m 255.45508,138.9043 a 128,128 0 0 1 -0.77735,6.39648 128,128 0 0 0 0.77735,-6.39648 z"
       transform="translate(0,796.36216)"
       id="path912" />
    <path
       style="fill:#757575;fill-opacity:1;stroke:none;stroke-width:4.88172865;stroke-opacity:1"
       d="m 1.3222656,145.30078 a 128,128 0 0 0 0.9453125,6.26172 128,128 0 0 1 -0.9453125,-6.26172 z"
       transform="translate(0,796.36216)"
       id="path910" />
    <path
       style="fill:#757575;fill-opacity:1;stroke:none;stroke-width:4.88172865;stroke-opacity:1"
       d="m 253.73242,151.5625 a 128,128 0 0 1 -1.4082,6.26953 128,128 0 0 0 1.4082,-6.26953 z"
       transform="translate(0,796.36216)"
       id="path904" />
    <path
       style="fill:#757575;fill-opacity:1;stroke:none;stroke-width:4.88172865;stroke-opacity:1"
       d="m 3.6757812,157.83203 a 128,128 0 0 0 1.5800782,6.1875 128,128 0 0 1 -1.5800782,-6.1875 z"
       transform="translate(0,796.36216)"
       id="path902" />
    <path
       style="fill:#757575;fill-opacity:1;stroke:none;stroke-width:4.88172865;stroke-opacity:1"
       d="m 250.74414,164.01953 a 128,128 0 0 1 -2.01758,6.07422 128,128 0 0 0 2.01758,-6.07422 z"
       transform="translate(0,796.36216)"
       id="path900" />
    <path
       style="fill:#757575;fill-opacity:1;stroke:none;stroke-width:4.88172865;stroke-opacity:1"
       d="m 7.2734375,170.09375 a 128,128 0 0 0 2.1835937,5.98047 128,128 0 0 1 -2.1835937,-5.98047 z"
       transform="translate(0,796.36216)"
       id="path898" />
    <path
       style="fill:#757575;fill-opacity:1;stroke:none;stroke-width:4.88172865;stroke-opacity:1"
       d="m 246.54297,176.07422 a 128,128 0 0 1 -2.62891,5.87305 128,128 0 0 0 2.62891,-5.87305 z"
       transform="translate(0,796.36216)"
       id="path896" />
    <path
       style="fill:#757575;fill-opacity:1;stroke:none;stroke-width:4.88172865;stroke-opacity:1"
       d="m 12.085938,181.94727 a 128,128 0 0 0 2.769531,5.73437 128,128 0 0 1 -2.769531,-5.73437 z"
       transform="translate(0,796.36216)"
       id="path894" />
    <path
       style="fill:#757575;fill-opacity:1;stroke:none;stroke-width:4.88172865;stroke-opacity:1"
       d="m 241.14453,187.68164 a 128,128 0 0 1 -3.17383,5.5332 128,128 0 0 0 3.17383,-5.5332 z"
       transform="translate(0,796.36216)"
       id="path892" />
    <path
       style="fill:#757575;fill-opacity:1;stroke:none;stroke-width:4.88172865;stroke-opacity:1"
       d="m 18.029297,193.21484 a 128,128 0 0 0 3.357422,5.47461 128,128 0 0 1 -3.357422,-5.47461 z"
       transform="translate(0,796.36216)"
       id="path890" />
    <path
       style="fill:#757575;fill-opacity:1;stroke:none;stroke-width:4.88172865;stroke-opacity:1"
       d="m 234.61328,198.68945 a 128,128 0 0 1 -3.69922,5.17383 128,128 0 0 0 3.69922,-5.17383 z"
       transform="translate(0,796.36216)"
       id="path888" />
    <path
       style="fill:#757575;fill-opacity:1;stroke:none;stroke-width:4.88172865;stroke-opacity:1"
       d="m 25.085938,203.86328 a 128,128 0 0 0 3.884765,5.10938 128,128 0 0 1 -3.884765,-5.10938 z"
       transform="translate(0,796.36216)"
       id="path886" />
    <path
       style="fill:#757575;fill-opacity:1;stroke:none;stroke-width:4.88172865;stroke-opacity:1"
       d="m 227.0293,208.97266 a 128,128 0 0 1 -4.21289,4.79687 128,128 0 0 0 4.21289,-4.79687 z"
       transform="translate(0,796.36216)"
       id="path884" />
    <path
       style="fill:#757575;fill-opacity:1;stroke:none;stroke-width:4.88172865;stroke-opacity:1"
       d="m 33.183594,213.76953 a 128,128 0 0 0 4.363281,4.68359 128,128 0 0 1 -4.363281,-4.68359 z"
       transform="translate(0,796.36216)"
       id="path882" />
    <path
       style="fill:#757575;fill-opacity:1;stroke:none;stroke-width:4.88172865;stroke-opacity:1"
       d="m 218.45312,218.45312 a 128,128 0 0 1 -4.68359,4.36329 128,128 0 0 0 4.68359,-4.36329 z"
       transform="translate(0,796.36216)"
       id="path880" />
    <path
       style="fill:#757575;fill-opacity:1;stroke:none;stroke-width:4.88172865;stroke-opacity:1"
       d="m 42.230469,222.81641 a 128,128 0 0 0 4.796875,4.21289 128,128 0 0 1 -4.796875,-4.21289 z"
       transform="translate(0,796.36216)"
       id="path878" />
    <path
       style="fill:#757575;fill-opacity:1;stroke:none;stroke-width:4.88172865;stroke-opacity:1"
       d="m 208.97266,227.0293 a 128,128 0 0 1 -5.10938,3.88476 128,128 0 0 0 5.10938,-3.88476 z"
       transform="translate(0,796.36216)"
       id="path876" />
    <path
       style="fill:#757575;fill-opacity:1;stroke:none;stroke-width:4.88172865;stroke-opacity:1"
       d="m 52.136719,230.91406 a 128,128 0 0 0 5.173828,3.69922 128,128 0 0 1 -5.173828,-3.69922 z"
       transform="translate(0,796.36216)"
       id="path874" />
    <path
       style="fill:#757575;fill-opacity:1;stroke:none;stroke-width:4.88172865;stroke-opacity:1"
       d="m 198.68945,234.61328 a 128,128 0 0 1 -5.47461,3.35742 128,128 0 0 0 5.47461,-3.35742 z"
       transform="translate(0,796.36216)"
       id="path872" />
    <path
       style="fill:#757575;fill-opacity:1;stroke:none;stroke-width:4.88172865;stroke-opacity:1"
       d="m 62.785156,237.9707 a 128,128 0 0 0 5.533203,3.17383 128,128 0 0 1 -5.533203,-3.17383 z"
       transform="translate(0,796.36216)"
       id="path870" />
    <path
       style="fill:#757575;fill-opacity:1;stroke:none;stroke-width:4.88172865;stroke-opacity:1"
       d="m 187.68164,241.14453 a 128,128 0 0 1 -5.73437,2.76953 128,128 0 0 0 5.73437,-2.76953 z"
       transform="translate(0,796.36216)"
       id="path868" />
    <path
       style="fill:#757575;fill-opacity:1;stroke:none;stroke-width:4.88172865;stroke-opacity:1"
       d="m 74.060547,243.91992 a 128,128 0 0 0 5.855469,2.61914 128,128 0 0 1 -5.855469,-2.61914 z"
       transform="translate(0,796.36216)"
       id="path866" />
    <path
       style="fill:#757575;fill-opacity:1;stroke:none;stroke-width:4.88172865;stroke-opacity:1"
       d="m 176.07422,246.54297 a 128,128 0 0 1 -5.98047,2.18359 128,128 0 0 0 5.98047,-2.18359 z"
       transform="translate(0,796.36216)"
       id="path864" />
    <path
       style="fill:#757575;fill-opacity:1;stroke:none;stroke-width:4.88172865;stroke-opacity:1"
       d="m 85.919922,248.73047 a 128,128 0 0 0 6.060547,2.01367 128,128 0 0 1 -6.060547,-2.01367 z"
       transform="translate(0,796.36216)"
       id="path862" />
    <path
       style="fill:#757575;fill-opacity:1;stroke:none;stroke-width:4.88172865;stroke-opacity:1"
       d="m 164.01953,250.74414 a 128,128 0 0 1 -6.1875,1.58008 128,128 0 0 0 6.1875,-1.58008 z"
       transform="translate(0,796.36216)"
       id="path860" />
    <path
       style="fill:#757575;fill-opacity:1;stroke:none;stroke-width:4.88172865;stroke-opacity:1"
       d="m 98.167969,252.32422 a 128,128 0 0 0 6.269531,1.4082 128,128 0 0 1 -6.269531,-1.4082 z"
       transform="translate(0,796.36216)"
       id="path858" />
    <path
       style="fill:#757575;fill-opacity:1;stroke:none;stroke-width:4.88172865;stroke-opacity:1"
       d="m 151.5625,253.73242 a 128,128 0 0 1 -6.26172,0.94531 128,128 0 0 0 6.26172,-0.94531 z"
       transform="translate(0,796.36216)"
       id="path856" />
    <path
       style="fill:#757575;fill-opacity:1;stroke:none;stroke-width:4.88172865;stroke-opacity:1"
       d="m 110.69922,254.67773 a 128,128 0 0 0 6.39648,0.77735 128,128 0 0 1 -6.39648,-0.77735 z"
       transform="translate(0,796.36216)"
       id="path854" />
    <path
       style="fill:#757575;fill-opacity:1;stroke:none;stroke-width:4.88172865;stroke-opacity:1"
       d="M 138.9043,255.45508 A 128,128 0 0 1 128,256 a 128,128 0 0 0 10.9043,-0.54492 z"
       transform="translate(0,796.36216)"
       id="path846" />
  </g>
</svg>
