<?xml version="1.0" encoding="UTF-8" standalone="no"?>
<svg
   xmlns:ns2="http://ns.adobe.com/AdobeIllustrator/10.0/"
   xmlns:dc="http://purl.org/dc/elements/1.1/"
   xmlns:cc="http://creativecommons.org/ns#"
   xmlns:rdf="http://www.w3.org/1999/02/22-rdf-syntax-ns#"
   xmlns:svg="http://www.w3.org/2000/svg"
   xmlns="http://www.w3.org/2000/svg"
   xmlns:sodipodi="http://sodipodi.sourceforge.net/DTD/sodipodi-0.dtd"
   xmlns:inkscape="http://www.inkscape.org/namespaces/inkscape"
   width="256"
   height="256"
   viewBox="0 0 256 256"
   id="svg2"
   version="1.1"
   inkscape:version="1.0.2 (e86c870879, 2021-01-15)"
   sodipodi:docname="view-app-grid-symbolic-debian.svg">
  <sodipodi:namedview
     id="base"
     pagecolor="#ffffff"
     bordercolor="#666666"
     borderopacity="1.0"
     inkscape:pageopacity="0.0"
     inkscape:pageshadow="2"
     inkscape:zoom="3.2578125"
     inkscape:cx="125.08393"
     inkscape:cy="128"
     inkscape:document-units="px"
     inkscape:current-layer="layer1"
     showgrid="true"
     units="px"
     inkscape:window-width="1920"
     inkscape:window-height="1048"
     inkscape:window-x="0"
     inkscape:window-y="0"
     inkscape:window-maximized="1"
     inkscape:document-rotation="0">
    <inkscape:grid
       type="xygrid"
       id="grid4191"
       spacingx="5"
       spacingy="5" />
  </sodipodi:namedview>
  <defs
     id="defs4">
    <inkscape:path-effect
       is_visible="true"
       id="path-effect4187"
       effect="spiro" />
    <inkscape:path-effect
       is_visible="true"
       id="path-effect4202"
       effect="spiro" />
    <inkscape:path-effect
       effect="spiro"
       id="path-effect4198"
       is_visible="true" />
    <inkscape:path-effect
       effect="spiro"
       id="path-effect4176"
       is_visible="true" />
    <inkscape:path-effect
       is_visible="true"
       id="path-effect4172"
       effect="spiro" />
    <inkscape:path-effect
       is_visible="true"
       id="path-effect4829"
       effect="spiro" />
    <inkscape:path-effect
       is_visible="true"
       id="path-effect4153"
       effect="spiro" />
    <inkscape:path-effect
       is_visible="true"
       id="path-effect4175"
       effect="spiro" />
    <clipPath
       clipPathUnits="userSpaceOnUse"
       id="clipPath4174">
      <circle
         style="fill:#cc2828;fill-opacity:1;stroke:none;stroke-width:0;stroke-linecap:round;stroke-linejoin:round;stroke-miterlimit:4;stroke-dasharray:none;stroke-opacity:1"
         id="circle4176"
         cx="128"
         cy="924.36218"
         r="128" />
    </clipPath>
    <clipPath
       clipPathUnits="userSpaceOnUse"
       id="clipPath4183">
      <circle
         style="fill:#cc2828;fill-opacity:1;stroke:none;stroke-width:0;stroke-linecap:round;stroke-linejoin:round;stroke-miterlimit:4;stroke-dasharray:none;stroke-opacity:1"
         id="circle4185"
         cx="-924.36218"
         cy="128.00002"
         r="128"
         transform="matrix(0,-1,1,0,0,0)" />
    </clipPath>
    <clipPath
       clipPathUnits="userSpaceOnUse"
       id="clipPath4187">
      <circle
         style="fill:#cc2828;fill-opacity:1;stroke:none;stroke-width:0;stroke-linecap:round;stroke-linejoin:round;stroke-miterlimit:4;stroke-dasharray:none;stroke-opacity:1"
         id="circle4189"
         cx="128"
         cy="924.36218"
         r="128" />
    </clipPath>
    <clipPath
       clipPathUnits="userSpaceOnUse"
       id="clipPath4209">
      <circle
         style="fill:#cc2828;fill-opacity:1;stroke:none;stroke-width:0;stroke-linecap:round;stroke-linejoin:round;stroke-miterlimit:4;stroke-dasharray:none;stroke-opacity:1"
         id="circle4211"
         cx="-924.36218"
         cy="128"
         r="128"
         transform="matrix(0,-1,1,0,0,0)" />
    </clipPath>
    <clipPath
       clipPathUnits="userSpaceOnUse"
       id="clipPath4213">
      <circle
         style="fill:#cc2828;fill-opacity:1;stroke:none;stroke-width:0;stroke-linecap:round;stroke-linejoin:round;stroke-miterlimit:4;stroke-dasharray:none;stroke-opacity:1"
         id="circle4215"
         cx="128"
         cy="924.36218"
         r="128" />
    </clipPath>
    <clipPath
       id="clipPath4381"
       clipPathUnits="userSpaceOnUse">
      <circle
         transform="matrix(0.77780341,0.62850764,-0.62850764,0.77780341,0,0)"
         style="fill:#d83838;fill-opacity:1;stroke:none;stroke-width:0;stroke-linecap:round;stroke-linejoin:round;stroke-miterlimit:4;stroke-dasharray:none;stroke-opacity:1"
         id="circle4383"
         cx="686.50537"
         cy="640.4978"
         r="128" />
    </clipPath>
    <clipPath
       id="clipPath4857"
       clipPathUnits="userSpaceOnUse">
      <circle
         style="fill:#68bdff;fill-opacity:1;stroke:none;stroke-width:0;stroke-linecap:round;stroke-linejoin:round;stroke-miterlimit:4;stroke-dasharray:none;stroke-opacity:1"
         id="circle4859"
         cx="128"
         cy="924.36218"
         r="128" />
    </clipPath>
    <clipPath
       id="clipPath5081"
       clipPathUnits="userSpaceOnUse">
      <circle
         transform="scale(-1,1)"
         r="128"
         cy="924.36218"
         cx="-127.94974"
         id="circle5083"
         style="fill:#68bdff;fill-opacity:1;stroke:none;stroke-width:0;stroke-linecap:round;stroke-linejoin:round;stroke-miterlimit:4;stroke-dasharray:none;stroke-opacity:1" />
    </clipPath>
    <clipPath
       id="clipPath5081-7"
       clipPathUnits="userSpaceOnUse">
      <circle
         transform="scale(-1,1)"
         r="128"
         cy="924.36218"
         cx="-127.94974"
         id="circle5083-5"
         style="fill:#68bdff;fill-opacity:1;stroke:none;stroke-width:0;stroke-linecap:round;stroke-linejoin:round;stroke-miterlimit:4;stroke-dasharray:none;stroke-opacity:1" />
    </clipPath>
    <clipPath
       clipPathUnits="userSpaceOnUse"
       id="clipPath4286">
      <circle
         style="fill:#ff7b68;fill-opacity:1;stroke:none;stroke-width:0;stroke-linecap:round;stroke-linejoin:round;stroke-miterlimit:4;stroke-dasharray:none;stroke-opacity:1"
         id="circle4288"
         cx="125"
         cy="927.36218"
         r="128" />
    </clipPath>
    <clipPath
       clipPathUnits="userSpaceOnUse"
       id="clipPath4607">
      <circle
         r="128"
         cy="924.36218"
         cx="128"
         id="circle4609"
         style="fill:#1ce089;fill-opacity:1;stroke:none;stroke-width:6.37599993;stroke-linecap:round;stroke-linejoin:round;stroke-miterlimit:4;stroke-dasharray:none;stroke-opacity:1" />
    </clipPath>
    <clipPath
       clipPathUnits="userSpaceOnUse"
       id="clipPath4192">
      <circle
         r="128"
         cy="924.36218"
         cx="136"
         id="circle4194"
         style="fill:#1ce089;fill-opacity:1;stroke:none;stroke-width:6.37599993;stroke-linecap:round;stroke-linejoin:round;stroke-miterlimit:4;stroke-dasharray:none;stroke-opacity:1" />
    </clipPath>
  </defs>
  <metadata
     id="metadata7">
    <rdf:RDF>
      <cc:Work
         rdf:about="">
        <dc:format>image/svg+xml</dc:format>
        <dc:type
           rdf:resource="http://purl.org/dc/dcmitype/StillImage" />
        <dc:title></dc:title>
      </cc:Work>
    </rdf:RDF>
  </metadata>
  <g
     transform="translate(0,-796.36216)"
     id="layer1"
     inkscape:groupmode="layer"
     inkscape:label="Layer 1">
    <g
       id="g930"
       transform="translate(-7.8316418,-6.1689802)" />
    <ellipse
       style="fill:#868686;stroke-width:0"
       id="path865"
       cx="-128"
       cy="796.36218"
       rx="128"
       ry="0" />
    <path
       id="path866"
       style="fill:#868686;fill-opacity:1;stroke-width:87.4949"
       d="M 127.67578 0 C 57.109982 0.17874154 -0.00022637373 57.433975 0 128 C 0 198.69245 57.307552 256 128 256 C 198.69245 256 256 198.69245 256 128 C 256 57.307552 198.69245 0 128 0 C 127.89193 -0.00013687324 127.78385 -0.00013687324 127.67578 0 z M 126.45508 46.675781 C 125.14359 47.409121 123.84457 47.979133 122.61523 48.841797 C 127.60256 47.652021 127.36407 49.328732 132.46094 48.65625 C 130.67323 48.916418 128.50077 49.625666 128.84766 49.896484 C 134.5455 50.556795 135.41567 48.134869 140.6875 49.890625 L 140.35352 48.333984 C 147.67627 50.978269 149.21077 50.529491 157.16797 54.75 C 159.9644 54.885409 160.24086 53.030327 164.46289 54.748047 C 165.20536 56.051932 164.2945 56.291447 169.47656 59.376953 C 170.05471 59.147214 168.4449 57.682579 167.16992 56.515625 C 177.59035 62.087184 188.9174 73.960797 192.37109 86.667969 C 189.13801 80.706918 192.03644 89.70732 190.92578 89.240234 C 192.3666 93.127546 193.549 97.145488 194.2793 101.29297 C 193.3223 97.891 191.23571 89.678125 187.57812 84.378906 C 187.27992 87.799131 182.86432 82.020249 185.27734 89.546875 C 187.11678 92.21246 185.651 86.842275 187.91797 91.580078 C 187.95296 93.831828 188.81346 96.070978 189.3125 99.005859 C 188.53656 98.878057 187.58226 95.761678 187.01172 96.628906 C 187.79831 100.31995 189.09103 102.24435 189.58398 102.52734 C 189.33142 103.14505 188.67693 101.95054 188.63281 104.46094 C 188.93406 110.24094 190.25425 107.80274 190.875 108.07812 C 190.24512 110.92173 187.69836 114.26717 188.95508 119.16016 C 188.59449 117.67826 187.89102 116.1875 187.35547 114.7832 C 186.85948 118.96111 188.28076 119.7745 186.35156 124.83789 C 187.74217 120.27353 187.58927 116.1547 186.2793 118.13867 C 186.85897 124.62615 181.14792 129.60715 181.76562 133.70898 L 180.10547 131.42188 C 175.60653 137.94434 180.00171 135.0134 176.9375 139.95508 C 178.06033 138.0137 176.34843 139.15358 177.81055 136.95508 C 176.83986 137.01137 173.47915 141.08766 170.4043 143.48242 C 158.31636 153.17255 143.88599 154.43733 129.91602 149.21875 C 129.90648 149.22658 129.90579 149.23904 129.89844 149.24805 C 129.98279 148.91606 129.87622 148.55175 128.91602 147.9043 C 117.07455 138.82883 110.07415 131.11315 112.50391 113.25586 C 114.30987 111.89264 114.79111 104.44328 118.93555 101.83398 C 121.46116 96.253301 129.02958 91.112177 137.11914 90.984375 C 145.37758 90.529461 152.34484 95.390905 155.8457 99.976562 C 149.47234 94.036812 139.04199 92.230161 130.14453 96.634766 C 121.04777 100.72595 115.65482 110.74649 116.44141 120.72266 C 116.77917 120.22514 117.07744 120.53164 117.24023 119.30078 C 116.96181 138.69017 138.13504 152.90107 153.37695 145.73047 L 153.55859 146.13281 C 159.73873 144.44704 158.93949 143.05638 162.98047 140.28125 C 162.66553 140.93243 160.25863 142.59305 161.69336 142.625 C 163.65908 142.10314 169.80175 136.38892 172.82031 133.70508 C 174.20483 130.71847 172.08381 132.08893 174.01758 128.33398 L 176.38086 127.15234 C 177.69387 123.3548 179.14912 121.2104 178.98633 116.78906 L 177.60547 119.69727 C 179.63509 113.55212 178.46201 106.8627 178.74805 101.07812 L 178.18359 100.92578 C 177.6876 86.373089 165.10848 70.906103 153.91211 65.673828 C 144.26306 61.215972 129.40819 60.452701 122.54492 63.810547 C 123.48974 62.973748 127.25458 62.621659 126.12109 61.976562 C 115.37507 63.044623 117.77425 65.723956 109.53711 67.828125 C 107.27775 70.009888 116.13238 66.079823 111.36719 68.908203 C 106.94889 70.126887 104.89056 68.137081 98.34375 74.912109 C 98.926466 75.85541 102.4981 72.124846 99.517578 75.869141 C 93.364824 75.105371 80.080539 89.946809 77.259766 94.867188 L 78.734375 95.121094 C 76.312223 101.18865 73.128927 105.05666 72.695312 108.69141 C 72.069996 117.62994 68.946632 133.92779 73.28125 138.93945 L 72.861328 143.12305 C 73.456216 144.30978 73.905105 145.52106 74.644531 146.63477 L 73.679688 146.71094 C 78.239481 161.09323 78.577269 146.97839 84.597656 161.91602 C 83.724343 161.62238 82.842248 161.3017 81.570312 159.58398 C 81.418167 160.89395 83.422525 164.82533 85.806641 167.89258 L 84.796875 169.04688 C 86.123582 171.45686 87.347099 171.98481 88.267578 172.82617 C 83.313729 170.12255 92.861946 181.73642 93.724609 183.2168 L 94.486328 181.86133 C 94.376784 183.81031 95.884942 186.32663 98.714844 189.81836 L 101.07031 189.72656 C 102.041 191.64511 105.58933 195.11064 107.74219 195.27344 L 106.31055 197.14258 C 111.71475 198.85421 108.93546 199.41303 115.57812 201.76367 L 114.23828 199.39453 C 117.62503 202.33398 118.67315 204.90645 123.45508 207.1582 C 130.08405 209.46929 130.96407 208.55406 137.76953 210.5 C 132.0017 210.33264 125.21995 210.39467 120.66016 208.76367 C 89.551013 200.33787 61.090528 163.84378 63.171875 126.25781 C 62.692617 118.64751 63.929479 109.13835 62.662109 107.24414 C 64.440687 101.45349 66.500095 94.393217 70.644531 85.990234 C 70.344805 85.427297 71.324429 87.637503 73.431641 84.046875 C 74.709661 81.239795 75.752063 78.147886 77.363281 75.419922 L 78.191406 75.226562 C 79.020598 70.412687 89.425329 63.029408 92.521484 59.3125 L 92.734375 60.730469 C 99.491146 54.395141 111.53291 50.149648 118.3125 47.125 C 116.5324 49.095281 122.29847 46.928342 126.45508 46.675781 z M 66.216797 80.826172 C 66.189411 82.460212 68.961853 79.211366 66.96875 83.701172 C 63.25032 86.301334 66.642804 84.769777 66.216797 80.826172 z M 63.185547 93.347656 C 62.858435 94.869109 62.702281 96.449055 61.845703 99.078125 C 62.095221 97.0196 60.818167 96.373825 63.185547 93.347656 z M 160.61719 111.62695 C 160.95533 111.61839 161.19633 112.46015 161.03125 114.92188 C 160.5383 116.90433 160.13469 113.69833 159.625 113.43359 C 159.84333 112.4941 160.27904 111.63551 160.61719 111.62695 z M 158.84766 121.76562 C 158.42926 124.3095 157.24319 126.77039 155.61523 129.01758 C 155.81454 127.08533 151.07287 129.85402 156.56836 122.9375 C 156.09062 124.88648 151.46171 130.01475 156.57227 126.79688 C 157.49883 125.14457 158.48251 123.57921 158.84766 121.76562 z M 147.70508 132.32617 C 146.90784 133.08386 146.01324 133.86296 145.02734 134.63281 C 141.45802 134.08357 138.20736 132.71186 140.94141 132.67383 C 143.22054 132.88227 145.48224 132.87085 147.70508 132.32617 z M 111.09961 136.42773 C 113.35592 140.78365 114.58165 142.11545 116.23242 145.33789 C 113.93807 143.42999 112.51168 140.78611 110.71484 138.3457 L 111.09961 136.42773 z M 114.54297 139.26953 C 115.98987 139.58447 120.945 147.3175 124.6543 148.57422 C 122.46188 146.81694 120.76697 144.57973 119.19531 142.2793 C 122.15758 145.68431 125.75888 148.46611 129.69336 150.30859 C 129.58482 149.89731 129.76058 149.62902 129.85938 149.35547 C 129.83645 150.02214 132.58297 152.1343 134.64844 153.19727 C 139.97048 155.1645 145.98833 155.24333 150.72461 155.06836 C 140.48828 159.34973 120.93763 150.71846 114.54297 139.26953 z "
       transform="translate(0,796.36216)" />
    <g
       transform="matrix(1.5214525,0,0,1.5214525,61.846568,841.86216)"
       id="Layer_1"
       ns2:layer="yes"
       ns2:dimmedPercent="50"
       ns2:rgbTrio="#4F008000FFFF"
       style="fill:#ffffff;fill-opacity:1">
      <g
         id="g28"
         style="fill:#ffffff;fill-opacity:1">
        <path
           style="fill:#ffffff;fill-opacity:1"
           inkscape:connector-curvature="0"
           ns2:knockout="Off"
           d="m 45.172,1.399 c 0.959,0.172 2.072,0.304 1.916,0.533 1.049,-0.23 1.287,-0.442 -1.916,-0.533"
           id="path10" />
        <path
           style="fill:#ffffff;fill-opacity:1"
           inkscape:connector-curvature="0"
           ns2:knockout="Off"
           d="M 47.088,1.932 46.41,2.072 47.041,2.016 47.088,1.932"
           id="path12" />
        <path
           style="fill:#ffffff;fill-opacity:1"
           inkscape:connector-curvature="0"
           ns2:knockout="Off"
           d="m 35.164,59.654 c -0.625,-0.691 -0.995,-1.523 -1.409,-2.352 0.396,1.457 1.207,2.709 1.962,3.982 l -0.553,-1.63"
           id="path18" />
        <path
           style="fill:#ffffff;fill-opacity:1"
           inkscape:connector-curvature="0"
           ns2:knockout="Off"
           d="m 84.568,48.916 -0.264,0.662 c -0.484,3.438 -1.529,6.84 -3.131,9.994 1.77,-3.328 2.915,-6.968 3.395,-10.656"
           id="path20" />
        <path
           style="fill:#ffffff;fill-opacity:1"
           inkscape:connector-curvature="0"
           ns2:knockout="Off"
           d="M 45.527,0.537 C 46.742,0.092 48.514,0.293 49.803,0 48.123,0.141 46.451,0.225 44.8,0.438 l 0.727,0.099"
           id="path22" />
      </g>
    </g>
  </g>
</svg>
