<?xml version="1.0" encoding="UTF-8" standalone="no"?>
<svg
   xmlns:dc="http://purl.org/dc/elements/1.1/"
   xmlns:cc="http://creativecommons.org/ns#"
   xmlns:rdf="http://www.w3.org/1999/02/22-rdf-syntax-ns#"
   xmlns:svg="http://www.w3.org/2000/svg"
   xmlns="http://www.w3.org/2000/svg"
   xmlns:sodipodi="http://sodipodi.sourceforge.net/DTD/sodipodi-0.dtd"
   xmlns:inkscape="http://www.inkscape.org/namespaces/inkscape"
   width="256"
   height="256"
   viewBox="0 0 256 256"
   id="svg2"
   version="1.1"
   inkscape:version="1.0.1 (3bc2e813f5, 2020-09-07)"
   sodipodi:docname="view-grid-symbolic-fedora.svg">
  <sodipodi:namedview
     id="base"
     pagecolor="#ffffff"
     bordercolor="#666666"
     borderopacity="1.0"
     inkscape:pageopacity="0.0"
     inkscape:pageshadow="2"
     inkscape:zoom="3.3437485"
     inkscape:cx="128"
     inkscape:cy="127.99998"
     inkscape:document-units="px"
     inkscape:current-layer="layer1"
     showgrid="true"
     units="px"
     inkscape:window-width="1920"
     inkscape:window-height="1048"
     inkscape:window-x="0"
     inkscape:window-y="0"
     inkscape:window-maximized="1"
     inkscape:document-rotation="0">
    <inkscape:grid
       type="xygrid"
       id="grid4191"
       spacingx="5"
       spacingy="5" />
  </sodipodi:namedview>
  <defs
     id="defs4">
    <inkscape:path-effect
       is_visible="true"
       id="path-effect4187"
       effect="spiro" />
    <inkscape:path-effect
       is_visible="true"
       id="path-effect4202"
       effect="spiro" />
    <inkscape:path-effect
       effect="spiro"
       id="path-effect4198"
       is_visible="true" />
    <inkscape:path-effect
       effect="spiro"
       id="path-effect4176"
       is_visible="true" />
    <inkscape:path-effect
       is_visible="true"
       id="path-effect4172"
       effect="spiro" />
    <inkscape:path-effect
       is_visible="true"
       id="path-effect4829"
       effect="spiro" />
    <inkscape:path-effect
       is_visible="true"
       id="path-effect4153"
       effect="spiro" />
    <inkscape:path-effect
       is_visible="true"
       id="path-effect4175"
       effect="spiro" />
    <clipPath
       clipPathUnits="userSpaceOnUse"
       id="clipPath4174">
      <circle
         style="fill:#cc2828;fill-opacity:1;stroke:none;stroke-width:0;stroke-linecap:round;stroke-linejoin:round;stroke-miterlimit:4;stroke-dasharray:none;stroke-opacity:1"
         id="circle4176"
         cx="128"
         cy="924.36218"
         r="128" />
    </clipPath>
    <clipPath
       clipPathUnits="userSpaceOnUse"
       id="clipPath4183">
      <circle
         style="fill:#cc2828;fill-opacity:1;stroke:none;stroke-width:0;stroke-linecap:round;stroke-linejoin:round;stroke-miterlimit:4;stroke-dasharray:none;stroke-opacity:1"
         id="circle4185"
         cx="-924.36218"
         cy="128.00002"
         r="128"
         transform="matrix(0,-1,1,0,0,0)" />
    </clipPath>
    <clipPath
       clipPathUnits="userSpaceOnUse"
       id="clipPath4187">
      <circle
         style="fill:#cc2828;fill-opacity:1;stroke:none;stroke-width:0;stroke-linecap:round;stroke-linejoin:round;stroke-miterlimit:4;stroke-dasharray:none;stroke-opacity:1"
         id="circle4189"
         cx="128"
         cy="924.36218"
         r="128" />
    </clipPath>
    <clipPath
       clipPathUnits="userSpaceOnUse"
       id="clipPath4209">
      <circle
         style="fill:#cc2828;fill-opacity:1;stroke:none;stroke-width:0;stroke-linecap:round;stroke-linejoin:round;stroke-miterlimit:4;stroke-dasharray:none;stroke-opacity:1"
         id="circle4211"
         cx="-924.36218"
         cy="128"
         r="128"
         transform="matrix(0,-1,1,0,0,0)" />
    </clipPath>
    <clipPath
       clipPathUnits="userSpaceOnUse"
       id="clipPath4213">
      <circle
         style="fill:#cc2828;fill-opacity:1;stroke:none;stroke-width:0;stroke-linecap:round;stroke-linejoin:round;stroke-miterlimit:4;stroke-dasharray:none;stroke-opacity:1"
         id="circle4215"
         cx="128"
         cy="924.36218"
         r="128" />
    </clipPath>
    <clipPath
       id="clipPath4381"
       clipPathUnits="userSpaceOnUse">
      <circle
         transform="matrix(0.77780341,0.62850764,-0.62850764,0.77780341,0,0)"
         style="fill:#d83838;fill-opacity:1;stroke:none;stroke-width:0;stroke-linecap:round;stroke-linejoin:round;stroke-miterlimit:4;stroke-dasharray:none;stroke-opacity:1"
         id="circle4383"
         cx="686.50537"
         cy="640.4978"
         r="128" />
    </clipPath>
    <clipPath
       id="clipPath4857"
       clipPathUnits="userSpaceOnUse">
      <circle
         style="fill:#68bdff;fill-opacity:1;stroke:none;stroke-width:0;stroke-linecap:round;stroke-linejoin:round;stroke-miterlimit:4;stroke-dasharray:none;stroke-opacity:1"
         id="circle4859"
         cx="128"
         cy="924.36218"
         r="128" />
    </clipPath>
    <clipPath
       id="clipPath5081"
       clipPathUnits="userSpaceOnUse">
      <circle
         transform="scale(-1,1)"
         r="128"
         cy="924.36218"
         cx="-127.94974"
         id="circle5083"
         style="fill:#68bdff;fill-opacity:1;stroke:none;stroke-width:0;stroke-linecap:round;stroke-linejoin:round;stroke-miterlimit:4;stroke-dasharray:none;stroke-opacity:1" />
    </clipPath>
    <clipPath
       id="clipPath5081-7"
       clipPathUnits="userSpaceOnUse">
      <circle
         transform="scale(-1,1)"
         r="128"
         cy="924.36218"
         cx="-127.94974"
         id="circle5083-5"
         style="fill:#68bdff;fill-opacity:1;stroke:none;stroke-width:0;stroke-linecap:round;stroke-linejoin:round;stroke-miterlimit:4;stroke-dasharray:none;stroke-opacity:1" />
    </clipPath>
    <clipPath
       clipPathUnits="userSpaceOnUse"
       id="clipPath4286">
      <circle
         style="fill:#ff7b68;fill-opacity:1;stroke:none;stroke-width:0;stroke-linecap:round;stroke-linejoin:round;stroke-miterlimit:4;stroke-dasharray:none;stroke-opacity:1"
         id="circle4288"
         cx="125"
         cy="927.36218"
         r="128" />
    </clipPath>
    <clipPath
       clipPathUnits="userSpaceOnUse"
       id="clipPath4607">
      <circle
         r="128"
         cy="924.36218"
         cx="128"
         id="circle4609"
         style="fill:#1ce089;fill-opacity:1;stroke:none;stroke-width:6.37599993;stroke-linecap:round;stroke-linejoin:round;stroke-miterlimit:4;stroke-dasharray:none;stroke-opacity:1" />
    </clipPath>
    <clipPath
       clipPathUnits="userSpaceOnUse"
       id="clipPath4192">
      <circle
         r="128"
         cy="924.36218"
         cx="136"
         id="circle4194"
         style="fill:#1ce089;fill-opacity:1;stroke:none;stroke-width:6.37599993;stroke-linecap:round;stroke-linejoin:round;stroke-miterlimit:4;stroke-dasharray:none;stroke-opacity:1" />
    </clipPath>
  </defs>
  <metadata
     id="metadata7">
    <rdf:RDF>
      <cc:Work
         rdf:about="">
        <dc:format>image/svg+xml</dc:format>
        <dc:type
           rdf:resource="http://purl.org/dc/dcmitype/StillImage" />
        <dc:title />
      </cc:Work>
    </rdf:RDF>
  </metadata>
  <g
     transform="translate(0,-796.36216)"
     id="layer1"
     inkscape:groupmode="layer"
     inkscape:label="Layer 1">
    <path
       id="path864"
       style="fill:#868686;fill-opacity:1;stroke-width:172.806"
       d="M 127.67578 0 A 128 128 0 0 0 0 128 A 128 128 0 0 0 128 256 A 128 128 0 0 0 256 128 A 128 128 0 0 0 128 0 A 128 128 0 0 0 127.67578 0 z M 162.06055 49.326172 C 186.54635 49.326172 206.625 69.404815 206.625 93.890625 C 206.625 118.37642 186.54636 138.45508 162.06055 138.45508 L 138.52734 138.45508 L 138.52734 162.06055 C 138.52734 182.06629 125.34679 198.997 107.19727 204.64258 C 103.00385 205.96173 98.550004 206.67383 93.939453 206.67383 C 69.453655 206.67383 49.375 186.59518 49.375 162.10938 C 49.375 137.62358 69.453644 117.54297 93.939453 117.54297 L 117.47266 117.54297 L 117.47266 93.9375 C 117.47266 73.912528 130.67704 56.969128 148.85352 51.339844 L 148.85547 51.339844 C 153.03349 50.031367 157.46946 49.326172 162.06055 49.326172 z M 162.06055 70.404297 C 149.07882 70.404297 138.54819 80.918671 138.52539 93.900391 L 138.52539 114.34961 C 138.52539 115.98565 139.71459 117.33695 141.27539 117.60938 L 162.06055 117.60938 C 175.26811 117.60936 185.7793 107.09817 185.7793 93.890625 C 185.7793 82.486435 177.94143 73.097222 167.29883 70.744141 C 165.98022 70.583606 164.55556 70.404297 162.06055 70.404297 z M 93.939453 138.38867 C 80.731895 138.38867 70.21875 148.9018 70.21875 162.10938 C 70.21875 173.51214 78.05825 182.89976 88.699219 185.25391 C 90.018379 185.4145 91.443183 185.5957 93.939453 185.5957 C 106.92118 185.5957 117.45181 175.07938 117.47461 162.09766 L 117.47461 141.64844 C 117.47461 140.01172 116.2844 138.6603 114.72266 138.38867 L 93.939453 138.38867 z "
       transform="translate(0,796.36216)" />
    <g
       id="g930"
       transform="translate(-7.8316418,-6.1689802)" />
  </g>
</svg>
