<?xml version="1.0" encoding="UTF-8" standalone="no"?>
<svg
   xmlns:dc="http://purl.org/dc/elements/1.1/"
   xmlns:cc="http://creativecommons.org/ns#"
   xmlns:rdf="http://www.w3.org/1999/02/22-rdf-syntax-ns#"
   xmlns:svg="http://www.w3.org/2000/svg"
   xmlns="http://www.w3.org/2000/svg"
   xmlns:sodipodi="http://sodipodi.sourceforge.net/DTD/sodipodi-0.dtd"
   xmlns:inkscape="http://www.inkscape.org/namespaces/inkscape"
   width="256"
   height="256"
   viewBox="0 0 256 256"
   id="svg2"
   version="1.1"
   inkscape:version="1.0.2 (e86c870879, 2021-01-15)"
   sodipodi:docname="view-app-grid-symbolic-slackware.svg">
  <sodipodi:namedview
     id="base"
     pagecolor="#ffffff"
     bordercolor="#666666"
     borderopacity="1.0"
     inkscape:pageopacity="0.0"
     inkscape:pageshadow="2"
     inkscape:zoom="3.2578125"
     inkscape:cx="125.08393"
     inkscape:cy="128"
     inkscape:document-units="px"
     inkscape:current-layer="layer1"
     showgrid="true"
     units="px"
     inkscape:window-width="1920"
     inkscape:window-height="1048"
     inkscape:window-x="0"
     inkscape:window-y="0"
     inkscape:window-maximized="1"
     inkscape:document-rotation="0">
    <inkscape:grid
       type="xygrid"
       id="grid4191"
       spacingx="5"
       spacingy="5" />
  </sodipodi:namedview>
  <defs
     id="defs4">
    <inkscape:path-effect
       is_visible="true"
       id="path-effect4187"
       effect="spiro" />
    <inkscape:path-effect
       is_visible="true"
       id="path-effect4202"
       effect="spiro" />
    <inkscape:path-effect
       effect="spiro"
       id="path-effect4198"
       is_visible="true" />
    <inkscape:path-effect
       effect="spiro"
       id="path-effect4176"
       is_visible="true" />
    <inkscape:path-effect
       is_visible="true"
       id="path-effect4172"
       effect="spiro" />
    <inkscape:path-effect
       is_visible="true"
       id="path-effect4829"
       effect="spiro" />
    <inkscape:path-effect
       is_visible="true"
       id="path-effect4153"
       effect="spiro" />
    <inkscape:path-effect
       is_visible="true"
       id="path-effect4175"
       effect="spiro" />
    <clipPath
       clipPathUnits="userSpaceOnUse"
       id="clipPath4174">
      <circle
         style="fill:#cc2828;fill-opacity:1;stroke:none;stroke-width:0;stroke-linecap:round;stroke-linejoin:round;stroke-miterlimit:4;stroke-dasharray:none;stroke-opacity:1"
         id="circle4176"
         cx="128"
         cy="924.36218"
         r="128" />
    </clipPath>
    <clipPath
       clipPathUnits="userSpaceOnUse"
       id="clipPath4183">
      <circle
         style="fill:#cc2828;fill-opacity:1;stroke:none;stroke-width:0;stroke-linecap:round;stroke-linejoin:round;stroke-miterlimit:4;stroke-dasharray:none;stroke-opacity:1"
         id="circle4185"
         cx="-924.36218"
         cy="128.00002"
         r="128"
         transform="matrix(0,-1,1,0,0,0)" />
    </clipPath>
    <clipPath
       clipPathUnits="userSpaceOnUse"
       id="clipPath4187">
      <circle
         style="fill:#cc2828;fill-opacity:1;stroke:none;stroke-width:0;stroke-linecap:round;stroke-linejoin:round;stroke-miterlimit:4;stroke-dasharray:none;stroke-opacity:1"
         id="circle4189"
         cx="128"
         cy="924.36218"
         r="128" />
    </clipPath>
    <clipPath
       clipPathUnits="userSpaceOnUse"
       id="clipPath4209">
      <circle
         style="fill:#cc2828;fill-opacity:1;stroke:none;stroke-width:0;stroke-linecap:round;stroke-linejoin:round;stroke-miterlimit:4;stroke-dasharray:none;stroke-opacity:1"
         id="circle4211"
         cx="-924.36218"
         cy="128"
         r="128"
         transform="matrix(0,-1,1,0,0,0)" />
    </clipPath>
    <clipPath
       clipPathUnits="userSpaceOnUse"
       id="clipPath4213">
      <circle
         style="fill:#cc2828;fill-opacity:1;stroke:none;stroke-width:0;stroke-linecap:round;stroke-linejoin:round;stroke-miterlimit:4;stroke-dasharray:none;stroke-opacity:1"
         id="circle4215"
         cx="128"
         cy="924.36218"
         r="128" />
    </clipPath>
    <clipPath
       id="clipPath4381"
       clipPathUnits="userSpaceOnUse">
      <circle
         transform="matrix(0.77780341,0.62850764,-0.62850764,0.77780341,0,0)"
         style="fill:#d83838;fill-opacity:1;stroke:none;stroke-width:0;stroke-linecap:round;stroke-linejoin:round;stroke-miterlimit:4;stroke-dasharray:none;stroke-opacity:1"
         id="circle4383"
         cx="686.50537"
         cy="640.4978"
         r="128" />
    </clipPath>
    <clipPath
       id="clipPath4857"
       clipPathUnits="userSpaceOnUse">
      <circle
         style="fill:#68bdff;fill-opacity:1;stroke:none;stroke-width:0;stroke-linecap:round;stroke-linejoin:round;stroke-miterlimit:4;stroke-dasharray:none;stroke-opacity:1"
         id="circle4859"
         cx="128"
         cy="924.36218"
         r="128" />
    </clipPath>
    <clipPath
       id="clipPath5081"
       clipPathUnits="userSpaceOnUse">
      <circle
         transform="scale(-1,1)"
         r="128"
         cy="924.36218"
         cx="-127.94974"
         id="circle5083"
         style="fill:#68bdff;fill-opacity:1;stroke:none;stroke-width:0;stroke-linecap:round;stroke-linejoin:round;stroke-miterlimit:4;stroke-dasharray:none;stroke-opacity:1" />
    </clipPath>
    <clipPath
       id="clipPath5081-7"
       clipPathUnits="userSpaceOnUse">
      <circle
         transform="scale(-1,1)"
         r="128"
         cy="924.36218"
         cx="-127.94974"
         id="circle5083-5"
         style="fill:#68bdff;fill-opacity:1;stroke:none;stroke-width:0;stroke-linecap:round;stroke-linejoin:round;stroke-miterlimit:4;stroke-dasharray:none;stroke-opacity:1" />
    </clipPath>
    <clipPath
       clipPathUnits="userSpaceOnUse"
       id="clipPath4286">
      <circle
         style="fill:#ff7b68;fill-opacity:1;stroke:none;stroke-width:0;stroke-linecap:round;stroke-linejoin:round;stroke-miterlimit:4;stroke-dasharray:none;stroke-opacity:1"
         id="circle4288"
         cx="125"
         cy="927.36218"
         r="128" />
    </clipPath>
    <clipPath
       clipPathUnits="userSpaceOnUse"
       id="clipPath4607">
      <circle
         r="128"
         cy="924.36218"
         cx="128"
         id="circle4609"
         style="fill:#1ce089;fill-opacity:1;stroke:none;stroke-width:6.37599993;stroke-linecap:round;stroke-linejoin:round;stroke-miterlimit:4;stroke-dasharray:none;stroke-opacity:1" />
    </clipPath>
    <clipPath
       clipPathUnits="userSpaceOnUse"
       id="clipPath4192">
      <circle
         r="128"
         cy="924.36218"
         cx="136"
         id="circle4194"
         style="fill:#1ce089;fill-opacity:1;stroke:none;stroke-width:6.37599993;stroke-linecap:round;stroke-linejoin:round;stroke-miterlimit:4;stroke-dasharray:none;stroke-opacity:1" />
    </clipPath>
  </defs>
  <metadata
     id="metadata7">
    <rdf:RDF>
      <cc:Work
         rdf:about="">
        <dc:format>image/svg+xml</dc:format>
        <dc:type
           rdf:resource="http://purl.org/dc/dcmitype/StillImage" />
        <dc:title></dc:title>
      </cc:Work>
    </rdf:RDF>
  </metadata>
  <g
     transform="translate(0,-796.36216)"
     id="layer1"
     inkscape:groupmode="layer"
     inkscape:label="Layer 1">
    <g
       id="g930"
       transform="translate(-7.8316418,-6.1689802)" />
    <ellipse
       style="fill:#868686;stroke-width:0"
       id="path865"
       cx="-128"
       cy="796.36218"
       rx="128"
       ry="0" />
    <path
       id="path866"
       style="fill:#868686;fill-opacity:1;stroke-width:87.4949"
       d="M 127.67578 0 C 57.109989 0.17874154 -0.00022637373 57.433975 0 128 C 0 198.69245 57.307552 256 128 256 C 198.69245 256 256 198.69245 256 128 C 256 57.307552 198.69245 0 128 0 C 127.89193 -0.00013687324 127.78385 -0.00013687324 127.67578 0 z M 133.39453 53 C 140.46912 53 147.67738 53.510166 155.02148 54.53125 C 162.36558 55.552334 169.87956 57.084785 177.56055 59.126953 L 177.56055 75.007812 C 169.81218 72.052043 162.50137 69.847498 155.62891 68.396484 C 148.75645 66.94547 142.11957 66.220703 135.71875 66.220703 C 124.60153 66.220703 116.0112 67.939465 109.94727 71.378906 C 103.95071 74.818347 100.95117 79.709312 100.95117 86.050781 C 100.95117 91.371166 102.93882 95.401774 106.91406 98.142578 C 110.95669 100.82964 118.57127 103.00589 129.75586 104.67188 L 142.08594 106.6875 C 157.31315 108.99837 168.53089 113.08361 175.74023 118.94141 C 183.01696 124.74546 186.65625 132.53745 186.65625 142.31836 C 186.65625 153.98021 181.73744 162.82082 171.90039 168.83984 C 162.13072 174.85887 147.77866 177.86719 128.8457 177.86719 C 121.70373 177.86719 114.09111 177.22338 106.00586 175.93359 C 97.987988 174.6438 89.667233 172.73678 81.042969 170.21094 L 81.042969 153.44336 C 89.330348 157.15151 97.447942 159.94523 105.39844 161.82617 C 113.34893 163.70712 121.16472 164.64844 128.8457 164.64844 C 140.50194 164.64844 149.49663 162.82042 155.83008 159.16602 C 162.16352 155.51161 165.33008 150.29874 165.33008 143.52734 C 165.33008 137.6158 163.04062 132.99407 158.45898 129.66211 C 153.94472 126.33015 146.49911 123.83199 136.12305 122.16602 L 123.69141 120.23047 C 108.46419 117.81211 97.447662 114.0244 90.642578 108.86523 C 83.837495 103.70607 80.435547 96.531553 80.435547 87.341797 C 80.435547 76.701027 85.118963 68.315957 94.484375 62.189453 C 103.91716 56.062949 116.88715 53 133.39453 53 z M 65.554688 162.23438 L 66.34375 197.80859 L 195.63672 197.80859 L 195.63672 203 L 61.263672 203 L 60.363281 162.34961 L 65.554688 162.23438 z "
       transform="translate(0,796.36216)" />
    <g
       id="g5136" />
  </g>
</svg>
