<?xml version="1.0" encoding="UTF-8" standalone="no"?>
<!-- Created with Inkscape (http://www.inkscape.org/) -->

<svg
   xmlns:dc="http://purl.org/dc/elements/1.1/"
   xmlns:cc="http://creativecommons.org/ns#"
   xmlns:rdf="http://www.w3.org/1999/02/22-rdf-syntax-ns#"
   xmlns:svg="http://www.w3.org/2000/svg"
   xmlns="http://www.w3.org/2000/svg"
   xmlns:sodipodi="http://sodipodi.sourceforge.net/DTD/sodipodi-0.dtd"
   xmlns:inkscape="http://www.inkscape.org/namespaces/inkscape"
   width="256"
   height="256"
   viewBox="0 0 256 256"
   id="svg2"
   version="1.1"
   inkscape:version="0.91 r13725"
   sodipodi:docname="application-info.svg">
  <sodipodi:namedview
     id="base"
     pagecolor="#ffffff"
     bordercolor="#666666"
     borderopacity="1.0"
     inkscape:pageopacity="0.0"
     inkscape:pageshadow="2"
     inkscape:zoom="2.0585938"
     inkscape:cx="45.905125"
     inkscape:cy="128"
     inkscape:document-units="px"
     inkscape:current-layer="layer1"
     showgrid="false"
     units="px"
     inkscape:window-width="1366"
     inkscape:window-height="721"
     inkscape:window-x="0"
     inkscape:window-y="0"
     inkscape:window-maximized="1" />
  <defs
     id="defs4">
    <filter
       id="filter4301"
       inkscape:label="Drop Shadow"
       style="color-interpolation-filters:sRGB;">
      <feFlood
         id="feFlood4303"
         result="flood"
         flood-color="rgb(0,0,0)"
         flood-opacity="0.498039" />
      <feComposite
         id="feComposite4305"
         result="composite1"
         operator="in"
         in2="SourceGraphic"
         in="flood" />
      <feGaussianBlur
         id="feGaussianBlur4307"
         result="blur"
         stdDeviation="3.7"
         in="composite1" />
      <feOffset
         id="feOffset4309"
         result="offset"
         dy="3.7"
         dx="3.8" />
      <feComposite
         id="feComposite4311"
         result="composite2"
         operator="over"
         in2="offset"
         in="SourceGraphic" />
    </filter>
    <clipPath
       clipPathUnits="userSpaceOnUse"
       id="clipPath4403">
      <path
         style="fill:#d7875f;fill-opacity:1"
         d="m 151.20117,796.84847 -105.78125,0 c -7.804357,0 -14.087891,6.28158 -14.087891,14.08594 l 0,227.33989 c 0,7.8043 6.283534,14.0878 14.087891,14.0878 l 165.16211,0 c 7.80436,0 14.08594,-6.2835 14.08594,-14.0878 l 0,-154.82232 -73.4668,-86.60351 z"
         id="path4405"
         inkscape:connector-curvature="0" />
    </clipPath>
    <clipPath
       clipPathUnits="userSpaceOnUse"
       id="clipPath4632">
      <path
         inkscape:connector-curvature="0"
         id="path4634"
         d="m 151.20117,796.60532 -105.78125,0 c -7.804357,0 -14.087891,6.28158 -14.087891,14.08594 l 0,227.33994 c 0,7.8043 6.283534,14.0878 14.087891,14.0878 l 165.16211,0 c 7.80436,0 14.08594,-6.2835 14.08594,-14.0878 l 0,-154.82237 -73.4668,-86.60351 z"
         style="opacity:0.93000016;fill:#f4b400;fill-opacity:1" />
    </clipPath>
    <clipPath
       id="clipPath4288"
       clipPathUnits="userSpaceOnUse">
      <path
         style="fill:#d8d8d8;fill-opacity:1"
         d="m 151.20117,0.48637 -105.78125,0 c -7.804357,0 -14.087891,6.28158 -14.087891,14.08594 l 0,227.33985 c 0,7.8043 6.283534,14.0878 14.087891,14.0878 l 165.16211,0 c 7.80436,0 14.08594,-6.2835 14.08594,-14.0878 l 0,-154.82228 -73.4668,-86.60351 z"
         id="path4290"
         inkscape:connector-curvature="0" />
    </clipPath>
    <clipPath
       clipPathUnits="userSpaceOnUse"
       id="clipPath4440">
      <path
         style="fill:#d8d8d8;fill-opacity:1"
         d="m 151.20117,0.48637 -105.78125,0 c -7.804357,0 -14.087891,6.28158 -14.087891,14.08594 l 0,227.33985 c 0,7.8043 6.283534,14.0878 14.087891,14.0878 l 165.16211,0 c 7.80436,0 14.08594,-6.2835 14.08594,-14.0878 l 0,-154.82228 -73.4668,-86.60351 z"
         id="path4442"
         inkscape:connector-curvature="0" />
    </clipPath>
  </defs>
  <metadata
     id="metadata7">
    <rdf:RDF>
      <cc:Work
         rdf:about="">
        <dc:format>image/svg+xml</dc:format>
        <dc:type
           rdf:resource="http://purl.org/dc/dcmitype/StillImage" />
        <dc:title />
      </cc:Work>
    </rdf:RDF>
  </metadata>
  <g
     transform="translate(0,-796.36214)"
     id="layer1"
     inkscape:groupmode="layer"
     inkscape:label="Layer 1">
    <path
       inkscape:connector-curvature="0"
       id="path4141"
       d="m 151.20117,796.84851 -105.78125,0 c -7.804357,0 -14.087891,6.28158 -14.087891,14.08594 l 0,227.33985 c 0,7.8043 6.283534,14.0878 14.087891,14.0878 l 165.16211,0 c 7.80436,0 14.08594,-6.2835 14.08594,-14.0878 l 0,-154.82228 -73.4668,-86.60351 z"
       style="fill:#d8d8d8;fill-opacity:1" />
    <path
       inkscape:connector-curvature="0"
       id="rect4136"
       d="m 224.85352,883.45199 -73.4668,-86.60352 0,72.51758 c 0,7.80436 6.28158,14.08594 14.08594,14.08594 l 59.38086,0 z"
       style="fill:#eaeaea;fill-opacity:1;filter:url(#filter4301)" />
    <text
       sodipodi:linespacing="125%"
       id="text4143"
       y="951.72528"
       x="74.722427"
       style="font-style:normal;font-variant:normal;font-weight:bold;font-stretch:normal;font-size:80px;line-height:125%;font-family:FreeSerif;-inkscape-font-specification:'FreeSerif Bold';letter-spacing:0px;word-spacing:0px;fill:#ffffff;fill-opacity:1;stroke:none;stroke-width:1px;stroke-linecap:butt;stroke-linejoin:miter;stroke-opacity:1"
       xml:space="preserve"><tspan
         y="951.72528"
         x="74.722427"
         id="tspan4145"
         sodipodi:role="line" /></text>
    <text
       sodipodi:linespacing="125%"
       id="text4162"
       y="922.95557"
       x="69.391937"
       style="font-style:normal;font-weight:normal;font-size:80px;line-height:125%;font-family:sans-serif;letter-spacing:0px;word-spacing:0px;fill:#000000;fill-opacity:1;stroke:none;stroke-width:1px;stroke-linecap:butt;stroke-linejoin:miter;stroke-opacity:1"
       xml:space="preserve"><tspan
         y="922.95557"
         x="69.391937"
         id="tspan4164"
         sodipodi:role="line" /></text>
    <g
       style="font-style:normal;font-variant:normal;font-weight:bold;font-stretch:normal;font-size:90px;line-height:125%;font-family:'CMU Serif Extra';-inkscape-font-specification:'CMU Serif Extra Bold';letter-spacing:0px;word-spacing:0px;fill:#ffffff;fill-opacity:1;stroke:#ffffff;stroke-width:1px;stroke-linecap:butt;stroke-linejoin:miter;stroke-opacity:1"
       id="text4165" />
    <g
       id="text4186"
       style="font-style:normal;font-variant:normal;font-weight:bold;font-stretch:normal;font-size:98.55583954px;line-height:125%;font-family:'CMU Serif Extra';-inkscape-font-specification:'CMU Serif Extra Bold';letter-spacing:0px;word-spacing:0px;fill:#ffffff;fill-opacity:1;stroke:#ffffff;stroke-width:1.09506488px;stroke-linecap:butt;stroke-linejoin:miter;stroke-opacity:1" />
    <g
       id="g4373"
       transform="translate(0,796.36144)"
       style="fill:#7c7c7c;fill-opacity:1;stroke:#7c7c7c;stroke-linejoin:round;stroke-opacity:1"
       clip-path="url(#clipPath4440)">
      <g
         id="g4375"
         style="fill:#7c7c7c;fill-opacity:1;stroke:#7c7c7c;stroke-width:10.95064926;stroke-linejoin:round;stroke-miterlimit:4;stroke-dasharray:none;stroke-opacity:1">
        <path
           id="path4377"
           d="m 87.039062,104.21484 c -4.715188,0 -8.970558,1.89778 -12.047131,4.97435 L -278.56146,462.74258 c 3.07657,-3.07657 7.33194,-4.97435 12.04713,-4.97435 z"
           style="fill:#7c7c7c;fill-opacity:1;stroke:#7c7c7c;stroke-linejoin:round;stroke-opacity:1"
           inkscape:connector-curvature="0" />
        <path
           id="path4379"
           d="m 74.991931,109.18919 c -3.076576,3.07658 -4.974353,7.33195 -4.974353,12.04714 L -283.53581,474.78972 c 0,-4.71519 1.89777,-8.97056 4.97435,-12.04714 z"
           style="fill:#7c7c7c;fill-opacity:1;stroke:#7c7c7c;stroke-linejoin:round;stroke-opacity:1"
           inkscape:connector-curvature="0" />
        <path
           id="path4381"
           d="m 70.017578,121.23633 0,75.0039 -353.553388,353.55339 0,-75.0039 z"
           style="fill:#7c7c7c;fill-opacity:1;stroke:#7c7c7c;stroke-linejoin:round;stroke-opacity:1"
           inkscape:connector-curvature="0" />
        <path
           id="path4383"
           d="m 70.017578,196.24023 c 0,9.4304 7.591105,17.02344 17.021484,17.02344 L -266.51433,566.81706 c -9.43038,0 -17.02148,-7.59304 -17.02148,-17.02344 z"
           style="fill:#7c7c7c;fill-opacity:1;stroke:#7c7c7c;stroke-linejoin:round;stroke-opacity:1"
           inkscape:connector-curvature="0" />
        <path
           id="path4385"
           d="m 87.039062,213.26367 81.921878,0 -353.55339,353.55339 -81.92188,0 z"
           style="fill:#7c7c7c;fill-opacity:1;stroke:#7c7c7c;stroke-linejoin:round;stroke-opacity:1"
           inkscape:connector-curvature="0" />
        <path
           id="path4387"
           d="m 168.96094,213.26367 c 4.7147,0 8.96968,-1.89787 12.04618,-4.97437 l -353.55339,353.55339 c -3.0765,3.0765 -7.33148,4.97437 -12.04618,4.97437 z"
           style="fill:#7c7c7c;fill-opacity:1;stroke:#7c7c7c;stroke-linejoin:round;stroke-opacity:1"
           inkscape:connector-curvature="0" />
        <path
           id="path4389"
           d="m 181.00712,208.2893 c 3.07713,-3.07713 4.9753,-7.33338 4.9753,-12.04907 l -353.55339,353.55339 c 0,4.71569 -1.89817,8.97194 -4.9753,12.04907 z"
           style="fill:#7c7c7c;fill-opacity:1;stroke:#7c7c7c;stroke-linejoin:round;stroke-opacity:1"
           inkscape:connector-curvature="0" />
        <path
           id="path4391"
           d="m 185.98242,196.24023 0,-75.0039 -353.55339,353.55339 0,75.0039 z"
           style="fill:#7c7c7c;fill-opacity:1;stroke:#7c7c7c;stroke-linejoin:round;stroke-opacity:1"
           inkscape:connector-curvature="0" />
        <path
           id="path4393"
           d="m 185.98242,121.23633 c 0,-9.43038 -7.5911,-17.02149 -17.02148,-17.02149 l -353.55339,353.55339 c 9.43038,0 17.02148,7.59111 17.02148,17.02149 z"
           style="fill:#7c7c7c;fill-opacity:1;stroke:#7c7c7c;stroke-linejoin:round;stroke-opacity:1"
           inkscape:connector-curvature="0" />
        <path
           id="path4395"
           d="m 168.96094,104.21484 -81.921878,0 -353.553392,353.55339 81.92188,0 z"
           style="fill:#7c7c7c;fill-opacity:1;stroke:#7c7c7c;stroke-linejoin:round;stroke-opacity:1"
           inkscape:connector-curvature="0" />
      </g>
      <path
         id="rect4184"
         d="m 87.039062,104.21484 c -9.430379,0 -17.021484,7.59111 -17.021484,17.02149 l 0,75.0039 c 0,9.4304 7.591105,17.02344 17.021484,17.02344 l 81.921878,0 c 9.43038,0 17.02148,-7.59304 17.02148,-17.02344 l 0,-75.0039 c 0,-9.43038 -7.5911,-17.02149 -17.02148,-17.02149 l -81.921878,0 z"
         style="fill:#7c7c7c;fill-opacity:1;stroke:#7c7c7c;stroke-width:10.95064926;stroke-linejoin:round;stroke-miterlimit:4;stroke-dasharray:none;stroke-opacity:1"
         inkscape:connector-curvature="0" />
    </g>
    <g
       transform="matrix(1.0950649,0,0,1.0950649,-12.168311,-96.499765)"
       id="g4328">
      <rect
         ry="15.5446"
         y="910.51776"
         x="75.051239"
         height="99.582542"
         width="105.89753"
         id="rect4330"
         style="fill:none;fill-opacity:1;stroke:#ffffff;stroke-width:10;stroke-miterlimit:4;stroke-dasharray:none;stroke-opacity:1" />
      <text
         sodipodi:linespacing="125%"
         id="text4332"
         y="991.58405"
         x="114.905"
         style="font-style:normal;font-variant:normal;font-weight:bold;font-stretch:normal;font-size:90px;line-height:125%;font-family:'CMU Serif Extra';-inkscape-font-specification:'CMU Serif Extra Bold';letter-spacing:0px;word-spacing:0px;fill:#ffffff;fill-opacity:1;stroke:#ffffff;stroke-width:1px;stroke-linecap:butt;stroke-linejoin:miter;stroke-opacity:1"
         xml:space="preserve"><tspan
           y="991.58405"
           x="114.905"
           id="tspan4334"
           sodipodi:role="line">i</tspan></text>
    </g>
  </g>
</svg>
