<?xml version="1.0" encoding="UTF-8" standalone="no"?>
<svg
   xmlns:dc="http://purl.org/dc/elements/1.1/"
   xmlns:cc="http://creativecommons.org/ns#"
   xmlns:rdf="http://www.w3.org/1999/02/22-rdf-syntax-ns#"
   xmlns:svg="http://www.w3.org/2000/svg"
   xmlns="http://www.w3.org/2000/svg"
   width="256"
   height="256"
   viewBox="0 0 256 256"
   id="svg2"
   version="1.1">
  <defs
     id="defs4">
    <filter
       id="filter4301"
       style="color-interpolation-filters:sRGB;">
      <feFlood
         id="feFlood4303"
         result="flood"
         flood-color="rgb(0,0,0)"
         flood-opacity="0.498039" />
      <feComposite
         id="feComposite4305"
         result="composite1"
         operator="in"
         in2="SourceGraphic"
         in="flood" />
      <feGaussianBlur
         id="feGaussianBlur4307"
         result="blur"
         stdDeviation="3.7"
         in="composite1" />
      <feOffset
         id="feOffset4309"
         result="offset"
         dy="3.7"
         dx="3.8" />
      <feComposite
         id="feComposite4311"
         result="composite2"
         operator="over"
         in2="offset"
         in="SourceGraphic" />
    </filter>
    <clipPath
       clipPathUnits="userSpaceOnUse"
       id="clipPath4266">
      <path
         style="fill:#db4437;fill-opacity:1"
         d="m 153.38672,796.84847 -105.781251,0 c -7.804357,0 -14.087891,6.28158 -14.087891,14.08594 l 0,227.33989 c 0,7.8043 6.283534,14.0878 14.087891,14.0878 l 165.162111,0 c 7.80436,0 14.08594,-6.2835 14.08594,-14.0878 l 0,-154.82232 -73.4668,-86.60351 z"
         id="path4268" />
    </clipPath>
    <clipPath
       id="clipPath6370"
       clipPathUnits="userSpaceOnUse">
      <path
         style="fill:#db4437;fill-opacity:1"
         d="m 153.38672,796.84847 -105.781251,0 c -7.804357,0 -14.087891,6.28158 -14.087891,14.08594 l 0,227.33989 c 0,7.8043 6.283534,14.0878 14.087891,14.0878 l 165.162111,0 c 7.80436,0 14.08594,-6.2835 14.08594,-14.0878 l 0,-154.82232 -73.4668,-86.60351 z"
         id="path6372" />
    </clipPath>
    <clipPath
       clipPathUnits="userSpaceOnUse"
       id="clipPath4317">
      <path
         style="fill:#db4437;fill-opacity:1"
         d="m 153.38672,796.84847 -105.781251,0 c -7.804357,0 -14.087891,6.28158 -14.087891,14.08594 l 0,227.33989 c 0,7.8043 6.283534,14.0878 14.087891,14.0878 l 165.162111,0 c 7.80436,0 14.08594,-6.2835 14.08594,-14.0878 l 0,-154.82232 -73.4668,-86.60351 z"
         id="path4319" />
    </clipPath>
    <clipPath
       id="clipPath5183"
       clipPathUnits="userSpaceOnUse">
      <path
         style="fill:#db4437;fill-opacity:1"
         d="m 153.38672,0.48632812 -105.781251,0 c -7.804357,0 -14.087891,6.28158058 -14.087891,14.08593788 l 0,227.339844 c 0,7.80436 6.283534,14.08789 14.087891,14.08789 l 165.162111,0 c 7.80436,0 14.08594,-6.28353 14.08594,-14.08789 l 0,-154.822266 -73.4668,-86.60351588 z"
         id="path5185" />
    </clipPath>
  </defs>
  <metadata
     id="metadata7">
    <rdf:RDF>
      <cc:Work
         rdf:about="">
        <dc:format>image/svg+xml</dc:format>
        <dc:type
           rdf:resource="http://purl.org/dc/dcmitype/StillImage" />
        <dc:title></dc:title>
      </cc:Work>
    </rdf:RDF>
  </metadata>
  <g
     transform="translate(0,-796.36214)"
     id="layer1">
    <path
       id="path4141"
       d="M 153.38672 0.48632812 L 47.605469 0.48632812 C 39.801112 0.48632812 33.517578 6.7679087 33.517578 14.572266 L 33.517578 241.91211 C 33.517578 249.71647 39.801112 256 47.605469 256 L 212.76758 256 C 220.57194 256 226.85352 249.71647 226.85352 241.91211 L 226.85352 87.089844 L 153.38672 0.48632812 z "
       style="fill:#db4437;fill-opacity:1"
       transform="translate(0,796.36214)" />
    <path
       id="rect4136"
       d="m 226.85352,883.45199 -73.4668,-86.60352 0,72.51758 c 0,7.80436 6.28158,14.08594 14.08594,14.08594 l 59.38086,0 z"
       style="fill:#ec6155;fill-opacity:1;filter:url(#filter4301)" />
    <g
       transform="matrix(1.1184263,0,0,1.1184263,-11.803288,-124.51005)"
       id="g4209"
       style="fill:#000000;fill-opacity:1;stroke:#ac5050;stroke-width:5.5;stroke-linecap:round;stroke-miterlimit:4;stroke-dasharray:none;stroke-opacity:1" />
    <path
       transform="translate(0,796.36214)"
       id="path5650"
       d="M 88.367188 127.35742 C 69.250961 147.71051 51.064484 166.87064 33.517578 185.20703 L 33.517578 241.91211 C 33.517578 249.71647 39.801112 256 47.605469 256 L 127.30469 256 C 145.23365 237.71542 161.7535 220.83337 174.71484 207.58789 L 174.71484 181.0625 C 174.71484 179.79119 172.49143 178.43536 168.74414 177.04297 L 168.74414 176.98047 C 171.77526 174.41752 174.71484 171.68164 174.71484 171.68164 L 174.71484 145.20117 C 174.71484 143.92955 172.49154 142.55555 168.74414 141.1543 L 168.74414 141.125 C 171.54173 138.4986 174.71484 135.82031 174.71484 135.82031 C 140.50719 133.39107 138.34043 133.00006 88.367188 127.35742 z "
       style="fill:#000000;fill-opacity:0.15686275;fill-rule:nonzero;stroke:none" />
    <path
       d="m 174.71443,1003.9497 0,-26.52556 c 0,-1.65224 -3.72696,-3.44535 -9.71947,-5.27896 4.20044,-1.38254 7.55719,-2.76045 9.71947,-4.10096 l 0,-26.48199 c 0,-1.64284 -3.68019,-3.45596 -9.61209,-5.2789 4.15891,-1.37032 7.46496,-2.76995 9.61209,-4.10102 l 0,-26.482 c 0,9.23487 -54.86365,16.34619 -86.347703,18.01824 l 0,26.26383 c 13.299183,0.70626 30.758033,2.43613 46.503183,4.84264 -15.74296,2.40578 -33.20641,4.09286 -46.503183,4.79904 l 0,26.26383 c 13.282333,0.70539 30.719873,2.39746 46.449473,4.79905 -15.7296,2.4015 -33.16714,4.09358 -46.449473,4.79904 l 0,26.26382 0,0.2183 c 23.428973,-14.852 62.060043,-4.1068 86.347703,-18.0184 z"
       id="rect4525"
       style="fill:#ffffff;fill-opacity:1;fill-rule:nonzero;stroke:none" />
    <path
       d="m 165.10234,936.28333 c -17.63704,5.8217 -50.74768,11.54097 -76.735613,13.69905 13.328253,0.70788 30.838573,2.4278 46.610563,4.84264 21.48048,-3.28787 39.73714,-7.9356 39.73714,-13.26279 0,-1.64284 -3.68019,-3.45596 -9.61209,-5.2789 z m -0.10738,35.86185 c -17.65892,5.81197 -50.68354,11.58824 -76.628233,13.74271 13.282333,0.70539 30.719873,2.39746 46.449473,4.79905 21.54754,-3.28927 39.89823,-7.92279 39.89823,-13.2628 0,-1.65224 -3.72696,-3.44535 -9.71947,-5.27896 z"
       id="path3857"
       style="fill:#000000;fill-opacity:1;fill-rule:evenodd;stroke:none" />
  </g>
</svg>
