<?xml version="1.0" encoding="UTF-8" standalone="no"?>
<svg
   xmlns:dc="http://purl.org/dc/elements/1.1/"
   xmlns:cc="http://creativecommons.org/ns#"
   xmlns:rdf="http://www.w3.org/1999/02/22-rdf-syntax-ns#"
   xmlns:svg="http://www.w3.org/2000/svg"
   xmlns="http://www.w3.org/2000/svg"
   version="1.1"
   id="svg2"
   viewBox="0 0 256 256"
   height="256"
   width="256">
  <defs
     id="defs4">
    <filter
       style="color-interpolation-filters:sRGB;"
       id="filter4301">
      <feFlood
         flood-opacity="0.498039"
         flood-color="rgb(0,0,0)"
         result="flood"
         id="feFlood4303" />
      <feComposite
         in="flood"
         in2="SourceGraphic"
         operator="in"
         result="composite1"
         id="feComposite4305" />
      <feGaussianBlur
         in="composite1"
         stdDeviation="3.7"
         result="blur"
         id="feGaussianBlur4307" />
      <feOffset
         dx="3.8"
         dy="3.7"
         result="offset"
         id="feOffset4309" />
      <feComposite
         in="SourceGraphic"
         in2="offset"
         operator="over"
         result="composite2"
         id="feComposite4311" />
    </filter>
    <clipPath
       id="clipPath4266"
       clipPathUnits="userSpaceOnUse">
      <path
         id="path4268"
         d="m 153.38672,796.84847 -105.781251,0 c -7.804357,0 -14.087891,6.28158 -14.087891,14.08594 l 0,227.33989 c 0,7.8043 6.283534,14.0878 14.087891,14.0878 l 165.162111,0 c 7.80436,0 14.08594,-6.2835 14.08594,-14.0878 l 0,-154.82232 -73.4668,-86.60351 z"
         style="fill:#db4437;fill-opacity:1" />
    </clipPath>
    <clipPath
       clipPathUnits="userSpaceOnUse"
       id="clipPath6370">
      <path
         id="path6372"
         d="m 153.38672,796.84847 -105.781251,0 c -7.804357,0 -14.087891,6.28158 -14.087891,14.08594 l 0,227.33989 c 0,7.8043 6.283534,14.0878 14.087891,14.0878 l 165.162111,0 c 7.80436,0 14.08594,-6.2835 14.08594,-14.0878 l 0,-154.82232 -73.4668,-86.60351 z"
         style="fill:#db4437;fill-opacity:1" />
    </clipPath>
    <clipPath
       id="clipPath4317"
       clipPathUnits="userSpaceOnUse">
      <path
         id="path4319"
         d="m 153.38672,796.84847 -105.781251,0 c -7.804357,0 -14.087891,6.28158 -14.087891,14.08594 l 0,227.33989 c 0,7.8043 6.283534,14.0878 14.087891,14.0878 l 165.162111,0 c 7.80436,0 14.08594,-6.2835 14.08594,-14.0878 l 0,-154.82232 -73.4668,-86.60351 z"
         style="fill:#db4437;fill-opacity:1" />
    </clipPath>
    <clipPath
       clipPathUnits="userSpaceOnUse"
       id="clipPath5183">
      <path
         id="path5185"
         d="m 153.38672,0.48632812 -105.781251,0 c -7.804357,0 -14.087891,6.28158058 -14.087891,14.08593788 l 0,227.339844 c 0,7.80436 6.283534,14.08789 14.087891,14.08789 l 165.162111,0 c 7.80436,0 14.08594,-6.28353 14.08594,-14.08789 l 0,-154.822266 -73.4668,-86.60351588 z"
         style="fill:#db4437;fill-opacity:1" />
    </clipPath>
  </defs>
  <metadata
     id="metadata7">
    <rdf:RDF>
      <cc:Work
         rdf:about="">
        <dc:format>image/svg+xml</dc:format>
        <dc:type
           rdf:resource="http://purl.org/dc/dcmitype/StillImage" />
        <dc:title></dc:title>
      </cc:Work>
    </rdf:RDF>
  </metadata>
  <g
     transform="matrix(1.1184263,0,0,1.1184263,-11.803288,-920.87219)"
     id="g4209"
     style="fill:#000000;fill-opacity:1;stroke:#ac5050;stroke-width:5.5;stroke-linecap:round;stroke-miterlimit:4;stroke-dasharray:none;stroke-opacity:1" />
  <g
     id="g4175">
    <path
       style="fill:#ced3d6;fill-opacity:1"
       d="m 153.38672,0.48632812 -105.781251,0 c -7.804357,0 -14.087891,6.28158058 -14.087891,14.08593788 l 0,227.339844 c 0,7.80436 6.283534,14.08789 14.087891,14.08789 l 165.162111,0 c 7.80436,0 14.08594,-6.28353 14.08594,-14.08789 l 0,-154.822266 -73.4668,-86.60351588 z"
       id="path4141" />
    <path
       style="fill:#48a4e7;fill-opacity:1;filter:url(#filter4301)"
       d="m 226.85352,87.08985 -73.4668,-86.60352 0,72.51758 c 0,7.80436 6.28158,14.08594 14.08594,14.08594 l 59.38086,0 z"
       id="rect4136" />
    <path
       style="opacity:0.60100002;fill:#000000;fill-opacity:0.21568627;stroke:none"
       d="M 77.341797 112.91406 C 66.442953 125.14578 58.266114 133.84544 33.517578 159.55273 L 33.517578 241.91211 C 33.517578 249.71647 39.801112 256 47.605469 256 L 156.51758 256 C 167.34064 245.46252 176.43444 237.05773 189.57422 225.14648 C 129.66545 164.28948 122.82582 157.59362 77.341797 112.91406 z "
       id="path4467" />
    <path
       style="fill:#f19041;fill-opacity:1;stroke:none"
       d="m 133.6905,112.91526 -56.348679,59.25775 0,52.97452 56.267889,-56.36663 55.96441,-55.86564 -55.88362,0 z"
       id="path27-9" />
    <path
       style="fill:#48a4e7;fill-opacity:1;stroke:none"
       data-name="&lt;Path&gt;"
       d="m 77.341821,225.14753 56.267889,-56.36573 55.96441,56.36573 -112.232299,0 z"
       id="path29-9" />
    <path
       style="opacity:1;fill:#48a4e7;fill-opacity:1;stroke:none"
       d="m 77.341821,112.91526 56.348679,0 -56.348679,59.25775 0,-59.25775 z"
       id="path31-3" />
  </g>
</svg>
