<?xml version="1.0" encoding="UTF-8" standalone="no"?>
<!-- Created with Inkscape (http://www.inkscape.org/) -->

<svg
   xmlns:dc="http://purl.org/dc/elements/1.1/"
   xmlns:cc="http://creativecommons.org/ns#"
   xmlns:rdf="http://www.w3.org/1999/02/22-rdf-syntax-ns#"
   xmlns:svg="http://www.w3.org/2000/svg"
   xmlns="http://www.w3.org/2000/svg"
   xmlns:sodipodi="http://sodipodi.sourceforge.net/DTD/sodipodi-0.dtd"
   xmlns:inkscape="http://www.inkscape.org/namespaces/inkscape"
   width="256"
   height="256"
   viewBox="0 0 256 256"
   id="svg2"
   version="1.1"
   inkscape:version="0.92.2 (5c3e80d, 2017-08-06)"
   sodipodi:docname="folder-new.svg">
  <sodipodi:namedview
     id="base"
     pagecolor="#ffffff"
     bordercolor="#666666"
     borderopacity="1.0"
     inkscape:pageopacity="0.0"
     inkscape:pageshadow="2"
     inkscape:zoom="3.3359375"
     inkscape:cx="-41.667447"
     inkscape:cy="128"
     inkscape:document-units="px"
     inkscape:current-layer="layer1"
     showgrid="true"
     units="px"
     inkscape:window-width="1920"
     inkscape:window-height="1048"
     inkscape:window-x="0"
     inkscape:window-y="0"
     inkscape:window-maximized="1">
    <inkscape:grid
       type="xygrid"
       id="grid4136"
       spacingx="5"
       spacingy="5" />
  </sodipodi:namedview>
  <defs
     id="defs4">
    <filter
       style="color-interpolation-filters:sRGB;"
       inkscape:label="Drop Shadow"
       id="filter4298">
      <feFlood
         flood-opacity="0.498039"
         flood-color="rgb(0,0,0)"
         result="flood"
         id="feFlood4300" />
      <feComposite
         in="flood"
         in2="SourceGraphic"
         operator="in"
         result="composite1"
         id="feComposite4302" />
      <feGaussianBlur
         in="composite1"
         stdDeviation="1.6"
         result="blur"
         id="feGaussianBlur4304" />
      <feOffset
         dx="-2.77556e-17"
         dy="-7.7"
         result="offset"
         id="feOffset4306" />
      <feComposite
         in="SourceGraphic"
         in2="offset"
         operator="over"
         result="composite2"
         id="feComposite4308" />
    </filter>
    <clipPath
       id="clipPath5092"
       clipPathUnits="userSpaceOnUse">
      <path
         style="opacity:0.91000001;fill:#38bae1;fill-opacity:1;stroke:none;stroke-width:0;stroke-linecap:round;stroke-linejoin:round;stroke-miterlimit:4;stroke-dasharray:none;stroke-opacity:1;filter:url(#filter4298)"
         d="m 10.42124,864.27189 42.534575,-0.0913 21.267287,-0.0456 c 7.245384,-0.0152 14.490768,-0.0305 21.736152,-0.0456 8.394956,-10.58827 10.291846,-15.47699 14.084686,-17.71727 3.79283,-2.24028 9.4816,-1.8321 25.46032,-1.82658 23.36644,-0.007 109.60565,-0.67788 109.60565,-0.67788 l -0.0879,12.1518 -0.0879,12.1518 -0.0879,12.15181 -0.0879,12.1518 -0.0879,12.1518 -0.0879,12.1518 -0.0879,12.15181 -0.0879,12.1518 -0.0879,12.1518 -0.0879,12.1518 -0.0879,12.15181 -0.0879,12.1518 -0.0879,12.15181 -0.0879,12.1518 c 0,0 0.59382,8.1589 -0.0879,12.1518 -0.58177,3.4075 -0.78038,7.5176 -3.36995,9.8075 -2.83121,2.5035 -7.3341,1.9515 -11.09295,2.3443 -4.76571,0.4981 -14.375,0 -14.375,0 l -14.375,0 -14.375,0 -14.37501,0 -14.375,0 -14.375,0 -14.375,0 -14.375,0 -14.375,0 -14.375001,0 c 0,0 -9.583334,0 -14.375001,0 -4.791667,0 -9.583334,0 -14.375001,0 -4.791667,0 -9.500662,0.094 -14.375001,0 -4.874339,-0.093 -10.854147,0.062 -15.030858,-0.571 -4.176712,-0.6329 -7.699545,-0.5576 -9.968228,-2.7111 -2.268683,-2.1535 -2.21606,-4.4991 -2.972258,-7.5945 -0.756198,-3.0955 -0.95689,-7.246 -1.188915,-10.8765 -0.232024,-3.6305 -0.136752,-7.251 -0.205128,-10.8765 -0.06838,-3.6255 -0.136752,-7.25106 -0.205128,-10.87658 -0.06838,-3.62552 -0.136753,-7.25102 -0.205129,-10.87653 -0.06838,-3.62551 -0.136752,-7.25103 -0.205128,-10.87654 -0.06838,-3.62551 -0.205129,-10.87653 -0.205129,-10.87653 L 12.062467,951.28418 11.857339,940.40764 11.65221,929.53111 11.447082,918.65457 11.241954,907.77803 11.036825,896.9015 10.831697,886.02496 10.626568,875.14843 Z"
         id="path5094"
         inkscape:connector-curvature="0"
         sodipodi:nodetypes="cccccccccccccccccccccssscccccccccazzzzzzzzzzzsccccccccc"
         transform="matrix(1.2315339,0,0,1.0608965,-109.24268,-939.37809)" />
    </clipPath>
    <clipPath
       id="clipPath4606"
       clipPathUnits="userSpaceOnUse">
      <g
         transform="matrix(1.0750907,0,0,1.0750909,-89.50666,-879.38234)"
         id="g4616">
        <rect
           y="737.36218"
           x="52.372032"
           height="45"
           width="151.25594"
           id="rect4608"
           style="opacity:1;fill:#a7a7a7;fill-opacity:1;stroke:none;stroke-width:11.4685173;stroke-linecap:butt;stroke-linejoin:miter;stroke-miterlimit:4;stroke-dasharray:none;stroke-opacity:1" />
        <rect
           style="opacity:1;fill:#d3d3d3;fill-opacity:1;stroke:none;stroke-width:12.10504246;stroke-linecap:butt;stroke-linejoin:miter;stroke-miterlimit:4;stroke-dasharray:none;stroke-opacity:1"
           id="rect4610"
           width="168.51187"
           height="45"
           x="43.744064"
           y="752.36218" />
        <rect
           y="767.36218"
           x="28"
           height="45"
           width="200"
           id="rect4612"
           style="opacity:1;fill:#ffffff;fill-opacity:1;stroke:none;stroke-width:13.18760967;stroke-linecap:butt;stroke-linejoin:miter;stroke-miterlimit:4;stroke-dasharray:none;stroke-opacity:1" />
        <path
           inkscape:connector-curvature="0"
           style="fill:#2ccaff;fill-opacity:1;fill-rule:evenodd;stroke:none;stroke-width:2.84884405px;stroke-linecap:butt;stroke-linejoin:miter;stroke-opacity:1"
           d="M 5.505859,787.36214 A 128,128 0 0 0 0,824.36214 128,128 0 0 0 128,952.3621 128,128 0 0 0 256,824.36214 a 128,128 0 0 0 -5.58203,-37 z"
           id="path4614" />
      </g>
    </clipPath>
    <clipPath
       clipPathUnits="userSpaceOnUse"
       id="clipPath5137">
      <path
         id="path5139"
         d="M 66.927107,896.43912 A 126.11779,126.11779 0 0 0 61.50221,932.89507 126.11779,126.11779 0 0 0 187.62,1059.0129 126.11779,126.11779 0 0 0 313.7378,932.89507 126.11779,126.11779 0 0 0 308.23785,896.43912 Z"
         style="fill:#4f8ef1;fill-opacity:1;fill-rule:evenodd;stroke:none;stroke-width:2.80695248px;stroke-linecap:butt;stroke-linejoin:miter;stroke-opacity:1"
         inkscape:connector-curvature="0" />
    </clipPath>
  </defs>
  <metadata
     id="metadata7">
    <rdf:RDF>
      <cc:Work
         rdf:about="">
        <dc:format>image/svg+xml</dc:format>
        <dc:type
           rdf:resource="http://purl.org/dc/dcmitype/StillImage" />
        <dc:title />
      </cc:Work>
    </rdf:RDF>
  </metadata>
  <g
     inkscape:label="Layer 1"
     inkscape:groupmode="layer"
     id="layer1"
     transform="translate(0,-796.36216)">
    <circle
       r="128"
       cy="924.36212"
       cx="128"
       id="path4152"
       style="fill:#800e19;fill-opacity:1;stroke:none;stroke-width:10;stroke-linejoin:round;stroke-miterlimit:4;stroke-dasharray:none;stroke-opacity:0.25882353" />
    <rect
       y="837.36218"
       x="52.37204"
       height="45"
       width="151.25594"
       id="rect4515"
       style="opacity:1;fill:#a7a7a7;fill-opacity:1;stroke:none;stroke-width:11.4685173;stroke-linecap:butt;stroke-linejoin:miter;stroke-miterlimit:4;stroke-dasharray:none;stroke-opacity:1" />
    <rect
       style="opacity:1;fill:#d3d3d3;fill-opacity:1;stroke:none;stroke-width:12.10504246;stroke-linecap:butt;stroke-linejoin:miter;stroke-miterlimit:4;stroke-dasharray:none;stroke-opacity:1"
       id="rect5393"
       width="168.51187"
       height="45"
       x="43.744064"
       y="852.36218" />
    <rect
       y="867.36218"
       x="28"
       height="45"
       width="200"
       id="rect5395"
       style="opacity:1;fill:#ffffff;fill-opacity:1;stroke:none;stroke-width:13.18760967;stroke-linecap:butt;stroke-linejoin:miter;stroke-miterlimit:4;stroke-dasharray:none;stroke-opacity:1" />
    <path
       inkscape:connector-curvature="0"
       style="fill:#b81d28;fill-opacity:1;fill-rule:evenodd;stroke:none;stroke-width:2.84884405px;stroke-linecap:butt;stroke-linejoin:miter;stroke-opacity:1"
       d="M 5.50586,887.36215 A 128,128 0 0 0 0,924.36217 128,128 0 0 0 128,1052.3622 128,128 0 0 0 256,924.36217 128,128 0 0 0 250.41797,887.36215 Z"
       id="path57" />
    <g
       transform="matrix(1.0149242,0,0,1.0149242,-62.420081,-22.455609)"
       id="g4997"
       style="fill:#800e19;fill-opacity:1"
       clip-path="url(#clipPath5137)">
      <g
         id="g5077"
         transform="matrix(0.98529526,0,0,0.98529526,61.50221,806.77726)"
         style="fill:#800e19;fill-opacity:1">
        <g
           id="g5074"
           style="fill:#800e19;fill-opacity:1;stroke:none;stroke-width:30.4477253;stroke-linecap:round;stroke-linejoin:round;stroke-miterlimit:4;stroke-dasharray:none;stroke-opacity:1">
          <path
             id="path5028"
             d="M124.22461 123.5C119.21991 123.5 115.19141 127.5285 115.19141 132.5332L44.4807318813 203.243878119C44.4807318813 198.239178119 48.5092318813 194.210678119 53.5139318813 194.210678119Z"
             style="fill:#800e19;fill-opacity:1" />
          <path
             id="path5030"
             d="M115.19141 132.5332L115.19141 160.69141L44.4807318813 231.402088119L44.4807318813 203.243878119Z"
             style="fill:#800e19;fill-opacity:1" />
          <path
             id="path5032"
             d="M115.19141 160.69141L87.033203 160.69141L16.3225248813 231.402088119L44.4807318813 231.402088119Z"
             style="fill:#800e19;fill-opacity:1" />
          <path
             id="path5034"
             d="M87.033203 160.69141C84.5308511251 160.69141 82.2725500734 161.698535302 80.6398371412 163.331248234L9.92915902257 234.041926352C11.5618719547 232.40921342 13.8201730065 231.402088119 16.3225248813 231.402088119Z"
             style="fill:#800e19;fill-opacity:1" />
          <path
             id="path5036"
             d="M80.6398371412 163.331248234C79.0071246983 164.963960677 78.0 167.222260375 78.0 169.72461L7.28932188135 240.435288119C7.28932188135 237.932938494 8.2964465796 235.674638795 9.92915902257 234.041926352Z"
             style="fill:#800e19;fill-opacity:1" />
          <path
             id="path5038"
             d="M78.0 169.72461L78.0 177.27539L7.28932188135 247.986068119L7.28932188135 240.435288119Z"
             style="fill:#800e19;fill-opacity:1" />
          <path
             id="path5040"
             d="M78.0 177.27539C78.0 182.28009 82.0285 186.30859 87.033203 186.30859L16.3225248813 257.019268119C11.3178218813 257.019268119 7.28932188135 252.990768119 7.28932188135 247.986068119Z"
             style="fill:#800e19;fill-opacity:1" />
          <path
             id="path5042"
             d="M87.033203 186.30859L115.19141 186.30859L44.4807318813 257.019268119L16.3225248813 257.019268119Z"
             style="fill:#800e19;fill-opacity:1" />
          <path
             id="path5044"
             d="M115.19141 186.30859L115.19141 214.4668L44.4807318813 285.177478119L44.4807318813 257.019268119Z"
             style="fill:#800e19;fill-opacity:1" />
          <path
             id="path5046"
             d="M115.19141 214.4668C115.19141 219.47149 119.21991 223.5 124.22461 223.5L53.5139318813 294.210678119C48.5092318813 294.210678119 44.4807318813 290.182168119 44.4807318813 285.177478119Z"
             style="fill:#800e19;fill-opacity:1" />
          <path
             id="path5048"
             d="M124.22461 223.5L131.77539 223.5L61.0647118813 294.210678119L53.5139318813 294.210678119Z"
             style="fill:#800e19;fill-opacity:1" />
          <path
             id="path5050"
             d="M131.77539 223.5C134.27773875 223.5 136.536037744 222.492873506 138.168750053 220.860161197L67.4580719346 291.570839315C65.8253596252 293.203551625 63.5670606313 294.210678119 61.0647118813 294.210678119Z"
             style="fill:#800e19;fill-opacity:1" />
          <path
             id="path5052"
             d="M138.168750053 220.860161197C139.801463994 219.227447256 140.80859 216.96914625 140.80859 214.4668L70.0979118813 285.177478119C70.0979118813 287.679824369 69.0907858752 289.938125375 67.4580719346 291.570839315Z"
             style="fill:#800e19;fill-opacity:1" />
          <path
             id="path5054"
             d="M140.80859 214.4668L140.80859 186.30859L70.0979118813 257.019268119L70.0979118813 285.177478119Z"
             style="fill:#800e19;fill-opacity:1" />
          <path
             id="path5056"
             d="M140.80859 186.30859L168.9668 186.30859L98.2561218813 257.019268119L70.0979118813 257.019268119Z"
             style="fill:#800e19;fill-opacity:1" />
          <path
             id="path5058"
             d="M168.9668 186.30859C171.520218367 186.30859 173.819523865 185.259938397 175.459339588 183.568012095L104.748661469 254.278690213C103.108845746 255.970616515 100.809540249 257.019268119 98.2561218813 257.019268119Z"
             style="fill:#800e19;fill-opacity:1" />
          <path
             id="path5060"
             d="M175.459339588 183.568012095C177.033562682 181.943762845 178.0 179.726671633 178.0 177.27539L107.289321881 247.986068119C107.289321881 250.437349751 106.322884564 252.654440963 104.748661469 254.278690213Z"
             style="fill:#800e19;fill-opacity:1" />
          <path
             id="path5062"
             d="M178.0 177.27539L178.0 169.72461L107.289321881 240.435288119L107.289321881 247.986068119Z"
             style="fill:#800e19;fill-opacity:1" />
          <path
             id="path5064"
             d="M178.0 169.72461C178.0 164.71991 173.9715 160.69141 168.9668 160.69141L98.2561218813 231.402088119C103.260821881 231.402088119 107.289321881 235.430588119 107.289321881 240.435288119Z"
             style="fill:#800e19;fill-opacity:1" />
          <path
             id="path5066"
             d="M168.9668 160.69141L140.80859 160.69141L70.0979118813 231.402088119L98.2561218813 231.402088119Z"
             style="fill:#800e19;fill-opacity:1" />
          <path
             id="path5068"
             d="M140.80859 160.69141L140.80859 132.5332L70.0979118813 203.243878119L70.0979118813 231.402088119Z"
             style="fill:#800e19;fill-opacity:1" />
          <path
             id="path5070"
             d="M140.80859 132.5332C140.80859 127.5285 136.78009 123.5 131.77539 123.5L61.0647118813 194.210678119C66.0694118813 194.210678119 70.0979118813 198.239178119 70.0979118813 203.243878119Z"
             style="fill:#800e19;fill-opacity:1" />
          <path
             id="path5072"
             d="M131.77539 123.5L124.22461 123.5L53.5139318813 194.210678119L61.0647118813 194.210678119Z"
             style="fill:#800e19;fill-opacity:1" />
        </g>
        <path
           id="rect4993"
           transform=""
           d="M 124.22461 123.5 C 119.21991 123.5 115.19141 127.5285 115.19141 132.5332 L 115.19141 160.69141 L 87.033203 160.69141 C 82.0285 160.69141 78 164.71991 78 169.72461 L 78 177.27539 C 78 182.28009 82.0285 186.30859 87.033203 186.30859 L 115.19141 186.30859 L 115.19141 214.4668 C 115.19141 219.47149 119.21991 223.5 124.22461 223.5 L 131.77539 223.5 C 136.78009 223.5 140.80859 219.47149 140.80859 214.4668 L 140.80859 186.30859 L 168.9668 186.30859 C 173.9715 186.30859 178 182.28009 178 177.27539 L 178 169.72461 C 178 164.71991 173.9715 160.69141 168.9668 160.69141 L 140.80859 160.69141 L 140.80859 132.5332 C 140.80859 127.5285 136.78009 123.5 131.77539 123.5 L 124.22461 123.5 z "
           style="fill:#800e19;fill-opacity:1;stroke:none;stroke-width:30.4477253;stroke-linecap:round;stroke-linejoin:round;stroke-miterlimit:4;stroke-dasharray:none;stroke-opacity:1" />
      </g>
    </g>
    <g
       style="fill:#ffffff;fill-opacity:1"
       id="g4183"
       transform="matrix(1.0149242,0,0,1.0149242,-62.420081,-22.455609)">
      <rect
         style="fill:#ffffff;fill-opacity:1;stroke:none;stroke-width:30;stroke-linecap:round;stroke-linejoin:round;stroke-miterlimit:4;stroke-dasharray:none;stroke-opacity:1"
         id="rect4173"
         width="25.24"
         height="98.529526"
         x="175"
         y="928.46124"
         ry="8.9009171" />
      <rect
         ry="8.9009171"
         y="-236.88477"
         x="965.10602"
         height="98.529526"
         width="25.24"
         id="rect4181"
         style="fill:#ffffff;fill-opacity:1;stroke:none;stroke-width:30;stroke-linecap:round;stroke-linejoin:round;stroke-miterlimit:4;stroke-dasharray:none;stroke-opacity:1"
         transform="rotate(90)" />
    </g>
  </g>
</svg>
