<?xml version="1.0" encoding="UTF-8" standalone="no"?>
<!-- Created with Inkscape (http://www.inkscape.org/) -->

<svg
   xmlns:dc="http://purl.org/dc/elements/1.1/"
   xmlns:cc="http://creativecommons.org/ns#"
   xmlns:rdf="http://www.w3.org/1999/02/22-rdf-syntax-ns#"
   xmlns:svg="http://www.w3.org/2000/svg"
   xmlns="http://www.w3.org/2000/svg"
   xmlns:sodipodi="http://sodipodi.sourceforge.net/DTD/sodipodi-0.dtd"
   xmlns:inkscape="http://www.inkscape.org/namespaces/inkscape"
   width="256"
   height="256"
   viewBox="0 0 256 256"
   id="svg2"
   version="1.1"
   inkscape:version="0.92.2 (5c3e80d, 2017-08-06)"
   sodipodi:docname="folder-symbolic_mate.svg">
  <defs
     id="defs4" />
  <sodipodi:namedview
     id="base"
     pagecolor="#ffffff"
     bordercolor="#666666"
     borderopacity="1.0"
     inkscape:pageopacity="0.0"
     inkscape:pageshadow="2"
     inkscape:zoom="3.3125"
     inkscape:cx="128"
     inkscape:cy="128"
     inkscape:document-units="px"
     inkscape:current-layer="layer1"
     showgrid="false"
     units="px"
     inkscape:window-width="1920"
     inkscape:window-height="1048"
     inkscape:window-x="0"
     inkscape:window-y="0"
     inkscape:window-maximized="1" />
  <metadata
     id="metadata7">
    <rdf:RDF>
      <cc:Work
         rdf:about="">
        <dc:format>image/svg+xml</dc:format>
        <dc:type
           rdf:resource="http://purl.org/dc/dcmitype/StillImage" />
        <dc:title />
      </cc:Work>
    </rdf:RDF>
  </metadata>
  <g
     inkscape:label="Layer 1"
     inkscape:groupmode="layer"
     id="layer1"
     transform="translate(0,-796.36216)">
    <g
       style="opacity:0.97000002;fill:#ffffff;fill-opacity:1;stroke:none"
       id="g4248"
       transform="matrix(8.4248622,0,0,2.9644035,-262.52554,811.34431)" />
    <g
       transform="matrix(1.662939,0,0,1.6629387,48.004398,826.03259)"
       id="g4212"
       style="opacity:1;fill:#ffffff;fill-opacity:1;fill-rule:nonzero;stroke:none;stroke-width:1.00008464;stroke-miterlimit:4;stroke-dasharray:none;stroke-opacity:1">
      <g
         id="g4214"
         style="fill:#ffffff;fill-opacity:1;stroke:none;stroke-width:1.00008464;stroke-miterlimit:4;stroke-dasharray:none;stroke-opacity:1" />
    </g>
    <path
       style="fill:#68bdff;fill-opacity:1;stroke:none;stroke-width:38.06047821;stroke-miterlimit:4;stroke-dasharray:none;stroke-opacity:1"
       d="M 128 0 A 128 128 0 0 0 0 128 A 128 128 0 0 0 128 256 A 128 128 0 0 0 256 128 A 128 128 0 0 0 128 0 z M 129.93945 39.804688 C 178.54877 39.804688 218 79.316456 218 128 C 218 176.68353 178.5488 216.19531 129.93945 216.19531 C 101.93887 216.19531 77.103555 203.00593 60.970703 182.58398 L 71.994141 175.59375 C 85.756217 192.35218 106.71314 203.01953 130.07422 203.01953 C 171.48492 203.01953 205.09375 169.41068 205.09375 128 C 205.09375 86.589327 171.48492 52.980469 130.07422 52.980469 C 106.64559 52.980469 85.619915 63.698999 71.859375 80.541016 L 60.835938 73.550781 C 76.964956 53.04395 101.8711 39.804688 129.93945 39.804688 z M 38.074219 70.990234 L 134.63477 127.97852 L 38 185.00977 L 38.074219 70.990234 z M 129.99414 73.09375 C 160.30252 73.09375 184.90039 97.691663 184.90039 128 C 184.90039 158.30838 160.30252 182.90625 129.99414 182.90625 C 113.85793 182.90625 99.376808 175.9264 89.328125 164.83203 L 100.55469 157.71289 C 108.07432 165.35102 118.47548 170.03516 129.99414 170.03516 C 152.89548 170.03516 171.48242 151.32594 171.48242 128.27344 C 171.48242 105.22095 152.89548 86.511719 129.99414 86.511719 C 118.68624 86.511719 108.4527 91.03044 100.9668 98.423828 L 89.328125 91.167969 C 99.376808 80.073629 113.85793 73.09375 129.99414 73.09375 z "
       transform="translate(0,796.36216)"
       id="path819" />
    <g
       id="g961"
       transform="matrix(1.0619205,0,0,1.0619205,-9.7657234,-57.236951)" />
  </g>
</svg>
