<?xml version="1.0" encoding="UTF-8" standalone="no"?>
<!-- Created with Inkscape (http://www.inkscape.org/) -->

<svg
   xmlns:dc="http://purl.org/dc/elements/1.1/"
   xmlns:cc="http://creativecommons.org/ns#"
   xmlns:rdf="http://www.w3.org/1999/02/22-rdf-syntax-ns#"
   xmlns:svg="http://www.w3.org/2000/svg"
   xmlns="http://www.w3.org/2000/svg"
   xmlns:sodipodi="http://sodipodi.sourceforge.net/DTD/sodipodi-0.dtd"
   xmlns:inkscape="http://www.inkscape.org/namespaces/inkscape"
   sodipodi:docname="folder_unity.svg"
   inkscape:version="0.92.2 (5c3e80d, 2017-08-06)"
   version="1.1"
   id="svg2"
   viewBox="0 0 256 256"
   height="256"
   width="256">
  <sodipodi:namedview
     inkscape:window-maximized="1"
     inkscape:window-y="0"
     inkscape:window-x="0"
     inkscape:window-height="1048"
     inkscape:window-width="1920"
     units="px"
     showgrid="true"
     inkscape:current-layer="layer1"
     inkscape:document-units="px"
     inkscape:cy="128"
     inkscape:cx="62.490566"
     inkscape:zoom="3.3125"
     inkscape:pageshadow="2"
     inkscape:pageopacity="0.0"
     borderopacity="1.0"
     bordercolor="#666666"
     pagecolor="#ffffff"
     id="base">
    <inkscape:grid
       spacingy="5"
       spacingx="5"
       id="grid4168"
       type="xygrid" />
  </sodipodi:namedview>
  <defs
     id="defs4">
    <clipPath
       id="clipPath5002"
       clipPathUnits="userSpaceOnUse">
      <g
         id="g5004">
        <path
           style="fill:#0f9d58;fill-opacity:1;stroke:none;stroke-width:4.85768509;stroke-linejoin:round;stroke-miterlimit:4;stroke-dasharray:none;stroke-opacity:1"
           d="M 88.118406,249.43519 C 46.103287,235.29134 14.771284,201.68742 4.1335861,159.36053 1.3377997,148.23623 0.92261224,144.16281 0.92582381,127.88908 0.92787958,117.47222 1.134384,112.01362 1.6577819,108.54099 4.4653598,89.913336 12.17654,70.638106 23.042737,55.086148 c 3.958678,-5.665755 8.344812,-10.93092 9.101533,-10.925587 0.32809,0.0023 10.488643,18.309713 22.579009,40.683112 12.090365,22.373397 22.374546,41.334697 22.853732,42.136217 0.479186,0.80151 0.924733,2.44098 0.990103,3.64326 0.343424,6.31639 2.524175,14.20976 5.6424,20.42304 2.954444,5.88693 5.065381,8.73258 10.434696,14.06652 6.71418,6.66995 12.88853,10.28643 21.73204,12.72904 3.16587,0.87442 5.10478,1.05037 11.57517,1.05037 8.82596,0 12.60219,-0.76201 19.26429,-3.88733 2.04584,-0.95974 3.93661,-1.66536 4.20172,-1.56805 0.2651,0.0973 -11.0555,17.66459 -25.1569,39.0384 l -25.6389,38.86148 -3.094121,0.11221 c -2.554618,0.0927 -4.195204,-0.25845 -9.409103,-2.01364 z"
           id="path5006"
           inkscape:connector-curvature="0"
           transform="translate(0,796.36216)" />
        <path
           style="fill:#f4b400;fill-opacity:1;stroke:none;stroke-width:4.85768509;stroke-linejoin:round;stroke-miterlimit:4;stroke-dasharray:none;stroke-opacity:1"
           d="m 112.35984,1051.5167 c -10.0014,-1.4495 -12.15632,-1.8201 -12.531784,-2.1556 -0.248854,-0.2223 1.738304,-3.7475 4.550294,-8.0722 7.16635,-11.0213 49.77231,-74.64801 50.25856,-75.05489 3.57509,-2.99158 8.63523,-8.0414 10.57512,-10.55356 3.36154,-4.35318 7.55784,-12.9141 9.06523,-18.494 6.19314,-22.92535 -2.59253,-47.15185 -21.69967,-59.83688 l -2.96081,-1.96565 17.02469,0.29584 c 9.36358,0.1627 31.17032,0.43384 48.45941,0.60252 l 31.43471,0.30668 1.54584,4.18869 c 2.24597,6.08579 4.67816,15.0947 5.93451,21.9816 1.52517,8.36049 1.92536,28.85896 0.73851,37.82758 -3.0805,23.27845 -12.81326,45.72018 -27.80202,64.10577 -20.47622,25.1166 -51.4599,42.1974 -84.14612,46.3885 -5.31244,0.6812 -26.64601,0.9864 -30.44647,0.4356 z"
           id="path5008"
           inkscape:connector-curvature="0" />
        <path
           style="fill:#db4437;fill-opacity:1;stroke:none;stroke-width:10;stroke-linejoin:round;stroke-miterlimit:4;stroke-dasharray:none;stroke-opacity:1"
           d="M 67.989788,108.87302 C 41.284246,59.575543 33.290284,45.149038 32.233625,44.344765 31.651257,43.901497 32.811213,42.549931 38.695603,36.815353 53.43581,22.450419 68.809334,13.040746 87.839196,6.7360352 101.68742,2.1480329 112.58238,0.43719165 127.95142,0.43719165 c 21.3099,0 37.80488,3.80960275 56.83492,13.12633035 25.29351,12.383198 46.19421,33.578863 58.51993,59.345832 1.61138,3.368591 2.92978,6.372442 2.92978,6.675231 0,0.560033 -10.54865,0.49527 -71.16508,-0.436914 l -24.28843,-0.373518 -3.93063,-1.764495 c -6.75732,-3.033425 -10.64587,-3.839529 -18.6576,-3.867747 -5.0296,-0.01773 -7.97946,0.207636 -10.31642,0.788106 -14.50826,3.603659 -26.283291,12.94777 -33.291614,26.418653 -3.58502,6.89086 -5.24713,13.08166 -6.331628,23.58317 l -0.33738,3.26696 -9.92748,-18.32578 z"
           id="path5010"
           inkscape:connector-curvature="0"
           transform="translate(0,796.36216)" />
      </g>
    </clipPath>
    <clipPath
       clipPathUnits="userSpaceOnUse"
       id="clipPath4271">
      <circle
         style="fill:#292929;fill-opacity:0.26020412;stroke:none;stroke-width:10;stroke-linejoin:round;stroke-miterlimit:4;stroke-dasharray:none;stroke-opacity:0.25882353"
         id="circle4273"
         cx="128"
         cy="128.00002"
         r="128" />
    </clipPath>
    <clipPath
       id="clipPath4363"
       clipPathUnits="userSpaceOnUse">
      <circle
         style="fill:#4285f4;fill-opacity:1;stroke:none;stroke-width:10;stroke-linejoin:round;stroke-miterlimit:4;stroke-dasharray:none;stroke-opacity:0.25882353"
         id="circle4365"
         cx="128"
         cy="924.36218"
         r="128" />
    </clipPath>
    <clipPath
       clipPathUnits="userSpaceOnUse"
       id="clipPath4452">
      <circle
         style="fill:#4285f4;fill-opacity:1;stroke:none;stroke-width:10;stroke-linejoin:round;stroke-miterlimit:4;stroke-dasharray:none;stroke-opacity:0.25882353"
         id="circle4454"
         cx="128"
         cy="924.36218"
         r="128" />
    </clipPath>
    <clipPath
       id="clipPath5177"
       clipPathUnits="userSpaceOnUse">
      <circle
         style="fill:#4285f4;fill-opacity:1;stroke:none;stroke-width:10;stroke-linejoin:round;stroke-miterlimit:4;stroke-dasharray:none;stroke-opacity:0.25882353"
         id="circle5179"
         cx="128"
         cy="924.36218"
         r="128" />
    </clipPath>
    <clipPath
       clipPathUnits="userSpaceOnUse"
       id="clipPath4342">
      <circle
         style="fill:#4285f4;fill-opacity:1;stroke:none;stroke-width:10;stroke-linejoin:round;stroke-miterlimit:4;stroke-dasharray:none;stroke-opacity:0.25882353"
         id="circle4344"
         cx="128"
         cy="933.48718"
         r="128" />
    </clipPath>
    <clipPath
       id="clipPath4681"
       clipPathUnits="userSpaceOnUse">
      <circle
         style="fill:#9d5fad;fill-opacity:1;stroke:none;stroke-width:10;stroke-linejoin:round;stroke-miterlimit:4;stroke-dasharray:none;stroke-opacity:0.25882353"
         id="circle4683"
         cx="127.00293"
         cy="930.43964"
         r="128" />
    </clipPath>
    <clipPath
       clipPathUnits="userSpaceOnUse"
       id="clipPath4235">
      <circle
         style="fill:#0f9d58;fill-opacity:1;stroke:none;stroke-width:10;stroke-linejoin:round;stroke-miterlimit:4;stroke-dasharray:none;stroke-opacity:0.25882353"
         id="circle4237"
         cx="128"
         cy="924.36218"
         r="128" />
    </clipPath>
    <clipPath
       id="clipPath4771"
       clipPathUnits="userSpaceOnUse">
      <circle
         style="fill:#0f9d58;fill-opacity:1;stroke:none;stroke-width:10;stroke-linejoin:round;stroke-miterlimit:4;stroke-dasharray:none;stroke-opacity:0.25882353"
         id="circle4773"
         cx="128"
         cy="924.36218"
         r="128" />
    </clipPath>
    <clipPath
       clipPathUnits="userSpaceOnUse"
       id="clipPath4842">
      <circle
         style="fill:#0f9d58;fill-opacity:1;stroke:none;stroke-width:10;stroke-linejoin:round;stroke-miterlimit:4;stroke-dasharray:none;stroke-opacity:0.25882353"
         id="circle4844"
         cx="128"
         cy="924.36218"
         r="128" />
    </clipPath>
    <clipPath
       id="clipPath4458"
       clipPathUnits="userSpaceOnUse">
      <circle
         style="fill:#ff3b38;fill-opacity:1;stroke:none;stroke-width:10;stroke-linejoin:round;stroke-miterlimit:4;stroke-dasharray:none;stroke-opacity:0.25882353"
         id="circle4460"
         cx="128"
         cy="924.36218"
         r="128" />
    </clipPath>
    <clipPath
       clipPathUnits="userSpaceOnUse"
       id="clipPath4783">
      <circle
         style="fill:#ff3b38;fill-opacity:1;stroke:none;stroke-width:10;stroke-linejoin:round;stroke-miterlimit:4;stroke-dasharray:none;stroke-opacity:0.25882353"
         id="circle4785"
         cx="128"
         cy="924.36218"
         r="128" />
    </clipPath>
    <clipPath
       id="clipPath4789"
       clipPathUnits="userSpaceOnUse">
      <circle
         style="fill:#80b4ff;fill-opacity:1;stroke:none;stroke-width:10;stroke-linejoin:round;stroke-miterlimit:4;stroke-dasharray:none;stroke-opacity:0.25882353"
         id="circle4791"
         cx="102.64714"
         cy="924.36218"
         r="128" />
    </clipPath>
    <clipPath
       clipPathUnits="userSpaceOnUse"
       id="clipPath4476">
      <circle
         style="fill:#80b4ff;fill-opacity:1;stroke:none;stroke-width:10;stroke-linejoin:round;stroke-miterlimit:4;stroke-dasharray:none;stroke-opacity:0.25882353"
         id="circle4478"
         cx="112.59232"
         cy="920.23456"
         r="82.027672" />
    </clipPath>
    <filter
       id="filter4298"
       inkscape:label="Drop Shadow"
       style="color-interpolation-filters:sRGB">
      <feFlood
         id="feFlood4300"
         result="flood"
         flood-color="rgb(0,0,0)"
         flood-opacity="0.498039" />
      <feComposite
         id="feComposite4302"
         result="composite1"
         operator="in"
         in2="SourceGraphic"
         in="flood" />
      <feGaussianBlur
         id="feGaussianBlur4304"
         result="blur"
         stdDeviation="1.6"
         in="composite1" />
      <feOffset
         id="feOffset4306"
         result="offset"
         dy="-7.7"
         dx="-2.77556e-17" />
      <feComposite
         id="feComposite4308"
         result="composite2"
         operator="over"
         in2="offset"
         in="SourceGraphic" />
    </filter>
    <clipPath
       clipPathUnits="userSpaceOnUse"
       id="clipPath5389">
      <circle
         style="fill:#2496e3;fill-opacity:1;stroke:none;stroke-width:10;stroke-linejoin:round;stroke-miterlimit:4;stroke-dasharray:none;stroke-opacity:0.25882353"
         id="circle5391"
         cx="128"
         cy="924.36218"
         r="128" />
    </clipPath>
    <clipPath
       clipPathUnits="userSpaceOnUse"
       id="clipPath5092">
      <path
         transform="matrix(1.2315339,0,0,1.0608965,-109.24268,-939.37809)"
         sodipodi:nodetypes="cccccccccccccccccccccssscccccccccazzzzzzzzzzzsccccccccc"
         inkscape:connector-curvature="0"
         id="path5094"
         d="m 10.42124,864.27189 42.534575,-0.0913 21.267287,-0.0456 c 7.245384,-0.0152 14.490768,-0.0305 21.736152,-0.0456 8.394956,-10.58827 10.291846,-15.47699 14.084686,-17.71727 3.79283,-2.24028 9.4816,-1.8321 25.46032,-1.82658 23.36644,-0.007 109.60565,-0.67788 109.60565,-0.67788 l -0.0879,12.1518 -0.0879,12.1518 -0.0879,12.15181 -0.0879,12.1518 -0.0879,12.1518 -0.0879,12.1518 -0.0879,12.15181 -0.0879,12.1518 -0.0879,12.1518 -0.0879,12.1518 -0.0879,12.15181 -0.0879,12.1518 -0.0879,12.15181 -0.0879,12.1518 c 0,0 0.59382,8.1589 -0.0879,12.1518 -0.58177,3.4075 -0.78038,7.5176 -3.36995,9.8075 -2.83121,2.5035 -7.3341,1.9515 -11.09295,2.3443 -4.76571,0.4981 -14.375,0 -14.375,0 l -14.375,0 -14.375,0 -14.37501,0 -14.375,0 -14.375,0 -14.375,0 -14.375,0 -14.375,0 -14.375001,0 c 0,0 -9.583334,0 -14.375001,0 -4.791667,0 -9.583334,0 -14.375001,0 -4.791667,0 -9.500662,0.094 -14.375001,0 -4.874339,-0.093 -10.854147,0.062 -15.030858,-0.571 -4.176712,-0.6329 -7.699545,-0.5576 -9.968228,-2.7111 -2.268683,-2.1535 -2.21606,-4.4991 -2.972258,-7.5945 -0.756198,-3.0955 -0.95689,-7.246 -1.188915,-10.8765 -0.232024,-3.6305 -0.136752,-7.251 -0.205128,-10.8765 -0.06838,-3.6255 -0.136752,-7.25106 -0.205128,-10.87658 -0.06838,-3.62552 -0.136753,-7.25102 -0.205129,-10.87653 -0.06838,-3.62551 -0.136752,-7.25103 -0.205128,-10.87654 -0.06838,-3.62551 -0.205129,-10.87653 -0.205129,-10.87653 L 12.062467,951.28418 11.857339,940.40764 11.65221,929.53111 11.447082,918.65457 11.241954,907.77803 11.036825,896.9015 10.831697,886.02496 10.626568,875.14843 Z"
         style="opacity:0.91000001;fill:#38bae1;fill-opacity:1;stroke:none;stroke-width:0;stroke-linecap:round;stroke-linejoin:round;stroke-miterlimit:4;stroke-dasharray:none;stroke-opacity:1;filter:url(#filter4298)" />
    </clipPath>
    <clipPath
       clipPathUnits="userSpaceOnUse"
       id="clipPath5147">
      <circle
         style="fill:#2496e3;fill-opacity:1;stroke:none;stroke-width:10;stroke-linejoin:round;stroke-miterlimit:4;stroke-dasharray:none;stroke-opacity:0.25882353"
         id="circle5149"
         cx="128"
         cy="924.36218"
         r="128" />
    </clipPath>
    <clipPath
       clipPathUnits="userSpaceOnUse"
       id="clipPath5153">
      <path
         clip-path="url(#clipPath5147)"
         sodipodi:nodetypes="ccccccc"
         inkscape:connector-curvature="0"
         id="path5155"
         d="m 255.70093,889.77993 -111.25234,-0.29907 -33.49532,-57.12149 -110.95327,0 0,220.00003 256,0 z"
         style="opacity:1;fill:#37bae1;fill-opacity:1;stroke:none;stroke-width:10;stroke-linecap:butt;stroke-linejoin:miter;stroke-miterlimit:4;stroke-dasharray:none;stroke-opacity:1"
         transform="matrix(0.96310564,0,0,0.96310582,-73.608259,-871.10273)" />
    </clipPath>
    <clipPath
       id="clipPath4537"
       clipPathUnits="userSpaceOnUse">
      <path
         transform="matrix(0.87468356,0,0,0.87468371,-63.854543,-777.38198)"
         clip-path="url(#clipPath5147)"
         sodipodi:nodetypes="ccccccc"
         inkscape:connector-curvature="0"
         id="path4539"
         d="m 255.40186,879.31264 -121.71963,0 -22.72896,-46.95327 -110.95327,0 0,220.00003 256,0 z"
         style="opacity:1;fill:#2ccaff;fill-opacity:1;stroke:none;stroke-width:10;stroke-linecap:butt;stroke-linejoin:miter;stroke-miterlimit:4;stroke-dasharray:none;stroke-opacity:1" />
    </clipPath>
    <clipPath
       clipPathUnits="userSpaceOnUse"
       id="clipPath4592">
      <ellipse
         style="fill:#218dd7;fill-opacity:1;stroke:none;stroke-width:10;stroke-linejoin:round;stroke-miterlimit:4;stroke-dasharray:none;stroke-opacity:0.25882353"
         id="circle4594"
         cx="48.104954"
         cy="31.142565"
         rx="111.9595"
         ry="111.95952" />
    </clipPath>
    <clipPath
       id="clipPath5011"
       clipPathUnits="userSpaceOnUse">
      <g
         transform="matrix(1.0750907,0,0,1.0750909,-89.50666,-875.08197)"
         id="g5021">
        <rect
           y="737.36218"
           x="52.372032"
           height="45"
           width="151.25594"
           id="rect5013"
           style="opacity:1;fill:#a7a7a7;fill-opacity:1;stroke:none;stroke-width:11.4685173;stroke-linecap:butt;stroke-linejoin:miter;stroke-miterlimit:4;stroke-dasharray:none;stroke-opacity:1" />
        <rect
           style="opacity:1;fill:#d3d3d3;fill-opacity:1;stroke:none;stroke-width:12.10504246;stroke-linecap:butt;stroke-linejoin:miter;stroke-miterlimit:4;stroke-dasharray:none;stroke-opacity:1"
           id="rect5015"
           width="168.51187"
           height="45"
           x="43.744064"
           y="752.36218" />
        <rect
           y="767.36218"
           x="28"
           height="45"
           width="200"
           id="rect5017"
           style="opacity:1;fill:#ffffff;fill-opacity:1;stroke:none;stroke-width:13.18760967;stroke-linecap:butt;stroke-linejoin:miter;stroke-miterlimit:4;stroke-dasharray:none;stroke-opacity:1" />
        <path
           inkscape:connector-curvature="0"
           style="fill:#2ccaff;fill-opacity:1;fill-rule:evenodd;stroke:none;stroke-width:2.84884405px;stroke-linecap:butt;stroke-linejoin:miter;stroke-opacity:1"
           d="M 5.505859,787.36214 A 128,128 0 0 0 0,824.36214 128,128 0 0 0 128,952.3621 128,128 0 0 0 256,824.36214 a 128,128 0 0 0 -5.58203,-37 z"
           id="path5019" />
      </g>
    </clipPath>
    <clipPath
       id="clipPath4606"
       clipPathUnits="userSpaceOnUse">
      <g
         transform="matrix(1.0750907,0,0,1.0750909,-89.50666,-879.38234)"
         id="g4616">
        <rect
           y="737.36218"
           x="52.372032"
           height="45"
           width="151.25594"
           id="rect4608"
           style="opacity:1;fill:#a7a7a7;fill-opacity:1;stroke:none;stroke-width:11.4685173;stroke-linecap:butt;stroke-linejoin:miter;stroke-miterlimit:4;stroke-dasharray:none;stroke-opacity:1" />
        <rect
           style="opacity:1;fill:#d3d3d3;fill-opacity:1;stroke:none;stroke-width:12.10504246;stroke-linecap:butt;stroke-linejoin:miter;stroke-miterlimit:4;stroke-dasharray:none;stroke-opacity:1"
           id="rect4610"
           width="168.51187"
           height="45"
           x="43.744064"
           y="752.36218" />
        <rect
           y="767.36218"
           x="28"
           height="45"
           width="200"
           id="rect4612"
           style="opacity:1;fill:#ffffff;fill-opacity:1;stroke:none;stroke-width:13.18760967;stroke-linecap:butt;stroke-linejoin:miter;stroke-miterlimit:4;stroke-dasharray:none;stroke-opacity:1" />
        <path
           inkscape:connector-curvature="0"
           style="fill:#2ccaff;fill-opacity:1;fill-rule:evenodd;stroke:none;stroke-width:2.84884405px;stroke-linecap:butt;stroke-linejoin:miter;stroke-opacity:1"
           d="M 5.505859,787.36214 A 128,128 0 0 0 0,824.36214 128,128 0 0 0 128,952.3621 128,128 0 0 0 256,824.36214 a 128,128 0 0 0 -5.58203,-37 z"
           id="path4614" />
      </g>
    </clipPath>
    <clipPath
       id="clipPath5108"
       clipPathUnits="userSpaceOnUse">
      <circle
         style="fill:#dd4814;fill-opacity:1;stroke:none;stroke-width:20;stroke-miterlimit:4;stroke-dasharray:none;stroke-opacity:1"
         id="circle5110"
         cx="128"
         cy="128.00002"
         r="128" />
    </clipPath>
    <clipPath
       clipPathUnits="userSpaceOnUse"
       id="clipPath1690">
      <path
         id="path1692"
         d="m 5.505859,91.00004 a 128,128 0 0 0 -5.505859,37 128,128 0 0 0 128,128 128,128 0 0 0 128,-128 128,128 0 0 0 -5.58203,-37 z"
         style="fill:#50c878;fill-opacity:1;fill-rule:evenodd;stroke:none;stroke-width:2.84884405px;stroke-linecap:butt;stroke-linejoin:miter;stroke-opacity:1"
         inkscape:connector-curvature="0" />
    </clipPath>
  </defs>
  <metadata
     id="metadata7">
    <rdf:RDF>
      <cc:Work
         rdf:about="">
        <dc:format>image/svg+xml</dc:format>
        <dc:type
           rdf:resource="http://purl.org/dc/dcmitype/StillImage" />
        <dc:title />
      </cc:Work>
    </rdf:RDF>
  </metadata>
  <g
     inkscape:label="Layer 1"
     inkscape:groupmode="layer"
     id="layer1"
     transform="translate(0,-796.36216)">
    <circle
       r="128"
       cy="924.36218"
       cx="128"
       id="path4152"
       style="fill:#9b111e;fill-opacity:1;stroke:none;stroke-width:10;stroke-linejoin:round;stroke-miterlimit:4;stroke-dasharray:none;stroke-opacity:0.25882353" />
    <text
       xml:space="preserve"
       style="font-style:normal;font-weight:normal;font-size:40px;line-height:125%;font-family:sans-serif;letter-spacing:0px;word-spacing:0px;fill:#000000;fill-opacity:1;stroke:none;stroke-width:1px;stroke-linecap:butt;stroke-linejoin:miter;stroke-opacity:1"
       x="120"
       y="927.36218"
       id="text4914"><tspan
         sodipodi:role="line"
         id="tspan4916"
         x="120"
         y="927.36218" /></text>
    <g
       id="g4241"
       transform="translate(-4.11162,138)"
       style="stroke:none">
      <g
         id="g4446"
         style="stroke:none">
        <g
           style="fill:none;fill-rule:evenodd;stroke:none;stroke-width:10;stroke-linecap:round;stroke-linejoin:miter;stroke-miterlimit:4;stroke-dasharray:none;stroke-opacity:1"
           id="g4448">
          <path
             inkscape:connector-curvature="0"
             d="m 129.98857,850.41168 c 0,15 0,15 0,15 L -82.143464,1077.5437 c 0,0 0,0 0,-15 z"
             id="path4450"
             style="stroke:none" />
        </g>
        <path
           style="fill:none;fill-rule:evenodd;stroke:none;stroke-width:10;stroke-linecap:round;stroke-linejoin:miter;stroke-miterlimit:4;stroke-dasharray:none;stroke-opacity:1"
           d="m 129.98857,850.41168 c 0,15 0,15 0,15"
           id="path4247"
           inkscape:connector-curvature="0" />
      </g>
      <g
         id="g4453"
         style="stroke:none">
        <g
           style="fill:none;fill-rule:evenodd;stroke:none;stroke-width:10;stroke-linecap:round;stroke-linejoin:miter;stroke-miterlimit:4;stroke-dasharray:none;stroke-opacity:1"
           id="g4455">
          <path
             inkscape:connector-curvature="0"
             d="m 111.58095,850.41168 c 0,15 0,15 0,15 l -212.13203,212.13202 c 0,0 0,0 0,-15 z"
             id="path4457"
             style="stroke:none" />
        </g>
        <path
           inkscape:connector-curvature="0"
           id="path4245"
           d="m 111.58095,850.41168 c 0,15 0,15 0,15"
           style="fill:none;fill-rule:evenodd;stroke:none;stroke-width:10;stroke-linecap:round;stroke-linejoin:miter;stroke-miterlimit:4;stroke-dasharray:none;stroke-opacity:1" />
      </g>
      <g
         id="g4460"
         style="stroke:none">
        <g
           style="fill:none;fill-rule:evenodd;stroke:none;stroke-width:10;stroke-linecap:round;stroke-linejoin:miter;stroke-miterlimit:4;stroke-dasharray:none;stroke-opacity:1"
           id="g4462">
          <path
             inkscape:connector-curvature="0"
             d="m 93.173333,850.41168 c 0,15 0,15 0,15 L -118.9587,1077.5437 c 0,0 0,0 0,-15 z"
             id="path4464"
             style="stroke:none" />
        </g>
        <path
           style="fill:none;fill-rule:evenodd;stroke:none;stroke-width:10;stroke-linecap:round;stroke-linejoin:miter;stroke-miterlimit:4;stroke-dasharray:none;stroke-opacity:1"
           d="m 93.173333,850.41168 c 0,15 0,15 0,15"
           id="path4243"
           inkscape:connector-curvature="0" />
      </g>
      <g
         id="g4467"
         style="stroke:none">
        <g
           style="fill:none;fill-rule:evenodd;stroke:none;stroke-width:10;stroke-linecap:round;stroke-linejoin:miter;stroke-miterlimit:4;stroke-dasharray:none;stroke-opacity:1"
           id="g4469">
          <path
             inkscape:connector-curvature="0"
             d="m 166.80381,850.41168 c 0,15 0,15 0,15 L -45.328224,1077.5437 c 0,0 0,0 0,-15 z"
             id="path4471"
             style="stroke:none" />
        </g>
        <path
           style="fill:none;fill-rule:evenodd;stroke:none;stroke-width:10;stroke-linecap:round;stroke-linejoin:miter;stroke-miterlimit:4;stroke-dasharray:none;stroke-opacity:1"
           d="m 166.80381,850.41168 c 0,15 0,15 0,15"
           id="path4251"
           inkscape:connector-curvature="0" />
      </g>
      <g
         id="g4474"
         style="stroke:none">
        <g
           style="fill:none;fill-rule:evenodd;stroke:none;stroke-width:10;stroke-linecap:round;stroke-linejoin:miter;stroke-miterlimit:4;stroke-dasharray:none;stroke-opacity:1"
           id="g4476">
          <path
             inkscape:connector-curvature="0"
             d="m 148.39619,850.41168 c 0,15 0,15 0,15 L -63.735844,1077.5437 c 0,0 0,0 0,-15 z"
             id="path4478"
             style="stroke:none" />
        </g>
        <path
           inkscape:connector-curvature="0"
           id="path4249"
           d="m 148.39619,850.41168 c 0,15 0,15 0,15"
           style="fill:none;fill-rule:evenodd;stroke:none;stroke-width:10;stroke-linecap:round;stroke-linejoin:miter;stroke-miterlimit:4;stroke-dasharray:none;stroke-opacity:1" />
      </g>
    </g>
    <rect
       y="837.36224"
       x="52.372032"
       height="45"
       width="151.25594"
       id="rect4515"
       style="opacity:1;fill:#a7a7a7;fill-opacity:1;stroke:none;stroke-width:11.4685173;stroke-linecap:butt;stroke-linejoin:miter;stroke-miterlimit:4;stroke-dasharray:none;stroke-opacity:1" />
    <rect
       style="opacity:1;fill:#d3d3d3;fill-opacity:1;stroke:none;stroke-width:12.10504246;stroke-linecap:butt;stroke-linejoin:miter;stroke-miterlimit:4;stroke-dasharray:none;stroke-opacity:1"
       id="rect5393"
       width="168.51187"
       height="45"
       x="43.744064"
       y="852.36224" />
    <rect
       y="867.36224"
       x="28"
       height="45"
       width="200"
       id="rect5395"
       style="opacity:1;fill:#ffffff;fill-opacity:1;stroke:none;stroke-width:13.18760967;stroke-linecap:butt;stroke-linejoin:miter;stroke-miterlimit:4;stroke-dasharray:none;stroke-opacity:1" />
    <path
       inkscape:connector-curvature="0"
       style="fill:#e72234;fill-opacity:1;fill-rule:evenodd;stroke:none;stroke-width:2.84884405px;stroke-linecap:butt;stroke-linejoin:miter;stroke-opacity:1"
       d="m 5.505859,887.3622 a 128,128 0 0 0 -5.505859,37 128,128 0 0 0 128,128 128,128 0 0 0 128,-128 128,128 0 0 0 -5.58203,-37 z"
       id="path57" />
    <g
       style="opacity:1;fill:#ffffff;fill-opacity:1;fill-rule:nonzero;stroke:none;stroke-width:1.00008464;stroke-miterlimit:4;stroke-dasharray:none;stroke-opacity:1"
       id="g4228"
       transform="matrix(1.1432706,0,0,1.1432704,73.003022,888.75781)">
      <g
         style="fill:#ffffff;fill-opacity:1;stroke:none;stroke-width:1.00008464;stroke-miterlimit:4;stroke-dasharray:none;stroke-opacity:1"
         id="g4230" />
    </g>
    <g
       id="g1534"
       transform="translate(0,796.36216)"
       clip-path="url(#clipPath1690)"
       style="fill:#9b111e;fill-opacity:1">
      <g
         id="g1531"
         style="fill:#9b111e;stroke-width:0.58467102;fill-opacity:1">
        <path
           id="path1433"
           d="M164.4375 116.375C161.551711038 116.299924688 158.703579165 117.40179098 156.617610148 119.487759997L15.196253911 260.909116234C17.2822229278 258.823147218 20.130354801 257.721280925 23.0161437627 257.796356237Z"
           style="fill:#9b111e;fill-opacity:1" />
        <path
           id="path1435"
           d="M156.617610148 119.487759997C155.973145294 120.132224851 155.40143003 120.870623789 154.92383 121.69727L13.5024737627 263.118626237C13.9800737926 262.291980026 14.5517890569 261.553581089 15.196253911 260.909116234Z"
           style="fill:#9b111e;fill-opacity:1" />
        <path
           id="path1437"
           d="M154.92383 121.69727C149.617821415 135.439840032 164.867556077 141.252272071 171.903619105 134.216209044L30.4822628677 275.637565281C23.44619984 282.673628309 8.19646517767 276.86119627 13.5024737627 263.118626237Z"
           style="fill:#9b111e;fill-opacity:1" />
        <path
           id="path1439"
           d="M171.903619105 134.216209044C172.447608819 133.67221933 172.942501045 133.051427321 173.375 132.35156L31.9536437627 273.772916237C31.5211448076 274.472783559 31.0262525815 275.093575567 30.4822628677 275.637565281Z"
           style="fill:#9b111e;fill-opacity:1" />
        <path
           id="path1441"
           d="M173.375 132.35156C176.31707 127.25497 174.57546 120.73992 169.47656 117.80078L28.0552037627 259.222136237C33.1541037627 262.161276237 34.8957137627 268.676326237 31.9536437627 273.772916237Z"
           style="fill:#9b111e;fill-opacity:1" />
        <path
           id="path1443"
           d="M169.47656 117.80078C167.88516 116.88138 166.15448 116.41967 164.4375 116.375L23.0161437627 257.796356237C24.7331237627 257.841026237 26.4638037627 258.302736237 28.0552037627 259.222136237Z"
           style="fill:#9b111e;fill-opacity:1" />
        <path
           id="path1445"
           d="M137.31836 127.72656C130.02692 127.72656 123.13401 129.43215 117.01367 132.46484L-24.4076862373 273.886196237C-18.2873462373 270.853506237 -11.3944362373 269.147916237 -4.10299623731 269.147916237Z"
           style="fill:#9b111e;fill-opacity:1" />
        <path
           id="path1447"
           d="M117.01367 132.46484L124.51562 145.9375L-16.9057362373 287.358856237L-24.4076862373 273.886196237Z"
           style="fill:#9b111e;fill-opacity:1" />
        <path
           id="path1449"
           d="M124.51562 145.9375C128.40368 144.13086 132.7474 143.11523 137.31836 143.11523L-4.10299623731 284.536586237C-8.67395623731 284.536586237 -13.0176762373 285.552216237 -16.9057362373 287.358856237Z"
           style="fill:#9b111e;fill-opacity:1" />
        <path
           id="path1451"
           d="M137.31836 143.11523C153.19393 143.11523 166.21956 155.28557 167.58008 170.80859L26.1587237627 312.229946237C24.7982037627 296.706926237 11.7725737627 284.536586237 -4.10299623731 284.536586237Z"
           style="fill:#9b111e;fill-opacity:1" />
        <path
           id="path1453"
           d="M167.58008 170.80859L183.0 170.56445L41.5786437627 311.985806237L26.1587237627 312.229946237Z"
           style="fill:#9b111e;fill-opacity:1" />
        <path
           id="path1455"
           d="M183.0 170.56445C182.26799 159.03064 177.26417 148.65843 169.55469 141.00977L28.1333337627 282.431126237C35.8428137627 290.079786237 40.8466337627 300.451996237 41.5786437627 311.985806237Z"
           style="fill:#9b111e;fill-opacity:1" />
        <path
           id="path1457"
           d="M169.55469 141.00977C165.47369 142.58429 160.73939 142.37008 156.6543 140.00977L15.2329437627 281.431126237C19.3180337627 283.791436237 24.0523337627 284.005646237 28.1333337627 282.431126237Z"
           style="fill:#9b111e;fill-opacity:1" />
        <path
           id="path1459"
           d="M156.6543 140.00977C152.56627 137.64944 150.01318 133.65312 149.33789 129.32422L7.91653376269 270.745576237C8.59182376269 275.074476237 11.1449137627 279.070796237 15.2329437627 281.431126237Z"
           style="fill:#9b111e;fill-opacity:1" />
        <path
           id="path1461"
           d="M149.33789 129.32422C145.50595 128.28351 141.47537 127.72656 137.31836 127.72656L-4.10299623731 269.147916237C0.0540137626905 269.147916237 4.08459376269 269.704866237 7.91653376269 270.745576237Z"
           style="fill:#9b111e;fill-opacity:1" />
        <path
           id="path1463"
           d="M111.93555 135.4043C109.421799618 137.083015586 107.083816542 139.003421392 104.95476895 141.132468984L-36.4665872874 282.553825221C-34.3375396954 280.424777629 -31.9995566194 278.504371824 -29.4858062373 276.825656237Z"
           style="fill:#9b111e;fill-opacity:1" />
        <path
           id="path1465"
           d="M104.95476895 141.132468984C99.3171960903 146.770041843 95.1445833422 153.870515543 93.052734 161.82031L-48.3686222373 303.241666237C-46.2767728951 295.291871781 -42.104160147 288.191398081 -36.4665872874 282.553825221Z"
           style="fill:#9b111e;fill-opacity:1" />
        <path
           id="path1467"
           d="M93.052734 161.82031C96.46312 164.5665 98.648438 168.77684 98.648438 173.49805L-42.7729182373 314.919406237C-42.7729182373 310.198196237 -44.9582362373 305.987856237 -48.3686222373 303.241666237Z"
           style="fill:#9b111e;fill-opacity:1" />
        <path
           id="path1469"
           d="M98.648438 173.49805C98.648438 177.639321035 96.9686632961 181.384521299 94.2571640326 184.096020563L-47.1641922047 325.5173768C-44.4526929412 322.805877537 -42.7729182373 319.060677272 -42.7729182373 314.919406237Z"
           style="fill:#9b111e;fill-opacity:1" />
        <path
           id="path1471"
           d="M94.2571640326 184.096020563C93.875523741 184.477660854 93.4734447514 184.838823294 93.052734 185.17773L-48.3686222373 326.599086237C-47.9479114859 326.260179532 -47.5458324963 325.899017092 -47.1641922047 325.5173768Z"
           style="fill:#9b111e;fill-opacity:1" />
        <path
           id="path1473"
           d="M93.052734 185.17773C95.934577 196.12918 102.76556 205.47221 111.93555 211.59961L-29.4858062373 353.020966237C-38.6557962373 346.893566237 -45.4867792373 337.550536237 -48.3686222373 326.599086237Z"
           style="fill:#9b111e;fill-opacity:1" />
        <path
           id="path1475"
           d="M111.93555 211.59961L119.85352 198.36523L-21.5678362373 339.786586237L-29.4858062373 353.020966237Z"
           style="fill:#9b111e;fill-opacity:1" />
        <path
           id="path1477"
           d="M119.85352 198.36523C112.04056 192.86577 106.93359 183.78183 106.93359 173.49805L-34.4877662373 314.919406237C-34.4877662373 325.203186237 -29.3807962373 334.287126237 -21.5678362373 339.786586237Z"
           style="fill:#9b111e;fill-opacity:1" />
        <path
           id="path1479"
           d="M106.93359 173.49805C106.93359 165.111765141 110.334460526 157.51628222 115.831447299 152.019295447L-25.5899089385 293.440651684C-31.0868957113 298.937638457 -34.4877662373 306.533121379 -34.4877662373 314.919406237Z"
           style="fill:#9b111e;fill-opacity:1" />
        <path
           id="path1481"
           d="M115.831447299 152.019295447C117.070603495 150.78013925 118.416276485 149.647620786 119.85352 148.63672L-21.5678362373 290.058076237C-23.0050797519 291.068977023 -24.3507527422 292.201495488 -25.5899089385 293.440651684Z"
           style="fill:#9b111e;fill-opacity:1" />
        <path
           id="path1483"
           d="M119.85352 148.63672L111.93555 135.4043L-29.4858062373 276.825656237L-21.5678362373 290.058076237Z"
           style="fill:#9b111e;fill-opacity:1" />
        <path
           id="path1485"
           d="M83.652344 162.8457C80.855770542 162.93074488 78.4906077072 164.096725485 76.7406015183 165.846731674L-64.680754719 307.268087911C-62.9307485301 305.518081722 -60.5655856953 304.352101117 -57.7690122373 304.267056237Z"
           style="fill:#9b111e;fill-opacity:1" />
        <path
           id="path1487"
           d="M76.7406015183 165.846731674C71.3189572108 171.268375981 71.8016153341 182.295525325 83.652344 184.15234L-57.7690122373 325.573696237C-69.6197409032 323.716881563 -70.1023990265 312.689732218 -64.680754719 307.268087911Z"
           style="fill:#9b111e;fill-opacity:1" />
        <path
           id="path1489"
           d="M83.652344 184.15234C86.5969219123 184.15234 89.2618508955 182.959421716 91.190446239 181.030826372L-50.2309099983 322.452182609C-52.1595053418 324.380777953 -54.8244343251 325.573696237 -57.7690122373 325.573696237Z"
           style="fill:#9b111e;fill-opacity:1" />
        <path
           id="path1491"
           d="M91.190446239 181.030826372C93.1184299603 179.102842651 94.310547 176.439648412 94.310547 173.49805L-47.1108092373 314.919406237C-47.1108092373 317.86100465 -48.302926277 320.524198888 -50.2309099983 322.452182609Z"
           style="fill:#9b111e;fill-opacity:1" />
        <path
           id="path1493"
           d="M94.310547 173.49805C94.310547 167.61625 89.540566 162.8457 83.652344 162.8457L-57.7690122373 304.267056237C-51.8807902373 304.267056237 -47.1108092373 309.037606237 -47.1108092373 314.919406237Z"
           style="fill:#9b111e;fill-opacity:1" />
        <path
           id="path1495"
           d="M167.58008 176.19336C166.93830639 183.510647586 163.703415471 190.083959038 158.799274063 194.988100446L17.3779178259 336.409456683C22.2820592337 331.505315275 25.516950153 324.932003824 26.1587237627 317.614716237Z"
           style="fill:#9b111e;fill-opacity:1" />
        <path
           id="path1497"
           d="M158.799274063 194.988100446C153.302433238 200.48494127 145.708479254 203.88477 137.31836 203.88477L-4.10299623731 345.306126237C4.28712301698 345.306126237 11.8810770012 341.906297508 17.3779178259 336.409456683Z"
           style="fill:#9b111e;fill-opacity:1" />
        <path
           id="path1499"
           d="M137.31836 203.88477C132.74799 203.88477 128.40427 202.87075 124.51562 201.06055L-16.9057362373 342.481906237C-13.0170862373 344.292106237 -8.67336623731 345.306126237 -4.10299623731 345.306126237Z"
           style="fill:#9b111e;fill-opacity:1" />
        <path
           id="path1501"
           d="M124.51562 201.06055L117.01367 214.5332L-24.4076862373 355.954556237L-16.9057362373 342.481906237Z"
           style="fill:#9b111e;fill-opacity:1" />
        <path
           id="path1503"
           d="M117.01367 214.5332C123.13401 217.5682 130.02635 219.27148 137.31836 219.27148L-4.10299623731 360.692836237C-11.3950062373 360.692836237 -18.2873462373 358.989556237 -24.4076862373 355.954556237Z"
           style="fill:#9b111e;fill-opacity:1" />
        <path
           id="path1505"
           d="M137.31836 219.27148C141.47479 219.27148 145.50595 218.71828 149.33789 217.67578L7.91653376269 359.097136237C4.08459376269 360.139636237 0.0534337626905 360.692836237 -4.10299623731 360.692836237Z"
           style="fill:#9b111e;fill-opacity:1" />
        <path
           id="path1507"
           d="M149.33789 217.67578C149.820218501 214.579069463 151.262510724 211.654230562 153.539484446 209.377256841L12.1181282084 350.798613078C9.84115448716 353.075586799 8.39886226339 356.0004257 7.91653376269 359.097136237Z"
           style="fill:#9b111e;fill-opacity:1" />
        <path
           id="path1509"
           d="M153.539484446 209.377256841C154.447630757 208.46911053 155.488552094 207.664021872 156.6543 206.99219L15.2329437627 348.413546237C14.0671958569 349.085378109 13.0262745195 349.890466767 12.1181282084 350.798613078Z"
           style="fill:#9b111e;fill-opacity:1" />
        <path
           id="path1511"
           d="M156.6543 206.99219C160.73939 204.63189 165.47369 204.41769 169.55469 205.99219L28.1333337627 347.413546237C24.0523337627 345.839046237 19.3180337627 346.053246237 15.2329437627 348.413546237Z"
           style="fill:#9b111e;fill-opacity:1" />
        <path
           id="path1513"
           d="M169.55469 205.99219C169.595746177 205.951441716 169.636725599 205.910616239 169.677628032 205.869713807L28.2562717946 347.291070044C28.2153693621 347.331972476 28.1743899394 347.372797953 28.1333337627 347.413546237Z"
           style="fill:#9b111e;fill-opacity:1" />
        <path
           id="path1515"
           d="M169.677628032 205.869713807C177.317913531 198.229428307 182.271887963 187.904022355 183.0 176.43164L41.5786437627 317.852996237C40.8505317261 329.325378592 35.8965572938 339.650784545 28.2562717946 347.291070044Z"
           style="fill:#9b111e;fill-opacity:1" />
        <path
           id="path1517"
           d="M183.0 176.43164L167.58008 176.19336L26.1587237627 317.614716237L41.5786437627 317.852996237Z"
           style="fill:#9b111e;fill-opacity:1" />
        <path
           id="path1519"
           d="M163.86523 209.32422C162.14817 209.36932 160.41653 209.83258 158.82422 210.75195L17.4028637627 352.173306237C18.9951737627 351.253936237 20.7268137627 350.790676237 22.4438737627 350.745576237Z"
           style="fill:#9b111e;fill-opacity:1" />
        <path
           id="path1521"
           d="M158.82422 210.75195C158.300076573 211.174869641 157.821408704 211.604886649 157.386072609 212.040222744L15.964716372 353.461578981C16.4000524666 353.026242886 16.878720336 352.596225878 17.4028637627 352.173306237Z"
           style="fill:#9b111e;fill-opacity:1" />
        <path
           id="path1523"
           d="M157.386072609 212.040222744C147.562406201 221.863889152 159.803760426 234.396093224 169.47656 229.20312L28.0552037627 370.624476237C18.3824041886 375.817449461 6.14104996365 363.285245389 15.964716372 353.461578981Z"
           style="fill:#9b111e;fill-opacity:1" />
        <path
           id="path1525"
           d="M169.47656 229.20312C170.304199524 228.725143439 171.043499002 228.152840794 171.688712939 227.507626857L30.2673567016 368.928983094C29.6221427649 369.574197031 28.8828432863 370.146499676 28.0552037627 370.624476237Z"
           style="fill:#9b111e;fill-opacity:1" />
        <path
           id="path1527"
           d="M171.688712939 227.507626857C175.015795457 224.180544339 175.841135769 218.914744644 173.37695 214.64648L31.9555937627 356.067836237C34.4197795314 360.336100881 33.5944392199 365.601900576 30.2673567016 368.928983094Z"
           style="fill:#9b111e;fill-opacity:1" />
        <path
           id="path1529"
           d="M173.37695 214.64648C171.35428 211.1434 167.64277 209.225 163.86523 209.32422L22.4438737627 350.745576237C26.2214137627 350.646356237 29.9329237627 352.564756237 31.9555937627 356.067836237Z"
           style="fill:#9b111e;fill-opacity:1" />
      </g>
      <path
         id="path1332"
         transform=""
         d="M 164.4375 116.375 C 160.66014 116.27673 156.9473 118.19498 154.92383 121.69727 C 149.20759 136.50234 167.34848 142.10364 173.375 132.35156 C 176.31707 127.25497 174.57546 120.73992 169.47656 117.80078 C 167.88516 116.88138 166.15448 116.41967 164.4375 116.375 z M 137.31836 127.72656 C 130.02692 127.72656 123.13401 129.43215 117.01367 132.46484 L 124.51562 145.9375 C 128.40368 144.13086 132.7474 143.11523 137.31836 143.11523 C 153.19393 143.11523 166.21956 155.28557 167.58008 170.80859 L 183 170.56445 C 182.26799 159.03064 177.26417 148.65843 169.55469 141.00977 C 165.47369 142.58429 160.73939 142.37008 156.6543 140.00977 C 152.56627 137.64944 150.01318 133.65312 149.33789 129.32422 C 145.50595 128.28351 141.47537 127.72656 137.31836 127.72656 z M 111.93555 135.4043 C 102.76556 141.52814 95.934577 150.86825 93.052734 161.82031 C 96.46312 164.5665 98.648438 168.77684 98.648438 173.49805 C 98.648438 178.2222 96.462534 182.43094 93.052734 185.17773 C 95.934577 196.12918 102.76556 205.47221 111.93555 211.59961 L 119.85352 198.36523 C 112.04056 192.86577 106.93359 183.78183 106.93359 173.49805 C 106.93359 163.22129 112.04056 154.13205 119.85352 148.63672 L 111.93555 135.4043 z M 83.652344 162.8457 C 72.191786 163.19422 67.97642 181.69618 83.652344 184.15234 C 89.540566 184.15234 94.310547 179.38218 94.310547 173.49805 C 94.310547 167.61625 89.540566 162.8457 83.652344 162.8457 z M 167.58008 176.19336 C 166.21897 191.71228 153.19393 203.88477 137.31836 203.88477 C 132.74799 203.88477 128.40427 202.87075 124.51562 201.06055 L 117.01367 214.5332 C 123.13401 217.5682 130.02635 219.27148 137.31836 219.27148 C 141.47479 219.27148 145.50595 218.71828 149.33789 217.67578 C 150.01259 213.34398 152.5657 209.34849 156.6543 206.99219 C 160.73939 204.63189 165.47369 204.41769 169.55469 205.99219 C 177.26475 198.33995 182.26799 187.96544 183 176.43164 L 167.58008 176.19336 z M 163.86523 209.32422 C 162.14817 209.36932 160.41653 209.83258 158.82422 210.75195 C 146.47241 220.71835 159.37511 234.62622 169.47656 229.20312 C 174.57197 226.26043 176.31901 219.74248 173.37695 214.64648 C 171.35428 211.1434 167.64277 209.225 163.86523 209.32422 z "
         style="fill:#9b111e;stroke-width:0.58467102;fill-opacity:1" />
    </g>
    <path
       style="fill:#fefdff;stroke-width:0.58467102;fill-opacity:1"
       inkscape:connector-curvature="0"
       id="path4"
       d="m 94.310088,969.85963 c 0,5.88413 -4.77033,10.65563 -10.658552,10.65563 C 77.770331,980.51526 73,975.74434 73,969.85963 c 0,-5.8818 4.770331,-10.65212 10.651536,-10.65212 5.888222,0 10.658552,4.77032 10.658552,10.65212 z m 60.615182,51.80547 c 2.94264,5.0918 9.45588,6.8383 14.55187,3.8997 5.09541,-2.9427 6.84124,-9.4594 3.89918,-14.5554 -2.94207,-5.0954 -9.45589,-6.8377 -14.5513,-3.8957 -5.09599,2.9427 -6.84181,9.4559 -3.89975,14.5514 z m 18.45046,-92.95227 c 2.94207,-5.09659 1.19974,-11.61157 -3.89916,-14.55071 -5.09249,-2.94207 -11.60866,-1.19624 -14.55189,3.89799 -2.94206,5.09541 -1.19623,11.60982 3.89976,14.55189 5.09599,2.94206 11.61274,1.19623 14.55129,-3.89917 z m -36.05783,10.76554 c 15.87557,0 28.90263,12.16934 30.26315,27.69236 L 183,966.92751 c -0.73201,-11.53381 -5.73503,-21.90705 -13.44451,-29.55571 -4.081,1.57452 -8.81626,1.36053 -12.90135,-0.99978 -4.08803,-2.36033 -6.64128,-6.35597 -7.31657,-10.68487 -3.83194,-1.04071 -7.86266,-1.59791 -12.01967,-1.59791 -7.29144,0 -14.18353,1.7049 -20.30387,4.73759 l 7.5025,13.47258 c 3.88806,-1.80664 8.23041,-2.82104 12.80137,-2.82104 z m -30.38477,30.38126 c 0,-10.27676 5.10652,-19.36488 12.91948,-24.86021 l -7.91644,-13.23344 c -9.16999,6.12384 -16.000696,15.46513 -18.882539,26.41719 3.410386,2.74619 5.595301,6.95583 5.595301,11.67704 0,4.72415 -2.185501,8.93377 -5.595301,11.68056 2.881843,10.95145 9.712549,20.29283 18.882539,26.42023 l 7.91644,-13.23351 c -7.81296,-5.49946 -12.91948,-14.58408 -12.91948,-24.86786 z m 30.38477,30.38717 c -4.57037,0 -8.91272,-1.01392 -12.80137,-2.82412 l -7.5025,13.47272 c 6.12034,3.035 13.01186,4.7382 20.30387,4.7382 4.15643,0 8.18773,-0.5531 12.01967,-1.5956 0.6747,-4.3318 3.22797,-8.3274 7.31657,-10.6837 4.08509,-2.3603 8.82035,-2.5749 12.90135,-1.0004 7.71006,-7.65224 12.7125,-18.02542 13.44451,-29.55922 l -15.41895,-0.23914 c -1.36111,15.51892 -14.38758,27.69126 -30.26315,27.69126 z" />
  </g>
</svg>
