<?xml version="1.0" encoding="UTF-8" standalone="no"?>
<!-- Created with Inkscape (http://www.inkscape.org/) -->

<svg
   xmlns:dc="http://purl.org/dc/elements/1.1/"
   xmlns:cc="http://creativecommons.org/ns#"
   xmlns:rdf="http://www.w3.org/1999/02/22-rdf-syntax-ns#"
   xmlns:svg="http://www.w3.org/2000/svg"
   xmlns="http://www.w3.org/2000/svg"
   xmlns:sodipodi="http://sodipodi.sourceforge.net/DTD/sodipodi-0.dtd"
   xmlns:inkscape="http://www.inkscape.org/namespaces/inkscape"
   width="256"
   height="256"
   viewBox="0 0 256 256"
   id="svg2"
   version="1.1"
   inkscape:version="0.91 r13725"
   sodipodi:docname="abiword.svg">
  <sodipodi:namedview
     id="base"
     pagecolor="#ffffff"
     bordercolor="#666666"
     borderopacity="1.0"
     inkscape:pageopacity="0.0"
     inkscape:pageshadow="2"
     inkscape:zoom="2.0507812"
     inkscape:cx="46.323808"
     inkscape:cy="128"
     inkscape:document-units="px"
     inkscape:current-layer="layer1"
     showgrid="true"
     units="px"
     inkscape:window-width="1920"
     inkscape:window-height="1054"
     inkscape:window-x="0"
     inkscape:window-y="0"
     inkscape:window-maximized="1">
    <inkscape:grid
       spacingy="5"
       spacingx="5"
       id="grid4168"
       type="xygrid" />
  </sodipodi:namedview>
  <defs
     id="defs4">
    <inkscape:path-effect
       fuse_tolerance="0"
       vertical_pattern="false"
       prop_units="false"
       tang_offset="0"
       normal_offset="0"
       spacing="0"
       scale_y_rel="false"
       prop_scale="1"
       copytype="single_stretched"
       pattern="M 0,0 1,0"
       is_visible="true"
       id="path-effect4235"
       effect="skeletal" />
    <clipPath
       id="clipPath5002"
       clipPathUnits="userSpaceOnUse">
      <g
         id="g5004">
        <path
           style="fill:#0f9d58;fill-opacity:1;stroke:none;stroke-width:4.85768509;stroke-linejoin:round;stroke-miterlimit:4;stroke-dasharray:none;stroke-opacity:1"
           d="M 88.118406,249.43519 C 46.103287,235.29134 14.771284,201.68742 4.1335861,159.36053 1.3377997,148.23623 0.92261224,144.16281 0.92582381,127.88908 0.92787958,117.47222 1.134384,112.01362 1.6577819,108.54099 4.4653598,89.913336 12.17654,70.638106 23.042737,55.086148 c 3.958678,-5.665755 8.344812,-10.93092 9.101533,-10.925587 0.32809,0.0023 10.488643,18.309713 22.579009,40.683112 12.090365,22.373397 22.374546,41.334697 22.853732,42.136217 0.479186,0.80151 0.924733,2.44098 0.990103,3.64326 0.343424,6.31639 2.524175,14.20976 5.6424,20.42304 2.954444,5.88693 5.065381,8.73258 10.434696,14.06652 6.71418,6.66995 12.88853,10.28643 21.73204,12.72904 3.16587,0.87442 5.10478,1.05037 11.57517,1.05037 8.82596,0 12.60219,-0.76201 19.26429,-3.88733 2.04584,-0.95974 3.93661,-1.66536 4.20172,-1.56805 0.2651,0.0973 -11.0555,17.66459 -25.1569,39.0384 l -25.6389,38.86148 -3.094121,0.11221 c -2.554618,0.0927 -4.195204,-0.25845 -9.409103,-2.01364 z"
           id="path5006"
           inkscape:connector-curvature="0"
           transform="translate(0,796.36216)" />
        <path
           style="fill:#f4b400;fill-opacity:1;stroke:none;stroke-width:4.85768509;stroke-linejoin:round;stroke-miterlimit:4;stroke-dasharray:none;stroke-opacity:1"
           d="m 112.35984,1051.5167 c -10.0014,-1.4495 -12.15632,-1.8201 -12.531784,-2.1556 -0.248854,-0.2223 1.738304,-3.7475 4.550294,-8.0722 7.16635,-11.0213 49.77231,-74.64801 50.25856,-75.05489 3.57509,-2.99158 8.63523,-8.0414 10.57512,-10.55356 3.36154,-4.35318 7.55784,-12.9141 9.06523,-18.494 6.19314,-22.92535 -2.59253,-47.15185 -21.69967,-59.83688 l -2.96081,-1.96565 17.02469,0.29584 c 9.36358,0.1627 31.17032,0.43384 48.45941,0.60252 l 31.43471,0.30668 1.54584,4.18869 c 2.24597,6.08579 4.67816,15.0947 5.93451,21.9816 1.52517,8.36049 1.92536,28.85896 0.73851,37.82758 -3.0805,23.27845 -12.81326,45.72018 -27.80202,64.10577 -20.47622,25.1166 -51.4599,42.1974 -84.14612,46.3885 -5.31244,0.6812 -26.64601,0.9864 -30.44647,0.4356 z"
           id="path5008"
           inkscape:connector-curvature="0" />
        <path
           style="fill:#db4437;fill-opacity:1;stroke:none;stroke-width:10;stroke-linejoin:round;stroke-miterlimit:4;stroke-dasharray:none;stroke-opacity:1"
           d="M 67.989788,108.87302 C 41.284246,59.575543 33.290284,45.149038 32.233625,44.344765 31.651257,43.901497 32.811213,42.549931 38.695603,36.815353 53.43581,22.450419 68.809334,13.040746 87.839196,6.7360352 101.68742,2.1480329 112.58238,0.43719165 127.95142,0.43719165 c 21.3099,0 37.80488,3.80960275 56.83492,13.12633035 25.29351,12.383198 46.19421,33.578863 58.51993,59.345832 1.61138,3.368591 2.92978,6.372442 2.92978,6.675231 0,0.560033 -10.54865,0.49527 -71.16508,-0.436914 l -24.28843,-0.373518 -3.93063,-1.764495 c -6.75732,-3.033425 -10.64587,-3.839529 -18.6576,-3.867747 -5.0296,-0.01773 -7.97946,0.207636 -10.31642,0.788106 -14.50826,3.603659 -26.283291,12.94777 -33.291614,26.418653 -3.58502,6.89086 -5.24713,13.08166 -6.331628,23.58317 l -0.33738,3.26696 -9.92748,-18.32578 z"
           id="path5010"
           inkscape:connector-curvature="0"
           transform="translate(0,796.36216)" />
      </g>
    </clipPath>
    <clipPath
       clipPathUnits="userSpaceOnUse"
       id="clipPath4271">
      <circle
         style="fill:#292929;fill-opacity:0.26020412;stroke:none;stroke-width:10;stroke-linejoin:round;stroke-miterlimit:4;stroke-dasharray:none;stroke-opacity:0.25882353"
         id="circle4273"
         cx="128"
         cy="128.00002"
         r="128" />
    </clipPath>
    <clipPath
       id="clipPath4363"
       clipPathUnits="userSpaceOnUse">
      <circle
         style="fill:#4285f4;fill-opacity:1;stroke:none;stroke-width:10;stroke-linejoin:round;stroke-miterlimit:4;stroke-dasharray:none;stroke-opacity:0.25882353"
         id="circle4365"
         cx="128"
         cy="924.36218"
         r="128" />
    </clipPath>
    <clipPath
       clipPathUnits="userSpaceOnUse"
       id="clipPath4452">
      <circle
         style="fill:#4285f4;fill-opacity:1;stroke:none;stroke-width:10;stroke-linejoin:round;stroke-miterlimit:4;stroke-dasharray:none;stroke-opacity:0.25882353"
         id="circle4454"
         cx="128"
         cy="924.36218"
         r="128" />
    </clipPath>
    <clipPath
       id="clipPath5177"
       clipPathUnits="userSpaceOnUse">
      <circle
         style="fill:#4285f4;fill-opacity:1;stroke:none;stroke-width:10;stroke-linejoin:round;stroke-miterlimit:4;stroke-dasharray:none;stroke-opacity:0.25882353"
         id="circle5179"
         cx="128"
         cy="924.36218"
         r="128" />
    </clipPath>
    <clipPath
       clipPathUnits="userSpaceOnUse"
       id="clipPath4342">
      <circle
         style="fill:#4285f4;fill-opacity:1;stroke:none;stroke-width:10;stroke-linejoin:round;stroke-miterlimit:4;stroke-dasharray:none;stroke-opacity:0.25882353"
         id="circle4344"
         cx="128"
         cy="933.48718"
         r="128" />
    </clipPath>
    <clipPath
       id="clipPath4681"
       clipPathUnits="userSpaceOnUse">
      <circle
         style="fill:#9d5fad;fill-opacity:1;stroke:none;stroke-width:10;stroke-linejoin:round;stroke-miterlimit:4;stroke-dasharray:none;stroke-opacity:0.25882353"
         id="circle4683"
         cx="127.00293"
         cy="930.43964"
         r="128" />
    </clipPath>
    <clipPath
       clipPathUnits="userSpaceOnUse"
       id="clipPath4480">
      <circle
         style="fill:#df7618;fill-opacity:1;stroke:none;stroke-width:10;stroke-linejoin:round;stroke-miterlimit:4;stroke-dasharray:none;stroke-opacity:0.25882353"
         id="circle4482"
         cx="128"
         cy="924.36218"
         r="128" />
    </clipPath>
    <filter
       style="color-interpolation-filters:sRGB"
       inkscape:label="Drop Shadow"
       id="filter4301">
      <feFlood
         flood-opacity="0.498039"
         flood-color="rgb(0,0,0)"
         result="flood"
         id="feFlood4303" />
      <feComposite
         in="flood"
         in2="SourceGraphic"
         operator="in"
         result="composite1"
         id="feComposite4305" />
      <feGaussianBlur
         in="composite1"
         stdDeviation="3.7"
         result="blur"
         id="feGaussianBlur4307" />
      <feOffset
         dx="3.8"
         dy="3.7"
         result="offset"
         id="feOffset4309" />
      <feComposite
         in="SourceGraphic"
         in2="offset"
         operator="over"
         result="composite2"
         id="feComposite4311" />
    </filter>
    <clipPath
       id="clipPath5827"
       clipPathUnits="userSpaceOnUse">
      <circle
         style="fill:#df7618;fill-opacity:1;stroke:none;stroke-width:10;stroke-linejoin:round;stroke-miterlimit:4;stroke-dasharray:none;stroke-opacity:0.25882353"
         id="circle5829"
         cx="128"
         cy="924.36218"
         r="128" />
    </clipPath>
    <clipPath
       clipPathUnits="userSpaceOnUse"
       id="clipPath5688">
      <circle
         style="fill:#ffeb4f;fill-opacity:1;stroke:none;stroke-width:10;stroke-linejoin:round;stroke-miterlimit:4;stroke-dasharray:none;stroke-opacity:0.25882353"
         id="circle5690"
         cx="126.04952"
         cy="923.87457"
         r="128" />
    </clipPath>
  </defs>
  <metadata
     id="metadata7">
    <rdf:RDF>
      <cc:Work
         rdf:about="">
        <dc:format>image/svg+xml</dc:format>
        <dc:type
           rdf:resource="http://purl.org/dc/dcmitype/StillImage" />
        <dc:title />
      </cc:Work>
    </rdf:RDF>
  </metadata>
  <g
     inkscape:label="Layer 1"
     inkscape:groupmode="layer"
     id="layer1"
     transform="translate(0,-796.36216)">
    <path
       style="fill:none;fill-rule:evenodd;stroke:none;stroke-width:1px;stroke-linecap:butt;stroke-linejoin:miter;stroke-opacity:1"
       d="M 154.47438,968.80998 101.03985,1048.476 0.4857685,1048.9618 0,842.0244 l 33.032258,-2.42884 45.176471,83.55218 21.373814,35.4611 26.717267,13.11575 z"
       id="path4913"
       inkscape:connector-curvature="0" />
    <circle
       r="128"
       cy="923.87457"
       cx="126.04952"
       id="path4152"
       style="fill:#5ca9d7;fill-opacity:1;stroke:none;stroke-width:10;stroke-linejoin:round;stroke-miterlimit:4;stroke-dasharray:none;stroke-opacity:0.25882353" />
    <text
       xml:space="preserve"
       style="font-style:normal;font-weight:normal;font-size:40px;line-height:125%;font-family:sans-serif;letter-spacing:0px;word-spacing:0px;fill:#000000;fill-opacity:1;stroke:none;stroke-width:1px;stroke-linecap:butt;stroke-linejoin:miter;stroke-opacity:1"
       x="120"
       y="927.36218"
       id="text4914"
       sodipodi:linespacing="125%"><tspan
         sodipodi:role="line"
         id="tspan4916"
         x="120"
         y="927.36218" /></text>
    <path
       inkscape:original-d="m 90,171 c -0.04428,0.15876 -0.292221,0.43434 -0.132827,0.47628 0.626374,0.1648 1.295382,0 1.943074,0 2.428842,0 4.857685,0 7.286527,0 5.667296,0 11.334596,0 17.001896,0 11.01075,0 22.02151,0 33.03226,0 3.40038,0 6.80076,0 10.20114,0 1.13346,0 2.26692,0 3.40038,0 0.64769,0 1.29538,0 1.94307,0 0.16192,0 0.32605,0.0266 0.48577,0 0.81441,-0.13573 1.61443,-0.35003 2.42884,-0.48577 0.15972,-0.0266 0.32385,0 0.48577,0 0.64769,0 1.29538,0 1.94308,0 1.61922,0 3.23845,0 4.85768,0 1.94307,0 3.88615,0 5.82922,0 0.64769,0 1.31472,0.15709 1.94308,0 0.22215,-0.0555 0.26852,-0.41335 0.48576,-0.48577 0.30723,-0.10241 0.6477,0 0.97154,0 0.48577,0 0.98604,0.11782 1.45731,0 0.22215,-0.0555 0.28095,-0.38336 0.48577,-0.48576 0.10887,-0.0544 1.82764,0 1.94307,0 1.29538,0 2.59077,0 3.88615,0 0.25402,0 1.81534,0.0639 1.94307,0 0.20482,-0.10241 0.28095,-0.38336 0.48577,-0.48577 0.14338,-0.0717 2.89994,0 3.40038,0 0.22904,0 2.40683,-0.022 2.42884,0 0.1145,0.11449 -0.11449,0.37127 0,0.48577 0.1145,0.11449 0.50811,-0.16038 0.48577,0 -0.0534,0.38356 -0.41493,0.65401 -0.62239,0.98102"
       inkscape:path-effect="#path-effect4235"
       id="path4233"
       d="m 90,171 c -0.02835,0.10164 -0.09512,0.18781 -0.142791,0.28195 -0.03402,0.0672 -0.06286,0.17517 0.01,0.19433 0.629137,0.16553 1.29252,0 1.943068,0 2e-6,0 4e-6,0 6e-6,0 2.428841,0 4.857683,0 7.286524,0 10e-7,0 2e-6,0 3e-6,0 5.667296,0 11.334596,0 17.001896,0 0,0 0,0 0,0 11.01075,0 22.02151,0 33.03226,0 3.40038,0 6.80076,0 10.20114,0 1.13346,0 2.26692,0 3.40038,0 0.64769,0 1.29538,0 1.94307,0 0,0 0,0 1e-5,0 0.16221,0 0.32574,0.0266 0.48575,0 0,0 1e-5,0 1e-5,0 0.8145,-0.13574 1.61434,-0.35002 2.42884,-0.48577 0,0 1e-5,0 1e-5,0 0.16001,-0.0266 0.32354,0 0.48576,0 0.64769,0 1.29539,0 1.94308,0 1.61923,0 3.23845,0 4.85768,0 1.94307,0 3.88615,0 5.82922,0 0.65029,0 1.31221,0.15772 1.94308,0 0.23053,-0.0576 0.26033,-0.41062 0.48575,-0.48577 10e-6,0 10e-6,0 10e-6,0 0.30935,-0.10312 0.64546,0 0.97153,0 1e-5,0 1e-5,0 1e-5,0 0.48771,0 0.98416,0.11829 1.45731,0 0.22811,-0.057 0.27547,-0.38062 0.48577,-0.48576 0.0332,-0.0166 0.073,-0.0132 0.11001,-0.0156 0,0 0,0 0,0 0.0743,-0.005 0.14882,-0.006 0.22329,-0.007 0.21191,-0.003 0.42387,-6e-4 0.63577,0.003 0.32448,0.005 0.64949,0.0204 0.974,0.0204 1.29538,0 2.59077,0 3.88615,0 0.33969,0 0.67926,0.0178 1.01889,0.024 1e-5,0 1e-5,0 1e-5,0 0.20078,0.004 0.40162,0.007 0.6024,0.003 0,0 10e-6,0 10e-6,0 0.10737,-0.002 0.22572,0.0211 0.32176,-0.027 0.20741,-0.1037 0.27836,-0.38207 0.48577,-0.48577 0.0501,-0.0251 0.11077,-0.0175 0.16675,-0.0206 0.1181,-0.006 0.23641,-0.008 0.35467,-0.01 0.34828,-0.004 0.6966,-6.9e-4 1.04487,0.003 0.61137,0.007 1.22268,0.0269 1.83409,0.0269 0.43027,0 0.86055,-0.006 1.29082,-0.008 0.26002,-0.001 0.52005,-0.002 0.78008,-0.001 0.0852,4.2e-4 0.17049,9e-4 0.25571,0.003 l 0,0 c 0,0 1e-5,0 1e-5,0 0.0244,5.9e-4 0.0489,0.001 0.0733,0.003 0.009,5.7e-4 0.0217,-0.003 0.0289,0.004 0.0602,0.0602 0.0251,0.16159 5e-5,0.24293 -0.0251,0.0813 -0.0602,0.1827 0,0.24289 0.0726,0.0726 0.19615,0.0134 0.2942,-0.0172 0.0707,-0.0221 0.20179,-0.0562 0.19157,0.0172 -0.054,0.38821 -0.41242,0.65005 -0.62239,0.98102"
       style="fill:none;stroke:black;stroke-opacity:1;stroke-width:1px;stroke-linejoin:miter;stroke-linecap:butt;fill-rule:evenodd" />
    <g
       id="g5505"
       clip-path="url(#clipPath5688)"
       style="fill:#24586d;fill-opacity:1">
      <g
         id="g5507"
         style="fill:#24586d;fill-opacity:1">
        <path
           id="path5509"
           d="M47.486858 998.40514C46.192264 998.02894 44.285382 996.81924 43.249359 995.71704L-310.304031593 1349.27043059C-309.268008593 1350.37263059 -307.361126593 1351.58233059 -306.066532593 1351.95853059Z"
           style="fill:#24586d;fill-opacity:1" />
        <path
           id="path5511"
           d="M43.249359 995.71704C41.606309 993.96894 41.332149 992.85834 41.103238 987.0231L-312.450152593 1340.57649059C-312.221241593 1346.41173059 -311.947081593 1347.52233059 -310.304031593 1349.27043059Z"
           style="fill:#24586d;fill-opacity:1" />
        <path
           id="path5513"
           d="M41.103238 987.0231C40.881194 981.36287 41.275291 978.55759 43.663744 968.79668L-309.889646593 1322.35007059C-312.278099593 1332.11098059 -312.672196593 1334.91626059 -312.450152593 1340.57649059Z"
           style="fill:#24586d;fill-opacity:1" />
        <path
           id="path5515"
           d="M43.663744 968.79668C45.216362 962.45159 46.747254 956.90857 47.065717 956.47887L-306.487673593 1310.03226059C-306.806136593 1310.46196059 -308.337028593 1316.00498059 -309.889646593 1322.35007059Z"
           style="fill:#24586d;fill-opacity:1" />
        <path
           id="path5517"
           d="M47.065717 956.47887C47.384188 956.04916 48.089777 954.13741 48.633697 952.23053L-304.919693593 1305.78392059C-305.463613593 1307.69080059 -306.169202593 1309.60255059 -306.487673593 1310.03226059Z"
           style="fill:#24586d;fill-opacity:1" />
        <path
           id="path5519"
           d="M48.633697 952.23053C49.820403 948.07014 57.256209 929.04545 60.227296 922.56802L-293.326094593 1276.12141059C-296.297181593 1282.59884059 -303.732987593 1301.62353059 -304.919693593 1305.78392059Z"
           style="fill:#24586d;fill-opacity:1" />
        <path
           id="path5521"
           d="M60.227296 922.56802C61.393498 920.02552 63.664437 914.9983 65.273837 911.39643L-288.279553593 1264.94982059C-289.888953593 1268.55169059 -292.159892593 1273.57891059 -293.326094593 1276.12141059Z"
           style="fill:#24586d;fill-opacity:1" />
        <path
           id="path5523"
           d="M65.273837 911.39643C68.597625 903.95769 75.112385 891.24268 80.939604 880.82122L-272.613786593 1234.37461059C-278.441005593 1244.79607059 -284.955765593 1257.51108059 -288.279553593 1264.94982059Z"
           style="fill:#24586d;fill-opacity:1" />
        <path
           id="path5525"
           d="M80.939604 880.82122C83.115829 876.92923 84.896373 873.57645 84.896373 873.37059L-268.657017593 1226.92398059C-268.657017593 1227.12984059 -270.437561593 1230.48262059 -272.613786593 1234.37461059Z"
           style="fill:#24586d;fill-opacity:1" />
        <path
           id="path5527"
           d="M84.896373 873.37059C84.896373 873.04009 94.495959 858.60803 99.581184 851.29339L-253.972206593 1204.84678059C-259.057431593 1212.16142059 -268.657017593 1226.59348059 -268.657017593 1226.92398059Z"
           style="fill:#24586d;fill-opacity:1" />
        <path
           id="path5529"
           d="M99.581184 851.29339C102.041208397 847.754869787 105.398900496 843.867641063 108.735156879 840.53138468L-244.818233714 1194.08477527C-248.154490097 1197.42103166 -251.512182196 1201.30826038 -253.972206593 1204.84678059Z"
           style="fill:#24586d;fill-opacity:1" />
        <path
           id="path5531"
           d="M108.735156879 840.53138468C112.515235665 836.751305894 116.267796198 833.678541778 118.65597 832.62171L-234.897420593 1186.17510059C-237.285594395 1187.23193237 -241.038154928 1190.30469649 -244.818233714 1194.08477527Z"
           style="fill:#24586d;fill-opacity:1" />
        <path
           id="path5533"
           d="M118.65597 832.62171C122.91167 830.73845 129.48666 830.56446 133.47201 832.22965L-220.081380593 1185.78304059C-224.066730593 1184.11785059 -230.641720593 1184.29184059 -234.897420593 1186.17510059Z"
           style="fill:#24586d;fill-opacity:1" />
        <path
           id="path5535"
           d="M133.47201 832.22965C139.78414 834.86703 151.17292 849.6414 160.55341 867.36169L-192.999980593 1220.91508059C-202.380470593 1203.19479059 -213.769250593 1188.42042059 -220.081380593 1185.78304059Z"
           style="fill:#24586d;fill-opacity:1" />
        <path
           id="path5537"
           d="M160.55341 867.36169C162.27039 870.60516 165.14953 876.03255 166.9515 879.42255L-186.601890593 1232.97594059C-188.403860593 1229.58594059 -191.283000593 1224.15855059 -192.999980593 1220.91508059Z"
           style="fill:#24586d;fill-opacity:1" />
        <path
           id="path5539"
           d="M166.9515 879.42255C173.26229 891.29489 187.78169 923.7771 191.23099 933.73962L-162.322400593 1287.29301059C-165.771700593 1277.33049059 -180.291100593 1244.84828059 -186.601890593 1232.97594059Z"
           style="fill:#24586d;fill-opacity:1" />
        <path
           id="path5541"
           d="M191.23099 933.73962C191.59777 934.79899 193.32999 939.4795 195.08035 944.14076L-158.473040593 1297.69415059C-160.223400593 1293.03289059 -161.955620593 1288.35238059 -162.322400593 1287.29301059Z"
           style="fill:#24586d;fill-opacity:1" />
        <path
           id="path5543"
           d="M195.08035 944.14076C196.83071 948.802 199.12553 955.21604 200.17991 958.39417L-153.373480593 1311.94756059C-154.427860593 1308.76943059 -156.722680593 1302.35539059 -158.473040593 1297.69415059Z"
           style="fill:#24586d;fill-opacity:1" />
        <path
           id="path5545"
           d="M200.17991 958.39417C201.2343 961.5723 202.39502 964.86599 202.75927 965.71349L-150.794120593 1319.26688059C-151.158370593 1318.41938059 -152.319090593 1315.12569059 -153.373480593 1311.94756059Z"
           style="fill:#24586d;fill-opacity:1" />
        <path
           id="path5547"
           d="M202.75927 965.71349C203.12353 966.56099 204.35113 970.54809 205.48727 974.57372L-148.066120593 1328.12711059C-149.202260593 1324.10148059 -150.429860593 1320.11438059 -150.794120593 1319.26688059Z"
           style="fill:#24586d;fill-opacity:1" />
        <path
           id="path5549"
           d="M205.48727 974.57372C206.62341 978.59935 208.00808 983.27986 208.56431 984.97486L-144.989080593 1338.52825059C-145.545310593 1336.83325059 -146.929980593 1332.15274059 -148.066120593 1328.12711059Z"
           style="fill:#24586d;fill-opacity:1" />
        <path
           id="path5551"
           d="M208.56431 984.97486C211.082378392 992.648180856 211.679204378 996.707116475 210.389945404 997.996375449L-143.163445189 1351.54976604C-141.874186215 1350.26050707 -142.471012201 1346.20157145 -144.989080593 1338.52825059Z"
           style="fill:#24586d;fill-opacity:1" />
        <path
           id="path5553"
           d="M210.389945404 997.996375449C210.078395778 998.307925075 209.656708606 998.45774 209.12538 998.45774L-144.428010593 1352.01113059C-143.896681987 1352.01113059 -143.474994815 1351.86131567 -143.163445189 1351.54976604Z"
           style="fill:#24586d;fill-opacity:1" />
        <path
           id="path5555"
           d="M209.12538 998.45774C208.13335 998.45774 206.88725 996.70734 204.87483 992.48674L-148.678560593 1346.04013059C-146.666140593 1350.26073059 -145.420040593 1352.01113059 -144.428010593 1352.01113059Z"
           style="fill:#24586d;fill-opacity:1" />
        <path
           id="path5557"
           d="M204.87483 992.48674C203.30893 989.20273 199.92089 982.52867 197.34585 977.65554L-156.207540593 1331.20893059C-153.632500593 1336.08206059 -150.244460593 1342.75612059 -148.678560593 1346.04013059Z"
           style="fill:#24586d;fill-opacity:1" />
        <path
           id="path5559"
           d="M197.34585 977.65554C194.77079 972.78241 191.4115 966.36837 189.88078 963.40213L-163.672610593 1316.95552059C-162.141890593 1319.92176059 -158.782600593 1326.33580059 -156.207540593 1331.20893059Z"
           style="fill:#24586d;fill-opacity:1" />
        <path
           id="path5561"
           d="M189.88078 963.40213C188.35004 960.43587 185.65182 955.40866 183.88471 952.23053L-169.668680593 1305.78392059C-167.901570593 1308.96205059 -165.203350593 1313.98926059 -163.672610593 1316.95552059Z"
           style="fill:#24586d;fill-opacity:1" />
        <path
           id="path5563"
           d="M183.88471 952.23053C182.11761 949.0524 178.83651 942.98507 176.59338 938.74757L-176.960010593 1292.30096059C-174.716880593 1296.53846059 -171.435780593 1302.60579059 -169.668680593 1305.78392059Z"
           style="fill:#24586d;fill-opacity:1" />
        <path
           id="path5565"
           d="M176.59338 938.74757C172.71281 931.41676 166.98171 921.36246 155.95239 902.53619L-197.601000593 1256.08958059C-186.571680593 1274.91585059 -180.840580593 1284.97015059 -176.960010593 1292.30096059Z"
           style="fill:#24586d;fill-opacity:1" />
        <path
           id="path5567"
           d="M155.95239 902.53619C145.58801 884.84493 136.04949 871.40606 130.80954 867.11232L-222.743850593 1220.66571059C-217.503900593 1224.95945059 -207.965380593 1238.39832059 -197.601000593 1256.08958059Z"
           style="fill:#24586d;fill-opacity:1" />
        <path
           id="path5569"
           d="M130.80954 867.11232C126.188869346 863.326027446 123.487013047 863.267420188 119.471964621 867.282468613L-234.081425972 1220.83585921C-230.066377546 1216.82081078 -227.364521247 1216.87941804 -222.743850593 1220.66571059Z"
           style="fill:#24586d;fill-opacity:1" />
        <path
           id="path5571"
           d="M119.471964621 867.282468613C119.116876143 867.637557092 118.751516496 868.024507781 118.37365 868.44356L-235.179740593 1221.99695059C-234.801874098 1221.57789837 -234.43651445 1221.19094769 -234.081425972 1220.83585921Z"
           style="fill:#24586d;fill-opacity:1" />
        <path
           id="path5573"
           d="M118.37365 868.44356C103.78345 884.62405 79.398925 929.00787 68.108092 959.93508L-285.445298593 1313.48847059C-274.154465593 1282.56126059 -249.769940593 1238.17744059 -235.179740593 1221.99695059Z"
           style="fill:#24586d;fill-opacity:1" />
        <path
           id="path5575"
           d="M68.108092 959.93508C62.338745 975.73817 62.663273 977.38155 71.393624 976.5728L-282.159766593 1330.12619059C-290.890117593 1330.93494059 -291.214645593 1329.29156059 -285.445298593 1313.48847059Z"
           style="fill:#24586d;fill-opacity:1" />
        <path
           id="path5577"
           d="M71.393624 976.5728C74.37076 976.29701 77.846707 975.74524 79.117962 975.34664L-274.435428593 1328.90003059C-275.706683593 1329.29863059 -279.182630593 1329.85040059 -282.159766593 1330.12619059Z"
           style="fill:#24586d;fill-opacity:1" />
        <path
           id="path5579"
           d="M79.117962 975.34664C100.16423 968.74757 114.23177 964.04302 115.89671 963.04688L-237.656680593 1316.60027059C-239.321620593 1317.59641059 -253.389160593 1322.30096059 -274.435428593 1328.90003059Z"
           style="fill:#24586d;fill-opacity:1" />
        <path
           id="path5581"
           d="M115.89671 963.04688C116.63253 962.60664 117.62929 962.24644 118.11174 962.24644L-235.441650593 1315.79983059C-235.924100593 1315.79983059 -236.920860593 1316.16003059 -237.656680593 1316.60027059Z"
           style="fill:#24586d;fill-opacity:1" />
        <path
           id="path5583"
           d="M118.11174 962.24644C118.59418 962.24644 120.93915 961.40803 123.32276 960.38331L-230.230630593 1313.93670059C-232.614240593 1314.96142059 -234.959210593 1315.79983059 -235.441650593 1315.79983059Z"
           style="fill:#24586d;fill-opacity:1" />
        <path
           id="path5585"
           d="M123.32276 960.38331C125.70637 959.35859 130.6036 957.43603 134.20547 956.11096L-219.347920593 1309.66435059C-222.949790593 1310.98942059 -227.847020593 1312.91198059 -230.230630593 1313.93670059Z"
           style="fill:#24586d;fill-opacity:1" />
        <path
           id="path5587"
           d="M134.20547 956.11096C144.09954 952.4711 144.54875 952.27299 156.52727 946.26564L-197.026120593 1299.81903059C-209.004640593 1305.82638059 -209.453850593 1306.02449059 -219.347920593 1309.66435059Z"
           style="fill:#24586d;fill-opacity:1" />
        <path
           id="path5589"
           d="M156.52727 946.26564C162.65988 943.19008 168.27338 940.67371 169.0017 940.67371L-184.551690593 1294.22710059C-185.280010593 1294.22710059 -190.893510593 1296.74347059 -197.026120593 1299.81903059Z"
           style="fill:#24586d;fill-opacity:1" />
        <path
           id="path5591"
           d="M169.0017 940.67371C171.01059 940.67371 171.4062 941.99573 169.85999 943.54194L-183.693400593 1297.09533059C-182.147190593 1295.54912059 -182.542800593 1294.22710059 -184.551690593 1294.22710059Z"
           style="fill:#24586d;fill-opacity:1" />
        <path
           id="path5593"
           d="M169.85999 943.54194C166.49052 946.9114 150.11156 957.25223 128.81229 969.4573L-224.741100593 1323.01069059C-203.441830593 1310.80562059 -187.062870593 1300.46479059 -183.693400593 1297.09533059Z"
           style="fill:#24586d;fill-opacity:1" />
        <path
           id="path5595"
           d="M128.81229 969.4573C120.10435 974.44719 99.991874 984.27247 90.052822 988.39194L-263.500568593 1341.94533059C-253.561516593 1337.82586059 -233.449040593 1328.00058059 -224.741100593 1323.01069059Z"
           style="fill:#24586d;fill-opacity:1" />
        <path
           id="path5597"
           d="M90.052822 988.39194C67.65804 997.67394 55.119645 1000.6235 47.486858 998.40514L-306.066532593 1351.95853059C-298.433745593 1354.17689059 -285.895350593 1351.22733059 -263.500568593 1341.94533059Z"
           style="fill:#24586d;fill-opacity:1" />
      </g>
      <path
         inkscape:connector-curvature="0"
         id="path5443"
         d="m 47.486858,998.40514 c -1.294594,-0.3762 -3.201476,-1.5859 -4.237499,-2.6881 -1.64305,-1.7481 -1.91721,-2.8587 -2.146121,-8.69394 -0.222044,-5.66023 0.172053,-8.46551 2.560506,-18.22642 1.552618,-6.34509 3.08351,-11.88811 3.401973,-12.31781 0.318471,-0.42971 1.02406,-2.34146 1.56798,-4.24834 1.186706,-4.16039 8.622512,-23.18508 11.593599,-29.66251 1.166202,-2.5425 3.437141,-7.56972 5.046541,-11.17159 3.323788,-7.43874 9.838548,-20.15375 15.665767,-30.57521 2.176225,-3.89199 3.956769,-7.24477 3.956769,-7.45063 0,-0.3305 9.599586,-14.76256 14.684811,-22.0772 5.247306,-7.54777 14.578836,-16.6821 19.074786,-18.67168 4.2557,-1.88326 10.83069,-2.05725 14.81604,-0.39206 6.31213,2.63738 17.70091,17.41175 27.0814,35.13204 1.71698,3.24347 4.59612,8.67086 6.39809,12.06086 6.31079,11.87234 20.83019,44.35455 24.27949,54.31707 0.36678,1.05937 2.099,5.73988 3.84936,10.40114 1.75036,4.66124 4.04518,11.07528 5.09956,14.25341 1.05439,3.17813 2.21511,6.47182 2.57936,7.31932 0.36426,0.8475 1.59186,4.8346 2.728,8.86023 1.13614,4.02563 2.52081,8.70614 3.07704,10.40114 3.12656,9.52758 3.29115,13.48288 0.56107,13.48288 -0.99203,0 -2.23813,-1.7504 -4.25055,-5.971 -1.5659,-3.28401 -4.95394,-9.95807 -7.52898,-14.8312 -2.57506,-4.87313 -5.93435,-11.28717 -7.46507,-14.25341 -1.53074,-2.96626 -4.22896,-7.99347 -5.99607,-11.1716 -1.7671,-3.17813 -5.0482,-9.24546 -7.29133,-13.48296 -3.88057,-7.33081 -9.61167,-17.38511 -20.64099,-36.21138 -10.36438,-17.69126 -19.9029,-31.13013 -25.14285,-35.42387 -5.02932,-4.12115 -7.78542,-3.82611 -12.43589,1.33124 -14.5902,16.18049 -38.974725,60.56431 -50.265558,91.49152 -5.769347,15.80309 -5.444819,17.44647 3.285532,16.63772 2.977136,-0.27579 6.453083,-0.82756 7.724338,-1.22616 21.046268,-6.59907 35.113808,-11.30362 36.778748,-12.29976 0.73582,-0.44024 1.73258,-0.80044 2.21503,-0.80044 0.48244,0 2.82741,-0.83841 5.21102,-1.86313 2.38361,-1.02472 7.28084,-2.94728 10.88271,-4.27235 9.89407,-3.63986 10.34328,-3.83797 22.3218,-9.84532 6.13261,-3.07556 11.74611,-5.59193 12.47443,-5.59193 2.00889,0 2.4045,1.32202 0.85829,2.86823 -3.36947,3.36946 -19.74843,13.71029 -41.0477,25.91536 -8.70794,4.98989 -28.820416,14.81517 -38.759468,18.93464 -22.394782,9.282 -34.933177,12.23156 -42.565964,10.0132 z"
         style="fill:#24586d;fill-opacity:1" />
    </g>
    <path
       style="fill:#ffffff;fill-opacity:1"
       d="m 47.48686,998.40514 c -1.2946,-0.3762 -3.20148,-1.5859 -4.2375,-2.6881 -1.64305,-1.7481 -1.91721,-2.8587 -2.14612,-8.69394 -0.22205,-5.66023 0.17205,-8.46551 2.5605,-18.22642 1.55262,-6.34509 3.08351,-11.88811 3.40198,-12.31781 0.31847,-0.42971 1.02406,-2.34146 1.56798,-4.24834 1.1867,-4.16039 8.62251,-23.18508 11.5936,-29.66251 1.1662,-2.5425 3.43714,-7.56972 5.04654,-11.17159 3.32379,-7.43874 9.83855,-20.15375 15.66576,-30.57521 2.17623,-3.89199 3.95677,-7.24477 3.95677,-7.45063 0,-0.3305 9.59959,-14.76256 14.68481,-22.0772 5.24731,-7.54777 14.57884,-16.6821 19.07479,-18.67168 4.2557,-1.88326 10.83069,-2.05725 14.81604,-0.39206 6.31213,2.63738 17.70091,17.41175 27.0814,35.13204 1.71698,3.24347 4.59612,8.67086 6.39809,12.06086 6.31079,11.87234 20.83019,44.35455 24.27949,54.31707 0.36678,1.05937 2.099,5.73988 3.84936,10.40114 1.75036,4.66124 4.04518,11.07528 5.09956,14.25341 1.05439,3.17813 2.21511,6.47182 2.57936,7.31932 0.36426,0.8475 1.59186,4.8346 2.728,8.86023 1.13614,4.02563 2.52081,8.70614 3.07704,10.40114 3.12656,9.52758 3.29115,13.48288 0.56107,13.48288 -0.99203,0 -2.23813,-1.7504 -4.25055,-5.971 -1.5659,-3.28401 -4.95394,-9.95807 -7.52898,-14.8312 -2.57506,-4.87313 -5.93435,-11.28717 -7.46507,-14.25341 -1.53074,-2.96626 -4.22896,-7.99347 -5.99607,-11.1716 -1.7671,-3.17813 -5.0482,-9.24546 -7.29133,-13.48296 -3.88057,-7.33081 -9.61167,-17.38511 -20.64099,-36.21138 -10.36438,-17.69126 -19.9029,-31.13013 -25.14285,-35.42387 -5.02932,-4.12115 -7.78542,-3.82611 -12.43589,1.33124 -14.5902,16.18049 -38.97472,60.56431 -50.26556,91.49152 -5.76934,15.80309 -5.44482,17.44647 3.28553,16.63772 2.97714,-0.27579 6.45309,-0.82756 7.72434,-1.22616 21.04627,-6.59907 35.11381,-11.30362 36.77875,-12.29976 0.73582,-0.44024 1.73258,-0.80044 2.21503,-0.80044 0.48244,0 2.82741,-0.83841 5.21102,-1.86313 2.38361,-1.02472 7.28084,-2.94728 10.88271,-4.27235 9.89407,-3.63986 10.34328,-3.83797 22.3218,-9.84532 6.13261,-3.07556 11.74611,-5.59193 12.47443,-5.59193 2.00889,0 2.4045,1.32202 0.85829,2.86823 -3.36947,3.36946 -19.74843,13.71029 -41.0477,25.91536 -8.70794,4.98989 -28.82042,14.81517 -38.75947,18.93464 -22.39478,9.282 -34.93317,12.23156 -42.56596,10.0132 z"
       id="path5463"
       inkscape:connector-curvature="0" />
  </g>
</svg>
