<?xml version="1.0" encoding="UTF-8" standalone="no"?>
<!-- Created with Inkscape (http://www.inkscape.org/) -->

<svg
   xmlns:dc="http://purl.org/dc/elements/1.1/"
   xmlns:cc="http://creativecommons.org/ns#"
   xmlns:rdf="http://www.w3.org/1999/02/22-rdf-syntax-ns#"
   xmlns:svg="http://www.w3.org/2000/svg"
   xmlns="http://www.w3.org/2000/svg"
   xmlns:sodipodi="http://sodipodi.sourceforge.net/DTD/sodipodi-0.dtd"
   xmlns:inkscape="http://www.inkscape.org/namespaces/inkscape"
   width="256"
   height="256"
   viewBox="0 0 256 256"
   id="svg4149"
   version="1.1"
   inkscape:version="0.92.2 (5c3e80d, 2017-08-06)"
   sodipodi:docname="accessories-dictionary-symbolic.svg">
  <sodipodi:namedview
     id="base"
     pagecolor="#ffffff"
     bordercolor="#666666"
     borderopacity="1.0"
     inkscape:pageopacity="0.0"
     inkscape:pageshadow="2"
     inkscape:zoom="3.296875"
     inkscape:cx="128"
     inkscape:cy="128"
     inkscape:document-units="px"
     inkscape:current-layer="layer1"
     showgrid="false"
     units="px"
     inkscape:window-width="1920"
     inkscape:window-height="1048"
     inkscape:window-x="0"
     inkscape:window-y="0"
     inkscape:window-maximized="1" />
  <defs
     id="defs4151">
    <clipPath
       id="clipPath4863"
       clipPathUnits="userSpaceOnUse">
      <circle
         r="77.263145"
         cy="924.36218"
         cx="128"
         id="circle4865"
         style="fill:#e9e9e9;fill-opacity:1;stroke:none;stroke-width:20;stroke-miterlimit:4;stroke-dasharray:none;stroke-opacity:1" />
    </clipPath>
    <clipPath
       clipPathUnits="userSpaceOnUse"
       id="clipPath4227">
      <circle
         r="77.263145"
         cy="924.36218"
         cx="128"
         id="circle4229"
         style="fill:#e9e9e9;fill-opacity:1;stroke:none;stroke-width:20;stroke-miterlimit:4;stroke-dasharray:none;stroke-opacity:1" />
    </clipPath>
    <clipPath
       id="clipPath5242"
       clipPathUnits="userSpaceOnUse">
      <circle
         r="53.296803"
         cy="27.298298"
         cx="-91.568832"
         id="circle5244"
         style="fill:#294172;fill-opacity:1;stroke:none;stroke-width:20;stroke-miterlimit:4;stroke-dasharray:none;stroke-opacity:1" />
    </clipPath>
    <clipPath
       clipPathUnits="userSpaceOnUse"
       id="clipPath4435">
      <circle
         r="128"
         cy="924.80219"
         cx="128"
         id="circle4437"
         style="fill:#597cc3;fill-opacity:1;stroke:none;stroke-width:20;stroke-miterlimit:4;stroke-dasharray:none;stroke-opacity:1" />
    </clipPath>
    <clipPath
       id="clipPath4611"
       clipPathUnits="userSpaceOnUse">
      <circle
         r="92.307434"
         cy="928.3988"
         cx="128"
         id="circle4613"
         style="fill:#597cc3;fill-opacity:1;stroke:none;stroke-width:20;stroke-miterlimit:4;stroke-dasharray:none;stroke-opacity:1" />
    </clipPath>
    <clipPath
       id="clipPath4193"
       clipPathUnits="userSpaceOnUse">
      <circle
         r="128"
         cy="924.36218"
         cx="128"
         id="circle4195"
         style="fill:#cbced2;fill-opacity:1;stroke:none;stroke-width:20;stroke-miterlimit:4;stroke-dasharray:none;stroke-opacity:1" />
    </clipPath>
    <clipPath
       id="clipPath4220"
       clipPathUnits="userSpaceOnUse">
      <ellipse
         style="fill:#573e39;fill-opacity:1;stroke:none;stroke-width:20;stroke-miterlimit:4;stroke-dasharray:none;stroke-opacity:1"
         id="ellipse4222"
         cx="115.07809"
         cy="924.36218"
         rx="115.07809"
         ry="128"
         clip-path="url(#clipPath4193)" />
    </clipPath>
    <clipPath
       id="clipPath4167"
       clipPathUnits="userSpaceOnUse">
      <ellipse
         style="fill:#946a61;fill-opacity:1;stroke:none;stroke-width:20;stroke-miterlimit:4;stroke-dasharray:none;stroke-opacity:1"
         id="ellipse4169"
         cx="115.07809"
         cy="924.36218"
         rx="115.07809"
         ry="128"
         clip-path="url(#clipPath4193)" />
    </clipPath>
    <clipPath
       clipPathUnits="userSpaceOnUse"
       id="clipPath1070">
      <circle
         r="128"
         cy="924.36218"
         cx="128"
         id="circle1072"
         style="fill:#946a61;fill-opacity:1;stroke:none;stroke-width:20;stroke-miterlimit:4;stroke-dasharray:none;stroke-opacity:1" />
    </clipPath>
    <clipPath
       clipPathUnits="userSpaceOnUse"
       id="clipPath1195">
      <rect
         style="fill:#a63030;fill-opacity:1;stroke:none;stroke-width:4.95677614;stroke-miterlimit:4;stroke-dasharray:none;stroke-opacity:1"
         id="rect1197"
         width="41.778461"
         height="197.81656"
         x="0.078387983"
         y="824.2348"
         clip-path="url(#clipPath4220)" />
    </clipPath>
    <clipPath
       clipPathUnits="userSpaceOnUse"
       id="clipPath1195-3">
      <rect
         style="fill:#a63030;fill-opacity:1;stroke:none;stroke-width:4.95677614;stroke-miterlimit:4;stroke-dasharray:none;stroke-opacity:1"
         id="rect1197-6"
         width="41.778461"
         height="197.81656"
         x="0.078387983"
         y="824.2348"
         clip-path="url(#clipPath4220)" />
    </clipPath>
    <clipPath
       clipPathUnits="userSpaceOnUse"
       id="clipPath1464">
      <g
         clip-path="url(#clipPath1070)"
         id="g1572"
         style="font-style:normal;font-weight:normal;line-height:0%;font-family:sans-serif;letter-spacing:0px;word-spacing:0px;fill:#614466;fill-opacity:1;stroke:none;stroke-width:1px;stroke-linecap:butt;stroke-linejoin:miter;stroke-opacity:1"
         aria-label="Abc">
        <g
           style="fill:#614466;fill-opacity:1"
           transform="translate(0,796.36216)"
           id="g1570">
          <g
             style="font-size:90px;line-height:1.25;fill:#614466;fill-opacity:1"
             id="g1566">
            <path
               style="fill:#614466;fill-opacity:1"
               d="M 116.06836,93.173828 V 161.55273 L -25.352996,302.97409 v -68.37891 z"
               id="path1466"
               inkscape:connector-curvature="0" />
            <path
               style="fill:#614466;fill-opacity:1"
               d="m 116.06836,161.55273 h 8.13086 L -17.222136,302.97409 h -8.13086 z"
               id="path1468"
               inkscape:connector-curvature="0" />
            <path
               style="fill:#614466;fill-opacity:1"
               d="m 124.19922,161.55273 v -7.38281 L -17.222136,295.59128 v 7.38281 z"
               id="path1470"
               inkscape:connector-curvature="0" />
            <path
               style="fill:#614466;fill-opacity:1"
               d="m 124.19922,154.16992 c 3.50032,6.00507 9.66975,8.61086 15.73242,8.65625 L -1.4897162,304.24753 c -6.06267,-0.0454 -12.2320998,-2.65118 -15.7324198,-8.65625 z"
               id="path1472"
               inkscape:connector-curvature="0" />
            <path
               style="fill:#614466;fill-opacity:1"
               d="m 139.93164,162.82617 c 5.10113,0 9.37984,-1.72876 12.83737,-5.18629 L 11.347649,299.06124 c -3.4575216,3.45752 -7.7362351,5.18629 -12.8373652,5.18629 z"
               id="path1474"
               inkscape:connector-curvature="0" />
            <path
               style="fill:#614466;fill-opacity:1"
               d="m 152.76901,157.63988 c 0.59336,-0.59336 1.16255,-1.23765 1.70755,-1.93285 L 13.055204,297.12839 c -0.545003,0.6952 -1.114186,1.33948 -1.707555,1.93285 z"
               id="path1476"
               inkscape:connector-curvature="0" />
            <path
               style="fill:#614466;fill-opacity:1"
               d="m 154.47656,155.70703 c 3.75,-4.74609 5.625,-10.98633 5.625,-18.7207 L 18.680204,278.40769 c 0,7.73437 -1.875,13.97461 -5.625,18.7207 z"
               id="path1478"
               inkscape:connector-curvature="0" />
            <path
               style="fill:#614466;fill-opacity:1"
               d="m 160.10156,136.98633 c 0,-7.73438 -1.875,-13.97461 -5.625,-18.72071 L 13.055204,259.68698 c 3.75,4.7461 5.625,10.98633 5.625,18.72071 z"
               id="path1480"
               inkscape:connector-curvature="0" />
            <path
               style="fill:#614466;fill-opacity:1"
               d="m 154.47656,118.26562 c -3.7207,-4.74609 -8.56835,-7.11914 -14.54492,-7.11914 L -1.4897162,252.56784 c 5.97657,0 10.82422,2.37305 14.5449202,7.11914 z"
               id="path1482"
               inkscape:connector-curvature="0" />
            <path
               style="fill:#614466;fill-opacity:1"
               d="m 139.93164,111.14648 c -3.60351,0 -6.70899,0.71875 -9.31641,2.1543 L -10.806126,254.72214 c 2.6074198,-1.43555 5.7128998,-2.1543 9.3164098,-2.1543 z"
               id="path1484"
               inkscape:connector-curvature="0" />
            <path
               style="fill:#614466;fill-opacity:1"
               d="m 130.61523,113.30078 c -1.23535,0.67383 -2.3698,1.52255 -3.40335,2.54616 L -14.20948,257.26829 c 1.033553,-1.02361 2.168005,-1.87233 3.403354,-2.54615 z"
               id="path1486"
               inkscape:connector-curvature="0" />
            <path
               style="fill:#614466;fill-opacity:1"
               d="m 127.21188,115.84694 c -1.12343,1.11262 -2.12765,2.43187 -3.01266,3.95775 L -17.222136,261.22605 c 0.88501,-1.52588 1.889229,-2.84513 3.012656,-3.95776 z"
               id="path1488"
               inkscape:connector-curvature="0" />
            <path
               style="fill:#614466;fill-opacity:1"
               d="M 124.19922,119.80469 V 93.173828 L -17.222136,234.59518 v 26.63087 z"
               id="path1490"
               inkscape:connector-curvature="0" />
            <path
               style="fill:#614466;fill-opacity:1"
               d="M 72.123047,95.941406 47.074219,161.55273 -94.347137,302.97409 -69.298309,237.36276 Z"
               id="path1492"
               inkscape:connector-curvature="0" />
            <path
               style="fill:#614466;fill-opacity:1"
               d="m 47.074219,161.55273 h 9.361328 L -84.985809,302.97409 h -9.361328 z"
               id="path1494"
               inkscape:connector-curvature="0" />
            <path
               style="fill:#614466;fill-opacity:1"
               d="m 56.435547,161.55273 5.976562,-16.83203 -141.421356,141.42136 -5.976562,16.83203 z"
               id="path1496"
               inkscape:connector-curvature="0" />
            <path
               style="fill:#614466;fill-opacity:1"
               d="M 62.412109,144.7207 H 91.986328 L -49.435028,286.14206 h -29.574219 z"
               id="path1498"
               inkscape:connector-curvature="0" />
            <path
               style="fill:#614466;fill-opacity:1"
               d="m 91.986328,144.7207 5.976563,16.83203 -141.421356,141.42136 -5.976563,-16.83203 z"
               id="path1500"
               inkscape:connector-curvature="0" />
            <path
               style="fill:#614466;fill-opacity:1"
               d="m 97.962891,161.55273 h 9.228519 L -34.229946,302.97409 h -9.228519 z"
               id="path1502"
               inkscape:connector-curvature="0" />
            <path
               style="fill:#614466;fill-opacity:1"
               d="M 107.19141,161.55273 82.1875,95.941406 -59.233856,237.36276 l 25.00391,65.61133 z"
               id="path1504"
               inkscape:connector-curvature="0" />
            <path
               style="fill:#614466;fill-opacity:1"
               d="M 77.132812,104.6875 89.21875,137.33789 -52.202606,278.75925 -64.288544,246.10886 Z"
               id="path1506"
               inkscape:connector-curvature="0" />
            <path
               style="fill:#614466;fill-opacity:1"
               d="M 89.21875,137.33789 H 65.091797 L -76.329559,278.75925 h 24.126953 z"
               id="path1508"
               inkscape:connector-curvature="0" />
            <path
               style="fill:#614466;fill-opacity:1"
               d="m 194.73047,111.14648 c -7.50385,0 -13.45282,2.19887 -17.84873,6.59478 L 35.460386,259.16262 c 4.395908,-4.39591 10.344876,-6.59478 17.848728,-6.59478 z"
               id="path1510"
               inkscape:connector-curvature="0" />
            <path
               style="fill:#614466;fill-opacity:1"
               d="m 176.88174,117.74126 c -0.10072,0.10072 -0.20062,0.20259 -0.29971,0.30562 L 35.160674,259.46824 c 0.09909,-0.10303 0.198992,-0.2049 0.299712,-0.30562 z"
               id="path1512"
               inkscape:connector-curvature="0" />
            <path
               style="fill:#614466;fill-opacity:1"
               d="m 176.58203,118.04688 c -4.39453,4.5996 -6.5918,10.9121 -6.5918,18.93945 L 28.568874,278.40769 c 0,-8.02735 2.19727,-14.33985 6.5918,-18.93945 z"
               id="path1514"
               inkscape:connector-curvature="0" />
            <path
               style="fill:#614466;fill-opacity:1"
               d="m 169.99023,136.98633 c 0.89081,16.04338 9.45969,25.66157 24.21289,25.83984 L 52.781764,304.24753 c -14.7532,-0.17827 -23.32208,-9.79646 -24.21289,-25.83984 z"
               id="path1516"
               inkscape:connector-curvature="0" />
            <path
               style="fill:#614466;fill-opacity:1"
               d="m 194.20312,162.82617 c 2.72462,0 5.28907,-0.26367 7.69141,-0.79101 L 60.473174,303.45652 c -2.40234,0.52734 -4.96679,0.79101 -7.69141,0.79101 z"
               id="path1518"
               inkscape:connector-curvature="0" />
            <path
               style="fill:#614466;fill-opacity:1"
               d="m 201.89453,162.03516 c 2.43164,-0.52735 4.77539,-1.31836 7.03125,-2.37305 L 67.504424,301.08347 c -2.25586,1.05469 -4.59961,1.8457 -7.03125,2.37305 z"
               id="path1520"
               inkscape:connector-curvature="0" />
            <path
               style="fill:#614466;fill-opacity:1"
               d="m 208.92578,159.66211 v -7.4707 L 67.504424,293.61277 v 7.4707 z"
               id="path1522"
               inkscape:connector-curvature="0" />
            <path
               style="fill:#614466;fill-opacity:1"
               d="m 208.92578,152.19141 c -2.28515,1.25976 -4.58594,2.21289 -6.90039,2.85742 L 60.604034,296.47019 c 2.31445,-0.64453 4.61524,-1.59766 6.90039,-2.85742 z"
               id="path1524"
               inkscape:connector-curvature="0" />
            <path
               style="fill:#614466;fill-opacity:1"
               d="m 202.02539,155.04883 c -2.28516,0.61523 -4.59961,0.92187 -6.94336,0.92187 L 53.660674,297.39206 c 2.34375,0 4.6582,-0.30664 6.94336,-0.92187 z"
               id="path1526"
               inkscape:connector-curvature="0" />
            <path
               style="fill:#614466;fill-opacity:1"
               d="m 195.08203,155.9707 c -5.24414,0 -9.3164,-1.65429 -12.2168,-4.96484 L 41.443874,292.42722 c 2.9004,3.31055 6.97266,4.96484 12.2168,4.96484 z"
               id="path1528"
               inkscape:connector-curvature="0" />
            <path
               style="fill:#614466;fill-opacity:1"
               d="m 182.86523,151.00586 c -2.90038,-3.33984 -4.34961,-8.01367 -4.34961,-14.01953 L 37.094264,278.40769 c 0,6.00586 1.44923,10.67969 4.34961,14.01953 z"
               id="path1530"
               inkscape:connector-curvature="0" />
            <path
               style="fill:#614466;fill-opacity:1"
               d="m 178.51562,136.98633 c 10e-6,-6.00586 1.44923,-10.66406 4.34961,-13.97461 L 41.443874,264.43308 c -2.90038,3.31055 -4.3496,7.96875 -4.34961,13.97461 z"
               id="path1532"
               inkscape:connector-curvature="0" />
            <path
               style="fill:#614466;fill-opacity:1"
               d="m 182.86523,123.01172 c 0.22426,-0.25823 0.45552,-0.50649 0.69379,-0.74475 L 42.137661,263.68832 c -0.238268,0.23827 -0.469531,0.48652 -0.693787,0.74476 z"
               id="path1534"
               inkscape:connector-curvature="0" />
            <path
               style="fill:#614466;fill-opacity:1"
               d="m 183.55902,122.26697 c 2.84334,-2.84335 6.68434,-4.26502 11.52301,-4.26502 L 53.660674,259.42331 c -4.838667,0 -8.679667,1.42167 -11.523013,4.26501 z"
               id="path1536"
               inkscape:connector-curvature="0" />
            <path
               style="fill:#614466;fill-opacity:1"
               d="m 195.08203,118.00195 c 2.34375,0 4.6582,0.32227 6.94336,0.9668 L 60.604034,260.39011 c -2.28516,-0.64453 -4.59961,-0.9668 -6.94336,-0.9668 z"
               id="path1538"
               inkscape:connector-curvature="0" />
            <path
               style="fill:#614466;fill-opacity:1"
               d="m 202.02539,118.96875 c 2.31445,0.61523 4.61524,1.55273 6.90039,2.8125 L 67.504424,263.20261 c -2.28515,-1.25977 -4.58594,-2.19727 -6.90039,-2.8125 z"
               id="path1540"
               inkscape:connector-curvature="0" />
            <path
               style="fill:#614466;fill-opacity:1"
               d="m 208.92578,121.78125 v -7.55859 L 67.504424,255.64402 v 7.55859 z"
               id="path1542"
               inkscape:connector-curvature="0" />
            <path
               style="fill:#614466;fill-opacity:1"
               d="m 208.92578,114.22266 c -2.22656,-1.0254 -4.52734,-1.78711 -6.90039,-2.28516 L 60.604034,253.35886 c 2.37305,0.49805 4.67383,1.25976 6.90039,2.28516 z"
               id="path1544"
               inkscape:connector-curvature="0" />
            <path
               style="fill:#614466;fill-opacity:1"
               d="m 202.02539,111.9375 c -2.37305,-0.52734 -4.80469,-0.79102 -7.29492,-0.79102 L 53.309114,252.56784 c 2.49023,0 4.92187,0.26368 7.29492,0.79102 z"
               id="path1546"
               inkscape:connector-curvature="0" />
            <path
               style="fill:#614466;fill-opacity:1"
               d="m 148.01758,123.01172 c 2.46094,3.36914 3.6914,8.02734 3.6914,13.97461 L 10.287624,278.40769 c 0,-5.94727 -1.2304602,-10.60547 -3.6914002,-13.97461 z"
               id="path1548"
               inkscape:connector-curvature="0" />
            <path
               style="fill:#614466;fill-opacity:1"
               d="m 151.70898,136.98633 c 0,5.94726 -1.23046,10.6211 -3.6914,14.01953 L 6.5962238,292.42722 c 2.46094,-3.39843 3.6914002,-8.07227 3.6914002,-14.01953 z"
               id="path1550"
               inkscape:connector-curvature="0" />
            <path
               style="fill:#614466;fill-opacity:1"
               d="m 148.01758,151.00586 c -0.43688,0.60532 -0.90358,1.15622 -1.40009,1.65273 L 5.1961346,294.07995 c 0.4965095,-0.49651 0.9632096,-1.04742 1.4000892,-1.65273 z"
               id="path1552"
               inkscape:connector-curvature="0" />
            <path
               style="fill:#614466;fill-opacity:1"
               d="m 146.61749,152.65859 c -2.26703,2.26703 -5.15551,3.4 -8.66437,3.4 L -3.4682362,297.47995 c 3.50886176,0 6.3973442,-1.13298 8.6643708,-3.4 z"
               id="path1554"
               inkscape:connector-curvature="0" />
            <path
               style="fill:#614466;fill-opacity:1"
               d="m 137.95312,156.05859 c -4.27733,0 -7.64648,-1.68359 -10.10742,-5.05273 L -13.575656,292.42722 c 2.46094,3.36914 5.8300898,5.05273 10.1074198,5.05273 z"
               id="path1556"
               inkscape:connector-curvature="0" />
            <path
               style="fill:#614466;fill-opacity:1"
               d="m 127.8457,151.00586 c -2.43164,-3.39843 -3.64648,-8.07227 -3.64648,-14.01953 L -17.222136,278.40769 c 0,5.94726 1.21484,10.6211 3.64648,14.01953 z"
               id="path1558"
               inkscape:connector-curvature="0" />
            <path
               style="fill:#614466;fill-opacity:1"
               d="m 124.19922,136.98633 c 0,-5.94727 1.21484,-10.60547 3.64648,-13.97461 L -13.575656,264.43308 c -2.43164,3.36914 -3.64648,8.02734 -3.64648,13.97461 z"
               id="path1560"
               inkscape:connector-curvature="0" />
            <path
               style="fill:#614466;fill-opacity:1"
               d="m 127.8457,123.01172 c 0.30024,-0.36797 0.61349,-0.71414 0.93818,-1.03883 L -12.63748,263.39425 c -0.324689,0.32469 -0.637935,0.67086 -0.938176,1.03883 z"
               id="path1562"
               inkscape:connector-curvature="0" />
            <path
               style="fill:#614466;fill-opacity:1"
               d="m 128.78388,121.97289 c 5.70031,-5.70031 14.92776,-4.77991 19.2337,1.03883 L 6.5962238,264.43308 C 2.2902802,258.61434 -6.9371683,257.69394 -12.63748,263.39425 Z"
               id="path1564"
               inkscape:connector-curvature="0" />
          </g>
          <path
             style="font-size:90px;line-height:1.25;fill:#614466;fill-opacity:1"
             d="m 116.06836,93.173828 v 68.378902 h 8.13086 v -7.38281 c 3.50032,6.00507 9.66975,8.61086 15.73242,8.65625 5.97657,0 10.82422,-2.37305 14.54492,-7.11914 3.75,-4.74609 5.625,-10.98633 5.625,-18.7207 0,-7.73438 -1.875,-13.97461 -5.625,-18.72071 -3.7207,-4.74609 -8.56835,-7.11914 -14.54492,-7.11914 -3.60351,0 -6.70899,0.71875 -9.31641,2.1543 -2.57812,1.40625 -4.71679,3.57422 -6.41601,6.50391 V 93.173828 Z M 72.123047,95.941406 47.074219,161.55273 h 9.361328 l 5.976562,-16.83203 h 29.574219 l 5.976563,16.83203 h 9.228519 L 82.1875,95.941406 Z m 5.009765,8.746094 12.085938,32.65039 H 65.091797 Z m 117.597658,6.45898 c -7.67578,0 -13.72461,2.30079 -18.14844,6.9004 -4.39453,4.5996 -6.5918,10.9121 -6.5918,18.93945 0.89081,16.04338 9.45969,25.66157 24.21289,25.83984 2.72462,0 5.28907,-0.26367 7.69141,-0.79101 2.43164,-0.52735 4.77539,-1.31836 7.03125,-2.37305 v -7.4707 c -2.28515,1.25976 -4.58594,2.21289 -6.90039,2.85742 -2.28516,0.61523 -4.59961,0.92187 -6.94336,0.92187 -5.24414,0 -9.3164,-1.65429 -12.2168,-4.96484 -2.90038,-3.33984 -4.34961,-8.01367 -4.34961,-14.01953 10e-6,-6.00586 1.44923,-10.66406 4.34961,-13.97461 2.9004,-3.33985 6.97266,-5.00977 12.2168,-5.00977 2.34375,0 4.6582,0.32227 6.94336,0.9668 2.31445,0.61523 4.61524,1.55273 6.90039,2.8125 v -7.55859 c -2.22656,-1.0254 -4.52734,-1.78711 -6.90039,-2.28516 -2.37305,-0.52734 -4.80469,-0.79102 -7.29492,-0.79102 z m -46.71289,11.86524 c 2.46094,3.36914 3.6914,8.02734 3.6914,13.97461 0,5.94726 -1.23046,10.6211 -3.6914,14.01953 -2.43164,3.36914 -5.78711,5.05273 -10.06446,5.05273 -4.27733,0 -7.64648,-1.68359 -10.10742,-5.05273 -2.43164,-3.39843 -3.64648,-8.07227 -3.64648,-14.01953 0,-5.94727 1.21484,-10.60547 3.64648,-13.97461 5.57133,-6.8281 15.62067,-6.15017 20.17188,0 z"
             id="path1568"
             inkscape:connector-curvature="0"
             sodipodi:nodetypes="ccccccscscccccccccccccccccscccccccscccsccccscscscscc" />
        </g>
      </g>
    </clipPath>
    <clipPath
       clipPathUnits="userSpaceOnUse"
       id="clipPath1685">
      <g
         clip-path="url(#clipPath1070)"
         id="g1793"
         style="font-style:normal;font-weight:normal;line-height:0%;font-family:sans-serif;letter-spacing:0px;word-spacing:0px;fill:#614466;fill-opacity:1;stroke:none;stroke-width:1px;stroke-linecap:butt;stroke-linejoin:miter;stroke-opacity:1"
         aria-label="Abc">
        <g
           style="fill:#614466;fill-opacity:1"
           transform="translate(0,796.36216)"
           id="g1791">
          <g
             style="font-size:90px;line-height:1.25;fill:#614466;fill-opacity:1"
             id="g1787">
            <path
               style="fill:#614466;fill-opacity:1"
               d="M 116.06836,93.173828 V 161.55273 L -25.352996,302.97409 v -68.37891 z"
               id="path1687"
               inkscape:connector-curvature="0" />
            <path
               style="fill:#614466;fill-opacity:1"
               d="m 116.06836,161.55273 h 8.13086 L -17.222136,302.97409 h -8.13086 z"
               id="path1689"
               inkscape:connector-curvature="0" />
            <path
               style="fill:#614466;fill-opacity:1"
               d="m 124.19922,161.55273 v -7.38281 L -17.222136,295.59128 v 7.38281 z"
               id="path1691"
               inkscape:connector-curvature="0" />
            <path
               style="fill:#614466;fill-opacity:1"
               d="m 124.19922,154.16992 c 3.50032,6.00507 9.66975,8.61086 15.73242,8.65625 L -1.4897162,304.24753 c -6.06267,-0.0454 -12.2320998,-2.65118 -15.7324198,-8.65625 z"
               id="path1693"
               inkscape:connector-curvature="0" />
            <path
               style="fill:#614466;fill-opacity:1"
               d="m 139.93164,162.82617 c 5.10113,0 9.37984,-1.72876 12.83737,-5.18629 L 11.347649,299.06124 c -3.4575216,3.45752 -7.7362351,5.18629 -12.8373652,5.18629 z"
               id="path1695"
               inkscape:connector-curvature="0" />
            <path
               style="fill:#614466;fill-opacity:1"
               d="m 152.76901,157.63988 c 0.59336,-0.59336 1.16255,-1.23765 1.70755,-1.93285 L 13.055204,297.12839 c -0.545003,0.6952 -1.114186,1.33948 -1.707555,1.93285 z"
               id="path1697"
               inkscape:connector-curvature="0" />
            <path
               style="fill:#614466;fill-opacity:1"
               d="m 154.47656,155.70703 c 3.75,-4.74609 5.625,-10.98633 5.625,-18.7207 L 18.680204,278.40769 c 0,7.73437 -1.875,13.97461 -5.625,18.7207 z"
               id="path1699"
               inkscape:connector-curvature="0" />
            <path
               style="fill:#614466;fill-opacity:1"
               d="m 160.10156,136.98633 c 0,-7.73438 -1.875,-13.97461 -5.625,-18.72071 L 13.055204,259.68698 c 3.75,4.7461 5.625,10.98633 5.625,18.72071 z"
               id="path1701"
               inkscape:connector-curvature="0" />
            <path
               style="fill:#614466;fill-opacity:1"
               d="m 154.47656,118.26562 c -3.7207,-4.74609 -8.56835,-7.11914 -14.54492,-7.11914 L -1.4897162,252.56784 c 5.97657,0 10.82422,2.37305 14.5449202,7.11914 z"
               id="path1703"
               inkscape:connector-curvature="0" />
            <path
               style="fill:#614466;fill-opacity:1"
               d="m 139.93164,111.14648 c -3.60351,0 -6.70899,0.71875 -9.31641,2.1543 L -10.806126,254.72214 c 2.6074198,-1.43555 5.7128998,-2.1543 9.3164098,-2.1543 z"
               id="path1705"
               inkscape:connector-curvature="0" />
            <path
               style="fill:#614466;fill-opacity:1"
               d="m 130.61523,113.30078 c -1.23535,0.67383 -2.3698,1.52255 -3.40335,2.54616 L -14.20948,257.26829 c 1.033553,-1.02361 2.168005,-1.87233 3.403354,-2.54615 z"
               id="path1707"
               inkscape:connector-curvature="0" />
            <path
               style="fill:#614466;fill-opacity:1"
               d="m 127.21188,115.84694 c -1.12343,1.11262 -2.12765,2.43187 -3.01266,3.95775 L -17.222136,261.22605 c 0.88501,-1.52588 1.889229,-2.84513 3.012656,-3.95776 z"
               id="path1709"
               inkscape:connector-curvature="0" />
            <path
               style="fill:#614466;fill-opacity:1"
               d="M 124.19922,119.80469 V 93.173828 L -17.222136,234.59518 v 26.63087 z"
               id="path1711"
               inkscape:connector-curvature="0" />
            <path
               style="fill:#614466;fill-opacity:1"
               d="M 72.123047,95.941406 47.074219,161.55273 -94.347137,302.97409 -69.298309,237.36276 Z"
               id="path1713"
               inkscape:connector-curvature="0" />
            <path
               style="fill:#614466;fill-opacity:1"
               d="m 47.074219,161.55273 h 9.361328 L -84.985809,302.97409 h -9.361328 z"
               id="path1715"
               inkscape:connector-curvature="0" />
            <path
               style="fill:#614466;fill-opacity:1"
               d="m 56.435547,161.55273 5.976562,-16.83203 -141.421356,141.42136 -5.976562,16.83203 z"
               id="path1717"
               inkscape:connector-curvature="0" />
            <path
               style="fill:#614466;fill-opacity:1"
               d="M 62.412109,144.7207 H 91.986328 L -49.435028,286.14206 h -29.574219 z"
               id="path1719"
               inkscape:connector-curvature="0" />
            <path
               style="fill:#614466;fill-opacity:1"
               d="m 91.986328,144.7207 5.976563,16.83203 -141.421356,141.42136 -5.976563,-16.83203 z"
               id="path1721"
               inkscape:connector-curvature="0" />
            <path
               style="fill:#614466;fill-opacity:1"
               d="m 97.962891,161.55273 h 9.228519 L -34.229946,302.97409 h -9.228519 z"
               id="path1723"
               inkscape:connector-curvature="0" />
            <path
               style="fill:#614466;fill-opacity:1"
               d="M 107.19141,161.55273 82.1875,95.941406 -59.233856,237.36276 l 25.00391,65.61133 z"
               id="path1725"
               inkscape:connector-curvature="0" />
            <path
               style="fill:#614466;fill-opacity:1"
               d="M 77.132812,104.6875 89.21875,137.33789 -52.202606,278.75925 -64.288544,246.10886 Z"
               id="path1727"
               inkscape:connector-curvature="0" />
            <path
               style="fill:#614466;fill-opacity:1"
               d="M 89.21875,137.33789 H 65.091797 L -76.329559,278.75925 h 24.126953 z"
               id="path1729"
               inkscape:connector-curvature="0" />
            <path
               style="fill:#614466;fill-opacity:1"
               d="m 194.73047,111.14648 c -7.50385,0 -13.45282,2.19887 -17.84873,6.59478 L 35.460386,259.16262 c 4.395908,-4.39591 10.344876,-6.59478 17.848728,-6.59478 z"
               id="path1731"
               inkscape:connector-curvature="0" />
            <path
               style="fill:#614466;fill-opacity:1"
               d="m 176.88174,117.74126 c -0.10072,0.10072 -0.20062,0.20259 -0.29971,0.30562 L 35.160674,259.46824 c 0.09909,-0.10303 0.198992,-0.2049 0.299712,-0.30562 z"
               id="path1733"
               inkscape:connector-curvature="0" />
            <path
               style="fill:#614466;fill-opacity:1"
               d="m 176.58203,118.04688 c -4.39453,4.5996 -6.5918,10.9121 -6.5918,18.93945 L 28.568874,278.40769 c 0,-8.02735 2.19727,-14.33985 6.5918,-18.93945 z"
               id="path1735"
               inkscape:connector-curvature="0" />
            <path
               style="fill:#614466;fill-opacity:1"
               d="m 169.99023,136.98633 c 0.89081,16.04338 9.45969,25.66157 24.21289,25.83984 L 52.781764,304.24753 c -14.7532,-0.17827 -23.32208,-9.79646 -24.21289,-25.83984 z"
               id="path1737"
               inkscape:connector-curvature="0" />
            <path
               style="fill:#614466;fill-opacity:1"
               d="m 194.20312,162.82617 c 2.72462,0 5.28907,-0.26367 7.69141,-0.79101 L 60.473174,303.45652 c -2.40234,0.52734 -4.96679,0.79101 -7.69141,0.79101 z"
               id="path1739"
               inkscape:connector-curvature="0" />
            <path
               style="fill:#614466;fill-opacity:1"
               d="m 201.89453,162.03516 c 2.43164,-0.52735 4.77539,-1.31836 7.03125,-2.37305 L 67.504424,301.08347 c -2.25586,1.05469 -4.59961,1.8457 -7.03125,2.37305 z"
               id="path1741"
               inkscape:connector-curvature="0" />
            <path
               style="fill:#614466;fill-opacity:1"
               d="m 208.92578,159.66211 v -7.4707 L 67.504424,293.61277 v 7.4707 z"
               id="path1743"
               inkscape:connector-curvature="0" />
            <path
               style="fill:#614466;fill-opacity:1"
               d="m 208.92578,152.19141 c -2.28515,1.25976 -4.58594,2.21289 -6.90039,2.85742 L 60.604034,296.47019 c 2.31445,-0.64453 4.61524,-1.59766 6.90039,-2.85742 z"
               id="path1745"
               inkscape:connector-curvature="0" />
            <path
               style="fill:#614466;fill-opacity:1"
               d="m 202.02539,155.04883 c -2.28516,0.61523 -4.59961,0.92187 -6.94336,0.92187 L 53.660674,297.39206 c 2.34375,0 4.6582,-0.30664 6.94336,-0.92187 z"
               id="path1747"
               inkscape:connector-curvature="0" />
            <path
               style="fill:#614466;fill-opacity:1"
               d="m 195.08203,155.9707 c -5.24414,0 -9.3164,-1.65429 -12.2168,-4.96484 L 41.443874,292.42722 c 2.9004,3.31055 6.97266,4.96484 12.2168,4.96484 z"
               id="path1749"
               inkscape:connector-curvature="0" />
            <path
               style="fill:#614466;fill-opacity:1"
               d="m 182.86523,151.00586 c -2.90038,-3.33984 -4.34961,-8.01367 -4.34961,-14.01953 L 37.094264,278.40769 c 0,6.00586 1.44923,10.67969 4.34961,14.01953 z"
               id="path1751"
               inkscape:connector-curvature="0" />
            <path
               style="fill:#614466;fill-opacity:1"
               d="m 178.51562,136.98633 c 10e-6,-6.00586 1.44923,-10.66406 4.34961,-13.97461 L 41.443874,264.43308 c -2.90038,3.31055 -4.3496,7.96875 -4.34961,13.97461 z"
               id="path1753"
               inkscape:connector-curvature="0" />
            <path
               style="fill:#614466;fill-opacity:1"
               d="m 182.86523,123.01172 c 0.22426,-0.25823 0.45552,-0.50649 0.69379,-0.74475 L 42.137661,263.68832 c -0.238268,0.23827 -0.469531,0.48652 -0.693787,0.74476 z"
               id="path1755"
               inkscape:connector-curvature="0" />
            <path
               style="fill:#614466;fill-opacity:1"
               d="m 183.55902,122.26697 c 2.84334,-2.84335 6.68434,-4.26502 11.52301,-4.26502 L 53.660674,259.42331 c -4.838667,0 -8.679667,1.42167 -11.523013,4.26501 z"
               id="path1757"
               inkscape:connector-curvature="0" />
            <path
               style="fill:#614466;fill-opacity:1"
               d="m 195.08203,118.00195 c 2.34375,0 4.6582,0.32227 6.94336,0.9668 L 60.604034,260.39011 c -2.28516,-0.64453 -4.59961,-0.9668 -6.94336,-0.9668 z"
               id="path1759"
               inkscape:connector-curvature="0" />
            <path
               style="fill:#614466;fill-opacity:1"
               d="m 202.02539,118.96875 c 2.31445,0.61523 4.61524,1.55273 6.90039,2.8125 L 67.504424,263.20261 c -2.28515,-1.25977 -4.58594,-2.19727 -6.90039,-2.8125 z"
               id="path1761"
               inkscape:connector-curvature="0" />
            <path
               style="fill:#614466;fill-opacity:1"
               d="m 208.92578,121.78125 v -7.55859 L 67.504424,255.64402 v 7.55859 z"
               id="path1763"
               inkscape:connector-curvature="0" />
            <path
               style="fill:#614466;fill-opacity:1"
               d="m 208.92578,114.22266 c -2.22656,-1.0254 -4.52734,-1.78711 -6.90039,-2.28516 L 60.604034,253.35886 c 2.37305,0.49805 4.67383,1.25976 6.90039,2.28516 z"
               id="path1765"
               inkscape:connector-curvature="0" />
            <path
               style="fill:#614466;fill-opacity:1"
               d="m 202.02539,111.9375 c -2.37305,-0.52734 -4.80469,-0.79102 -7.29492,-0.79102 L 53.309114,252.56784 c 2.49023,0 4.92187,0.26368 7.29492,0.79102 z"
               id="path1767"
               inkscape:connector-curvature="0" />
            <path
               style="fill:#614466;fill-opacity:1"
               d="m 148.01758,123.01172 c 2.46094,3.36914 3.6914,8.02734 3.6914,13.97461 L 10.287624,278.40769 c 0,-5.94727 -1.2304602,-10.60547 -3.6914002,-13.97461 z"
               id="path1769"
               inkscape:connector-curvature="0" />
            <path
               style="fill:#614466;fill-opacity:1"
               d="m 151.70898,136.98633 c 0,5.94726 -1.23046,10.6211 -3.6914,14.01953 L 6.5962238,292.42722 c 2.46094,-3.39843 3.6914002,-8.07227 3.6914002,-14.01953 z"
               id="path1771"
               inkscape:connector-curvature="0" />
            <path
               style="fill:#614466;fill-opacity:1"
               d="m 148.01758,151.00586 c -0.43688,0.60532 -0.90358,1.15622 -1.40009,1.65273 L 5.1961346,294.07995 c 0.4965095,-0.49651 0.9632096,-1.04742 1.4000892,-1.65273 z"
               id="path1773"
               inkscape:connector-curvature="0" />
            <path
               style="fill:#614466;fill-opacity:1"
               d="m 146.61749,152.65859 c -2.26703,2.26703 -5.15551,3.4 -8.66437,3.4 L -3.4682362,297.47995 c 3.50886176,0 6.3973442,-1.13298 8.6643708,-3.4 z"
               id="path1775"
               inkscape:connector-curvature="0" />
            <path
               style="fill:#614466;fill-opacity:1"
               d="m 137.95312,156.05859 c -4.27733,0 -7.64648,-1.68359 -10.10742,-5.05273 L -13.575656,292.42722 c 2.46094,3.36914 5.8300898,5.05273 10.1074198,5.05273 z"
               id="path1777"
               inkscape:connector-curvature="0" />
            <path
               style="fill:#614466;fill-opacity:1"
               d="m 127.8457,151.00586 c -2.43164,-3.39843 -3.64648,-8.07227 -3.64648,-14.01953 L -17.222136,278.40769 c 0,5.94726 1.21484,10.6211 3.64648,14.01953 z"
               id="path1779"
               inkscape:connector-curvature="0" />
            <path
               style="fill:#614466;fill-opacity:1"
               d="m 124.19922,136.98633 c 0,-5.94727 1.21484,-10.60547 3.64648,-13.97461 L -13.575656,264.43308 c -2.43164,3.36914 -3.64648,8.02734 -3.64648,13.97461 z"
               id="path1781"
               inkscape:connector-curvature="0" />
            <path
               style="fill:#614466;fill-opacity:1"
               d="m 127.8457,123.01172 c 0.30024,-0.36797 0.61349,-0.71414 0.93818,-1.03883 L -12.63748,263.39425 c -0.324689,0.32469 -0.637935,0.67086 -0.938176,1.03883 z"
               id="path1783"
               inkscape:connector-curvature="0" />
            <path
               style="fill:#614466;fill-opacity:1"
               d="m 128.78388,121.97289 c 5.70031,-5.70031 14.92776,-4.77991 19.2337,1.03883 L 6.5962238,264.43308 C 2.2902802,258.61434 -6.9371683,257.69394 -12.63748,263.39425 Z"
               id="path1785"
               inkscape:connector-curvature="0" />
          </g>
          <path
             style="font-size:90px;line-height:1.25;fill:#614466;fill-opacity:1"
             d="m 116.06836,93.173828 v 68.378902 h 8.13086 v -7.38281 c 3.50032,6.00507 9.66975,8.61086 15.73242,8.65625 5.97657,0 10.82422,-2.37305 14.54492,-7.11914 3.75,-4.74609 5.625,-10.98633 5.625,-18.7207 0,-7.73438 -1.875,-13.97461 -5.625,-18.72071 -3.7207,-4.74609 -8.56835,-7.11914 -14.54492,-7.11914 -3.60351,0 -6.70899,0.71875 -9.31641,2.1543 -2.57812,1.40625 -4.71679,3.57422 -6.41601,6.50391 V 93.173828 Z M 72.123047,95.941406 47.074219,161.55273 h 9.361328 l 5.976562,-16.83203 h 29.574219 l 5.976563,16.83203 h 9.228519 L 82.1875,95.941406 Z m 5.009765,8.746094 12.085938,32.65039 H 65.091797 Z m 117.597658,6.45898 c -7.67578,0 -13.72461,2.30079 -18.14844,6.9004 -4.39453,4.5996 -6.5918,10.9121 -6.5918,18.93945 0.89081,16.04338 9.45969,25.66157 24.21289,25.83984 2.72462,0 5.28907,-0.26367 7.69141,-0.79101 2.43164,-0.52735 4.77539,-1.31836 7.03125,-2.37305 v -7.4707 c -2.28515,1.25976 -4.58594,2.21289 -6.90039,2.85742 -2.28516,0.61523 -4.59961,0.92187 -6.94336,0.92187 -5.24414,0 -9.3164,-1.65429 -12.2168,-4.96484 -2.90038,-3.33984 -4.34961,-8.01367 -4.34961,-14.01953 10e-6,-6.00586 1.44923,-10.66406 4.34961,-13.97461 2.9004,-3.33985 6.97266,-5.00977 12.2168,-5.00977 2.34375,0 4.6582,0.32227 6.94336,0.9668 2.31445,0.61523 4.61524,1.55273 6.90039,2.8125 v -7.55859 c -2.22656,-1.0254 -4.52734,-1.78711 -6.90039,-2.28516 -2.37305,-0.52734 -4.80469,-0.79102 -7.29492,-0.79102 z m -46.71289,11.86524 c 2.46094,3.36914 3.6914,8.02734 3.6914,13.97461 0,5.94726 -1.23046,10.6211 -3.6914,14.01953 -2.43164,3.36914 -5.78711,5.05273 -10.06446,5.05273 -4.27733,0 -7.64648,-1.68359 -10.10742,-5.05273 -2.43164,-3.39843 -3.64648,-8.07227 -3.64648,-14.01953 0,-5.94727 1.21484,-10.60547 3.64648,-13.97461 5.57133,-6.8281 15.62067,-6.15017 20.17188,0 z"
             id="path1789"
             inkscape:connector-curvature="0"
             sodipodi:nodetypes="ccccccscscccccccccccccccccscccccccscccsccccscscscscc" />
        </g>
      </g>
    </clipPath>
  </defs>
  <metadata
     id="metadata4154">
    <rdf:RDF>
      <cc:Work
         rdf:about="">
        <dc:format>image/svg+xml</dc:format>
        <dc:type
           rdf:resource="http://purl.org/dc/dcmitype/StillImage" />
        <dc:title />
      </cc:Work>
    </rdf:RDF>
  </metadata>
  <g
     inkscape:label="Layer 1"
     inkscape:groupmode="layer"
     id="layer1"
     transform="translate(0,-796.36216)">
    <path
       style="fill:#654869;fill-opacity:1;stroke:none;stroke-width:20;stroke-miterlimit:4;stroke-dasharray:none;stroke-opacity:1"
       d="M 128 0 A 128 128 0 0 0 38.857422 36.146484 L 38.857422 219.67383 A 128 128 0 0 0 128 256 A 128 128 0 0 0 256 128 A 128 128 0 0 0 128 0 z M 28.857422 47.175781 A 128 128 0 0 0 0 128 A 128 128 0 0 0 28.857422 208.8457 L 28.857422 47.175781 z M 128.06836 81.058594 L 137.61328 81.058594 L 137.61328 112.32227 C 139.60803 108.88304 142.11801 106.33832 145.14453 104.6875 C 148.20544 103.00228 151.84983 102.1582 156.08008 102.1582 C 163.0961 102.1582 168.78844 104.94409 173.15625 110.51562 C 177.55846 116.08718 179.75977 123.41263 179.75977 132.49219 C 179.75977 141.57174 177.55846 148.89721 173.15625 154.46875 C 168.78844 160.04029 163.0961 162.82617 156.08008 162.82617 C 151.84983 162.82617 148.20544 162.00043 145.14453 160.34961 C 142.11801 158.66439 139.60803 156.10329 137.61328 152.66406 L 137.61328 161.33008 L 128.06836 161.33008 L 128.06836 81.058594 z M 76.480469 84.308594 L 88.292969 84.308594 L 117.64844 161.33008 L 106.81445 161.33008 L 99.798828 141.57227 L 65.078125 141.57227 L 58.0625 161.33008 L 47.074219 161.33008 L 76.480469 84.308594 z M 82.361328 94.576172 L 68.226562 132.90625 L 96.548828 132.90625 L 82.361328 94.576172 z M 220.41211 102.1582 C 223.33545 102.1582 226.18884 102.46883 228.97461 103.08789 C 231.76038 103.67256 234.46041 104.5658 237.07422 105.76953 L 237.07422 114.64258 C 234.39163 113.16371 231.6916 112.06403 228.97461 111.3418 C 226.29201 110.58516 223.57559 110.20703 220.82422 110.20703 C 214.66801 110.20703 209.88726 112.16717 206.48242 116.08789 C 203.07759 119.97421 201.375 125.44178 201.375 132.49219 C 201.375 139.5426 203.07759 145.02851 206.48242 148.94922 C 209.88726 152.83554 214.66801 154.7793 220.82422 154.7793 C 223.57559 154.7793 226.29201 154.41755 228.97461 153.69531 C 231.6916 152.93869 234.39163 151.82066 237.07422 150.3418 L 237.07422 159.11133 C 234.42601 160.34945 231.67487 161.27937 228.82031 161.89844 C 226.00015 162.51749 222.99145 162.82617 219.79297 162.82617 C 211.09173 162.82617 204.17913 160.09336 199.05469 154.625 C 193.93024 149.15663 191.36719 141.77809 191.36719 132.49219 C 191.36719 123.06871 193.94664 115.65739 199.10547 110.25781 C 204.2987 104.85823 211.40134 102.1582 220.41211 102.1582 z M 153.75977 110.10352 C 148.7385 110.10352 144.78348 112.09839 141.89453 116.08789 C 139.03998 120.043 137.61328 125.51056 137.61328 132.49219 C 137.61328 139.47382 139.03998 144.95972 141.89453 148.94922 C 144.78348 152.90433 148.7385 154.88281 153.75977 154.88281 C 158.78104 154.88281 162.71771 152.90433 165.57227 148.94922 C 168.46122 144.95972 169.90625 139.47382 169.90625 132.49219 C 169.90625 125.51056 168.46122 120.043 165.57227 116.08789 C 162.71771 112.09839 158.78104 110.10352 153.75977 110.10352 z "
       transform="translate(0,796.36216)"
       id="path4723" />
    <g
       id="text4152"
       style="font-style:normal;font-weight:normal;line-height:0%;font-family:sans-serif;letter-spacing:0px;word-spacing:0px;fill:#ffffff;fill-opacity:1;stroke:none;stroke-width:1px;stroke-linecap:butt;stroke-linejoin:miter;stroke-opacity:1"
       aria-label="Abc"
       transform="matrix(1.1739222,0,0,1.1739222,-8.1873388,-166.82428)" />
  </g>
</svg>
