<?xml version="1.0" encoding="UTF-8" standalone="no"?>
<!-- Created with Inkscape (http://www.inkscape.org/) -->

<svg
   xmlns:dc="http://purl.org/dc/elements/1.1/"
   xmlns:cc="http://creativecommons.org/ns#"
   xmlns:rdf="http://www.w3.org/1999/02/22-rdf-syntax-ns#"
   xmlns:svg="http://www.w3.org/2000/svg"
   xmlns="http://www.w3.org/2000/svg"
   xmlns:sodipodi="http://sodipodi.sourceforge.net/DTD/sodipodi-0.dtd"
   xmlns:inkscape="http://www.inkscape.org/namespaces/inkscape"
   sodipodi:docname="appimagekit-medleytext.svg"
   inkscape:version="0.92.2 (5c3e80d, 2017-08-06)"
   version="1.1"
   id="svg2"
   viewBox="0 0 256 256"
   height="256"
   width="256">
  <sodipodi:namedview
     inkscape:window-maximized="1"
     inkscape:window-y="0"
     inkscape:window-x="0"
     inkscape:window-height="1048"
     inkscape:window-width="1920"
     units="px"
     showgrid="true"
     inkscape:current-layer="layer1"
     inkscape:document-units="px"
     inkscape:cy="128"
     inkscape:cx="109.88679"
     inkscape:zoom="3.3125"
     inkscape:pageshadow="2"
     inkscape:pageopacity="0.0"
     borderopacity="1.0"
     bordercolor="#666666"
     pagecolor="#ffffff"
     id="base">
    <inkscape:grid
       type="xygrid"
       id="grid4168"
       spacingx="5"
       spacingy="5" />
  </sodipodi:namedview>
  <defs
     id="defs4">
    <clipPath
       clipPathUnits="userSpaceOnUse"
       id="clipPath5002">
      <g
         id="g5004">
        <path
           transform="translate(0,796.36216)"
           inkscape:connector-curvature="0"
           id="path5006"
           d="M 88.118406,249.43519 C 46.103287,235.29134 14.771284,201.68742 4.1335861,159.36053 1.3377997,148.23623 0.92261224,144.16281 0.92582381,127.88908 0.92787958,117.47222 1.134384,112.01362 1.6577819,108.54099 4.4653598,89.913336 12.17654,70.638106 23.042737,55.086148 c 3.958678,-5.665755 8.344812,-10.93092 9.101533,-10.925587 0.32809,0.0023 10.488643,18.309713 22.579009,40.683112 12.090365,22.373397 22.374546,41.334697 22.853732,42.136217 0.479186,0.80151 0.924733,2.44098 0.990103,3.64326 0.343424,6.31639 2.524175,14.20976 5.6424,20.42304 2.954444,5.88693 5.065381,8.73258 10.434696,14.06652 6.71418,6.66995 12.88853,10.28643 21.73204,12.72904 3.16587,0.87442 5.10478,1.05037 11.57517,1.05037 8.82596,0 12.60219,-0.76201 19.26429,-3.88733 2.04584,-0.95974 3.93661,-1.66536 4.20172,-1.56805 0.2651,0.0973 -11.0555,17.66459 -25.1569,39.0384 l -25.6389,38.86148 -3.094121,0.11221 c -2.554618,0.0927 -4.195204,-0.25845 -9.409103,-2.01364 z"
           style="fill:#0f9d58;fill-opacity:1;stroke:none;stroke-width:4.85768509;stroke-linejoin:round;stroke-miterlimit:4;stroke-dasharray:none;stroke-opacity:1" />
        <path
           inkscape:connector-curvature="0"
           id="path5008"
           d="m 112.35984,1051.5167 c -10.0014,-1.4495 -12.15632,-1.8201 -12.531784,-2.1556 -0.248854,-0.2223 1.738304,-3.7475 4.550294,-8.0722 7.16635,-11.0213 49.77231,-74.64801 50.25856,-75.05489 3.57509,-2.99158 8.63523,-8.0414 10.57512,-10.55356 3.36154,-4.35318 7.55784,-12.9141 9.06523,-18.494 6.19314,-22.92535 -2.59253,-47.15185 -21.69967,-59.83688 l -2.96081,-1.96565 17.02469,0.29584 c 9.36358,0.1627 31.17032,0.43384 48.45941,0.60252 l 31.43471,0.30668 1.54584,4.18869 c 2.24597,6.08579 4.67816,15.0947 5.93451,21.9816 1.52517,8.36049 1.92536,28.85896 0.73851,37.82758 -3.0805,23.27845 -12.81326,45.72018 -27.80202,64.10577 -20.47622,25.1166 -51.4599,42.1974 -84.14612,46.3885 -5.31244,0.6812 -26.64601,0.9864 -30.44647,0.4356 z"
           style="fill:#f4b400;fill-opacity:1;stroke:none;stroke-width:4.85768509;stroke-linejoin:round;stroke-miterlimit:4;stroke-dasharray:none;stroke-opacity:1" />
        <path
           transform="translate(0,796.36216)"
           inkscape:connector-curvature="0"
           id="path5010"
           d="M 67.989788,108.87302 C 41.284246,59.575543 33.290284,45.149038 32.233625,44.344765 31.651257,43.901497 32.811213,42.549931 38.695603,36.815353 53.43581,22.450419 68.809334,13.040746 87.839196,6.7360352 101.68742,2.1480329 112.58238,0.43719165 127.95142,0.43719165 c 21.3099,0 37.80488,3.80960275 56.83492,13.12633035 25.29351,12.383198 46.19421,33.578863 58.51993,59.345832 1.61138,3.368591 2.92978,6.372442 2.92978,6.675231 0,0.560033 -10.54865,0.49527 -71.16508,-0.436914 l -24.28843,-0.373518 -3.93063,-1.764495 c -6.75732,-3.033425 -10.64587,-3.839529 -18.6576,-3.867747 -5.0296,-0.01773 -7.97946,0.207636 -10.31642,0.788106 -14.50826,3.603659 -26.283291,12.94777 -33.291614,26.418653 -3.58502,6.89086 -5.24713,13.08166 -6.331628,23.58317 l -0.33738,3.26696 -9.92748,-18.32578 z"
           style="fill:#db4437;fill-opacity:1;stroke:none;stroke-width:10;stroke-linejoin:round;stroke-miterlimit:4;stroke-dasharray:none;stroke-opacity:1" />
      </g>
    </clipPath>
    <clipPath
       id="clipPath4271"
       clipPathUnits="userSpaceOnUse">
      <circle
         r="128"
         cy="128.00002"
         cx="128"
         id="circle4273"
         style="fill:#292929;fill-opacity:0.26020412;stroke:none;stroke-width:10;stroke-linejoin:round;stroke-miterlimit:4;stroke-dasharray:none;stroke-opacity:0.25882353" />
    </clipPath>
    <clipPath
       clipPathUnits="userSpaceOnUse"
       id="clipPath4363">
      <circle
         r="128"
         cy="924.36218"
         cx="128"
         id="circle4365"
         style="fill:#4285f4;fill-opacity:1;stroke:none;stroke-width:10;stroke-linejoin:round;stroke-miterlimit:4;stroke-dasharray:none;stroke-opacity:0.25882353" />
    </clipPath>
    <clipPath
       id="clipPath4452"
       clipPathUnits="userSpaceOnUse">
      <circle
         r="128"
         cy="924.36218"
         cx="128"
         id="circle4454"
         style="fill:#4285f4;fill-opacity:1;stroke:none;stroke-width:10;stroke-linejoin:round;stroke-miterlimit:4;stroke-dasharray:none;stroke-opacity:0.25882353" />
    </clipPath>
    <clipPath
       clipPathUnits="userSpaceOnUse"
       id="clipPath5177">
      <circle
         r="128"
         cy="924.36218"
         cx="128"
         id="circle5179"
         style="fill:#4285f4;fill-opacity:1;stroke:none;stroke-width:10;stroke-linejoin:round;stroke-miterlimit:4;stroke-dasharray:none;stroke-opacity:0.25882353" />
    </clipPath>
    <clipPath
       id="clipPath4342"
       clipPathUnits="userSpaceOnUse">
      <circle
         r="128"
         cy="933.48718"
         cx="128"
         id="circle4344"
         style="fill:#4285f4;fill-opacity:1;stroke:none;stroke-width:10;stroke-linejoin:round;stroke-miterlimit:4;stroke-dasharray:none;stroke-opacity:0.25882353" />
    </clipPath>
    <clipPath
       clipPathUnits="userSpaceOnUse"
       id="clipPath4681">
      <circle
         r="128"
         cy="930.43964"
         cx="127.00293"
         id="circle4683"
         style="fill:#9d5fad;fill-opacity:1;stroke:none;stroke-width:10;stroke-linejoin:round;stroke-miterlimit:4;stroke-dasharray:none;stroke-opacity:0.25882353" />
    </clipPath>
    <clipPath
       id="clipPath4235"
       clipPathUnits="userSpaceOnUse">
      <circle
         r="128"
         cy="924.36218"
         cx="128"
         id="circle4237"
         style="fill:#0f9d58;fill-opacity:1;stroke:none;stroke-width:10;stroke-linejoin:round;stroke-miterlimit:4;stroke-dasharray:none;stroke-opacity:0.25882353" />
    </clipPath>
    <clipPath
       clipPathUnits="userSpaceOnUse"
       id="clipPath4771">
      <circle
         r="128"
         cy="924.36218"
         cx="128"
         id="circle4773"
         style="fill:#0f9d58;fill-opacity:1;stroke:none;stroke-width:10;stroke-linejoin:round;stroke-miterlimit:4;stroke-dasharray:none;stroke-opacity:0.25882353" />
    </clipPath>
    <clipPath
       id="clipPath4842"
       clipPathUnits="userSpaceOnUse">
      <circle
         r="128"
         cy="924.36218"
         cx="128"
         id="circle4844"
         style="fill:#0f9d58;fill-opacity:1;stroke:none;stroke-width:10;stroke-linejoin:round;stroke-miterlimit:4;stroke-dasharray:none;stroke-opacity:0.25882353" />
    </clipPath>
    <clipPath
       clipPathUnits="userSpaceOnUse"
       id="clipPath4458">
      <circle
         r="128"
         cy="924.36218"
         cx="128"
         id="circle4460"
         style="fill:#ff3b38;fill-opacity:1;stroke:none;stroke-width:10;stroke-linejoin:round;stroke-miterlimit:4;stroke-dasharray:none;stroke-opacity:0.25882353" />
    </clipPath>
    <clipPath
       id="clipPath4783"
       clipPathUnits="userSpaceOnUse">
      <circle
         r="128"
         cy="924.36218"
         cx="128"
         id="circle4785"
         style="fill:#ff3b38;fill-opacity:1;stroke:none;stroke-width:10;stroke-linejoin:round;stroke-miterlimit:4;stroke-dasharray:none;stroke-opacity:0.25882353" />
    </clipPath>
    <clipPath
       clipPathUnits="userSpaceOnUse"
       id="clipPath4789">
      <circle
         r="128"
         cy="924.36218"
         cx="102.64714"
         id="circle4791"
         style="fill:#80b4ff;fill-opacity:1;stroke:none;stroke-width:10;stroke-linejoin:round;stroke-miterlimit:4;stroke-dasharray:none;stroke-opacity:0.25882353" />
    </clipPath>
    <clipPath
       id="clipPath4721"
       clipPathUnits="userSpaceOnUse">
      <circle
         r="128"
         cy="924.36218"
         cx="128"
         id="circle4723"
         style="fill:#557ae6;fill-opacity:1;stroke:none;stroke-width:10;stroke-linejoin:round;stroke-miterlimit:4;stroke-dasharray:none;stroke-opacity:0.25882353" />
    </clipPath>
    <clipPath
       clipPathUnits="userSpaceOnUse"
       id="clipPath4491">
      <circle
         r="128"
         cy="924.36218"
         cx="128"
         id="circle4493"
         style="fill:#990000;fill-opacity:1;stroke:none;stroke-width:10;stroke-linejoin:round;stroke-miterlimit:4;stroke-dasharray:none;stroke-opacity:0.25882353" />
    </clipPath>
    <clipPath
       id="clipPath1102"
       clipPathUnits="userSpaceOnUse">
      <circle
         r="128"
         cy="924.36218"
         cx="128"
         id="circle1104"
         style="fill:#b40000;fill-opacity:1;stroke:none;stroke-width:10;stroke-linejoin:round;stroke-miterlimit:4;stroke-dasharray:none;stroke-opacity:0.25882353" />
    </clipPath>
    <clipPath
       id="clipPath1102-3"
       clipPathUnits="userSpaceOnUse">
      <circle
         r="128"
         cy="924.36218"
         cx="128"
         id="circle1104-6"
         style="fill:#b40000;fill-opacity:1;stroke:none;stroke-width:10;stroke-linejoin:round;stroke-miterlimit:4;stroke-dasharray:none;stroke-opacity:0.25882353" />
    </clipPath>
    <clipPath
       clipPathUnits="userSpaceOnUse"
       id="clipPath4915">
      <circle
         id="circle4917"
         cx="128"
         cy="924.36218"
         style="fill:#d14d56;fill-opacity:1;stroke-width:11.44866753"
         r="128" />
    </clipPath>
  </defs>
  <metadata
     id="metadata7">
    <rdf:RDF>
      <cc:Work
         rdf:about="">
        <dc:format>image/svg+xml</dc:format>
        <dc:type
           rdf:resource="http://purl.org/dc/dcmitype/StillImage" />
        <dc:title />
      </cc:Work>
    </rdf:RDF>
  </metadata>
  <g
     transform="translate(0,-796.36216)"
     id="layer1"
     inkscape:groupmode="layer"
     inkscape:label="Layer 1">
    <circle
       r="128"
       style="stroke-width:11.44866753;fill:#d14d56;fill-opacity:1"
       cy="924.36218"
       cx="128"
       id="path3766" />
    <g
       id="g4786"
       clip-path="url(#clipPath4915)"
       style="fill:#9e2831;fill-opacity:1">
      <g
         id="g4783"
         style="fill:#9e2831;fill-opacity:1;stroke:none;stroke-width:10;stroke-linejoin:round;stroke-miterlimit:4;stroke-dasharray:none;stroke-opacity:0.25882353">
        <path
           id="path4629"
           d="M131.7523 836.9265C131.05836 836.9335 130.41363 836.9579 129.86363 837.0027L-11.5577262373 978.424056237C-11.0077262373 978.379256237 -10.3629962373 978.354856237 -9.66905623731 978.347856237Z"
           style="fill:#9e2831;fill-opacity:1" />
        <path
           id="path4631"
           d="M129.86363 837.0027L125.86363 837.32887L-15.5577262373 978.750226237L-11.5577262373 978.424056237Z"
           style="fill:#9e2831;fill-opacity:1" />
        <path
           id="path4633"
           d="M125.86363 837.32887L125.58629 852.26051L-15.8350662373 993.681866237L-15.5577262373 978.750226237Z"
           style="fill:#9e2831;fill-opacity:1" />
        <path
           id="path4635"
           d="M125.58629 852.26051C125.42017 861.19019 124.86792 867.72166 124.21324 868.51051L-17.2081162373 1009.93186624C-16.5534362373 1009.14301624 -16.0011862373 1002.61154624 -15.8350662373 993.681866237Z"
           style="fill:#9e2831;fill-opacity:1" />
        <path
           id="path4637"
           d="M124.21324 868.51051C124.169196092 868.563579252 124.122194933 868.615022324 124.072383254 868.664834002L-17.3489729829 1010.08619024C-17.2991613047 1010.03637856 -17.2521601456 1009.98493549 -17.2081162373 1009.93186624Z"
           style="fill:#9e2831;fill-opacity:1" />
        <path
           id="path4639"
           d="M124.072383254 868.664834002C122.640926624 870.096290632 118.888440964 870.180483211 116.29722 868.79371L-25.1241362373 1010.21506624C-22.5329152736 1011.60183945 -18.7804296128 1011.51764687 -17.3489729829 1010.08619024Z"
           style="fill:#9e2831;fill-opacity:1" />
        <path
           id="path4641"
           d="M116.29722 868.79371C114.52067 867.84292 114.36363 866.57017 114.36363 853.18043L-27.0577262373 994.601786237C-27.0577262373 1007.99152624 -26.9006862373 1009.26427624 -25.1241362373 1010.21506624Z"
           style="fill:#9e2831;fill-opacity:1" />
        <path
           id="path4643"
           d="M114.36363 853.18043L114.36363 838.60228L-27.0577262373 980.023636237L-27.0577262373 994.601786237Z"
           style="fill:#9e2831;fill-opacity:1" />
        <path
           id="path4645"
           d="M114.36363 838.60228L109.63511 839.31126L-31.7862462373 980.732616237L-27.0577262373 980.023636237Z"
           style="fill:#9e2831;fill-opacity:1" />
        <path
           id="path4647"
           d="M109.63511 839.31126C97.8320502099 841.081234419 82.2485961862 849.765909935 71.4103111508 860.60419497L-70.0110450865 1002.02555121C-59.1727600511 991.187266172 -43.5893060274 982.502590656 -31.7862462373 980.732616237Z"
           style="fill:#9e2831;fill-opacity:1" />
        <path
           id="path4649"
           d="M71.4103111508 860.60419497C71.3745162407 860.63998988 71.3387730881 860.675808281 71.303082 860.71165L-70.1182742373 1002.13300624C-70.0825831493 1002.09716452 -70.0468399966 1002.06134612 -70.0110450865 1002.02555121Z"
           style="fill:#9e2831;fill-opacity:1" />
        <path
           id="path4651"
           d="M71.303082 860.71165C60.796652 871.26243 53.607897 885.33893 51.762067 898.97923L-89.6592892373 1040.40058624C-87.8134592373 1026.76028624 -80.6247042373 1012.68378624 -70.1182742373 1002.13300624Z"
           style="fill:#9e2831;fill-opacity:1" />
        <path
           id="path4653"
           d="M51.762067 898.97923L51.131207 903.63157L-90.2901492373 1045.05292624L-89.6592892373 1040.40058624Z"
           style="fill:#9e2831;fill-opacity:1" />
        <path
           id="path4655"
           d="M51.131207 903.63157L57.998395 896.92064L-83.4229612373 1038.34199624L-90.2901492373 1045.05292624Z"
           style="fill:#9e2831;fill-opacity:1" />
        <path
           id="path4657"
           d="M57.998395 896.92064C69.314255 885.86113 82.763235 881.04286 98.998399 882.22923L-42.4229572373 1023.65058624C-58.6581212373 1022.46421624 -72.1071012373 1027.28248624 -83.4229612373 1038.34199624Z"
           style="fill:#9e2831;fill-opacity:1" />
        <path
           id="path4659"
           d="M98.998399 882.22923C118.21626 883.63356 133.0313 892.34154 140.79136 906.79759L-0.62999623731 1048.21894624C-8.39005623731 1033.76289624 -23.2050962373 1025.05491624 -42.4229572373 1023.65058624Z"
           style="fill:#9e2831;fill-opacity:1" />
        <path
           id="path4661"
           d="M140.79136 906.79759C143.11127 911.11931 143.81387 913.89131 144.17613 920.14915L2.75477376269 1061.57050624C2.39251376269 1055.31266624 1.68991376269 1052.54066624 -0.62999623731 1048.21894624Z"
           style="fill:#9e2831;fill-opacity:1" />
        <path
           id="path4663"
           d="M144.17613 920.14915C144.77079 930.42152 143.17906 937.04743 138.48863 943.82884L-2.93272623731 1085.25019624C1.75770376269 1078.46878624 3.34943376269 1071.84287624 2.75477376269 1061.57050624Z"
           style="fill:#9e2831;fill-opacity:1" />
        <path
           id="path4665"
           d="M138.48863 943.82884C137.077539039 945.868987579 135.026539548 948.207086797 132.852874097 950.380752248L-8.56848214042 1091.80210849C-6.3948166894 1089.62844303 -4.34381719788 1087.29034382 -2.93272623731 1085.25019624Z"
           style="fill:#9e2831;fill-opacity:1" />
        <path
           id="path4667"
           d="M132.852874097 950.380752248C128.8500152 954.383611145 124.431169821 957.82884 122.82652 957.82884L-18.5948362373 1099.25019624C-16.9901864168 1099.25019624 -12.5713410377 1095.80496738 -8.56848214042 1091.80210849Z"
           style="fill:#9e2831;fill-opacity:1" />
        <path
           id="path4669"
           d="M122.82652 957.82884C121.57859 957.82884 121.36363 953.79356 121.36363 930.32884L-20.0577262373 1071.75019624C-20.0577262373 1095.21491624 -19.8427662373 1099.25019624 -18.5948362373 1099.25019624Z"
           style="fill:#9e2831;fill-opacity:1" />
        <path
           id="path4671"
           d="M121.36363 930.32884L121.36363 902.82884L-20.0577262373 1044.25019624L-20.0577262373 1071.75019624Z"
           style="fill:#9e2831;fill-opacity:1" />
        <path
           id="path4673"
           d="M121.36363 902.82884L117.44566 902.82884L-23.9756962373 1044.25019624L-20.0577262373 1044.25019624Z"
           style="fill:#9e2831;fill-opacity:1" />
        <path
           id="path4675"
           d="M117.44566 902.82884C109.90369 902.82884 109.6847 902.08092 115.50035 896.19212L-25.9210062373 1037.61347624C-31.7366562373 1043.50227624 -31.5176662373 1044.25019624 -23.9756962373 1044.25019624Z"
           style="fill:#9e2831;fill-opacity:1" />
        <path
           id="path4677"
           d="M115.50035 896.19212L120.79527 890.82884L-20.6260862373 1032.25019624L-25.9210062373 1037.61347624Z"
           style="fill:#9e2831;fill-opacity:1" />
        <path
           id="path4679"
           d="M120.79527 890.82884L109.08043 890.82884L-32.3409262373 1032.25019624L-20.6260862373 1032.25019624Z"
           style="fill:#9e2831;fill-opacity:1" />
        <path
           id="path4681"
           d="M109.08043 890.82884C102.820644584 890.82884 97.6656052932 891.060902757 97.3764218528 891.350086197L-44.0449343845 1032.77144243C-43.7557509441 1032.48225899 -38.6007116537 1032.25019624 -32.3409262373 1032.25019624Z"
           style="fill:#9e2831;fill-opacity:1" />
        <path
           id="path4683"
           d="M97.3764218528 891.350086197C97.3679250849 891.358582965 97.363629 891.367129045 97.363629 891.37572L-44.0577272373 1032.79707624C-44.0577272373 1032.78848528 -44.0534311524 1032.7799392 -44.0449343845 1032.77144243Z"
           style="fill:#9e2831;fill-opacity:1" />
        <path
           id="path4685"
           d="M97.363629 891.37572C97.363629 891.67669 99.407509 893.99703 101.9066 896.53197L-39.5147562373 1037.95332624C-42.0138472373 1035.41838624 -44.0577272373 1033.09804624 -44.0577272373 1032.79707624Z"
           style="fill:#9e2831;fill-opacity:1" />
        <path
           id="path4687"
           d="M101.9066 896.53197C104.40568 899.06691 106.09382 901.49904 105.6566 901.93626L-35.7647562373 1043.35761624C-35.3275362373 1042.92039624 -37.0156762373 1040.48826624 -39.5147562373 1037.95332624Z"
           style="fill:#9e2831;fill-opacity:1" />
        <path
           id="path4689"
           d="M105.6566 901.93626C105.6566 901.93626 105.6566 901.93626 105.6566 901.93626L-35.7647562373 1043.35761624C-35.7647562373 1043.35761624 -35.7647562373 1043.35761624 -35.7647562373 1043.35761624Z"
           style="fill:#9e2831;fill-opacity:1" />
        <path
           id="path4691"
           d="M105.6566 901.93626C105.21937 902.37349 101.50531 902.86565 97.404649 903.03001L-44.0167072373 1044.45136624C-39.9160462373 1044.28700624 -36.2019862373 1043.79484624 -35.7647562373 1043.35761624Z"
           style="fill:#9e2831;fill-opacity:1" />
        <path
           id="path4693"
           d="M97.404649 903.03001C92.1167222123 903.241955523 90.5774647842 903.30658067 89.1264995765 904.757545878L-52.2948566608 1046.17890212C-50.8438914531 1044.72793691 -49.304634025 1044.66331176 -44.0167072373 1044.45136624Z"
           style="fill:#9e2831;fill-opacity:1" />
        <path
           id="path4695"
           d="M89.1264995765 904.757545878C88.5347063296 905.349339125 87.9576006021 906.171751744 87.146832 907.32884L-54.2745242373 1048.75019624C-53.4637556352 1047.59310798 -52.8866499077 1046.77069536 -52.2948566608 1046.17890212Z"
           style="fill:#9e2831;fill-opacity:1" />
        <path
           id="path4697"
           d="M87.146832 907.32884C85.464582 909.72967 84.203535 912.99853 83.992535 915.50657L-57.4288212373 1056.92792624C-57.2178212373 1054.41988624 -55.9567742373 1051.15102624 -54.2745242373 1048.75019624Z"
           style="fill:#9e2831;fill-opacity:1" />
        <path
           id="path4699"
           d="M83.992535 915.50657C83.7633169297 918.231189689 83.0927700288 919.888641838 81.4891151788 921.492296688L-59.9322410585 1062.91365293C-58.3285862085 1061.30999808 -57.6580393076 1059.65254593 -57.4288212373 1056.92792624Z"
           style="fill:#9e2831;fill-opacity:1" />
        <path
           id="path4701"
           d="M81.4891151788 921.492296688C81.2687214627 921.712690404 81.0307035837 921.932068019 80.773785 922.15306L-60.6475712373 1063.57441624C-60.3906526536 1063.35342426 -60.1526347746 1063.13404664 -59.9322410585 1062.91365293Z"
           style="fill:#9e2831;fill-opacity:1" />
        <path
           id="path4703"
           d="M80.773785 922.15306L77.906598 924.6179L-63.5147582373 1066.03925624L-60.6475712373 1063.57441624Z"
           style="fill:#9e2831;fill-opacity:1" />
        <path
           id="path4705"
           d="M77.906598 924.6179L85.385113 924.573L-56.0362432373 1065.99435624L-63.5147582373 1066.03925624Z"
           style="fill:#9e2831;fill-opacity:1" />
        <path
           id="path4707"
           d="M85.385113 924.573C89.498174 924.5486 94.101129 925.03631 95.613629 925.65503L-45.8077272373 1067.07638624C-47.3202272373 1066.45766624 -51.9231822373 1065.96995624 -56.0362432373 1065.99435624Z"
           style="fill:#9e2831;fill-opacity:1" />
        <path
           id="path4709"
           d="M95.613629 925.65503C98.089269 926.66775 98.363629 927.27077 98.363629 931.70581L-43.0577272373 1073.12716624C-43.0577272373 1068.69212624 -43.3320872373 1068.08910624 -45.8077272373 1067.07638624Z"
           style="fill:#9e2831;fill-opacity:1" />
        <path
           id="path4711"
           d="M98.363629 931.70581C98.363629 934.892360575 98.17438601 936.179766737 97.0687660962 937.285386651L-44.3525901411 1078.70674289C-43.2469702273 1077.60112297 -43.0577272373 1076.31371681 -43.0577272373 1073.12716624Z"
           style="fill:#9e2831;fill-opacity:1" />
        <path
           id="path4713"
           d="M97.0687660962 937.285386651C96.6731157419 937.681037005 96.1601147219 938.053407924 95.496441 938.4812L-45.9249152373 1079.90255624C-45.2612415154 1079.47476416 -44.7482404954 1079.10239324 -44.3525901411 1078.70674289Z"
           style="fill:#9e2831;fill-opacity:1" />
        <path
           id="path4715"
           d="M95.496441 938.4812C92.9722266474 940.108270175 90.3932925176 942.265876273 88.0084520974 944.650716693L-53.4129041399 1086.07207293C-51.0280637197 1083.68723251 -48.4491295899 1081.52962641 -45.9249152373 1079.90255624Z"
           style="fill:#9e2831;fill-opacity:1" />
        <path
           id="path4717"
           d="M88.0084520974 944.650716693C82.9382247396 949.720944051 78.7452964768 955.818265312 77.82066 960.02808L-63.6006962373 1101.44943624C-62.6760597605 1097.23962155 -58.4831314977 1091.14230029 -53.4129041399 1086.07207293Z"
           style="fill:#9e2831;fill-opacity:1" />
        <path
           id="path4719"
           d="M77.82066 960.02808C77.13683 963.14157 77.572279 963.67346 92.426129 977.78394L-48.9952272373 1119.20529624C-63.8490772373 1105.09481624 -64.2845262373 1104.56292624 -63.6006962373 1101.44943624Z"
           style="fill:#9e2831;fill-opacity:1" />
        <path
           id="path4721"
           d="M92.426129 977.78394C100.84756 985.7839 112.26665 996.70354 117.80113 1002.0496L-23.6202262373 1143.47095624C-29.1547062373 1138.12489624 -40.5737962373 1127.20525624 -48.9952272373 1119.20529624Z"
           style="fill:#9e2831;fill-opacity:1" />
        <path
           id="path4723"
           d="M117.80113 1002.0496C123.33562 1007.3955 128.13872 1011.783 128.47496 1011.7996L-12.9463962373 1153.22095624C-13.2826362373 1153.20435624 -18.0857362373 1148.81685624 -23.6202262373 1143.47095624Z"
           style="fill:#9e2831;fill-opacity:1" />
        <path
           id="path4725"
           d="M128.47496 1011.7996C128.8112 1011.8156 143.04987 998.09835 160.11558 981.31714L18.6942237627 1122.73849624C1.62851376269 1139.51970624 -12.6101562373 1153.23695624 -12.9463962373 1153.22095624Z"
           style="fill:#9e2831;fill-opacity:1" />
        <path
           id="path4727"
           d="M160.11558 981.31714C162.797701672 978.679730017 165.297024758 976.202795262 167.627491902 973.872328118L26.2061356651 1115.29368436C23.8756685209 1117.6241515 21.3763454342 1120.10108625 18.6942237627 1122.73849624Z"
           style="fill:#9e2831;fill-opacity:1" />
        <path
           id="path4729"
           d="M167.627491902 973.872328118C193.962616444 947.537203577 198.735140655 939.905729642 202.0648 930.76441L60.6434437627 1072.18576624C57.313784418 1081.32708588 52.5412602066 1088.95855981 26.2061356651 1115.29368436Z"
           style="fill:#9e2831;fill-opacity:1" />
        <path
           id="path4731"
           d="M202.0648 930.76441C205.68911 920.81415 204.77088 922.14081 204.75035 908.32886L63.3289937627 1049.75021624C63.3495237627 1063.56216624 64.2677537627 1062.23550624 60.6434437627 1072.18576624Z"
           style="fill:#9e2831;fill-opacity:1" />
        <path
           id="path4733"
           d="M204.75035 908.32886C204.72985 894.51692 205.03076 894.11617 202.08629 886.44409L60.6649337627 1027.86544624C63.6094037627 1035.53752624 63.3084937627 1035.93827624 63.3289937627 1049.75021624Z"
           style="fill:#9e2831;fill-opacity:1" />
        <path
           id="path4735"
           d="M202.08629 886.44409C199.14182 878.77202 194.228 870.28572 187.73472 863.13941L46.3133637627 1004.56076624C52.8066437627 1011.70707624 57.7204637627 1020.19337624 60.6649337627 1027.86544624Z"
           style="fill:#9e2831;fill-opacity:1" />
        <path
           id="path4737"
           d="M187.73472 863.13941L182.45543 857.32884L41.0340737627 998.750196237L46.3133637627 1004.56076624Z"
           style="fill:#9e2831;fill-opacity:1" />
        <path
           id="path4739"
           d="M182.45543 857.32884L182.41053 885.87962L40.9891737627 1027.30097624L41.0340737627 998.750196237Z"
           style="fill:#9e2831;fill-opacity:1" />
        <path
           id="path4741"
           d="M182.41053 885.87962C182.37703 906.69858 182.03948 914.75457 181.16443 915.62962L39.7430737627 1057.05097624C40.6181237627 1056.17592624 40.9556737627 1048.11993624 40.9891737627 1027.30097624Z"
           style="fill:#9e2831;fill-opacity:1" />
        <path
           id="path4743"
           d="M181.16443 915.62962C181.16443 915.62962 181.16443 915.62962 181.16443 915.62962L39.7430737627 1057.05097624C39.7430737627 1057.05097624 39.7430737627 1057.05097624 39.7430737627 1057.05097624Z"
           style="fill:#9e2831;fill-opacity:1" />
        <path
           id="path4745"
           d="M181.16443 915.62962C179.47121 917.32284 173.85198 917.12067 172.35193 915.31322L30.9305737627 1056.73457624C32.4306237627 1058.54202624 38.0498537627 1058.74419624 39.7430737627 1057.05097624Z"
           style="fill:#9e2831;fill-opacity:1" />
        <path
           id="path4747"
           d="M172.35193 915.31322C171.39459 914.15968 171.13919 906.77741 171.28748 884.38939L29.8661237627 1025.81074624C29.7178337627 1048.19876624 29.9732337627 1055.58103624 30.9305737627 1056.73457624Z"
           style="fill:#9e2831;fill-opacity:1" />
        <path
           id="path4749"
           d="M171.28748 884.38939C171.39462 868.21495 171.18365 853.38212 170.81677 851.4265L29.3954137627 992.847856237C29.7622937627 994.803476237 29.9732637627 1009.63630624 29.8661237627 1025.81074624Z"
           style="fill:#9e2831;fill-opacity:1" />
        <path
           id="path4751"
           d="M170.81677 851.4265C170.2451 848.37922 169.4136 847.51293 165.00623 845.36595L23.5848737627 986.787306237C27.9922437627 988.934286237 28.8237437627 989.800576237 29.3954137627 992.847856237Z"
           style="fill:#9e2831;fill-opacity:1" />
        <path
           id="path4753"
           d="M165.00623 845.36595C162.17777 843.9881 158.44557 842.58082 156.71131 842.239L15.2899537627 983.660356237C17.0242137627 984.002176237 20.7564137627 985.409456237 23.5848737627 986.787306237Z"
           style="fill:#9e2831;fill-opacity:1" />
        <path
           id="path4755"
           d="M156.71131 842.239L153.55701 841.6179L12.1356537627 983.039256237L15.2899537627 983.660356237Z"
           style="fill:#9e2831;fill-opacity:1" />
        <path
           id="path4757"
           d="M153.55701 841.6179L153.43201 866.47337L12.0106537627 1007.89472624L12.1356537627 983.039256237Z"
           style="fill:#9e2831;fill-opacity:1" />
        <path
           id="path4759"
           d="M153.43201 866.47337C153.326981513 887.290479711 153.131510526 891.120489982 151.855608306 892.396392202L10.4342520689 1033.81774844C11.710154289 1032.54184622 11.9056252757 1028.71183595 12.0106537627 1007.89472624Z"
           style="fill:#9e2831;fill-opacity:1" />
        <path
           id="path4761"
           d="M151.855608306 892.396392202C151.788410635 892.463589873 151.718216075 892.523702983 151.64488 892.57884L10.2235237627 1034.00019624C10.2968598374 1033.94505922 10.3670543981 1033.88494611 10.4342520689 1033.81774844Z"
           style="fill:#9e2831;fill-opacity:1" />
        <path
           id="path4763"
           d="M151.64488 892.57884C149.24262 894.38496 146.65307 894.11828 144.36363 891.82884L2.94227376269 1033.25019624C5.23171376269 1035.53963624 7.82126376269 1035.80631624 10.2235237627 1034.00019624Z"
           style="fill:#9e2831;fill-opacity:1" />
        <path
           id="path4765"
           d="M144.36363 891.82884C142.46644 889.93165 142.36363 888.49479 142.36363 863.88939L0.94227376269 1005.31074624C0.94227376269 1029.91614624 1.04508376269 1031.35300624 2.94227376269 1033.25019624Z"
           style="fill:#9e2831;fill-opacity:1" />
        <path
           id="path4767"
           d="M142.36363 863.88939L142.36363 837.95189L0.94227376269 979.373246237L0.94227376269 1005.31074624Z"
           style="fill:#9e2831;fill-opacity:1" />
        <path
           id="path4769"
           d="M142.36363 837.95189L138.11363 837.31517L-3.30772623731 978.736526237L0.94227376269 979.373246237Z"
           style="fill:#9e2831;fill-opacity:1" />
        <path
           id="path4771"
           d="M138.11363 837.31517C136.3605 837.05243 133.83414 836.90675 131.7523 836.9265L-9.66905623731 978.347856237C-7.58721623731 978.328106237 -5.06085623731 978.473786237 -3.30772623731 978.736526237Z"
           style="fill:#9e2831;fill-opacity:1" />
        <path
           id="path4773"
           d="M93.699567 910.82884C96.532566 910.82884 98.363629 912.59594 98.363629 915.32884L-43.0577272373 1056.75019624C-43.0577272373 1054.01729624 -44.8887902373 1052.25019624 -47.7217892373 1052.25019624Z"
           style="fill:#9e2831;fill-opacity:1" />
        <path
           id="path4775"
           d="M98.363629 915.32884C98.363629 916.716388654 97.8440926646 917.831814377 97.0629081088 918.612998933L-44.3584481285 1060.03435517C-43.5772635727 1059.25317061 -43.0577272373 1058.13774489 -43.0577272373 1056.75019624Z"
           style="fill:#9e2831;fill-opacity:1" />
        <path
           id="path4777"
           d="M97.0629081088 918.612998933C95.115700702 920.56020634 91.5428138536 920.430697941 90.338238 917.26243L-51.0831182373 1058.68378624C-49.8785423837 1061.85205418 -46.3056555353 1061.98156258 -44.3584481285 1060.03435517Z"
           style="fill:#9e2831;fill-opacity:1" />
        <path
           id="path4779"
           d="M90.338238 917.26243C89.5188080981 915.107159938 89.9021351596 913.053916153 91.0871983061 911.868853007L-50.3341579312 1053.29020924C-51.5192210777 1054.47527239 -51.9025481392 1056.52851618 -51.0831182373 1058.68378624Z"
           style="fill:#9e2831;fill-opacity:1" />
        <path
           id="path4781"
           d="M91.0871983061 911.868853007C91.7382030294 911.217848283 92.6311527938 910.82884 93.699567 910.82884L-47.7217892373 1052.25019624C-48.7902034436 1052.25019624 -49.6831532079 1052.63920452 -50.3341579312 1053.29020924Z"
           style="fill:#9e2831;fill-opacity:1" />
      </g>
      <path
         style="fill:#9e2831;fill-opacity:1;stroke:none;stroke-width:10;stroke-linejoin:round;stroke-miterlimit:4;stroke-dasharray:none;stroke-opacity:0.25882353"
         d="m 131.7523,836.9265 c -0.69394,0.007 -1.33867,0.0314 -1.88867,0.0762 l -4,0.32617 -0.27734,14.93164 c -0.16612,8.92968 -0.71837,15.46115 -1.37305,16.25 -1.30975,1.57814 -5.23463,1.71823 -7.91602,0.2832 -1.77655,-0.95079 -1.93359,-2.22354 -1.93359,-15.61328 v -14.57815 l -4.72852,0.70898 c -11.842041,1.77582 -27.489488,10.51209 -38.332028,21.40039 -10.50643,10.55078 -17.695185,24.62728 -19.541015,38.26758 l -0.63086,4.65234 6.867188,-6.71093 c 11.31586,-11.05951 24.76484,-15.87778 41.000004,-14.69141 19.217861,1.40433 34.032901,10.11231 41.792961,24.56836 2.31991,4.32172 3.02251,7.09372 3.38477,13.35156 0.59466,10.27237 -0.99707,16.89828 -5.6875,23.67969 -4.00965,5.79713 -13.18609,14 -15.66211,14 -1.24793,0 -1.46289,-4.03528 -1.46289,-27.5 v -27.5 h -3.91797 c -7.54197,0 -7.76096,-0.74792 -1.94531,-6.63672 l 5.29492,-5.36328 h -11.71484 c -6.44371,0 -11.716801,0.2459 -11.716801,0.54688 0,0.30097 2.04388,2.62131 4.542971,5.15625 2.49908,2.53494 4.18722,4.96707 3.75,5.40429 -0.43723,0.43723 -4.15129,0.92939 -8.251951,1.09375 -7.44467,0.29839 -7.459197,0.30478 -10.257817,4.29883 -1.68225,2.40083 -2.943297,5.66969 -3.154297,8.17773 -0.26072,3.09907 -1.09241,4.81749 -3.21875,6.64649 l -2.867187,2.46484 7.478515,-0.0449 c 4.113061,-0.0244 8.716016,0.46331 10.228516,1.08203 2.47564,1.01272 2.75,1.61574 2.75,6.05078 0,4.32687 -0.34892,5.15216 -2.867188,6.77539 -7.890754,5.08626 -16.316231,15.35693 -17.675781,21.54688 -0.68383,3.11349 -0.248381,3.64538 14.605469,17.75586 8.421431,7.99996 19.840521,18.9196 25.375001,24.26566 5.53449,5.3459 10.33759,9.7334 10.67383,9.75 0.33624,0.016 14.57491,-13.70125 31.64062,-30.48246 32.99107,-32.4411 38.32491,-40.60247 41.94922,-50.55273 3.62431,-9.95026 2.70608,-8.6236 2.68555,-22.43555 -0.0205,-13.81194 0.28041,-14.21269 -2.66406,-21.88477 -2.94447,-7.67207 -7.85829,-16.15837 -14.35157,-23.30468 l -5.27929,-5.81057 -0.0449,28.55078 c -0.0335,20.81896 -0.37105,28.87495 -1.2461,29.75 -1.69322,1.69322 -7.31245,1.49105 -8.8125,-0.3164 -0.95734,-1.15354 -1.21274,-8.53581 -1.06445,-30.92383 0.10714,-16.17444 -0.10383,-31.00727 -0.47071,-32.96289 -0.57167,-3.04728 -1.40317,-3.91357 -5.81054,-6.06055 -2.82846,-1.37785 -6.56066,-2.78513 -8.29492,-3.12695 l -3.1543,-0.6211 -0.125,24.85547 c -0.11056,21.91348 -0.32134,25.00343 -1.78713,26.10547 -2.40226,1.80612 -4.99181,1.53944 -7.28125,-0.75 -1.89719,-1.89719 -2,-3.33405 -2,-27.93945 v -25.9375 l -4.25,-0.63672 c -1.75313,-0.26274 -4.27949,-0.40842 -6.36133,-0.38867 z m -38.052733,73.90234 c 2.832999,0 4.664062,1.7671 4.664062,4.5 0,4.8462 -6.337561,6.37291 -8.025391,1.93359 -1.269577,-3.33925 0.348016,-6.43359 3.361329,-6.43359 z"
         id="path4584"
         inkscape:connector-curvature="0"
         sodipodi:nodetypes="scccccsccscccsssssscsccsscsscsccccsccsccszzzcccscsccccccssccssscs" />
    </g>
    <path
       sodipodi:nodetypes="scccccsccscccsssssscsccsscsscsccccsccsccszzzcccscsccccccssccssscs"
       inkscape:connector-curvature="0"
       id="path4152"
       d="m 131.7523,836.9265 c -0.69394,0.007 -1.33867,0.0314 -1.88867,0.0762 l -4,0.32617 -0.27734,14.93164 c -0.16612,8.92968 -0.71837,15.46115 -1.37305,16.25 -1.30975,1.57814 -5.23463,1.71823 -7.91602,0.2832 -1.77655,-0.95079 -1.93359,-2.22354 -1.93359,-15.61328 v -14.57815 l -4.72852,0.70898 c -11.842041,1.77582 -27.489488,10.51209 -38.332028,21.40039 -10.50643,10.55078 -17.695185,24.62728 -19.541015,38.26758 l -0.63086,4.65234 6.867188,-6.71093 c 11.31586,-11.05951 24.76484,-15.87778 41.000004,-14.69141 19.217861,1.40433 34.032901,10.11231 41.792961,24.56836 2.31991,4.32172 3.02251,7.09372 3.38477,13.35156 0.59466,10.27237 -0.99707,16.89828 -5.6875,23.67969 -4.00965,5.79713 -13.18609,14 -15.66211,14 -1.24793,0 -1.46289,-4.03528 -1.46289,-27.5 v -27.5 h -3.91797 c -7.54197,0 -7.76096,-0.74792 -1.94531,-6.63672 l 5.29492,-5.36328 h -11.71484 c -6.44371,0 -11.716801,0.2459 -11.716801,0.54688 0,0.30097 2.04388,2.62131 4.542971,5.15625 2.49908,2.53494 4.18722,4.96707 3.75,5.40429 -0.43723,0.43723 -4.15129,0.92939 -8.251951,1.09375 -7.44467,0.29839 -7.459197,0.30478 -10.257817,4.29883 -1.68225,2.40083 -2.943297,5.66969 -3.154297,8.17773 -0.26072,3.09907 -1.09241,4.81749 -3.21875,6.64649 l -2.867187,2.46484 7.478515,-0.0449 c 4.113061,-0.0244 8.716016,0.46331 10.228516,1.08203 2.47564,1.01272 2.75,1.61574 2.75,6.05078 0,4.32687 -0.34892,5.15216 -2.867188,6.77539 -7.890754,5.08626 -16.316231,15.35693 -17.675781,21.54688 -0.68383,3.11349 -0.248381,3.64538 14.605469,17.75586 8.421431,7.99996 19.840521,18.9196 25.375001,24.26566 5.53449,5.3459 10.33759,9.7334 10.67383,9.75 0.33624,0.016 14.57491,-13.70125 31.64062,-30.48246 32.99107,-32.4411 38.32491,-40.60247 41.94922,-50.55273 3.62431,-9.95026 2.70608,-8.6236 2.68555,-22.43555 -0.0205,-13.81194 0.28041,-14.21269 -2.66406,-21.88477 -2.94447,-7.67207 -7.85829,-16.15837 -14.35157,-23.30468 l -5.27929,-5.81057 -0.0449,28.55078 c -0.0335,20.81896 -0.37105,28.87495 -1.2461,29.75 -1.69322,1.69322 -7.31245,1.49105 -8.8125,-0.3164 -0.95734,-1.15354 -1.21274,-8.53581 -1.06445,-30.92383 0.10714,-16.17444 -0.10383,-31.00727 -0.47071,-32.96289 -0.57167,-3.04728 -1.40317,-3.91357 -5.81054,-6.06055 -2.82846,-1.37785 -6.56066,-2.78513 -8.29492,-3.12695 l -3.1543,-0.6211 -0.125,24.85547 c -0.11056,21.91348 -0.32134,25.00343 -1.78713,26.10547 -2.40226,1.80612 -4.99181,1.53944 -7.28125,-0.75 -1.89719,-1.89719 -2,-3.33405 -2,-27.93945 v -25.9375 l -4.25,-0.63672 c -1.75313,-0.26274 -4.27949,-0.40842 -6.36133,-0.38867 z m -38.052733,73.90234 c 2.832999,0 4.664062,1.7671 4.664062,4.5 0,4.8462 -6.337561,6.37291 -8.025391,1.93359 -1.269577,-3.33925 0.348016,-6.43359 3.361329,-6.43359 z"
       style="fill:#ffffff;fill-opacity:1;stroke:none;stroke-width:10;stroke-linejoin:round;stroke-miterlimit:4;stroke-dasharray:none;stroke-opacity:0.25882353" />
  </g>
</svg>
