<?xml version="1.0" encoding="UTF-8" standalone="no"?>
<!-- Created with Inkscape (http://www.inkscape.org/) -->

<svg
   xmlns:dc="http://purl.org/dc/elements/1.1/"
   xmlns:cc="http://creativecommons.org/ns#"
   xmlns:rdf="http://www.w3.org/1999/02/22-rdf-syntax-ns#"
   xmlns:svg="http://www.w3.org/2000/svg"
   xmlns="http://www.w3.org/2000/svg"
   xmlns:sodipodi="http://sodipodi.sourceforge.net/DTD/sodipodi-0.dtd"
   xmlns:inkscape="http://www.inkscape.org/namespaces/inkscape"
   width="256"
   height="256"
   viewBox="0 0 256 256"
   id="svg4149"
   version="1.1"
   inkscape:version="0.92.2 (5c3e80d, 2017-08-06)"
   sodipodi:docname="blender.svg">
  <sodipodi:namedview
     id="base"
     pagecolor="#ffffff"
     bordercolor="#666666"
     borderopacity="1.0"
     inkscape:pageopacity="0.0"
     inkscape:pageshadow="2"
     inkscape:zoom="3.3125"
     inkscape:cx="128"
     inkscape:cy="128"
     inkscape:document-units="px"
     inkscape:current-layer="layer1"
     showgrid="false"
     units="px"
     inkscape:window-width="1920"
     inkscape:window-height="1048"
     inkscape:window-x="0"
     inkscape:window-y="0"
     inkscape:window-maximized="1" />
  <defs
     id="defs4151">
    <clipPath
       id="clipPath4863"
       clipPathUnits="userSpaceOnUse">
      <circle
         r="77.263145"
         cy="924.36218"
         cx="128"
         id="circle4865"
         style="fill:#e9e9e9;fill-opacity:1;stroke:none;stroke-width:20;stroke-miterlimit:4;stroke-dasharray:none;stroke-opacity:1" />
    </clipPath>
    <clipPath
       clipPathUnits="userSpaceOnUse"
       id="clipPath4227">
      <circle
         r="77.263145"
         cy="924.36218"
         cx="128"
         id="circle4229"
         style="fill:#e9e9e9;fill-opacity:1;stroke:none;stroke-width:20;stroke-miterlimit:4;stroke-dasharray:none;stroke-opacity:1" />
    </clipPath>
    <clipPath
       id="clipPath5543"
       clipPathUnits="userSpaceOnUse">
      <circle
         r="128"
         cy="924.36218"
         cx="128"
         id="circle5545"
         style="fill:#9e9fe9;fill-opacity:1;stroke:none;stroke-width:20;stroke-miterlimit:4;stroke-dasharray:none;stroke-opacity:1" />
    </clipPath>
    <clipPath
       clipPathUnits="userSpaceOnUse"
       id="clipPath6248">
      <circle
         r="128"
         cy="924.36218"
         cx="128"
         id="circle6250"
         style="fill:#77c445;fill-opacity:1;stroke:none;stroke-width:20;stroke-miterlimit:4;stroke-dasharray:none;stroke-opacity:1" />
    </clipPath>
    <clipPath
       clipPathUnits="userSpaceOnUse"
       id="clipPath4624">
      <path
         style="fill:#0f9d58;fill-opacity:1"
         d="m 151.20117,0.24318 -105.78125,0 c -7.804357,0 -14.087891,6.28158 -14.087891,14.08594 l 0,227.33994 c 0,7.8043 6.283534,14.0878 14.087891,14.0878 l 165.16211,0 c 7.80436,0 14.08594,-6.2835 14.08594,-14.0878 l 0,-154.82237 -73.4668,-86.60351 z"
         id="path4626"
         inkscape:connector-curvature="0" />
    </clipPath>
    <clipPath
       clipPathUnits="userSpaceOnUse"
       id="clipPath6409">
      <circle
         r="128"
         cy="924.36218"
         cx="128"
         id="circle6411"
         style="fill:#77c445;fill-opacity:1;stroke:none;stroke-width:20;stroke-miterlimit:4;stroke-dasharray:none;stroke-opacity:1" />
    </clipPath>
    <clipPath
       id="clipPath4544"
       clipPathUnits="userSpaceOnUse">
      <circle
         r="128"
         cy="128.00002"
         cx="128"
         id="circle4546"
         style="fill:#0f9d97;fill-opacity:1;stroke:none;stroke-width:20;stroke-miterlimit:4;stroke-dasharray:none;stroke-opacity:1" />
    </clipPath>
    <clipPath
       clipPathUnits="userSpaceOnUse"
       id="clipPath4250">
      <circle
         r="128"
         cy="924.36218"
         cx="128"
         id="circle4252"
         style="fill:#b70a01;fill-opacity:1;stroke:none;stroke-width:20;stroke-miterlimit:4;stroke-dasharray:none;stroke-opacity:1" />
    </clipPath>
    <clipPath
       id="clipPath4241"
       clipPathUnits="userSpaceOnUse">
      <circle
         r="128"
         cy="924.36218"
         cx="128"
         id="circle4243"
         style="fill:#01a3d2;fill-opacity:1;stroke:none;stroke-width:20;stroke-miterlimit:4;stroke-dasharray:none;stroke-opacity:1" />
    </clipPath>
    <clipPath
       clipPathUnits="userSpaceOnUse"
       id="clipPath4247">
      <circle
         r="128"
         cy="924.36218"
         cx="128"
         id="circle4249"
         style="fill:#01a3d2;fill-opacity:1;stroke:none;stroke-width:20;stroke-miterlimit:4;stroke-dasharray:none;stroke-opacity:1" />
    </clipPath>
    <clipPath
       id="clipPath4274"
       clipPathUnits="userSpaceOnUse">
      <circle
         r="128"
         cy="924.36218"
         cx="128"
         id="circle4276"
         style="fill:#f77e08;fill-opacity:1;stroke:none;stroke-width:20;stroke-miterlimit:4;stroke-dasharray:none;stroke-opacity:1" />
    </clipPath>
    <clipPath
       clipPathUnits="userSpaceOnUse"
       id="clipPath1090">
      <circle
         r="128"
         cy="924.36218"
         cx="128"
         id="circle1092"
         style="fill:#f5792a;fill-opacity:1;stroke:none;stroke-width:20;stroke-miterlimit:4;stroke-dasharray:none;stroke-opacity:1" />
    </clipPath>
  </defs>
  <metadata
     id="metadata4154">
    <rdf:RDF>
      <cc:Work
         rdf:about="">
        <dc:format>image/svg+xml</dc:format>
        <dc:type
           rdf:resource="http://purl.org/dc/dcmitype/StillImage" />
        <dc:title />
      </cc:Work>
    </rdf:RDF>
  </metadata>
  <g
     inkscape:label="Layer 1"
     inkscape:groupmode="layer"
     id="layer1"
     transform="translate(0,-796.36216)">
    <circle
       style="fill:#f5792a;fill-opacity:1;stroke:none;stroke-width:20;stroke-miterlimit:4;stroke-dasharray:none;stroke-opacity:1"
       id="path4723"
       cx="128"
       cy="924.36218"
       r="128" />
    <g
       id="g866"
       clip-path="url(#clipPath1090)"
       style="fill:#ca550a;fill-opacity:1">
      <path
         id="path862"
         style="fill:#ca550a;fill-opacity:1;fill-rule:nonzero;stroke:none;stroke-width:2.99849534"
         d="m 131.61908,932.95927 c 0.31784,-5.66715 3.09745,-10.66264 7.28335,-14.20387 4.11093,-3.47825 9.63716,-5.60419 15.67313,-5.60419 6.02698,0 11.5562,2.12594 15.66414,5.60419 4.1889,3.54123 6.96251,8.53672 7.28335,14.19788 0.31784,5.82907 -2.02099,11.23836 -6.13193,15.25035 -4.18889,4.08095 -10.14391,6.64466 -16.81556,6.64466 -6.67465,0 -12.64165,-2.56371 -16.83055,-6.64466 -4.10794,-4.01199 -6.44377,-9.42128 -6.12593,-15.24436"
         inkscape:connector-curvature="0" />
      <g
         id="g1000"
         transform="translate(0,796.36216)"
         style="fill:#ca550a;fill-opacity:1">
        <g
           id="g997"
           style="fill:#ca550a;fill-opacity:1;fill-rule:nonzero;stroke:none;stroke-width:2.99849534">
          <path
             id="path899"
             d="M132.49609 58.953125C130.11679 58.956425 127.69579 59.62872 125.78125 60.96875L-15.6401062373 202.390106237C-13.7255662373 201.050076237 -11.3045662373 200.377781237 -8.92526623731 200.374481237Z"
             style="fill:#ca550a;fill-opacity:1" />
          <path
             id="path901"
             d="M125.78125 60.96875C125.331343127 61.2829554773 124.927702876 61.6210714496 124.571033632 61.9777406941L-16.8503226058 203.399096931C-16.4936533613 203.042427687 -16.0900131107 202.704311715 -15.6401062373 202.390106237Z"
             style="fill:#ca550a;fill-opacity:1" />
          <path
             id="path903"
             d="M124.571033632 61.9777406941C121.854123484 64.6946508414 121.862731564 68.4881247181 124.9082 70.990234L-16.5131562373 212.411590237C-19.5586246733 209.909480955 -19.5672327531 206.116007079 -16.8503226058 203.399096931Z"
             style="fill:#ca550a;fill-opacity:1" />
          <path
             id="path905"
             d="M124.9082 70.990234L124.89648 71.001953L-16.5248762373 212.423309237L-16.5131562373 212.411590237Z"
             style="fill:#ca550a;fill-opacity:1" />
          <path
             id="path907"
             d="M124.89648 71.001953L147.04297 89.013672L5.62161376269 230.435028237L-16.5248762373 212.423309237Z"
             style="fill:#ca550a;fill-opacity:1" />
          <path
             id="path909"
             d="M147.04297 89.013672L79.53125 89.089844L-61.8901062373 230.511200237L5.62161376269 230.435028237Z"
             style="fill:#ca550a;fill-opacity:1" />
          <path
             id="path911"
             d="M79.53125 89.089844L79.441406 89.089844L-61.9799502373 230.511200237L-61.8901062373 230.511200237Z"
             style="fill:#ca550a;fill-opacity:1" />
          <path
             id="path913"
             d="M79.441406 89.089844C75.8440996037 89.0911333109 72.3369393022 90.6131561062 70.0150991654 92.9349962431L-71.4062570719 234.35635248C-69.0844169351 232.034512343 -65.5772566336 230.512489548 -61.9799502373 230.511200237Z"
             style="fill:#ca550a;fill-opacity:1" />
          <path
             id="path915"
             d="M70.0150991654 92.9349962431C68.7352632412 94.2148321672 67.8155741802 95.7376840422 67.439453 97.382812L-73.9819032373 238.804168237C-73.6057820571 237.159040279 -72.6860929961 235.636188405 -71.4062570719 234.35635248Z"
             style="fill:#ca550a;fill-opacity:1" />
          <path
             id="path917"
             d="M67.439453 97.382812C66.345002 102.09645 70.133458 106.00739 75.935547 106.02539L-65.4858092373 247.446746237C-71.2878982373 247.428746237 -75.0763542373 243.517806237 -73.9819032373 238.804168237Z"
             style="fill:#ca550a;fill-opacity:1" />
          <path
             id="path919"
             d="M75.935547 106.02539L75.931641 106.04688L-65.4897152373 247.468236237L-65.4858092373 247.446746237Z"
             style="fill:#ca550a;fill-opacity:1" />
          <path
             id="path921"
             d="M75.931641 106.04688L110.14648 105.98047L-31.2748762373 247.401826237L-65.4897152373 247.468236237Z"
             style="fill:#ca550a;fill-opacity:1" />
          <path
             id="path923"
             d="M110.14648 105.98047L49.085938 152.84961L-92.3354182373 294.270966237L-31.2748762373 247.401826237Z"
             style="fill:#ca550a;fill-opacity:1" />
          <path
             id="path925"
             d="M49.085938 152.84961C49.011097 152.90961 48.923527 152.96737 48.851562 153.02734L-92.5697942373 294.448696237C-92.4978292373 294.388726237 -92.4102592373 294.330966237 -92.3354182373 294.270966237Z"
             style="fill:#ca550a;fill-opacity:1" />
          <path
             id="path927"
             d="M48.851562 153.02734C48.2635954761 153.477267842 47.7162835141 153.957709714 47.2113115326 154.462681695L-94.2100447047 295.884037933C-93.7050727232 295.379065951 -93.1577607612 294.89862408 -92.5697942373 294.448696237Z"
             style="fill:#ca550a;fill-opacity:1" />
          <path
             id="path929"
             d="M47.2113115326 154.462681695C42.7692448102 158.904748418 41.6034975759 165.244985059 44.861328 169.41016L-96.5600282373 310.831516237C-99.8178586614 306.666341296 -98.6521114271 300.326104655 -94.2100447047 295.884037933Z"
             style="fill:#ca550a;fill-opacity:1" />
          <path
             id="path931"
             d="M44.861328 169.41016C48.540482 174.13279 56.37328 174.14202 62.193359 169.4375L-79.2279972373 310.858856237C-85.0480762373 315.563376237 -92.8808742373 315.554146237 -96.5600282373 310.831516237Z"
             style="fill:#ca550a;fill-opacity:1" />
          <path
             id="path933"
             d="M62.193359 169.4375L95.517578 142.16602L-45.9037782373 283.587376237L-79.2279972373 310.858856237Z"
             style="fill:#ca550a;fill-opacity:1" />
          <path
             id="path935"
             d="M95.517578 142.16602C95.517578 142.16602 95.029378 145.8448 95.068359 148.05469L-46.3529972373 289.476046237C-46.3919782373 287.266156237 -45.9037782373 283.587376237 -45.9037782373 283.587376237Z"
             style="fill:#ca550a;fill-opacity:1" />
          <path
             id="path937"
             d="M95.068359 148.05469C95.107459 150.27657 95.813525 154.58582 96.875 157.95312L-44.5463562373 299.374476237C-45.6078312373 296.007176237 -46.3138972373 291.697926237 -46.3529972373 289.476046237Z"
             style="fill:#ca550a;fill-opacity:1" />
          <path
             id="path939"
             d="M96.875 157.95312C99.10588 165.08055 102.88985 171.67419 108.1582 177.48828L-33.2631562373 318.909636237C-38.5315062373 313.095546237 -42.3154762373 306.501906237 -44.5463562373 299.374476237Z"
             style="fill:#ca550a;fill-opacity:1" />
          <path
             id="path941"
             d="M108.1582 177.48828C113.56149 183.45828 120.21524 188.25882 127.90039 191.66211L-13.5209662373 333.083466237C-21.2061162373 329.680176237 -27.8598662373 324.879636237 -33.2631562373 318.909636237Z"
             style="fill:#ca550a;fill-opacity:1" />
          <path
             id="path943"
             d="M127.90039 191.66211C135.97534 195.24232 144.72887 197.06187 153.82031 197.04688L12.3989537627 338.468236237C3.30751376269 338.483226237 -5.44601623731 336.663676237 -13.5209662373 333.083466237Z"
             style="fill:#ca550a;fill-opacity:1" />
          <path
             id="path945"
             d="M153.82031 197.04688C162.89976 197.03488 171.64862 195.17646 179.72656 191.57227L38.3052037627 332.993626237C30.2272637627 336.597816237 21.4784037627 338.456236237 12.3989537627 338.468236237Z"
             style="fill:#ca550a;fill-opacity:1" />
          <path
             id="path947"
             d="M179.72656 191.57227C186.487364025 188.549295087 192.445527667 184.453816416 197.455612251 179.443731832L56.0342560137 320.865088069C51.0241714298 325.875172653 45.066007788 329.970651324 38.3052037627 332.993626237Z"
             style="fill:#ca550a;fill-opacity:1" />
          <path
             id="path949"
             d="M197.455612251 179.443731832C198.140597572 178.758746511 198.807860721 178.056664721 199.45703 177.33789L58.0356737627 318.759246237C57.3865044836 319.478020958 56.7192413351 320.180102748 56.0342560137 320.865088069Z"
             style="fill:#ca550a;fill-opacity:1" />
          <path
             id="path951"
             d="M199.45703 177.33789C204.71639 171.50582 208.49659 164.90086 210.73047 157.77344L69.3091137627 299.194796237C67.0752337627 306.322216237 63.2950337627 312.927176237 58.0356737627 318.759246237Z"
             style="fill:#ca550a;fill-opacity:1" />
          <path
             id="path953"
             d="M210.73047 157.77344C211.85791 154.16925 212.5667 150.51586 212.85156 146.8457L71.4302037627 288.267056237C71.1453437627 291.937216237 70.4365537627 295.590606237 69.3091137627 299.194796237Z"
             style="fill:#ca550a;fill-opacity:1" />
          <path
             id="path955"
             d="M212.85156 146.8457C213.13342 143.23251 213.01274 139.61619 212.5 136.0L71.0786437627 277.421356237C71.5913837627 281.037546237 71.7120637627 284.653866237 71.4302037627 288.267056237Z"
             style="fill:#ca550a;fill-opacity:1" />
          <path
             id="path957"
             d="M212.5 136.0C211.4985 128.95054 209.06167 122.34143 205.31055 116.31445L63.8891937627 257.735806237C67.6403137627 263.762786237 70.0771437627 270.371896237 71.0786437627 277.421356237Z"
             style="fill:#ca550a;fill-opacity:1" />
          <path
             id="path959"
             d="M205.31055 116.31445C201.87428 110.77623 197.44791 105.92471 192.18555 101.84375L50.7641937627 243.265106237C56.0265537627 247.346066237 60.4529237627 252.197586237 63.8891937627 257.735806237Z"
             style="fill:#ca550a;fill-opacity:1" />
          <path
             id="path961"
             d="M192.18555 101.84375L192.19922 101.83984L50.7778637627 243.261196237L50.7641937627 243.265106237Z"
             style="fill:#ca550a;fill-opacity:1" />
          <path
             id="path963"
             d="M192.19922 101.83984L139.08984 61.060547L-2.33151623731 202.481903237L50.7778637627 243.261196237Z"
             style="fill:#ca550a;fill-opacity:1" />
          <path
             id="path965"
             d="M139.08984 61.060547C139.04474 61.024547 139.00613 60.985348 138.95508 60.955078L-2.46627623731 202.376434237C-2.41522623731 202.406704237 -2.37661623731 202.445903237 -2.33151623731 202.481903237Z"
             style="fill:#ca550a;fill-opacity:1" />
          <path
             id="path967"
             d="M138.95508 60.955078C137.21145 59.616248 134.8754 58.949825 132.49609 58.953125L-8.92526623731 200.374481237C-6.54595623731 200.371181237 -4.20990623731 201.037604237 -2.46627623731 202.376434237Z"
             style="fill:#ca550a;fill-opacity:1" />
          <path
             id="path969"
             d="M153.80859 105.94922C162.70512 105.93482 171.1954 108.85516 177.87305 114.27344L36.4516937627 255.694796237C29.7740437627 250.276516237 21.2837637627 247.356176237 12.3872337627 247.370576237Z"
             style="fill:#ca550a;fill-opacity:1" />
          <path
             id="path971"
             d="M177.87305 114.27344C181.27335 117.04405 184.03216 120.3218 186.03516 123.95898L44.6138037627 265.380336237C42.6108037627 261.743156237 39.8519937627 258.465406237 36.4516937627 255.694796237Z"
             style="fill:#ca550a;fill-opacity:1" />
          <path
             id="path973"
             d="M186.03516 123.95898C188.08313 127.65912 189.35266 131.73323 189.73047 136.03906L48.3091137627 277.460416237C47.9313037627 273.154586237 46.6617737627 269.080476237 44.6138037627 265.380336237Z"
             style="fill:#ca550a;fill-opacity:1" />
          <path
             id="path975"
             d="M189.73047 136.03906C190.10528 140.42286 189.52631 144.76719 188.03906 148.86914L46.6177037627 290.290496237C48.1049537627 286.188546237 48.6839237627 281.844216237 48.3091137627 277.460416237Z"
             style="fill:#ca550a;fill-opacity:1" />
          <path
             id="path977"
             d="M188.03906 148.86914C186.51583 153.05204 184.0604 156.96543 180.70508 160.38672L39.2837237627 301.808076237C42.6390437627 298.386786237 45.0944737627 294.473396237 46.6177037627 290.290496237Z"
             style="fill:#ca550a;fill-opacity:1" />
          <path
             id="path979"
             d="M180.70508 160.38672C180.630017577 160.463158548 180.554627904 160.539235614 180.47891352 160.614949998L39.0575572823 302.036306236C39.1332716665 301.960591851 39.2086613398 301.884514786 39.2837237627 301.808076237Z"
             style="fill:#ca550a;fill-opacity:1" />
          <path
             id="path981"
             d="M180.47891352 160.614949998C173.625411821 167.468451697 164.111398711 171.350329354 153.82031 171.37109L12.3989537627 312.792446237C22.6900424734 312.771685592 32.2040555837 308.889807934 39.0575572823 302.036306236Z"
             style="fill:#ca550a;fill-opacity:1" />
          <path
             id="path983"
             d="M153.82031 171.37109C143.40354 171.39029 133.79338 167.4542 126.92383 160.4707L-14.4975262373 301.892056237C-7.62797623731 308.875556237 1.98218376269 312.811646237 12.3989537627 312.792446237Z"
             style="fill:#ca550a;fill-opacity:1" />
          <path
             id="path985"
             d="M126.92383 160.4707C123.56851 157.06741 121.10422 153.15438 119.58398 148.98047L-21.8373762373 290.401826237C-20.3171362373 294.575736237 -17.8528462373 298.488766237 -14.4975262373 301.892056237Z"
             style="fill:#ca550a;fill-opacity:1" />
          <path
             id="path987"
             d="M119.58398 148.98047C118.09673 144.88453 117.51463 140.53433 117.89844 136.14453L-23.5229162373 277.565886237C-23.9067262373 281.955686237 -23.3246262373 286.305886237 -21.8373762373 290.401826237Z"
             style="fill:#ca550a;fill-opacity:1" />
          <path
             id="path989"
             d="M117.89844 136.14453C118.26425 131.85069 119.5381 127.76083 121.58008 124.05469L-19.8412762373 265.476046237C-21.8832562373 269.182186237 -23.1571062373 273.272046237 -23.5229162373 277.565886237Z"
             style="fill:#ca550a;fill-opacity:1" />
          <path
             id="path991"
             d="M121.58008 124.05469C123.03965966 121.404275395 124.898926263 118.936568752 127.119533749 116.715961266L-14.3018224886 258.137317503C-16.5224299747 260.357924989 -18.3816965768 262.825631632 -19.8412762373 265.476046237Z"
             style="fill:#ca550a;fill-opacity:1" />
          <path
             id="path993"
             d="M127.119533749 116.715961266C127.946279353 115.889215662 128.823111066 115.096720916 129.74805 114.3418L-11.6733062373 255.763156237C-12.5982451718 256.518077153 -13.4750768846 257.310571899 -14.3018224886 258.137317503Z"
             style="fill:#ca550a;fill-opacity:1" />
          <path
             id="path995"
             d="M129.74805 114.3418C136.4197 108.90253 144.91805 105.96122 153.80859 105.94922L12.3872337627 247.370576237C3.49669376269 247.382576237 -5.00165623731 250.323886237 -11.6733062373 255.763156237Z"
             style="fill:#ca550a;fill-opacity:1" />
        </g>
        <path
           id="path864"
           transform=""
           d="M 132.49609 58.953125 C 130.11679 58.956425 127.69579 59.62872 125.78125 60.96875 C 121.9042 63.6764 121.46293 68.159654 124.9082 70.990234 L 124.89648 71.001953 L 147.04297 89.013672 L 79.53125 89.089844 L 79.441406 89.089844 C 73.861206 89.091844 68.497922 92.753142 67.439453 97.382812 C 66.345002 102.09645 70.133458 106.00739 75.935547 106.02539 L 75.931641 106.04688 L 110.14648 105.98047 L 49.085938 152.84961 C 49.011097 152.90961 48.923527 152.96737 48.851562 153.02734 C 43.091454 157.43513 41.233149 164.77149 44.861328 169.41016 C 48.540482 174.13279 56.37328 174.14202 62.193359 169.4375 L 95.517578 142.16602 C 95.517578 142.16602 95.029378 145.8448 95.068359 148.05469 C 95.107459 150.27657 95.813525 154.58582 96.875 157.95312 C 99.10588 165.08055 102.88985 171.67419 108.1582 177.48828 C 113.56149 183.45828 120.21524 188.25882 127.90039 191.66211 C 135.97534 195.24232 144.72887 197.06187 153.82031 197.04688 C 162.89976 197.03488 171.64862 195.17646 179.72656 191.57227 C 187.41171 188.13599 194.05974 183.31389 199.45703 177.33789 C 204.71639 171.50582 208.49659 164.90086 210.73047 157.77344 C 211.85791 154.16925 212.5667 150.51586 212.85156 146.8457 C 213.13342 143.23251 213.01274 139.61619 212.5 136 C 211.4985 128.95054 209.06167 122.34143 205.31055 116.31445 C 201.87428 110.77623 197.44791 105.92471 192.18555 101.84375 L 192.19922 101.83984 L 139.08984 61.060547 C 139.04474 61.024547 139.00613 60.985348 138.95508 60.955078 C 137.21145 59.616248 134.8754 58.949825 132.49609 58.953125 z M 153.80859 105.94922 C 162.70512 105.93482 171.1954 108.85516 177.87305 114.27344 C 181.27335 117.04405 184.03216 120.3218 186.03516 123.95898 C 188.08313 127.65912 189.35266 131.73323 189.73047 136.03906 C 190.10528 140.42286 189.52631 144.76719 188.03906 148.86914 C 186.51583 153.05204 184.0604 156.96543 180.70508 160.38672 C 173.83553 167.38221 164.22509 171.3501 153.82031 171.37109 C 143.40354 171.39029 133.79338 167.4542 126.92383 160.4707 C 123.56851 157.06741 121.10422 153.15438 119.58398 148.98047 C 118.09673 144.88453 117.51463 140.53433 117.89844 136.14453 C 118.26425 131.85069 119.5381 127.76083 121.58008 124.05469 C 123.58307 120.41751 126.33876 117.12441 129.74805 114.3418 C 136.4197 108.90253 144.91805 105.96122 153.80859 105.94922 z "
           style="fill:#ca550a;fill-opacity:1;fill-rule:nonzero;stroke:none;stroke-width:2.99849534" />
      </g>
    </g>
    <g
       id="g1120">
      <path
         transform="translate(0,796.36216)"
         id="path1110"
         d="m 153.80859,105.94922 c -8.89054,0.012 -17.38889,2.95331 -24.06054,8.39258 -3.40929,2.78261 -6.16498,6.07571 -8.16797,9.71289 -2.04198,3.70614 -3.31583,7.796 -3.68164,12.08984 -0.38381,4.3898 0.19829,8.74 1.68554,12.83594 1.52024,4.17391 3.98453,8.08694 7.33985,11.49023 6.86955,6.9835 16.47971,10.91959 26.89648,10.90039 10.40478,-0.021 20.01522,-3.98888 26.88477,-10.98437 3.35532,-3.42129 5.81075,-7.33468 7.33398,-11.51758 1.48725,-4.10195 2.06622,-8.44628 1.69141,-12.83008 -0.37781,-4.30583 -1.64734,-8.37994 -3.69531,-12.08008 -2.003,-3.63718 -4.76181,-6.91493 -8.16211,-9.68554 -6.67765,-5.41828 -15.16793,-8.33862 -24.06446,-8.32422 z"
         style="fill:#f5792a;fill-opacity:1;stroke:none;stroke-width:20;stroke-miterlimit:4;stroke-dasharray:none;stroke-opacity:1" />
      <g
         id="g860">
        <path
           id="path3026"
           style="fill:#0d528a;fill-opacity:1;fill-rule:nonzero;stroke:none;stroke-width:2.99849534"
           d="m 131.61908,932.95927 c 0.31784,-5.66715 3.09745,-10.66264 7.28335,-14.20387 4.11093,-3.47825 9.63716,-5.60419 15.67313,-5.60419 6.02698,0 11.5562,2.12594 15.66414,5.60419 4.1889,3.54123 6.96251,8.53672 7.28335,14.19788 0.31784,5.82907 -2.02099,11.23836 -6.13193,15.25035 -4.18889,4.08095 -10.14391,6.64466 -16.81556,6.64466 -6.67465,0 -12.64165,-2.56371 -16.83055,-6.64466 -4.10794,-4.01199 -6.44377,-9.42128 -6.12593,-15.24436"
           inkscape:connector-curvature="0" />
        <path
           id="path3028"
           style="fill:#ffffff;fill-opacity:1;fill-rule:nonzero;stroke:none;stroke-width:2.99849534"
           d="m 95.067416,944.41653 c 0.0391,2.22188 0.746625,6.53072 1.8081,9.89803 2.23088,7.12742 6.014984,13.72111 11.283334,19.5352 5.40329,5.97 12.05695,10.77059 19.7421,14.17388 8.07495,3.58021 16.82755,5.40029 25.91899,5.3853 9.07945,-0.012 17.82906,-1.87106 25.907,-5.47525 7.68515,-3.43628 14.33281,-8.25786 19.7301,-14.23386 5.25936,-5.83207 9.04046,-12.43776 11.27434,-19.56518 1.12744,-3.60419 1.83508,-7.25636 2.11994,-10.92652 0.28186,-3.61319 0.16192,-7.22937 -0.35082,-10.84556 -1.0015,-7.04946 -3.43928,-13.65814 -7.1904,-19.68512 -3.43627,-5.53822 -7.86205,-10.38978 -13.12441,-14.47074 l 0.0144,-0.005 -53.10935,-40.77954 c -0.0451,-0.036 -0.084,-0.0748 -0.13505,-0.10507 -3.48725,-2.67766 -9.34631,-2.66566 -13.17539,0.0144 -3.87705,2.70765 -4.31783,7.1904 -0.87256,10.02098 l -0.012,0.012 22.14688,18.01196 -67.511128,0.0748 c -0.03286,0 -0.06309,0 -0.08996,0 -5.5802,0.002 -10.944508,3.66417 -12.002977,8.29384 -1.094451,4.71364 2.695647,8.62367 8.497736,8.64167 l -0.0048,0.0216 34.215839,-0.066 -61.061368,46.86948 c -0.07484,0.06 -0.161919,0.11706 -0.233883,0.17703 -5.760109,4.40779 -7.619176,11.74511 -3.990997,16.38378 3.679154,4.72263 11.511224,4.73162 17.331303,0.0271 L 95.51767,938.52868 c 0,0 -0.488755,3.67915 -0.449774,5.88904 z m 85.637034,12.33281 c -6.86955,6.99549 -16.47973,10.9625 -26.88451,10.98349 -10.41677,0.0192 -20.02695,-3.91604 -26.8965,-10.89954 -3.35532,-3.40329 -5.82008,-7.31632 -7.34032,-11.49023 -1.48725,-4.09594 -2.06896,-8.44676 -1.68515,-12.83656 0.36581,-4.29384 1.64017,-8.38379 3.68215,-12.08993 2.00299,-3.63718 4.75861,-6.92952 8.1679,-9.71213 6.67165,-5.43927 15.16939,-8.38079 24.05993,-8.39279 8.89653,-0.0144 17.38827,2.90555 24.06592,8.32383 3.4003,2.77061 6.15891,6.04796 8.16191,9.68514 2.04797,3.70014 3.31633,7.7751 3.69414,12.08093 0.37481,4.3838 -0.2039,8.72862 -1.69115,12.83057 -1.52323,4.1829 -3.979,8.09593 -7.33432,11.51722"
           inkscape:connector-curvature="0" />
      </g>
    </g>
    <g
       id="g1102" />
  </g>
</svg>
