<?xml version="1.0" encoding="UTF-8" standalone="no"?>
<!-- Created with Inkscape (http://www.inkscape.org/) -->

<svg
   xmlns:dc="http://purl.org/dc/elements/1.1/"
   xmlns:cc="http://creativecommons.org/ns#"
   xmlns:rdf="http://www.w3.org/1999/02/22-rdf-syntax-ns#"
   xmlns:svg="http://www.w3.org/2000/svg"
   xmlns="http://www.w3.org/2000/svg"
   xmlns:sodipodi="http://sodipodi.sourceforge.net/DTD/sodipodi-0.dtd"
   xmlns:inkscape="http://www.inkscape.org/namespaces/inkscape"
   width="256"
   height="256"
   viewBox="0 0 256 256"
   id="svg2"
   version="1.1"
   inkscape:version="0.91 r13725"
   sodipodi:docname="bluegriffon.svg">
  <sodipodi:namedview
     id="base"
     pagecolor="#ffffff"
     bordercolor="#666666"
     borderopacity="1.0"
     inkscape:pageopacity="0.0"
     inkscape:pageshadow="2"
     inkscape:zoom="2.0507812"
     inkscape:cx="139.75863"
     inkscape:cy="128"
     inkscape:document-units="px"
     inkscape:current-layer="layer1"
     showgrid="false"
     units="px"
     inkscape:window-width="1366"
     inkscape:window-height="721"
     inkscape:window-x="0"
     inkscape:window-y="0"
     inkscape:window-maximized="1" />
  <defs
     id="defs4">
    <clipPath
       clipPathUnits="userSpaceOnUse"
       id="clipPath5002">
      <g
         id="g5004">
        <path
           transform="translate(0,796.36216)"
           inkscape:connector-curvature="0"
           id="path5006"
           d="M 88.118406,249.43519 C 46.103287,235.29134 14.771284,201.68742 4.1335861,159.36053 1.3377997,148.23623 0.92261224,144.16281 0.92582381,127.88908 0.92787958,117.47222 1.134384,112.01362 1.6577819,108.54099 4.4653598,89.913336 12.17654,70.638106 23.042737,55.086148 c 3.958678,-5.665755 8.344812,-10.93092 9.101533,-10.925587 0.32809,0.0023 10.488643,18.309713 22.579009,40.683112 12.090365,22.373397 22.374546,41.334697 22.853732,42.136217 0.479186,0.80151 0.924733,2.44098 0.990103,3.64326 0.343424,6.31639 2.524175,14.20976 5.6424,20.42304 2.954444,5.88693 5.065381,8.73258 10.434696,14.06652 6.71418,6.66995 12.88853,10.28643 21.73204,12.72904 3.16587,0.87442 5.10478,1.05037 11.57517,1.05037 8.82596,0 12.60219,-0.76201 19.26429,-3.88733 2.04584,-0.95974 3.93661,-1.66536 4.20172,-1.56805 0.2651,0.0973 -11.0555,17.66459 -25.1569,39.0384 l -25.6389,38.86148 -3.094121,0.11221 c -2.554618,0.0927 -4.195204,-0.25845 -9.409103,-2.01364 z"
           style="fill:#0f9d58;fill-opacity:1;stroke:none;stroke-width:4.85768509;stroke-linejoin:round;stroke-miterlimit:4;stroke-dasharray:none;stroke-opacity:1" />
        <path
           inkscape:connector-curvature="0"
           id="path5008"
           d="m 112.35984,1051.5167 c -10.0014,-1.4495 -12.15632,-1.8201 -12.531784,-2.1556 -0.248854,-0.2223 1.738304,-3.7475 4.550294,-8.0722 7.16635,-11.0213 49.77231,-74.64801 50.25856,-75.05489 3.57509,-2.99158 8.63523,-8.0414 10.57512,-10.55356 3.36154,-4.35318 7.55784,-12.9141 9.06523,-18.494 6.19314,-22.92535 -2.59253,-47.15185 -21.69967,-59.83688 l -2.96081,-1.96565 17.02469,0.29584 c 9.36358,0.1627 31.17032,0.43384 48.45941,0.60252 l 31.43471,0.30668 1.54584,4.18869 c 2.24597,6.08579 4.67816,15.0947 5.93451,21.9816 1.52517,8.36049 1.92536,28.85896 0.73851,37.82758 -3.0805,23.27845 -12.81326,45.72018 -27.80202,64.10577 -20.47622,25.1166 -51.4599,42.1974 -84.14612,46.3885 -5.31244,0.6812 -26.64601,0.9864 -30.44647,0.4356 z"
           style="fill:#f4b400;fill-opacity:1;stroke:none;stroke-width:4.85768509;stroke-linejoin:round;stroke-miterlimit:4;stroke-dasharray:none;stroke-opacity:1" />
        <path
           transform="translate(0,796.36216)"
           inkscape:connector-curvature="0"
           id="path5010"
           d="M 67.989788,108.87302 C 41.284246,59.575543 33.290284,45.149038 32.233625,44.344765 31.651257,43.901497 32.811213,42.549931 38.695603,36.815353 53.43581,22.450419 68.809334,13.040746 87.839196,6.7360352 101.68742,2.1480329 112.58238,0.43719165 127.95142,0.43719165 c 21.3099,0 37.80488,3.80960275 56.83492,13.12633035 25.29351,12.383198 46.19421,33.578863 58.51993,59.345832 1.61138,3.368591 2.92978,6.372442 2.92978,6.675231 0,0.560033 -10.54865,0.49527 -71.16508,-0.436914 l -24.28843,-0.373518 -3.93063,-1.764495 c -6.75732,-3.033425 -10.64587,-3.839529 -18.6576,-3.867747 -5.0296,-0.01773 -7.97946,0.207636 -10.31642,0.788106 -14.50826,3.603659 -26.283291,12.94777 -33.291614,26.418653 -3.58502,6.89086 -5.24713,13.08166 -6.331628,23.58317 l -0.33738,3.26696 -9.92748,-18.32578 z"
           style="fill:#db4437;fill-opacity:1;stroke:none;stroke-width:10;stroke-linejoin:round;stroke-miterlimit:4;stroke-dasharray:none;stroke-opacity:1" />
      </g>
    </clipPath>
    <radialGradient
       id="SVGID21"
       cx="278.95999"
       cy="216.92"
       r="322.22"
       gradientTransform="matrix(0.7100982,0,0,-0.69667735,-12.931184,1000.262)"
       gradientUnits="userSpaceOnUse">
      <stop
         offset="0.119"
         stop-color="#ffffff"
         id="stop131" />
      <stop
         offset="0.122"
         stop-color="#fffffa"
         id="stop133" />
      <stop
         offset="0.25"
         stop-color="#ffe560"
         id="stop135" />
      <stop
         offset="0.287"
         stop-color="#ffdf56"
         id="stop137" />
      <stop
         offset="0.347"
         stop-color="#f8d03b"
         id="stop139" />
      <stop
         offset="0.406"
         stop-color="#f0be1b"
         id="stop141" />
      <stop
         offset="0.473"
         stop-color="#eb9d23"
         id="stop143" />
      <stop
         offset="0.548"
         stop-color="#e57c27"
         id="stop145" />
      <stop
         offset="0.765"
         stop-color="#dd5626"
         id="stop147" />
      <stop
         offset="0.903"
         stop-color="#c33a28"
         id="stop149" />
      <stop
         offset="1"
         stop-color="#b02228"
         id="stop151" />
    </radialGradient>
    <clipPath
       clipPathUnits="userSpaceOnUse"
       id="clipPath6128">
      <circle
         r="128"
         cy="925.362"
         cx="128"
         id="circle6130"
         style="opacity:1;fill:#4285f4;fill-opacity:1;stroke:none;stroke-width:20.51976967;stroke-linecap:round;stroke-linejoin:round;stroke-miterlimit:4;stroke-dasharray:none;stroke-opacity:1" />
    </clipPath>
    <clipPath
       id="clipPath6618"
       clipPathUnits="userSpaceOnUse">
      <circle
         r="128"
         cy="925.362"
         cx="128"
         id="circle6620"
         style="opacity:1;fill:#4285f4;fill-opacity:1;stroke:none;stroke-width:20.51976967;stroke-linecap:round;stroke-linejoin:round;stroke-miterlimit:4;stroke-dasharray:none;stroke-opacity:1" />
    </clipPath>
    <clipPath
       clipPathUnits="userSpaceOnUse"
       id="clipPath5341">
      <circle
         r="105.04402"
         cy="912.04022"
         cx="126.18787"
         id="circle5343"
         style="opacity:1;fill:#4285f4;fill-opacity:1;stroke:none;stroke-width:20.51976967;stroke-linecap:round;stroke-linejoin:round;stroke-miterlimit:4;stroke-dasharray:none;stroke-opacity:1" />
    </clipPath>
  </defs>
  <metadata
     id="metadata7">
    <rdf:RDF>
      <cc:Work
         rdf:about="">
        <dc:format>image/svg+xml</dc:format>
        <dc:type
           rdf:resource="http://purl.org/dc/dcmitype/StillImage" />
        <dc:title />
      </cc:Work>
    </rdf:RDF>
  </metadata>
  <g
     transform="translate(0,-796.36216)"
     id="layer1"
     inkscape:groupmode="layer"
     inkscape:label="Layer 1">
    <path
       inkscape:connector-curvature="0"
       id="path4913"
       d="M 154.47438,968.80998 101.03985,1048.476 0.4857685,1048.9618 0,842.0244 l 33.032258,-2.42884 45.176471,83.55218 21.373814,35.4611 26.717267,13.11575 z"
       style="fill:none;fill-rule:evenodd;stroke:none;stroke-width:1px;stroke-linecap:butt;stroke-linejoin:miter;stroke-opacity:1" />
    <circle
       style="opacity:1;fill:#4285f4;fill-opacity:1;stroke:none;stroke-width:20.51976967;stroke-linecap:round;stroke-linejoin:round;stroke-miterlimit:4;stroke-dasharray:none;stroke-opacity:1"
       id="path4152"
       cx="128"
       cy="924.36218"
       r="128" />
    <g
       transform="matrix(1.2185367,0,0,1.2185367,-25.764559,-186.99233)"
       id="g4375"
       clip-path="url(#clipPath5341)"
       style="fill:#0a47ad;fill-opacity:1">
      <path
         inkscape:connector-curvature="0"
         style="fill:#0a47ad;fill-opacity:1"
         d="m 65.666675,962.8069 c -1.708179,-1.70818 -2.072681,-3.42857 -0.726417,-3.42857 0.968026,0 4.154988,3.32023 4.154988,4.32874 0,1.19091 -1.813666,0.71474 -3.428571,-0.90017 z"
         id="path4324" />
      <path
         inkscape:connector-curvature="0"
         style="fill:#0a47ad;fill-opacity:1"
         d="m 97.967688,960.72193 c -1.74051,-2.1006 -1.72204,-12.01171 0.0283,-15.21099 1.23842,-2.26354 1.40418,-2.05288 3.778402,4.80164 2.32251,6.70522 2.37937,7.32744 0.87894,9.61739 -1.88733,2.88043 -2.824052,3.03875 -4.685682,0.79196 z"
         id="path4322" />
      <path
         inkscape:connector-curvature="0"
         style="fill:#0a47ad;fill-opacity:1"
         d="m 85.662581,918.45273 c -0.958453,-1.05907 -1.590697,-2.64637 -1.404988,-3.52733 0.308502,-1.46346 0.531902,-1.46499 2.587653,-0.0177 1.2375,0.87122 2.25,2.45852 2.25,3.52733 0,2.46678 -1.210635,2.47302 -3.432665,0.0177 z"
         id="path4318" />
      <g
         id="g4771"
         style="fill:#0a47ad;fill-opacity:1">
        <g
           id="g4773"
           style="fill:#0a47ad;fill-opacity:1">
          <path
             id="path4775"
             d="M72.754795 964.24761C69.965481 962.62611 68.113667 957.46008 69.250197 954.47078L-142.881837356 1166.60281436C-144.018367356 1169.59211436 -142.166553356 1174.75814436 -139.377239356 1176.37964436Z"
             style="fill:#0a47ad;fill-opacity:1" />
          <path
             id="path4777"
             d="M69.250197 954.47078C70.539829 951.07879 68.778885 943.77993 64.342314 934.12833L-147.789720356 1146.26036436C-143.353149356 1155.91196436 -141.592205356 1163.21082436 -142.881837356 1166.60281436Z"
             style="fill:#0a47ad;fill-opacity:1" />
          <path
             id="path4779"
             d="M64.342314 934.12833C61.817162 928.63495 60.253666 926.37833 58.972735 926.37833L-153.159299356 1138.51036436C-151.878368356 1138.51036436 -150.314872356 1140.76698436 -147.789720356 1146.26036436Z"
             style="fill:#0a47ad;fill-opacity:1" />
          <path
             id="path4781"
             d="M58.972735 926.37833C56.794911 926.37833 54.864263 923.14384 55.716481 920.92299L-156.415553356 1133.05502436C-157.267771356 1135.27587436 -155.337123356 1138.51036436 -153.159299356 1138.51036436Z"
             style="fill:#0a47ad;fill-opacity:1" />
          <path
             id="path4783"
             d="M55.716481 920.92299C56.0073234035 920.16506763 56.3894077969 919.566570167 56.8355054942 919.12047247L-155.296528862 1131.25250683C-155.742626559 1131.69860452 -156.124710952 1132.29710199 -156.415553356 1133.05502436Z"
             style="fill:#0a47ad;fill-opacity:1" />
          <path
             id="path4785"
             d="M56.8355054942 919.12047247C59.1239607083 916.832017256 63.0970094 918.554160392 65.078749 923.3385L-147.053285356 1135.47053436C-149.035024956 1130.68619475 -153.008073648 1128.96405161 -155.296528862 1131.25250683Z"
             style="fill:#0a47ad;fill-opacity:1" />
          <path
             id="path4787"
             d="M65.078749 923.3385C66.0498282457 925.682891748 66.7988803652 926.5910892 67.3094564432 926.080513122L-144.822577913 1138.21254748C-145.333153991 1138.72312356 -146.08220611 1137.8149261 -147.053285356 1135.47053436Z"
             style="fill:#0a47ad;fill-opacity:1" />
          <path
             id="path4789"
             d="M67.3094564432 926.080513122C67.8292397588 925.560729807 68.101868588 923.570541996 68.109988 920.12833L-144.022046356 1132.26036436C-144.030165768 1135.70257635 -144.302794597 1137.69276416 -144.822577913 1138.21254748Z"
             style="fill:#0a47ad;fill-opacity:1" />
          <path
             id="path4791"
             d="M68.109988 920.12833C68.118088 916.69083 68.69016 912.7608 69.381241 911.39494L-142.750793356 1123.52697436C-143.441874356 1124.89283436 -144.013946356 1128.82286436 -144.022046356 1132.26036436Z"
             style="fill:#0a47ad;fill-opacity:1" />
          <path
             id="path4793"
             d="M69.381241 911.39494C69.6111012706 910.940639308 69.9695297249 910.481561685 70.4078386177 910.043252793L-141.724195738 1122.17528715C-142.162504631 1122.61359604 -142.520933085 1123.07267366 -142.750793356 1123.52697436Z"
             style="fill:#0a47ad;fill-opacity:1" />
          <path
             id="path4795"
             d="M70.4078386177 910.043252793C72.3029831466 908.148108264 75.6914877898 906.641233917 76.637799 907.58755L-135.494235356 1119.71958436C-136.440546566 1118.77326827 -139.829051209 1120.28014262 -141.724195738 1122.17528715Z"
             style="fill:#0a47ad;fill-opacity:1" />
          <path
             id="path4797"
             d="M76.637799 907.58755C76.957667 907.90742 76.516447 911.57223 75.657311 915.73157L-136.474723356 1127.86360436C-135.615587356 1123.70426436 -135.174367356 1120.03945436 -135.494235356 1119.71958436Z"
             style="fill:#0a47ad;fill-opacity:1" />
          <path
             id="path4799"
             d="M75.657311 915.73157C73.576298 925.8064 73.640921 926.18778 76.899965 923.06542L-135.232069356 1135.19745436C-138.491113356 1138.31981436 -138.555736356 1137.93843436 -136.474723356 1127.86360436Z"
             style="fill:#0a47ad;fill-opacity:1" />
          <path
             id="path4801"
             d="M76.899965 923.06542C79.995157 920.10004 84.53696 919.5184 87.526667 921.70453L-124.605367356 1133.83656436C-127.595074356 1131.65043436 -132.136877356 1132.23207436 -135.232069356 1135.19745436Z"
             style="fill:#0a47ad;fill-opacity:1" />
          <path
             id="path4803"
             d="M87.526667 921.70453C89.3795742681 923.059406441 89.409129315 924.706204475 87.8605693159 926.254764474L-124.27146504 1138.38679883C-122.722905041 1136.83823883 -122.752460088 1135.1914408 -124.605367356 1133.83656436Z"
             style="fill:#0a47ad;fill-opacity:1" />
          <path
             id="path4805"
             d="M87.8605693159 926.254764474C86.8551895623 927.260144228 85.1846241809 928.224116019 82.915984 929.03991L-129.216050356 1141.17194436C-126.947410175 1140.35615037 -125.276844794 1139.39217858 -124.27146504 1138.38679883Z"
             style="fill:#0a47ad;fill-opacity:1" />
          <path
             id="path4807"
             d="M82.915984 929.03991C80.0228149991 930.080278937 77.9529998563 931.17308583 76.7297241022 932.396361584L-135.402310254 1144.52839594C-134.1790345 1143.30512019 -132.109219357 1142.21231329 -129.216050356 1141.17194436Z"
             style="fill:#0a47ad;fill-opacity:1" />
          <path
             id="path4809"
             d="M76.7297241022 932.396361584C73.1035026158 936.02258307 76.9161531674 940.795285366 88.771634 948.74709L-123.360400356 1160.87912436C-135.215881189 1152.92731972 -139.02853174 1148.15461743 -135.402310254 1144.52839594Z"
             style="fill:#0a47ad;fill-opacity:1" />
          <path
             id="path4811"
             d="M88.771634 948.74709C93.593638 951.98134 96.886528 957.71996 95.132868 959.83299L-116.999166356 1171.96502436C-115.245506356 1169.85199436 -118.538396356 1164.11337436 -123.360400356 1160.87912436Z"
             style="fill:#0a47ad;fill-opacity:1" />
          <path
             id="path4813"
             d="M95.132868 959.83299C95.0636908727 959.916343826 94.992964871 959.99432729 94.9204644754 960.066827686L-117.211569881 1172.19886204C-117.139069485 1172.12636165 -117.068343483 1172.04837818 -116.999166356 1171.96502436Z"
             style="fill:#0a47ad;fill-opacity:1" />
          <path
             id="path4815"
             d="M94.9204644754 960.066827686C93.1328301374 961.854462024 90.2664313051 960.308597361 82.94063 953.73969L-129.191404356 1165.87172436C-121.865603051 1172.44063172 -118.999204219 1173.98649638 -117.211569881 1172.19886204Z"
             style="fill:#0a47ad;fill-opacity:1" />
          <path
             id="path4817"
             d="M82.94063 953.73969C79.014275 950.219 75.592118 947.54813 75.335835 947.80441L-136.796199356 1159.93644436C-136.539916356 1159.68016436 -133.117759356 1162.35103436 -129.191404356 1165.87172436Z"
             style="fill:#0a47ad;fill-opacity:1" />
          <path
             id="path4819"
             d="M75.335835 947.80441C75.3358348644 947.804410136 75.3358347288 947.804410271 75.3358345932 947.804410407L-136.796199763 1159.93644476C-136.796199627 1159.93644463 -136.796199492 1159.93644449 -136.796199356 1159.93644436Z"
             style="fill:#0a47ad;fill-opacity:1" />
          <path
             id="path4821"
             d="M75.3358345932 947.804410407C75.0795523585 948.060692641 75.4183753547 950.556821479 76.088779 953.35137L-136.043255356 1165.48340436C-136.713659001 1162.68885583 -137.052481997 1160.192727 -136.796199763 1159.93644476Z"
             style="fill:#0a47ad;fill-opacity:1" />
          <path
             id="path4823"
             d="M76.088779 953.35137C77.139925706 957.73304513 76.8591803816 964.013252579 75.7086938945 965.163739066L-136.423340461 1177.29577342C-135.272853974 1176.14528694 -134.99210865 1169.86507949 -136.043255356 1165.48340436Z"
             style="fill:#0a47ad;fill-opacity:1" />
          <path
             id="path4825"
             d="M75.7086938945 965.163739066C75.5826732343 965.289759727 75.446217141 965.354232351 75.299933 965.34792L-136.832101356 1177.47995436C-136.685817215 1177.48626671 -136.549361122 1177.42179408 -136.423340461 1177.29577342Z"
             style="fill:#0a47ad;fill-opacity:1" />
          <path
             id="path4827"
             d="M75.299933 965.34792C74.912355 965.33122 73.767043 964.83606 72.754795 964.24761L-139.377239356 1176.37964436C-138.364991356 1176.96809436 -137.219679356 1177.46325436 -136.832101356 1177.47995436Z"
             style="fill:#0a47ad;fill-opacity:1" />
        </g>
        <path
           inkscape:connector-curvature="0"
           style="fill:#0a47ad;fill-opacity:1"
           d="m 72.754795,964.24761 c -2.789314,-1.6215 -4.641128,-6.78753 -3.504598,-9.77683 1.289632,-3.39199 -0.471312,-10.69085 -4.907883,-20.34245 -2.525152,-5.49338 -4.088648,-7.75 -5.369579,-7.75 -2.177824,0 -4.108472,-3.23449 -3.256254,-5.45534 1.782847,-4.64602 6.99422,-3.30146 9.362268,2.41551 1.95967,4.73106 3.015144,3.61328 3.031239,-3.21017 0.0081,-3.4375 0.580172,-7.36753 1.271253,-8.73339 1.223722,-2.41859 6.091384,-4.97257 7.256558,-3.80739 0.319868,0.31987 -0.121352,3.98468 -0.980488,8.14402 -2.081013,10.07483 -2.01639,10.45621 1.242654,7.33385 3.095192,-2.96538 7.636995,-3.54702 10.626702,-1.36089 3.05588,2.23451 1.152284,5.26304 -4.610683,7.33538 -11.469544,4.12439 -9.999179,9.0729 5.85565,19.70718 4.822004,3.23425 8.114894,8.97287 6.361234,11.0859 -1.77487,2.1386 -4.569327,0.74202 -12.192238,-6.0933 -3.926355,-3.52069 -7.348512,-6.19156 -7.604795,-5.93528 -0.256283,0.25628 0.08254,2.75241 0.752944,5.54696 1.166286,4.86163 0.692917,12.06049 -0.788846,11.99655 -0.387578,-0.0167 -1.53289,-0.51186 -2.545138,-1.10031 z"
           id="path4326" />
      </g>
      <g
         id="g4830"
         style="fill:#0a47ad;fill-opacity:1">
        <g
           id="g4832"
           style="fill:#0a47ad;fill-opacity:1">
          <path
             id="path4834"
             d="M108.88044 914.58379C111.817297957 912.391993711 113.548160308 911.026014662 114.249081915 910.325093056L-97.8829524413 1122.45712741C-98.5838740477 1123.15804902 -100.314736399 1124.52402807 -103.251594356 1126.71582436Z"
             style="fill:#0a47ad;fill-opacity:1" />
          <path
             id="path4836"
             d="M114.249081915 910.325093056C114.795123639 909.779051331 114.71610062 909.636628904 114.09525 909.82182L-98.036784356 1121.95385436C-97.4159337358 1121.76866326 -97.3369107165 1121.91108569 -97.8829524413 1122.45712741Z"
             style="fill:#0a47ad;fill-opacity:1" />
          <path
             id="path4838"
             d="M114.09525 909.82182C113.27025 910.0679 109.22025 911.22288 105.09525 912.38845L-107.036784356 1124.52048436C-102.911784356 1123.35491436 -98.861784356 1122.19993436 -98.036784356 1121.95385436Z"
             style="fill:#0a47ad;fill-opacity:1" />
          <path
             id="path4840"
             d="M105.09525 912.38845C100.97025 913.55402 96.695248 914.76337 95.595248 915.0759L-116.536786356 1127.20793436C-115.436786356 1126.89540436 -111.161784356 1125.68605436 -107.036784356 1124.52048436Z"
             style="fill:#0a47ad;fill-opacity:1" />
          <path
             id="path4842"
             d="M95.595248 915.0759C93.642778 915.63063 93.639128 915.59498 95.441528 913.5761L-116.690506356 1125.70813436C-118.492906356 1127.72701436 -118.489256356 1127.76266436 -116.536786356 1127.20793436Z"
             style="fill:#0a47ad;fill-opacity:1" />
          <path
             id="path4844"
             d="M95.441528 913.5761C95.5332189422 913.47339634 95.6309204862 913.370244072 95.7344250295 913.266739528L-116.397609327 1125.39877388C-116.50111387 1125.50227843 -116.598815414 1125.6054307 -116.690506356 1125.70813436Z"
             style="fill:#0a47ad;fill-opacity:1" />
          <path
             id="path4846"
             d="M95.7344250295 913.266739528C98.2912048728 910.709959685 104.388939297 907.938223954 110.89842 906.40358L-101.233614356 1118.53561436C-107.743095059 1120.07025831 -113.840829483 1122.84199404 -116.397609327 1125.39877388Z"
             style="fill:#0a47ad;fill-opacity:1" />
          <path
             id="path4848"
             d="M110.89842 906.40358C113.535433425 905.781891824 114.846207921 905.450145749 115.271329054 905.025024616L-96.860705302 1117.15705897C-97.2858264349 1117.58218011 -98.5966009311 1117.91392618 -101.233614356 1118.53561436Z"
             style="fill:#0a47ad;fill-opacity:1" />
          <path
             id="path4850"
             d="M115.271329054 905.025024616C115.669257267 904.627096403 115.291210263 904.147356576 114.49852 903.27144L-97.633514356 1115.40347436C-96.8408240934 1116.27939093 -96.4627770886 1116.75913076 -96.860705302 1117.15705897Z"
             style="fill:#0a47ad;fill-opacity:1" />
          <path
             id="path4852"
             d="M114.49852 903.27144C111.03857 899.44825 103.6334 898.89686 99.839118 902.17989L-112.292916356 1114.31192436C-108.498634356 1111.02889436 -101.093464356 1111.58028436 -97.633514356 1115.40347436Z"
             style="fill:#0a47ad;fill-opacity:1" />
          <path
             id="path4854"
             d="M99.839118 902.17989C97.539928 904.16928 96.640698 903.11895 96.640698 898.44403L-115.491336356 1110.57606436C-115.491336356 1115.25098436 -114.592106356 1116.30131436 -112.292916356 1114.31192436Z"
             style="fill:#0a47ad;fill-opacity:1" />
          <path
             id="path4856"
             d="M96.640698 898.44403C96.640698 895.719942823 97.1316420094 893.867416058 98.220971531 892.778086536L-113.911062825 1104.91012089C-115.000392347 1105.99945041 -115.491336356 1107.85197718 -115.491336356 1110.57606436Z"
             style="fill:#0a47ad;fill-opacity:1" />
          <path
             id="path4858"
             d="M98.220971531 892.778086536C99.3028573978 891.69620067 100.974978889 891.367117456 103.34259 891.68468L-108.789444356 1103.81671436C-111.157055467 1103.49915181 -112.829176958 1103.82823503 -113.911062825 1104.91012089Z"
             style="fill:#0a47ad;fill-opacity:1" />
          <path
             id="path4860"
             d="M103.34259 891.68468C105.339998702 891.952588081 106.292353905 892.001795329 106.629391918 891.664757316L-105.502642438 1103.79679167C-105.839680451 1104.13382969 -106.792035654 1104.08462244 -108.789444356 1103.81671436Z"
             style="fill:#0a47ad;fill-opacity:1" />
          <path
             id="path4862"
             d="M106.629391918 891.664757316C106.85574017 891.438409064 106.804567604 891.037856186 106.60604 890.41235L-105.525994356 1102.54438436C-105.327466752 1103.16989054 -105.276294186 1103.57044342 -105.502642438 1103.79679167Z"
             style="fill:#0a47ad;fill-opacity:1" />
          <path
             id="path4864"
             d="M106.60604 890.41235C106.397700319 889.755925719 106.506461336 889.211108964 106.9446789 888.7728914L-105.187355456 1100.90492576C-105.62557302 1101.34314332 -105.734334037 1101.88796007 -105.525994356 1102.54438436Z"
             style="fill:#0a47ad;fill-opacity:1" />
          <path
             id="path4866"
             d="M106.9446789 888.7728914C107.858430008 887.859140292 110.20461444 887.408868307 114.09525 887.37667L-98.036784356 1099.50870436C-101.927419915 1099.54090266 -104.273604348 1099.99117465 -105.187355456 1100.90492576Z"
             style="fill:#0a47ad;fill-opacity:1" />
          <path
             id="path4868"
             d="M114.09525 887.37667C116.69071125 887.355163367 118.051060819 887.113965471 119.087499509 886.077526782L-93.0445348472 1098.20956114C-94.080973537 1099.24599983 -95.4413231061 1099.48719772 -98.036784356 1099.50870436Z"
             style="fill:#0a47ad;fill-opacity:1" />
          <path
             id="path4870"
             d="M119.087499509 886.077526782C119.728127914 885.436898376 120.245004759 884.492444766 120.85331 883.10825L-91.278724356 1095.24028436C-91.8870295973 1096.62447912 -92.403906442 1097.56893273 -93.0445348472 1098.20956114Z"
             style="fill:#0a47ad;fill-opacity:1" />
          <path
             id="path4872"
             d="M120.85331 883.10825C121.192396855 882.336660645 121.666124502 881.650092671 122.26062176 881.055595413L-89.8714125962 1093.18762977C-90.4659098544 1093.78212703 -90.9396375006 1094.468695 -91.278724356 1095.24028436Z"
             style="fill:#0a47ad;fill-opacity:1" />
          <path
             id="path4874"
             d="M122.26062176 881.055595413C123.987839371 879.328377802 126.734474457 878.37833 130.16035 878.37833L-81.971684356 1090.51036436C-85.3975598986 1090.51036436 -88.1441949851 1091.46041216 -89.8714125962 1093.18762977Z"
             style="fill:#0a47ad;fill-opacity:1" />
          <path
             id="path4876"
             d="M130.16035 878.37833C133.55335 878.37833 133.76587 878.97038 131.34525 881.67919L-80.786784356 1093.81122436C-78.366164356 1091.10241436 -78.578684356 1090.51036436 -81.971684356 1090.51036436Z"
             style="fill:#0a47ad;fill-opacity:1" />
          <path
             id="path4878"
             d="M131.34525 881.67919C129.89107 883.30649 130.49952 883.18166 134.94468 880.9407L-77.187354356 1093.07273436C-81.632514356 1095.31369436 -82.240964356 1095.43852436 -80.786784356 1093.81122436Z"
             style="fill:#0a47ad;fill-opacity:1" />
          <path
             id="path4880"
             d="M134.94468 880.9407C137.88687 879.45744 140.44907 878.39882 140.63846 878.58821L-71.493574356 1090.72024436C-71.682964356 1090.53085436 -74.245164356 1091.58947436 -77.187354356 1093.07273436Z"
             style="fill:#0a47ad;fill-opacity:1" />
          <path
             id="path4882"
             d="M140.63846 878.58821C141.22238 879.17213 139.07552 887.61764 137.49824 890.94151L-74.633794356 1103.07354436C-73.056514356 1099.74967436 -70.909654356 1091.30416436 -71.493574356 1090.72024436Z"
             style="fill:#0a47ad;fill-opacity:1" />
          <path
             id="path4884"
             d="M137.49824 890.94151C136.989560113 892.013470716 136.114532231 893.191452187 135.201335784 894.104648634L-76.9306985721 1106.23668299C-76.0175021246 1105.32348654 -75.1424742431 1104.14550507 -74.633794356 1103.07354436Z"
             style="fill:#0a47ad;fill-opacity:1" />
          <path
             id="path4886"
             d="M135.201335784 894.104648634C134.639895933 894.666088485 134.064028821 895.127442768 133.55 895.40254L-78.582034356 1107.53457436C-78.0680055354 1107.25947712 -77.4921384232 1106.79812284 -76.9306985721 1106.23668299Z"
             style="fill:#0a47ad;fill-opacity:1" />
          <path
             id="path4888"
             d="M133.55 895.40254C132.643064284 895.887915723 131.846903649 896.447701038 131.421939298 896.872665388L-80.7100950576 1109.00469974C-80.2851307069 1108.57973539 -79.4889700717 1108.01995008 -78.582034356 1107.53457436Z"
             style="fill:#0a47ad;fill-opacity:1" />
          <path
             id="path4890"
             d="M131.421939298 896.872665388C131.214275714 897.080328973 131.09525 897.255798692 131.09525 897.37466L-81.036784356 1109.50669436C-81.036784356 1109.38783305 -80.917758642 1109.21236333 -80.7100950576 1109.00469974Z"
             style="fill:#0a47ad;fill-opacity:1" />
          <path
             id="path4892"
             d="M131.09525 897.37466C131.09525 897.73677 133.4216 899.12323 136.26493 900.45568L-75.867104356 1112.58771436C-78.710434356 1111.25526436 -81.036784356 1109.86880436 -81.036784356 1109.50669436Z"
             style="fill:#0a47ad;fill-opacity:1" />
          <path
             id="path4894"
             d="M136.26493 900.45568C142.123640471 903.201226777 146.040351463 907.506808011 144.36235318 909.184806295L-67.7696811761 1121.31684065C-66.0916828925 1119.63884237 -70.0083938854 1115.33326113 -75.867104356 1112.58771436Z"
             style="fill:#0a47ad;fill-opacity:1" />
          <path
             id="path4896"
             d="M144.36235318 909.184806295C144.280497092 909.266662383 144.185327374 909.342265658 144.07642 909.41113L-68.055614356 1121.54316436C-67.9467069817 1121.47430001 -67.8515372641 1121.39869674 -67.7696811761 1121.31684065Z"
             style="fill:#0a47ad;fill-opacity:1" />
          <path
             id="path4898"
             d="M144.07642 909.41113C141.59128 910.98253 140.0922 910.50052 139.06543 907.7999L-73.066604356 1119.93193436C-72.039834356 1122.63255436 -70.540754356 1123.11456436 -68.055614356 1121.54316436Z"
             style="fill:#0a47ad;fill-opacity:1" />
          <path
             id="path4900"
             d="M139.06543 907.7999L138.08511 905.22148L-74.046924356 1117.35351436L-73.066604356 1119.93193436Z"
             style="fill:#0a47ad;fill-opacity:1" />
          <path
             id="path4902"
             d="M138.08511 905.22148L134.45188 907.46694L-77.680154356 1119.59897436L-74.046924356 1117.35351436Z"
             style="fill:#0a47ad;fill-opacity:1" />
          <path
             id="path4904"
             d="M134.45188 907.46694C131.47038 909.3096 130.33022 909.52804 128.09587 908.68467L-84.036164356 1120.81670436C-81.801814356 1121.66007436 -80.661654356 1121.44163436 -77.680154356 1119.59897436Z"
             style="fill:#0a47ad;fill-opacity:1" />
          <path
             id="path4906"
             d="M128.09587 908.68467C126.267019506 907.994355161 125.500738252 907.949454285 124.248807163 909.201385375L-87.8832271932 1121.33341973C-86.6312961035 1120.08148864 -85.8650148498 1120.12638952 -84.036164356 1120.81670436Z"
             style="fill:#0a47ad;fill-opacity:1" />
          <path
             id="path4908"
             d="M124.248807163 909.201385375C123.827887414 909.622305123 123.3520691 910.189820649 122.76251 910.92869L-89.369524356 1123.06072436C-88.7799652559 1122.321855 -88.3041469415 1121.75433948 -87.8832271932 1121.33341973Z"
             style="fill:#0a47ad;fill-opacity:1" />
          <path
             id="path4910"
             d="M122.76251 910.92869C122.416110156 911.362821235 122.070829051 911.754271031 121.716024267 912.109075815L-90.4160100893 1124.24111017C-90.0612053048 1123.88630539 -89.7159242001 1123.49485559 -89.369524356 1123.06072436Z"
             style="fill:#0a47ad;fill-opacity:1" />
          <path
             id="path4912"
             d="M121.716024267 912.109075815C120.065423162 913.75967692 118.208706815 914.617192205 115.07436 915.28939L-97.057674356 1127.42142436C-93.9233275412 1126.74922656 -92.0666111943 1125.89171128 -90.4160100893 1124.24111017Z"
             style="fill:#0a47ad;fill-opacity:1" />
          <path
             id="path4914"
             d="M115.07436 915.28939C108.668754918 916.66314839 106.5962235 916.717123156 107.963752694 915.349593963L-104.168281662 1127.48162832C-105.535810856 1128.84915751 -103.463279438 1128.79518275 -97.057674356 1127.42142436Z"
             style="fill:#0a47ad;fill-opacity:1" />
          <path
             id="path4916"
             d="M107.963752694 915.349593963C108.182507858 915.130838799 108.489288726 914.875709599 108.88044 914.58379L-103.251594356 1126.71582436C-103.64274563 1127.00774396 -103.949526498 1127.26287315 -104.168281662 1127.48162832Z"
             style="fill:#0a47ad;fill-opacity:1" />
        </g>
        <path
           inkscape:connector-curvature="0"
           style="fill:#0a47ad;fill-opacity:1"
           d="m 108.88044,914.58379 c 5.22477,-3.89928 6.63261,-5.18488 5.21481,-4.76197 -0.825,0.24608 -4.875,1.40106 -9,2.56663 -4.125,1.16557 -8.400002,2.37492 -9.500002,2.68745 -1.95247,0.55473 -1.95612,0.51908 -0.15372,-1.4998 2.35665,-2.6397 8.683892,-5.57575 15.456892,-7.17252 5.10535,-1.20361 5.23965,-1.32045 3.6001,-3.13214 -3.45995,-3.82319 -10.86512,-4.37458 -14.659402,-1.09155 -2.29919,1.98939 -3.19842,0.93906 -3.19842,-3.73586 0,-5.42956 1.95038,-7.39666 6.701892,-6.75935 3.33883,0.44783 3.75759,0.28457 3.26345,-1.27233 -0.64276,-2.02517 1.7327,-2.98804 7.48921,-3.03568 4.19973,-0.0348 5.16561,-0.64481 6.75806,-4.26842 1.32425,-3.01332 4.702,-4.72992 9.30704,-4.72992 3.393,0 3.60552,0.59205 1.1849,3.30086 -1.45418,1.6273 -0.84573,1.50247 3.59943,-0.73849 2.94219,-1.48326 5.50439,-2.54188 5.69378,-2.35249 0.58392,0.58392 -1.56294,9.02943 -3.14022,12.3533 -0.82142,1.73101 -2.59813,3.73848 -3.94824,4.46103 -1.35012,0.72256 -2.45475,1.61002 -2.45475,1.97212 0,0.36211 2.32635,1.74857 5.16968,3.08102 6.14451,2.87948 10.15293,7.47491 7.81149,8.95545 -2.48514,1.5714 -3.98422,1.08939 -5.01099,-1.61123 l -0.98032,-2.57842 -3.63323,2.24546 c -2.9815,1.84266 -4.12166,2.0611 -6.35601,1.21773 -2.44374,-0.92241 -2.99029,-0.69245 -5.33336,2.24402 -1.9579,2.45377 -3.88006,3.54401 -7.68815,4.3607 -7.43027,1.59351 -9.03032,1.41123 -6.19392,-0.7056 z"
           id="path4316" />
      </g>
      <g
         id="g4919"
         style="fill:#0a47ad;fill-opacity:1">
        <g
           id="g4921"
           style="fill:#0a47ad;fill-opacity:1">
          <path
             id="path4923"
             d="M52.643015 927.12833C52.224055 926.16583 52.224055 924.59083 52.643015 923.62833L-159.489019356 1135.76036436C-159.907979356 1136.72286436 -159.907979356 1138.29786436 -159.489019356 1139.26036436Z"
             style="fill:#0a47ad;fill-opacity:1" />
          <path
             id="path4925"
             d="M52.643015 923.62833C52.9283818738 922.972741505 53.1101954057 922.575030259 53.2500294026 922.435196263L-158.882004953 1134.56723062C-159.02183895 1134.70706462 -159.203652482 1135.10477586 -159.489019356 1135.76036436Z"
             style="fill:#0a47ad;fill-opacity:1" />
          <path
             id="path4927"
             d="M53.2500294026 922.435196263C53.4656884163 922.219537249 53.5814976048 922.617248495 53.823328 923.62833L-158.308706356 1135.76036436C-158.550536751 1134.74928285 -158.66634594 1134.3515716 -158.882004953 1134.56723062Z"
             style="fill:#0a47ad;fill-opacity:1" />
          <path
             id="path4929"
             d="M53.823328 923.62833C54.05354 924.59083 54.05354 926.16583 53.823328 927.12833L-158.308706356 1139.26036436C-158.078494356 1138.29786436 -158.078494356 1136.72286436 -158.308706356 1135.76036436Z"
             style="fill:#0a47ad;fill-opacity:1" />
          <path
             id="path4931"
             d="M53.823328 927.12833C53.6585035594 927.817453232 53.5522207856 928.221642536 53.4329654085 928.340897914L-158.699068947 1140.47293227C-158.57981357 1140.35367689 -158.473530797 1139.94948759 -158.308706356 1139.26036436Z"
             style="fill:#0a47ad;fill-opacity:1" />
          <path
             id="path4933"
             d="M53.4329654085 928.340897914C53.2637972495 928.510066073 53.0685250074 928.105876768 52.643015 927.12833L-159.489019356 1139.26036436C-159.063509349 1140.23791112 -158.868237106 1140.64210043 -158.699068947 1140.47293227Z"
             style="fill:#0a47ad;fill-opacity:1" />
        </g>
        <path
           inkscape:connector-curvature="0"
           style="fill:#0a47ad;fill-opacity:1"
           d="m 52.643015,927.12833 c -0.41896,-0.9625 -0.41896,-2.5375 0,-3.5 0.725474,-1.66667 0.781679,-1.66667 1.180313,0 0.230212,0.9625 0.230212,2.5375 0,3.5 -0.398634,1.66667 -0.454839,1.66667 -1.180313,0 z"
           id="path4320" />
      </g>
      <g
         id="g4936"
         style="fill:#0a47ad;fill-opacity:1">
        <g
           id="g4938"
           style="fill:#0a47ad;fill-opacity:1">
          <path
             id="path4940"
             d="M63.74428 909.85055C63.9154066837 909.40460079 64.250265898 908.948537537 64.6731091389 908.525694296L-147.458925217 1120.65772865C-147.881768458 1121.08057189 -148.216627672 1121.53663515 -148.387754356 1121.98258436Z"
             style="fill:#0a47ad;fill-opacity:1" />
          <path
             id="path4942"
             d="M64.6731091389 908.525694296C66.0116559851 907.187147449 68.231885285 906.181496281 68.930892 906.88339L-143.201142356 1119.01542436C-143.900149071 1118.31353064 -146.120378371 1119.31918181 -147.458925217 1120.65772865Z"
             style="fill:#0a47ad;fill-opacity:1" />
          <path
             id="path4944"
             d="M68.930892 906.88339C69.2345566043 907.188308985 68.6270852078 908.073863732 67.7217376139 908.979211326L-144.410296742 1121.11124568C-143.504949148 1120.20589809 -142.897477752 1119.32034334 -143.201142356 1119.01542436Z"
             style="fill:#0a47ad;fill-opacity:1" />
          <path
             id="path4946"
             d="M67.7217376139 908.979211326C66.5390661818 910.161882758 64.8480792994 911.37833 64.015847 911.37833L-148.116187356 1123.51036436C-147.283955057 1123.51036436 -145.592968174 1122.29391711 -144.410296742 1121.11124568Z"
             style="fill:#0a47ad;fill-opacity:1" />
          <path
             id="path4948"
             d="M64.015847 911.37833C63.54404 911.37833 63.421834 910.69083 63.74428 909.85055L-148.387754356 1121.98258436C-148.710200356 1122.82286436 -148.587994356 1123.51036436 -148.116187356 1123.51036436Z"
             style="fill:#0a47ad;fill-opacity:1" />
        </g>
        <path
           inkscape:connector-curvature="0"
           style="fill:#0a47ad;fill-opacity:1"
           d="m 63.74428,909.85055 c 0.712843,-1.85764 4.266791,-3.89078 5.186612,-2.96716 0.700347,0.70324 -3.44573,4.49494 -4.915045,4.49494 -0.471807,0 -0.594013,-0.6875 -0.271567,-1.52778 z"
           id="path4312" />
      </g>
      <g
         id="g4951"
         style="fill:#0a47ad;fill-opacity:1">
        <g
           id="g4953"
           style="fill:#0a47ad;fill-opacity:1">
          <path
             id="path4955"
             d="M125.73943 970.12833C123.848549532 968.142182423 122.432942614 966.950203014 122.24030753 967.142838098L-89.8917268263 1179.27487245C-89.6990917423 1179.08223737 -88.2834848241 1180.27421678 -86.392604356 1182.26036436Z"
             style="fill:#0a47ad;fill-opacity:1" />
          <path
             id="path4957"
             d="M122.24030753 967.142838098C122.2062301 967.176915528 122.21042451 967.254323262 122.25703 967.37833L-89.875004356 1179.51036436C-89.9216098457 1179.38635762 -89.9258042556 1179.30894988 -89.8917268263 1179.27487245Z"
             style="fill:#0a47ad;fill-opacity:1" />
          <path
             id="path4959"
             d="M122.25703 967.37833C123.553605134 970.828148863 124.100508422 972.294441854 123.477292059 972.917658217L-88.6547422969 1185.04969257C-88.0315259337 1184.42647621 -88.5784292224 1182.96018322 -89.875004356 1179.51036436Z"
             style="fill:#0a47ad;fill-opacity:1" />
          <path
             id="path4961"
             d="M123.477292059 972.917658217C123.019649986 973.375300291 121.931044079 973.37833 120.04499 973.37833L-92.087044356 1185.51036436C-90.2009902774 1185.51036436 -89.1123843702 1185.50733465 -88.6547422969 1185.04969257Z"
             style="fill:#0a47ad;fill-opacity:1" />
          <path
             id="path4963"
             d="M120.04499 973.37833C116.53516 973.37833 115.24909 972.76743 112.0737 969.59208L-100.058334356 1181.72411436C-96.882944356 1184.89946436 -95.596874356 1185.51036436 -92.087044356 1185.51036436Z"
             style="fill:#0a47ad;fill-opacity:1" />
          <path
             id="path4965"
             d="M112.0737 969.59208C103.83271 961.35108 104.25523 946.88453 113.25917 929.00353L-98.872864356 1141.13556436C-107.876804356 1159.01656436 -108.299324356 1173.48311436 -100.058334356 1181.72411436Z"
             style="fill:#0a47ad;fill-opacity:1" />
          <path
             id="path4967"
             d="M113.25917 929.00353C115.260867643 925.02834321 117.580917961 921.722323476 120.214462517 919.088778919L-91.9175718386 1131.22081328C-94.5511163951 1133.85435783 -96.8711667129 1137.16037757 -98.872864356 1141.13556436Z"
             style="fill:#0a47ad;fill-opacity:1" />
          <path
             id="path4969"
             d="M120.214462517 919.088778919C125.34660099 913.956640447 131.669282101 911.37833 139.14655 911.37833L-72.985484356 1123.51036436C-80.4627522549 1123.51036436 -86.7854333664 1126.0886748 -91.9175718386 1131.22081328Z"
             style="fill:#0a47ad;fill-opacity:1" />
          <path
             id="path4971"
             d="M139.14655 911.37833L145.80517 911.37833L-66.326864356 1123.51036436L-72.985484356 1123.51036436Z"
             style="fill:#0a47ad;fill-opacity:1" />
          <path
             id="path4973"
             d="M145.80517 911.37833L146.42023 904.12833L-65.711804356 1116.26036436L-66.326864356 1123.51036436Z"
             style="fill:#0a47ad;fill-opacity:1" />
          <path
             id="path4975"
             d="M146.42023 904.12833C146.94332 897.96248 146.58063 895.1818 143.99479 885.53318L-68.137244356 1097.66521436C-65.551404356 1107.31383436 -65.188714356 1110.09451436 -65.711804356 1116.26036436Z"
             style="fill:#0a47ad;fill-opacity:1" />
          <path
             id="path4977"
             d="M143.99479 885.53318C142.32252 879.29335 141.2152 873.50812 141.53409 872.67711L-70.597944356 1084.80914436C-70.916834356 1085.64015436 -69.809514356 1091.42538436 -68.137244356 1097.66521436Z"
             style="fill:#0a47ad;fill-opacity:1" />
          <path
             id="path4979"
             d="M141.53409 872.67711C141.630376923 872.426190626 141.763476105 872.21861932 141.929320242 872.052775183L-70.202714114 1084.18480954C-70.3685582507 1084.35065368 -70.5016574328 1084.55822498 -70.597944356 1084.80914436Z"
             style="fill:#0a47ad;fill-opacity:1" />
          <path
             id="path4981"
             d="M141.929320242 872.052775183C143.436455811 870.545639614 147.647853517 872.484567932 151.51096 876.65306L-60.621074356 1088.78509436C-64.484180839 1084.61660229 -68.6955785449 1082.67767397 -70.202714114 1084.18480954Z"
             style="fill:#0a47ad;fill-opacity:1" />
          <path
             id="path4983"
             d="M151.51096 876.65306C153.265857909 878.546694614 154.560575193 879.609127726 154.780475281 879.389227638L-57.3515590747 1091.52126199C-57.571459163 1091.74116208 -58.866176447 1090.67872897 -60.621074356 1088.78509436Z"
             style="fill:#0a47ad;fill-opacity:1" />
          <path
             id="path4985"
             d="M154.780475281 879.389227638C154.830440251 879.339262668 154.824915178 879.223094139 154.75669 879.03543L-57.375344356 1091.16746436C-57.3071191776 1091.35512849 -57.3015941049 1091.47129702 -57.3515590747 1091.52126199Z"
             style="fill:#0a47ad;fill-opacity:1" />
          <path
             id="path4987"
             d="M154.75669 879.03543C153.389967961 875.275974579 152.915632176 873.622915065 153.631333317 872.907213925L-58.5007010394 1085.03924828C-59.2164021795 1085.75494942 -58.7420663947 1087.40800894 -57.375344356 1091.16746436Z"
             style="fill:#0a47ad;fill-opacity:1" />
          <path
             id="path4989"
             d="M153.631333317 872.907213925C154.079791615 872.458755626 154.995491134 872.37833 156.45166 872.37833L-55.680374356 1084.51036436C-57.1365432223 1084.51036436 -58.0522427407 1084.59078998 -58.5007010394 1085.03924828Z"
             style="fill:#0a47ad;fill-opacity:1" />
          <path
             id="path4991"
             d="M156.45166 872.37833C160.83345 872.37833 161.70119 873.7731 162.67515 882.38176L-49.456884356 1094.51379436C-50.430844356 1085.90513436 -51.298584356 1084.51036436 -55.680374356 1084.51036436Z"
             style="fill:#0a47ad;fill-opacity:1" />
          <path
             id="path4993"
             d="M162.67515 882.38176C163.1341837 886.439106215 163.387957149 887.803028403 163.815329571 887.375655981L-48.3167047849 1099.50769034C-48.7440772066 1099.93506276 -48.9978506563 1098.57114057 -49.456884356 1094.51379436Z"
             style="fill:#0a47ad;fill-opacity:1" />
          <path
             id="path4995"
             d="M163.815329571 887.375655981C163.962586548 887.228399005 164.130453901 886.868472243 164.33443 886.33278L-47.797604356 1098.46481436C-48.0015804552 1099.0005066 -48.1694478082 1099.36043336 -48.3167047849 1099.50769034Z"
             style="fill:#0a47ad;fill-opacity:1" />
          <path
             id="path4997"
             d="M164.33443 886.33278C164.84846 884.98283 165.06718 880.05333 164.82048 875.37833L-47.311554356 1087.51036436C-47.064854356 1092.18536436 -47.283574356 1097.11486436 -47.797604356 1098.46481436Z"
             style="fill:#0a47ad;fill-opacity:1" />
          <path
             id="path4999"
             d="M164.82048 875.37833C164.47303 868.79412 163.74235 865.54213 161.57858 860.94986L-50.553454356 1073.08189436C-48.389684356 1077.67416436 -47.659004356 1080.92615436 -47.311554356 1087.51036436Z"
             style="fill:#0a47ad;fill-opacity:1" />
          <path
             id="path5001"
             d="M161.57858 860.94986C159.02232 855.52458 158.90739 854.80371 160.22461 852.45693L-51.907424356 1064.58896436C-53.224644356 1066.93574436 -53.109714356 1067.65661436 -50.553454356 1073.08189436Z"
             style="fill:#0a47ad;fill-opacity:1" />
          <path
             id="path5003"
             d="M160.22461 852.45693C160.643484641 851.710652598 161.066558784 851.116799554 161.508960394 850.674397945L-50.6230739621 1062.8064323C-51.065475572 1063.24883391 -51.4885497151 1063.84268695 -51.907424356 1064.58896436Z"
             style="fill:#0a47ad;fill-opacity:1" />
          <path
             id="path5005"
             d="M161.508960394 850.674397945C163.1506933 849.032665039 165.058588507 849.476599267 168.00575 851.95648L-44.126284356 1064.08851436C-47.0734458485 1061.60863362 -48.9813410563 1061.16469939 -50.6230739621 1062.8064323Z"
             style="fill:#0a47ad;fill-opacity:1" />
          <path
             id="path5007"
             d="M168.00575 851.95648C176.77473 859.33509 177.72813 870.98158 171.51938 894.87833L-40.612654356 1107.01036436C-34.403904356 1083.11361436 -35.357304356 1071.46712436 -44.126284356 1064.08851436Z"
             style="fill:#0a47ad;fill-opacity:1" />
          <path
             id="path5009"
             d="M171.51938 894.87833C171.227793176 896.000618762 171.141425293 896.431715768 171.356565972 896.216575089L-40.7754683844 1108.34860945C-40.9906090628 1108.56375012 -40.90424118 1108.13265312 -40.612654356 1107.01036436Z"
             style="fill:#0a47ad;fill-opacity:1" />
          <path
             id="path5011"
             d="M171.356565972 896.216575089C171.485437207 896.087703854 171.722493321 895.726954807 172.08843 895.14399L-40.043604356 1107.27602436C-40.4095410354 1107.85898916 -40.6465971493 1108.21973821 -40.7754683844 1108.34860945Z"
             style="fill:#0a47ad;fill-opacity:1" />
          <path
             id="path5013"
             d="M172.08843 895.14399C172.6872 894.1901 174.09986 889.2401 175.22767 884.14399L-36.904364356 1096.27602436C-38.032174356 1101.37213436 -39.444834356 1106.32213436 -40.043604356 1107.27602436Z"
             style="fill:#0a47ad;fill-opacity:1" />
          <path
             id="path5015"
             d="M175.22767 884.14399C176.86866 876.72902 177.14899 873.04373 176.63117 865.69325L-35.500864356 1077.82528436C-34.983044356 1085.17576436 -35.263374356 1088.86105436 -36.904364356 1096.27602436Z"
             style="fill:#0a47ad;fill-opacity:1" />
          <path
             id="path5017"
             d="M176.63117 865.69325C176.149312079 858.853193541 176.134758955 856.999371396 177.089887155 856.044243197L-35.0421472014 1068.17627755C-35.9972754005 1069.13140575 -35.9827222774 1070.9852279 -35.500864356 1077.82528436Z"
             style="fill:#0a47ad;fill-opacity:1" />
          <path
             id="path5019"
             d="M177.089887155 856.044243197C177.304224188 855.829906164 177.567392729 855.660825833 177.88507 855.49081L-34.246964356 1067.62284436C-34.5646416271 1067.79286019 -34.8278101677 1067.96194052 -35.0421472014 1068.17627755Z"
             style="fill:#0a47ad;fill-opacity:1" />
          <path
             id="path5021"
             d="M177.88507 855.49081C180.78559 853.9385 183.65607 856.55613 185.71263 862.62887L-26.419404356 1074.76090436C-28.475964356 1068.68816436 -31.346444356 1066.07053436 -34.246964356 1067.62284436Z"
             style="fill:#0a47ad;fill-opacity:1" />
          <path
             id="path5023"
             d="M185.71263 862.62887C189.21864 872.98161 187.12566 883.66922 178.73238 898.27295L-33.399654356 1110.40498436C-25.006374356 1095.80125436 -22.913394356 1085.11364436 -26.419404356 1074.76090436Z"
             style="fill:#0a47ad;fill-opacity:1" />
          <path
             id="path5025"
             d="M178.73238 898.27295C173.52155 907.33941 169.90246 914.37833 170.45172 914.37833L-41.680314356 1126.51036436C-42.229574356 1126.51036436 -38.610484356 1119.47144436 -33.399654356 1110.40498436Z"
             style="fill:#0a47ad;fill-opacity:1" />
          <path
             id="path5027"
             d="M170.45172 914.37833C170.524101165 914.37833 170.631462197 914.305599196 170.770125436 914.166935957L-41.3619089201 1126.29897031C-41.5005721591 1126.43763355 -41.6079331907 1126.51036436 -41.680314356 1126.51036436Z"
             style="fill:#0a47ad;fill-opacity:1" />
          <path
             id="path5029"
             d="M170.770125436 914.166935957C172.930939855 912.006121537 182.693042879 893.834568398 186.13962 885.37833L-25.992414356 1097.51036436C-29.4389914765 1105.96660275 -39.2010945005 1124.13815589 -41.3619089201 1126.29897031Z"
             style="fill:#0a47ad;fill-opacity:1" />
          <path
             id="path5031"
             d="M186.13962 885.37833C188.49338 879.60333 190.78624 874.46089 191.23487 873.95068L-20.897164356 1086.08271436C-21.345794356 1086.59292436 -23.638654356 1091.73536436 -25.992414356 1097.51036436Z"
             style="fill:#0a47ad;fill-opacity:1" />
          <path
             id="path5033"
             d="M191.23487 873.95068C191.239585395 873.945317283 191.24438931 873.940190884 191.249280732 873.935299462L-20.8827536242 1086.06733382C-20.8876450462 1086.07222524 -20.8924489614 1086.07735164 -20.897164356 1086.08271436Z"
             style="fill:#0a47ad;fill-opacity:1" />
          <path
             id="path5035"
             d="M191.249280732 873.935299462C191.719611102 873.464969092 192.998995231 875.167148647 194.18604 877.85068L-17.945994356 1089.98271436C-19.1330391253 1087.299183 -20.4124232541 1085.59700345 -20.8827536242 1086.06733382Z"
             style="fill:#0a47ad;fill-opacity:1" />
          <path
             id="path5037"
             d="M194.18604 877.85068C196.99145 884.19276 196.36317 889.62153 191.79289 898.52931L-20.339144356 1110.66134436C-15.768864356 1101.75356436 -15.140584356 1096.32479436 -17.945994356 1089.98271436Z"
             style="fill:#0a47ad;fill-opacity:1" />
          <path
             id="path5039"
             d="M191.79289 898.52931C189.86019 902.29627 188.39737 905.37833 188.54218 905.37833L-23.589854356 1117.51036436C-23.734664356 1117.51036436 -22.271844356 1114.42830436 -20.339144356 1110.66134436Z"
             style="fill:#0a47ad;fill-opacity:1" />
          <path
             id="path5041"
             d="M188.54218 905.37833C188.554208371 905.37833 188.579459947 905.358925204 188.617015898 905.321369253L-23.5150184579 1117.45340361C-23.5525744093 1117.49095956 -23.5778259847 1117.51036436 -23.589854356 1117.51036436Z"
             style="fill:#0a47ad;fill-opacity:1" />
          <path
             id="path5043"
             d="M188.617015898 905.321369253C189.031597413 904.906787738 190.945594191 902.280300504 193.12298 899.12833L-19.009054356 1111.26036436C-21.1864401645 1114.41233486 -23.1004369431 1117.03882209 -23.5150184579 1117.45340361Z"
             style="fill:#0a47ad;fill-opacity:1" />
          <path
             id="path5045"
             d="M193.12298 899.12833C195.49761 895.69083 197.61228 892.66636 197.82225 892.40729L-14.309784356 1104.53932436C-14.519754356 1104.79839436 -16.634424356 1107.82286436 -19.009054356 1111.26036436Z"
             style="fill:#0a47ad;fill-opacity:1" />
          <path
             id="path5047"
             d="M197.82225 892.40729C197.827022156 892.401401629 197.831990863 892.395879565 197.83715073 892.390719698L-14.2948836259 1104.52275405C-14.3000434927 1104.52791392 -14.3050122001 1104.53343598 -14.309784356 1104.53932436Z"
             style="fill:#0a47ad;fill-opacity:1" />
          <path
             id="path5049"
             d="M197.83715073 892.390719698C198.059008939 892.168861489 198.634269687 892.616609256 199.13431 893.40729L-12.997724356 1105.53932436C-13.4977646695 1104.74864361 -14.0730254172 1104.30089585 -14.2948836259 1104.52275405Z"
             style="fill:#0a47ad;fill-opacity:1" />
          <path
             id="path5051"
             d="M199.13431 893.40729C200.58287 895.6978 200.25908 903.54124 198.50322 908.69439L-13.628814356 1120.82642436C-11.872954356 1115.67327436 -11.549164356 1107.82983436 -12.997724356 1105.53932436Z"
             style="fill:#0a47ad;fill-opacity:1" />
          <path
             id="path5053"
             d="M198.50322 908.69439C197.297206151 912.233843242 193.742107106 917.158244558 189.909251909 920.991099755L-22.2227824467 1133.12313411C-18.3899272498 1129.29027891 -14.8348282047 1124.3658776 -13.628814356 1120.82642436Z"
             style="fill:#0a47ad;fill-opacity:1" />
          <path
             id="path5055"
             d="M189.909251909 920.991099755C188.09487616 922.805475504 186.218259875 924.375253912 184.49912 925.43774L-27.632914356 1137.56977436C-25.9137744811 1136.50728827 -24.0371581957 1134.93750986 -22.2227824467 1133.12313411Z"
             style="fill:#0a47ad;fill-opacity:1" />
          <path
             id="path5057"
             d="M184.49912 925.43774C182.825432618 926.472136582 181.84167741 927.181329911 181.432957027 927.590050294L-30.6990773294 1139.72208465C-30.2903569459 1139.31336427 -29.3066017384 1138.60417094 -27.632914356 1137.56977436Z"
             style="fill:#0a47ad;fill-opacity:1" />
          <path
             id="path5059"
             d="M181.432957027 927.590050294C180.282335242 928.740672078 183.689004201 927.509972742 189.08949 924.44971L-23.042544356 1136.58174436C-28.4430301554 1139.6420071 -31.8496991136 1140.87270643 -30.6990773294 1139.72208465Z"
             style="fill:#0a47ad;fill-opacity:1" />
          <path
             id="path5061"
             d="M189.08949 924.44971C193.04115 922.21045 196.68403 920.37833 197.18478 920.37833L-14.947254356 1132.51036436C-15.448004356 1132.51036436 -19.090884356 1134.34248436 -23.042544356 1136.58174436Z"
             style="fill:#0a47ad;fill-opacity:1" />
          <path
             id="path5063"
             d="M197.18478 920.37833C199.88024 920.37833 196.5446 929.47225 192.23088 933.88409L-19.901154356 1146.01612436C-15.587434356 1141.60428436 -12.251794356 1132.51036436 -14.947254356 1132.51036436Z"
             style="fill:#0a47ad;fill-opacity:1" />
          <path
             id="path5065"
             d="M192.23088 933.88409C192.196376053 933.919378843 192.161578957 933.95456911 192.126486377 933.989661691L-20.0055479794 1146.12169605C-19.9704553986 1146.08660347 -19.935658303 1146.0514132 -19.901154356 1146.01612436Z"
             style="fill:#0a47ad;fill-opacity:1" />
          <path
             id="path5067"
             d="M192.126486377 933.989661691C188.458260457 937.65788761 181.561411578 940.258739902 168.76711 942.80717L-43.364924356 1154.93920436C-30.5706227775 1152.39077426 -23.6737738987 1149.78992197 -20.0055479794 1146.12169605Z"
             style="fill:#0a47ad;fill-opacity:1" />
          <path
             id="path5069"
             d="M168.76711 942.80717C164.46163 943.66475 160.18663 944.84808 159.26711 945.4368L-52.864924356 1157.56883436C-51.945404356 1156.98011436 -47.670404356 1155.79678436 -43.364924356 1154.93920436Z"
             style="fill:#0a47ad;fill-opacity:1" />
          <path
             id="path5071"
             d="M159.26711 945.4368C159.132005141 945.523299197 159.029258917 945.602538964 158.957036416 945.674761464L-53.1749979402 1157.80679582C-53.1027754394 1157.73457332 -53.0000292151 1157.65533355 -52.864924356 1157.56883436Z"
             style="fill:#0a47ad;fill-opacity:1" />
          <path
             id="path5073"
             d="M158.957036416 945.674761464C157.369954519 947.261843361 170.522657415 945.460315496 178.94382 942.83993L-33.188214356 1154.97196436C-41.6093769412 1157.59234985 -54.762079837 1159.39387772 -53.1749979402 1157.80679582Z"
             style="fill:#0a47ad;fill-opacity:1" />
          <path
             id="path5075"
             d="M178.94382 942.83993C183.53554 941.41115 187.54613 940.49588 187.85626 940.80601L-24.275774356 1152.93804436C-24.585904356 1152.62791436 -28.596494356 1153.54318436 -33.188214356 1154.97196436Z"
             style="fill:#0a47ad;fill-opacity:1" />
          <path
             id="path5077"
             d="M187.85626 940.80601C188.75528248 941.70503248 187.001751105 944.866398861 184.338316208 947.529833758L-27.7937181478 1159.66186811C-25.1302832506 1156.99843322 -23.3767518762 1153.83706684 -24.275774356 1152.93804436Z"
             style="fill:#0a47ad;fill-opacity:1" />
          <path
             id="path5079"
             d="M184.338316208 947.529833758C183.81110106 948.057048906 183.248233663 948.564753878 182.66323 949.03154L-29.468804356 1161.16357436C-28.8838006926 1160.69678823 -28.3209332955 1160.18908326 -27.7937181478 1159.66186811Z"
             style="fill:#0a47ad;fill-opacity:1" />
          <path
             id="path5081"
             d="M182.66323 949.03154C180.705 950.59405 176.28861 952.85115 172.84903 954.04732L-39.283004356 1166.17935436C-35.843424356 1164.98318436 -31.427034356 1162.72608436 -29.468804356 1161.16357436Z"
             style="fill:#0a47ad;fill-opacity:1" />
          <path
             id="path5083"
             d="M172.84903 954.04732C169.738705227 955.128987329 168.188207705 955.673050635 167.90473803 955.95652031L-44.2272963257 1168.08855467C-43.943826651 1167.80508499 -42.3933291292 1167.26102168 -39.283004356 1166.17935436Z"
             style="fill:#0a47ad;fill-opacity:1" />
          <path
             id="path5085"
             d="M167.90473803 955.95652031C167.625887203 956.235371137 168.573110776 956.262051359 170.46769 956.30025L-41.664344356 1168.43228436C-43.55892358 1168.39408571 -44.5061471533 1168.36740549 -44.2272963257 1168.08855467Z"
             style="fill:#0a47ad;fill-opacity:1" />
          <path
             id="path5087"
             d="M170.46769 956.30025C173.72976 956.36605 174.1508 956.60647 173.13893 957.8257L-38.993104356 1169.95773436C-37.981234356 1168.73850436 -38.402274356 1168.49808436 -41.664344356 1168.43228436Z"
             style="fill:#0a47ad;fill-opacity:1" />
          <path
             id="path5089"
             d="M173.13893 957.8257C172.999295323 957.993949312 172.850185205 958.157373791 172.691581828 958.315977168L-39.4404525277 1170.44801152C-39.2818491513 1170.28940815 -39.1327390333 1170.12598367 -38.993104356 1169.95773436Z"
             style="fill:#0a47ad;fill-opacity:1" />
          <path
             id="path5091"
             d="M172.691581828 958.315977168C169.611231781 961.396327215 162.949994952 962.658142254 152.57734 962.12875L-59.554694356 1174.26078436C-49.1820394035 1174.79017661 -42.5208025752 1173.52836157 -39.4404525277 1170.44801152Z"
             style="fill:#0a47ad;fill-opacity:1" />
          <path
             id="path5093"
             d="M152.57734 962.12875C146.898660323 961.838923749 142.23699855 961.719041934 142.09842176 961.857618725L-70.0336125961 1173.98965308C-69.8950358056 1173.85107629 -65.2333740332 1173.97095811 -59.554694356 1174.26078436Z"
             style="fill:#0a47ad;fill-opacity:1" />
          <path
             id="path5095"
             d="M142.09842176 961.857618725C142.096311381 961.859729104 142.09525 961.861899425 142.09525 961.86413L-70.036784356 1173.99616436C-70.036784356 1173.99393378 -70.035722975 1173.99176346 -70.0336125961 1173.98965308Z"
             style="fill:#0a47ad;fill-opacity:1" />
          <path
             id="path5097"
             d="M142.09525 961.86413C142.09525 962.01282 144.80481 963.14779 148.1165 964.38628L-64.015534356 1176.51831436C-67.327224356 1175.27982436 -70.036784356 1174.14485436 -70.036784356 1173.99616436Z"
             style="fill:#0a47ad;fill-opacity:1" />
          <path
             id="path5099"
             d="M148.1165 964.38628C154.299880849 966.698708237 155.731170071 967.733051913 154.160156893 969.304065091L-57.9718774632 1181.43609945C-56.400864285 1179.86508627 -57.8321535071 1178.83074259 -64.015534356 1176.51831436Z"
             style="fill:#0a47ad;fill-opacity:1" />
          <path
             id="path5101"
             d="M154.160156893 969.304065091C153.966451402 969.497770582 153.727102442 969.699634964 153.44539 969.91306L-58.686644356 1182.04509436C-58.404931914 1181.83166932 -58.1655829543 1181.62980494 -57.9718774632 1181.43609945Z"
             style="fill:#0a47ad;fill-opacity:1" />
          <path
             id="path5103"
             d="M153.44539 969.91306C150.42924 972.19809 142.99953 971.70076 137.64861 968.85564L-74.483424356 1180.98767436C-69.132504356 1183.83279436 -61.702794356 1184.33012436 -58.686644356 1182.04509436Z"
             style="fill:#0a47ad;fill-opacity:1" />
          <path
             id="path5105"
             d="M137.64861 968.85564L132.90409 966.33296L-79.227944356 1178.46499436L-74.483424356 1180.98767436Z"
             style="fill:#0a47ad;fill-opacity:1" />
          <path
             id="path5107"
             d="M132.90409 966.33296L134.98641 969.70223L-77.145624356 1181.83426436L-79.227944356 1178.46499436Z"
             style="fill:#0a47ad;fill-opacity:1" />
          <path
             id="path5109"
             d="M134.98641 969.70223C136.342722619 971.89679993 136.798897656 973.108842135 136.162327091 973.7454127L-75.9697072654 1185.87744706C-75.3331366998 1185.24087649 -75.7893117368 1184.02883429 -77.145624356 1181.83426436Z"
             style="fill:#0a47ad;fill-opacity:1" />
          <path
             id="path5111"
             d="M136.162327091 973.7454127C135.682142777 974.225597014 134.580171091 974.37833 132.77374 974.37833L-79.358294356 1186.51036436C-77.5518632651 1186.51036436 -76.449891579 1186.35763137 -75.9697072654 1185.87744706Z"
             style="fill:#0a47ad;fill-opacity:1" />
          <path
             id="path5113"
             d="M132.77374 974.37833C130.55961 974.37833 128.73749 973.27743 125.73943 970.12833L-86.392604356 1182.26036436C-83.394544356 1185.40946436 -81.572424356 1186.51036436 -79.358294356 1186.51036436Z"
             style="fill:#0a47ad;fill-opacity:1" />
        </g>
        <path
           inkscape:connector-curvature="0"
           style="fill:#0a47ad;fill-opacity:1"
           d="m 125.73943,970.12833 c -2.22538,-2.3375 -3.79246,-3.575 -3.4824,-2.75 2.24868,5.9831 2.24244,6 -2.21204,6 -3.50983,0 -4.7959,-0.6109 -7.97129,-3.78625 -8.24099,-8.241 -7.81847,-22.70755 1.18547,-40.58855 5.90252,-11.72186 14.57317,-17.6252 25.88738,-17.6252 l 6.65862,0 0.61506,-7.25 c 0.52309,-6.16585 0.1604,-8.94653 -2.42544,-18.59515 -1.67227,-6.23983 -2.77959,-12.02506 -2.4607,-12.85607 0.97131,-2.53119 5.68867,-0.65124 9.97687,3.97595 2.15364,2.3239 3.61422,3.39596 3.24573,2.38237 -2.22311,-6.11513 -2.08512,-6.6571 1.69497,-6.6571 4.38179,0 5.24953,1.39477 6.22349,10.00343 0.6172,5.45536 0.86332,6.04141 1.65928,3.95102 0.51403,-1.34995 0.73275,-6.27945 0.48605,-10.95445 -0.34745,-6.58421 -1.07813,-9.8362 -3.2419,-14.42847 -2.55626,-5.42528 -2.67119,-6.14615 -1.35397,-8.49293 1.9733,-3.51568 4.0398,-3.64859 7.78114,-0.50045 8.76898,7.37861 9.72238,19.0251 3.51363,42.92185 -0.46625,1.79455 -0.40779,1.82184 0.56905,0.26566 0.59877,-0.95389 2.01143,-5.90389 3.13924,-11 1.64099,-7.41497 1.92132,-11.10026 1.4035,-18.45074 -0.58999,-8.37501 -0.47941,-9.2748 1.2539,-10.20244 2.90052,-1.55231 5.771,1.06532 7.82756,7.13806 3.50601,10.35274 1.41303,21.04035 -6.98025,35.64408 -5.21083,9.06646 -8.82992,16.10538 -8.28066,16.10538 1.20031,0 12.02015,-20.00111 15.6879,-29 2.35376,-5.775 4.64662,-10.91744 5.09525,-11.42765 0.45812,-0.52101 1.75178,1.18856 2.95117,3.9 2.80541,6.34208 2.17713,11.77085 -2.39315,20.67863 -1.9327,3.76696 -3.39552,6.84902 -3.25071,6.84902 0.14481,0 2.20617,-2.8125 4.5808,-6.25 2.37463,-3.4375 4.4893,-6.46197 4.69927,-6.72104 0.20996,-0.25907 0.80039,0.19093 1.31206,1 1.44856,2.29051 1.12477,10.13395 -0.63109,15.2871 -1.77691,5.21494 -8.65329,13.43637 -14.0041,16.74335 -6.38542,3.94641 -2.72846,3.15929 4.59037,-0.98803 3.95166,-2.23926 7.59454,-4.07138 8.09529,-4.07138 2.69546,0 -0.64018,9.09392 -4.9539,13.50576 -3.6412,3.72403 -10.54707,6.35027 -23.46377,8.92308 -4.30548,0.85758 -8.58048,2.04091 -9.5,2.62963 -3.10402,1.98731 10.87233,0.14276 19.67671,-2.59687 4.59172,-1.42878 8.60231,-2.34405 8.91244,-2.03392 1.07698,1.07698 -1.65265,5.40059 -5.19303,8.22553 -1.95823,1.56251 -6.37462,3.81961 -9.8142,5.01578 -6.16997,2.14571 -6.20188,2.1759 -2.38134,2.25293 3.26207,0.0658 3.68311,0.30622 2.67124,1.52545 -2.85158,3.43594 -9.65486,4.8597 -20.56159,4.30305 -5.76516,-0.29424 -10.48209,-0.41332 -10.48209,-0.26462 0,0.14869 2.70956,1.28366 6.02125,2.52215 6.94579,2.59755 7.89538,3.58241 5.32889,5.52678 -3.01615,2.28503 -10.44586,1.7877 -15.79678,-1.05742 l -4.74452,-2.52268 2.08232,3.36927 c 2.37942,3.85 1.98851,4.6761 -2.21267,4.6761 -2.21413,0 -4.03625,-1.1009 -7.03431,-4.25 z"
           id="path4330" />
      </g>
    </g>
    <path
       inkscape:connector-curvature="0"
       style="fill:#ffffff;fill-opacity:1"
       d="m 127.45355,995.14464 c -2.71171,-2.84833 -4.62125,-4.35626 -4.24343,-3.35097 2.7401,7.29062 2.73249,7.31122 -2.69545,7.31122 -4.27686,0 -5.84398,-0.74441 -9.71331,-4.61369 -10.04195,-10.04196 -9.5271,-27.66998 1.44454,-49.45863 7.19243,-14.28352 17.75794,-21.47696 31.54472,-21.47696 l 8.11377,0 0.74947,-8.83439 c 0.63741,-7.51331 0.19546,-10.90167 -2.95548,-22.65887 -2.03773,-7.60346 -3.38704,-14.65298 -2.99846,-15.66559 1.18358,-3.08435 6.93186,-0.79356 12.15719,4.84484 2.62429,2.83175 4.40406,4.1381 3.95504,2.903 -2.70894,-7.45151 -2.5408,-8.11192 2.06538,-8.11192 5.33937,0 6.39675,1.69958 7.58355,12.18955 0.75208,6.64755 1.05199,7.36168 2.0219,4.81446 0.62636,-1.64496 0.89288,-7.65174 0.59226,-13.3484 -0.42338,-8.0231 -1.31374,-11.98577 -3.95037,-17.58162 -3.1149,-6.6109 -3.25494,-7.48931 -1.64986,-10.34895 2.40454,-4.28398 4.92264,-4.44594 9.4816,-0.60981 10.68533,8.9911 11.84708,23.18278 4.28149,52.30185 -0.56814,2.18672 -0.49691,2.21998 0.69341,0.32371 0.72962,-1.16235 2.451,-7.1941 3.82528,-13.4039 1.9996,-9.03541 2.3412,-13.52607 1.71021,-22.4829 -0.71892,-10.20526 -0.58417,-11.30169 1.52793,-12.43205 3.53439,-1.89155 7.03217,1.29813 9.53817,8.69799 4.2722,12.61519 1.72183,25.63844 -8.50569,43.43362 -6.34959,11.04781 -10.75959,19.62499 -10.09029,19.62499 1.46262,0 14.64699,-24.37208 19.11628,-35.33756 2.86814,-7.03705 5.66208,-13.3033 6.20875,-13.92501 0.55823,-0.63487 2.13461,1.4483 3.59611,4.75229 3.41849,7.72806 2.65291,14.34321 -2.91614,25.19767 -2.35507,4.59018 -4.13757,8.34578 -3.96111,8.34578 0.17645,0 2.6883,-3.42713 5.58187,-7.61585 2.89357,-4.18872 5.47038,-7.87415 5.72623,-8.18984 0.25585,-0.31568 0.97531,0.23266 1.5988,1.21854 1.76512,2.79107 1.37057,12.34859 -0.76901,18.62789 -2.16523,6.3546 -10.54435,16.37271 -17.06451,20.40239 -7.78087,4.80885 -3.32473,3.84971 5.59353,-1.20395 4.81525,-2.72862 9.25423,-4.96113 9.86441,-4.96113 3.28452,0 -0.78008,11.08128 -6.03651,16.45727 -4.43693,4.53786 -12.85199,7.73803 -28.59146,10.8731 -5.24639,1.04499 -10.45563,2.48692 -11.5761,3.2043 -3.78236,2.42161 13.24833,0.17396 23.97679,-3.16438 5.59518,-1.74102 10.48223,-2.85631 10.86014,-2.47841 1.31234,1.31234 -2.01382,6.58082 -6.3279,10.02311 -2.38617,1.90398 -7.76771,4.65434 -11.95896,6.11191 -7.51834,2.61463 -7.55722,2.65142 -2.90175,2.74528 3.97495,0.0802 4.488,0.37314 3.255,1.85882 -3.47475,4.18682 -11.7648,5.92172 -25.05505,5.24342 -7.02506,-0.35854 -12.77281,-0.50364 -12.77281,-0.32245 0,0.18119 3.3017,1.56419 7.33711,3.07334 8.4637,3.16521 9.62081,4.36529 6.49345,6.73458 -3.67529,2.78439 -12.72866,2.17838 -19.24896,-1.28851 l -5.78137,-3.07397 2.53739,4.10558 c 2.89941,4.69136 2.42307,5.69797 -2.69622,5.69797 -2.698,0 -4.91832,-1.34146 -8.57157,-5.17876 z"
       id="path4387" />
    <path
       inkscape:connector-curvature="0"
       style="fill:#ffffff;fill-opacity:1"
       d="m 62.889829,987.97877 c -3.398882,-1.97586 -5.655385,-8.27085 -4.270481,-11.91343 1.571463,-4.13326 -0.574311,-13.02719 -5.980436,-24.78802 -3.07699,-6.69388 -4.982168,-9.44366 -6.543029,-9.44366 -2.653759,0 -5.006324,-3.94134 -3.967865,-6.64753 2.172464,-5.66134 8.522714,-4.02295 11.408267,2.94339 2.38793,5.76497 3.674064,4.40291 3.693676,-3.91171 0.0099,-4.18872 0.706961,-8.97761 1.549068,-10.64196 1.491151,-2.94714 7.422575,-6.05926 8.842383,-4.63944 0.389771,0.38977 -0.147872,4.85548 -1.194761,9.92379 -2.535791,12.27655 -2.457045,12.74127 1.51422,8.93656 3.771605,-3.61342 9.305958,-4.32217 12.949026,-1.65829 3.723702,2.72283 1.4041,6.4132 -5.618286,8.93843 -13.976061,5.02572 -12.184367,11.05566 7.135324,24.01392 5.875789,3.94105 9.888296,10.93377 7.751397,13.50857 -2.162744,2.60597 -5.567893,0.90418 -14.856689,-7.42491 -4.784408,-4.29009 -8.954432,-7.54464 -9.266722,-7.23235 -0.31229,0.31228 0.100578,3.35391 0.91749,6.75917 1.421162,5.92408 0.844344,14.69615 -0.961238,14.61824 -0.472278,-0.0204 -1.867883,-0.62372 -3.101344,-1.34077 z"
       id="path4389" />
    <path
       inkscape:connector-curvature="0"
       style="fill:#928484;fill-opacity:1"
       d="m 54.252694,986.22321 c -2.081478,-2.08148 -2.525637,-4.17784 -0.885165,-4.17784 1.179575,0 5.063005,4.04583 5.063005,5.27473 0,1.45117 -2.210019,0.87094 -4.17784,-1.09689 z"
       id="path4391" />
    <path
       inkscape:connector-curvature="0"
       style="fill:#928484;fill-opacity:1"
       d="m 93.612664,983.6826 c -2.120875,-2.55966 -2.098369,-14.63671 0.03449,-18.53515 1.50906,-2.75821 1.711045,-2.50151 4.604121,5.85098 2.83006,8.17055 2.89935,8.92875 1.071021,11.71914 -2.299781,3.50991 -3.441211,3.70283 -5.709675,0.96503 z"
       id="path4393" />
    <path
       inkscape:connector-curvature="0"
       style="fill:#928484;fill-opacity:1"
       d="m 38.382887,942.74757 c -0.510518,-1.17285 -0.510518,-3.09204 0,-4.26488 0.884016,-2.0309 0.952504,-2.0309 1.438254,0 0.280522,1.17284 0.280522,3.09203 0,4.26488 -0.48575,2.03089 -0.554238,2.03089 -1.438254,0 z"
       id="path4395" />
    <path
       inkscape:connector-curvature="0"
       style="fill:#928484;fill-opacity:1"
       d="m 78.61844,932.17603 c -1.16791,-1.29052 -1.938323,-3.2247 -1.71203,-4.29818 0.375921,-1.78328 0.648142,-1.78515 3.15315,-0.0216 1.50794,1.06161 2.741708,2.9958 2.741708,4.29818 0,3.00586 -1.475203,3.01347 -4.182828,0.0216 z"
       id="path4397" />
    <path
       inkscape:connector-curvature="0"
       style="fill:#ffffff;fill-opacity:1"
       d="m 106.91025,927.46158 c 6.36658,-4.75141 8.08208,-6.31796 6.35444,-5.80263 -1.00529,0.29986 -5.94037,1.70724 -10.96683,3.12753 -5.026464,1.42029 -10.235711,2.89393 -11.576101,3.27476 -2.379156,0.67596 -2.383604,0.63252 -0.187313,-1.82756 2.871664,-3.21658 10.581644,-6.79426 18.834794,-8.73998 6.22105,-1.46665 6.3847,-1.60902 4.38685,-3.81663 -4.21608,-4.6587 -13.23955,-5.33059 -17.86302,-1.33009 -2.801647,2.42414 -3.897392,1.14428 -3.897392,-4.55229 0,-6.61611 2.37661,-9.0131 8.166502,-8.23651 4.06849,0.54569 4.57876,0.34676 3.97663,-1.55038 -0.78322,-2.46775 2.11136,-3.64104 9.12588,-3.69909 5.11753,-0.0424 6.29449,-0.78573 8.23494,-5.20123 1.61365,-3.67184 5.72956,-5.76358 11.34097,-5.76358 4.1345,0 4.39346,0.72144 1.44385,4.02222 -1.77197,1.98293 -1.03055,1.83082 4.38604,-0.89988 3.58516,-1.8074 6.7073,-3.09737 6.93808,-2.86659 0.71152,0.71153 -1.9045,11.00269 -3.82648,15.05295 -1.00093,2.1093 -3.16591,4.55547 -4.81107,5.43593 -1.64517,0.88046 -2.99121,1.96186 -2.99121,2.4031 0,0.44124 2.83475,2.13069 6.29945,3.75433 7.48731,3.50875 12.37172,9.10845 9.51859,10.91255 -3.02824,1.91481 -4.85492,1.32746 -6.10608,-1.96335 l -1.19455,-3.14189 -4.42723,2.73617 c -3.63307,2.24535 -5.02239,2.51153 -7.74503,1.48385 -2.97779,-1.12399 -3.64378,-0.84378 -6.4989,2.73442 -2.38577,2.99001 -4.72799,4.31851 -9.36829,5.31367 -9.05405,1.94175 -11.00377,1.71964 -7.54752,-0.8598 z"
       id="path4399" />
    <path
       inkscape:connector-curvature="0"
       style="fill:#928484;fill-opacity:1"
       d="m 51.910186,921.69396 c 0.868625,-2.26361 5.199241,-4.74106 6.320077,-3.6156 0.853398,0.85693 -4.198749,5.47725 -5.989163,5.47725 -0.574914,0 -0.723827,-0.83774 -0.330914,-1.86165 z"
       id="path4401" />
  </g>
</svg>
