<?xml version="1.0" encoding="UTF-8" standalone="no"?>
<!-- Created with Inkscape (http://www.inkscape.org/) -->

<svg
   xmlns:dc="http://purl.org/dc/elements/1.1/"
   xmlns:cc="http://creativecommons.org/ns#"
   xmlns:rdf="http://www.w3.org/1999/02/22-rdf-syntax-ns#"
   xmlns:svg="http://www.w3.org/2000/svg"
   xmlns="http://www.w3.org/2000/svg"
   xmlns:sodipodi="http://sodipodi.sourceforge.net/DTD/sodipodi-0.dtd"
   xmlns:inkscape="http://www.inkscape.org/namespaces/inkscape"
   width="256"
   height="256"
   viewBox="0 0 256 256"
   id="svg2"
   version="1.1"
   inkscape:version="0.91 r13725"
   sodipodi:docname="browser-help.svg">
  <sodipodi:namedview
     id="base"
     pagecolor="#ffffff"
     bordercolor="#666666"
     borderopacity="1.0"
     inkscape:pageopacity="0.0"
     inkscape:pageshadow="2"
     inkscape:zoom="2.0507812"
     inkscape:cx="128.68557"
     inkscape:cy="128"
     inkscape:document-units="px"
     inkscape:current-layer="layer1"
     showgrid="false"
     units="px"
     inkscape:window-width="1366"
     inkscape:window-height="721"
     inkscape:window-x="0"
     inkscape:window-y="0"
     inkscape:window-maximized="1" />
  <defs
     id="defs4">
    <marker
       inkscape:stockid="Arrow1Mend"
       orient="auto"
       refY="0.0"
       refX="0.0"
       id="Arrow1Mend"
       style="overflow:visible;"
       inkscape:isstock="true">
      <path
         id="path5459"
         d="M 0.0,0.0 L 5.0,-5.0 L -12.5,0.0 L 5.0,5.0 L 0.0,0.0 z "
         style="fill-rule:evenodd;stroke:#000000;stroke-width:1pt;stroke-opacity:1;fill:#000000;fill-opacity:1"
         transform="scale(0.4) rotate(180) translate(10,0)" />
    </marker>
    <marker
       inkscape:isstock="true"
       style="overflow:visible;"
       id="marker7388"
       refX="0.0"
       refY="0.0"
       orient="auto"
       inkscape:stockid="Arrow1Mend">
      <path
         transform="scale(0.4) rotate(180) translate(10,0)"
         style="fill-rule:evenodd;stroke:#000000;stroke-width:1pt;stroke-opacity:1;fill:none;fill-opacity:1"
         d="M 0.0,0.0 L 5.0,-5.0 L -12.5,0.0 L 5.0,5.0 L 0.0,0.0 z "
         id="path7390" />
    </marker>
    <clipPath
       id="clipPath5002"
       clipPathUnits="userSpaceOnUse">
      <g
         id="g5004">
        <path
           style="fill:#0f9d58;fill-opacity:1;stroke:none;stroke-width:4.85768509;stroke-linejoin:round;stroke-miterlimit:4;stroke-dasharray:none;stroke-opacity:1"
           d="M 88.118406,249.43519 C 46.103287,235.29134 14.771284,201.68742 4.1335861,159.36053 1.3377997,148.23623 0.92261224,144.16281 0.92582381,127.88908 0.92787958,117.47222 1.134384,112.01362 1.6577819,108.54099 4.4653598,89.913336 12.17654,70.638106 23.042737,55.086148 c 3.958678,-5.665755 8.344812,-10.93092 9.101533,-10.925587 0.32809,0.0023 10.488643,18.309713 22.579009,40.683112 12.090365,22.373397 22.374546,41.334697 22.853732,42.136217 0.479186,0.80151 0.924733,2.44098 0.990103,3.64326 0.343424,6.31639 2.524175,14.20976 5.6424,20.42304 2.954444,5.88693 5.065381,8.73258 10.434696,14.06652 6.71418,6.66995 12.88853,10.28643 21.73204,12.72904 3.16587,0.87442 5.10478,1.05037 11.57517,1.05037 8.82596,0 12.60219,-0.76201 19.26429,-3.88733 2.04584,-0.95974 3.93661,-1.66536 4.20172,-1.56805 0.2651,0.0973 -11.0555,17.66459 -25.1569,39.0384 l -25.6389,38.86148 -3.094121,0.11221 c -2.554618,0.0927 -4.195204,-0.25845 -9.409103,-2.01364 z"
           id="path5006"
           inkscape:connector-curvature="0"
           transform="translate(0,796.36216)" />
        <path
           style="fill:#f4b400;fill-opacity:1;stroke:none;stroke-width:4.85768509;stroke-linejoin:round;stroke-miterlimit:4;stroke-dasharray:none;stroke-opacity:1"
           d="m 112.35984,1051.5167 c -10.0014,-1.4495 -12.15632,-1.8201 -12.531784,-2.1556 -0.248854,-0.2223 1.738304,-3.7475 4.550294,-8.0722 7.16635,-11.0213 49.77231,-74.64801 50.25856,-75.05489 3.57509,-2.99158 8.63523,-8.0414 10.57512,-10.55356 3.36154,-4.35318 7.55784,-12.9141 9.06523,-18.494 6.19314,-22.92535 -2.59253,-47.15185 -21.69967,-59.83688 l -2.96081,-1.96565 17.02469,0.29584 c 9.36358,0.1627 31.17032,0.43384 48.45941,0.60252 l 31.43471,0.30668 1.54584,4.18869 c 2.24597,6.08579 4.67816,15.0947 5.93451,21.9816 1.52517,8.36049 1.92536,28.85896 0.73851,37.82758 -3.0805,23.27845 -12.81326,45.72018 -27.80202,64.10577 -20.47622,25.1166 -51.4599,42.1974 -84.14612,46.3885 -5.31244,0.6812 -26.64601,0.9864 -30.44647,0.4356 z"
           id="path5008"
           inkscape:connector-curvature="0" />
        <path
           style="fill:#db4437;fill-opacity:1;stroke:none;stroke-width:10;stroke-linejoin:round;stroke-miterlimit:4;stroke-dasharray:none;stroke-opacity:1"
           d="M 67.989788,108.87302 C 41.284246,59.575543 33.290284,45.149038 32.233625,44.344765 31.651257,43.901497 32.811213,42.549931 38.695603,36.815353 53.43581,22.450419 68.809334,13.040746 87.839196,6.7360352 101.68742,2.1480329 112.58238,0.43719165 127.95142,0.43719165 c 21.3099,0 37.80488,3.80960275 56.83492,13.12633035 25.29351,12.383198 46.19421,33.578863 58.51993,59.345832 1.61138,3.368591 2.92978,6.372442 2.92978,6.675231 0,0.560033 -10.54865,0.49527 -71.16508,-0.436914 l -24.28843,-0.373518 -3.93063,-1.764495 c -6.75732,-3.033425 -10.64587,-3.839529 -18.6576,-3.867747 -5.0296,-0.01773 -7.97946,0.207636 -10.31642,0.788106 -14.50826,3.603659 -26.283291,12.94777 -33.291614,26.418653 -3.58502,6.89086 -5.24713,13.08166 -6.331628,23.58317 l -0.33738,3.26696 -9.92748,-18.32578 z"
           id="path5010"
           inkscape:connector-curvature="0"
           transform="translate(0,796.36216)" />
      </g>
    </clipPath>
    <radialGradient
       gradientUnits="userSpaceOnUse"
       gradientTransform="matrix(0.7100982,0,0,-0.69667735,-12.931184,1000.262)"
       r="322.22"
       cy="216.92"
       cx="278.95999"
       id="SVGID21">
      <stop
         id="stop131"
         stop-color="#ffffff"
         offset="0.119" />
      <stop
         id="stop133"
         stop-color="#fffffa"
         offset="0.122" />
      <stop
         id="stop135"
         stop-color="#ffe560"
         offset="0.25" />
      <stop
         id="stop137"
         stop-color="#ffdf56"
         offset="0.287" />
      <stop
         id="stop139"
         stop-color="#f8d03b"
         offset="0.347" />
      <stop
         id="stop141"
         stop-color="#f0be1b"
         offset="0.406" />
      <stop
         id="stop143"
         stop-color="#eb9d23"
         offset="0.473" />
      <stop
         id="stop145"
         stop-color="#e57c27"
         offset="0.548" />
      <stop
         id="stop147"
         stop-color="#dd5626"
         offset="0.765" />
      <stop
         id="stop149"
         stop-color="#c33a28"
         offset="0.903" />
      <stop
         id="stop151"
         stop-color="#b02228"
         offset="1" />
    </radialGradient>
    <clipPath
       id="clipPath6128"
       clipPathUnits="userSpaceOnUse">
      <circle
         style="opacity:1;fill:#4285f4;fill-opacity:1;stroke:none;stroke-width:20.51976967;stroke-linecap:round;stroke-linejoin:round;stroke-miterlimit:4;stroke-dasharray:none;stroke-opacity:1"
         id="circle6130"
         cx="128"
         cy="925.362"
         r="128" />
    </clipPath>
    <clipPath
       clipPathUnits="userSpaceOnUse"
       id="clipPath6618">
      <circle
         style="opacity:1;fill:#4285f4;fill-opacity:1;stroke:none;stroke-width:20.51976967;stroke-linecap:round;stroke-linejoin:round;stroke-miterlimit:4;stroke-dasharray:none;stroke-opacity:1"
         id="circle6620"
         cx="128"
         cy="925.362"
         r="128" />
    </clipPath>
    <clipPath
       clipPathUnits="userSpaceOnUse"
       id="clipPath5300">
      <circle
         style="opacity:1;fill:#3f71aa;fill-opacity:1;stroke:none;stroke-width:20.51976967;stroke-linecap:round;stroke-linejoin:round;stroke-miterlimit:4;stroke-dasharray:none;stroke-opacity:1"
         id="circle5302"
         cx="128"
         cy="925.362"
         r="128" />
    </clipPath>
    <clipPath
       clipPathUnits="userSpaceOnUse"
       id="clipPath5390">
      <circle
         style="opacity:1;fill:#3f71aa;fill-opacity:1;stroke:none;stroke-width:20.51976967;stroke-linecap:round;stroke-linejoin:round;stroke-miterlimit:4;stroke-dasharray:none;stroke-opacity:1"
         id="circle5392"
         cx="128"
         cy="925.362"
         r="128" />
    </clipPath>
    <clipPath
       id="clipPath4515"
       clipPathUnits="userSpaceOnUse">
      <circle
         style="opacity:1;fill:#3f71aa;fill-opacity:1;stroke:none;stroke-width:20.51976967;stroke-linecap:round;stroke-linejoin:round;stroke-miterlimit:4;stroke-dasharray:none;stroke-opacity:1"
         id="circle4517"
         cx="128"
         cy="924.36218"
         r="128" />
    </clipPath>
    <clipPath
       clipPathUnits="userSpaceOnUse"
       id="clipPath4388">
      <circle
         style="opacity:1;fill:#3f71aa;fill-opacity:1;stroke:none;stroke-width:20.51976967;stroke-linecap:round;stroke-linejoin:round;stroke-miterlimit:4;stroke-dasharray:none;stroke-opacity:1"
         id="circle4391"
         cx="144.23099"
         cy="859.75964"
         r="128" />
    </clipPath>
    <clipPath
       clipPathUnits="userSpaceOnUse"
       id="clipPath4419">
      <circle
         style="opacity:1;fill:#3f71aa;fill-opacity:1;stroke:none;stroke-width:20.51976967;stroke-linecap:round;stroke-linejoin:round;stroke-miterlimit:4;stroke-dasharray:none;stroke-opacity:1"
         id="circle4421"
         cx="128"
         cy="924.36218"
         r="128" />
    </clipPath>
  </defs>
  <metadata
     id="metadata7">
    <rdf:RDF>
      <cc:Work
         rdf:about="">
        <dc:format>image/svg+xml</dc:format>
        <dc:type
           rdf:resource="http://purl.org/dc/dcmitype/StillImage" />
        <dc:title />
      </cc:Work>
    </rdf:RDF>
  </metadata>
  <g
     inkscape:label="Layer 1"
     inkscape:groupmode="layer"
     id="layer1"
     transform="translate(0,-796.36216)">
    <path
       style="fill:none;fill-rule:evenodd;stroke:none;stroke-width:1px;stroke-linecap:butt;stroke-linejoin:miter;stroke-opacity:1"
       d="M 154.47438,968.80998 101.03985,1048.476 0.4857685,1048.9618 0,842.0244 l 33.032258,-2.42884 45.176471,83.55218 21.373814,35.4611 26.717267,13.11575 z"
       id="path4913"
       inkscape:connector-curvature="0" />
    <circle
       r="128"
       cy="924.36218"
       cx="128"
       id="path4152"
       style="opacity:1;fill:#3f71aa;fill-opacity:1;stroke:none;stroke-width:20.51976967;stroke-linecap:round;stroke-linejoin:round;stroke-miterlimit:4;stroke-dasharray:none;stroke-opacity:1" />
    <g
       id="g4393"
       style="fill:#1a2f47;fill-opacity:1;stroke:none;stroke-opacity:1"
       clip-path="url(#clipPath4419)">
      <g
         clip-path="url(#clipPath4388)"
         style="font-style:normal;font-variant:normal;font-weight:bold;font-stretch:normal;font-size:180px;line-height:125%;font-family:sans-serif;-inkscape-font-specification:'sans-serif Bold';letter-spacing:0px;word-spacing:0px;fill:#1a2f47;fill-opacity:1;stroke:none;stroke-width:1px;stroke-linecap:butt;stroke-linejoin:miter;stroke-opacity:1"
         id="g4394"
         transform="translate(-16.23098,64.602552)">
        <g
           id="g4274"
           style="fill:#1a2f47;fill-opacity:1;stroke:none;stroke-opacity:1">
          <g
             style="fill:#1a2f47;fill-opacity:1;stroke:none;stroke-opacity:1"
             id="g4276">
            <path
               d="M153.98684 882.25958L122.25832 882.25958L-89.873714356 1094.39161436L-58.145194356 1094.39161436Z"
               id="path4278"
               style="fill:#1a2f47;fill-opacity:1;stroke:none;stroke-opacity:1" />
            <path
               d="M122.25832 882.25958L122.25832 877.95294L-89.873714356 1090.08497436L-89.873714356 1094.39161436Z"
               id="path4280"
               style="fill:#1a2f47;fill-opacity:1;stroke:none;stroke-opacity:1" />
            <path
               d="M137.37551 850.97052L143.00051 845.87286L-69.131524356 1058.00489436L-74.756524356 1063.10255436Z"
               id="path4282"
               style="fill:#1a2f47;fill-opacity:1;stroke:none;stroke-opacity:1" />
            <path
               d="M104.06496 827.7674L104.06496 800.16974L-108.067074356 1012.30177436L-108.067074356 1039.89943436Z"
               id="path4284"
               style="fill:#1a2f47;fill-opacity:1;stroke:none;stroke-opacity:1" />
            <path
               d="M169.27981 857.29865L163.65481 862.30841L-48.477224356 1074.44044436L-42.852224356 1069.43068436Z"
               id="path4286"
               style="fill:#1a2f47;fill-opacity:1;stroke:none;stroke-opacity:1" />
            <path
               d="M153.98684 878.3045L153.98684 882.25958L-58.145194356 1094.39161436L-58.145194356 1090.43653436Z"
               id="path4288"
               style="fill:#1a2f47;fill-opacity:1;stroke:none;stroke-opacity:1" />
            <path
               d="M122.25832 895.2674L153.98684 895.2674L-58.145194356 1107.39943436L-89.873714356 1107.39943436Z"
               id="path4290"
               style="fill:#1a2f47;fill-opacity:1;stroke:none;stroke-opacity:1" />
            <path
               d="M153.98684 895.2674L153.98684 926.55646L-58.145194356 1138.68849436L-58.145194356 1107.39943436Z"
               id="path4292"
               style="fill:#1a2f47;fill-opacity:1;stroke:none;stroke-opacity:1" />
            <path
               d="M153.98684 926.55646L122.25832 926.55646L-89.873714356 1138.68849436L-58.145194356 1138.68849436Z"
               id="path4294"
               style="fill:#1a2f47;fill-opacity:1;stroke:none;stroke-opacity:1" />
            <path
               d="M122.25832 926.55646L122.25832 895.2674L-89.873714356 1107.39943436L-89.873714356 1138.68849436Z"
               id="path4296"
               style="fill:#1a2f47;fill-opacity:1;stroke:none;stroke-opacity:1" />
          </g>
          <path
             d="m 153.98684,882.25958 -31.72852,0 0,-4.30664 q 0,-7.20703 2.90039,-12.74414 2.90039,-5.625 12.2168,-14.23828 l 5.625,-5.09766 q 5.00977,-4.57031 7.29492,-8.61328 2.37305,-4.04297 2.37305,-8.08593 0,-6.15235 -4.21875,-9.58008 -4.21875,-3.51563 -11.77734,-3.51563 -7.11914,0 -15.38086,2.98828 -8.26172,2.90039 -17.22657,8.70118 l 0,-27.59766 q 10.63477,-3.69141 19.42383,-5.44922 8.78906,-1.75781 16.96289,-1.75781 21.44532,0 32.69532,8.78906 11.25,8.70117 11.25,25.48828 0,8.61328 -3.42774,15.46875 -3.42773,6.76758 -11.68945,14.58985 l -5.625,5.00976 q -5.97656,5.44922 -7.82227,8.78906 -1.8457,3.25196 -1.8457,7.20703 l 0,3.95508 z m -31.72852,13.00782 31.72852,0 0,31.28906 -31.72852,0 0,-31.28906 z"
             id="path4396"
             inkscape:connector-curvature="0"
             style="fill:#1a2f47;fill-opacity:1;stroke:none;stroke-opacity:1" />
        </g>
      </g>
      <g
         id="g4305"
         style="fill:#1a2f47;fill-opacity:1;stroke:none;stroke-opacity:1">
        <g
           style="opacity:1;fill:#1a2f47;fill-opacity:1;stroke:none;stroke-width:15.46466732;stroke-linecap:round;stroke-linejoin:round;stroke-miterlimit:4;stroke-dasharray:none;stroke-opacity:1"
           id="g4307">
          <path
             d="M128.0 949.72985C113.98982 949.72985 102.63233 938.37236 102.63233 924.36218L-109.499704356 1136.49421436C-109.499704356 1150.50439436 -98.142214356 1161.86188436 -84.132034356 1161.86188436Z"
             id="path4309"
             style="fill:#1a2f47;fill-opacity:1;stroke:none;stroke-opacity:1" />
          <path
             d="M102.63233 924.36218C102.63233 917.357097499 105.471702974 911.015184526 110.062346336 906.424541164L-102.06968802 1118.55657552C-106.660331382 1123.14721888 -109.499704356 1129.48913186 -109.499704356 1136.49421436Z"
             id="path4311"
             style="fill:#1a2f47;fill-opacity:1;stroke:none;stroke-opacity:1" />
          <path
             d="M110.062346336 906.424541164C114.652992974 901.833894526 120.994912501 898.99452 128.0 898.99452L-84.132034356 1111.12655436C-91.1371218555 1111.12655436 -97.4790413817 1113.96592888 -102.06968802 1118.55657552Z"
             id="path4313"
             style="fill:#1a2f47;fill-opacity:1;stroke:none;stroke-opacity:1" />
          <path
             d="M128.0 898.99452C155.761121383 901.862968807 156.635400605 929.745469615 143.465074267 942.915795953L-68.6669600885 1155.04783031C-55.4966337507 1141.87750397 -56.3709129727 1113.99500316 -84.132034356 1111.12655436Z"
             id="path4315"
             style="fill:#1a2f47;fill-opacity:1;stroke:none;stroke-opacity:1" />
          <path
             d="M143.465074267 942.915795953C139.478270757 946.902599464 134.204504017 949.541267744 128.0 949.72985L-84.132034356 1161.86188436C-77.9275303388 1161.6733021 -72.6537635993 1159.03463382 -68.6669600885 1155.04783031Z"
             id="path4317"
             style="fill:#1a2f47;fill-opacity:1;stroke:none;stroke-opacity:1" />
        </g>
        <path
           style="opacity:1;fill:#1a2f47;fill-opacity:1;stroke:none;stroke-width:15.46466732;stroke-linecap:round;stroke-linejoin:round;stroke-miterlimit:4;stroke-dasharray:none;stroke-opacity:1"
           d="m 128,949.72985 c -14.01018,0 -25.36767,-11.35749 -25.36767,-25.36767 0,-14.01017 11.3575,-25.36766 25.36767,-25.36766 36.16472,3.73676 26.70096,49.92377 0,50.73533 z"
           id="circle4388"
           inkscape:connector-curvature="0"
           sodipodi:nodetypes="cscc" />
      </g>
    </g>
    <circle
       r="51.841171"
       style="opacity:1;fill:none;fill-opacity:1;stroke:#ffffff;stroke-width:6.31765747;stroke-linecap:round;stroke-linejoin:round;stroke-miterlimit:4;stroke-dasharray:none;stroke-opacity:1"
       id="circle4220"
       cx="128"
       cy="924.36218" />
    <ellipse
       ry="74.662704"
       rx="74.662636"
       cy="924.36218"
       cx="128"
       id="ellipse4216"
       style="opacity:1;fill:none;fill-opacity:1;stroke:#ffffff;stroke-width:2.07972884;stroke-linecap:round;stroke-linejoin:round;stroke-miterlimit:4;stroke-dasharray:none;stroke-opacity:1" />
    <circle
       cy="924.36218"
       cx="128"
       id="circle4218"
       style="opacity:1;fill:none;fill-opacity:1;stroke:#ffffff;stroke-width:15.46466732;stroke-linecap:round;stroke-linejoin:round;stroke-miterlimit:4;stroke-dasharray:none;stroke-opacity:1"
       r="25.367666" />
    <g
       style="font-style:normal;font-variant:normal;font-weight:bold;font-stretch:normal;font-size:180px;line-height:125%;font-family:sans-serif;-inkscape-font-specification:'sans-serif Bold';letter-spacing:0px;word-spacing:0px;fill:#ff4747;fill-opacity:1;stroke:none;stroke-width:1px;stroke-linecap:butt;stroke-linejoin:miter;stroke-opacity:1"
       id="g4222"
       transform="translate(-16.23098,64.602529)">
      <path
         d="m 153.98684,882.25958 -31.72852,0 0,-4.30664 q 0,-7.20703 2.90039,-12.74414 2.90039,-5.625 12.2168,-14.23828 l 5.625,-5.09766 q 5.00977,-4.57031 7.29492,-8.61328 2.37305,-4.04297 2.37305,-8.08593 0,-6.15235 -4.21875,-9.58008 -4.21875,-3.51563 -11.77734,-3.51563 -7.11914,0 -15.38086,2.98828 -8.26172,2.90039 -17.22657,8.70118 l 0,-27.59766 q 10.63477,-3.69141 19.42383,-5.44922 8.78906,-1.75781 16.96289,-1.75781 21.44532,0 32.69532,8.78906 11.25,8.70117 11.25,25.48828 0,8.61328 -3.42774,15.46875 -3.42773,6.76758 -11.68945,14.58985 l -5.625,5.00976 q -5.97656,5.44922 -7.82227,8.78906 -1.8457,3.25196 -1.8457,7.20703 l 0,3.95508 z m -31.72852,13.00782 31.72852,0 0,31.28906 -31.72852,0 0,-31.28906 z"
         id="path4224"
         inkscape:connector-curvature="0"
         style="fill:#ff4747;fill-opacity:1;stroke:none;stroke-opacity:1" />
    </g>
  </g>
</svg>
