<?xml version="1.0" encoding="UTF-8" standalone="no"?>
<!-- Created with Inkscape (http://www.inkscape.org/) -->

<svg
   xmlns:dc="http://purl.org/dc/elements/1.1/"
   xmlns:cc="http://creativecommons.org/ns#"
   xmlns:rdf="http://www.w3.org/1999/02/22-rdf-syntax-ns#"
   xmlns:svg="http://www.w3.org/2000/svg"
   xmlns="http://www.w3.org/2000/svg"
   xmlns:sodipodi="http://sodipodi.sourceforge.net/DTD/sodipodi-0.dtd"
   xmlns:inkscape="http://www.inkscape.org/namespaces/inkscape"
   width="256"
   height="256"
   viewBox="0 0 256 256"
   id="svg2"
   version="1.1"
   inkscape:version="0.91 r13725"
   sodipodi:docname="caffeine.svg">
  <sodipodi:namedview
     id="base"
     pagecolor="#ffffff"
     bordercolor="#666666"
     borderopacity="1.0"
     inkscape:pageopacity="0.0"
     inkscape:pageshadow="2"
     inkscape:zoom="2.0507812"
     inkscape:cx="128"
     inkscape:cy="128"
     inkscape:document-units="px"
     inkscape:current-layer="layer1"
     showgrid="true"
     units="px"
     inkscape:window-width="1366"
     inkscape:window-height="721"
     inkscape:window-x="0"
     inkscape:window-y="0"
     inkscape:window-maximized="1">
    <inkscape:grid
       type="xygrid"
       id="grid4136"
       spacingx="5"
       spacingy="5" />
  </sodipodi:namedview>
  <defs
     id="defs4">
    <clipPath
       id="clipPath4320"
       clipPathUnits="userSpaceOnUse">
      <circle
         r="128"
         cy="901.41364"
         cx="138.97777"
         id="circle4322"
         style="opacity:1;fill:#ca944e;fill-opacity:1;stroke:none;stroke-width:5;stroke-linecap:butt;stroke-linejoin:round;stroke-miterlimit:4;stroke-dasharray:none;stroke-opacity:1" />
    </clipPath>
    <clipPath
       clipPathUnits="userSpaceOnUse"
       id="clipPath4487">
      <circle
         r="117.10116"
         cy="891.41364"
         cx="138.97777"
         id="circle4489"
         style="opacity:1;fill:#ca944e;fill-opacity:1;stroke:none;stroke-width:5;stroke-linecap:butt;stroke-linejoin:round;stroke-miterlimit:4;stroke-dasharray:none;stroke-opacity:1" />
    </clipPath>
  </defs>
  <metadata
     id="metadata7">
    <rdf:RDF>
      <cc:Work
         rdf:about="">
        <dc:format>image/svg+xml</dc:format>
        <dc:type
           rdf:resource="http://purl.org/dc/dcmitype/StillImage" />
        <dc:title />
      </cc:Work>
    </rdf:RDF>
  </metadata>
  <g
     inkscape:label="Layer 1"
     inkscape:groupmode="layer"
     id="layer1"
     transform="translate(0,-796.36216)">
    <circle
       style="opacity:1;fill:#ca944e;fill-opacity:1;stroke:none;stroke-width:5;stroke-linecap:butt;stroke-linejoin:round;stroke-miterlimit:4;stroke-dasharray:none;stroke-opacity:1"
       id="path4138"
       cx="128"
       cy="924.36218"
       r="128" />
    <g
       transform="matrix(1.093072,0,0,1.093072,-23.912712,-50.017076)"
       id="g4180"
       clip-path="url(#clipPath4487)"
       style="fill:#90642b;fill-opacity:1;stroke:none;stroke-opacity:1;stroke-width:0.99993413;stroke-miterlimit:4;stroke-dasharray:none;stroke-linejoin:round">
      <g
         id="g4186"
         transform="translate(7.4268255,2)"
         style="fill:#90642b;fill-opacity:1;stroke:none;stroke-opacity:1;stroke-width:0.99993413;stroke-miterlimit:4;stroke-dasharray:none;stroke-linejoin:round">
        <g
           id="g4368"
           style="fill:#90642b;fill-opacity:1;stroke:none;stroke-opacity:1;stroke-width:0.99993413;stroke-miterlimit:4;stroke-dasharray:none;stroke-linejoin:round">
          <g
             id="g4370"
             style="fill:#90642b;fill-opacity:1;fill-rule:evenodd;stroke:none;stroke-width:0.99993413;stroke-linecap:butt;stroke-linejoin:round;stroke-opacity:1;stroke-miterlimit:4;stroke-dasharray:none">
            <path
               id="path4372"
               d="M100.24381 876.50882C90.0 856.87454 105.0 841.87454 100.36571 822.11835L-111.766324356 1034.25038436C-107.132034356 1054.00657436 -122.132034356 1069.00657436 -111.888224356 1088.64085436Z"
               style="fill:#90642b;fill-opacity:1;stroke:none;stroke-opacity:1;stroke-width:0.99993413;stroke-miterlimit:4;stroke-dasharray:none;stroke-linejoin:round" />
            <path
               id="path4374"
               d="M100.36571 822.11835C97.928485 841.17538 83.284202 860.39519 100.24381 876.50882L-111.888224356 1088.64085436C-128.847832356 1072.52722436 -114.203549356 1053.30741436 -111.766324356 1034.25038436Z"
               style="fill:#90642b;fill-opacity:1;stroke:none;stroke-opacity:1;stroke-width:0.99993413;stroke-miterlimit:4;stroke-dasharray:none;stroke-linejoin:round" />
          </g>
          <path
             sodipodi:nodetypes="ccc"
             inkscape:connector-curvature="0"
             id="path4188"
             d="M 100.24381,876.50882 C 90,856.87454 105,841.87454 100.36571,822.11835 c -2.437225,19.05703 -17.081508,38.27684 -0.1219,54.39047 z"
             style="fill:#90642b;fill-opacity:1;fill-rule:evenodd;stroke:none;stroke-width:0.99993413;stroke-linecap:butt;stroke-linejoin:round;stroke-opacity:1;stroke-miterlimit:4;stroke-dasharray:none" />
        </g>
        <g
           id="g4377"
           style="fill:#90642b;fill-opacity:1;stroke:none;stroke-opacity:1;stroke-width:0.99993413;stroke-miterlimit:4;stroke-dasharray:none;stroke-linejoin:round">
          <g
             id="g4379"
             style="fill:#90642b;fill-opacity:1;fill-rule:evenodd;stroke:none;stroke-width:0.99993413;stroke-linecap:butt;stroke-linejoin:round;stroke-opacity:1;stroke-miterlimit:4;stroke-dasharray:none">
            <path
               id="path4381"
               d="M121.45524 876.50882C111.21143 856.87454 126.21143 841.87454 121.57714 822.11835L-90.554894356 1034.25038436C-85.920604356 1054.00657436 -100.920604356 1069.00657436 -90.676794356 1088.64085436Z"
               style="fill:#90642b;fill-opacity:1;stroke:none;stroke-opacity:1;stroke-width:0.99993413;stroke-miterlimit:4;stroke-dasharray:none;stroke-linejoin:round" />
            <path
               id="path4383"
               d="M121.57714 822.11835C119.13991 841.17538 104.49563 860.39519 121.45524 876.50882L-90.676794356 1088.64085436C-107.636404356 1072.52722436 -92.992124356 1053.30741436 -90.554894356 1034.25038436Z"
               style="fill:#90642b;fill-opacity:1;stroke:none;stroke-opacity:1;stroke-width:0.99993413;stroke-miterlimit:4;stroke-dasharray:none;stroke-linejoin:round" />
          </g>
          <path
             style="fill:#90642b;fill-opacity:1;fill-rule:evenodd;stroke:none;stroke-width:0.99993413;stroke-linecap:butt;stroke-linejoin:round;stroke-opacity:1;stroke-miterlimit:4;stroke-dasharray:none"
             d="m 121.45524,876.50882 c -10.24381,-19.63428 4.75619,-34.63428 0.1219,-54.39047 -2.43723,19.05703 -17.08151,38.27684 -0.1219,54.39047 z"
             id="path4192"
             inkscape:connector-curvature="0"
             sodipodi:nodetypes="ccc" />
        </g>
        <g
           id="g4386"
           style="fill:#90642b;fill-opacity:1;stroke:none;stroke-opacity:1;stroke-width:0.99993413;stroke-miterlimit:4;stroke-dasharray:none;stroke-linejoin:round">
          <g
             id="g4388"
             style="fill:#90642b;fill-opacity:1;fill-rule:evenodd;stroke:none;stroke-width:0.99993413;stroke-linecap:butt;stroke-linejoin:round;stroke-opacity:1;stroke-miterlimit:4;stroke-dasharray:none">
            <path
               id="path4390"
               d="M142.66667 876.50882C132.42286 856.87454 147.42286 841.87454 142.78857 822.11835L-69.343464356 1034.25038436C-64.709174356 1054.00657436 -79.709174356 1069.00657436 -69.465364356 1088.64085436Z"
               style="fill:#90642b;fill-opacity:1;stroke:none;stroke-opacity:1;stroke-width:0.99993413;stroke-miterlimit:4;stroke-dasharray:none;stroke-linejoin:round" />
            <path
               id="path4392"
               d="M142.78857 822.11835C140.35134 841.17538 125.70707 860.39519 142.66667 876.50882L-69.465364356 1088.64085436C-86.424964356 1072.52722436 -71.780694356 1053.30741436 -69.343464356 1034.25038436Z"
               style="fill:#90642b;fill-opacity:1;stroke:none;stroke-opacity:1;stroke-width:0.99993413;stroke-miterlimit:4;stroke-dasharray:none;stroke-linejoin:round" />
          </g>
          <path
             sodipodi:nodetypes="ccc"
             inkscape:connector-curvature="0"
             id="path4190"
             d="m 142.66667,876.50882 c -10.24381,-19.63428 4.75619,-34.63428 0.1219,-54.39047 -2.43723,19.05703 -17.0815,38.27684 -0.1219,54.39047 z"
             style="fill:#90642b;fill-opacity:1;fill-rule:evenodd;stroke:none;stroke-width:0.99993413;stroke-linecap:butt;stroke-linejoin:round;stroke-opacity:1;stroke-miterlimit:4;stroke-dasharray:none" />
        </g>
      </g>
      <g
         id="g4395"
         style="fill:#90642b;fill-opacity:1;stroke:none;stroke-opacity:1;stroke-width:0.99993413;stroke-miterlimit:4;stroke-dasharray:none;stroke-linejoin:round">
        <g
           id="g4397"
           style="opacity:1;fill:#90642b;fill-opacity:1;stroke:none;stroke-width:0.99993413;stroke-linecap:butt;stroke-linejoin:round;stroke-miterlimit:4;stroke-dasharray:none;stroke-opacity:1">
          <path
             id="path4399"
             d="M70.588419 884.80788C70.44324 886.24692 70.36381 887.70646 70.36381 889.1875L-141.768224356 1101.31953436C-141.768224356 1099.83849436 -141.688794356 1098.37895436 -141.543615356 1096.93991436Z"
             style="fill:#90642b;fill-opacity:1;stroke:none;stroke-opacity:1;stroke-width:0.99993413;stroke-miterlimit:4;stroke-dasharray:none;stroke-linejoin:round" />
          <path
             id="path4401"
             d="M70.36381 889.1875L70.36381 918.15404L-141.768224356 1130.28607436L-141.768224356 1101.31953436Z"
             style="fill:#90642b;fill-opacity:1;stroke:none;stroke-opacity:1;stroke-width:0.99993413;stroke-miterlimit:4;stroke-dasharray:none;stroke-linejoin:round" />
          <path
             id="path4403"
             d="M70.36381 918.15404C70.36381 940.62095 87.4969 958.70883 108.77787 958.70883L-103.354164356 1170.84086436C-124.635134356 1170.84086436 -141.768224356 1152.75298436 -141.768224356 1130.28607436Z"
             style="fill:#90642b;fill-opacity:1;stroke:none;stroke-opacity:1;stroke-width:0.99993413;stroke-miterlimit:4;stroke-dasharray:none;stroke-linejoin:round" />
          <path
             id="path4405"
             d="M108.77787 958.70883L141.94975 958.70883L-70.182284356 1170.84086436L-103.354164356 1170.84086436Z"
             style="fill:#90642b;fill-opacity:1;stroke:none;stroke-opacity:1;stroke-width:0.99993413;stroke-miterlimit:4;stroke-dasharray:none;stroke-linejoin:round" />
          <path
             id="path4407"
             d="M141.94975 958.70883C152.213894455 958.70883 161.513124359 954.501076012 168.390495288 947.623705083L-43.7415390681 1159.75573944C-50.6189099966 1166.63311037 -59.9181399007 1170.84086436 -70.182284356 1170.84086436Z"
             style="fill:#90642b;fill-opacity:1;stroke:none;stroke-opacity:1;stroke-width:0.99993413;stroke-miterlimit:4;stroke-dasharray:none;stroke-linejoin:round" />
          <path
             id="path4409"
             d="M168.390495288 947.623705083C175.772191449 940.242008922 180.36381 929.784808146 180.36381 918.15404L-31.768224356 1130.28607436C-31.768224356 1141.9168425 -36.3598429067 1152.37404328 -43.7415390681 1159.75573944Z"
             style="fill:#90642b;fill-opacity:1;stroke:none;stroke-opacity:1;stroke-width:0.99993413;stroke-miterlimit:4;stroke-dasharray:none;stroke-linejoin:round" />
          <path
             id="path4411"
             d="M180.36381 918.15404L180.36381 889.1875L-31.768224356 1101.31953436L-31.768224356 1130.28607436Z"
             style="fill:#90642b;fill-opacity:1;stroke:none;stroke-opacity:1;stroke-width:0.99993413;stroke-miterlimit:4;stroke-dasharray:none;stroke-linejoin:round" />
          <path
             id="path4413"
             d="M180.36381 889.1875C180.36381 887.70646 180.28441 886.24692 180.1392 884.80788L-31.992834356 1096.93991436C-31.847624356 1098.37895436 -31.768224356 1099.83849436 -31.768224356 1101.31953436Z"
             style="fill:#90642b;fill-opacity:1;stroke:none;stroke-opacity:1;stroke-width:0.99993413;stroke-miterlimit:4;stroke-dasharray:none;stroke-linejoin:round" />
          <path
             id="path4415"
             d="M180.1392 884.80788L70.588419 884.80788L-141.543615356 1096.93991436L-31.992834356 1096.93991436Z"
             style="fill:#90642b;fill-opacity:1;stroke:none;stroke-opacity:1;stroke-width:0.99993413;stroke-miterlimit:4;stroke-dasharray:none;stroke-linejoin:round" />
        </g>
        <path
           style="opacity:1;fill:#90642b;fill-opacity:1;stroke:none;stroke-width:0.99993413;stroke-linecap:butt;stroke-linejoin:round;stroke-miterlimit:4;stroke-dasharray:none;stroke-opacity:1"
           d="m 70.588419,884.80788 c -0.145179,1.43904 -0.224609,2.89858 -0.224609,4.37962 l 0,28.96654 c 0,22.46691 17.13309,40.55479 38.41406,40.55479 l 33.17188,0 c 21.28097,0 38.41406,-18.08788 38.41406,-40.55479 l 0,-28.96654 c 0,-1.48104 -0.0794,-2.94058 -0.22461,-4.37962 l -109.550781,0 z"
           id="path4182"
           inkscape:connector-curvature="0" />
      </g>
      <g
         id="g4418"
         style="fill:#90642b;fill-opacity:1;stroke:none;stroke-opacity:1;stroke-width:0.99993413;stroke-miterlimit:4;stroke-dasharray:none;stroke-linejoin:round">
        <g
           id="g4420"
           style="fill:#90642b;fill-opacity:1;fill-rule:evenodd;stroke:none;stroke-width:0.99993413;stroke-linecap:butt;stroke-linejoin:round;stroke-miterlimit:4;stroke-dasharray:none;stroke-opacity:1">
          <path
             id="path4422"
             d="M180.0 887.30788L205.0 887.30788L-7.13203435596 1099.43991436L-32.132034356 1099.43991436Z"
             style="fill:#90642b;fill-opacity:1;stroke:none;stroke-opacity:1;stroke-width:0.99993413;stroke-miterlimit:4;stroke-dasharray:none;stroke-linejoin:round" />
          <path
             id="path4424"
             d="M205.0 887.30788C205.0 903.335746393 205.845418949 910.800529415 202.368787425 914.27716094L-9.76324693136 1126.4091953C-6.28661540664 1122.93256377 -7.13203435596 1115.46778075 -7.13203435596 1099.43991436Z"
             style="fill:#90642b;fill-opacity:1;stroke:none;stroke-opacity:1;stroke-width:0.99993413;stroke-miterlimit:4;stroke-dasharray:none;stroke-linejoin:round" />
          <path
             id="path4426"
             d="M202.368787425 914.27716094C199.338068365 917.30788 193.022890137 917.30788 180.0 917.30788L-32.132034356 1129.43991436C-19.1091442191 1129.43991436 -12.7939659913 1129.43991436 -9.76324693136 1126.4091953Z"
             style="fill:#90642b;fill-opacity:1;stroke:none;stroke-opacity:1;stroke-width:0.99993413;stroke-miterlimit:4;stroke-dasharray:none;stroke-linejoin:round" />
        </g>
        <path
           style="fill:#90642b;fill-opacity:1;fill-rule:evenodd;stroke:none;stroke-width:0.99993413;stroke-linecap:butt;stroke-linejoin:round;stroke-miterlimit:4;stroke-dasharray:none;stroke-opacity:1"
           d="m 180,887.30788 25,0 c 0,30 2.96185,30 -25,30"
           id="path4184"
           inkscape:connector-curvature="0"
           sodipodi:nodetypes="ccc" />
      </g>
    </g>
    <path
       style="opacity:0.98999999;fill:#ffffff;fill-opacity:1;stroke:none;stroke-width:5;stroke-linecap:butt;stroke-linejoin:round;stroke-miterlimit:4;stroke-dasharray:none;stroke-opacity:1"
       d="m 53.245512,917.14164 c -0.158691,1.57298 -0.245513,3.16836 -0.245513,4.78724 l 0,31.66252 c 0,24.55795 18.7277,44.3293 41.989333,44.3293 l 36.259258,0 c 23.26163,0 41.98933,-19.77135 41.98933,-44.3293 l 0,-31.66252 c 0,-1.61888 -0.0868,-3.21426 -0.24552,-4.78724 l -119.746888,0 z"
       id="path4345"
       inkscape:connector-curvature="0" />
    <path
       style="fill:none;fill-opacity:1;fill-rule:evenodd;stroke:#ffffff;stroke-width:5.46536016;stroke-linecap:butt;stroke-linejoin:miter;stroke-miterlimit:4;stroke-dasharray:none;stroke-opacity:1"
       d="m 172.84025,919.87432 27.3268,0 c 0,32.79216 3.23751,32.79216 -27.3268,32.79216"
       id="path4347"
       inkscape:connector-curvature="0"
       sodipodi:nodetypes="ccc" />
    <path
       style="fill:#ffffff;fill-opacity:1;fill-rule:evenodd;stroke:none;stroke-width:1px;stroke-linecap:butt;stroke-linejoin:miter;stroke-opacity:1"
       d="m 94.246829,910.25632 c -16.866048,-21.46168 7.830891,-37.85776 0.200702,-59.4527 -4.012797,20.8307 -28.124058,41.83934 -0.200702,59.4527 z"
       id="path4351"
       inkscape:connector-curvature="0"
       sodipodi:nodetypes="ccc" />
    <path
       style="fill:#ffffff;fill-opacity:1;fill-rule:evenodd;stroke:none;stroke-width:1px;stroke-linecap:butt;stroke-linejoin:miter;stroke-opacity:1"
       d="m 140.61808,910.25632 c -16.86606,-21.46168 7.83088,-37.85776 0.2007,-59.4527 -4.01281,20.8307 -28.12406,41.83934 -0.2007,59.4527 z"
       id="path4353"
       inkscape:connector-curvature="0"
       sodipodi:nodetypes="ccc" />
    <path
       sodipodi:nodetypes="ccc"
       inkscape:connector-curvature="0"
       id="path4355"
       d="m 117.43246,910.25632 c -16.86606,-21.46168 7.83088,-37.85776 0.20069,-59.4527 -4.0128,20.8307 -28.124061,41.83934 -0.20069,59.4527 z"
       style="fill:#ffffff;fill-opacity:1;fill-rule:evenodd;stroke:none;stroke-width:1px;stroke-linecap:butt;stroke-linejoin:miter;stroke-opacity:1" />
  </g>
</svg>
