<?xml version="1.0" encoding="UTF-8" standalone="no"?>
<!-- Created with Inkscape (http://www.inkscape.org/) -->

<svg
   xmlns:dc="http://purl.org/dc/elements/1.1/"
   xmlns:cc="http://creativecommons.org/ns#"
   xmlns:rdf="http://www.w3.org/1999/02/22-rdf-syntax-ns#"
   xmlns:svg="http://www.w3.org/2000/svg"
   xmlns="http://www.w3.org/2000/svg"
   xmlns:sodipodi="http://sodipodi.sourceforge.net/DTD/sodipodi-0.dtd"
   xmlns:inkscape="http://www.inkscape.org/namespaces/inkscape"
   sodipodi:docname="ccsm.svg"
   inkscape:version="0.92.2 (5c3e80d, 2017-08-06)"
   version="1.1"
   id="svg2"
   viewBox="0 0 256 256"
   height="256"
   width="256">
  <sodipodi:namedview
     inkscape:window-maximized="1"
     inkscape:window-y="0"
     inkscape:window-x="0"
     inkscape:window-height="1048"
     inkscape:window-width="1920"
     units="px"
     showgrid="true"
     inkscape:current-layer="layer1"
     inkscape:document-units="px"
     inkscape:cy="128"
     inkscape:cx="128"
     inkscape:zoom="3.3125"
     inkscape:pageshadow="2"
     inkscape:pageopacity="0.0"
     borderopacity="1.0"
     bordercolor="#666666"
     pagecolor="#ffffff"
     id="base" />
  <defs
     id="defs4">
    <clipPath
       id="clipPath5002"
       clipPathUnits="userSpaceOnUse">
      <g
         id="g5004">
        <path
           style="fill:#0f9d58;fill-opacity:1;stroke:none;stroke-width:4.85768509;stroke-linejoin:round;stroke-miterlimit:4;stroke-dasharray:none;stroke-opacity:1"
           d="M 88.118406,249.43519 C 46.103287,235.29134 14.771284,201.68742 4.1335861,159.36053 1.3377997,148.23623 0.92261224,144.16281 0.92582381,127.88908 0.92787958,117.47222 1.134384,112.01362 1.6577819,108.54099 4.4653598,89.913336 12.17654,70.638106 23.042737,55.086148 c 3.958678,-5.665755 8.344812,-10.93092 9.101533,-10.925587 0.32809,0.0023 10.488643,18.309713 22.579009,40.683112 12.090365,22.373397 22.374546,41.334697 22.853732,42.136217 0.479186,0.80151 0.924733,2.44098 0.990103,3.64326 0.343424,6.31639 2.524175,14.20976 5.6424,20.42304 2.954444,5.88693 5.065381,8.73258 10.434696,14.06652 6.71418,6.66995 12.88853,10.28643 21.73204,12.72904 3.16587,0.87442 5.10478,1.05037 11.57517,1.05037 8.82596,0 12.60219,-0.76201 19.26429,-3.88733 2.04584,-0.95974 3.93661,-1.66536 4.20172,-1.56805 0.2651,0.0973 -11.0555,17.66459 -25.1569,39.0384 l -25.6389,38.86148 -3.094121,0.11221 c -2.554618,0.0927 -4.195204,-0.25845 -9.409103,-2.01364 z"
           id="path5006"
           inkscape:connector-curvature="0"
           transform="translate(0,796.36216)" />
        <path
           style="fill:#f4b400;fill-opacity:1;stroke:none;stroke-width:4.85768509;stroke-linejoin:round;stroke-miterlimit:4;stroke-dasharray:none;stroke-opacity:1"
           d="m 112.35984,1051.5167 c -10.0014,-1.4495 -12.15632,-1.8201 -12.531784,-2.1556 -0.248854,-0.2223 1.738304,-3.7475 4.550294,-8.0722 7.16635,-11.0213 49.77231,-74.64801 50.25856,-75.05489 3.57509,-2.99158 8.63523,-8.0414 10.57512,-10.55356 3.36154,-4.35318 7.55784,-12.9141 9.06523,-18.494 6.19314,-22.92535 -2.59253,-47.15185 -21.69967,-59.83688 l -2.96081,-1.96565 17.02469,0.29584 c 9.36358,0.1627 31.17032,0.43384 48.45941,0.60252 l 31.43471,0.30668 1.54584,4.18869 c 2.24597,6.08579 4.67816,15.0947 5.93451,21.9816 1.52517,8.36049 1.92536,28.85896 0.73851,37.82758 -3.0805,23.27845 -12.81326,45.72018 -27.80202,64.10577 -20.47622,25.1166 -51.4599,42.1974 -84.14612,46.3885 -5.31244,0.6812 -26.64601,0.9864 -30.44647,0.4356 z"
           id="path5008"
           inkscape:connector-curvature="0" />
        <path
           style="fill:#db4437;fill-opacity:1;stroke:none;stroke-width:10;stroke-linejoin:round;stroke-miterlimit:4;stroke-dasharray:none;stroke-opacity:1"
           d="M 67.989788,108.87302 C 41.284246,59.575543 33.290284,45.149038 32.233625,44.344765 31.651257,43.901497 32.811213,42.549931 38.695603,36.815353 53.43581,22.450419 68.809334,13.040746 87.839196,6.7360352 101.68742,2.1480329 112.58238,0.43719165 127.95142,0.43719165 c 21.3099,0 37.80488,3.80960275 56.83492,13.12633035 25.29351,12.383198 46.19421,33.578863 58.51993,59.345832 1.61138,3.368591 2.92978,6.372442 2.92978,6.675231 0,0.560033 -10.54865,0.49527 -71.16508,-0.436914 l -24.28843,-0.373518 -3.93063,-1.764495 c -6.75732,-3.033425 -10.64587,-3.839529 -18.6576,-3.867747 -5.0296,-0.01773 -7.97946,0.207636 -10.31642,0.788106 -14.50826,3.603659 -26.283291,12.94777 -33.291614,26.418653 -3.58502,6.89086 -5.24713,13.08166 -6.331628,23.58317 l -0.33738,3.26696 -9.92748,-18.32578 z"
           id="path5010"
           inkscape:connector-curvature="0"
           transform="translate(0,796.36216)" />
      </g>
    </clipPath>
    <clipPath
       clipPathUnits="userSpaceOnUse"
       id="clipPath4253">
      <circle
         style="fill:#bababa;fill-opacity:1;stroke:none;stroke-width:0.1;stroke-linecap:round;stroke-linejoin:round;stroke-miterlimit:4;stroke-dasharray:none;stroke-opacity:1"
         id="circle4255"
         cx="128"
         cy="924.36218"
         r="128" />
    </clipPath>
    <clipPath
       id="clipPath4350"
       clipPathUnits="userSpaceOnUse">
      <circle
         style="fill:#7e7e7e;fill-opacity:1;stroke:none;stroke-width:0.1;stroke-linecap:round;stroke-linejoin:round;stroke-miterlimit:4;stroke-dasharray:none;stroke-opacity:1"
         id="circle4352"
         cx="128"
         cy="924.36218"
         r="128" />
    </clipPath>
    <clipPath
       clipPathUnits="userSpaceOnUse"
       id="clipPath4265">
      <circle
         style="fill:#f6a977;fill-opacity:1;stroke:none;stroke-width:0.1;stroke-linecap:round;stroke-linejoin:round;stroke-miterlimit:4;stroke-dasharray:none;stroke-opacity:1"
         id="circle4267"
         cx="128"
         cy="924.36218"
         r="128" />
    </clipPath>
    <clipPath
       id="clipPath1308"
       clipPathUnits="userSpaceOnUse">
      <circle
         style="fill:#f6a977;fill-opacity:1;stroke:none;stroke-width:0.1;stroke-linecap:round;stroke-linejoin:round;stroke-miterlimit:4;stroke-dasharray:none;stroke-opacity:1"
         id="circle1310"
         cx="128"
         cy="128.00002"
         r="128" />
    </clipPath>
    <clipPath
       clipPathUnits="userSpaceOnUse"
       id="clipPath1071">
      <circle
         style="fill:#6a97c9;fill-opacity:1;stroke:none;stroke-width:0.1;stroke-linecap:round;stroke-linejoin:round;stroke-miterlimit:4;stroke-dasharray:none;stroke-opacity:1"
         id="circle1073"
         cx="128"
         cy="924.36218"
         r="128" />
    </clipPath>
  </defs>
  <metadata
     id="metadata7">
    <rdf:RDF>
      <cc:Work
         rdf:about="">
        <dc:format>image/svg+xml</dc:format>
        <dc:type
           rdf:resource="http://purl.org/dc/dcmitype/StillImage" />
        <dc:title />
      </cc:Work>
    </rdf:RDF>
  </metadata>
  <g
     inkscape:label="Layer 1"
     inkscape:groupmode="layer"
     id="layer1"
     transform="translate(0,-796.36216)">
    <path
       style="fill:none;fill-rule:evenodd;stroke:none;stroke-width:1px;stroke-linecap:butt;stroke-linejoin:miter;stroke-opacity:1"
       d="M 154.47438,968.80998 101.03985,1048.476 0.4857685,1048.9618 0,842.0244 l 33.032258,-2.42884 45.176471,83.55218 21.373814,35.4611 26.717267,13.11575 z"
       id="path4913"
       inkscape:connector-curvature="0" />
    <circle
       r="128"
       cy="924.36218"
       cx="128"
       id="path4152"
       style="fill:#6a97c9;fill-opacity:1;stroke:none;stroke-width:0.1;stroke-linecap:round;stroke-linejoin:round;stroke-miterlimit:4;stroke-dasharray:none;stroke-opacity:1" />
    <g
       id="g1029"
       clip-path="url(#clipPath1071)"
       style="fill:#204a87;fill-opacity:1">
      <g
         id="g1026"
         style="fill:#204a87;fill-opacity:1;stroke:none;stroke-width:5.45584917;stroke-linejoin:miter;stroke-miterlimit:4;stroke-dasharray:none;stroke-opacity:1">
        <path
           id="path1002"
           d="M54.060661 843.7062C48.6539218737 843.7062 43.7743942294 845.882358894 40.2465508139 849.410202311L-101.174805423 990.831558548C-97.6469620079 987.303715132 -92.7674343636 985.127556237 -87.3606952373 985.127556237Z"
           style="fill:#204a87;fill-opacity:1" />
        <path
           id="path1004"
           d="M40.2465508139 849.410202311C36.7187056058 852.938047521 34.542546 857.817578626 34.542546 863.22432L-106.878810237 1004.64567624C-106.878810237 999.238934864 -104.702650632 994.359403758 -101.174805423 990.831558548Z"
           style="fill:#204a87;fill-opacity:1" />
        <path
           id="path1006"
           d="M34.542546 863.22432L34.542546 984.84164L-106.878810237 1126.26299624L-106.878810237 1004.64567624Z"
           style="fill:#204a87;fill-opacity:1" />
        <path
           id="path1008"
           d="M34.542546 984.84164C34.542546 995.65512 43.24718 1004.3622 54.060661 1004.3622L-87.3606952373 1145.78355624C-98.1741762373 1145.78355624 -106.878810237 1137.07647624 -106.878810237 1126.26299624Z"
           style="fill:#204a87;fill-opacity:1" />
        <path
           id="path1010"
           d="M54.060661 1004.3622L202.70564 1004.3622L61.2842837627 1145.78355624L-87.3606952373 1145.78355624Z"
           style="fill:#204a87;fill-opacity:1" />
        <path
           id="path1012"
           d="M202.70564 1004.3622C208.1117675 1004.3622 212.990801943 1002.18592316 216.518550998 998.658174106L75.0971947607 1140.07953034C71.569445706 1143.6072794 66.6904112627 1145.78355624 61.2842837627 1145.78355624Z"
           style="fill:#204a87;fill-opacity:1" />
        <path
           id="path1014"
           d="M216.518550998 998.658174106C220.047099422 995.129625682 222.22375 990.2489925 222.22375 984.84164L80.8023937627 1126.26299624C80.8023937627 1131.67034874 78.6257431848 1136.55098192 75.0971947607 1140.07953034Z"
           style="fill:#204a87;fill-opacity:1" />
        <path
           id="path1016"
           d="M222.22375 984.84164L222.22375 863.22432L80.8023937627 1004.64567624L80.8023937627 1126.26299624Z"
           style="fill:#204a87;fill-opacity:1" />
        <path
           id="path1018"
           d="M222.22375 863.22432C222.22375 852.41084 213.51912 843.7062 202.70564 843.7062L61.2842837627 985.127556237C72.0977637627 985.127556237 80.8023937627 993.832196237 80.8023937627 1004.64567624Z"
           style="fill:#204a87;fill-opacity:1" />
        <path
           id="path1020"
           d="M45.80207 875.98672L210.96423 875.98672L69.5428737627 1017.40807624L-95.6192862373 1017.40807624Z"
           style="fill:#204a87;fill-opacity:1" />
        <path
           id="path1022"
           d="M210.96423 875.98672L210.96423 991.97548L69.5428737627 1133.39683624L69.5428737627 1017.40807624Z"
           style="fill:#204a87;fill-opacity:1" />
        <path
           id="path1024"
           d="M210.96423 991.97548L45.80207 991.97548L-95.6192862373 1133.39683624L69.5428737627 1133.39683624Z"
           style="fill:#204a87;fill-opacity:1" />
      </g>
      <path
         inkscape:connector-curvature="0"
         id="path979"
         d="m 54.060661,843.7062 c -10.813481,0 -19.518115,8.70464 -19.518115,19.51812 v 121.61732 c 0,10.81348 8.704634,19.52056 19.518115,19.52056 H 202.70564 c 10.81348,0 19.51811,-8.70708 19.51811,-19.52056 V 863.22432 c 0,-10.81348 -8.70463,-19.51812 -19.51811,-19.51812 z m 143.816019,5.525 a 9.2484648,9.2484648 0 0 1 9.24848,9.24846 9.2484648,9.2484648 0 0 1 -9.24848,9.24847 9.2484648,9.2484648 0 0 1 -9.24846,-9.24847 9.2484648,9.2484648 0 0 1 9.24846,-9.24846 z M 45.80207,875.98672 H 210.96423 V 991.97548 H 45.80207 Z"
         style="fill:#204a87;fill-opacity:1;stroke:none;stroke-width:5.45584917;stroke-linejoin:miter;stroke-miterlimit:4;stroke-dasharray:none;stroke-opacity:1" />
    </g>
    <path
       id="rect963"
       transform="translate(0,796.36216)"
       d="m -100.83008,86.296875 v 0.34375 h 1.414064 c -0.507678,-0.116624 -1.031844,-0.235111 -1.414064,-0.34375 z"
       style="fill:#204a87;fill-opacity:1;stroke:none" />
    <g
       id="g852">
      <path
         inkscape:connector-curvature="0"
         id="rect4165"
         d="m 54.060661,843.7062 c -10.813481,0 -19.518115,8.70464 -19.518115,19.51812 v 121.61732 c 0,10.81348 8.704634,19.52056 19.518115,19.52056 H 202.70564 c 10.81348,0 19.51811,-8.70708 19.51811,-19.52056 V 863.22432 c 0,-10.81348 -8.70463,-19.51812 -19.51811,-19.51812 z m 143.816019,5.525 a 9.2484648,9.2484648 0 0 1 9.24848,9.24846 9.2484648,9.2484648 0 0 1 -9.24848,9.24847 9.2484648,9.2484648 0 0 1 -9.24846,-9.24847 9.2484648,9.2484648 0 0 1 9.24846,-9.24846 z M 45.80207,875.98672 H 210.96423 V 991.97548 H 45.80207 Z"
         style="fill:#ffffff;fill-opacity:1;stroke:none;stroke-width:5.45584917;stroke-linejoin:miter;stroke-miterlimit:4;stroke-dasharray:none;stroke-opacity:1" />
      <path
         style="fill:#ffffff;fill-opacity:1;stroke:none;stroke-width:3.88831973"
         d="m 108.99641,883.20969 4.95676,22.77395 10.52079,48.33806 5.56404,25.56413 7.7913,-18.80233 c 3.97539,-10.2753 8.92998,-17.50882 11.00433,-16.07413 4.91947,3.40252 32.26112,42.16388 41.80522,58.20033 l 27.25603,-5.93229 c -6.54383,-6.7053 -15.26331,-15.71308 -24.90949,-25.74484 -22.47101,-23.36931 -32.60821,-36.39161 -29.71198,-38.16877 2.41811,-1.48382 11.83532,-4.82657 20.9313,-7.42363 l 16.5381,-4.71871 -45.59124,-19.06728 z"
         id="path975"
         inkscape:connector-curvature="0"
         sodipodi:nodetypes="cccccccccccccc" />
      <circle
         r="11"
         cy="859.25085"
         cx="198.77359"
         id="path847"
         style="fill:#204a87;fill-opacity:1;stroke:none;stroke-width:1.13343406" />
    </g>
  </g>
</svg>
