<?xml version="1.0" encoding="UTF-8" standalone="no"?>
<!-- Created with Inkscape (http://www.inkscape.org/) -->

<svg
   xmlns:dc="http://purl.org/dc/elements/1.1/"
   xmlns:cc="http://creativecommons.org/ns#"
   xmlns:rdf="http://www.w3.org/1999/02/22-rdf-syntax-ns#"
   xmlns:svg="http://www.w3.org/2000/svg"
   xmlns="http://www.w3.org/2000/svg"
   xmlns:sodipodi="http://sodipodi.sourceforge.net/DTD/sodipodi-0.dtd"
   xmlns:inkscape="http://www.inkscape.org/namespaces/inkscape"
   width="256"
   height="256"
   viewBox="0 0 67.733331 67.733331"
   version="1.1"
   id="svg8"
   inkscape:version="0.92.1 r15371"
   sodipodi:docname="checkbox-touch.svg">
  <sodipodi:namedview
     id="base"
     pagecolor="#ffffff"
     bordercolor="#666666"
     borderopacity="1.0"
     inkscape:pageopacity="0.0"
     inkscape:pageshadow="2"
     inkscape:zoom="3.3203125"
     inkscape:cx="128"
     inkscape:cy="128"
     inkscape:document-units="mm"
     inkscape:current-layer="layer1"
     showgrid="true"
     units="px"
     inkscape:window-width="1920"
     inkscape:window-height="1043"
     inkscape:window-x="0"
     inkscape:window-y="0"
     inkscape:window-maximized="1" />
  <defs
     id="defs2">
    <clipPath
       id="clipPath4128"
       clipPathUnits="userSpaceOnUse">
      <circle
         r="33.866665"
         style="fill:#dd4814;fill-opacity:1;stroke-width:2.25777769"
         cy="263.13336"
         cx="33.866665"
         id="circle4130" />
    </clipPath>
    <clipPath
       clipPathUnits="userSpaceOnUse"
       id="clipPath4816">
      <circle
         r="33.866665"
         style="fill:#ed6637;fill-opacity:1;stroke-width:2.25777769"
         cy="263.13336"
         cx="33.866665"
         id="circle4818" />
    </clipPath>
  </defs>
  <metadata
     id="metadata5">
    <rdf:RDF>
      <cc:Work
         rdf:about="">
        <dc:format>image/svg+xml</dc:format>
        <dc:type
           rdf:resource="http://purl.org/dc/dcmitype/StillImage" />
        <dc:title></dc:title>
      </cc:Work>
    </rdf:RDF>
  </metadata>
  <g
     inkscape:label="Layer 1"
     inkscape:groupmode="layer"
     id="layer1"
     transform="translate(0,-229.26668)">
    <circle
       id="path3684"
       cx="33.866665"
       cy="263.13336"
       style="stroke-width:2.25777769;fill:#ed6637;fill-opacity:1"
       r="33.866665" />
    <path
       transform="scale(-1,1)"
       d="m -33.866668,297.00003 a 33.866665,33.866665 0 0 1 -29.329393,-16.93334 33.866665,33.866665 0 0 1 0,-33.86666 33.866665,33.866665 0 0 1 29.329393,-16.93333 l -1e-6,33.86666 z"
       sodipodi:end="4.712389"
       sodipodi:start="1.5707963"
       sodipodi:ry="33.866665"
       sodipodi:rx="33.866665"
       sodipodi:cy="263.13336"
       sodipodi:cx="-33.866669"
       sodipodi:type="arc"
       id="path4562"
       style="fill:#dd4814;fill-opacity:1;stroke:none;stroke-width:2.39473486;stroke-opacity:1" />
    <g
       id="g4574"
       clip-path="url(#clipPath4816)"
       style="fill:#8d2e0d;fill-opacity:1;stroke:none">
      <g
         id="g4727"
         transform="matrix(0.26458333,0,0,0.26458333,0,229.26668)"
         style="fill:#8d2e0d;fill-opacity:1;stroke:none">
        <g
           id="g4724"
           style="fill:#8d2e0d;fill-opacity:1;stroke:none;stroke-width:0.22002399;stroke-opacity:1">
          <path
             id="path4588"
             d="M108.0 15.603516L108.0 35.460938L-33.4213562373 176.882294237L-33.4213562373 157.024872237Z"
             style="fill:#8d2e0d;fill-opacity:1;stroke:none" />
          <path
             id="path4590"
             d="M108.0 35.460938L108.0 56.0L-33.4213562373 197.421356237L-33.4213562373 176.882294237Z"
             style="fill:#8d2e0d;fill-opacity:1;stroke:none" />
          <path
             id="path4592"
             d="M108.0 56.0L102.79883 57.724609L-38.6225262373 199.145965237L-33.4213562373 197.421356237Z"
             style="fill:#8d2e0d;fill-opacity:1;stroke:none" />
          <path
             id="path4594"
             d="M102.79883 57.724609C99.937832 58.672742 95.250178 60.393389 92.382812 61.548828L-49.0385442373 202.970184237C-46.1711782373 201.814745237 -41.4835242373 200.094098237 -38.6225262373 199.145965237Z"
             style="fill:#8d2e0d;fill-opacity:1;stroke:none" />
          <path
             id="path4596"
             d="M92.382812 61.548828L87.169922 63.650391L-54.2514342373 205.071747237L-49.0385442373 202.970184237Z"
             style="fill:#8d2e0d;fill-opacity:1;stroke:none" />
          <path
             id="path4598"
             d="M87.169922 63.650391L73.142578 49.6875L-68.2787782373 191.108856237L-54.2514342373 205.071747237Z"
             style="fill:#8d2e0d;fill-opacity:1;stroke:none" />
          <path
             id="path4600"
             d="M73.142578 49.6875L59.113281 35.724609L-82.3080752373 177.145965237L-68.2787782373 191.108856237Z"
             style="fill:#8d2e0d;fill-opacity:1;stroke:none" />
          <path
             id="path4602"
             d="M59.113281 35.724609L46.378906 48.533203L-95.0424502373 189.954559237L-82.3080752373 177.145965237Z"
             style="fill:#8d2e0d;fill-opacity:1;stroke:none" />
          <path
             id="path4604"
             d="M46.378906 48.533203L33.644531 61.34375L-107.776825237 202.765106237L-95.0424502373 189.954559237Z"
             style="fill:#8d2e0d;fill-opacity:1;stroke:none" />
          <path
             id="path4606"
             d="M33.644531 61.34375L47.59375 75.357422L-93.8276062373 216.778778237L-107.776825237 202.765106237Z"
             style="fill:#8d2e0d;fill-opacity:1;stroke:none" />
          <path
             id="path4608"
             d="M47.59375 75.357422L61.542969 89.371094L-79.8783872373 230.792450237L-93.8276062373 216.778778237Z"
             style="fill:#8d2e0d;fill-opacity:1;stroke:none" />
          <path
             id="path4610"
             d="M61.542969 89.371094L57.646484 98.962891L-83.7748722373 240.384247237L-79.8783872373 230.792450237Z"
             style="fill:#8d2e0d;fill-opacity:1;stroke:none" />
          <path
             id="path4612"
             d="M57.646484 98.962891L53.75 108.55469L-87.6713562373 249.976046237L-83.7748722373 240.384247237Z"
             style="fill:#8d2e0d;fill-opacity:1;stroke:none" />
          <path
             id="path4614"
             d="M53.75 108.55469L33.658203 109.00391L-107.763153237 250.425266237L-87.6713562373 249.976046237Z"
             style="fill:#8d2e0d;fill-opacity:1;stroke:none" />
          <path
             id="path4616"
             d="M33.658203 109.00391L13.566406 109.45117L-127.854950237 250.872526237L-107.763153237 250.425266237Z"
             style="fill:#8d2e0d;fill-opacity:1;stroke:none" />
          <path
             id="path4618"
             d="M13.566406 109.45117L13.566406 127.81055L-127.854950237 269.231906237L-127.854950237 250.872526237Z"
             style="fill:#8d2e0d;fill-opacity:1;stroke:none" />
          <path
             id="path4620"
             d="M13.566406 127.81055L13.566406 146.16797L-127.854950237 287.589326237L-127.854950237 269.231906237Z"
             style="fill:#8d2e0d;fill-opacity:1;stroke:none" />
          <path
             id="path4622"
             d="M13.566406 146.16797L33.267578 146.16797L-108.153778237 287.589326237L-127.854950237 287.589326237Z"
             style="fill:#8d2e0d;fill-opacity:1;stroke:none" />
          <path
             id="path4624"
             d="M33.267578 146.16797L52.966797 146.16797L-88.4545592373 287.589326237L-108.153778237 287.589326237Z"
             style="fill:#8d2e0d;fill-opacity:1;stroke:none" />
          <path
             id="path4626"
             d="M52.966797 146.16797L57.222656 156.97266L-84.1987002373 298.394016237L-88.4545592373 287.589326237Z"
             style="fill:#8d2e0d;fill-opacity:1;stroke:none" />
          <path
             id="path4628"
             d="M57.222656 156.97266L61.480469 167.77734L-79.9408872373 309.198696237L-84.1987002373 298.394016237Z"
             style="fill:#8d2e0d;fill-opacity:1;stroke:none" />
          <path
             id="path4630"
             d="M61.480469 167.77734L47.923828 181.41602L-93.4975282373 322.837376237L-79.9408872373 309.198696237Z"
             style="fill:#8d2e0d;fill-opacity:1;stroke:none" />
          <path
             id="path4632"
             d="M47.923828 181.41602L34.369141 195.05469L-107.052215237 336.476046237L-93.4975282373 322.837376237Z"
             style="fill:#8d2e0d;fill-opacity:1;stroke:none" />
          <path
             id="path4634"
             d="M34.369141 195.05469L47.177734 207.78906L-94.2436222373 349.210416237L-107.052215237 336.476046237Z"
             style="fill:#8d2e0d;fill-opacity:1;stroke:none" />
          <path
             id="path4636"
             d="M47.177734 207.78906L59.988281 220.52344L-81.4330752373 361.944796237L-94.2436222373 349.210416237Z"
             style="fill:#8d2e0d;fill-opacity:1;stroke:none" />
          <path
             id="path4638"
             d="M59.988281 220.52344L73.990234 206.74023L-67.4311222373 348.161586237L-81.4330752373 361.944796237Z"
             style="fill:#8d2e0d;fill-opacity:1;stroke:none" />
          <path
             id="path4640"
             d="M73.990234 206.74023L87.992188 192.95508L-53.4291682373 334.376436237L-67.4311222373 348.161586237Z"
             style="fill:#8d2e0d;fill-opacity:1;stroke:none" />
          <path
             id="path4642"
             d="M87.992188 192.95508L95.996094 196.75195L-45.4252622373 338.173306237L-53.4291682373 334.376436237Z"
             style="fill:#8d2e0d;fill-opacity:1;stroke:none" />
          <path
             id="path4644"
             d="M95.996094 196.75195C100.39764 198.83939 104.89962 200.55507 106.0 200.56641L-35.4213562373 341.987766237C-36.5217362373 341.976426237 -41.0237162373 340.260746237 -45.4252622373 338.173306237Z"
             style="fill:#8d2e0d;fill-opacity:1;stroke:none" />
          <path
             id="path4646"
             d="M106.0 200.56641C107.49273 200.58183 108.0 205.66812 108.0 220.5957L-33.4213562373 362.017056237C-33.4213562373 347.089476237 -33.9286262373 342.003186237 -35.4213562373 341.987766237Z"
             style="fill:#8d2e0d;fill-opacity:1;stroke:none" />
          <path
             id="path4648"
             d="M108.0 220.5957L108.0 240.60156L-33.4213562373 382.022916237L-33.4213562373 362.017056237Z"
             style="fill:#8d2e0d;fill-opacity:1;stroke:none" />
          <path
             id="path4650"
             d="M108.0 240.60156L117.60352 240.60156L-23.8178362373 382.022916237L-33.4213562373 382.022916237Z"
             style="fill:#8d2e0d;fill-opacity:1;stroke:none" />
          <path
             id="path4652"
             d="M117.60352 240.60156L127.11914 240.60156L-14.3022162373 382.022916237L-23.8178362373 382.022916237Z"
             style="fill:#8d2e0d;fill-opacity:1;stroke:none" />
          <path
             id="path4654"
             d="M127.11914 240.60156L127.11914 203.99219L-14.3022162373 345.413546237L-14.3022162373 382.022916237Z"
             style="fill:#8d2e0d;fill-opacity:1;stroke:none" />
          <path
             id="path4656"
             d="M127.11914 203.99219L127.11914 167.38477L-14.3022162373 308.806126237L-14.3022162373 345.413546237Z"
             style="fill:#8d2e0d;fill-opacity:1;stroke:none" />
          <path
             id="path4658"
             d="M127.11914 167.38477L120.6582 166.33789L-20.7631562373 307.759246237L-14.3022162373 308.806126237Z"
             style="fill:#8d2e0d;fill-opacity:1;stroke:none" />
          <path
             id="path4660"
             d="M120.6582 166.33789C107.83573 164.28742 97.185159 156.44768 91.083984 144.56836L-50.3373722373 285.989716237C-44.2361972373 297.869036237 -33.5856262373 305.708776237 -20.7631562373 307.759246237Z"
             style="fill:#8d2e0d;fill-opacity:1;stroke:none" />
          <path
             id="path4662"
             d="M91.083984 144.56836C86.917252 136.45545 87.196603 120.12584 91.650391 111.52734L-49.7709652373 252.948696237C-54.2247532373 261.547196237 -54.5041042373 277.876806237 -50.3373722373 285.989716237Z"
             style="fill:#8d2e0d;fill-opacity:1;stroke:none" />
          <path
             id="path4664"
             d="M91.650391 111.52734C93.0963232498 108.735791723 95.1913487742 106.027524111 97.689265166 103.529607719L-43.7320910713 244.950963956C-46.2300074631 247.448880348 -48.3250329875 250.157147961 -49.7709652373 252.948696237Z"
             style="fill:#8d2e0d;fill-opacity:1;stroke:none" />
          <path
             id="path4666"
             d="M97.689265166 103.529607719C103.580301314 97.6385715709 111.712198897 92.9174997386 118.85547 91.033203L-22.5658862373 232.454559237C-29.7091573404 234.338855976 -37.8410549233 239.059927808 -43.7320910713 244.950963956Z"
             style="fill:#8d2e0d;fill-opacity:1;stroke:none" />
          <path
             id="path4668"
             d="M118.85547 91.033203C120.787214867 90.5235289643 125.795583028 91.4823267142 126.901087095 90.3768226467L-14.5202691419 231.798178884C-15.6257732095 232.903682952 -20.6341413701 231.944885202 -22.5658862373 232.454559237Z"
             style="fill:#8d2e0d;fill-opacity:1;stroke:none" />
          <path
             id="path4670"
             d="M126.901087095 90.3768226467C127.041671265 90.2362384768 127.11914 90.0622713082 127.11914 89.847656L-14.3022162373 231.269012237C-14.3022162373 231.483627546 -14.3796849721 231.657594714 -14.5202691419 231.798178884Z"
             style="fill:#8d2e0d;fill-opacity:1;stroke:none" />
          <path
             id="path4672"
             d="M127.11914 89.847656L127.11914 56.136719L-14.3022162373 197.558075237L-14.3022162373 231.269012237Z"
             style="fill:#8d2e0d;fill-opacity:1;stroke:none" />
          <path
             id="path4674"
             d="M127.11914 56.136719L127.11914 15.603516L-14.3022162373 157.024872237L-14.3022162373 197.558075237Z"
             style="fill:#8d2e0d;fill-opacity:1;stroke:none" />
          <path
             id="path4676"
             d="M127.11914 15.603516L117.78906 15.603516L-23.6322962373 157.024872237L-14.3022162373 157.024872237Z"
             style="fill:#8d2e0d;fill-opacity:1;stroke:none" />
          <path
             id="path4678"
             d="M117.78906 15.603516L108.0 15.603516L-33.4213562373 157.024872237L-23.6322962373 157.024872237Z"
             style="fill:#8d2e0d;fill-opacity:1;stroke:none" />
          <path
             id="path4680"
             d="M151.26562 86.515625C151.264092263 86.5160743978 151.261774064 86.5178557131 151.258672381 86.5209573961L9.83731614384 227.942313633C9.84041782688 227.93921195 9.84273602569 227.937430635 9.84426376269 227.936981237Z"
             style="fill:#8d2e0d;fill-opacity:1;stroke:none" />
          <path
             id="path4682"
             d="M151.258672381 86.5209573961C150.982655744 86.796974033 144.502151189 97.5291116818 136.73438 110.57812L-4.68697623731 251.999476237C3.08079495144 238.950467919 9.561299507 228.21833027 9.83731614384 227.942313633Z"
             style="fill:#8d2e0d;fill-opacity:1;stroke:none" />
          <path
             id="path4684"
             d="M136.73438 110.57812C128.922382135 123.700996699 122.497864243 134.436122919 122.397563666 134.536423495L-19.0237925709 275.957779732C-18.9234919948 275.857479156 -12.4989741019 265.122352937 -4.68697623731 251.999476237Z"
             style="fill:#8d2e0d;fill-opacity:1;stroke:none" />
          <path
             id="path4686"
             d="M122.397563666 134.536423495C122.397008211 134.53697895 122.396646709 134.537208252 122.39648 134.53711L-19.0248762373 275.958466237C-19.024709528 275.958564489 -19.0243480264 275.958335188 -19.0237925709 275.957779732Z"
             style="fill:#8d2e0d;fill-opacity:1;stroke:none" />
          <path
             id="path4688"
             d="M122.39648 134.53711C122.36625 134.51821 120.6242 131.80166 118.52539 128.49805L-22.8959662373 269.919406237C-20.7971562373 273.223016237 -19.0551062373 275.939566237 -19.0248762373 275.958466237Z"
             style="fill:#8d2e0d;fill-opacity:1;stroke:none" />
          <path
             id="path4690"
             d="M118.52539 128.49805C116.42665 125.19455 114.45004 122.19035 114.13281 121.82227L-27.2885462373 263.243626237C-26.9713162373 263.611706237 -24.9947062373 266.615906237 -22.8959662373 269.919406237Z"
             style="fill:#8d2e0d;fill-opacity:1;stroke:none" />
          <path
             id="path4692"
             d="M114.13281 121.82227C113.33907 120.90063 110.89781 119.69623 109.55078 119.56055L-31.8705762373 260.981906237C-30.5235462373 261.117586237 -28.0822862373 262.321986237 -27.2885462373 263.243626237Z"
             style="fill:#8d2e0d;fill-opacity:1;stroke:none" />
          <path
             id="path4694"
             d="M109.55078 119.56055C107.85438 119.38933 105.94063 119.91531 104.41211 120.9707L-37.0092462373 262.392056237C-35.4807262373 261.336666237 -33.5669762373 260.810686237 -31.8705762373 260.981906237Z"
             style="fill:#8d2e0d;fill-opacity:1;stroke:none" />
          <path
             id="path4696"
             d="M104.41211 120.9707C103.901443468 121.323656504 103.552461763 121.58906762 103.25443623 121.887093153L-38.1669200073 263.30844939C-37.8688944747 263.010423857 -37.5199127691 262.745012742 -37.0092462373 262.392056237Z"
             style="fill:#8d2e0d;fill-opacity:1;stroke:none" />
          <path
             id="path4698"
             d="M103.25443623 121.887093153C102.872035443 122.26949394 102.573527982 122.705590515 102.125 123.44922L-39.2963562373 264.870576237C-38.8478282553 264.126946753 -38.5493207942 263.690850177 -38.1669200073 263.30844939Z"
             style="fill:#8d2e0d;fill-opacity:1;stroke:none" />
          <path
             id="path4700"
             d="M102.125 123.44922C101.29963 124.81692 101.1789 125.17671 101.04297 126.63867L-40.3783862373 268.060026237C-40.2424562373 266.598066237 -40.1217262373 266.238276237 -39.2963562373 264.870576237Z"
             style="fill:#8d2e0d;fill-opacity:1;stroke:none" />
          <path
             id="path4702"
             d="M101.04297 126.63867C100.77432 129.52869 100.88036 129.74272 109.17773 142.87109L-32.2436262373 284.292446237C-40.5409962373 271.164076237 -40.6470362373 270.950046237 -40.3783862373 268.060026237Z"
             style="fill:#8d2e0d;fill-opacity:1;stroke:none" />
          <path
             id="path4704"
             d="M109.17773 142.87109L116.66992 154.72461L-24.7514362373 296.145966237L-32.2436262373 284.292446237Z"
             style="fill:#8d2e0d;fill-opacity:1;stroke:none" />
          <path
             id="path4706"
             d="M116.66992 154.72461L118.2168 155.7207L-23.2045562373 297.142056237L-24.7514362373 296.145966237Z"
             style="fill:#8d2e0d;fill-opacity:1;stroke:none" />
          <path
             id="path4708"
             d="M118.2168 155.7207C119.31059 156.42479 120.06109 156.76773 120.7832 156.89453L-20.6381562373 298.315886237C-21.3602662373 298.189086237 -22.1107662373 297.846146237 -23.2045562373 297.142056237Z"
             style="fill:#8d2e0d;fill-opacity:1;stroke:none" />
          <path
             id="path4710"
             d="M120.7832 156.89453L120.7832 156.89648L-20.6381562373 298.317836237L-20.6381562373 298.315886237Z"
             style="fill:#8d2e0d;fill-opacity:1;stroke:none" />
          <path
             id="path4712"
             d="M120.7832 156.89648C122.99234 157.2843 125.25196 156.69641 127.11133 155.25195L-14.3100262373 296.673306237C-16.1693962373 298.117766237 -18.4290162373 298.705656237 -20.6381562373 298.317836237Z"
             style="fill:#8d2e0d;fill-opacity:1;stroke:none" />
          <path
             id="path4714"
             d="M127.11133 155.25195C127.251993062 155.142679023 127.373696348 155.047319623 127.511577923 154.909438047L-13.9097783138 296.330794284C-14.0476598894 296.46867586 -14.1693631753 296.56403526 -14.3100262373 296.673306237Z"
             style="fill:#8d2e0d;fill-opacity:1;stroke:none" />
          <path
             id="path4716"
             d="M127.511577923 154.909438047C128.344776734 154.076239237 129.768744158 151.690294912 139.53711 135.29883L-1.88424623731 276.720186237C-11.6526120793 293.111651149 -13.0765795036 295.497595474 -13.9097783138 296.330794284Z"
             style="fill:#8d2e0d;fill-opacity:1;stroke:none" />
          <path
             id="path4718"
             d="M139.53711 135.29883C152.00283 114.38164 158.62404 102.75031 159.44922 100.31641L18.0278637627 241.737766237C17.2026837627 244.171666237 10.5814737627 255.802996237 -1.88424623731 276.720186237Z"
             style="fill:#8d2e0d;fill-opacity:1;stroke:none" />
          <path
             id="path4720"
             d="M159.44922 100.31641C160.86785 96.131936 160.18805 93.102421 157.20312 90.308594L15.7817637627 231.729950237C18.7666937627 234.523777237 19.4464937627 237.553292237 18.0278637627 241.737766237Z"
             style="fill:#8d2e0d;fill-opacity:1;stroke:none" />
          <path
             id="path4722"
             d="M157.20312 90.308594C155.91748 89.105192 151.68309 86.400387 151.26562 86.515625L9.84426376269 227.936981237C10.2617337627 227.821743237 14.4961237627 230.526548237 15.7817637627 231.729950237Z"
             style="fill:#8d2e0d;fill-opacity:1;stroke:none" />
        </g>
        <path
           id="path4570"
           transform=""
           d="M 108 15.603516 L 108 35.460938 L 108 56 L 102.79883 57.724609 C 99.937832 58.672742 95.250178 60.393389 92.382812 61.548828 L 87.169922 63.650391 L 73.142578 49.6875 L 59.113281 35.724609 L 46.378906 48.533203 L 33.644531 61.34375 L 47.59375 75.357422 L 61.542969 89.371094 L 57.646484 98.962891 L 53.75 108.55469 L 33.658203 109.00391 L 13.566406 109.45117 L 13.566406 127.81055 L 13.566406 146.16797 L 33.267578 146.16797 L 52.966797 146.16797 L 57.222656 156.97266 L 61.480469 167.77734 L 47.923828 181.41602 L 34.369141 195.05469 L 47.177734 207.78906 L 59.988281 220.52344 L 73.990234 206.74023 L 87.992188 192.95508 L 95.996094 196.75195 C 100.39764 198.83939 104.89962 200.55507 106 200.56641 C 107.49273 200.58183 108 205.66812 108 220.5957 L 108 240.60156 L 117.60352 240.60156 L 127.11914 240.60156 L 127.11914 203.99219 L 127.11914 167.38477 L 120.6582 166.33789 C 107.83573 164.28742 97.185159 156.44768 91.083984 144.56836 C 86.917252 136.45545 87.196603 120.12584 91.650391 111.52734 C 96.506381 102.15226 108.68331 93.716479 118.85547 91.033203 C 121.03287 90.458715 127.11914 91.74993 127.11914 89.847656 L 127.11914 56.136719 L 127.11914 15.603516 L 117.78906 15.603516 L 108 15.603516 z M 151.26562 86.515625 C 151.12814 86.556066 144.58944 97.382476 136.73438 110.57812 C 128.87912 123.77367 122.42675 134.55495 122.39648 134.53711 C 122.36625 134.51821 120.6242 131.80166 118.52539 128.49805 C 116.42665 125.19455 114.45004 122.19035 114.13281 121.82227 C 113.33907 120.90063 110.89781 119.69623 109.55078 119.56055 C 107.85438 119.38933 105.94063 119.91531 104.41211 120.9707 C 103.2462 121.77654 102.92309 122.12604 102.125 123.44922 C 101.29963 124.81692 101.1789 125.17671 101.04297 126.63867 C 100.77432 129.52869 100.88036 129.74272 109.17773 142.87109 L 116.66992 154.72461 L 118.2168 155.7207 C 119.31059 156.42479 120.06109 156.76773 120.7832 156.89453 L 120.7832 156.89648 C 122.99234 157.2843 125.25196 156.69641 127.11133 155.25195 C 128.102 154.48237 128.15223 154.40283 139.53711 135.29883 C 152.00283 114.38164 158.62404 102.75031 159.44922 100.31641 C 160.86785 96.131936 160.18805 93.102421 157.20312 90.308594 C 155.91748 89.105192 151.68309 86.400387 151.26562 86.515625 z "
           style="fill:#8d2e0d;fill-opacity:1;stroke:none;stroke-width:0.22002399;stroke-opacity:1" />
      </g>
    </g>
    <g
       id="g4568">
      <path
         inkscape:connector-curvature="0"
         id="path4542"
         d="m 31.957128,270.77865 c 0.584502,0.10261 1.182522,-0.0525 1.67448,-0.43468 0.262114,-0.20362 0.275458,-0.22494 3.287708,-5.27954 3.298221,-5.53434 5.049736,-8.6117 5.268065,-9.25567 0.375346,-1.10714 0.195486,-1.90859 -0.594275,-2.64779 -0.340162,-0.3184 -1.460088,-1.03396 -1.570541,-1.00347 -0.03638,0.0107 -1.76669,2.87481 -3.845012,6.36616 -2.078369,3.49132 -3.785406,6.34398 -3.793415,6.33926 -0.008,-0.005 -0.468937,-0.72379 -1.024246,-1.59787 -0.555292,-0.87405 -1.078299,-1.66886 -1.162231,-1.76625 -0.210011,-0.24385 -0.855877,-0.5626 -1.212278,-0.5985 -0.448839,-0.0453 -0.955118,0.0938 -1.35954,0.37304 -0.308479,0.21321 -0.394163,0.30595 -0.605325,0.65604 -0.218379,0.36187 -0.250521,0.45691 -0.286486,0.84372 -0.07108,0.76465 -0.04259,0.82147 2.152758,4.29502 l 1.982181,3.13622 0.409089,0.26332 c 0.2894,0.18629 0.488068,0.27733 0.679127,0.31088 v 0 z"
         style="fill:#ffffff;fill-opacity:1;stroke:#fff9f9;stroke-width:0.05821468;stroke-opacity:1" />
      <path
         style="fill:#ffffff;stroke-width:2.66511297"
         d="M 108 15.603516 L 108 35.460938 L 108 56 L 102.79883 57.724609 C 99.937832 58.672742 95.250178 60.393389 92.382812 61.548828 L 87.169922 63.650391 L 73.142578 49.6875 L 59.113281 35.724609 L 46.378906 48.533203 L 33.644531 61.34375 L 47.59375 75.357422 L 61.542969 89.371094 L 57.646484 98.962891 L 53.75 108.55469 L 33.658203 109.00391 L 13.566406 109.45117 L 13.566406 127.81055 L 13.566406 146.16797 L 33.267578 146.16797 L 52.966797 146.16797 L 57.222656 156.97266 L 61.480469 167.77734 L 47.923828 181.41602 L 34.369141 195.05469 L 47.177734 207.78906 L 59.988281 220.52344 L 73.990234 206.74023 L 87.992188 192.95508 L 95.996094 196.75195 C 100.39764 198.83939 104.89962 200.55507 106 200.56641 C 107.49273 200.58183 108 205.66812 108 220.5957 L 108 240.60156 L 117.60352 240.60156 L 127.11914 240.60156 L 127.11914 203.99219 L 127.11914 167.42773 A 38.505826 38.505826 0 0 1 126.3418 167.45508 A 38.505826 38.505826 0 0 1 87.835938 128.94922 A 38.505826 38.505826 0 0 1 126.3418 90.443359 A 38.505826 38.505826 0 0 1 127.10938 90.482422 C 127.11001 90.328813 127.11914 89.947437 127.11914 89.847656 L 127.11914 56.136719 L 127.11914 15.603516 L 117.78906 15.603516 L 108 15.603516 z "
         transform="matrix(0.26458333,0,0,0.26458333,0,229.26668)"
         id="path3396" />
    </g>
  </g>
</svg>
