<?xml version="1.0" encoding="UTF-8" standalone="no"?>
<!-- Created with Inkscape (http://www.inkscape.org/) -->

<svg
   xmlns:dc="http://purl.org/dc/elements/1.1/"
   xmlns:cc="http://creativecommons.org/ns#"
   xmlns:rdf="http://www.w3.org/1999/02/22-rdf-syntax-ns#"
   xmlns:svg="http://www.w3.org/2000/svg"
   xmlns="http://www.w3.org/2000/svg"
   xmlns:sodipodi="http://sodipodi.sourceforge.net/DTD/sodipodi-0.dtd"
   xmlns:inkscape="http://www.inkscape.org/namespaces/inkscape"
   sodipodi:docname="chrome-hcglmfcclpfgljeaiahehebeoaiicbko-Default.svg"
   inkscape:version="0.92.0 r"
   version="1.1"
   id="svg2"
   viewBox="0 0 256 256"
   height="256"
   width="256">
  <sodipodi:namedview
     inkscape:window-maximized="1"
     inkscape:window-y="0"
     inkscape:window-x="0"
     inkscape:window-height="1054"
     inkscape:window-width="1920"
     units="px"
     showgrid="true"
     inkscape:current-layer="layer1"
     inkscape:document-units="px"
     inkscape:cy="128"
     inkscape:cx="77.039813"
     inkscape:zoom="3.3359375"
     inkscape:pageshadow="2"
     inkscape:pageopacity="0.0"
     borderopacity="1.0"
     bordercolor="#666666"
     pagecolor="#ffffff"
     id="base" />
  <defs
     id="defs4">
    <clipPath
       id="clipPath5002"
       clipPathUnits="userSpaceOnUse">
      <g
         id="g5004">
        <path
           style="fill:#0f9d58;fill-opacity:1;stroke:none;stroke-width:4.85768509;stroke-linejoin:round;stroke-miterlimit:4;stroke-dasharray:none;stroke-opacity:1"
           d="M 88.118406,249.43519 C 46.103287,235.29134 14.771284,201.68742 4.1335861,159.36053 1.3377997,148.23623 0.92261224,144.16281 0.92582381,127.88908 0.92787958,117.47222 1.134384,112.01362 1.6577819,108.54099 4.4653598,89.913336 12.17654,70.638106 23.042737,55.086148 c 3.958678,-5.665755 8.344812,-10.93092 9.101533,-10.925587 0.32809,0.0023 10.488643,18.309713 22.579009,40.683112 12.090365,22.373397 22.374546,41.334697 22.853732,42.136217 0.479186,0.80151 0.924733,2.44098 0.990103,3.64326 0.343424,6.31639 2.524175,14.20976 5.6424,20.42304 2.954444,5.88693 5.065381,8.73258 10.434696,14.06652 6.71418,6.66995 12.88853,10.28643 21.73204,12.72904 3.16587,0.87442 5.10478,1.05037 11.57517,1.05037 8.82596,0 12.60219,-0.76201 19.26429,-3.88733 2.04584,-0.95974 3.93661,-1.66536 4.20172,-1.56805 0.2651,0.0973 -11.0555,17.66459 -25.1569,39.0384 l -25.6389,38.86148 -3.094121,0.11221 c -2.554618,0.0927 -4.195204,-0.25845 -9.409103,-2.01364 z"
           id="path5006"
           inkscape:connector-curvature="0"
           transform="translate(0,796.36216)" />
        <path
           style="fill:#f4b400;fill-opacity:1;stroke:none;stroke-width:4.85768509;stroke-linejoin:round;stroke-miterlimit:4;stroke-dasharray:none;stroke-opacity:1"
           d="m 112.35984,1051.5167 c -10.0014,-1.4495 -12.15632,-1.8201 -12.531784,-2.1556 -0.248854,-0.2223 1.738304,-3.7475 4.550294,-8.0722 7.16635,-11.0213 49.77231,-74.64801 50.25856,-75.05489 3.57509,-2.99158 8.63523,-8.0414 10.57512,-10.55356 3.36154,-4.35318 7.55784,-12.9141 9.06523,-18.494 6.19314,-22.92535 -2.59253,-47.15185 -21.69967,-59.83688 l -2.96081,-1.96565 17.02469,0.29584 c 9.36358,0.1627 31.17032,0.43384 48.45941,0.60252 l 31.43471,0.30668 1.54584,4.18869 c 2.24597,6.08579 4.67816,15.0947 5.93451,21.9816 1.52517,8.36049 1.92536,28.85896 0.73851,37.82758 -3.0805,23.27845 -12.81326,45.72018 -27.80202,64.10577 -20.47622,25.1166 -51.4599,42.1974 -84.14612,46.3885 -5.31244,0.6812 -26.64601,0.9864 -30.44647,0.4356 z"
           id="path5008"
           inkscape:connector-curvature="0" />
        <path
           style="fill:#db4437;fill-opacity:1;stroke:none;stroke-width:10;stroke-linejoin:round;stroke-miterlimit:4;stroke-dasharray:none;stroke-opacity:1"
           d="M 67.989788,108.87302 C 41.284246,59.575543 33.290284,45.149038 32.233625,44.344765 31.651257,43.901497 32.811213,42.549931 38.695603,36.815353 53.43581,22.450419 68.809334,13.040746 87.839196,6.7360352 101.68742,2.1480329 112.58238,0.43719165 127.95142,0.43719165 c 21.3099,0 37.80488,3.80960275 56.83492,13.12633035 25.29351,12.383198 46.19421,33.578863 58.51993,59.345832 1.61138,3.368591 2.92978,6.372442 2.92978,6.675231 0,0.560033 -10.54865,0.49527 -71.16508,-0.436914 l -24.28843,-0.373518 -3.93063,-1.764495 c -6.75732,-3.033425 -10.64587,-3.839529 -18.6576,-3.867747 -5.0296,-0.01773 -7.97946,0.207636 -10.31642,0.788106 -14.50826,3.603659 -26.283291,12.94777 -33.291614,26.418653 -3.58502,6.89086 -5.24713,13.08166 -6.331628,23.58317 l -0.33738,3.26696 -9.92748,-18.32578 z"
           id="path5010"
           inkscape:connector-curvature="0"
           transform="translate(0,796.36216)" />
      </g>
    </clipPath>
    <clipPath
       clipPathUnits="userSpaceOnUse"
       id="clipPath4253">
      <circle
         style="fill:#bababa;fill-opacity:1;stroke:none;stroke-width:0.1;stroke-linecap:round;stroke-linejoin:round;stroke-miterlimit:4;stroke-dasharray:none;stroke-opacity:1"
         id="circle4255"
         cx="128"
         cy="924.36218"
         r="128" />
    </clipPath>
    <clipPath
       id="clipPath4350"
       clipPathUnits="userSpaceOnUse">
      <circle
         style="fill:#7e7e7e;fill-opacity:1;stroke:none;stroke-width:0.1;stroke-linecap:round;stroke-linejoin:round;stroke-miterlimit:4;stroke-dasharray:none;stroke-opacity:1"
         id="circle4352"
         cx="128"
         cy="924.36218"
         r="128" />
    </clipPath>
    <clipPath
       clipPathUnits="userSpaceOnUse"
       id="clipPath4369">
      <circle
         style="fill:#f4b400;fill-opacity:1;stroke:none;stroke-width:0.1;stroke-linecap:round;stroke-linejoin:round;stroke-miterlimit:4;stroke-dasharray:none;stroke-opacity:1"
         id="circle4371"
         cx="132.87695"
         cy="936.104"
         r="128" />
    </clipPath>
    <clipPath
       id="clipPath4322"
       clipPathUnits="userSpaceOnUse">
      <circle
         style="fill:#f4b400;fill-opacity:1;stroke:none;stroke-width:0.1;stroke-linecap:round;stroke-linejoin:round;stroke-miterlimit:4;stroke-dasharray:none;stroke-opacity:1"
         id="circle4324"
         cx="132.87695"
         cy="936.104"
         r="87.125" />
    </clipPath>
    <clipPath
       clipPathUnits="userSpaceOnUse"
       id="clipPath4696">
      <path
         style="fill:#6afce6;fill-opacity:1;stroke:none;stroke-width:0.1;stroke-linecap:round;stroke-linejoin:round;stroke-miterlimit:4;stroke-dasharray:none;stroke-opacity:1"
         d="M 128,0 A 128,128 0 0 0 0,128 128,128 0 0 0 128,256 128,128 0 0 0 256,128 128,128 0 0 0 128,0 Z"
         id="path4698"
         inkscape:connector-curvature="0" />
    </clipPath>
  </defs>
  <metadata
     id="metadata7">
    <rdf:RDF>
      <cc:Work
         rdf:about="">
        <dc:format>image/svg+xml</dc:format>
        <dc:type
           rdf:resource="http://purl.org/dc/dcmitype/StillImage" />
        <dc:title />
      </cc:Work>
    </rdf:RDF>
  </metadata>
  <g
     inkscape:label="Layer 1"
     inkscape:groupmode="layer"
     id="layer1"
     transform="translate(0,-796.36216)">
    <path
       style="fill:none;fill-rule:evenodd;stroke:none;stroke-width:1px;stroke-linecap:butt;stroke-linejoin:miter;stroke-opacity:1"
       d="M 154.47438,968.80998 101.03985,1048.476 0.4857685,1048.9618 0,842.0244 l 33.032258,-2.42884 45.176471,83.55218 21.373814,35.4611 26.717267,13.11575 z"
       id="path4913"
       inkscape:connector-curvature="0" />
    <path
       transform="translate(0,796.36216)"
       id="path4602"
       d="M 128,0 A 128,128 0 0 0 0,128 128,128 0 0 0 128,256 128,128 0 0 0 256,128 128,128 0 0 0 128,0 Z"
       style="fill:#e1e1e1;fill-opacity:1;stroke:none;stroke-width:0.1;stroke-linecap:round;stroke-linejoin:round;stroke-miterlimit:4;stroke-dasharray:none;stroke-opacity:1" />
    <g
       id="g4624"
       transform="translate(0,796.36216)"
       clip-path="url(#clipPath4696)"
       style="fill:#7c7c7c;fill-opacity:1">
      <g
         id="g4621"
         style="fill:#7c7c7c;fill-opacity:1;stroke:none;stroke-width:0.10848793;stroke-linecap:round;stroke-linejoin:round;stroke-miterlimit:4;stroke-dasharray:none;stroke-opacity:1">
        <path
           id="path4540"
           d="M129.78906 42.998047C129.541761761 42.9985793074 129.318874956 43.0980776672 129.157683865 43.259268758L-12.2636723719 184.680624995C-12.1024812811 184.519433904 -11.8795944768 184.419935545 -11.6322962373 184.419403237Z"
           style="fill:#7c7c7c;fill-opacity:1" />
        <path
           id="path4542"
           d="M129.157683865 43.259268758C128.996073322 43.4208793013 128.89648 43.6445040679 128.89648 43.892578L-12.5248762373 185.313934237C-12.5248762373 185.065860305 -12.4252829153 184.842235539 -12.2636723719 184.680624995Z"
           style="fill:#7c7c7c;fill-opacity:1" />
        <path
           id="path4544"
           d="M128.89648 43.892578L128.89648 127.10352L-12.5248762373 268.524876237L-12.5248762373 185.313934237Z"
           style="fill:#7c7c7c;fill-opacity:1" />
        <path
           id="path4546"
           d="M128.89648 127.10352L171.8418 127.10352L30.4204437627 268.524876237L-12.5248762373 268.524876237Z"
           style="fill:#7c7c7c;fill-opacity:1" />
        <path
           id="path4548"
           d="M171.8418 127.10352L171.8418 83.638672L30.4204437627 225.060028237L30.4204437627 268.524876237Z"
           style="fill:#7c7c7c;fill-opacity:1" />
        <path
           id="path4550"
           d="M171.8418 83.638672L130.4375 43.283203L-10.9838562373 184.704559237L30.4204437627 225.060028237Z"
           style="fill:#7c7c7c;fill-opacity:1" />
        <path
           id="path4552"
           d="M130.4375 43.283203L130.42188 43.267578L-10.9994762373 184.688934237L-10.9838562373 184.704559237Z"
           style="fill:#7c7c7c;fill-opacity:1" />
        <path
           id="path4554"
           d="M130.42188 43.267578L130.41016 43.257812L-11.0111962373 184.679168237L-10.9994762373 184.688934237Z"
           style="fill:#7c7c7c;fill-opacity:1" />
        <path
           id="path4556"
           d="M130.41016 43.257812C130.25435 43.093352 130.05666 42.998544 129.79102 42.998047L-11.6303362373 184.419403237C-11.3646962373 184.419900237 -11.1670062373 184.514708237 -11.0111962373 184.679168237Z"
           style="fill:#7c7c7c;fill-opacity:1" />
        <path
           id="path4558"
           d="M129.79102 42.998047L129.78906 42.998047L-11.6322962373 184.419403237L-11.6303362373 184.419403237Z"
           style="fill:#7c7c7c;fill-opacity:1" />
        <path
           id="path4560"
           d="M83.640625 84.15625L43.28125 125.5625L-98.1401062373 266.983856237L-57.7807312373 225.577606237Z"
           style="fill:#7c7c7c;fill-opacity:1" />
        <path
           id="path4562"
           d="M43.28125 125.5625L43.269531 125.57617L-98.1518252373 266.997526237L-98.1401062373 266.983856237Z"
           style="fill:#7c7c7c;fill-opacity:1" />
        <path
           id="path4564"
           d="M43.269531 125.57617L43.257812 125.58789L-98.1635442373 267.009246237L-98.1518252373 266.997526237Z"
           style="fill:#7c7c7c;fill-opacity:1" />
        <path
           id="path4566"
           d="M43.257812 125.58789C43.2516980546 125.593683174 43.2456830232 125.599536704 43.2397679774 125.60545175L-98.1815882599 267.026807987C-98.1756732141 267.020892941 -98.1696581827 267.015039411 -98.1635442373 267.009246237Z"
           style="fill:#7c7c7c;fill-opacity:1" />
        <path
           id="path4568"
           d="M43.2397679774 125.60545175C43.0861765954 125.759043132 43.0 125.954110893 43.0 126.21094L-98.4213562373 267.632296237C-98.4213562373 267.37546713 -98.3351796419 267.180399369 -98.1815882599 267.026807987Z"
           style="fill:#7c7c7c;fill-opacity:1" />
        <path
           id="path4570"
           d="M43.0 126.21094C43.0 126.70711 43.398359 127.10547 43.894531 127.10547L-97.5268252373 268.526826237C-98.0229972373 268.526826237 -98.4213562373 268.128466237 -98.4213562373 267.632296237Z"
           style="fill:#7c7c7c;fill-opacity:1" />
        <path
           id="path4572"
           d="M43.894531 127.10547L82.367188 127.10547L-59.0541682373 268.526826237L-97.5268252373 268.526826237Z"
           style="fill:#7c7c7c;fill-opacity:1" />
        <path
           id="path4574"
           d="M82.367188 127.10547L127.10547 127.10547L-14.3158862373 268.526826237L-59.0541682373 268.526826237Z"
           style="fill:#7c7c7c;fill-opacity:1" />
        <path
           id="path4576"
           d="M127.10547 127.10547L127.10547 84.15625L-14.3158862373 225.577606237L-14.3158862373 268.526826237Z"
           style="fill:#7c7c7c;fill-opacity:1" />
        <path
           id="path4578"
           d="M127.10547 84.15625L83.640625 84.15625L-57.7807312373 225.577606237L-14.3158862373 225.577606237Z"
           style="fill:#7c7c7c;fill-opacity:1" />
        <path
           id="path4580"
           d="M84.158203 128.89258L84.158203 172.34766L-57.2631532373 313.769016237L-57.2631532373 270.313936237Z"
           style="fill:#7c7c7c;fill-opacity:1" />
        <path
           id="path4582"
           d="M84.158203 172.34766L125.5625 212.70508L-15.8588562373 354.126436237L-57.2631532373 313.769016237Z"
           style="fill:#7c7c7c;fill-opacity:1" />
        <path
           id="path4584"
           d="M125.5625 212.70508L125.57812 212.72266L-15.8432362373 354.144016237L-15.8588562373 354.126436237Z"
           style="fill:#7c7c7c;fill-opacity:1" />
        <path
           id="path4586"
           d="M125.57812 212.72266L125.58984 212.74219L-15.8315162373 354.163546237L-15.8432362373 354.144016237Z"
           style="fill:#7c7c7c;fill-opacity:1" />
        <path
           id="path4588"
           d="M125.58984 212.74219C125.74605 212.90759 125.94226 213.0 126.20898 213.0L-15.2123762373 354.421356237C-15.4790962373 354.421356237 -15.6753062373 354.328946237 -15.8315162373 354.163546237Z"
           style="fill:#7c7c7c;fill-opacity:1" />
        <path
           id="path4590"
           d="M126.20898 213.0C126.45705875 213.0 126.681176207 212.899910044 126.843276498 212.737809753L-14.5780797397 354.15916599C-14.7401800307 354.321266281 -14.9642974878 354.421356237 -15.2123762373 354.421356237Z"
           style="fill:#7c7c7c;fill-opacity:1" />
        <path
           id="path4592"
           d="M126.843276498 212.737809753C127.005384957 212.575701293 127.10547 212.35157625 127.10547 212.10352L-14.3158862373 353.524876237C-14.3158862373 353.772932487 -14.4159712804 353.997057531 -14.5780797397 354.15916599Z"
           style="fill:#7c7c7c;fill-opacity:1" />
        <path
           id="path4595"
           d="M127.10547 212.10352L127.10547 173.63086L-14.3158862373 315.052216237L-14.3158862373 353.524876237Z"
           style="fill:#7c7c7c;fill-opacity:1" />
        <path
           id="path4597"
           d="M127.10547 173.63086L127.10547 128.89258L-14.3158862373 270.313936237L-14.3158862373 315.052216237Z"
           style="fill:#7c7c7c;fill-opacity:1" />
        <path
           id="path4599"
           d="M127.10547 128.89258L84.158203 128.89258L-57.2631532373 270.313936237L-14.3158862373 270.313936237Z"
           style="fill:#7c7c7c;fill-opacity:1" />
        <path
           id="path4601"
           d="M128.89453 128.89258L128.89453 171.84375L-12.5268262373 313.265106237L-12.5268262373 270.313936237Z"
           style="fill:#7c7c7c;fill-opacity:1" />
        <path
           id="path4603"
           d="M128.89453 171.84375L172.35938 171.84375L30.9380237627 313.265106237L-12.5268262373 313.265106237Z"
           style="fill:#7c7c7c;fill-opacity:1" />
        <path
           id="path4605"
           d="M172.35938 171.84375L212.71875 130.43555L71.2973937627 271.856906237L30.9380237627 313.265106237Z"
           style="fill:#7c7c7c;fill-opacity:1" />
        <path
           id="path4607"
           d="M212.71875 130.43555L212.73047 130.41992L71.3091137627 271.841276237L71.2973937627 271.856906237Z"
           style="fill:#7c7c7c;fill-opacity:1" />
        <path
           id="path4609"
           d="M212.73047 130.41992L212.74219 130.41016L71.3208337627 271.831516237L71.3091137627 271.841276237Z"
           style="fill:#7c7c7c;fill-opacity:1" />
        <path
           id="path4611"
           d="M212.74219 130.41016C212.748438433 130.404241729 212.754583598 130.398262937 212.760624346 130.392222189L71.3392681086 271.813578426C71.3332273605 271.819619174 71.3270821955 271.825597966 71.3208337627 271.831516237Z"
           style="fill:#7c7c7c;fill-opacity:1" />
        <path
           id="path4613"
           d="M212.760624346 130.392222189C212.913944665 130.23890187 213.0 130.045669699 213.0 129.78906L71.5786437627 271.210416237C71.5786437627 271.467025936 71.4925884274 271.660258107 71.3392681086 271.813578426Z"
           style="fill:#7c7c7c;fill-opacity:1" />
        <path
           id="path4615"
           d="M213.0 129.78906C213.0 129.29288 212.60165 128.89258 212.10547 128.89258L70.6841137627 270.313936237C71.1802937627 270.313936237 71.5786437627 270.714236237 71.5786437627 271.210416237Z"
           style="fill:#7c7c7c;fill-opacity:1" />
        <path
           id="path4617"
           d="M212.10547 128.89258L173.63281 128.89258L32.2114537627 270.313936237L70.6841137627 270.313936237Z"
           style="fill:#7c7c7c;fill-opacity:1" />
        <path
           id="path4619"
           d="M173.63281 128.89258L128.89453 128.89258L-12.5268262373 270.313936237L32.2114537627 270.313936237Z"
           style="fill:#7c7c7c;fill-opacity:1" />
      </g>
      <path
         id="path4508"
         transform=""
         d="M 129.78906 42.998047 C 129.29382 42.999113 128.89648 43.397074 128.89648 43.892578 L 128.89648 127.10352 L 171.8418 127.10352 L 171.8418 83.638672 L 130.4375 43.283203 L 130.42188 43.267578 L 130.41016 43.257812 C 130.25435 43.093352 130.05666 42.998544 129.79102 42.998047 L 129.78906 42.998047 z M 83.640625 84.15625 L 43.28125 125.5625 L 43.269531 125.57617 L 43.257812 125.58789 C 43.092942 125.74411 43 125.94422 43 126.21094 C 43 126.70711 43.398359 127.10547 43.894531 127.10547 L 82.367188 127.10547 L 127.10547 127.10547 L 127.10547 84.15625 L 83.640625 84.15625 z M 84.158203 128.89258 L 84.158203 172.34766 L 125.5625 212.70508 L 125.57812 212.72266 L 125.58984 212.74219 C 125.74605 212.90759 125.94226 213 126.20898 213 C 126.70515 213 127.10547 212.59962 127.10547 212.10352 L 127.10547 173.63086 L 127.10547 128.89258 L 84.158203 128.89258 z M 128.89453 128.89258 L 128.89453 171.84375 L 172.35938 171.84375 L 212.71875 130.43555 L 212.73047 130.41992 L 212.74219 130.41016 C 212.90703 130.25403 213 130.05578 213 129.78906 C 213 129.29288 212.60165 128.89258 212.10547 128.89258 L 173.63281 128.89258 L 128.89453 128.89258 z "
         style="fill:#7c7c7c;fill-opacity:1;stroke:none;stroke-width:0.10848793;stroke-linecap:round;stroke-linejoin:round;stroke-miterlimit:4;stroke-dasharray:none;stroke-opacity:1" />
    </g>
    <path
       id="path4596"
       d="m 83.640632,880.51856 -40.358782,41.40552 -0.01272,0.0149 -0.01063,0.0109 c -0.16487,0.15622 -0.258507,0.35623 -0.258507,0.62295 0,0.49617 0.398005,0.89418 0.894177,0.89418 h 38.472996 44.738564 v -42.94837 z"
       style="fill:#ffbc00;fill-opacity:1;stroke:none;stroke-width:0.10848793;stroke-linecap:round;stroke-linejoin:round;stroke-miterlimit:4;stroke-dasharray:none;stroke-opacity:1"
       inkscape:connector-curvature="0" />
    <path
       id="path4594"
       d="m 84.157645,925.255 v 43.4545 l 41.405525,40.3587 0.0149,0.017 0.0109,0.019 c 0.15621,0.1654 0.35412,0.2586 0.62084,0.2586 0.49617,0 0.8963,-0.4002 0.8963,-0.8963 v -38.47298 -44.73855 z"
       style="fill:#0f9d58;fill-opacity:1;stroke:none;stroke-width:0.10848793;stroke-linecap:round;stroke-linejoin:round;stroke-miterlimit:4;stroke-dasharray:none;stroke-opacity:1"
       inkscape:connector-curvature="0" />
    <path
       id="path4598"
       d="m 129.79038,839.36095 c -0.49617,0 -0.89418,0.39801 -0.89418,0.89418 v 83.21151 h 42.94597 v -43.46509 l -41.40553,-40.35667 -0.0149,-0.0149 -0.0109,-0.0108 c -0.15622,-0.1649 -0.35412,-0.2585 -0.62084,-0.2585 z"
       style="fill:#db4437;fill-opacity:1;stroke:none;stroke-width:0.10848793;stroke-linecap:round;stroke-linejoin:round;stroke-miterlimit:4;stroke-dasharray:none;stroke-opacity:1"
       inkscape:connector-curvature="0" />
    <path
       id="path4152"
       d="m 128.89408,925.255 v 42.9502 h 43.4651 l 40.35878,-41.40764 0.0127,-0.0149 0.0109,-0.0109 C 212.9064,926.61563 213,926.41772 213,926.151 c 0,-0.49618 -0.398,-0.89629 -0.89418,-0.89629 h -38.47318 z"
       style="fill:#4285f4;fill-opacity:1;stroke:none;stroke-width:0.10848793;stroke-linecap:round;stroke-linejoin:round;stroke-miterlimit:4;stroke-dasharray:none;stroke-opacity:1"
       inkscape:connector-curvature="0" />
    <polygon
       transform="matrix(1.7894907,0,0,1.7894907,42.10435,838.46526)"
       style="fill:#f1f1f1"
       id="polygon66"
       points="45,45 48,38 51,45 58,48 51,51 48,58 45,51 38,48 " />
  </g>
</svg>
