<?xml version="1.0" encoding="UTF-8" standalone="no"?>
<svg
   xmlns:dc="http://purl.org/dc/elements/1.1/"
   xmlns:cc="http://creativecommons.org/ns#"
   xmlns:rdf="http://www.w3.org/1999/02/22-rdf-syntax-ns#"
   xmlns:svg="http://www.w3.org/2000/svg"
   xmlns="http://www.w3.org/2000/svg"
   xmlns:xlink="http://www.w3.org/1999/xlink"
   xmlns:sodipodi="http://sodipodi.sourceforge.net/DTD/sodipodi-0.dtd"
   xmlns:inkscape="http://www.inkscape.org/namespaces/inkscape"
   sodipodi:docname="clementine.svg"
   inkscape:version="1.0 (4035a4fb49, 2020-05-01)"
   version="1.1"
   id="svg4149"
   viewBox="0 0 256 256"
   height="256"
   width="256">
  <sodipodi:namedview
     inkscape:document-rotation="0"
     inkscape:window-maximized="1"
     inkscape:window-y="0"
     inkscape:window-x="0"
     inkscape:window-height="1048"
     inkscape:window-width="1920"
     units="px"
     showgrid="false"
     inkscape:current-layer="layer1"
     inkscape:document-units="px"
     inkscape:cy="128"
     inkscape:cx="128"
     inkscape:zoom="2.0507812"
     inkscape:pageshadow="2"
     inkscape:pageopacity="0.0"
     borderopacity="1.0"
     bordercolor="#666666"
     pagecolor="#ffffff"
     id="base" />
  <defs
     id="defs4151">
    <clipPath
       id="clipPath4863"
       clipPathUnits="userSpaceOnUse">
      <circle
         r="77.263145"
         cy="924.36218"
         cx="128"
         id="circle4865"
         style="fill:#e9e9e9;fill-opacity:1;stroke:none;stroke-width:20;stroke-miterlimit:4;stroke-dasharray:none;stroke-opacity:1" />
    </clipPath>
    <clipPath
       clipPathUnits="userSpaceOnUse"
       id="clipPath4227">
      <circle
         r="77.263145"
         cy="924.36218"
         cx="128"
         id="circle4229"
         style="fill:#e9e9e9;fill-opacity:1;stroke:none;stroke-width:20;stroke-miterlimit:4;stroke-dasharray:none;stroke-opacity:1" />
    </clipPath>
    <clipPath
       id="clipPath5543"
       clipPathUnits="userSpaceOnUse">
      <circle
         r="128"
         cy="924.36218"
         cx="128"
         id="circle5545"
         style="fill:#9e9fe9;fill-opacity:1;stroke:none;stroke-width:20;stroke-miterlimit:4;stroke-dasharray:none;stroke-opacity:1" />
    </clipPath>
    <clipPath
       clipPathUnits="userSpaceOnUse"
       id="clipPath6018">
      <path
         style="fill:#fda864;fill-opacity:1;stroke:none"
         d="m 505.7188,535.46875 c -0.0913,0.006 -0.19131,0.0169 -0.28125,0.0312 -0.0854,0.0137 -0.16595,0.0411 -0.25,0.0625 -0.01,0.003 -0.0213,-0.003 -0.0312,0 -0.0938,0.025 -0.19066,0.0593 -0.28125,0.0937 -1.79515,0.60007 -4.41142,2.89744 -5.28125,4.875 -0.37352,0.81205 -0.6923,1.71506 -0.96875,2.8125 -0.51252,2.03105 -0.65384,4.74515 -0.25,7.9375 0.3298,2.69483 1.08634,5.84095 2.5625,9.21875 0.91661,2.44272 2.74644,5.44877 6.15625,8.4375 0.40045,0.29688 0.78917,0.57928 1.1875,0.84375 3.20319,2.12655 6.07314,3.06958 8.3125,3.4375 3.67177,0.81981 6.96924,0.98331 9.78125,0.8125 3.34236,-0.19132 6.12479,-0.83507 8.125,-1.75 0.84192,-0.45733 1.95625,-1.13921 2.5625,-1.6875 1.786,-1.61523 3.19802,-3.02233 3.96875,-4.25 0.031,-0.043 0.065,-0.0816 0.0937,-0.125 0.0859,-0.14409 0.15233,-0.26698 0.21875,-0.40625 0.0327,-0.0654 0.066,-0.1212 0.0937,-0.1875 0.0488,-0.11704 0.0914,-0.23009 0.125,-0.34375 0.009,-0.0679 0.0235,-0.0718 0.0312,-0.125 0.01,-0.0396 0.0234,-0.0858 0.0312,-0.125 0.0139,-0.0884 0.0233,-0.24156 0.0312,-0.28125 0.0149,-0.0743 -7.3e-4,-0.0622 0,-0.0625 -6.8e-4,-4.5e-4 0.004,-0.018 0,-0.0937 -0.005,-0.0773 -8.2e-4,-0.21231 0,-0.5 -0.024,-0.1922 -0.0676,-0.40226 -0.125,-0.59375 -0.1152,-0.3785 -0.28887,-0.75013 -0.53125,-1.125 -0.47138,-0.72912 -1.16539,-1.44783 -2.0625,-2.15625 -1.66351,-1.31335 -3.99576,-2.58272 -6.71875,-3.8125 -2.31868,-1.04924 -4.86763,-2.00674 -7.34375,-3.0625 -1.72915,-0.84294 -3.0941,-1.28598 -3.59375,-1.6875 -0.0621,-0.0499 -0.0901,-0.10636 -0.125,-0.15625 -0.45282,-0.0886 -1.1746,-1.31192 -2.4375,-2.84375 -1.45776,-1.97251 -2.84903,-4.05918 -4.25,-5.96875 -1.6371,-2.2372 -3.21894,-4.12471 -4.71875,-5.40625 -0.8097,-0.69174 -1.59101,-1.19859 -2.34375,-1.5 -0.38731,-0.15511 -0.75607,-0.27401 -1.125,-0.3125 -0.18689,-0.0199 -0.3809,-0.0121 -0.5625,0 z"
         id="path6020" />
    </clipPath>
    <inkscape:path-effect
       hide_knot="false"
       lpeversion="0"
       effect="bend_path"
       id="path-effect2873"
       is_visible="true"
       bendpath="m 493.92856,544.77289 c 0,0 14.5273,11.15646 22.519,11.15146 7.93979,-0.005 24.44529,-11.15146 24.44529,-11.15146"
       prop_scale="1"
       scale_y_rel="false"
       vertical="false"
       bendpath-nodetypes="csc" />
    <clipPath
       clipPathUnits="userSpaceOnUse"
       id="clipPath5802">
      <path
         style="fill:#241c1c;fill-opacity:1;stroke:none"
         d="m 505.71875,535.46875 c -0.0913,0.006 -0.19131,0.0169 -0.28125,0.0312 -0.0955,0.0153 -0.1874,0.0375 -0.28125,0.0625 -0.0844,0.0225 -0.16817,0.0636 -0.25,0.0937 -0.003,0.005 -0.0284,-0.005 -0.0312,0 -0.79083,1.25489 -1.4864,2.70521 -1.71875,4.09375 -0.3364,2.01031 -0.60558,4.59838 -0.21875,7.65625 0.31871,2.60411 1.03448,5.62431 2.46875,8.90625 a 1.0096098,0.99067979 1.5151289 0 1 0,0.0625 c 0.85048,2.26648 2.57266,5.1072 5.8125,7.96875 0.0263,0.0232 0.0673,0.0393 0.0937,0.0625 0.36148,0.26611 0.70356,0.54293 1.0625,0.78125 3.08915,2.05084 5.83226,2.96661 7.9375,3.3125 a 1.0096098,0.99067979 1.5151289 0 1 0.0625,0 c 3.57728,0.79896 6.80296,0.94697 9.53125,0.78125 l -0.0312,0.0312 c 2.7977,-0.24267 5.93557,-0.42426 8.34375,-1.34375 1.4935,-0.57027 2.4005,-1.43904 3.1875,-2.34375 0.0506,-0.11958 0.12205,-0.22132 0.15625,-0.34375 0.0391,-0.28476 0.0785,-0.45542 0.0937,-0.53125 0.015,-0.0749 -7.3e-4,-0.0621 0,-0.0625 -6.8e-4,-4.2e-4 0.005,-0.018 0,-0.0937 -0.005,-0.0773 -8.1e-4,-0.21231 0,-0.5 -0.024,-0.1922 -0.0676,-0.40226 -0.125,-0.59375 -0.1152,-0.3785 -0.28887,-0.75013 -0.53125,-1.125 -0.47139,-0.72912 -1.16519,-1.44809 -2.0625,-2.15625 -1.66351,-1.31336 -3.99576,-2.58272 -6.71875,-3.8125 -2.31867,-1.04924 -4.86763,-2.00675 -7.34375,-3.0625 -1.72915,-0.84294 -3.09392,-1.28622 -3.59375,-1.6875 -0.0621,-0.0499 -0.0901,-0.10636 -0.125,-0.15625 -0.45281,-0.0886 -1.17461,-1.31192 -2.4375,-2.84375 -1.45775,-1.97251 -2.84904,-4.05918 -4.25,-5.96875 -1.6371,-2.2372 -3.21891,-4.12475 -4.71875,-5.40625 -0.80971,-0.69174 -1.59101,-1.19859 -2.34375,-1.5 -0.3873,-0.15511 -0.75608,-0.274 -1.125,-0.3125 -0.1869,-0.0199 -0.3809,-0.0121 -0.5625,0 z"
         id="path5804" />
    </clipPath>
    <filter
       inkscape:collect="always"
       id="filter5814"
       color-interpolation-filters="sRGB">
      <feGaussianBlur
         inkscape:collect="always"
         stdDeviation="0.34837003"
         id="feGaussianBlur5816" />
    </filter>
    <radialGradient
       inkscape:collect="always"
       xlink:href="#linearGradient5196"
       id="radialGradient3848"
       gradientUnits="userSpaceOnUse"
       cx="520.73364"
       cy="551.07397"
       fx="520.73364"
       fy="551.07397"
       r="15.404826" />
    <linearGradient
       inkscape:collect="always"
       id="linearGradient5196">
      <stop
         style="stop-color:#ffffff;stop-opacity:1;"
         offset="0"
         id="stop5198" />
      <stop
         style="stop-color:#ffffff;stop-opacity:0;"
         offset="1"
         id="stop5200" />
    </linearGradient>
    <clipPath
       id="clipPath1088"
       clipPathUnits="userSpaceOnUse">
      <circle
         r="109.71428"
         cy="911.53479"
         cx="145.55353"
         id="circle1090"
         style="fill:#9e9fe9;fill-opacity:1;stroke:none;stroke-width:17.1429;stroke-miterlimit:4;stroke-dasharray:none;stroke-opacity:1" />
    </clipPath>
  </defs>
  <metadata
     id="metadata4154">
    <rdf:RDF>
      <cc:Work
         rdf:about="">
        <dc:format>image/svg+xml</dc:format>
        <dc:type
           rdf:resource="http://purl.org/dc/dcmitype/StillImage" />
        <dc:title />
      </cc:Work>
    </rdf:RDF>
  </metadata>
  <g
     inkscape:label="Layer 1"
     inkscape:groupmode="layer"
     id="layer1"
     transform="translate(0,-796.36216)">
    <circle
       style="fill:#9e9fe9;fill-opacity:1;stroke:none;stroke-width:20;stroke-miterlimit:4;stroke-dasharray:none;stroke-opacity:1"
       id="path4723"
       cx="128"
       cy="924.36218"
       r="128" />
    <path
       style="fill:#6466dc;fill-opacity:1;fill-rule:evenodd;stroke:none;stroke-width:1px;stroke-linecap:butt;stroke-linejoin:miter;stroke-opacity:1"
       d="m 78.492594,863.75259 c -2.659696,1.76149 -5.616675,3.72531 -9.736653,6.48502 l -0.145834,0.47625 c -1.111743,3.65292 -2.299405,13.77554 -2.301434,19.61458 -0.0042,12.232 2.843223,25.57883 8.403653,39.38639 4.425155,10.98842 9.136237,18.11698 17.406574,26.3411 3.011412,2.99449 4.539453,4.25892 7.669923,6.3483 9.619217,6.41994 17.467927,9.74097 28.214187,11.94014 10.29745,2.10723 16.5771,2.77876 25.95834,2.77538 8.54896,0 21.70237,-1.274 27.66276,-2.58848 l 8.78646,-9.76407 c -4.69545,2.71098 -10.81346,4.12638 -21.3099,5.21815 -4.67006,0.4858 -15.27517,1.15908 -16.50879,1.04813 -0.22589,-0.0198 -2.26104,-0.13008 -4.52084,-0.24383 -9.08532,-0.45745 -22.11123,-2.82742 -28.64257,-5.21115 -5.21359,-1.90283 -10.37806,-4.55665 -15.86849,-8.15302 -6.094083,-3.99198 -14.313892,-13.07322 -18.582352,-20.53064 -1.978585,-3.45676 -5.214907,-11.02187 -7.164069,-16.74577 -4.157603,-12.20919 -5.910348,-25.09269 -4.921878,-36.17349 0.839723,-9.41321 2.080648,-14.09411 5.17025,-19.49382 0.177637,-0.31045 0.292588,-0.49584 0.430663,-0.72917 z"
       id="path4946"
       inkscape:connector-curvature="0" />
    <g
       clip-path="url(#clipPath1088)"
       style="fill:#6466dc;fill-opacity:1"
       transform="matrix(1.1666667,0,0,1.1666667,-41.812462,-139.09513)"
       id="g4865">
      <g
         style="fill:#6466dc;fill-opacity:1"
         id="g5322">
        <g
           style="fill:#6466dc;fill-opacity:1"
           id="g5324">
          <path
             style="fill:#6466dc;fill-opacity:1"
             d="m 152.07481,964.74192 c -4.64606,-0.26571 -8.31959,-0.77162 -14.58932,-2.00912 l -353.55339,353.5534 c 6.26973,1.2375 9.94326,1.7434 14.58932,2.0091 z"
             id="path5326" />
          <path
             style="fill:#6466dc;fill-opacity:1"
             d="m 137.48549,962.7328 c -9.98082,-1.96995 -16.09959,-4.46978 -24.22813,-9.89846 l -353.55339,353.55336 c 8.12854,5.4287 14.24731,7.9285 24.22813,9.8985 z"
             id="path5328" />
          <path
             style="fill:#6466dc;fill-opacity:1"
             d="M 113.25736,952.83434 C 106.7622,948.49653 99.725084,940.49138 95.657595,932.8135 L -257.8958,1286.3669 c 4.06749,7.6779 11.10461,15.683 17.59977,20.0208 z"
             id="path5330" />
          <path
             style="fill:#6466dc;fill-opacity:1"
             d="M 95.657595,932.8135 C 94.056371,929.791 91.219157,922.80017 89.780777,918.33318 L -263.77261,1271.8866 c 1.43838,4.467 4.27559,11.4578 5.87681,14.4803 z"
             id="path5332" />
          <path
             style="fill:#6466dc;fill-opacity:1"
             d="m 89.780777,918.33318 c -2.857228,-8.87337 -4.211733,-17.24872 -4.227038,-26.13717 L -267.99965,1245.7494 c 0.0153,8.8885 1.36981,17.2638 4.22704,26.1372 z"
             id="path5334" />
          <path
             style="fill:#6466dc;fill-opacity:1"
             d="m 85.553739,892.19601 c -0.01022,-5.86881 0.358951,-8.95794 1.602757,-13.41568 L -266.39689,1232.3337 c -1.24381,4.4578 -1.61298,7.5469 -1.60276,13.4157 z"
             id="path5336" />
          <path
             style="fill:#6466dc;fill-opacity:1"
             d="m 87.156496,878.78033 c 1.644168,-5.89258 3.626057,-9.70565 6.599632,-12.67922 L -259.79726,1219.6545 c -2.97358,2.9736 -4.95547,6.7866 -6.59963,12.6792 z"
             id="path5338" />
          <path
             style="fill:#6466dc;fill-opacity:1"
             d="m 93.756128,866.10111 c 0.06017,-0.0602 0.12074,-0.11999 0.181724,-0.17948 L -259.61554,1219.475 c -0.061,0.06 -0.12156,0.1193 -0.18172,0.1795 z"
             id="path5340" />
          <path
             style="fill:#6466dc;fill-opacity:1"
             d="m 93.937852,865.92163 1.061205,-1.03521 -353.553387,353.55338 -1.06121,1.0352 z"
             id="path5342" />
          <path
             style="fill:#6466dc;fill-opacity:1"
             d="m 94.999057,864.88642 -0.350783,1.1526 -353.553394,353.55338 0.35079,-1.1526 z"
             id="path5344" />
          <path
             style="fill:#6466dc;fill-opacity:1"
             d="m 94.648274,866.03902 c -0.952917,3.13108 -1.970898,11.8067 -1.972635,16.81159 L -260.87775,1236.404 c 0.002,-5.0049 1.01972,-13.6805 1.97263,-16.8116 z"
             id="path5346" />
          <path
             style="fill:#6466dc;fill-opacity:1"
             d="m 92.675639,882.85061 c -0.0036,10.48457 2.437376,21.92458 7.203459,33.75963 L -253.67429,1270.1636 c -4.76609,-11.835 -7.20706,-23.275 -7.20346,-33.7596 z"
             id="path5348" />
          <path
             style="fill:#6466dc;fill-opacity:1"
             d="m 99.879098,916.61024 c 3.792992,9.41865 7.830032,15.52807 14.918882,22.57732 L -238.75541,1292.741 c -7.08885,-7.0493 -11.12589,-13.1587 -14.91888,-22.5774 z"
             id="path5350" />
          <path
             style="fill:#6466dc;fill-opacity:1"
             d="m 114.79798,939.18756 c 2.58121,2.56679 3.89067,3.65069 6.57393,5.44152 l -353.55339,353.55342 c -2.68326,-1.7909 -3.99272,-2.8748 -6.57393,-5.4415 z"
             id="path5352" />
          <path
             style="fill:#6466dc;fill-opacity:1"
             d="m 121.37191,944.62908 c 8.24504,5.5028 14.97405,8.35066 24.18513,10.23562 l -353.55339,353.5534 c -9.21108,-1.885 -15.94009,-4.7328 -24.18513,-10.2356 z"
             id="path5354" />
          <path
             style="fill:#6466dc;fill-opacity:1"
             d="m 145.55704,954.8647 c 8.82638,1.80622 14.20719,2.38148 22.24825,2.37861 L -185.7481,1310.7967 c -8.04106,0 -13.42187,-0.5724 -22.24825,-2.3786 z"
             id="path5356" />
          <path
             style="fill:#6466dc;fill-opacity:1"
             d="m 167.80529,957.24331 c 8.14901,-0.003 21.2524,-1.35205 25.23918,-2.59858 l -353.55339,353.55337 c -3.98678,1.2466 -17.09017,2.5956 -25.23918,2.5986 z"
             id="path5358" />
          <path
             style="fill:#6466dc;fill-opacity:1"
             d="m 193.04447,954.64473 c 0.48253,-0.15085 0.62821,-0.19275 0.36157,0.0739 L -160.14735,1308.272 c 0.26664,-0.2666 0.12096,-0.2247 -0.36157,-0.074 z"
             id="path5360" />
          <path
             style="fill:#6466dc;fill-opacity:1"
             d="m 193.40604,954.71862 c -0.11711,0.11711 -0.31376,0.29374 -0.59635,0.54681 L -160.7437,1308.8188 c 0.28259,-0.253 0.47924,-0.4297 0.59635,-0.5468 z"
             id="path5362" />
          <path
             style="fill:#6466dc;fill-opacity:1"
             d="m 192.80969,955.26543 c -2.12554,1.90325 -6.26194,4.40101 -9.23566,5.57694 l -353.55339,353.55343 c 2.97372,-1.176 7.11012,-3.6737 9.23566,-5.577 z"
             id="path5364" />
          <path
             style="fill:#6466dc;fill-opacity:1"
             d="m 183.57403,960.84237 c -7.62393,3.0148 -20.05708,4.554 -31.49919,3.89955 l -353.55339,353.55338 c 11.44211,0.6545 23.87526,-0.8847 31.49919,-3.8995 z"
             id="path5366" />
        </g>
        <path
           style="fill:#6466dc;fill-opacity:1"
           d="m 152.07481,964.74192 c -4.64606,-0.26571 -8.31959,-0.77162 -14.58932,-2.00912 -9.98082,-1.96995 -16.09959,-4.46978 -24.22813,-9.89846 -6.49516,-4.33781 -13.532276,-12.34296 -17.599765,-20.02084 -1.601224,-3.0225 -4.438438,-10.01333 -5.876818,-14.48032 -2.857228,-8.87337 -4.211733,-17.24872 -4.227038,-26.13717 -0.01022,-5.86881 0.358951,-8.95794 1.602757,-13.41568 1.677436,-6.01181 3.706398,-9.8591 6.781356,-12.8587 l 1.061205,-1.03521 -0.350783,1.1526 c -0.952917,3.13108 -1.970898,11.8067 -1.972635,16.81159 -0.0036,10.48457 2.437376,21.92458 7.203459,33.75963 3.792992,9.41865 7.830032,15.52807 14.918882,22.57732 2.58121,2.56679 3.89067,3.65069 6.57393,5.44152 8.24504,5.5028 14.97405,8.35066 24.18513,10.23562 8.82638,1.80622 14.20719,2.38148 22.24825,2.37861 8.14901,-0.003 21.2524,-1.35205 25.23918,-2.59858 0.69447,-0.2171 0.69119,-0.20854 -0.23478,0.6207 -2.12554,1.90325 -6.26194,4.40101 -9.23566,5.57694 -7.62393,3.0148 -20.05708,4.554 -31.49919,3.89955 z"
           id="path4867"
           inkscape:connector-curvature="0" />
      </g>
      <g
         style="fill:#6466dc;fill-opacity:1"
         id="g5369">
        <g
           style="fill:#6466dc;fill-opacity:1"
           id="g5371">
          <path
             style="fill:#6466dc;fill-opacity:1"
             d="m 162.75746,951.8166 c -7.78742,-0.39211 -18.95349,-2.42352 -24.55178,-4.46667 l -353.55339,353.55337 c 5.59829,2.0432 16.76436,4.0746 24.55178,4.4667 z"
             id="path5373" />
          <path
             style="fill:#6466dc;fill-opacity:1"
             d="m 138.20568,947.34993 c -4.46879,-1.63088 -8.89441,-3.90458 -13.60049,-6.98727 L -228.9482,1293.9161 c 4.70608,3.0826 9.1317,5.3563 13.60049,6.9872 z"
             id="path5375" />
          <path
             style="fill:#6466dc;fill-opacity:1"
             d="m 124.60519,940.36266 c -5.2235,-3.42162 -12.26971,-11.2068 -15.92839,-17.59887 l -353.55339,353.55341 c 3.65868,6.3921 10.70489,14.1772 15.92839,17.5989 z"
             id="path5377" />
          <path
             style="fill:#6466dc;fill-opacity:1"
             d="m 108.6768,922.76379 c -1.69593,-2.96295 -4.46983,-9.44663 -6.14054,-14.35283 l -353.55339,353.55344 c 1.67071,4.9062 4.44461,11.3898 6.14054,14.3528 z"
             id="path5379" />
          <path
             style="fill:#6466dc;fill-opacity:1"
             d="M 102.53626,908.41096 C 98.972601,897.94594 97.469895,886.90251 98.317159,877.40467 L -255.23623,1230.9581 c -0.84727,9.4978 0.65544,20.5412 4.2191,31.0063 z"
             id="path5381" />
          <path
             style="fill:#6466dc;fill-opacity:1"
             d="m 98.317159,877.40467 c 0.719755,-8.06846 1.783631,-12.07913 4.431861,-16.70746 l -353.55339,353.55339 c -2.64823,4.6283 -3.71211,8.639 -4.43186,16.7075 z"
             id="path5383" />
          <path
             style="fill:#6466dc;fill-opacity:1"
             d="m 102.74902,860.69721 c 0.53743,-0.93927 0.82826,-1.43149 1.12229,-1.72552 l -353.55339,353.55341 c -0.29403,0.294 -0.58486,0.7862 -1.12229,1.7255 z"
             id="path5385" />
          <path
             style="fill:#6466dc;fill-opacity:1"
             d="m 103.87131,858.97169 c 0.29566,-0.29566 0.59456,-0.39094 1.15066,-0.53884 l -353.55339,353.55335 c -0.5561,0.1479 -0.855,0.2432 -1.15066,0.5389 z"
             id="path5387" />
          <path
             style="fill:#6466dc;fill-opacity:1"
             d="m 105.02197,858.43285 c 4.08633,-1.08675 8.98364,1.30409 15.02545,7.33534 l -353.55339,353.55341 c -6.04181,-6.0313 -10.93912,-8.4221 -15.02545,-7.3354 z"
             id="path5389" />
          <path
             style="fill:#6466dc;fill-opacity:1"
             d="m 120.04742,865.76819 c 4.9359,4.9273 5.88857,6.13842 15.70905,19.97129 l -353.55339,353.55342 c -9.82048,-13.8329 -10.77315,-15.044 -15.70905,-19.9713 z"
             id="path5391" />
          <path
             style="fill:#6466dc;fill-opacity:1"
             d="m 135.75647,885.73948 c 5.00506,7.04997 9.68598,13.33323 11.66819,15.66237 l -353.55339,353.55335 c -1.98221,-2.3291 -6.66313,-8.6124 -11.66819,-15.6623 z"
             id="path5393" />
          <path
             style="fill:#6466dc;fill-opacity:1"
             d="m 147.42466,901.40185 c 1.42941,1.6796 4.34908,3.11268 17.44585,8.56318 l -353.55339,353.55337 c -13.09677,-5.4505 -16.01644,-6.8836 -17.44585,-8.5632 z"
             id="path5395" />
          <path
             style="fill:#6466dc;fill-opacity:1"
             d="m 164.87051,909.96503 c 12.12965,5.048 14.65868,6.15474 19.48698,8.52804 L -169.1959,1272.0465 c -4.8283,-2.3733 -7.35733,-3.4801 -19.48698,-8.5281 z"
             id="path5397" />
          <path
             style="fill:#6466dc;fill-opacity:1"
             d="m 184.35749,918.49307 c 12.94911,6.36492 19.78278,12.23784 21.03525,18.07796 l -353.55339,353.55337 c -1.25247,-5.8401 -8.08614,-11.713 -21.03525,-18.0779 z"
             id="path5399" />
          <path
             style="fill:#6466dc;fill-opacity:1"
             d="m 205.39274,936.57103 c 0.3364,1.56851 0.12899,3.71256 -0.47301,4.8928 l -353.55339,353.55337 c 0.602,-1.1802 0.80941,-3.3243 0.47301,-4.8928 z"
             id="path5401" />
          <path
             style="fill:#6466dc;fill-opacity:1"
             d="m 204.91973,941.46383 c -0.21369,0.41883 -0.87563,1.21871 -1.56988,1.91296 l -353.55339,353.55341 c 0.69425,-0.6943 1.35619,-1.4941 1.56988,-1.913 z"
             id="path5403" />
          <path
             style="fill:#6466dc;fill-opacity:1"
             d="m 203.34985,943.37679 c -0.12321,0.12322 -0.24745,0.24311 -0.37038,0.35695 l -353.55339,353.55336 c 0.12293,-0.1138 0.24717,-0.2337 0.37038,-0.3569 z"
             id="path5405" />
          <path
             style="fill:#6466dc;fill-opacity:1"
             d="m 202.97947,943.73374 c -4.70633,4.35859 -10.01388,6.12652 -22.1967,7.3936 l -353.55339,353.55336 c 12.18282,-1.267 17.49037,-3.035 22.1967,-7.3936 z"
             id="path5407" />
          <path
             style="fill:#6466dc;fill-opacity:1"
             d="m 180.78277,951.12734 c -4.00291,0.41636 -13.09401,0.99339 -14.1514,0.89826 l -353.55339,353.5534 c 1.05739,0.095 10.14849,-0.4819 14.1514,-0.8983 z"
             id="path5409" />
          <path
             style="fill:#6466dc;fill-opacity:1"
             d="m 166.63137,952.0256 c -0.19362,-0.0166 -1.93694,-0.11159 -3.87391,-0.20909 l -353.55339,353.55339 c 1.93697,0.098 3.68029,0.1925 3.87391,0.2091 z"
             id="path5411" />
        </g>
        <path
           style="fill:#6466dc;fill-opacity:1"
           d="m 162.75746,951.8166 c -7.78742,-0.39211 -18.95349,-2.42352 -24.55178,-4.46667 -4.46879,-1.63088 -8.89441,-3.90458 -13.60049,-6.98727 -5.2235,-3.42162 -12.26971,-11.2068 -15.92839,-17.59887 -1.69593,-2.96295 -4.46983,-9.44663 -6.14054,-14.35283 -3.563659,-10.46502 -5.066365,-21.50845 -4.219101,-31.00629 0.719755,-8.06846 1.783631,-12.07913 4.431861,-16.70746 1.07782,-1.88372 1.1638,-1.96937 2.27295,-2.26436 4.08633,-1.08675 8.98364,1.30409 15.02545,7.33534 4.9359,4.9273 5.88857,6.13842 15.70905,19.97129 5.00506,7.04997 9.68598,13.33323 11.66819,15.66237 1.42941,1.6796 4.34908,3.11268 17.44585,8.56318 12.12965,5.048 14.65868,6.15474 19.48698,8.52804 12.94911,6.36492 19.78278,12.23784 21.03525,18.07796 0.3364,1.56851 0.12899,3.71256 -0.47301,4.8928 -0.25162,0.49317 -1.12472,1.51465 -1.94026,2.26991 -4.70633,4.35859 -10.01388,6.12652 -22.1967,7.3936 -4.00291,0.41636 -13.09401,0.99339 -14.1514,0.89826 -0.19362,-0.0166 -1.93694,-0.11159 -3.87391,-0.20909 z"
           id="path4869"
           inkscape:connector-curvature="0" />
      </g>
    </g>
    <g
       id="g6004"
       clip-path="url(#clipPath6018)"
       transform="matrix(3.2167965,0,0,3.2167965,-1544.4182,-860.23381)">
      <path
         sodipodi:nodetypes="cscscccscccccccccc"
         id="path2875"
         d="m 541.61557,565.02626 c -0.30586,1.51742 -2.1024,3.34028 -4.56491,5.56734 -0.60625,0.54829 -1.70874,1.24285 -2.55066,1.70018 0,0 0,0 0,0 -2.00021,0.91493 -4.77171,1.56087 -8.11407,1.75219 0,0 0,0 0,0 -2.81201,0.17081 -6.11698,0.006 -9.78875,-0.81381 -2.23936,-0.36792 -5.11477,-1.32147 -8.31796,-3.44802 -0.39833,-0.26447 -0.79829,-0.54503 -1.19874,-0.84191 -3.40981,-2.98873 -5.23372,-6.01411 -6.15033,-8.45683 0,0 0,0 0,0 -1.47616,-3.3778 -2.22285,-6.50015 -2.55265,-9.19498 0,0 0,0 0,0 -0.40384,-3.19235 -0.27096,-5.90767 0.24156,-7.93872 0,0 0,0 0,0 0.27645,-1.09744 0.59661,-2.00424 0.97013,-2.81629 0.92068,-2.09316 3.81342,-4.58163 5.6008,-4.99512 12.71422,18.65864 17.57657,21.60293 36.42558,29.48597 z"
         style="fill:#fda864;fill-opacity:1;stroke:none" />
      <path
         d="m 540.79708,544.83062 c 1.48289,2.32534 -0.55031,6.55883 -5.69495,11.57232 -2.17993,1.92927 -4.99842,3.90954 -8.4327,5.57708 -2.08786,1.15877 -5.05485,2.21268 -8.93541,2.52708 -0.41755,0.0338 -0.84463,0.0589 -1.28103,0.0746 -4.43706,-0.20249 -7.81446,-1.40977 -10.08995,-2.77737 -3.26507,-1.73821 -5.86478,-3.76079 -7.82722,-5.69534 0,0 -10e-6,0 -10e-6,0 -4.50258,-5.01881 -6.19331,-9.18739 -4.69993,-11.39866 1.48972,-2.20584 5.97965,-2.21869 12.03595,-0.10312 0,0 1e-5,0 1e-5,0 2.27609,0.61438 4.62682,1.37543 6.89364,1.96224 1.99718,0.42543 3.28479,0.89642 3.67665,0.69753 0.0508,0.0154 0.1095,0.0239 0.17631,0.0263 0.61718,0.0225 1.96412,-0.47545 3.93221,-0.90844 2.5243,-0.67077 5.1234,-1.46729 7.61675,-2.08032 6.37063,-1.94219 11.15331,-1.78904 12.62968,0.52606 z"
         inkscape:path-effect="#path-effect2873"
         transform="matrix(0.77733565,0.62010176,-0.60691279,0.79079385,451.84591,-201.52813)"
         sodipodi:ry="8.6607141"
         sodipodi:rx="23.482143"
         sodipodi:cy="544.77289"
         sodipodi:cx="517.41071"
         id="path2871"
         style="fill:#fd9146;fill-opacity:1;stroke:none"
         sodipodi:type="arc" />
      <path
         clip-path="none"
         sodipodi:nodetypes="cscccscccccsc"
         id="path2923"
         d="m 542.84493,565.48113 c -0.96502,1.15255 -2.09501,2.58 -4.26842,3.40989 -2.62439,1.00203 -5.84851,1.16464 -8.61915,1.40495 0,0 0,0 0,0 -2.81201,0.17081 -6.11698,0.006 -9.78875,-0.81381 -2.23936,-0.36792 -5.11477,-1.32147 -8.31796,-3.44802 -0.39833,-0.26447 -0.79829,-0.54503 -1.19874,-0.84191 -3.40981,-2.98873 -5.23372,-6.01411 -6.15033,-8.45683 0,0 0,0 0,0 -1.47616,-3.3778 -2.22285,-6.50015 -2.55265,-9.19498 0,0 0,0 0,0 -0.40384,-3.19235 -0.10275,-5.88097 0.24156,-7.93872 0.28586,-1.70837 1.13112,-3.41026 2.04883,-4.80092"
         style="opacity:0.6;fill:none;stroke:#ffffff;stroke-width:2;stroke-linecap:round;stroke-linejoin:round;stroke-opacity:1" />
      <path
         clip-path="url(#clipPath5802)"
         d="m 522.14286,552.8979 c -0.2381,-0.11905 -0.90252,-0.54538 -0.71429,-0.35715 0.24543,0.24543 0.62184,0.3189 0.89286,0.53572 0.0465,0.0372 -0.0421,0.13648 0,0.17857 0.0842,0.0842 0.27296,-0.0842 0.35714,0 0.0421,0.0421 -0.0421,0.13648 0,0.17857 0.0365,0.0365 0.46491,-0.0354 0.53572,0 0.0753,0.0376 0.10328,0.14093 0.17857,0.17857 0.0795,0.0397 0.63261,-0.0272 0.71428,0 0.0799,0.0266 0.10328,0.14093 0.17858,0.17857 0.10647,0.0532 0.25066,-0.0532 0.35714,0 0.0753,0.0376 0.10328,0.14093 0.17857,0.17857 0.0532,0.0266 0.12533,-0.0266 0.17857,0 0.0753,0.0376 0.10328,0.14093 0.17857,0.17858 0.10648,0.0532 0.27297,-0.0842 0.35715,0 0.0421,0.0421 -0.0421,0.13648 0,0.17857 0.0553,0.0553 0.83756,-0.0553 0.89285,0 0.0421,0.0421 -0.0421,0.13648 0,0.17857 0.0421,0.0421 0.12533,-0.0266 0.17857,0 0.15059,0.0753 0.20656,0.28185 0.35715,0.35714 0.0532,0.0266 0.13648,-0.0421 0.17857,0 0.0421,0.0421 -0.0421,0.13648 0,0.17857 0.0421,0.0421 0.12533,-0.0266 0.17857,0 0.0753,0.0376 0.10328,0.14093 0.17857,0.17857 0.10648,0.0532 0.27296,-0.0842 0.35714,0 0.0421,0.0421 -0.0421,0.13649 0,0.17858 0.0842,0.0842 0.27297,-0.0842 0.35715,0 0.0421,0.0421 -0.0421,0.13648 0,0.17857 0.0421,0.0421 0.12533,-0.0266 0.17857,0 0.0753,0.0376 0.10328,0.14092 0.17857,0.17857 0.10648,0.0532 0.25066,-0.0532 0.35714,0 0.0753,0.0376 0.10328,0.14092 0.17857,0.17857 0.0795,0.0397 0.63261,-0.0272 0.71429,0 0.0799,0.0266 0.10328,0.14093 0.17857,0.17857 0.11693,0.0585 0.73439,-0.0528 0.89286,0 0.12627,0.0421 0.23087,0.13648 0.35714,0.17857 0.0565,0.0188 0.12533,-0.0266 0.17857,0 0.0753,0.0376 0.10328,0.14093 0.17857,0.17857 0.10648,0.0532 0.27297,-0.0842 0.35715,0 0.0421,0.0421 -0.0421,0.13649 0,0.17858 0.0842,0.0842 0.27296,-0.0842 0.35714,0 0.0421,0.0421 -0.0421,0.13648 0,0.17857 0.0421,0.0421 0.13648,-0.0421 0.17857,0 0.0421,0.0421 -0.033,0.12904 0,0.17857 0.088,0.13207 0.64084,0.56739 0.71429,0.71428 0.0266,0.0532 -0.0421,0.13649 0,0.17858 0.0421,0.0421 0.13648,-0.0421 0.17857,0 0.0421,0.0421 -0.0266,0.12533 0,0.17857 0.0376,0.0753 0.14092,0.10328 0.17857,0.17857 0.0532,0.10648 -0.0842,0.27296 0,0.35714 0.0421,0.0421 0.13648,-0.0421 0.17857,0 0.0421,0.0421 -0.0421,0.13648 0,0.17857 0.0421,0.0421 0.13648,-0.0421 0.17857,0 0.0842,0.0842 -0.0532,0.25067 0,0.35715 0.0376,0.0753 0.14093,0.10327 0.17857,0.17857 0.0532,0.10648 -0.0532,0.25066 0,0.35714 0.0376,0.0753 0.14093,0.10328 0.17858,0.17857 0.0266,0.0532 -0.0266,0.12533 0,0.17857 0.0376,0.0753 0.13187,0.10853 0.17857,0.17857 0.0738,0.11075 0.10474,0.2464 0.17857,0.35715 0.0467,0.07 0.14092,0.10328 0.17857,0.17857 0.0532,0.10648 -0.0532,0.25066 0,0.35714 0.0376,0.0753 0.14092,0.10328 0.17857,0.17857 0.12316,0.24632 -0.21626,0.15973 0.17857,0.35715 0.0532,0.0266 0.13648,-0.0421 0.17857,0 0.0596,0.0596 -0.0596,0.29756 0,0.35714 0.0421,0.0421 0.11905,0 0.17858,0 0,0.0595 -0.0266,0.12533 0,0.17857 0.11896,0.23793 0.23817,0.11921 0.35714,0.35714 0.0266,0.0532 -0.0421,0.13648 0,0.17857 0.0421,0.0421 0.13648,-0.0421 0.17857,0 0.0421,0.0421 -0.0266,0.12534 0,0.17858 0.0753,0.15058 0.28185,0.20655 0.35714,0.35714 0.0266,0.0532 -0.0421,0.13648 0,0.17857 0.0421,0.0421 0.13648,-0.0421 0.17857,0 0.0421,0.0421 -0.0421,0.13648 0,0.17857 0.0421,0.0421 0.13649,-0.0421 0.17858,0 0.0421,0.0421 -0.0421,0.13648 0,0.17857 0.0842,0.0842 0.25066,-0.0532 0.35714,0 0.15058,0.0753 0.20656,0.28185 0.35714,0.35715 0.0532,0.0266 0.13648,-0.0421 0.17857,0 0.0421,0.0421 -0.0421,0.13648 0,0.17857 0.0421,0.0421 0.13648,-0.0421 0.17857,0 0.0842,0.0842 -0.0532,0.25066 0,0.35714 0.0376,0.0753 0.14093,0.10328 0.17858,0.17857 0.0266,0.0532 -0.0421,0.13648 0,0.17857 0.0421,0.0421 0.13648,-0.0421 0.17857,0 0.0893,0.0893 -0.0893,0.44643 0,0.53572 0.0421,0.0421 0.13648,-0.0421 0.17857,0 0.0365,0.0365 -0.0354,0.46491 0,0.53571 0.0376,0.0753 0.14092,0.10328 0.17857,0.17857 0.0714,0.14286 -0.0714,0.39286 0,0.53572 0.0376,0.0753 0.14092,0.10328 0.17857,0.17857 0.0532,0.10648 -0.0532,0.25066 0,0.35714 0.22684,0.45367 0.21343,-0.18288 0.35714,0.53572 0.035,0.1751 -0.035,0.36061 0,0.53571 0.0261,0.13051 0.13649,0.23087 0.17858,0.35714 0.0188,0.0565 0.0595,0.17857 0,0.17857 -0.0595,0 -0.0595,-0.17857 0,-0.17857 0.0595,0 0,0.2381 0,0.17857 0,-0.11904 0,-0.23809 0,-0.35714 M 523.57143,554.1479 c -0.2381,-0.17858 -0.92473,-0.74617 -0.71429,-0.53572 0.29762,0.2381 0.59524,0.47619 0.89286,0.71429 0.0595,0 0.12533,-0.0266 0.17857,0 0.0753,0.0376 0.10328,0.14092 0.17857,0.17857 0.10648,0.0532 0.25067,-0.0532 0.35715,0 0.0753,0.0376 0.10328,0.14092 0.17857,0.17857 0.0532,0.0266 0.12533,-0.0266 0.17857,0 0.0753,0.0376 0.10328,0.14093 0.17857,0.17857 0.0532,0.0266 0.13648,-0.0421 0.17857,0 0.0421,0.0421 -0.0421,0.13648 0,0.17857 0.0421,0.0421 0.12533,-0.0266 0.17857,0 0.0753,0.0376 0.10328,0.14093 0.17858,0.17857 0.0532,0.0266 0.13648,-0.0421 0.17857,0 0.0421,0.0421 -0.0421,0.13649 0,0.17858 0.0842,0.0842 0.27296,-0.0842 0.35714,0 0.0421,0.0421 -0.0421,0.13648 0,0.17857 0.0842,0.0842 0.27296,-0.0842 0.35714,0 0.0421,0.0421 -0.0421,0.13648 0,0.17857 0.0842,0.0842 0.25067,-0.0532 0.35715,0 0.0753,0.0376 0.10327,0.14092 0.17857,0.17857 0.10648,0.0532 0.27296,-0.0842 0.35714,0 0.0421,0.0421 -0.0421,0.13648 0,0.17857 0.0842,0.0842 0.27296,-0.0842 0.35714,0 0.0421,0.0421 -0.0421,0.13648 0,0.17857 0.0421,0.0421 0.12533,-0.0266 0.17857,0 0.15059,0.0753 0.20656,0.28185 0.35715,0.35715 0.0532,0.0266 0.12533,-0.0266 0.17857,0 0.21428,0.10714 0.32143,0.42857 0.53571,0.53571 0.0532,0.0266 0.12533,-0.0266 0.17857,0 0.0753,0.0376 0.10328,0.14093 0.17858,0.17857 0.0532,0.0266 0.13648,-0.0421 0.17857,0 0.0421,0.0421 -0.0421,0.13648 0,0.17857 0.0842,0.0842 0.25066,-0.0532 0.35714,0 0.15058,0.0753 0.20656,0.28185 0.35714,0.35715 0.10648,0.0532 0.27297,-0.0842 0.35715,0 0.0421,0.0421 -0.0421,0.13648 0,0.17857 0.0421,0.0421 0.12533,-0.0266 0.17857,0 0.0753,0.0376 0.10328,0.14092 0.17857,0.17857 0.0532,0.0266 0.13648,-0.0421 0.17857,0 0.0421,0.0421 -0.0421,0.13648 0,0.17857 0.0421,0.0421 0.13648,-0.0421 0.17857,0 0.0421,0.0421 -0.0266,0.12533 0,0.17857 0.40863,0.81725 -0.074,-0.75775 0.35714,0.53572 0.0376,0.11293 -0.0842,0.27296 0,0.35714 0.0421,0.0421 0.13649,-0.0421 0.17858,0 0.0489,0.0489 -0.0484,0.61741 0,0.71428 0.0376,0.0753 0.14092,0.10328 0.17857,0.17858 0.0714,0.14285 -0.0714,0.39285 0,0.53571 0.0376,0.0753 0.14092,0.10328 0.17857,0.17857 0.0532,0.10648 -0.0532,0.25067 0,0.35714 0.0376,0.0753 0.14092,0.10328 0.17857,0.17858 0.0532,0.10648 -0.0842,0.27296 0,0.35714 0.0421,0.0421 0.13648,-0.0421 0.17857,0 0.0893,0.0893 -0.0893,0.44643 0,0.53571 0.0421,0.0421 0.13648,-0.0421 0.17857,0 0.0842,0.0842 -0.0532,0.25067 0,0.35715 0.0376,0.0753 0.14093,0.10327 0.17857,0.17857 0.0532,0.10648 -0.0532,0.25066 0,0.35714 0.0376,0.0753 0.14093,0.10328 0.17858,0.17857 0.0354,0.0708 -0.0365,0.49921 0,0.53572 0.0421,0.0421 0.13648,-0.0421 0.17857,0 0.0421,0.0421 -0.0266,0.12533 0,0.17857 0.0376,0.0753 0.14092,0.10328 0.17857,0.17857 0.0532,0.10648 -0.0532,0.25066 0,0.35714 0.0376,0.0753 0.14092,0.10328 0.17857,0.17857 0.0532,0.10648 -0.0842,0.27297 0,0.35715 0.0421,0.0421 0.13648,-0.0421 0.17857,0 0.0421,0.0421 -0.0266,0.12533 0,0.17857 0.0376,0.0753 0.14093,0.10328 0.17857,0.17857 0.0266,0.0532 -0.0421,0.13648 0,0.17857 0.0421,0.0421 0.13648,-0.0421 0.17857,0 0.0842,0.0842 -0.0842,0.27296 0,0.35714 0.0421,0.0421 0.13649,-0.0421 0.17858,0 0.0421,0.0421 -0.0421,0.13648 0,0.17857 0.36947,0.36948 -0.0145,-0.5646 0.35714,0.17858 0.0266,0.0532 -0.0421,0.13648 0,0.17857 0.0421,0.0421 0.13648,-0.0421 0.17857,0 0.0421,0.0421 0,0.11904 0,0.17857 0,0.0595 0,0.11905 0,0.17857 0,0.65476 0,1.30952 0,1.96429 m -6.42857,0.35714 c 0,-0.41874 0.0421,0.0842 -0.17857,-0.35714 -0.0617,-0.12335 0.0627,-0.83016 0,-0.89286 -0.0421,-0.0421 -0.13647,0.0421 -0.17857,0 -0.0842,-0.0842 0.0532,-0.25066 0,-0.35714 -0.0376,-0.0753 -0.14098,-0.10328 -0.17858,-0.17858 -0.0532,-0.10647 0.0842,-0.27294 0,-0.35714 -0.0421,-0.0421 -0.13647,0.0421 -0.17857,0 -0.0421,-0.0421 0.0421,-0.13647 0,-0.17857 -0.0421,-0.0421 -0.13647,0.0421 -0.17857,0 -0.0421,-0.0421 0.0266,-0.12537 0,-0.17857 -0.0376,-0.0753 -0.14097,-0.10327 -0.17857,-0.17857 -0.0266,-0.0532 0.0421,-0.13647 0,-0.17857 -0.0421,-0.0421 -0.13647,0.0421 -0.17857,0 -0.0421,-0.0421 0.0266,-0.12538 0,-0.17858 -0.0376,-0.0753 -0.11907,-0.11907 -0.17857,-0.17857 0,-0.0595 0.0266,-0.12537 0,-0.17857 -0.0753,-0.15058 -0.28185,-0.20656 -0.35715,-0.35714 -0.0266,-0.0532 0.0266,-0.12537 0,-0.17857 -0.0376,-0.0753 -0.14097,-0.10327 -0.17857,-0.17857 -0.0532,-0.10648 0.0532,-0.25067 0,-0.35715 -0.0376,-0.0753 -0.14097,-0.10327 -0.17857,-0.17857 -0.0714,-0.14286 0.0714,-0.39286 0,-0.53571 -0.0376,-0.0753 -0.14097,-0.10327 -0.17857,-0.17857 -0.0532,-0.10648 0.0532,-0.25067 0,-0.35715 -0.0376,-0.0753 -0.14097,-0.10327 -0.17857,-0.17857 -0.0532,-0.10648 0.0532,-0.25066 0,-0.35714 -0.0376,-0.0753 -0.14097,-0.10327 -0.17857,-0.17857 -0.0561,-0.11224 0.0561,-0.60205 0,-0.71429 -0.0376,-0.0753 -0.14097,-0.10327 -0.17857,-0.17857 -0.0714,-0.14286 0.0714,-0.39286 0,-0.53571 -0.0376,-0.0753 -0.14098,-0.10328 -0.17858,-0.17858 -0.0714,-0.14285 0.0714,-0.39285 0,-0.53571 -0.0376,-0.0753 -0.14097,-0.10327 -0.17857,-0.17857 -0.0561,-0.11224 0.0561,-0.60205 0,-0.71429 -0.0376,-0.0753 -0.14097,-0.10327 -0.17857,-0.17857 -0.0542,-0.10843 0.0542,-0.96299 0,-1.07143 -0.0376,-0.0753 -0.14097,-0.10327 -0.17857,-0.17857 -0.0266,-0.0532 0,-0.11907 0,-0.17857 0,-0.0595 0,-0.11907 0,-0.17857 0,-0.0656 0.007,-0.70729 0,-0.71429 -0.0421,-0.0421 -0.13647,0.0421 -0.17857,0 -0.0421,-0.0421 0,-0.11907 0,-0.17857 0,-0.0595 0,-0.11907 0,-0.17857 0,-0.0842 0.008,-0.88486 0,-0.89286 -0.0421,-0.0421 -0.13647,0.0421 -0.17857,0 -0.0893,-0.0893 0.0893,-0.44641 0,-0.53571 -0.0421,-0.0421 -0.13647,0.0421 -0.17857,0 -0.0421,-0.0421 0.0421,-0.13647 0,-0.17857 -0.0421,-0.0421 -0.13648,0.0421 -0.17858,0 -0.36947,-0.36945 0.5646,0.0144 -0.17857,-0.35715 -0.0532,-0.0266 -0.12537,0.0266 -0.17857,0 -0.15058,-0.0753 -0.20656,-0.28184 -0.35714,-0.35714 -0.0532,-0.0266 -0.12537,0.0266 -0.17857,0 -0.21429,-0.10714 -0.32143,-0.42857 -0.53572,-0.53571 -0.0532,-0.0266 -0.12537,0.0266 -0.17857,0 -0.21428,-0.10715 -0.32143,-0.42857 -0.53571,-0.53572 -0.0532,-0.0266 -0.12537,0.0266 -0.17857,0 -0.37255,-0.18625 0.0228,-0.54299 -0.35715,-0.71428 l 0.71429,-0.17857 c 0.15577,0.36435 0.51908,0.081 0.71428,0.17857 0.0753,0.0376 0.10328,0.14092 0.17858,0.17857 0.10647,0.0532 0.27296,-0.0842 0.35714,0 0.0421,0.0421 -0.0421,0.13648 0,0.17857 0.0421,0.0421 0.13648,-0.0421 0.17857,0 0.0421,0.0421 -0.0421,0.13648 0,0.17857 0.0421,0.0421 0.13648,-0.0421 0.17857,0 0.0421,0.0421 -0.0421,0.13648 0,0.17857 0.0421,0.0421 0.12533,-0.0266 0.17857,0 0.0753,0.0376 0.10328,0.14093 0.17857,0.17857 0.0532,0.0266 0.13649,-0.0421 0.17858,0 0.0421,0.0421 -0.0421,0.13649 0,0.17858 0.0421,0.0421 0.12533,-0.0266 0.17857,0 0.0753,0.0376 0.10328,0.14092 0.17857,0.17857 0.0532,0.0266 0.13648,-0.0421 0.17857,0 0.0421,0.0421 -0.0421,0.13648 0,0.17857 0.0421,0.0421 0.13648,-0.0421 0.17857,0 0.0421,0.0421 -0.0421,0.13648 0,0.17857 0.0421,0.0421 0.12533,-0.0266 0.17857,0 0.15059,0.0753 0.20656,0.28185 0.35715,0.35714 0.0532,0.0266 0.13648,-0.0421 0.17857,0 0.0421,0.0421 -0.0421,0.13648 0,0.17857 0.0421,0.0421 0.12533,-0.0266 0.17857,0 0.0753,0.0376 0.10328,0.14093 0.17857,0.17858 0.0532,0.0266 0.13648,-0.0421 0.17857,0 0.0421,0.0421 -0.0266,0.12533 0,0.17857 0.59225,0.59224 -0.0842,-0.16836 0.17857,0.35714 0.0376,0.0753 0.14093,0.10328 0.17857,0.17857 0.0266,0.0532 -0.0421,0.13648 0,0.17857 0.0421,0.0421 0.13649,-0.0421 0.17858,0 0.0421,0.0421 -0.0421,0.13648 0,0.17857 0.0421,0.0421 0.13648,-0.0421 0.17857,0 0.0842,0.0842 -0.0842,0.27297 0,0.35715 0.0421,0.0421 0.13648,-0.0421 0.17857,0 0.0842,0.0842 -0.0842,0.27296 0,0.35714 0.0421,0.0421 0.13648,-0.0421 0.17857,0 0.0842,0.0842 -0.0532,0.25066 0,0.35714 0.0376,0.0753 0.14092,0.10328 0.17857,0.17857 0.0266,0.0532 -0.0266,0.12534 0,0.17858 0.59225,0.59224 -0.0842,-0.16836 0.17857,0.35714 0.0376,0.0753 0.14093,0.10328 0.17857,0.17857 0.0714,0.14286 -0.0714,0.39286 0,0.53571 0.59225,0.59225 -0.0842,-0.16835 0.17858,0.35715 0.0376,0.0753 0.14092,0.10328 0.17857,0.17857 0.0532,0.10648 -0.0376,0.2442 0,0.35714 0.0421,0.12627 0.13648,0.23088 0.17857,0.35714 0.0376,0.11294 -0.0532,0.25067 0,0.35715 0.59225,0.59224 -0.0842,-0.16836 0.17857,0.35714 0.0376,0.0753 0.14092,0.10328 0.17857,0.17857 0.0714,0.14286 -0.0714,0.39286 0,0.53572 0.0376,0.0753 0.14093,0.10327 0.17857,0.17857 0.0266,0.0532 -0.0266,0.12533 0,0.17857 0.0376,0.0753 0.14093,0.10328 0.17857,0.17857 0.0532,0.10648 -0.0842,0.27296 0,0.35714 0.0421,0.0421 0.13649,-0.0421 0.17858,0 0.043,0.043 -0.043,0.67132 0,0.71429 0.0421,0.0421 0.13648,-0.0421 0.17857,0 0.0893,0.0893 -0.0893,0.44643 0,0.53571 0.0421,0.0421 0.13648,-0.0421 0.17857,0 0.0421,0.0421 -0.0421,0.13648 0,0.17857 0.0421,0.0421 0.13648,-0.0421 0.17857,0 0.0421,0.0421 -0.0266,0.12534 0,0.17858 0.0171,0.0342 0.6801,0.69719 0.71429,0.71428 0.0532,0.0266 0.13648,-0.0421 0.17857,0 0.0421,0.0421 -0.0421,0.13648 0,0.17857 0.0421,0.0421 0.13648,-0.0421 0.17857,0 0.0421,0.0421 -0.0421,0.13648 0,0.17857 0.0421,0.0421 0.13648,-0.0421 0.17857,0 0.0421,0.0421 -0.0421,0.13649 0,0.17858 0.0421,0.0421 0.13648,-0.0421 0.17857,0 0.0421,0.0421 -0.0266,0.12533 0,0.17857 0.0753,0.15058 0.28185,0.20656 0.35714,0.35714 0.0532,0.10648 -0.0532,0.25066 0,0.35714 0.0376,0.0753 0.14093,0.10328 0.17858,0.17857 0.0532,0.10648 -0.0532,0.25067 0,0.35715 0.0376,0.0753 0.14092,0.10328 0.17857,0.17857 0.0231,0.0462 0,0.94486 0,1.07143 0,0.0595 -0.0421,0.13648 0,0.17857 0.0421,0.0421 0.13648,-0.0421 0.17857,0 0.0179,0.0179 0.0179,0.51786 0,0.53571 -0.0421,0.0421 -0.13648,-0.0421 -0.17857,0 -0.006,0.006 0,0.49241 0,0.53572 m -9.64286,-15.89286 c 0,0.40344 -0.0266,-0.0799 0.17857,0.53571 0.0188,0.0565 -0.0266,0.12534 0,0.17858 0.0376,0.0753 0.14093,0.10327 0.17857,0.17857 0.0266,0.0532 -0.0266,0.12533 0,0.17857 0.0376,0.0753 0.14093,0.10328 0.17857,0.17857 0.0266,0.0532 -0.0421,0.13648 0,0.17857 0.0421,0.0421 0.13649,-0.0421 0.17858,0 0.0421,0.0421 -0.0266,0.12533 0,0.17857 0.0376,0.0753 0.14092,0.10328 0.17857,0.17857 0.0266,0.0532 -0.0266,0.12534 0,0.17858 0.0376,0.0753 0.14092,0.10327 0.17857,0.17857 0.0272,0.0543 0,0.45529 0,0.53571 0,0.47619 0,0.95238 0,1.42857 0,0.11905 0,0.2381 0,0.35715 0,0.11904 -0.0289,0.24165 0,0.35714 0.0323,0.12912 0.14629,0.22802 0.17857,0.35714 0.0289,0.11549 0,0.2381 0,0.35714 0,0.29762 0,0.59524 0,0.89286 0,0.0433 0.006,0.52997 0,0.53572 -0.0421,0.0421 -0.13648,-0.0421 -0.17857,0 -0.0421,0.0421 0,0.11904 0,0.17857 0,0.41666 0,0.83333 0,1.25 0,0.0595 0,0.11904 0,0.17857 0,0.0595 0.0421,0.13648 0,0.17857 -0.0421,0.0421 -0.13648,-0.0421 -0.17857,0 -0.0421,0.0421 0,0.11905 0,0.17857 0,0.29762 0,0.59524 0,0.89286 0,0.77381 0,1.54762 0,2.32143 0,0.0595 0,0.11904 0,0.17857 0,0.0595 -0.0421,0.13648 0,0.17857 0.0421,0.0421 0.17857,-0.0595 0.17857,0 0,0.0595 -0.17857,-0.0595 -0.17857,0 0,0.0842 0.14092,0.10328 0.17857,0.17857 0.0714,0.14286 -0.0714,0.39286 0,0.53572 0.0376,0.0753 0.14092,0.10327 0.17857,0.17857 0.0561,0.11223 -0.0561,0.60205 0,0.71428 0.0376,0.0753 0.14092,0.10328 0.17857,0.17857 0.0714,0.14286 -0.0714,0.39286 0,0.53572 0.0376,0.0753 0.14093,0.10328 0.17857,0.17857 0.0532,0.10648 -0.0842,0.27296 0,0.35714 0.0421,0.0421 0.13648,-0.0421 0.17857,0 0.006,0.006 0,0.49241 0,0.53572 m -10,-2.32143 c -0.23809,0.11905 -0.90251,0.54537 -0.71428,0.35714 0.24542,-0.24542 0.62183,-0.31889 0.89286,-0.53571 0.0465,-0.0372 -0.0421,-0.13648 0,-0.17857 0.0421,-0.0421 0.13648,0.0421 0.17857,0 0.0842,-0.0842 -0.0842,-0.27297 0,-0.35715 0.0421,-0.0421 0.13648,0.0421 0.17857,0 0.0421,-0.0421 -0.0421,-0.13648 0,-0.17857 0.0421,-0.0421 0.13648,0.0421 0.17857,0 0.0421,-0.0421 -0.0266,-0.12533 0,-0.17857 0.0376,-0.0753 0.11905,-0.11905 0.17857,-0.17857 0,-0.17857 -0.0565,-0.36631 0,-0.53572 0.0679,-0.2036 0.27744,-0.33644 0.35714,-0.53571 0.0442,-0.11053 -0.0376,-0.2442 0,-0.35714 0.0532,-0.15972 0.28185,-0.20656 0.35715,-0.35715 0.0266,-0.0532 -0.0421,-0.13648 0,-0.17857 0.0421,-0.0421 0.13648,0.0421 0.17857,0 0.0421,-0.0421 -0.0266,-0.12533 0,-0.17857 0.0376,-0.0753 0.14092,-0.10328 0.17857,-0.17857 0.0266,-0.0532 -0.0421,-0.13648 0,-0.17857 0.0421,-0.0421 0.13648,0.0421 0.17857,0 0.0842,-0.0842 -0.0842,-0.27296 0,-0.35714 0.0421,-0.0421 0.13648,0.0421 0.17857,0 0.0421,-0.0421 -0.0421,-0.13649 0,-0.17858 0.0421,-0.0421 0.13648,0.0421 0.17857,0 0.0421,-0.0421 -0.0266,-0.12533 0,-0.17857 0.0376,-0.0753 0.14093,-0.10328 0.17858,-0.17857 0.0266,-0.0532 -0.0421,-0.13648 0,-0.17857 0.0421,-0.0421 0.13648,0.0421 0.17857,0 0.0421,-0.0421 -0.0266,-0.12533 0,-0.17857 0.0376,-0.0753 0.14092,-0.10328 0.17857,-0.17857 0.0266,-0.0532 -0.0266,-0.12533 0,-0.17857 0.10714,-0.21429 0.42857,-0.32143 0.53571,-0.53572 0.0266,-0.0532 -0.0421,-0.13648 0,-0.17857 0.0421,-0.0421 0.13648,0.0421 0.17857,0 0.0421,-0.0421 -0.0421,-0.13648 0,-0.17857 0.0421,-0.0421 0.13649,0.0421 0.17858,0 0.0421,-0.0421 -0.0421,-0.13648 0,-0.17857 0.0421,-0.0421 0.13648,0.0421 0.17857,0 0.0421,-0.0421 -0.0421,-0.13648 0,-0.17857 0.0421,-0.0421 0.13648,0.0421 0.17857,0 0.0421,-0.0421 -0.0266,-0.12534 0,-0.17858 0.0376,-0.0753 0.14092,-0.10327 0.17857,-0.17857 0.0266,-0.0532 -0.0421,-0.13648 0,-0.17857 0.0421,-0.0421 0.13648,0.0421 0.17857,0 0.0421,-0.0421 -0.0421,-0.13648 0,-0.17857 0.0421,-0.0421 0.13648,0.0421 0.17857,0 0.0842,-0.0842 -0.0532,-0.25066 0,-0.35714 0.0376,-0.0753 0.14093,-0.10328 0.17857,-0.17857 0.0266,-0.0532 -0.0266,-0.12534 0,-0.17858 0.0376,-0.0753 0.14093,-0.10327 0.17858,-0.17857 0.0561,-0.11223 -0.0561,-0.60205 0,-0.71428 0.0376,-0.0753 0.14092,-0.10328 0.17857,-0.17857 0.0532,-0.10648 -0.0842,-0.27297 0,-0.35715 0.0421,-0.0421 0.13648,0.0421 0.17857,0 0.0842,-0.0842 -0.0532,-0.25066 0,-0.35714 0.0376,-0.0753 0.14092,-0.10328 0.17857,-0.17857 0.0484,-0.0969 -0.0489,-0.66543 0,-0.71429 0.0421,-0.0421 0.13648,0.0421 0.17857,0 0.0489,-0.0489 -0.0484,-0.61741 0,-0.71428 0.0376,-0.0753 0.14093,-0.10328 0.17857,-0.17857 0.0532,-0.10648 -0.0532,-0.25067 0,-0.35715 0.0376,-0.0753 0.14093,-0.10328 0.17857,-0.17857 0.0484,-0.0969 -0.0489,-0.66542 0,-0.71428 0.0421,-0.0421 0.13649,0.0421 0.17858,0 0.008,-0.008 0,-0.80867 0,-0.89286 0,-0.0595 -0.0421,-0.13648 0,-0.17857 0.0421,-0.0421 0.13648,0.0421 0.17857,0 0.0842,-0.0842 -0.0842,-0.27297 0,-0.35715 0.23809,-0.23809 0.17857,0.29762 0.17857,-0.17857 l 0.17857,1.07143 c 0.079,0.10677 -0.0704,0.57357 0,0.71429 0.0376,0.0753 0.14092,0.10328 0.17857,0.17857 0.0272,0.0543 0,0.45529 0,0.53571 0,0.41667 0,0.83334 0,1.25 0,1.01191 0,2.02381 0,3.03572 0,0.35714 0,0.71428 0,1.07143 0,0.0804 0.0272,0.48136 0,0.53571 -0.0376,0.0753 -0.14092,0.10328 -0.17857,0.17857 -0.0563,0.11266 0.0563,0.7802 0,0.89286 -0.0376,0.0753 -0.14093,0.10328 -0.17857,0.17857 -0.0561,0.11224 0.0561,0.60205 0,0.71429 -0.0376,0.0753 -0.14093,0.10327 -0.17857,0.17857 -0.0513,0.10251 0.038,0.74085 0,0.89285 -0.0323,0.12913 -0.13648,0.23088 -0.17857,0.35715 -0.0188,0.0565 0.0266,0.12533 0,0.17857 -0.0376,0.0753 -0.14093,0.10328 -0.17858,0.17857 -0.0266,0.0532 0,0.11905 0,0.17857 0,0.12657 0.0231,1.02526 0,1.07143 -0.0376,0.0753 -0.15195,0.0987 -0.17857,0.17857 -0.0272,0.0818 0,0.79319 0,0.89286 0,0.65476 0,1.30952 0,1.96428 m 0.53572,-15.89285 c 0,0.41878 0.0421,-0.0842 -0.17857,0.35714 -0.0561,0.11224 0.0561,0.60205 0,0.71429 -0.0376,0.0753 -0.14093,0.10327 -0.17858,0.17857 -0.0532,0.10648 0.0532,0.25066 0,0.35714 -0.0376,0.0753 -0.14092,0.10328 -0.17857,0.17857 -0.0266,0.0532 0.0188,0.1221 0,0.17857 -0.0421,0.12627 -0.13648,0.23088 -0.17857,0.35715 -0.0188,0.0565 0.0266,0.12533 0,0.17857 -0.0376,0.0753 -0.14092,0.10328 -0.17857,0.17857 -0.0266,0.0532 0.0266,0.12533 0,0.17857 -0.0376,0.0753 -0.11905,0.11905 -0.17857,0.17857 -0.0595,0.0595 -0.11905,0.11905 -0.17857,0.17857 -0.10503,0.10503 -0.6316,0.67294 -0.71429,0.71429 -0.10648,0.0532 -0.27296,-0.0842 -0.35714,0 -0.0421,0.0421 0.0421,0.13648 0,0.17857 -0.0842,0.0842 -0.27297,-0.0842 -0.35714,0 -0.0421,0.0421 0.0266,0.12533 0,0.17857 -0.0569,0.11375 -0.75255,0.75254 -0.89286,0.89286 -0.0595,0.0595 -0.10328,0.14092 -0.17857,0.17857 -0.24632,0.12316 -0.15973,-0.21626 -0.35715,0.17857 -0.0266,0.0532 0.0421,0.13648 0,0.17857 -0.0421,0.0421 -0.13648,-0.0421 -0.17857,0 -0.0421,0.0421 0.0266,0.12533 0,0.17857 -0.0753,0.15059 -0.28185,0.20656 -0.35714,0.35715 -0.0266,0.0532 0,0.11904 0,0.17857 -0.0595,0.0595 -0.14093,0.10328 -0.17857,0.17857 -0.0266,0.0532 0.0421,0.13648 0,0.17857 -0.0421,0.0421 -0.13648,-0.0421 -0.17857,0 -0.0421,0.0421 0.0266,0.12533 0,0.17857 -0.0753,0.15059 -0.28185,0.20656 -0.35715,0.35715 -0.0266,0.0532 0.0421,0.13648 0,0.17857 -0.0421,0.0421 -0.12533,-0.0266 -0.17857,0 -0.74317,0.37158 0.1909,-0.0123 -0.17857,0.35714 -0.0421,0.0421 -0.13648,-0.0421 -0.17857,0 -0.36947,0.36947 0.5646,-0.0144 -0.17857,0.35714 -0.0532,0.0266 -0.12533,-0.0266 -0.17857,0 -0.0753,0.0376 -0.11905,0.11905 -0.17857,0.17857 -0.0595,0.0595 -0.11905,0.11905 -0.17858,0.17858 -0.0595,0.0595 -0.14092,0.10327 -0.17857,0.17857 -0.0266,0.0532 0.0595,0.17857 0,0.17857 -0.0595,0 0.0421,-0.13648 0,-0.17857 -0.0421,-0.0421 -0.11905,0 -0.17857,0 -0.11905,0 -0.2442,-0.0376 -0.35714,0 -0.25254,0.0842 -0.46175,0.27296 -0.71429,0.35714 -0.11294,0.0376 -0.25066,-0.0532 -0.35714,0 -0.0753,0.0376 -0.11905,0.11905 -0.17857,0.17857 -0.17857,0.17857 -0.35714,0.35714 -0.53572,0.53572 -0.0595,0.0595 -0.11904,0.11904 -0.17857,0.17857 -0.0595,0 -0.13648,-0.0421 -0.17857,0 -0.0421,0.0421 0.0421,0.13648 0,0.17857 -0.0421,0.0421 -0.13648,-0.0421 -0.17857,0 -0.0421,0.0421 0.0266,0.12533 0,0.17857 -0.0377,0.0753 -0.13188,0.10853 -0.17857,0.17857 -0.39342,0.0899 -0.0944,0.36736 -0.17857,0.53572 -0.0376,0.0753 -0.14093,0.10327 -0.17857,0.17857 -0.0325,0.065 0.0313,0.71428 0,0.71428 -0.0595,0 -0.0595,-0.17857 0,-0.17857 0.15583,0 -0.37508,0.92873 0.17857,-0.17857 m 10,-13.57143 c 0,-0.47619 0.0595,0.0595 -0.17857,-0.17857 -0.0421,-0.0421 0.0421,-0.13648 0,-0.17857 -0.0421,-0.0421 -0.13649,0.0421 -0.17858,0 -0.0421,-0.0421 0.0421,-0.13648 0,-0.17857 -0.0421,-0.0421 -0.13648,0.0421 -0.17857,0 -0.0421,-0.0421 0.0421,-0.13648 0,-0.17857 -0.0421,-0.0421 -0.13648,0.0421 -0.17857,0 -0.0421,-0.0421 0.0266,-0.12534 0,-0.17858 -0.0753,-0.15058 -0.28185,-0.20655 -0.35714,-0.35714 -0.0266,-0.0532 0.0421,-0.13648 0,-0.17857 -0.0421,-0.0421 -0.13648,0.0421 -0.17857,0 -0.0421,-0.0421 0.0421,-0.13648 0,-0.17857 -0.0421,-0.0421 -0.13648,0.0421 -0.17857,0 -0.0842,-0.0842 0.0842,-0.27296 0,-0.35714 -0.36948,-0.36947 0.0144,0.5646 -0.35715,-0.17858 -0.0266,-0.0532 0.0421,-0.13648 0,-0.17857 -0.0842,-0.0842 -0.25066,0.0532 -0.35714,0 -0.21429,-0.10714 -0.32143,-0.42857 -0.53571,-0.53571 -0.0532,-0.0266 -0.12534,0.0266 -0.17858,0 -0.0753,-0.0376 -0.10328,-0.14093 -0.17857,-0.17857 -0.10648,-0.0532 -0.25066,0.0532 -0.35714,0 -0.0753,-0.0376 -0.10328,-0.14093 -0.17857,-0.17857 -0.10648,-0.0532 -0.27297,0.0842 -0.35714,0 -0.0421,-0.0421 0.0421,-0.13649 0,-0.17858 -0.0421,-0.0421 -0.12534,0.0266 -0.17858,0 -0.15058,-0.0753 -0.20655,-0.28185 -0.35714,-0.35714 -0.0532,-0.0266 -0.13648,0.0421 -0.17857,0 -0.36947,-0.36947 0.5646,0.0144 -0.17857,-0.35714 -0.0532,-0.0266 -0.11905,0 -0.17857,0 -0.0595,-0.0595 -0.10328,-0.14093 -0.17857,-0.17857 -0.0532,-0.0266 -0.13649,0.0421 -0.17858,0 -0.0421,-0.0421 0.0421,-0.13648 0,-0.17857 -0.0421,-0.0421 -0.12533,0.0266 -0.17857,0 -0.21428,-0.10715 -0.32143,-0.42858 -0.53571,-0.53572 -0.0532,-0.0266 -0.13648,0.0421 -0.17857,0 -0.0421,-0.0421 0.0421,-0.13648 0,-0.17857 -0.36947,-0.36947 0.0144,0.5646 -0.35715,-0.17857 -0.0266,-0.0532 0.0421,-0.13648 0,-0.17857 -0.0421,-0.0421 -0.13648,0.0421 -0.17857,0 -0.0842,-0.0842 0.0842,-0.27297 0,-0.35715 -0.0421,-0.0421 -0.13648,0.0421 -0.17857,0 -0.0421,-0.0421 0.0266,-0.12533 0,-0.17857 -0.59225,-0.59224 0.0842,0.16836 -0.17857,-0.35714 -0.0753,-0.15058 -0.28185,-0.20656 -0.35714,-0.35714 -0.0266,-0.0532 0,-0.11905 0,-0.17857 -0.0595,-0.0595 -0.14093,-0.10328 -0.17857,-0.17858 -0.0532,-0.10648 0.0532,-0.25066 0,-0.35714 -0.0376,-0.0753 -0.14093,-0.10328 -0.17858,-0.17857 -0.0266,-0.0532 0,-0.11905 0,-0.17857 -0.0595,-0.0595 -0.14092,-0.10328 -0.17857,-0.17857 -0.0266,-0.0532 0.0266,-0.12533 0,-0.17857 -0.10714,-0.21429 -0.42857,-0.32143 -0.53571,-0.53572 -0.0532,-0.10648 0.0842,-0.27296 0,-0.35714 -0.0421,-0.0421 -0.13648,0.0421 -0.17857,0 -0.0421,-0.0421 0.0266,-0.12533 0,-0.17857 -0.0376,-0.0753 -0.14093,-0.10328 -0.17857,-0.17857 -0.0266,-0.0532 0.0421,-0.13649 0,-0.17858 -0.0421,-0.0421 -0.12534,0.0266 -0.17858,0 -0.21428,-0.10714 -0.32142,-0.42857 -0.53571,-0.53571 -0.0532,-0.0266 -0.12533,0.0266 -0.17857,0 -0.0753,-0.0377 -0.10328,-0.14093 -0.17857,-0.17857 -0.0532,-0.0266 -0.12533,0.0266 -0.17857,0 -0.0753,-0.0376 -0.10328,-0.14093 -0.17858,-0.17857 -0.0708,-0.0354 -0.4992,0.0365 -0.53571,0 -0.0421,-0.0421 0.0421,-0.13648 0,-0.17857 -0.0842,-0.0842 -0.25066,0.0532 -0.35714,0 -0.0753,-0.0377 -0.10328,-0.14093 -0.17857,-0.17858 -0.0708,-0.0354 -0.49921,0.0365 -0.53572,0 -0.0421,-0.0421 0.0421,-0.13648 0,-0.17857 -0.0553,-0.0553 -0.83756,0.0553 -0.89286,0 -0.0421,-0.0421 0.0421,-0.13648 0,-0.17857 -0.0489,-0.0489 -0.61741,0.0484 -0.71428,0 -0.0753,-0.0376 -0.10328,-0.14092 -0.17857,-0.17857 -0.10648,-0.0532 -0.25067,0.0532 -0.35715,0 -0.0753,-0.0377 -0.10328,-0.14093 -0.17857,-0.17857 -0.0532,-0.0266 -0.12533,0.0266 -0.17857,0 -0.0753,-0.0376 -0.10328,-0.14093 -0.17857,-0.17857 -0.0708,-0.0354 -0.49921,0.0365 -0.53571,0 -0.0421,-0.0421 0.0421,-0.13648 0,-0.17857 -0.0421,-0.0421 -0.12534,0.0266 -0.17858,0 -0.0753,-0.0377 -0.10328,-0.14093 -0.17857,-0.17858 -0.10648,-0.0532 -0.27296,0.0842 -0.35714,0 -0.0421,-0.0421 0.0421,-0.13648 0,-0.17857 -0.0842,-0.0842 -0.27296,0.0842 -0.35714,0 -0.0421,-0.0421 0.0421,-0.13648 0,-0.17857 -0.0421,-0.0421 -0.13648,0.0421 -0.17857,0 -0.0421,-0.0421 0,-0.11905 0,-0.17857 -0.0595,0 -0.13649,0.0421 -0.17858,0 -0.0421,-0.0421 0.0421,-0.13648 0,-0.17857 -0.0842,-0.0842 -0.27296,0.0842 -0.35714,0 -0.0421,-0.0421 0.0421,-0.13648 0,-0.17857 -0.0842,-0.0842 -0.27296,0.0842 -0.35714,0 -0.0421,-0.0421 0,-0.11905 0,-0.17857 0,-0.0595 0,-0.11905 0,-0.17858 m -1.78572,7.5 c -0.0595,0 -0.17857,-0.0595 -0.17857,0 0,0.0595 0.13647,0.0421 0.17857,0 0.0421,-0.0421 -0.0421,-0.13647 0,-0.17857 0.0421,-0.0421 0.11908,0 0.17858,0 0.1242,0 0.82825,-0.0323 0.89285,0 0.0753,0.0376 0.10327,0.14097 0.17857,0.17857 0.0532,0.0266 0.13648,-0.0421 0.17858,0 0.0842,0.0842 -0.0532,0.25067 0,0.35715 0.0376,0.0753 0.14097,0.10327 0.17857,0.17857 0.12317,0.24631 -0.21626,0.15973 0.17857,0.35714 0.0532,0.0266 0.13647,-0.0421 0.17857,0 0.0421,0.0421 -0.0421,0.13647 0,0.17857 0.0421,0.0421 0.13647,-0.0421 0.17857,0 0.0421,0.0421 -0.0421,0.13647 0,0.17857 0.0421,0.0421 0.11907,0 0.17857,0 0.12657,0 1.02523,-0.0231 1.07143,0 0.0753,0.0376 0.10327,0.14088 0.17857,0.17858 0.0763,0.0381 0.82226,0 0.89286,0 0.53571,0 1.07143,0 1.60714,0 0.90444,0 -0.38068,-0.0289 1.07143,0.17857 0.2357,0.0337 0.47619,0 0.71429,0 0.0595,0 0.13647,-0.0421 0.17857,0 0.0421,0.0421 -0.0421,0.13647 0,0.17857 0.0421,0.0421 0.12537,-0.0266 0.17857,0 0.0753,0.0376 0.10327,0.14087 0.17857,0.17857 0.5255,0.26277 -0.2351,-0.41368 0.35714,0.17857 0.0532,0.0266 0.13648,-0.0421 0.17858,0 0.0842,0.0842 -0.0842,0.27294 0,0.35714 0.0421,0.0421 0.13647,-0.0421 0.17857,0 0.0421,0.0421 -0.0421,0.13648 0,0.17858 0.0421,0.0421 0.13647,-0.0421 0.17857,0 0.23807,0.23807 -0.29762,0.17857 0.17857,0.17857 0.0753,0.0376 0.11907,0.11907 0.17857,0.17857 0.0595,0.0595 0.14097,0.10327 0.17857,0.17857 0.0266,0.0532 -0.0421,0.13647 0,0.17857 0.0596,0.0596 0.29755,-0.0596 0.35715,0 0.0421,0.0421 -0.0421,0.13647 0,0.17857 0.0421,0.0421 0.12537,-0.0266 0.17857,0 0.0753,0.0376 0.10327,0.14097 0.17857,0.17857 0.10648,0.0532 0.27294,-0.0842 0.35714,0 0.0421,0.0421 -0.0421,0.13648 0,0.17858 0.0627,0.0627 0.76951,-0.0617 0.89286,0 0.0753,0.0376 0.10327,0.14097 0.17857,0.17857 0.0532,0.0266 0.11907,0 0.17857,0 0.0595,0 0.11907,0 0.17857,0 0.29762,0 0.59524,0 0.89286,0 0.0595,0 0.12537,-0.0266 0.17857,0 0.0753,0.0376 0.10327,0.14097 0.17857,0.17857 0.11765,0.0588 0.9063,-0.0551 1.07143,0 0.0799,0.0266 0.10327,0.14087 0.17857,0.17857 0.11224,0.0561 0.60205,-0.0561 0.71429,0 0.0753,0.0376 0.10327,0.14097 0.17857,0.17857 0.0708,0.0354 0.49921,-0.0365 0.53571,0 0.0421,0.0421 -0.0421,0.13647 0,0.17857 0.043,0.043 0.67129,-0.043 0.71429,0 0.0421,0.0421 -0.0421,0.13647 0,0.17857 0.0842,0.0842 0.27294,-0.0842 0.35714,0 0.0421,0.0421 -0.0421,0.13648 0,0.17858 0.0421,0.0421 0.13647,-0.0421 0.17857,0 0.0421,0.0421 -0.0421,0.13647 0,0.17857 0.0421,0.0421 0.13648,-0.0421 0.17858,0 0.0421,0.0421 -0.0421,0.13647 0,0.17857 0.0421,0.0421 0.12537,-0.0266 0.17857,0 0.0753,0.0376 0.10327,0.14087 0.17857,0.17857 0.0532,0.0266 0.12537,-0.0266 0.17857,0 0.0753,0.0376 0.10327,0.14097 0.17857,0.17857 0.10648,0.0532 0.27294,-0.0842 0.35714,0 0.0421,0.0421 -0.0421,0.13647 0,0.17857 0.0842,0.0842 0.33375,-0.11673 0.35715,0 0.0584,0.29184 -0.21045,0.68241 0,0.89286 0.17357,0.17354 0.11907,-0.47619 0.17857,-0.71429 l -0.71429,-0.53571 c -0.10648,-0.0532 -0.25066,0.0532 -0.35714,0 -0.0753,-0.0377 -0.10328,-0.14093 -0.17857,-0.17857 -0.0532,-0.0266 -0.13648,0.0421 -0.17857,0 -0.0421,-0.0421 0.0421,-0.13648 0,-0.17857 -0.0421,-0.0421 -0.12533,0.0266 -0.17857,0 -0.0753,-0.0376 -0.10328,-0.14093 -0.17858,-0.17857 -0.0532,-0.0266 -0.13648,0.0421 -0.17857,0 -0.0421,-0.0421 0.0266,-0.12534 0,-0.17858 -0.0376,-0.0753 -0.14092,-0.10327 -0.17857,-0.17857 -0.0266,-0.0532 0.0421,-0.13648 0,-0.17857 -0.0842,-0.0842 -0.27296,0.0842 -0.35714,0 -0.0421,-0.0421 0.0266,-0.12533 0,-0.17857 -0.0376,-0.0753 -0.13188,-0.10853 -0.17857,-0.17857 -0.0738,-0.11075 -0.10474,-0.2464 -0.17857,-0.35714 -0.16378,-0.24567 -0.27549,-0.18366 -0.53572,-0.35715 -0.14008,-0.0934 -0.20656,-0.28185 -0.35714,-0.35714 -0.0532,-0.0266 -0.13648,0.0421 -0.17857,0 -0.0421,-0.0421 0.0421,-0.13648 0,-0.17857 -0.0842,-0.0842 -0.25067,0.0532 -0.35715,0 -0.0753,-0.0376 -0.10328,-0.14093 -0.17857,-0.17857 -0.0532,-0.0266 -0.13648,0.0421 -0.17857,0 -0.0421,-0.0421 0.0421,-0.13648 0,-0.17857 -0.0365,-0.0365 -0.46491,0.0354 -0.53571,0 -0.0753,-0.0377 -0.10328,-0.14093 -0.17857,-0.17858 -0.0532,-0.0266 -0.12211,0.0188 -0.17858,0 -0.11904,-0.0595 -0.23809,-0.11904 -0.35714,-0.17857 -0.0595,0 -0.1221,0.0188 -0.17857,0 -0.25254,-0.0842 -0.45604,-0.29258 -0.71429,-0.35714 -0.006,-0.001 -0.53476,9.5e-4 -0.53571,0 -0.0421,-0.0421 0.0421,-0.13648 0,-0.17857 -0.0421,-0.0421 -0.12533,0.0266 -0.17857,0 -0.0753,-0.0376 -0.10328,-0.14093 -0.17857,-0.17857 -0.0532,-0.0266 -0.12533,0.0266 -0.17857,0 -0.15059,-0.0753 -0.20656,-0.28185 -0.35715,-0.35715 -0.0532,-0.0266 -0.12533,0.0266 -0.17857,0 -0.0474,-0.0237 -0.51201,-0.4883 -0.53571,-0.53571 -0.0266,-0.0532 0.0421,-0.13648 0,-0.17857 -0.0421,-0.0421 -0.13648,0.0421 -0.17857,0 -0.0421,-0.0421 0.0266,-0.12533 0,-0.17857 -0.0377,-0.0753 -0.14093,-0.10328 -0.17858,-0.17857 -0.0266,-0.0532 0.0421,-0.13649 0,-0.17858 -0.0421,-0.0421 -0.13648,0.0421 -0.17857,0 -0.0421,-0.0421 0.0266,-0.12533 0,-0.17857 -0.0376,-0.0753 -0.14092,-0.10328 -0.17857,-0.17857 -0.0266,-0.0532 0.0421,-0.13648 0,-0.17857 -0.0421,-0.0421 -0.13648,0.0421 -0.17857,0 -0.0421,-0.0421 0.0421,-0.13648 0,-0.17857 -0.0421,-0.0421 -0.13648,0.0421 -0.17857,0 -0.0421,-0.0421 0.0421,-0.13648 0,-0.17857 -0.0842,-0.0842 -0.25067,0.0532 -0.35714,0 -0.0753,-0.0376 -0.10328,-0.14093 -0.17858,-0.17857 -0.0969,-0.0484 -0.66542,0.0489 -0.71428,0 -0.0421,-0.0421 0.0421,-0.13649 0,-0.17858 -0.0589,-0.0589 -0.58506,0.0431 -0.71429,0 -0.0799,-0.0266 -0.0987,-0.15195 -0.17857,-0.17857 -8.1e-4,-2.7e-4 -0.53554,1.7e-4 -0.53571,0 -0.0421,-0.0421 0.0421,-0.13648 0,-0.17857 -0.0842,-0.0842 -0.25067,0.0532 -0.35715,0 -0.0753,-0.0376 -0.10328,-0.14092 -0.17857,-0.17857 -0.10648,-0.0532 -0.27296,0.0842 -0.35714,0 -0.0421,-0.0421 -0.0421,-0.13648 0,-0.17857 0.0421,-0.0421 0.17857,0.0595 0.17857,0 0,-0.1331 -0.10474,-0.2464 -0.17857,-0.35714 -0.29612,-0.44419 -0.041,-0.0205 -0.35714,-0.17858 -0.15059,-0.0753 -0.20656,-0.28185 -0.35715,-0.35714 -0.0532,-0.0266 -0.13648,0.0421 -0.17857,0 -0.0421,-0.0421 0.0421,-0.13648 0,-0.17857 -0.0421,-0.0421 -0.12533,0.0266 -0.17857,0 -0.0753,-0.0377 -0.10328,-0.14093 -0.17857,-0.17857 -0.0532,-0.0266 -0.13648,0.0421 -0.17857,0 -0.0421,-0.0421 0.0421,-0.13648 0,-0.17857 -0.0596,-0.0596 -0.29757,0.0596 -0.35714,0 -0.0421,-0.0421 0.0421,-0.13648 0,-0.17857 -0.0252,-0.0252 -0.49909,-0.0183 -0.53572,0 -0.0753,0.0376 -0.10328,0.14092 -0.17857,0.17857 -0.0543,0.0272 -0.45529,0 -0.53571,0 -0.41667,0 -0.83334,0 -1.25,0 -0.0934,0 -0.66734,0.0235 -0.71429,0 -0.0753,-0.0376 -0.10328,-0.14093 -0.17857,-0.17857 -0.10648,-0.0532 -0.35714,0.11904 -0.35714,0 0,-0.0595 0.11904,0 0.17857,0 m 0.89285,11.78571 c 0,-0.0595 0.0595,-0.17857 0,-0.17857 -0.0595,0 -0.0421,0.13647 0,0.17857 0.1396,0.13959 0.31065,-0.15537 0.35715,-0.17857 0.10648,-0.0532 0.25066,0.0532 0.35714,0 0.0753,-0.0376 0.10327,-0.14097 0.17857,-0.17857 0.0543,-0.0272 0.45532,0 0.53572,0 0.41666,0 0.83333,0 1.25,0 0.0595,0 0.11907,0 0.17857,0 0.0595,0 0.13647,-0.0421 0.17857,0 0.0421,0.0421 -0.0421,0.13647 0,0.17857 0.0842,0.0842 0.27294,-0.0842 0.35714,0 0.0421,0.0421 0,0.11907 0,0.17857 0.0595,0 0.13647,-0.0421 0.17857,0 0.0842,0.0842 -0.0842,0.27294 0,0.35714 0.0421,0.0421 0.12537,-0.0266 0.17857,0 0.0753,0.0376 0.10328,0.14097 0.17858,0.17857 0.0469,0.0235 0.62088,0 0.71428,0 0.12657,0 1.02523,0.0231 1.07143,0 0.0753,-0.0376 0.10327,-0.14097 0.17857,-0.17857 0.5255,-0.26277 -0.2351,0.41368 0.35714,-0.17857 0.10648,-0.0532 0.25067,0.0532 0.35715,0 0.0753,-0.0376 0.10327,-0.14097 0.17857,-0.17857 0.10648,-0.0532 0.2442,0.0376 0.35714,0 0.12627,-0.0421 0.22802,-0.14627 0.35714,-0.17857 0.1155,-0.0289 0.24041,0.0233 0.35715,0 0.18457,-0.0369 0.35114,-0.14167 0.53571,-0.17857 0.11674,-0.0233 0.24041,0.0233 0.35714,0 0.18458,-0.0369 0.35114,-0.14167 0.53572,-0.17857 0.19338,-0.0387 1.05911,0 1.25,0 0.11905,0 0.24165,0.0289 0.35714,0 0.12913,-0.0323 0.23087,-0.13648 0.35714,-0.17858 0.10648,-0.0355 0.89842,0 1.07143,0 0.0595,0 0.12537,0.0266 0.17857,0 0.0753,-0.0376 0.10328,-0.14097 0.17858,-0.17857 0.0678,-0.0339 0.95487,0.0167 1.07142,0 0.30047,-0.0429 0.59085,-0.14837 0.89286,-0.17857 0.29614,-0.0296 0.59646,0.027 0.89286,0 2.28721,-0.20797 0.19661,-0.17857 1.60714,-0.17857 l -0.71428,-0.89286 c -0.0474,-0.0237 -0.30974,-0.33343 -0.35715,-0.35714 -0.0532,-0.0266 -0.11905,0 -0.17857,0 -0.11905,-0.0595 -0.2464,-0.10474 -0.35714,-0.17857 -0.07,-0.0467 -0.0987,-0.15195 -0.17857,-0.17857 -0.11294,-0.0376 -0.24421,0.0376 -0.35715,0 -0.0799,-0.0266 -0.10328,-0.14093 -0.17857,-0.17857 -0.10648,-0.0532 -0.25066,0.0532 -0.35714,0 -0.0753,-0.0377 -0.10328,-0.14093 -0.17857,-0.17858 -0.14286,-0.0714 -0.39286,0.0714 -0.53572,0 -0.0753,-0.0376 -0.10328,-0.14092 -0.17857,-0.17857 -0.047,-0.0235 -0.6209,0 -0.71428,0 -0.0656,0 -0.7071,-0.007 -0.71429,0 -0.0421,0.0421 0.0421,0.13648 0,0.17857 -0.0421,0.0421 -0.11905,0 -0.17857,0 -0.47619,0 -0.95238,0 -1.42857,0 -0.65476,0 -1.30953,0 -1.96429,0 -0.29762,0 -0.59524,0 -0.89285,0 -0.0595,0 -0.12211,0.0188 -0.17858,0 -0.12627,-0.0421 -0.23087,-0.13648 -0.35714,-0.17857 -0.12283,-0.0409 -0.43035,0.0527 -0.53571,0 -0.0753,-0.0376 -0.10328,-0.14092 -0.17857,-0.17857 -0.10844,-0.0542 -0.963,0.0542 -1.07143,0 -0.0753,-0.0376 -0.10328,-0.14092 -0.17857,-0.17857 -0.10648,-0.0532 -0.27297,0.0842 -0.35715,0 -0.0421,-0.0421 0.0421,-0.13648 0,-0.17857 -0.007,-0.007 -0.64871,0 -0.71428,0 -0.41667,0 -0.83334,0 -1.25,0 -0.0804,0 -0.48137,0.0272 -0.53572,0 -0.0753,-0.0376 -0.10328,-0.14093 -0.17857,-0.17857 -0.0543,-0.0272 -0.45529,0 -0.53571,0 -0.41667,0 -0.83334,0 -1.25,0 -0.0804,0 -0.48137,0.0272 -0.53572,0 -0.44132,-0.22066 0.0616,-0.17857 -0.35714,-0.17857 -0.11905,0 -0.47619,0 -0.35714,0 0.11904,0 0.23809,0 0.35714,0 m 5,12.32142 c 0,-0.47619 -0.0595,0.0595 0.17857,-0.17857 0.0421,-0.0421 0,-0.11907 0,-0.17857 0,-0.0595 0,-0.11907 0,-0.17857 0,-0.0656 -0.007,-0.70729 0,-0.71429 0.0421,-0.0421 0.13647,0.0421 0.17857,0 0.0421,-0.0421 -0.0421,-0.13647 0,-0.17857 0.0421,-0.0421 0.13647,0.0421 0.17857,0 0.0421,-0.0421 -0.0421,-0.13647 0,-0.17857 0.0842,-0.0842 0.27295,0.0842 0.35715,0 0.0421,-0.0421 -0.0421,-0.13647 0,-0.17857 0.0489,-0.0489 0.76729,0.0418 0.89285,0 0.25254,-0.0842 0.46713,-0.25824 0.71429,-0.35714 0.34954,-0.13982 0.71429,-0.2381 1.07143,-0.35715 0.17857,-0.0595 0.35004,-0.14767 0.53571,-0.17857 0.17614,-0.0294 0.35958,0.0294 0.53572,0 1.56753,-0.26124 -0.27297,-0.0657 0.89285,-0.35714 0.98049,-0.24517 -0.29744,0.32729 0.71429,-0.17857 0.0565,-0.0188 0.12537,0.0266 0.17857,0 0.0753,-0.0376 0.0987,-0.15197 0.17857,-0.17857 0.11294,-0.0376 0.2381,0 0.35715,0 0.0595,0 0.12537,0.0266 0.17857,0 0.52551,-0.26277 -0.2772,-0.17857 0.53571,-0.17857 0.0799,-0.0266 0.10327,-0.14098 0.17857,-0.17858 0.0532,-0.0266 0.13647,0.0421 0.17857,0 0.0421,-0.0421 -0.0421,-0.13647 0,-0.17857 0.0421,-0.0421 0.12538,0.0266 0.17858,0 0.15058,-0.0753 0.20655,-0.28184 0.35714,-0.35714 0.0532,-0.0266 0.13647,0.0421 0.17857,0 0.0421,-0.0421 -0.0421,-0.13647 0,-0.17857 0.0842,-0.0842 0.25066,0.0532 0.35714,0 0.0753,-0.0376 0.11907,-0.11907 0.17857,-0.17857 0.11905,-0.11905 0.2381,-0.2381 0.35715,-0.35715 0.92775,-0.92778 -0.38061,0.41428 0.89285,-1.07142 0.16435,-0.19175 0.35715,-0.35715 0.53572,-0.53572 0.72394,-0.72394 0.42277,-0.30984 0.89286,-1.25 0.29761,-0.35714 0.91137,-0.37022 1.07142,-0.89286 l -0.89285,-0.17857 c -0.0595,0.0595 -0.10328,0.14093 -0.17857,0.17857 -0.0952,0.0476 -0.26198,-0.0476 -0.35715,0 -0.0753,0.0376 -0.11905,0.11905 -0.17857,0.17858 -0.11905,0 -0.2442,-0.0377 -0.35714,0 -0.25254,0.0842 -0.47103,0.24903 -0.71429,0.35714 -1.10822,0.49254 -0.59146,0.24552 -1.60714,0.53571 -0.18099,0.0517 -0.3531,0.13292 -0.53571,0.17857 -0.35715,0.0893 0,-0.17857 -0.53572,0 -0.0799,0.0266 -0.10328,0.14093 -0.17857,0.17858 -0.33672,0.16835 -0.72541,0.20884 -1.07143,0.35714 -0.24467,0.10486 -0.46961,0.25228 -0.71428,0.35714 -0.17302,0.0742 -0.37431,0.0817 -0.53572,0.17857 -0.14437,0.0866 -0.22245,0.25613 -0.35714,0.35715 -0.10648,0.0799 -0.26303,0.0844 -0.35714,0.17857 -0.0421,0.0421 0.0421,0.13648 0,0.17857 -0.0421,0.0421 -0.13649,-0.0421 -0.17858,0 -0.0421,0.0421 0.0421,0.13648 0,0.17857 -0.0842,0.0842 -0.25066,-0.0532 -0.35714,0 -0.0753,0.0376 -0.10328,0.14093 -0.17857,0.17857 -0.10648,0.0532 -0.25066,-0.0532 -0.35714,0 -0.0753,0.0376 -0.10328,0.14093 -0.17857,0.17857 -0.047,0.0235 -0.62091,0 -0.71429,0 -0.47619,0 -0.95238,0 -1.42857,0 -0.0433,0 -0.52997,-0.006 -0.53572,0 -0.0421,0.0421 0.0421,0.13648 0,0.17857 -0.0421,0.0421 -0.12533,-0.0266 -0.17857,0 -0.0753,0.0376 -0.11905,0.11905 -0.17857,0.17858 -0.17857,0 -0.35957,-0.0294 -0.53571,0 -0.37134,0.0619 -0.70228,0.28331 -1.07143,0.35714 -0.11674,0.0233 -0.2381,0 -0.35714,0 -0.11905,0.0595 -0.23088,0.13648 -0.35715,0.17857 -0.0695,0.0232 -0.508,-0.0277 -0.53571,0 -0.0421,0.0421 0.0421,0.13648 0,0.17857 -0.043,0.043 -0.67132,-0.043 -0.71429,0 -0.0421,0.0421 -0.0421,0.13648 0,0.17857 0.007,0.007 0.64871,0 0.71429,0"
         style="opacity:0.15;fill:none;stroke:#ffffff;stroke-width:1;stroke-linecap:round;stroke-linejoin:round;stroke-miterlimit:4;stroke-dasharray:none;stroke-dashoffset:0;stroke-opacity:1;filter:url(#filter5814)"
         id="path5716" />
      <circle
         transform="translate(0.76234285,0.76504839)"
         id="path3744"
         style="opacity:0.4;fill:url(#radialGradient3848);fill-opacity:1;stroke:none"
         cx="520.73364"
         cy="551.07397"
         r="15.404826" />
    </g>
  </g>
</svg>
