<?xml version="1.0" encoding="UTF-8" standalone="no"?>
<!-- Created with Inkscape (http://www.inkscape.org/) -->

<svg
   xmlns:dc="http://purl.org/dc/elements/1.1/"
   xmlns:cc="http://creativecommons.org/ns#"
   xmlns:rdf="http://www.w3.org/1999/02/22-rdf-syntax-ns#"
   xmlns:svg="http://www.w3.org/2000/svg"
   xmlns="http://www.w3.org/2000/svg"
   xmlns:sodipodi="http://sodipodi.sourceforge.net/DTD/sodipodi-0.dtd"
   xmlns:inkscape="http://www.inkscape.org/namespaces/inkscape"
   sodipodi:docname="cockatrice.svg"
   inkscape:version="0.91 r13725"
   version="1.1"
   id="svg2"
   viewBox="0 0 256 256"
   height="256"
   width="256">
  <sodipodi:namedview
     inkscape:window-maximized="1"
     inkscape:window-y="0"
     inkscape:window-x="0"
     inkscape:window-height="1054"
     inkscape:window-width="1920"
     units="px"
     showgrid="true"
     inkscape:current-layer="layer1"
     inkscape:document-units="px"
     inkscape:cy="128"
     inkscape:cx="128"
     inkscape:zoom="3.3632812"
     inkscape:pageshadow="2"
     inkscape:pageopacity="0.0"
     borderopacity="1.0"
     bordercolor="#666666"
     pagecolor="#ffffff"
     id="base">
    <inkscape:grid
       id="grid4183"
       type="xygrid" />
  </sodipodi:namedview>
  <defs
     id="defs4">
    <clipPath
       id="clipPath5002"
       clipPathUnits="userSpaceOnUse">
      <g
         id="g5004">
        <path
           style="fill:#0f9d58;fill-opacity:1;stroke:none;stroke-width:4.85768509;stroke-linejoin:round;stroke-miterlimit:4;stroke-dasharray:none;stroke-opacity:1"
           d="M 88.118406,249.43519 C 46.103287,235.29134 14.771284,201.68742 4.1335861,159.36053 1.3377997,148.23623 0.92261224,144.16281 0.92582381,127.88908 0.92787958,117.47222 1.134384,112.01362 1.6577819,108.54099 4.4653598,89.913336 12.17654,70.638106 23.042737,55.086148 c 3.958678,-5.665755 8.344812,-10.93092 9.101533,-10.925587 0.32809,0.0023 10.488643,18.309713 22.579009,40.683112 12.090365,22.373397 22.374546,41.334697 22.853732,42.136217 0.479186,0.80151 0.924733,2.44098 0.990103,3.64326 0.343424,6.31639 2.524175,14.20976 5.6424,20.42304 2.954444,5.88693 5.065381,8.73258 10.434696,14.06652 6.71418,6.66995 12.88853,10.28643 21.73204,12.72904 3.16587,0.87442 5.10478,1.05037 11.57517,1.05037 8.82596,0 12.60219,-0.76201 19.26429,-3.88733 2.04584,-0.95974 3.93661,-1.66536 4.20172,-1.56805 0.2651,0.0973 -11.0555,17.66459 -25.1569,39.0384 l -25.6389,38.86148 -3.094121,0.11221 c -2.554618,0.0927 -4.195204,-0.25845 -9.409103,-2.01364 z"
           id="path5006"
           inkscape:connector-curvature="0"
           transform="translate(0,796.36216)" />
        <path
           style="fill:#f4b400;fill-opacity:1;stroke:none;stroke-width:4.85768509;stroke-linejoin:round;stroke-miterlimit:4;stroke-dasharray:none;stroke-opacity:1"
           d="m 112.35984,1051.5167 c -10.0014,-1.4495 -12.15632,-1.8201 -12.531784,-2.1556 -0.248854,-0.2223 1.738304,-3.7475 4.550294,-8.0722 7.16635,-11.0213 49.77231,-74.64801 50.25856,-75.05489 3.57509,-2.99158 8.63523,-8.0414 10.57512,-10.55356 3.36154,-4.35318 7.55784,-12.9141 9.06523,-18.494 6.19314,-22.92535 -2.59253,-47.15185 -21.69967,-59.83688 l -2.96081,-1.96565 17.02469,0.29584 c 9.36358,0.1627 31.17032,0.43384 48.45941,0.60252 l 31.43471,0.30668 1.54584,4.18869 c 2.24597,6.08579 4.67816,15.0947 5.93451,21.9816 1.52517,8.36049 1.92536,28.85896 0.73851,37.82758 -3.0805,23.27845 -12.81326,45.72018 -27.80202,64.10577 -20.47622,25.1166 -51.4599,42.1974 -84.14612,46.3885 -5.31244,0.6812 -26.64601,0.9864 -30.44647,0.4356 z"
           id="path5008"
           inkscape:connector-curvature="0" />
        <path
           style="fill:#db4437;fill-opacity:1;stroke:none;stroke-width:10;stroke-linejoin:round;stroke-miterlimit:4;stroke-dasharray:none;stroke-opacity:1"
           d="M 67.989788,108.87302 C 41.284246,59.575543 33.290284,45.149038 32.233625,44.344765 31.651257,43.901497 32.811213,42.549931 38.695603,36.815353 53.43581,22.450419 68.809334,13.040746 87.839196,6.7360352 101.68742,2.1480329 112.58238,0.43719165 127.95142,0.43719165 c 21.3099,0 37.80488,3.80960275 56.83492,13.12633035 25.29351,12.383198 46.19421,33.578863 58.51993,59.345832 1.61138,3.368591 2.92978,6.372442 2.92978,6.675231 0,0.560033 -10.54865,0.49527 -71.16508,-0.436914 l -24.28843,-0.373518 -3.93063,-1.764495 c -6.75732,-3.033425 -10.64587,-3.839529 -18.6576,-3.867747 -5.0296,-0.01773 -7.97946,0.207636 -10.31642,0.788106 -14.50826,3.603659 -26.283291,12.94777 -33.291614,26.418653 -3.58502,6.89086 -5.24713,13.08166 -6.331628,23.58317 l -0.33738,3.26696 -9.92748,-18.32578 z"
           id="path5010"
           inkscape:connector-curvature="0"
           transform="translate(0,796.36216)" />
      </g>
    </clipPath>
    <clipPath
       clipPathUnits="userSpaceOnUse"
       id="clipPath4253">
      <circle
         style="fill:#bababa;fill-opacity:1;stroke:none;stroke-width:0.1;stroke-linecap:round;stroke-linejoin:round;stroke-miterlimit:4;stroke-dasharray:none;stroke-opacity:1"
         id="circle4255"
         cx="128"
         cy="924.36218"
         r="128" />
    </clipPath>
    <clipPath
       id="clipPath4350"
       clipPathUnits="userSpaceOnUse">
      <circle
         style="fill:#7e7e7e;fill-opacity:1;stroke:none;stroke-width:0.1;stroke-linecap:round;stroke-linejoin:round;stroke-miterlimit:4;stroke-dasharray:none;stroke-opacity:1"
         id="circle4352"
         cx="128"
         cy="924.36218"
         r="128" />
    </clipPath>
    <clipPath
       clipPathUnits="userSpaceOnUse"
       id="clipPath4303">
      <circle
         style="fill:#a8c6d4;fill-opacity:1;stroke:none;stroke-width:0.1;stroke-linecap:round;stroke-linejoin:round;stroke-miterlimit:4;stroke-dasharray:none;stroke-opacity:1"
         id="circle4305"
         cx="128"
         cy="924.36218"
         r="128" />
    </clipPath>
    <clipPath
       id="clipPath4476"
       clipPathUnits="userSpaceOnUse">
      <circle
         style="fill:#58b8f8;fill-opacity:1;stroke:none;stroke-width:0.1;stroke-linecap:round;stroke-linejoin:round;stroke-miterlimit:4;stroke-dasharray:none;stroke-opacity:1"
         id="circle4478"
         cx="16.908138"
         cy="918.48175"
         r="125.57204" />
    </clipPath>
    <clipPath
       clipPathUnits="userSpaceOnUse"
       id="clipPath4586">
      <circle
         style="fill:#55b5f4;fill-opacity:1;stroke:none;stroke-width:0.1;stroke-linecap:round;stroke-linejoin:round;stroke-miterlimit:4;stroke-dasharray:none;stroke-opacity:1"
         id="circle4588"
         cx="128"
         cy="924.36218"
         r="128" />
    </clipPath>
  </defs>
  <metadata
     id="metadata7">
    <rdf:RDF>
      <cc:Work
         rdf:about="">
        <dc:format>image/svg+xml</dc:format>
        <dc:type
           rdf:resource="http://purl.org/dc/dcmitype/StillImage" />
        <dc:title />
      </cc:Work>
    </rdf:RDF>
  </metadata>
  <g
     inkscape:label="Layer 1"
     inkscape:groupmode="layer"
     id="layer1"
     transform="translate(0,-796.36216)">
    <circle
       r="128"
       cy="924.36218"
       cx="128"
       id="path4152"
       style="fill:#7ad153;fill-opacity:1;stroke:none;stroke-width:0.1;stroke-linecap:round;stroke-linejoin:round;stroke-miterlimit:4;stroke-dasharray:none;stroke-opacity:1" />
    <g
       id="g4321"
       clip-path="url(#clipPath4586)"
       style="fill:#27a244;fill-opacity:1">
      <g
         id="g4323"
         style="fill:#27a244;fill-opacity:1;stroke:none;stroke-width:30;stroke-miterlimit:4;stroke-dasharray:none;stroke-opacity:1">
        <path
           id="path4325"
           d="M110.01638 839.60464L111.86514 845.78435L-29.5562162373 987.205706237L-31.4049762373 981.025996237Z"
           style="fill:#27a244;fill-opacity:1" />
        <path
           id="path4327"
           d="M111.86514 845.78435C113.30523 850.59093 113.31366 852.96324 111.89954 856.06659L-29.5218162373 997.487946237C-28.1076962373 994.384596237 -28.1161262373 992.012286237 -29.5562162373 987.205706237Z"
           style="fill:#27a244;fill-opacity:1" />
        <path
           id="path4329"
           d="M111.89954 856.06659L110.06371 860.10021L-31.3576462373 1001.52156624L-29.5218162373 997.487946237Z"
           style="fill:#27a244;fill-opacity:1" />
        <path
           id="path4331"
           d="M110.06371 860.10021L104.57353 855.28228L-36.8478262373 996.703636237L-31.3576462373 1001.52156624Z"
           style="fill:#27a244;fill-opacity:1" />
        <path
           id="path4333"
           d="M104.57353 855.28228C98.124256 849.61966 94.445816 849.28651 87.275556 853.71797L-54.1458002373 995.139326237C-46.9755402373 990.707866237 -43.2971002373 991.041016237 -36.8478262373 996.703636237Z"
           style="fill:#27a244;fill-opacity:1" />
        <path
           id="path4335"
           d="M87.275556 853.71797C85.8948232485 854.571313337 84.8530368688 855.35800386 84.1481482338 856.062892495L-57.2732080035 997.484248733C-56.5683193685 996.779360098 -55.5265329888 995.992669574 -54.1458002373 995.139326237Z"
           style="fill:#27a244;fill-opacity:1" />
        <path
           id="path4337"
           d="M84.1481482338 856.062892495C81.8219549007 858.389085829 83.1647699185 859.82441 88.102966 859.82441L-53.3183902373 1001.24576624C-58.2565863188 1001.24576624 -59.5994013366 999.810442066 -57.2732080035 997.484248733Z"
           style="fill:#27a244;fill-opacity:1" />
        <path
           id="path4339"
           d="M88.102966 859.82441C90.484266 859.82441 92.874166 860.26466 93.412156 860.80266L-48.0092002373 1002.22401624C-48.5471902373 1001.68601624 -50.9370902373 1001.24576624 -53.3183902373 1001.24576624Z"
           style="fill:#27a244;fill-opacity:1" />
        <path
           id="path4341"
           d="M93.412156 860.80266C95.1194714731 862.509991223 91.5952739952 867.724136946 82.7186752416 876.6007357L-58.7026809957 1018.02209194C-49.8260822421 1009.14549318 -46.3018847642 1003.93134746 -48.0092002373 1002.22401624Z"
           style="fill:#27a244;fill-opacity:1" />
        <path
           id="path4343"
           d="M82.7186752416 876.6007357C80.323140776 878.996270165 77.5377897053 881.65854192 74.360246 884.59061L-67.0611102373 1026.01196624C-63.883566532 1023.07989816 -61.0982154614 1020.4176264 -58.7026809957 1018.02209194Z"
           style="fill:#27a244;fill-opacity:1" />
        <path
           id="path4345"
           d="M74.360246 884.59061C71.9874091173 886.780144365 69.7876923707 888.892032765 67.8305923588 890.849132776L-73.5907638786 1032.27048901C-71.6336638666 1030.313389 -69.43394712 1028.2015006 -67.0611102373 1026.01196624Z"
           style="fill:#27a244;fill-opacity:1" />
        <path
           id="path4347"
           d="M67.8305923588 890.849132776C62.2313401151 896.44838502 58.617976 900.780649554 58.617976 902.0394L-82.8033802373 1043.46075624C-82.8033802373 1042.20200579 -79.1900161222 1037.86974126 -73.5907638786 1032.27048901Z"
           style="fill:#27a244;fill-opacity:1" />
        <path
           id="path4349"
           d="M58.617976 902.0394C58.617976 903.548801021 57.0553917972 906.249064806 55.0714071178 908.233049485L-86.3499491195 1049.65440572C-84.3659644401 1047.67042104 -82.8033802373 1044.97015726 -82.8033802373 1043.46075624Z"
           style="fill:#27a244;fill-opacity:1" />
        <path
           id="path4351"
           d="M55.0714071178 908.233049485C54.9451454158 908.359311187 54.8171769962 908.482671881 54.687796 908.60264L-86.7335602373 1050.02399624C-86.6041792411 1049.90402812 -86.4762108215 1049.78066742 -86.3499491195 1049.65440572Z"
           style="fill:#27a244;fill-opacity:1" />
        <path
           id="path4353"
           d="M54.687796 908.60264C54.2970433627 908.964964759 53.9468112629 909.297974633 53.6350238969 909.609761999L-87.7863323404 1051.03111824C-87.4745449744 1050.71933087 -87.1243128746 1050.386321 -86.7335602373 1050.02399624Z"
           style="fill:#27a244;fill-opacity:1" />
        <path
           id="path4355"
           d="M53.6350238969 909.609761999C51.1316317187 912.113154178 51.1066749952 913.248384545 52.485676 917.20423L-88.9356802373 1058.62558624C-90.3146812422 1054.66974078 -90.2897245186 1053.53451041 -87.7863323404 1051.03111824Z"
           style="fill:#27a244;fill-opacity:1" />
        <path
           id="path4357"
           d="M52.485676 917.20423C53.978676 921.48701 53.737006 922.829 50.727456 927.05553L-90.6939002373 1068.47688624C-87.6843502373 1064.25035624 -87.4426802373 1062.90836624 -88.9356802373 1058.62558624Z"
           style="fill:#27a244;fill-opacity:1" />
        <path
           id="path4359"
           d="M50.727456 927.05553C47.601266 931.44584 47.414096 932.68766 48.900246 939.1822L-92.5211102373 1080.60355624C-94.0072602373 1074.10901624 -93.8200902373 1072.86719624 -90.6939002373 1068.47688624Z"
           style="fill:#27a244;fill-opacity:1" />
        <path
           id="path4361"
           d="M48.900246 939.1822C50.064356 944.26932 50.068106 950.38322 48.913446 959.76396L-92.5079102373 1101.18531624C-91.3532502373 1091.80457624 -91.3570002373 1085.69067624 -92.5211102373 1080.60355624Z"
           style="fill:#27a244;fill-opacity:1" />
        <path
           id="path4363"
           d="M48.913446 959.76396C47.085846 974.60749 48.464616 984.72217 56.808296 1009.1197L-84.6130602373 1150.54105624C-92.9567402373 1126.14352624 -94.3355102373 1116.02884624 -92.5079102373 1101.18531624Z"
           style="fill:#27a244;fill-opacity:1" />
        <path
           id="path4365"
           d="M56.808296 1009.1197L107.2758 1009.1197L-34.1455562373 1150.54105624L-84.6130602373 1150.54105624Z"
           style="fill:#27a244;fill-opacity:1" />
        <path
           id="path4367"
           d="M107.2758 1009.1197C102.64929 1001.9959 96.616526 988.67075 95.799836 982.83654L-45.6215202373 1124.25789624C-44.8048302373 1130.09210624 -38.7720662373 1143.41725624 -34.1455562373 1150.54105624Z"
           style="fill:#27a244;fill-opacity:1" />
        <path
           id="path4369"
           d="M95.799836 982.83654C95.6012570443 981.417956772 95.5652052941 980.557882401 96.051116914 980.071970781L-45.3702393233 1121.49332702C-45.8561509432 1121.97923864 -45.820099193 1122.83931301 -45.6215202373 1124.25789624Z"
           style="fill:#27a244;fill-opacity:1" />
        <path
           id="path4371"
           d="M96.051116914 980.071970781C96.7170308583 979.406056837 98.3632508359 979.442862707 101.91491 979.70791L-39.5064462373 1121.12926624C-43.0581054014 1120.86421894 -44.704325379 1120.82741307 -45.3702393233 1121.49332702Z"
           style="fill:#27a244;fill-opacity:1" />
        <path
           id="path4373"
           d="M101.91491 979.70791C105.822194587 979.999490797 107.525691776 979.939015573 108.709911377 978.754795972L-32.7114448606 1120.17615221C-33.8956644611 1121.36037181 -35.5991616505 1121.42084703 -39.5064462373 1121.12926624Z"
           style="fill:#27a244;fill-opacity:1" />
        <path
           id="path4375"
           d="M108.709911377 978.754795972C109.338528102 978.126179247 109.820823729 977.180915866 110.40876 975.80358L-31.0125962373 1117.22493624C-31.6005325087 1118.6022721 -32.0828281353 1119.54753548 -32.7114448606 1120.17615221Z"
           style="fill:#27a244;fill-opacity:1" />
        <path
           id="path4377"
           d="M110.40876 975.80358C111.917430025 972.269134356 113.365733522 969.745609868 114.930064675 968.181278715L-26.4912915619 1109.60263495C-28.055622715 1111.1669661 -29.5039262124 1113.69049059 -31.0125962373 1117.22493624Z"
           style="fill:#27a244;fill-opacity:1" />
        <path
           id="path4379"
           d="M114.930064675 968.181278715C118.236253555 964.875089835 122.060716468 965.853439809 128.06871 970.62799L-13.3526462373 1112.04934624C-19.3606397694 1107.27479605 -23.1851026826 1106.29644607 -26.4912915619 1109.60263495Z"
           style="fill:#27a244;fill-opacity:1" />
        <path
           id="path4381"
           d="M128.06871 970.62799C131.30897 973.20301 135.66514 975.3123 137.75195 975.3123L-3.66940623731 1116.73365624C-5.75621623731 1116.73365624 -10.1123862373 1114.62436624 -13.3526462373 1112.04934624Z"
           style="fill:#27a244;fill-opacity:1" />
        <path
           id="path4383"
           d="M137.75195 975.3123C139.063748357 975.3123 139.922111335 975.312060792 140.438739278 974.795432849L-0.982616959249 1116.21678909C-1.49924490205 1116.73341703 -2.35760788001 1116.73365624 -3.66940623731 1116.73365624Z"
           style="fill:#27a244;fill-opacity:1" />
        <path
           id="path4385"
           d="M140.438739278 974.795432849C141.415954836 973.818217292 141.170485726 970.993428253 140.45828 962.82795L-0.963076237309 1104.24930624C-0.250870511794 1112.41478449 -0.00540140168883 1115.23957353 -0.982616959249 1116.21678909Z"
           style="fill:#27a244;fill-opacity:1" />
        <path
           id="path4387"
           d="M140.45828 962.82795C139.815029609 955.453962075 139.891150363 951.264520637 140.676519168 950.479151833L-0.744837069788 1091.90050807C-1.53020587428 1092.68587687 -1.60632662866 1096.87531831 -0.963076237309 1104.24930624Z"
           style="fill:#27a244;fill-opacity:1" />
        <path
           id="path4389"
           d="M140.676519168 950.479151833C140.766782631 950.388888369 140.866414698 950.34359 140.9754 950.34359L-0.445956237309 1091.76494624C-0.554941539111 1091.76494624 -0.654573606067 1091.81024461 -0.744837069788 1091.90050807Z"
           style="fill:#27a244;fill-opacity:1" />
        <path
           id="path4391"
           d="M140.9754 950.34359C141.85845 950.34359 146.27082 954.38032 150.78361 959.31577L9.36225376269 1100.73712624C4.84946376269 1095.80167624 0.437093762691 1091.76494624 -0.445956237309 1091.76494624Z"
           style="fill:#27a244;fill-opacity:1" />
        <path
           id="path4393"
           d="M150.78361 959.31577C158.01817 967.22788 166.68211 982.15785 170.21044 992.79559L28.7890837627 1134.21694624C25.2607537627 1123.57920624 16.5968137627 1108.64923624 9.36225376269 1100.73712624Z"
           style="fill:#27a244;fill-opacity:1" />
        <path
           id="path4395"
           d="M170.21044 992.79559C170.526534593 993.748607031 170.80630321 994.130543061 171.076149936 993.860696335L29.6547936989 1135.28205257C29.384946973 1135.5518993 29.1051783556 1135.16996327 28.7890837627 1134.21694624Z"
           style="fill:#27a244;fill-opacity:1" />
        <path
           id="path4397"
           d="M171.076149936 993.860696335C171.566257859 993.370588411 172.023635963 990.730413423 172.60648 985.45666L31.1851237627 1126.87801624C30.6022797258 1132.15176966 30.1449016221 1134.79194465 29.6547936989 1135.28205257Z"
           style="fill:#27a244;fill-opacity:1" />
        <path
           id="path4399"
           d="M172.60648 985.45666C173.72034 975.37794 173.43891 973.59344 168.96933 962.43148L27.5479737627 1103.85283624C32.0175537627 1115.01479624 32.2989837627 1116.79929624 31.1851237627 1126.87801624Z"
           style="fill:#27a244;fill-opacity:1" />
        <path
           id="path4401"
           d="M168.96933 962.43148C165.28377 953.22749 164.55744 949.89876 165.9398 948.51639L24.5184437627 1089.93774624C23.1360837627 1091.32011624 23.8624137627 1094.64884624 27.5479737627 1103.85283624Z"
           style="fill:#27a244;fill-opacity:1" />
        <path
           id="path4403"
           d="M165.9398 948.51639C169.09688 945.35931 189.49133 946.39766 198.032 950.14967L56.6106437627 1091.57102624C48.0699737627 1087.81901624 27.6755237627 1086.78066624 24.5184437627 1089.93774624Z"
           style="fill:#27a244;fill-opacity:1" />
        <path
           id="path4405"
           d="M198.032 950.14967C202.18027 951.97204 206.23805 953.4636 207.04727 953.4636L65.6259137627 1094.88495624C64.8166937627 1094.88495624 60.7589137627 1093.39339624 56.6106437627 1091.57102624Z"
           style="fill:#27a244;fill-opacity:1" />
        <path
           id="path4407"
           d="M207.04727 953.4636C207.397375277 953.4636 207.648435969 953.383028995 207.804642701 953.226822263L66.3832864634 1094.6481785C66.2270797315 1094.80438523 65.9760190393 1094.88495624 65.6259137627 1094.88495624Z"
           style="fill:#27a244;fill-opacity:1" />
        <path
           id="path4409"
           d="M207.804642701 953.226822263C209.43600121 951.595463754 200.721780745 941.714630108 186.43538 929.20593L45.0140237627 1070.62728624C59.3004245074 1083.13598635 68.0146449724 1093.01681999 66.3832864634 1094.6481785Z"
           style="fill:#27a244;fill-opacity:1" />
        <path
           id="path4411"
           d="M186.43538 929.20593C176.84576 920.8096 168.61802 912.47592 168.15485 910.68408L26.7334937627 1052.10543624C27.1966637627 1053.89727624 35.4244037627 1062.23095624 45.0140237627 1070.62728624Z"
           style="fill:#27a244;fill-opacity:1" />
        <path
           id="path4413"
           d="M168.15485 910.68408C167.6917 908.89225 164.97937 902.93651 162.12599 897.44988L20.7046337627 1038.87123624C23.5580137627 1044.35786624 26.2703437627 1050.31360624 26.7334937627 1052.10543624Z"
           style="fill:#27a244;fill-opacity:1" />
        <path
           id="path4415"
           d="M162.12599 897.44988C159.2726 891.96324 156.93746 886.56875 156.93746 885.4611L15.5161037627 1026.88245624C15.5161037627 1027.99010624 17.8512437627 1033.38459624 20.7046337627 1038.87123624Z"
           style="fill:#27a244;fill-opacity:1" />
        <path
           id="path4417"
           d="M156.93746 885.4611C156.93746 884.819920403 157.008870031 884.347226169 157.442453482 883.913642717L16.0210972449 1025.33499895C15.5875137934 1025.76858241 15.5161037627 1026.24127664 15.5161037627 1026.88245624Z"
           style="fill:#27a244;fill-opacity:1" />
        <path
           id="path4419"
           d="M157.442453482 883.913642717C158.395617088 882.960479111 161.099054856 882.196326042 168.64181 880.24672L27.2204537627 1021.66807624C19.677698619 1023.61768228 16.9742608507 1024.38183535 16.0210972449 1025.33499895Z"
           style="fill:#27a244;fill-opacity:1" />
        <path
           id="path4421"
           d="M168.64181 880.24672C171.506913161 879.506160563 174.591554832 877.824940657 176.201334691 876.215160797L34.7799784539 1017.63651703C33.1701985944 1019.24629689 30.0855569235 1020.9275168 27.2204537627 1021.66807624Z"
           style="fill:#27a244;fill-opacity:1" />
        <path
           id="path4423"
           d="M176.201334691 876.215160797C176.52061409 875.895881399 176.781875837 875.579412286 176.9719 875.27365L35.5505437627 1016.69500624C35.3605195999 1017.00076852 35.0992578527 1017.31723764 34.7799784539 1017.63651703Z"
           style="fill:#27a244;fill-opacity:1" />
        <path
           id="path4425"
           d="M176.9719 875.27365C179.02424 871.97128 178.94004 871.93194 171.8006 873.00259L30.3792437627 1014.42394624C37.5186837627 1013.35329624 37.6028837627 1013.39263624 35.5505437627 1016.69500624Z"
           style="fill:#27a244;fill-opacity:1" />
        <path
           id="path4427"
           d="M171.8006 873.00259L164.53926 874.09286L23.1179037627 1015.51421624L30.3792437627 1014.42394624Z"
           style="fill:#27a244;fill-opacity:1" />
        <path
           id="path4429"
           d="M164.53926 874.09286L170.1027 866.00411L28.6813437627 1007.42546624L23.1179037627 1015.51421624Z"
           style="fill:#27a244;fill-opacity:1" />
        <path
           id="path4431"
           d="M170.1027 866.00411C173.16311 861.55507 175.64173 856.76564 175.61444 855.35987L34.1930837627 996.781226237C34.2203737627 998.186996237 31.7417537627 1002.97642624 28.6813437627 1007.42546624Z"
           style="fill:#27a244;fill-opacity:1" />
        <path
           id="path4433"
           d="M175.61444 855.35987C175.58558364 853.87486444 175.382128499 853.473557614 174.603858392 854.25182772L33.1825021552 995.673183958C33.9607722615 994.894913851 34.1642274031 995.296220677 34.1930837627 996.781226237Z"
           style="fill:#27a244;fill-opacity:1" />
        <path
           id="path4435"
           d="M174.603858392 854.25182772C174.268247337 854.587438776 173.82574559 855.14240006 173.24426 855.9244L31.8229037627 997.345756237C32.4043893527 996.563756297 32.8468910995 996.008795013 33.1825021552 995.673183958Z"
           style="fill:#27a244;fill-opacity:1" />
        <path
           id="path4437"
           d="M173.24426 855.9244C171.209749777 858.660451132 169.693578343 860.558304338 168.392598595 861.859284086L26.9712423579 1003.28064032C28.2722221057 1001.97966058 29.7883935396 1000.08180737 31.8229037627 997.345756237Z"
           style="fill:#27a244;fill-opacity:1" />
        <path
           id="path4439"
           d="M168.392598595 861.859284086C166.283615333 863.968267348 164.740129562 864.50874 162.47074 864.50874L21.0493837627 1005.93009624C23.3187733251 1005.93009624 24.8622590962 1005.38962358 26.9712423579 1003.28064032Z"
           style="fill:#27a244;fill-opacity:1" />
        <path
           id="path4441"
           d="M162.47074 864.50874L158.60951 864.50874L17.1881537627 1005.93009624L21.0493837627 1005.93009624Z"
           style="fill:#27a244;fill-opacity:1" />
        <path
           id="path4443"
           d="M158.60951 864.50874L161.6778 857.35513L20.2564437627 998.776486237L17.1881537627 1005.93009624Z"
           style="fill:#27a244;fill-opacity:1" />
        <path
           id="path4445"
           d="M161.6778 857.35513C163.36399 853.42146 164.74181 847.80381 164.74181 844.87075L23.3204537627 986.292106237C23.3204537627 989.225166237 21.9426337627 994.842816237 20.2564437627 998.776486237Z"
           style="fill:#27a244;fill-opacity:1" />
        <path
           id="path4447"
           d="M164.74181 844.87075L164.74181 839.60465L23.3204537627 981.026006237L23.3204537627 986.292106237Z"
           style="fill:#27a244;fill-opacity:1" />
        <path
           id="path4449"
           d="M164.74181 839.60465L158.89824 839.60465L17.4768837627 981.026006237L23.3204537627 981.026006237Z"
           style="fill:#27a244;fill-opacity:1" />
        <path
           id="path4451"
           d="M158.89824 839.60465L158.14409 846.27132L16.7227337627 987.692676237L17.4768837627 981.026006237Z"
           style="fill:#27a244;fill-opacity:1" />
        <path
           id="path4453"
           d="M158.14409 846.27132C157.72674 849.97398 156.40367 855.05648 155.20077 857.56628L13.7794137627 998.987636237C14.9823137627 996.477836237 16.3053837627 991.395336237 16.7227337627 987.692676237Z"
           style="fill:#27a244;fill-opacity:1" />
        <path
           id="path4455"
           d="M155.20077 857.56628C154.581800991 858.857705772 153.785468572 859.962331695 152.925201099 860.822599167L11.5038448618 1002.2439554C12.3641123345 1001.38368793 13.1604447538 1000.27906201 13.7794137627 998.987636237Z"
           style="fill:#27a244;fill-opacity:1" />
        <path
           id="path4457"
           d="M152.925201099 860.822599167C150.751004566 862.996795701 148.168423179 863.610153783 147.00858 861.73348L5.58722376269 1003.15483624C6.74706694204 1005.03151002 9.32964832829 1004.41815194 11.5038448618 1002.2439554Z"
           style="fill:#27a244;fill-opacity:1" />
        <path
           id="path4459"
           d="M147.00858 861.73348C146.53808 860.97222 145.67729 855.66676 145.0909 849.94293L3.66954376269 991.364286237C4.25593376269 997.088116237 5.11672376269 1002.39357624 5.58722376269 1003.15483624Z"
           style="fill:#27a244;fill-opacity:1" />
        <path
           id="path4461"
           d="M145.0909 849.94293L144.03078 839.60465L2.60942376269 981.026006237L3.66954376269 991.364286237Z"
           style="fill:#27a244;fill-opacity:1" />
        <path
           id="path4463"
           d="M144.03078 839.60465L138.54489 839.60465L-2.87646623731 981.026006237L2.60942376269 981.026006237Z"
           style="fill:#27a244;fill-opacity:1" />
        <path
           id="path4465"
           d="M138.54489 839.60465L137.49771 845.38789L-3.92364623731 986.809246237L-2.87646623731 981.026006237Z"
           style="fill:#27a244;fill-opacity:1" />
        <path
           id="path4467"
           d="M137.49771 845.38789C136.9142 848.60668 134.82039 852.89121 132.84353 854.90737L-8.57782623731 996.328726237C-6.60096623731 994.312566237 -4.50715623731 990.028036237 -3.92364623731 986.809246237Z"
           style="fill:#27a244;fill-opacity:1" />
        <path
           id="path4469"
           d="M132.84353 854.90737L129.2495 858.57468L-12.1718562373 999.996036237L-8.57782623731 996.328726237Z"
           style="fill:#27a244;fill-opacity:1" />
        <path
           id="path4471"
           d="M129.2495 858.57468L128.14196 851.19697L-13.2793962373 992.618326237L-12.1718562373 999.996036237Z"
           style="fill:#27a244;fill-opacity:1" />
        <path
           id="path4473"
           d="M128.14196 851.19697C127.53356 847.13983 126.66761 842.85526 126.21567 841.67749L-15.2056862373 983.098846237C-14.7537462373 984.276616237 -13.8877962373 988.561186237 -13.2793962373 992.618326237Z"
           style="fill:#27a244;fill-opacity:1" />
        <path
           id="path4475"
           d="M126.21567 841.67749C126.01561501 841.156167818 126.053547079 840.751879067 126.362353131 840.443073014L-15.0590031066 981.864429252C-15.3678091588 982.173235304 -15.4057412273 982.577524055 -15.2056862373 983.098846237Z"
           style="fill:#27a244;fill-opacity:1" />
        <path
           id="path4477"
           d="M126.362353131 840.443073014C126.858552964 839.946873182 128.054125883 839.697201379 130.08551 839.60465L-11.3358462373 981.026006237C-13.3672303546 981.118557616 -14.5628032737 981.368229419 -15.0590031066 981.864429252Z"
           style="fill:#27a244;fill-opacity:1" />
        <path
           id="path4479"
           d="M130.08551 839.60465L110.01659 839.60465L-31.4047662373 981.026006237L-11.3358462373 981.026006237Z"
           style="fill:#27a244;fill-opacity:1" />
      </g>
      <path
         style="fill:#27a244;fill-opacity:1;stroke:none;stroke-width:30;stroke-miterlimit:4;stroke-dasharray:none;stroke-opacity:1"
         d="m 110.01638,839.60464 1.84876,6.17971 c 1.44009,4.80658 1.44852,7.17889 0.0344,10.28224 l -1.83583,4.03362 -5.49018,-4.81793 c -6.449274,-5.66262 -10.127714,-5.99577 -17.297974,-1.56431 -5.93727,3.66945 -5.60717,6.10644 0.82741,6.10644 2.3813,0 4.7712,0.44025 5.30919,0.97825 2.16807,2.16809 -4.10005,9.99117 -19.05191,23.78795 -9.16151,8.45378 -15.74227,15.75007 -15.74227,17.44879 0,1.60546 -1.7678,4.55818 -3.93018,6.56324 -3.52817,3.27149 -3.75287,4.15306 -2.20212,8.60159 1.493,4.28278 1.25133,5.62477 -1.75822,9.8513 -3.12619,4.39031 -3.31336,5.63213 -1.82721,12.12667 1.16411,5.08712 1.16786,11.20102 0.0132,20.58176 -1.8276,14.84353 -0.44883,24.95821 7.89485,49.35574 l 50.467504,0 c -4.62651,-7.1238 -10.659274,-20.44895 -11.475964,-26.28316 -0.47072,-3.36267 -0.0282,-3.58708 6.115074,-3.12863 5.98138,0.44636 6.79833,0.0677 8.49385,-3.90433 4.69722,-11.00444 8.80926,-12.20923 17.65995,-5.17559 3.24026,2.57502 7.59643,4.68431 9.68324,4.68431 3.7931,0 3.79506,-0.002 2.70633,-12.48435 -0.71718,-8.22149 -0.54013,-12.48436 0.51712,-12.48436 0.88305,0 5.29542,4.03673 9.80821,8.97218 7.23456,7.91211 15.8985,22.84208 19.42683,33.47982 0.8902,2.68393 1.49229,0.83848 2.39604,-7.33893 1.11386,-10.07872 0.83243,-11.86322 -3.63715,-23.02518 -3.68556,-9.20399 -4.41189,-12.53272 -3.02953,-13.91509 3.15708,-3.15708 23.55153,-2.11873 32.0922,1.63328 4.14827,1.82237 8.20605,3.31393 9.01527,3.31393 4.00646,0 -4.95753,-10.55123 -20.61189,-24.25767 -9.58962,-8.39633 -17.81736,-16.73001 -18.28053,-18.52185 -0.46315,-1.79183 -3.17548,-7.74757 -6.02886,-13.2342 -2.85339,-5.48664 -5.18853,-10.88113 -5.18853,-11.98878 0,-2.05071 0.73048,-2.37792 11.70435,-5.21438 3.43336,-0.88744 7.18198,-3.12568 8.33009,-4.97307 2.05234,-3.30237 1.96814,-3.34171 -5.1713,-2.27106 l -7.26134,1.09027 5.56344,-8.08875 c 3.06041,-4.44904 5.53903,-9.23847 5.51174,-10.64424 -0.0413,-2.12538 -0.44025,-2.0309 -2.37018,0.56453 -5.3326,7.17139 -7.1042,8.58434 -10.77352,8.58434 l -3.86123,0 3.06829,-7.15361 c 1.68619,-3.93367 3.06401,-9.55132 3.06401,-12.48438 l 0,-5.2661 -5.84357,0 -0.75415,6.66667 c -0.41735,3.70266 -1.74042,8.78516 -2.94332,11.29496 -2.18332,4.55531 -6.57343,6.78642 -8.19219,4.1672 -0.4705,-0.76126 -1.33129,-6.06672 -1.91768,-11.79055 l -1.06012,-10.33828 -5.48589,0 -1.04718,5.78324 c -0.58351,3.21879 -2.67732,7.50332 -4.65418,9.51948 l -3.59403,3.66731 -1.10754,-7.37771 c -0.6084,-4.05714 -1.47435,-8.34171 -1.92629,-9.51948 -0.52151,-1.359 0.57424,-1.92269 3.86984,-2.07284 l -20.06892,0 z"
         id="path4296"
         inkscape:connector-curvature="0" />
    </g>
    <path
       inkscape:connector-curvature="0"
       id="path4292"
       d="m 110.01638,839.60464 1.84876,6.17971 c 1.44009,4.80658 1.44852,7.17889 0.0344,10.28224 l -1.83583,4.03362 -5.49018,-4.81793 c -6.449274,-5.66262 -10.127714,-5.99577 -17.297974,-1.56431 -5.93727,3.66945 -5.60717,6.10644 0.82741,6.10644 2.3813,0 4.7712,0.44025 5.30919,0.97825 2.16807,2.16809 -4.10005,9.99117 -19.05191,23.78795 -9.16151,8.45378 -15.74227,15.75007 -15.74227,17.44879 0,1.60546 -1.7678,4.55818 -3.93018,6.56324 -3.52817,3.27149 -3.75287,4.15306 -2.20212,8.60159 1.493,4.28278 1.25133,5.62477 -1.75822,9.8513 -3.12619,4.39031 -3.31336,5.63213 -1.82721,12.12667 1.16411,5.08712 1.16786,11.20102 0.0132,20.58176 -1.8276,14.84353 -0.44883,24.95821 7.89485,49.35574 l 50.467504,0 c -4.62651,-7.1238 -10.659274,-20.44895 -11.475964,-26.28316 -0.47072,-3.36267 -0.0282,-3.58708 6.115074,-3.12863 5.98138,0.44636 6.79833,0.0677 8.49385,-3.90433 4.69722,-11.00444 8.80926,-12.20923 17.65995,-5.17559 3.24026,2.57502 7.59643,4.68431 9.68324,4.68431 3.7931,0 3.79506,-0.002 2.70633,-12.48435 -0.71718,-8.22149 -0.54013,-12.48436 0.51712,-12.48436 0.88305,0 5.29542,4.03673 9.80821,8.97218 7.23456,7.91211 15.8985,22.84208 19.42683,33.47982 0.8902,2.68393 1.49229,0.83848 2.39604,-7.33893 1.11386,-10.07872 0.83243,-11.86322 -3.63715,-23.02518 -3.68556,-9.20399 -4.41189,-12.53272 -3.02953,-13.91509 3.15708,-3.15708 23.55153,-2.11873 32.0922,1.63328 4.14827,1.82237 8.20605,3.31393 9.01527,3.31393 4.00646,0 -4.95753,-10.55123 -20.61189,-24.25767 -9.58962,-8.39633 -17.81736,-16.73001 -18.28053,-18.52185 -0.46315,-1.79183 -3.17548,-7.74757 -6.02886,-13.2342 -2.85339,-5.48664 -5.18853,-10.88113 -5.18853,-11.98878 0,-2.05071 0.73048,-2.37792 11.70435,-5.21438 3.43336,-0.88744 7.18198,-3.12568 8.33009,-4.97307 2.05234,-3.30237 1.96814,-3.34171 -5.1713,-2.27106 l -7.26134,1.09027 5.56344,-8.08875 c 3.06041,-4.44904 5.53903,-9.23847 5.51174,-10.64424 -0.0413,-2.12538 -0.44025,-2.0309 -2.37018,0.56453 -5.3326,7.17139 -7.1042,8.58434 -10.77352,8.58434 l -3.86123,0 3.06829,-7.15361 c 1.68619,-3.93367 3.06401,-9.55132 3.06401,-12.48438 l 0,-5.2661 -5.84357,0 -0.75415,6.66667 c -0.41735,3.70266 -1.74042,8.78516 -2.94332,11.29496 -2.18332,4.55531 -6.57343,6.78642 -8.19219,4.1672 -0.4705,-0.76126 -1.33129,-6.06672 -1.91768,-11.79055 l -1.06012,-10.33828 -5.48589,0 -1.04718,5.78324 c -0.58351,3.21879 -2.67732,7.50332 -4.65418,9.51948 l -3.59403,3.66731 -1.10754,-7.37771 c -0.6084,-4.05714 -1.47435,-8.34171 -1.92629,-9.51948 -0.52151,-1.359 0.57424,-1.92269 3.86984,-2.07284 l -20.06892,0 z"
       style="fill:#ffffff;fill-opacity:1;stroke:none;stroke-width:30;stroke-miterlimit:4;stroke-dasharray:none;stroke-opacity:1" />
    <path
       id="path4290"
       d="m -5.9930723,855.55345 3.8339842,0 0.00586,-0.0312 -2.9824214,0 c -0.3444833,0 -0.5856819,0.0189 -0.8574218,0.0312 z"
       style="fill:#3793cf;fill-opacity:1;stroke:none;stroke-width:30;stroke-miterlimit:4;stroke-dasharray:none;stroke-opacity:1" />
    <path
       id="path4288"
       d="m 0.32723986,855.55345 6.73828104,0 0.00391,-0.0312 -3.373047,0 -3.37304704,0 0.003906,0.0312 z"
       style="fill:#3793cf;fill-opacity:1;stroke:none;stroke-width:30;stroke-miterlimit:4;stroke-dasharray:none;stroke-opacity:1" />
  </g>
</svg>
