<?xml version="1.0" encoding="UTF-8" standalone="no"?>
<!-- Created with Inkscape (http://www.inkscape.org/) -->

<svg
   xmlns:dc="http://purl.org/dc/elements/1.1/"
   xmlns:cc="http://creativecommons.org/ns#"
   xmlns:rdf="http://www.w3.org/1999/02/22-rdf-syntax-ns#"
   xmlns:svg="http://www.w3.org/2000/svg"
   xmlns="http://www.w3.org/2000/svg"
   xmlns:sodipodi="http://sodipodi.sourceforge.net/DTD/sodipodi-0.dtd"
   xmlns:inkscape="http://www.inkscape.org/namespaces/inkscape"
   width="256"
   height="256"
   viewBox="0 0 256 256"
   id="svg2"
   version="1.1"
   inkscape:version="0.92pre3 r"
   sodipodi:docname="darktable.svg">
  <sodipodi:namedview
     id="base"
     pagecolor="#ffffff"
     bordercolor="#666666"
     borderopacity="1.0"
     inkscape:pageopacity="0.0"
     inkscape:pageshadow="2"
     inkscape:zoom="3.3359375"
     inkscape:cx="128"
     inkscape:cy="128"
     inkscape:document-units="px"
     inkscape:current-layer="layer1"
     showgrid="true"
     units="px"
     inkscape:window-width="1920"
     inkscape:window-height="1054"
     inkscape:window-x="0"
     inkscape:window-y="0"
     inkscape:window-maximized="1">
    <inkscape:grid
       spacingy="5"
       spacingx="5"
       id="grid4168"
       type="xygrid" />
  </sodipodi:namedview>
  <defs
     id="defs4">
    <clipPath
       id="clipPath5002"
       clipPathUnits="userSpaceOnUse">
      <g
         id="g5004">
        <path
           style="fill:#0f9d58;fill-opacity:1;stroke:none;stroke-width:4.85768509;stroke-linejoin:round;stroke-miterlimit:4;stroke-dasharray:none;stroke-opacity:1"
           d="M 88.118406,249.43519 C 46.103287,235.29134 14.771284,201.68742 4.1335861,159.36053 1.3377997,148.23623 0.92261224,144.16281 0.92582381,127.88908 0.92787958,117.47222 1.134384,112.01362 1.6577819,108.54099 4.4653598,89.913336 12.17654,70.638106 23.042737,55.086148 c 3.958678,-5.665755 8.344812,-10.93092 9.101533,-10.925587 0.32809,0.0023 10.488643,18.309713 22.579009,40.683112 12.090365,22.373397 22.374546,41.334697 22.853732,42.136217 0.479186,0.80151 0.924733,2.44098 0.990103,3.64326 0.343424,6.31639 2.524175,14.20976 5.6424,20.42304 2.954444,5.88693 5.065381,8.73258 10.434696,14.06652 6.71418,6.66995 12.88853,10.28643 21.73204,12.72904 3.16587,0.87442 5.10478,1.05037 11.57517,1.05037 8.82596,0 12.60219,-0.76201 19.26429,-3.88733 2.04584,-0.95974 3.93661,-1.66536 4.20172,-1.56805 0.2651,0.0973 -11.0555,17.66459 -25.1569,39.0384 l -25.6389,38.86148 -3.094121,0.11221 c -2.554618,0.0927 -4.195204,-0.25845 -9.409103,-2.01364 z"
           id="path5006"
           inkscape:connector-curvature="0"
           transform="translate(0,796.36216)" />
        <path
           style="fill:#f4b400;fill-opacity:1;stroke:none;stroke-width:4.85768509;stroke-linejoin:round;stroke-miterlimit:4;stroke-dasharray:none;stroke-opacity:1"
           d="m 112.35984,1051.5167 c -10.0014,-1.4495 -12.15632,-1.8201 -12.531784,-2.1556 -0.248854,-0.2223 1.738304,-3.7475 4.550294,-8.0722 7.16635,-11.0213 49.77231,-74.64801 50.25856,-75.05489 3.57509,-2.99158 8.63523,-8.0414 10.57512,-10.55356 3.36154,-4.35318 7.55784,-12.9141 9.06523,-18.494 6.19314,-22.92535 -2.59253,-47.15185 -21.69967,-59.83688 l -2.96081,-1.96565 17.02469,0.29584 c 9.36358,0.1627 31.17032,0.43384 48.45941,0.60252 l 31.43471,0.30668 1.54584,4.18869 c 2.24597,6.08579 4.67816,15.0947 5.93451,21.9816 1.52517,8.36049 1.92536,28.85896 0.73851,37.82758 -3.0805,23.27845 -12.81326,45.72018 -27.80202,64.10577 -20.47622,25.1166 -51.4599,42.1974 -84.14612,46.3885 -5.31244,0.6812 -26.64601,0.9864 -30.44647,0.4356 z"
           id="path5008"
           inkscape:connector-curvature="0" />
        <path
           style="fill:#db4437;fill-opacity:1;stroke:none;stroke-width:10;stroke-linejoin:round;stroke-miterlimit:4;stroke-dasharray:none;stroke-opacity:1"
           d="M 67.989788,108.87302 C 41.284246,59.575543 33.290284,45.149038 32.233625,44.344765 31.651257,43.901497 32.811213,42.549931 38.695603,36.815353 53.43581,22.450419 68.809334,13.040746 87.839196,6.7360352 101.68742,2.1480329 112.58238,0.43719165 127.95142,0.43719165 c 21.3099,0 37.80488,3.80960275 56.83492,13.12633035 25.29351,12.383198 46.19421,33.578863 58.51993,59.345832 1.61138,3.368591 2.92978,6.372442 2.92978,6.675231 0,0.560033 -10.54865,0.49527 -71.16508,-0.436914 l -24.28843,-0.373518 -3.93063,-1.764495 c -6.75732,-3.033425 -10.64587,-3.839529 -18.6576,-3.867747 -5.0296,-0.01773 -7.97946,0.207636 -10.31642,0.788106 -14.50826,3.603659 -26.283291,12.94777 -33.291614,26.418653 -3.58502,6.89086 -5.24713,13.08166 -6.331628,23.58317 l -0.33738,3.26696 -9.92748,-18.32578 z"
           id="path5010"
           inkscape:connector-curvature="0"
           transform="translate(0,796.36216)" />
      </g>
    </clipPath>
    <clipPath
       clipPathUnits="userSpaceOnUse"
       id="clipPath4271">
      <circle
         style="fill:#292929;fill-opacity:0.26020412;stroke:none;stroke-width:10;stroke-linejoin:round;stroke-miterlimit:4;stroke-dasharray:none;stroke-opacity:0.25882353"
         id="circle4273"
         cx="128"
         cy="128.00002"
         r="128" />
    </clipPath>
    <clipPath
       id="clipPath4363"
       clipPathUnits="userSpaceOnUse">
      <circle
         style="fill:#4285f4;fill-opacity:1;stroke:none;stroke-width:10;stroke-linejoin:round;stroke-miterlimit:4;stroke-dasharray:none;stroke-opacity:0.25882353"
         id="circle4365"
         cx="128"
         cy="924.36218"
         r="128" />
    </clipPath>
    <clipPath
       clipPathUnits="userSpaceOnUse"
       id="clipPath4452">
      <circle
         style="fill:#4285f4;fill-opacity:1;stroke:none;stroke-width:10;stroke-linejoin:round;stroke-miterlimit:4;stroke-dasharray:none;stroke-opacity:0.25882353"
         id="circle4454"
         cx="128"
         cy="924.36218"
         r="128" />
    </clipPath>
    <clipPath
       id="clipPath4368"
       clipPathUnits="userSpaceOnUse">
      <circle
         style="fill:#b0ceff;fill-opacity:1;stroke:none;stroke-width:10;stroke-linejoin:round;stroke-miterlimit:4;stroke-dasharray:none;stroke-opacity:0.25882353"
         id="circle4370"
         cx="128"
         cy="924.36218"
         r="128" />
    </clipPath>
    <clipPath
       id="clipPath-284952804">
      <g
         id="g5628"
         transform="translate(0,-1004.3622)">
        <path
           id="path5630"
           transform="matrix(15.333333,0,0,11.5,414.99999,878.8622)"
           d="m -24,13 c 0,1.105 -0.672,2 -1.5,2 -0.828,0 -1.5,-0.895 -1.5,-2 0,-1.105 0.672,-2 1.5,-2 0.828,0 1.5,0.895 1.5,2 z"
           inkscape:connector-curvature="0"
           style="fill:#1890d0" />
      </g>
    </clipPath>
    <clipPath
       clipPathUnits="userSpaceOnUse"
       id="clipPath4286">
      <circle
         style="fill:#00c3ff;fill-opacity:1;stroke:none;stroke-width:10;stroke-linejoin:round;stroke-miterlimit:4;stroke-dasharray:none;stroke-opacity:0.25882353"
         id="circle4288"
         cx="128"
         cy="128.00002"
         r="128" />
    </clipPath>
    <clipPath
       id="clipPath4263"
       clipPathUnits="userSpaceOnUse">
      <circle
         transform="matrix(0.98480775,-0.17364818,0.17364818,0.98480775,0,0)"
         style="fill:#00c3ff;fill-opacity:1;stroke:none;stroke-width:10;stroke-linejoin:round;stroke-miterlimit:4;stroke-dasharray:none;stroke-opacity:0.25882353"
         id="circle4265"
         cx="-34.452808"
         cy="932.54675"
         r="128" />
    </clipPath>
    <clipPath
       id="clipPath4608"
       clipPathUnits="userSpaceOnUse">
      <circle
         style="fill:#00c3ff;fill-opacity:1;stroke:none;stroke-width:10;stroke-linejoin:round;stroke-miterlimit:4;stroke-dasharray:none;stroke-opacity:0.25882353"
         id="circle4610"
         cx="154.80824"
         cy="944.67395"
         r="67.351463" />
    </clipPath>
    <clipPath
       clipPathUnits="userSpaceOnUse"
       id="clipPath5376">
      <circle
         style="fill:#fdac64;fill-opacity:1;stroke:none;stroke-width:10;stroke-linejoin:round;stroke-miterlimit:4;stroke-dasharray:none;stroke-opacity:0.25882353"
         id="circle5378"
         cx="128"
         cy="924.36218"
         r="128" />
    </clipPath>
    <clipPath
       id="clipPath4615"
       clipPathUnits="userSpaceOnUse">
      <circle
         style="fill:#ff973b;fill-opacity:1;stroke:none;stroke-width:10;stroke-linejoin:round;stroke-miterlimit:4;stroke-dasharray:none;stroke-opacity:0.25882353"
         id="circle4617"
         cx="128"
         cy="924.36218"
         r="128" />
    </clipPath>
    <clipPath
       id="clipPath4637"
       clipPathUnits="userSpaceOnUse">
      <circle
         style="fill:#ff973b;fill-opacity:1;stroke:none;stroke-width:10;stroke-linejoin:round;stroke-miterlimit:4;stroke-dasharray:none;stroke-opacity:0.25882353"
         id="circle4639"
         cx="128"
         cy="924.36218"
         r="128" />
    </clipPath>
    <clipPath
       id="clipPath4643"
       clipPathUnits="userSpaceOnUse">
      <circle
         style="fill:#ff973b;fill-opacity:1;stroke:none;stroke-width:10;stroke-linejoin:round;stroke-miterlimit:4;stroke-dasharray:none;stroke-opacity:0.25882353"
         id="circle4645"
         cx="128"
         cy="924.36218"
         r="128" />
    </clipPath>
    <clipPath
       id="clipPath4647"
       clipPathUnits="userSpaceOnUse">
      <circle
         style="fill:#ff973b;fill-opacity:1;stroke:none;stroke-width:10;stroke-linejoin:round;stroke-miterlimit:4;stroke-dasharray:none;stroke-opacity:0.25882353"
         id="circle4649"
         cx="128"
         cy="924.36218"
         r="128" />
    </clipPath>
    <clipPath
       id="clipPath4651"
       clipPathUnits="userSpaceOnUse">
      <circle
         style="fill:#ff973b;fill-opacity:1;stroke:none;stroke-width:10;stroke-linejoin:round;stroke-miterlimit:4;stroke-dasharray:none;stroke-opacity:0.25882353"
         id="circle4653"
         cx="128"
         cy="924.36218"
         r="128" />
    </clipPath>
    <clipPath
       id="clipPath4715"
       clipPathUnits="userSpaceOnUse">
      <g
         id="g4729">
        <path
           inkscape:connector-curvature="0"
           id="path4717"
           transform="translate(0,796.36216)"
           d="M 128,0 A 128,128 0 0 0 64.773438,16.888672 L 128.34766,127 191.77148,17.144531 A 128,128 0 0 0 128,0 Z"
           style="fill:#d6061c;fill-opacity:1;stroke:none;stroke-width:10;stroke-linejoin:round;stroke-miterlimit:4;stroke-dasharray:none;stroke-opacity:0.25882353" />
        <path
           inkscape:connector-curvature="0"
           id="path4719"
           transform="translate(0,796.36216)"
           d="M 63.904297,17.386719 A 128,128 0 0 0 0.0390625,127.19922 H 127.30469 Z"
           style="fill:#c916c9;fill-opacity:1;stroke:none;stroke-width:10;stroke-linejoin:round;stroke-miterlimit:4;stroke-dasharray:none;stroke-opacity:0.25882353" />
        <path
           inkscape:connector-curvature="0"
           id="path4721"
           transform="translate(0,796.36216)"
           d="M 192.62305,17.666016 129.03711,127.79883 H 255.99219 A 128,128 0 0 0 192.62305,17.666016 Z"
           style="fill:#f97411;fill-opacity:1;stroke:none;stroke-width:10;stroke-linejoin:round;stroke-miterlimit:4;stroke-dasharray:none;stroke-opacity:0.25882353" />
        <path
           inkscape:connector-curvature="0"
           id="path4723"
           transform="translate(0,796.36216)"
           d="M 0.0078125,128.19922 A 128,128 0 0 0 63.375,238.33203 l 63.58398,-110.13281 z"
           style="fill:#1d7be6;fill-opacity:1;stroke:none;stroke-width:10;stroke-linejoin:round;stroke-miterlimit:4;stroke-dasharray:none;stroke-opacity:0.25882353" />
        <path
           inkscape:connector-curvature="0"
           id="path4725"
           transform="translate(0,796.36216)"
           d="m 128.69141,128.79883 63.40039,109.8164 a 128,128 0 0 0 63.86914,-109.8164 z"
           style="fill:#f0e32a;fill-opacity:1;stroke:none;stroke-width:10;stroke-linejoin:round;stroke-miterlimit:4;stroke-dasharray:none;stroke-opacity:0.25882353" />
        <path
           inkscape:connector-curvature="0"
           id="path4727"
           transform="translate(0,796.36216)"
           d="M 127.65234,129 64.228516,238.85547 A 128,128 0 0 0 128,256 128,128 0 0 0 191.22461,239.11133 Z"
           style="fill:#25aa23;fill-opacity:1;stroke:none;stroke-width:10;stroke-linejoin:round;stroke-miterlimit:4;stroke-dasharray:none;stroke-opacity:0.25882353" />
      </g>
    </clipPath>
    <clipPath
       clipPathUnits="userSpaceOnUse"
       id="clipPath3982">
      <g
         id="g3996"
         transform="translate(-1.25e-6)">
        <path
           id="path3984"
           transform="translate(0,796.36216)"
           d="M 128,0 A 128,128 0 0 0 64.773438,16.888672 L 128.34766,127 191.77148,17.144531 A 128,128 0 0 0 128,0 Z"
           style="fill:#d6061c;fill-opacity:1;stroke:none;stroke-width:10;stroke-linejoin:round;stroke-miterlimit:4;stroke-dasharray:none;stroke-opacity:0.25882353"
           inkscape:connector-curvature="0" />
        <path
           id="path3986"
           transform="translate(0,796.36216)"
           d="M 63.904297,17.386719 A 128,128 0 0 0 0.0390625,127.19922 H 127.30469 Z"
           style="fill:#c916c9;fill-opacity:1;stroke:none;stroke-width:10;stroke-linejoin:round;stroke-miterlimit:4;stroke-dasharray:none;stroke-opacity:0.25882353"
           inkscape:connector-curvature="0" />
        <path
           id="path3988"
           transform="translate(0,796.36216)"
           d="M 192.62305,17.666016 129.03711,127.79883 H 255.99219 A 128,128 0 0 0 192.62305,17.666016 Z"
           style="fill:#f97411;fill-opacity:1;stroke:none;stroke-width:10;stroke-linejoin:round;stroke-miterlimit:4;stroke-dasharray:none;stroke-opacity:0.25882353"
           inkscape:connector-curvature="0" />
        <path
           id="path3990"
           transform="translate(0,796.36216)"
           d="M 0.0078125,128.19922 A 128,128 0 0 0 63.375,238.33203 l 63.58398,-110.13281 z"
           style="fill:#1d7be6;fill-opacity:1;stroke:none;stroke-width:10;stroke-linejoin:round;stroke-miterlimit:4;stroke-dasharray:none;stroke-opacity:0.25882353"
           inkscape:connector-curvature="0" />
        <path
           id="path3992"
           transform="translate(0,796.36216)"
           d="m 128.69141,128.79883 63.40039,109.8164 a 128,128 0 0 0 63.86914,-109.8164 z"
           style="fill:#f0e32a;fill-opacity:1;stroke:none;stroke-width:10;stroke-linejoin:round;stroke-miterlimit:4;stroke-dasharray:none;stroke-opacity:0.25882353"
           inkscape:connector-curvature="0" />
        <path
           id="path3994"
           transform="translate(0,796.36216)"
           d="M 127.65234,129 64.228516,238.85547 A 128,128 0 0 0 128,256 128,128 0 0 0 191.22461,239.11133 Z"
           style="fill:#25aa23;fill-opacity:1;stroke:none;stroke-width:10;stroke-linejoin:round;stroke-miterlimit:4;stroke-dasharray:none;stroke-opacity:0.25882353"
           inkscape:connector-curvature="0" />
      </g>
    </clipPath>
    <clipPath
       clipPathUnits="userSpaceOnUse"
       id="clipPath4827">
      <circle
         style="fill:#0f0f0f;fill-opacity:1;stroke:none;stroke-width:73.90083313;stroke-miterlimit:4;stroke-dasharray:none;stroke-opacity:1"
         id="circle4829"
         cx="136"
         cy="921.36218"
         r="128" />
    </clipPath>
    <clipPath
       clipPathUnits="userSpaceOnUse"
       id="clipPath5288">
      <circle
         style="fill:#7d7d7d;fill-opacity:0.56730772;stroke:none;stroke-width:7.31428528;stroke-opacity:1"
         id="circle5290"
         cx="128"
         cy="924.36218"
         r="128" />
    </clipPath>
  </defs>
  <metadata
     id="metadata7">
    <rdf:RDF>
      <cc:Work
         rdf:about="">
        <dc:format>image/svg+xml</dc:format>
        <dc:type
           rdf:resource="http://purl.org/dc/dcmitype/StillImage" />
        <dc:title />
      </cc:Work>
    </rdf:RDF>
  </metadata>
  <g
     inkscape:label="Layer 1"
     inkscape:groupmode="layer"
     id="layer1"
     transform="translate(0,-796.36216)">
    <path
       style="fill:none;fill-rule:evenodd;stroke:none;stroke-width:1px;stroke-linecap:butt;stroke-linejoin:miter;stroke-opacity:1"
       d="M 154.47438,968.80998 101.03985,1048.476 0.4857685,1048.9618 0,842.0244 l 33.032258,-2.42884 45.176471,83.55218 21.373814,35.4611 26.717267,13.11575 z"
       id="path4913"
       inkscape:connector-curvature="0" />
    <g
       id="g6809"
       transform="matrix(0,-2.3755979,-2.3755979,0,140.64305,-153.39807)">
      <g
         id="g4214">
        <g
           id="g4216"
           style="fill:#ffffff;fill-opacity:1;fill-rule:nonzero;stroke:none">
          <path
             id="path4218"
             d="m 0,0 c -0.021,-0.11 -0.035,-0.223 -0.057,-0.333 l -424.26407,424.26407 c 0.022,0.11 0.036,0.223 0.057,0.333 z"
             inkscape:connector-curvature="0" />
          <path
             id="path4220"
             d="m -0.057,-0.333 -0.106,0.635 -424.26407,424.26407 0.106,-0.635 z"
             inkscape:connector-curvature="0" />
          <path
             id="path4222"
             d="M -0.163,0.302 C -0.105,0.203 -0.057,0.101 0,0 l -424.26407,424.26407 c -0.057,0.101 -0.105,0.203 -0.163,0.302 z"
             inkscape:connector-curvature="0" />
          <path
             id="path4224"
             d="m 0,0 c 0.324,1.774 0.495,3.59 0.495,5.405 l -424.26407,424.26407 c 0,-1.815 -0.171,-3.631 -0.495,-5.405 z"
             inkscape:connector-curvature="0" />
          <path
             id="path4226"
             d="m 0.495,5.405 c 0,4.026 -0.788,7.931 -2.344,11.607 l -424.26407,424.26407 c 1.556,-3.676 2.344,-7.581 2.344,-11.607 z"
             inkscape:connector-curvature="0" />
          <path
             id="path4228"
             d="m -1.849,17.012 c -1.5012779,3.549293 -3.6489338,6.735935 -6.3860499,9.473051 L -432.49912,450.74912 c 2.73712,-2.73712 4.88477,-5.92376 6.38605,-9.47305 z"
             inkscape:connector-curvature="0" />
          <path
             id="path4230"
             d="m -8.2350499,26.485051 c -0.00132,0.0013 -0.00263,0.0026 -0.00395,0.0039 L -432.50307,450.75302 c 10e-4,-10e-4 0.003,-0.003 0.004,-0.004 z"
             inkscape:connector-curvature="0" />
          <path
             id="path4232"
             d="m -8.239,26.489 c -0.00131,0.0013 -0.00263,0.0026 -0.00394,0.0039 l -424.26407,424.26411 c 10e-4,-10e-4 0.003,-0.003 0.004,-0.004 z"
             inkscape:connector-curvature="0" />
          <path
             id="path4234"
             d="M -8.2429418,26.492943 C -10.980062,29.230062 -14.168703,31.377721 -17.716,32.879 l -424.26407,424.26407 c 3.5473,-1.50128 6.73594,-3.64894 9.47306,-6.38606 z"
             inkscape:connector-curvature="0" />
          <path
             id="path4236"
             d="m -17.716,32.879 c -3.676,1.555 -7.581,2.343 -11.605,2.343 l -424.26407,424.26407 c 4.024,0 7.929,-0.788 11.605,-2.343 z"
             inkscape:connector-curvature="0" />
          <path
             id="path4238"
             d="m -29.321,35.222 c -1.898,0 -3.796,-0.179 -5.647,-0.534 l -424.26407,424.26407 c 1.851,0.355 3.749,0.534 5.647,0.534 z"
             inkscape:connector-curvature="0" />
          <path
             id="path4240"
             d="m -34.968,34.688 c -0.004,0 -0.009,0 -0.013,-0.001 l -424.26407,424.26407 c 0.004,10e-4 0.009,10e-4 0.013,10e-4 z"
             inkscape:connector-curvature="0" />
          <path
             id="path4242"
             d="m -34.981,34.687 c 0.103,-0.056 0.209,-0.105 0.31,-0.162 l -424.26407,424.26407 c -0.101,0.057 -0.207,0.106 -0.31,0.162 z"
             inkscape:connector-curvature="0" />
          <path
             id="path4244"
             d="m -34.671,34.525 -0.626,0.098 -424.26407,424.26407 0.626,-0.098 z"
             inkscape:connector-curvature="0" />
          <path
             id="path4246"
             d="m -35.297,34.623 c 0.105,0.021 0.21,0.041 0.316,0.064 l -424.26407,424.26407 c -0.106,-0.023 -0.211,-0.043 -0.316,-0.064 z"
             inkscape:connector-curvature="0" />
          <path
             id="path4248"
             d="m -34.981,34.687 c -2.538,1.348 -5.39,2.069 -8.278,2.069 l -424.26407,424.26407 c 2.888,0 5.74,-0.721 8.278,-2.069 z"
             inkscape:connector-curvature="0" />
          <path
             id="path4250"
             d="m -43.259,36.756 c -4.714,0 -9.148,-1.836 -12.482,-5.171 l -424.26407,424.26407 c 3.334,3.335 7.768,5.171 12.482,5.171 z"
             inkscape:connector-curvature="0" />
          <path
             id="path4252"
             d="m -55.741,31.585 c -3.333,-3.334 -5.168,-7.767 -5.168,-12.482 l -424.26407,424.26407 c 0,4.715 1.835,9.148 5.168,12.482 z"
             inkscape:connector-curvature="0" />
          <path
             id="path4254"
             d="m -60.909,19.103 c 0,-3.001 0.769,-5.952 2.22,-8.559 l -424.26407,424.26407 c -1.451,2.607 -2.22,5.558 -2.22,8.559 z"
             inkscape:connector-curvature="0" />
          <path
             id="path4256"
             d="m -58.689,10.544 c 0.018,0.109 0.031,0.218 0.051,0.325 l -424.26407,424.26407 c -0.02,-0.107 -0.033,-0.216 -0.051,-0.325 z"
             inkscape:connector-curvature="0" />
          <path
             id="path4258"
             d="m -58.638,10.869 0.109,-0.624 -424.26407,424.26407 -0.109,0.624 z"
             inkscape:connector-curvature="0" />
          <path
             id="path4260"
             d="m -58.529,10.245 c -0.057,0.098 -0.106,0.2 -0.16,0.299 l -424.26407,424.26407 c 0.054,-0.099 0.103,-0.201 0.16,-0.299 z"
             inkscape:connector-curvature="0" />
          <path
             id="path4262"
             d="M -58.689,10.544 C -58.984,8.855 -59.14,7.129 -59.14,5.405 l -424.26407,424.26407 c 0,1.724 0.156,3.45 0.451,5.139 z"
             inkscape:connector-curvature="0" />
          <path
             id="path4264"
             d="m -59.14,5.405 c 0,-4.024 0.79,-7.929 2.346,-11.606 l -424.26407,424.26407 c -1.556,3.677 -2.346,7.582 -2.346,11.606 z"
             inkscape:connector-curvature="0" />
          <path
             id="path4266"
             d="m -56.794,-6.201 c 1.5,-3.553 3.651,-6.74 6.388,-9.477 l -424.26407,424.26407 c -2.737,2.737 -4.888,5.924 -6.388,9.477 z"
             inkscape:connector-curvature="0" />
          <path
             id="path4268"
             d="m -50.406,-15.678 c 2.738,-2.738 5.926,-4.89 9.478,-6.388 l -424.26407,424.26407 c -3.552,1.498 -6.74,3.65 -9.478,6.388 z"
             inkscape:connector-curvature="0" />
          <path
             id="path4270"
             d="m -40.928,-22.066 c 3.676,-1.559 7.582,-2.347 11.607,-2.347 l -424.26407,424.26407 c -4.025,0 -7.931,0.788 -11.607,2.347 z"
             inkscape:connector-curvature="0" />
          <path
             id="path4272"
             d="m -29.321,-24.413 c 1.752,0 3.508,0.159 5.222,0.464 l -424.26407,424.26407 c -1.714,-0.305 -3.47,-0.464 -5.222,-0.464 z"
             inkscape:connector-curvature="0" />
          <path
             id="path4274"
             d="m -24.099,-23.949 c -0.1,0.056 -0.203,0.106 -0.304,0.165 l -424.26407,424.26407 c 0.101,-0.059 0.204,-0.109 0.304,-0.165 z"
             inkscape:connector-curvature="0" />
          <path
             id="path4276"
             d="m -24.403,-23.784 0.636,-0.112 -424.26407,424.26407 -0.636,0.112 z"
             inkscape:connector-curvature="0" />
          <path
             id="path4278"
             d="m -23.767,-23.896 c -0.11,-0.02 -0.22,-0.034 -0.332,-0.053 l -424.26407,424.26407 c 0.112,0.019 0.222,0.033 0.332,0.053 z"
             inkscape:connector-curvature="0" />
          <path
             id="path4280"
             d="M -24.099,-23.949 C -7.8965258,-32.19327 8.2242739,-15.099464 0,0 l -424.26407,424.26407 c 8.22428,-15.09947 -7.89652,-32.19327 -24.099,-23.949 z"
             inkscape:connector-curvature="0" />
        </g>
        <path
           sodipodi:nodetypes="ccccscccscccccsssccccscscsccccc"
           d="M 0,0 C -0.021,-0.11 -0.035,-0.223 -0.057,-0.333 L -0.163,0.302 C -0.105,0.203 -0.057,0.101 0,0 c 0.324,1.774 0.495,3.59 0.495,5.405 0,4.026 -0.788,7.931 -2.344,11.607 -1.502,3.551 -3.651,6.739 -6.39,9.477 -2.738,2.739 -5.928,4.888 -9.477,6.39 -3.676,1.555 -7.581,2.343 -11.605,2.343 -1.898,0 -3.796,-0.179 -5.647,-0.534 -0.004,0 -0.009,0 -0.013,-0.001 0.103,-0.056 0.209,-0.105 0.31,-0.162 l -0.626,0.098 c 0.105,0.021 0.21,0.041 0.316,0.064 -2.538,1.348 -5.39,2.069 -8.278,2.069 -4.714,0 -9.148,-1.836 -12.482,-5.171 -3.333,-3.334 -5.168,-7.767 -5.168,-12.482 0,-3.001 0.769,-5.952 2.22,-8.559 0.018,0.109 0.031,0.218 0.051,0.325 l 0.109,-0.624 c -0.057,0.098 -0.106,0.2 -0.16,0.299 -0.295,-1.689 -0.451,-3.415 -0.451,-5.139 0,-4.024 0.79,-7.929 2.346,-11.606 1.5,-3.553 3.651,-6.74 6.388,-9.477 2.738,-2.738 5.926,-4.89 9.478,-6.388 3.676,-1.559 7.582,-2.347 11.607,-2.347 1.752,0 3.508,0.159 5.222,0.464 -0.1,0.056 -0.203,0.106 -0.304,0.165 l 0.636,-0.112 c -0.11,-0.02 -0.22,-0.034 -0.332,-0.053 C -7.8965258,-32.19327 8.2242739,-15.099464 0,0"
           style="fill:#ffffff;fill-opacity:1;fill-rule:nonzero;stroke:none"
           id="path6811"
           inkscape:connector-curvature="0" />
      </g>
    </g>
    <path
       id="path4662"
       transform="translate(0,796.36216)"
       d="m 128,127.61133 -0.33789,0.19336 v 0.39062 l 0.33594,0.19336 0.33789,-0.19531 v -0.38867 z"
       style="fill:#ababab;fill-opacity:1;stroke:none;stroke-width:10;stroke-linejoin:round;stroke-miterlimit:4;stroke-dasharray:none;stroke-opacity:0.25882353" />
    <circle
       r="128"
       cy="924.36218"
       cx="128"
       id="path4731"
       style="fill:#0f0f0f;fill-opacity:1;stroke:none;stroke-width:73.90083313;stroke-miterlimit:4;stroke-dasharray:none;stroke-opacity:1" />
    <g
       transform="translate(-1.25e-6)"
       id="g4683">
      <path
         inkscape:connector-curvature="0"
         style="fill:#d6061c;fill-opacity:1;stroke:none;stroke-width:10;stroke-linejoin:round;stroke-miterlimit:4;stroke-dasharray:none;stroke-opacity:0.25882353"
         d="M 128,0 A 128,128 0 0 0 64.773438,16.888672 L 128.34766,127 191.77148,17.144531 A 128,128 0 0 0 128,0 Z"
         transform="translate(0,796.36216)"
         id="path4668" />
      <path
         inkscape:connector-curvature="0"
         style="fill:#c916c9;fill-opacity:1;stroke:none;stroke-width:10;stroke-linejoin:round;stroke-miterlimit:4;stroke-dasharray:none;stroke-opacity:0.25882353"
         d="M 63.904297,17.386719 A 128,128 0 0 0 0.0390625,127.19922 H 127.30469 Z"
         transform="translate(0,796.36216)"
         id="path4666" />
      <path
         inkscape:connector-curvature="0"
         style="fill:#f97411;fill-opacity:1;stroke:none;stroke-width:10;stroke-linejoin:round;stroke-miterlimit:4;stroke-dasharray:none;stroke-opacity:0.25882353"
         d="M 192.62305,17.666016 129.03711,127.79883 H 255.99219 A 128,128 0 0 0 192.62305,17.666016 Z"
         transform="translate(0,796.36216)"
         id="path4664" />
      <path
         inkscape:connector-curvature="0"
         style="fill:#1d7be6;fill-opacity:1;stroke:none;stroke-width:10;stroke-linejoin:round;stroke-miterlimit:4;stroke-dasharray:none;stroke-opacity:0.25882353"
         d="M 0.0078125,128.19922 A 128,128 0 0 0 63.375,238.33203 l 63.58398,-110.13281 z"
         transform="translate(0,796.36216)"
         id="path4660" />
      <path
         inkscape:connector-curvature="0"
         style="fill:#f0e32a;fill-opacity:1;stroke:none;stroke-width:10;stroke-linejoin:round;stroke-miterlimit:4;stroke-dasharray:none;stroke-opacity:0.25882353"
         d="m 128.69141,128.79883 63.40039,109.8164 a 128,128 0 0 0 63.86914,-109.8164 z"
         transform="translate(0,796.36216)"
         id="path4658" />
      <path
         inkscape:connector-curvature="0"
         style="fill:#25aa23;fill-opacity:1;stroke:none;stroke-width:10;stroke-linejoin:round;stroke-miterlimit:4;stroke-dasharray:none;stroke-opacity:0.25882353"
         d="M 127.65234,129 64.228516,238.85547 A 128,128 0 0 0 128,256 128,128 0 0 0 191.22461,239.11133 Z"
         transform="translate(0,796.36216)"
         id="path4152" />
    </g>
    <path
       clip-path="url(#clipPath4715)"
       inkscape:connector-curvature="0"
       style="color:#000000;font-style:normal;font-variant:normal;font-weight:normal;font-stretch:normal;font-size:medium;line-height:normal;font-family:sans-serif;font-variant-ligatures:normal;font-variant-position:normal;font-variant-caps:normal;font-variant-numeric:normal;font-variant-alternates:normal;font-feature-settings:normal;text-indent:0;text-align:start;text-decoration:none;text-decoration-line:none;text-decoration-style:solid;text-decoration-color:#000000;letter-spacing:normal;word-spacing:normal;text-transform:none;writing-mode:lr-tb;direction:ltr;text-orientation:mixed;dominant-baseline:auto;baseline-shift:baseline;text-anchor:start;white-space:normal;shape-padding:0;clip-rule:nonzero;display:inline;overflow:visible;visibility:visible;opacity:1;isolation:auto;mix-blend-mode:normal;color-interpolation:sRGB;color-interpolation-filters:linearRGB;solid-color:#000000;solid-opacity:1;vector-effect:none;fill:#000000;fill-opacity:1;fill-rule:nonzero;stroke:#000000;stroke-width:10;stroke-linecap:butt;stroke-linejoin:miter;stroke-miterlimit:4;stroke-dasharray:none;stroke-dashoffset:0;stroke-opacity:1;color-rendering:auto;image-rendering:auto;shape-rendering:auto;text-rendering:auto;enable-background:accumulate"
       d="m 48.524415,785.1063 -0.86719,0.5 79.648445,137.95507 H -32.336915 v 1 H 126.95996 l -79.822265,138.25783 0.86719,0.5 79.648435,-137.95704 79.82226,138.25584 0.86524,-0.5 -79.64844,-137.95702 h 159.64453 v -1 H 129.03808 l 79.82227,-138.25586 -0.86524,-0.5 -79.64843,137.95704 z m 79.476555,138.86718 0.33594,0.19336 v 0.38868 l -0.33788,0.1953 -0.33594,-0.19336 v -0.39062 z"
       id="path4653"
       transform="translate(-1.25e-6)" />
    <g
       id="g4941"
       clip-path="url(#clipPath5288)"
       style="fill:#0056b6;fill-opacity:0.38999999">
      <g
         style="fill:#0056b6;fill-opacity:0.38999999;stroke:none;stroke-width:10.37749004;stroke-miterlimit:4;stroke-dasharray:none;stroke-opacity:1"
         id="g4938" />
      <g
         id="g5168"
         style="fill:#0056b6;fill-opacity:0.38999999">
        <g
           id="g5165"
           style="fill:#0056b6;fill-opacity:0.38999999;stroke:none;stroke-width:10.37749004;stroke-miterlimit:4;stroke-dasharray:none;stroke-opacity:1">
          <path
             id="path5157"
             d="M163.0 924.36218C163.0 943.69215 147.32997 959.36218 128.0 959.36218L-13.4213562373 1100.78353624C5.90861376269 1100.78353624 21.5786437627 1085.11350624 21.5786437627 1065.78353624Z"
             style="fill:#0056b6;fill-opacity:0.38999999" />
          <path
             id="path5159"
             d="M128.0 959.36218C89.6977354196 955.404548696 88.4914787609 916.93481056 106.662697099 898.763592222L-34.7586591383 1040.18494846C-52.9298774764 1058.3561668 -51.7236208177 1096.82590493 -13.4213562373 1100.78353624Z"
             style="fill:#0056b6;fill-opacity:0.38999999" />
          <path
             id="path5161"
             d="M106.662697099 898.763592222C112.163325535 893.262963785 119.43958903 889.622369403 128.0 889.36218L-13.4213562373 1030.78353624C-21.9817672078 1031.04372564 -29.2580307019 1034.68432002 -34.7586591383 1040.18494846Z"
             style="fill:#0056b6;fill-opacity:0.38999999" />
          <path
             id="path5163"
             d="M128.0 889.36218C147.32997 889.36218 163.0 905.03221 163.0 924.36218L21.5786437627 1065.78353624C21.5786437627 1046.45356624 5.90861376269 1030.78353624 -13.4213562373 1030.78353624Z"
             style="fill:#0056b6;fill-opacity:0.38999999" />
        </g>
        <path
           sodipodi:nodetypes="sccs"
           inkscape:connector-curvature="0"
           style="fill:#0056b6;fill-opacity:0.38999999;stroke:none;stroke-width:10.37749004;stroke-miterlimit:4;stroke-dasharray:none;stroke-opacity:1"
           d="m 163,924.36218 c 0,19.32997 -15.67003,35 -35,35 -49.896783,-5.15565 -36.839561,-68.88028 0,-70 19.32997,0 35,15.67003 35,35 z"
           id="circle4831" />
      </g>
    </g>
    <circle
       r="35"
       cy="924.36218"
       cx="128"
       id="path4733"
       style="fill:#ffffff;fill-opacity:1;stroke:none;stroke-width:10.37749004;stroke-miterlimit:4;stroke-dasharray:none;stroke-opacity:1" />
  </g>
</svg>
