<?xml version="1.0" encoding="UTF-8" standalone="no"?>
<!-- Created with Inkscape (http://www.inkscape.org/) -->

<svg
   xmlns:dc="http://purl.org/dc/elements/1.1/"
   xmlns:cc="http://creativecommons.org/ns#"
   xmlns:rdf="http://www.w3.org/1999/02/22-rdf-syntax-ns#"
   xmlns:svg="http://www.w3.org/2000/svg"
   xmlns="http://www.w3.org/2000/svg"
   xmlns:sodipodi="http://sodipodi.sourceforge.net/DTD/sodipodi-0.dtd"
   xmlns:inkscape="http://www.inkscape.org/namespaces/inkscape"
   sodipodi:docname="dbeaver.svg"
   inkscape:version="0.92+devel unknown"
   version="1.1"
   id="svg2"
   viewBox="0 0 256 256"
   height="256"
   width="256">
  <sodipodi:namedview
     inkscape:window-maximized="1"
     inkscape:window-y="0"
     inkscape:window-x="0"
     inkscape:window-height="1054"
     inkscape:window-width="1920"
     units="px"
     showgrid="true"
     inkscape:current-layer="layer1"
     inkscape:document-units="px"
     inkscape:cy="128"
     inkscape:cx="128"
     inkscape:zoom="3.359375"
     inkscape:pageshadow="2"
     inkscape:pageopacity="0.0"
     borderopacity="1.0"
     bordercolor="#666666"
     pagecolor="#ffffff"
     id="base"
     inkscape:document-rotation="0" />
  <defs
     id="defs4">
    <clipPath
       clipPathUnits="userSpaceOnUse"
       id="clipPath5002">
      <g
         id="g5004">
        <path
           transform="translate(0,796.36216)"
           inkscape:connector-curvature="0"
           id="path5006"
           d="M 88.118406,249.43519 C 46.103287,235.29134 14.771284,201.68742 4.1335861,159.36053 1.3377997,148.23623 0.92261224,144.16281 0.92582381,127.88908 0.92787958,117.47222 1.134384,112.01362 1.6577819,108.54099 4.4653598,89.913336 12.17654,70.638106 23.042737,55.086148 c 3.958678,-5.665755 8.344812,-10.93092 9.101533,-10.925587 0.32809,0.0023 10.488643,18.309713 22.579009,40.683112 12.090365,22.373397 22.374546,41.334697 22.853732,42.136217 0.479186,0.80151 0.924733,2.44098 0.990103,3.64326 0.343424,6.31639 2.524175,14.20976 5.6424,20.42304 2.954444,5.88693 5.065381,8.73258 10.434696,14.06652 6.71418,6.66995 12.88853,10.28643 21.73204,12.72904 3.16587,0.87442 5.10478,1.05037 11.57517,1.05037 8.82596,0 12.60219,-0.76201 19.26429,-3.88733 2.04584,-0.95974 3.93661,-1.66536 4.20172,-1.56805 0.2651,0.0973 -11.0555,17.66459 -25.1569,39.0384 l -25.6389,38.86148 -3.094121,0.11221 c -2.554618,0.0927 -4.195204,-0.25845 -9.409103,-2.01364 z"
           style="fill:#0f9d58;fill-opacity:1;stroke:none;stroke-width:4.85768509;stroke-linejoin:round;stroke-miterlimit:4;stroke-dasharray:none;stroke-opacity:1" />
        <path
           inkscape:connector-curvature="0"
           id="path5008"
           d="m 112.35984,1051.5167 c -10.0014,-1.4495 -12.15632,-1.8201 -12.531784,-2.1556 -0.248854,-0.2223 1.738304,-3.7475 4.550294,-8.0722 7.16635,-11.0213 49.77231,-74.64801 50.25856,-75.05489 3.57509,-2.99158 8.63523,-8.0414 10.57512,-10.55356 3.36154,-4.35318 7.55784,-12.9141 9.06523,-18.494 6.19314,-22.92535 -2.59253,-47.15185 -21.69967,-59.83688 l -2.96081,-1.96565 17.02469,0.29584 c 9.36358,0.1627 31.17032,0.43384 48.45941,0.60252 l 31.43471,0.30668 1.54584,4.18869 c 2.24597,6.08579 4.67816,15.0947 5.93451,21.9816 1.52517,8.36049 1.92536,28.85896 0.73851,37.82758 -3.0805,23.27845 -12.81326,45.72018 -27.80202,64.10577 -20.47622,25.1166 -51.4599,42.1974 -84.14612,46.3885 -5.31244,0.6812 -26.64601,0.9864 -30.44647,0.4356 z"
           style="fill:#f4b400;fill-opacity:1;stroke:none;stroke-width:4.85768509;stroke-linejoin:round;stroke-miterlimit:4;stroke-dasharray:none;stroke-opacity:1" />
        <path
           transform="translate(0,796.36216)"
           inkscape:connector-curvature="0"
           id="path5010"
           d="M 67.989788,108.87302 C 41.284246,59.575543 33.290284,45.149038 32.233625,44.344765 31.651257,43.901497 32.811213,42.549931 38.695603,36.815353 53.43581,22.450419 68.809334,13.040746 87.839196,6.7360352 101.68742,2.1480329 112.58238,0.43719165 127.95142,0.43719165 c 21.3099,0 37.80488,3.80960275 56.83492,13.12633035 25.29351,12.383198 46.19421,33.578863 58.51993,59.345832 1.61138,3.368591 2.92978,6.372442 2.92978,6.675231 0,0.560033 -10.54865,0.49527 -71.16508,-0.436914 l -24.28843,-0.373518 -3.93063,-1.764495 c -6.75732,-3.033425 -10.64587,-3.839529 -18.6576,-3.867747 -5.0296,-0.01773 -7.97946,0.207636 -10.31642,0.788106 -14.50826,3.603659 -26.283291,12.94777 -33.291614,26.418653 -3.58502,6.89086 -5.24713,13.08166 -6.331628,23.58317 l -0.33738,3.26696 -9.92748,-18.32578 z"
           style="fill:#db4437;fill-opacity:1;stroke:none;stroke-width:10;stroke-linejoin:round;stroke-miterlimit:4;stroke-dasharray:none;stroke-opacity:1" />
      </g>
    </clipPath>
    <clipPath
       id="clipPath4271"
       clipPathUnits="userSpaceOnUse">
      <circle
         r="128"
         cy="128.00002"
         cx="128"
         id="circle4273"
         style="fill:#292929;fill-opacity:0.26020412;stroke:none;stroke-width:10;stroke-linejoin:round;stroke-miterlimit:4;stroke-dasharray:none;stroke-opacity:0.25882353" />
    </clipPath>
    <clipPath
       clipPathUnits="userSpaceOnUse"
       id="clipPath4363">
      <circle
         r="128"
         cy="924.36218"
         cx="128"
         id="circle4365"
         style="fill:#4285f4;fill-opacity:1;stroke:none;stroke-width:10;stroke-linejoin:round;stroke-miterlimit:4;stroke-dasharray:none;stroke-opacity:0.25882353" />
    </clipPath>
    <clipPath
       id="clipPath4452"
       clipPathUnits="userSpaceOnUse">
      <circle
         r="128"
         cy="924.36218"
         cx="128"
         id="circle4454"
         style="fill:#4285f4;fill-opacity:1;stroke:none;stroke-width:10;stroke-linejoin:round;stroke-miterlimit:4;stroke-dasharray:none;stroke-opacity:0.25882353" />
    </clipPath>
    <clipPath
       clipPathUnits="userSpaceOnUse"
       id="clipPath5177">
      <circle
         r="128"
         cy="924.36218"
         cx="128"
         id="circle5179"
         style="fill:#4285f4;fill-opacity:1;stroke:none;stroke-width:10;stroke-linejoin:round;stroke-miterlimit:4;stroke-dasharray:none;stroke-opacity:0.25882353" />
    </clipPath>
    <clipPath
       id="clipPath4342"
       clipPathUnits="userSpaceOnUse">
      <circle
         r="128"
         cy="933.48718"
         cx="128"
         id="circle4344"
         style="fill:#4285f4;fill-opacity:1;stroke:none;stroke-width:10;stroke-linejoin:round;stroke-miterlimit:4;stroke-dasharray:none;stroke-opacity:0.25882353" />
    </clipPath>
    <clipPath
       clipPathUnits="userSpaceOnUse"
       id="clipPath4681">
      <circle
         r="128"
         cy="930.43964"
         cx="127.00293"
         id="circle4683"
         style="fill:#9d5fad;fill-opacity:1;stroke:none;stroke-width:10;stroke-linejoin:round;stroke-miterlimit:4;stroke-dasharray:none;stroke-opacity:0.25882353" />
    </clipPath>
    <clipPath
       id="clipPath4235"
       clipPathUnits="userSpaceOnUse">
      <circle
         r="128"
         cy="924.36218"
         cx="128"
         id="circle4237"
         style="fill:#0f9d58;fill-opacity:1;stroke:none;stroke-width:10;stroke-linejoin:round;stroke-miterlimit:4;stroke-dasharray:none;stroke-opacity:0.25882353" />
    </clipPath>
    <clipPath
       clipPathUnits="userSpaceOnUse"
       id="clipPath4771">
      <circle
         r="128"
         cy="924.36218"
         cx="128"
         id="circle4773"
         style="fill:#0f9d58;fill-opacity:1;stroke:none;stroke-width:10;stroke-linejoin:round;stroke-miterlimit:4;stroke-dasharray:none;stroke-opacity:0.25882353" />
    </clipPath>
    <clipPath
       id="clipPath4842"
       clipPathUnits="userSpaceOnUse">
      <circle
         r="128"
         cy="924.36218"
         cx="128"
         id="circle4844"
         style="fill:#0f9d58;fill-opacity:1;stroke:none;stroke-width:10;stroke-linejoin:round;stroke-miterlimit:4;stroke-dasharray:none;stroke-opacity:0.25882353" />
    </clipPath>
    <clipPath
       clipPathUnits="userSpaceOnUse"
       id="clipPath4458">
      <circle
         r="128"
         cy="924.36218"
         cx="128"
         id="circle4460"
         style="fill:#ff3b38;fill-opacity:1;stroke:none;stroke-width:10;stroke-linejoin:round;stroke-miterlimit:4;stroke-dasharray:none;stroke-opacity:0.25882353" />
    </clipPath>
    <clipPath
       id="clipPath4783"
       clipPathUnits="userSpaceOnUse">
      <circle
         r="128"
         cy="924.36218"
         cx="128"
         id="circle4785"
         style="fill:#ff3b38;fill-opacity:1;stroke:none;stroke-width:10;stroke-linejoin:round;stroke-miterlimit:4;stroke-dasharray:none;stroke-opacity:0.25882353" />
    </clipPath>
    <clipPath
       clipPathUnits="userSpaceOnUse"
       id="clipPath4789">
      <circle
         r="128"
         cy="924.36218"
         cx="102.64714"
         id="circle4791"
         style="fill:#80b4ff;fill-opacity:1;stroke:none;stroke-width:10;stroke-linejoin:round;stroke-miterlimit:4;stroke-dasharray:none;stroke-opacity:0.25882353" />
    </clipPath>
    <clipPath
       id="clipPath4721"
       clipPathUnits="userSpaceOnUse">
      <circle
         r="128"
         cy="924.36218"
         cx="128"
         id="circle4723"
         style="fill:#557ae6;fill-opacity:1;stroke:none;stroke-width:10;stroke-linejoin:round;stroke-miterlimit:4;stroke-dasharray:none;stroke-opacity:0.25882353" />
    </clipPath>
    <clipPath
       clipPathUnits="userSpaceOnUse"
       id="clipPath4491">
      <circle
         r="128"
         cy="924.36218"
         cx="128"
         id="circle4493"
         style="fill:#990000;fill-opacity:1;stroke:none;stroke-width:10;stroke-linejoin:round;stroke-miterlimit:4;stroke-dasharray:none;stroke-opacity:0.25882353" />
    </clipPath>
    <clipPath
       id="clipPath1102"
       clipPathUnits="userSpaceOnUse">
      <circle
         r="128"
         cy="924.36218"
         cx="128"
         id="circle1104"
         style="fill:#b40000;fill-opacity:1;stroke:none;stroke-width:10;stroke-linejoin:round;stroke-miterlimit:4;stroke-dasharray:none;stroke-opacity:0.25882353" />
    </clipPath>
    <clipPath
       clipPathUnits="userSpaceOnUse"
       id="clipPath4861">
      <circle
         style="fill:#897263;fill-opacity:1;stroke-width:11.48308563"
         id="circle4863"
         cx="129.25"
         cy="924.35864"
         r="83.223335" />
    </clipPath>
  </defs>
  <metadata
     id="metadata7">
    <rdf:RDF>
      <cc:Work
         rdf:about="">
        <dc:format>image/svg+xml</dc:format>
        <dc:type
           rdf:resource="http://purl.org/dc/dcmitype/StillImage" />
        <dc:title></dc:title>
      </cc:Work>
    </rdf:RDF>
  </metadata>
  <g
     transform="translate(0,-796.36216)"
     id="layer1"
     inkscape:groupmode="layer"
     inkscape:label="Layer 1">
    <circle
       r="128"
       cy="924.36218"
       cx="128"
       id="path4538"
       style="fill:#897263;fill-opacity:1;stroke-width:17.66133308" />
    <g
       id="g4574"
       transform="matrix(1.5380302,0,0,1.5380302,-70.790402,-497.32931)"
       clip-path="url(#clipPath4861)"
       style="fill:#5b4c42;fill-opacity:1">
      <path
         id="path4554"
         transform="translate(0,796.36216)"
         d="m 122.65234,80.517578 c -0.38051,-7.19e-4 -0.77985,0.01149 -1.20117,0.03516 -1.51071,0.08485 -2.61981,0.204655 -3.88867,0.421875 -3.92265,0.67152 -7.53809,2.068772 -10.80078,4.169922 l -0.58399,0.375 -0.14062,-0.15039 c -0.0779,-0.08256 -0.73771,-0.81692 -1.46484,-1.63086 -0.98414,-1.10165 -1.46175,-1.584395 -1.86915,-1.890625 -1.53427,-1.15321 -3.342401,-1.572936 -5.134761,-1.191406 -1.834305,0.39045 -3.149564,1.39572 -4.578125,3.5 -2.547979,3.75318 -3.587722,5.356134 -3.929687,6.058594 -0.599795,1.23209 -0.882471,2.282057 -1.007813,3.748047 -0.222335,2.60039 0.630389,5.356433 2.253907,7.283195 0.15753,0.18695 1.078721,1.22482 2.046875,2.30664 1.498433,1.67435 1.753837,1.98646 1.710937,2.09766 -0.02772,0.0718 -3.094593,7.94961 -6.814453,17.50586 l -6.763672,17.375 0.07031,1.29883 c 0.07667,1.42237 0.118653,1.80428 0.355468,3.20117 0.784906,4.62986 2.880841,9.17901 6.046875,13.125 3.151911,3.92839 7.189733,7.25021 12.238282,10.06836 6.669227,3.72282 15.038377,6.18928 23.615237,6.96094 1.16071,0.10443 1.8712,0.14923 4.40625,0.27734 0.76821,0.0389 4.83652,-0.0199 5.9375,-0.0859 8.23029,-0.49341 15.59079,-2.22531 22.36719,-5.26367 12.2056,-5.47267 20.29999,-14.67415 22.06445,-25.08203 0.23682,-1.39689 0.27877,-1.7788 0.35547,-3.20117 l 0.0703,-1.29883 -6.76367,-17.375 c -3.71986,-9.55625 -6.78675,-17.43396 -6.81445,-17.50586 -0.0429,-0.1112 0.2125,-0.42331 1.71093,-2.09766 2.12099,-2.37 2.24397,-2.51549 2.6543,-3.12695 1.48506,-2.213055 2.038,-5.229226 1.44727,-7.894526 -0.38209,-1.72395 -0.742,-2.421063 -2.97071,-5.751953 -2.28615,-3.41674 -2.59173,-3.835884 -3.25,-4.458985 -1.28551,-1.216849 -2.6876,-1.783296 -4.40234,-1.779296 -1.52358,0.0037 -2.749,0.443517 -3.99414,1.435546 -0.36192,0.288351 -1.35792,1.354852 -3.11133,3.332032 l -0.18945,0.214844 -0.58789,-0.376954 c -1.72617,-1.11169 -3.62904,-2.065538 -5.46094,-2.736328 -0.34375,-0.12588 -0.72344,-0.2665 -0.84375,-0.3125 -0.12031,-0.04601 -0.66875,-0.21248 -1.21875,-0.36914 -2.42226,-0.68997 -4.45683,-1.023392 -7.16992,-1.175782 -3.37052,-0.18932 -5.34145,0.375694 -7.40821,2.121094 l -0.39062,0.330078 -0.39062,-0.330078 c -1.80841,-1.527225 -3.54341,-2.151214 -6.20704,-2.15625 z m -0.62109,2.507813 c 1.71776,-0.07133 2.90699,0.138009 3.95313,0.693359 0.68276,0.36245 1.06555,0.666429 2.26171,1.787109 l 1.00391,0.939453 1.00195,-0.939453 c 1.19616,-1.12068 1.58091,-1.424659 2.26367,-1.787109 1.04614,-0.55535 2.23537,-0.764659 3.95313,-0.693359 5.35494,0.22234 9.89921,1.598085 13.89453,4.203125 3.30556,2.15529 6.07365,5.297354 7.50586,8.521484 0.14506,0.32656 4.16792,10.63437 8.93945,22.90625 l 8.67579,22.3125 -0.0547,0.9375 c -0.1237,2.12309 -0.49134,4.06184 -1.16016,6.125 -3.03668,9.36766 -11.86106,17.27414 -24.01953,21.52148 -1.66328,0.58104 -4.53436,1.43439 -4.60156,1.36719 -0.0139,-0.0139 0.18005,-0.16094 0.42968,-0.32617 0.24963,-0.16523 0.7625,-0.53108 1.14063,-0.8125 5.4925,-4.08788 8.97613,-9.85172 10.25586,-16.96875 1.14158,-6.34869 0.41207,-14.11093 -1.99609,-21.21875 -1.72607,-5.09459 -4.14975,-9.61827 -7.16211,-13.36914 -0.3286,-0.40915 -0.71418,-0.90527 -0.85743,-1.10352 -0.47006,-0.65052 -8.09613,-10.20793 -8.39062,-10.51562 -0.36833,-0.38483 -0.82893,-0.69021 -1.36328,-0.9043 l -0.42383,-0.16992 H 129.25 121.21875 l -0.42383,0.16992 c -0.53319,0.21363 -0.99419,0.51863 -1.36523,0.9043 -0.29598,0.30767 -7.8992,9.83883 -8.38086,10.50586 -0.14677,0.20325 -0.53664,0.70413 -0.86524,1.11328 -0.67318,0.83823 -1.41548,1.84536 -1.98047,2.6875 -1.43228,2.13489 -3.10409,5.31073 -4.14257,7.86914 -3.46446,8.5351 -4.469095,17.99319 -2.71875,25.59375 1.52477,6.62107 5.23411,12.17355 10.61718,15.89453 0.40707,0.28138 0.78675,0.54599 0.84375,0.58789 0.1664,0.12226 0.002,0.0922 -0.92773,-0.16601 -8.51906,-2.36664 -15.702454,-6.40243 -20.871094,-11.72852 -4.855622,-5.00354 -7.573414,-10.84713 -7.933594,-17.05664 l -0.05469,-0.9375 8.652344,-22.25 c 4.758804,-12.2375 8.790924,-22.561606 8.958984,-22.941406 1.68551,-3.80905 5.0344,-7.291065 9.18555,-9.552735 3.5939,-1.95805 7.59684,-3.007318 12.21875,-3.199218 z M 107.8125,100.50391 c -1.07889,0.0644 -2.28016,0.8102 -3.27344,2.13671 -0.92019,1.2289 -1.45083,2.68656 -1.51953,4.17383 -0.0847,1.83407 0.54643,3.12054 1.74805,3.56641 0.43022,0.15967 1.22894,0.13306 1.75976,-0.0586 2.24117,-0.80913 4.08325,-3.9217 3.95704,-6.6875 -0.0513,-1.12312 -0.35296,-1.92643 -0.9336,-2.49024 -0.48691,-0.4728 -1.09094,-0.67926 -1.73828,-0.64062 z m 42.59961,0.002 c -0.54687,0.0278 -1.05075,0.23848 -1.46289,0.63867 -0.58065,0.56381 -0.8823,1.36712 -0.9336,2.49024 -0.13275,2.90897 1.85408,6.08918 4.23438,6.77929 0.46722,0.13545 1.27889,0.0763 1.69531,-0.12304 0.4542,-0.21738 0.94929,-0.74187 1.17969,-1.25 0.91828,-2.02524 0.0906,-5.259 -1.83984,-7.18946 -0.93035,-0.93034 -1.96161,-1.39199 -2.87305,-1.3457 z M 116.96484,120.75 c 1.39689,0.002 2.24315,0.69542 2.63282,2.15625 0.29424,1.1031 0.1292,2.91781 -0.38086,4.18555 -0.1421,0.35311 -0.14477,0.37766 -0.043,0.49023 0.059,0.0653 0.21992,0.17825 0.35742,0.25195 0.24729,0.13253 0.29458,0.13475 4.35937,0.15235 L 128,128.00391 v 1.46875 c 0,1.62834 -0.0613,2.09179 -0.38281,2.89843 -0.48404,1.21429 -1.5369,2.26337 -2.75781,2.75 -0.93322,0.3719 -1.02329,0.3781 -5.5293,0.37891 -4.37511,7.9e-4 -4.41384,0.004 -5.00977,0.30859 -0.36612,0.18717 -0.83603,0.66555 -1.03125,1.05079 -0.34884,0.6884 -0.41767,-0.0702 0.95313,10.61132 0.68806,5.36144 1.29545,9.93615 1.34765,10.16602 0.28955,1.27481 1.23129,2.28862 2.50391,2.69336 l 0.4375,0.13867 H 129.25 139.96875 l 0.4375,-0.13867 c 1.27262,-0.40474 2.21436,-1.41855 2.50391,-2.69336 0.0522,-0.22987 0.65959,-4.80458 1.34765,-10.16602 1.3708,-10.68151 1.30197,-9.92292 0.95313,-10.61132 -0.19522,-0.38525 -0.66513,-0.86362 -1.03125,-1.05079 -0.59593,-0.30492 -0.63466,-0.3078 -5.00977,-0.30859 -4.50601,-8.1e-4 -4.59607,-0.007 -5.5293,-0.37891 -1.22091,-0.48663 -2.27377,-1.53571 -2.75781,-2.75 C 130.56129,131.56449 130.5,131.101 130.5,129.47266 v -1.46875 l 4.10938,-0.0176 c 4.06479,-0.0176 4.11208,-0.0198 4.35937,-0.15235 0.1375,-0.0737 0.29842,-0.18665 0.35742,-0.25195 0.10176,-0.11257 0.0991,-0.13712 -0.043,-0.49023 -0.51006,-1.26774 -0.6751,-3.08245 -0.38086,-4.18555 0.38967,-1.46083 1.23592,-2.15425 2.63282,-2.15625 1.25384,-0.002 2.47893,0.60339 3.54492,1.75 l 0.45117,0.48633 0.55469,-0.60352 c 0.30476,-0.33125 0.68445,-0.80465 0.84375,-1.05273 0.15932,-0.24808 0.30386,-0.45213 0.32226,-0.45313 0.0184,-0.001 0.21753,0.25822 0.44336,0.57617 3.86156,5.43702 6.51786,12.40567 7.42383,19.48438 1.33817,10.45561 -0.94284,18.71564 -6.77148,24.5332 -4.08388,4.07611 -9.54993,6.60352 -15.88282,7.3418 -1.25913,0.1468 -3.95899,0.21345 -5.12109,0.12695 -6.83114,-0.50853 -12.8292,-3.11484 -17.19141,-7.46875 -3.18417,-3.17812 -5.28884,-7.04101 -6.36523,-11.68945 -1.74524,-7.53698 -0.51163,-17.39729 3.20898,-25.65625 0.77378,-1.71764 2.0939,-4.13233 3.02344,-5.53125 0.54027,-0.81309 1.18972,-1.71984 1.22852,-1.71484 0.0184,0.002 0.16494,0.20802 0.32617,0.45703 0.16123,0.249 0.54092,0.72156 0.84375,1.05078 l 0.55078,0.59961 0.45117,-0.48633 c 1.06599,-1.14661 2.29107,-1.752 3.54492,-1.75 z M 121.75,138 H 128 v 10 10 h -4.64062 c -4.4099,-2.3e-4 -4.64938,-0.007 -4.83008,-0.11719 -0.25664,-0.1565 -0.51139,-0.46633 -0.55469,-0.67773 -0.0314,-0.15351 -2.47461,-19.08002 -2.47461,-19.16992 0,-0.0197 2.8125,-0.0352 6.25,-0.0352 z m 8.75,0 h 6.25 c 3.4375,0 6.25,0.0145 6.25,0.0312 0,0.21742 -2.46077,19.06076 -2.50977,19.21875 -0.0777,0.25048 -0.31844,0.53359 -0.56445,0.66211 -0.14085,0.0736 -0.93459,0.0879 -4.79687,0.0879 H 130.5 v -10 z"
         style="fill:#5b4c42;fill-opacity:1;stroke:none;stroke-width:10;stroke-linejoin:round;stroke-miterlimit:4;stroke-dasharray:none;stroke-opacity:0.25882353"
         inkscape:connector-curvature="0" />
      <path
         inkscape:connector-curvature="0"
         id="path4556"
         d="m 127.21875,971.82522 c -2.53505,-0.12811 -3.24554,-0.17282 -4.40625,-0.27725 -8.57686,-0.77166 -16.94633,-3.23895 -23.615553,-6.96177 -5.048549,-2.81815 -9.085545,-6.13938 -12.237456,-10.06777 -3.166034,-3.94599 -5.261855,-8.49514 -6.046761,-13.125 -0.236815,-1.39689 -0.279294,-1.77891 -0.355961,-3.20128 l -0.07,-1.29872 6.763381,-17.375 c 3.71986,-9.55625 6.786058,-17.43379 6.813773,-17.50564 0.0429,-0.1112 -0.211457,-0.42323 -1.70989,-2.09758 -0.968154,-1.08182 -1.88917,-2.11991 -2.0467,-2.30686 -1.623518,-1.92677 -2.476544,-4.68286 -2.254209,-7.28325 0.125342,-1.46599 0.407556,-2.51604 1.007351,-3.74813 0.341965,-0.70246 1.381614,-2.30536 3.929593,-6.05854 1.428561,-2.10428 2.743476,-3.10964 4.577781,-3.50009 1.79236,-0.38153 3.601411,0.0382 5.135681,1.19141 0.40739,0.30623 0.88518,0.78963 1.86932,1.89128 0.72713,0.81394 1.38576,1.54745 1.46363,1.63001 l 0.14158,0.15011 0.58284,-0.37535 c 3.26269,-2.10115 6.87895,-3.4966 10.8016,-4.16812 1.26886,-0.21722 2.37726,-0.33768 3.88797,-0.42253 3.37052,-0.18932 5.34215,0.37494 7.4089,2.12034 l 0.39063,0.32988 0.39062,-0.32988 c 2.06676,-1.7454 4.03839,-2.30966 7.40891,-2.12034 2.71309,0.15239 4.74696,0.48601 7.16922,1.17598 0.55,0.15666 1.09844,0.32248 1.21875,0.36849 0.12031,0.046 0.5,0.18664 0.84375,0.31252 1.8319,0.67079 3.73541,1.62439 5.46158,2.73608 l 0.58658,0.37776 0.19069,-0.21502 c 1.75341,-1.97718 2.74921,-3.04369 3.11113,-3.33204 1.24514,-0.99203 2.47019,-1.43262 3.99377,-1.43635 1.71474,-0.004 3.11721,0.56266 4.40272,1.77951 0.65827,0.6231 0.96339,1.04174 3.24954,4.45848 2.22871,3.33089 2.58925,4.02892 2.97134,5.75287 0.59073,2.6653 0.0378,5.68114 -1.44726,7.8942 -0.41033,0.61146 -0.53438,0.75758 -2.65537,3.12758 -1.49843,1.67435 -1.75279,1.98638 -1.70989,2.09758 0.0277,0.0719 3.09391,7.94939 6.81377,17.50564 l 6.76338,17.375 -0.07,1.29872 c -0.0767,1.42237 -0.11914,1.80439 -0.35596,3.20128 -1.76446,10.40788 -9.85848,19.60881 -22.06408,25.08148 -6.7764,3.03836 -14.13665,4.77056 -22.36694,5.26397 -1.10098,0.066 -5.16929,0.12516 -5.9375,0.0863 z m 5.24646,-2.6508 c 6.33289,-0.73828 11.79924,-3.26471 15.88312,-7.34082 5.82864,-5.81756 8.10815,-14.07831 6.76998,-24.53392 -0.90597,-7.07871 -3.56049,-14.04736 -7.42205,-19.48438 -0.22583,-0.31796 -0.42565,-0.57719 -0.44405,-0.57605 -0.0184,10e-4 -0.1638,0.20504 -0.32312,0.45312 -0.1593,0.24808 -0.53899,0.72208 -0.84375,1.05333 l -0.55409,0.60226 -0.45186,-0.48604 c -1.06599,-1.14661 -2.29044,-1.75084 -3.54428,-1.749 -1.3969,0.002 -2.24277,0.69468 -2.63244,2.15551 -0.29424,1.1031 -0.1291,2.91709 0.38096,4.18483 0.14207,0.35311 0.14426,0.37845 0.0425,0.49102 -0.059,0.0653 -0.21984,0.17899 -0.35734,0.25268 -0.24729,0.13252 -0.29459,0.13416 -4.35938,0.15173 l -4.10937,0.0178 v 1.46925 c 0,1.62834 0.061,2.09026 0.38252,2.89686 0.48404,1.21429 1.53707,2.26483 2.75798,2.75146 0.93322,0.37195 1.02273,0.37809 5.52874,0.3789 4.37511,7.9e-4 4.41537,0.003 5.0113,0.30792 0.36612,0.18717 0.83497,0.66527 1.03019,1.05051 0.34884,0.6884 0.417,-0.07 -0.9538,10.61151 -0.68806,5.36144 -1.29374,9.93615 -1.34595,10.16602 -0.28955,1.27481 -1.23211,2.28817 -2.50473,2.69291 l -0.4375,0.13914 H 129.25 118.53125 l -0.4375,-0.13914 c -1.27262,-0.40474 -2.21518,-1.4181 -2.50473,-2.69291 -0.0522,-0.22987 -0.65789,-4.80458 -1.34595,-10.16602 -1.3708,-10.68148 -1.30264,-9.92311 -0.9538,-10.61151 0.19522,-0.38524 0.66407,-0.86334 1.03019,-1.05051 0.59593,-0.30466 0.63619,-0.30713 5.0113,-0.30792 4.50601,-8.1e-4 4.59552,-0.007 5.52874,-0.3789 1.22091,-0.48663 2.27394,-1.53717 2.75798,-2.75146 C 127.93901,927.92596 128,927.46404 128,925.8357 v -1.46925 l -4.10937,-0.0178 c -4.06479,-0.0176 -4.11209,-0.0192 -4.35938,-0.15173 -0.1375,-0.0737 -0.2983,-0.18739 -0.35734,-0.25268 -0.1018,-0.11257 -0.0996,-0.13791 0.0425,-0.49102 0.51006,-1.26774 0.6752,-3.08173 0.38096,-4.18483 -0.38967,-1.46083 -1.23554,-2.15345 -2.63243,-2.15551 -1.25385,-0.002 -2.4783,0.60239 -3.54429,1.749 l -0.45186,0.48604 -0.55061,-0.59858 c -0.30283,-0.32922 -0.68252,-0.80232 -0.84375,-1.05132 -0.16123,-0.24901 -0.3082,-0.45457 -0.3266,-0.45681 -0.0388,-0.005 -0.68815,0.90159 -1.22842,1.71468 -0.92954,1.39892 -2.24927,3.81361 -3.02305,5.53125 -3.72061,8.25896 -4.95369,18.11927 -3.20845,25.65625 1.07639,4.64844 3.17963,8.51205 6.3638,11.69017 4.36221,4.35391 10.36094,6.95979 17.19208,7.46832 1.1621,0.0865 3.86233,0.0193 5.12146,-0.1275 z m -19.66258,-1.95485 c -0.057,-0.0419 -0.43668,-0.30636 -0.84375,-0.58774 -5.38307,-3.72098 -9.09186,-9.27358 -10.61663,-15.89465 -1.750342,-7.60056 -0.74559,-17.05865 2.71887,-25.59375 1.03848,-2.55841 2.71064,-5.73474 4.14293,-7.86963 0.56498,-0.84214 1.30657,-1.84856 1.97975,-2.68679 0.3286,-0.40915 0.71753,-0.91021 0.8643,-1.11346 0.48166,-0.66703 8.08569,-10.19783 8.38167,-10.5055 0.37104,-0.38567 0.83204,-0.69121 1.36523,-0.90484 l 0.42375,-0.16978 h 8.03125 8.03125 l 0.42375,0.16978 c 0.53435,0.21409 0.99541,0.52001 1.36374,0.90484 0.29449,0.30769 7.9195,9.86408 8.38956,10.5146 0.14325,0.19825 0.5293,0.69521 0.8579,1.10436 3.01236,3.75087 5.43553,8.27433 7.1616,13.36892 2.40816,7.10782 3.13877,14.87006 1.99719,21.21875 -1.27973,7.11703 -4.76374,12.88144 -10.25624,16.96932 -0.37813,0.28142 -0.89174,0.64687 -1.14137,0.8121 -0.24964,0.16523 -0.4425,0.31179 -0.42861,0.32569 0.0672,0.0672 2.93795,-0.78507 4.60123,-1.36611 12.15847,-4.24734 20.98344,-12.15459 24.02012,-21.52225 0.66882,-2.06316 1.03589,-4.00212 1.15959,-6.12521 l 0.0546,-0.93729 -8.67551,-22.3125 c -4.77153,-12.27188 -8.7942,-22.57969 -8.93926,-22.90625 -1.43221,-3.22413 -4.19989,-6.36665 -7.50545,-8.52194 -3.99532,-2.60504 -8.54042,-3.9794 -13.89536,-4.20174 -1.71776,-0.0713 -2.90656,0.13687 -3.9527,0.69222 -0.68276,0.36245 -1.06696,0.66572 -2.26312,1.7864 l -1.00293,0.93964 -1.00293,-0.93964 c -1.19616,-1.12068 -1.58036,-1.42395 -2.26312,-1.7864 -1.04614,-0.55535 -2.23494,-0.76355 -3.9527,-0.69222 -4.62191,0.1919 -8.62485,1.23942 -12.21875,3.19747 -4.15115,2.26167 -7.50052,5.74536 -9.18603,9.55441 -0.16806,0.3798 -4.19913,10.70305 -8.957934,22.94055 l -8.652372,22.25 0.05437,0.93729 c 0.360179,6.20951 3.078254,12.05289 7.933876,17.05643 5.16864,5.32609 12.35153,9.363 20.87059,11.72964 0.9296,0.25825 1.09403,0.28754 0.92763,0.16528 z m -8.03589,-60.47595 c -1.20162,-0.44587 -1.83213,-1.7329 -1.74742,-3.56697 0.0687,-1.48727 0.59956,-2.94546 1.51975,-4.17436 1.58924,-2.12242 3.71307,-2.75615 5.01149,-1.49536 0.58064,0.56381 0.88163,1.36733 0.93289,2.49045 0.12621,2.7658 -1.71527,5.87848 -3.95644,6.68761 -0.53082,0.19165 -1.33005,0.21827 -1.76027,0.0586 z m 47.48326,0.0329 c -2.3803,-0.69011 -4.3662,-3.87021 -4.23344,-6.77918 0.0513,-1.12312 0.35223,-1.92664 0.93288,-2.49045 1.09903,-1.06718 2.84767,-0.78243 4.33622,0.70612 1.93045,1.93046 2.75795,5.16443 1.83967,7.18967 -0.2304,0.50813 -0.72664,1.03404 -1.18084,1.25142 -0.41642,0.1993 -1.22727,0.25787 -1.69449,0.12242 z M 128,944.36218 v -10 h -6.25 c -3.4375,0 -6.25,0.0162 -6.25,0.0359 0,0.0899 2.44365,19.01519 2.47509,19.1687 0.0433,0.2114 0.29686,0.52245 0.5535,0.67895 0.1807,0.1102 0.4209,0.11597 4.83079,0.1162 H 128 v -10 z m 11.92498,9.91183 c 0.24601,-0.12852 0.4876,-0.41135 0.56532,-0.66183 0.049,-0.15799 2.5097,-19.00213 2.5097,-19.21955 0,-0.0168 -2.8125,-0.0305 -6.25,-0.0305 h -6.25 v 10 10 h 4.6281 c 3.86228,0 4.65603,-0.0146 4.79688,-0.0882 z"
         style="fill:#5b4c42;stroke-width:0.0625;fill-opacity:1" />
      <path
         style="fill:#5b4c42;stroke-width:0.0625;fill-opacity:1"
         d="m 127.21875,971.82522 c -2.53505,-0.12811 -3.24554,-0.17282 -4.40625,-0.27725 -8.57686,-0.77166 -16.94633,-3.23895 -23.615553,-6.96177 -5.048549,-2.81815 -9.085545,-6.13938 -12.237456,-10.06777 -3.166034,-3.94599 -5.261855,-8.49514 -6.046761,-13.125 -0.236815,-1.39689 -0.279294,-1.77891 -0.355961,-3.20128 l -0.07,-1.29872 6.763381,-17.375 c 3.71986,-9.55625 6.786058,-17.43379 6.813773,-17.50564 0.0429,-0.1112 -0.211457,-0.42323 -1.70989,-2.09758 -0.968154,-1.08182 -1.88917,-2.11991 -2.0467,-2.30686 -1.623518,-1.92677 -2.476544,-4.68286 -2.254209,-7.28325 0.125342,-1.46599 0.407556,-2.51604 1.007351,-3.74813 0.341965,-0.70246 1.381614,-2.30536 3.929593,-6.05854 1.428561,-2.10428 2.743476,-3.10964 4.577781,-3.50009 1.79236,-0.38153 3.601411,0.0382 5.135681,1.19141 0.40739,0.30623 0.88518,0.78963 1.86932,1.89128 0.72713,0.81394 1.38576,1.54745 1.46363,1.63001 l 0.14158,0.15011 0.58284,-0.37535 c 3.26269,-2.10115 6.87895,-3.4966 10.8016,-4.16812 1.26886,-0.21722 2.37726,-0.33768 3.88797,-0.42253 3.37052,-0.18932 5.34215,0.37494 7.4089,2.12034 l 0.39063,0.32988 0.39062,-0.32988 c 2.06676,-1.7454 4.03839,-2.30966 7.40891,-2.12034 2.71309,0.15239 4.74696,0.48601 7.16922,1.17598 0.55,0.15666 1.09844,0.32248 1.21875,0.36849 0.12031,0.046 0.5,0.18664 0.84375,0.31252 1.8319,0.67079 3.73541,1.62439 5.46158,2.73608 l 0.58658,0.37776 0.19069,-0.21502 c 1.75341,-1.97718 2.74921,-3.04369 3.11113,-3.33204 1.24514,-0.99203 2.47019,-1.43262 3.99377,-1.43635 1.71474,-0.004 3.11721,0.56266 4.40272,1.77951 0.65827,0.6231 0.96339,1.04174 3.24954,4.45848 2.22871,3.33089 2.58925,4.02892 2.97134,5.75287 0.59073,2.6653 0.0378,5.68114 -1.44726,7.8942 -0.41033,0.61146 -0.53438,0.75758 -2.65537,3.12758 -1.49843,1.67435 -1.75279,1.98638 -1.70989,2.09758 0.0277,0.0719 3.09391,7.94939 6.81377,17.50564 l 6.76338,17.375 -0.07,1.29872 c -0.0767,1.42237 -0.11914,1.80439 -0.35596,3.20128 -1.76446,10.40788 -9.85848,19.60881 -22.06408,25.08148 -6.7764,3.03836 -14.13665,4.77056 -22.36694,5.26397 -1.10098,0.066 -5.16929,0.12516 -5.9375,0.0863 z m 5.24646,-2.6508 c 6.33289,-0.73828 11.79924,-3.26471 15.88312,-7.34082 5.82864,-5.81756 8.10815,-14.07831 6.76998,-24.53392 -0.90597,-7.07871 -3.56049,-14.04736 -7.42205,-19.48438 -0.22583,-0.31796 -0.42565,-0.57719 -0.44405,-0.57605 -0.0184,10e-4 -0.1638,0.20504 -0.32312,0.45312 -0.1593,0.24808 -0.53899,0.72208 -0.84375,1.05333 l -0.55409,0.60226 -0.45186,-0.48604 c -1.06599,-1.14661 -2.29044,-1.75084 -3.54428,-1.749 -1.3969,0.002 -2.24277,0.69468 -2.63244,2.15551 -0.29424,1.1031 -0.1291,2.91709 0.38096,4.18483 0.14207,0.35311 0.14426,0.37845 0.0425,0.49102 -0.059,0.0653 -0.21984,0.17899 -0.35734,0.25268 -0.24729,0.13252 -0.29459,0.13416 -4.35938,0.15173 l -4.10937,0.0178 v 1.46925 c 0,1.62834 0.061,2.09026 0.38252,2.89686 0.48404,1.21429 1.53707,2.26483 2.75798,2.75146 0.93322,0.37195 1.02273,0.37809 5.52874,0.3789 4.37511,7.9e-4 4.41537,0.003 5.0113,0.30792 0.36612,0.18717 0.83497,0.66527 1.03019,1.05051 0.34884,0.6884 0.417,-0.07 -0.9538,10.61151 -0.68806,5.36144 -1.29374,9.93615 -1.34595,10.16602 -0.28955,1.27481 -1.23211,2.28817 -2.50473,2.69291 l -0.4375,0.13914 H 129.25 118.53125 l -0.4375,-0.13914 c -1.27262,-0.40474 -2.21518,-1.4181 -2.50473,-2.69291 -0.0522,-0.22987 -0.65789,-4.80458 -1.34595,-10.16602 -1.3708,-10.68148 -1.30264,-9.92311 -0.9538,-10.61151 0.19522,-0.38524 0.66407,-0.86334 1.03019,-1.05051 0.59593,-0.30466 0.63619,-0.30713 5.0113,-0.30792 4.50601,-8.1e-4 4.59552,-0.007 5.52874,-0.3789 1.22091,-0.48663 2.27394,-1.53717 2.75798,-2.75146 C 127.93901,927.92596 128,927.46404 128,925.8357 v -1.46925 l -4.10937,-0.0178 c -4.06479,-0.0176 -4.11209,-0.0192 -4.35938,-0.15173 -0.1375,-0.0737 -0.2983,-0.18739 -0.35734,-0.25268 -0.1018,-0.11257 -0.0996,-0.13791 0.0425,-0.49102 0.51006,-1.26774 0.6752,-3.08173 0.38096,-4.18483 -0.38967,-1.46083 -1.23554,-2.15345 -2.63243,-2.15551 -1.25385,-0.002 -2.4783,0.60239 -3.54429,1.749 l -0.45186,0.48604 -0.55061,-0.59858 c -0.30283,-0.32922 -0.68252,-0.80232 -0.84375,-1.05132 -0.16123,-0.24901 -0.3082,-0.45457 -0.3266,-0.45681 -0.0388,-0.005 -0.68815,0.90159 -1.22842,1.71468 -0.92954,1.39892 -2.24927,3.81361 -3.02305,5.53125 -3.72061,8.25896 -4.95369,18.11927 -3.20845,25.65625 1.07639,4.64844 3.17963,8.51205 6.3638,11.69017 4.36221,4.35391 10.36094,6.95979 17.19208,7.46832 1.1621,0.0865 3.86233,0.0193 5.12146,-0.1275 z m -19.66258,-1.95485 c -0.057,-0.0419 -0.43668,-0.30636 -0.84375,-0.58774 -5.38307,-3.72098 -9.09186,-9.27358 -10.61663,-15.89465 -1.750342,-7.60056 -0.74559,-17.05865 2.71887,-25.59375 1.03848,-2.55841 2.71064,-5.73474 4.14293,-7.86963 0.56498,-0.84214 1.30657,-1.84856 1.97975,-2.68679 0.3286,-0.40915 0.71753,-0.91021 0.8643,-1.11346 0.48166,-0.66703 8.08569,-10.19783 8.38167,-10.5055 0.37104,-0.38567 0.83204,-0.69121 1.36523,-0.90484 l 0.42375,-0.16978 h 8.03125 8.03125 l 0.42375,0.16978 c 0.53435,0.21409 0.99541,0.52001 1.36374,0.90484 0.29449,0.30769 7.9195,9.86408 8.38956,10.5146 0.14325,0.19825 0.5293,0.69521 0.8579,1.10436 3.01236,3.75087 5.43553,8.27433 7.1616,13.36892 2.40816,7.10782 3.13877,14.87006 1.99719,21.21875 -1.27973,7.11703 -4.76374,12.88144 -10.25624,16.96932 -0.37813,0.28142 -0.89174,0.64687 -1.14137,0.8121 -0.24964,0.16523 -0.4425,0.31179 -0.42861,0.32569 0.0672,0.0672 2.93795,-0.78507 4.60123,-1.36611 12.15847,-4.24734 20.98344,-12.15459 24.02012,-21.52225 0.66882,-2.06316 1.03589,-4.00212 1.15959,-6.12521 l 0.0546,-0.93729 -8.67551,-22.3125 c -4.77153,-12.27188 -8.7942,-22.57969 -8.93926,-22.90625 -1.43221,-3.22413 -4.19989,-6.36665 -7.50545,-8.52194 -3.99532,-2.60504 -8.54042,-3.9794 -13.89536,-4.20174 -1.71776,-0.0713 -2.90656,0.13687 -3.9527,0.69222 -0.68276,0.36245 -1.06696,0.66572 -2.26312,1.7864 l -1.00293,0.93964 -1.00293,-0.93964 c -1.19616,-1.12068 -1.58036,-1.42395 -2.26312,-1.7864 -1.04614,-0.55535 -2.23494,-0.76355 -3.9527,-0.69222 -4.62191,0.1919 -8.62485,1.23942 -12.21875,3.19747 -4.15115,2.26167 -7.50052,5.74536 -9.18603,9.55441 -0.16806,0.3798 -4.19913,10.70305 -8.957934,22.94055 l -8.652372,22.25 0.05437,0.93729 c 0.360179,6.20951 3.078254,12.05289 7.933876,17.05643 5.16864,5.32609 12.35153,9.363 20.87059,11.72964 0.9296,0.25825 1.09403,0.28754 0.92763,0.16528 z m -8.03589,-60.47595 c -1.20162,-0.44587 -1.83213,-1.7329 -1.74742,-3.56697 0.0687,-1.48727 0.59956,-2.94546 1.51975,-4.17436 1.58924,-2.12242 3.71307,-2.75615 5.01149,-1.49536 0.58064,0.56381 0.88163,1.36733 0.93289,2.49045 0.12621,2.7658 -1.71527,5.87848 -3.95644,6.68761 -0.53082,0.19165 -1.33005,0.21827 -1.76027,0.0586 z m 47.48326,0.0329 c -2.3803,-0.69011 -4.3662,-3.87021 -4.23344,-6.77918 0.0513,-1.12312 0.35223,-1.92664 0.93288,-2.49045 1.09903,-1.06718 2.84767,-0.78243 4.33622,0.70612 1.93045,1.93046 2.75795,5.16443 1.83967,7.18967 -0.2304,0.50813 -0.72664,1.03404 -1.18084,1.25142 -0.41642,0.1993 -1.22727,0.25787 -1.69449,0.12242 z M 128,944.36218 v -10 h -6.25 c -3.4375,0 -6.25,0.0162 -6.25,0.0359 0,0.0899 2.44365,19.01519 2.47509,19.1687 0.0433,0.2114 0.29686,0.52245 0.5535,0.67895 0.1807,0.1102 0.4209,0.11597 4.83079,0.1162 H 128 v -10 z m 11.92498,9.91183 c 0.24601,-0.12852 0.4876,-0.41135 0.56532,-0.66183 0.049,-0.15799 2.5097,-19.00213 2.5097,-19.21955 0,-0.0168 -2.8125,-0.0305 -6.25,-0.0305 h -6.25 v 10 10 h 4.6281 c 3.86228,0 4.65603,-0.0146 4.79688,-0.0882 z"
         id="path4558"
         inkscape:connector-curvature="0" />
      <path
         id="path4562"
         transform="translate(0,796.36216)"
         d="m 122.03125,83.025391 c -4.62191,0.1919 -8.62485,1.241168 -12.21875,3.199218 -4.15115,2.26167 -7.50004,5.743685 -9.18555,9.552735 -0.16806,0.3798 -4.200177,10.703906 -8.958981,22.941406 l -8.652344,22.25 0.05469,0.9375 c 0.36018,6.20951 3.077972,12.0531 7.933594,17.05664 5.16864,5.32609 12.352031,9.36188 20.871091,11.72852 0.9296,0.25825 1.09413,0.28827 0.92773,0.16601 -0.057,-0.0419 -0.43668,-0.30651 -0.84375,-0.58789 -5.38307,-3.72098 -9.09241,-9.27346 -10.61718,-15.89453 -1.750342,-7.60056 -0.74571,-17.05865 2.71875,-25.59375 1.03848,-2.55841 2.71029,-5.73425 4.14257,-7.86914 0.56499,-0.84214 1.30729,-1.84927 1.98047,-2.6875 0.3286,-0.40915 0.71847,-0.91003 0.86524,-1.11328 0.48166,-0.66703 8.08488,-10.19819 8.38086,-10.50586 0.37104,-0.38567 0.83204,-0.69067 1.36523,-0.9043 l 0.42383,-0.16992 h 8.03125 8.03125 l 0.42383,0.16992 c 0.53435,0.21409 0.99495,0.51947 1.36328,0.9043 0.29449,0.30769 7.92056,9.8651 8.39062,10.51562 0.14325,0.19825 0.52883,0.69437 0.85743,1.10352 3.01236,3.75087 5.43604,8.27455 7.16211,13.36914 2.40816,7.10782 3.13767,14.87006 1.99609,21.21875 -1.27973,7.11703 -4.76336,12.88087 -10.25586,16.96875 -0.37813,0.28142 -0.891,0.64727 -1.14063,0.8125 -0.24963,0.16523 -0.44357,0.31227 -0.42968,0.32617 0.0672,0.0672 2.93828,-0.78615 4.60156,-1.36719 12.15847,-4.24734 20.98285,-12.15382 24.01953,-21.52148 0.66882,-2.06316 1.03646,-4.00191 1.16016,-6.125 l 0.0547,-0.9375 -8.67579,-22.3125 c -4.77154,-12.27188 -8.7944,-22.57969 -8.93946,-22.90625 -1.43221,-3.22413 -4.2003,-6.366194 -7.50586,-8.521484 -3.99532,-2.60504 -8.53959,-3.980785 -13.89453,-4.203125 -1.71776,-0.0713 -2.90699,0.138009 -3.95313,0.693359 -0.68276,0.36245 -1.06751,0.666429 -2.26367,1.787109 l -1.00195,0.939453 -1.00391,-0.939453 c -1.19616,-1.12068 -1.57895,-1.424659 -2.26171,-1.787109 -1.04614,-0.55535 -2.23537,-0.764689 -3.95313,-0.693359 z"
         style="fill:#5b4c42;fill-opacity:1;stroke:none;stroke-width:10;stroke-linejoin:round;stroke-miterlimit:4;stroke-dasharray:none;stroke-opacity:0.25882353"
         inkscape:connector-curvature="0" />
      <path
         id="path4564"
         transform="translate(0,796.36216)"
         d="m 107.8125,100.50391 c 0.64734,-0.0386 1.25137,0.16782 1.73828,0.64062 0.58064,0.56381 0.88233,1.36712 0.9336,2.49024 0.12621,2.7658 -1.71587,5.87837 -3.95704,6.6875 -0.53082,0.19165 -1.32954,0.21826 -1.75976,0.0586 -1.20162,-0.44587 -1.83276,-1.73234 -1.74805,-3.56641 0.0687,-1.48727 0.59934,-2.94493 1.51953,-4.17383 0.99328,-1.32651 2.19455,-2.07232 3.27344,-2.13671 z"
         style="fill:#5b4c42;fill-opacity:1;stroke:none;stroke-width:10;stroke-linejoin:round;stroke-miterlimit:4;stroke-dasharray:none;stroke-opacity:0.25882353"
         inkscape:connector-curvature="0" />
      <path
         id="path4566"
         transform="translate(0,796.36216)"
         d="m 150.41211,100.50586 c 0.91144,-0.0463 1.9427,0.41536 2.87305,1.3457 1.93045,1.93046 2.75812,5.16422 1.83984,7.18946 -0.2304,0.50813 -0.72549,1.03262 -1.17969,1.25 -0.41642,0.1993 -1.22809,0.25849 -1.69531,0.12304 -2.3803,-0.69011 -4.36713,-3.87032 -4.23438,-6.77929 0.0513,-1.12312 0.35295,-1.92643 0.9336,-2.49024 0.41214,-0.40019 0.91602,-0.6109 1.46289,-0.63867 z"
         style="fill:#5b4c42;fill-opacity:1;stroke:none;stroke-width:10;stroke-linejoin:round;stroke-miterlimit:4;stroke-dasharray:none;stroke-opacity:0.25882353"
         inkscape:connector-curvature="0" />
      <path
         id="path4568"
         transform="translate(0,796.36216)"
         d="m 116.96484,120.75 c -1.25385,-0.002 -2.47893,0.60339 -3.54492,1.75 l -0.45117,0.48633 -0.55078,-0.59961 c -0.30283,-0.32922 -0.68252,-0.80178 -0.84375,-1.05078 -0.16123,-0.24901 -0.30777,-0.45479 -0.32617,-0.45703 -0.0388,-0.005 -0.68825,0.90175 -1.22852,1.71484 -0.92954,1.39892 -2.24966,3.81361 -3.02344,5.53125 -3.72061,8.25896 -4.95422,18.11927 -3.20898,25.65625 1.07639,4.64844 3.18106,8.51133 6.36523,11.68945 4.36221,4.35391 10.36027,6.96022 17.19141,7.46875 1.1621,0.0865 3.86196,0.0199 5.12109,-0.12695 6.33289,-0.73828 11.79894,-3.26569 15.88282,-7.3418 5.82864,-5.81756 8.10965,-14.07759 6.77148,-24.5332 -0.90597,-7.07871 -3.56227,-14.04736 -7.42383,-19.48438 -0.22583,-0.31795 -0.42496,-0.57731 -0.44336,-0.57617 -0.0184,0.001 -0.16294,0.20505 -0.32226,0.45313 -0.1593,0.24808 -0.53899,0.72148 -0.84375,1.05273 l -0.55469,0.60352 -0.45117,-0.48633 c -1.06599,-1.14661 -2.29108,-1.75184 -3.54492,-1.75 -1.3969,0.002 -2.24315,0.69542 -2.63282,2.15625 -0.29424,1.1031 -0.1292,2.91781 0.38086,4.18555 0.14207,0.35311 0.14473,0.37766 0.043,0.49023 -0.059,0.0653 -0.21992,0.17826 -0.35742,0.25195 -0.24729,0.13252 -0.29458,0.13478 -4.35937,0.15235 l -4.10938,0.0176 v 1.46875 c 0,1.62834 0.0613,2.09183 0.38281,2.89843 0.48404,1.21429 1.5369,2.26337 2.75781,2.75 0.93323,0.37195 1.02329,0.3781 5.5293,0.37891 4.37511,7.9e-4 4.41384,0.004 5.00977,0.30859 0.36612,0.18717 0.83603,0.66554 1.03125,1.05079 0.34884,0.6884 0.41767,-0.0702 -0.95313,10.61132 -0.68806,5.36144 -1.29544,9.93615 -1.34765,10.16602 -0.28955,1.27481 -1.23129,2.28862 -2.50391,2.69336 l -0.4375,0.13867 H 129.25 118.53125 l -0.4375,-0.13867 c -1.27262,-0.40474 -2.21436,-1.41855 -2.50391,-2.69336 -0.0522,-0.22987 -0.65959,-4.80458 -1.34765,-10.16602 -1.3708,-10.68148 -1.30197,-9.92292 -0.95313,-10.61132 0.19522,-0.38524 0.66513,-0.86362 1.03125,-1.05079 0.59593,-0.30466 0.63466,-0.3078 5.00977,-0.30859 4.50601,-8.1e-4 4.59608,-0.007 5.5293,-0.37891 1.22091,-0.48663 2.27377,-1.53571 2.75781,-2.75 C 127.93872,131.56445 128,131.101 128,129.47266 v -1.46875 l -4.10938,-0.0176 c -4.06479,-0.0176 -4.11208,-0.0198 -4.35937,-0.15235 -0.1375,-0.0737 -0.29838,-0.18666 -0.35742,-0.25195 -0.1018,-0.11257 -0.0991,-0.13712 0.043,-0.49023 0.51006,-1.26774 0.6751,-3.08245 0.38086,-4.18555 -0.38967,-1.46083 -1.23593,-2.15419 -2.63282,-2.15625 z"
         style="fill:#5b4c42;fill-opacity:1;stroke:none;stroke-width:10;stroke-linejoin:round;stroke-miterlimit:4;stroke-dasharray:none;stroke-opacity:0.25882353"
         inkscape:connector-curvature="0" />
      <path
         id="path4570"
         transform="translate(0,796.36216)"
         d="m 121.75,138 c -3.4375,0 -6.25,0.0155 -6.25,0.0352 0,0.0899 2.44317,19.01641 2.47461,19.16992 0.0433,0.2114 0.29805,0.52123 0.55469,0.67773 0.1807,0.1102 0.42018,0.11696 4.83008,0.11719 H 128 v -10 -10 z"
         style="fill:#5b4c42;fill-opacity:1;stroke:none;stroke-width:10;stroke-linejoin:round;stroke-miterlimit:4;stroke-dasharray:none;stroke-opacity:0.25882353"
         inkscape:connector-curvature="0" />
      <path
         id="path4572"
         transform="translate(0,796.36216)"
         d="m 130.5,138 v 10 10 h 4.62891 c 3.86228,0 4.65602,-0.0143 4.79687,-0.0879 0.24601,-0.12852 0.48673,-0.41163 0.56445,-0.66211 C 140.53923,157.09201 143,138.24867 143,138.03125 143,138.01445 140.1875,138 136.75,138 Z"
         style="fill:#5b4c42;fill-opacity:1;stroke:none;stroke-width:10;stroke-linejoin:round;stroke-miterlimit:4;stroke-dasharray:none;stroke-opacity:0.25882353"
         inkscape:connector-curvature="0" />
      <g
         id="g4740"
         transform="matrix(0.65018229,0,0,0.65018229,46.026666,841.13528)"
         style="fill:#5b4c42;fill-opacity:1">
        <g
           id="g4737"
           style="fill:#5b4c42;fill-opacity:1;stroke:none;stroke-width:15.38030243;stroke-linejoin:round;stroke-miterlimit:4;stroke-dasharray:none;stroke-opacity:0.25882353">
          <path
             id="path4637"
             d="M117.85352 54.976562C117.26828 54.975455 116.65386 54.992907 116.00586 55.029297L-25.4154962373 196.450653237C-24.7674962373 196.414263237 -24.1530762373 196.396811237 -23.5678362373 196.397918237Z"
             style="fill:#5b4c42;fill-opacity:1" />
          <path
             id="path4639"
             d="M116.00586 55.029297C113.68234 55.159799 111.97498 55.345597 110.02344 55.679688L-31.3979162373 197.101044237C-29.4463762373 196.766953237 -27.7390162373 196.581155237 -25.4154962373 196.450653237Z"
             style="fill:#5b4c42;fill-opacity:1" />
          <path
             id="path4641"
             d="M110.02344 55.679688C103.99028 56.712506 98.430225 58.860165 93.412109 62.091797L-48.0092472373 203.513153237C-42.9911312373 200.281521237 -37.4310762373 198.133862237 -31.3979162373 197.101044237Z"
             style="fill:#5b4c42;fill-opacity:1" />
          <path
             id="path4643"
             d="M93.412109 62.091797L92.513672 62.669922L-48.9076842373 204.091278237L-48.0092472373 203.513153237Z"
             style="fill:#5b4c42;fill-opacity:1" />
          <path
             id="path4645"
             d="M92.513672 62.669922L92.298828 62.4375L-49.1225282373 203.858856237L-48.9076842373 204.091278237Z"
             style="fill:#5b4c42;fill-opacity:1" />
          <path
             id="path4647"
             d="M92.298828 62.4375C92.179062 62.31052 91.16327 61.181552 90.044922 59.929688L-51.3764342373 201.351044237C-50.2580862373 202.602908237 -49.2422942373 203.731876237 -49.1225282373 203.858856237Z"
             style="fill:#5b4c42;fill-opacity:1" />
          <path
             id="path4649"
             d="M90.044922 59.929688C88.531285 58.235317 87.796515 57.492475 87.169922 57.021484L-54.2514342373 198.442840237C-53.6248412373 198.913831237 -52.8900712373 199.656673237 -51.3764342373 201.351044237Z"
             style="fill:#5b4c42;fill-opacity:1" />
          <path
             id="path4651"
             d="M87.169922 57.021484C84.810168 55.247819 82.030141 54.602648 79.273438 55.189453L-62.1479182373 196.610809237C-59.3912152373 196.024004237 -56.6111882373 196.669175237 -54.2514342373 198.442840237Z"
             style="fill:#5b4c42;fill-opacity:1" />
          <path
             id="path4653"
             d="M79.273438 55.189453C77.3947379472 55.5893529263 75.8693034496 56.4084514669 74.4109233379 57.8668315786L-67.0104328994 199.288187816C-65.5520527877 197.829807704 -64.0266182901 197.010709164 -62.1479182373 196.610809237Z"
             style="fill:#5b4c42;fill-opacity:1" />
          <path
             id="path4655"
             d="M74.4109233379 57.8668315786C73.6792748937 58.5984800228 72.9645032699 59.491028312 72.230469 60.572266L-69.1908872373 201.993622237C-68.4568529674 200.912384549 -67.7420813436 200.01983626 -67.0104328994 199.288187816Z"
             style="fill:#5b4c42;fill-opacity:1" />
          <path
             id="path4657"
             d="M72.230469 60.572266C68.3116 66.34477 66.713452 68.81022 66.1875 69.890625L-75.2338562373 211.311981237C-74.7079042373 210.231576237 -73.1097562373 207.766126237 -69.1908872373 201.993622237Z"
             style="fill:#5b4c42;fill-opacity:1" />
          <path
             id="path4659"
             d="M66.1875 69.890625C65.264997 71.785617 64.829499 73.401513 64.636719 75.65625L-76.7846372373 217.077606237C-76.5918572373 214.822869237 -76.1563592373 213.206973237 -75.2338562373 211.311981237Z"
             style="fill:#5b4c42;fill-opacity:1" />
          <path
             id="path4661"
             d="M64.636719 75.65625C64.294761 79.655728 65.606496 83.893998 68.103516 86.857422L-73.3178402373 228.278778237C-75.8148602373 225.315354237 -77.1265952373 221.077084237 -76.7846372373 217.077606237Z"
             style="fill:#5b4c42;fill-opacity:1" />
          <path
             id="path4663"
             d="M68.103516 86.857422C68.345802 87.144957 69.762903 88.740425 71.251953 90.404297L-70.1694032373 231.825653237C-71.6584532373 230.161781237 -73.0755542373 228.566313237 -73.3178402373 228.278778237Z"
             style="fill:#5b4c42;fill-opacity:1" />
          <path
             id="path4665"
             d="M71.251953 90.404297C73.556588 92.979498 73.948794 93.45983 73.882812 93.630859L-67.5385442373 235.052215237C-67.4725622373 234.881186237 -67.8647682373 234.400854237 -70.1694032373 231.825653237Z"
             style="fill:#5b4c42;fill-opacity:1" />
          <path
             id="path4667"
             d="M73.882812 93.630859C73.840186 93.741367 69.123601 105.85689 63.402344 120.55469L-78.0190122373 261.976046237C-72.2977552373 247.278246237 -67.5811702373 235.162723237 -67.5385442373 235.052215237Z"
             style="fill:#5b4c42;fill-opacity:1" />
          <path
             id="path4669"
             d="M63.402344 120.55469L53.0 147.2793L-88.4213562373 288.700656237L-78.0190122373 261.976046237Z"
             style="fill:#5b4c42;fill-opacity:1" />
          <path
             id="path4671"
             d="M53.0 147.2793L53.107422 149.27734L-88.3139342373 290.698696237L-88.4213562373 288.700656237Z"
             style="fill:#5b4c42;fill-opacity:1" />
          <path
             id="path4673"
             d="M53.107422 149.27734C53.225338 151.46499 53.290068 152.05076 53.654297 154.19922L-87.7670592373 295.620576237C-88.1312882373 293.472116237 -88.1960182373 292.886346237 -88.3139342373 290.698696237Z"
             style="fill:#5b4c42;fill-opacity:1" />
          <path
             id="path4675"
             d="M53.654297 154.19922C54.861506 161.32008 58.085622 168.31767 62.955078 174.38672L-78.4662782373 315.808076237C-83.3357342373 309.739026237 -86.5598502373 302.741436237 -87.7670592373 295.620576237Z"
             style="fill:#5b4c42;fill-opacity:1" />
          <path
             id="path4677"
             d="M62.955078 174.38672C67.802812 180.4287 74.012523 185.53669 81.777344 189.87109L-59.6440122373 331.292446237C-67.4088332373 326.958046237 -73.6185442373 321.850056237 -78.4662782373 315.808076237Z"
             style="fill:#5b4c42;fill-opacity:1" />
          <path
             id="path4679"
             d="M81.777344 189.87109C92.034812 195.5969 104.90814 199.39129 118.09961 200.57812L-23.3217462373 341.999476237C-36.5132162373 340.812646237 -49.3865442373 337.018256237 -59.6440122373 331.292446237Z"
             style="fill:#5b4c42;fill-opacity:1" />
          <path
             id="path4681"
             d="M118.09961 200.57812C119.88482 200.73874 120.97602 200.80687 124.875 201.00391L-16.5463562373 342.425266237C-20.4453362373 342.228226237 -21.5365362373 342.160096237 -23.3217462373 341.999476237Z"
             style="fill:#5b4c42;fill-opacity:1" />
          <path
             id="path4683"
             d="M124.875 201.00391C126.05653 201.06374 132.31447 200.97456 134.00781 200.87305L-7.41354623731 342.294406237C-9.10688623731 342.395916237 -15.3648262373 342.485096237 -16.5463562373 342.425266237Z"
             style="fill:#5b4c42;fill-opacity:1" />
          <path
             id="path4685"
             d="M134.00781 200.87305C146.66625 200.11417 157.98785 197.45043 168.41016 192.77734L26.9888037627 334.198696237C16.5664937627 338.871786237 5.24489376269 341.535526237 -7.41354623731 342.294406237Z"
             style="fill:#5b4c42;fill-opacity:1" />
          <path
             id="path4687"
             d="M168.41016 192.77734C176.53862358 189.132751209 183.481535883 184.41269921 188.961910344 178.932324749L47.5405541068 320.353680986C42.0601796458 325.834055447 35.1172673426 330.554107446 26.9888037627 334.198696237Z"
             style="fill:#5b4c42;fill-opacity:1" />
          <path
             id="path4689"
             d="M188.961910344 178.932324749C196.138388803 171.75584629 200.806971882 163.275600409 202.3457 154.19922L60.9243437627 295.620576237C59.3856156444 304.696956646 54.7170325662 313.177202527 47.5405541068 320.353680986Z"
             style="fill:#5b4c42;fill-opacity:1" />
          <path
             id="path4691"
             d="M202.3457 154.19922C202.70994 152.05076 202.77461 151.46499 202.89258 149.27734L61.4712237627 290.698696237C61.3532537627 292.886346237 61.2885837627 293.472116237 60.9243437627 295.620576237Z"
             style="fill:#5b4c42;fill-opacity:1" />
          <path
             id="path4693"
             d="M202.89258 149.27734L203.0 147.2793L61.5786437627 288.700656237L61.4712237627 290.698696237Z"
             style="fill:#5b4c42;fill-opacity:1" />
          <path
             id="path4695"
             d="M203.0 147.2793L192.59766 120.55469L51.1763037627 261.976046237L61.5786437627 288.700656237Z"
             style="fill:#5b4c42;fill-opacity:1" />
          <path
             id="path4697"
             d="M192.59766 120.55469C186.8764 105.85689 182.15979 93.741444 182.11719 93.630859L40.6958337627 235.052215237C40.7384337627 235.162800237 45.4550437627 247.278246237 51.1763037627 261.976046237Z"
             style="fill:#5b4c42;fill-opacity:1" />
          <path
             id="path4699"
             d="M182.11719 93.630859C182.05121 93.45983 182.44342 92.979498 184.74805 90.404297L43.3266937627 231.825653237C41.0220637627 234.400854237 40.6298537627 234.881186237 40.6958337627 235.052215237Z"
             style="fill:#5b4c42;fill-opacity:1" />
          <path
             id="path4701"
             d="M184.74805 90.404297C188.01019 86.759165 188.19898 86.536147 188.83008 85.595703L47.4087237627 227.017059237C46.7776237627 227.957503237 46.5888337627 228.180521237 43.3266937627 231.825653237Z"
             style="fill:#5b4c42;fill-opacity:1" />
          <path
             id="path4703"
             d="M188.83008 85.595703C191.11416 82.191952 191.9652 77.552437 191.05664 73.453125L49.6352837627 214.874481237C50.5438437627 218.973793237 49.6928037627 223.613308237 47.4087237627 227.017059237Z"
             style="fill:#5b4c42;fill-opacity:1" />
          <path
             id="path4705"
             d="M191.05664 73.453125C190.46897 70.801638 189.91415 69.730431 186.48633 64.607422L45.0649737627 206.028778237C48.4927937627 211.151787237 49.0476137627 212.222994237 49.6352837627 214.874481237Z"
             style="fill:#5b4c42;fill-opacity:1" />
          <path
             id="path4707"
             d="M186.48633 64.607422C182.97016 59.352373 182.50072 58.706395 181.48828 57.748047L40.0669237627 199.169403237C41.0793637627 200.127751237 41.5488037627 200.773729237 45.0649737627 206.028778237Z"
             style="fill:#5b4c42;fill-opacity:1" />
          <path
             id="path4709"
             d="M181.48828 57.748047C179.51113 55.876496 177.35412 55.005567 174.7168 55.011719L33.2954437627 196.433075237C35.9327637627 196.426923237 38.0897737627 197.297852237 40.0669237627 199.169403237Z"
             style="fill:#5b4c42;fill-opacity:1" />
          <path
             id="path4711"
             d="M174.7168 55.011719C172.37348 55.017456 170.48928 55.694933 168.57422 57.220703L27.1528637627 198.642059237C29.0679237627 197.116289237 30.9521237627 196.438812237 33.2954437627 196.433075237Z"
             style="fill:#5b4c42;fill-opacity:1" />
          <path
             id="path4713"
             d="M168.57422 57.220703C168.433417822 57.3328826106 168.230229857 57.5216513861 167.961580691 57.7903005523L26.5402244539 199.21165679C26.8088736201 198.943007623 27.0120615849 198.754238848 27.1528637627 198.642059237Z"
             style="fill:#5b4c42;fill-opacity:1" />
          <path
             id="path4715"
             d="M167.961580691 57.7903005523C167.168147149 58.5837340947 165.80371626 60.0739390099 163.78906 62.345703L22.3677037627 203.767059237C24.3823600223 201.495295247 25.7467909115 200.005090332 26.5402244539 199.21165679Z"
             style="fill:#5b4c42;fill-opacity:1" />
          <path
             id="path4717"
             d="M163.78906 62.345703L163.49805 62.675781L22.0766937627 204.097137237L22.3677037627 203.767059237Z"
             style="fill:#5b4c42;fill-opacity:1" />
          <path
             id="path4719"
             d="M163.49805 62.675781L162.59375 62.095703L21.1723937627 203.517059237L22.0766937627 204.097137237Z"
             style="fill:#5b4c42;fill-opacity:1" />
          <path
             id="path4721"
             d="M162.59375 62.095703C159.93885 60.38589 157.01283 58.918414 154.19531 57.886719L12.7739537627 199.308075237C15.5914737627 200.339770237 18.5174937627 201.807246237 21.1723937627 203.517059237Z"
             style="fill:#5b4c42;fill-opacity:1" />
          <path
             id="path4723"
             d="M154.19531 57.886719C153.66661 57.693112 153.08152 57.476999 152.89648 57.40625L11.4751237627 198.827606237C11.6601637627 198.898355237 12.2452537627 199.114468237 12.7739537627 199.308075237Z"
             style="fill:#5b4c42;fill-opacity:1" />
          <path
             id="path4725"
             d="M152.89648 57.40625C152.71144 57.335485 151.8674 57.078838 151.02148 56.837891L9.60012376269 198.259247237C10.4460437627 198.500194237 11.2900837627 198.756841237 11.4751237627 198.827606237Z"
             style="fill:#5b4c42;fill-opacity:1" />
          <path
             id="path4727"
             d="M151.02148 56.837891C147.29598 55.776696 144.16695 55.263677 139.99414 55.029297L-1.42721623731 196.450653237C2.74559376269 196.685033237 5.87462376269 197.198052237 9.60012376269 198.259247237Z"
             style="fill:#5b4c42;fill-opacity:1" />
          <path
             id="path4729"
             d="M139.99414 55.029297C134.81018 54.738117 131.7803 55.608491 128.60156 58.292969L-12.8197962373 199.714325237C-9.64105623731 197.029847237 -6.61117623731 196.159473237 -1.42721623731 196.450653237Z"
             style="fill:#5b4c42;fill-opacity:1" />
          <path
             id="path4731"
             d="M128.60156 58.292969L128.0 58.800781L-13.4213562373 200.222137237L-12.8197962373 199.714325237Z"
             style="fill:#5b4c42;fill-opacity:1" />
          <path
             id="path4733"
             d="M128.0 58.800781L127.39844 58.292969L-14.0229162373 199.714325237L-13.4213562373 200.222137237Z"
             style="fill:#5b4c42;fill-opacity:1" />
          <path
             id="path4735"
             d="M127.39844 58.292969C124.61705 55.944051 121.95026 54.984253 117.85352 54.976562L-23.5678362373 196.397918237C-19.4710962373 196.405609237 -16.8043062373 197.365407237 -14.0229162373 199.714325237Z"
             style="fill:#5b4c42;fill-opacity:1" />
        </g>
        <path
           id="path4560"
           transform=""
           d="M 117.85352 54.976562 C 117.26828 54.975455 116.65386 54.992907 116.00586 55.029297 C 113.68234 55.159799 111.97498 55.345597 110.02344 55.679688 C 103.99028 56.712506 98.430225 58.860165 93.412109 62.091797 L 92.513672 62.669922 L 92.298828 62.4375 C 92.179062 62.31052 91.16327 61.181552 90.044922 59.929688 C 88.531285 58.235317 87.796515 57.492475 87.169922 57.021484 C 84.810168 55.247819 82.030141 54.602648 79.273438 55.189453 C 76.452221 55.789977 74.427639 57.335819 72.230469 60.572266 C 68.3116 66.34477 66.713452 68.81022 66.1875 69.890625 C 65.264997 71.785617 64.829499 73.401513 64.636719 75.65625 C 64.294761 79.655728 65.606496 83.893998 68.103516 86.857422 C 68.345802 87.144957 69.762903 88.740425 71.251953 90.404297 C 73.556588 92.979498 73.948794 93.45983 73.882812 93.630859 C 73.840186 93.741367 69.123601 105.85689 63.402344 120.55469 L 53 147.2793 L 53.107422 149.27734 C 53.225338 151.46499 53.290068 152.05076 53.654297 154.19922 C 54.861506 161.32008 58.085622 168.31767 62.955078 174.38672 C 67.802812 180.4287 74.012523 185.53669 81.777344 189.87109 C 92.034812 195.5969 104.90814 199.39129 118.09961 200.57812 C 119.88482 200.73874 120.97602 200.80687 124.875 201.00391 C 126.05653 201.06374 132.31447 200.97456 134.00781 200.87305 C 146.66625 200.11417 157.98785 197.45043 168.41016 192.77734 C 187.18274 184.36021 199.63191 170.20685 202.3457 154.19922 C 202.70994 152.05076 202.77461 151.46499 202.89258 149.27734 L 203 147.2793 L 192.59766 120.55469 C 186.8764 105.85689 182.15979 93.741444 182.11719 93.630859 C 182.05121 93.45983 182.44342 92.979498 184.74805 90.404297 C 188.01019 86.759165 188.19898 86.536147 188.83008 85.595703 C 191.11416 82.191952 191.9652 77.552437 191.05664 73.453125 C 190.46897 70.801638 189.91415 69.730431 186.48633 64.607422 C 182.97016 59.352373 182.50072 58.706395 181.48828 57.748047 C 179.51113 55.876496 177.35412 55.005567 174.7168 55.011719 C 172.37348 55.017456 170.48928 55.694933 168.57422 57.220703 C 168.01757 57.664196 166.48586 59.304741 163.78906 62.345703 L 163.49805 62.675781 L 162.59375 62.095703 C 159.93885 60.38589 157.01283 58.918414 154.19531 57.886719 C 153.66661 57.693112 153.08152 57.476999 152.89648 57.40625 C 152.71144 57.335485 151.8674 57.078838 151.02148 56.837891 C 147.29598 55.776696 144.16695 55.263677 139.99414 55.029297 C 134.81018 54.738117 131.7803 55.608491 128.60156 58.292969 L 128 58.800781 L 127.39844 58.292969 C 124.61705 55.944051 121.95026 54.984253 117.85352 54.976562 z "
           style="fill:#5b4c42;fill-opacity:1;stroke:none;stroke-width:15.38030243;stroke-linejoin:round;stroke-miterlimit:4;stroke-dasharray:none;stroke-opacity:0.25882353" />
      </g>
    </g>
    <path
       id="circle4429"
       d="m 117.8526,851.33821 c -0.58523,-10e-4 -1.19943,0.0177 -1.84743,0.0541 -2.32352,0.13051 -4.02935,0.31477 -5.9809,0.64886 -6.03315,1.03282 -11.593807,3.18183 -16.611922,6.41347 l -0.898195,0.57676 -0.216277,-0.23131 c -0.119813,-0.12698 -1.134621,-1.25644 -2.252969,-2.50831 -1.513637,-1.69437 -2.248215,-2.43685 -2.874809,-2.90784 -2.359753,-1.77367 -5.140713,-2.41922 -7.897417,-1.83242 -2.821217,0.60053 -4.844125,2.14666 -7.041295,5.38311 -3.918868,5.7725 -5.518025,8.2379 -6.043977,9.3183 -0.922503,1.89499 -1.357267,3.50987 -1.550047,5.76461 -0.341958,3.99948 0.969557,8.23836 3.466577,11.20177 0.242286,0.28754 1.659106,1.88381 3.148156,3.54769 2.304635,2.5752 2.697454,3.05523 2.631472,3.22626 -0.04263,0.11043 -4.759577,12.22674 -10.480834,26.92454 l -10.402732,26.72328 0.108139,1.99764 c 0.117921,2.18764 0.182492,2.77503 0.546721,4.92349 1.207209,7.12087 4.43082,14.1176 9.300276,20.18665 4.847734,6.04198 11.058026,11.15104 18.822847,15.48544 10.257473,5.72581 23.129476,9.5193 36.320946,10.70614 1.78521,0.16061 2.87796,0.22952 6.77695,0.42655 1.18153,0.0598 7.43871,-0.0306 9.13205,-0.13211 12.65844,-0.75888 23.97911,-3.4226 34.40142,-8.09569 18.77258,-8.41713 31.22199,-22.56928 33.93579,-38.57692 0.36423,-2.14846 0.42875,-2.73584 0.54672,-4.92349 l 0.10812,-1.99764 -10.40273,-26.72328 c -5.72125,-14.6978 -10.43822,-26.81395 -10.48083,-26.92454 -0.066,-0.17103 0.32684,-0.65106 2.63147,-3.22626 3.26214,-3.64513 3.45129,-3.8689 4.08239,-4.80935 2.28407,-3.40374 3.13451,-8.0427 2.22595,-12.14202 -0.58767,-2.65148 -1.14122,-3.72366 -4.56905,-8.84667 -3.51616,-5.25505 -3.98616,-5.89971 -4.99859,-6.85806 -1.97716,-1.87155 -4.13361,-2.74276 -6.77094,-2.73661 -2.34331,0.006 -4.22804,0.68215 -6.1431,2.20792 -0.55665,0.44349 -2.08853,2.0838 -4.78532,5.12476 l -0.29138,0.33044 -0.9042,-0.57977 c -2.6549,-1.70981 -5.58157,-3.17686 -8.39909,-4.20855 -0.5287,-0.19361 -1.11267,-0.40989 -1.29771,-0.48064 -0.18504,-0.0708 -1.02856,-0.3268 -1.87447,-0.56775 -3.72551,-1.06119 -6.85474,-1.574 -11.02756,-1.80838 -5.18396,-0.29118 -8.21531,0.57782 -11.39405,3.2623 l -0.60078,0.50767 -0.60079,-0.50767 c -2.78139,-2.34892 -5.44987,-3.30863 -9.54661,-3.31638 z m -0.95525,3.85709 c 2.64196,-0.10971 4.47103,0.21226 6.08003,1.06641 1.0501,0.55745 1.63885,1.02498 3.47858,2.74862 l 1.54404,1.44491 1.54103,-1.44491 c 1.83973,-1.72364 2.43149,-2.19117 3.48159,-2.74862 1.609,-0.85415 3.43807,-1.17607 6.08004,-1.06641 8.23606,0.34196 15.22528,2.4579 21.3702,6.46453 5.08405,3.3149 9.34146,8.14749 11.54424,13.1063 0.22311,0.50226 6.41039,16.35598 13.74915,35.23051 l 13.34362,34.31729 -0.0841,1.44191 c -0.19025,3.26537 -0.75569,6.24723 -1.78436,9.42043 -4.6705,14.40775 -18.24267,26.56815 -36.94276,33.10069 -2.55817,0.89366 -6.97398,2.20613 -7.07734,2.10278 -0.0214,-0.0214 0.27692,-0.24753 0.66086,-0.50166 0.38394,-0.25413 1.17275,-0.81682 1.75433,-1.24965 8.44763,-6.28728 13.80556,-15.15224 15.77382,-26.09845 1.75578,-9.76448 0.63377,-21.70304 -3.07005,-32.63508 -2.65475,-7.83563 -6.38244,-14.79319 -11.01554,-20.56214 -0.5054,-0.62928 -1.09843,-1.39233 -1.31875,-1.69725 -0.72297,-1.00052 -12.4521,-15.7001 -12.90503,-16.17334 -0.5665,-0.59188 -1.27492,-1.06156 -2.09677,-1.39084 l -0.65186,-0.26134 H 128 115.6477 l -0.65187,0.26134 c -0.82006,0.32857 -1.52909,0.79767 -2.09976,1.39084 -0.45523,0.47321 -12.14921,15.13242 -12.89002,16.15833 -0.225734,0.31261 -0.825366,1.08298 -1.330763,1.71226 -1.035371,1.28922 -2.177051,2.83822 -3.046023,4.13346 -2.20289,3.28352 -4.774184,8.16806 -6.371397,12.10297 -5.328445,13.12724 -6.873604,27.67407 -4.18152,39.36396 2.345142,10.18341 8.050219,18.72329 16.329543,24.44627 0.62609,0.43277 1.21005,0.83975 1.29771,0.90419 0.25593,0.18804 0.003,0.14181 -1.42687,-0.25533 -13.102575,-3.63996 -24.150852,-9.84713 -32.100376,-18.03881 -7.468094,-7.6956 -11.64814,-16.68322 -12.202107,-26.23363 l -0.08411,-1.44191 13.307566,-34.22117 c 7.319184,-18.82164 13.520707,-34.70043 13.779188,-35.28457 2.592365,-5.85844 7.743059,-11.21388 14.127653,-14.6924 5.527526,-3.01154 11.684166,-4.62534 18.792806,-4.92049 z m -21.868871,26.88249 c -1.659365,0.099 -3.506955,1.24611 -5.03465,3.28632 -1.41528,1.89009 -2.23142,4.13201 -2.337083,6.41948 -0.130271,2.82085 0.840426,4.79948 2.688554,5.48525 0.661691,0.24557 1.890147,0.20465 2.706564,-0.0901 3.446987,-1.24447 6.280162,-6.0317 6.086047,-10.28558 -0.0789,-1.72739 -0.542863,-2.96291 -1.435905,-3.83006 -0.748882,-0.72718 -1.677899,-1.04473 -2.673527,-0.9853 z m 65.519491,0.003 c -0.84111,0.0428 -1.61609,0.36679 -2.24997,0.9823 -0.89306,0.86716 -1.35701,2.10267 -1.43591,3.83006 -0.20417,4.47409 2.85163,9.36535 6.51261,10.42676 0.71859,0.20832 1.96697,0.11735 2.60743,-0.18924 0.69858,-0.33434 1.46004,-1.14102 1.8144,-1.92254 1.41235,-3.11488 0.13935,-8.0885 -2.82973,-11.05761 -1.4309,-1.43089 -3.01701,-2.14092 -4.41883,-2.06973 z m -51.44292,31.13603 c 2.14846,0.003 3.45004,1.06957 4.04936,3.31637 0.45255,1.69661 0.19871,4.48768 -0.58577,6.43751 -0.21856,0.54309 -0.22266,0.58085 -0.0661,0.75399 0.0907,0.10043 0.33825,0.27415 0.54972,0.3875 0.38034,0.20384 0.45308,0.20725 6.70485,0.23432 l 6.32039,0.027 v 2.25898 c 0,2.50444 -0.0943,3.21724 -0.58877,4.45787 -0.74447,1.86762 -2.3638,3.48114 -4.24159,4.22959 -1.43533,0.57199 -1.57386,0.58153 -8.50424,0.58277 -6.72905,10e-4 -6.78861,0.006 -7.70517,0.47462 -0.56311,0.28788 -1.28584,1.02364 -1.5861,1.61615 -0.53652,1.05878 -0.64239,-0.10797 1.46595,16.32053 1.05825,8.24606 1.99244,15.2821 2.07272,15.63565 0.44534,1.96069 1.89376,3.51996 3.85109,4.14247 l 0.67289,0.21327 H 128 144.48576 l 0.67289,-0.21327 c 1.95733,-0.62251 3.40575,-2.18178 3.85109,-4.14247 0.0803,-0.35355 1.01447,-7.38959 2.07273,-15.63565 2.10833,-16.42848 2.00247,-15.26175 1.46594,-16.32053 -0.30026,-0.59253 -1.02299,-1.32827 -1.58609,-1.61615 -0.91656,-0.46897 -0.97613,-0.4734 -7.70518,-0.47462 -6.93038,-0.001 -7.0689,-0.0108 -8.50423,-0.58277 -1.8778,-0.74845 -3.49713,-2.36197 -4.2416,-4.22959 -0.49451,-1.24057 -0.58877,-1.95343 -0.58877,-4.45787 v -2.25898 l 6.32035,-0.0271 c 6.25177,-0.0271 6.3245,-0.0304 6.70484,-0.23432 0.21148,-0.11335 0.45898,-0.28707 0.54973,-0.38751 0.15651,-0.17313 0.15241,-0.21089 -0.0661,-0.75398 -0.78449,-1.94983 -1.03832,-4.74091 -0.58577,-6.43751 0.59932,-2.2468 1.90088,-3.3133 4.04935,-3.31637 1.92845,-0.003 3.81267,0.92803 5.4522,2.69155 l 0.69391,0.74799 0.85313,-0.92823 c 0.46873,-0.50948 1.0527,-1.23758 1.29771,-1.61913 0.24504,-0.38156 0.46735,-0.69539 0.49565,-0.69693 0.0283,-0.002 0.33457,0.39715 0.6819,0.88617 5.93919,8.3623 10.02466,19.08029 11.41807,29.96756 2.05815,16.08104 -1.45011,28.78522 -10.41474,37.7328 -6.28113,6.26918 -14.68808,10.15642 -24.42825,11.29191 -1.93658,0.22579 -6.08905,0.3283 -7.87639,0.19526 -10.5065,-0.78214 -19.7317,-4.79072 -26.440913,-11.48717 -4.897349,-4.88804 -8.134395,-10.82928 -9.789916,-17.97872 -2.684231,-11.59211 -0.786902,-26.75756 4.935509,-39.46009 1.190097,-2.64178 3.220481,-6.35565 4.650142,-8.50723 0.830951,-1.25056 1.829828,-2.64517 1.889498,-2.63748 0.0283,0.003 0.25369,0.31994 0.50166,0.70293 0.24798,0.38297 0.83195,1.10978 1.29771,1.61613 l 0.84712,0.92222 0.69391,-0.74799 c 1.63953,-1.76352 3.52374,-2.69463 5.4522,-2.69155 z m 7.35972,26.53102 h 9.61269 v 15.3803 15.3803 h -7.13741 c -6.78256,-3.5e-4 -7.15089,-0.0108 -7.42881,-0.18024 -0.39472,-0.2407 -0.78653,-0.71723 -0.85313,-1.04237 -0.0483,-0.2361 -3.80602,-29.34565 -3.80602,-29.48392 0,-0.0303 4.32571,-0.0541 9.61268,-0.0541 z m 13.45777,0 h 9.61269 c 5.28698,0 9.61269,0.0223 9.61269,0.048 0,0.3344 -3.78474,29.31603 -3.86011,29.55902 -0.1195,0.38525 -0.48977,0.82068 -0.86814,1.01835 -0.21663,0.1132 -1.43742,0.13519 -7.37773,0.13519 h -7.1194 v -15.3803 z"
       style="fill:#c42626;fill-opacity:1;stroke:none;stroke-width:15.38030243;stroke-linejoin:round;stroke-miterlimit:4;stroke-dasharray:none;stroke-opacity:0.25882353"
       inkscape:connector-curvature="0" />
    <path
       inkscape:connector-curvature="0"
       id="path4427"
       d="m 124.87588,997.36723 c -3.89899,-0.19704 -4.99174,-0.2658 -6.77695,-0.42642 -13.19147,-1.18684 -26.063965,-4.9816 -36.321432,-10.70741 -7.764821,-4.3344 -13.973842,-9.44256 -18.821577,-15.48454 -4.869456,-6.06905 -8.092892,-13.06578 -9.300101,-20.18664 -0.364228,-2.14846 -0.429562,-2.73602 -0.547478,-4.92367 l -0.107663,-1.99747 10.402285,-26.72328 c 5.721257,-14.6978 10.437162,-26.81369 10.479788,-26.9242 0.06598,-0.17103 -0.325227,-0.65094 -2.629862,-3.22614 -1.48905,-1.66387 -2.905601,-3.26049 -3.147887,-3.54802 -2.497019,-2.96343 -3.808999,-7.20238 -3.467041,-11.20186 0.19278,-2.25474 0.626833,-3.86974 1.549336,-5.76474 0.525953,-1.0804 2.124964,-3.54571 6.043833,-9.31821 2.19717,-3.23645 4.219549,-4.78272 7.040765,-5.38325 2.756704,-0.5868 5.539079,0.0588 7.898833,1.83243 0.626578,0.47099 1.361433,1.21447 2.87507,2.90884 1.118348,1.25187 2.131341,2.38003 2.251108,2.50701 l 0.217754,0.23087 0.896425,-0.5773 c 5.018116,-3.23163 10.580034,-5.37787 16.613184,-6.41069 1.95155,-0.33409 3.6563,-0.51936 5.97982,-0.64987 5.18396,-0.29118 8.21639,0.57667 11.39511,3.26115 l 0.6008,0.50737 0.60079,-0.50737 c 3.17874,-2.68448 6.21116,-3.55233 11.39512,-3.26115 4.17282,0.23438 7.30097,0.7475 11.02648,1.8087 0.84592,0.24094 1.68943,0.49598 1.87448,0.56675 0.18504,0.0707 0.76901,0.28705 1.29771,0.48066 2.81752,1.0317 5.74517,2.49836 8.40007,4.20817 l 0.90218,0.58101 0.29329,-0.33071 c 2.6968,-3.04096 4.22837,-4.68128 4.78501,-5.12478 1.91506,-1.52577 3.79923,-2.20341 6.14254,-2.20914 2.63732,-0.006 4.79436,0.86538 6.77151,2.73694 1.01244,0.95834 1.48173,1.60222 4.9979,6.85727 3.42782,5.12301 3.98234,6.1966 4.57001,8.84809 0.90856,4.09931 0.0581,8.73776 -2.22593,12.14152 -0.6311,0.94044 -0.8219,1.16518 -4.08404,4.81031 -2.30463,2.5752 -2.69585,3.05511 -2.62986,3.22614 0.0426,0.11059 4.75852,12.2264 10.47978,26.9242 l 10.40228,26.72328 -0.10766,1.99747 c -0.11797,2.18765 -0.18324,2.77521 -0.54748,4.92367 -2.71379,16.00763 -15.16264,30.15894 -33.93522,38.57607 -10.42231,4.67309 -21.74259,7.33726 -34.40103,8.09614 -1.69334,0.10151 -7.95052,0.1925 -9.13205,0.13274 z m 8.06921,-4.07701 c 9.74018,-1.1355 18.14759,-5.02123 24.42872,-11.29041 8.96462,-8.94758 12.47058,-21.65286 10.41243,-37.73391 -1.39341,-10.88727 -5.47614,-21.60526 -11.41533,-29.96756 -0.34734,-0.48903 -0.65467,-0.88774 -0.68297,-0.88598 -0.0283,0.002 -0.25193,0.31535 -0.49696,0.69691 -0.24501,0.38155 -0.82899,1.11058 -1.29772,1.62005 l -0.8522,0.9263 -0.69498,-0.74755 c -1.63952,-1.76352 -3.52276,-2.69284 -5.45121,-2.69001 -2.14847,0.003 -3.44945,1.06844 -4.04877,3.31524 -0.45255,1.6966 -0.19856,4.48657 0.58593,6.43639 0.21851,0.5431 0.22187,0.58207 0.0654,0.75521 -0.0907,0.10043 -0.33812,0.27529 -0.5496,0.38863 -0.38034,0.20381 -0.45308,0.20634 -6.70485,0.23336 l -6.32034,0.0274 v 2.25975 c 0,2.50443 0.0938,3.21488 0.58833,4.45546 0.74447,1.86761 2.36406,3.48337 4.24185,4.23183 1.43533,0.57207 1.57299,0.58151 8.50337,0.58275 6.72905,10e-4 6.79098,0.005 7.70753,0.4736 0.56311,0.28787 1.28421,1.0232 1.58447,1.61571 0.53652,1.05878 0.64136,-0.10766 -1.46698,16.32082 -1.05825,8.24606 -1.98981,15.2821 -2.07011,15.63565 -0.44533,1.9607 -1.89502,3.51927 -3.85235,4.14178 l -0.67289,0.214 H 128 111.51424 l -0.67289,-0.214 c -1.95733,-0.62251 -3.40701,-2.18108 -3.85235,-4.14178 -0.0803,-0.35355 -1.01185,-7.38959 -2.07011,-15.63565 -2.10833,-16.42843 -2.0035,-15.26204 -1.46697,-16.32082 0.30025,-0.59251 1.02136,-1.32784 1.58446,-1.61571 0.91656,-0.46858 0.97848,-0.47238 7.70753,-0.4736 6.93038,-10e-4 7.06805,-0.0108 8.50337,-0.58275 1.8778,-0.74846 3.49739,-2.36422 4.24186,-4.23183 0.49452,-1.24064 0.58832,-1.95109 0.58832,-4.45552 v -2.25975 l -6.32033,-0.0274 c -6.25177,-0.0271 -6.32452,-0.0295 -6.70486,-0.23337 -0.21148,-0.11335 -0.45879,-0.28821 -0.5496,-0.38863 -0.15657,-0.17313 -0.15319,-0.21211 0.0654,-0.7552 0.78448,-1.94982 1.03847,-4.73979 0.58592,-6.43639 -0.59932,-2.2468 -1.90029,-3.31208 -4.04875,-3.31524 -1.92846,-0.003 -3.8117,0.92649 -5.45123,2.69001 l -0.69497,0.74755 -0.84686,-0.92064 c -0.46576,-0.50635 -1.04973,-1.23399 -1.29771,-1.61696 -0.24798,-0.38299 -0.47402,-0.69914 -0.50232,-0.70259 -0.0597,-0.008 -1.058395,1.38667 -1.889347,2.63723 -1.42966,2.15158 -3.459445,5.86545 -4.649542,8.50723 -5.722411,12.70253 -7.618925,27.86799 -4.934693,39.46009 1.65552,7.14944 4.890367,13.09179 9.787717,17.97983 6.709215,6.69645 15.935435,10.70437 26.441935,11.4865 1.78735,0.13304 5.94038,0.0297 7.87696,-0.19609 z m -30.24164,-3.00662 c -0.0877,-0.0644 -0.67163,-0.47119 -1.29771,-0.90396 -8.279328,-5.72298 -13.983559,-14.26305 -16.328701,-24.44645 -2.692079,-11.6899 -1.14674,-26.23672 4.181704,-39.36397 1.597214,-3.93491 4.169046,-8.8202 6.371952,-12.10372 0.868956,-1.29524 2.009544,-2.84315 3.044915,-4.13237 0.505397,-0.62928 1.103583,-1.39993 1.32932,-1.71253 0.74081,-1.02592 12.43603,-15.68457 12.89126,-16.15778 0.57067,-0.59317 1.2797,-1.0631 2.09977,-1.39167 l 0.65174,-0.26113 H 128 140.35231 l 0.65174,0.26113 c 0.82184,0.32928 1.53097,0.79979 2.09747,1.39167 0.45293,0.47324 12.18043,15.17125 12.9034,16.17177 0.22032,0.30492 0.81408,1.06926 1.31947,1.69854 4.6331,5.76895 8.36001,12.72617 11.01476,20.5618 3.70382,10.93205 4.82752,22.87061 3.07174,32.63508 -1.96827,10.94621 -7.32678,19.81205 -15.77441,26.09933 -0.58157,0.43283 -1.37152,0.99491 -1.75546,1.24903 -0.38395,0.25413 -0.68058,0.47955 -0.65922,0.50092 0.10336,0.10336 4.51866,-1.20746 7.07684,-2.10111 18.70009,-6.53254 32.27316,-18.69413 36.94367,-33.10187 1.02866,-3.17321 1.59323,-6.15539 1.78348,-9.42076 l 0.084,-1.44158 -13.3432,-34.3173 c -7.33876,-18.87452 -13.52575,-34.72825 -13.74885,-35.23051 -2.20278,-4.9588 -6.45956,-9.7921 -11.54361,-13.107 -6.14492,-4.00663 -13.13542,-6.12043 -21.37148,-6.4624 -2.64197,-0.10966 -4.47038,0.21051 -6.07938,1.06466 -1.0501,0.55745 -1.64101,1.02389 -3.48074,2.74753 l -1.54254,1.4452 -1.54254,-1.4452 c -1.83973,-1.72364 -2.43064,-2.19008 -3.48074,-2.74753 -1.609,-0.85415 -3.43741,-1.17437 -6.07937,-1.06466 -7.10864,0.29515 -13.26528,1.90627 -18.792811,4.91781 -6.384594,3.47851 -11.536027,8.83653 -14.128392,14.69497 -0.258481,0.58414 -6.458389,16.46161 -13.777573,35.28326 l -13.307609,34.22117 0.08362,1.44158 c 0.553966,9.55041 4.734448,18.53771 12.202541,26.2333 7.949525,8.19169 18.997026,14.40058 32.099604,18.04054 1.42975,0.3972 1.68265,0.44225 1.42672,0.25421 z M 90.344008,897.26976 c -1.848128,-0.68576 -2.817871,-2.66525 -2.687585,-5.48611 0.105663,-2.28746 0.922142,-4.5302 2.337422,-6.42029 2.444299,-3.26434 5.710814,-4.23904 7.707823,-2.29991 0.893042,0.86716 1.355973,2.103 1.434813,3.83039 0.194114,4.25388 -2.638137,9.04128 -6.085125,10.28575 -0.816417,0.29476 -2.045657,0.3357 -2.707348,0.0901 z m 73.030692,0.0506 c -3.66098,-1.06141 -6.71535,-5.9525 -6.51116,-10.42658 0.0789,-1.72739 0.54174,-2.96323 1.43479,-3.83039 1.69035,-1.64135 4.37981,-1.2034 6.66924,1.08604 2.96909,2.9691 4.24181,7.94304 2.82947,11.05793 -0.35436,0.78151 -1.11759,1.59038 -1.81617,1.92472 -0.64046,0.30653 -1.88758,0.39661 -2.60617,0.18828 z m -37.29724,57.80788 v -15.3803 h -9.61269 c -5.28697,0 -9.61268,0.0249 -9.61268,0.0552 0,0.13826 3.7584,29.24593 3.80676,29.48204 0.0666,0.32513 0.45658,0.80354 0.8513,1.04424 0.27792,0.16949 0.64736,0.17837 7.4299,0.17872 h 7.13741 v -15.3803 z m 18.34098,15.2447 c 0.37837,-0.19767 0.74995,-0.63267 0.86948,-1.01792 0.0754,-0.24299 3.86,-29.22585 3.86,-29.56025 0,-0.0258 -4.32571,-0.0469 -9.61269,-0.0469 h -9.61269 v 15.38031 15.3803 h 7.11816 c 5.9403,0 7.16111,-0.0225 7.37774,-0.13566 z"
       style="fill:#000000;stroke-width:0.09612688" />
    <path
       style="fill:#000000;stroke-width:0.09612688"
       d="m 124.87588,997.36723 c -3.89899,-0.19704 -4.99174,-0.2658 -6.77695,-0.42642 -13.19147,-1.18684 -26.063965,-4.9816 -36.321432,-10.70741 -7.764821,-4.3344 -13.973842,-9.44256 -18.821577,-15.48454 -4.869456,-6.06905 -8.092892,-13.06578 -9.300101,-20.18664 -0.364228,-2.14846 -0.429562,-2.73602 -0.547478,-4.92367 l -0.107663,-1.99747 10.402285,-26.72328 c 5.721257,-14.6978 10.437162,-26.81369 10.479788,-26.9242 0.06598,-0.17103 -0.325227,-0.65094 -2.629862,-3.22614 -1.48905,-1.66387 -2.905601,-3.26049 -3.147887,-3.54802 -2.497019,-2.96343 -3.808999,-7.20238 -3.467041,-11.20186 0.19278,-2.25474 0.626833,-3.86974 1.549336,-5.76474 0.525953,-1.0804 2.124964,-3.54571 6.043833,-9.31821 2.19717,-3.23645 4.219549,-4.78272 7.040765,-5.38325 2.756704,-0.5868 5.539079,0.0588 7.898833,1.83243 0.626578,0.47099 1.361433,1.21447 2.87507,2.90884 1.118348,1.25187 2.131341,2.38003 2.251108,2.50701 l 0.217754,0.23087 0.896425,-0.5773 c 5.018116,-3.23163 10.580034,-5.37787 16.613184,-6.41069 1.95155,-0.33409 3.6563,-0.51936 5.97982,-0.64987 5.18396,-0.29118 8.21639,0.57667 11.39511,3.26115 l 0.6008,0.50737 0.60079,-0.50737 c 3.17874,-2.68448 6.21116,-3.55233 11.39512,-3.26115 4.17282,0.23438 7.30097,0.7475 11.02648,1.8087 0.84592,0.24094 1.68943,0.49598 1.87448,0.56675 0.18504,0.0707 0.76901,0.28705 1.29771,0.48066 2.81752,1.0317 5.74517,2.49836 8.40007,4.20817 l 0.90218,0.58101 0.29329,-0.33071 c 2.6968,-3.04096 4.22837,-4.68128 4.78501,-5.12478 1.91506,-1.52577 3.79923,-2.20341 6.14254,-2.20914 2.63732,-0.006 4.79436,0.86538 6.77151,2.73694 1.01244,0.95834 1.48173,1.60222 4.9979,6.85727 3.42782,5.12301 3.98234,6.1966 4.57001,8.84809 0.90856,4.09931 0.0581,8.73776 -2.22593,12.14152 -0.6311,0.94044 -0.8219,1.16518 -4.08404,4.81031 -2.30463,2.5752 -2.69585,3.05511 -2.62986,3.22614 0.0426,0.11059 4.75852,12.2264 10.47978,26.9242 l 10.40228,26.72328 -0.10766,1.99747 c -0.11797,2.18765 -0.18324,2.77521 -0.54748,4.92367 -2.71379,16.00763 -15.16264,30.15894 -33.93522,38.57607 -10.42231,4.67309 -21.74259,7.33726 -34.40103,8.09614 -1.69334,0.10151 -7.95052,0.1925 -9.13205,0.13274 z m 8.06921,-4.07701 c 9.74018,-1.1355 18.14759,-5.02123 24.42872,-11.29041 8.96462,-8.94758 12.47058,-21.65286 10.41243,-37.73391 -1.39341,-10.88727 -5.47614,-21.60526 -11.41533,-29.96756 -0.34734,-0.48903 -0.65467,-0.88774 -0.68297,-0.88598 -0.0283,0.002 -0.25193,0.31535 -0.49696,0.69691 -0.24501,0.38155 -0.82899,1.11058 -1.29772,1.62005 l -0.8522,0.9263 -0.69498,-0.74755 c -1.63952,-1.76352 -3.52276,-2.69284 -5.45121,-2.69001 -2.14847,0.003 -3.44945,1.06844 -4.04877,3.31524 -0.45255,1.6966 -0.19856,4.48657 0.58593,6.43639 0.21851,0.5431 0.22187,0.58207 0.0654,0.75521 -0.0907,0.10043 -0.33812,0.27529 -0.5496,0.38863 -0.38034,0.20381 -0.45308,0.20634 -6.70485,0.23336 l -6.32034,0.0274 v 2.25975 c 0,2.50443 0.0938,3.21488 0.58833,4.45546 0.74447,1.86761 2.36406,3.48337 4.24185,4.23183 1.43533,0.57207 1.57299,0.58151 8.50337,0.58275 6.72905,10e-4 6.79098,0.005 7.70753,0.4736 0.56311,0.28787 1.28421,1.0232 1.58447,1.61571 0.53652,1.05878 0.64136,-0.10766 -1.46698,16.32082 -1.05825,8.24606 -1.98981,15.2821 -2.07011,15.63565 -0.44533,1.9607 -1.89502,3.51927 -3.85235,4.14178 l -0.67289,0.214 H 128 111.51424 l -0.67289,-0.214 c -1.95733,-0.62251 -3.40701,-2.18108 -3.85235,-4.14178 -0.0803,-0.35355 -1.01185,-7.38959 -2.07011,-15.63565 -2.10833,-16.42843 -2.0035,-15.26204 -1.46697,-16.32082 0.30025,-0.59251 1.02136,-1.32784 1.58446,-1.61571 0.91656,-0.46858 0.97848,-0.47238 7.70753,-0.4736 6.93038,-10e-4 7.06805,-0.0108 8.50337,-0.58275 1.8778,-0.74846 3.49739,-2.36422 4.24186,-4.23183 0.49452,-1.24064 0.58832,-1.95109 0.58832,-4.45552 v -2.25975 l -6.32033,-0.0274 c -6.25177,-0.0271 -6.32452,-0.0295 -6.70486,-0.23337 -0.21148,-0.11335 -0.45879,-0.28821 -0.5496,-0.38863 -0.15657,-0.17313 -0.15319,-0.21211 0.0654,-0.7552 0.78448,-1.94982 1.03847,-4.73979 0.58592,-6.43639 -0.59932,-2.2468 -1.90029,-3.31208 -4.04875,-3.31524 -1.92846,-0.003 -3.8117,0.92649 -5.45123,2.69001 l -0.69497,0.74755 -0.84686,-0.92064 c -0.46576,-0.50635 -1.04973,-1.23399 -1.29771,-1.61696 -0.24798,-0.38299 -0.47402,-0.69914 -0.50232,-0.70259 -0.0597,-0.008 -1.058395,1.38667 -1.889347,2.63723 -1.42966,2.15158 -3.459445,5.86545 -4.649542,8.50723 -5.722411,12.70253 -7.618925,27.86799 -4.934693,39.46009 1.65552,7.14944 4.890367,13.09179 9.787717,17.97983 6.709215,6.69645 15.935435,10.70437 26.441935,11.4865 1.78735,0.13304 5.94038,0.0297 7.87696,-0.19609 z m -30.24164,-3.00662 c -0.0877,-0.0644 -0.67163,-0.47119 -1.29771,-0.90396 -8.279328,-5.72298 -13.983559,-14.26305 -16.328701,-24.44645 -2.692079,-11.6899 -1.14674,-26.23672 4.181704,-39.36397 1.597214,-3.93491 4.169046,-8.8202 6.371952,-12.10372 0.868956,-1.29524 2.009544,-2.84315 3.044915,-4.13237 0.505397,-0.62928 1.103583,-1.39993 1.32932,-1.71253 0.74081,-1.02592 12.43603,-15.68457 12.89126,-16.15778 0.57067,-0.59317 1.2797,-1.0631 2.09977,-1.39167 l 0.65174,-0.26113 H 128 140.35231 l 0.65174,0.26113 c 0.82184,0.32928 1.53097,0.79979 2.09747,1.39167 0.45293,0.47324 12.18043,15.17125 12.9034,16.17177 0.22032,0.30492 0.81408,1.06926 1.31947,1.69854 4.6331,5.76895 8.36001,12.72617 11.01476,20.5618 3.70382,10.93205 4.82752,22.87061 3.07174,32.63508 -1.96827,10.94621 -7.32678,19.81205 -15.77441,26.09933 -0.58157,0.43283 -1.37152,0.99491 -1.75546,1.24903 -0.38395,0.25413 -0.68058,0.47955 -0.65922,0.50092 0.10336,0.10336 4.51866,-1.20746 7.07684,-2.10111 18.70009,-6.53254 32.27316,-18.69413 36.94367,-33.10187 1.02866,-3.17321 1.59323,-6.15539 1.78348,-9.42076 l 0.084,-1.44158 -13.3432,-34.3173 c -7.33876,-18.87452 -13.52575,-34.72825 -13.74885,-35.23051 -2.20278,-4.9588 -6.45956,-9.7921 -11.54361,-13.107 -6.14492,-4.00663 -13.13542,-6.12043 -21.37148,-6.4624 -2.64197,-0.10966 -4.47038,0.21051 -6.07938,1.06466 -1.0501,0.55745 -1.64101,1.02389 -3.48074,2.74753 l -1.54254,1.4452 -1.54254,-1.4452 c -1.83973,-1.72364 -2.43064,-2.19008 -3.48074,-2.74753 -1.609,-0.85415 -3.43741,-1.17437 -6.07937,-1.06466 -7.10864,0.29515 -13.26528,1.90627 -18.792811,4.91781 -6.384594,3.47851 -11.536027,8.83653 -14.128392,14.69497 -0.258481,0.58414 -6.458389,16.46161 -13.777573,35.28326 l -13.307609,34.22117 0.08362,1.44158 c 0.553966,9.55041 4.734448,18.53771 12.202541,26.2333 7.949525,8.19169 18.997026,14.40058 32.099604,18.04054 1.42975,0.3972 1.68265,0.44225 1.42672,0.25421 z M 90.344008,897.26976 c -1.848128,-0.68576 -2.817871,-2.66525 -2.687585,-5.48611 0.105663,-2.28746 0.922142,-4.5302 2.337422,-6.42029 2.444299,-3.26434 5.710814,-4.23904 7.707823,-2.29991 0.893042,0.86716 1.355973,2.103 1.434813,3.83039 0.194114,4.25388 -2.638137,9.04128 -6.085125,10.28575 -0.816417,0.29476 -2.045657,0.3357 -2.707348,0.0901 z m 73.030692,0.0506 c -3.66098,-1.06141 -6.71535,-5.9525 -6.51116,-10.42658 0.0789,-1.72739 0.54174,-2.96323 1.43479,-3.83039 1.69035,-1.64135 4.37981,-1.2034 6.66924,1.08604 2.96909,2.9691 4.24181,7.94304 2.82947,11.05793 -0.35436,0.78151 -1.11759,1.59038 -1.81617,1.92472 -0.64046,0.30653 -1.88758,0.39661 -2.60617,0.18828 z m -37.29724,57.80788 v -15.3803 h -9.61269 c -5.28697,0 -9.61268,0.0249 -9.61268,0.0552 0,0.13826 3.7584,29.24593 3.80676,29.48204 0.0666,0.32513 0.45658,0.80354 0.8513,1.04424 0.27792,0.16949 0.64736,0.17837 7.4299,0.17872 h 7.13741 v -15.3803 z m 18.34098,15.2447 c 0.37837,-0.19767 0.74995,-0.63267 0.86948,-1.01792 0.0754,-0.24299 3.86,-29.22585 3.86,-29.56025 0,-0.0258 -4.32571,-0.0469 -9.61269,-0.0469 h -9.61269 v 15.38031 15.3803 h 7.11816 c 5.9403,0 7.16111,-0.0225 7.37774,-0.13566 z"
       id="path4435"
       inkscape:connector-curvature="0" />
    <path
       id="path4476"
       d="m 117.8526,851.33821 c 4.09674,0.008 6.76523,0.96746 9.54662,3.31637 l 0.60078,0.50767 0.60079,-0.50767 c 3.17874,-2.68447 6.21009,-3.55348 11.39405,-3.2623 4.17281,0.23438 7.30204,0.74719 11.02755,1.80839 0.84592,0.24094 1.68943,0.49698 1.87448,0.56774 0.18504,0.0707 0.76901,0.28703 1.29771,0.48064 2.81752,1.03169 5.74419,2.49874 8.39909,4.20855 l 0.90419,0.57977 0.29138,-0.33044 c 2.6968,-3.04096 4.22868,-4.68127 4.78532,-5.12476 1.91506,-1.52577 3.7998,-2.20218 6.14311,-2.20792 2.63732,-0.006 4.79378,0.86507 6.77093,2.73662 1.01244,0.95834 1.48243,1.603 4.9986,6.85805 3.42782,5.12301 3.98137,6.19519 4.56904,8.84668 0.90856,4.09931 0.0581,8.73827 -2.22594,12.14202 -0.6311,0.94045 -0.82025,1.16421 -4.0824,4.80935 -2.30463,2.5752 -2.69744,3.05523 -2.63146,3.22626 0.0426,0.11058 4.75957,12.22674 10.48083,26.92454 L 203,943.64105 l -0.10813,1.99764 c -0.11796,2.18764 -0.18248,2.77503 -0.54672,4.92349 -2.71379,16.00764 -15.16321,30.15979 -33.93579,38.57692 -10.42231,4.67309 -21.74298,7.33681 -34.40141,8.09569 -1.69334,0.10151 -7.95053,0.19194 -9.13206,0.13211 -3.89898,-0.19703 -4.99174,-0.26594 -6.77694,-0.42656 -13.19147,-1.18683 -26.063478,-4.98032 -36.320946,-10.70613 -7.764821,-4.3344 -13.975113,-9.44346 -18.822847,-15.48544 -4.869456,-6.06905 -8.093067,-13.06578 -9.300276,-20.18665 -0.364229,-2.14846 -0.428805,-2.73585 -0.546721,-4.9235 l -0.108139,-1.99763 10.402732,-26.72328 c 5.721257,-14.6978 10.438208,-26.81403 10.480834,-26.92454 0.06598,-0.17103 -0.326837,-0.65106 -2.631472,-3.22627 -1.48905,-1.66387 -2.90587,-3.26014 -3.148156,-3.54768 -2.49702,-2.96342 -3.808535,-7.2023 -3.466577,-11.20178 0.19278,-2.25473 0.627544,-3.86962 1.550047,-5.76461 0.525952,-1.0804 2.125109,-3.54579 6.043977,-9.3183 2.19717,-3.23644 4.220078,-4.78258 7.041295,-5.3831 2.756704,-0.58681 5.537659,0.0588 7.897413,1.83242 0.626593,0.47099 1.361172,1.21346 2.874809,2.90783 1.118348,1.25187 2.133201,2.38134 2.252968,2.50832 l 0.216278,0.2313 0.898194,-0.57676 c 5.018116,-3.23163 10.578767,-5.38065 16.611927,-6.41347 1.95154,-0.33409 3.65737,-0.51835 5.98089,-0.64885 0.648,-0.0364 1.2622,-0.0552 1.84744,-0.0541 z"
       style="fill:#000000;fill-opacity:1;stroke:none;stroke-width:15.38030243;stroke-linejoin:round;stroke-miterlimit:4;stroke-dasharray:none;stroke-opacity:0.25882353"
       inkscape:connector-curvature="0" />
    <path
       id="path4474"
       d="m 116.89735,855.1953 c -7.10864,0.29515 -13.26528,1.90895 -18.792811,4.92049 -6.384594,3.47852 -11.535288,8.83396 -14.127653,14.6924 -0.258481,0.58414 -6.459999,16.46293 -13.779183,35.28457 l -13.307567,34.22117 0.08412,1.44191 c 0.553968,9.55041 4.734014,18.53803 12.202107,26.23363 7.949525,8.19168 18.997797,14.39885 32.100377,18.03881 1.42975,0.3972 1.6828,0.44337 1.42686,0.25533 -0.0877,-0.0644 -0.67162,-0.47142 -1.2977,-0.90419 -8.279329,-5.72298 -13.984406,-14.26286 -16.329548,-24.44627 -2.692079,-11.68989 -1.146925,-26.23672 4.18152,-39.36396 1.597213,-3.93491 4.168507,-8.81945 6.371397,-12.10297 0.868972,-1.29524 2.010652,-2.84424 3.046023,-4.13346 0.505397,-0.62928 1.105029,-1.39965 1.330768,-1.71226 0.74081,-1.02591 12.43479,-15.68512 12.89002,-16.15833 0.57067,-0.59317 1.2797,-1.06227 2.09976,-1.39084 l 0.65187,-0.26134 H 128 140.35231 l 0.65186,0.26134 c 0.82185,0.32928 1.53026,0.79896 2.09677,1.39084 0.45293,0.47324 12.18206,15.17282 12.90502,16.17334 0.22033,0.30492 0.81336,1.06797 1.31876,1.69725 4.6331,5.76895 8.36079,12.72651 11.01554,20.56214 3.70382,10.93204 4.82583,22.8706 3.07004,32.63508 -1.96826,10.94621 -7.32619,19.81117 -15.77382,26.09845 -0.58157,0.43283 -1.37038,0.99552 -1.75432,1.24965 -0.38394,0.25413 -0.68223,0.48028 -0.66086,0.50166 0.10335,0.10335 4.51916,-1.20912 7.07734,-2.10278 18.70009,-6.53254 32.27225,-18.69294 36.94276,-33.10069 1.02866,-3.1732 1.5941,-6.15506 1.78436,-9.42043 l 0.0841,-1.44191 -13.34363,-34.31729 c -7.33877,-18.87453 -13.52605,-34.72825 -13.74916,-35.23051 -2.20278,-4.95881 -6.46019,-9.7914 -11.54424,-13.1063 -6.14492,-4.00663 -13.13414,-6.12257 -21.3702,-6.46453 -2.64197,-0.10966 -4.47104,0.21226 -6.08004,1.06641 -1.0501,0.55745 -1.64186,1.02498 -3.48159,2.74862 l -1.541,1.44491 -1.54404,-1.44491 c -1.83973,-1.72364 -2.42848,-2.19117 -3.47858,-2.74862 -1.609,-0.85415 -3.43807,-1.17612 -6.08003,-1.06641 z"
       style="fill:#d6aa70;fill-opacity:1;stroke:none;stroke-width:15.38030243;stroke-linejoin:round;stroke-miterlimit:4;stroke-dasharray:none;stroke-opacity:0.25882353"
       inkscape:connector-curvature="0" />
    <path
       id="path4472"
       d="m 95.028479,882.07779 c 0.995628,-0.0594 1.924645,0.25811 2.673527,0.98529 0.893042,0.86716 1.35705,2.10267 1.435905,3.83007 0.194115,4.25388 -2.63906,9.04111 -6.086047,10.28557 -0.816417,0.29477 -2.044873,0.33569 -2.706564,0.0901 -1.848128,-0.68576 -2.81884,-2.66439 -2.688554,-5.48524 0.105663,-2.28747 0.921803,-4.5294 2.337083,-6.41948 1.527695,-2.04021 3.375285,-3.18729 5.03465,-3.28633 z"
       style="fill:#000000;fill-opacity:1;stroke:none;stroke-width:15.38030243;stroke-linejoin:round;stroke-miterlimit:4;stroke-dasharray:none;stroke-opacity:0.25882353"
       inkscape:connector-curvature="0" />
    <path
       id="path4469"
       d="m 160.54797,882.08079 c 1.40182,-0.0712 2.98793,0.63883 4.41883,2.06973 2.96909,2.9691 4.24208,7.94272 2.82973,11.0576 -0.35436,0.78152 -1.11582,1.5882 -1.8144,1.92254 -0.64046,0.30653 -1.88884,0.39756 -2.60743,0.18924 -3.66098,-1.06141 -6.71678,-5.95267 -6.51261,-10.42675 0.0789,-1.7274 0.54285,-2.96291 1.43591,-3.83007 0.63388,-0.6155 1.40886,-0.93958 2.24997,-0.98229 z"
       style="fill:#000000;fill-opacity:1;stroke:none;stroke-width:15.38030243;stroke-linejoin:round;stroke-miterlimit:4;stroke-dasharray:none;stroke-opacity:0.25882353"
       inkscape:connector-curvature="0" />
    <path
       id="path4467"
       d="m 109.10505,913.21689 c -1.92845,-0.003 -3.81266,0.92803 -5.45219,2.69155 l -0.69391,0.74799 -0.84712,-0.92222 c -0.46576,-0.50635 -1.04974,-1.23316 -1.29771,-1.61613 -0.24798,-0.38298 -0.47336,-0.69948 -0.50166,-0.70293 -0.0597,-0.008 -1.058551,1.38692 -1.889502,2.63748 -1.429661,2.15158 -3.460045,5.86545 -4.650142,8.50723 -5.722411,12.70253 -7.61974,27.86798 -4.935508,39.46009 1.65552,7.14944 4.892566,13.09068 9.789916,17.97872 6.709206,6.69645 15.934406,10.70503 26.440906,11.48717 1.78735,0.13304 5.93981,0.0306 7.87639,-0.19526 9.74018,-1.13549 18.14713,-5.02273 24.42826,-11.29191 8.96462,-8.94758 12.47289,-21.65175 10.41474,-37.7328 -1.39341,-10.88727 -5.47888,-21.60526 -11.41807,-29.96756 -0.34734,-0.48902 -0.65361,-0.88792 -0.68191,-0.88617 -0.0283,0.002 -0.2506,0.31537 -0.49564,0.69693 -0.24501,0.38155 -0.82898,1.10966 -1.29771,1.61913 l -0.85313,0.92823 -0.69392,-0.74799 c -1.63952,-1.76352 -3.52375,-2.69438 -5.45219,-2.69155 -2.14848,0.003 -3.45003,1.06957 -4.04936,3.31637 -0.45255,1.69661 -0.19871,4.48768 0.58578,6.43751 0.2185,0.54309 0.2226,0.58085 0.0661,0.75399 -0.0907,0.10043 -0.33824,0.27416 -0.54972,0.3875 -0.38034,0.20382 -0.45307,0.2073 -6.70484,0.23432 l -6.32035,0.0271 v 2.25898 c 0,2.50444 0.0943,3.2173 0.58877,4.45787 0.74447,1.86762 2.3638,3.48114 4.24159,4.22959 1.43534,0.57207 1.57385,0.58153 8.50423,0.58277 6.72906,0.001 6.78862,0.006 7.70518,0.47462 0.56311,0.28788 1.28584,1.02362 1.5861,1.61615 0.53652,1.05878 0.64238,-0.10797 -1.46595,16.32053 -1.05825,8.24606 -1.99242,15.2821 -2.07272,15.63565 -0.44534,1.96069 -1.89377,3.51996 -3.85109,4.14247 l -0.67289,0.21327 H 128 111.51424 l -0.67289,-0.21327 c -1.95733,-0.62251 -3.40575,-2.18178 -3.85109,-4.14247 -0.0803,-0.35355 -1.01447,-7.38959 -2.07272,-15.63565 -2.10834,-16.42844 -2.00247,-15.26175 -1.46595,-16.32053 0.30026,-0.59251 1.02299,-1.32827 1.5861,-1.61615 0.91656,-0.46857 0.97612,-0.4734 7.70517,-0.47462 6.93038,-10e-4 7.06891,-0.0108 8.50424,-0.58277 1.87779,-0.74845 3.49712,-2.36197 4.24159,-4.22959 0.49452,-1.24066 0.58877,-1.95346 0.58877,-4.4579 v -2.25898 l -6.32035,-0.0271 c -6.25177,-0.0271 -6.3245,-0.0304 -6.70484,-0.23432 -0.21148,-0.11335 -0.45892,-0.28709 -0.54972,-0.38751 -0.15657,-0.17313 -0.15242,-0.21089 0.0661,-0.75398 0.78449,-1.94983 1.03833,-4.74091 0.58578,-6.43751 -0.59933,-2.2468 -1.9009,-3.31321 -4.04936,-3.31637 z"
       style="fill:#f5ce85;fill-opacity:1;stroke:none;stroke-width:15.38030243;stroke-linejoin:round;stroke-miterlimit:4;stroke-dasharray:none;stroke-opacity:0.25882353"
       inkscape:connector-curvature="0" />
    <path
       id="path4465"
       d="m 116.46477,939.74791 c -5.28697,0 -9.61268,0.0238 -9.61268,0.0541 0,0.13827 3.75767,29.24781 3.80602,29.48391 0.0666,0.32514 0.45841,0.80167 0.85313,1.04237 0.27792,0.16949 0.64625,0.17989 7.42881,0.18024 h 7.13741 v -15.3803 -15.3803 z"
       style="fill:#ffffff;fill-opacity:1;stroke:none;stroke-width:15.38030243;stroke-linejoin:round;stroke-miterlimit:4;stroke-dasharray:none;stroke-opacity:0.25882353"
       inkscape:connector-curvature="0" />
    <path
       id="circle4442"
       d="m 129.92254,939.74791 v 15.3803 15.3803 h 7.1194 c 5.94031,0 7.1611,-0.022 7.37773,-0.13519 0.37837,-0.19767 0.74861,-0.6331 0.86814,-1.01835 0.0754,-0.24297 3.86011,-29.2246 3.86011,-29.559 0,-0.0258 -4.32571,-0.0481 -9.61269,-0.0481 z"
       style="fill:#ffffff;fill-opacity:1;stroke:none;stroke-width:15.38030243;stroke-linejoin:round;stroke-miterlimit:4;stroke-dasharray:none;stroke-opacity:0.25882353"
       inkscape:connector-curvature="0" />
  </g>
</svg>
