<?xml version="1.0" encoding="UTF-8" standalone="no"?>
<!-- Created with Inkscape (http://www.inkscape.org/) -->

<svg
   xmlns:dc="http://purl.org/dc/elements/1.1/"
   xmlns:cc="http://creativecommons.org/ns#"
   xmlns:rdf="http://www.w3.org/1999/02/22-rdf-syntax-ns#"
   xmlns:svg="http://www.w3.org/2000/svg"
   xmlns="http://www.w3.org/2000/svg"
   xmlns:sodipodi="http://sodipodi.sourceforge.net/DTD/sodipodi-0.dtd"
   xmlns:inkscape="http://www.inkscape.org/namespaces/inkscape"
   width="256"
   height="256"
   viewBox="0 0 256 256"
   id="svg2"
   version="1.1"
   inkscape:version="0.91 r13725"
   sodipodi:docname="deadbeef.svg">
  <sodipodi:namedview
     id="base"
     pagecolor="#ffffff"
     bordercolor="#666666"
     borderopacity="1.0"
     inkscape:pageopacity="0.0"
     inkscape:pageshadow="2"
     inkscape:zoom="2.0507812"
     inkscape:cx="33.401902"
     inkscape:cy="128"
     inkscape:document-units="px"
     inkscape:current-layer="layer1"
     showgrid="true"
     units="px"
     inkscape:window-width="1920"
     inkscape:window-height="1033"
     inkscape:window-x="0"
     inkscape:window-y="0"
     inkscape:window-maximized="1">
    <inkscape:grid
       type="xygrid"
       id="grid4168"
       spacingx="5"
       spacingy="5" />
  </sodipodi:namedview>
  <defs
     id="defs4">
    <inkscape:path-effect
       effect="skeletal"
       id="path-effect4235"
       is_visible="true"
       pattern="M 0,0 1,0"
       copytype="single_stretched"
       prop_scale="1"
       scale_y_rel="false"
       spacing="0"
       normal_offset="0"
       tang_offset="0"
       prop_units="false"
       vertical_pattern="false"
       fuse_tolerance="0" />
    <clipPath
       clipPathUnits="userSpaceOnUse"
       id="clipPath5002">
      <g
         id="g5004">
        <path
           transform="translate(0,796.36216)"
           inkscape:connector-curvature="0"
           id="path5006"
           d="M 88.118406,249.43519 C 46.103287,235.29134 14.771284,201.68742 4.1335861,159.36053 1.3377997,148.23623 0.92261224,144.16281 0.92582381,127.88908 0.92787958,117.47222 1.134384,112.01362 1.6577819,108.54099 4.4653598,89.913336 12.17654,70.638106 23.042737,55.086148 c 3.958678,-5.665755 8.344812,-10.93092 9.101533,-10.925587 0.32809,0.0023 10.488643,18.309713 22.579009,40.683112 12.090365,22.373397 22.374546,41.334697 22.853732,42.136217 0.479186,0.80151 0.924733,2.44098 0.990103,3.64326 0.343424,6.31639 2.524175,14.20976 5.6424,20.42304 2.954444,5.88693 5.065381,8.73258 10.434696,14.06652 6.71418,6.66995 12.88853,10.28643 21.73204,12.72904 3.16587,0.87442 5.10478,1.05037 11.57517,1.05037 8.82596,0 12.60219,-0.76201 19.26429,-3.88733 2.04584,-0.95974 3.93661,-1.66536 4.20172,-1.56805 0.2651,0.0973 -11.0555,17.66459 -25.1569,39.0384 l -25.6389,38.86148 -3.094121,0.11221 c -2.554618,0.0927 -4.195204,-0.25845 -9.409103,-2.01364 z"
           style="fill:#0f9d58;fill-opacity:1;stroke:none;stroke-width:4.85768509;stroke-linejoin:round;stroke-miterlimit:4;stroke-dasharray:none;stroke-opacity:1" />
        <path
           inkscape:connector-curvature="0"
           id="path5008"
           d="m 112.35984,1051.5167 c -10.0014,-1.4495 -12.15632,-1.8201 -12.531784,-2.1556 -0.248854,-0.2223 1.738304,-3.7475 4.550294,-8.0722 7.16635,-11.0213 49.77231,-74.64801 50.25856,-75.05489 3.57509,-2.99158 8.63523,-8.0414 10.57512,-10.55356 3.36154,-4.35318 7.55784,-12.9141 9.06523,-18.494 6.19314,-22.92535 -2.59253,-47.15185 -21.69967,-59.83688 l -2.96081,-1.96565 17.02469,0.29584 c 9.36358,0.1627 31.17032,0.43384 48.45941,0.60252 l 31.43471,0.30668 1.54584,4.18869 c 2.24597,6.08579 4.67816,15.0947 5.93451,21.9816 1.52517,8.36049 1.92536,28.85896 0.73851,37.82758 -3.0805,23.27845 -12.81326,45.72018 -27.80202,64.10577 -20.47622,25.1166 -51.4599,42.1974 -84.14612,46.3885 -5.31244,0.6812 -26.64601,0.9864 -30.44647,0.4356 z"
           style="fill:#f4b400;fill-opacity:1;stroke:none;stroke-width:4.85768509;stroke-linejoin:round;stroke-miterlimit:4;stroke-dasharray:none;stroke-opacity:1" />
        <path
           transform="translate(0,796.36216)"
           inkscape:connector-curvature="0"
           id="path5010"
           d="M 67.989788,108.87302 C 41.284246,59.575543 33.290284,45.149038 32.233625,44.344765 31.651257,43.901497 32.811213,42.549931 38.695603,36.815353 53.43581,22.450419 68.809334,13.040746 87.839196,6.7360352 101.68742,2.1480329 112.58238,0.43719165 127.95142,0.43719165 c 21.3099,0 37.80488,3.80960275 56.83492,13.12633035 25.29351,12.383198 46.19421,33.578863 58.51993,59.345832 1.61138,3.368591 2.92978,6.372442 2.92978,6.675231 0,0.560033 -10.54865,0.49527 -71.16508,-0.436914 l -24.28843,-0.373518 -3.93063,-1.764495 c -6.75732,-3.033425 -10.64587,-3.839529 -18.6576,-3.867747 -5.0296,-0.01773 -7.97946,0.207636 -10.31642,0.788106 -14.50826,3.603659 -26.283291,12.94777 -33.291614,26.418653 -3.58502,6.89086 -5.24713,13.08166 -6.331628,23.58317 l -0.33738,3.26696 -9.92748,-18.32578 z"
           style="fill:#db4437;fill-opacity:1;stroke:none;stroke-width:10;stroke-linejoin:round;stroke-miterlimit:4;stroke-dasharray:none;stroke-opacity:1" />
      </g>
    </clipPath>
    <clipPath
       id="clipPath4271"
       clipPathUnits="userSpaceOnUse">
      <circle
         r="128"
         cy="128.00002"
         cx="128"
         id="circle4273"
         style="fill:#292929;fill-opacity:0.26020412;stroke:none;stroke-width:10;stroke-linejoin:round;stroke-miterlimit:4;stroke-dasharray:none;stroke-opacity:0.25882353" />
    </clipPath>
    <clipPath
       clipPathUnits="userSpaceOnUse"
       id="clipPath4363">
      <circle
         r="128"
         cy="924.36218"
         cx="128"
         id="circle4365"
         style="fill:#4285f4;fill-opacity:1;stroke:none;stroke-width:10;stroke-linejoin:round;stroke-miterlimit:4;stroke-dasharray:none;stroke-opacity:0.25882353" />
    </clipPath>
    <clipPath
       id="clipPath4452"
       clipPathUnits="userSpaceOnUse">
      <circle
         r="128"
         cy="924.36218"
         cx="128"
         id="circle4454"
         style="fill:#4285f4;fill-opacity:1;stroke:none;stroke-width:10;stroke-linejoin:round;stroke-miterlimit:4;stroke-dasharray:none;stroke-opacity:0.25882353" />
    </clipPath>
    <clipPath
       clipPathUnits="userSpaceOnUse"
       id="clipPath5177">
      <circle
         r="128"
         cy="924.36218"
         cx="128"
         id="circle5179"
         style="fill:#4285f4;fill-opacity:1;stroke:none;stroke-width:10;stroke-linejoin:round;stroke-miterlimit:4;stroke-dasharray:none;stroke-opacity:0.25882353" />
    </clipPath>
    <clipPath
       id="clipPath4342"
       clipPathUnits="userSpaceOnUse">
      <circle
         r="128"
         cy="933.48718"
         cx="128"
         id="circle4344"
         style="fill:#4285f4;fill-opacity:1;stroke:none;stroke-width:10;stroke-linejoin:round;stroke-miterlimit:4;stroke-dasharray:none;stroke-opacity:0.25882353" />
    </clipPath>
    <clipPath
       clipPathUnits="userSpaceOnUse"
       id="clipPath4681">
      <circle
         r="128"
         cy="930.43964"
         cx="127.00293"
         id="circle4683"
         style="fill:#9d5fad;fill-opacity:1;stroke:none;stroke-width:10;stroke-linejoin:round;stroke-miterlimit:4;stroke-dasharray:none;stroke-opacity:0.25882353" />
    </clipPath>
    <clipPath
       id="clipPath4480"
       clipPathUnits="userSpaceOnUse">
      <circle
         r="128"
         cy="924.36218"
         cx="128"
         id="circle4482"
         style="fill:#df7618;fill-opacity:1;stroke:none;stroke-width:10;stroke-linejoin:round;stroke-miterlimit:4;stroke-dasharray:none;stroke-opacity:0.25882353" />
    </clipPath>
    <filter
       id="filter4301"
       inkscape:label="Drop Shadow"
       style="color-interpolation-filters:sRGB">
      <feFlood
         id="feFlood4303"
         result="flood"
         flood-color="rgb(0,0,0)"
         flood-opacity="0.498039" />
      <feComposite
         id="feComposite4305"
         result="composite1"
         operator="in"
         in2="SourceGraphic"
         in="flood" />
      <feGaussianBlur
         id="feGaussianBlur4307"
         result="blur"
         stdDeviation="3.7"
         in="composite1" />
      <feOffset
         id="feOffset4309"
         result="offset"
         dy="3.7"
         dx="3.8" />
      <feComposite
         id="feComposite4311"
         result="composite2"
         operator="over"
         in2="offset"
         in="SourceGraphic" />
    </filter>
    <clipPath
       clipPathUnits="userSpaceOnUse"
       id="clipPath5827">
      <circle
         r="128"
         cy="924.36218"
         cx="128"
         id="circle5829"
         style="fill:#df7618;fill-opacity:1;stroke:none;stroke-width:10;stroke-linejoin:round;stroke-miterlimit:4;stroke-dasharray:none;stroke-opacity:0.25882353" />
    </clipPath>
    <clipPath
       id="clipPath5688"
       clipPathUnits="userSpaceOnUse">
      <circle
         r="128"
         cy="923.87457"
         cx="126.04952"
         id="circle5690"
         style="fill:#ffeb4f;fill-opacity:1;stroke:none;stroke-width:10;stroke-linejoin:round;stroke-miterlimit:4;stroke-dasharray:none;stroke-opacity:0.25882353" />
    </clipPath>
    <clipPath
       id="clipPath5238"
       clipPathUnits="userSpaceOnUse">
      <path
         inkscape:connector-curvature="0"
         id="path5240"
         d="m 151.20117,796.60532 -105.78125,0 c -7.804357,0 -14.087891,6.28158 -14.087891,14.08594 l 0,227.33994 c 0,7.8043 6.283534,14.0878 14.087891,14.0878 l 165.16211,0 c 7.80436,0 14.08594,-6.2835 14.08594,-14.0878 l 0,-154.82237 -73.4668,-86.60351 z"
         style="fill:#df1818;fill-opacity:1" />
    </clipPath>
    <clipPath
       id="clipPath5740"
       clipPathUnits="userSpaceOnUse">
      <circle
         r="128"
         cy="923.87457"
         cx="126.04952"
         id="circle5742"
         style="fill:#ffeb4f;fill-opacity:1;stroke:none;stroke-width:10;stroke-linejoin:round;stroke-miterlimit:4;stroke-dasharray:none;stroke-opacity:0.25882353" />
    </clipPath>
    <clipPath
       id="clipPath5744"
       clipPathUnits="userSpaceOnUse">
      <circle
         r="99.950417"
         cy="962.41302"
         cx="128.12729"
         id="circle5746"
         style="fill:#ffeb4f;fill-opacity:1;stroke:none;stroke-width:10;stroke-linejoin:round;stroke-miterlimit:4;stroke-dasharray:none;stroke-opacity:0.25882353" />
    </clipPath>
    <clipPath
       clipPathUnits="userSpaceOnUse"
       id="clipPath4462">
      <circle
         r="128"
         cy="923.87457"
         cx="126.04952"
         id="circle4464"
         style="fill:#86c34b;fill-opacity:1;stroke:none;stroke-width:10;stroke-linejoin:round;stroke-miterlimit:4;stroke-dasharray:none;stroke-opacity:0.25882353" />
    </clipPath>
  </defs>
  <metadata
     id="metadata7">
    <rdf:RDF>
      <cc:Work
         rdf:about="">
        <dc:format>image/svg+xml</dc:format>
        <dc:type
           rdf:resource="http://purl.org/dc/dcmitype/StillImage" />
        <dc:title />
      </cc:Work>
    </rdf:RDF>
  </metadata>
  <g
     transform="translate(0,-796.36216)"
     id="layer1"
     inkscape:groupmode="layer"
     inkscape:label="Layer 1">
    <path
       inkscape:connector-curvature="0"
       id="path4913"
       d="M 154.47438,968.80998 101.03985,1048.476 0.4857685,1048.9618 0,842.0244 l 33.032258,-2.42884 45.176471,83.55218 21.373814,35.4611 26.717267,13.11575 z"
       style="fill:none;fill-rule:evenodd;stroke:none;stroke-width:1px;stroke-linecap:butt;stroke-linejoin:miter;stroke-opacity:1" />
    <circle
       style="fill:#86c34b;fill-opacity:1;stroke:none;stroke-width:10;stroke-linejoin:round;stroke-miterlimit:4;stroke-dasharray:none;stroke-opacity:0.25882353"
       id="path4152"
       cx="126.04952"
       cy="923.87457"
       r="128" />
    <text
       sodipodi:linespacing="125%"
       id="text4914"
       y="927.36218"
       x="120"
       style="font-style:normal;font-weight:normal;font-size:40px;line-height:125%;font-family:sans-serif;letter-spacing:0px;word-spacing:0px;fill:#000000;fill-opacity:1;stroke:none;stroke-width:1px;stroke-linecap:butt;stroke-linejoin:miter;stroke-opacity:1"
       xml:space="preserve"><tspan
         y="927.36218"
         x="120"
         id="tspan4916"
         sodipodi:role="line" /></text>
    <path
       style="fill:none;stroke:black;stroke-opacity:1;stroke-width:1px;stroke-linejoin:miter;stroke-linecap:butt;fill-rule:evenodd"
       d="m 90,171 c -0.02835,0.10164 -0.09512,0.18781 -0.142791,0.28195 -0.03402,0.0672 -0.06286,0.17517 0.01,0.19433 0.629137,0.16553 1.29252,0 1.943068,0 2e-6,0 4e-6,0 6e-6,0 2.428841,0 4.857683,0 7.286524,0 10e-7,0 2e-6,0 3e-6,0 5.667296,0 11.334596,0 17.001896,0 0,0 0,0 0,0 11.01075,0 22.02151,0 33.03226,0 3.40038,0 6.80076,0 10.20114,0 1.13346,0 2.26692,0 3.40038,0 0.64769,0 1.29538,0 1.94307,0 0,0 0,0 1e-5,0 0.16221,0 0.32574,0.0266 0.48575,0 0,0 1e-5,0 1e-5,0 0.8145,-0.13574 1.61434,-0.35002 2.42884,-0.48577 0,0 1e-5,0 1e-5,0 0.16001,-0.0266 0.32354,0 0.48576,0 0.64769,0 1.29539,0 1.94308,0 1.61923,0 3.23845,0 4.85768,0 1.94307,0 3.88615,0 5.82922,0 0.65029,0 1.31221,0.15772 1.94308,0 0.23053,-0.0576 0.26033,-0.41062 0.48575,-0.48577 10e-6,0 10e-6,0 10e-6,0 0.30935,-0.10312 0.64546,0 0.97153,0 1e-5,0 1e-5,0 1e-5,0 0.48771,0 0.98416,0.11829 1.45731,0 0.22811,-0.057 0.27547,-0.38062 0.48577,-0.48576 0.0332,-0.0166 0.073,-0.0132 0.11001,-0.0156 0,0 0,0 0,0 0.0743,-0.005 0.14882,-0.006 0.22329,-0.007 0.21191,-0.003 0.42387,-6e-4 0.63577,0.003 0.32448,0.005 0.64949,0.0204 0.974,0.0204 1.29538,0 2.59077,0 3.88615,0 0.33969,0 0.67926,0.0178 1.01889,0.024 1e-5,0 1e-5,0 1e-5,0 0.20078,0.004 0.40162,0.007 0.6024,0.003 0,0 10e-6,0 10e-6,0 0.10737,-0.002 0.22572,0.0211 0.32176,-0.027 0.20741,-0.1037 0.27836,-0.38207 0.48577,-0.48577 0.0501,-0.0251 0.11077,-0.0175 0.16675,-0.0206 0.1181,-0.006 0.23641,-0.008 0.35467,-0.01 0.34828,-0.004 0.6966,-6.9e-4 1.04487,0.003 0.61137,0.007 1.22268,0.0269 1.83409,0.0269 0.43027,0 0.86055,-0.006 1.29082,-0.008 0.26002,-0.001 0.52005,-0.002 0.78008,-0.001 0.0852,4.2e-4 0.17049,9e-4 0.25571,0.003 l 0,0 c 0,0 1e-5,0 1e-5,0 0.0244,5.9e-4 0.0489,0.001 0.0733,0.003 0.009,5.7e-4 0.0217,-0.003 0.0289,0.004 0.0602,0.0602 0.0251,0.16159 5e-5,0.24293 -0.0251,0.0813 -0.0602,0.1827 0,0.24289 0.0726,0.0726 0.19615,0.0134 0.2942,-0.0172 0.0707,-0.0221 0.20179,-0.0562 0.19157,0.0172 -0.054,0.38821 -0.41242,0.65005 -0.62239,0.98102"
       id="path4233"
       inkscape:path-effect="#path-effect4235"
       inkscape:original-d="m 90,171 c -0.04428,0.15876 -0.292221,0.43434 -0.132827,0.47628 0.626374,0.1648 1.295382,0 1.943074,0 2.428842,0 4.857685,0 7.286527,0 5.667296,0 11.334596,0 17.001896,0 11.01075,0 22.02151,0 33.03226,0 3.40038,0 6.80076,0 10.20114,0 1.13346,0 2.26692,0 3.40038,0 0.64769,0 1.29538,0 1.94307,0 0.16192,0 0.32605,0.0266 0.48577,0 0.81441,-0.13573 1.61443,-0.35003 2.42884,-0.48577 0.15972,-0.0266 0.32385,0 0.48577,0 0.64769,0 1.29538,0 1.94308,0 1.61922,0 3.23845,0 4.85768,0 1.94307,0 3.88615,0 5.82922,0 0.64769,0 1.31472,0.15709 1.94308,0 0.22215,-0.0555 0.26852,-0.41335 0.48576,-0.48577 0.30723,-0.10241 0.6477,0 0.97154,0 0.48577,0 0.98604,0.11782 1.45731,0 0.22215,-0.0555 0.28095,-0.38336 0.48577,-0.48576 0.10887,-0.0544 1.82764,0 1.94307,0 1.29538,0 2.59077,0 3.88615,0 0.25402,0 1.81534,0.0639 1.94307,0 0.20482,-0.10241 0.28095,-0.38336 0.48577,-0.48577 0.14338,-0.0717 2.89994,0 3.40038,0 0.22904,0 2.40683,-0.022 2.42884,0 0.1145,0.11449 -0.11449,0.37127 0,0.48577 0.1145,0.11449 0.50811,-0.16038 0.48577,0 -0.0534,0.38356 -0.41493,0.65401 -0.62239,0.98102" />
    <g
       id="g4363"
       clip-path="url(#clipPath4462)"
       style="fill:#003833;fill-opacity:1">
      <g
         id="g4365"
         style="fill:#003833;fill-opacity:1;stroke:none;stroke-width:20;stroke-linecap:butt;stroke-linejoin:miter;stroke-miterlimit:4;stroke-dasharray:none;stroke-opacity:1">
        <path
           id="path4367"
           d="M66.28175 824.62702L66.28175 873.84576L-145.850284356 1085.97779436L-145.850284356 1036.75905436Z"
           style="fill:#003833;fill-opacity:1" />
        <path
           id="path4369"
           d="M66.28175 873.84576L66.28175 924.1021L-145.850284356 1136.23413436L-145.850284356 1085.97779436Z"
           style="fill:#003833;fill-opacity:1" />
        <path
           id="path4371"
           d="M66.28175 924.1021C67.57081 924.0991 80.234369 917.06823 93.124988 908.4832L-119.007046356 1120.61523436C-131.897665356 1129.20026436 -144.561224356 1136.23113436 -145.850284356 1136.23413436Z"
           style="fill:#003833;fill-opacity:1" />
        <path
           id="path4373"
           d="M93.124988 908.4832C106.01561 899.89817 118.57205 892.86867 121.02417 892.86432L-91.107864356 1104.99635436C-93.559984356 1105.00070436 -106.116424356 1112.03020436 -119.007046356 1120.61523436Z"
           style="fill:#003833;fill-opacity:1" />
        <path
           id="path4375"
           d="M121.02417 892.86432C125.34314 892.85532 166.84982 919.50923 169.6997 924.12041L-42.432334356 1136.25244436C-45.282214356 1131.64126436 -86.788894356 1104.98735436 -91.107864356 1104.99635436Z"
           style="fill:#003833;fill-opacity:1" />
        <path
           id="path4377"
           d="M169.6997 924.12041C169.797568967 924.278767959 169.514031261 924.685489177 168.885260869 925.314259569L-43.2467734867 1137.44629393C-42.6180030948 1136.81752353 -42.3344653892 1136.41080232 -42.432334356 1136.25244436Z"
           style="fill:#003833;fill-opacity:1" />
        <path
           id="path4379"
           d="M168.885260869 925.314259569C164.524739814 929.674780624 143.560532548 944.714576707 118.05786 961.65703L-94.074174356 1173.78906436C-68.5715018084 1156.84661106 -47.6072945417 1141.80681498 -43.2467734867 1137.44629393Z"
           style="fill:#003833;fill-opacity:1" />
        <path
           id="path4381"
           d="M118.05786 961.65703L66.28175 996.89872L-145.850284356 1209.03075436L-94.074174356 1173.78906436Z"
           style="fill:#003833;fill-opacity:1" />
        <path
           id="path4383"
           d="M66.28175 996.89872L66.28175 1010.5035L-145.850284356 1222.63553436L-145.850284356 1209.03075436Z"
           style="fill:#003833;fill-opacity:1" />
        <path
           id="path4385"
           d="M66.28175 1010.5035L66.28175 1024.1082L-145.850284356 1236.24023436L-145.850284356 1222.63553436Z"
           style="fill:#003833;fill-opacity:1" />
        <path
           id="path4387"
           d="M66.28175 1024.1082C66.28175 1025.1912 101.80446 1002.2904 141.97142 975.62797L-70.160614356 1187.76000436C-110.327574356 1214.42243436 -145.850284356 1237.32323436 -145.850284356 1236.24023436Z"
           style="fill:#003833;fill-opacity:1" />
        <path
           id="path4389"
           d="M141.97142 975.62797C179.748317224 950.552049471 211.063434612 928.814498775 214.656339291 925.221594096L2.52430493547 1137.35362845C-1.06859974375 1140.94653313 -32.3837171316 1162.68408383 -70.160614356 1187.76000436Z"
           style="fill:#003833;fill-opacity:1" />
        <path
           id="path4391"
           d="M214.656339291 925.221594096C214.883651765 924.994281623 215.0 924.839597076 215.0 924.76129L2.86796564404 1136.89332436C2.86796564404 1136.97163143 2.75161740881 1137.12631598 2.52430493547 1137.35362845Z"
           style="fill:#003833;fill-opacity:1" />
        <path
           id="path4393"
           d="M215.0 924.76129C215.0 922.73301 73.709899 827.64365 66.28175 824.62702L-145.850284356 1036.75905436C-138.422135356 1039.77568436 2.86796564404 1134.86504436 2.86796564404 1136.89332436Z"
           style="fill:#003833;fill-opacity:1" />
      </g>
      <path
         style="fill:#003833;fill-opacity:1;stroke:none;stroke-width:20;stroke-linecap:butt;stroke-linejoin:miter;stroke-miterlimit:4;stroke-dasharray:none;stroke-opacity:1"
         d="m 66.28175,824.62702 0,49.21874 0,50.25634 c 1.28906,-0.003 13.952619,-7.03387 26.843238,-15.6189 12.890622,-8.58503 25.447062,-15.61453 27.899182,-15.61888 4.31897,-0.009 45.82565,26.64491 48.67553,31.25609 0.77659,1.25657 -22.46178,18.15113 -51.64184,37.53662 l -51.77611,35.24169 0,13.60478 0,13.6047 c 0,1.083 35.52271,-21.8178 75.68967,-48.48023 C 182.13835,948.96557 215,926.07732 215,924.76129 215,922.73301 73.709899,827.64365 66.28175,824.62702 Z"
         id="path4312"
         inkscape:connector-curvature="0"
         sodipodi:nodetypes="cccscscccsssc" />
    </g>
    <path
       sodipodi:nodetypes="cccscscccsssc"
       inkscape:connector-curvature="0"
       id="rect4288"
       d="m 66.28175,824.62702 0,49.21874 0,50.25634 c 1.28906,-0.003 13.952619,-7.03387 26.843238,-15.6189 12.890622,-8.58503 25.447062,-15.61453 27.899182,-15.61888 4.31897,-0.009 45.82565,26.64491 48.67553,31.25609 0.77659,1.25657 -22.46178,18.15113 -51.64184,37.53662 l -51.77611,35.24169 0,13.60478 0,13.6047 c 0,1.083 35.52271,-21.8178 75.68967,-48.48023 C 182.13835,948.96557 215,926.07732 215,924.76129 215,922.73301 73.709899,827.64365 66.28175,824.62702 Z"
       style="fill:#ffffff;fill-opacity:1;stroke:none;stroke-width:20;stroke-linecap:butt;stroke-linejoin:miter;stroke-miterlimit:4;stroke-dasharray:none;stroke-opacity:1" />
  </g>
</svg>
