<?xml version="1.0" encoding="UTF-8" standalone="no"?>
<!-- Created with Inkscape (http://www.inkscape.org/) -->

<svg
   xmlns:dc="http://purl.org/dc/elements/1.1/"
   xmlns:cc="http://creativecommons.org/ns#"
   xmlns:rdf="http://www.w3.org/1999/02/22-rdf-syntax-ns#"
   xmlns:svg="http://www.w3.org/2000/svg"
   xmlns="http://www.w3.org/2000/svg"
   xmlns:sodipodi="http://sodipodi.sourceforge.net/DTD/sodipodi-0.dtd"
   xmlns:inkscape="http://www.inkscape.org/namespaces/inkscape"
   width="256"
   height="256"
   viewBox="0 0 256 256"
   id="svg2"
   version="1.1"
   inkscape:version="0.92.0 r"
   sodipodi:docname="denemo.svg">
  <sodipodi:namedview
     id="base"
     pagecolor="#ffffff"
     bordercolor="#666666"
     borderopacity="1.0"
     inkscape:pageopacity="0.0"
     inkscape:pageshadow="2"
     inkscape:zoom="9.5127958"
     inkscape:cx="111.99019"
     inkscape:cy="98.377024"
     inkscape:document-units="px"
     inkscape:current-layer="layer1"
     showgrid="true"
     units="px"
     inkscape:window-width="1920"
     inkscape:window-height="1054"
     inkscape:window-x="0"
     inkscape:window-y="0"
     inkscape:window-maximized="1" />
  <defs
     id="defs4">
    <clipPath
       id="clipPath5002"
       clipPathUnits="userSpaceOnUse">
      <g
         id="g5004">
        <path
           style="fill:#0f9d58;fill-opacity:1;stroke:none;stroke-width:4.85768509;stroke-linejoin:round;stroke-miterlimit:4;stroke-dasharray:none;stroke-opacity:1"
           d="M 88.118406,249.43519 C 46.103287,235.29134 14.771284,201.68742 4.1335861,159.36053 1.3377997,148.23623 0.92261224,144.16281 0.92582381,127.88908 0.92787958,117.47222 1.134384,112.01362 1.6577819,108.54099 4.4653598,89.913336 12.17654,70.638106 23.042737,55.086148 c 3.958678,-5.665755 8.344812,-10.93092 9.101533,-10.925587 0.32809,0.0023 10.488643,18.309713 22.579009,40.683112 12.090365,22.373397 22.374546,41.334697 22.853732,42.136217 0.479186,0.80151 0.924733,2.44098 0.990103,3.64326 0.343424,6.31639 2.524175,14.20976 5.6424,20.42304 2.954444,5.88693 5.065381,8.73258 10.434696,14.06652 6.71418,6.66995 12.88853,10.28643 21.73204,12.72904 3.16587,0.87442 5.10478,1.05037 11.57517,1.05037 8.82596,0 12.60219,-0.76201 19.26429,-3.88733 2.04584,-0.95974 3.93661,-1.66536 4.20172,-1.56805 0.2651,0.0973 -11.0555,17.66459 -25.1569,39.0384 l -25.6389,38.86148 -3.094121,0.11221 c -2.554618,0.0927 -4.195204,-0.25845 -9.409103,-2.01364 z"
           id="path5006"
           inkscape:connector-curvature="0"
           transform="translate(0,796.36216)" />
        <path
           style="fill:#f4b400;fill-opacity:1;stroke:none;stroke-width:4.85768509;stroke-linejoin:round;stroke-miterlimit:4;stroke-dasharray:none;stroke-opacity:1"
           d="m 112.35984,1051.5167 c -10.0014,-1.4495 -12.15632,-1.8201 -12.531784,-2.1556 -0.248854,-0.2223 1.738304,-3.7475 4.550294,-8.0722 7.16635,-11.0213 49.77231,-74.64801 50.25856,-75.05489 3.57509,-2.99158 8.63523,-8.0414 10.57512,-10.55356 3.36154,-4.35318 7.55784,-12.9141 9.06523,-18.494 6.19314,-22.92535 -2.59253,-47.15185 -21.69967,-59.83688 l -2.96081,-1.96565 17.02469,0.29584 c 9.36358,0.1627 31.17032,0.43384 48.45941,0.60252 l 31.43471,0.30668 1.54584,4.18869 c 2.24597,6.08579 4.67816,15.0947 5.93451,21.9816 1.52517,8.36049 1.92536,28.85896 0.73851,37.82758 -3.0805,23.27845 -12.81326,45.72018 -27.80202,64.10577 -20.47622,25.1166 -51.4599,42.1974 -84.14612,46.3885 -5.31244,0.6812 -26.64601,0.9864 -30.44647,0.4356 z"
           id="path5008"
           inkscape:connector-curvature="0" />
        <path
           style="fill:#db4437;fill-opacity:1;stroke:none;stroke-width:10;stroke-linejoin:round;stroke-miterlimit:4;stroke-dasharray:none;stroke-opacity:1"
           d="M 67.989788,108.87302 C 41.284246,59.575543 33.290284,45.149038 32.233625,44.344765 31.651257,43.901497 32.811213,42.549931 38.695603,36.815353 53.43581,22.450419 68.809334,13.040746 87.839196,6.7360352 101.68742,2.1480329 112.58238,0.43719165 127.95142,0.43719165 c 21.3099,0 37.80488,3.80960275 56.83492,13.12633035 25.29351,12.383198 46.19421,33.578863 58.51993,59.345832 1.61138,3.368591 2.92978,6.372442 2.92978,6.675231 0,0.560033 -10.54865,0.49527 -71.16508,-0.436914 l -24.28843,-0.373518 -3.93063,-1.764495 c -6.75732,-3.033425 -10.64587,-3.839529 -18.6576,-3.867747 -5.0296,-0.01773 -7.97946,0.207636 -10.31642,0.788106 -14.50826,3.603659 -26.283291,12.94777 -33.291614,26.418653 -3.58502,6.89086 -5.24713,13.08166 -6.331628,23.58317 l -0.33738,3.26696 -9.92748,-18.32578 z"
           id="path5010"
           inkscape:connector-curvature="0"
           transform="translate(0,796.36216)" />
      </g>
    </clipPath>
    <clipPath
       clipPathUnits="userSpaceOnUse"
       id="clipPath4253">
      <circle
         style="fill:#bababa;fill-opacity:1;stroke:none;stroke-width:0.1;stroke-linecap:round;stroke-linejoin:round;stroke-miterlimit:4;stroke-dasharray:none;stroke-opacity:1"
         id="circle4255"
         cx="128"
         cy="924.36218"
         r="128" />
    </clipPath>
    <clipPath
       id="clipPath4350"
       clipPathUnits="userSpaceOnUse">
      <circle
         style="fill:#7e7e7e;fill-opacity:1;stroke:none;stroke-width:0.1;stroke-linecap:round;stroke-linejoin:round;stroke-miterlimit:4;stroke-dasharray:none;stroke-opacity:1"
         id="circle4352"
         cx="128"
         cy="924.36218"
         r="128" />
    </clipPath>
    <clipPath
       clipPathUnits="userSpaceOnUse"
       id="clipPath4523">
      <circle
         style="fill:#7e7e7e;fill-opacity:1;stroke:none;stroke-width:0.1;stroke-linecap:round;stroke-linejoin:round;stroke-miterlimit:4;stroke-dasharray:none;stroke-opacity:1"
         id="circle4525"
         cx="128"
         cy="924.36218"
         r="128" />
    </clipPath>
  </defs>
  <metadata
     id="metadata7">
    <rdf:RDF>
      <cc:Work
         rdf:about="">
        <dc:format>image/svg+xml</dc:format>
        <dc:type
           rdf:resource="http://purl.org/dc/dcmitype/StillImage" />
        <dc:title />
      </cc:Work>
    </rdf:RDF>
  </metadata>
  <g
     inkscape:label="Layer 1"
     inkscape:groupmode="layer"
     id="layer1"
     transform="translate(0,-796.36216)">
    <path
       style="fill:none;fill-rule:evenodd;stroke:none;stroke-width:1px;stroke-linecap:butt;stroke-linejoin:miter;stroke-opacity:1"
       d="M 154.47438,968.80998 101.03985,1048.476 0.4857685,1048.9618 0,842.0244 l 33.032258,-2.42884 45.176471,83.55218 21.373814,35.4611 26.717267,13.11575 z"
       id="path4913"
       inkscape:connector-curvature="0" />
    <circle
       r="128"
       cy="924.36218"
       cx="128"
       id="path4152"
       style="fill:#517293;fill-opacity:1;stroke:none;stroke-width:0.1;stroke-linecap:round;stroke-linejoin:round;stroke-miterlimit:4;stroke-dasharray:none;stroke-opacity:1" />
    <g
       id="g4362"
       clip-path="url(#clipPath4523)"
       style="fill:#2c3e50;fill-opacity:1">
      <g
         transform="translate(-124.36012,6.0207009)"
         id="g4364"
         style="fill:#2c3e50;fill-opacity:1">
        <path
           style="fill:#2c3e50;fill-opacity:1;stroke:none;stroke-opacity:1"
           d="m 253.02672,865.34241 2.97329,0 0,90.68525 -2.97329,0 z"
           id="path4366" />
        <path
           transform="matrix(0.96741541,-0.25319446,0.25319446,0.96741541,0,0)"
           style="fill:#2c3e50;fill-opacity:1;stroke:none;stroke-opacity:1"
           inkscape:transform-center-x="18.470774"
           inkscape:transform-center-y="5.756225"
           d="m 5.5346031,989.22119 a 20.367016,10.555168 0 0 1 -20.3670161,10.55517 20.367016,10.555168 0 0 1 -20.367016,-10.55517 20.367016,10.555168 0 0 1 20.367016,-10.55517 20.367016,10.555168 0 0 1 20.3670161,10.55517 z"
           id="path4368" />
      </g>
      <g
         id="g4409"
         style="fill:#2c3e50;fill-opacity:1">
        <g
           id="g4411"
           style="fill:#2c3e50;fill-opacity:1;stroke:none;stroke-opacity:1">
          <path
             id="path4413"
             d="M46.383278 923.59399L209.61672 923.59399L-2.51531435596 1135.72602436L-165.748756356 1135.72602436Z"
             style="fill:#2c3e50;fill-opacity:1" />
          <path
             id="path4415"
             d="M209.61672 923.59399L209.61672 925.08064L-2.51531435596 1137.21267436L-2.51531435596 1135.72602436Z"
             style="fill:#2c3e50;fill-opacity:1" />
          <path
             id="path4417"
             d="M209.61672 925.08064L46.383278 925.08064L-165.748756356 1137.21267436L-2.51531435596 1137.21267436Z"
             style="fill:#2c3e50;fill-opacity:1" />
        </g>
        <path
           style="fill:#2c3e50;fill-opacity:1;stroke:none;stroke-opacity:1"
           d="m 46.383278,923.59399 163.233442,0 0,1.48665 -163.233442,0 z"
           id="path4372" />
      </g>
      <g
         id="g4420"
         style="fill:#2c3e50;fill-opacity:1">
        <g
           id="g4422"
           style="fill:#2c3e50;fill-opacity:1;stroke:none;stroke-opacity:1">
          <path
             id="path4424"
             d="M46.383278 976.66718L209.61672 976.66718L-2.51531435596 1188.79921436L-165.748756356 1188.79921436Z"
             style="fill:#2c3e50;fill-opacity:1" />
          <path
             id="path4426"
             d="M209.61672 976.66718L209.61672 978.15382L-2.51531435596 1190.28585436L-2.51531435596 1188.79921436Z"
             style="fill:#2c3e50;fill-opacity:1" />
          <path
             id="path4428"
             d="M209.61672 978.15382L46.383278 978.15382L-165.748756356 1190.28585436L-2.51531435596 1190.28585436Z"
             style="fill:#2c3e50;fill-opacity:1" />
        </g>
        <path
           style="fill:#2c3e50;fill-opacity:1;stroke:none;stroke-opacity:1"
           d="m 46.383278,976.66718 163.233442,0 0,1.48664 -163.233442,0 z"
           id="path4378" />
      </g>
      <g
         id="g4431"
         style="fill:#2c3e50;fill-opacity:1">
        <g
           id="g4433"
           style="fill:#2c3e50;fill-opacity:1;stroke:none;stroke-opacity:1">
          <path
             id="path4435"
             d="M46.383278 950.13062L209.61672 950.13062L-2.51531435596 1162.26265436L-165.748756356 1162.26265436Z"
             style="fill:#2c3e50;fill-opacity:1" />
          <path
             id="path4437"
             d="M209.61672 950.13062L209.61672 951.61726L-2.51531435596 1163.74929436L-2.51531435596 1162.26265436Z"
             style="fill:#2c3e50;fill-opacity:1" />
          <path
             id="path4439"
             d="M209.61672 951.61726L46.383278 951.61726L-165.748756356 1163.74929436L-2.51531435596 1163.74929436Z"
             style="fill:#2c3e50;fill-opacity:1" />
        </g>
        <path
           style="fill:#2c3e50;fill-opacity:1;stroke:none;stroke-opacity:1"
           d="m 46.383278,950.13062 163.233442,0 0,1.48664 -163.233442,0 z"
           id="path4370" />
      </g>
      <g
         id="g4442"
         style="fill:#2c3e50;fill-opacity:1">
        <g
           id="g4444"
           style="fill:#2c3e50;fill-opacity:1;stroke:none;stroke-opacity:1">
          <path
             id="path4446"
             d="M46.383278 870.52081L209.61672 870.52081L-2.51531435596 1082.65284436L-165.748756356 1082.65284436Z"
             style="fill:#2c3e50;fill-opacity:1" />
          <path
             id="path4448"
             d="M209.61672 870.52081L209.61672 872.00746L-2.51531435596 1084.13949436L-2.51531435596 1082.65284436Z"
             style="fill:#2c3e50;fill-opacity:1" />
          <path
             id="path4450"
             d="M209.61672 872.00746L46.383278 872.00746L-165.748756356 1084.13949436L-2.51531435596 1084.13949436Z"
             style="fill:#2c3e50;fill-opacity:1" />
        </g>
        <path
           style="fill:#2c3e50;fill-opacity:1;stroke:none;stroke-opacity:1"
           d="m 46.383278,870.52081 163.233442,0 0,1.48665 -163.233442,0 z"
           id="path4376" />
      </g>
      <g
         id="g4453"
         style="fill:#2c3e50;fill-opacity:1">
        <g
           id="g4455"
           style="fill:#2c3e50;fill-opacity:1;stroke:none;stroke-opacity:1">
          <path
             id="path4457"
             d="M46.383278 897.05737L209.61672 897.05737L-2.51531435596 1109.18940436L-165.748756356 1109.18940436Z"
             style="fill:#2c3e50;fill-opacity:1" />
          <path
             id="path4459"
             d="M209.61672 897.05737L209.61672 898.54402L-2.51531435596 1110.67605436L-2.51531435596 1109.18940436Z"
             style="fill:#2c3e50;fill-opacity:1" />
          <path
             id="path4461"
             d="M209.61672 898.54402L46.383278 898.54402L-165.748756356 1110.67605436L-2.51531435596 1110.67605436Z"
             style="fill:#2c3e50;fill-opacity:1" />
        </g>
        <path
           style="fill:#2c3e50;fill-opacity:1;stroke:none;stroke-opacity:1"
           d="m 46.383278,897.05737 163.233442,0 0,1.48665 -163.233442,0 z"
           id="path4374" />
      </g>
    </g>
    <path
       id="rect4165"
       d="m 128.84702,871.36311 h 5 v 90.68525 h -5 z"
       style="fill:#ffffff;fill-opacity:1;stroke:none;stroke-width:1.29678023;stroke-opacity:1"
       inkscape:connector-curvature="0" />
    <path
       id="path4167"
       d="m 133.6666,959.83543 a 10.555168,20.367016 75.333375 0 1 -17.03085,15.36805 10.555168,20.367016 75.333375 0 1 -22.375879,-5.05442 10.555168,20.367016 75.333375 0 1 17.030849,-15.36805 10.555168,20.367016 75.333375 0 1 22.37588,5.05442 z"
       inkscape:transform-center-y="5.756225"
       inkscape:transform-center-x="18.470774"
       style="fill:#ffffff;fill-opacity:1;stroke:none;stroke-opacity:1"
       inkscape:connector-curvature="0" />
    <path
       inkscape:connector-curvature="0"
       style="fill:#ffffff;fill-opacity:1;stroke:none;stroke-width:1.83392727;stroke-opacity:1"
       d="M 46.383278,946.61726 H 209.61672 v 5 H 46.383278 Z"
       id="rect4173" />
    <path
       inkscape:connector-curvature="0"
       style="fill:#ffffff;fill-opacity:1;stroke:none;stroke-width:1.83392107;stroke-opacity:1"
       d="M 46.383278,920.08064 H 209.61672 v 5 H 46.383278 Z"
       id="rect4175" />
    <path
       inkscape:connector-curvature="0"
       style="fill:#ffffff;fill-opacity:1;stroke:none;stroke-width:1.83392107;stroke-opacity:1"
       d="M 46.383278,893.54402 H 209.61672 v 5 H 46.383278 Z"
       id="rect4177" />
    <path
       inkscape:connector-curvature="0"
       style="fill:#ffffff;fill-opacity:1;stroke:none;stroke-width:1.83392107;stroke-opacity:1"
       d="M 46.383278,867.00746 H 209.61672 v 5 H 46.383278 Z"
       id="rect4179" />
    <path
       inkscape:connector-curvature="0"
       style="fill:#ffffff;fill-opacity:1;stroke:none;stroke-width:1.83392727;stroke-opacity:1"
       d="M 46.383278,973.15382 H 209.61672 v 5 H 46.383278 Z"
       id="rect4181" />
  </g>
</svg>
