<?xml version="1.0" encoding="UTF-8" standalone="no"?>
<!-- Created with Inkscape (http://www.inkscape.org/) -->

<svg
   xmlns:dc="http://purl.org/dc/elements/1.1/"
   xmlns:cc="http://creativecommons.org/ns#"
   xmlns:rdf="http://www.w3.org/1999/02/22-rdf-syntax-ns#"
   xmlns:svg="http://www.w3.org/2000/svg"
   xmlns="http://www.w3.org/2000/svg"
   xmlns:sodipodi="http://sodipodi.sourceforge.net/DTD/sodipodi-0.dtd"
   xmlns:inkscape="http://www.inkscape.org/namespaces/inkscape"
   width="256"
   height="256"
   viewBox="0 0 256 256"
   id="svg2"
   version="1.1"
   inkscape:version="0.92.0 r"
   sodipodi:docname="emacs.svg">
  <sodipodi:namedview
     id="base"
     pagecolor="#ffffff"
     bordercolor="#666666"
     borderopacity="1.0"
     inkscape:pageopacity="0.0"
     inkscape:pageshadow="2"
     inkscape:zoom="3.3359375"
     inkscape:cx="116.15925"
     inkscape:cy="128"
     inkscape:document-units="px"
     inkscape:current-layer="layer1"
     showgrid="true"
     units="px"
     inkscape:window-width="1920"
     inkscape:window-height="1054"
     inkscape:window-x="0"
     inkscape:window-y="0"
     inkscape:window-maximized="1">
    <inkscape:grid
       spacingy="5"
       spacingx="5"
       id="grid4168"
       type="xygrid" />
  </sodipodi:namedview>
  <defs
     id="defs4">
    <clipPath
       id="clipPath5002"
       clipPathUnits="userSpaceOnUse">
      <g
         id="g5004">
        <path
           style="fill:#0f9d58;fill-opacity:1;stroke:none;stroke-width:4.85768509;stroke-linejoin:round;stroke-miterlimit:4;stroke-dasharray:none;stroke-opacity:1"
           d="M 88.118406,249.43519 C 46.103287,235.29134 14.771284,201.68742 4.1335861,159.36053 1.3377997,148.23623 0.92261224,144.16281 0.92582381,127.88908 0.92787958,117.47222 1.134384,112.01362 1.6577819,108.54099 4.4653598,89.913336 12.17654,70.638106 23.042737,55.086148 c 3.958678,-5.665755 8.344812,-10.93092 9.101533,-10.925587 0.32809,0.0023 10.488643,18.309713 22.579009,40.683112 12.090365,22.373397 22.374546,41.334697 22.853732,42.136217 0.479186,0.80151 0.924733,2.44098 0.990103,3.64326 0.343424,6.31639 2.524175,14.20976 5.6424,20.42304 2.954444,5.88693 5.065381,8.73258 10.434696,14.06652 6.71418,6.66995 12.88853,10.28643 21.73204,12.72904 3.16587,0.87442 5.10478,1.05037 11.57517,1.05037 8.82596,0 12.60219,-0.76201 19.26429,-3.88733 2.04584,-0.95974 3.93661,-1.66536 4.20172,-1.56805 0.2651,0.0973 -11.0555,17.66459 -25.1569,39.0384 l -25.6389,38.86148 -3.094121,0.11221 c -2.554618,0.0927 -4.195204,-0.25845 -9.409103,-2.01364 z"
           id="path5006"
           inkscape:connector-curvature="0"
           transform="translate(0,796.36216)" />
        <path
           style="fill:#f4b400;fill-opacity:1;stroke:none;stroke-width:4.85768509;stroke-linejoin:round;stroke-miterlimit:4;stroke-dasharray:none;stroke-opacity:1"
           d="m 112.35984,1051.5167 c -10.0014,-1.4495 -12.15632,-1.8201 -12.531784,-2.1556 -0.248854,-0.2223 1.738304,-3.7475 4.550294,-8.0722 7.16635,-11.0213 49.77231,-74.64801 50.25856,-75.05489 3.57509,-2.99158 8.63523,-8.0414 10.57512,-10.55356 3.36154,-4.35318 7.55784,-12.9141 9.06523,-18.494 6.19314,-22.92535 -2.59253,-47.15185 -21.69967,-59.83688 l -2.96081,-1.96565 17.02469,0.29584 c 9.36358,0.1627 31.17032,0.43384 48.45941,0.60252 l 31.43471,0.30668 1.54584,4.18869 c 2.24597,6.08579 4.67816,15.0947 5.93451,21.9816 1.52517,8.36049 1.92536,28.85896 0.73851,37.82758 -3.0805,23.27845 -12.81326,45.72018 -27.80202,64.10577 -20.47622,25.1166 -51.4599,42.1974 -84.14612,46.3885 -5.31244,0.6812 -26.64601,0.9864 -30.44647,0.4356 z"
           id="path5008"
           inkscape:connector-curvature="0" />
        <path
           style="fill:#db4437;fill-opacity:1;stroke:none;stroke-width:10;stroke-linejoin:round;stroke-miterlimit:4;stroke-dasharray:none;stroke-opacity:1"
           d="M 67.989788,108.87302 C 41.284246,59.575543 33.290284,45.149038 32.233625,44.344765 31.651257,43.901497 32.811213,42.549931 38.695603,36.815353 53.43581,22.450419 68.809334,13.040746 87.839196,6.7360352 101.68742,2.1480329 112.58238,0.43719165 127.95142,0.43719165 c 21.3099,0 37.80488,3.80960275 56.83492,13.12633035 25.29351,12.383198 46.19421,33.578863 58.51993,59.345832 1.61138,3.368591 2.92978,6.372442 2.92978,6.675231 0,0.560033 -10.54865,0.49527 -71.16508,-0.436914 l -24.28843,-0.373518 -3.93063,-1.764495 c -6.75732,-3.033425 -10.64587,-3.839529 -18.6576,-3.867747 -5.0296,-0.01773 -7.97946,0.207636 -10.31642,0.788106 -14.50826,3.603659 -26.283291,12.94777 -33.291614,26.418653 -3.58502,6.89086 -5.24713,13.08166 -6.331628,23.58317 l -0.33738,3.26696 -9.92748,-18.32578 z"
           id="path5010"
           inkscape:connector-curvature="0"
           transform="translate(0,796.36216)" />
      </g>
    </clipPath>
    <clipPath
       clipPathUnits="userSpaceOnUse"
       id="clipPath4271">
      <circle
         style="fill:#292929;fill-opacity:0.26020412;stroke:none;stroke-width:10;stroke-linejoin:round;stroke-miterlimit:4;stroke-dasharray:none;stroke-opacity:0.25882353"
         id="circle4273"
         cx="128"
         cy="128.00002"
         r="128" />
    </clipPath>
    <clipPath
       id="clipPath4363"
       clipPathUnits="userSpaceOnUse">
      <circle
         style="fill:#4285f4;fill-opacity:1;stroke:none;stroke-width:10;stroke-linejoin:round;stroke-miterlimit:4;stroke-dasharray:none;stroke-opacity:0.25882353"
         id="circle4365"
         cx="128"
         cy="924.36218"
         r="128" />
    </clipPath>
    <clipPath
       clipPathUnits="userSpaceOnUse"
       id="clipPath4452">
      <circle
         style="fill:#4285f4;fill-opacity:1;stroke:none;stroke-width:10;stroke-linejoin:round;stroke-miterlimit:4;stroke-dasharray:none;stroke-opacity:0.25882353"
         id="circle4454"
         cx="128"
         cy="924.36218"
         r="128" />
    </clipPath>
    <inkscape:path-effect
       is_visible="true"
       id="path-effect4168"
       effect="spiro" />
    <inkscape:path-effect
       fuse_tolerance="0"
       vertical_pattern="false"
       prop_units="false"
       tang_offset="0"
       normal_offset="0"
       spacing="0"
       scale_y_rel="false"
       prop_scale="1"
       copytype="single_stretched"
       pattern="m 0,796.36216 1,0"
       is_visible="true"
       id="path-effect4170"
       effect="skeletal" />
    <inkscape:path-effect
       is_visible="true"
       id="path-effect4174"
       effect="spiro" />
    <inkscape:path-effect
       fuse_tolerance="0"
       vertical_pattern="false"
       prop_units="false"
       tang_offset="0"
       normal_offset="0"
       spacing="0"
       scale_y_rel="false"
       prop_scale="1"
       copytype="single_stretched"
       pattern="m 0,796.36216 1,0"
       is_visible="true"
       id="path-effect4176"
       effect="skeletal" />
    <clipPath
       clipPathUnits="userSpaceOnUse"
       id="clipPath4980">
      <path
         transform="matrix(1.0110039,0,0,0.87092225,-1.4059192,107.89621)"
         sodipodi:nodetypes="cccccccccccccccccccccssscccccccccazzzzzzzzzzzsccccccccc"
         inkscape:connector-curvature="0"
         id="path4982"
         d="m 10.42124,864.27189 42.534575,-0.0913 21.267287,-0.0456 c 7.245384,-0.0152 14.490768,-0.0305 21.736152,-0.0456 8.394956,-10.58827 10.291846,-15.47699 14.084686,-17.71727 3.79283,-2.24028 9.4816,-1.8321 25.46032,-1.82658 23.36644,-0.007 109.60565,-0.67788 109.60565,-0.67788 l -0.0879,12.1518 -0.0879,12.1518 -0.0879,12.15181 -0.0879,12.1518 -0.0879,12.1518 -0.0879,12.1518 -0.0879,12.15181 -0.0879,12.1518 -0.0879,12.1518 -0.0879,12.1518 -0.0879,12.15181 -0.0879,12.1518 -0.0879,12.15181 -0.0879,12.1518 c 0,0 0.59382,8.1589 -0.0879,12.1518 -0.58177,3.4075 -0.78038,7.5176 -3.36995,9.8075 -2.83121,2.5035 -7.3341,1.9515 -11.09295,2.3443 -4.76571,0.4981 -14.375,0 -14.375,0 l -14.375,0 -14.375,0 -14.37501,0 -14.375,0 -14.375,0 -14.375,0 -14.375,0 -14.375,0 -14.375001,0 c 0,0 -9.583334,0 -14.375001,0 -4.791667,0 -9.583334,0 -14.375001,0 -4.791667,0 -9.500662,0.094 -14.375001,0 -4.874339,-0.093 -10.854147,0.062 -15.030858,-0.571 -4.176712,-0.6329 -7.699545,-0.5576 -9.968228,-2.7111 -2.268683,-2.1535 -2.21606,-4.4991 -2.972258,-7.5945 -0.756198,-3.0955 -0.95689,-7.246 -1.188915,-10.8765 -0.232024,-3.6305 -0.136752,-7.251 -0.205128,-10.8765 -0.06838,-3.6255 -0.136752,-7.25106 -0.205128,-10.87658 -0.06838,-3.62552 -0.136753,-7.25102 -0.205129,-10.87653 -0.06838,-3.62551 -0.136752,-7.25103 -0.205128,-10.87654 -0.06838,-3.62551 -0.205129,-10.87653 -0.205129,-10.87653 L 12.062467,951.28418 11.857339,940.40764 11.65221,929.53111 11.447082,918.65457 11.241954,907.77803 11.036825,896.9015 10.831697,886.02496 10.626568,875.14843 Z"
         style="opacity:0.91000001;fill:#38bae1;fill-opacity:1;stroke:none;stroke-width:0;stroke-linecap:round;stroke-linejoin:round;stroke-miterlimit:4;stroke-dasharray:none;stroke-opacity:1;filter:url(#filter4298)" />
    </clipPath>
    <filter
       id="filter4298"
       inkscape:label="Drop Shadow"
       style="color-interpolation-filters:sRGB">
      <feFlood
         id="feFlood4300"
         result="flood"
         flood-color="rgb(0,0,0)"
         flood-opacity="0.498039" />
      <feComposite
         id="feComposite4302"
         result="composite1"
         operator="in"
         in2="SourceGraphic"
         in="flood" />
      <feGaussianBlur
         id="feGaussianBlur4304"
         result="blur"
         stdDeviation="1.6"
         in="composite1" />
      <feOffset
         id="feOffset4306"
         result="offset"
         dy="-7.7"
         dx="-2.77556e-17" />
      <feComposite
         id="feComposite4308"
         result="composite2"
         operator="over"
         in2="offset"
         in="SourceGraphic" />
    </filter>
    <clipPath
       id="clipPath6010"
       clipPathUnits="userSpaceOnUse">
      <circle
         style="fill:#0f9d58;fill-opacity:1;stroke:none;stroke-width:10;stroke-linejoin:round;stroke-miterlimit:4;stroke-dasharray:none;stroke-opacity:0.25882353"
         id="circle6012"
         cx="125.30894"
         cy="921.46759"
         r="128" />
    </clipPath>
    <clipPath
       id="clipPath6287"
       clipPathUnits="userSpaceOnUse">
      <ellipse
         ry="280.345"
         rx="243.77826"
         style="fill:#0f9d58;fill-opacity:1;stroke:none;stroke-width:10;stroke-linejoin:round;stroke-miterlimit:4;stroke-dasharray:none;stroke-opacity:0.25882353"
         id="circle6289"
         cx="124.93641"
         cy="917.04297" />
    </clipPath>
    <clipPath
       clipPathUnits="userSpaceOnUse"
       id="clipPath4376">
      <ellipse
         style="fill:#aae3c7;fill-opacity:1;stroke:none;stroke-width:10;stroke-linejoin:round;stroke-miterlimit:4;stroke-dasharray:none;stroke-opacity:0.25882353"
         id="circle4378"
         cx="125.53584"
         cy="905.0332"
         rx="198.85544"
         ry="228.68375" />
    </clipPath>
    <clipPath
       clipPathUnits="userSpaceOnUse"
       id="clipPath5279">
      <circle
         style="fill:#f4b400;fill-opacity:1;stroke:none;stroke-width:10;stroke-linejoin:round;stroke-miterlimit:4;stroke-dasharray:none;stroke-opacity:0.25882353"
         id="circle5281"
         cx="191.19023"
         cy="984.82697"
         r="128" />
    </clipPath>
    <clipPath
       id="clipPath4206"
       clipPathUnits="userSpaceOnUse">
      <circle
         style="fill:#f4b400;fill-opacity:1;stroke:none;stroke-width:10;stroke-linejoin:round;stroke-miterlimit:4;stroke-dasharray:none;stroke-opacity:0.25882353"
         id="circle4208"
         cx="128"
         cy="924.36218"
         r="128" />
    </clipPath>
    <clipPath
       id="clipPath4228"
       clipPathUnits="userSpaceOnUse">
      <circle
         style="fill:#f4b400;fill-opacity:1;stroke:none;stroke-width:10;stroke-linejoin:round;stroke-miterlimit:4;stroke-dasharray:none;stroke-opacity:0.25882353"
         id="circle4230"
         cx="128"
         cy="924.36218"
         r="128" />
    </clipPath>
    <clipPath
       id="clipPath4359"
       clipPathUnits="userSpaceOnUse">
      <circle
         style="fill:#f4b400;fill-opacity:1;stroke:none;stroke-width:10;stroke-linejoin:round;stroke-miterlimit:4;stroke-dasharray:none;stroke-opacity:0.25882353"
         id="circle4361"
         cx="101.19023"
         cy="930.17133"
         r="128" />
    </clipPath>
    <clipPath
       clipPathUnits="userSpaceOnUse"
       id="clipPath5177">
      <circle
         style="fill:#ff7900;fill-opacity:1;stroke:none;stroke-width:10;stroke-linejoin:round;stroke-miterlimit:4;stroke-dasharray:none;stroke-opacity:0.25882353"
         id="circle5179"
         cx="129.17496"
         cy="916.84381"
         r="128" />
    </clipPath>
    <clipPath
       id="clipPath5704"
       clipPathUnits="userSpaceOnUse">
      <circle
         style="fill:#1f59b5;fill-opacity:1;stroke:none;stroke-width:10;stroke-linejoin:round;stroke-miterlimit:4;stroke-dasharray:none;stroke-opacity:0.25882353"
         id="circle5706"
         cx="128"
         cy="924.36218"
         r="128" />
    </clipPath>
    <clipPath
       clipPathUnits="userSpaceOnUse"
       id="clipPath408">
      <circle
         style="fill:#6c69b3;fill-opacity:0.99215686;stroke:none;stroke-width:10;stroke-linejoin:round;stroke-miterlimit:4;stroke-dasharray:none;stroke-opacity:0.25882353"
         id="circle410"
         cx="128"
         cy="924.36218"
         r="128" />
    </clipPath>
  </defs>
  <metadata
     id="metadata7">
    <rdf:RDF>
      <cc:Work
         rdf:about="">
        <dc:format>image/svg+xml</dc:format>
        <dc:type
           rdf:resource="http://purl.org/dc/dcmitype/StillImage" />
        <dc:title />
      </cc:Work>
    </rdf:RDF>
  </metadata>
  <g
     inkscape:label="Layer 1"
     inkscape:groupmode="layer"
     id="layer1"
     transform="translate(0,-796.36216)">
    <path
       style="fill:none;fill-rule:evenodd;stroke:none;stroke-width:1px;stroke-linecap:butt;stroke-linejoin:miter;stroke-opacity:1"
       d="M 154.47438,968.80998 101.03985,1048.476 0.4857685,1048.9618 0,842.0244 l 33.032258,-2.42884 45.176471,83.55218 21.373814,35.4611 26.717267,13.11575 z"
       id="path4913"
       inkscape:connector-curvature="0" />
    <circle
       r="128"
       cy="924.36218"
       cx="128"
       id="path4152"
       style="fill:#726eb8;fill-opacity:1;stroke:none;stroke-width:10;stroke-linejoin:round;stroke-miterlimit:4;stroke-dasharray:none;stroke-opacity:0.25882353" />
    <g
       id="g271"
       clip-path="url(#clipPath408)"
       style="fill:#444084;fill-opacity:1">
      <g
         id="g268"
         style="fill:#444084;fill-opacity:1;fill-rule:evenodd;stroke:#000000;stroke-width:0;stroke-linecap:butt;stroke-linejoin:miter;stroke-miterlimit:4;stroke-dasharray:none;stroke-opacity:1">
        <path
           id="path190"
           d="M79.439542 997.18502C79.439542 997.18502 88.977411 999.95441 101.67345 1001.5377L-39.7479062373 1142.95905624C-52.4439452373 1141.37576624 -61.9818142373 1138.60637624 -61.9818142373 1138.60637624Z"
           style="fill:#444084;fill-opacity:1" />
        <path
           id="path192"
           d="M101.67345 1001.5377C106.81503 1002.1788 126.37778 1004.4198 141.37688 1004.361L-0.0444762373095 1145.78235624C-15.0435762373 1145.84115624 -34.6063262373 1143.60015624 -39.7479062373 1142.95905624Z"
           style="fill:#444084;fill-opacity:1" />
        <path
           id="path194"
           d="M141.37688 1004.361C141.37688 1004.361 159.64445 1004.38 169.72807 1002.9494L28.3067137627 1144.37075624C18.2230937627 1145.80135624 -0.0444762373095 1145.78235624 -0.0444762373095 1145.78235624Z"
           style="fill:#444084;fill-opacity:1" />
        <path
           id="path196"
           d="M169.72807 1002.9494C179.71230336 1001.53109067 185.601259644 999.742026908 189.023930297 996.319356255L47.6025740594 1137.74071249C44.1799034068 1141.16338314 38.2909471229 1142.95244691 28.3067137627 1144.37075624Z"
           style="fill:#444084;fill-opacity:1" />
        <path
           id="path198"
           d="M189.023930297 996.319356255C189.218170763 996.125115789 189.404468083 995.925613977 189.58312 995.72062L48.1617637627 1137.14197624C47.9831118457 1137.34697021 47.7968145258 1137.54647203 47.6025740594 1137.74071249Z"
           style="fill:#444084;fill-opacity:1" />
        <path
           id="path200"
           d="M189.58312 995.72062C189.66972 994.81051 191.18882 991.84373 187.08761 988.98272L45.6662537627 1130.40407624C49.7674637627 1133.26508624 48.2483637627 1136.23186624 48.1617637627 1137.14197624Z"
           style="fill:#444084;fill-opacity:1" />
        <path
           id="path202"
           d="M187.08761 988.98272C176.60248 981.66825 163.04747 979.66613 136.71855 973.41339L-4.70280623731 1114.83474624C21.6261137627 1121.08748624 35.1811237627 1123.08960624 45.6662537627 1130.40407624Z"
           style="fill:#444084;fill-opacity:1" />
        <path
           id="path204"
           d="M136.71855 973.41339C107.60388 966.09344 98.903011 959.08396 94.556216 954.01118L-46.8651402373 1095.43253624C-42.5183452373 1100.50531624 -33.8174762373 1107.51479624 -4.70280623731 1114.83474624Z"
           style="fill:#444084;fill-opacity:1" />
        <path
           id="path206"
           d="M94.556216 954.01118C92.4125287117 951.366535103 92.7083980202 947.240531068 96.7880570001 943.160872088L-44.6332992372 1084.58222833C-48.7129582171 1088.66188731 -49.0088275256 1092.78789134 -46.8651402373 1095.43253624Z"
           style="fill:#444084;fill-opacity:1" />
        <path
           id="path208"
           d="M96.7880570001 943.160872088C100.551110763 939.397818326 107.533454596 935.674195448 118.79002 933.18892L-22.6313362373 1074.61027624C-33.8879016417 1077.09555168 -40.8702454746 1080.81917456 -44.6332992372 1084.58222833Z"
           style="fill:#444084;fill-opacity:1" />
        <path
           id="path210"
           d="M118.79002 933.18892C130.6682 930.29837 174.90767 929.76726 174.90767 929.76726L33.4863137627 1071.18861624C33.4863137627 1071.18861624 -10.7531562373 1071.71972624 -22.6313362373 1074.61027624Z"
           style="fill:#444084;fill-opacity:1" />
        <path
           id="path212"
           d="M174.90767 929.76726C162.21566 919.69052 138.38772 901.64974 133.5172 897.81314L-7.90415623731 1039.23449624C-3.03363623731 1043.07109624 20.7943037627 1061.11187624 33.4863137627 1071.18861624Z"
           style="fill:#444084;fill-opacity:1" />
        <path
           id="path214"
           d="M133.5172 897.81314C129.24552 894.44828 122.36186 889.28456 121.62187 884.67011L-19.7994862373 1026.09146624C-19.0594962373 1030.70591624 -12.1758362373 1035.86963624 -7.90415623731 1039.23449624Z"
           style="fill:#444084;fill-opacity:1" />
        <path
           id="path216"
           d="M121.62187 884.67011C121.299039635 883.217378208 121.820160017 882.008258402 122.799735952 881.028682468L-18.6216202858 1022.45003871C-19.6011962201 1023.42961464 -20.1223166024 1024.63873445 -19.7994862373 1026.09146624Z"
           style="fill:#444084;fill-opacity:1" />
        <path
           id="path218"
           d="M122.799735952 881.028682468C124.849064975 878.979353444 128.904918209 877.934669983 131.43758 877.76582L-9.98377623731 1019.18717624C-12.516438028 1019.35602622 -16.5722912618 1020.40070968 -18.6216202858 1022.45003871Z"
           style="fill:#444084;fill-opacity:1" />
        <path
           id="path220"
           d="M131.43758 877.76582C143.49925 876.93401 159.96965 878.34812 174.61003 881.25954L33.1886737627 1022.68089624C18.5482937627 1019.76947624 2.07789376269 1018.35536624 -9.98377623731 1019.18717624Z"
           style="fill:#444084;fill-opacity:1" />
        <path
           id="path222"
           d="M174.61003 881.25954C181.96912 882.723 183.26118 882.5073 183.26118 882.5073L41.8398237627 1023.92865624C41.8398237627 1023.92865624 40.5477637627 1024.14435624 33.1886737627 1022.68089624Z"
           style="fill:#444084;fill-opacity:1" />
        <path
           id="path224"
           d="M183.26118 882.5073C183.26118 882.5073 183.26118 882.5073 183.26118 882.5073L41.8398237627 1023.92865624C41.8398237627 1023.92865624 41.8398237627 1023.92865624 41.8398237627 1023.92865624Z"
           style="fill:#444084;fill-opacity:1" />
        <path
           id="path226"
           d="M183.26118 882.5073C188.98919904 882.78006099 194.021568443 881.264027825 197.339977632 877.945618636L55.9186213949 1019.36697487C52.6002122056 1022.68538406 47.5678428031 1024.20141723 41.8398237627 1023.92865624Z"
           style="fill:#444084;fill-opacity:1" />
        <path
           id="path228"
           d="M197.339977632 877.945618636C200.093617191 875.191979077 201.667058284 871.197259707 201.47845 865.9537L60.0570937627 1007.37505624C60.2457020463 1012.61861594 58.6722609535 1016.61333531 55.9186213949 1019.36697487Z"
           style="fill:#444084;fill-opacity:1" />
        <path
           id="path230"
           d="M201.47845 865.9537C201.39515 854.22478 189.6684 844.81989 176.68965 844.40907L35.2682937627 985.830426237C48.2470437627 986.241246237 59.9737937627 995.646136237 60.0570937627 1007.37505624Z"
           style="fill:#444084;fill-opacity:1" />
        <path
           id="path232"
           d="M176.68965 844.40907C164.46743 844.02213 134.34905 846.15593 134.34905 846.15593L-7.07230623731 987.577286237C-7.07230623731 987.577286237 23.0460737627 985.443486237 35.2682937627 985.830426237Z"
           style="fill:#444084;fill-opacity:1" />
        <path
           id="path234"
           d="M134.34905 846.15593C169.45266 853.39297 175.19128 855.23979 177.02235 859.46536L35.6009937627 1000.88671624C33.7699237627 996.661146237 28.0313037627 994.814326237 -7.07230623731 987.577286237Z"
           style="fill:#444084;fill-opacity:1" />
        <path
           id="path236"
           d="M177.02235 859.46536C177.408200527 860.355769472 177.288738119 861.244359705 176.536048564 861.99704926L35.1146923263 1003.4184055C35.8673818815 1002.66571594 35.9868442896 1001.77712571 35.6009937627 1000.88671624Z"
           style="fill:#444084;fill-opacity:1" />
        <path
           id="path238"
           d="M176.536048564 861.99704926C175.179200992 863.353896832 171.764616407 864.269121114 165.54298 863.95728L24.1216237627 1005.37863624C30.3432601701 1005.69047735 33.7578447548 1004.77525307 35.1146923263 1003.4184055Z"
           style="fill:#444084;fill-opacity:1" />
        <path
           id="path240"
           d="M165.54298 863.95728C155.01213 863.42951 133.434 860.87951 133.434 860.87951L-7.98735623731 1002.30086624C-7.98735623731 1002.30086624 13.5907737627 1004.85086624 24.1216237627 1005.37863624Z"
           style="fill:#444084;fill-opacity:1" />
        <path
           id="path242"
           d="M133.434 860.87951C113.928012404 857.878570574 100.044979034 855.027605172 93.3507644183 861.721819787L-48.070591819 1003.14317602C-41.3763772037 996.448961409 -27.4933438336 999.299926812 -7.98735623731 1002.30086624Z"
           style="fill:#444084;fill-opacity:1" />
        <path
           id="path244"
           d="M93.3507644183 861.721819787C92.9936939724 862.078890233 92.6570769535 862.463118359 92.341151 862.87593L-49.0802052373 1004.29728624C-48.7642792838 1003.8844746 -48.4276622649 1003.50024647 -48.070591819 1003.14317602Z"
           style="fill:#444084;fill-opacity:1" />
        <path
           id="path246"
           d="M92.341151 862.87593C88.265277 868.20174 92.923455 874.68805 94.753469 878.51448L-46.6678872373 1019.93583624C-48.4979012373 1016.10940624 -53.1560792373 1009.62309624 -49.0802052373 1004.29728624Z"
           style="fill:#444084;fill-opacity:1" />
        <path
           id="path248"
           d="M94.753469 878.51448C102.90551 892.73896 117.00204 902.498 125.94745 909.3757L-15.4739062373 1050.79705624C-24.4193162373 1043.91935624 -38.5158462373 1034.16031624 -46.6678872373 1019.93583624Z"
           style="fill:#444084;fill-opacity:1" />
        <path
           id="path250"
           d="M125.94745 909.3757C129.31327 911.96353 139.58962 917.6941 139.58962 917.6941L-1.83173623731 1059.11545624C-1.83173623731 1059.11545624 -12.1080862373 1053.38488624 -15.4739062373 1050.79705624Z"
           style="fill:#444084;fill-opacity:1" />
        <path
           id="path252"
           d="M139.58962 917.6941C107.64699 908.95981 82.192736 913.86764 66.05505 922.35244L-75.3663062373 1063.77379624C-59.2286202373 1055.28899624 -33.7743662373 1050.38116624 -1.83173623731 1059.11545624Z"
           style="fill:#444084;fill-opacity:1" />
        <path
           id="path254"
           d="M66.05505 922.35244C63.6337838797 923.785652251 61.5826186309 925.347479368 59.9116470895 927.018450909L-81.5097091478 1068.43980715C-79.8387376064 1066.76883561 -77.7875723576 1065.20700849 -75.3663062373 1063.77379624Z"
           style="fill:#444084;fill-opacity:1" />
        <path
           id="path256"
           d="M59.9116470895 927.018450909C48.7808265328 938.149271466 54.5202428558 954.123129292 80.113132 969.18496L-61.3082242373 1110.60631624C-86.9011133815 1095.54448553 -92.6405297045 1079.5706277 -81.5097091478 1068.43980715Z"
           style="fill:#444084;fill-opacity:1" />
        <path
           id="path258"
           d="M80.113132 969.18496C97.498581 979.41657 106.15482 984.33176 134.62019 987.8265L-6.80116623731 1129.24785624C-35.2665362373 1125.75311624 -43.9227752373 1120.83792624 -61.3082242373 1110.60631624Z"
           style="fill:#444084;fill-opacity:1" />
        <path
           id="path260"
           d="M134.62019 987.8265C151.25864 990.4795 153.73789 991.56503 153.61144 992.94992L12.1900837627 1134.37127624C12.3165337627 1132.98638624 9.83728376269 1131.90085624 -6.80116623731 1129.24785624Z"
           style="fill:#444084;fill-opacity:1" />
        <path
           id="path262"
           d="M153.61144 992.94992C153.603458372 993.037244084 153.556692513 993.122139302 153.474150523 993.204681292L12.0527942853 1134.62603753C12.1353362754 1134.54349554 12.1821021343 1134.45860032 12.1900837627 1134.37127624Z"
           style="fill:#444084;fill-opacity:1" />
        <path
           id="path264"
           d="M153.474150523 993.204681292C151.71363082 994.965200995 133.677950542 995.655197858 128.55415 996.00857L-12.8672062373 1137.42992624C-7.74340569505 1137.07655409 10.292274583 1136.38655723 12.0527942853 1134.62603753Z"
           style="fill:#444084;fill-opacity:1" />
        <path
           id="path266"
           d="M128.55415 996.00857C114.9079 996.94971 79.615965 997.18502 79.439542 997.18502L-61.9818142373 1138.60637624C-61.8053912373 1138.60637624 -26.5134562373 1138.37106624 -12.8672062373 1137.42992624Z"
           style="fill:#444084;fill-opacity:1" />
      </g>
      <path
         d="m 79.439542,997.18502 c 0,0 9.537869,2.76939 22.233908,4.35268 5.14158,0.6411 24.70433,2.8821 39.70343,2.8233 0,0 18.26757,0.019 28.35119,-1.4116 10.55085,-1.4988 16.52841,-3.41163 19.85505,-7.22878 0.0866,-0.91011 1.6057,-3.87689 -2.49551,-6.7379 -10.48513,-7.31447 -24.04014,-9.31659 -50.36906,-15.56933 -29.11467,-7.31995 -37.815539,-14.32943 -42.162334,-19.40221 -4.121012,-5.08405 0.7736,-15.64261 24.233804,-20.82226 11.87818,-2.89055 56.11765,-3.42166 56.11765,-3.42166 -12.69201,-10.07674 -36.51995,-28.11752 -41.39047,-31.95412 -4.27168,-3.36486 -11.15534,-8.52858 -11.89533,-13.14303 -0.99821,-4.49193 6.07244,-6.65473 9.81571,-6.90429 12.06167,-0.83181 28.53207,0.5823 43.17245,3.49372 7.35909,1.46346 8.65115,1.24776 8.65115,1.24776 10.48117,0.4991 18.63317,-4.99103 18.21727,-16.5536 -0.0833,-11.72892 -11.81005,-21.13381 -24.7888,-21.54463 -12.22222,-0.38694 -42.3406,1.74686 -42.3406,1.74686 35.10361,7.23704 40.84223,9.08386 42.6733,13.30943 1.08141,2.49552 -1.80638,4.97675 -11.47937,4.49192 -10.53085,-0.52777 -32.10898,-3.07777 -32.10898,-3.07777 -20.54644,-3.16101 -34.854069,-6.15562 -41.092849,1.99642 -4.075874,5.32581 0.582304,11.81212 2.412318,15.63855 8.152041,14.22448 22.248571,23.98352 31.193981,30.86122 3.36582,2.58783 13.64217,8.3184 13.64217,8.3184 -31.94263,-8.73429 -57.396884,-3.82646 -73.53457,4.65834 -18.550014,10.98025 -15.376841,29.50959 14.058082,46.83252 17.385449,10.23161 26.041688,15.1468 54.507058,18.64154 16.63845,2.653 19.1177,3.73853 18.99125,5.12342 -0.17822,1.94984 -19.69326,2.68871 -25.05729,3.05865 -13.64625,0.94114 -48.938185,1.17645 -49.114608,1.17645 z"
         id="path99"
         style="fill:#444084;fill-opacity:1;fill-rule:evenodd;stroke:#000000;stroke-width:0;stroke-linecap:butt;stroke-linejoin:miter;stroke-miterlimit:4;stroke-dasharray:none;stroke-opacity:1"
         inkscape:connector-curvature="0" />
    </g>
    <path
       inkscape:connector-curvature="0"
       style="fill:#ffffff;fill-opacity:1;fill-rule:evenodd;stroke:#000000;stroke-width:0;stroke-linecap:butt;stroke-linejoin:miter;stroke-miterlimit:4;stroke-dasharray:none;stroke-opacity:1"
       id="path4839"
       d="m 79.439542,997.18502 c 0,0 9.537869,2.76939 22.233908,4.35268 5.14158,0.6411 24.70433,2.8821 39.70343,2.8233 0,0 18.26757,0.019 28.35119,-1.4116 10.55085,-1.4988 16.52841,-3.41163 19.85505,-7.22878 0.0866,-0.91011 1.6057,-3.87689 -2.49551,-6.7379 -10.48513,-7.31447 -24.04014,-9.31659 -50.36906,-15.56933 -29.11467,-7.31995 -37.815539,-14.32943 -42.162334,-19.40221 -4.121012,-5.08405 0.7736,-15.64261 24.233804,-20.82226 11.87818,-2.89055 56.11765,-3.42166 56.11765,-3.42166 -12.69201,-10.07674 -36.51995,-28.11752 -41.39047,-31.95412 -4.27168,-3.36486 -11.15534,-8.52858 -11.89533,-13.14303 -0.99821,-4.49193 6.07244,-6.65473 9.81571,-6.90429 12.06167,-0.83181 28.53207,0.5823 43.17245,3.49372 7.35909,1.46346 8.65115,1.24776 8.65115,1.24776 10.48117,0.4991 18.63317,-4.99103 18.21727,-16.5536 -0.0833,-11.72892 -11.81005,-21.13381 -24.7888,-21.54463 -12.22222,-0.38694 -42.3406,1.74686 -42.3406,1.74686 35.10361,7.23704 40.84223,9.08386 42.6733,13.30943 1.08141,2.49552 -1.80638,4.97675 -11.47937,4.49192 -10.53085,-0.52777 -32.10898,-3.07777 -32.10898,-3.07777 -20.54644,-3.16101 -34.854069,-6.15562 -41.092849,1.99642 -4.075874,5.32581 0.582304,11.81212 2.412318,15.63855 8.152041,14.22448 22.248571,23.98352 31.193981,30.86122 3.36582,2.58783 13.64217,8.3184 13.64217,8.3184 -31.94263,-8.73429 -57.396884,-3.82646 -73.53457,4.65834 -18.550014,10.98025 -15.376841,29.50959 14.058082,46.83252 17.385449,10.23161 26.041688,15.1468 54.507058,18.64154 16.63845,2.653 19.1177,3.73853 18.99125,5.12342 -0.17822,1.94984 -19.69326,2.68871 -25.05729,3.05865 -13.64625,0.94114 -48.938185,1.17645 -49.114608,1.17645 z" />
  </g>
</svg>
