<?xml version="1.0" encoding="UTF-8" standalone="no"?>
<!-- Created with Inkscape (http://www.inkscape.org/) -->

<svg
   xmlns:dc="http://purl.org/dc/elements/1.1/"
   xmlns:cc="http://creativecommons.org/ns#"
   xmlns:rdf="http://www.w3.org/1999/02/22-rdf-syntax-ns#"
   xmlns:svg="http://www.w3.org/2000/svg"
   xmlns="http://www.w3.org/2000/svg"
   xmlns:sodipodi="http://sodipodi.sourceforge.net/DTD/sodipodi-0.dtd"
   xmlns:inkscape="http://www.inkscape.org/namespaces/inkscape"
   sodipodi:docname="empathy.svg"
   inkscape:version="0.91 r13725"
   version="1.1"
   id="svg2"
   viewBox="0 0 256 256"
   height="256"
   width="256">
  <sodipodi:namedview
     inkscape:window-maximized="1"
     inkscape:window-y="0"
     inkscape:window-x="0"
     inkscape:window-height="721"
     inkscape:window-width="1366"
     units="px"
     showgrid="true"
     inkscape:current-layer="layer1"
     inkscape:document-units="px"
     inkscape:cy="167.00952"
     inkscape:cx="128"
     inkscape:zoom="2.0507812"
     inkscape:pageshadow="2"
     inkscape:pageopacity="0.0"
     borderopacity="1.0"
     bordercolor="#666666"
     pagecolor="#ffffff"
     id="base">
    <inkscape:grid
       spacingy="5"
       spacingx="5"
       id="grid4168"
       type="xygrid" />
  </sodipodi:namedview>
  <defs
     id="defs4">
    <clipPath
       id="clipPath5002"
       clipPathUnits="userSpaceOnUse">
      <g
         id="g5004">
        <path
           style="fill:#0f9d58;fill-opacity:1;stroke:none;stroke-width:4.85768509;stroke-linejoin:round;stroke-miterlimit:4;stroke-dasharray:none;stroke-opacity:1"
           d="M 88.118406,249.43519 C 46.103287,235.29134 14.771284,201.68742 4.1335861,159.36053 1.3377997,148.23623 0.92261224,144.16281 0.92582381,127.88908 0.92787958,117.47222 1.134384,112.01362 1.6577819,108.54099 4.4653598,89.913336 12.17654,70.638106 23.042737,55.086148 c 3.958678,-5.665755 8.344812,-10.93092 9.101533,-10.925587 0.32809,0.0023 10.488643,18.309713 22.579009,40.683112 12.090365,22.373397 22.374546,41.334697 22.853732,42.136217 0.479186,0.80151 0.924733,2.44098 0.990103,3.64326 0.343424,6.31639 2.524175,14.20976 5.6424,20.42304 2.954444,5.88693 5.065381,8.73258 10.434696,14.06652 6.71418,6.66995 12.88853,10.28643 21.73204,12.72904 3.16587,0.87442 5.10478,1.05037 11.57517,1.05037 8.82596,0 12.60219,-0.76201 19.26429,-3.88733 2.04584,-0.95974 3.93661,-1.66536 4.20172,-1.56805 0.2651,0.0973 -11.0555,17.66459 -25.1569,39.0384 l -25.6389,38.86148 -3.094121,0.11221 c -2.554618,0.0927 -4.195204,-0.25845 -9.409103,-2.01364 z"
           id="path5006"
           inkscape:connector-curvature="0"
           transform="translate(0,796.36216)" />
        <path
           style="fill:#f4b400;fill-opacity:1;stroke:none;stroke-width:4.85768509;stroke-linejoin:round;stroke-miterlimit:4;stroke-dasharray:none;stroke-opacity:1"
           d="m 112.35984,1051.5167 c -10.0014,-1.4495 -12.15632,-1.8201 -12.531784,-2.1556 -0.248854,-0.2223 1.738304,-3.7475 4.550294,-8.0722 7.16635,-11.0213 49.77231,-74.64801 50.25856,-75.05489 3.57509,-2.99158 8.63523,-8.0414 10.57512,-10.55356 3.36154,-4.35318 7.55784,-12.9141 9.06523,-18.494 6.19314,-22.92535 -2.59253,-47.15185 -21.69967,-59.83688 l -2.96081,-1.96565 17.02469,0.29584 c 9.36358,0.1627 31.17032,0.43384 48.45941,0.60252 l 31.43471,0.30668 1.54584,4.18869 c 2.24597,6.08579 4.67816,15.0947 5.93451,21.9816 1.52517,8.36049 1.92536,28.85896 0.73851,37.82758 -3.0805,23.27845 -12.81326,45.72018 -27.80202,64.10577 -20.47622,25.1166 -51.4599,42.1974 -84.14612,46.3885 -5.31244,0.6812 -26.64601,0.9864 -30.44647,0.4356 z"
           id="path5008"
           inkscape:connector-curvature="0" />
        <path
           style="fill:#db4437;fill-opacity:1;stroke:none;stroke-width:10;stroke-linejoin:round;stroke-miterlimit:4;stroke-dasharray:none;stroke-opacity:1"
           d="M 67.989788,108.87302 C 41.284246,59.575543 33.290284,45.149038 32.233625,44.344765 31.651257,43.901497 32.811213,42.549931 38.695603,36.815353 53.43581,22.450419 68.809334,13.040746 87.839196,6.7360352 101.68742,2.1480329 112.58238,0.43719165 127.95142,0.43719165 c 21.3099,0 37.80488,3.80960275 56.83492,13.12633035 25.29351,12.383198 46.19421,33.578863 58.51993,59.345832 1.61138,3.368591 2.92978,6.372442 2.92978,6.675231 0,0.560033 -10.54865,0.49527 -71.16508,-0.436914 l -24.28843,-0.373518 -3.93063,-1.764495 c -6.75732,-3.033425 -10.64587,-3.839529 -18.6576,-3.867747 -5.0296,-0.01773 -7.97946,0.207636 -10.31642,0.788106 -14.50826,3.603659 -26.283291,12.94777 -33.291614,26.418653 -3.58502,6.89086 -5.24713,13.08166 -6.331628,23.58317 l -0.33738,3.26696 -9.92748,-18.32578 z"
           id="path5010"
           inkscape:connector-curvature="0"
           transform="translate(0,796.36216)" />
      </g>
    </clipPath>
    <clipPath
       clipPathUnits="userSpaceOnUse"
       id="clipPath4271">
      <circle
         style="fill:#292929;fill-opacity:0.26020412;stroke:none;stroke-width:10;stroke-linejoin:round;stroke-miterlimit:4;stroke-dasharray:none;stroke-opacity:0.25882353"
         id="circle4273"
         cx="128"
         cy="128.00002"
         r="128" />
    </clipPath>
    <clipPath
       id="clipPath4363"
       clipPathUnits="userSpaceOnUse">
      <circle
         style="fill:#4285f4;fill-opacity:1;stroke:none;stroke-width:10;stroke-linejoin:round;stroke-miterlimit:4;stroke-dasharray:none;stroke-opacity:0.25882353"
         id="circle4365"
         cx="128"
         cy="924.36218"
         r="128" />
    </clipPath>
    <clipPath
       clipPathUnits="userSpaceOnUse"
       id="clipPath4452">
      <circle
         style="fill:#4285f4;fill-opacity:1;stroke:none;stroke-width:10;stroke-linejoin:round;stroke-miterlimit:4;stroke-dasharray:none;stroke-opacity:0.25882353"
         id="circle4454"
         cx="128"
         cy="924.36218"
         r="128" />
    </clipPath>
    <clipPath
       id="clipPath5177"
       clipPathUnits="userSpaceOnUse">
      <circle
         style="fill:#4285f4;fill-opacity:1;stroke:none;stroke-width:10;stroke-linejoin:round;stroke-miterlimit:4;stroke-dasharray:none;stroke-opacity:0.25882353"
         id="circle5179"
         cx="128"
         cy="924.36218"
         r="128" />
    </clipPath>
    <clipPath
       clipPathUnits="userSpaceOnUse"
       id="clipPath4342">
      <circle
         style="fill:#4285f4;fill-opacity:1;stroke:none;stroke-width:10;stroke-linejoin:round;stroke-miterlimit:4;stroke-dasharray:none;stroke-opacity:0.25882353"
         id="circle4344"
         cx="128"
         cy="933.48718"
         r="128" />
    </clipPath>
  </defs>
  <metadata
     id="metadata7">
    <rdf:RDF>
      <cc:Work
         rdf:about="">
        <dc:format>image/svg+xml</dc:format>
        <dc:type
           rdf:resource="http://purl.org/dc/dcmitype/StillImage" />
        <dc:title />
      </cc:Work>
    </rdf:RDF>
  </metadata>
  <g
     inkscape:label="Layer 1"
     inkscape:groupmode="layer"
     id="layer1"
     transform="translate(0,-796.36216)">
    <path
       style="fill:none;fill-rule:evenodd;stroke:none;stroke-width:1px;stroke-linecap:butt;stroke-linejoin:miter;stroke-opacity:1"
       d="M 154.47438,968.80998 101.03985,1048.476 0.4857685,1048.9618 0,842.0244 l 33.032258,-2.42884 45.176471,83.55218 21.373814,35.4611 26.717267,13.11575 z"
       id="path4913"
       inkscape:connector-curvature="0" />
    <circle
       r="128"
       cy="924.36218"
       cx="128"
       id="path4152"
       style="fill:#4285f4;fill-opacity:1;stroke:none;stroke-width:10;stroke-linejoin:round;stroke-miterlimit:4;stroke-dasharray:none;stroke-opacity:0.25882353" />
    <text
       xml:space="preserve"
       style="font-style:normal;font-weight:normal;font-size:40px;line-height:125%;font-family:sans-serif;letter-spacing:0px;word-spacing:0px;fill:#000000;fill-opacity:1;stroke:none;stroke-width:1px;stroke-linecap:butt;stroke-linejoin:miter;stroke-opacity:1"
       x="120"
       y="927.36218"
       id="text4914"
       sodipodi:linespacing="125%"><tspan
         sodipodi:role="line"
         id="tspan4916"
         x="120"
         y="927.36218" /></text>
    <g
       transform="translate(0,-9.1249845)"
       id="g4189"
       style="fill:#45689d;fill-opacity:1"
       clip-path="url(#clipPath4342)">
      <path
         style="fill:#45689d;fill-opacity:1;fill-rule:evenodd;stroke:none;stroke-width:1px;stroke-linecap:butt;stroke-linejoin:miter;stroke-opacity:1"
         d="m 154.38857,973.82502 -15,20 40,-20 z"
         id="path4173"
         inkscape:connector-curvature="0" />
      <path
         id="path4177"
         d="m 117.707,917.70654 a 3.7070048,5 0 0 1 -3.707,5 3.7070048,5 0 0 1 -3.707,-5 3.7070048,5 0 0 1 3.707,-5 3.7070048,5 0 0 1 3.707,5 z"
         style="fill:#45689d;fill-opacity:1;stroke:none;stroke-width:0.1;stroke-linecap:round;stroke-linejoin:round;stroke-miterlimit:4;stroke-dasharray:none;stroke-opacity:1" />
      <path
         style="fill:#45689d;fill-opacity:1;stroke:none;stroke-width:0.1;stroke-linecap:round;stroke-linejoin:round;stroke-miterlimit:4;stroke-dasharray:none;stroke-opacity:1"
         d="m 142.51172,931.21449 a 20,20 0 0 1 -14.50977,6.27148 20,20 0 0 1 -14.51367,-6.25391 15,15 0 0 0 14.51367,11.25391 15,15 0 0 0 14.50977,-11.27148 z"
         id="path4181"
         inkscape:connector-curvature="0" />
      <path
         id="ellipse4186"
         d="m 145.707,917.70654 a 3.7070048,5 0 0 1 -3.707,5 3.7070048,5 0 0 1 -3.707,-5 3.7070048,5 0 0 1 3.707,-5 3.7070048,5 0 0 1 3.707,5 z"
         style="fill:#45689d;fill-opacity:1;stroke:none;stroke-width:0.1;stroke-linecap:round;stroke-linejoin:round;stroke-miterlimit:4;stroke-dasharray:none;stroke-opacity:1" />
      <g
         id="g4251"
         transform="translate(0,796.36216)"
         style="fill:#45689d;fill-opacity:1">
        <g
           id="g4253"
           style="fill:#45689d;fill-opacity:1;stroke:none;stroke-width:0.1;stroke-linecap:round;stroke-linejoin:round;stroke-miterlimit:4;stroke-dasharray:none;stroke-opacity:1">
          <path
             id="path4255"
             d="M67.335938 76.787109C66.135306875 76.787109 65.0517155153 77.2706288119 64.2680854865 78.0542588406L-289.285305107 431.607649434C-288.501675078 430.824019405 -287.418083718 430.340499593 -286.217452593 430.340499593Z"
             style="fill:#45689d;fill-opacity:1" />
          <path
             id="path4257"
             d="M64.2680854865 78.0542588406C63.4838179508 78.8385263763 63.0 79.9233926252 63.0 81.125L-290.553390593 434.678390593C-290.553390593 433.476783218 -290.069572642 432.39191697 -289.285305107 431.607649434Z"
             style="fill:#45689d;fill-opacity:1" />
          <path
             id="path4259"
             d="M63.0 81.125L63.0 174.875L-290.553390593 528.428390593L-290.553390593 434.678390593Z"
             style="fill:#45689d;fill-opacity:1" />
          <path
             id="path4261"
             d="M63.0 174.875C63.0 177.27724 64.933699 179.21289 67.335938 179.21289L-286.217452593 532.766280593C-288.619691593 532.766280593 -290.553390593 530.830630593 -290.553390593 528.428390593Z"
             style="fill:#45689d;fill-opacity:1" />
          <path
             id="path4263"
             d="M67.335938 179.21289L188.66406 179.21289L-164.889330593 532.766280593L-286.217452593 532.766280593Z"
             style="fill:#45689d;fill-opacity:1" />
          <path
             id="path4265"
             d="M188.66406 179.21289C189.8646925 179.21289 190.948285064 178.729370233 191.731915602 177.945739695L-161.821474991 531.499130288C-162.605105529 532.282760826 -163.688698093 532.766280593 -164.889330593 532.766280593Z"
             style="fill:#45689d;fill-opacity:1" />
          <path
             id="path4267"
             d="M191.731915602 177.945739695C192.516182504 177.161472793 193.0 176.0766075 193.0 174.875L-160.553390593 528.428390593C-160.553390593 529.629998093 -161.037208089 530.714863386 -161.821474991 531.499130288Z"
             style="fill:#45689d;fill-opacity:1" />
          <path
             id="path4269"
             d="M193.0 174.875L193.0 81.125L-160.553390593 434.678390593L-160.553390593 528.428390593Z"
             style="fill:#45689d;fill-opacity:1" />
          <path
             id="path4271"
             d="M193.0 81.125C193.0 78.722762 191.0663 76.787109 188.66406 76.787109L-164.889330593 430.340499593C-162.487090593 430.340499593 -160.553390593 432.276152593 -160.553390593 434.678390593Z"
             style="fill:#45689d;fill-opacity:1" />
          <path
             id="path4273"
             d="M188.66406 76.787109L67.335938 76.787109L-286.217452593 430.340499593L-164.889330593 430.340499593Z"
             style="fill:#45689d;fill-opacity:1" />
        </g>
        <path
           inkscape:connector-curvature="0"
           style="fill:#45689d;fill-opacity:1;stroke:none;stroke-width:0.1;stroke-linecap:round;stroke-linejoin:round;stroke-miterlimit:4;stroke-dasharray:none;stroke-opacity:1"
           d="M 67.335938,76.787109 C 64.933699,76.787109 63,78.722762 63,81.125 l 0,93.75 c 0,2.40224 1.933699,4.33789 4.335938,4.33789 l 121.328122,0 c 2.40224,0 4.33594,-1.93565 4.33594,-4.33789 l 0,-93.75 c 0,-2.402238 -1.9337,-4.337891 -4.33594,-4.337891 l -121.328122,0 z M 128,100.5 A 27.5,27.5 0 0 1 155.5,128 27.5,27.5 0 0 1 128,155.5 27.5,27.5 0 0 1 100.5,128 27.5,27.5 0 0 1 128,100.5 Z"
           id="rect4171"
           transform="" />
      </g>
    </g>
    <g
       id="g4196"
       transform="translate(0,-9.1249845)">
      <path
         transform="translate(0,796.36216)"
         id="path4198"
         d="M 67.335938,76.787109 C 64.933699,76.787109 63,78.722762 63,81.125 l 0,93.75 c 0,2.40224 1.933699,4.33789 4.335938,4.33789 l 121.328122,0 c 2.40224,0 4.33594,-1.93565 4.33594,-4.33789 l 0,-93.75 c 0,-2.402238 -1.9337,-4.337891 -4.33594,-4.337891 l -121.328122,0 z M 128,100.5 A 27.5,27.5 0 0 1 155.5,128 27.5,27.5 0 0 1 128,155.5 27.5,27.5 0 0 1 100.5,128 27.5,27.5 0 0 1 128,100.5 Z"
         style="fill:#ffffff;fill-opacity:1;stroke:none;stroke-width:0.1;stroke-linecap:round;stroke-linejoin:round;stroke-miterlimit:4;stroke-dasharray:none;stroke-opacity:1"
         inkscape:connector-curvature="0" />
      <path
         inkscape:connector-curvature="0"
         id="path4200"
         d="m 154.38857,973.82502 -15,20 40,-20 z"
         style="fill:#ffffff;fill-opacity:1;fill-rule:evenodd;stroke:none;stroke-width:1px;stroke-linecap:butt;stroke-linejoin:miter;stroke-opacity:1" />
      <ellipse
         ry="5"
         rx="3.7070048"
         cy="917.70654"
         cx="114"
         id="ellipse4202"
         style="fill:#ffffff;fill-opacity:1;stroke:none;stroke-width:0.1;stroke-linecap:round;stroke-linejoin:round;stroke-miterlimit:4;stroke-dasharray:none;stroke-opacity:1" />
      <path
         inkscape:connector-curvature="0"
         id="path4204"
         d="m 142.51172,931.21449 a 20,20 0 0 1 -14.50977,6.27148 20,20 0 0 1 -14.51367,-6.25391 15,15 0 0 0 14.51367,11.25391 15,15 0 0 0 14.50977,-11.27148 z"
         style="fill:#ffffff;fill-opacity:1;stroke:none;stroke-width:0.1;stroke-linecap:round;stroke-linejoin:round;stroke-miterlimit:4;stroke-dasharray:none;stroke-opacity:1" />
      <ellipse
         style="fill:#ffffff;fill-opacity:1;stroke:none;stroke-width:0.1;stroke-linecap:round;stroke-linejoin:round;stroke-miterlimit:4;stroke-dasharray:none;stroke-opacity:1"
         id="ellipse4206"
         cx="142"
         cy="917.70654"
         rx="3.7070048"
         ry="5" />
    </g>
  </g>
</svg>
