<?xml version="1.0" encoding="UTF-8" standalone="no"?>
<!-- Created with Inkscape (http://www.inkscape.org/) -->

<svg
   xmlns:dc="http://purl.org/dc/elements/1.1/"
   xmlns:cc="http://creativecommons.org/ns#"
   xmlns:rdf="http://www.w3.org/1999/02/22-rdf-syntax-ns#"
   xmlns:svg="http://www.w3.org/2000/svg"
   xmlns="http://www.w3.org/2000/svg"
   xmlns:sodipodi="http://sodipodi.sourceforge.net/DTD/sodipodi-0.dtd"
   xmlns:inkscape="http://www.inkscape.org/namespaces/inkscape"
   width="256"
   height="256"
   viewBox="0 0 256 256"
   id="svg4149"
   version="1.1"
   inkscape:version="0.92pre3 r"
   sodipodi:docname="enpass.svg">
  <sodipodi:namedview
     id="base"
     pagecolor="#ffffff"
     bordercolor="#666666"
     borderopacity="1.0"
     inkscape:pageopacity="0.0"
     inkscape:pageshadow="2"
     inkscape:zoom="2.0507812"
     inkscape:cx="44.617141"
     inkscape:cy="128"
     inkscape:document-units="px"
     inkscape:current-layer="layer1"
     showgrid="true"
     units="px"
     inkscape:window-width="1920"
     inkscape:window-height="1054"
     inkscape:window-x="0"
     inkscape:window-y="0"
     inkscape:window-maximized="1">
    <inkscape:grid
       type="xygrid"
       id="grid4461"
       spacingx="5"
       spacingy="5" />
  </sodipodi:namedview>
  <defs
     id="defs4151">
    <clipPath
       id="clipPath4863"
       clipPathUnits="userSpaceOnUse">
      <circle
         r="77.263145"
         cy="924.36218"
         cx="128"
         id="circle4865"
         style="fill:#e9e9e9;fill-opacity:1;stroke:none;stroke-width:20;stroke-miterlimit:4;stroke-dasharray:none;stroke-opacity:1" />
    </clipPath>
    <clipPath
       clipPathUnits="userSpaceOnUse"
       id="clipPath4227">
      <circle
         r="77.263145"
         cy="924.36218"
         cx="128"
         id="circle4229"
         style="fill:#e9e9e9;fill-opacity:1;stroke:none;stroke-width:20;stroke-miterlimit:4;stroke-dasharray:none;stroke-opacity:1" />
    </clipPath>
    <clipPath
       id="clipPath5543"
       clipPathUnits="userSpaceOnUse">
      <circle
         r="128"
         cy="924.36218"
         cx="128"
         id="circle5545"
         style="fill:#9e9fe9;fill-opacity:1;stroke:none;stroke-width:20;stroke-miterlimit:4;stroke-dasharray:none;stroke-opacity:1" />
    </clipPath>
    <clipPath
       clipPathUnits="userSpaceOnUse"
       id="clipPath6248">
      <circle
         r="128"
         cy="924.36218"
         cx="128"
         id="circle6250"
         style="fill:#77c445;fill-opacity:1;stroke:none;stroke-width:20;stroke-miterlimit:4;stroke-dasharray:none;stroke-opacity:1" />
    </clipPath>
    <clipPath
       clipPathUnits="userSpaceOnUse"
       id="clipPath4624">
      <path
         style="fill:#0f9d58;fill-opacity:1"
         d="m 151.20117,0.24318 -105.78125,0 c -7.804357,0 -14.087891,6.28158 -14.087891,14.08594 l 0,227.33994 c 0,7.8043 6.283534,14.0878 14.087891,14.0878 l 165.16211,0 c 7.80436,0 14.08594,-6.2835 14.08594,-14.0878 l 0,-154.82237 -73.4668,-86.60351 z"
         id="path4626"
         inkscape:connector-curvature="0" />
    </clipPath>
    <clipPath
       clipPathUnits="userSpaceOnUse"
       id="clipPath6409">
      <circle
         r="128"
         cy="924.36218"
         cx="128"
         id="circle6411"
         style="fill:#77c445;fill-opacity:1;stroke:none;stroke-width:20;stroke-miterlimit:4;stroke-dasharray:none;stroke-opacity:1" />
    </clipPath>
    <clipPath
       id="clipPath4580"
       clipPathUnits="userSpaceOnUse">
      <circle
         r="128"
         cy="927.36218"
         cx="125"
         id="circle4582"
         style="fill:#e7b8a4;fill-opacity:1;stroke:none;stroke-width:20;stroke-miterlimit:4;stroke-dasharray:none;stroke-opacity:1" />
    </clipPath>
    <clipPath
       clipPathUnits="userSpaceOnUse"
       id="clipPath4638">
      <circle
         r="96.969696"
         cy="924.86218"
         cx="128"
         id="circle4640"
         style="fill:#dd4130;fill-opacity:1;stroke:none;stroke-width:15.15151501;stroke-miterlimit:4;stroke-dasharray:none;stroke-opacity:1" />
    </clipPath>
  </defs>
  <metadata
     id="metadata4154">
    <rdf:RDF>
      <cc:Work
         rdf:about="">
        <dc:format>image/svg+xml</dc:format>
        <dc:type
           rdf:resource="http://purl.org/dc/dcmitype/StillImage" />
        <dc:title />
      </cc:Work>
    </rdf:RDF>
  </metadata>
  <g
     inkscape:label="Layer 1"
     inkscape:groupmode="layer"
     id="layer1"
     transform="translate(0,-796.36216)">
    <circle
       style="fill:#e57063;fill-opacity:1;stroke:none;stroke-width:20;stroke-miterlimit:4;stroke-dasharray:none;stroke-opacity:1"
       id="path4723"
       cx="128"
       cy="924.36218"
       r="128" />
    <g
       id="g4535"
       transform="matrix(1.32,0,0,1.32,-40.96,-296.45592)"
       clip-path="url(#clipPath4638)"
       style="fill:#a71800;fill-opacity:1">
      <g
         id="g4591"
         transform="matrix(0.75757576,0,0,0.75757576,31.030303,827.89248)"
         style="fill:#a71800;fill-opacity:1">
        <g
           id="g4588"
           style="fill:#a71800;fill-opacity:1;stroke:none;stroke-width:13.19999981;stroke-linecap:round;stroke-linejoin:round;stroke-miterlimit:4;stroke-dasharray:none;stroke-opacity:1">
          <path
             id="path4564"
             d="M98.300781 45.5C88.2456787489 45.5 79.1704841018 49.5476446471 72.609064716 56.109064034L-68.8122915213 197.530420271C-62.2508721356 190.969000884 -53.1756774885 186.921356237 -43.1205752373 186.921356237Z"
             style="fill:#a71800;fill-opacity:1" />
          <path
             id="path4566"
             d="M72.609064716 56.109064034C66.0476443529 62.6704843982 62.0 71.7456802511 62.0 81.800781L-79.4213562373 223.222137237C-79.4213562373 213.167036488 -75.3737118844 204.091840636 -68.8122915213 197.530420271Z"
             style="fill:#a71800;fill-opacity:1" />
          <path
             id="path4568"
             d="M62.0 81.800781C62.0 101.91099 78.190575 118.09961 98.300781 118.09961L-43.1205752373 259.520966237C-63.2307812373 259.520966237 -79.4213562373 243.332346237 -79.4213562373 223.222137237Z"
             style="fill:#a71800;fill-opacity:1" />
          <path
             id="path4570"
             d="M98.300781 118.09961L104.90039 118.09961L-36.5209662373 259.520966237L-43.1205752373 259.520966237Z"
             style="fill:#a71800;fill-opacity:1" />
          <path
             id="path4572"
             d="M104.90039 118.09961L104.90039 210.5L-36.5209662373 351.921356237L-36.5209662373 259.520966237Z"
             style="fill:#a71800;fill-opacity:1" />
          <path
             id="path4574"
             d="M104.90039 210.5L151.09961 210.5L9.67825376269 351.921356237L-36.5209662373 351.921356237Z"
             style="fill:#a71800;fill-opacity:1" />
          <path
             id="path4576"
             d="M151.09961 210.5L151.09961 118.09961L9.67825376269 259.520966237L9.67825376269 351.921356237Z"
             style="fill:#a71800;fill-opacity:1" />
          <path
             id="path4578"
             d="M151.09961 118.09961L157.69922 118.09961L16.2778637627 259.520966237L9.67825376269 259.520966237Z"
             style="fill:#a71800;fill-opacity:1" />
          <path
             id="path4580"
             d="M157.69922 118.09961C167.754808875 118.09961 176.830397462 114.052061448 183.391892023 107.490566888L41.9705357856 248.911923125C35.409041225 255.473417686 26.3334526376 259.520966237 16.2778637627 259.520966237Z"
             style="fill:#a71800;fill-opacity:1" />
          <path
             id="path4582"
             d="M183.391892023 107.490566888C189.95274858 100.92971033 194.0 91.8553966249 194.0 81.800781L52.5786437627 223.222137237C52.5786437627 233.276752862 48.5313923428 242.351066568 41.9705357856 248.911923125Z"
             style="fill:#a71800;fill-opacity:1" />
          <path
             id="path4584"
             d="M194.0 81.800781C194.0 61.690581 177.80942 45.5 157.69922 45.5L16.2778637627 186.921356237C36.3880637627 186.921356237 52.5786437627 203.111937237 52.5786437627 223.222137237Z"
             style="fill:#a71800;fill-opacity:1" />
          <path
             id="path4586"
             d="M157.69922 45.5L98.300781 45.5L-43.1205752373 186.921356237L16.2778637627 186.921356237Z"
             style="fill:#a71800;fill-opacity:1" />
        </g>
        <path
           id="rect4531"
           d="M 98.300781 45.5 C 78.190575 45.5 62 61.690581 62 81.800781 C 62 101.91099 78.190575 118.09961 98.300781 118.09961 L 104.90039 118.09961 L 104.90039 210.5 L 151.09961 210.5 L 151.09961 118.09961 L 157.69922 118.09961 C 177.80942 118.09961 194 101.91099 194 81.800781 C 194 61.690581 177.80942 45.5 157.69922 45.5 L 98.300781 45.5 z "
           style="fill:#a71800;fill-opacity:1;stroke:none;stroke-width:13.19999981;stroke-linecap:round;stroke-linejoin:round;stroke-miterlimit:4;stroke-dasharray:none;stroke-opacity:1"
           transform="" />
      </g>
    </g>
    <g
       transform="matrix(1.32,0,0,1.32,-40.96,-296.45592)"
       id="g4529">
      <rect
         style="fill:#ffece9;fill-opacity:1;stroke:none;stroke-width:10;stroke-linecap:round;stroke-linejoin:round;stroke-miterlimit:4;stroke-dasharray:none;stroke-opacity:1"
         id="rect4515"
         width="35"
         height="85"
         x="110.5"
         y="902.36218" />
      <rect
         style="fill:#ffece9;fill-opacity:1;stroke:none;stroke-width:11.05541801;stroke-linecap:round;stroke-linejoin:round;stroke-miterlimit:4;stroke-dasharray:none;stroke-opacity:1"
         id="rect4517"
         width="100"
         height="55.000023"
         x="78"
         y="862.36218"
         ry="27.500011" />
    </g>
  </g>
</svg>
