<?xml version="1.0" encoding="UTF-8" standalone="no"?>
<!-- Created with Inkscape (http://www.inkscape.org/) -->

<svg
   xmlns:dc="http://purl.org/dc/elements/1.1/"
   xmlns:cc="http://creativecommons.org/ns#"
   xmlns:rdf="http://www.w3.org/1999/02/22-rdf-syntax-ns#"
   xmlns:svg="http://www.w3.org/2000/svg"
   xmlns="http://www.w3.org/2000/svg"
   xmlns:sodipodi="http://sodipodi.sourceforge.net/DTD/sodipodi-0.dtd"
   xmlns:inkscape="http://www.inkscape.org/namespaces/inkscape"
   width="256"
   height="256"
   viewBox="0 0 256 256"
   id="svg2"
   version="1.1"
   inkscape:version="0.91 r13725"
   sodipodi:docname="fcitx.svg">
  <sodipodi:namedview
     id="base"
     pagecolor="#ffffff"
     bordercolor="#666666"
     borderopacity="1.0"
     inkscape:pageopacity="0.0"
     inkscape:pageshadow="2"
     inkscape:zoom="3.3632812"
     inkscape:cx="128"
     inkscape:cy="128"
     inkscape:document-units="px"
     inkscape:current-layer="layer1"
     showgrid="true"
     units="px"
     inkscape:window-width="1920"
     inkscape:window-height="1054"
     inkscape:window-x="0"
     inkscape:window-y="0"
     inkscape:window-maximized="1">
    <inkscape:grid
       type="xygrid"
       id="grid4136"
       spacingx="5"
       spacingy="5" />
  </sodipodi:namedview>
  <defs
     id="defs4">
    <clipPath
       id="clipPath4342"
       clipPathUnits="userSpaceOnUse">
      <ellipse
         ry="127.94993"
         rx="128"
         cy="920.35028"
         cx="130.85103"
         id="ellipse4344"
         style="opacity:1;fill:#a5ffbe;fill-opacity:1;stroke:none;stroke-width:0.45540357;stroke-linecap:round;stroke-linejoin:round;stroke-miterlimit:4;stroke-dasharray:none;stroke-opacity:1" />
    </clipPath>
    <clipPath
       clipPathUnits="userSpaceOnUse"
       id="clipPath4490">
      <ellipse
         ry="106.62494"
         rx="106.66666"
         cy="920.37988"
         cx="130.82143"
         id="ellipse4492"
         style="opacity:1;fill:#a5ffbe;fill-opacity:1;stroke:none;stroke-width:0.45540357;stroke-linecap:round;stroke-linejoin:round;stroke-miterlimit:4;stroke-dasharray:none;stroke-opacity:1" />
    </clipPath>
  </defs>
  <metadata
     id="metadata7">
    <rdf:RDF>
      <cc:Work
         rdf:about="">
        <dc:format>image/svg+xml</dc:format>
        <dc:type
           rdf:resource="http://purl.org/dc/dcmitype/StillImage" />
        <dc:title />
      </cc:Work>
    </rdf:RDF>
  </metadata>
  <g
     inkscape:label="Layer 1"
     inkscape:groupmode="layer"
     id="layer1"
     transform="translate(0,-796.36216)">
    <ellipse
       style="opacity:1;fill:#a5afff;fill-opacity:1;stroke:none;stroke-width:0.45540357;stroke-linecap:round;stroke-linejoin:round;stroke-miterlimit:4;stroke-dasharray:none;stroke-opacity:1"
       id="path4138"
       cx="128.1777"
       cy="924.18457"
       rx="128"
       ry="127.94993" />
    <g
       transform="matrix(1.2,0,0,1.2,-28.807999,-180.27131)"
       id="g4202"
       clip-path="url(#clipPath4490)"
       style="fill:#5d6fff;fill-opacity:1">
      <path
         id="rect4206"
         d="m 98.884592,876.62982 20.652398,0 c 2.58929,0 4.6738,2.08452 4.6738,4.6738 l 0,15.6524 c 0,2.58929 -2.08451,4.6738 -4.6738,4.6738 l -20.652398,0 c -2.589285,0 -4.673799,-2.08451 -4.673799,-4.6738 l 0,-15.6524 c 0,-2.58928 2.084514,-4.6738 4.673799,-4.6738 z"
         style="opacity:1;fill:#5d6fff;fill-opacity:1;stroke:none;stroke-width:0.1;stroke-linecap:round;stroke-linejoin:round;stroke-miterlimit:4;stroke-dasharray:none;stroke-opacity:1" />
      <path
         id="rect4208"
         d="m 186.33095,907.34985 20.6524,0 c 2.58929,0 4.6738,2.08452 4.6738,4.6738 l 0,15.6524 c 0,2.58929 -2.08451,4.6738 -4.6738,4.6738 l -20.6524,0 c -2.58929,0 -4.6738,-2.08451 -4.6738,-4.6738 l 0,-15.6524 c 0,-2.58928 2.08451,-4.6738 4.6738,-4.6738 z"
         style="opacity:1;fill:#5d6fff;fill-opacity:1;stroke:none;stroke-width:0.1;stroke-linecap:round;stroke-linejoin:round;stroke-miterlimit:4;stroke-dasharray:none;stroke-opacity:1" />
      <path
         id="rect4210"
         d="m 142.60777,907.34985 20.65241,0 c 2.58928,0 4.6738,2.08452 4.6738,4.6738 l 0,15.6524 c 0,2.58929 -2.08452,4.6738 -4.6738,4.6738 l -20.65241,0 c -2.58928,0 -4.67379,-2.08451 -4.67379,-4.6738 l 0,-15.6524 c 0,-2.58928 2.08451,-4.6738 4.67379,-4.6738 z"
         style="opacity:1;fill:#5d6fff;fill-opacity:1;stroke:none;stroke-width:0.1;stroke-linecap:round;stroke-linejoin:round;stroke-miterlimit:4;stroke-dasharray:none;stroke-opacity:1" />
      <path
         id="rect4212"
         d="m 98.884592,907.34985 20.652398,0 c 2.58929,0 4.6738,2.08452 4.6738,4.6738 l 0,15.6524 c 0,2.58929 -2.08451,4.6738 -4.6738,4.6738 l -20.652398,0 c -2.589285,0 -4.673799,-2.08451 -4.673799,-4.6738 l 0,-15.6524 c 0,-2.58928 2.084514,-4.6738 4.673799,-4.6738 z"
         style="opacity:1;fill:#5d6fff;fill-opacity:1;stroke:none;stroke-width:0.1;stroke-linecap:round;stroke-linejoin:round;stroke-miterlimit:4;stroke-dasharray:none;stroke-opacity:1" />
      <path
         id="rect4214"
         d="m 55.161417,907.34985 20.652401,0 c 2.589285,0 4.673799,2.08452 4.673799,4.6738 l 0,15.6524 c 0,2.58929 -2.084514,4.6738 -4.673799,4.6738 l -20.652401,0 c -2.589285,0 -4.6738,-2.08451 -4.6738,-4.6738 l 0,-15.6524 c 0,-2.58928 2.084515,-4.6738 4.6738,-4.6738 z"
         style="opacity:1;fill:#5d6fff;fill-opacity:1;stroke:none;stroke-width:0.1;stroke-linecap:round;stroke-linejoin:round;stroke-miterlimit:4;stroke-dasharray:none;stroke-opacity:1" />
      <path
         id="rect4216"
         d="m 186.33095,876.62982 20.6524,0 c 2.58929,0 4.6738,2.08452 4.6738,4.6738 l 0,15.6524 c 0,2.58929 -2.08451,4.6738 -4.6738,4.6738 l -20.6524,0 c -2.58929,0 -4.6738,-2.08451 -4.6738,-4.6738 l 0,-15.6524 c 0,-2.58928 2.08451,-4.6738 4.6738,-4.6738 z"
         style="opacity:1;fill:#5d6fff;fill-opacity:1;stroke:none;stroke-width:0.1;stroke-linecap:round;stroke-linejoin:round;stroke-miterlimit:4;stroke-dasharray:none;stroke-opacity:1" />
      <path
         id="rect4218"
         d="m 55.161417,876.62982 20.652401,0 c 2.589285,0 4.673799,2.08452 4.673799,4.6738 l 0,15.6524 c 0,2.58929 -2.084514,4.6738 -4.673799,4.6738 l -20.652401,0 c -2.589285,0 -4.6738,-2.08451 -4.6738,-4.6738 l 0,-15.6524 c 0,-2.58928 2.084515,-4.6738 4.6738,-4.6738 z"
         style="opacity:1;fill:#5d6fff;fill-opacity:1;stroke:none;stroke-width:0.1;stroke-linecap:round;stroke-linejoin:round;stroke-miterlimit:4;stroke-dasharray:none;stroke-opacity:1" />
      <path
         id="rect4220"
         d="m 55.161417,938.06982 20.652401,0 c 2.589285,0 4.673799,2.08452 4.673799,4.6738 l 0,15.6524 c 0,2.58929 -2.084514,4.6738 -4.673799,4.6738 l -20.652401,0 c -2.589285,0 -4.6738,-2.08451 -4.6738,-4.6738 l 0,-15.6524 c 0,-2.58928 2.084515,-4.6738 4.6738,-4.6738 z"
         style="opacity:1;fill:#5d6fff;fill-opacity:1;stroke:none;stroke-width:0.1;stroke-linecap:round;stroke-linejoin:round;stroke-miterlimit:4;stroke-dasharray:none;stroke-opacity:1" />
      <path
         id="rect4222"
         d="m 98.503129,938.06982 65.301051,0 c 2.37795,0 4.29233,1.91439 4.29233,4.29234 l 0,16.41533 c 0,2.37795 -1.91438,4.29233 -4.29233,4.29233 l -65.301051,0 c -2.377955,0 -4.292336,-1.91438 -4.292336,-4.29233 l 0,-16.41533 c 0,-2.37795 1.914381,-4.29234 4.292336,-4.29234 z"
         style="opacity:1;fill:#5d6fff;fill-opacity:1;stroke:none;stroke-width:0.1;stroke-linecap:round;stroke-linejoin:round;stroke-miterlimit:4;stroke-dasharray:none;stroke-opacity:1" />
      <path
         id="rect4224"
         d="m 142.60777,876.62982 20.65241,0 c 2.58928,0 4.6738,2.08452 4.6738,4.6738 l 0,15.6524 c 0,2.58929 -2.08452,4.6738 -4.6738,4.6738 l -20.65241,0 c -2.58928,0 -4.67379,-2.08451 -4.67379,-4.6738 l 0,-15.6524 c 0,-2.58928 2.08451,-4.6738 4.67379,-4.6738 z"
         style="opacity:1;fill:#5d6fff;fill-opacity:1;stroke:none;stroke-width:0.1;stroke-linecap:round;stroke-linejoin:round;stroke-miterlimit:4;stroke-dasharray:none;stroke-opacity:1" />
      <path
         id="rect4226"
         d="m 186.33095,938.06982 20.6524,0 c 2.58929,0 4.6738,2.08452 4.6738,4.6738 l 0,15.6524 c 0,2.58929 -2.08451,4.6738 -4.6738,4.6738 l -20.6524,0 c -2.58929,0 -4.6738,-2.08451 -4.6738,-4.6738 l 0,-15.6524 c 0,-2.58928 2.08451,-4.6738 4.6738,-4.6738 z"
         style="opacity:1;fill:#5d6fff;fill-opacity:1;stroke:none;stroke-width:0.1;stroke-linecap:round;stroke-linejoin:round;stroke-miterlimit:4;stroke-dasharray:none;stroke-opacity:1" />
      <g
         id="g4405"
         style="fill:#5d6fff;fill-opacity:1">
        <g
           id="g4407"
           style="opacity:1;fill:#5d6fff;fill-opacity:1;stroke:none;stroke-width:0.1;stroke-linecap:round;stroke-linejoin:round;stroke-miterlimit:4;stroke-dasharray:none;stroke-opacity:1">
          <path
             id="path4409"
             d="M53.173309 870.52789L208.17336 870.52789L-145.380030593 1224.08128059L-300.380081593 1224.08128059Z"
             style="fill:#5d6fff;fill-opacity:1" />
          <path
             id="path4411"
             d="M208.17336 870.52789C213.71334 870.52789 218.17333 874.98788 218.17333 880.52787L-135.380060593 1234.08126059C-135.380060593 1228.54127059 -139.840050593 1224.08128059 -145.380030593 1224.08128059Z"
             style="fill:#5d6fff;fill-opacity:1" />
          <path
             id="path4413"
             d="M218.17333 880.52787L218.17333 960.52792L-135.380060593 1314.08131059L-135.380060593 1234.08126059Z"
             style="fill:#5d6fff;fill-opacity:1" />
          <path
             id="path4415"
             d="M218.17333 960.52792C218.17333 963.286416266 217.067566394 965.777151026 215.273301639 967.582861824L-138.280088955 1321.13625242C-136.485824199 1319.33054162 -135.380060593 1316.83980686 -135.380060593 1314.08131059Z"
             style="fill:#5d6fff;fill-opacity:1" />
          <path
             id="path4417"
             d="M215.273301639 967.582861824C213.464084677 969.403620211 210.954843734 970.52789 208.17336 970.52789L-145.380030593 1324.08128059C-142.598546859 1324.08128059 -140.089305916 1322.9570108 -138.280088955 1321.13625242Z"
             style="fill:#5d6fff;fill-opacity:1" />
          <path
             id="path4419"
             d="M208.17336 970.52789L53.173309 970.52789L-300.380081593 1324.08128059L-145.380030593 1324.08128059Z"
             style="fill:#5d6fff;fill-opacity:1" />
          <path
             id="path4421"
             d="M53.173309 970.52789C47.633322 970.52789 43.173332 966.0679 43.173332 960.52792L-310.380058593 1314.08131059C-310.380058593 1319.62129059 -305.920068593 1324.08128059 -300.380081593 1324.08128059Z"
             style="fill:#5d6fff;fill-opacity:1" />
          <path
             id="path4423"
             d="M43.173332 960.52792L43.173332 880.52787L-310.380058593 1234.08126059L-310.380058593 1314.08131059Z"
             style="fill:#5d6fff;fill-opacity:1" />
          <path
             id="path4425"
             d="M43.173332 880.52787C43.173332 877.757874624 44.2883298024 875.257879322 46.0958261103 873.450383015L-307.457564483 1227.00377361C-309.265060791 1228.81126992 -310.380058593 1231.31126522 -310.380058593 1234.08126059Z"
             style="fill:#5d6fff;fill-opacity:1" />
          <path
             id="path4427"
             d="M46.0958261103 873.450383015C47.903321928 871.642887198 50.4033158756 870.52789 53.173309 870.52789L-300.380081593 1224.08128059C-303.150074718 1224.08128059 -305.650068665 1225.19627779 -307.457564483 1227.00377361Z"
             style="fill:#5d6fff;fill-opacity:1" />
        </g>
        <path
           id="rect4204"
           d="m 53.173309,870.52789 155.000051,0 c 5.53998,0 9.99997,4.45999 9.99997,9.99998 l 0,80.00005 c 0,5.53998 -4.45999,9.99997 -9.99997,9.99997 l -155.000051,0 c -5.539987,0 -9.999977,-4.45999 -9.999977,-9.99997 l 0,-80.00005 c 0,-5.53999 4.45999,-9.99998 9.999977,-9.99998 z"
           style="opacity:1;fill:#5d6fff;fill-opacity:1;stroke:none;stroke-width:0.1;stroke-linecap:round;stroke-linejoin:round;stroke-miterlimit:4;stroke-dasharray:none;stroke-opacity:1" />
      </g>
    </g>
    <g
       id="g4346"
       transform="matrix(1.2,0,0,1.2,-28.807999,-180.27131)">
      <rect
         ry="9.9999771"
         y="870.52789"
         x="43.173332"
         height="100"
         width="175"
         id="rect4348"
         style="opacity:1;fill:#5e5e5e;fill-opacity:1;stroke:none;stroke-width:0.1;stroke-linecap:round;stroke-linejoin:round;stroke-miterlimit:4;stroke-dasharray:none;stroke-opacity:1" />
      <rect
         style="opacity:1;fill:#ededed;fill-opacity:1;stroke:none;stroke-width:0.1;stroke-linecap:round;stroke-linejoin:round;stroke-miterlimit:4;stroke-dasharray:none;stroke-opacity:1"
         id="rect4350"
         width="30"
         height="25"
         x="94.210793"
         y="876.62982"
         ry="4.6737995" />
      <rect
         ry="4.6737995"
         y="907.34985"
         x="181.65715"
         height="25"
         width="30"
         id="rect4352"
         style="opacity:1;fill:#ededed;fill-opacity:1;stroke:none;stroke-width:0.1;stroke-linecap:round;stroke-linejoin:round;stroke-miterlimit:4;stroke-dasharray:none;stroke-opacity:1" />
      <rect
         style="opacity:1;fill:#ededed;fill-opacity:1;stroke:none;stroke-width:0.1;stroke-linecap:round;stroke-linejoin:round;stroke-miterlimit:4;stroke-dasharray:none;stroke-opacity:1"
         id="rect4354"
         width="30"
         height="25"
         x="137.93398"
         y="907.34985"
         ry="4.6737995" />
      <rect
         ry="4.6737995"
         y="907.34985"
         x="94.210793"
         height="25"
         width="30"
         id="rect4356"
         style="opacity:1;fill:#ededed;fill-opacity:1;stroke:none;stroke-width:0.1;stroke-linecap:round;stroke-linejoin:round;stroke-miterlimit:4;stroke-dasharray:none;stroke-opacity:1" />
      <rect
         style="opacity:1;fill:#ededed;fill-opacity:1;stroke:none;stroke-width:0.1;stroke-linecap:round;stroke-linejoin:round;stroke-miterlimit:4;stroke-dasharray:none;stroke-opacity:1"
         id="rect4358"
         width="30"
         height="25"
         x="50.487617"
         y="907.34985"
         ry="4.6737995" />
      <rect
         ry="4.6737995"
         y="876.62982"
         x="181.65715"
         height="25"
         width="30"
         id="rect4360"
         style="opacity:1;fill:#ededed;fill-opacity:1;stroke:none;stroke-width:0.1;stroke-linecap:round;stroke-linejoin:round;stroke-miterlimit:4;stroke-dasharray:none;stroke-opacity:1" />
      <rect
         style="opacity:1;fill:#ededed;fill-opacity:1;stroke:none;stroke-width:0.1;stroke-linecap:round;stroke-linejoin:round;stroke-miterlimit:4;stroke-dasharray:none;stroke-opacity:1"
         id="rect4362"
         width="30"
         height="25"
         x="50.487617"
         y="876.62982"
         ry="4.6737995" />
      <rect
         ry="4.6737995"
         y="938.06982"
         x="50.487617"
         height="25"
         width="30"
         id="rect4364"
         style="opacity:1;fill:#ededed;fill-opacity:1;stroke:none;stroke-width:0.1;stroke-linecap:round;stroke-linejoin:round;stroke-miterlimit:4;stroke-dasharray:none;stroke-opacity:1" />
      <rect
         style="opacity:1;fill:#ededed;fill-opacity:1;stroke:none;stroke-width:0.1;stroke-linecap:round;stroke-linejoin:round;stroke-miterlimit:4;stroke-dasharray:none;stroke-opacity:1"
         id="rect4366"
         width="73.885719"
         height="25"
         x="94.210793"
         y="938.06982"
         ry="4.292336" />
      <rect
         ry="4.6737995"
         y="876.62982"
         x="137.93398"
         height="25"
         width="30"
         id="rect4368"
         style="opacity:1;fill:#ededed;fill-opacity:1;stroke:none;stroke-width:0.1;stroke-linecap:round;stroke-linejoin:round;stroke-miterlimit:4;stroke-dasharray:none;stroke-opacity:1" />
      <rect
         style="opacity:1;fill:#ededed;fill-opacity:1;stroke:none;stroke-width:0.1;stroke-linecap:round;stroke-linejoin:round;stroke-miterlimit:4;stroke-dasharray:none;stroke-opacity:1"
         id="rect4370"
         width="30"
         height="25"
         x="181.65715"
         y="938.06982"
         ry="4.6737995" />
    </g>
  </g>
</svg>
