<?xml version="1.0" encoding="UTF-8" standalone="no"?>
<!-- Created with Inkscape (http://www.inkscape.org/) -->

<svg
   xmlns:dc="http://purl.org/dc/elements/1.1/"
   xmlns:cc="http://creativecommons.org/ns#"
   xmlns:rdf="http://www.w3.org/1999/02/22-rdf-syntax-ns#"
   xmlns:svg="http://www.w3.org/2000/svg"
   xmlns="http://www.w3.org/2000/svg"
   xmlns:sodipodi="http://sodipodi.sourceforge.net/DTD/sodipodi-0.dtd"
   xmlns:inkscape="http://www.inkscape.org/namespaces/inkscape"
   width="256"
   height="256"
   viewBox="0 0 256 256"
   id="svg4149"
   version="1.1"
   inkscape:version="0.91 r13725"
   sodipodi:docname="fedora-release-notes.svg">
  <sodipodi:namedview
     id="base"
     pagecolor="#ffffff"
     bordercolor="#666666"
     borderopacity="1.0"
     inkscape:pageopacity="0.0"
     inkscape:pageshadow="2"
     inkscape:zoom="2.0507812"
     inkscape:cx="128"
     inkscape:cy="167.00953"
     inkscape:document-units="px"
     inkscape:current-layer="layer1"
     showgrid="false"
     units="px"
     inkscape:window-width="1366"
     inkscape:window-height="721"
     inkscape:window-x="0"
     inkscape:window-y="0"
     inkscape:window-maximized="1" />
  <defs
     id="defs4151">
    <clipPath
       clipPathUnits="userSpaceOnUse"
       id="clipPath4863">
      <circle
         style="fill:#e9e9e9;fill-opacity:1;stroke:none;stroke-width:20;stroke-miterlimit:4;stroke-dasharray:none;stroke-opacity:1"
         id="circle4865"
         cx="128"
         cy="924.36218"
         r="77.263145" />
    </clipPath>
    <clipPath
       id="clipPath4227"
       clipPathUnits="userSpaceOnUse">
      <circle
         style="fill:#e9e9e9;fill-opacity:1;stroke:none;stroke-width:20;stroke-miterlimit:4;stroke-dasharray:none;stroke-opacity:1"
         id="circle4229"
         cx="128"
         cy="924.36218"
         r="77.263145" />
    </clipPath>
    <filter
       style="color-interpolation-filters:sRGB"
       inkscape:label="Drop Shadow"
       id="filter4301">
      <feFlood
         flood-opacity="0.498039"
         flood-color="rgb(0,0,0)"
         result="flood"
         id="feFlood4303" />
      <feComposite
         in="flood"
         in2="SourceGraphic"
         operator="in"
         result="composite1"
         id="feComposite4305" />
      <feGaussianBlur
         in="composite1"
         stdDeviation="3.7"
         result="blur"
         id="feGaussianBlur4307" />
      <feOffset
         dx="3.8"
         dy="3.7"
         result="offset"
         id="feOffset4309" />
      <feComposite
         in="SourceGraphic"
         in2="offset"
         operator="over"
         result="composite2"
         id="feComposite4311" />
    </filter>
    <clipPath
       clipPathUnits="userSpaceOnUse"
       id="clipPath4452">
      <circle
         style="fill:#e9e9e9;fill-opacity:1;stroke:none;stroke-width:20;stroke-miterlimit:4;stroke-dasharray:none;stroke-opacity:1"
         id="circle4454"
         cx="-91.568832"
         cy="27.298298"
         r="57.738201" />
    </clipPath>
  </defs>
  <metadata
     id="metadata4154">
    <rdf:RDF>
      <cc:Work
         rdf:about="">
        <dc:format>image/svg+xml</dc:format>
        <dc:type
           rdf:resource="http://purl.org/dc/dcmitype/StillImage" />
        <dc:title />
      </cc:Work>
    </rdf:RDF>
  </metadata>
  <g
     transform="translate(0,-796.36216)"
     id="layer1"
     inkscape:groupmode="layer"
     inkscape:label="Layer 1">
    <circle
       r="128"
       cy="924.36218"
       cx="128"
       id="path4723"
       style="fill:#c9c9c9;fill-opacity:1;stroke:none;stroke-width:20;stroke-miterlimit:4;stroke-dasharray:none;stroke-opacity:1" />
    <g
       id="g4217"
       transform="matrix(2.2169031,0,0,2.2169031,330.99922,863.8445)"
       clip-path="url(#clipPath4452)"
       style="fill:#717171;fill-opacity:1">
      <g
         id="g4170"
         style="fill:#717171;fill-opacity:1">
        <g
           id="g4172"
           style="display:inline;fill:#717171;fill-opacity:1">
          <path
             id="path4174"
             d="M-95.191503 23.708908L-95.191503 15.587376L-448.744893593 369.140766593L-448.744893593 377.262298593Z"
             style="fill:#717171;fill-opacity:1" />
          <path
             id="path4176"
             d="M-95.191503 15.587376C-95.191503 15.583776 -95.191503 15.579776 -95.191503 15.576746L-448.744893593 369.130136593C-448.744893593 369.133166593 -448.744893593 369.137166593 -448.744893593 369.140766593Z"
             style="fill:#717171;fill-opacity:1" />
          <path
             id="path4178"
             d="M-95.191503 15.576746C-95.191503 11.3394272513 -93.4740846922 7.50327569009 -90.6972937246 4.72648472251L-444.250684318 358.279875316C-447.027475285 361.056666283 -448.744893593 364.892817845 -448.744893593 369.130136593Z"
             style="fill:#717171;fill-opacity:1" />
          <path
             id="path4180"
             d="M-90.6972937246 4.72648472251C-87.9206026913 1.94979368924 -84.0846152487 0.232387 -79.847306 0.232387L-433.400696593 353.785777593C-437.638005842 353.785777593 -441.473993285 355.503184283 -444.250684318 358.279875316Z"
             style="fill:#717171;fill-opacity:1" />
          <path
             id="path4182"
             d="M-79.847306 0.232387C-78.561735 0.232387 -77.648283 0.377248 -76.458331 0.688736L-430.011721593 354.242126593C-431.201673593 353.930638593 -432.115125593 353.785777593 -433.400696593 353.785777593Z"
             style="fill:#717171;fill-opacity:1" />
          <path
             id="path4184"
             d="M-76.458331 0.688736C-74.7229 1.143792 -73.305688 2.565449 -73.30491 4.220334L-426.858300593 357.773724593C-426.859078593 356.118839593 -428.276290593 354.697182593 -430.011721593 354.242126593Z"
             style="fill:#717171;fill-opacity:1" />
          <path
             id="path4186"
             d="M-73.30491 4.220334C-73.3045306412 5.20087395763 -73.6531901286 6.05018617113 -74.2643610045 6.661357047L-427.817751598 360.21474764C-427.206580722 359.603576764 -426.857921235 358.754264551 -426.858300593 357.773724593Z"
             style="fill:#717171;fill-opacity:1" />
          <path
             id="path4188"
             d="M-74.2643610045 6.661357047C-74.9001529193 7.29714896188 -75.8200328082 7.675226 -76.926589 7.675226L-430.479979593 361.228616593C-429.373423402 361.228616593 -428.453543513 360.850539555 -427.817751598 360.21474764Z"
             style="fill:#717171;fill-opacity:1" />
          <path
             id="path4190"
             d="M-76.926589 7.675226C-77.96054 7.675226 -78.334214 7.47724 -79.848084 7.47724L-433.401474593 361.030630593C-431.887604593 361.030630593 -431.513930593 361.228616593 -430.479979593 361.228616593Z"
             style="fill:#717171;fill-opacity:1" />
          <path
             id="path4192"
             d="M-79.848084 7.47724C-82.0841259916 7.47724 -84.1085232731 8.38355599626 -85.5740259823 9.8490587055L-439.127416576 363.402449299C-437.661913866 361.93694659 -435.637516585 361.030630593 -433.401474593 361.030630593Z"
             style="fill:#717171;fill-opacity:1" />
          <path
             id="path4194"
             d="M-85.5740259823 9.8490587055C-87.0368618785 11.3118946017 -87.9428354215 13.3318839297 -87.946589 15.563789L-441.499979593 369.117179593C-441.496226015 366.885274523 -440.590252472 364.865285195 -439.127416576 363.402449299Z"
             style="fill:#717171;fill-opacity:1" />
          <path
             id="path4196"
             d="M-87.946589 15.563789L-87.946589 22.565048L-441.499979593 376.118438593L-441.499979593 369.117179593Z"
             style="fill:#717171;fill-opacity:1" />
          <path
             id="path4198"
             d="M-87.946589 22.565048L-87.946589 22.565308L-441.499979593 376.118698593L-441.499979593 376.118438593Z"
             style="fill:#717171;fill-opacity:1" />
          <path
             id="path4200"
             d="M-87.946589 22.565308C-87.946589 23.197616 -87.435574 23.708644 -86.8038 23.708644L-440.357190593 377.262034593C-440.988964593 377.262034593 -441.499979593 376.751006593 -441.499979593 376.118698593Z"
             style="fill:#717171;fill-opacity:1" />
          <path
             id="path4202"
             d="M-86.8038 23.708644C-86.803026 23.708644 -86.8012 23.708644 -86.7997 23.708644L-440.353090593 377.262034593C-440.354590593 377.262034593 -440.356416593 377.262034593 -440.357190593 377.262034593Z"
             style="fill:#717171;fill-opacity:1" />
          <path
             id="path4204"
             d="M-86.7997 23.708644L-81.48172 23.708644L-435.035110593 377.262034593L-440.353090593 377.262034593Z"
             style="fill:#717171;fill-opacity:1" />
          <path
             id="path4206"
             d="M-81.48172 23.708644C-79.49985 23.708644 -77.899429 25.295376 -77.897874 27.282482L-431.451264593 380.835872593C-431.452819593 378.848766593 -433.053240593 377.262034593 -435.035110593 377.262034593Z"
             style="fill:#717171;fill-opacity:1" />
          <path
             id="path4208"
             d="M-77.897874 27.282482C-77.897874 28.2723540168 -78.2952873486 29.1618576863 -78.9389347327 29.8055050705L-432.492325326 383.358895664C-431.848677942 382.71524828 -431.451264593 381.82574461 -431.451264593 380.835872593Z"
             style="fill:#717171;fill-opacity:1" />
          <path
             id="path4210"
             d="M-78.9389347327 29.8055050705C-79.5878756412 30.454445979 -80.4871174265 30.85347 -81.48172 30.85347L-435.035110593 384.406860593C-434.04050802 384.406860593 -433.141266235 384.007836572 -432.492325326 383.358895664Z"
             style="fill:#717171;fill-opacity:1" />
          <path
             id="path4212"
             d="M-81.48172 30.85347L-87.946634 30.85347L-441.500024593 384.406860593L-435.035110593 384.406860593Z"
             style="fill:#717171;fill-opacity:1" />
          <path
             id="path4214"
             d="M-87.946634 30.85347L-87.946634 39.008433L-441.500024593 392.561823593L-441.500024593 384.406860593Z"
             style="fill:#717171;fill-opacity:1" />
          <path
             id="path4216"
             d="M-87.946634 39.008433C-87.946634 39.013033 -87.946634 39.016033 -87.946634 39.020613L-441.500024593 392.574003593C-441.500024593 392.569423593 -441.500024593 392.566423593 -441.500024593 392.561823593Z"
             style="fill:#717171;fill-opacity:1" />
          <path
             id="path4218"
             d="M-87.946634 39.020613C-87.946634 43.2574767502 -89.6640651813 47.0933169313 -92.4406844593 49.8699362094L-445.994075053 403.423326803C-443.217455775 400.646707525 -441.500024593 396.810867343 -441.500024593 392.574003593Z"
             style="fill:#717171;fill-opacity:1" />
          <path
             id="path4220"
             d="M-92.4406844593 49.8699362094C-95.2172876811 52.6465394312 -99.0530667498 54.363934 -103.28979 54.363934L-456.843180593 407.917324593C-452.606457343 407.917324593 -448.770678274 406.199930024 -445.994075053 403.423326803Z"
             style="fill:#717171;fill-opacity:1" />
          <path
             id="path4222"
             d="M-103.28979 54.363934C-104.57562 54.363934 -105.48908 54.21907 -106.67903 53.907325L-460.232420593 407.460715593C-459.042470593 407.772460593 -458.129010593 407.917324593 -456.843180593 407.917324593Z"
             style="fill:#717171;fill-opacity:1" />
          <path
             id="path4224"
             d="M-106.67903 53.907325C-108.41446 53.452528 -109.83219 52.030092 -109.83297 50.375724L-463.386360593 403.929114593C-463.385580593 405.583482593 -461.967850593 407.005918593 -460.232420593 407.460715593Z"
             style="fill:#717171;fill-opacity:1" />
          <path
             id="path4226"
             d="M-109.83297 50.375724C-109.83297 49.3953485939 -109.484300763 48.5459759541 -108.873057056 47.934732247L-462.426447649 401.48812284C-463.037691356 402.099366547 -463.386360593 402.948739187 -463.386360593 403.929114593Z"
             style="fill:#717171;fill-opacity:1" />
          <path
             id="path4228"
             d="M-108.873057056 47.934732247C-108.237304263 47.2989794541 -107.317497902 46.920835 -106.21051 46.920835L-459.763900593 400.474225593C-460.870888495 400.474225593 -461.790694856 400.852370047 -462.426447649 401.48812284Z"
             style="fill:#717171;fill-opacity:1" />
          <path
             id="path4230"
             d="M-106.21051 46.920835C-105.1776 46.920835 -104.80289 47.119077 -103.28979 47.119077L-456.843180593 400.672467593C-458.356280593 400.672467593 -458.730990593 400.474225593 -459.763900593 400.474225593Z"
             style="fill:#717171;fill-opacity:1" />
          <path
             id="path4232"
             d="M-103.28979 47.119077C-101.053424082 47.119077 -99.0285045906 46.2124336997 -97.5627574415 44.7466865506L-451.116148035 398.300077144C-452.581895184 399.765824293 -454.606814675 400.672467593 -456.843180593 400.672467593Z"
             style="fill:#717171;fill-opacity:1" />
          <path
             id="path4234"
             d="M-97.5627574415 44.7466865506C-96.1001030869 43.284032196 -95.1942638051 41.2646309734 -95.190769 39.033827L-448.744159593 392.587217593C-448.747654398 394.818021567 -449.65349368 396.837422789 -451.116148035 398.300077144Z"
             style="fill:#717171;fill-opacity:1" />
          <path
             id="path4236"
             d="M-95.190769 39.033827C-95.190769 39.033827 -95.190769 31.997066 -95.190769 31.995771L-448.744159593 385.549161593C-448.744159593 385.550456593 -448.744159593 392.587217593 -448.744159593 392.587217593Z"
             style="fill:#717171;fill-opacity:1" />
          <path
             id="path4238"
             d="M-95.190769 31.995771C-95.190769 31.364758 -95.70308 30.853729 -96.334853 30.853729L-449.888243593 384.407119593C-449.256470593 384.407119593 -448.744159593 384.918148593 -448.744159593 385.549161593Z"
             style="fill:#717171;fill-opacity:1" />
          <path
             id="path4240"
             d="M-96.334853 30.853729C-96.335628 30.853729 -96.336353 30.853729 -96.337753 30.853729L-449.891143593 384.407119593C-449.889743593 384.407119593 -449.889018593 384.407119593 -449.888243593 384.407119593Z"
             style="fill:#717171;fill-opacity:1" />
          <path
             id="path4242"
             d="M-96.337753 30.853729L-101.65547 30.853729L-455.208860593 384.407119593L-449.891143593 384.407119593Z"
             style="fill:#717171;fill-opacity:1" />
          <path
             id="path4244"
             d="M-101.65547 30.853729C-103.63786 30.853729 -105.23958 29.272181 -105.23958 27.283778L-458.792970593 380.837168593C-458.792970593 382.825571593 -457.191250593 384.407119593 -455.208860593 384.407119593Z"
             style="fill:#717171;fill-opacity:1" />
          <path
             id="path4246"
             d="M-105.23958 27.283778C-105.239837051 26.2953436743 -104.844389304 25.4106348136 -104.202392336 24.7686378451L-457.755782929 378.322028438C-458.397779898 378.964025407 -458.793227645 379.848734268 -458.792970593 380.837168593Z"
             style="fill:#717171;fill-opacity:1" />
          <path
             id="path4248"
             d="M-104.202392336 24.7686378451C-103.545666875 24.1119123845 -102.63094992 23.709163 -101.6179 23.709163L-455.171290593 377.262553593C-456.184340514 377.262553593 -457.099057469 377.665302978 -457.755782929 378.322028438Z"
             style="fill:#717171;fill-opacity:1" />
          <path
             id="path4250"
             d="M-101.6179 23.709163L-95.191597 23.709163L-448.744987593 377.262553593L-455.171290593 377.262553593Z"
             style="fill:#717171;fill-opacity:1" />
          <path
             id="path4252"
             d="M-95.191597 23.709163L-95.191597 23.708904L-448.744987593 377.262294593L-448.744987593 377.262553593Z"
             style="fill:#717171;fill-opacity:1" />
        </g>
        <path
           style="display:inline;fill:#717171;fill-opacity:1"
           id="blue-inifity-connectors"
           inkscape:connector-curvature="0"
           d="m -95.191503,23.708908 0,-8.121532 c 0,-0.0036 0,-0.0076 0,-0.01063 0,-8.474485 6.869426,-15.344359 15.344197,-15.344359 1.285571,0 2.199023,0.144861 3.388975,0.456349 1.735431,0.455056 3.152643,1.876713 3.153421,3.531598 7.74e-4,2.000581 -1.451418,3.454892 -3.621679,3.454892 -1.033951,0 -1.407625,-0.197986 -2.921495,-0.197986 -4.468015,0 -8.090991,3.61867 -8.098505,8.086549 l 0,7.001259 0,2.6e-4 c 0,0.632308 0.511015,1.143336 1.142789,1.143336 7.74e-4,0 0.0026,0 0.0041,0 l 5.31798,0 c 1.98187,0 3.582291,1.586732 3.583846,3.573838 0,1.987885 -1.602754,3.570988 -3.583846,3.570988 l -6.464914,0 0,8.154963 c 0,0.0046 0,0.0076 0,0.01218 0,8.473703 -6.869685,15.343321 -15.343156,15.343321 -1.28583,0 -2.19929,-0.144864 -3.38924,-0.456609 -1.73543,-0.454797 -3.15316,-1.877233 -3.15394,-3.531601 0,-2.000061 1.45116,-3.454889 3.62246,-3.454889 1.03291,0 1.40762,0.198242 2.92072,0.198242 4.468013,0 8.092024,-3.618925 8.099021,-8.08525 0,0 0,-7.036761 0,-7.038056 0,-0.631013 -0.512311,-1.142042 -1.144084,-1.142042 -7.75e-4,0 -0.0015,0 -0.0029,0 l -5.317717,0 c -1.98239,0 -3.58411,-1.581548 -3.58411,-3.569951 -5.2e-4,-1.999545 1.6183,-3.574615 3.62168,-3.574615 l 6.426303,0 0,-2.59e-4 z" />
      </g>
      <g
         id="g4255"
         style="fill:#717171;fill-opacity:1">
        <g
           id="g4257"
           style="display:inline;fill:#717171;fill-opacity:1">
          <path
             id="path4259"
             d="M-79.847306 0.232649C-84.0846151237 0.232649 -87.920602465 1.95005558792 -90.6972934789 4.72674660179L-444.250684072 358.280137195C-441.473993058 355.503446181 -437.638005717 353.786039593 -433.400696593 353.786039593Z"
             style="fill:#717171;fill-opacity:1" />
          <path
             id="path4261"
             d="M-90.6972934789 4.72674660179C-93.4740845908 7.50353771378 -95.191503 11.3396896263 -95.191503 15.577009L-448.744893593 369.130399593C-448.744893593 364.89308022 -447.027475184 361.056928307 -444.250684072 358.280137195Z"
             style="fill:#717171;fill-opacity:1" />
          <path
             id="path4263"
             d="M-95.191503 15.577009C-95.191503 15.579909 -95.191503 15.583709 -95.191503 15.587629L-448.744893593 369.141019593C-448.744893593 369.137099593 -448.744893593 369.133299593 -448.744893593 369.130399593Z"
             style="fill:#717171;fill-opacity:1" />
          <path
             id="path4265"
             d="M-95.191503 15.587629L-95.191503 23.708904L-448.744893593 377.262294593L-448.744893593 369.141019593Z"
             style="fill:#717171;fill-opacity:1" />
          <path
             id="path4267"
             d="M-95.191503 23.708904L-103.28768 23.708904L-456.841070593 377.262294593L-448.744893593 377.262294593Z"
             style="fill:#717171;fill-opacity:1" />
          <path
             id="path4269"
             d="M-103.28768 23.708904C-103.28868 23.708904 -103.28868 23.708904 -103.28968 23.708904L-456.843070593 377.262294593C-456.842070593 377.262294593 -456.842070593 377.262294593 -456.841070593 377.262294593Z"
             style="fill:#717171;fill-opacity:1" />
          <path
             id="path4271"
             d="M-103.28968 23.708904C-107.53524711 23.708904 -111.377965844 25.4247270116 -114.155914766 28.2026759335L-467.70930536 381.756066527C-464.931356438 378.978117605 -461.088637703 377.262294593 -456.843070593 377.262294593Z"
             style="fill:#717171;fill-opacity:1" />
          <path
             id="path4273"
             d="M-114.155914766 28.2026759335C-116.92298617 30.9697473373 -118.63361 34.7906430772 -118.63361 39.019315L-472.187000593 392.572705593C-472.187000593 388.344033671 -470.476376763 384.523137931 -467.70930536 381.756066527Z"
             style="fill:#717171;fill-opacity:1" />
          <path
             id="path4275"
             d="M-118.63361 39.019315C-118.63361 47.494581 -111.76393 54.364193 -103.28968 54.364193L-456.843070593 407.917583593C-465.317320593 407.917583593 -472.187000593 401.047971593 -472.187000593 392.572705593Z"
             style="fill:#717171;fill-opacity:1" />
          <path
             id="path4277"
             d="M-103.28968 54.364193C-99.0531458533 54.364193 -95.2175215899 52.6469564799 -92.4409476259 49.8703825159L-445.994338219 403.423773109C-448.770912183 406.200347073 -452.606536447 407.917583593 -456.843070593 407.917583593Z"
             style="fill:#717171;fill-opacity:1" />
          <path
             id="path4279"
             d="M-92.4409476259 49.8703825159C-89.6641044897 47.0935393796 -87.946517 43.2571533967 -87.946517 39.019315L-441.499907593 392.572705593C-441.499907593 396.81054399 -443.217495083 400.646929973 -445.994338219 403.423773109Z"
             style="fill:#717171;fill-opacity:1" />
          <path
             id="path4281"
             d="M-87.946517 39.019315C-87.946517 39.016115 -87.946517 39.013415 -87.946517 39.008695L-441.499907593 392.562085593C-441.499907593 392.566805593 -441.499907593 392.569505593 -441.499907593 392.572705593Z"
             style="fill:#717171;fill-opacity:1" />
          <path
             id="path4283"
             d="M-87.946517 39.008695L-87.946517 30.853733L-441.499907593 384.407123593L-441.499907593 392.562085593Z"
             style="fill:#717171;fill-opacity:1" />
          <path
             id="path4285"
             d="M-87.946517 30.853733L-79.850603 30.853733L-433.403993593 384.407123593L-441.499907593 384.407123593Z"
             style="fill:#717171;fill-opacity:1" />
          <path
             id="path4287"
             d="M-79.850603 30.853733C-79.848803 30.853733 -79.848003 30.853733 -79.847203 30.853733L-433.400593593 384.407123593C-433.401393593 384.407123593 -433.402193593 384.407123593 -433.403993593 384.407123593Z"
             style="fill:#717171;fill-opacity:1" />
          <path
             id="path4289"
             d="M-79.847203 30.853733C-75.5937962439 30.853733 -71.7444980583 29.1396344458 -68.9653457003 26.3604820878L-422.518736294 379.913872681C-425.297888652 382.693025039 -429.147186837 384.407123593 -433.400593593 384.407123593Z"
             style="fill:#717171;fill-opacity:1" />
          <path
             id="path4291"
             d="M-68.9653457003 26.3604820878C-66.2079771945 23.603113582 -64.504044 19.797322276 -64.504044 15.57701L-418.057434593 369.130400593C-418.057434593 373.350712869 -419.761367788 377.156504175 -422.518736294 379.913872681Z"
             style="fill:#717171;fill-opacity:1" />
          <path
             id="path4293"
             d="M-64.504044 15.57701C-64.504044 7.102524 -71.373729 0.232649 -79.847203 0.232649L-433.400593593 353.786039593C-424.927119593 353.786039593 -418.057434593 360.655914593 -418.057434593 369.130400593Z"
             style="fill:#717171;fill-opacity:1" />
          <path
             id="path4295"
             d="M-95.191503 39.033832C-95.1946999311 41.2643348077 -96.1005851919 43.2839115207 -97.5634029732 44.7467293021L-451.116793566 398.300119895C-449.653975785 396.837302114 -448.748090524 394.817725401 -448.744893593 392.587222593Z"
             style="fill:#717171;fill-opacity:1" />
          <path
             id="path4297"
             d="M-97.5634029732 44.7467293021C-99.0290292462 46.2123555751 -101.053728623 47.119083 -103.28975 47.119083L-456.843140593 400.672473593C-454.607119217 400.672473593 -452.582419839 399.765746168 -451.116793566 398.300119895Z"
             style="fill:#717171;fill-opacity:1" />
          <path
             id="path4299"
             d="M-103.28975 47.119083C-107.76217 47.119083 -111.42142 43.49316 -111.42142 39.020616L-464.974810593 392.574006593C-464.974810593 397.046550593 -461.315560593 400.672473593 -456.843140593 400.672473593Z"
             style="fill:#717171;fill-opacity:1" />
          <path
             id="path4301"
             d="M-111.42142 39.020616C-111.42142 36.7749064976 -110.499511411 34.7259761383 -109.015601629 33.2420663569L-462.568992222 386.79545695C-464.052902004 388.279366732 -464.974810593 390.328297091 -464.974810593 392.574006593Z"
             style="fill:#717171;fill-opacity:1" />
          <path
             id="path4303"
             d="M-109.015601629 33.2420663569C-107.543135821 31.7696005491 -105.517303749 30.853474 -103.28975 30.853474L-456.843140593 384.406864593C-459.070694343 384.406864593 -461.096526415 385.322991142 -462.568992222 386.79545695Z"
             style="fill:#717171;fill-opacity:1" />
          <path
             id="path4305"
             d="M-103.28975 30.853474C-103.28575 30.853474 -103.28275 30.853474 -103.27915 30.853474L-456.832540593 384.406864593C-456.836140593 384.406864593 -456.839140593 384.406864593 -456.843140593 384.406864593Z"
             style="fill:#717171;fill-opacity:1" />
          <path
             id="path4307"
             d="M-103.27915 30.853474L-96.339754 30.853474L-449.893144593 384.406864593L-456.832540593 384.406864593Z"
             style="fill:#717171;fill-opacity:1" />
          <path
             id="path4309"
             d="M-96.339754 30.853474C-96.337454 30.853474 -96.336154 30.853474 -96.334554 30.853474L-449.887944593 384.406864593C-449.889544593 384.406864593 -449.890844593 384.406864593 -449.893144593 384.406864593Z"
             style="fill:#717171;fill-opacity:1" />
          <path
             id="path4311"
             d="M-96.334554 30.853474C-95.702781 30.853474 -95.190469 31.364762 -95.190469 31.995515L-448.743859593 385.548905593C-448.743859593 384.918152593 -449.256171593 384.406864593 -449.887944593 384.406864593Z"
             style="fill:#717171;fill-opacity:1" />
          <path
             id="path4313"
             d="M-95.190469 31.995515C-95.190469 31.996715 -95.191247 31.996715 -95.191247 31.998415L-448.744637593 385.551805593C-448.744637593 385.550105593 -448.743859593 385.550105593 -448.743859593 385.548905593Z"
             style="fill:#717171;fill-opacity:1" />
          <path
             id="path4315"
             d="M-95.191247 31.998415L-95.191247 39.033881L-448.744637593 392.587271593L-448.744637593 385.551805593Z"
             style="fill:#717171;fill-opacity:1" />
          <path
             id="path4317"
             d="M-95.191247 39.033881L-95.191505 39.033881L-448.744895593 392.587271593L-448.744637593 392.587271593Z"
             style="fill:#717171;fill-opacity:1" />
          <path
             id="path4319"
             d="M-79.848084 23.708908C-79.850684 23.708908 -79.853284 23.708908 -79.855684 23.708908L-433.409074593 377.262298593C-433.406674593 377.262298593 -433.404074593 377.262298593 -433.401474593 377.262298593Z"
             style="fill:#717171;fill-opacity:1" />
          <path
             id="path4321"
             d="M-79.855684 23.708908L-86.799739 23.708908L-440.353129593 377.262298593L-433.409074593 377.262298593Z"
             style="fill:#717171;fill-opacity:1" />
          <path
             id="path4323"
             d="M-86.799739 23.708908C-86.801239 23.708908 -86.803139 23.708908 -86.803839 23.708908L-440.357229593 377.262298593C-440.356529593 377.262298593 -440.354629593 377.262298593 -440.353129593 377.262298593Z"
             style="fill:#717171;fill-opacity:1" />
          <path
             id="path4325"
             d="M-86.803839 23.708908C-87.435612 23.708908 -87.946628 23.197878 -87.946628 22.56557L-441.500018593 376.118960593C-441.500018593 376.751268593 -440.989002593 377.262298593 -440.357229593 377.262298593Z"
             style="fill:#717171;fill-opacity:1" />
          <path
             id="path4327"
             d="M-87.946628 22.56557L-87.946628 22.565311L-441.500018593 376.118701593L-441.500018593 376.118960593Z"
             style="fill:#717171;fill-opacity:1" />
          <path
             id="path4329"
             d="M-87.946628 22.565311L-87.946628 15.563793L-441.500018593 369.117183593L-441.500018593 376.118701593Z"
             style="fill:#717171;fill-opacity:1" />
          <path
             id="path4331"
             d="M-87.946628 15.563793C-87.942831443 13.3318770654 -87.0368494641 11.3118793405 -85.574012074 9.84904195044L-439.127402667 363.402432544C-440.590240057 364.865269934 -441.496222036 366.885267659 -441.500018593 369.117183593Z"
             style="fill:#717171;fill-opacity:1" />
          <path
             id="path4333"
             d="M-85.574012074 9.84904195044C-84.108521467 8.38355134348 -82.0841536275 7.477244 -79.848121 7.477244L-433.401511593 361.030634593C-435.637544221 361.030634593 -437.66191206 361.936941937 -439.127402667 363.402432544Z"
             style="fill:#717171;fill-opacity:1" />
          <path
             id="path4335"
             d="M-79.848121 7.477244C-75.375701 7.477244 -71.715671 11.103428 -71.715671 15.57675L-425.269061593 369.130140593C-425.269061593 364.656818593 -428.929091593 361.030634593 -433.401511593 361.030634593Z"
             style="fill:#717171;fill-opacity:1" />
          <path
             id="path4337"
             d="M-71.715671 15.57675C-71.715671 17.8130306198 -72.6305795882 19.845971223 -74.1044994808 21.3198911156L-427.657890074 374.873281709C-426.183970181 373.399361816 -425.269061593 371.366421213 -425.269061593 369.130140593Z"
             style="fill:#717171;fill-opacity:1" />
          <path
             id="path4339"
             d="M-74.1044994808 21.3198911156C-75.5785787163 22.7939703511 -77.6117901302 23.708908 -79.848121 23.708908L-433.401511593 377.262298593C-431.165180723 377.262298593 -429.13196931 376.347360944 -427.657890074 374.873281709Z"
             style="fill:#717171;fill-opacity:1" />
        </g>
        <path
           style="display:inline;fill:#717171;fill-opacity:1"
           id="f-script-path"
           inkscape:connector-curvature="0"
           d="m -79.847306,0.232649 c -8.474771,0 -15.344197,6.869874 -15.344197,15.34436 0,0.0029 0,0.0067 0,0.01062 l 0,8.121275 -8.096177,0 c -0.001,0 -0.001,0 -0.002,0 -8.47451,0 -15.34393,6.836444 -15.34393,15.310411 0,8.475266 6.86968,15.344878 15.34393,15.344878 8.473479,0 15.343163,-6.869612 15.343163,-15.344878 0,-0.0032 0,-0.0059 0,-0.01062 l 0,-8.154962 8.095914,0 c 0.0018,0 0.0026,0 0.0034,0 8.473474,0 15.343159,-6.802757 15.343159,-15.276723 0,-8.474486 -6.869685,-15.344361 -15.343159,-15.344361 z m -15.344197,38.801183 c -0.0064,4.465288 -3.630489,8.085251 -8.098247,8.085251 -4.47242,0 -8.13167,-3.625923 -8.13167,-8.098467 0,-4.4741 3.65925,-8.167142 8.13167,-8.167142 0.004,0 0.007,0 0.0106,0 l 6.939396,0 c 0.0023,0 0.0036,0 0.0052,0 0.631773,0 1.144085,0.511288 1.144085,1.142041 0,0.0012 -7.78e-4,0.0012 -7.78e-4,0.0029 l 0,7.035466 -2.58e-4,0 z m 15.343419,-15.324924 c -0.0026,0 -0.0052,0 -0.0076,0 l -6.944055,0 c -0.0015,0 -0.0034,0 -0.0041,0 -0.631773,0 -1.142789,-0.51103 -1.142789,-1.143338 l 0,-2.59e-4 0,-7.001518 c 0.0076,-4.46788 3.63049,-8.086549 8.098507,-8.086549 4.47242,0 8.13245,3.626184 8.13245,8.099506 0,4.472803 -3.66003,8.132158 -8.13245,8.132158 z" />
      </g>
    </g>
    <g
       transform="matrix(2.2169031,0,0,2.2169031,330.99922,863.8445)"
       id="g4147">
      <path
         d="m -79.847306,0.232649 c -8.474771,0 -15.344197,6.869874 -15.344197,15.34436 0,0.0029 0,0.0067 0,0.01062 l 0,8.121275 -8.096177,0 c -0.001,0 -0.001,0 -0.002,0 -8.47451,0 -15.34393,6.836444 -15.34393,15.310411 0,8.475266 6.86968,15.344878 15.34393,15.344878 8.473479,0 15.343163,-6.869612 15.343163,-15.344878 0,-0.0032 0,-0.0059 0,-0.01062 l 0,-8.154962 8.095914,0 c 0.0018,0 0.0026,0 0.0034,0 8.473474,0 15.343159,-6.802757 15.343159,-15.276723 0,-8.474486 -6.869685,-15.344361 -15.343159,-15.344361 z m -15.344197,38.801183 c -0.0064,4.465288 -3.630489,8.085251 -8.098247,8.085251 -4.47242,0 -8.13167,-3.625923 -8.13167,-8.098467 0,-4.4741 3.65925,-8.167142 8.13167,-8.167142 0.004,0 0.007,0 0.0106,0 l 6.939396,0 c 0.0023,0 0.0036,0 0.0052,0 0.631773,0 1.144085,0.511288 1.144085,1.142041 0,0.0012 -7.78e-4,0.0012 -7.78e-4,0.0029 l 0,7.035466 -2.58e-4,0 z m 15.343419,-15.324924 c -0.0026,0 -0.0052,0 -0.0076,0 l -6.944055,0 c -0.0015,0 -0.0034,0 -0.0041,0 -0.631773,0 -1.142789,-0.51103 -1.142789,-1.143338 l 0,-2.59e-4 0,-7.001518 c 0.0076,-4.46788 3.63049,-8.086549 8.098507,-8.086549 4.47242,0 8.13245,3.626184 8.13245,8.099506 0,4.472803 -3.66003,8.132158 -8.13245,8.132158 z"
         inkscape:connector-curvature="0"
         id="path4149"
         style="display:inline;fill:#5484c6;fill-opacity:1" />
      <path
         d="m -95.191503,23.708908 0,-8.121532 c 0,-0.0036 0,-0.0076 0,-0.01063 0,-8.474485 6.869426,-15.344359 15.344197,-15.344359 1.285571,0 2.199023,0.144861 3.388975,0.456349 1.735431,0.455056 3.152643,1.876713 3.153421,3.531598 7.74e-4,2.000581 -1.451418,3.454892 -3.621679,3.454892 -1.033951,0 -1.407625,-0.197986 -2.921495,-0.197986 -4.468015,0 -8.090991,3.61867 -8.098505,8.086549 l 0,7.001259 0,2.6e-4 c 0,0.632308 0.511015,1.143336 1.142789,1.143336 7.74e-4,0 0.0026,0 0.0041,0 l 5.31798,0 c 1.98187,0 3.582291,1.586732 3.583846,3.573838 0,1.987885 -1.602754,3.570988 -3.583846,3.570988 l -6.464914,0 0,8.154963 c 0,0.0046 0,0.0076 0,0.01218 0,8.473703 -6.869685,15.343321 -15.343156,15.343321 -1.28583,0 -2.19929,-0.144864 -3.38924,-0.456609 -1.73543,-0.454797 -3.15316,-1.877233 -3.15394,-3.531601 0,-2.000061 1.45116,-3.454889 3.62246,-3.454889 1.03291,0 1.40762,0.198242 2.92072,0.198242 4.468013,0 8.092024,-3.618925 8.099021,-8.08525 0,0 0,-7.036761 0,-7.038056 0,-0.631013 -0.512311,-1.142042 -1.144084,-1.142042 -7.75e-4,0 -0.0015,0 -0.0029,0 l -5.317717,0 c -1.98239,0 -3.58411,-1.581548 -3.58411,-3.569951 -5.2e-4,-1.999545 1.6183,-3.574615 3.62168,-3.574615 l 6.426303,0 0,-2.59e-4 z"
         inkscape:connector-curvature="0"
         id="path4151"
         style="display:inline;fill:#ffffff" />
    </g>
  </g>
</svg>
