<?xml version="1.0" encoding="UTF-8" standalone="no"?>
<!-- Created with Inkscape (http://www.inkscape.org/) -->

<svg
   xmlns:dc="http://purl.org/dc/elements/1.1/"
   xmlns:cc="http://creativecommons.org/ns#"
   xmlns:rdf="http://www.w3.org/1999/02/22-rdf-syntax-ns#"
   xmlns:svg="http://www.w3.org/2000/svg"
   xmlns="http://www.w3.org/2000/svg"
   xmlns:sodipodi="http://sodipodi.sourceforge.net/DTD/sodipodi-0.dtd"
   xmlns:inkscape="http://www.inkscape.org/namespaces/inkscape"
   sodipodi:docname="five-or-more.svg"
   inkscape:version="0.92.2 (5c3e80d, 2017-08-06)"
   version="1.1"
   id="svg2"
   viewBox="0 0 256 256"
   height="256"
   width="256">
  <sodipodi:namedview
     inkscape:window-maximized="1"
     inkscape:window-y="0"
     inkscape:window-x="0"
     inkscape:window-height="1048"
     inkscape:window-width="1920"
     units="px"
     showgrid="true"
     inkscape:current-layer="layer1"
     inkscape:document-units="px"
     inkscape:cy="127.99998"
     inkscape:cx="128"
     inkscape:zoom="3.3125"
     inkscape:pageshadow="2"
     inkscape:pageopacity="0.0"
     borderopacity="1.0"
     bordercolor="#666666"
     pagecolor="#ffffff"
     id="base">
    <inkscape:grid
       type="xygrid"
       id="grid4168"
       spacingx="5"
       spacingy="5" />
  </sodipodi:namedview>
  <defs
     id="defs4">
    <clipPath
       clipPathUnits="userSpaceOnUse"
       id="clipPath5002">
      <g
         id="g5004">
        <path
           transform="translate(0,796.36216)"
           inkscape:connector-curvature="0"
           id="path5006"
           d="M 88.118406,249.43519 C 46.103287,235.29134 14.771284,201.68742 4.1335861,159.36053 1.3377997,148.23623 0.92261224,144.16281 0.92582381,127.88908 0.92787958,117.47222 1.134384,112.01362 1.6577819,108.54099 4.4653598,89.913336 12.17654,70.638106 23.042737,55.086148 c 3.958678,-5.665755 8.344812,-10.93092 9.101533,-10.925587 0.32809,0.0023 10.488643,18.309713 22.579009,40.683112 12.090365,22.373397 22.374546,41.334697 22.853732,42.136217 0.479186,0.80151 0.924733,2.44098 0.990103,3.64326 0.343424,6.31639 2.524175,14.20976 5.6424,20.42304 2.954444,5.88693 5.065381,8.73258 10.434696,14.06652 6.71418,6.66995 12.88853,10.28643 21.73204,12.72904 3.16587,0.87442 5.10478,1.05037 11.57517,1.05037 8.82596,0 12.60219,-0.76201 19.26429,-3.88733 2.04584,-0.95974 3.93661,-1.66536 4.20172,-1.56805 0.2651,0.0973 -11.0555,17.66459 -25.1569,39.0384 l -25.6389,38.86148 -3.094121,0.11221 c -2.554618,0.0927 -4.195204,-0.25845 -9.409103,-2.01364 z"
           style="fill:#0f9d58;fill-opacity:1;stroke:none;stroke-width:4.85768509;stroke-linejoin:round;stroke-miterlimit:4;stroke-dasharray:none;stroke-opacity:1" />
        <path
           inkscape:connector-curvature="0"
           id="path5008"
           d="m 112.35984,1051.5167 c -10.0014,-1.4495 -12.15632,-1.8201 -12.531784,-2.1556 -0.248854,-0.2223 1.738304,-3.7475 4.550294,-8.0722 7.16635,-11.0213 49.77231,-74.64801 50.25856,-75.05489 3.57509,-2.99158 8.63523,-8.0414 10.57512,-10.55356 3.36154,-4.35318 7.55784,-12.9141 9.06523,-18.494 6.19314,-22.92535 -2.59253,-47.15185 -21.69967,-59.83688 l -2.96081,-1.96565 17.02469,0.29584 c 9.36358,0.1627 31.17032,0.43384 48.45941,0.60252 l 31.43471,0.30668 1.54584,4.18869 c 2.24597,6.08579 4.67816,15.0947 5.93451,21.9816 1.52517,8.36049 1.92536,28.85896 0.73851,37.82758 -3.0805,23.27845 -12.81326,45.72018 -27.80202,64.10577 -20.47622,25.1166 -51.4599,42.1974 -84.14612,46.3885 -5.31244,0.6812 -26.64601,0.9864 -30.44647,0.4356 z"
           style="fill:#f4b400;fill-opacity:1;stroke:none;stroke-width:4.85768509;stroke-linejoin:round;stroke-miterlimit:4;stroke-dasharray:none;stroke-opacity:1" />
        <path
           transform="translate(0,796.36216)"
           inkscape:connector-curvature="0"
           id="path5010"
           d="M 67.989788,108.87302 C 41.284246,59.575543 33.290284,45.149038 32.233625,44.344765 31.651257,43.901497 32.811213,42.549931 38.695603,36.815353 53.43581,22.450419 68.809334,13.040746 87.839196,6.7360352 101.68742,2.1480329 112.58238,0.43719165 127.95142,0.43719165 c 21.3099,0 37.80488,3.80960275 56.83492,13.12633035 25.29351,12.383198 46.19421,33.578863 58.51993,59.345832 1.61138,3.368591 2.92978,6.372442 2.92978,6.675231 0,0.560033 -10.54865,0.49527 -71.16508,-0.436914 l -24.28843,-0.373518 -3.93063,-1.764495 c -6.75732,-3.033425 -10.64587,-3.839529 -18.6576,-3.867747 -5.0296,-0.01773 -7.97946,0.207636 -10.31642,0.788106 -14.50826,3.603659 -26.283291,12.94777 -33.291614,26.418653 -3.58502,6.89086 -5.24713,13.08166 -6.331628,23.58317 l -0.33738,3.26696 -9.92748,-18.32578 z"
           style="fill:#db4437;fill-opacity:1;stroke:none;stroke-width:10;stroke-linejoin:round;stroke-miterlimit:4;stroke-dasharray:none;stroke-opacity:1" />
      </g>
    </clipPath>
    <clipPath
       id="clipPath4271"
       clipPathUnits="userSpaceOnUse">
      <circle
         r="128"
         cy="128.00002"
         cx="128"
         id="circle4273"
         style="fill:#292929;fill-opacity:0.26020412;stroke:none;stroke-width:10;stroke-linejoin:round;stroke-miterlimit:4;stroke-dasharray:none;stroke-opacity:0.25882353" />
    </clipPath>
    <clipPath
       clipPathUnits="userSpaceOnUse"
       id="clipPath4363">
      <circle
         r="128"
         cy="924.36218"
         cx="128"
         id="circle4365"
         style="fill:#4285f4;fill-opacity:1;stroke:none;stroke-width:10;stroke-linejoin:round;stroke-miterlimit:4;stroke-dasharray:none;stroke-opacity:0.25882353" />
    </clipPath>
    <clipPath
       id="clipPath4452"
       clipPathUnits="userSpaceOnUse">
      <circle
         r="128"
         cy="924.36218"
         cx="128"
         id="circle4454"
         style="fill:#4285f4;fill-opacity:1;stroke:none;stroke-width:10;stroke-linejoin:round;stroke-miterlimit:4;stroke-dasharray:none;stroke-opacity:0.25882353" />
    </clipPath>
    <clipPath
       clipPathUnits="userSpaceOnUse"
       id="clipPath5177">
      <circle
         r="128"
         cy="924.36218"
         cx="128"
         id="circle5179"
         style="fill:#4285f4;fill-opacity:1;stroke:none;stroke-width:10;stroke-linejoin:round;stroke-miterlimit:4;stroke-dasharray:none;stroke-opacity:0.25882353" />
    </clipPath>
    <clipPath
       id="clipPath4342"
       clipPathUnits="userSpaceOnUse">
      <circle
         r="128"
         cy="933.48718"
         cx="128"
         id="circle4344"
         style="fill:#4285f4;fill-opacity:1;stroke:none;stroke-width:10;stroke-linejoin:round;stroke-miterlimit:4;stroke-dasharray:none;stroke-opacity:0.25882353" />
    </clipPath>
    <clipPath
       clipPathUnits="userSpaceOnUse"
       id="clipPath4681">
      <circle
         r="128"
         cy="930.43964"
         cx="127.00293"
         id="circle4683"
         style="fill:#9d5fad;fill-opacity:1;stroke:none;stroke-width:10;stroke-linejoin:round;stroke-miterlimit:4;stroke-dasharray:none;stroke-opacity:0.25882353" />
    </clipPath>
    <clipPath
       id="clipPath4235"
       clipPathUnits="userSpaceOnUse">
      <circle
         r="128"
         cy="924.36218"
         cx="128"
         id="circle4237"
         style="fill:#0f9d58;fill-opacity:1;stroke:none;stroke-width:10;stroke-linejoin:round;stroke-miterlimit:4;stroke-dasharray:none;stroke-opacity:0.25882353" />
    </clipPath>
    <clipPath
       clipPathUnits="userSpaceOnUse"
       id="clipPath4771">
      <circle
         r="128"
         cy="924.36218"
         cx="128"
         id="circle4773"
         style="fill:#0f9d58;fill-opacity:1;stroke:none;stroke-width:10;stroke-linejoin:round;stroke-miterlimit:4;stroke-dasharray:none;stroke-opacity:0.25882353" />
    </clipPath>
    <clipPath
       id="clipPath4842"
       clipPathUnits="userSpaceOnUse">
      <circle
         r="128"
         cy="924.36218"
         cx="128"
         id="circle4844"
         style="fill:#0f9d58;fill-opacity:1;stroke:none;stroke-width:10;stroke-linejoin:round;stroke-miterlimit:4;stroke-dasharray:none;stroke-opacity:0.25882353" />
    </clipPath>
    <clipPath
       clipPathUnits="userSpaceOnUse"
       id="clipPath4458">
      <circle
         r="128"
         cy="924.36218"
         cx="128"
         id="circle4460"
         style="fill:#ff3b38;fill-opacity:1;stroke:none;stroke-width:10;stroke-linejoin:round;stroke-miterlimit:4;stroke-dasharray:none;stroke-opacity:0.25882353" />
    </clipPath>
    <clipPath
       id="clipPath4783"
       clipPathUnits="userSpaceOnUse">
      <circle
         r="128"
         cy="924.36218"
         cx="128"
         id="circle4785"
         style="fill:#ff3b38;fill-opacity:1;stroke:none;stroke-width:10;stroke-linejoin:round;stroke-miterlimit:4;stroke-dasharray:none;stroke-opacity:0.25882353" />
    </clipPath>
    <clipPath
       clipPathUnits="userSpaceOnUse"
       id="clipPath4789">
      <circle
         r="128"
         cy="924.36218"
         cx="102.64714"
         id="circle4791"
         style="fill:#80b4ff;fill-opacity:1;stroke:none;stroke-width:10;stroke-linejoin:round;stroke-miterlimit:4;stroke-dasharray:none;stroke-opacity:0.25882353" />
    </clipPath>
    <clipPath
       id="clipPath4721"
       clipPathUnits="userSpaceOnUse">
      <circle
         r="128"
         cy="924.36218"
         cx="128"
         id="circle4723"
         style="fill:#557ae6;fill-opacity:1;stroke:none;stroke-width:10;stroke-linejoin:round;stroke-miterlimit:4;stroke-dasharray:none;stroke-opacity:0.25882353" />
    </clipPath>
    <clipPath
       clipPathUnits="userSpaceOnUse"
       id="clipPath4491">
      <circle
         r="128"
         cy="924.36218"
         cx="128"
         id="circle4493"
         style="fill:#990000;fill-opacity:1;stroke:none;stroke-width:10;stroke-linejoin:round;stroke-miterlimit:4;stroke-dasharray:none;stroke-opacity:0.25882353" />
    </clipPath>
    <clipPath
       id="clipPath1102"
       clipPathUnits="userSpaceOnUse">
      <circle
         r="128"
         cy="924.36218"
         cx="128"
         id="circle1104"
         style="fill:#b40000;fill-opacity:1;stroke:none;stroke-width:10;stroke-linejoin:round;stroke-miterlimit:4;stroke-dasharray:none;stroke-opacity:0.25882353" />
    </clipPath>
    <clipPath
       id="clipPath1102-3"
       clipPathUnits="userSpaceOnUse">
      <circle
         r="128"
         cy="924.36218"
         cx="128"
         id="circle1104-6"
         style="fill:#b40000;fill-opacity:1;stroke:none;stroke-width:10;stroke-linejoin:round;stroke-miterlimit:4;stroke-dasharray:none;stroke-opacity:0.25882353" />
    </clipPath>
    <clipPath
       clipPathUnits="userSpaceOnUse"
       id="clipPath1137">
      <circle
         r="128"
         cy="924.36218"
         cx="128"
         id="circle1139"
         style="fill:#c42626;fill-opacity:1;stroke:none;stroke-width:10;stroke-linejoin:round;stroke-miterlimit:4;stroke-dasharray:none;stroke-opacity:0.25882353" />
    </clipPath>
  </defs>
  <metadata
     id="metadata7">
    <rdf:RDF>
      <cc:Work
         rdf:about="">
        <dc:format>image/svg+xml</dc:format>
        <dc:type
           rdf:resource="http://purl.org/dc/dcmitype/StillImage" />
        <dc:title />
      </cc:Work>
    </rdf:RDF>
  </metadata>
  <g
     transform="translate(0,-796.36216)"
     id="layer1"
     inkscape:groupmode="layer"
     inkscape:label="Layer 1">
    <circle
       style="fill:#c4266c;fill-opacity:1;stroke:none;stroke-width:10;stroke-linejoin:round;stroke-miterlimit:4;stroke-dasharray:none;stroke-opacity:0.25882353"
       id="path4152"
       cx="128"
       cy="924.36218"
       r="128" />
    <g
       id="g945"
       clip-path="url(#clipPath1137)"
       style="fill:#821a48;fill-opacity:1;stroke:#821a48;stroke-opacity:1">
      <g
         transform="translate(1.5188618,-6.7453244)"
         id="g935"
         style="fill:#821a48;fill-opacity:1;stroke:#821a48;stroke-opacity:1">
        <g
           id="g1050"
           transform="translate(-1.5188618,803.10748)"
           style="fill:#821a48;fill-opacity:1;stroke:#821a48;stroke-opacity:1">
          <g
             id="g1047"
             style="fill:#821a48;fill-opacity:1;stroke:#821a48;stroke-width:1;stroke-miterlimit:4;stroke-dasharray:none;stroke-opacity:1">
            <path
               id="path1003"
               d="M63.792969 40.5C56.9152629089 41.2106480576 51.8981482858 43.6522892279 48.493393976 47.0570435378L-92.9279622614 188.478399775C-89.5232079515 185.073645465 -84.5060933285 182.632004295 -77.6283872373 181.921356237Z"
               style="fill:#821a48;fill-opacity:1;stroke:#821a48;stroke-opacity:1" />
            <path
               id="path1005"
               d="M48.493393976 47.0570435378C36.0189277453 59.5315097684 45.1883100787 84.9345222859 63.792969 85.5L-77.6283872373 226.921356237C-96.2330461586 226.355878523 -105.402428492 200.952866006 -92.9279622614 188.478399775Z"
               style="fill:#821a48;fill-opacity:1;stroke:#821a48;stroke-opacity:1" />
            <path
               id="path1007"
               d="M63.792969 85.5C76.219376 85.5 86.292969 75.426407 86.292969 63.0L-55.1283872373 204.421356237C-55.1283872373 216.847763237 -65.2019802373 226.921356237 -77.6283872373 226.921356237Z"
               style="fill:#821a48;fill-opacity:1;stroke:#821a48;stroke-opacity:1" />
            <path
               id="path1009"
               d="M86.292969 63.0C86.292969 50.573593 76.219376 40.5 63.792969 40.5L-77.6283872373 181.921356237C-65.2019802373 181.921356237 -55.1283872373 191.994949237 -55.1283872373 204.421356237Z"
               style="fill:#821a48;fill-opacity:1;stroke:#821a48;stroke-opacity:1" />
            <path
               id="path1011"
               d="M192.20703 40.5C185.329325209 41.2106479897 180.312211485 43.6522887613 176.907457685 47.0570425618L35.4861014472 188.478398799C38.8908552477 185.073644999 43.9079689719 182.632004227 50.7856737627 181.921356237Z"
               style="fill:#821a48;fill-opacity:1;stroke:#821a48;stroke-opacity:1" />
            <path
               id="path1013"
               d="M176.907457685 47.0570425618C164.432991803 59.5315084434 173.602374521 84.9345222711 192.20703 85.5L50.7856737627 226.921356237C32.1810182841 226.355878508 23.0116355656 200.952864681 35.4861014472 188.478398799Z"
               style="fill:#821a48;fill-opacity:1;stroke:#821a48;stroke-opacity:1" />
            <path
               id="path1015"
               d="M192.20703 85.5C198.420234625 85.5 204.045234321 82.9816020542 208.116933012 78.9099033627L66.6955767749 220.3312596C62.6238780832 224.402958292 56.9988783874 226.921356237 50.7856737627 226.921356237Z"
               style="fill:#821a48;fill-opacity:1;stroke:#821a48;stroke-opacity:1" />
            <path
               id="path1017"
               d="M208.116933012 78.9099033627C212.188632196 74.8382041795 214.70703 69.2132038753 214.70703 63.0L73.2856737627 204.421356237C73.2856737627 210.634560113 70.7672759585 216.259560417 66.6955767749 220.3312596Z"
               style="fill:#821a48;fill-opacity:1;stroke:#821a48;stroke-opacity:1" />
            <path
               id="path1019"
               d="M214.70703 63.0C214.70703 50.573593 204.63344 40.5 192.20703 40.5L50.7856737627 181.921356237C63.2120837627 181.921356237 73.2856737627 191.994949237 73.2856737627 204.421356237Z"
               style="fill:#821a48;fill-opacity:1;stroke:#821a48;stroke-opacity:1" />
            <path
               id="path1021"
               d="M128.0 105.5C121.122294399 106.21064865 116.105180231 108.652289798 112.700426246 112.057043783L-28.7209299911 253.478400021C-25.3161760059 250.073646036 -20.2990618379 247.632004887 -13.4213562373 246.921356237Z"
               style="fill:#821a48;fill-opacity:1;stroke:#821a48;stroke-opacity:1" />
            <path
               id="path1023"
               d="M112.700426246 112.057043783C100.225960073 124.531509957 109.395344644 149.934520704 128.0 150.5L-13.4213562373 291.921356237C-32.0260115929 291.355876941 -41.1953961646 265.952866194 -28.7209299911 253.478400021Z"
               style="fill:#821a48;fill-opacity:1;stroke:#821a48;stroke-opacity:1" />
            <path
               id="path1025"
               d="M128.0 150.5C140.42641 150.5 150.5 140.42641 150.5 128.0L9.07864376269 269.421356237C9.07864376269 281.847766237 -0.994946237309 291.921356237 -13.4213562373 291.921356237Z"
               style="fill:#821a48;fill-opacity:1;stroke:#821a48;stroke-opacity:1" />
            <path
               id="path1027"
               d="M150.5 128.0C150.5 115.57359 140.42641 105.5 128.0 105.5L-13.4213562373 246.921356237C-0.994946237309 246.921356237 9.07864376269 256.994946237 9.07864376269 269.421356237Z"
               style="fill:#821a48;fill-opacity:1;stroke:#821a48;stroke-opacity:1" />
            <path
               id="path1029"
               d="M63.792969 170.5C56.915262983 171.210648693 51.898148394 173.652290094 48.4933940861 177.057044402L-92.9279621513 318.478400639C-89.5232078434 315.073646331 -84.5060932543 312.63200493 -77.6283872373 311.921356237Z"
               style="fill:#821a48;fill-opacity:1;stroke:#821a48;stroke-opacity:1" />
            <path
               id="path1031"
               d="M48.4933940861 177.057044402C36.0189276914 189.531510797 45.1883100239 214.934520713 63.792969 215.5L-77.6283872373 356.921356237C-96.2330462134 356.35587695 -105.402428546 330.952867034 -92.9279621513 318.478400639Z"
               style="fill:#821a48;fill-opacity:1;stroke:#821a48;stroke-opacity:1" />
            <path
               id="path1033"
               d="M63.792969 215.5C70.0061728753 215.5 75.6311731795 212.981602196 79.7028723627 208.909903012L-61.7184838746 350.33125925C-65.7901830579 354.402958433 -71.4151833621 356.921356237 -77.6283872373 356.921356237Z"
               style="fill:#821a48;fill-opacity:1;stroke:#821a48;stroke-opacity:1" />
            <path
               id="path1035"
               d="M79.7028723627 208.909903012C83.7745710542 204.838204321 86.292969 199.213204625 86.292969 193.0L-55.1283872373 334.421356237C-55.1283872373 340.634560862 -57.6467851831 346.259560558 -61.7184838746 350.33125925Z"
               style="fill:#821a48;fill-opacity:1;stroke:#821a48;stroke-opacity:1" />
            <path
               id="path1037"
               d="M86.292969 193.0C86.292969 180.57359 76.219376 170.5 63.792969 170.5L-77.6283872373 311.921356237C-65.2019802373 311.921356237 -55.1283872373 321.994946237 -55.1283872373 334.421356237Z"
               style="fill:#821a48;fill-opacity:1;stroke:#821a48;stroke-opacity:1" />
            <path
               id="path1039"
               d="M192.20703 170.5C185.329325283 171.210648625 180.312211593 173.652289627 176.907457795 177.057043426L35.4861015574 318.478399663C38.8908553559 315.073645865 43.9079690461 312.632004863 50.7856737627 311.921356237Z"
               style="fill:#821a48;fill-opacity:1;stroke:#821a48;stroke-opacity:1" />
            <path
               id="path1041"
               d="M176.907457795 177.057043426C164.432991749 189.531509472 173.602374467 214.934520698 192.20703 215.5L50.7856737627 356.921356237C32.1810182294 356.355876936 23.0116355117 330.952865709 35.4861015574 318.478399663Z"
               style="fill:#821a48;fill-opacity:1;stroke:#821a48;stroke-opacity:1" />
            <path
               id="path1043"
               d="M192.20703 215.5C204.63344 215.5 214.70703 205.42641 214.70703 193.0L73.2856737627 334.421356237C73.2856737627 346.847766237 63.2120837627 356.921356237 50.7856737627 356.921356237Z"
               style="fill:#821a48;fill-opacity:1;stroke:#821a48;stroke-opacity:1" />
            <path
               id="path1045"
               d="M214.70703 193.0C214.70703 180.57359 204.63344 170.5 192.20703 170.5L50.7856737627 311.921356237C63.2120837627 311.921356237 73.2856737627 321.994946237 73.2856737627 334.421356237Z"
               style="fill:#821a48;fill-opacity:1;stroke:#821a48;stroke-opacity:1" />
          </g>
          <path
             sodipodi:nodetypes="ccscccscccscccscccsc"
             inkscape:connector-curvature="0"
             id="circle931"
             transform=""
             d="m 63.792969,40.5 c -32.076503,3.314347 -23.682575,44.280182 0,45 12.426407,0 22.5,-10.073593 22.5,-22.5 0,-12.426407 -10.073593,-22.5 -22.5,-22.5 z m 128.414061,0 c -32.0765,3.314347 -23.68257,44.280182 0,45 12.42641,0 22.5,-10.073593 22.5,-22.5 0,-12.426407 -10.07359,-22.5 -22.5,-22.5 z M 128,105.5 c -32.076503,3.31435 -23.68257,44.28018 0,45 12.42641,0 22.5,-10.07359 22.5,-22.5 0,-12.42641 -10.07359,-22.5 -22.5,-22.5 z m -64.207031,65 c -32.076503,3.31435 -23.682575,44.28018 0,45 12.426407,0 22.5,-10.07359 22.5,-22.5 0,-12.42641 -10.073593,-22.5 -22.5,-22.5 z m 128.414061,0 c -32.0765,3.31435 -23.68257,44.28018 0,45 12.42641,0 22.5,-10.07359 22.5,-22.5 0,-12.42641 -10.07359,-22.5 -22.5,-22.5 z"
             style="fill:#821a48;fill-opacity:1;stroke:#821a48;stroke-width:1;stroke-miterlimit:4;stroke-dasharray:none;stroke-opacity:1" />
        </g>
      </g>
      <g
         id="g943"
         transform="translate(1.5188618,123.25468)"
         style="fill:#821a48;fill-opacity:1;stroke:#821a48;stroke-opacity:1" />
    </g>
    <g
       id="g929">
      <g
         id="g888"
         transform="translate(1.5188618,-6.7453244)">
        <circle
           r="22.5"
           cy="866.10748"
           cx="62.273586"
           id="path866"
           style="fill:#ffffff;fill-opacity:1;stroke:#ffffff;stroke-width:1;stroke-miterlimit:4;stroke-dasharray:none;stroke-opacity:1" />
        <circle
           style="fill:#ffffff;fill-opacity:1;stroke:#ffffff;stroke-width:1;stroke-miterlimit:4;stroke-dasharray:none;stroke-opacity:1"
           id="circle868"
           cx="190.68869"
           cy="866.10748"
           r="22.5" />
      </g>
      <circle
         style="fill:#ffffff;fill-opacity:1;stroke:#ffffff;stroke-width:1;stroke-miterlimit:4;stroke-dasharray:none;stroke-opacity:1"
         id="circle880"
         cx="128"
         cy="924.36218"
         r="22.5" />
      <g
         transform="translate(1.5188618,123.25468)"
         id="g904">
        <circle
           style="fill:#ffffff;fill-opacity:1;stroke:#ffffff;stroke-width:1;stroke-miterlimit:4;stroke-dasharray:none;stroke-opacity:1"
           id="circle900"
           cx="62.273586"
           cy="866.10748"
           r="22.5" />
        <circle
           r="22.5"
           cy="866.10748"
           cx="190.68869"
           id="circle902"
           style="fill:#ffffff;fill-opacity:1;stroke:#ffffff;stroke-width:1;stroke-miterlimit:4;stroke-dasharray:none;stroke-opacity:1" />
      </g>
    </g>
  </g>
</svg>
