<?xml version="1.0" encoding="UTF-8" standalone="no"?>
<!-- Created with Inkscape (http://www.inkscape.org/) -->

<svg
   xmlns:dc="http://purl.org/dc/elements/1.1/"
   xmlns:cc="http://creativecommons.org/ns#"
   xmlns:rdf="http://www.w3.org/1999/02/22-rdf-syntax-ns#"
   xmlns:svg="http://www.w3.org/2000/svg"
   xmlns="http://www.w3.org/2000/svg"
   xmlns:sodipodi="http://sodipodi.sourceforge.net/DTD/sodipodi-0.dtd"
   xmlns:inkscape="http://www.inkscape.org/namespaces/inkscape"
   sodipodi:docname="four-in-a-row.svg"
   inkscape:version="0.92.2 (5c3e80d, 2017-08-06)"
   version="1.1"
   id="svg2"
   viewBox="0 0 256 256"
   height="256"
   width="256">
  <sodipodi:namedview
     inkscape:window-maximized="1"
     inkscape:window-y="0"
     inkscape:window-x="0"
     inkscape:window-height="1048"
     inkscape:window-width="1920"
     units="px"
     showgrid="true"
     inkscape:current-layer="layer1"
     inkscape:document-units="px"
     inkscape:cy="128"
     inkscape:cx="128"
     inkscape:zoom="3.3125"
     inkscape:pageshadow="2"
     inkscape:pageopacity="0.0"
     borderopacity="1.0"
     bordercolor="#666666"
     pagecolor="#ffffff"
     id="base">
    <inkscape:grid
       type="xygrid"
       id="grid4168"
       spacingx="5"
       spacingy="5" />
  </sodipodi:namedview>
  <defs
     id="defs4">
    <clipPath
       clipPathUnits="userSpaceOnUse"
       id="clipPath5002">
      <g
         id="g5004">
        <path
           transform="translate(0,796.36216)"
           inkscape:connector-curvature="0"
           id="path5006"
           d="M 88.118406,249.43519 C 46.103287,235.29134 14.771284,201.68742 4.1335861,159.36053 1.3377997,148.23623 0.92261224,144.16281 0.92582381,127.88908 0.92787958,117.47222 1.134384,112.01362 1.6577819,108.54099 4.4653598,89.913336 12.17654,70.638106 23.042737,55.086148 c 3.958678,-5.665755 8.344812,-10.93092 9.101533,-10.925587 0.32809,0.0023 10.488643,18.309713 22.579009,40.683112 12.090365,22.373397 22.374546,41.334697 22.853732,42.136217 0.479186,0.80151 0.924733,2.44098 0.990103,3.64326 0.343424,6.31639 2.524175,14.20976 5.6424,20.42304 2.954444,5.88693 5.065381,8.73258 10.434696,14.06652 6.71418,6.66995 12.88853,10.28643 21.73204,12.72904 3.16587,0.87442 5.10478,1.05037 11.57517,1.05037 8.82596,0 12.60219,-0.76201 19.26429,-3.88733 2.04584,-0.95974 3.93661,-1.66536 4.20172,-1.56805 0.2651,0.0973 -11.0555,17.66459 -25.1569,39.0384 l -25.6389,38.86148 -3.094121,0.11221 c -2.554618,0.0927 -4.195204,-0.25845 -9.409103,-2.01364 z"
           style="fill:#0f9d58;fill-opacity:1;stroke:none;stroke-width:4.85768509;stroke-linejoin:round;stroke-miterlimit:4;stroke-dasharray:none;stroke-opacity:1" />
        <path
           inkscape:connector-curvature="0"
           id="path5008"
           d="m 112.35984,1051.5167 c -10.0014,-1.4495 -12.15632,-1.8201 -12.531784,-2.1556 -0.248854,-0.2223 1.738304,-3.7475 4.550294,-8.0722 7.16635,-11.0213 49.77231,-74.64801 50.25856,-75.05489 3.57509,-2.99158 8.63523,-8.0414 10.57512,-10.55356 3.36154,-4.35318 7.55784,-12.9141 9.06523,-18.494 6.19314,-22.92535 -2.59253,-47.15185 -21.69967,-59.83688 l -2.96081,-1.96565 17.02469,0.29584 c 9.36358,0.1627 31.17032,0.43384 48.45941,0.60252 l 31.43471,0.30668 1.54584,4.18869 c 2.24597,6.08579 4.67816,15.0947 5.93451,21.9816 1.52517,8.36049 1.92536,28.85896 0.73851,37.82758 -3.0805,23.27845 -12.81326,45.72018 -27.80202,64.10577 -20.47622,25.1166 -51.4599,42.1974 -84.14612,46.3885 -5.31244,0.6812 -26.64601,0.9864 -30.44647,0.4356 z"
           style="fill:#f4b400;fill-opacity:1;stroke:none;stroke-width:4.85768509;stroke-linejoin:round;stroke-miterlimit:4;stroke-dasharray:none;stroke-opacity:1" />
        <path
           transform="translate(0,796.36216)"
           inkscape:connector-curvature="0"
           id="path5010"
           d="M 67.989788,108.87302 C 41.284246,59.575543 33.290284,45.149038 32.233625,44.344765 31.651257,43.901497 32.811213,42.549931 38.695603,36.815353 53.43581,22.450419 68.809334,13.040746 87.839196,6.7360352 101.68742,2.1480329 112.58238,0.43719165 127.95142,0.43719165 c 21.3099,0 37.80488,3.80960275 56.83492,13.12633035 25.29351,12.383198 46.19421,33.578863 58.51993,59.345832 1.61138,3.368591 2.92978,6.372442 2.92978,6.675231 0,0.560033 -10.54865,0.49527 -71.16508,-0.436914 l -24.28843,-0.373518 -3.93063,-1.764495 c -6.75732,-3.033425 -10.64587,-3.839529 -18.6576,-3.867747 -5.0296,-0.01773 -7.97946,0.207636 -10.31642,0.788106 -14.50826,3.603659 -26.283291,12.94777 -33.291614,26.418653 -3.58502,6.89086 -5.24713,13.08166 -6.331628,23.58317 l -0.33738,3.26696 -9.92748,-18.32578 z"
           style="fill:#db4437;fill-opacity:1;stroke:none;stroke-width:10;stroke-linejoin:round;stroke-miterlimit:4;stroke-dasharray:none;stroke-opacity:1" />
      </g>
    </clipPath>
    <clipPath
       id="clipPath4271"
       clipPathUnits="userSpaceOnUse">
      <circle
         r="128"
         cy="128.00002"
         cx="128"
         id="circle4273"
         style="fill:#292929;fill-opacity:0.26020412;stroke:none;stroke-width:10;stroke-linejoin:round;stroke-miterlimit:4;stroke-dasharray:none;stroke-opacity:0.25882353" />
    </clipPath>
    <clipPath
       clipPathUnits="userSpaceOnUse"
       id="clipPath4363">
      <circle
         r="128"
         cy="924.36218"
         cx="128"
         id="circle4365"
         style="fill:#4285f4;fill-opacity:1;stroke:none;stroke-width:10;stroke-linejoin:round;stroke-miterlimit:4;stroke-dasharray:none;stroke-opacity:0.25882353" />
    </clipPath>
    <clipPath
       id="clipPath4452"
       clipPathUnits="userSpaceOnUse">
      <circle
         r="128"
         cy="924.36218"
         cx="128"
         id="circle4454"
         style="fill:#4285f4;fill-opacity:1;stroke:none;stroke-width:10;stroke-linejoin:round;stroke-miterlimit:4;stroke-dasharray:none;stroke-opacity:0.25882353" />
    </clipPath>
    <clipPath
       clipPathUnits="userSpaceOnUse"
       id="clipPath5177">
      <circle
         r="128"
         cy="924.36218"
         cx="128"
         id="circle5179"
         style="fill:#4285f4;fill-opacity:1;stroke:none;stroke-width:10;stroke-linejoin:round;stroke-miterlimit:4;stroke-dasharray:none;stroke-opacity:0.25882353" />
    </clipPath>
    <clipPath
       id="clipPath4342"
       clipPathUnits="userSpaceOnUse">
      <circle
         r="128"
         cy="933.48718"
         cx="128"
         id="circle4344"
         style="fill:#4285f4;fill-opacity:1;stroke:none;stroke-width:10;stroke-linejoin:round;stroke-miterlimit:4;stroke-dasharray:none;stroke-opacity:0.25882353" />
    </clipPath>
    <clipPath
       clipPathUnits="userSpaceOnUse"
       id="clipPath4681">
      <circle
         r="128"
         cy="930.43964"
         cx="127.00293"
         id="circle4683"
         style="fill:#9d5fad;fill-opacity:1;stroke:none;stroke-width:10;stroke-linejoin:round;stroke-miterlimit:4;stroke-dasharray:none;stroke-opacity:0.25882353" />
    </clipPath>
    <clipPath
       id="clipPath4235"
       clipPathUnits="userSpaceOnUse">
      <circle
         r="128"
         cy="924.36218"
         cx="128"
         id="circle4237"
         style="fill:#0f9d58;fill-opacity:1;stroke:none;stroke-width:10;stroke-linejoin:round;stroke-miterlimit:4;stroke-dasharray:none;stroke-opacity:0.25882353" />
    </clipPath>
    <clipPath
       clipPathUnits="userSpaceOnUse"
       id="clipPath4771">
      <circle
         r="128"
         cy="924.36218"
         cx="128"
         id="circle4773"
         style="fill:#0f9d58;fill-opacity:1;stroke:none;stroke-width:10;stroke-linejoin:round;stroke-miterlimit:4;stroke-dasharray:none;stroke-opacity:0.25882353" />
    </clipPath>
    <clipPath
       id="clipPath4842"
       clipPathUnits="userSpaceOnUse">
      <circle
         r="128"
         cy="924.36218"
         cx="128"
         id="circle4844"
         style="fill:#0f9d58;fill-opacity:1;stroke:none;stroke-width:10;stroke-linejoin:round;stroke-miterlimit:4;stroke-dasharray:none;stroke-opacity:0.25882353" />
    </clipPath>
    <clipPath
       clipPathUnits="userSpaceOnUse"
       id="clipPath4458">
      <circle
         r="128"
         cy="924.36218"
         cx="128"
         id="circle4460"
         style="fill:#ff3b38;fill-opacity:1;stroke:none;stroke-width:10;stroke-linejoin:round;stroke-miterlimit:4;stroke-dasharray:none;stroke-opacity:0.25882353" />
    </clipPath>
    <clipPath
       id="clipPath4783"
       clipPathUnits="userSpaceOnUse">
      <circle
         r="128"
         cy="924.36218"
         cx="128"
         id="circle4785"
         style="fill:#ff3b38;fill-opacity:1;stroke:none;stroke-width:10;stroke-linejoin:round;stroke-miterlimit:4;stroke-dasharray:none;stroke-opacity:0.25882353" />
    </clipPath>
    <clipPath
       clipPathUnits="userSpaceOnUse"
       id="clipPath4789">
      <circle
         r="128"
         cy="924.36218"
         cx="102.64714"
         id="circle4791"
         style="fill:#80b4ff;fill-opacity:1;stroke:none;stroke-width:10;stroke-linejoin:round;stroke-miterlimit:4;stroke-dasharray:none;stroke-opacity:0.25882353" />
    </clipPath>
    <clipPath
       id="clipPath4721"
       clipPathUnits="userSpaceOnUse">
      <circle
         r="128"
         cy="924.36218"
         cx="128"
         id="circle4723"
         style="fill:#557ae6;fill-opacity:1;stroke:none;stroke-width:10;stroke-linejoin:round;stroke-miterlimit:4;stroke-dasharray:none;stroke-opacity:0.25882353" />
    </clipPath>
    <clipPath
       clipPathUnits="userSpaceOnUse"
       id="clipPath4491">
      <circle
         r="128"
         cy="924.36218"
         cx="128"
         id="circle4493"
         style="fill:#990000;fill-opacity:1;stroke:none;stroke-width:10;stroke-linejoin:round;stroke-miterlimit:4;stroke-dasharray:none;stroke-opacity:0.25882353" />
    </clipPath>
    <clipPath
       id="clipPath1102"
       clipPathUnits="userSpaceOnUse">
      <circle
         r="128"
         cy="924.36218"
         cx="128"
         id="circle1104"
         style="fill:#b40000;fill-opacity:1;stroke:none;stroke-width:10;stroke-linejoin:round;stroke-miterlimit:4;stroke-dasharray:none;stroke-opacity:0.25882353" />
    </clipPath>
    <clipPath
       id="clipPath1102-3"
       clipPathUnits="userSpaceOnUse">
      <circle
         r="128"
         cy="924.36218"
         cx="128"
         id="circle1104-6"
         style="fill:#b40000;fill-opacity:1;stroke:none;stroke-width:10;stroke-linejoin:round;stroke-miterlimit:4;stroke-dasharray:none;stroke-opacity:0.25882353" />
    </clipPath>
    <clipPath
       clipPathUnits="userSpaceOnUse"
       id="clipPath4959">
      <circle
         r="128"
         cy="922.96295"
         cx="134.50032"
         id="circle4961"
         style="fill:#d0a45f;fill-opacity:1;stroke:none;stroke-width:10;stroke-linejoin:round;stroke-miterlimit:4;stroke-dasharray:none;stroke-opacity:0.25882353" />
    </clipPath>
  </defs>
  <metadata
     id="metadata7">
    <rdf:RDF>
      <cc:Work
         rdf:about="">
        <dc:format>image/svg+xml</dc:format>
        <dc:type
           rdf:resource="http://purl.org/dc/dcmitype/StillImage" />
        <dc:title />
      </cc:Work>
    </rdf:RDF>
  </metadata>
  <g
     transform="translate(0,-796.36216)"
     id="layer1"
     inkscape:groupmode="layer"
     inkscape:label="Layer 1">
    <circle
       style="fill:#d0a45f;fill-opacity:1;stroke:none;stroke-width:10;stroke-linejoin:round;stroke-miterlimit:4;stroke-dasharray:none;stroke-opacity:0.25882353"
       id="path4152"
       cx="128"
       cy="924.36218"
       r="128" />
    <g
       id="g4666"
       style="opacity:0.98999999;fill:#b58435;fill-opacity:1"
       transform="translate(-6.500325,1.39923)"
       clip-path="url(#clipPath4959)">
      <g
         id="g4838"
         transform="translate(6.500325,794.96293)"
         style="fill:#b58435;fill-opacity:1">
        <g
           id="g4835"
           style="fill:#b58435;fill-opacity:1">
          <path
             id="path4723"
             d="M121.0 52.867188C117.548220124 52.867188 114.423220225 54.2662981495 112.161165244 56.5283531312L-29.2601909935 197.949709369C-26.9981360128 195.687654387 -23.8731361133 194.288544237 -20.4213562373 194.288544237Z"
             style="fill:#b58435;fill-opacity:1" />
          <path
             id="path4725"
             d="M112.161165244 56.5283531312C109.899110101 58.7904082755 108.5 61.915408376 108.5 65.367188L-32.9213562373 206.788544237C-32.9213562373 203.336764613 -31.5222461368 200.211764513 -29.2601909935 197.949709369Z"
             style="fill:#b58435;fill-opacity:1" />
          <path
             id="path4727"
             d="M108.5 65.367188C108.5 72.270747 114.09644 77.867188 121.0 77.867188L-20.4213562373 219.288544237C-27.3249162373 219.288544237 -32.9213562373 213.692103237 -32.9213562373 206.788544237Z"
             style="fill:#b58435;fill-opacity:1" />
          <path
             id="path4729"
             d="M121.0 77.867188C124.451779876 77.867188 127.576779775 76.4680778505 129.838834756 74.2060228688L-11.5825214811 215.627379106C-13.8445764618 217.889434088 -16.9695763613 219.288544237 -20.4213562373 219.288544237Z"
             style="fill:#b58435;fill-opacity:1" />
          <path
             id="path4731"
             d="M129.838834756 74.2060228688C132.100889899 71.9439677245 133.5 68.818967624 133.5 65.367188L-7.92135623731 206.788544237C-7.92135623731 210.240323861 -9.32046633783 213.365323962 -11.5825214811 215.627379106Z"
             style="fill:#b58435;fill-opacity:1" />
          <path
             id="path4733"
             d="M133.5 65.367188C133.5 58.463629 127.90356 52.867188 121.0 52.867188L-20.4213562373 194.288544237C-13.5177962373 194.288544237 -7.92135623731 199.884985237 -7.92135623731 206.788544237Z"
             style="fill:#b58435;fill-opacity:1" />
          <path
             id="path4735"
             d="M153.66602 52.867188C150.214240124 52.867188 147.089240225 54.2662981495 144.827185244 56.5283531312L3.40582900646 197.949709369C5.6678839872 195.687654387 8.79288388668 194.288544237 12.2446637627 194.288544237Z"
             style="fill:#b58435;fill-opacity:1" />
          <path
             id="path4737"
             d="M144.827185244 56.5283531312C142.565130101 58.7904082755 141.16602 61.915408376 141.16602 65.367188L-0.255336237309 206.788544237C-0.255336237309 203.336764613 1.14377386321 200.211764513 3.40582900646 197.949709369Z"
             style="fill:#b58435;fill-opacity:1" />
          <path
             id="path4739"
             d="M141.16602 65.367188C141.16602 72.270747 146.76246 77.867188 153.66602 77.867188L12.2446637627 219.288544237C5.34110376269 219.288544237 -0.255336237309 213.692103237 -0.255336237309 206.788544237Z"
             style="fill:#b58435;fill-opacity:1" />
          <path
             id="path4741"
             d="M153.66602 77.867188C157.117799876 77.867188 160.242799775 76.4680778505 162.504854756 74.2060228688L21.0834985189 215.627379106C18.8214435382 217.889434088 15.6964436387 219.288544237 12.2446637627 219.288544237Z"
             style="fill:#b58435;fill-opacity:1" />
          <path
             id="path4743"
             d="M162.504854756 74.2060228688C164.766909899 71.9439677245 166.16602 68.818967624 166.16602 65.367188L24.7446637627 206.788544237C24.7446637627 210.240323861 23.3455536622 213.365323962 21.0834985189 215.627379106Z"
             style="fill:#b58435;fill-opacity:1" />
          <path
             id="path4745"
             d="M166.16602 65.367188C166.16602 58.463629 160.56958 52.867188 153.66602 52.867188L12.2446637627 194.288544237C19.1482237627 194.288544237 24.7446637627 199.884985237 24.7446637627 206.788544237Z"
             style="fill:#b58435;fill-opacity:1" />
          <path
             id="path4747"
             d="M101.0 84.291016C94.096441 84.291016 88.5 89.887457 88.5 96.791016L-52.9213562373 238.212372237C-52.9213562373 231.308813237 -47.3249152373 225.712372237 -40.4213562373 225.712372237Z"
             style="fill:#b58435;fill-opacity:1" />
          <path
             id="path4749"
             d="M88.5 96.791016C88.499998 103.69458 94.096439 109.29102 101.0 109.29102L-40.4213562373 250.712376237C-47.3249172373 250.712376237 -52.9213582373 245.115936237 -52.9213562373 238.212372237Z"
             style="fill:#b58435;fill-opacity:1" />
          <path
             id="path4751"
             d="M101.0 109.29102C104.4517795 109.29102 107.576779095 107.891910405 109.838834018 105.629855482L-31.5825222198 247.05121172C-33.8445771421 249.313266642 -36.969576737 250.712376237 -40.4213562373 250.712376237Z"
             style="fill:#b58435;fill-opacity:1" />
          <path
             id="path4753"
             d="M109.838834018 105.629855482C112.100889595 103.367799905 113.5 100.2427985 113.5 96.791016L-27.9213562373 238.212372237C-27.9213562373 241.664154737 -29.3204666424 244.789156142 -31.5825222198 247.05121172Z"
             style="fill:#b58435;fill-opacity:1" />
          <path
             id="path4755"
             d="M113.5 96.791016C113.5 89.887457 107.90356 84.291016 101.0 84.291016L-40.4213562373 225.712372237C-33.5177962373 225.712372237 -27.9213562373 231.308813237 -27.9213562373 238.212372237Z"
             style="fill:#b58435;fill-opacity:1" />
          <path
             id="path4757"
             d="M153.66602 84.291016C150.214240124 84.291016 147.089240225 85.6901261495 144.827185244 87.9521811312L3.40582900646 229.373537369C5.6678839872 227.111482387 8.79288388668 225.712372237 12.2446637627 225.712372237Z"
             style="fill:#b58435;fill-opacity:1" />
          <path
             id="path4759"
             d="M144.827185244 87.9521811312C142.565130101 90.2142362755 141.16602 93.339236376 141.16602 96.791016L-0.255336237309 238.212372237C-0.255336237309 234.760592613 1.14377386321 231.635592513 3.40582900646 229.373537369Z"
             style="fill:#b58435;fill-opacity:1" />
          <path
             id="path4761"
             d="M141.16602 96.791016C141.16602 103.69458 146.76246 109.29102 153.66602 109.29102L12.2446637627 250.712376237C5.34110376269 250.712376237 -0.255336237309 245.115936237 -0.255336237309 238.212372237Z"
             style="fill:#b58435;fill-opacity:1" />
          <path
             id="path4763"
             d="M153.66602 109.29102C157.1177995 109.29102 160.242799095 107.891910405 162.504854018 105.629855482L21.0834977802 247.05121172C18.8214428579 249.313266642 15.696443263 250.712376237 12.2446637627 250.712376237Z"
             style="fill:#b58435;fill-opacity:1" />
          <path
             id="path4765"
             d="M162.504854018 105.629855482C164.766909595 103.367799905 166.16602 100.2427985 166.16602 96.791016L24.7446637627 238.212372237C24.7446637627 241.664154737 23.3455533576 244.789156142 21.0834977802 247.05121172Z"
             style="fill:#b58435;fill-opacity:1" />
          <path
             id="path4767"
             d="M166.16602 96.791016C166.16602 89.887457 160.56958 84.291016 153.66602 84.291016L12.2446637627 225.712372237C19.1482237627 225.712372237 24.7446637627 231.308813237 24.7446637627 238.212372237Z"
             style="fill:#b58435;fill-opacity:1" />
          <path
             id="path4769"
             d="M81.0 115.71484C77.548220376 115.71484 74.4232202755 117.113950101 72.1611651312 119.376005244L-69.2601911061 260.797361481C-66.9981359618 258.535306338 -63.8731358613 257.136196237 -60.4213562373 257.136196237Z"
             style="fill:#b58435;fill-opacity:1" />
          <path
             id="path4771"
             d="M72.1611651312 119.376005244C69.8991101495 121.638060225 68.5 124.763060124 68.5 128.21484L-72.9213562373 269.636196237C-72.9213562373 266.184416361 -71.5222460878 263.059416462 -69.2601911061 260.797361481Z"
             style="fill:#b58435;fill-opacity:1" />
          <path
             id="path4773"
             d="M68.5 128.21484C68.5 135.1184 74.096441 140.71484 81.0 140.71484L-60.4213562373 282.136196237C-67.3249152373 282.136196237 -72.9213562373 276.539756237 -72.9213562373 269.636196237Z"
             style="fill:#b58435;fill-opacity:1" />
          <path
             id="path4775"
             d="M81.0 140.71484C84.451779624 140.71484 87.5767797245 139.315729899 89.8388348688 137.053674756L-51.5825213685 278.475030994C-53.8445765128 280.737086137 -56.9695766133 282.136196237 -60.4213562373 282.136196237Z"
             style="fill:#b58435;fill-opacity:1" />
          <path
             id="path4777"
             d="M89.8388348688 137.053674756C92.1008898505 134.791619775 93.5 131.666619876 93.5 128.21484L-47.9213562373 269.636196237C-47.9213562373 273.087976113 -49.3204663868 276.212976013 -51.5825213685 278.475030994Z"
             style="fill:#b58435;fill-opacity:1" />
          <path
             id="path4779"
             d="M93.5 128.21484C93.5 121.31128 87.903559 115.71484 81.0 115.71484L-60.4213562373 257.136196237C-53.5177972373 257.136196237 -47.9213562373 262.732636237 -47.9213562373 269.636196237Z"
             style="fill:#b58435;fill-opacity:1" />
          <path
             id="path4781"
             d="M153.66602 115.71484C149.900441818 115.71484 146.523758843 117.379896529 144.232059068 120.013921593L2.81070283106 261.43527783C5.10240260567 258.801252766 8.47908558087 257.136196237 12.2446637627 257.136196237Z"
             style="fill:#b58435;fill-opacity:1" />
          <path
             id="path4783"
             d="M144.232059068 120.013921593C142.322309256 122.208942479 141.16602 125.076858182 141.16602 128.21484L-0.255336237309 269.636196237C-0.255336237309 266.498214419 0.900953018889 263.630298717 2.81070283106 261.43527783Z"
             style="fill:#b58435;fill-opacity:1" />
          <path
             id="path4785"
             d="M141.16602 128.21484C141.16602 135.1184 146.76246 140.71484 153.66602 140.71484L12.2446637627 282.136196237C5.34110376269 282.136196237 -0.255336237309 276.539756237 -0.255336237309 269.636196237Z"
             style="fill:#b58435;fill-opacity:1" />
          <path
             id="path4787"
             d="M153.66602 140.71484C160.56958 140.71484 166.16602 135.1184 166.16602 128.21484L24.7446637627 269.636196237C24.7446637627 276.539756237 19.1482237627 282.136196237 12.2446637627 282.136196237Z"
             style="fill:#b58435;fill-opacity:1" />
          <path
             id="path4789"
             d="M166.16602 128.21484C166.16602 121.31128 160.56958 115.71484 153.66602 115.71484L12.2446637627 257.136196237C19.1482237627 257.136196237 24.7446637627 262.732636237 24.7446637627 269.636196237Z"
             style="fill:#b58435;fill-opacity:1" />
          <path
             id="path4791"
             d="M67.0 147.13672C63.548220376 147.13672 60.4232202755 148.535830101 58.1611651312 150.797885244L-83.2601911061 292.219241481C-80.9981359618 289.957186338 -77.8731358613 288.558076237 -74.4213562373 288.558076237Z"
             style="fill:#b58435;fill-opacity:1" />
          <path
             id="path4793"
             d="M58.1611651312 150.797885244C55.8991101495 153.059940225 54.5 156.184940124 54.5 159.63672L-86.9213562373 301.058076237C-86.9213562373 297.606296361 -85.5222460878 294.481296462 -83.2601911061 292.219241481Z"
             style="fill:#b58435;fill-opacity:1" />
          <path
             id="path4795"
             d="M54.5 159.63672C54.5 166.54028 60.096441 172.13672 67.0 172.13672L-74.4213562373 313.558076237C-81.3249152373 313.558076237 -86.9213562373 307.961636237 -86.9213562373 301.058076237Z"
             style="fill:#b58435;fill-opacity:1" />
          <path
             id="path4797"
             d="M67.0 172.13672C70.451779624 172.13672 73.5767797245 170.737609899 75.8388348688 168.475554756L-65.5825213685 309.896910994C-67.8445765128 312.158966137 -70.9695766133 313.558076237 -74.4213562373 313.558076237Z"
             style="fill:#b58435;fill-opacity:1" />
          <path
             id="path4799"
             d="M75.8388348688 168.475554756C78.1008898505 166.213499775 79.5 163.088499876 79.5 159.63672L-61.9213562373 301.058076237C-61.9213562373 304.509856113 -63.3204663868 307.634856013 -65.5825213685 309.896910994Z"
             style="fill:#b58435;fill-opacity:1" />
          <path
             id="path4801"
             d="M79.5 159.63672C79.5 152.73316 73.903559 147.13672 67.0 147.13672L-74.4213562373 288.558076237C-67.5177972373 288.558076237 -61.9213562373 294.154516237 -61.9213562373 301.058076237Z"
             style="fill:#b58435;fill-opacity:1" />
          <path
             id="path4803"
             d="M110.33398 147.13672C106.401800595 147.75233079 103.536131492 149.228105491 101.592003393 151.17223359L-39.8293528438 292.593589827C-37.8852247455 290.649461729 -35.0195556422 289.173687027 -31.0873762373 288.558076237Z"
             style="fill:#b58435;fill-opacity:1" />
          <path
             id="path4805"
             d="M101.592003393 151.17223359C94.4398178807 158.324419102 99.7598147055 171.815323061 110.33398 172.13672L-31.0873762373 313.558076237C-41.6615415318 313.236679298 -46.9815383566 299.74577534 -39.8293528438 292.593589827Z"
             style="fill:#b58435;fill-opacity:1" />
          <path
             id="path4807"
             d="M110.33398 172.13672C117.23754 172.13672 122.83398 166.54028 122.83398 159.63672L-18.5873762373 301.058076237C-18.5873762373 307.961636237 -24.1838162373 313.558076237 -31.0873762373 313.558076237Z"
             style="fill:#b58435;fill-opacity:1" />
          <path
             id="path4809"
             d="M122.83398 159.63672C122.83398 152.73316 117.23754 147.13672 110.33398 147.13672L-31.0873762373 288.558076237C-24.1838162373 288.558076237 -18.5873762373 294.154516237 -18.5873762373 301.058076237Z"
             style="fill:#b58435;fill-opacity:1" />
          <path
             id="path4811"
             d="M153.66602 147.13672C146.76246 147.13672 141.16602 152.73316 141.16602 159.63672L-0.255336237309 301.058076237C-0.255336237309 294.154516237 5.34110376269 288.558076237 12.2446637627 288.558076237Z"
             style="fill:#b58435;fill-opacity:1" />
          <path
             id="path4813"
             d="M141.16602 159.63672C141.16602 166.54028 146.76246 172.13672 153.66602 172.13672L12.2446637627 313.558076237C5.34110376269 313.558076237 -0.255336237309 307.961636237 -0.255336237309 301.058076237Z"
             style="fill:#b58435;fill-opacity:1" />
          <path
             id="path4815"
             d="M153.66602 172.13672C160.56958 172.13672 166.16602 166.54028 166.16602 159.63672L24.7446637627 301.058076237C24.7446637627 307.961636237 19.1482237627 313.558076237 12.2446637627 313.558076237Z"
             style="fill:#b58435;fill-opacity:1" />
          <path
             id="path4817"
             d="M166.16602 159.63672C166.16602 152.73316 160.56958 147.13672 153.66602 147.13672L12.2446637627 288.558076237C19.1482237627 288.558076237 24.7446637627 294.154516237 24.7446637627 301.058076237Z"
             style="fill:#b58435;fill-opacity:1" />
          <path
             id="path4819"
             d="M189.0 147.13672C182.09644 147.13672 176.5 152.73316 176.5 159.63672L35.0786437627 301.058076237C35.0786437627 294.154516237 40.6750837627 288.558076237 47.5786437627 288.558076237Z"
             style="fill:#b58435;fill-opacity:1" />
          <path
             id="path4821"
             d="M176.5 159.63672C176.5 166.54028 182.09644 172.13672 189.0 172.13672L47.5786437627 313.558076237C40.6750837627 313.558076237 35.0786437627 307.961636237 35.0786437627 301.058076237Z"
             style="fill:#b58435;fill-opacity:1" />
          <path
             id="path4823"
             d="M189.0 172.13672C195.90356 172.13672 201.5 166.54028 201.5 159.63672L60.0786437627 301.058076237C60.0786437627 307.961636237 54.4822037627 313.558076237 47.5786437627 313.558076237Z"
             style="fill:#b58435;fill-opacity:1" />
          <path
             id="path4825"
             d="M201.5 159.63672C201.5 152.73316 195.90356 147.13672 189.0 147.13672L47.5786437627 288.558076237C54.4822037627 288.558076237 60.0786437627 294.154516237 60.0786437627 301.058076237Z"
             style="fill:#b58435;fill-opacity:1" />
          <path
             id="path4827"
             d="M153.66602 178.13281C146.76246 178.13281 141.16602 183.72925 141.16602 190.63281L-0.255336237309 332.054166237C-0.255336237309 325.150606237 5.34110376269 319.554166237 12.2446637627 319.554166237Z"
             style="fill:#b58435;fill-opacity:1" />
          <path
             id="path4829"
             d="M141.16602 190.63281C141.16602 197.53637 146.76246 203.13281 153.66602 203.13281L12.2446637627 344.554166237C5.34110376269 344.554166237 -0.255336237309 338.957726237 -0.255336237309 332.054166237Z"
             style="fill:#b58435;fill-opacity:1" />
          <path
             id="path4831"
             d="M153.66602 203.13281C160.56958 203.13281 166.16602 197.53637 166.16602 190.63281L24.7446637627 332.054166237C24.7446637627 338.957726237 19.1482237627 344.554166237 12.2446637627 344.554166237Z"
             style="fill:#b58435;fill-opacity:1" />
          <path
             id="path4833"
             d="M166.16602 190.63281C166.16602 183.72925 160.56958 178.13281 153.66602 178.13281L12.2446637627 319.554166237C19.1482237627 319.554166237 24.7446637627 325.150606237 24.7446637627 332.054166237Z"
             style="fill:#b58435;fill-opacity:1" />
        </g>
        <path
           sodipodi:nodetypes="sssssssssssssssssssssssssssssssssssccscsssssssssssssss"
           inkscape:connector-curvature="0"
           id="path4644"
           transform=""
           d="m 121,52.867188 c -6.90356,0 -12.5,5.596441 -12.5,12.5 0,6.903559 5.59644,12.5 12.5,12.5 6.90356,0 12.5,-5.596441 12.5,-12.5 0,-6.903559 -5.59644,-12.5 -12.5,-12.5 z m 32.66602,0 c -6.90356,0 -12.5,5.596441 -12.5,12.5 0,6.903559 5.59644,12.5 12.5,12.5 6.90356,0 12.5,-5.596441 12.5,-12.5 0,-6.903559 -5.59644,-12.5 -12.5,-12.5 z M 101,84.291016 c -6.903559,0 -12.5,5.596441 -12.5,12.5 -2e-6,6.903564 5.596439,12.500004 12.5,12.500004 6.90356,0 12.5,-5.59644 12.5,-12.500004 0,-6.903559 -5.59644,-12.5 -12.5,-12.5 z m 52.66602,0 c -6.90356,0 -12.5,5.596441 -12.5,12.5 0,6.903564 5.59644,12.500004 12.5,12.500004 6.90356,0 12.5,-5.59644 12.5,-12.500004 0,-6.903559 -5.59644,-12.5 -12.5,-12.5 z M 81,115.71484 c -6.903559,0 -12.5,5.59644 -12.5,12.5 0,6.90356 5.596441,12.5 12.5,12.5 6.903559,0 12.5,-5.59644 12.5,-12.5 0,-6.90356 -5.596441,-12.5 -12.5,-12.5 z m 72.66602,0 c -6.90356,0 -12.5,5.59644 -12.5,12.5 0,6.90356 5.59644,12.5 12.5,12.5 6.90356,0 12.5,-5.59644 12.5,-12.5 0,-6.90356 -5.59644,-12.5 -12.5,-12.5 z M 67,147.13672 c -6.903559,0 -12.5,5.59644 -12.5,12.5 0,6.90356 5.596441,12.5 12.5,12.5 6.903559,0 12.5,-5.59644 12.5,-12.5 0,-6.90356 -5.596441,-12.5 -12.5,-12.5 z m 43.33398,0 c -18.398138,2.88036 -13.448466,24.59124 0,25 6.90356,0 12.5,-5.59644 12.5,-12.5 0,-6.90356 -5.59644,-12.5 -12.5,-12.5 z m 43.33204,0 c -6.90356,0 -12.5,5.59644 -12.5,12.5 0,6.90356 5.59644,12.5 12.5,12.5 6.90356,0 12.5,-5.59644 12.5,-12.5 0,-6.90356 -5.59644,-12.5 -12.5,-12.5 z m 35.33398,0 c -6.90356,0 -12.5,5.59644 -12.5,12.5 0,6.90356 5.59644,12.5 12.5,12.5 6.90356,0 12.5,-5.59644 12.5,-12.5 0,-6.90356 -5.59644,-12.5 -12.5,-12.5 z m -35.33398,30.99609 c -6.90356,0 -12.5,5.59644 -12.5,12.5 0,6.90356 5.59644,12.5 12.5,12.5 6.90356,0 12.5,-5.59644 12.5,-12.5 0,-6.90356 -5.59644,-12.5 -12.5,-12.5 z"
           style="fill:#b58435;fill-opacity:1" />
      </g>
    </g>
    <g
       transform="translate(-6.500325,1.39923)"
       style="opacity:0.98999999;fill:#ffffff;fill-opacity:1"
       id="g4642">
      <path
         style="fill:#ffffff;fill-opacity:1"
         d="m 86.0004,954.60041 a 12.5,12.5 0 0 1 -12.5,12.5 12.5,12.5 0 0 1 -12.5,-12.5 12.5,12.5 0 0 1 12.5,-12.5 12.5,12.5 0 0 1 12.5,12.5 z"
         id="path893"
         inkscape:connector-curvature="0" />
      <path
         id="path896"
         d="m 100.00015,923.17701 a 12.5,12.5 0 0 1 -12.5,12.5 12.5,12.5 0 0 1 -12.5,-12.5 12.5,12.5 0 0 1 12.5,-12.5 12.5,12.5 0 0 1 12.5,12.5 z"
         style="fill:#ffffff;fill-opacity:1"
         inkscape:connector-curvature="0" />
      <path
         style="fill:#ffffff;fill-opacity:1"
         d="m 120.00015,891.75362 a 12.5,12.5 0 0 1 -12.5,12.5 12.5,12.5 0 0 1 -12.5,-12.5 12.5,12.5 0 0 1 12.5,-12.5 12.5,12.5 0 0 1 12.5,12.5 z"
         id="path898"
         inkscape:connector-curvature="0" />
      <path
         id="path900"
         d="m 140.00015,860.33021 a 12.5,12.5 0 0 1 -12.5,12.5 12.5,12.5 0 0 1 -12.5,-12.5 12.5,12.5 0 0 1 12.5,-12.5 12.5,12.5 0 0 1 12.5,12.5 z"
         style="fill:#ffffff;fill-opacity:1"
         inkscape:connector-curvature="0" />
      <path
         id="path904"
         d="m 172.66695,860.33022 a 12.5,12.5 0 0 1 -12.5,12.5 12.5,12.5 0 0 1 -12.5,-12.5 12.5,12.5 0 0 1 12.5,-12.5 12.5,12.5 0 0 1 12.5,12.5 z"
         style="opacity:0.98000004;fill:#ffffff;fill-opacity:1"
         inkscape:connector-curvature="0" />
      <path
         style="opacity:0.98000004;fill:#ffffff;fill-opacity:1"
         d="m 172.66695,891.75361 a 12.5,12.5 0 0 1 -12.5,12.5 12.5,12.5 0 0 1 -12.5,-12.5 12.5,12.5 0 0 1 12.5,-12.5 12.5,12.5 0 0 1 12.5,12.5 z"
         id="path906"
         inkscape:connector-curvature="0" />
      <path
         id="path908"
         d="m 172.66695,923.17701 a 12.5,12.5 0 0 1 -12.5,12.5 12.5,12.5 0 0 1 -12.5,-12.5 12.5,12.5 0 0 1 12.5,-12.5 12.5,12.5 0 0 1 12.5,12.5 z"
         style="opacity:0.98000004;fill:#ffffff;fill-opacity:1"
         inkscape:connector-curvature="0" />
      <path
         style="opacity:0.98000004;fill:#ffffff;fill-opacity:1"
         d="m 172.66695,954.60041 a 12.5,12.5 0 0 1 -12.5,12.5 12.5,12.5 0 0 1 -12.5,-12.5 12.5,12.5 0 0 1 12.5,-12.5 12.5,12.5 0 0 1 12.5,12.5 z"
         id="path910"
         inkscape:connector-curvature="0" />
      <path
         id="path912"
         d="m 172.66695,985.59565 a 12.5,12.5 0 0 1 -12.5,12.5 12.5,12.5 0 0 1 -12.5,-12.5 12.5,12.5 0 0 1 12.5,-12.5 12.5,12.5 0 0 1 12.5,12.5 z"
         style="opacity:0.98000004;fill:#ffffff;fill-opacity:1"
         inkscape:connector-curvature="0" />
      <path
         inkscape:connector-curvature="0"
         id="path4625"
         d="m 208.00025,954.60041 a 12.5,12.5 0 0 1 -12.5,12.5 12.5,12.5 0 0 1 -12.5,-12.5 12.5,12.5 0 0 1 12.5,-12.5 12.5,12.5 0 0 1 12.5,12.5 z"
         style="fill:#ffffff;fill-opacity:1" />
      <path
         style="fill:#ffffff;fill-opacity:1"
         d="m 129.33365,954.60041 a 12.5,12.5 0 0 1 -12.5,12.5 12.5,12.5 0 0 1 -12.5,-12.5 12.5,12.5 0 0 1 12.5,-12.5 12.5,12.5 0 0 1 12.5,12.5 z"
         id="path4627"
         inkscape:connector-curvature="0" />
    </g>
  </g>
</svg>
