<?xml version="1.0" encoding="UTF-8" standalone="no"?>
<!-- Created with Inkscape (http://www.inkscape.org/) -->

<svg
   xmlns:dc="http://purl.org/dc/elements/1.1/"
   xmlns:cc="http://creativecommons.org/ns#"
   xmlns:rdf="http://www.w3.org/1999/02/22-rdf-syntax-ns#"
   xmlns:svg="http://www.w3.org/2000/svg"
   xmlns="http://www.w3.org/2000/svg"
   xmlns:xlink="http://www.w3.org/1999/xlink"
   xmlns:sodipodi="http://sodipodi.sourceforge.net/DTD/sodipodi-0.dtd"
   xmlns:inkscape="http://www.inkscape.org/namespaces/inkscape"
   sodipodi:docname="gchem3d.svg"
   inkscape:version="0.92.2 (5c3e80d, 2017-08-06)"
   version="1.1"
   id="svg2"
   viewBox="0 0 256 256"
   height="256"
   width="256">
  <sodipodi:namedview
     inkscape:window-maximized="1"
     inkscape:window-y="0"
     inkscape:window-x="0"
     inkscape:window-height="1048"
     inkscape:window-width="1920"
     units="px"
     showgrid="true"
     inkscape:current-layer="layer1"
     inkscape:document-units="px"
     inkscape:cy="128"
     inkscape:cx="63.250585"
     inkscape:zoom="3.3359375"
     inkscape:pageshadow="2"
     inkscape:pageopacity="0.0"
     borderopacity="1.0"
     bordercolor="#666666"
     pagecolor="#ffffff"
     id="base">
    <inkscape:grid
       type="xygrid"
       id="grid4168"
       spacingx="5"
       spacingy="5" />
  </sodipodi:namedview>
  <defs
     id="defs4">
    <clipPath
       clipPathUnits="userSpaceOnUse"
       id="clipPath5002">
      <g
         id="g5004">
        <path
           transform="translate(0,796.36216)"
           inkscape:connector-curvature="0"
           id="path5006"
           d="M 88.118406,249.43519 C 46.103287,235.29134 14.771284,201.68742 4.1335861,159.36053 1.3377997,148.23623 0.92261224,144.16281 0.92582381,127.88908 0.92787958,117.47222 1.134384,112.01362 1.6577819,108.54099 4.4653598,89.913336 12.17654,70.638106 23.042737,55.086148 c 3.958678,-5.665755 8.344812,-10.93092 9.101533,-10.925587 0.32809,0.0023 10.488643,18.309713 22.579009,40.683112 12.090365,22.373397 22.374546,41.334697 22.853732,42.136217 0.479186,0.80151 0.924733,2.44098 0.990103,3.64326 0.343424,6.31639 2.524175,14.20976 5.6424,20.42304 2.954444,5.88693 5.065381,8.73258 10.434696,14.06652 6.71418,6.66995 12.88853,10.28643 21.73204,12.72904 3.16587,0.87442 5.10478,1.05037 11.57517,1.05037 8.82596,0 12.60219,-0.76201 19.26429,-3.88733 2.04584,-0.95974 3.93661,-1.66536 4.20172,-1.56805 0.2651,0.0973 -11.0555,17.66459 -25.1569,39.0384 l -25.6389,38.86148 -3.094121,0.11221 c -2.554618,0.0927 -4.195204,-0.25845 -9.409103,-2.01364 z"
           style="fill:#0f9d58;fill-opacity:1;stroke:none;stroke-width:4.85768509;stroke-linejoin:round;stroke-miterlimit:4;stroke-dasharray:none;stroke-opacity:1" />
        <path
           inkscape:connector-curvature="0"
           id="path5008"
           d="m 112.35984,1051.5167 c -10.0014,-1.4495 -12.15632,-1.8201 -12.531784,-2.1556 -0.248854,-0.2223 1.738304,-3.7475 4.550294,-8.0722 7.16635,-11.0213 49.77231,-74.64801 50.25856,-75.05489 3.57509,-2.99158 8.63523,-8.0414 10.57512,-10.55356 3.36154,-4.35318 7.55784,-12.9141 9.06523,-18.494 6.19314,-22.92535 -2.59253,-47.15185 -21.69967,-59.83688 l -2.96081,-1.96565 17.02469,0.29584 c 9.36358,0.1627 31.17032,0.43384 48.45941,0.60252 l 31.43471,0.30668 1.54584,4.18869 c 2.24597,6.08579 4.67816,15.0947 5.93451,21.9816 1.52517,8.36049 1.92536,28.85896 0.73851,37.82758 -3.0805,23.27845 -12.81326,45.72018 -27.80202,64.10577 -20.47622,25.1166 -51.4599,42.1974 -84.14612,46.3885 -5.31244,0.6812 -26.64601,0.9864 -30.44647,0.4356 z"
           style="fill:#f4b400;fill-opacity:1;stroke:none;stroke-width:4.85768509;stroke-linejoin:round;stroke-miterlimit:4;stroke-dasharray:none;stroke-opacity:1" />
        <path
           transform="translate(0,796.36216)"
           inkscape:connector-curvature="0"
           id="path5010"
           d="M 67.989788,108.87302 C 41.284246,59.575543 33.290284,45.149038 32.233625,44.344765 31.651257,43.901497 32.811213,42.549931 38.695603,36.815353 53.43581,22.450419 68.809334,13.040746 87.839196,6.7360352 101.68742,2.1480329 112.58238,0.43719165 127.95142,0.43719165 c 21.3099,0 37.80488,3.80960275 56.83492,13.12633035 25.29351,12.383198 46.19421,33.578863 58.51993,59.345832 1.61138,3.368591 2.92978,6.372442 2.92978,6.675231 0,0.560033 -10.54865,0.49527 -71.16508,-0.436914 l -24.28843,-0.373518 -3.93063,-1.764495 c -6.75732,-3.033425 -10.64587,-3.839529 -18.6576,-3.867747 -5.0296,-0.01773 -7.97946,0.207636 -10.31642,0.788106 -14.50826,3.603659 -26.283291,12.94777 -33.291614,26.418653 -3.58502,6.89086 -5.24713,13.08166 -6.331628,23.58317 l -0.33738,3.26696 -9.92748,-18.32578 z"
           style="fill:#db4437;fill-opacity:1;stroke:none;stroke-width:10;stroke-linejoin:round;stroke-miterlimit:4;stroke-dasharray:none;stroke-opacity:1" />
      </g>
    </clipPath>
    <clipPath
       id="clipPath4271"
       clipPathUnits="userSpaceOnUse">
      <circle
         r="128"
         cy="128.00002"
         cx="128"
         id="circle4273"
         style="fill:#292929;fill-opacity:0.26020412;stroke:none;stroke-width:10;stroke-linejoin:round;stroke-miterlimit:4;stroke-dasharray:none;stroke-opacity:0.25882353" />
    </clipPath>
    <clipPath
       clipPathUnits="userSpaceOnUse"
       id="clipPath4363">
      <circle
         r="128"
         cy="924.36218"
         cx="128"
         id="circle4365"
         style="fill:#4285f4;fill-opacity:1;stroke:none;stroke-width:10;stroke-linejoin:round;stroke-miterlimit:4;stroke-dasharray:none;stroke-opacity:0.25882353" />
    </clipPath>
    <clipPath
       id="clipPath4452"
       clipPathUnits="userSpaceOnUse">
      <circle
         r="128"
         cy="924.36218"
         cx="128"
         id="circle4454"
         style="fill:#4285f4;fill-opacity:1;stroke:none;stroke-width:10;stroke-linejoin:round;stroke-miterlimit:4;stroke-dasharray:none;stroke-opacity:0.25882353" />
    </clipPath>
    <clipPath
       clipPathUnits="userSpaceOnUse"
       id="clipPath5177">
      <circle
         r="128"
         cy="924.36218"
         cx="128"
         id="circle5179"
         style="fill:#4285f4;fill-opacity:1;stroke:none;stroke-width:10;stroke-linejoin:round;stroke-miterlimit:4;stroke-dasharray:none;stroke-opacity:0.25882353" />
    </clipPath>
    <clipPath
       id="clipPath4342"
       clipPathUnits="userSpaceOnUse">
      <circle
         r="128"
         cy="933.48718"
         cx="128"
         id="circle4344"
         style="fill:#4285f4;fill-opacity:1;stroke:none;stroke-width:10;stroke-linejoin:round;stroke-miterlimit:4;stroke-dasharray:none;stroke-opacity:0.25882353" />
    </clipPath>
    <clipPath
       clipPathUnits="userSpaceOnUse"
       id="clipPath4681">
      <circle
         r="128"
         cy="930.43964"
         cx="127.00293"
         id="circle4683"
         style="fill:#9d5fad;fill-opacity:1;stroke:none;stroke-width:10;stroke-linejoin:round;stroke-miterlimit:4;stroke-dasharray:none;stroke-opacity:0.25882353" />
    </clipPath>
    <clipPath
       id="clipPath4235"
       clipPathUnits="userSpaceOnUse">
      <circle
         r="128"
         cy="924.36218"
         cx="128"
         id="circle4237"
         style="fill:#0f9d58;fill-opacity:1;stroke:none;stroke-width:10;stroke-linejoin:round;stroke-miterlimit:4;stroke-dasharray:none;stroke-opacity:0.25882353" />
    </clipPath>
    <clipPath
       clipPathUnits="userSpaceOnUse"
       id="clipPath4771">
      <circle
         r="128"
         cy="924.36218"
         cx="128"
         id="circle4773"
         style="fill:#0f9d58;fill-opacity:1;stroke:none;stroke-width:10;stroke-linejoin:round;stroke-miterlimit:4;stroke-dasharray:none;stroke-opacity:0.25882353" />
    </clipPath>
    <clipPath
       id="clipPath4842"
       clipPathUnits="userSpaceOnUse">
      <circle
         r="128"
         cy="924.36218"
         cx="128"
         id="circle4844"
         style="fill:#0f9d58;fill-opacity:1;stroke:none;stroke-width:10;stroke-linejoin:round;stroke-miterlimit:4;stroke-dasharray:none;stroke-opacity:0.25882353" />
    </clipPath>
    <clipPath
       clipPathUnits="userSpaceOnUse"
       id="clipPath4458">
      <circle
         r="128"
         cy="924.36218"
         cx="128"
         id="circle4460"
         style="fill:#ff3b38;fill-opacity:1;stroke:none;stroke-width:10;stroke-linejoin:round;stroke-miterlimit:4;stroke-dasharray:none;stroke-opacity:0.25882353" />
    </clipPath>
    <clipPath
       id="clipPath4783"
       clipPathUnits="userSpaceOnUse">
      <circle
         r="128"
         cy="924.36218"
         cx="128"
         id="circle4785"
         style="fill:#ff3b38;fill-opacity:1;stroke:none;stroke-width:10;stroke-linejoin:round;stroke-miterlimit:4;stroke-dasharray:none;stroke-opacity:0.25882353" />
    </clipPath>
    <clipPath
       clipPathUnits="userSpaceOnUse"
       id="clipPath4789">
      <circle
         r="128"
         cy="924.36218"
         cx="102.64714"
         id="circle4791"
         style="fill:#80b4ff;fill-opacity:1;stroke:none;stroke-width:10;stroke-linejoin:round;stroke-miterlimit:4;stroke-dasharray:none;stroke-opacity:0.25882353" />
    </clipPath>
    <clipPath
       id="clipPath4721"
       clipPathUnits="userSpaceOnUse">
      <circle
         r="128"
         cy="924.36218"
         cx="128"
         id="circle4723"
         style="fill:#557ae6;fill-opacity:1;stroke:none;stroke-width:10;stroke-linejoin:round;stroke-miterlimit:4;stroke-dasharray:none;stroke-opacity:0.25882353" />
    </clipPath>
    <clipPath
       clipPathUnits="userSpaceOnUse"
       id="clipPath4491">
      <circle
         r="128"
         cy="924.36218"
         cx="128"
         id="circle4493"
         style="fill:#990000;fill-opacity:1;stroke:none;stroke-width:10;stroke-linejoin:round;stroke-miterlimit:4;stroke-dasharray:none;stroke-opacity:0.25882353" />
    </clipPath>
    <clipPath
       id="clipPath1102"
       clipPathUnits="userSpaceOnUse">
      <circle
         r="128"
         cy="924.36218"
         cx="128"
         id="circle1104"
         style="fill:#b40000;fill-opacity:1;stroke:none;stroke-width:10;stroke-linejoin:round;stroke-miterlimit:4;stroke-dasharray:none;stroke-opacity:0.25882353" />
    </clipPath>
    <clipPath
       id="clipPath1102-3"
       clipPathUnits="userSpaceOnUse">
      <circle
         r="128"
         cy="924.36218"
         cx="128"
         id="circle1104-6"
         style="fill:#b40000;fill-opacity:1;stroke:none;stroke-width:10;stroke-linejoin:round;stroke-miterlimit:4;stroke-dasharray:none;stroke-opacity:0.25882353" />
    </clipPath>
    <linearGradient
       id="linearGradient5319">
      <stop
         id="stop5321"
         offset="0"
         style="stop-color:#323232;stop-opacity:1;" />
      <stop
         style="stop-color:#969696;stop-opacity:1;"
         offset="0.5"
         id="stop5327" />
      <stop
         id="stop5323"
         offset="1"
         style="stop-color:#323232;stop-opacity:1;" />
    </linearGradient>
    <linearGradient
       gradientTransform="matrix(4.0723173,0,0,3.2804777,-545.86496,606.68376)"
       gradientUnits="userSpaceOnUse"
       y2="8"
       x2="-39.857143"
       y1="8"
       x1="-41.714287"
       id="linearGradient5317"
       xlink:href="#linearGradient5311"
       inkscape:collect="always" />
    <linearGradient
       id="linearGradient5311">
      <stop
         id="stop5313"
         offset="0"
         style="stop-color:#000000;stop-opacity:1;" />
      <stop
         id="stop5315"
         offset="1"
         style="stop-color:#000000;stop-opacity:0;" />
    </linearGradient>
    <linearGradient
       inkscape:collect="always"
       xlink:href="#linearGradient5311"
       id="linearGradient5351-4"
       gradientUnits="userSpaceOnUse"
       gradientTransform="matrix(4.0723173,0,0,3.2427712,1068.3756,245.00916)"
       x1="-41.714287"
       y1="8"
       x2="-39.857143"
       y2="8" />
    <linearGradient
       inkscape:collect="always"
       xlink:href="#linearGradient5311"
       id="linearGradient5351"
       gradientUnits="userSpaceOnUse"
       gradientTransform="matrix(4.0723173,0,0,3.0165314,297.29206,879.75603)"
       x1="-41.714287"
       y1="8"
       x2="-39.857143"
       y2="8" />
    <linearGradient
       id="linearGradient3823">
      <stop
         id="stop3825"
         offset="0"
         style="stop-color:#ff0000;stop-opacity:1;" />
      <stop
         id="stop3827"
         offset="1"
         style="stop-color:#0d0000;stop-opacity:1;" />
    </linearGradient>
    <linearGradient
       id="linearGradient3831">
      <stop
         id="stop3833"
         offset="0"
         style="stop-color:#0000ff;stop-opacity:1;" />
      <stop
         id="stop3835"
         offset="1"
         style="stop-color:#000004;stop-opacity:1;" />
    </linearGradient>
    <linearGradient
       id="linearGradient3847">
      <stop
         id="stop3849"
         offset="0"
         style="stop-color:#ffff06;stop-opacity:1;" />
      <stop
         id="stop3851"
         offset="1"
         style="stop-color:#5a5800;stop-opacity:1;" />
    </linearGradient>
    <linearGradient
       id="linearGradient5442">
      <stop
         id="stop5444"
         offset="0"
         style="stop-color:#464646;stop-opacity:1;" />
      <stop
         id="stop5446"
         offset="1"
         style="stop-color:#000000;stop-opacity:1;" />
    </linearGradient>
    <linearGradient
       inkscape:collect="always"
       xlink:href="#linearGradient5311"
       id="linearGradient5351-7"
       gradientUnits="userSpaceOnUse"
       gradientTransform="matrix(4.0723173,0,0,3.2050646,779.22245,716.71122)"
       x1="-41.714287"
       y1="8"
       x2="-39.857143"
       y2="8" />
    <linearGradient
       id="linearGradient3839">
      <stop
         id="stop3841"
         offset="0"
         style="stop-color:#00ff00;stop-opacity:1;" />
      <stop
         id="stop3843"
         offset="1"
         style="stop-color:#000000;stop-opacity:1;" />
    </linearGradient>
    <linearGradient
       y2="8"
       x2="-39.857143"
       y1="8"
       x1="-41.714287"
       gradientTransform="matrix(2.1816799,-3.4386103,2.7699915,1.7574643,219.8371,-10.419803)"
       gradientUnits="userSpaceOnUse"
       id="linearGradient1030"
       xlink:href="#linearGradient5311"
       inkscape:collect="always" />
    <clipPath
       clipPathUnits="userSpaceOnUse"
       id="clipPath1329">
      <circle
         r="128"
         cy="924.36218"
         cx="128"
         id="circle1331"
         style="fill:#26c499;fill-opacity:1;stroke:none;stroke-width:10;stroke-linejoin:round;stroke-miterlimit:4;stroke-dasharray:none;stroke-opacity:0.25882353" />
    </clipPath>
  </defs>
  <metadata
     id="metadata7">
    <rdf:RDF>
      <cc:Work
         rdf:about="">
        <dc:format>image/svg+xml</dc:format>
        <dc:type
           rdf:resource="http://purl.org/dc/dcmitype/StillImage" />
        <dc:title />
      </cc:Work>
    </rdf:RDF>
  </metadata>
  <g
     transform="translate(0,-796.36216)"
     id="layer1"
     inkscape:groupmode="layer"
     inkscape:label="Layer 1">
    <circle
       style="fill:#81c1e7;fill-opacity:1;stroke:none;stroke-width:10;stroke-linejoin:round;stroke-miterlimit:4;stroke-dasharray:none;stroke-opacity:0.25882353"
       id="path4152"
       cx="128"
       cy="924.36218"
       r="128" />
    <g
       id="g1019"
       clip-path="url(#clipPath1329)"
       style="fill:#227bb0;fill-opacity:1">
      <g
         id="g1198"
         transform="translate(0,796.36216)"
         style="fill:#227bb0;fill-opacity:1">
        <g
           id="g1195"
           style="fill:#227bb0;fill-opacity:1;stroke:url(#linearGradient1030);stroke-width:0;stroke-miterlimit:4;stroke-dasharray:none;stroke-opacity:1">
          <path
             id="path1113"
             d="M131.40039 43.0C123.522165831 43.0000536729 116.428839718 46.1021522922 111.475720561 51.0552714494L-29.9456356761 192.476627687C-24.992516519 187.52350853 -17.8991904068 184.42140991 -10.0209662373 184.421356237Z"
             style="fill:#227bb0;fill-opacity:1" />
          <path
             id="path1115"
             d="M111.475720561 51.0552714494C107.015924032 55.5150679786 104.291242684 61.4755295852 104.29102 68.023438L-37.1303362373 209.444794237C-37.1301135535 202.896885823 -34.4054322054 196.936424216 -29.9456356761 192.476627687Z"
             style="fill:#227bb0;fill-opacity:1" />
          <path
             id="path1117"
             d="M104.29102 68.023438C104.30712 80.412679 114.14191 90.926019 127.41797 92.746094L-14.0033862373 234.167450237C-27.2794462373 232.347375237 -37.1142362373 221.834035237 -37.1303362373 209.444794237Z"
             style="fill:#227bb0;fill-opacity:1" />
          <path
             id="path1119"
             d="M127.41797 92.746094L127.41797 117.73242L-14.0033862373 259.153776237L-14.0033862373 234.167450237Z"
             style="fill:#227bb0;fill-opacity:1" />
          <path
             id="path1121"
             d="M127.41797 117.73242C124.621779002 118.315453696 122.160759845 119.69470816 120.251963933 121.603504071L-21.1693923042 263.024860309C-19.2605963927 261.116064397 -16.7995772357 259.736809933 -14.0033862373 259.153776237Z"
             style="fill:#227bb0;fill-opacity:1" />
          <path
             id="path1123"
             d="M120.251963933 121.603504071C117.6535445 124.201923504 116.078451526 127.78163769 116.07422 131.66992L-25.3471362373 273.091276237C-25.3429047114 269.202993927 -23.7678117368 265.623279741 -21.1693923042 263.024860309Z"
             style="fill:#227bb0;fill-opacity:1" />
          <path
             id="path1125"
             d="M116.07422 131.66992C116.07622 131.74542 116.07922 131.82098 116.08222 131.89648L-25.3391362373 273.317836237C-25.3421362373 273.242336237 -25.3451362373 273.166776237 -25.3471362373 273.091276237Z"
             style="fill:#227bb0;fill-opacity:1" />
          <path
             id="path1127"
             d="M116.08222 131.89648L85.955268 144.86719L-55.4660882373 286.288546237L-25.3391362373 273.317836237Z"
             style="fill:#227bb0;fill-opacity:1" />
          <path
             id="path1129"
             d="M85.955268 144.86719C80.858146 138.43507 72.74686 134.62857 64.113471 134.61719L-77.3078852373 276.038546237C-68.6744962373 276.049926237 -60.5632102373 279.856426237 -55.4660882373 286.288546237Z"
             style="fill:#227bb0;fill-opacity:1" />
          <path
             id="path1131"
             d="M64.113471 134.61719C56.2352429812 134.61724262 49.1419141308 137.719340452 44.1887940615 142.672460521L-97.2325621758 284.093816758C-92.2794421065 279.140696689 -85.1861132561 276.038598858 -77.3078852373 276.038546237Z"
             style="fill:#227bb0;fill-opacity:1" />
          <path
             id="path1133"
             d="M44.1887940615 142.672460521C39.7290000526 147.13225453 37.0043201052 153.092712746 37.004096 159.64062L-104.417260237 301.061976237C-104.417036132 294.514068983 -101.692356185 288.553610767 -97.2325621758 284.093816758Z"
             style="fill:#227bb0;fill-opacity:1" />
          <path
             id="path1135"
             d="M37.004096 159.64062C37.004563 173.46074 49.141675 184.66396 64.113471 184.66406L-77.3078852373 326.085416237C-92.2796812373 326.085316237 -104.416793237 314.882096237 -104.417260237 301.061976237Z"
             style="fill:#227bb0;fill-opacity:1" />
          <path
             id="path1137"
             d="M64.113471 184.66406C64.267162 184.66006 64.420814 184.65506 64.574409 184.64846L-76.8469472373 326.069816237C-77.0005422373 326.076416237 -77.1541942373 326.081416237 -77.3078852373 326.085416237Z"
             style="fill:#227bb0;fill-opacity:1" />
          <path
             id="path1139"
             d="M64.574409 184.64846C64.404434 185.75106 64.314391 186.86291 64.304878 187.97658L-77.1164782373 329.397936237C-77.1069652373 328.284266237 -77.0169222373 327.172416237 -76.8469472373 326.069816237Z"
             style="fill:#227bb0;fill-opacity:1" />
          <path
             id="path1141"
             d="M64.304878 187.97658C64.305345 201.7967 76.442456 212.99992 91.414252 213.00002L-50.0071042373 354.421376237C-64.9789002373 354.421276237 -77.1160112373 343.218056237 -77.1164782373 329.397936237Z"
             style="fill:#227bb0;fill-opacity:1" />
          <path
             id="path1143"
             d="M91.414252 213.00002C99.2924808546 212.99996738 106.385809342 209.897868607 111.338929485 204.944748465L-30.0824267526 346.366104702C-35.0355468953 351.319224845 -42.1288753827 354.421323617 -50.0071042373 354.421376237Z"
             style="fill:#227bb0;fill-opacity:1" />
          <path
             id="path1145"
             d="M111.338929485 204.944748465C115.798726333 200.484951616 118.523407316 194.524489397 118.52363 187.97658L-22.8977262373 329.397936237C-22.8979489212 335.945845635 -25.622629904 341.906307853 -30.0824267526 346.366104702Z"
             style="fill:#227bb0;fill-opacity:1" />
          <path
             id="path1147"
             d="M118.52363 187.97658C118.51333 181.22238 115.54572 174.75882 110.29511 170.05471L-31.1262462373 311.476066237C-25.8756362373 316.180176237 -22.9080262373 322.643736237 -22.8977262373 329.397936237Z"
             style="fill:#227bb0;fill-opacity:1" />
          <path
             id="path1149"
             d="M110.29511 170.05471L126.26581 145.32424L-15.1555462373 286.745596237L-31.1262462373 311.476066237Z"
             style="fill:#227bb0;fill-opacity:1" />
          <path
             id="path1151"
             d="M126.26581 145.32424C127.5834 145.71832 128.9511 145.91962 130.32636 145.9219L-11.0949962373 287.343256237C-12.4702562373 287.340976237 -13.8379562373 287.139676237 -15.1555462373 286.745596237Z"
             style="fill:#227bb0;fill-opacity:1" />
          <path
             id="path1153"
             d="M130.32636 145.9219C134.121945423 145.921936203 137.743216805 144.409101818 140.404370187 141.747948436L-1.01698605071 283.169304673C-3.67813943242 285.830458055 -7.29941081386 287.34329244 -11.0949962373 287.343256237Z"
             style="fill:#227bb0;fill-opacity:1" />
          <path
             id="path1155"
             d="M140.404370187 141.747948436C140.683502506 141.468816116 140.952071394 141.177049736 141.20917 140.87307L-0.212186237309 282.294426237C-0.469284843787 282.598405973 -0.737853731174 282.890172354 -1.01698605071 283.169304673Z"
             style="fill:#227bb0;fill-opacity:1" />
          <path
             id="path1157"
             d="M141.20917 140.87307L168.48457 158.17971L27.0632137627 299.601066237L-0.212186237309 282.294426237Z"
             style="fill:#227bb0;fill-opacity:1" />
          <path
             id="path1159"
             d="M168.48457 158.17971C157.56729 176.15218 177.86753 195.3937 191.88691 195.78713L50.4655537627 337.208486237C36.4461737627 336.815056237 16.1459337627 317.573536237 27.0632137627 299.601066237Z"
             style="fill:#227bb0;fill-opacity:1" />
          <path
             id="path1161"
             d="M191.88691 195.78713C199.765169597 195.787077382 206.858475435 192.684965535 211.81157712 187.73186385L70.3902208827 329.153220087C65.4371191973 334.106321772 58.3438133601 337.20843362 50.4655537627 337.208486237Z"
             style="fill:#227bb0;fill-opacity:1" />
          <path
             id="path1163"
             d="M211.81157712 187.73186385C216.271837414 183.271603556 218.996611676 177.310380372 218.99628 170.76174L77.5749237627 312.183096237C77.5752554383 318.731736609 74.8504811766 324.692959793 70.3902208827 329.153220087Z"
             style="fill:#227bb0;fill-opacity:1" />
          <path
             id="path1165"
             d="M218.99628 170.76174C218.99581 156.94162 206.8587 145.7384 191.88691 145.7383L50.4655537627 287.159656237C65.4373437627 287.159756237 77.5744537627 298.362976237 77.5749237627 312.183096237Z"
             style="fill:#227bb0;fill-opacity:1" />
          <path
             id="path1167"
             d="M191.88691 145.7383C185.06857 145.7473 178.50419 148.12724 173.50214 152.40432L32.0807837627 293.825676237C37.0828337627 289.548596237 43.6472137627 287.168656237 50.4655537627 287.159656237Z"
             style="fill:#227bb0;fill-opacity:1" />
          <path
             id="path1169"
             d="M173.50214 152.40432L144.383 133.92971L2.96164376269 275.351066237L32.0807837627 293.825676237Z"
             style="fill:#227bb0;fill-opacity:1" />
          <path
             id="path1171"
             d="M144.383 133.92971C144.50869 133.18289 144.57465 132.42724 144.58027 131.66994L3.15891376269 273.091296237C3.15329376269 273.848596237 3.08733376269 274.604246237 2.96164376269 275.351066237Z"
             style="fill:#227bb0;fill-opacity:1" />
          <path
             id="path1173"
             d="M144.58027 131.66994C144.57427 125.59729 140.72054 120.19557 134.98066 118.21291L-6.44069623731 259.634266237C-0.70081623731 261.616926237 3.15291376269 267.018646237 3.15891376269 273.091296237Z"
             style="fill:#227bb0;fill-opacity:1" />
          <path
             id="path1175"
             d="M134.98066 118.21291L134.98066 92.798828L-6.44069623731 234.220184237L-6.44069623731 259.634266237Z"
             style="fill:#227bb0;fill-opacity:1" />
          <path
             id="path1177"
             d="M134.98066 92.798828C141.463294838 92.0015662515 147.156636066 89.1312606919 151.318597957 84.9692988L9.89724172016 226.390655037C5.73527982823 230.552616929 0.041938600264 233.422922489 -6.44069623731 234.220184237Z"
             style="fill:#227bb0;fill-opacity:1" />
          <path
             id="path1179"
             d="M151.318597957 84.9692988C155.796438851 80.4914579061 158.50162605 74.5184555482 158.50996 68.023438L17.0886037627 209.444794237C17.080269813 215.939811785 14.375082614 221.912814143 9.89724172016 226.390655037Z"
             style="fill:#227bb0;fill-opacity:1" />
          <path
             id="path1181"
             d="M158.50996 68.023438C158.5093 54.203317 146.37219 43.000097 131.40039 43.0L-10.0209662373 184.421356237C4.95083376269 184.421453237 17.0879437627 195.624673237 17.0886037627 209.444794237Z"
             style="fill:#227bb0;fill-opacity:1" />
          <path
             id="path1183"
             d="M118.23633 139.20117C118.70759 139.95508 119.24836 140.66325 119.85156 141.31641L-21.5697962373 282.737766237C-22.1729962373 282.084606237 -22.7137662373 281.376436237 -23.1850262373 280.622526237Z"
             style="fill:#227bb0;fill-opacity:1" />
          <path
             id="path1185"
             d="M119.85156 141.31641L104.01562 165.83984L-37.4057362373 307.261196237L-21.5697962373 282.737766237Z"
             style="fill:#227bb0;fill-opacity:1" />
          <path
             id="path1187"
             d="M104.01562 165.83984C100.13061 163.9489 95.80606 162.95758 91.414062 162.95117L-50.0072942373 304.372526237C-45.6152962373 304.378936237 -41.2907462373 305.370256237 -37.4057362373 307.261196237Z"
             style="fill:#227bb0;fill-opacity:1" />
          <path
             id="path1189"
             d="M91.414062 162.95117C91.25972 162.95517 91.105418 162.96017 90.951172 162.96677L-50.4701842373 304.388126237C-50.3159382373 304.381526237 -50.1616362373 304.376526237 -50.0072942373 304.372526237Z"
             style="fill:#227bb0;fill-opacity:1" />
          <path
             id="path1191"
             d="M90.951172 162.96677C91.121707 161.86485 91.212403 160.75366 91.222656 159.64059L-50.1987002373 301.061946237C-50.2089532373 302.175016237 -50.2996492373 303.286206237 -50.4701842373 304.388126237Z"
             style="fill:#227bb0;fill-opacity:1" />
          <path
             id="path1193"
             d="M91.222656 159.64059C91.211946 156.86314 90.7004 154.10672 89.708984 151.48435L-51.7123722373 292.905706237C-50.7209562373 295.528076237 -50.2094102373 298.284496237 -50.1987002373 301.061946237Z"
             style="fill:#227bb0;fill-opacity:1" />
        </g>
        <path
           sodipodi:nodetypes="ccccccccccccccccccccccccccccccccccccc"
           inkscape:connector-curvature="0"
           id="rect1001"
           transform=""
           d="m 131.40039,43 c -14.97179,1.02e-4 -27.1089,11.203321 -27.10937,25.023438 0.0161,12.389241 9.85089,22.902581 23.12695,24.722656 v 24.986326 c -6.60261,1.37671 -11.33641,7.19289 -11.34375,13.9375 0.002,0.0755 0.005,0.15106 0.008,0.22656 l -30.126952,12.97071 c -5.097122,-6.43212 -13.208408,-10.23862 -21.841797,-10.25 -14.971792,1e-4 -27.108902,11.20331 -27.109375,25.02343 4.67e-4,13.82012 12.137579,25.02334 27.109375,25.02344 0.153691,-0.004 0.307343,-0.009 0.460938,-0.0156 -0.169975,1.1026 -0.260018,2.21445 -0.269531,3.32812 4.67e-4,13.82012 12.137578,25.02334 27.109374,25.02344 14.971798,-1e-4 27.108908,-11.20332 27.109378,-25.02344 -0.0103,-6.7542 -2.97791,-13.21776 -8.22852,-17.92187 l 15.9707,-24.73047 c 1.31759,0.39408 2.68529,0.59538 4.06055,0.59766 4.19371,4e-5 8.17462,-1.84681 10.88281,-5.04883 l 27.2754,17.30664 c -10.91728,17.97247 9.38296,37.21399 23.40234,37.60742 14.97262,-1e-4 27.11007,-11.20451 27.10937,-25.02539 -4.7e-4,-13.82012 -12.13758,-25.02334 -27.10937,-25.02344 -6.81834,0.009 -13.38272,2.38894 -18.38477,6.66602 l -29.11914,-18.47461 c 0.12569,-0.74682 0.19165,-1.50247 0.19727,-2.25977 -0.006,-6.07265 -3.85973,-11.47437 -9.59961,-13.45703 V 92.798828 c 13.45728,-1.655033 23.51322,-12.243531 23.5293,-24.77539 C 158.5093,54.203317 146.37219,43.000097 131.40039,43 Z m -13.16406,96.20117 c 0.47126,0.75391 1.01203,1.46208 1.61523,2.11524 l -15.83594,24.52343 c -3.88501,-1.89094 -8.20956,-2.88226 -12.601558,-2.88867 -0.154342,0.004 -0.308644,0.009 -0.46289,0.0156 0.170535,-1.10192 0.261231,-2.21311 0.271484,-3.32618 -0.01071,-2.77745 -0.522256,-5.53387 -1.513672,-8.15624 z"
           style="fill:#227bb0;fill-opacity:1;stroke:url(#linearGradient1030);stroke-width:0;stroke-miterlimit:4;stroke-dasharray:none;stroke-opacity:1" />
      </g>
    </g>
    <rect
       inkscape:transform-center-y="1.2857143"
       inkscape:transform-center-x="1"
       transform="rotate(-57.606279)"
       y="607.62103"
       x="-715.73877"
       height="50.613087"
       width="7.5628748"
       id="rect5309"
       style="fill:#ffffff;fill-opacity:1;stroke:url(#linearGradient5317);stroke-width:0;stroke-miterlimit:4;stroke-dasharray:none;stroke-opacity:1" />
    <rect
       transform="rotate(66.706764)"
       y="245.93567"
       x="898.50177"
       height="50.03133"
       width="7.5628748"
       id="rect5309-19"
       style="fill:#ffffff;fill-opacity:1;stroke:url(#linearGradient5351-4);stroke-width:0;stroke-miterlimit:4;stroke-dasharray:none;stroke-opacity:1" />
    <rect
       y="880.61792"
       x="127.41824"
       height="46.540771"
       width="7.5628748"
       id="rect5309-1"
       style="fill:#ffffff;fill-opacity:1;stroke:url(#linearGradient5351);stroke-width:0;stroke-miterlimit:4;stroke-dasharray:none;stroke-opacity:1" />
    <ellipse
       ry="25.02422"
       rx="27.109571"
       cy="864.38641"
       cx="131.40074"
       id="path3026"
       style="fill:#f5baba;fill-opacity:1;fill-rule:evenodd;stroke:#000000;stroke-width:0;stroke-linecap:butt;stroke-linejoin:miter;stroke-miterlimit:4;stroke-dasharray:none;stroke-opacity:1" />
    <ellipse
       ry="25.02422"
       rx="27.109571"
       cy="967.12469"
       cx="191.88661"
       id="path3026-7"
       style="fill:#a0a0f5;fill-opacity:1;fill-rule:evenodd;stroke:#000000;stroke-width:0;stroke-linecap:butt;stroke-linejoin:miter;stroke-miterlimit:4;stroke-dasharray:none;stroke-opacity:1" />
    <ellipse
       ry="25.02422"
       rx="27.109571"
       cy="956.00281"
       cx="64.11338"
       id="path3026-7-6"
       style="fill:#ebeb8c;fill-opacity:1;fill-rule:evenodd;stroke:#000000;stroke-width:0;stroke-linecap:butt;stroke-linejoin:miter;stroke-miterlimit:4;stroke-dasharray:none;stroke-opacity:1" />
    <rect
       inkscape:transform-center-y="-1.2168312"
       inkscape:transform-center-x="8.0526931"
       transform="rotate(32.852122)"
       y="717.62695"
       x="609.34863"
       height="49.44957"
       width="7.5628748"
       id="rect5309-194"
       style="fill:#ffffff;fill-opacity:1;stroke:url(#linearGradient5351-7);stroke-width:0;stroke-miterlimit:4;stroke-dasharray:none;stroke-opacity:1" />
    <circle
       r="14.25311"
       cy="928.03131"
       cx="130.32703"
       id="path5440"
       style="fill:#262626;fill-opacity:1;stroke:#000000;stroke-width:0;stroke-miterlimit:4;stroke-dasharray:none;stroke-opacity:1" />
    <ellipse
       ry="25.02422"
       rx="27.109571"
       cy="984.33795"
       cx="91.413315"
       id="path3026-7-6-4"
       style="fill:#a1ffa1;fill-opacity:1;fill-rule:evenodd;stroke:#000000;stroke-width:0;stroke-linecap:butt;stroke-linejoin:miter;stroke-miterlimit:4;stroke-dasharray:none;stroke-opacity:1" />
  </g>
</svg>
