<?xml version="1.0" encoding="UTF-8" standalone="no"?>
<!-- Created with Inkscape (http://www.inkscape.org/) -->

<svg
   xmlns:dc="http://purl.org/dc/elements/1.1/"
   xmlns:cc="http://creativecommons.org/ns#"
   xmlns:rdf="http://www.w3.org/1999/02/22-rdf-syntax-ns#"
   xmlns:svg="http://www.w3.org/2000/svg"
   xmlns="http://www.w3.org/2000/svg"
   xmlns:sodipodi="http://sodipodi.sourceforge.net/DTD/sodipodi-0.dtd"
   xmlns:inkscape="http://www.inkscape.org/namespaces/inkscape"
   sodipodi:docname="gchemtable.svg"
   inkscape:version="0.92pre2 r"
   version="1.1"
   id="svg2"
   viewBox="0 0 256 256"
   height="256"
   width="256">
  <sodipodi:namedview
     inkscape:window-maximized="1"
     inkscape:window-y="0"
     inkscape:window-x="0"
     inkscape:window-height="1054"
     inkscape:window-width="1920"
     units="px"
     showgrid="true"
     inkscape:current-layer="layer1"
     inkscape:document-units="px"
     inkscape:cy="119.79063"
     inkscape:cx="115.11007"
     inkscape:zoom="3.3359375"
     inkscape:pageshadow="2"
     inkscape:pageopacity="0.0"
     borderopacity="1.0"
     bordercolor="#666666"
     pagecolor="#ffffff"
     id="base">
    <inkscape:grid
       spacingy="5"
       spacingx="5"
       id="grid4136"
       type="xygrid" />
  </sodipodi:namedview>
  <defs
     id="defs4">
    <clipPath
       clipPathUnits="userSpaceOnUse"
       id="clipPath4224">
      <g
         id="g4226"
         transform="matrix(1.0698649,0,0,0.93469746,0,-2.1140227e-5)">
        <path
           d="M 256,924.36218 A 128,128 0 0 1 128,1052.3622 l 0,-128.00002 z"
           sodipodi:end="1.5707963"
           sodipodi:start="0"
           sodipodi:ry="128"
           sodipodi:rx="128"
           sodipodi:cy="924.36218"
           sodipodi:cx="128"
           sodipodi:type="arc"
           id="path4228"
           style="opacity:0.46200005;fill:#70ffc4;fill-opacity:1;stroke:none" />
        <path
           transform="scale(-1,1)"
           style="opacity:0.46200005;fill:#70b6ff;fill-opacity:1;stroke:none"
           id="path4230"
           sodipodi:type="arc"
           sodipodi:cx="-128"
           sodipodi:cy="924.36218"
           sodipodi:rx="128"
           sodipodi:ry="128"
           sodipodi:start="0"
           sodipodi:end="1.5707963"
           d="m 0,924.36218 a 128,128 0 0 1 -128,128.00002 l 0,-128.00002 z" />
        <path
           transform="scale(1,-1)"
           style="opacity:1;fill:#ff7070;fill-opacity:1;stroke:none"
           id="path4232"
           sodipodi:type="arc"
           sodipodi:cx="128"
           sodipodi:cy="-924.36218"
           sodipodi:rx="128"
           sodipodi:ry="128"
           sodipodi:start="0"
           sodipodi:end="1.5707963"
           d="m 256,-924.36218 a 128,128 0 0 1 -128,128 l 0,-128 z" />
        <path
           d="m 0,-924.36218 a 128,128 0 0 1 -128,128 l 0,-128 z"
           sodipodi:end="1.5707963"
           sodipodi:start="0"
           sodipodi:ry="128"
           sodipodi:rx="128"
           sodipodi:cy="-924.36218"
           sodipodi:cx="-128"
           sodipodi:type="arc"
           id="path4234"
           style="opacity:0.46200005;fill:#ff7070;fill-opacity:1;stroke:none"
           transform="scale(-1,-1)" />
      </g>
    </clipPath>
    <clipPath
       id="clipPath4253"
       clipPathUnits="userSpaceOnUse">
      <g
         id="g4255">
        <path
           d="M 256,924.36218 A 128,128 0 0 1 128,1052.3622 l 0,-128.00002 z"
           sodipodi:end="1.5707963"
           sodipodi:start="0"
           sodipodi:ry="128"
           sodipodi:rx="128"
           sodipodi:cy="924.36218"
           sodipodi:cx="128"
           sodipodi:type="arc"
           id="path4257"
           style="opacity:1;fill:#70ffc4;fill-opacity:1;stroke:none" />
        <path
           transform="scale(-1,1)"
           style="opacity:1;fill:#70b6ff;fill-opacity:1;stroke:none"
           id="path4259"
           sodipodi:type="arc"
           sodipodi:cx="-128"
           sodipodi:cy="924.36218"
           sodipodi:rx="128"
           sodipodi:ry="128"
           sodipodi:start="0"
           sodipodi:end="1.5707963"
           d="m 0,924.36218 a 128,128 0 0 1 -128,128.00002 l 0,-128.00002 z" />
        <path
           transform="scale(1,-1)"
           style="opacity:1;fill:#ff7070;fill-opacity:1;stroke:none"
           id="path4261"
           sodipodi:type="arc"
           sodipodi:cx="128"
           sodipodi:cy="-924.36218"
           sodipodi:rx="128"
           sodipodi:ry="128"
           sodipodi:start="0"
           sodipodi:end="1.5707963"
           d="m 256,-924.36218 a 128,128 0 0 1 -128,128 l 0,-128 z" />
        <path
           d="m 0,-924.36218 a 128,128 0 0 1 -128,128 l 0,-128 z"
           sodipodi:end="1.5707963"
           sodipodi:start="0"
           sodipodi:ry="128"
           sodipodi:rx="128"
           sodipodi:cy="-924.36218"
           sodipodi:cx="-128"
           sodipodi:type="arc"
           id="path4263"
           style="opacity:1;fill:#f9ff70;fill-opacity:1;stroke:none"
           transform="scale(-1,-1)" />
      </g>
    </clipPath>
    <clipPath
       clipPathUnits="userSpaceOnUse"
       id="clipPath4681">
      <g
         id="g4691"
         transform="rotate(90,127.99998,924.3622)">
        <path
           d="M 256,924.36218 A 128,128 0 0 1 128,1052.3622 l 0,-128.00002 z"
           sodipodi:end="1.5707963"
           sodipodi:start="0"
           sodipodi:ry="128"
           sodipodi:rx="128"
           sodipodi:cy="924.36218"
           sodipodi:cx="128"
           sodipodi:type="arc"
           id="path4683"
           style="opacity:1;fill:#70ffc4;fill-opacity:1;stroke:none" />
        <path
           transform="scale(-1,1)"
           style="opacity:1;fill:#70b6ff;fill-opacity:1;stroke:none"
           id="path4685"
           sodipodi:type="arc"
           sodipodi:cx="-128"
           sodipodi:cy="924.36218"
           sodipodi:rx="128"
           sodipodi:ry="128"
           sodipodi:start="0"
           sodipodi:end="1.5707963"
           d="m 0,924.36218 a 128,128 0 0 1 -128,128.00002 l 0,-128.00002 z" />
        <path
           transform="scale(1,-1)"
           style="opacity:1;fill:#ff7070;fill-opacity:1;stroke:none"
           id="path4687"
           sodipodi:type="arc"
           sodipodi:cx="128"
           sodipodi:cy="-924.36218"
           sodipodi:rx="128"
           sodipodi:ry="128"
           sodipodi:start="0"
           sodipodi:end="1.5707963"
           d="m 256,-924.36218 a 128,128 0 0 1 -128,128 l 0,-128 z" />
        <path
           d="m 0,-924.36218 a 128,128 0 0 1 -128,128 l 0,-128 z"
           sodipodi:end="1.5707963"
           sodipodi:start="0"
           sodipodi:ry="128"
           sodipodi:rx="128"
           sodipodi:cy="-924.36218"
           sodipodi:cx="-128"
           sodipodi:type="arc"
           id="path4689"
           style="opacity:1;fill:#d872e5;fill-opacity:1;stroke:none"
           transform="scale(-1)" />
      </g>
    </clipPath>
  </defs>
  <metadata
     id="metadata7">
    <rdf:RDF>
      <cc:Work
         rdf:about="">
        <dc:format>image/svg+xml</dc:format>
        <dc:type
           rdf:resource="http://purl.org/dc/dcmitype/StillImage" />
        <dc:title />
      </cc:Work>
    </rdf:RDF>
  </metadata>
  <g
     transform="translate(0,-796.36216)"
     id="layer1"
     inkscape:groupmode="layer"
     inkscape:label="Layer 1">
    <g
       transform="rotate(90,128,924.36218)"
       id="g3695">
      <path
         style="opacity:1;fill:#70ffc4;fill-opacity:1;stroke:none"
         id="path4141"
         sodipodi:type="arc"
         sodipodi:cx="128"
         sodipodi:cy="924.36218"
         sodipodi:rx="128"
         sodipodi:ry="128"
         sodipodi:start="0"
         sodipodi:end="1.5707963"
         d="M 256,924.36218 A 128,128 0 0 1 128,1052.3622 l 0,-128.00002 z" />
      <path
         d="m 0,924.36218 a 128,128 0 0 1 -128,128.00002 l 0,-128.00002 z"
         sodipodi:end="1.5707963"
         sodipodi:start="0"
         sodipodi:ry="128"
         sodipodi:rx="128"
         sodipodi:cy="924.36218"
         sodipodi:cx="-128"
         sodipodi:type="arc"
         id="path4145"
         style="opacity:1;fill:#70b6ff;fill-opacity:1;stroke:none"
         transform="scale(-1,1)" />
      <path
         d="m 256,-924.36218 a 128,128 0 0 1 -128,128 l 0,-128 z"
         sodipodi:end="1.5707963"
         sodipodi:start="0"
         sodipodi:ry="128"
         sodipodi:rx="128"
         sodipodi:cy="-924.36218"
         sodipodi:cx="128"
         sodipodi:type="arc"
         id="path4147"
         style="opacity:1;fill:#ff7070;fill-opacity:1;stroke:none"
         transform="scale(1,-1)" />
      <path
         transform="scale(-1)"
         style="opacity:1;fill:#d872e5;fill-opacity:1;stroke:none"
         id="path4149"
         sodipodi:type="arc"
         sodipodi:cx="-128"
         sodipodi:cy="-924.36218"
         sodipodi:rx="128"
         sodipodi:ry="128"
         sodipodi:start="0"
         sodipodi:end="1.5707963"
         d="m 0,-924.36218 a 128,128 0 0 1 -128,128 l 0,-128 z" />
    </g>
    <g
       aria-label="G"
       style="font-style:normal;font-variant:normal;font-weight:bold;font-stretch:normal;font-size:235.34150696px;line-height:30.64342499px;font-family:sans-serif;-inkscape-font-specification:'sans-serif Bold';letter-spacing:0px;word-spacing:0px;fill:#787171;fill-opacity:0.59134614;stroke:none;stroke-width:1.22573698px;stroke-linecap:butt;stroke-linejoin:miter;stroke-opacity:1"
       id="g4515"
       transform="translate(1.5e-6,-4e-5)"
       clip-path="url(#clipPath4681)">
      <g
         id="g4632"
         style="fill:#787171;fill-opacity:0.59134614">
        <g
           id="g4629"
           style="font-style:normal;font-variant:normal;font-weight:bold;font-stretch:normal;font-family:sans-serif;-inkscape-font-specification:'sans-serif Bold';stroke-width:1.22573698px;fill:#787171;fill-opacity:0.59134614">
          <path
             id="path4619"
             d="M203.72756 848.11753L203.72756 883.62559L62.3062037627 1025.04694624L62.3062037627 989.538886237Z"
             style="fill:#787171;fill-opacity:0.59134614" />
          <path
             id="path4621"
             d="M168.10458 977.73921L168.10458 944.41449L26.6832237627 1085.83584624L26.6832237627 1119.16056624Z"
             style="fill:#787171;fill-opacity:0.59134614" />
          <path
             id="path4623"
             d="M168.10458 944.41449L141.10006 944.41449L-0.321296237309 1085.83584624L26.6832237627 1085.83584624Z"
             style="fill:#787171;fill-opacity:0.59134614" />
          <path
             id="path4625"
             d="M141.10006 944.41449L141.10006 914.76698L-0.321296237309 1056.18833624L-0.321296237309 1085.83584624Z"
             style="fill:#787171;fill-opacity:0.59134614" />
          <path
             id="path4627"
             d="M141.10006 914.76698L210.04777 914.76698L68.6264137627 1056.18833624L-0.321296237309 1056.18833624Z"
             style="fill:#787171;fill-opacity:0.59134614" />
        </g>
        <path
           d="m 210.04777,997.2744 q -16.54745,8.0439 -34.35894,12.0658 -17.81149,4.022 -36.77211,4.022 -42.862492,0 -67.913492,-23.90188 -25.051001,-24.01678 -25.051001,-65.04067 0,-41.48353 25.510652,-65.27049 25.510652,-23.78696 69.867011,-23.78696 17.12201,0 32.75016,3.21756 15.74306,3.21756 29.64751,9.53777 v 35.50806 q -14.3641,-8.15881 -28.61329,-12.18076 -14.13428,-4.02195 -28.38348,-4.02195 -26.42995,0 -40.79406,14.82376 -14.24919,14.70884 -14.24919,42.17301 0,27.23435 13.78954,42.05811 13.78954,14.82375 39.18528,14.82375 6.89477,0 12.75533,-0.80439 5.97547,-0.9193 10.68689,-2.75791 v -33.32472 h -27.00452 v -29.64751 h 68.94771 z"
           style="font-style:normal;font-variant:normal;font-weight:bold;font-stretch:normal;font-family:sans-serif;-inkscape-font-specification:'sans-serif Bold';stroke-width:1.22573698px;fill:#787171;fill-opacity:0.59134614"
           id="path4513"
           inkscape:connector-curvature="0" />
      </g>
    </g>
    <g
       transform="translate(1.5e-6,-4e-5)"
       id="text3699"
       style="font-style:normal;font-variant:normal;font-weight:bold;font-stretch:normal;font-size:235.34150696px;line-height:30.64342499px;font-family:sans-serif;-inkscape-font-specification:'sans-serif Bold';letter-spacing:0px;word-spacing:0px;fill:#f9f9f9;fill-opacity:1;stroke:none;stroke-width:1.22573698px;stroke-linecap:butt;stroke-linejoin:miter;stroke-opacity:1"
       aria-label="G">
      <path
         inkscape:connector-curvature="0"
         id="path3705"
         style="font-style:normal;font-variant:normal;font-weight:bold;font-stretch:normal;font-family:sans-serif;-inkscape-font-specification:'sans-serif Bold';stroke-width:1.22573698px;fill:#f9f9f9;fill-opacity:1"
         d="m 210.04777,997.2744 q -16.54745,8.0439 -34.35894,12.0658 -17.81149,4.022 -36.77211,4.022 -42.862492,0 -67.913492,-23.90188 -25.051001,-24.01678 -25.051001,-65.04067 0,-41.48353 25.510652,-65.27049 25.510652,-23.78696 69.867011,-23.78696 17.12201,0 32.75016,3.21756 15.74306,3.21756 29.64751,9.53777 v 35.50806 q -14.3641,-8.15881 -28.61329,-12.18076 -14.13428,-4.02195 -28.38348,-4.02195 -26.42995,0 -40.79406,14.82376 -14.24919,14.70884 -14.24919,42.17301 0,27.23435 13.78954,42.05811 13.78954,14.82375 39.18528,14.82375 6.89477,0 12.75533,-0.80439 5.97547,-0.9193 10.68689,-2.75791 v -33.32472 h -27.00452 v -29.64751 h 68.94771 z" />
    </g>
    <text
       id="text3703"
       y="862.36218"
       x="-70"
       style="font-style:normal;font-weight:normal;font-size:40px;line-height:25px;font-family:sans-serif;letter-spacing:0px;word-spacing:0px;fill:#000000;fill-opacity:1;stroke:none;stroke-width:1px;stroke-linecap:butt;stroke-linejoin:miter;stroke-opacity:1"
       xml:space="preserve"><tspan
         y="885.25281"
         x="-70"
         id="tspan3701"
         sodipodi:role="line" /></text>
  </g>
</svg>
