<?xml version="1.0" encoding="UTF-8" standalone="no"?>
<!-- Created with Inkscape (http://www.inkscape.org/) -->

<svg
   xmlns:dc="http://purl.org/dc/elements/1.1/"
   xmlns:cc="http://creativecommons.org/ns#"
   xmlns:rdf="http://www.w3.org/1999/02/22-rdf-syntax-ns#"
   xmlns:svg="http://www.w3.org/2000/svg"
   xmlns="http://www.w3.org/2000/svg"
   xmlns:sodipodi="http://sodipodi.sourceforge.net/DTD/sodipodi-0.dtd"
   xmlns:inkscape="http://www.inkscape.org/namespaces/inkscape"
   sodipodi:docname="gksu-root-terminal.svg"
   inkscape:version="0.91 r13725"
   version="1.1"
   id="svg2"
   viewBox="0 0 256 256"
   height="256"
   width="256">
  <sodipodi:namedview
     inkscape:window-maximized="1"
     inkscape:window-y="0"
     inkscape:window-x="0"
     inkscape:window-height="1033"
     inkscape:window-width="1920"
     units="px"
     showgrid="true"
     inkscape:current-layer="layer1"
     inkscape:document-units="px"
     inkscape:cy="106.67011"
     inkscape:cx="128"
     inkscape:zoom="3.34375"
     inkscape:pageshadow="2"
     inkscape:pageopacity="0.0"
     borderopacity="1.0"
     bordercolor="#666666"
     pagecolor="#ffffff"
     id="base">
    <inkscape:grid
       id="grid4167"
       type="xygrid" />
  </sodipodi:namedview>
  <defs
     id="defs4">
    <clipPath
       id="clipPath5002"
       clipPathUnits="userSpaceOnUse">
      <g
         id="g5004">
        <path
           style="fill:#0f9d58;fill-opacity:1;stroke:none;stroke-width:4.85768509;stroke-linejoin:round;stroke-miterlimit:4;stroke-dasharray:none;stroke-opacity:1"
           d="M 88.118406,249.43519 C 46.103287,235.29134 14.771284,201.68742 4.1335861,159.36053 1.3377997,148.23623 0.92261224,144.16281 0.92582381,127.88908 0.92787958,117.47222 1.134384,112.01362 1.6577819,108.54099 4.4653598,89.913336 12.17654,70.638106 23.042737,55.086148 c 3.958678,-5.665755 8.344812,-10.93092 9.101533,-10.925587 0.32809,0.0023 10.488643,18.309713 22.579009,40.683112 12.090365,22.373397 22.374546,41.334697 22.853732,42.136217 0.479186,0.80151 0.924733,2.44098 0.990103,3.64326 0.343424,6.31639 2.524175,14.20976 5.6424,20.42304 2.954444,5.88693 5.065381,8.73258 10.434696,14.06652 6.71418,6.66995 12.88853,10.28643 21.73204,12.72904 3.16587,0.87442 5.10478,1.05037 11.57517,1.05037 8.82596,0 12.60219,-0.76201 19.26429,-3.88733 2.04584,-0.95974 3.93661,-1.66536 4.20172,-1.56805 0.2651,0.0973 -11.0555,17.66459 -25.1569,39.0384 l -25.6389,38.86148 -3.094121,0.11221 c -2.554618,0.0927 -4.195204,-0.25845 -9.409103,-2.01364 z"
           id="path5006"
           inkscape:connector-curvature="0"
           transform="translate(0,796.36216)" />
        <path
           style="fill:#f4b400;fill-opacity:1;stroke:none;stroke-width:4.85768509;stroke-linejoin:round;stroke-miterlimit:4;stroke-dasharray:none;stroke-opacity:1"
           d="m 112.35984,1051.5167 c -10.0014,-1.4495 -12.15632,-1.8201 -12.531784,-2.1556 -0.248854,-0.2223 1.738304,-3.7475 4.550294,-8.0722 7.16635,-11.0213 49.77231,-74.64801 50.25856,-75.05489 3.57509,-2.99158 8.63523,-8.0414 10.57512,-10.55356 3.36154,-4.35318 7.55784,-12.9141 9.06523,-18.494 6.19314,-22.92535 -2.59253,-47.15185 -21.69967,-59.83688 l -2.96081,-1.96565 17.02469,0.29584 c 9.36358,0.1627 31.17032,0.43384 48.45941,0.60252 l 31.43471,0.30668 1.54584,4.18869 c 2.24597,6.08579 4.67816,15.0947 5.93451,21.9816 1.52517,8.36049 1.92536,28.85896 0.73851,37.82758 -3.0805,23.27845 -12.81326,45.72018 -27.80202,64.10577 -20.47622,25.1166 -51.4599,42.1974 -84.14612,46.3885 -5.31244,0.6812 -26.64601,0.9864 -30.44647,0.4356 z"
           id="path5008"
           inkscape:connector-curvature="0" />
        <path
           style="fill:#db4437;fill-opacity:1;stroke:none;stroke-width:10;stroke-linejoin:round;stroke-miterlimit:4;stroke-dasharray:none;stroke-opacity:1"
           d="M 67.989788,108.87302 C 41.284246,59.575543 33.290284,45.149038 32.233625,44.344765 31.651257,43.901497 32.811213,42.549931 38.695603,36.815353 53.43581,22.450419 68.809334,13.040746 87.839196,6.7360352 101.68742,2.1480329 112.58238,0.43719165 127.95142,0.43719165 c 21.3099,0 37.80488,3.80960275 56.83492,13.12633035 25.29351,12.383198 46.19421,33.578863 58.51993,59.345832 1.61138,3.368591 2.92978,6.372442 2.92978,6.675231 0,0.560033 -10.54865,0.49527 -71.16508,-0.436914 l -24.28843,-0.373518 -3.93063,-1.764495 c -6.75732,-3.033425 -10.64587,-3.839529 -18.6576,-3.867747 -5.0296,-0.01773 -7.97946,0.207636 -10.31642,0.788106 -14.50826,3.603659 -26.283291,12.94777 -33.291614,26.418653 -3.58502,6.89086 -5.24713,13.08166 -6.331628,23.58317 l -0.33738,3.26696 -9.92748,-18.32578 z"
           id="path5010"
           inkscape:connector-curvature="0"
           transform="translate(0,796.36216)" />
      </g>
    </clipPath>
    <clipPath
       clipPathUnits="userSpaceOnUse"
       id="clipPath4253">
      <circle
         style="fill:#bababa;fill-opacity:1;stroke:none;stroke-width:0.1;stroke-linecap:round;stroke-linejoin:round;stroke-miterlimit:4;stroke-dasharray:none;stroke-opacity:1"
         id="circle4255"
         cx="128"
         cy="924.36218"
         r="128" />
    </clipPath>
    <clipPath
       id="clipPath4350"
       clipPathUnits="userSpaceOnUse">
      <circle
         style="fill:#7e7e7e;fill-opacity:1;stroke:none;stroke-width:0.1;stroke-linecap:round;stroke-linejoin:round;stroke-miterlimit:4;stroke-dasharray:none;stroke-opacity:1"
         id="circle4352"
         cx="128"
         cy="924.36218"
         r="128" />
    </clipPath>
    <clipPath
       clipPathUnits="userSpaceOnUse"
       id="clipPath4345">
      <circle
         style="fill:#7e7e7e;fill-opacity:1;stroke:none;stroke-width:0.1;stroke-linecap:round;stroke-linejoin:round;stroke-miterlimit:4;stroke-dasharray:none;stroke-opacity:1"
         id="circle4347"
         cx="128"
         cy="924.36218"
         r="128" />
    </clipPath>
  </defs>
  <metadata
     id="metadata7">
    <rdf:RDF>
      <cc:Work
         rdf:about="">
        <dc:format>image/svg+xml</dc:format>
        <dc:type
           rdf:resource="http://purl.org/dc/dcmitype/StillImage" />
        <dc:title />
      </cc:Work>
    </rdf:RDF>
  </metadata>
  <g
     inkscape:label="Layer 1"
     inkscape:groupmode="layer"
     id="layer1"
     transform="translate(0,-796.36216)">
    <path
       style="fill:none;fill-rule:evenodd;stroke:none;stroke-width:1px;stroke-linecap:butt;stroke-linejoin:miter;stroke-opacity:1"
       d="M 154.47438,968.80998 101.03985,1048.476 0.4857685,1048.9618 0,842.0244 l 33.032258,-2.42884 45.176471,83.55218 21.373814,35.4611 26.717267,13.11575 z"
       id="path4913"
       inkscape:connector-curvature="0" />
    <circle
       r="128"
       cy="924.36218"
       cx="128"
       id="path4152"
       style="fill:#d2abff;fill-opacity:1;stroke:none;stroke-width:0.1;stroke-linecap:round;stroke-linejoin:round;stroke-miterlimit:4;stroke-dasharray:none;stroke-opacity:1" />
    <g
       id="text4175"
       style="font-style:normal;font-variant:normal;font-weight:bold;font-stretch:normal;font-size:150px;line-height:125%;font-family:sans-serif;-inkscape-font-specification:'sans-serif Bold';letter-spacing:0px;word-spacing:0px;fill:#8d6cb4;fill-opacity:1;stroke:none;stroke-width:1px;stroke-linecap:butt;stroke-linejoin:miter;stroke-opacity:1"
       clip-path="url(#clipPath4345)">
      <g
         id="g4208"
         transform="translate(0,796.36216)"
         style="fill:#8d6cb4;fill-opacity:1">
        <g
           id="g4210"
           style="fill:#8d6cb4;fill-opacity:1">
          <path
             id="path4212"
             d="M72.958984 56.478516L65.927734 84.677734L-146.204300356 296.809768356L-139.173050356 268.610550356Z"
             style="fill:#8d6cb4;fill-opacity:1" />
          <path
             id="path4214"
             d="M65.927734 84.677734L41.171875 84.677734L-170.960159356 296.809768356L-146.204300356 296.809768356Z"
             style="fill:#8d6cb4;fill-opacity:1" />
          <path
             id="path4216"
             d="M41.171875 84.677734L41.171875 100.27734L-170.960159356 312.409374356L-170.960159356 296.809768356Z"
             style="fill:#8d6cb4;fill-opacity:1" />
          <path
             id="path4218"
             d="M41.171875 100.27734L61.898438 100.27734L-150.233596356 312.409374356L-170.960159356 312.409374356Z"
             style="fill:#8d6cb4;fill-opacity:1" />
          <path
             id="path4220"
             d="M61.898438 100.27734L56.771484 120.3457L-155.360550356 332.477734356L-150.233596356 312.409374356Z"
             style="fill:#8d6cb4;fill-opacity:1" />
          <path
             id="path4222"
             d="M56.771484 120.3457L32.748047 120.3457L-179.383987356 332.477734356L-155.360550356 332.477734356Z"
             style="fill:#8d6cb4;fill-opacity:1" />
          <path
             id="path4224"
             d="M32.748047 120.3457L32.748047 136.09375L-179.383987356 348.225784356L-179.383987356 332.477734356Z"
             style="fill:#8d6cb4;fill-opacity:1" />
          <path
             id="path4226"
             d="M32.748047 136.09375L53.183594 136.09375L-158.948440356 348.225784356L-179.383987356 348.225784356Z"
             style="fill:#8d6cb4;fill-opacity:1" />
          <path
             id="path4228"
             d="M53.183594 136.09375L46.152344 164.14453L-165.979690356 376.276564356L-158.948440356 348.225784356Z"
             style="fill:#8d6cb4;fill-opacity:1" />
          <path
             id="path4230"
             d="M46.152344 164.14453L62.484375 164.14453L-149.647659356 376.276564356L-165.979690356 376.276564356Z"
             style="fill:#8d6cb4;fill-opacity:1" />
          <path
             id="path4232"
             d="M62.484375 164.14453L69.515625 136.09375L-142.616409356 348.225784356L-149.647659356 376.276564356Z"
             style="fill:#8d6cb4;fill-opacity:1" />
          <path
             id="path4234"
             d="M69.515625 136.09375L88.851562 136.09375L-123.280472356 348.225784356L-142.616409356 348.225784356Z"
             style="fill:#8d6cb4;fill-opacity:1" />
          <path
             id="path4236"
             d="M88.851562 136.09375L81.820312 164.14453L-130.311722356 376.276564356L-123.280472356 348.225784356Z"
             style="fill:#8d6cb4;fill-opacity:1" />
          <path
             id="path4238"
             d="M81.820312 164.14453L98.007812 164.14453L-114.124222356 376.276564356L-130.311722356 376.276564356Z"
             style="fill:#8d6cb4;fill-opacity:1" />
          <path
             id="path4240"
             d="M98.007812 164.14453L105.03906 136.09375L-107.092974356 348.225784356L-114.124222356 376.276564356Z"
             style="fill:#8d6cb4;fill-opacity:1" />
          <path
             id="path4242"
             d="M105.03906 136.09375L129.64844 136.09375L-82.483594356 348.225784356L-107.092974356 348.225784356Z"
             style="fill:#8d6cb4;fill-opacity:1" />
          <path
             id="path4244"
             d="M129.64844 136.09375L129.64844 120.3457L-82.483594356 332.477734356L-82.483594356 348.225784356Z"
             style="fill:#8d6cb4;fill-opacity:1" />
          <path
             id="path4246"
             d="M129.64844 120.3457L108.84766 120.3457L-103.284374356 332.477734356L-82.483594356 332.477734356Z"
             style="fill:#8d6cb4;fill-opacity:1" />
          <path
             id="path4248"
             d="M108.84766 120.3457L113.90039 100.27734L-98.231644356 312.409374356L-103.284374356 332.477734356Z"
             style="fill:#8d6cb4;fill-opacity:1" />
          <path
             id="path4250"
             d="M113.90039 100.27734L138.07031 100.27734L-74.061724356 312.409374356L-98.231644356 312.409374356Z"
             style="fill:#8d6cb4;fill-opacity:1" />
          <path
             id="path4252"
             d="M138.07031 100.27734L138.07031 84.677734L-74.061724356 296.809768356L-74.061724356 312.409374356Z"
             style="fill:#8d6cb4;fill-opacity:1" />
          <path
             id="path4254"
             d="M138.07031 84.677734L117.7832 84.677734L-94.348834356 296.809768356L-74.061724356 296.809768356Z"
             style="fill:#8d6cb4;fill-opacity:1" />
          <path
             id="path4256"
             d="M117.7832 84.677734L124.88672 56.478516L-87.245314356 268.610550356L-94.348834356 296.809768356Z"
             style="fill:#8d6cb4;fill-opacity:1" />
          <path
             id="path4258"
             d="M124.88672 56.478516L108.70117 56.478516L-103.430864356 268.610550356L-87.245314356 268.610550356Z"
             style="fill:#8d6cb4;fill-opacity:1" />
          <path
             id="path4260"
             d="M108.70117 56.478516L101.5957 84.677734L-110.536334356 296.809768356L-103.430864356 268.610550356Z"
             style="fill:#8d6cb4;fill-opacity:1" />
          <path
             id="path4262"
             d="M101.5957 84.677734L82.259766 84.677734L-129.872268356 296.809768356L-110.536334356 296.809768356Z"
             style="fill:#8d6cb4;fill-opacity:1" />
          <path
             id="path4264"
             d="M82.259766 84.677734L89.291016 56.478516L-122.841018356 268.610550356L-129.872268356 296.809768356Z"
             style="fill:#8d6cb4;fill-opacity:1" />
          <path
             id="path4266"
             d="M89.291016 56.478516L72.958984 56.478516L-139.173050356 268.610550356L-122.841018356 268.610550356Z"
             style="fill:#8d6cb4;fill-opacity:1" />
          <path
             id="path4268"
             d="M78.232422 100.27734L97.568359 100.27734L-114.563675356 312.409374356L-133.899612356 312.409374356Z"
             style="fill:#8d6cb4;fill-opacity:1" />
          <path
             id="path4270"
             d="M97.568359 100.27734L92.441406 120.3457L-119.690628356 332.477734356L-114.563675356 312.409374356Z"
             style="fill:#8d6cb4;fill-opacity:1" />
          <path
             id="path4272"
             d="M92.441406 120.3457L73.105469 120.3457L-139.026565356 332.477734356L-119.690628356 332.477734356Z"
             style="fill:#8d6cb4;fill-opacity:1" />
          <path
             id="path4274"
             d="M73.105469 120.3457L78.232422 100.27734L-133.899612356 312.409374356L-139.026565356 332.477734356Z"
             style="fill:#8d6cb4;fill-opacity:1" />
          <path
             id="path4276"
             d="M148.25195 185.60547L148.25195 199.52148L-63.880084356 411.653514356L-63.880084356 397.737504356Z"
             style="fill:#8d6cb4;fill-opacity:1" />
          <path
             id="path4278"
             d="M148.25195 199.52148L223.25195 199.52148L11.119915644 411.653514356L-63.880084356 411.653514356Z"
             style="fill:#8d6cb4;fill-opacity:1" />
          <path
             id="path4280"
             d="M223.25195 199.52148L223.25195 185.60547L11.119915644 397.737504356L11.119915644 411.653514356Z"
             style="fill:#8d6cb4;fill-opacity:1" />
          <path
             id="path4282"
             d="M223.25195 185.60547L148.25195 185.60547L-63.880084356 397.737504356L11.119915644 397.737504356Z"
             style="fill:#8d6cb4;fill-opacity:1" />
        </g>
        <path
           id="path4182"
           transform=""
           d="M 72.958984 56.478516 L 65.927734 84.677734 L 41.171875 84.677734 L 41.171875 100.27734 L 61.898438 100.27734 L 56.771484 120.3457 L 32.748047 120.3457 L 32.748047 136.09375 L 53.183594 136.09375 L 46.152344 164.14453 L 62.484375 164.14453 L 69.515625 136.09375 L 88.851562 136.09375 L 81.820312 164.14453 L 98.007812 164.14453 L 105.03906 136.09375 L 129.64844 136.09375 L 129.64844 120.3457 L 108.84766 120.3457 L 113.90039 100.27734 L 138.07031 100.27734 L 138.07031 84.677734 L 117.7832 84.677734 L 124.88672 56.478516 L 108.70117 56.478516 L 101.5957 84.677734 L 82.259766 84.677734 L 89.291016 56.478516 L 72.958984 56.478516 z M 78.232422 100.27734 L 97.568359 100.27734 L 92.441406 120.3457 L 73.105469 120.3457 L 78.232422 100.27734 z M 148.25195 185.60547 L 148.25195 199.52148 L 223.25195 199.52148 L 223.25195 185.60547 L 148.25195 185.60547 z "
           style="fill:#8d6cb4;fill-opacity:1" />
      </g>
    </g>
    <text
       sodipodi:linespacing="125%"
       id="text4169"
       y="960.5072"
       x="22.567871"
       style="font-style:normal;font-variant:normal;font-weight:bold;font-stretch:normal;font-size:150px;line-height:125%;font-family:sans-serif;-inkscape-font-specification:'sans-serif Bold';letter-spacing:0px;word-spacing:0px;fill:#ffffff;fill-opacity:1;stroke:none;stroke-width:1px;stroke-linecap:butt;stroke-linejoin:miter;stroke-opacity:1;"
       xml:space="preserve"><tspan
         y="960.5072"
         x="22.567871"
         id="tspan4171"
         sodipodi:role="line">#_</tspan><tspan
         id="tspan4173"
         y="1148.0072"
         x="22.567871"
         sodipodi:role="line" /></text>
  </g>
</svg>
