<?xml version="1.0" encoding="UTF-8" standalone="no"?>
<!-- Created with Inkscape (http://www.inkscape.org/) -->

<svg
   xmlns:dc="http://purl.org/dc/elements/1.1/"
   xmlns:cc="http://creativecommons.org/ns#"
   xmlns:rdf="http://www.w3.org/1999/02/22-rdf-syntax-ns#"
   xmlns:svg="http://www.w3.org/2000/svg"
   xmlns="http://www.w3.org/2000/svg"
   xmlns:sodipodi="http://sodipodi.sourceforge.net/DTD/sodipodi-0.dtd"
   xmlns:inkscape="http://www.inkscape.org/namespaces/inkscape"
   width="256"
   height="256"
   viewBox="0 0 256 256"
   id="svg2"
   version="1.1"
   inkscape:version="0.91 r13725"
   sodipodi:docname="gnome-calculator.svg">
  <sodipodi:namedview
     showguides="false"
     id="base"
     pagecolor="#ffffff"
     bordercolor="#666666"
     borderopacity="1.0"
     inkscape:pageopacity="0.0"
     inkscape:pageshadow="2"
     inkscape:zoom="2.0507812"
     inkscape:cx="51.931429"
     inkscape:cy="127.02476"
     inkscape:document-units="px"
     inkscape:current-layer="layer1"
     showgrid="true"
     units="px"
     inkscape:window-width="1366"
     inkscape:window-height="721"
     inkscape:window-x="0"
     inkscape:window-y="0"
     inkscape:window-maximized="1">
    <inkscape:grid
       spacingy="5"
       spacingx="5"
       id="grid4168"
       type="xygrid" />
  </sodipodi:namedview>
  <defs
     id="defs4">
    <clipPath
       id="clipPath5002"
       clipPathUnits="userSpaceOnUse">
      <g
         id="g5004">
        <path
           style="fill:#0f9d58;fill-opacity:1;stroke:none;stroke-width:4.85768509;stroke-linejoin:round;stroke-miterlimit:4;stroke-dasharray:none;stroke-opacity:1"
           d="M 88.118406,249.43519 C 46.103287,235.29134 14.771284,201.68742 4.1335861,159.36053 1.3377997,148.23623 0.92261224,144.16281 0.92582381,127.88908 0.92787958,117.47222 1.134384,112.01362 1.6577819,108.54099 4.4653598,89.913336 12.17654,70.638106 23.042737,55.086148 c 3.958678,-5.665755 8.344812,-10.93092 9.101533,-10.925587 0.32809,0.0023 10.488643,18.309713 22.579009,40.683112 12.090365,22.373397 22.374546,41.334697 22.853732,42.136217 0.479186,0.80151 0.924733,2.44098 0.990103,3.64326 0.343424,6.31639 2.524175,14.20976 5.6424,20.42304 2.954444,5.88693 5.065381,8.73258 10.434696,14.06652 6.71418,6.66995 12.88853,10.28643 21.73204,12.72904 3.16587,0.87442 5.10478,1.05037 11.57517,1.05037 8.82596,0 12.60219,-0.76201 19.26429,-3.88733 2.04584,-0.95974 3.93661,-1.66536 4.20172,-1.56805 0.2651,0.0973 -11.0555,17.66459 -25.1569,39.0384 l -25.6389,38.86148 -3.094121,0.11221 c -2.554618,0.0927 -4.195204,-0.25845 -9.409103,-2.01364 z"
           id="path5006"
           inkscape:connector-curvature="0"
           transform="translate(0,796.36216)" />
        <path
           style="fill:#f4b400;fill-opacity:1;stroke:none;stroke-width:4.85768509;stroke-linejoin:round;stroke-miterlimit:4;stroke-dasharray:none;stroke-opacity:1"
           d="m 112.35984,1051.5167 c -10.0014,-1.4495 -12.15632,-1.8201 -12.531784,-2.1556 -0.248854,-0.2223 1.738304,-3.7475 4.550294,-8.0722 7.16635,-11.0213 49.77231,-74.64801 50.25856,-75.05489 3.57509,-2.99158 8.63523,-8.0414 10.57512,-10.55356 3.36154,-4.35318 7.55784,-12.9141 9.06523,-18.494 6.19314,-22.92535 -2.59253,-47.15185 -21.69967,-59.83688 l -2.96081,-1.96565 17.02469,0.29584 c 9.36358,0.1627 31.17032,0.43384 48.45941,0.60252 l 31.43471,0.30668 1.54584,4.18869 c 2.24597,6.08579 4.67816,15.0947 5.93451,21.9816 1.52517,8.36049 1.92536,28.85896 0.73851,37.82758 -3.0805,23.27845 -12.81326,45.72018 -27.80202,64.10577 -20.47622,25.1166 -51.4599,42.1974 -84.14612,46.3885 -5.31244,0.6812 -26.64601,0.9864 -30.44647,0.4356 z"
           id="path5008"
           inkscape:connector-curvature="0" />
        <path
           style="fill:#db4437;fill-opacity:1;stroke:none;stroke-width:10;stroke-linejoin:round;stroke-miterlimit:4;stroke-dasharray:none;stroke-opacity:1"
           d="M 67.989788,108.87302 C 41.284246,59.575543 33.290284,45.149038 32.233625,44.344765 31.651257,43.901497 32.811213,42.549931 38.695603,36.815353 53.43581,22.450419 68.809334,13.040746 87.839196,6.7360352 101.68742,2.1480329 112.58238,0.43719165 127.95142,0.43719165 c 21.3099,0 37.80488,3.80960275 56.83492,13.12633035 25.29351,12.383198 46.19421,33.578863 58.51993,59.345832 1.61138,3.368591 2.92978,6.372442 2.92978,6.675231 0,0.560033 -10.54865,0.49527 -71.16508,-0.436914 l -24.28843,-0.373518 -3.93063,-1.764495 c -6.75732,-3.033425 -10.64587,-3.839529 -18.6576,-3.867747 -5.0296,-0.01773 -7.97946,0.207636 -10.31642,0.788106 -14.50826,3.603659 -26.283291,12.94777 -33.291614,26.418653 -3.58502,6.89086 -5.24713,13.08166 -6.331628,23.58317 l -0.33738,3.26696 -9.92748,-18.32578 z"
           id="path5010"
           inkscape:connector-curvature="0"
           transform="translate(0,796.36216)" />
      </g>
    </clipPath>
    <clipPath
       clipPathUnits="userSpaceOnUse"
       id="clipPath4271">
      <circle
         style="fill:#292929;fill-opacity:0.26020412;stroke:none;stroke-width:10;stroke-linejoin:round;stroke-miterlimit:4;stroke-dasharray:none;stroke-opacity:0.25882353"
         id="circle4273"
         cx="128"
         cy="128.00002"
         r="128" />
    </clipPath>
    <clipPath
       id="clipPath4363"
       clipPathUnits="userSpaceOnUse">
      <circle
         style="fill:#4285f4;fill-opacity:1;stroke:none;stroke-width:10;stroke-linejoin:round;stroke-miterlimit:4;stroke-dasharray:none;stroke-opacity:0.25882353"
         id="circle4365"
         cx="128"
         cy="924.36218"
         r="128" />
    </clipPath>
    <clipPath
       clipPathUnits="userSpaceOnUse"
       id="clipPath4452">
      <circle
         style="fill:#4285f4;fill-opacity:1;stroke:none;stroke-width:10;stroke-linejoin:round;stroke-miterlimit:4;stroke-dasharray:none;stroke-opacity:0.25882353"
         id="circle4454"
         cx="128"
         cy="924.36218"
         r="128" />
    </clipPath>
    <clipPath
       id="clipPath5069"
       clipPathUnits="userSpaceOnUse">
      <circle
         style="fill:#f4b400;fill-opacity:1;stroke:none;stroke-width:25;stroke-linecap:round;stroke-linejoin:round;stroke-miterlimit:4;stroke-dasharray:none;stroke-opacity:0.25882353"
         id="circle5071"
         cx="128"
         cy="924.36218"
         r="128" />
    </clipPath>
    <clipPath
       clipPathUnits="userSpaceOnUse"
       id="clipPath4526">
      <g
         id="g4528">
        <path
           style="opacity:1;fill:#db4437;fill-opacity:1;stroke:none;stroke-width:4.97371435;stroke-linecap:round;stroke-linejoin:round;stroke-miterlimit:4;stroke-dasharray:none;stroke-opacity:1"
           d="m 0.3025411,918.87645 c 1.2057173,-19.16706 5.2453813,-34.80774 13.1294409,-50.83429 16.225824,-32.98351 45.401504,-57.1576 80.676544,-66.84614 9.880344,-2.7137 22.307224,-4.58846 30.422524,-4.58964 l 2.80381,-4.1e-4 0,63.63429 0,63.63428 -63.67336,0 -63.6733679,0 0.314409,-4.99809 z"
           id="path4530"
           inkscape:connector-curvature="0" />
        <path
           style="opacity:1;fill:#0f9d58;fill-opacity:1;stroke:none;stroke-width:10.19999981;stroke-linecap:round;stroke-linejoin:round;stroke-miterlimit:4;stroke-dasharray:none;stroke-opacity:1"
           d="m 128.87726,988.3146 0,-63.7086 63.39048,0 63.39048,0 -0.008,3.77905 c -0.0323,14.45347 -4.39178,33.26143 -11.21767,48.39619 -7.67367,17.01451 -19.9753,33.17426 -34.61007,45.46466 -20.75444,17.4298 -47.52036,27.9437 -74.97143,29.4496 l -5.97334,0.3277 0,-63.7086 z"
           id="path4532"
           inkscape:connector-curvature="0" />
        <path
           style="opacity:1;fill:#f4b400;fill-opacity:1;stroke:none;stroke-width:10.19999981;stroke-linecap:round;stroke-linejoin:round;stroke-miterlimit:4;stroke-dasharray:none;stroke-opacity:1"
           d="M 115.632,1051.3451 C 76.977056,1047.6471 42.147076,1026.4088 20.602875,993.39911 8.5831987,974.98273 1.6157437,953.37414 0.26871071,930.33552 l -0.334997,-5.72952 63.70057229,0 63.700574,0 0,63.63428 0,63.63422 -3.77905,-0.066 c -2.07848,-0.037 -5.64419,-0.2448 -7.92381,-0.4629 z"
           id="path4534"
           inkscape:connector-curvature="0" />
        <path
           style="opacity:1;fill:#4285f4;fill-opacity:1;stroke:none;stroke-width:10.19999981;stroke-linecap:round;stroke-linejoin:round;stroke-miterlimit:4;stroke-dasharray:none;stroke-opacity:1"
           d="m 128.87771,860.24026 0,-63.63429 2.87405,0 c 11.33754,0 28.80337,3.43388 41.06917,8.07443 28.50826,10.7856 52.38544,31.50035 67.32749,58.41027 9.28806,16.72734 15.4625,39.43266 15.5018,57.00482 l 0.008,3.77905 -63.39048,0 -63.39048,0 0,-63.63428 z"
           id="path4536"
           inkscape:connector-curvature="0" />
      </g>
    </clipPath>
    <clipPath
       clipPathUnits="userSpaceOnUse"
       id="clipPath4548">
      <g
         id="g4550">
        <path
           style="opacity:1;fill:#db4437;fill-opacity:1;stroke:none;stroke-width:4.97371435;stroke-linecap:round;stroke-linejoin:round;stroke-miterlimit:4;stroke-dasharray:none;stroke-opacity:1"
           d="m 0.3025411,918.87645 c 1.2057173,-19.16706 5.2453813,-34.80774 13.1294409,-50.83429 16.225824,-32.98351 45.401504,-57.1576 80.676544,-66.84614 9.880344,-2.7137 22.307224,-4.58846 30.422524,-4.58964 l 2.80381,-4.1e-4 0,63.63429 0,63.63428 -63.67336,0 -63.6733679,0 0.314409,-4.99809 z"
           id="path4552"
           inkscape:connector-curvature="0" />
        <path
           style="opacity:1;fill:#0f9d58;fill-opacity:1;stroke:none;stroke-width:10.19999981;stroke-linecap:round;stroke-linejoin:round;stroke-miterlimit:4;stroke-dasharray:none;stroke-opacity:1"
           d="m 128.87726,988.3146 0,-63.7086 63.39048,0 63.39048,0 -0.008,3.77905 c -0.0323,14.45347 -4.39178,33.26143 -11.21767,48.39619 -7.67367,17.01451 -19.9753,33.17426 -34.61007,45.46466 -20.75444,17.4298 -47.52036,27.9437 -74.97143,29.4496 l -5.97334,0.3277 0,-63.7086 z"
           id="path4554"
           inkscape:connector-curvature="0" />
        <path
           style="opacity:1;fill:#f4b400;fill-opacity:1;stroke:none;stroke-width:10.19999981;stroke-linecap:round;stroke-linejoin:round;stroke-miterlimit:4;stroke-dasharray:none;stroke-opacity:1"
           d="M 115.632,1051.3451 C 76.977056,1047.6471 42.147076,1026.4088 20.602875,993.39911 8.5831987,974.98273 1.6157437,953.37414 0.26871071,930.33552 l -0.334997,-5.72952 63.70057229,0 63.700574,0 0,63.63428 0,63.63422 -3.77905,-0.066 c -2.07848,-0.037 -5.64419,-0.2448 -7.92381,-0.4629 z"
           id="path4556"
           inkscape:connector-curvature="0" />
        <path
           style="opacity:1;fill:#4285f4;fill-opacity:1;stroke:none;stroke-width:10.19999981;stroke-linecap:round;stroke-linejoin:round;stroke-miterlimit:4;stroke-dasharray:none;stroke-opacity:1"
           d="m 128.87771,860.24026 0,-63.63429 2.87405,0 c 11.33754,0 28.80337,3.43388 41.06917,8.07443 28.50826,10.7856 52.38544,31.50035 67.32749,58.41027 9.28806,16.72734 15.4625,39.43266 15.5018,57.00482 l 0.008,3.77905 -63.39048,0 -63.39048,0 0,-63.63428 z"
           id="path4558"
           inkscape:connector-curvature="0" />
      </g>
    </clipPath>
  </defs>
  <metadata
     id="metadata7">
    <rdf:RDF>
      <cc:Work
         rdf:about="">
        <dc:format>image/svg+xml</dc:format>
        <dc:type
           rdf:resource="http://purl.org/dc/dcmitype/StillImage" />
        <dc:title />
      </cc:Work>
    </rdf:RDF>
  </metadata>
  <g
     inkscape:label="Layer 1"
     inkscape:groupmode="layer"
     id="layer1"
     transform="translate(0,-796.36216)">
    <path
       style="fill:none;fill-rule:evenodd;stroke:none;stroke-width:1px;stroke-linecap:butt;stroke-linejoin:miter;stroke-opacity:1"
       d="M 154.47438,968.80998 101.03985,1048.476 0.4857685,1048.9618 0,842.0244 l 33.032258,-2.42884 45.176471,83.55218 21.373814,35.4611 26.717267,13.11575 z"
       id="path4913"
       inkscape:connector-curvature="0" />
    <g
       id="text4588"
       style="font-style:normal;font-variant:normal;font-weight:bold;font-stretch:normal;font-size:125px;line-height:125%;font-family:sans-serif;-inkscape-font-specification:'sans-serif Bold';letter-spacing:0px;word-spacing:0px;fill:#000000;fill-opacity:1;stroke:none;stroke-width:1px;stroke-linecap:butt;stroke-linejoin:miter;stroke-opacity:1" />
    <g
       style="font-style:normal;font-variant:normal;font-weight:bold;font-stretch:normal;font-size:125px;line-height:125%;font-family:sans-serif;-inkscape-font-specification:'sans-serif Bold';letter-spacing:0px;word-spacing:0px;fill:#ffffff;fill-opacity:1;stroke:none;stroke-width:1px;stroke-linecap:butt;stroke-linejoin:miter;stroke-opacity:1"
       id="text4592" />
    <g
       id="text4596"
       style="font-style:normal;font-weight:normal;font-size:116.48134613px;line-height:125%;font-family:sans-serif;letter-spacing:0px;word-spacing:0px;fill:#ffffff;fill-opacity:1;stroke:none;stroke-width:1px;stroke-linecap:butt;stroke-linejoin:miter;stroke-opacity:1"
       transform="scale(0.8390694,1.1917965)" />
    <g
       id="g4334"
       clip-path="url(#clipPath4548)">
      <path
         style="opacity:1;fill:#db4437;fill-opacity:1;stroke:none;stroke-width:4.97371435;stroke-linecap:round;stroke-linejoin:round;stroke-miterlimit:4;stroke-dasharray:none;stroke-opacity:1"
         d="m 0.3025411,918.87645 c 1.2057173,-19.16706 5.2453813,-34.80774 13.1294409,-50.83429 16.225824,-32.98351 45.401504,-57.1576 80.676544,-66.84614 9.880344,-2.7137 22.307224,-4.58846 30.422524,-4.58964 l 2.80381,-4.1e-4 0,63.63429 0,63.63428 -63.67336,0 -63.6733679,0 0.314409,-4.99809 z"
         id="path4161"
         inkscape:connector-curvature="0" />
      <path
         style="opacity:1;fill:#0f9d58;fill-opacity:1;stroke:none;stroke-width:10.19999981;stroke-linecap:round;stroke-linejoin:round;stroke-miterlimit:4;stroke-dasharray:none;stroke-opacity:1"
         d="m 128.87726,988.3146 0,-63.7086 63.39048,0 63.39048,0 -0.008,3.77905 c -0.0323,14.45347 -4.39178,33.26143 -11.21767,48.39619 -7.67367,17.01451 -19.9753,33.17426 -34.61007,45.46466 -20.75444,17.4298 -47.52036,27.9437 -74.97143,29.4496 l -5.97334,0.3277 0,-63.7086 z"
         id="path4163"
         inkscape:connector-curvature="0" />
      <path
         style="opacity:1;fill:#f4b400;fill-opacity:1;stroke:none;stroke-width:10.19999981;stroke-linecap:round;stroke-linejoin:round;stroke-miterlimit:4;stroke-dasharray:none;stroke-opacity:1"
         d="M 115.632,1051.3451 C 76.977056,1047.6471 42.147076,1026.4088 20.602875,993.39911 8.5831987,974.98273 1.6157437,953.37414 0.26871071,930.33552 l -0.334997,-5.72952 63.70057229,0 63.700574,0 0,63.63428 0,63.63422 -3.77905,-0.066 c -2.07848,-0.037 -5.64419,-0.2448 -7.92381,-0.4629 z"
         id="path4165"
         inkscape:connector-curvature="0" />
      <path
         style="opacity:1;fill:#4285f4;fill-opacity:1;stroke:none;stroke-width:10.19999981;stroke-linecap:round;stroke-linejoin:round;stroke-miterlimit:4;stroke-dasharray:none;stroke-opacity:1"
         d="m 128.87771,63.878095 0,-63.63428548 2.87405,0 c 11.33754,0 28.80337,3.43388288 41.06917,8.07443168 28.50826,10.7855978 52.38544,31.5003538 67.32749,58.4102658 9.28806,16.727342 15.4625,39.432663 15.5018,57.004823 l 0.008,3.77905 -63.39048,0 -63.39048,0 0,-63.634285 z"
         id="path4167"
         inkscape:connector-curvature="0"
         transform="translate(0,796.36216)" />
      <g
         style="fill:#000000;fill-opacity:1"
         id="g4191">
        <g
           style="font-style:normal;font-variant:normal;font-weight:bold;font-stretch:normal;font-size:medium;line-height:125%;font-family:sans-serif;-inkscape-font-specification:'sans-serif Bold';letter-spacing:0px;word-spacing:0px;fill:#000000;fill-opacity:1;stroke:none;stroke-width:1px;stroke-linecap:butt;stroke-linejoin:miter;stroke-opacity:1"
           id="g4193">
          <path
             style="fill:#000000;fill-opacity:1"
             d="M177.37695 831.66297L177.37695 863.64539L-246.887118712 1287.90945871L-246.887118712 1255.92703871Z"
             id="path4195" />
          <path
             style="fill:#000000;fill-opacity:1"
             d="M177.37695 863.64539L145.51562 863.64539L-278.748448712 1287.90945871L-246.887118712 1287.90945871Z"
             id="path4197" />
          <path
             style="fill:#000000;fill-opacity:1"
             d="M145.51562 863.64539L145.51562 878.04969L-278.748448712 1302.31375871L-278.748448712 1287.90945871Z"
             id="path4199" />
          <path
             style="fill:#000000;fill-opacity:1"
             d="M145.51562 878.04969L177.37695 878.04969L-246.887118712 1302.31375871L-278.748448712 1302.31375871Z"
             id="path4201" />
          <path
             style="fill:#000000;fill-opacity:1"
             d="M177.37695 878.04969L177.37695 910.03211L-246.887118712 1334.29617871L-246.887118712 1302.31375871Z"
             id="path4203" />
          <path
             style="fill:#000000;fill-opacity:1"
             d="M177.37695 910.03211L191.90234 910.03211L-232.361728712 1334.29617871L-246.887118712 1334.29617871Z"
             id="path4205" />
          <path
             style="fill:#000000;fill-opacity:1"
             d="M191.90234 910.03211L191.90234 878.04969L-232.361728712 1302.31375871L-232.361728712 1334.29617871Z"
             id="path4207" />
          <path
             style="fill:#000000;fill-opacity:1"
             d="M191.90234 878.04969L223.76367 878.04969L-200.500398712 1302.31375871L-232.361728712 1302.31375871Z"
             id="path4209" />
          <path
             style="fill:#000000;fill-opacity:1"
             d="M223.76367 878.04969L223.76367 863.64539L-200.500398712 1287.90945871L-200.500398712 1302.31375871Z"
             id="path4211" />
          <path
             style="fill:#000000;fill-opacity:1"
             d="M223.76367 863.64539L191.90234 863.64539L-232.361728712 1287.90945871L-200.500398712 1287.90945871Z"
             id="path4213" />
          <path
             style="fill:#000000;fill-opacity:1"
             d="M191.90234 863.64539L191.90234 831.66297L-232.361728712 1255.92703871L-232.361728712 1287.90945871Z"
             id="path4215" />
          <path
             style="fill:#000000;fill-opacity:1"
             d="M191.90234 831.66297L177.37695 831.66297L-246.887118712 1255.92703871L-232.361728712 1255.92703871Z"
             id="path4217" />
          <path
             style="fill:#000000;fill-opacity:1"
             d="M42.271484 863.43055L42.271484 877.28992L-381.992584712 1301.55398871L-381.992584712 1287.69461871Z"
             id="path4219" />
          <path
             style="fill:#000000;fill-opacity:1"
             d="M42.271484 877.28992L106.44531 877.28992L-317.818758712 1301.55398871L-381.992584712 1301.55398871Z"
             id="path4221" />
          <path
             style="fill:#000000;fill-opacity:1"
             d="M106.44531 877.28992L106.44531 863.43055L-317.818758712 1287.69461871L-317.818758712 1301.55398871Z"
             id="path4223" />
          <path
             style="fill:#000000;fill-opacity:1"
             d="M106.44531 863.43055L42.271484 863.43055L-381.992584712 1287.69461871L-317.818758712 1287.69461871Z"
             id="path4225" />
          <path
             style="fill:#000000;fill-opacity:1"
             d="M68.240234 943.75477L47.513672 944.24305L-376.750396712 1368.50711871L-356.023834712 1368.01883871Z"
             id="path4227" />
          <path
             style="fill:#000000;fill-opacity:1"
             d="M47.513672 944.24305L68.240234 977.14149L-356.023834712 1401.40555871L-376.750396712 1368.50711871Z"
             id="path4229" />
          <path
             style="fill:#000000;fill-opacity:1"
             d="M68.240234 977.14149L47.513672 1012.1141L-376.750396712 1436.37816871L-356.023834712 1401.40555871Z"
             id="path4231" />
          <path
             style="fill:#000000;fill-opacity:1"
             d="M47.513672 1012.1141L68.240234 1012.1141L-356.023834712 1436.37816871L-376.750396712 1436.37816871Z"
             id="path4233" />
          <path
             style="fill:#000000;fill-opacity:1"
             d="M68.240234 1012.1141L80.601562 990.50867L-343.662506712 1414.77273871L-356.023834712 1436.37816871Z"
             id="path4235" />
          <path
             style="fill:#000000;fill-opacity:1"
             d="M80.601562 990.50867L93.421875 1012.1141L-330.842193712 1436.37816871L-343.662506712 1414.77273871Z"
             id="path4237" />
          <path
             style="fill:#000000;fill-opacity:1"
             d="M93.421875 1012.1141L115.08984 1012.6024L-309.174228712 1436.86646871L-330.842193712 1436.37816871Z"
             id="path4239" />
          <path
             style="fill:#000000;fill-opacity:1"
             d="M115.08984 1012.6024L93.421875 977.02039L-330.842193712 1401.28445871L-309.174228712 1436.86646871Z"
             id="path4241" />
          <path
             style="fill:#000000;fill-opacity:1"
             d="M93.421875 977.02039L115.08984 943.75477L-309.174228712 1368.01883871L-330.842193712 1401.28445871Z"
             id="path4243" />
          <path
             style="fill:#000000;fill-opacity:1"
             d="M115.08984 943.75477L93.421875 943.75477L-330.842193712 1368.01883871L-309.174228712 1368.01883871Z"
             id="path4245" />
          <path
             style="fill:#000000;fill-opacity:1"
             d="M93.421875 943.75477L80.601562 964.01844L-343.662506712 1388.28250871L-330.842193712 1368.01883871Z"
             id="path4247" />
          <path
             style="fill:#000000;fill-opacity:1"
             d="M80.601562 964.01844L68.240234 943.75477L-356.023834712 1368.01883871L-343.662506712 1388.28250871Z"
             id="path4249" />
          <path
             style="fill:#000000;fill-opacity:1"
             d="M154.29297 956.39539L153.80469 970.22157L-270.459378712 1394.48563871L-269.971098712 1380.65945871Z"
             id="path4251" />
          <path
             style="fill:#000000;fill-opacity:1"
             d="M153.80469 970.22157L214.98633 970.22157L-209.277738712 1394.48563871L-270.459378712 1394.48563871Z"
             id="path4253" />
          <path
             style="fill:#000000;fill-opacity:1"
             d="M214.98633 970.22157L215.47266 956.39539L-208.791408712 1380.65945871L-209.277738712 1394.48563871Z"
             id="path4255" />
          <path
             style="fill:#000000;fill-opacity:1"
             d="M215.47266 956.39539L154.29297 956.39539L-269.971098712 1380.65945871L-208.791408712 1380.65945871Z"
             id="path4257" />
          <path
             style="fill:#000000;fill-opacity:1"
             d="M154.78125 981.61219L154.29297 995.57508L-269.971098712 1419.83914871L-269.482818712 1405.87625871Z"
             id="path4259" />
          <path
             style="fill:#000000;fill-opacity:1"
             d="M154.29297 995.57508L215.47266 995.57508L-208.791408712 1419.83914871L-269.971098712 1419.83914871Z"
             id="path4261" />
          <path
             style="fill:#000000;fill-opacity:1"
             d="M215.47266 995.57508L215.47266 981.61219L-208.791408712 1405.87625871L-208.791408712 1419.83914871Z"
             id="path4263" />
          <path
             style="fill:#000000;fill-opacity:1"
             d="M215.47266 981.61219L154.78125 981.61219L-269.482818712 1405.87625871L-208.791408712 1405.87625871Z"
             id="path4265" />
        </g>
        <path
           style="font-style:normal;font-variant:normal;font-weight:bold;font-stretch:normal;font-size:medium;line-height:125%;font-family:sans-serif;-inkscape-font-specification:'sans-serif Bold';letter-spacing:0px;word-spacing:0px;fill:#000000;fill-opacity:1;stroke:none;stroke-width:1px;stroke-linecap:butt;stroke-linejoin:miter;stroke-opacity:1"
           inkscape:connector-curvature="0"
           id="path5320"
           d="m 177.37695,831.66297 0,31.98242 -31.86133,0 0,14.4043 31.86133,0 0,31.98242 14.52539,0 0,-31.98242 31.86133,0 0,-14.4043 -31.86133,0 0,-31.98242 -14.52539,0 z m -135.105466,31.76758 0,13.85937 64.173826,0 0,-13.85937 -64.173826,0 z m 25.96875,80.32422 -20.726562,0.48828 20.726562,32.89844 -20.726562,34.97261 20.726562,0 12.361328,-21.60543 12.820313,21.60543 21.667965,0.4883 -21.667965,-35.58201 21.667965,-33.26562 -21.667965,0 -12.820313,20.26367 -12.361328,-20.26367 z m 86.052736,12.64062 -0.48828,13.82618 61.18164,0 0.48633,-13.82618 -61.17969,0 z m 0.48828,25.2168 -0.48828,13.96289 61.17969,0 0,-13.96289 -60.69141,0 z" />
      </g>
    </g>
    <g
       id="g4510">
      <path
         inkscape:connector-curvature="0"
         id="path4381"
         d="m 0.3025411,918.87645 c 1.2057173,-19.16706 5.2453813,-34.80774 13.1294409,-50.83429 16.225824,-32.98351 45.401504,-57.1576 80.676544,-66.84614 9.880344,-2.7137 22.307224,-4.58846 30.422524,-4.58964 l 2.80381,-4.1e-4 0,63.63429 0,63.63428 -63.67336,0 -63.6733679,0 0.314409,-4.99809 z"
         style="opacity:1;fill:#db4437;fill-opacity:1;stroke:none;stroke-width:4.97371435;stroke-linecap:round;stroke-linejoin:round;stroke-miterlimit:4;stroke-dasharray:none;stroke-opacity:1" />
      <path
         inkscape:connector-curvature="0"
         id="path4383"
         d="m 128.87726,988.3146 0,-63.7086 63.39048,0 63.39048,0 -0.008,3.77905 c -0.0323,14.45347 -4.39178,33.26143 -11.21767,48.39619 -7.67367,17.01451 -19.9753,33.17426 -34.61007,45.46466 -20.75444,17.4298 -47.52036,27.9437 -74.97143,29.4496 l -5.97334,0.3277 0,-63.7086 z"
         style="opacity:1;fill:#0f9d58;fill-opacity:1;stroke:none;stroke-width:10.19999981;stroke-linecap:round;stroke-linejoin:round;stroke-miterlimit:4;stroke-dasharray:none;stroke-opacity:1" />
      <path
         inkscape:connector-curvature="0"
         id="path4385"
         d="M 115.632,1051.3451 C 76.977056,1047.6471 42.147076,1026.4088 20.602875,993.39911 8.5831987,974.98273 1.6157437,953.37414 0.26871071,930.33552 l -0.334997,-5.72952 63.70057229,0 63.700574,0 0,63.63428 0,63.63422 -3.77905,-0.066 c -2.07848,-0.037 -5.64419,-0.2448 -7.92381,-0.4629 z"
         style="opacity:1;fill:#f4b400;fill-opacity:1;stroke:none;stroke-width:10.19999981;stroke-linecap:round;stroke-linejoin:round;stroke-miterlimit:4;stroke-dasharray:none;stroke-opacity:1" />
      <path
         inkscape:connector-curvature="0"
         id="path4387"
         d="m 128.87771,860.24026 0,-63.63429 2.87405,0 c 11.33754,0 28.80337,3.43388 41.06917,8.07443 28.50826,10.7856 52.38544,31.50035 67.32749,58.41027 9.28806,16.72734 15.4625,39.43266 15.5018,57.00482 l 0.008,3.77905 -63.39048,0 -63.39048,0 0,-63.63428 z"
         style="opacity:1;fill:#4285f4;fill-opacity:1;stroke:none;stroke-width:10.19999981;stroke-linecap:round;stroke-linejoin:round;stroke-miterlimit:4;stroke-dasharray:none;stroke-opacity:1" />
    </g>
    <g
       id="g4327">
      <g
         clip-path="url(#clipPath4526)"
         id="g4389"
         style="fill:#1d1818;fill-opacity:0.27272728">
        <g
           id="g4391"
           style="font-style:normal;font-variant:normal;font-weight:bold;font-stretch:normal;font-size:medium;line-height:125%;font-family:sans-serif;-inkscape-font-specification:'sans-serif Bold';letter-spacing:0px;word-spacing:0px;fill:#1d1818;fill-opacity:0.27272728;stroke:none;stroke-width:1px;stroke-linecap:butt;stroke-linejoin:miter;stroke-opacity:1">
          <path
             id="path4393"
             d="m 177.37695,831.66297 0,31.98242 -424.26407,424.26411 0,-31.9825 z"
             style="fill:#1d1818;fill-opacity:0.27272728"
             inkscape:connector-curvature="0" />
          <path
             id="path4395"
             d="m 177.37695,863.64539 -31.86133,0 -424.26407,424.26411 31.86133,0 z"
             style="fill:#1d1818;fill-opacity:0.27272728"
             inkscape:connector-curvature="0" />
          <path
             id="path4397"
             d="m 145.51562,863.64539 0,14.4043 -424.26407,424.26411 0,-14.4043 z"
             style="fill:#1d1818;fill-opacity:0.27272728"
             inkscape:connector-curvature="0" />
          <path
             id="path4399"
             d="m 145.51562,878.04969 31.86133,0 -424.26407,424.26411 -31.86133,0 z"
             style="fill:#1d1818;fill-opacity:0.27272728"
             inkscape:connector-curvature="0" />
          <path
             id="path4401"
             d="m 177.37695,878.04969 0,31.98242 -424.26407,424.26409 0,-31.9824 z"
             style="fill:#1d1818;fill-opacity:0.27272728"
             inkscape:connector-curvature="0" />
          <path
             id="path4403"
             d="m 177.37695,910.03211 14.52539,0 -424.26407,424.26409 -14.52539,0 z"
             style="fill:#1d1818;fill-opacity:0.27272728"
             inkscape:connector-curvature="0" />
          <path
             id="path4405"
             d="m 191.90234,910.03211 0,-31.98242 -424.26407,424.26411 0,31.9824 z"
             style="fill:#1d1818;fill-opacity:0.27272728"
             inkscape:connector-curvature="0" />
          <path
             id="path4407"
             d="m 191.90234,878.04969 31.86133,0 -424.26407,424.26411 -31.86133,0 z"
             style="fill:#1d1818;fill-opacity:0.27272728"
             inkscape:connector-curvature="0" />
          <path
             id="path4409"
             d="m 223.76367,878.04969 0,-14.4043 -424.26407,424.26411 0,14.4043 z"
             style="fill:#1d1818;fill-opacity:0.27272728"
             inkscape:connector-curvature="0" />
          <path
             id="path4411"
             d="m 223.76367,863.64539 -31.86133,0 -424.26407,424.26411 31.86133,0 z"
             style="fill:#1d1818;fill-opacity:0.27272728"
             inkscape:connector-curvature="0" />
          <path
             id="path4413"
             d="m 191.90234,863.64539 0,-31.98242 -424.26407,424.26403 0,31.9825 z"
             style="fill:#1d1818;fill-opacity:0.27272728"
             inkscape:connector-curvature="0" />
          <path
             id="path4415"
             d="m 191.90234,831.66297 -14.52539,0 -424.26407,424.26403 14.52539,0 z"
             style="fill:#1d1818;fill-opacity:0.27272728"
             inkscape:connector-curvature="0" />
          <path
             id="path4417"
             d="m 42.271484,863.43055 0,13.85937 -424.264064,424.26408 0,-13.8594 z"
             style="fill:#1d1818;fill-opacity:0.27272728"
             inkscape:connector-curvature="0" />
          <path
             id="path4419"
             d="m 42.271484,877.28992 64.173826,0 -424.26407,424.26408 -64.17382,0 z"
             style="fill:#1d1818;fill-opacity:0.27272728"
             inkscape:connector-curvature="0" />
          <path
             id="path4421"
             d="m 106.44531,877.28992 0,-13.85937 -424.26407,424.26405 0,13.8594 z"
             style="fill:#1d1818;fill-opacity:0.27272728"
             inkscape:connector-curvature="0" />
          <path
             id="path4423"
             d="m 106.44531,863.43055 -64.173826,0 -424.264064,424.26405 64.17382,0 z"
             style="fill:#1d1818;fill-opacity:0.27272728"
             inkscape:connector-curvature="0" />
          <path
             id="path4425"
             d="m 68.240234,943.75477 -20.726562,0.48828 -424.264072,424.26405 20.72657,-0.4883 z"
             style="fill:#1d1818;fill-opacity:0.27272728"
             inkscape:connector-curvature="0" />
          <path
             id="path4427"
             d="m 47.513672,944.24305 20.726562,32.89844 -424.264064,424.26411 -20.72657,-32.8985 z"
             style="fill:#1d1818;fill-opacity:0.27272728"
             inkscape:connector-curvature="0" />
          <path
             id="path4429"
             d="m 68.240234,977.14149 -20.726562,34.97261 -424.264072,424.2641 20.72657,-34.9726 z"
             style="fill:#1d1818;fill-opacity:0.27272728"
             inkscape:connector-curvature="0" />
          <path
             id="path4431"
             d="m 47.513672,1012.1141 20.726562,0 -424.264064,424.2641 -20.72657,0 z"
             style="fill:#1d1818;fill-opacity:0.27272728"
             inkscape:connector-curvature="0" />
          <path
             id="path4433"
             d="m 68.240234,1012.1141 12.361328,-21.60543 -424.264072,424.26403 -12.36132,21.6055 z"
             style="fill:#1d1818;fill-opacity:0.27272728"
             inkscape:connector-curvature="0" />
          <path
             id="path4435"
             d="m 80.601562,990.50867 12.820313,21.60543 -424.264065,424.2641 -12.82032,-21.6055 z"
             style="fill:#1d1818;fill-opacity:0.27272728"
             inkscape:connector-curvature="0" />
          <path
             id="path4437"
             d="m 93.421875,1012.1141 21.667965,0.4883 -424.26407,424.2641 -21.66796,-0.4883 z"
             style="fill:#1d1818;fill-opacity:0.27272728"
             inkscape:connector-curvature="0" />
          <path
             id="path4439"
             d="m 115.08984,1012.6024 -21.667965,-35.58201 -424.264065,424.26411 21.66796,35.582 z"
             style="fill:#1d1818;fill-opacity:0.27272728"
             inkscape:connector-curvature="0" />
          <path
             id="path4441"
             d="m 93.421875,977.02039 21.667965,-33.26562 -424.26407,424.26403 -21.66796,33.2657 z"
             style="fill:#1d1818;fill-opacity:0.27272728"
             inkscape:connector-curvature="0" />
          <path
             id="path4443"
             d="m 115.08984,943.75477 -21.667965,0 -424.264065,424.26403 21.66796,0 z"
             style="fill:#1d1818;fill-opacity:0.27272728"
             inkscape:connector-curvature="0" />
          <path
             id="path4445"
             d="m 93.421875,943.75477 -12.820313,20.26367 -424.264072,424.26406 12.82032,-20.2637 z"
             style="fill:#1d1818;fill-opacity:0.27272728"
             inkscape:connector-curvature="0" />
          <path
             id="path4447"
             d="m 80.601562,964.01844 -12.361328,-20.26367 -424.264064,424.26403 12.36132,20.2637 z"
             style="fill:#1d1818;fill-opacity:0.27272728"
             inkscape:connector-curvature="0" />
          <path
             id="path4449"
             d="m 154.29297,956.39539 -0.48828,13.82618 -424.26407,424.26403 0.48828,-13.8261 z"
             style="fill:#1d1818;fill-opacity:0.27272728"
             inkscape:connector-curvature="0" />
          <path
             id="path4451"
             d="m 153.80469,970.22157 61.18164,0 -424.26407,424.26403 -61.18164,0 z"
             style="fill:#1d1818;fill-opacity:0.27272728"
             inkscape:connector-curvature="0" />
          <path
             id="path4453"
             d="m 214.98633,970.22157 0.48633,-13.82618 -424.26407,424.26411 -0.48633,13.8261 z"
             style="fill:#1d1818;fill-opacity:0.27272728"
             inkscape:connector-curvature="0" />
          <path
             id="path4455"
             d="m 215.47266,956.39539 -61.17969,0 -424.26407,424.26411 61.17969,0 z"
             style="fill:#1d1818;fill-opacity:0.27272728"
             inkscape:connector-curvature="0" />
          <path
             id="path4457"
             d="m 154.78125,981.61219 -0.48828,13.96289 -424.26407,424.26402 0.48828,-13.9628 z"
             style="fill:#1d1818;fill-opacity:0.27272728"
             inkscape:connector-curvature="0" />
          <path
             id="path4459"
             d="m 154.29297,995.57508 61.17969,0 -424.26407,424.26402 -61.17969,0 z"
             style="fill:#1d1818;fill-opacity:0.27272728"
             inkscape:connector-curvature="0" />
          <path
             id="path4461"
             d="m 215.47266,995.57508 0,-13.96289 -424.26407,424.26411 0,13.9628 z"
             style="fill:#1d1818;fill-opacity:0.27272728"
             inkscape:connector-curvature="0" />
          <path
             id="path4463"
             d="m 215.47266,981.61219 -60.69141,0 -424.26407,424.26411 60.69141,0 z"
             style="fill:#1d1818;fill-opacity:0.27272728"
             inkscape:connector-curvature="0" />
        </g>
        <path
           d="m 177.37695,831.66297 0,31.98242 -31.86133,0 0,14.4043 31.86133,0 0,31.98242 14.52539,0 0,-31.98242 31.86133,0 0,-14.4043 -31.86133,0 0,-31.98242 -14.52539,0 z m -135.105466,31.76758 0,13.85937 64.173826,0 0,-13.85937 -64.173826,0 z m 25.96875,80.32422 -20.726562,0.48828 20.726562,32.89844 -20.726562,34.97261 20.726562,0 12.361328,-21.60543 12.820313,21.60543 21.667965,0.4883 -21.667965,-35.58201 21.667965,-33.26562 -21.667965,0 -12.820313,20.26367 -12.361328,-20.26367 z m 86.052736,12.64062 -0.48828,13.82618 61.18164,0 0.48633,-13.82618 -61.17969,0 z m 0.48828,25.2168 -0.48828,13.96289 61.17969,0 0,-13.96289 -60.69141,0 z"
           id="path4465"
           inkscape:connector-curvature="0"
           style="font-style:normal;font-variant:normal;font-weight:bold;font-stretch:normal;font-size:medium;line-height:125%;font-family:sans-serif;-inkscape-font-specification:'sans-serif Bold';letter-spacing:0px;word-spacing:0px;fill:#1d1818;fill-opacity:0.27272728;stroke:none;stroke-width:1px;stroke-linecap:butt;stroke-linejoin:miter;stroke-opacity:1" />
      </g>
    </g>
    <g
       id="g4157"
       style="font-style:normal;font-variant:normal;font-weight:bold;font-stretch:normal;font-size:142.87913513px;line-height:125%;font-family:sans-serif;-inkscape-font-specification:'sans-serif Bold';letter-spacing:0px;word-spacing:0px;fill:#ffffff;fill-opacity:1;stroke:none;stroke-width:1px;stroke-linecap:butt;stroke-linejoin:miter;stroke-opacity:1"
       transform="matrix(1.4647378,0,0,0.68271605,-1.7749558e-6,-1.4628568)">
      <path
         inkscape:connector-curvature="0"
         d="m 177.37695,35.300781 0,31.982422 -31.86133,0 0,14.404297 31.86133,0 0,31.98242 14.52539,0 0,-31.98242 31.86133,0 0,-14.404297 -31.86133,0 0,-31.982422 -14.52539,0 z m -135.105466,31.767578 0,13.859375 64.173826,0 0,-13.859375 -64.173826,0 z m 25.96875,80.324221 -20.726562,0.48828 20.726562,32.89844 -20.726562,34.97265 20.726562,0 12.361328,-21.60547 12.820313,21.60547 21.667965,0.48828 -21.667965,-35.58203 21.667965,-33.26562 -21.667965,0 -12.820313,20.26367 -12.361328,-20.26367 z m 86.052736,12.64062 -0.48828,13.82618 61.18164,0 0.48633,-13.82618 -61.17969,0 z m 0.48828,25.2168 -0.48828,13.96289 61.17969,0 0,-13.96289 -60.69141,0 z"
         transform="matrix(0.68271605,0,0,1.4647378,0,1166.4618)"
         id="path4159" />
    </g>
  </g>
</svg>
