<?xml version="1.0" encoding="UTF-8" standalone="no"?>
<!-- Created with Inkscape (http://www.inkscape.org/) -->

<svg
   xmlns:dc="http://purl.org/dc/elements/1.1/"
   xmlns:cc="http://creativecommons.org/ns#"
   xmlns:rdf="http://www.w3.org/1999/02/22-rdf-syntax-ns#"
   xmlns:svg="http://www.w3.org/2000/svg"
   xmlns="http://www.w3.org/2000/svg"
   xmlns:sodipodi="http://sodipodi.sourceforge.net/DTD/sodipodi-0.dtd"
   xmlns:inkscape="http://www.inkscape.org/namespaces/inkscape"
   sodipodi:docname="gnome-software.svg"
   inkscape:version="0.91 r13725"
   version="1.1"
   id="svg2"
   viewBox="0 0 256 256"
   height="256"
   width="256">
  <sodipodi:namedview
     inkscape:window-maximized="1"
     inkscape:window-y="0"
     inkscape:window-x="0"
     inkscape:window-height="721"
     inkscape:window-width="1366"
     units="px"
     showgrid="true"
     inkscape:current-layer="layer1"
     inkscape:document-units="px"
     inkscape:cy="128"
     inkscape:cx="128"
     inkscape:zoom="2.0507812"
     inkscape:pageshadow="2"
     inkscape:pageopacity="0.0"
     borderopacity="1.0"
     bordercolor="#666666"
     pagecolor="#ffffff"
     id="base">
    <inkscape:grid
       type="xygrid"
       id="grid4168"
       spacingx="5"
       spacingy="5" />
  </sodipodi:namedview>
  <defs
     id="defs4">
    <clipPath
       clipPathUnits="userSpaceOnUse"
       id="clipPath5002">
      <g
         id="g5004">
        <path
           transform="translate(0,796.36216)"
           inkscape:connector-curvature="0"
           id="path5006"
           d="M 88.118406,249.43519 C 46.103287,235.29134 14.771284,201.68742 4.1335861,159.36053 1.3377997,148.23623 0.92261224,144.16281 0.92582381,127.88908 0.92787958,117.47222 1.134384,112.01362 1.6577819,108.54099 4.4653598,89.913336 12.17654,70.638106 23.042737,55.086148 c 3.958678,-5.665755 8.344812,-10.93092 9.101533,-10.925587 0.32809,0.0023 10.488643,18.309713 22.579009,40.683112 12.090365,22.373397 22.374546,41.334697 22.853732,42.136217 0.479186,0.80151 0.924733,2.44098 0.990103,3.64326 0.343424,6.31639 2.524175,14.20976 5.6424,20.42304 2.954444,5.88693 5.065381,8.73258 10.434696,14.06652 6.71418,6.66995 12.88853,10.28643 21.73204,12.72904 3.16587,0.87442 5.10478,1.05037 11.57517,1.05037 8.82596,0 12.60219,-0.76201 19.26429,-3.88733 2.04584,-0.95974 3.93661,-1.66536 4.20172,-1.56805 0.2651,0.0973 -11.0555,17.66459 -25.1569,39.0384 l -25.6389,38.86148 -3.094121,0.11221 c -2.554618,0.0927 -4.195204,-0.25845 -9.409103,-2.01364 z"
           style="fill:#0f9d58;fill-opacity:1;stroke:none;stroke-width:4.85768509;stroke-linejoin:round;stroke-miterlimit:4;stroke-dasharray:none;stroke-opacity:1" />
        <path
           inkscape:connector-curvature="0"
           id="path5008"
           d="m 112.35984,1051.5167 c -10.0014,-1.4495 -12.15632,-1.8201 -12.531784,-2.1556 -0.248854,-0.2223 1.738304,-3.7475 4.550294,-8.0722 7.16635,-11.0213 49.77231,-74.64801 50.25856,-75.05489 3.57509,-2.99158 8.63523,-8.0414 10.57512,-10.55356 3.36154,-4.35318 7.55784,-12.9141 9.06523,-18.494 6.19314,-22.92535 -2.59253,-47.15185 -21.69967,-59.83688 l -2.96081,-1.96565 17.02469,0.29584 c 9.36358,0.1627 31.17032,0.43384 48.45941,0.60252 l 31.43471,0.30668 1.54584,4.18869 c 2.24597,6.08579 4.67816,15.0947 5.93451,21.9816 1.52517,8.36049 1.92536,28.85896 0.73851,37.82758 -3.0805,23.27845 -12.81326,45.72018 -27.80202,64.10577 -20.47622,25.1166 -51.4599,42.1974 -84.14612,46.3885 -5.31244,0.6812 -26.64601,0.9864 -30.44647,0.4356 z"
           style="fill:#f4b400;fill-opacity:1;stroke:none;stroke-width:4.85768509;stroke-linejoin:round;stroke-miterlimit:4;stroke-dasharray:none;stroke-opacity:1" />
        <path
           transform="translate(0,796.36216)"
           inkscape:connector-curvature="0"
           id="path5010"
           d="M 67.989788,108.87302 C 41.284246,59.575543 33.290284,45.149038 32.233625,44.344765 31.651257,43.901497 32.811213,42.549931 38.695603,36.815353 53.43581,22.450419 68.809334,13.040746 87.839196,6.7360352 101.68742,2.1480329 112.58238,0.43719165 127.95142,0.43719165 c 21.3099,0 37.80488,3.80960275 56.83492,13.12633035 25.29351,12.383198 46.19421,33.578863 58.51993,59.345832 1.61138,3.368591 2.92978,6.372442 2.92978,6.675231 0,0.560033 -10.54865,0.49527 -71.16508,-0.436914 l -24.28843,-0.373518 -3.93063,-1.764495 c -6.75732,-3.033425 -10.64587,-3.839529 -18.6576,-3.867747 -5.0296,-0.01773 -7.97946,0.207636 -10.31642,0.788106 -14.50826,3.603659 -26.283291,12.94777 -33.291614,26.418653 -3.58502,6.89086 -5.24713,13.08166 -6.331628,23.58317 l -0.33738,3.26696 -9.92748,-18.32578 z"
           style="fill:#db4437;fill-opacity:1;stroke:none;stroke-width:10;stroke-linejoin:round;stroke-miterlimit:4;stroke-dasharray:none;stroke-opacity:1" />
      </g>
    </clipPath>
    <clipPath
       id="clipPath4271"
       clipPathUnits="userSpaceOnUse">
      <circle
         r="128"
         cy="128.00002"
         cx="128"
         id="circle4273"
         style="fill:#292929;fill-opacity:0.26020412;stroke:none;stroke-width:10;stroke-linejoin:round;stroke-miterlimit:4;stroke-dasharray:none;stroke-opacity:0.25882353" />
    </clipPath>
    <clipPath
       clipPathUnits="userSpaceOnUse"
       id="clipPath4363">
      <circle
         r="128"
         cy="924.36218"
         cx="128"
         id="circle4365"
         style="fill:#4285f4;fill-opacity:1;stroke:none;stroke-width:10;stroke-linejoin:round;stroke-miterlimit:4;stroke-dasharray:none;stroke-opacity:0.25882353" />
    </clipPath>
    <clipPath
       id="clipPath4452"
       clipPathUnits="userSpaceOnUse">
      <circle
         r="128"
         cy="924.36218"
         cx="128"
         id="circle4454"
         style="fill:#4285f4;fill-opacity:1;stroke:none;stroke-width:10;stroke-linejoin:round;stroke-miterlimit:4;stroke-dasharray:none;stroke-opacity:0.25882353" />
    </clipPath>
    <clipPath
       clipPathUnits="userSpaceOnUse"
       id="clipPath5177">
      <circle
         r="128"
         cy="924.36218"
         cx="128"
         id="circle5179"
         style="fill:#4285f4;fill-opacity:1;stroke:none;stroke-width:10;stroke-linejoin:round;stroke-miterlimit:4;stroke-dasharray:none;stroke-opacity:0.25882353" />
    </clipPath>
    <clipPath
       id="clipPath4342"
       clipPathUnits="userSpaceOnUse">
      <circle
         r="128"
         cy="933.48718"
         cx="128"
         id="circle4344"
         style="fill:#4285f4;fill-opacity:1;stroke:none;stroke-width:10;stroke-linejoin:round;stroke-miterlimit:4;stroke-dasharray:none;stroke-opacity:0.25882353" />
    </clipPath>
    <clipPath
       clipPathUnits="userSpaceOnUse"
       id="clipPath4677">
      <circle
         r="128"
         cy="928.36218"
         cx="119.54858"
         id="circle4679"
         style="fill:#7c9fc8;fill-opacity:1;stroke:none;stroke-width:10;stroke-linejoin:round;stroke-miterlimit:4;stroke-dasharray:none;stroke-opacity:0.25882353" />
    </clipPath>
  </defs>
  <metadata
     id="metadata7">
    <rdf:RDF>
      <cc:Work
         rdf:about="">
        <dc:format>image/svg+xml</dc:format>
        <dc:type
           rdf:resource="http://purl.org/dc/dcmitype/StillImage" />
        <dc:title />
      </cc:Work>
    </rdf:RDF>
  </metadata>
  <g
     transform="translate(0,-796.36216)"
     id="layer1"
     inkscape:groupmode="layer"
     inkscape:label="Layer 1">
    <path
       inkscape:connector-curvature="0"
       id="path4913"
       d="M 154.47438,968.80998 101.03985,1048.476 0.4857685,1048.9618 0,842.0244 l 33.032258,-2.42884 45.176471,83.55218 21.373814,35.4611 26.717267,13.11575 z"
       style="fill:none;fill-rule:evenodd;stroke:none;stroke-width:1px;stroke-linecap:butt;stroke-linejoin:miter;stroke-opacity:1" />
    <circle
       style="fill:#7c9fc8;fill-opacity:1;stroke:none;stroke-width:10;stroke-linejoin:round;stroke-miterlimit:4;stroke-dasharray:none;stroke-opacity:0.25882353"
       id="path4152"
       cx="128"
       cy="924.36218"
       r="128" />
    <text
       sodipodi:linespacing="125%"
       id="text4914"
       y="927.36218"
       x="120"
       style="font-style:normal;font-weight:normal;font-size:40px;line-height:125%;font-family:sans-serif;letter-spacing:0px;word-spacing:0px;fill:#000000;fill-opacity:1;stroke:none;stroke-width:1px;stroke-linecap:butt;stroke-linejoin:miter;stroke-opacity:1"
       xml:space="preserve"><tspan
         y="927.36218"
         x="120"
         id="tspan4916"
         sodipodi:role="line" /></text>
    <g
       transform="translate(8.4514198,-4.0000226)"
       id="g4223"
       style="fill:#607997;fill-opacity:1"
       clip-path="url(#clipPath4677)">
      <g
         id="g4289"
         style="fill:#607997;fill-opacity:1">
        <g
           id="g4291"
           style="opacity:1;fill:#607997;fill-opacity:1;stroke:none;stroke-width:10.19999981;stroke-linecap:round;stroke-linejoin:round;stroke-miterlimit:4;stroke-dasharray:none;stroke-opacity:1">
          <path
             id="path4293"
             d="M45.420098 853.36218L83.677054 853.36218L-340.587014712 1277.62624871L-378.843970712 1277.62624871Z"
             style="fill:#607997;fill-opacity:1" />
          <path
             id="path4295"
             d="M83.677054 853.36218C84.159878 853.36218 84.548576 853.75088 84.548576 854.2337L-339.715492712 1278.49776871C-339.715492712 1278.01494871 -340.104190712 1277.62624871 -340.587014712 1277.62624871Z"
             style="fill:#607997;fill-opacity:1" />
          <path
             id="path4297"
             d="M84.548576 854.2337L84.548576 892.49066L-339.715492712 1316.75472871L-339.715492712 1278.49776871Z"
             style="fill:#607997;fill-opacity:1" />
          <path
             id="path4299"
             d="M84.548576 892.49066C84.548576 892.73207 84.4514015 892.94995 84.293874 893.1074775L-339.970194712 1317.37154621C-339.812667212 1317.21401871 -339.715492712 1316.99613871 -339.715492712 1316.75472871Z"
             style="fill:#607997;fill-opacity:1" />
          <path
             id="path4301"
             d="M84.293874 893.1074775C84.1363465 893.265005 83.918466 893.36218 83.677054 893.36218L-340.587014712 1317.62624871C-340.345602712 1317.62624871 -340.127722212 1317.52907371 -339.970194712 1317.37154621Z"
             style="fill:#607997;fill-opacity:1" />
          <path
             id="path4303"
             d="M83.677054 893.36218L45.420098 893.36218L-378.843970712 1317.62624871L-340.587014712 1317.62624871Z"
             style="fill:#607997;fill-opacity:1" />
          <path
             id="path4305"
             d="M45.420098 893.36218C44.937275 893.36218 44.548576 892.97348 44.548576 892.49066L-379.715492712 1316.75472871C-379.715492712 1317.23754871 -379.326793712 1317.62624871 -378.843970712 1317.62624871Z"
             style="fill:#607997;fill-opacity:1" />
          <path
             id="path4307"
             d="M44.548576 892.49066L44.548576 854.2337L-379.715492712 1278.49776871L-379.715492712 1316.75472871Z"
             style="fill:#607997;fill-opacity:1" />
          <path
             id="path4309"
             d="M44.548576 854.2337C44.548576 853.992290125 44.6457506494 853.774410226 44.8032781303 853.616882745L-379.460790582 1277.88095146C-379.618318063 1278.03847894 -379.715492712 1278.25635884 -379.715492712 1278.49776871Z"
             style="fill:#607997;fill-opacity:1" />
          <path
             id="path4311"
             d="M44.8032781303 853.616882745C44.9608057744 853.459355101 45.178686375 853.36218 45.420098 853.36218L-378.843970712 1277.62624871C-379.085382337 1277.62624871 -379.303262938 1277.72342381 -379.460790582 1277.88095146Z"
             style="fill:#607997;fill-opacity:1" />
        </g>
        <path
           id="rect4177"
           d="m 45.420098,853.36218 38.256956,0 c 0.482824,0 0.871522,0.3887 0.871522,0.87152 l 0,38.25696 c 0,0.48282 -0.388698,0.87152 -0.871522,0.87152 l -38.256956,0 c -0.482823,0 -0.871522,-0.3887 -0.871522,-0.87152 l 0,-38.25696 c 0,-0.48282 0.388699,-0.87152 0.871522,-0.87152 z"
           style="opacity:1;fill:#607997;fill-opacity:1;stroke:none;stroke-width:10.19999981;stroke-linecap:round;stroke-linejoin:round;stroke-miterlimit:4;stroke-dasharray:none;stroke-opacity:1" />
      </g>
      <g
         id="g4314"
         style="fill:#607997;fill-opacity:1">
        <g
           id="g4316"
           style="opacity:1;fill:#607997;fill-opacity:1;stroke:none;stroke-width:10.19999981;stroke-linecap:round;stroke-linejoin:round;stroke-miterlimit:4;stroke-dasharray:none;stroke-opacity:1">
          <path
             id="path4318"
             d="M155.42011 853.36218L193.67706 853.36218L-230.587008712 1277.62624871L-268.843958712 1277.62624871Z"
             style="fill:#607997;fill-opacity:1" />
          <path
             id="path4320"
             d="M193.67706 853.36218C194.15989 853.36218 194.54858 853.75088 194.54858 854.2337L-229.715488712 1278.49776871C-229.715488712 1278.01494871 -230.104178712 1277.62624871 -230.587008712 1277.62624871Z"
             style="fill:#607997;fill-opacity:1" />
          <path
             id="path4322"
             d="M194.54858 854.2337L194.54858 892.49066L-229.715488712 1316.75472871L-229.715488712 1278.49776871Z"
             style="fill:#607997;fill-opacity:1" />
          <path
             id="path4324"
             d="M194.54858 892.49066C194.54858 892.73207125 194.451406494 892.949952256 194.293878803 893.107479947L-229.970189909 1317.37154866C-229.812662218 1317.21402097 -229.715488712 1316.99613996 -229.715488712 1316.75472871Z"
             style="fill:#607997;fill-opacity:1" />
          <path
             id="path4326"
             d="M194.293878803 893.107479947C194.136352744 893.265006006 193.91847375 893.36218 193.67706 893.36218L-230.587008712 1317.62624871C-230.345594962 1317.62624871 -230.127715968 1317.52907472 -229.970189909 1317.37154866Z"
             style="fill:#607997;fill-opacity:1" />
          <path
             id="path4328"
             d="M193.67706 893.36218L155.42011 893.36218L-268.843958712 1317.62624871L-230.587008712 1317.62624871Z"
             style="fill:#607997;fill-opacity:1" />
          <path
             id="path4330"
             d="M155.42011 893.36218C154.93728 893.36218 154.54858 892.97348 154.54858 892.49066L-269.715488712 1316.75472871C-269.715488712 1317.23754871 -269.326788712 1317.62624871 -268.843958712 1317.62624871Z"
             style="fill:#607997;fill-opacity:1" />
          <path
             id="path4332"
             d="M154.54858 892.49066L154.54858 854.2337L-269.715488712 1278.49776871L-269.715488712 1316.75472871Z"
             style="fill:#607997;fill-opacity:1" />
          <path
             id="path4334"
             d="M154.54858 854.2337C154.54858 853.99229125 154.645753994 853.774412256 154.803281303 853.616884947L-269.460787409 1277.88095366C-269.618314718 1278.03848097 -269.715488712 1278.25635996 -269.715488712 1278.49776871Z"
             style="fill:#607997;fill-opacity:1" />
          <path
             id="path4336"
             d="M154.803281303 853.616884947C154.960810244 853.459356006 155.17869375 853.36218 155.42011 853.36218L-268.843958712 1277.62624871C-269.085374962 1277.62624871 -269.303258468 1277.72342472 -269.460787409 1277.88095366Z"
             style="fill:#607997;fill-opacity:1" />
        </g>
        <path
           id="rect4181"
           d="m 155.42011,853.36218 38.25695,0 c 0.48283,0 0.87152,0.3887 0.87152,0.87152 l 0,38.25696 c 0,0.48282 -0.38869,0.87152 -0.87152,0.87152 l -38.25695,0 c -0.48283,0 -0.87153,-0.3887 -0.87153,-0.87152 l 0,-38.25696 c 0,-0.48282 0.3887,-0.87152 0.87153,-0.87152 z"
           style="opacity:1;fill:#607997;fill-opacity:1;stroke:none;stroke-width:10.19999981;stroke-linecap:round;stroke-linejoin:round;stroke-miterlimit:4;stroke-dasharray:none;stroke-opacity:1" />
      </g>
      <g
         id="g4339"
         style="fill:#607997;fill-opacity:1">
        <g
           id="g4341"
           style="opacity:1;fill:#607997;fill-opacity:1;stroke:none;stroke-width:10.19999981;stroke-linecap:round;stroke-linejoin:round;stroke-miterlimit:4;stroke-dasharray:none;stroke-opacity:1">
          <path
             id="path4343"
             d="M100.4201 963.36218L138.67705 963.36218L-285.587018712 1387.62624871L-323.843968712 1387.62624871Z"
             style="fill:#607997;fill-opacity:1" />
          <path
             id="path4345"
             d="M138.67705 963.36218C139.15988 963.36218 139.54858 963.75088 139.54858 964.2337L-284.715488712 1388.49776871C-284.715488712 1388.01494871 -285.104188712 1387.62624871 -285.587018712 1387.62624871Z"
             style="fill:#607997;fill-opacity:1" />
          <path
             id="path4347"
             d="M139.54858 964.2337L139.54858 1002.4907L-284.715488712 1426.75476871L-284.715488712 1388.49776871Z"
             style="fill:#607997;fill-opacity:1" />
          <path
             id="path4349"
             d="M139.54858 1002.4907C139.54858 1002.73209625 139.451408019 1002.94996823 139.293883591 1003.10749266L-284.970185121 1427.37156137C-284.812660693 1427.21403694 -284.715488712 1426.99616496 -284.715488712 1426.75476871Z"
             style="fill:#607997;fill-opacity:1" />
          <path
             id="path4351"
             d="M139.293883591 1003.10749266C139.136354269 1003.26502198 138.91846875 1003.3622 138.67705 1003.3622L-285.587018712 1427.62626871C-285.345599962 1427.62626871 -285.127714443 1427.52909069 -284.970185121 1427.37156137Z"
             style="fill:#607997;fill-opacity:1" />
          <path
             id="path4353"
             d="M138.67705 1003.3622L100.4201 1003.3622L-323.843968712 1427.62626871L-285.587018712 1427.62626871Z"
             style="fill:#607997;fill-opacity:1" />
          <path
             id="path4355"
             d="M100.4201 1003.3622C99.937275 1003.3622 99.548576 1002.9735 99.548576 1002.4907L-324.715492712 1426.75476871C-324.715492712 1427.23756871 -324.326793712 1427.62626871 -323.843968712 1427.62626871Z"
             style="fill:#607997;fill-opacity:1" />
          <path
             id="path4357"
             d="M99.548576 1002.4907L99.548576 964.2337L-324.715492712 1388.49776871L-324.715492712 1426.75476871Z"
             style="fill:#607997;fill-opacity:1" />
          <path
             id="path4359"
             d="M99.548576 964.2337C99.548576 963.992290375 99.6457504481 963.774410677 99.8032778909 963.616883234L-324.460790821 1387.88095195C-324.618318264 1388.03847939 -324.715492712 1388.25635909 -324.715492712 1388.49776871Z"
             style="fill:#607997;fill-opacity:1" />
          <path
             id="path4361"
             d="M99.8032778909 963.616883234C99.9608058231 963.459355302 100.178687125 963.36218 100.4201 963.36218L-323.843968712 1387.62624871C-324.085381587 1387.62624871 -324.303262889 1387.72342401 -324.460790821 1387.88095195Z"
             style="fill:#607997;fill-opacity:1" />
        </g>
        <path
           id="rect4192"
           d="m 100.4201,963.36218 38.25695,0 c 0.48283,0 0.87153,0.3887 0.87153,0.87152 l 0,38.257 c 0,0.4828 -0.3887,0.8715 -0.87153,0.8715 l -38.25695,0 c -0.482825,0 -0.871524,-0.3887 -0.871524,-0.8715 l 0,-38.257 c 0,-0.48282 0.388699,-0.87152 0.871524,-0.87152 z"
           style="opacity:1;fill:#607997;fill-opacity:1;stroke:none;stroke-width:10.19999981;stroke-linecap:round;stroke-linejoin:round;stroke-miterlimit:4;stroke-dasharray:none;stroke-opacity:1" />
      </g>
      <g
         id="g4364"
         style="fill:#607997;fill-opacity:1">
        <g
           id="g4366"
           style="opacity:1;fill:#607997;fill-opacity:1;stroke:none;stroke-width:10.19999981;stroke-linecap:round;stroke-linejoin:round;stroke-miterlimit:4;stroke-dasharray:none;stroke-opacity:1">
          <path
             id="path4368"
             d="M100.4201 853.36218L138.67705 853.36218L-285.587018712 1277.62624871L-323.843968712 1277.62624871Z"
             style="fill:#607997;fill-opacity:1" />
          <path
             id="path4370"
             d="M138.67705 853.36218C139.15988 853.36218 139.54858 853.75088 139.54858 854.2337L-284.715488712 1278.49776871C-284.715488712 1278.01494871 -285.104188712 1277.62624871 -285.587018712 1277.62624871Z"
             style="fill:#607997;fill-opacity:1" />
          <path
             id="path4372"
             d="M139.54858 854.2337L139.54858 892.49066L-284.715488712 1316.75472871L-284.715488712 1278.49776871Z"
             style="fill:#607997;fill-opacity:1" />
          <path
             id="path4374"
             d="M139.54858 892.49066C139.54858 892.73206875 139.451406006 892.949947744 139.293878697 893.107475053L-284.970190015 1317.37154376C-284.812662706 1317.21401646 -284.715488712 1316.99613746 -284.715488712 1316.75472871Z"
             style="fill:#607997;fill-opacity:1" />
          <path
             id="path4376"
             d="M139.293878697 893.107475053C139.136349756 893.265003994 138.91846625 893.36218 138.67705 893.36218L-285.587018712 1317.62624871C-285.345602462 1317.62624871 -285.127718956 1317.52907271 -284.970190015 1317.37154376Z"
             style="fill:#607997;fill-opacity:1" />
          <path
             id="path4378"
             d="M138.67705 893.36218L100.4201 893.36218L-323.843968712 1317.62624871L-285.587018712 1317.62624871Z"
             style="fill:#607997;fill-opacity:1" />
          <path
             id="path4380"
             d="M100.4201 893.36218C99.937275 893.36218 99.548576 892.97348 99.548576 892.49066L-324.715492712 1316.75472871C-324.715492712 1317.23754871 -324.326793712 1317.62624871 -323.843968712 1317.62624871Z"
             style="fill:#607997;fill-opacity:1" />
          <path
             id="path4382"
             d="M99.548576 892.49066L99.548576 854.2337L-324.715492712 1278.49776871L-324.715492712 1316.75472871Z"
             style="fill:#607997;fill-opacity:1" />
          <path
             id="path4384"
             d="M99.548576 854.2337C99.548576 853.992290375 99.6457504481 853.774410677 99.8032778909 853.616883234L-324.460790821 1277.88095195C-324.618318264 1278.03847939 -324.715492712 1278.25635909 -324.715492712 1278.49776871Z"
             style="fill:#607997;fill-opacity:1" />
          <path
             id="path4386"
             d="M99.8032778909 853.616883234C99.9608058231 853.459355302 100.178687125 853.36218 100.4201 853.36218L-323.843968712 1277.62624871C-324.085381587 1277.62624871 -324.303262889 1277.72342401 -324.460790821 1277.88095195Z"
             style="fill:#607997;fill-opacity:1" />
        </g>
        <path
           id="rect4179"
           d="m 100.4201,853.36218 38.25695,0 c 0.48283,0 0.87153,0.3887 0.87153,0.87152 l 0,38.25696 c 0,0.48282 -0.3887,0.87152 -0.87153,0.87152 l -38.25695,0 c -0.482825,0 -0.871524,-0.3887 -0.871524,-0.87152 l 0,-38.25696 c 0,-0.48282 0.388699,-0.87152 0.871524,-0.87152 z"
           style="opacity:1;fill:#607997;fill-opacity:1;stroke:none;stroke-width:10.19999981;stroke-linecap:round;stroke-linejoin:round;stroke-miterlimit:4;stroke-dasharray:none;stroke-opacity:1" />
      </g>
      <g
         id="g4389"
         style="fill:#607997;fill-opacity:1">
        <g
           id="g4391"
           style="opacity:1;fill:#607997;fill-opacity:1;stroke:none;stroke-width:10.19999981;stroke-linecap:round;stroke-linejoin:round;stroke-miterlimit:4;stroke-dasharray:none;stroke-opacity:1">
          <path
             id="path4393"
             d="M155.42011 963.36218L193.67706 963.36218L-230.587008712 1387.62624871L-268.843958712 1387.62624871Z"
             style="fill:#607997;fill-opacity:1" />
          <path
             id="path4395"
             d="M193.67706 963.36218C194.15989 963.36218 194.54858 963.75088 194.54858 964.2337L-229.715488712 1388.49776871C-229.715488712 1388.01494871 -230.104178712 1387.62624871 -230.587008712 1387.62624871Z"
             style="fill:#607997;fill-opacity:1" />
          <path
             id="path4397"
             d="M194.54858 964.2337L194.54858 1002.4907L-229.715488712 1426.75476871L-229.715488712 1388.49776871Z"
             style="fill:#607997;fill-opacity:1" />
          <path
             id="path4399"
             d="M194.54858 1002.4907C194.54858 1002.73209875 194.451408506 1002.94997274 194.293883697 1003.10749755L-229.970185015 1427.37156626C-229.812660206 1427.21404146 -229.715488712 1426.99616746 -229.715488712 1426.75476871Z"
             style="fill:#607997;fill-opacity:1" />
          <path
             id="path4401"
             d="M194.293883697 1003.10749755C194.136357256 1003.26502399 193.91847625 1003.3622 193.67706 1003.3622L-230.587008712 1427.62626871C-230.345592462 1427.62626871 -230.127711456 1427.52909271 -229.970185015 1427.37156626Z"
             style="fill:#607997;fill-opacity:1" />
          <path
             id="path4403"
             d="M193.67706 1003.3622L155.42011 1003.3622L-268.843958712 1427.62626871L-230.587008712 1427.62626871Z"
             style="fill:#607997;fill-opacity:1" />
          <path
             id="path4405"
             d="M155.42011 1003.3622C154.93728 1003.3622 154.54858 1002.9735 154.54858 1002.4907L-269.715488712 1426.75476871C-269.715488712 1427.23756871 -269.326788712 1427.62626871 -268.843958712 1427.62626871Z"
             style="fill:#607997;fill-opacity:1" />
          <path
             id="path4407"
             d="M154.54858 1002.4907L154.54858 964.2337L-269.715488712 1388.49776871L-269.715488712 1426.75476871Z"
             style="fill:#607997;fill-opacity:1" />
          <path
             id="path4409"
             d="M154.54858 964.2337C154.54858 963.99229125 154.645753994 963.774412256 154.803281303 963.616884947L-269.460787409 1387.88095366C-269.618314718 1388.03848097 -269.715488712 1388.25635996 -269.715488712 1388.49776871Z"
             style="fill:#607997;fill-opacity:1" />
          <path
             id="path4411"
             d="M154.803281303 963.616884947C154.960810244 963.459356006 155.17869375 963.36218 155.42011 963.36218L-268.843958712 1387.62624871C-269.085374962 1387.62624871 -269.303258468 1387.72342472 -269.460787409 1387.88095366Z"
             style="fill:#607997;fill-opacity:1" />
        </g>
        <path
           id="rect4194"
           d="m 155.42011,963.36218 38.25695,0 c 0.48283,0 0.87152,0.3887 0.87152,0.87152 l 0,38.257 c 0,0.4828 -0.38869,0.8715 -0.87152,0.8715 l -38.25695,0 c -0.48283,0 -0.87153,-0.3887 -0.87153,-0.8715 l 0,-38.257 c 0,-0.48282 0.3887,-0.87152 0.87153,-0.87152 z"
           style="opacity:1;fill:#607997;fill-opacity:1;stroke:none;stroke-width:10.19999981;stroke-linecap:round;stroke-linejoin:round;stroke-miterlimit:4;stroke-dasharray:none;stroke-opacity:1" />
      </g>
      <g
         id="g4414"
         style="fill:#607997;fill-opacity:1">
        <g
           id="g4416"
           style="opacity:1;fill:#607997;fill-opacity:1;stroke:none;stroke-width:10.19999981;stroke-linecap:round;stroke-linejoin:round;stroke-miterlimit:4;stroke-dasharray:none;stroke-opacity:1">
          <path
             id="path4418"
             d="M100.4201 908.36218L138.67705 908.36218L-285.587018712 1332.62624871L-323.843968712 1332.62624871Z"
             style="fill:#607997;fill-opacity:1" />
          <path
             id="path4420"
             d="M138.67705 908.36218C139.15988 908.36218 139.54858 908.75088 139.54858 909.2337L-284.715488712 1333.49776871C-284.715488712 1333.01494871 -285.104188712 1332.62624871 -285.587018712 1332.62624871Z"
             style="fill:#607997;fill-opacity:1" />
          <path
             id="path4422"
             d="M139.54858 909.2337L139.54858 947.49066L-284.715488712 1371.75472871L-284.715488712 1333.49776871Z"
             style="fill:#607997;fill-opacity:1" />
          <path
             id="path4424"
             d="M139.54858 947.49066C139.54858 947.73206875 139.451406006 947.949947744 139.293878697 948.107475053L-284.970190015 1372.37154376C-284.812662706 1372.21401646 -284.715488712 1371.99613746 -284.715488712 1371.75472871Z"
             style="fill:#607997;fill-opacity:1" />
          <path
             id="path4426"
             d="M139.293878697 948.107475053C139.136349756 948.265003994 138.91846625 948.36218 138.67705 948.36218L-285.587018712 1372.62624871C-285.345602462 1372.62624871 -285.127718956 1372.52907271 -284.970190015 1372.37154376Z"
             style="fill:#607997;fill-opacity:1" />
          <path
             id="path4428"
             d="M138.67705 948.36218L100.4201 948.36218L-323.843968712 1372.62624871L-285.587018712 1372.62624871Z"
             style="fill:#607997;fill-opacity:1" />
          <path
             id="path4430"
             d="M100.4201 948.36218C99.937275 948.36218 99.548576 947.97348 99.548576 947.49066L-324.715492712 1371.75472871C-324.715492712 1372.23754871 -324.326793712 1372.62624871 -323.843968712 1372.62624871Z"
             style="fill:#607997;fill-opacity:1" />
          <path
             id="path4432"
             d="M99.548576 947.49066L99.548576 909.2337L-324.715492712 1333.49776871L-324.715492712 1371.75472871Z"
             style="fill:#607997;fill-opacity:1" />
          <path
             id="path4434"
             d="M99.548576 909.2337C99.548576 908.992290375 99.6457504481 908.774410677 99.8032778909 908.616883234L-324.460790821 1332.88095195C-324.618318264 1333.03847939 -324.715492712 1333.25635909 -324.715492712 1333.49776871Z"
             style="fill:#607997;fill-opacity:1" />
          <path
             id="path4436"
             d="M99.8032778909 908.616883234C99.9608058231 908.459355302 100.178687125 908.36218 100.4201 908.36218L-323.843968712 1332.62624871C-324.085381587 1332.62624871 -324.303262889 1332.72342401 -324.460790821 1332.88095195Z"
             style="fill:#607997;fill-opacity:1" />
        </g>
        <path
           id="rect4200"
           d="m 100.4201,908.36218 38.25695,0 c 0.48283,0 0.87153,0.3887 0.87153,0.87152 l 0,38.25696 c 0,0.48282 -0.3887,0.87152 -0.87153,0.87152 l -38.25695,0 c -0.482825,0 -0.871524,-0.3887 -0.871524,-0.87152 l 0,-38.25696 c 0,-0.48282 0.388699,-0.87152 0.871524,-0.87152 z"
           style="opacity:1;fill:#607997;fill-opacity:1;stroke:none;stroke-width:10.19999981;stroke-linecap:round;stroke-linejoin:round;stroke-miterlimit:4;stroke-dasharray:none;stroke-opacity:1" />
      </g>
      <g
         id="g4439"
         style="fill:#607997;fill-opacity:1">
        <g
           id="g4441"
           style="opacity:1;fill:#607997;fill-opacity:1;stroke:none;stroke-width:10.19999981;stroke-linecap:round;stroke-linejoin:round;stroke-miterlimit:4;stroke-dasharray:none;stroke-opacity:1">
          <path
             id="path4443"
             d="M155.42011 908.36218L193.67706 908.36218L-230.587008712 1332.62624871L-268.843958712 1332.62624871Z"
             style="fill:#607997;fill-opacity:1" />
          <path
             id="path4445"
             d="M193.67706 908.36218C194.15989 908.36218 194.54858 908.75088 194.54858 909.2337L-229.715488712 1333.49776871C-229.715488712 1333.01494871 -230.104178712 1332.62624871 -230.587008712 1332.62624871Z"
             style="fill:#607997;fill-opacity:1" />
          <path
             id="path4447"
             d="M194.54858 909.2337L194.54858 947.49066L-229.715488712 1371.75472871L-229.715488712 1333.49776871Z"
             style="fill:#607997;fill-opacity:1" />
          <path
             id="path4449"
             d="M194.54858 947.49066C194.54858 947.73207125 194.451406494 947.949952256 194.293878803 948.107479947L-229.970189909 1372.37154866C-229.812662218 1372.21402097 -229.715488712 1371.99613996 -229.715488712 1371.75472871Z"
             style="fill:#607997;fill-opacity:1" />
          <path
             id="path4451"
             d="M194.293878803 948.107479947C194.136352744 948.265006006 193.91847375 948.36218 193.67706 948.36218L-230.587008712 1372.62624871C-230.345594962 1372.62624871 -230.127715968 1372.52907472 -229.970189909 1372.37154866Z"
             style="fill:#607997;fill-opacity:1" />
          <path
             id="path4453"
             d="M193.67706 948.36218L155.42011 948.36218L-268.843958712 1372.62624871L-230.587008712 1372.62624871Z"
             style="fill:#607997;fill-opacity:1" />
          <path
             id="path4455"
             d="M155.42011 948.36218C154.93728 948.36218 154.54858 947.97348 154.54858 947.49066L-269.715488712 1371.75472871C-269.715488712 1372.23754871 -269.326788712 1372.62624871 -268.843958712 1372.62624871Z"
             style="fill:#607997;fill-opacity:1" />
          <path
             id="path4457"
             d="M154.54858 947.49066L154.54858 909.2337L-269.715488712 1333.49776871L-269.715488712 1371.75472871Z"
             style="fill:#607997;fill-opacity:1" />
          <path
             id="path4459"
             d="M154.54858 909.2337C154.54858 908.99229125 154.645753994 908.774412256 154.803281303 908.616884947L-269.460787409 1332.88095366C-269.618314718 1333.03848097 -269.715488712 1333.25635996 -269.715488712 1333.49776871Z"
             style="fill:#607997;fill-opacity:1" />
          <path
             id="path4461"
             d="M154.803281303 908.616884947C154.960810244 908.459356006 155.17869375 908.36218 155.42011 908.36218L-268.843958712 1332.62624871C-269.085374962 1332.62624871 -269.303258468 1332.72342472 -269.460787409 1332.88095366Z"
             style="fill:#607997;fill-opacity:1" />
        </g>
        <path
           id="rect4202"
           d="m 155.42011,908.36218 38.25695,0 c 0.48283,0 0.87152,0.3887 0.87152,0.87152 l 0,38.25696 c 0,0.48282 -0.38869,0.87152 -0.87152,0.87152 l -38.25695,0 c -0.48283,0 -0.87153,-0.3887 -0.87153,-0.87152 l 0,-38.25696 c 0,-0.48282 0.3887,-0.87152 0.87153,-0.87152 z"
           style="opacity:1;fill:#607997;fill-opacity:1;stroke:none;stroke-width:10.19999981;stroke-linecap:round;stroke-linejoin:round;stroke-miterlimit:4;stroke-dasharray:none;stroke-opacity:1" />
      </g>
      <g
         id="g4464"
         style="fill:#607997;fill-opacity:1">
        <g
           id="g4466"
           style="opacity:1;fill:#607997;fill-opacity:1;stroke:none;stroke-width:10.19999981;stroke-linecap:round;stroke-linejoin:round;stroke-miterlimit:4;stroke-dasharray:none;stroke-opacity:1">
          <path
             id="path4468"
             d="M45.420098 963.36218L83.677054 963.36218L-340.587014712 1387.62624871L-378.843970712 1387.62624871Z"
             style="fill:#607997;fill-opacity:1" />
          <path
             id="path4470"
             d="M83.677054 963.36218C84.159878 963.36218 84.548576 963.75088 84.548576 964.2337L-339.715492712 1388.49776871C-339.715492712 1388.01494871 -340.104190712 1387.62624871 -340.587014712 1387.62624871Z"
             style="fill:#607997;fill-opacity:1" />
          <path
             id="path4472"
             d="M84.548576 964.2337L84.548576 1002.4907L-339.715492712 1426.75476871L-339.715492712 1388.49776871Z"
             style="fill:#607997;fill-opacity:1" />
          <path
             id="path4474"
             d="M84.548576 1002.4907C84.548576 1002.7320975 84.4514035127 1002.94997049 84.293878894 1003.10749511L-339.970189818 1427.37156382C-339.812665199 1427.2140392 -339.715492712 1426.99616621 -339.715492712 1426.75476871Z"
             style="fill:#607997;fill-opacity:1" />
          <path
             id="path4476"
             d="M84.293878894 1003.10749511C84.1363510127 1003.26502299 83.9184685001 1003.3622 83.677054 1003.3622L-340.587014712 1427.62626871C-340.345600212 1427.62626871 -340.127717699 1427.5290917 -339.970189818 1427.37156382Z"
             style="fill:#607997;fill-opacity:1" />
          <path
             id="path4478"
             d="M83.677054 1003.3622L45.420098 1003.3622L-378.843970712 1427.62626871L-340.587014712 1427.62626871Z"
             style="fill:#607997;fill-opacity:1" />
          <path
             id="path4480"
             d="M45.420098 1003.3622C44.937275 1003.3622 44.548576 1002.9735 44.548576 1002.4907L-379.715492712 1426.75476871C-379.715492712 1427.23756871 -379.326793712 1427.62626871 -378.843970712 1427.62626871Z"
             style="fill:#607997;fill-opacity:1" />
          <path
             id="path4482"
             d="M44.548576 1002.4907L44.548576 964.2337L-379.715492712 1388.49776871L-379.715492712 1426.75476871Z"
             style="fill:#607997;fill-opacity:1" />
          <path
             id="path4484"
             d="M44.548576 964.2337C44.548576 963.992290125 44.6457506494 963.774410226 44.8032781303 963.616882745L-379.460790582 1387.88095146C-379.618318063 1388.03847894 -379.715492712 1388.25635884 -379.715492712 1388.49776871Z"
             style="fill:#607997;fill-opacity:1" />
          <path
             id="path4486"
             d="M44.8032781303 963.616882745C44.9608057744 963.459355101 45.178686375 963.36218 45.420098 963.36218L-378.843970712 1387.62624871C-379.085382337 1387.62624871 -379.303262938 1387.72342381 -379.460790582 1387.88095146Z"
             style="fill:#607997;fill-opacity:1" />
        </g>
        <path
           id="rect4190"
           d="m 45.420098,963.36218 38.256956,0 c 0.482824,0 0.871522,0.3887 0.871522,0.87152 l 0,38.257 c 0,0.4828 -0.388698,0.8715 -0.871522,0.8715 l -38.256956,0 c -0.482823,0 -0.871522,-0.3887 -0.871522,-0.8715 l 0,-38.257 c 0,-0.48282 0.388699,-0.87152 0.871522,-0.87152 z"
           style="opacity:1;fill:#607997;fill-opacity:1;stroke:none;stroke-width:10.19999981;stroke-linecap:round;stroke-linejoin:round;stroke-miterlimit:4;stroke-dasharray:none;stroke-opacity:1" />
      </g>
      <g
         id="g4489"
         style="fill:#607997;fill-opacity:1">
        <g
           id="g4491"
           style="opacity:1;fill:#607997;fill-opacity:1;stroke:none;stroke-width:10.19999981;stroke-linecap:round;stroke-linejoin:round;stroke-miterlimit:4;stroke-dasharray:none;stroke-opacity:1">
          <path
             id="path4493"
             d="M45.420098 908.36218L83.677054 908.36218L-340.587014712 1332.62624871L-378.843970712 1332.62624871Z"
             style="fill:#607997;fill-opacity:1" />
          <path
             id="path4495"
             d="M83.677054 908.36218C84.159878 908.36218 84.548576 908.75088 84.548576 909.2337L-339.715492712 1333.49776871C-339.715492712 1333.01494871 -340.104190712 1332.62624871 -340.587014712 1332.62624871Z"
             style="fill:#607997;fill-opacity:1" />
          <path
             id="path4497"
             d="M84.548576 909.2337L84.548576 947.49066L-339.715492712 1371.75472871L-339.715492712 1333.49776871Z"
             style="fill:#607997;fill-opacity:1" />
          <path
             id="path4499"
             d="M84.548576 947.49066C84.548576 947.73207 84.4514015 947.94995 84.293874 948.1074775L-339.970194712 1372.37154621C-339.812667212 1372.21401871 -339.715492712 1371.99613871 -339.715492712 1371.75472871Z"
             style="fill:#607997;fill-opacity:1" />
          <path
             id="path4501"
             d="M84.293874 948.1074775C84.1363465 948.265005 83.918466 948.36218 83.677054 948.36218L-340.587014712 1372.62624871C-340.345602712 1372.62624871 -340.127722212 1372.52907371 -339.970194712 1372.37154621Z"
             style="fill:#607997;fill-opacity:1" />
          <path
             id="path4503"
             d="M83.677054 948.36218L45.420098 948.36218L-378.843970712 1372.62624871L-340.587014712 1372.62624871Z"
             style="fill:#607997;fill-opacity:1" />
          <path
             id="path4505"
             d="M45.420098 948.36218C44.937275 948.36218 44.548576 947.97348 44.548576 947.49066L-379.715492712 1371.75472871C-379.715492712 1372.23754871 -379.326793712 1372.62624871 -378.843970712 1372.62624871Z"
             style="fill:#607997;fill-opacity:1" />
          <path
             id="path4507"
             d="M44.548576 947.49066L44.548576 909.2337L-379.715492712 1333.49776871L-379.715492712 1371.75472871Z"
             style="fill:#607997;fill-opacity:1" />
          <path
             id="path4509"
             d="M44.548576 909.2337C44.548576 908.992290125 44.6457506494 908.774410226 44.8032781303 908.616882745L-379.460790582 1332.88095146C-379.618318063 1333.03847894 -379.715492712 1333.25635884 -379.715492712 1333.49776871Z"
             style="fill:#607997;fill-opacity:1" />
          <path
             id="path4511"
             d="M44.8032781303 908.616882745C44.9608057744 908.459355101 45.178686375 908.36218 45.420098 908.36218L-378.843970712 1332.62624871C-379.085382337 1332.62624871 -379.303262938 1332.72342381 -379.460790582 1332.88095146Z"
             style="fill:#607997;fill-opacity:1" />
        </g>
        <path
           id="rect4198"
           d="m 45.420098,908.36218 38.256956,0 c 0.482824,0 0.871522,0.3887 0.871522,0.87152 l 0,38.25696 c 0,0.48282 -0.388698,0.87152 -0.871522,0.87152 l -38.256956,0 c -0.482823,0 -0.871522,-0.3887 -0.871522,-0.87152 l 0,-38.25696 c 0,-0.48282 0.388699,-0.87152 0.871522,-0.87152 z"
           style="opacity:1;fill:#607997;fill-opacity:1;stroke:none;stroke-width:10.19999981;stroke-linecap:round;stroke-linejoin:round;stroke-miterlimit:4;stroke-dasharray:none;stroke-opacity:1" />
      </g>
    </g>
    <g
       id="g4234"
       transform="translate(8.4514198,-4.0000226)">
      <rect
         ry="0"
         rx="0.87152201"
         y="853.36218"
         x="44.548576"
         height="40"
         width="40"
         id="rect4236"
         style="opacity:1;fill:#ffffff;fill-opacity:1;stroke:none;stroke-width:10.19999981;stroke-linecap:round;stroke-linejoin:round;stroke-miterlimit:4;stroke-dasharray:none;stroke-opacity:1" />
      <rect
         style="opacity:1;fill:#ffffff;fill-opacity:1;stroke:none;stroke-width:10.19999981;stroke-linecap:round;stroke-linejoin:round;stroke-miterlimit:4;stroke-dasharray:none;stroke-opacity:1"
         id="rect4238"
         width="40"
         height="40"
         x="99.548576"
         y="853.36218"
         rx="0.87152201"
         ry="0" />
      <rect
         ry="0"
         rx="0.87152201"
         y="853.36218"
         x="154.54858"
         height="40"
         width="40"
         id="rect4240"
         style="opacity:1;fill:#ffffff;fill-opacity:1;stroke:none;stroke-width:10.19999981;stroke-linecap:round;stroke-linejoin:round;stroke-miterlimit:4;stroke-dasharray:none;stroke-opacity:1" />
      <rect
         style="opacity:1;fill:#ffffff;fill-opacity:1;stroke:none;stroke-width:10.19999981;stroke-linecap:round;stroke-linejoin:round;stroke-miterlimit:4;stroke-dasharray:none;stroke-opacity:1"
         id="rect4242"
         width="40"
         height="40"
         x="44.548576"
         y="963.36218"
         rx="0.87152201"
         ry="0" />
      <rect
         ry="0"
         rx="0.87152201"
         y="963.36218"
         x="99.548576"
         height="40"
         width="40"
         id="rect4244"
         style="opacity:1;fill:#ffffff;fill-opacity:1;stroke:none;stroke-width:10.19999981;stroke-linecap:round;stroke-linejoin:round;stroke-miterlimit:4;stroke-dasharray:none;stroke-opacity:1" />
      <rect
         style="opacity:1;fill:#ffffff;fill-opacity:1;stroke:none;stroke-width:10.19999981;stroke-linecap:round;stroke-linejoin:round;stroke-miterlimit:4;stroke-dasharray:none;stroke-opacity:1"
         id="rect4246"
         width="40"
         height="40"
         x="154.54858"
         y="963.36218"
         rx="0.87152201"
         ry="0" />
      <rect
         style="opacity:1;fill:#ffffff;fill-opacity:1;stroke:none;stroke-width:10.19999981;stroke-linecap:round;stroke-linejoin:round;stroke-miterlimit:4;stroke-dasharray:none;stroke-opacity:1"
         id="rect4248"
         width="40"
         height="40"
         x="44.548576"
         y="908.36218"
         rx="0.87152201"
         ry="0" />
      <rect
         ry="0"
         rx="0.87152201"
         y="908.36218"
         x="99.548576"
         height="40"
         width="40"
         id="rect4250"
         style="opacity:1;fill:#ffffff;fill-opacity:1;stroke:none;stroke-width:10.19999981;stroke-linecap:round;stroke-linejoin:round;stroke-miterlimit:4;stroke-dasharray:none;stroke-opacity:1" />
      <rect
         style="opacity:1;fill:#ffffff;fill-opacity:1;stroke:none;stroke-width:10.19999981;stroke-linecap:round;stroke-linejoin:round;stroke-miterlimit:4;stroke-dasharray:none;stroke-opacity:1"
         id="rect4252"
         width="40"
         height="40"
         x="154.54858"
         y="908.36218"
         rx="0.87152201"
         ry="0" />
    </g>
  </g>
</svg>
