<?xml version="1.0" encoding="UTF-8" standalone="no"?>
<!-- Created with Inkscape (http://www.inkscape.org/) -->

<svg
   xmlns:dc="http://purl.org/dc/elements/1.1/"
   xmlns:cc="http://creativecommons.org/ns#"
   xmlns:rdf="http://www.w3.org/1999/02/22-rdf-syntax-ns#"
   xmlns:svg="http://www.w3.org/2000/svg"
   xmlns="http://www.w3.org/2000/svg"
   xmlns:sodipodi="http://sodipodi.sourceforge.net/DTD/sodipodi-0.dtd"
   xmlns:inkscape="http://www.inkscape.org/namespaces/inkscape"
   width="256"
   height="256"
   viewBox="0 0 256 256"
   id="svg2"
   version="1.1"
   inkscape:version="0.92+devel unknown"
   sodipodi:docname="gnome-contacts.svg">
  <sodipodi:namedview
     id="base"
     pagecolor="#ffffff"
     bordercolor="#666666"
     borderopacity="1.0"
     inkscape:pageopacity="0.0"
     inkscape:pageshadow="2"
     inkscape:zoom="3.3007812"
     inkscape:cx="128"
     inkscape:cy="128"
     inkscape:document-units="px"
     inkscape:current-layer="layer1"
     showgrid="true"
     units="px"
     inkscape:window-width="1920"
     inkscape:window-height="1054"
     inkscape:window-x="0"
     inkscape:window-y="0"
     inkscape:window-maximized="1"
     inkscape:document-rotation="0">
    <inkscape:grid
       type="xygrid"
       id="grid4168"
       spacingx="5"
       spacingy="5" />
  </sodipodi:namedview>
  <defs
     id="defs4">
    <inkscape:path-effect
       effect="skeletal"
       id="path-effect4235"
       is_visible="true"
       pattern="M 0,0 1,0"
       copytype="single_stretched"
       prop_scale="1"
       scale_y_rel="false"
       spacing="0"
       normal_offset="0"
       tang_offset="0"
       prop_units="false"
       vertical_pattern="false"
       fuse_tolerance="0" />
    <clipPath
       clipPathUnits="userSpaceOnUse"
       id="clipPath5002">
      <g
         id="g5004">
        <path
           transform="translate(0,796.36216)"
           inkscape:connector-curvature="0"
           id="path5006"
           d="M 88.118406,249.43519 C 46.103287,235.29134 14.771284,201.68742 4.1335861,159.36053 1.3377997,148.23623 0.92261224,144.16281 0.92582381,127.88908 0.92787958,117.47222 1.134384,112.01362 1.6577819,108.54099 4.4653598,89.913336 12.17654,70.638106 23.042737,55.086148 c 3.958678,-5.665755 8.344812,-10.93092 9.101533,-10.925587 0.32809,0.0023 10.488643,18.309713 22.579009,40.683112 12.090365,22.373397 22.374546,41.334697 22.853732,42.136217 0.479186,0.80151 0.924733,2.44098 0.990103,3.64326 0.343424,6.31639 2.524175,14.20976 5.6424,20.42304 2.954444,5.88693 5.065381,8.73258 10.434696,14.06652 6.71418,6.66995 12.88853,10.28643 21.73204,12.72904 3.16587,0.87442 5.10478,1.05037 11.57517,1.05037 8.82596,0 12.60219,-0.76201 19.26429,-3.88733 2.04584,-0.95974 3.93661,-1.66536 4.20172,-1.56805 0.2651,0.0973 -11.0555,17.66459 -25.1569,39.0384 l -25.6389,38.86148 -3.094121,0.11221 c -2.554618,0.0927 -4.195204,-0.25845 -9.409103,-2.01364 z"
           style="fill:#0f9d58;fill-opacity:1;stroke:none;stroke-width:4.85768509;stroke-linejoin:round;stroke-miterlimit:4;stroke-dasharray:none;stroke-opacity:1" />
        <path
           inkscape:connector-curvature="0"
           id="path5008"
           d="m 112.35984,1051.5167 c -10.0014,-1.4495 -12.15632,-1.8201 -12.531784,-2.1556 -0.248854,-0.2223 1.738304,-3.7475 4.550294,-8.0722 7.16635,-11.0213 49.77231,-74.64801 50.25856,-75.05489 3.57509,-2.99158 8.63523,-8.0414 10.57512,-10.55356 3.36154,-4.35318 7.55784,-12.9141 9.06523,-18.494 6.19314,-22.92535 -2.59253,-47.15185 -21.69967,-59.83688 l -2.96081,-1.96565 17.02469,0.29584 c 9.36358,0.1627 31.17032,0.43384 48.45941,0.60252 l 31.43471,0.30668 1.54584,4.18869 c 2.24597,6.08579 4.67816,15.0947 5.93451,21.9816 1.52517,8.36049 1.92536,28.85896 0.73851,37.82758 -3.0805,23.27845 -12.81326,45.72018 -27.80202,64.10577 -20.47622,25.1166 -51.4599,42.1974 -84.14612,46.3885 -5.31244,0.6812 -26.64601,0.9864 -30.44647,0.4356 z"
           style="fill:#f4b400;fill-opacity:1;stroke:none;stroke-width:4.85768509;stroke-linejoin:round;stroke-miterlimit:4;stroke-dasharray:none;stroke-opacity:1" />
        <path
           transform="translate(0,796.36216)"
           inkscape:connector-curvature="0"
           id="path5010"
           d="M 67.989788,108.87302 C 41.284246,59.575543 33.290284,45.149038 32.233625,44.344765 31.651257,43.901497 32.811213,42.549931 38.695603,36.815353 53.43581,22.450419 68.809334,13.040746 87.839196,6.7360352 101.68742,2.1480329 112.58238,0.43719165 127.95142,0.43719165 c 21.3099,0 37.80488,3.80960275 56.83492,13.12633035 25.29351,12.383198 46.19421,33.578863 58.51993,59.345832 1.61138,3.368591 2.92978,6.372442 2.92978,6.675231 0,0.560033 -10.54865,0.49527 -71.16508,-0.436914 l -24.28843,-0.373518 -3.93063,-1.764495 c -6.75732,-3.033425 -10.64587,-3.839529 -18.6576,-3.867747 -5.0296,-0.01773 -7.97946,0.207636 -10.31642,0.788106 -14.50826,3.603659 -26.283291,12.94777 -33.291614,26.418653 -3.58502,6.89086 -5.24713,13.08166 -6.331628,23.58317 l -0.33738,3.26696 -9.92748,-18.32578 z"
           style="fill:#db4437;fill-opacity:1;stroke:none;stroke-width:10;stroke-linejoin:round;stroke-miterlimit:4;stroke-dasharray:none;stroke-opacity:1" />
      </g>
    </clipPath>
    <clipPath
       id="clipPath4271"
       clipPathUnits="userSpaceOnUse">
      <circle
         r="128"
         cy="128.00002"
         cx="128"
         id="circle4273"
         style="fill:#292929;fill-opacity:0.26020412;stroke:none;stroke-width:10;stroke-linejoin:round;stroke-miterlimit:4;stroke-dasharray:none;stroke-opacity:0.25882353" />
    </clipPath>
    <clipPath
       clipPathUnits="userSpaceOnUse"
       id="clipPath4363">
      <circle
         r="128"
         cy="924.36218"
         cx="128"
         id="circle4365"
         style="fill:#4285f4;fill-opacity:1;stroke:none;stroke-width:10;stroke-linejoin:round;stroke-miterlimit:4;stroke-dasharray:none;stroke-opacity:0.25882353" />
    </clipPath>
    <clipPath
       id="clipPath4452"
       clipPathUnits="userSpaceOnUse">
      <circle
         r="128"
         cy="924.36218"
         cx="128"
         id="circle4454"
         style="fill:#4285f4;fill-opacity:1;stroke:none;stroke-width:10;stroke-linejoin:round;stroke-miterlimit:4;stroke-dasharray:none;stroke-opacity:0.25882353" />
    </clipPath>
    <clipPath
       clipPathUnits="userSpaceOnUse"
       id="clipPath5177">
      <circle
         r="128"
         cy="924.36218"
         cx="128"
         id="circle5179"
         style="fill:#4285f4;fill-opacity:1;stroke:none;stroke-width:10;stroke-linejoin:round;stroke-miterlimit:4;stroke-dasharray:none;stroke-opacity:0.25882353" />
    </clipPath>
    <clipPath
       id="clipPath4342"
       clipPathUnits="userSpaceOnUse">
      <circle
         r="128"
         cy="933.48718"
         cx="128"
         id="circle4344"
         style="fill:#4285f4;fill-opacity:1;stroke:none;stroke-width:10;stroke-linejoin:round;stroke-miterlimit:4;stroke-dasharray:none;stroke-opacity:0.25882353" />
    </clipPath>
    <clipPath
       clipPathUnits="userSpaceOnUse"
       id="clipPath4681">
      <circle
         r="128"
         cy="930.43964"
         cx="127.00293"
         id="circle4683"
         style="fill:#9d5fad;fill-opacity:1;stroke:none;stroke-width:10;stroke-linejoin:round;stroke-miterlimit:4;stroke-dasharray:none;stroke-opacity:0.25882353" />
    </clipPath>
    <clipPath
       id="clipPath4480"
       clipPathUnits="userSpaceOnUse">
      <circle
         r="128"
         cy="924.36218"
         cx="128"
         id="circle4482"
         style="fill:#df7618;fill-opacity:1;stroke:none;stroke-width:10;stroke-linejoin:round;stroke-miterlimit:4;stroke-dasharray:none;stroke-opacity:0.25882353" />
    </clipPath>
    <clipPath
       clipPathUnits="userSpaceOnUse"
       id="clipPath3643">
      <circle
         r="128"
         cy="921.36218"
         cx="128"
         id="circle3645"
         style="fill:#f2b469;fill-opacity:1;stroke:none;stroke-width:10;stroke-linejoin:round;stroke-miterlimit:4;stroke-dasharray:none;stroke-opacity:0.25882353" />
    </clipPath>
  </defs>
  <metadata
     id="metadata7">
    <rdf:RDF>
      <cc:Work
         rdf:about="">
        <dc:format>image/svg+xml</dc:format>
        <dc:type
           rdf:resource="http://purl.org/dc/dcmitype/StillImage" />
        <dc:title />
      </cc:Work>
    </rdf:RDF>
  </metadata>
  <g
     transform="translate(0,-796.36216)"
     id="layer1"
     inkscape:groupmode="layer"
     inkscape:label="Layer 1">
    <path
       inkscape:connector-curvature="0"
       id="path4913"
       d="M 154.47438,968.80998 101.03985,1048.476 0.4857685,1048.9618 0,842.0244 l 33.032258,-2.42884 45.176471,83.55218 21.373814,35.4611 26.717267,13.11575 z"
       style="fill:none;fill-rule:evenodd;stroke:none;stroke-width:1px;stroke-linecap:butt;stroke-linejoin:miter;stroke-opacity:1" />
    <circle
       style="fill:#f8c592;fill-opacity:1;stroke:none;stroke-width:10;stroke-linejoin:round;stroke-miterlimit:4;stroke-dasharray:none;stroke-opacity:0.25882353"
       id="path4152"
       cx="128"
       cy="924.36218"
       r="128" />
    <text
       id="text4914"
       y="927.36218"
       x="120"
       style="font-style:normal;font-weight:normal;line-height:0%;font-family:sans-serif;letter-spacing:0px;word-spacing:0px;fill:#000000;fill-opacity:1;stroke:none;stroke-width:1px;stroke-linecap:butt;stroke-linejoin:miter;stroke-opacity:1"
       xml:space="preserve"><tspan
         style="font-size:40px;line-height:1.25"
         y="927.36218"
         x="120"
         id="tspan4916"
         sodipodi:role="line"> </tspan></text>
    <path
       style="fill:none;stroke:black;stroke-opacity:1;stroke-width:1px;stroke-linejoin:miter;stroke-linecap:butt;fill-rule:evenodd"
       d="m 90,171 c -0.02835,0.10164 -0.09512,0.18781 -0.142791,0.28195 -0.03402,0.0672 -0.06286,0.17517 0.01,0.19433 0.629139,0.16553 1.292524,0 1.943074,0 2.428842,0 4.857682,0 7.286524,0 h 3e-6 17.001886 1e-5 33.03226 10.20114 3.40038 1.94307 c 0,0 0,0 1e-5,0 0.16221,0 0.32574,0.0266 0.48575,0 1e-5,0 1e-5,0 1e-5,0 0.8145,-0.13574 1.61434,-0.35002 2.42884,-0.48577 0.16001,-0.0266 0.32355,0 0.48577,0 h 1.94308 4.85768 5.82922 c 0.65029,0 1.31221,0.15772 1.94308,0 0.23054,-0.0576 0.26034,-0.41062 0.48576,-0.48577 0.30935,-0.10312 0.64546,0 0.97153,0 1e-5,0 1e-5,0 1e-5,0 0.48771,0 0.98416,0.11829 1.45731,0 0.22811,-0.057 0.27547,-0.38062 0.48577,-0.48576 0.0332,-0.0166 0.073,-0.0132 0.11001,-0.0156 0,0 0,0 0,0 0.0743,-0.005 0.14882,-0.006 0.22329,-0.007 0.21191,-0.003 0.42387,-6e-4 0.63578,0.003 0.32447,0.005 0.64948,0.0204 0.97399,0.0204 h 3.88615 c 0.33969,0 0.67926,0.0178 1.01889,0.024 1e-5,0 1e-5,0 1e-5,0 0.20078,0.004 0.40162,0.007 0.6024,0.003 0,0 0,0 10e-6,0 0.10737,-0.002 0.22572,0.0211 0.32176,-0.027 0.20741,-0.1037 0.27836,-0.38207 0.48577,-0.48577 0.0501,-0.0251 0.11077,-0.0175 0.16675,-0.0206 0.1181,-0.006 0.2364,-0.008 0.35467,-0.01 0,0 0,0 0,0 0.34828,-0.004 0.6966,-6.9e-4 1.04487,0.003 0.61137,0.007 1.22268,0.0269 1.83409,0.0269 0.43027,0 0.86055,-0.006 1.29082,-0.008 0.26002,-0.001 0.52005,-0.002 0.78008,-0.001 0.0852,4.2e-4 0.17049,9e-4 0.25571,0.003 0,0 0,0 0,0 1e-5,0 1e-5,0 1e-5,0 0.0244,5.9e-4 0.0489,0.001 0.0733,0.003 0.009,5.7e-4 0.0217,-0.003 0.0289,0.004 0.0602,0.0602 0.0251,0.16159 5e-5,0.24293 -0.0251,0.0813 -0.0602,0.1827 0,0.24289 0.0726,0.0726 0.19615,0.0134 0.2942,-0.0172 0.0707,-0.0221 0.20179,-0.0562 0.19157,0.0172 -0.054,0.38821 -0.41242,0.65005 -0.62239,0.98102"
       id="path4233"
       inkscape:path-effect="#path-effect4235"
       inkscape:original-d="m 90,171 c -0.04428,0.15876 -0.292221,0.43434 -0.132827,0.47628 0.626374,0.1648 1.295382,0 1.943074,0 2.428842,0 4.857685,0 7.286527,0 5.667296,0 11.334596,0 17.001896,0 11.01075,0 22.02151,0 33.03226,0 3.40038,0 6.80076,0 10.20114,0 1.13346,0 2.26692,0 3.40038,0 0.64769,0 1.29538,0 1.94307,0 0.16192,0 0.32605,0.0266 0.48577,0 0.81441,-0.13573 1.61443,-0.35003 2.42884,-0.48577 0.15972,-0.0266 0.32385,0 0.48577,0 0.64769,0 1.29538,0 1.94308,0 1.61922,0 3.23845,0 4.85768,0 1.94307,0 3.88615,0 5.82922,0 0.64769,0 1.31472,0.15709 1.94308,0 0.22215,-0.0555 0.26852,-0.41335 0.48576,-0.48577 0.30723,-0.10241 0.6477,0 0.97154,0 0.48577,0 0.98604,0.11782 1.45731,0 0.22215,-0.0555 0.28095,-0.38336 0.48577,-0.48576 0.10887,-0.0544 1.82764,0 1.94307,0 1.29538,0 2.59077,0 3.88615,0 0.25402,0 1.81534,0.0639 1.94307,0 0.20482,-0.10241 0.28095,-0.38336 0.48577,-0.48577 0.14338,-0.0717 2.89994,0 3.40038,0 0.22904,0 2.40683,-0.022 2.42884,0 0.1145,0.11449 -0.11449,0.37127 0,0.48577 0.1145,0.11449 0.50811,-0.16038 0.48577,0 -0.0534,0.38356 -0.41493,0.65401 -0.62239,0.98102" />
    <g
       id="g4356"
       transform="translate(1.5e-6,2.9999915)"
       clip-path="url(#clipPath3643)"
       style="fill:#d77015;fill-opacity:1">
      <g
         id="g3575"
         transform="translate(-1.5e-6,793.36217)"
         style="fill:#d77015;fill-opacity:1">
        <g
           id="g3572"
           style="opacity:1;fill:#d77015;fill-opacity:1;stroke:none;stroke-width:0;stroke-linecap:round;stroke-linejoin:round;stroke-miterlimit:4;stroke-dasharray:none;stroke-opacity:1">
          <path
             id="path3554"
             d="M128.0 56.078125C119.409089479 57.6293414689 112.628492038 61.3712603928 107.484848808 66.5149036228L-33.9365074294 207.93625986C-28.7928641995 202.79261663 -22.0122667587 199.050697706 -13.4213562373 197.499481237Z"
             style="fill:#d77015;fill-opacity:1" />
          <path
             id="path3556"
             d="M107.484848808 66.5149036228C82.6370796312 91.3626727995 95.9898646993 148.921586268 128.0 150.24805L-13.4213562373 291.669406237C-45.431491538 290.342942505 -58.7842766061 232.784029037 -33.9365074294 207.93625986Z"
             style="fill:#d77015;fill-opacity:1" />
          <path
             id="path3558"
             d="M128.0 150.24805C135.63058381 150.248118022 142.683064103 146.872942921 148.398359731 141.157647293L6.97700349417 282.57900353C1.26170786611 288.294299158 -5.7907724276 291.66947426 -13.4213562373 291.669406237Z"
             style="fill:#d77015;fill-opacity:1" />
          <path
             id="path3560"
             d="M148.398359731 141.157647293C156.966622289 132.589384735 162.529503955 118.761599169 162.5293 103.16211L21.1079437627 244.583466237C21.1081477181 260.182955406 15.5452660521 274.010740972 6.97700349417 282.57900353Z"
             style="fill:#d77015;fill-opacity:1" />
          <path
             id="path3562"
             d="M162.5293 103.16211C162.52885 77.158043 147.06965 56.077956 128.0 56.078125L-13.4213562373 197.499481237C5.64829376269 197.499312237 21.1074937627 218.579399237 21.1079437627 244.583466237Z"
             style="fill:#d77015;fill-opacity:1" />
          <path
             id="path3564"
             d="M127.08594 157.21484C96.6628799626 157.21484 69.9823268621 169.893798724 56.7807232591 183.095402327L-84.6406329782 324.516758564C-71.4390293752 311.315154961 -44.7584762747 298.636196237 -14.3354162373 298.636196237Z"
             style="fill:#d77015;fill-opacity:1" />
          <path
             id="path3566"
             d="M56.7807232591 183.095402327C51.175343775 188.700781811 48.000000298 194.400385691 48.0 199.26367L-93.4213562373 340.685026237C-93.4213559393 335.821741929 -90.2460124623 330.122138048 -84.6406329782 324.516758564Z"
             style="fill:#d77015;fill-opacity:1" />
          <path
             id="path3568"
             d="M48.0 199.26367C106.33192 200.1416 140.77165 200.1416 208.0 199.26367L66.5786437627 340.685026237C-0.649706237309 341.562956237 -35.0894362373 341.562956237 -93.4213562373 340.685026237Z"
             style="fill:#d77015;fill-opacity:1" />
          <path
             id="path3570"
             d="M208.0 199.26367C208.0 182.94654 170.42659 157.21484 127.08594 157.21484L-14.3354162373 298.636196237C29.0052337627 298.636196237 66.5786437627 324.367896237 66.5786437627 340.685026237Z"
             style="fill:#d77015;fill-opacity:1" />
        </g>
        <path
           sodipodi:nodetypes="ccccsccs"
           inkscape:connector-curvature="0"
           id="ellipse4352"
           transform=""
           d="m 128,56.078125 c -50.091643,9.04479 -38.636433,92.568875 0,94.169925 19.07021,1.7e-4 34.52964,-21.08111 34.5293,-47.08594 C 162.52885,77.158043 147.06965,56.077956 128,56.078125 Z m -0.91406,101.136715 c -43.340642,0 -79.085939,25.7317 -79.08594,42.04883 58.33192,0.87793 92.77165,0.87793 160,0 0,-16.31713 -37.57341,-42.04883 -80.91406,-42.04883 z"
           style="opacity:1;fill:#d77015;fill-opacity:1;stroke:none;stroke-width:0;stroke-linecap:round;stroke-linejoin:round;stroke-miterlimit:4;stroke-dasharray:none;stroke-opacity:1" />
      </g>
    </g>
    <g
       transform="translate(1.5e-6,2.9999915)"
       id="g4350"
       style="fill:#ffffff;fill-opacity:1">
      <ellipse
         style="opacity:1;fill:#ffffff;fill-opacity:1;stroke:none;stroke-width:0;stroke-linecap:round;stroke-linejoin:round;stroke-miterlimit:4;stroke-dasharray:none;stroke-opacity:1"
         id="ellipse4250"
         cx="128"
         cy="896.52509"
         rx="34.529076"
         ry="47.085106" />
      <path
         style="opacity:1;fill:#ffffff;fill-opacity:1;stroke:none;stroke-width:0;stroke-linecap:round;stroke-linejoin:round;stroke-miterlimit:4;stroke-dasharray:none;stroke-opacity:1"
         d="m 208,992.62591 c -67.22835,0.87793 -101.66808,0.87793 -160.000003,0 10e-7,-16.31713 35.744464,-42.0484 79.085103,-42.0484 43.34065,0 80.9149,25.73127 80.9149,42.0484 z"
         id="path4252"
         inkscape:connector-curvature="0"
         sodipodi:nodetypes="ccsc" />
    </g>
  </g>
</svg>
