<?xml version="1.0" encoding="UTF-8" standalone="no"?>
<!-- Created with Inkscape (http://www.inkscape.org/) -->

<svg
   xmlns:dc="http://purl.org/dc/elements/1.1/"
   xmlns:cc="http://creativecommons.org/ns#"
   xmlns:rdf="http://www.w3.org/1999/02/22-rdf-syntax-ns#"
   xmlns:svg="http://www.w3.org/2000/svg"
   xmlns="http://www.w3.org/2000/svg"
   xmlns:sodipodi="http://sodipodi.sourceforge.net/DTD/sodipodi-0.dtd"
   xmlns:inkscape="http://www.inkscape.org/namespaces/inkscape"
   width="256"
   height="256"
   viewBox="0 0 256 256"
   id="svg2"
   version="1.1"
   inkscape:version="0.92.0 r"
   sodipodi:docname="gnome-logs-symbolic.svg">
  <sodipodi:namedview
     id="base"
     pagecolor="#ffffff"
     bordercolor="#666666"
     borderopacity="1.0"
     inkscape:pageopacity="0.0"
     inkscape:pageshadow="2"
     inkscape:zoom="3.3359375"
     inkscape:cx="128"
     inkscape:cy="128"
     inkscape:document-units="px"
     inkscape:current-layer="layer1"
     showgrid="true"
     units="px"
     inkscape:window-width="1920"
     inkscape:window-height="1054"
     inkscape:window-x="0"
     inkscape:window-y="0"
     inkscape:window-maximized="1">
    <inkscape:grid
       spacingy="5"
       spacingx="5"
       id="grid4191"
       type="xygrid" />
  </sodipodi:namedview>
  <defs
     id="defs4">
    <inkscape:path-effect
       is_visible="true"
       id="path-effect4176"
       effect="spiro" />
    <inkscape:path-effect
       effect="spiro"
       id="path-effect4172"
       is_visible="true" />
    <inkscape:path-effect
       effect="spiro"
       id="path-effect4829"
       is_visible="true" />
    <inkscape:path-effect
       effect="spiro"
       id="path-effect4153"
       is_visible="true" />
    <inkscape:path-effect
       effect="spiro"
       id="path-effect4175"
       is_visible="true" />
    <clipPath
       id="clipPath4174"
       clipPathUnits="userSpaceOnUse">
      <circle
         r="128"
         cy="924.36218"
         cx="128"
         id="circle4176"
         style="fill:#cc2828;fill-opacity:1;stroke:none;stroke-width:0;stroke-linecap:round;stroke-linejoin:round;stroke-miterlimit:4;stroke-dasharray:none;stroke-opacity:1" />
    </clipPath>
    <clipPath
       id="clipPath4183"
       clipPathUnits="userSpaceOnUse">
      <circle
         transform="matrix(0,-1,1,0,0,0)"
         r="128"
         cy="128.00002"
         cx="-924.36218"
         id="circle4185"
         style="fill:#cc2828;fill-opacity:1;stroke:none;stroke-width:0;stroke-linecap:round;stroke-linejoin:round;stroke-miterlimit:4;stroke-dasharray:none;stroke-opacity:1" />
    </clipPath>
    <clipPath
       id="clipPath4187"
       clipPathUnits="userSpaceOnUse">
      <circle
         r="128"
         cy="924.36218"
         cx="128"
         id="circle4189"
         style="fill:#cc2828;fill-opacity:1;stroke:none;stroke-width:0;stroke-linecap:round;stroke-linejoin:round;stroke-miterlimit:4;stroke-dasharray:none;stroke-opacity:1" />
    </clipPath>
    <clipPath
       id="clipPath4209"
       clipPathUnits="userSpaceOnUse">
      <circle
         transform="matrix(0,-1,1,0,0,0)"
         r="128"
         cy="128"
         cx="-924.36218"
         id="circle4211"
         style="fill:#cc2828;fill-opacity:1;stroke:none;stroke-width:0;stroke-linecap:round;stroke-linejoin:round;stroke-miterlimit:4;stroke-dasharray:none;stroke-opacity:1" />
    </clipPath>
    <clipPath
       id="clipPath4213"
       clipPathUnits="userSpaceOnUse">
      <circle
         r="128"
         cy="924.36218"
         cx="128"
         id="circle4215"
         style="fill:#cc2828;fill-opacity:1;stroke:none;stroke-width:0;stroke-linecap:round;stroke-linejoin:round;stroke-miterlimit:4;stroke-dasharray:none;stroke-opacity:1" />
    </clipPath>
    <clipPath
       clipPathUnits="userSpaceOnUse"
       id="clipPath4381">
      <circle
         r="128"
         cy="640.4978"
         cx="686.50537"
         id="circle4383"
         style="fill:#d83838;fill-opacity:1;stroke:none;stroke-width:0;stroke-linecap:round;stroke-linejoin:round;stroke-miterlimit:4;stroke-dasharray:none;stroke-opacity:1"
         transform="matrix(0.77780341,0.62850764,-0.62850764,0.77780341,0,0)" />
    </clipPath>
    <clipPath
       clipPathUnits="userSpaceOnUse"
       id="clipPath4857">
      <circle
         r="128"
         cy="924.36218"
         cx="128"
         id="circle4859"
         style="fill:#68bdff;fill-opacity:1;stroke:none;stroke-width:0;stroke-linecap:round;stroke-linejoin:round;stroke-miterlimit:4;stroke-dasharray:none;stroke-opacity:1" />
    </clipPath>
    <clipPath
       clipPathUnits="userSpaceOnUse"
       id="clipPath5081">
      <circle
         style="fill:#68bdff;fill-opacity:1;stroke:none;stroke-width:0;stroke-linecap:round;stroke-linejoin:round;stroke-miterlimit:4;stroke-dasharray:none;stroke-opacity:1"
         id="circle5083"
         cx="-127.94974"
         cy="924.36218"
         r="128"
         transform="scale(-1,1)" />
    </clipPath>
    <clipPath
       clipPathUnits="userSpaceOnUse"
       id="clipPath5081-7">
      <circle
         style="fill:#68bdff;fill-opacity:1;stroke:none;stroke-width:0;stroke-linecap:round;stroke-linejoin:round;stroke-miterlimit:4;stroke-dasharray:none;stroke-opacity:1"
         id="circle5083-5"
         cx="-127.94974"
         cy="924.36218"
         r="128"
         transform="scale(-1,1)" />
    </clipPath>
    <clipPath
       id="clipPath4286"
       clipPathUnits="userSpaceOnUse">
      <circle
         r="128"
         cy="927.36218"
         cx="125"
         id="circle4288"
         style="fill:#ff7b68;fill-opacity:1;stroke:none;stroke-width:0;stroke-linecap:round;stroke-linejoin:round;stroke-miterlimit:4;stroke-dasharray:none;stroke-opacity:1" />
    </clipPath>
    <clipPath
       clipPathUnits="userSpaceOnUse"
       id="clipPath4298">
      <circle
         style="fill:#df241d;fill-opacity:1;stroke:none;stroke-width:71;stroke-linecap:butt;stroke-miterlimit:4;stroke-dasharray:none;stroke-opacity:1"
         id="circle4300"
         cx="128"
         cy="924.36218"
         r="128" />
    </clipPath>
    <clipPath
       id="clipPath4292"
       clipPathUnits="userSpaceOnUse">
      <circle
         transform="matrix(0,-1,1,0,0,0)"
         style="fill:#df241d;fill-opacity:1;stroke:none;stroke-width:71;stroke-linecap:butt;stroke-miterlimit:4;stroke-dasharray:none;stroke-opacity:1"
         id="circle4294"
         cx="-920.63922"
         cy="128.00002"
         r="128" />
    </clipPath>
    <clipPath
       clipPathUnits="userSpaceOnUse"
       id="clipPath4753">
      <circle
         style="fill:#1f9c4a;fill-opacity:1;stroke:none;stroke-width:71;stroke-linecap:butt;stroke-miterlimit:4;stroke-dasharray:none;stroke-opacity:1"
         id="circle4755"
         cx="-486.26294"
         cy="798.66675"
         r="120.95755"
         transform="matrix(0.77485215,-0.63214251,0.63214251,0.77485215,0,0)" />
    </clipPath>
    <clipPath
       clipPathUnits="userSpaceOnUse"
       id="clipPath4774">
      <circle
         style="fill:#1f9c4a;fill-opacity:1;stroke:none;stroke-width:71;stroke-linecap:butt;stroke-miterlimit:4;stroke-dasharray:none;stroke-opacity:1"
         id="circle4776"
         cx="850.09076"
         cy="385.71805"
         r="120.95754"
         transform="matrix(-0.81688221,0.57680453,0.57680453,0.81688221,0,0)" />
    </clipPath>
    <clipPath
       clipPathUnits="userSpaceOnUse"
       id="clipPath4780">
      <circle
         style="fill:#1f9c4a;fill-opacity:1;stroke:none;stroke-width:71;stroke-linecap:butt;stroke-miterlimit:4;stroke-dasharray:none;stroke-opacity:1"
         id="circle4782"
         cx="850.09076"
         cy="385.71805"
         r="120.95754"
         transform="matrix(-0.81688221,0.57680453,0.57680453,0.81688221,0,0)" />
    </clipPath>
  </defs>
  <metadata
     id="metadata7">
    <rdf:RDF>
      <cc:Work
         rdf:about="">
        <dc:format>image/svg+xml</dc:format>
        <dc:type
           rdf:resource="http://purl.org/dc/dcmitype/StillImage" />
        <dc:title />
      </cc:Work>
    </rdf:RDF>
  </metadata>
  <g
     inkscape:label="Layer 1"
     inkscape:groupmode="layer"
     id="layer1"
     transform="translate(0,-796.36216)">
    <path
       style="fill:#1f7fc1;fill-opacity:1;stroke:none;stroke-width:71;stroke-linecap:butt;stroke-miterlimit:4;stroke-dasharray:none;stroke-opacity:1"
       d="M 128 0 A 128 128 0 0 0 0 128 A 128 128 0 0 0 128 256 A 128 128 0 0 0 256 128 A 128 128 0 0 0 128 0 z M 123.31641 33.009766 C 146.19686 33.373634 168.6602 44.10213 183.05273 63.972656 C 204.95719 94.214245 200.90947 135.61125 175.23242 161.19531 L 206.48242 204.33789 C 210.32432 209.64207 209.18684 216.97624 203.93359 220.78125 C 198.68035 224.58626 191.35948 223.3784 187.51758 218.07422 L 156.26758 174.92969 C 123.95325 191.35004 83.359603 182.29052 61.455078 152.04883 C 37.215029 118.58268 44.748691 71.450985 78.214844 47.210938 C 91.810468 37.363416 107.66136 32.760803 123.31641 33.009766 z M 147.01367 68.501953 C 130.039 68.501953 126.85509 92.677734 136.4043 92.677734 C 145.95212 92.677734 163.98904 68.501953 147.01367 68.501953 z M 120.78516 71.462891 C 120.51561 71.461962 120.23222 71.480785 119.93359 71.519531 C 110.38094 72.759409 113.74167 89.373107 118.82812 89.683594 C 123.75365 89.984378 129.14107 71.491675 120.78516 71.462891 z M 104.08008 78.042969 C 103.61735 78.072926 103.11791 78.19329 102.57812 78.416016 C 94.900144 81.584363 101.41356 94.662226 105.71484 93.783203 C 109.61601 92.987839 110.17428 78.411439 104.53125 78.042969 C 104.38531 78.033439 104.23432 78.032983 104.08008 78.042969 z M 92 88.287109 C 91.332438 88.264644 90.610425 88.486818 89.841797 89.017578 C 83.695533 93.264351 91.909251 103.52271 95.525391 101.93164 C 98.689513 100.53885 96.672934 88.44437 92 88.287109 z M 127.09961 96.138672 C 113.92284 95.915752 96.542414 102.52574 93.578125 115.80078 C 90.367689 130.16667 106.79275 150.09766 123.93164 150.09766 C 132.36309 150.09766 142.0868 142.48426 143.90625 132.83984 C 145.29585 125.48544 127.55583 128.43246 128.19336 133.29883 C 128.95716 139.13184 123.91342 142.0123 118.97461 138.25195 C 103.25223 126.28164 145.0062 120.31073 142.25391 103.95703 C 141.39722 98.866603 135.00567 96.272424 127.09961 96.138672 z "
       transform="translate(0,796.36216)"
       id="path4174" />
  </g>
  <g
     transform="matrix(0.68997129,0,0,0.68997116,87.628915,68.501198)"
     id="g4212"
     style="opacity:0.93500001;fill:#1d1d1d;fill-opacity:1;fill-rule:nonzero;stroke:none;stroke-width:1.00008464;stroke-miterlimit:4;stroke-dasharray:none;stroke-opacity:1">
    <g
       id="g4214"
       style="fill:#1d1d1d;fill-opacity:1;stroke:none;stroke-width:1.00008464;stroke-miterlimit:4;stroke-dasharray:none;stroke-opacity:1" />
  </g>
</svg>
