<?xml version="1.0" encoding="UTF-8" standalone="no"?>
<!-- Created with Inkscape (http://www.inkscape.org/) -->

<svg
   xmlns:dc="http://purl.org/dc/elements/1.1/"
   xmlns:cc="http://creativecommons.org/ns#"
   xmlns:rdf="http://www.w3.org/1999/02/22-rdf-syntax-ns#"
   xmlns:svg="http://www.w3.org/2000/svg"
   xmlns="http://www.w3.org/2000/svg"
   xmlns:xlink="http://www.w3.org/1999/xlink"
   xmlns:sodipodi="http://sodipodi.sourceforge.net/DTD/sodipodi-0.dtd"
   xmlns:inkscape="http://www.inkscape.org/namespaces/inkscape"
   id="svg2"
   version="1.1"
   inkscape:version="0.91 r13725"
   width="256"
   height="256"
   viewBox="0 0 256 256"
   sodipodi:docname="gnome-freecell.svg">
  <sodipodi:namedview
     pagecolor="#ffffff"
     bordercolor="#666666"
     borderopacity="1"
     objecttolerance="10"
     gridtolerance="10"
     guidetolerance="10"
     inkscape:pageopacity="0"
     inkscape:pageshadow="2"
     inkscape:window-width="1366"
     inkscape:window-height="721"
     id="namedview4"
     showgrid="true"
     inkscape:zoom="2.0507812"
     inkscape:cx="128"
     inkscape:cy="128"
     inkscape:window-x="0"
     inkscape:window-y="0"
     inkscape:window-maximized="1"
     inkscape:current-layer="svg2">
    <inkscape:grid
       type="xygrid"
       id="grid4263"
       spacingx="5"
       spacingy="5" />
  </sodipodi:namedview>
  <metadata
     id="metadata8">
    <rdf:RDF>
      <cc:Work
         rdf:about="">
        <dc:format>image/svg+xml</dc:format>
        <dc:type
           rdf:resource="http://purl.org/dc/dcmitype/StillImage" />
        <dc:title></dc:title>
      </cc:Work>
    </rdf:RDF>
  </metadata>
  <defs
     id="defs6">
    <radialGradient
       cx="24.218475"
       cy="13.491528"
       r="10.214344"
       fx="24.218475"
       fy="13.491528"
       id="radialGradient3416"
       xlink:href="#linearGradient556"
       gradientUnits="userSpaceOnUse"
       gradientTransform="scale(0.887627,1.1266)"
       spreadMethod="pad" />
    <linearGradient
       id="linearGradient556">
      <stop
         id="stop557"
         style="stop-color:#ffffff;stop-opacity:1"
         offset="0" />
      <stop
         id="stop558"
         style="stop-color:#8f8f8f;stop-opacity:1"
         offset="1" />
    </linearGradient>
    <radialGradient
       cx="31.637579"
       cy="4.2911568"
       r="6.1138387"
       fx="31.637579"
       fy="4.2911568"
       id="radialGradient3418"
       xlink:href="#linearGradient561"
       gradientUnits="userSpaceOnUse"
       gradientTransform="matrix(4.8069419,0,0,4.2675562,-92.301838,59.900379)"
       spreadMethod="pad" />
    <linearGradient
       id="linearGradient561">
      <stop
         id="stop562"
         style="stop-color:#72a6db;stop-opacity:1"
         offset="0" />
      <stop
         id="stop563"
         style="stop-color:#4974aa;stop-opacity:1"
         offset="1" />
    </linearGradient>
    <linearGradient
       x1="66.896873"
       y1="9.7092857"
       x2="68.416641"
       y2="18.198601"
       id="linearGradient3420"
       xlink:href="#linearGradient561"
       gradientUnits="userSpaceOnUse"
       gradientTransform="scale(0.577912,1.730367)"
       spreadMethod="pad" />
    <linearGradient
       x1="42.007587"
       y1="5.4559503"
       x2="56.888985"
       y2="14.642175"
       id="linearGradient3422"
       xlink:href="#linearGradient635"
       gradientUnits="userSpaceOnUse"
       gradientTransform="scale(0.653126,1.531098)"
       spreadMethod="pad" />
    <linearGradient
       id="linearGradient635">
      <stop
         id="stop636"
         style="stop-color:#ffffff;stop-opacity:1"
         offset="0" />
      <stop
         id="stop637"
         style="stop-color:#ffffff;stop-opacity:0.17647099"
         offset="1" />
    </linearGradient>
    <radialGradient
       cx="15.485512"
       cy="16.134611"
       r="27.532124"
       fx="15.485512"
       fy="16.134611"
       id="radialGradient3424"
       xlink:href="#linearGradient564"
       gradientUnits="userSpaceOnUse"
       gradientTransform="scale(0.992835,1.007217)"
       spreadMethod="pad" />
    <linearGradient
       id="linearGradient564">
      <stop
         id="stop565"
         style="stop-color:#3278c6;stop-opacity:1"
         offset="0" />
      <stop
         id="stop566"
         style="stop-color:#264980;stop-opacity:1"
         offset="1" />
    </linearGradient>
    <linearGradient
       x1="40.970566"
       y1="41.885136"
       x2="23.98053"
       y2="21.709469"
       id="linearGradient3426"
       xlink:href="#linearGradient604"
       gradientUnits="userSpaceOnUse"
       gradientTransform="scale(0.992835,1.007217)"
       spreadMethod="pad" />
    <linearGradient
       id="linearGradient604">
      <stop
         id="stop605"
         style="stop-color:#000000;stop-opacity:0.239216"
         offset="0" />
      <stop
         id="stop606"
         style="stop-color:#000000;stop-opacity:0"
         offset="1" />
    </linearGradient>
    <radialGradient
       cx="56.924801"
       cy="25.590885"
       r="5.3430753"
       fx="56.924801"
       fy="25.590885"
       id="radialGradient3428"
       xlink:href="#linearGradient561"
       gradientUnits="userSpaceOnUse"
       gradientTransform="scale(1.121976,0.891285)"
       spreadMethod="pad" />
    <linearGradient
       x1="25.033354"
       y1="15.336463"
       x2="25.337631"
       y2="24.686901"
       id="linearGradient3430"
       xlink:href="#linearGradient635"
       gradientUnits="userSpaceOnUse"
       gradientTransform="scale(0.959984,1.041684)"
       spreadMethod="pad" />
    <linearGradient
       x1="27.607258"
       y1="16.387062"
       x2="28.115267"
       y2="24.093016"
       id="linearGradient3432"
       xlink:href="#linearGradient556"
       gradientUnits="userSpaceOnUse"
       gradientTransform="scale(0.887627,1.1266)"
       spreadMethod="pad" />
    <radialGradient
       cx="32.368511"
       cy="3.355541"
       r="6.0570164"
       fx="32.368511"
       fy="3.355541"
       id="radialGradient3434"
       xlink:href="#linearGradient561"
       gradientUnits="userSpaceOnUse"
       gradientTransform="scale(1.040398,0.961171)"
       spreadMethod="pad" />
    <linearGradient
       x1="36.829525"
       y1="47.90868"
       x2="37.259823"
       y2="54.864002"
       id="linearGradient3436"
       xlink:href="#linearGradient561"
       gradientUnits="userSpaceOnUse"
       gradientTransform="scale(1.517475,0.658989)"
       spreadMethod="pad" />
    <linearGradient
       x1="29.954319"
       y1="68.697281"
       x2="30.472109"
       y2="63.224438"
       id="linearGradient3438"
       xlink:href="#linearGradient604"
       gradientUnits="userSpaceOnUse"
       gradientTransform="scale(1.847157,0.541373)"
       spreadMethod="pad" />
    <linearGradient
       x1="29.048765"
       y1="63.281857"
       x2="29.396217"
       y2="68.898041"
       id="linearGradient3440"
       xlink:href="#linearGradient561"
       gradientUnits="userSpaceOnUse"
       gradientTransform="scale(1.925671,0.519299)"
       spreadMethod="pad" />
    <clipPath
       id="clipPath4861"
       clipPathUnits="userSpaceOnUse">
      <circle
         r="28.260887"
         cy="89.471214"
         cx="64.498474"
         id="circle4863"
         style="opacity:1;fill:#e9e9e9;fill-opacity:1;stroke:none;stroke-width:10;stroke-linecap:round;stroke-linejoin:round;stroke-miterlimit:4;stroke-dasharray:none;stroke-opacity:1" />
    </clipPath>
    <clipPath
       id="clipPath6919"
       clipPathUnits="userSpaceOnUse">
      <circle
         transform="matrix(0.8875,0,0,0.8875,66.425,17.65)"
         id="path6921"
         style="color:#000000;display:inline;overflow:visible;visibility:visible;fill:none;stroke:#000000;stroke-width:3;marker:none;enable-background:accumulate"
         cx="146"
         cy="148"
         r="20" />
    </clipPath>
    <linearGradient
       id="linearGradient5375-1-1">
      <stop
         id="stop5377-6-1"
         offset="0"
         style="stop-color:#2e3436;stop-opacity:1" />
      <stop
         style="stop-color:#eeeeec;stop-opacity:1"
         offset="0.125"
         id="stop5399-3-5" />
      <stop
         style="stop-color:#babdb6;stop-opacity:1"
         offset="0.25"
         id="stop5395-8-2" />
      <stop
         style="stop-color:#ffffff;stop-opacity:1"
         offset="0.5"
         id="stop5383-6-9" />
      <stop
         id="stop5397-2-5"
         offset="0.75"
         style="stop-color:#888a85;stop-opacity:1" />
      <stop
         style="stop-color:#d3d7cf;stop-opacity:1"
         offset="0.875"
         id="stop5401-3-54" />
      <stop
         id="stop5379-92-4"
         offset="1"
         style="stop-color:#2e3436;stop-opacity:1" />
    </linearGradient>
    <clipPath
       id="clipPath8119"
       clipPathUnits="userSpaceOnUse">
      <circle
         transform="translate(0,0.3125)"
         id="path8121"
         style="color:#000000;display:inline;overflow:visible;visibility:visible;fill:none;stroke:#000000;stroke-width:1.65400004;marker:none;enable-background:accumulate"
         cx="146"
         cy="152"
         r="6" />
    </clipPath>
    <clipPath
       clipPathUnits="userSpaceOnUse"
       id="clipPath4469">
      <circle
         r="128"
         cy="128"
         cx="128"
         id="circle4471"
         style="opacity:0.97000002;fill:#282721;fill-opacity:1;stroke:none;stroke-width:10;stroke-linecap:round;stroke-linejoin:round;stroke-miterlimit:4;stroke-dasharray:none;stroke-opacity:1" />
    </clipPath>
    <clipPath
       id="clipPath4712"
       clipPathUnits="userSpaceOnUse">
      <circle
         r="128"
         cy="128"
         cx="128"
         id="circle4714"
         style="opacity:0.97000002;fill:#282721;fill-opacity:1;stroke:none;stroke-width:10;stroke-linecap:round;stroke-linejoin:round;stroke-miterlimit:4;stroke-dasharray:none;stroke-opacity:1" />
    </clipPath>
    <clipPath
       id="clipPath4718"
       clipPathUnits="userSpaceOnUse">
      <circle
         r="115.252"
         cy="134.60124"
         cx="126.22838"
         id="circle4720"
         style="opacity:0.97000002;fill:#282721;fill-opacity:1;stroke:none;stroke-width:10;stroke-linecap:round;stroke-linejoin:round;stroke-miterlimit:4;stroke-dasharray:none;stroke-opacity:1" />
    </clipPath>
    <clipPath
       clipPathUnits="userSpaceOnUse"
       id="clipPath5420">
      <circle
         r="128"
         cy="123.72166"
         cx="126.9642"
         id="circle5422"
         style="opacity:0.97000002;fill:#6ce7cb;fill-opacity:1;stroke:none;stroke-width:10;stroke-linecap:round;stroke-linejoin:round;stroke-miterlimit:4;stroke-dasharray:none;stroke-opacity:1" />
    </clipPath>
  </defs>
  <circle
     style="opacity:0.97;fill:#6ce7cb;fill-opacity:1;stroke:none;stroke-width:10;stroke-linecap:round;stroke-linejoin:round;stroke-miterlimit:4;stroke-dasharray:none;stroke-opacity:1"
     id="path3349"
     cx="128"
     cy="128"
     r="128" />
  <g
     transform="translate(1.0358047,4.2783394)"
     id="g5081"
     clip-path="url(#clipPath5420)"
     style="fill:#1db391;fill-opacity:0.97254902">
    <path
       id="path5085"
       d="m 126.70265,145.33351 c 0,-0.78293 -3.75639,-5.31446 -8.34754,-10.07005 -4.59114,-4.75561 -8.95528,-10.24505 -9.6981,-12.19879 -1.662,-4.37139 -0.1117,-8.98722 3.98146,-11.85417 4.2261,-2.96007 8.49809,-2.57155 12.1771,1.10748 l 3.18444,3.18443 3.18442,-3.18443 c 3.67903,-3.67903 7.95102,-4.06755 12.17712,-1.10748 4.09314,2.86695 5.64344,7.48278 3.98145,11.85417 -0.74281,1.95374 -5.10695,7.44318 -9.6981,12.19879 -4.59114,4.75559 -8.34753,9.28712 -8.34753,10.07005 0,0.78293 -0.58381,1.4235 -1.29736,1.4235 -0.71355,0 -1.29736,-0.64057 -1.29736,-1.4235 z"
       style="fill:#1db391;fill-opacity:0.97254902"
       inkscape:connector-curvature="0" />
    <g
       transform="matrix(1.3888889,0,0,1.3888889,-25.995309,-18.263534)"
       id="g5087"
       style="fill:#1db391;fill-opacity:0.97254902">
      <g
         id="g5089"
         transform="translate(50.368346,3.595212)"
         style="fill:#1db391;fill-opacity:0.97254902">
        <path
           id="path5091"
           d="M 32,84.977657 C 32,84.415368 30.2,82.002544 28,79.615826 25.8,77.229108 24,74.404162 24,73.338169 24,70.807036 25.874445,69 28.5,69 c 1.155,0 2.64,0.54 3.3,1.2 0.933333,0.933333 1.466667,0.933333 2.4,0 2.741723,-2.741723 7.8,-0.706629 7.8,3.138169 0,1.065993 -1.8,3.890939 -4,6.277657 -2.2,2.386718 -4,4.799542 -4,5.361831 C 34,85.539946 33.55,86 33,86 32.45,86 32,85.539946 32,84.977657 Z"
           style="fill:#1db391;fill-opacity:0.97254902"
           inkscape:connector-curvature="0" />
      </g>
      <g
         id="text5093"
         style="font-style:normal;font-variant:normal;font-weight:normal;font-stretch:normal;font-size:25px;line-height:125%;font-family:Utopia;-inkscape-font-specification:Utopia;letter-spacing:0px;word-spacing:0px;fill:#1db391;fill-opacity:0.97254902;stroke:none;stroke-width:1px;stroke-linecap:butt;stroke-linejoin:miter;stroke-opacity:1">
        <path
           id="path5175"
           style="fill:#1db391;fill-opacity:0.97254902"
           d="m 91.855843,66.803802 0,-0.725 c -1.45,-0.125 -1.725,-0.2 -2.175,-1.5 l -5.3,-15.075 -1.85,0 -2.625,7.4 c -0.775,2.175 -1.825,5.175 -2.7,7.45 -0.525,1.35 -0.75,1.65 -2.325,1.725 l 0,0.725 5.5,0 0,-0.725 -1.3,-0.125 c -0.75,-0.075 -0.825,-0.325 -0.625,-1 0.425,-1.5 0.95,-3.05 1.525,-4.825 l 5.6,0 1.675,4.775 c 0.25,0.725 0.125,1 -0.675,1.075 l -1.125,0.1 0,0.725 6.4,0 z m -6.575,-7.625 -4.975,0 c 0.8,-2.5 1.675,-4.95 2.425,-7.15 l 0.075,0 2.475,7.15 z" />
      </g>
    </g>
    <g
       id="g5097"
       transform="matrix(1.3888889,0,0,1.3888889,50.004691,-18.263534)"
       style="fill:#1db391;fill-opacity:0.97254902">
      <g
         style="fill:#1db391;fill-opacity:0.97254902"
         transform="translate(50.368346,3.595212)"
         id="g5099">
        <path
           inkscape:connector-curvature="0"
           style="fill:#1db391;fill-opacity:0.97254902"
           d="M 32,84.977657 C 32,84.415368 30.2,82.002544 28,79.615826 25.8,77.229108 24,74.404162 24,73.338169 24,70.807036 25.874445,69 28.5,69 c 1.155,0 2.64,0.54 3.3,1.2 0.933333,0.933333 1.466667,0.933333 2.4,0 2.741723,-2.741723 7.8,-0.706629 7.8,3.138169 0,1.065993 -1.8,3.890939 -4,6.277657 -2.2,2.386718 -4,4.799542 -4,5.361831 C 34,85.539946 33.55,86 33,86 32.45,86 32,85.539946 32,84.977657 Z"
           id="path5101" />
      </g>
      <g
         id="text5103"
         style="font-style:normal;font-variant:normal;font-weight:normal;font-stretch:normal;font-size:25px;line-height:125%;font-family:Utopia;-inkscape-font-specification:Utopia;letter-spacing:0px;word-spacing:0px;fill:#1db391;fill-opacity:0.97254902;stroke:none;stroke-width:1px;stroke-linecap:butt;stroke-linejoin:miter;stroke-opacity:1">
        <path
           id="path5178"
           style="fill:#1db391;fill-opacity:0.97254902"
           d="m 91.855843,66.803802 0,-0.725 c -1.45,-0.125 -1.725,-0.2 -2.175,-1.5 l -5.3,-15.075 -1.85,0 -2.625,7.4 c -0.775,2.175 -1.825,5.175 -2.7,7.45 -0.525,1.35 -0.75,1.65 -2.325,1.725 l 0,0.725 5.5,0 0,-0.725 -1.3,-0.125 c -0.75,-0.075 -0.825,-0.325 -0.625,-1 0.425,-1.5 0.95,-3.05 1.525,-4.825 l 5.6,0 1.675,4.775 c 0.25,0.725 0.125,1 -0.675,1.075 l -1.125,0.1 0,0.725 6.4,0 z m -6.575,-7.625 -4.975,0 c 0.8,-2.5 1.675,-4.95 2.425,-7.15 l 0.075,0 2.475,7.15 z" />
      </g>
    </g>
    <g
       id="g5107"
       transform="matrix(1.3888889,0,0,-1.3888889,-25.995309,266.92954)"
       style="fill:#1db391;fill-opacity:0.97254902">
      <g
         style="fill:#1db391;fill-opacity:0.97254902"
         transform="translate(50.368346,3.595212)"
         id="g5109">
        <path
           inkscape:connector-curvature="0"
           style="fill:#1db391;fill-opacity:0.97254902"
           d="M 32,84.977657 C 32,84.415368 30.2,82.002544 28,79.615826 25.8,77.229108 24,74.404162 24,73.338169 24,70.807036 25.874445,69 28.5,69 c 1.155,0 2.64,0.54 3.3,1.2 0.933333,0.933333 1.466667,0.933333 2.4,0 2.741723,-2.741723 7.8,-0.706629 7.8,3.138169 0,1.065993 -1.8,3.890939 -4,6.277657 -2.2,2.386718 -4,4.799542 -4,5.361831 C 34,85.539946 33.55,86 33,86 32.45,86 32,85.539946 32,84.977657 Z"
           id="path5111" />
      </g>
      <g
         id="text5113"
         style="font-style:normal;font-variant:normal;font-weight:normal;font-stretch:normal;font-size:25px;line-height:125%;font-family:Utopia;-inkscape-font-specification:Utopia;letter-spacing:0px;word-spacing:0px;fill:#1db391;fill-opacity:0.97254902;stroke:none;stroke-width:1px;stroke-linecap:butt;stroke-linejoin:miter;stroke-opacity:1">
        <path
           id="path5181"
           style="fill:#1db391;fill-opacity:0.97254902"
           d="m 91.855843,66.803802 0,-0.725 c -1.45,-0.125 -1.725,-0.2 -2.175,-1.5 l -5.3,-15.075 -1.85,0 -2.625,7.4 c -0.775,2.175 -1.825,5.175 -2.7,7.45 -0.525,1.35 -0.75,1.65 -2.325,1.725 l 0,0.725 5.5,0 0,-0.725 -1.3,-0.125 c -0.75,-0.075 -0.825,-0.325 -0.625,-1 0.425,-1.5 0.95,-3.05 1.525,-4.825 l 5.6,0 1.675,4.775 c 0.25,0.725 0.125,1 -0.675,1.075 l -1.125,0.1 0,0.725 6.4,0 z m -6.575,-7.625 -4.975,0 c 0.8,-2.5 1.675,-4.95 2.425,-7.15 l 0.075,0 2.475,7.15 z" />
      </g>
    </g>
    <g
       transform="matrix(1.3888889,0,0,-1.3888889,50.004691,266.92954)"
       id="g5117"
       style="fill:#1db391;fill-opacity:0.97254902">
      <g
         id="g5119"
         transform="translate(50.368346,3.595212)"
         style="fill:#1db391;fill-opacity:0.97254902">
        <path
           id="path5121"
           d="M 32,84.977657 C 32,84.415368 30.2,82.002544 28,79.615826 25.8,77.229108 24,74.404162 24,73.338169 24,70.807036 25.874445,69 28.5,69 c 1.155,0 2.64,0.54 3.3,1.2 0.933333,0.933333 1.466667,0.933333 2.4,0 2.741723,-2.741723 7.8,-0.706629 7.8,3.138169 0,1.065993 -1.8,3.890939 -4,6.277657 -2.2,2.386718 -4,4.799542 -4,5.361831 C 34,85.539946 33.55,86 33,86 32.45,86 32,85.539946 32,84.977657 Z"
           style="fill:#1db391;fill-opacity:0.97254902"
           inkscape:connector-curvature="0" />
      </g>
      <g
         id="text5123"
         style="font-style:normal;font-variant:normal;font-weight:normal;font-stretch:normal;font-size:25px;line-height:125%;font-family:Utopia;-inkscape-font-specification:Utopia;letter-spacing:0px;word-spacing:0px;fill:#1db391;fill-opacity:0.97254902;stroke:none;stroke-width:1px;stroke-linecap:butt;stroke-linejoin:miter;stroke-opacity:1">
        <path
           id="path5184"
           style="fill:#1db391;fill-opacity:0.97254902"
           d="m 91.855843,66.803802 0,-0.725 c -1.45,-0.125 -1.725,-0.2 -2.175,-1.5 l -5.3,-15.075 -1.85,0 -2.625,7.4 c -0.775,2.175 -1.825,5.175 -2.7,7.45 -0.525,1.35 -0.75,1.65 -2.325,1.725 l 0,0.725 5.5,0 0,-0.725 -1.3,-0.125 c -0.75,-0.075 -0.825,-0.325 -0.625,-1 0.425,-1.5 0.95,-3.05 1.525,-4.825 l 5.6,0 1.675,4.775 c 0.25,0.725 0.125,1 -0.675,1.075 l -1.125,0.1 0,0.725 6.4,0 z m -6.575,-7.625 -4.975,0 c 0.8,-2.5 1.675,-4.95 2.425,-7.15 l 0.075,0 2.475,7.15 z" />
      </g>
    </g>
    <g
       id="g5261"
       style="fill:#1db391;fill-opacity:0.97254902">
      <g
         id="g5263"
         style="fill:#1db391;fill-opacity:0.97254902;stroke:none;stroke-opacity:1">
        <path
           id="path5265"
           d="M78.155321 43.721661L175.77307 43.721661L-177.780320593 397.275051593L-275.398069593 397.275051593Z"
           style="fill:#1db391;fill-opacity:0.97254902" />
        <path
           id="path5267"
           d="M175.77307 43.721661C180.31095 43.721661 183.9642 47.374903 183.9642 51.912786L-169.589190593 405.466176593C-169.589190593 400.928293593 -173.242440593 397.275051593 -177.780320593 397.275051593Z"
           style="fill:#1db391;fill-opacity:0.97254902" />
        <path
           id="path5269"
           d="M183.9642 51.912786L183.9642 195.53053L-169.589190593 549.083920593L-169.589190593 405.466176593Z"
           style="fill:#1db391;fill-opacity:0.97254902" />
        <path
           id="path5271"
           d="M183.9642 195.53053C183.9642 197.79947375 183.050888506 199.847255244 181.570342447 201.327801303L-171.983048146 554.881191896C-170.502502087 553.400645837 -169.589190593 551.352864343 -169.589190593 549.083920593Z"
           style="fill:#1db391;fill-opacity:0.97254902" />
        <path
           id="path5273"
           d="M181.570342447 201.327801303C180.089794756 202.808348994 178.04201125 203.72166 175.77307 203.72166L-177.780320593 557.275050593C-175.511379343 557.275050593 -173.463595837 556.361739587 -171.983048146 554.881191896Z"
           style="fill:#1db391;fill-opacity:0.97254902" />
        <path
           id="path5275"
           d="M175.77307 203.72166L78.155321 203.72166L-275.398069593 557.275050593L-177.780320593 557.275050593Z"
           style="fill:#1db391;fill-opacity:0.97254902" />
        <path
           id="path5277"
           d="M78.155321 203.72166C73.617437 203.72166 69.964195 200.06842 69.964195 195.53053L-283.589195593 549.083920593C-283.589195593 553.621810593 -279.935953593 557.275050593 -275.398069593 557.275050593Z"
           style="fill:#1db391;fill-opacity:0.97254902" />
        <path
           id="path5279"
           d="M69.964195 195.53053L69.964195 51.912786L-283.589195593 405.466176593L-283.589195593 549.083920593Z"
           style="fill:#1db391;fill-opacity:0.97254902" />
        <path
           id="path5281"
           d="M69.964195 51.912786C69.964195 49.6438446249 70.8775053994 47.5960634755 72.3580512554 46.1155176196L-281.195339338 399.668908213C-282.675885194 401.149454069 -283.589195593 403.197235218 -283.589195593 405.466176593Z"
           style="fill:#1db391;fill-opacity:0.97254902" />
        <path
           id="path5283"
           d="M72.3580512554 46.1155176196C73.8385972745 44.6349716006 75.8863788751 43.721661 78.155321 43.721661L-275.398069593 397.275051593C-277.667011718 397.275051593 -279.714793319 398.188362194 -281.195339338 399.668908213Z"
           style="fill:#1db391;fill-opacity:0.97254902" />
      </g>
      <path
         id="rect5083"
         d="m 78.155321,43.721661 97.617749,0 c 4.53788,0 8.19113,3.653242 8.19113,8.191125 l 0,143.617744 c 0,4.53789 -3.65325,8.19113 -8.19113,8.19113 l -97.617749,0 c -4.537884,0 -8.191126,-3.65324 -8.191126,-8.19113 l 0,-143.617744 c 0,-4.537883 3.653242,-8.191125 8.191126,-8.191125 z"
         style="fill:#1db391;fill-opacity:0.97254902;stroke:none;stroke-opacity:1" />
    </g>
  </g>
  <g
     id="g4770"
     transform="translate(-14.567368,1.4628563)">
    <g
       transform="translate(-4,0)"
       id="g4415">
      <g
         id="g4360"
         transform="translate(-60.034286,0)"
         style="fill:#e7e7e7;fill-opacity:1;stroke:#000000;stroke-opacity:1">
        <rect
           ry="8.1911259"
           y="46.537144"
           x="164.16902"
           height="160"
           width="114"
           id="rect4240"
           style="fill:#e7e7e7;fill-opacity:1;stroke:#000000;stroke-opacity:1" />
        <g
           id="g4353"
           style="fill:#e7e7e7;fill-opacity:1;stroke:#000000;stroke-opacity:1">
          <g
             id="g4347"
             style="fill:#e7e7e7;fill-opacity:1;stroke:#000000;stroke-opacity:1">
            <g
               transform="matrix(2,0,0,2,-346.42406,-77.321909)"
               id="g4324"
               style="fill:#e7e7e7;fill-opacity:1;stroke:#000000;stroke-opacity:1">
              <g
                 style="fill:#e7e7e7;fill-opacity:1;stroke:#000000;stroke-opacity:1"
                 transform="matrix(1.1111111,0,0,-1.1111111,247.12987,186.07528)"
                 id="g4326">
                <path
                   inkscape:connector-curvature="0"
                   style="fill:#e7e7e7;fill-opacity:1;stroke:#000000;stroke-opacity:1"
                   d="M 32,84.977657 C 32,84.415368 30.2,82.002544 28,79.615826 25.8,77.229108 24,74.404162 24,73.338169 24,70.807036 25.874445,69 28.5,69 c 1.155,0 2.64,0.54 3.3,1.2 0.933333,0.933333 1.466667,0.933333 2.4,0 2.741723,-2.741723 7.8,-0.706629 7.8,3.138169 0,1.065993 -1.8,3.890939 -4,6.277657 -2.2,2.386718 -4,4.799542 -4,5.361831 C 34,85.539946 33.55,86 33,86 32.45,86 32,85.539946 32,84.977657 Z"
                   id="path4328" />
              </g>
              <path
                 style="fill:#e7e7e7;fill-opacity:1;fill-rule:evenodd;stroke:#000000;stroke-width:0.66499484px;stroke-linecap:butt;stroke-linejoin:miter;stroke-opacity:1"
                 d="m 283.89621,107.26612 c -0.76594,2.13412 -1.38973,4.32879 -3.85159,5.74071 l 7.70319,0 c -1.8607,-1.31173 -3.2414,-3.12429 -3.8516,-5.74071 z"
                 id="path4330"
                 inkscape:connector-curvature="0"
                 sodipodi:nodetypes="cccc" />
            </g>
          </g>
        </g>
      </g>
      <g
         id="g4332"
         transform="translate(-8.034286,0)">
        <g
           id="g4296">
          <text
             xml:space="preserve"
             style="font-style:normal;font-variant:normal;font-weight:normal;font-stretch:normal;font-size:35px;line-height:125%;font-family:Utopia;-inkscape-font-specification:Utopia;letter-spacing:0px;word-spacing:0px;fill:#000000;fill-opacity:1;stroke:none;stroke-width:1px;stroke-linecap:butt;stroke-linejoin:miter;stroke-opacity:1"
             x="195.00589"
             y="77.527229"
             id="text4246"
             sodipodi:linespacing="125%"><tspan
               sodipodi:role="line"
               id="tspan4248"
               x="195.00589"
               y="77.527229">K</tspan></text>
          <g
             id="g4275"
             transform="translate(-76.435646,-4.4380952)">
            <g
               id="g4254"
               transform="matrix(1.1111111,0,0,-1.1111111,247.12987,186.07528)"
               style="fill:#000000;fill-opacity:1">
              <path
                 id="path4256"
                 d="M 32,84.977657 C 32,84.415368 30.2,82.002544 28,79.615826 25.8,77.229108 24,74.404162 24,73.338169 24,70.807036 25.874445,69 28.5,69 c 1.155,0 2.64,0.54 3.3,1.2 0.933333,0.933333 1.466667,0.933333 2.4,0 2.741723,-2.741723 7.8,-0.706629 7.8,3.138169 0,1.065993 -1.8,3.890939 -4,6.277657 -2.2,2.386718 -4,4.799542 -4,5.361831 C 34,85.539946 33.55,86 33,86 32.45,86 32,85.539946 32,84.977657 Z"
                 style="fill:#000000;fill-opacity:1"
                 inkscape:connector-curvature="0" />
            </g>
            <path
               sodipodi:nodetypes="cccc"
               inkscape:connector-curvature="0"
               id="path4265"
               d="m 283.89621,107.26612 c -0.76594,2.13412 -1.38973,4.32879 -3.85159,5.74071 l 7.70319,0 c -1.8607,-1.31173 -3.2414,-3.12429 -3.8516,-5.74071 z"
               style="fill:#000000;fill-opacity:1;fill-rule:evenodd;stroke:#000000;stroke-width:0.66499484px;stroke-linecap:butt;stroke-linejoin:miter;stroke-opacity:1" />
          </g>
        </g>
        <text
           transform="scale(1,-1)"
           xml:space="preserve"
           style="font-style:normal;font-variant:normal;font-weight:normal;font-stretch:normal;font-size:35px;line-height:125%;font-family:Utopia;-inkscape-font-specification:Utopia;letter-spacing:0px;word-spacing:0px;fill:#000000;fill-opacity:1;stroke:none;stroke-width:1px;stroke-linecap:butt;stroke-linejoin:miter;stroke-opacity:1"
           x="196.46875"
           y="-174.89075"
           id="text4306"
           sodipodi:linespacing="125%"><tspan
             sodipodi:role="line"
             id="tspan4308"
             x="196.46875"
             y="-174.89075">K</tspan></text>
        <g
           id="g4310"
           transform="matrix(1,0,0,-1,-74.972789,256.85608)">
          <g
             id="g4312"
             transform="matrix(1.1111111,0,0,-1.1111111,247.12987,186.07528)"
             style="fill:#000000;fill-opacity:1">
            <path
               id="path4314"
               d="M 32,84.977657 C 32,84.415368 30.2,82.002544 28,79.615826 25.8,77.229108 24,74.404162 24,73.338169 24,70.807036 25.874445,69 28.5,69 c 1.155,0 2.64,0.54 3.3,1.2 0.933333,0.933333 1.466667,0.933333 2.4,0 2.741723,-2.741723 7.8,-0.706629 7.8,3.138169 0,1.065993 -1.8,3.890939 -4,6.277657 -2.2,2.386718 -4,4.799542 -4,5.361831 C 34,85.539946 33.55,86 33,86 32.45,86 32,85.539946 32,84.977657 Z"
               style="fill:#000000;fill-opacity:1"
               inkscape:connector-curvature="0" />
          </g>
          <path
             sodipodi:nodetypes="cccc"
             inkscape:connector-curvature="0"
             id="path4316"
             d="m 283.89621,107.26612 c -0.76594,2.13412 -1.38973,4.32879 -3.85159,5.74071 l 7.70319,0 c -1.8607,-1.31173 -3.2414,-3.12429 -3.8516,-5.74071 z"
             style="fill:#000000;fill-opacity:1;fill-rule:evenodd;stroke:#000000;stroke-width:0.66499484px;stroke-linecap:butt;stroke-linejoin:miter;stroke-opacity:1" />
        </g>
      </g>
    </g>
    <g
       id="g4746">
      <g
         id="g4661">
        <rect
           style="fill:#f3f3f3;fill-opacity:1;stroke:#000000;stroke-opacity:1"
           id="rect5129"
           width="114"
           height="160"
           x="71"
           y="46.537144"
           ry="8.1911259" />
        <path
           inkscape:connector-curvature="0"
           style="fill:#d30000;fill-opacity:1"
           d="m 127.73845,148.14899 c 0,-0.78293 -3.75639,-5.31446 -8.34754,-10.07005 -4.59114,-4.75561 -8.95528,-10.24505 -9.6981,-12.19879 -1.662,-4.37139 -0.1117,-8.98722 3.98146,-11.85417 4.2261,-2.96007 8.49809,-2.57155 12.1771,1.10748 l 3.18444,3.18443 3.18442,-3.18443 c 3.67903,-3.67903 7.95102,-4.06755 12.17712,-1.10748 4.09314,2.86695 5.64344,7.48278 3.98145,11.85417 -0.74281,1.95374 -5.10695,7.44318 -9.6981,12.19879 -4.59114,4.75559 -8.34753,9.28712 -8.34753,10.07005 0,0.78293 -0.58381,1.4235 -1.29736,1.4235 -0.71355,0 -1.29736,-0.64057 -1.29736,-1.4235 z"
           id="path5131" />
        <g
           id="g5133"
           transform="matrix(1.3888889,0,0,1.3888889,-24.959504,-15.448052)">
          <g
             style="fill:#d30000;fill-opacity:1"
             transform="translate(50.368346,3.595212)"
             id="g5135">
            <path
               inkscape:connector-curvature="0"
               style="fill:#d30000;fill-opacity:1"
               d="M 32,84.977657 C 32,84.415368 30.2,82.002544 28,79.615826 25.8,77.229108 24,74.404162 24,73.338169 24,70.807036 25.874445,69 28.5,69 c 1.155,0 2.64,0.54 3.3,1.2 0.933333,0.933333 1.466667,0.933333 2.4,0 2.741723,-2.741723 7.8,-0.706629 7.8,3.138169 0,1.065993 -1.8,3.890939 -4,6.277657 -2.2,2.386718 -4,4.799542 -4,5.361831 C 34,85.539946 33.55,86 33,86 32.45,86 32,85.539946 32,84.977657 Z"
               id="path5137" />
          </g>
          <text
             sodipodi:linespacing="125%"
             id="text5139"
             y="66.803802"
             x="75.605843"
             style="font-style:normal;font-variant:normal;font-weight:normal;font-stretch:normal;font-size:25px;line-height:125%;font-family:Utopia;-inkscape-font-specification:Utopia;letter-spacing:0px;word-spacing:0px;fill:#d30000;fill-opacity:1;stroke:none;stroke-width:1px;stroke-linecap:butt;stroke-linejoin:miter;stroke-opacity:1"
             xml:space="preserve"><tspan
               y="66.803802"
               x="75.605843"
               id="tspan5141"
               sodipodi:role="line">A</tspan></text>
        </g>
        <g
           style="fill:#d30000;fill-opacity:1"
           transform="matrix(1.3888889,0,0,1.3888889,120.99653,-10.454702)"
           id="g5145">
          <path
             inkscape:connector-curvature="0"
             style="fill:#d30000;fill-opacity:1"
             d="M 32,84.977657 C 32,84.415368 30.2,82.002544 28,79.615826 25.8,77.229108 24,74.404162 24,73.338169 24,70.807036 25.874445,69 28.5,69 c 1.155,0 2.64,0.54 3.3,1.2 0.933333,0.933333 1.466667,0.933333 2.4,0 2.741723,-2.741723 7.8,-0.706629 7.8,3.138169 0,1.065993 -1.8,3.890939 -4,6.277657 -2.2,2.386718 -4,4.799542 -4,5.361831 C 34,85.539946 33.55,86 33,86 32.45,86 32,85.539946 32,84.977657 Z"
             id="path5147" />
        </g>
        <text
           sodipodi:linespacing="125%"
           id="text5149"
           y="77.335007"
           x="156.04861"
           style="font-style:normal;font-variant:normal;font-weight:normal;font-stretch:normal;font-size:34.72222137px;line-height:125%;font-family:Utopia;-inkscape-font-specification:Utopia;letter-spacing:0px;word-spacing:0px;fill:#d30000;fill-opacity:1;stroke:none;stroke-width:1px;stroke-linecap:butt;stroke-linejoin:miter;stroke-opacity:1"
           xml:space="preserve"><tspan
             y="77.335007"
             x="156.04861"
             id="tspan5151"
             sodipodi:role="line">A</tspan></text>
      </g>
      <g
         id="g5153"
         transform="matrix(1.3888889,0,0,-1.3888889,-24.959504,269.74502)">
        <g
           style="fill:#d30000;fill-opacity:1"
           transform="translate(50.368346,3.595212)"
           id="g5155">
          <path
             inkscape:connector-curvature="0"
             style="fill:#d30000;fill-opacity:1"
             d="M 32,84.977657 C 32,84.415368 30.2,82.002544 28,79.615826 25.8,77.229108 24,74.404162 24,73.338169 24,70.807036 25.874445,69 28.5,69 c 1.155,0 2.64,0.54 3.3,1.2 0.933333,0.933333 1.466667,0.933333 2.4,0 2.741723,-2.741723 7.8,-0.706629 7.8,3.138169 0,1.065993 -1.8,3.890939 -4,6.277657 -2.2,2.386718 -4,4.799542 -4,5.361831 C 34,85.539946 33.55,86 33,86 32.45,86 32,85.539946 32,84.977657 Z"
             id="path5157" />
        </g>
        <text
           sodipodi:linespacing="125%"
           id="text5159"
           y="66.803802"
           x="75.605843"
           style="font-style:normal;font-variant:normal;font-weight:normal;font-stretch:normal;font-size:25px;line-height:125%;font-family:Utopia;-inkscape-font-specification:Utopia;letter-spacing:0px;word-spacing:0px;fill:#d30000;fill-opacity:1;stroke:none;stroke-width:1px;stroke-linecap:butt;stroke-linejoin:miter;stroke-opacity:1"
           xml:space="preserve"><tspan
             y="66.803802"
             x="75.605843"
             id="tspan5161"
             sodipodi:role="line">A</tspan></text>
      </g>
      <g
         transform="matrix(1.3888889,0,0,-1.3888889,51.040496,269.74502)"
         id="g5163">
        <g
           id="g5165"
           transform="translate(50.368346,3.595212)"
           style="fill:#d30000;fill-opacity:1">
          <path
             id="path5167"
             d="M 32,84.977657 C 32,84.415368 30.2,82.002544 28,79.615826 25.8,77.229108 24,74.404162 24,73.338169 24,70.807036 25.874445,69 28.5,69 c 1.155,0 2.64,0.54 3.3,1.2 0.933333,0.933333 1.466667,0.933333 2.4,0 2.741723,-2.741723 7.8,-0.706629 7.8,3.138169 0,1.065993 -1.8,3.890939 -4,6.277657 -2.2,2.386718 -4,4.799542 -4,5.361831 C 34,85.539946 33.55,86 33,86 32.45,86 32,85.539946 32,84.977657 Z"
             style="fill:#d30000;fill-opacity:1"
             inkscape:connector-curvature="0" />
        </g>
        <text
           xml:space="preserve"
           style="font-style:normal;font-variant:normal;font-weight:normal;font-stretch:normal;font-size:25px;line-height:125%;font-family:Utopia;-inkscape-font-specification:Utopia;letter-spacing:0px;word-spacing:0px;fill:#d30000;fill-opacity:1;stroke:none;stroke-width:1px;stroke-linecap:butt;stroke-linejoin:miter;stroke-opacity:1"
           x="75.605843"
           y="66.803802"
           id="text5169"
           sodipodi:linespacing="125%"><tspan
             sodipodi:role="line"
             id="tspan5171"
             x="75.605843"
             y="66.803802">A</tspan></text>
      </g>
    </g>
  </g>
</svg>
