<?xml version="1.0" encoding="UTF-8" standalone="no"?>
<!-- Created with Inkscape (http://www.inkscape.org/) -->

<svg
   xmlns:dc="http://purl.org/dc/elements/1.1/"
   xmlns:cc="http://creativecommons.org/ns#"
   xmlns:rdf="http://www.w3.org/1999/02/22-rdf-syntax-ns#"
   xmlns:svg="http://www.w3.org/2000/svg"
   xmlns="http://www.w3.org/2000/svg"
   xmlns:sodipodi="http://sodipodi.sourceforge.net/DTD/sodipodi-0.dtd"
   xmlns:inkscape="http://www.inkscape.org/namespaces/inkscape"
   width="256"
   height="256"
   viewBox="0 0 256 256"
   id="svg2"
   version="1.1"
   inkscape:version="0.91 r13725"
   sodipodi:docname="gnome-tali.svg">
  <sodipodi:namedview
     id="base"
     pagecolor="#ffffff"
     bordercolor="#666666"
     borderopacity="1.0"
     inkscape:pageopacity="0.0"
     inkscape:pageshadow="2"
     inkscape:zoom="2.0507812"
     inkscape:cx="128"
     inkscape:cy="128"
     inkscape:document-units="px"
     inkscape:current-layer="layer1"
     showgrid="true"
     units="px"
     inkscape:window-width="1366"
     inkscape:window-height="721"
     inkscape:window-x="0"
     inkscape:window-y="0"
     inkscape:window-maximized="1">
    <inkscape:grid
       type="xygrid"
       id="grid4168"
       spacingx="5"
       spacingy="5" />
  </sodipodi:namedview>
  <defs
     id="defs4">
    <clipPath
       clipPathUnits="userSpaceOnUse"
       id="clipPath5002">
      <g
         id="g5004">
        <path
           transform="translate(0,796.36216)"
           inkscape:connector-curvature="0"
           id="path5006"
           d="M 88.118406,249.43519 C 46.103287,235.29134 14.771284,201.68742 4.1335861,159.36053 1.3377997,148.23623 0.92261224,144.16281 0.92582381,127.88908 0.92787958,117.47222 1.134384,112.01362 1.6577819,108.54099 4.4653598,89.913336 12.17654,70.638106 23.042737,55.086148 c 3.958678,-5.665755 8.344812,-10.93092 9.101533,-10.925587 0.32809,0.0023 10.488643,18.309713 22.579009,40.683112 12.090365,22.373397 22.374546,41.334697 22.853732,42.136217 0.479186,0.80151 0.924733,2.44098 0.990103,3.64326 0.343424,6.31639 2.524175,14.20976 5.6424,20.42304 2.954444,5.88693 5.065381,8.73258 10.434696,14.06652 6.71418,6.66995 12.88853,10.28643 21.73204,12.72904 3.16587,0.87442 5.10478,1.05037 11.57517,1.05037 8.82596,0 12.60219,-0.76201 19.26429,-3.88733 2.04584,-0.95974 3.93661,-1.66536 4.20172,-1.56805 0.2651,0.0973 -11.0555,17.66459 -25.1569,39.0384 l -25.6389,38.86148 -3.094121,0.11221 c -2.554618,0.0927 -4.195204,-0.25845 -9.409103,-2.01364 z"
           style="fill:#0f9d58;fill-opacity:1;stroke:none;stroke-width:4.85768509;stroke-linejoin:round;stroke-miterlimit:4;stroke-dasharray:none;stroke-opacity:1" />
        <path
           inkscape:connector-curvature="0"
           id="path5008"
           d="m 112.35984,1051.5167 c -10.0014,-1.4495 -12.15632,-1.8201 -12.531784,-2.1556 -0.248854,-0.2223 1.738304,-3.7475 4.550294,-8.0722 7.16635,-11.0213 49.77231,-74.64801 50.25856,-75.05489 3.57509,-2.99158 8.63523,-8.0414 10.57512,-10.55356 3.36154,-4.35318 7.55784,-12.9141 9.06523,-18.494 6.19314,-22.92535 -2.59253,-47.15185 -21.69967,-59.83688 l -2.96081,-1.96565 17.02469,0.29584 c 9.36358,0.1627 31.17032,0.43384 48.45941,0.60252 l 31.43471,0.30668 1.54584,4.18869 c 2.24597,6.08579 4.67816,15.0947 5.93451,21.9816 1.52517,8.36049 1.92536,28.85896 0.73851,37.82758 -3.0805,23.27845 -12.81326,45.72018 -27.80202,64.10577 -20.47622,25.1166 -51.4599,42.1974 -84.14612,46.3885 -5.31244,0.6812 -26.64601,0.9864 -30.44647,0.4356 z"
           style="fill:#f4b400;fill-opacity:1;stroke:none;stroke-width:4.85768509;stroke-linejoin:round;stroke-miterlimit:4;stroke-dasharray:none;stroke-opacity:1" />
        <path
           transform="translate(0,796.36216)"
           inkscape:connector-curvature="0"
           id="path5010"
           d="M 67.989788,108.87302 C 41.284246,59.575543 33.290284,45.149038 32.233625,44.344765 31.651257,43.901497 32.811213,42.549931 38.695603,36.815353 53.43581,22.450419 68.809334,13.040746 87.839196,6.7360352 101.68742,2.1480329 112.58238,0.43719165 127.95142,0.43719165 c 21.3099,0 37.80488,3.80960275 56.83492,13.12633035 25.29351,12.383198 46.19421,33.578863 58.51993,59.345832 1.61138,3.368591 2.92978,6.372442 2.92978,6.675231 0,0.560033 -10.54865,0.49527 -71.16508,-0.436914 l -24.28843,-0.373518 -3.93063,-1.764495 c -6.75732,-3.033425 -10.64587,-3.839529 -18.6576,-3.867747 -5.0296,-0.01773 -7.97946,0.207636 -10.31642,0.788106 -14.50826,3.603659 -26.283291,12.94777 -33.291614,26.418653 -3.58502,6.89086 -5.24713,13.08166 -6.331628,23.58317 l -0.33738,3.26696 -9.92748,-18.32578 z"
           style="fill:#db4437;fill-opacity:1;stroke:none;stroke-width:10;stroke-linejoin:round;stroke-miterlimit:4;stroke-dasharray:none;stroke-opacity:1" />
      </g>
    </clipPath>
    <clipPath
       id="clipPath4271"
       clipPathUnits="userSpaceOnUse">
      <circle
         r="128"
         cy="128.00002"
         cx="128"
         id="circle4273"
         style="fill:#292929;fill-opacity:0.26020412;stroke:none;stroke-width:10;stroke-linejoin:round;stroke-miterlimit:4;stroke-dasharray:none;stroke-opacity:0.25882353" />
    </clipPath>
    <clipPath
       clipPathUnits="userSpaceOnUse"
       id="clipPath4363">
      <circle
         r="128"
         cy="924.36218"
         cx="128"
         id="circle4365"
         style="fill:#4285f4;fill-opacity:1;stroke:none;stroke-width:10;stroke-linejoin:round;stroke-miterlimit:4;stroke-dasharray:none;stroke-opacity:0.25882353" />
    </clipPath>
    <clipPath
       id="clipPath4452"
       clipPathUnits="userSpaceOnUse">
      <circle
         r="128"
         cy="924.36218"
         cx="128"
         id="circle4454"
         style="fill:#4285f4;fill-opacity:1;stroke:none;stroke-width:10;stroke-linejoin:round;stroke-miterlimit:4;stroke-dasharray:none;stroke-opacity:0.25882353" />
    </clipPath>
    <inkscape:path-effect
       effect="spiro"
       id="path-effect4168"
       is_visible="true" />
    <inkscape:path-effect
       effect="skeletal"
       id="path-effect4170"
       is_visible="true"
       pattern="m 0,796.36216 1,0"
       copytype="single_stretched"
       prop_scale="1"
       scale_y_rel="false"
       spacing="0"
       normal_offset="0"
       tang_offset="0"
       prop_units="false"
       vertical_pattern="false"
       fuse_tolerance="0" />
    <inkscape:path-effect
       effect="spiro"
       id="path-effect4174"
       is_visible="true" />
    <inkscape:path-effect
       effect="skeletal"
       id="path-effect4176"
       is_visible="true"
       pattern="m 0,796.36216 1,0"
       copytype="single_stretched"
       prop_scale="1"
       scale_y_rel="false"
       spacing="0"
       normal_offset="0"
       tang_offset="0"
       prop_units="false"
       vertical_pattern="false"
       fuse_tolerance="0" />
    <clipPath
       id="clipPath4980"
       clipPathUnits="userSpaceOnUse">
      <path
         style="opacity:0.91000001;fill:#38bae1;fill-opacity:1;stroke:none;stroke-width:0;stroke-linecap:round;stroke-linejoin:round;stroke-miterlimit:4;stroke-dasharray:none;stroke-opacity:1;filter:url(#filter4298)"
         d="m 10.42124,864.27189 42.534575,-0.0913 21.267287,-0.0456 c 7.245384,-0.0152 14.490768,-0.0305 21.736152,-0.0456 8.394956,-10.58827 10.291846,-15.47699 14.084686,-17.71727 3.79283,-2.24028 9.4816,-1.8321 25.46032,-1.82658 23.36644,-0.007 109.60565,-0.67788 109.60565,-0.67788 l -0.0879,12.1518 -0.0879,12.1518 -0.0879,12.15181 -0.0879,12.1518 -0.0879,12.1518 -0.0879,12.1518 -0.0879,12.15181 -0.0879,12.1518 -0.0879,12.1518 -0.0879,12.1518 -0.0879,12.15181 -0.0879,12.1518 -0.0879,12.15181 -0.0879,12.1518 c 0,0 0.59382,8.1589 -0.0879,12.1518 -0.58177,3.4075 -0.78038,7.5176 -3.36995,9.8075 -2.83121,2.5035 -7.3341,1.9515 -11.09295,2.3443 -4.76571,0.4981 -14.375,0 -14.375,0 l -14.375,0 -14.375,0 -14.37501,0 -14.375,0 -14.375,0 -14.375,0 -14.375,0 -14.375,0 -14.375001,0 c 0,0 -9.583334,0 -14.375001,0 -4.791667,0 -9.583334,0 -14.375001,0 -4.791667,0 -9.500662,0.094 -14.375001,0 -4.874339,-0.093 -10.854147,0.062 -15.030858,-0.571 -4.176712,-0.6329 -7.699545,-0.5576 -9.968228,-2.7111 -2.268683,-2.1535 -2.21606,-4.4991 -2.972258,-7.5945 -0.756198,-3.0955 -0.95689,-7.246 -1.188915,-10.8765 -0.232024,-3.6305 -0.136752,-7.251 -0.205128,-10.8765 -0.06838,-3.6255 -0.136752,-7.25106 -0.205128,-10.87658 -0.06838,-3.62552 -0.136753,-7.25102 -0.205129,-10.87653 -0.06838,-3.62551 -0.136752,-7.25103 -0.205128,-10.87654 -0.06838,-3.62551 -0.205129,-10.87653 -0.205129,-10.87653 L 12.062467,951.28418 11.857339,940.40764 11.65221,929.53111 11.447082,918.65457 11.241954,907.77803 11.036825,896.9015 10.831697,886.02496 10.626568,875.14843 Z"
         id="path4982"
         inkscape:connector-curvature="0"
         sodipodi:nodetypes="cccccccccccccccccccccssscccccccccazzzzzzzzzzzsccccccccc"
         transform="matrix(1.0110039,0,0,0.87092225,-1.4059192,107.89621)" />
    </clipPath>
    <filter
       style="color-interpolation-filters:sRGB"
       inkscape:label="Drop Shadow"
       id="filter4298">
      <feFlood
         flood-opacity="0.498039"
         flood-color="rgb(0,0,0)"
         result="flood"
         id="feFlood4300" />
      <feComposite
         in="flood"
         in2="SourceGraphic"
         operator="in"
         result="composite1"
         id="feComposite4302" />
      <feGaussianBlur
         in="composite1"
         stdDeviation="1.6"
         result="blur"
         id="feGaussianBlur4304" />
      <feOffset
         dx="-2.77556e-17"
         dy="-7.7"
         result="offset"
         id="feOffset4306" />
      <feComposite
         in="SourceGraphic"
         in2="offset"
         operator="over"
         result="composite2"
         id="feComposite4308" />
    </filter>
    <clipPath
       clipPathUnits="userSpaceOnUse"
       id="clipPath6010">
      <circle
         r="128"
         cy="921.46759"
         cx="125.30894"
         id="circle6012"
         style="fill:#0f9d58;fill-opacity:1;stroke:none;stroke-width:10;stroke-linejoin:round;stroke-miterlimit:4;stroke-dasharray:none;stroke-opacity:0.25882353" />
    </clipPath>
    <clipPath
       clipPathUnits="userSpaceOnUse"
       id="clipPath6287">
      <ellipse
         cy="917.04297"
         cx="124.93641"
         id="circle6289"
         style="fill:#0f9d58;fill-opacity:1;stroke:none;stroke-width:10;stroke-linejoin:round;stroke-miterlimit:4;stroke-dasharray:none;stroke-opacity:0.25882353"
         rx="243.77826"
         ry="280.345" />
    </clipPath>
    <clipPath
       id="clipPath4376"
       clipPathUnits="userSpaceOnUse">
      <ellipse
         ry="228.68375"
         rx="198.85544"
         cy="905.0332"
         cx="125.53584"
         id="circle4378"
         style="fill:#aae3c7;fill-opacity:1;stroke:none;stroke-width:10;stroke-linejoin:round;stroke-miterlimit:4;stroke-dasharray:none;stroke-opacity:0.25882353" />
    </clipPath>
    <clipPath
       id="clipPath5279"
       clipPathUnits="userSpaceOnUse">
      <circle
         r="128"
         cy="984.82697"
         cx="191.19023"
         id="circle5281"
         style="fill:#f4b400;fill-opacity:1;stroke:none;stroke-width:10;stroke-linejoin:round;stroke-miterlimit:4;stroke-dasharray:none;stroke-opacity:0.25882353" />
    </clipPath>
    <clipPath
       clipPathUnits="userSpaceOnUse"
       id="clipPath4206">
      <circle
         r="128"
         cy="924.36218"
         cx="128"
         id="circle4208"
         style="fill:#f4b400;fill-opacity:1;stroke:none;stroke-width:10;stroke-linejoin:round;stroke-miterlimit:4;stroke-dasharray:none;stroke-opacity:0.25882353" />
    </clipPath>
    <clipPath
       clipPathUnits="userSpaceOnUse"
       id="clipPath4228">
      <circle
         r="128"
         cy="924.36218"
         cx="128"
         id="circle4230"
         style="fill:#f4b400;fill-opacity:1;stroke:none;stroke-width:10;stroke-linejoin:round;stroke-miterlimit:4;stroke-dasharray:none;stroke-opacity:0.25882353" />
    </clipPath>
    <clipPath
       clipPathUnits="userSpaceOnUse"
       id="clipPath4359">
      <circle
         r="128"
         cy="930.17133"
         cx="101.19023"
         id="circle4361"
         style="fill:#f4b400;fill-opacity:1;stroke:none;stroke-width:10;stroke-linejoin:round;stroke-miterlimit:4;stroke-dasharray:none;stroke-opacity:0.25882353" />
    </clipPath>
    <clipPath
       id="clipPath5177"
       clipPathUnits="userSpaceOnUse">
      <circle
         r="128"
         cy="916.84381"
         cx="129.17496"
         id="circle5179"
         style="fill:#ff7900;fill-opacity:1;stroke:none;stroke-width:10;stroke-linejoin:round;stroke-miterlimit:4;stroke-dasharray:none;stroke-opacity:0.25882353" />
    </clipPath>
    <clipPath
       clipPathUnits="userSpaceOnUse"
       id="clipPath5704">
      <circle
         r="128"
         cy="924.36218"
         cx="128"
         id="circle5706"
         style="fill:#1f59b5;fill-opacity:1;stroke:none;stroke-width:10;stroke-linejoin:round;stroke-miterlimit:4;stroke-dasharray:none;stroke-opacity:0.25882353" />
    </clipPath>
    <clipPath
       id="clipPath4498"
       clipPathUnits="userSpaceOnUse">
      <circle
         r="89.599998"
         cy="872.67932"
         cx="105.06952"
         id="circle4500"
         style="fill:#ececec;fill-opacity:0.99215686;stroke:none;stroke-width:10;stroke-linejoin:round;stroke-miterlimit:4;stroke-dasharray:none;stroke-opacity:0.25882353" />
    </clipPath>
    <clipPath
       clipPathUnits="userSpaceOnUse"
       id="clipPath4503">
      <circle
         r="128"
         cy="924.36218"
         cx="128"
         id="circle4505"
         style="fill:#e0706e;fill-opacity:1;stroke:none;stroke-width:10;stroke-linejoin:round;stroke-miterlimit:4;stroke-dasharray:none;stroke-opacity:0.25882353" />
    </clipPath>
  </defs>
  <metadata
     id="metadata7">
    <rdf:RDF>
      <cc:Work
         rdf:about="">
        <dc:format>image/svg+xml</dc:format>
        <dc:type
           rdf:resource="http://purl.org/dc/dcmitype/StillImage" />
        <dc:title />
      </cc:Work>
    </rdf:RDF>
  </metadata>
  <g
     transform="translate(0,-796.36216)"
     id="layer1"
     inkscape:groupmode="layer"
     inkscape:label="Layer 1">
    <circle
       style="fill:#e0706e;fill-opacity:1;stroke:none;stroke-width:10;stroke-linejoin:round;stroke-miterlimit:4;stroke-dasharray:none;stroke-opacity:0.25882353"
       id="path4152"
       cx="128"
       cy="924.36218"
       r="128" />
    <g
       id="g4285"
       clip-path="url(#clipPath4503)"
       style="fill:#670505;fill-opacity:1">
      <g
         id="g4362"
         transform="translate(0,796.36216)"
         style="fill:#670505;fill-opacity:1">
        <g
           id="g4364"
           style="fill:#670505;fill-opacity:1;stroke:none;stroke-width:5;stroke-linecap:round;stroke-linejoin:round;stroke-miterlimit:4;stroke-dasharray:none;stroke-opacity:1">
          <path
             id="path4366"
             d="M67.046875 41.621094C60.8336711264 41.621094 55.2086708235 44.1394918029 51.1369716405 48.2111909845L-160.995062715 260.34322534C-156.923363532 256.271526159 -151.29836323 253.753128356 -145.085159356 253.753128356Z"
             style="fill:#670505;fill-opacity:1" />
          <path
             id="path4368"
             d="M51.1369716405 48.2111909845C47.0652729471 52.2828896765 44.546875 57.9078893736 44.546875 64.121094L-167.585159356 276.253128356C-167.585159356 270.03992373 -165.066761409 264.414924032 -160.995062715 260.34322534Z"
             style="fill:#670505;fill-opacity:1" />
          <path
             id="path4370"
             d="M44.546875 64.121094C44.546875 76.547504 54.620468 86.621094 67.046875 86.621094L-145.085159356 298.753128356C-157.511566356 298.753128356 -167.585159356 288.679538356 -167.585159356 276.253128356Z"
             style="fill:#670505;fill-opacity:1" />
          <path
             id="path4372"
             d="M67.046875 86.621094C72.5499966255 86.4538293758 77.2275947651 84.1134472435 80.7637130861 80.5773289225L-131.36832127 292.709363279C-134.904439591 296.245481599 -139.58203773 298.585863732 -145.085159356 298.753128356Z"
             style="fill:#670505;fill-opacity:1" />
          <path
             id="path4374"
             d="M80.7637130861 80.5773289225C92.4452099739 68.8958320347 91.6697587322 44.1652882564 67.046875 41.621094L-145.085159356 253.753128356C-120.462275624 256.297322612 -119.686824382 281.027866391 -131.36832127 292.709363279Z"
             style="fill:#670505;fill-opacity:1" />
          <path
             id="path4376"
             d="M188.95312 41.621094C183.105397647 41.621094 177.778715017 43.8519236194 173.777679121 47.5089758482L-38.3543552353 259.641010204C-34.3533193387 255.983957975 -29.0266367089 253.753128356 -23.178914356 253.753128356Z"
             style="fill:#670505;fill-opacity:1" />
          <path
             id="path4378"
             d="M173.777679121 47.5089758482C169.276513737 51.6231596055 166.45312 57.5424063529 166.45312 64.121094L-45.678914356 276.253128356C-45.678914356 269.674440709 -42.8555206189 263.755193962 -38.3543552353 259.641010204Z"
             style="fill:#670505;fill-opacity:1" />
          <path
             id="path4380"
             d="M166.45312 64.121094C166.45313 76.547504 176.52671 86.621094 188.95312 86.621094L-23.178914356 298.753128356C-35.605324356 298.753128356 -45.678904356 288.679538356 -45.678914356 276.253128356Z"
             style="fill:#670505;fill-opacity:1" />
          <path
             id="path4382"
             d="M188.95312 86.621094C194.456240725 86.4538293678 199.133838804 84.1134470209 202.669957407 80.577328418L-9.46207694883 292.709362774C-12.9981955517 296.245481377 -17.6757936306 298.585863724 -23.178914356 298.753128356Z"
             style="fill:#670505;fill-opacity:1" />
          <path
             id="path4384"
             d="M202.669957407 80.577328418C214.351454503 68.8958313226 213.576008751 44.1652882198 188.95312 41.621094L-23.178914356 253.753128356C1.44397439517 256.297322576 2.21942014654 281.027865679 -9.46207694883 292.709362774Z"
             style="fill:#670505;fill-opacity:1" />
          <path
             id="path4386"
             d="M128.0 105.5C115.57359 105.5 105.5 115.57359 105.5 128.0L-106.632034356 340.132034356C-106.632034356 327.705624356 -96.558444356 317.632034356 -84.132034356 317.632034356Z"
             style="fill:#670505;fill-opacity:1" />
          <path
             id="path4388"
             d="M105.5 128.0C105.5 140.42641 115.57359 150.5 128.0 150.5L-84.132034356 362.632034356C-96.558444356 362.632034356 -106.632034356 352.558444356 -106.632034356 340.132034356Z"
             style="fill:#670505;fill-opacity:1" />
          <path
             id="path4390"
             d="M128.0 150.5C133.503119897 150.332735393 138.180716856 147.992353725 141.716834567 144.456236015L-70.4151997889 356.588270371C-73.9513174996 360.124388081 -78.6289144588 362.464769749 -84.132034356 362.632034356Z"
             style="fill:#670505;fill-opacity:1" />
          <path
             id="path4392"
             d="M141.716834567 144.456236015C153.398331006 132.774739576 152.622882197 108.044194336 128.0 105.5L-84.132034356 317.632034356C-59.5091521594 320.176228692 -58.7337033503 344.906773932 -70.4151997889 356.588270371Z"
             style="fill:#670505;fill-opacity:1" />
          <path
             id="path4394"
             d="M67.046875 169.37891C60.8336711247 169.37891 55.2086708205 171.897307804 51.1369716373 175.969006988L-160.995062719 388.101041344C-156.923363535 384.02934216 -151.298363231 381.510944356 -145.085159356 381.510944356Z"
             style="fill:#670505;fill-opacity:1" />
          <path
             id="path4396"
             d="M51.1369716373 175.969006988C47.0652729458 180.040705679 44.546875 185.665705375 44.546875 191.87891L-167.585159356 404.010944356C-167.585159356 397.797739731 -165.06676141 392.172740035 -160.995062719 388.101041344Z"
             style="fill:#670505;fill-opacity:1" />
          <path
             id="path4398"
             d="M44.546875 191.87891C44.546892 204.30528 54.62048 214.37891 67.046875 214.37891L-145.085159356 426.510944356C-157.511554356 426.510944356 -167.585142356 416.437314356 -167.585159356 404.010944356Z"
             style="fill:#670505;fill-opacity:1" />
          <path
             id="path4400"
             d="M67.046875 214.37891C72.5499972351 214.211650005 77.2275953694 211.87126986 80.7637132663 208.335151963L-131.36832109 420.467186319C-134.904438987 424.003304216 -139.582037121 426.343684361 -145.085159356 426.510944356Z"
             style="fill:#670505;fill-opacity:1" />
          <path
             id="path4402"
             d="M80.7637132663 208.335151963C92.4452070679 196.653658161 91.6697517656 171.923104171 67.046875 169.37891L-145.085159356 381.510944356C-120.46228259 384.055138527 -119.686827288 408.785692517 -131.36832109 420.467186319Z"
             style="fill:#670505;fill-opacity:1" />
          <path
             id="path4404"
             d="M188.95312 169.37891C176.52671 169.37891 166.45312 179.4525 166.45312 191.87891L-45.678914356 404.010944356C-45.678914356 391.584534356 -35.605324356 381.510944356 -23.178914356 381.510944356Z"
             style="fill:#670505;fill-opacity:1" />
          <path
             id="path4406"
             d="M166.45312 191.87891C166.45315 204.30528 176.52672 214.37891 188.95312 214.37891L-23.178914356 426.510944356C-35.605314356 426.510944356 -45.678884356 416.437314356 -45.678914356 404.010944356Z"
             style="fill:#670505;fill-opacity:1" />
          <path
             id="path4408"
             d="M188.95312 214.37891C194.456247089 214.211649963 199.133848316 211.871268696 202.669967687 208.335149326L-9.46206666882 420.467183682C-12.9981860395 424.003303052 -17.6757872671 426.343684319 -23.178914356 426.510944356Z"
             style="fill:#670505;fill-opacity:1" />
          <path
             id="path4410"
             d="M202.669967687 208.335149326C214.351462574 196.653654439 213.575998751 171.92310398 188.95312 169.37891L-23.178914356 381.510944356C1.44396439465 384.055138336 2.21942821778 408.785688795 -9.46206666882 420.467183682Z"
             style="fill:#670505;fill-opacity:1" />
        </g>
        <path
           id="path4239"
           transform=""
           d="M 67.046875 41.621094 C 54.620468 41.621094 44.546875 51.694684 44.546875 64.121094 C 44.546875 76.547504 54.620468 86.621094 67.046875 86.621094 C 90.72945 85.901274 99.123378 44.935444 67.046875 41.621094 z M 188.95312 41.621094 C 176.52671 41.621094 166.45312 51.694684 166.45312 64.121094 C 166.45313 76.547504 176.52671 86.621094 188.95312 86.621094 C 212.63569 85.901274 221.02963 44.935444 188.95312 41.621094 z M 128 105.5 C 115.57359 105.5 105.5 115.57359 105.5 128 C 105.5 140.42641 115.57359 150.5 128 150.5 C 151.68257 149.78018 160.0765 108.81435 128 105.5 z M 67.046875 169.37891 C 54.620468 169.37891 44.546875 179.4525 44.546875 191.87891 C 44.546892 204.30528 54.62048 214.37891 67.046875 214.37891 C 90.72945 213.65911 99.12337 172.69326 67.046875 169.37891 z M 188.95312 169.37891 C 176.52671 169.37891 166.45312 179.4525 166.45312 191.87891 C 166.45315 204.30528 176.52672 214.37891 188.95312 214.37891 C 212.63571 213.65911 221.02962 172.69326 188.95312 169.37891 z "
           style="fill:#670505;fill-opacity:1;stroke:none;stroke-width:5;stroke-linecap:round;stroke-linejoin:round;stroke-miterlimit:4;stroke-dasharray:none;stroke-opacity:1" />
      </g>
    </g>
    <g
       transform="translate(0,7.9003908e-6)"
       id="g4292">
      <circle
         r="22.5"
         cy="860.48407"
         cx="67.047623"
         id="circle4294"
         style="fill:#ffffff;fill-opacity:1;stroke:none;stroke-width:5;stroke-linecap:round;stroke-linejoin:round;stroke-miterlimit:4;stroke-dasharray:none;stroke-opacity:1" />
      <circle
         style="fill:#ffffff;fill-opacity:1;stroke:none;stroke-width:5;stroke-linecap:round;stroke-linejoin:round;stroke-miterlimit:4;stroke-dasharray:none;stroke-opacity:1"
         id="circle4296"
         cx="188.95238"
         cy="860.48407"
         r="22.5" />
      <circle
         style="fill:#ffffff;fill-opacity:1;stroke:none;stroke-width:5;stroke-linecap:round;stroke-linejoin:round;stroke-miterlimit:4;stroke-dasharray:none;stroke-opacity:1"
         id="circle4298"
         cx="67.047623"
         cy="988.24023"
         r="22.5" />
      <circle
         r="22.5"
         cy="988.24023"
         cx="188.95238"
         id="circle4300"
         style="fill:#ffffff;fill-opacity:1;stroke:none;stroke-width:5;stroke-linecap:round;stroke-linejoin:round;stroke-miterlimit:4;stroke-dasharray:none;stroke-opacity:1" />
      <circle
         style="fill:#ffffff;fill-opacity:1;stroke:none;stroke-width:5;stroke-linecap:round;stroke-linejoin:round;stroke-miterlimit:4;stroke-dasharray:none;stroke-opacity:1"
         id="circle4302"
         cx="128"
         cy="924.36218"
         r="22.5" />
    </g>
  </g>
</svg>
