<?xml version="1.0" encoding="UTF-8" standalone="no"?>
<!-- Created with Inkscape (http://www.inkscape.org/) -->

<svg
   xmlns:dc="http://purl.org/dc/elements/1.1/"
   xmlns:cc="http://creativecommons.org/ns#"
   xmlns:rdf="http://www.w3.org/1999/02/22-rdf-syntax-ns#"
   xmlns:svg="http://www.w3.org/2000/svg"
   xmlns="http://www.w3.org/2000/svg"
   xmlns:sodipodi="http://sodipodi.sourceforge.net/DTD/sodipodi-0.dtd"
   xmlns:inkscape="http://www.inkscape.org/namespaces/inkscape"
   width="256"
   height="256"
   viewBox="0 0 256 256"
   id="svg2"
   version="1.1"
   inkscape:version="0.91 r13725"
   sodipodi:docname="gnucash.svg">
  <sodipodi:namedview
     id="base"
     pagecolor="#ffffff"
     bordercolor="#666666"
     borderopacity="1.0"
     inkscape:pageopacity="0.0"
     inkscape:pageshadow="2"
     inkscape:zoom="2.0507812"
     inkscape:cx="128"
     inkscape:cy="128"
     inkscape:document-units="px"
     inkscape:current-layer="layer1"
     showgrid="true"
     units="px"
     inkscape:window-width="1366"
     inkscape:window-height="721"
     inkscape:window-x="0"
     inkscape:window-y="0"
     inkscape:window-maximized="1">
    <inkscape:grid
       type="xygrid"
       id="grid4136"
       spacingx="5"
       spacingy="5" />
  </sodipodi:namedview>
  <defs
     id="defs4">
    <filter
       height="1.1705081"
       y="-0.085254025"
       width="1.0622471"
       x="-0.031123563"
       id="filter4396"
       style="color-interpolation-filters:sRGB"
       inkscape:collect="always">
      <feGaussianBlur
         id="feGaussianBlur4398"
         stdDeviation="0.71324832"
         inkscape:collect="always" />
    </filter>
    <clipPath
       clipPathUnits="userSpaceOnUse"
       id="clipPath5082">
      <circle
         r="79.551224"
         cy="916.11456"
         cx="123.35822"
         id="circle5084"
         style="opacity:1;fill:#b9b9b9;fill-opacity:0.99215686;stroke:none;stroke-width:7;stroke-linecap:butt;stroke-linejoin:miter;stroke-miterlimit:4;stroke-dasharray:none;stroke-opacity:1" />
    </clipPath>
  </defs>
  <metadata
     id="metadata7">
    <rdf:RDF>
      <cc:Work
         rdf:about="">
        <dc:format>image/svg+xml</dc:format>
        <dc:type
           rdf:resource="http://purl.org/dc/dcmitype/StillImage" />
        <dc:title />
      </cc:Work>
    </rdf:RDF>
  </metadata>
  <g
     inkscape:label="Layer 1"
     inkscape:groupmode="layer"
     id="layer1"
     transform="translate(0,-796.36216)">
    <circle
       style="opacity:1;fill:#ad99d0;fill-opacity:0.99215686;stroke:none;stroke-width:7;stroke-linecap:butt;stroke-linejoin:miter;stroke-miterlimit:4;stroke-dasharray:none;stroke-opacity:1"
       id="path4157"
       cx="128"
       cy="924.36218"
       r="128" />
    <g
       transform="matrix(1.6090261,0,0,1.6090261,-70.4866,-549.69008)"
       id="g4448"
       clip-path="url(#clipPath5082)"
       style="stroke:none;fill:#7756b3;fill-opacity:0.99215686">
      <g
         id="g4400"
         transform="matrix(0.99013953,0,0,0.61354408,-10.906427,373.68048)"
         style="stroke:none;fill:#7756b3;fill-opacity:0.99215686">
        <path
           inkscape:connector-curvature="0"
           style="opacity:1;fill:#7756b3;fill-opacity:0.99215686;stroke:none;stroke-width:3;stroke-linecap:butt;stroke-linejoin:miter;stroke-miterlimit:4;stroke-dasharray:none;stroke-opacity:1;filter:url(#filter4396)"
           d="m 88.823841,861.1362 c -1.244857,0 -2.485342,0.25714 -3.454301,0.71757 -0.976376,0.46396 -1.602737,1.09893 -1.736573,1.76811 -0.13531,0.67655 0.243705,1.33241 1.05981,1.82046 0.822537,0.49191 2.016306,0.76996 3.313615,0.76996 1.297309,0 2.580631,-0.27805 3.561599,-0.76996 0.973293,-0.48805 1.56355,-1.14391 1.646142,-1.82046 0.08169,-0.66918 -0.340159,-1.30415 -1.167106,-1.76811 -0.820662,-0.46043 -1.978329,-0.71757 -3.223186,-0.71757 0,0 0,0 0,0 m 38.854009,0.3256 c -1.24823,0 -2.40892,0.25853 -3.23164,0.72146 -0.82904,0.4665 -1.25182,1.10494 -1.16968,1.77781 0.0831,0.6803 0.67517,1.33981 1.65136,1.8306 0.98391,0.49466 2.27096,0.77428 3.57192,0.77428 1.30096,0 2.49796,-0.27962 3.32254,-0.77428 0.81813,-0.49079 1.19783,-1.1503 1.06177,-1.8306 -0.13457,-0.67287 -0.76299,-1.31131 -1.74226,-1.77781 -0.97182,-0.46293 -2.2158,-0.72146 -3.46401,-0.72146 0,0 0,0 0,0 m -19.2697,4.37895 c -2.15579,0 -4.23823,0.46342 -5.80528,1.29684 -1.58799,0.84454 -2.53287,2.0082 -2.611332,3.24441 -0.168332,2.65218 3.603262,4.88314 8.430432,4.88314 4.82716,0 8.59222,-2.23096 8.41611,-4.88314 -0.082,-1.23621 -1.03038,-2.39987 -2.62085,-3.24441 -1.5695,-0.83342 -3.65329,-1.29684 -5.80908,-1.29684 0,0 0,0 0,0 m -21.798213,9.04308 c -1.386913,0 -2.774895,0.31925 -3.865803,0.89128 -1.100225,0.57693 -1.81528,1.36733 -1.982084,2.20135 -0.168855,0.84428 0.237716,1.66378 1.138035,2.27426 0.908264,0.61587 2.237958,0.96425 3.69029,0.96425 1.452334,0 2.894234,-0.34838 4.000856,-0.96425 1.096941,-0.61048 1.767457,-1.42998 1.870525,-2.27426 0.101815,-0.83402 -0.358671,-1.62442 -1.273081,-2.20135 -0.906666,-0.57203 -2.191826,-0.89128 -3.578738,-0.89128 0,0 0,0 0,0 m 43.229373,0 c -1.38691,0 -2.67206,0.31925 -3.57873,0.89128 -0.91441,0.57693 -1.3749,1.36733 -1.27308,2.20135 0.10307,0.84428 0.77358,1.66378 1.87053,2.27426 1.10662,0.61587 2.54851,0.96425 4.00084,0.96425 1.45234,0 2.78204,-0.34838 3.69029,-0.96425 0.90033,-0.61048 1.3069,-1.42998 1.13804,-2.27426 -0.1668,-0.83402 -0.88186,-1.62442 -1.98208,-2.20135 -1.09091,-0.57203 -2.47889,-0.89128 -3.86581,-0.89128 0,0 0,0 0,0"
           id="path4326" />
        <g
           id="g4808"
           transform="matrix(0.62768321,0,0,1.0129573,55.258296,754.44107)"
           style="stroke:none;fill:#7756b3;fill-opacity:0.99215686">
          <g
             id="g4810"
             style="opacity:1;fill:#7756b3;fill-opacity:0.99215686;stroke:none;stroke-width:3.85032797;stroke-linecap:butt;stroke-linejoin:miter;stroke-miterlimit:4;stroke-dasharray:none;stroke-opacity:1">
            <path
               id="path4812"
               d="M201.45117 70.447266C191.856174968 70.447266 183.588848918 73.0536626092 179.83667286 76.805838667L-32.2953614955 288.937873023C-28.5431854378 285.185696965 -20.2758593875 282.579300356 -10.680864356 282.579300356Z"
               style="stroke:none;fill:#7756b3;fill-opacity:0.99215686" />
            <path
               id="path4814"
               d="M179.83667286 76.805838667C178.456741467 78.1857700603 177.6875 79.7206721563 177.6875 81.337891L-34.444534356 293.469925356C-34.444534356 291.852706512 -33.6752928889 290.317804416 -32.2953614955 288.937873023Z"
               style="stroke:none;fill:#7756b3;fill-opacity:0.99215686" />
            <path
               id="path4816"
               d="M177.6875 81.337891C177.6875 83.073708 178.5976 84.709727 180.17383 86.166016L-31.958204356 298.298050356C-33.534434356 296.841761356 -34.444534356 295.205742356 -34.444534356 293.469925356Z"
               style="stroke:none;fill:#7756b3;fill-opacity:0.99215686" />
            <path
               id="path4818"
               d="M180.17383 86.166016C180.062818631 86.2685952837 179.955109139 86.3720593672 179.850787223 86.4763812829L-32.2812471325 298.608415639C-32.1769252168 298.504093723 -32.0692157247 298.40062964 -31.958204356 298.298050356Z"
               style="stroke:none;fill:#7756b3;fill-opacity:0.99215686" />
            <path
               id="path4820"
               d="M179.850787223 86.4763812829C178.474227951 87.8529405554 177.6875 89.3788621617 177.6875 90.992188L-34.444534356 303.124222356C-34.444534356 301.510896518 -33.657806405 299.984974911 -32.2812471325 298.608415639Z"
               style="stroke:none;fill:#7756b3;fill-opacity:0.99215686" />
            <path
               id="path4822"
               d="M177.6875 90.992188C177.6875 92.728145 178.59736 94.363936 180.17383 95.820312L-31.958204356 307.952346356C-33.534674356 306.495970356 -34.444534356 304.860179356 -34.444534356 303.124222356Z"
               style="stroke:none;fill:#7756b3;fill-opacity:0.99215686" />
            <path
               id="path4824"
               d="M180.17383 95.820312C180.062819288 95.9228907472 179.955110414 96.0263542736 179.850789075 96.1306756121L-32.2812452805 308.262709968C-32.1769239421 308.15838863 -32.0692150678 308.054925103 -31.958204356 307.952346356Z"
               style="stroke:none;fill:#7756b3;fill-opacity:0.99215686" />
            <path
               id="path4826"
               d="M179.850789075 96.1306756121C178.474228657 97.507236031 177.6875 99.0331571564 177.6875 100.64648L-34.444534356 312.778514356C-34.444534356 311.165191512 -33.6578056994 309.639270387 -32.2812452805 308.262709968Z"
               style="stroke:none;fill:#7756b3;fill-opacity:0.99215686" />
            <path
               id="path4828"
               d="M177.6875 100.64648C177.6875 102.38208 178.59799 104.01651 180.17383 105.47266L-31.958204356 317.604694356C-33.534044356 316.148544356 -34.444534356 314.514114356 -34.444534356 312.778514356Z"
               style="stroke:none;fill:#7756b3;fill-opacity:0.99215686" />
            <path
               id="path4830"
               d="M180.17383 105.47266C180.062693783 105.575329541 179.954870492 105.678890766 179.850445349 105.783315909L-32.2815890067 317.915350265C-32.1771638644 317.810925122 -32.0693405727 317.707363897 -31.958204356 317.604694356Z"
               style="stroke:none;fill:#7756b3;fill-opacity:0.99215686" />
            <path
               id="path4832"
               d="M179.850445349 105.783315909C178.473597249 107.160164009 177.6875 108.687199764 177.6875 110.30078L-34.444534356 322.432814356C-34.444534356 320.81923412 -33.6584371074 319.292198365 -32.2815890067 317.915350265Z"
               style="stroke:none;fill:#7756b3;fill-opacity:0.99215686" />
            <path
               id="path4834"
               d="M177.6875 110.30078C177.6875 112.03674 178.59736 113.67253 180.17383 115.12891L-31.958204356 327.260944356C-33.534674356 325.804564356 -34.444534356 324.168774356 -34.444534356 322.432814356Z"
               style="stroke:none;fill:#7756b3;fill-opacity:0.99215686" />
            <path
               id="path4836"
               d="M180.17383 115.12891C180.04779647 115.245370477 179.920644999 115.361869239 179.80215144 115.480362798L-32.3298829156 327.612397154C-32.2113893567 327.493903595 -32.0842378855 327.377404833 -31.958204356 327.260944356Z"
               style="stroke:none;fill:#7756b3;fill-opacity:0.99215686" />
            <path
               id="path4838"
               d="M179.80215144 115.480362798C179.785231611 115.497282627 179.76848831 115.514243129 179.75195 115.53125L-32.380084356 327.663284356C-32.3635460457 327.646277485 -32.3468027451 327.629316983 -32.3298829156 327.612397154Z"
               style="stroke:none;fill:#7756b3;fill-opacity:0.99215686" />
            <path
               id="path4840"
               d="M179.75195 115.53125C179.47112 115.52321 179.21132 115.50483 178.92383 115.5L-33.208204356 327.632034356C-32.920714356 327.636864356 -32.660914356 327.655244356 -32.380084356 327.663284356Z"
               style="stroke:none;fill:#7756b3;fill-opacity:0.99215686" />
            <path
               id="path4842"
               d="M178.92383 115.5C171.34943 115.5 164.61891 117.13029 160.26758 119.66016L-51.864454356 331.792194356C-47.513124356 329.262324356 -40.782604356 327.632034356 -33.208204356 327.632034356Z"
               style="stroke:none;fill:#7756b3;fill-opacity:0.99215686" />
            <path
               id="path4844"
               d="M160.26758 119.66016L135.58789 119.66016L-76.544144356 331.792194356L-51.864454356 331.792194356Z"
               style="stroke:none;fill:#7756b3;fill-opacity:0.99215686" />
            <path
               id="path4846"
               d="M135.58789 119.66016L130.76758 103.57031L-81.364454356 315.702344356L-76.544144356 331.792194356Z"
               style="stroke:none;fill:#7756b3;fill-opacity:0.99215686" />
            <path
               id="path4848"
               d="M130.76758 103.57031L39.675781 103.57031L-172.456253356 315.702344356L-81.364454356 315.702344356Z"
               style="stroke:none;fill:#7756b3;fill-opacity:0.99215686" />
            <path
               id="path4850"
               d="M39.675781 103.57031L31.128906 126.91211L-181.003128356 339.044144356L-172.456253356 315.702344356Z"
               style="stroke:none;fill:#7756b3;fill-opacity:0.99215686" />
            <path
               id="path4852"
               d="M31.128906 126.91211L72.419922 126.91211L-139.712112356 339.044144356L-181.003128356 339.044144356Z"
               style="stroke:none;fill:#7756b3;fill-opacity:0.99215686" />
            <path
               id="path4854"
               d="M72.419922 126.91211L71.857422 128.44922L-140.274612356 340.581254356L-139.712112356 339.044144356Z"
               style="stroke:none;fill:#7756b3;fill-opacity:0.99215686" />
            <path
               id="path4856"
               d="M71.857422 128.44922L29.945312 128.44922L-182.186722356 340.581254356L-140.274612356 340.581254356Z"
               style="stroke:none;fill:#7756b3;fill-opacity:0.99215686" />
            <path
               id="path4858"
               d="M29.945312 128.44922L29.945312 157.3125L-182.186722356 369.444534356L-182.186722356 340.581254356Z"
               style="stroke:none;fill:#7756b3;fill-opacity:0.99215686" />
            <path
               id="path4860"
               d="M29.945312 157.3125L65.34375 157.3125L-146.788284356 369.444534356L-182.186722356 369.444534356Z"
               style="stroke:none;fill:#7756b3;fill-opacity:0.99215686" />
            <path
               id="path4862"
               d="M65.34375 157.3125L65.34375 173.40234L-146.788284356 385.534374356L-146.788284356 369.444534356Z"
               style="stroke:none;fill:#7756b3;fill-opacity:0.99215686" />
            <path
               id="path4864"
               d="M65.34375 173.40234L155.32617 173.40234L-56.805864356 385.534374356L-146.788284356 385.534374356Z"
               style="stroke:none;fill:#7756b3;fill-opacity:0.99215686" />
            <path
               id="path4866"
               d="M155.32617 173.40234C155.22209 173.81605 155.16211 174.23562 155.16211 174.66211L-56.969924356 386.794144356C-56.969924356 386.367654356 -56.909944356 385.948084356 -56.805864356 385.534374356Z"
               style="stroke:none;fill:#7756b3;fill-opacity:0.99215686" />
            <path
               id="path4868"
               d="M155.16211 174.66211C155.16209 180.67671 165.8001 185.55273 178.92383 185.55273L-33.208204356 397.684764356C-46.331934356 397.684764356 -56.969944356 392.808744356 -56.969924356 386.794144356Z"
               style="stroke:none;fill:#7756b3;fill-opacity:0.99215686" />
            <path
               id="path4870"
               d="M178.92383 185.55273C186.904068675 185.441572587 193.275189605 182.741094494 196.739661852 179.276622247L-15.3923725039 391.408656603C-18.8568447507 394.87312885 -25.2279656814 397.573606943 -33.208204356 397.684764356Z"
               style="stroke:none;fill:#7756b3;fill-opacity:0.99215686" />
            <path
               id="path4872"
               d="M196.739661852 179.276622247C199.878597472 176.137686627 200.631463057 172.371587646 198.0332 169.33594L-14.098834356 381.467974356C-11.5005712989 384.503622001 -12.2534368835 388.269720983 -15.3923725039 391.408656603Z"
               style="stroke:none;fill:#7756b3;fill-opacity:0.99215686" />
            <path
               id="path4874"
               d="M198.0332 169.33594C199.15226 169.41002 200.28734 169.46094 201.45117 169.46094L-10.680864356 381.592974356C-11.844694356 381.592974356 -12.979774356 381.542054356 -14.098834356 381.467974356Z"
               style="stroke:none;fill:#7756b3;fill-opacity:0.99215686" />
            <path
               id="path4876"
               d="M201.45117 169.46094C209.432460013 169.349759899 215.804917509 166.649001239 219.269602654 163.184316094L7.13756829848 375.31635045C3.67288315339 378.781035595 -2.69957434305 381.481794255 -10.680864356 381.592974356Z"
               style="stroke:none;fill:#7756b3;fill-opacity:0.99215686" />
            <path
               id="path4878"
               d="M219.269602654 163.184316094C222.603397686 159.850521062 223.244972107 155.809429042 220.03711 152.6875L7.90507564404 364.819534356C11.1129377512 367.941463398 10.4713633302 371.982555418 7.13756829848 375.31635045Z"
               style="stroke:none;fill:#7756b3;fill-opacity:0.99215686" />
            <path
               id="path4880"
               d="M220.03711 152.6875C225.25977 146.46159 221.36738 138.3618 201.45117 138.02734L-10.680864356 350.159374356C9.23534564404 350.493834356 13.127735644 358.593624356 7.90507564404 364.819534356Z"
               style="stroke:none;fill:#7756b3;fill-opacity:0.99215686" />
            <path
               id="path4882"
               d="M201.45117 138.02734C200.5196 138.02734 199.60478 138.05767 198.70117 138.10547L-13.430864356 350.237504356C-12.527254356 350.189704356 -11.612434356 350.159374356 -10.680864356 350.159374356Z"
               style="stroke:none;fill:#7756b3;fill-opacity:0.99215686" />
            <path
               id="path4884"
               d="M198.70117 138.10547C200.06086 135.60917 199.95629 132.96683 198.03516 130.7207L-14.096874356 342.852734356C-12.175744356 345.098864356 -12.071174356 347.741204356 -13.430864356 350.237504356Z"
               style="stroke:none;fill:#7756b3;fill-opacity:0.99215686" />
            <path
               id="path4886"
               d="M198.03516 130.7207C199.15357 130.7947 200.28805 130.8457 201.45117 130.8457L-10.680864356 342.977734356C-11.843984356 342.977734356 -12.978464356 342.926734356 -14.096874356 342.852734356Z"
               style="stroke:none;fill:#7756b3;fill-opacity:0.99215686" />
            <path
               id="path4888"
               d="M201.45117 130.8457C209.432050881 130.734526947 215.804326587 128.03359466 219.269193136 124.568728111L7.13715878018 336.700762467C3.67229223121 340.165629016 -2.69998347485 342.866561303 -10.680864356 342.977734356Z"
               style="stroke:none;fill:#7756b3;fill-opacity:0.99215686" />
            <path
               id="path4890"
               d="M219.269193136 124.568728111C222.603593742 121.234327505 223.245413937 117.192439815 220.03711 114.07031L7.90507564404 326.202344356C11.1133795807 329.324474171 10.4715593858 333.366361861 7.13715878018 336.700762467Z"
               style="stroke:none;fill:#7756b3;fill-opacity:0.99215686" />
            <path
               id="path4892"
               d="M220.03711 114.07031C222.68544 110.91324 222.98057 107.28041 220.03711 104.41602L7.90507564404 316.548054356C10.848535644 319.412444356 10.553405644 323.045274356 7.90507564404 326.202344356Z"
               style="stroke:none;fill:#7756b3;fill-opacity:0.99215686" />
            <path
               id="path4894"
               d="M220.03711 104.41602C222.68544 101.25895 222.98057 97.626115 220.03711 94.761719L7.90507564404 306.893753356C10.848535644 309.758149356 10.553405644 313.390984356 7.90507564404 316.548054356Z"
               style="stroke:none;fill:#7756b3;fill-opacity:0.99215686" />
            <path
               id="path4896"
               d="M220.03711 94.761719C222.68522 91.604718 222.98048 87.971729 220.03711 85.107422L7.90507564404 297.239456356C10.848445644 300.103763356 10.553185644 303.736752356 7.90507564404 306.893753356Z"
               style="stroke:none;fill:#7756b3;fill-opacity:0.99215686" />
            <path
               id="path4898"
               d="M220.03711 85.107422C225.2594 78.881553 221.36706 70.781717 201.45117 70.447266L-10.680864356 282.579300356C9.23502564404 282.913751356 13.127365644 291.013587356 7.90507564404 297.239456356Z"
               style="stroke:none;fill:#7756b3;fill-opacity:0.99215686" />
            <path
               id="path4900"
               d="M138.6875 143.00391L155.89648 143.00391L-56.235554356 355.135944356L-73.444534356 355.135944356Z"
               style="stroke:none;fill:#7756b3;fill-opacity:0.99215686" />
            <path
               id="path4902"
               d="M155.89648 143.00391C155.61925 143.50278 155.41992 144.01535 155.29883 144.53906L-56.833204356 356.671094356C-56.712114356 356.147384356 -56.512784356 355.634814356 -56.235554356 355.135944356Z"
               style="stroke:none;fill:#7756b3;fill-opacity:0.99215686" />
            <path
               id="path4904"
               d="M155.29883 144.53906L138.6875 144.53906L-73.444534356 356.671094356L-56.833204356 356.671094356Z"
               style="stroke:none;fill:#7756b3;fill-opacity:0.99215686" />
            <path
               id="path4906"
               d="M138.6875 144.53906L138.6875 143.00391L-73.444534356 355.135944356L-73.444534356 356.671094356Z"
               style="stroke:none;fill:#7756b3;fill-opacity:0.99215686" />
          </g>
          <path
             id="rect4178"
             transform=""
             d="M 201.45117 70.447266 C 188.32744 70.447266 177.6875 75.323287 177.6875 81.337891 C 177.6875 83.073708 178.5976 84.709727 180.17383 86.166016 C 178.59799 87.62216 177.6875 89.256597 177.6875 90.992188 C 177.6875 92.728145 178.59736 94.363936 180.17383 95.820312 C 178.59799 97.276457 177.6875 98.910893 177.6875 100.64648 C 177.6875 102.38208 178.59799 104.01651 180.17383 105.47266 C 178.59736 106.92903 177.6875 108.56482 177.6875 110.30078 C 177.6875 112.03674 178.59736 113.67253 180.17383 115.12891 C 180.0298 115.262 179.88431 115.39514 179.75195 115.53125 C 179.47112 115.52321 179.21132 115.50483 178.92383 115.5 C 171.34943 115.5 164.61891 117.13029 160.26758 119.66016 L 135.58789 119.66016 L 130.76758 103.57031 L 39.675781 103.57031 L 31.128906 126.91211 L 72.419922 126.91211 L 71.857422 128.44922 L 29.945312 128.44922 L 29.945312 157.3125 L 65.34375 157.3125 L 65.34375 173.40234 L 155.32617 173.40234 C 155.22209 173.81605 155.16211 174.23562 155.16211 174.66211 C 155.16209 180.67671 165.8001 185.55273 178.92383 185.55273 C 194.13445 185.34086 203.49919 175.72206 198.0332 169.33594 C 199.15226 169.41002 200.28734 169.46094 201.45117 169.46094 C 217.11223 169.24278 226.57878 159.05393 220.03711 152.6875 C 225.25977 146.46159 221.36738 138.3618 201.45117 138.02734 C 200.5196 138.02734 199.60478 138.05767 198.70117 138.10547 C 200.06086 135.60917 199.95629 132.96683 198.03516 130.7207 C 199.15357 130.7947 200.28805 130.8457 201.45117 130.8457 C 217.11242 130.62754 226.57925 120.43673 220.03711 114.07031 C 222.68544 110.91324 222.98057 107.28041 220.03711 104.41602 C 222.68544 101.25895 222.98057 97.626115 220.03711 94.761719 C 222.68522 91.604718 222.98048 87.971729 220.03711 85.107422 C 225.2594 78.881553 221.36706 70.781717 201.45117 70.447266 z M 138.6875 143.00391 L 155.89648 143.00391 C 155.61925 143.50278 155.41992 144.01535 155.29883 144.53906 L 138.6875 144.53906 L 138.6875 143.00391 z "
             style="opacity:1;fill:#7756b3;fill-opacity:0.99215686;stroke:none;stroke-width:3.85032797;stroke-linecap:butt;stroke-linejoin:miter;stroke-miterlimit:4;stroke-dasharray:none;stroke-opacity:1" />
        </g>
      </g>
      <g
         id="g4411"
         transform="translate(-11.221652,25.794286)"
         style="stroke:none;fill:#7756b3;fill-opacity:0.99215686">
        <path
           inkscape:connector-curvature="0"
           id="path4407"
           d="m 72.430479,902.54357 c 77.000001,0 70.000001,0 70.000001,0"
           style="fill:#7756b3;fill-rule:evenodd;stroke:none;stroke-width:3;stroke-linecap:butt;stroke-linejoin:miter;stroke-miterlimit:4;stroke-dasharray:none;stroke-opacity:1;fill-opacity:0.99215686" />
        <path
           style="fill:#7756b3;fill-rule:evenodd;stroke:none;stroke-width:3;stroke-linecap:butt;stroke-linejoin:miter;stroke-miterlimit:4;stroke-dasharray:none;stroke-opacity:1;fill-opacity:0.99215686"
           d="m 72.430479,896.54357 c 77.000001,0 70.000001,0 70.000001,0"
           id="path4409"
           inkscape:connector-curvature="0" />
      </g>
    </g>
    <g
       transform="matrix(1.6090261,0,0,1.6090261,-35.088026,-533.59982)"
       id="g4457">
      <g
         transform="matrix(0.99013953,0,0,0.61354408,-10.906427,373.68048)"
         id="g4459">
        <path
           id="path4463"
           d="m 88.823841,861.1362 c -1.244857,0 -2.485342,0.25714 -3.454301,0.71757 -0.976376,0.46396 -1.602737,1.09893 -1.736573,1.76811 -0.13531,0.67655 0.243705,1.33241 1.05981,1.82046 0.822537,0.49191 2.016306,0.76996 3.313615,0.76996 1.297309,0 2.580631,-0.27805 3.561599,-0.76996 0.973293,-0.48805 1.56355,-1.14391 1.646142,-1.82046 0.08169,-0.66918 -0.340159,-1.30415 -1.167106,-1.76811 -0.820662,-0.46043 -1.978329,-0.71757 -3.223186,-0.71757 0,0 0,0 0,0 m 38.854009,0.3256 c -1.24823,0 -2.40892,0.25853 -3.23164,0.72146 -0.82904,0.4665 -1.25182,1.10494 -1.16968,1.77781 0.0831,0.6803 0.67517,1.33981 1.65136,1.8306 0.98391,0.49466 2.27096,0.77428 3.57192,0.77428 1.30096,0 2.49796,-0.27962 3.32254,-0.77428 0.81813,-0.49079 1.19783,-1.1503 1.06177,-1.8306 -0.13457,-0.67287 -0.76299,-1.31131 -1.74226,-1.77781 -0.97182,-0.46293 -2.2158,-0.72146 -3.46401,-0.72146 0,0 0,0 0,0 m -19.2697,4.37895 c -2.15579,0 -4.23823,0.46342 -5.80528,1.29684 -1.58799,0.84454 -2.53287,2.0082 -2.611332,3.24441 -0.168332,2.65218 3.603262,4.88314 8.430432,4.88314 4.82716,0 8.59222,-2.23096 8.41611,-4.88314 -0.082,-1.23621 -1.03038,-2.39987 -2.62085,-3.24441 -1.5695,-0.83342 -3.65329,-1.29684 -5.80908,-1.29684 0,0 0,0 0,0 m -21.798213,9.04308 c -1.386913,0 -2.774895,0.31925 -3.865803,0.89128 -1.100225,0.57693 -1.81528,1.36733 -1.982084,2.20135 -0.168855,0.84428 0.237716,1.66378 1.138035,2.27426 0.908264,0.61587 2.237958,0.96425 3.69029,0.96425 1.452334,0 2.894234,-0.34838 4.000856,-0.96425 1.096941,-0.61048 1.767457,-1.42998 1.870525,-2.27426 0.101815,-0.83402 -0.358671,-1.62442 -1.273081,-2.20135 -0.906666,-0.57203 -2.191826,-0.89128 -3.578738,-0.89128 0,0 0,0 0,0 m 43.229373,0 c -1.38691,0 -2.67206,0.31925 -3.57873,0.89128 -0.91441,0.57693 -1.3749,1.36733 -1.27308,2.20135 0.10307,0.84428 0.77358,1.66378 1.87053,2.27426 1.10662,0.61587 2.54851,0.96425 4.00084,0.96425 1.45234,0 2.78204,-0.34838 3.69029,-0.96425 0.90033,-0.61048 1.3069,-1.42998 1.13804,-2.27426 -0.1668,-0.83402 -0.88186,-1.62442 -1.98208,-2.20135 -1.09091,-0.57203 -2.47889,-0.89128 -3.86581,-0.89128 0,0 0,0 0,0"
           style="opacity:1;fill:#2e5c02;fill-opacity:1;stroke:none;stroke-width:3;stroke-linecap:butt;stroke-linejoin:miter;stroke-miterlimit:4;stroke-dasharray:none;stroke-opacity:1;filter:url(#filter4396)"
           inkscape:connector-curvature="0" />
      </g>
      <g
         transform="translate(-11.221652,25.794286)"
         id="g4465">
        <path
           style="fill:none;fill-rule:evenodd;stroke:#2e5c02;stroke-width:3;stroke-linecap:butt;stroke-linejoin:miter;stroke-miterlimit:4;stroke-dasharray:none;stroke-opacity:1"
           d="m 72.430479,902.54357 c 77.000001,0 70.000001,0 70.000001,0"
           id="path4469"
           inkscape:connector-curvature="0" />
        <path
           inkscape:connector-curvature="0"
           id="path4471"
           d="m 72.430479,896.54357 c 77.000001,0 70.000001,0 70.000001,0"
           style="fill:none;fill-rule:evenodd;stroke:#2e5c02;stroke-width:3;stroke-linecap:butt;stroke-linejoin:miter;stroke-miterlimit:4;stroke-dasharray:none;stroke-opacity:1" />
      </g>
    </g>
    <g
       transform="matrix(1.6090261,0,0,1.6090261,-102.65486,-533.99825)"
       id="g4513" />
    <g
       transform="matrix(1.6090261,0,0,1.6090261,-102.65486,-469.63721)"
       id="g4485" />
    <g
       transform="matrix(1.6090261,0,0,1.6090261,-102.65486,-543.65241)"
       id="g4516" />
    <g
       id="g4520"
       transform="matrix(1.6090261,0,0,1.6090261,-102.65486,-553.30656)" />
    <g
       transform="matrix(1.6090261,0,0,1.6090261,-102.65486,-562.96072)"
       id="g4524" />
    <g
       id="g4608"
       transform="matrix(1.6090261,0,0,1.6090261,-68.917416,-561.45896)">
      <g
         transform="translate(-0.9752381,7.3142857)"
         id="g4610">
        <g
           id="g4612">
          <g
             transform="matrix(0.99013953,0,0,0.61354408,-10.906427,373.68048)"
             id="g4614">
            <path
               sodipodi:nodetypes="ccccc"
               inkscape:connector-curvature="0"
               id="path4616"
               d="m 80.161572,859.35271 57.177448,0 4.38857,23.64575 -66.929828,0 z"
               style="opacity:1;fill:#81c244;fill-opacity:1;stroke:#2e5c02;stroke-width:3.07017803;stroke-linecap:butt;stroke-linejoin:miter;stroke-miterlimit:4;stroke-dasharray:none;stroke-opacity:1" />
            <path
               id="path4618"
               d="m 88.823841,861.1362 c -1.244857,0 -2.485342,0.25714 -3.454301,0.71757 -0.976376,0.46396 -1.602737,1.09893 -1.736573,1.76811 -0.13531,0.67655 0.243705,1.33241 1.05981,1.82046 0.822537,0.49191 2.016306,0.76996 3.313615,0.76996 1.297309,0 2.580631,-0.27805 3.561599,-0.76996 0.973293,-0.48805 1.56355,-1.14391 1.646142,-1.82046 0.08169,-0.66918 -0.340159,-1.30415 -1.167106,-1.76811 -0.820662,-0.46043 -1.978329,-0.71757 -3.223186,-0.71757 0,0 0,0 0,0 m 38.854009,0.3256 c -1.24823,0 -2.40892,0.25853 -3.23164,0.72146 -0.82904,0.4665 -1.25182,1.10494 -1.16968,1.77781 0.0831,0.6803 0.67517,1.33981 1.65136,1.8306 0.98391,0.49466 2.27096,0.77428 3.57192,0.77428 1.30096,0 2.49796,-0.27962 3.32254,-0.77428 0.81813,-0.49079 1.19783,-1.1503 1.06177,-1.8306 -0.13457,-0.67287 -0.76299,-1.31131 -1.74226,-1.77781 -0.97182,-0.46293 -2.2158,-0.72146 -3.46401,-0.72146 0,0 0,0 0,0 m -19.2697,4.37895 c -2.15579,0 -4.23823,0.46342 -5.80528,1.29684 -1.58799,0.84454 -2.53287,2.0082 -2.611332,3.24441 -0.168332,2.65218 3.603262,4.88314 8.430432,4.88314 4.82716,0 8.59222,-2.23096 8.41611,-4.88314 -0.082,-1.23621 -1.03038,-2.39987 -2.62085,-3.24441 -1.5695,-0.83342 -3.65329,-1.29684 -5.80908,-1.29684 0,0 0,0 0,0 m -21.798213,9.04308 c -1.386913,0 -2.774895,0.31925 -3.865803,0.89128 -1.100225,0.57693 -1.81528,1.36733 -1.982084,2.20135 -0.168855,0.84428 0.237716,1.66378 1.138035,2.27426 0.908264,0.61587 2.237958,0.96425 3.69029,0.96425 1.452334,0 2.894234,-0.34838 4.000856,-0.96425 1.096941,-0.61048 1.767457,-1.42998 1.870525,-2.27426 0.101815,-0.83402 -0.358671,-1.62442 -1.273081,-2.20135 -0.906666,-0.57203 -2.191826,-0.89128 -3.578738,-0.89128 0,0 0,0 0,0 m 43.229373,0 c -1.38691,0 -2.67206,0.31925 -3.57873,0.89128 -0.91441,0.57693 -1.3749,1.36733 -1.27308,2.20135 0.10307,0.84428 0.77358,1.66378 1.87053,2.27426 1.10662,0.61587 2.54851,0.96425 4.00084,0.96425 1.45234,0 2.78204,-0.34838 3.69029,-0.96425 0.90033,-0.61048 1.3069,-1.42998 1.13804,-2.27426 -0.1668,-0.83402 -0.88186,-1.62442 -1.98208,-2.20135 -1.09091,-0.57203 -2.47889,-0.89128 -3.86581,-0.89128 0,0 0,0 0,0"
               style="opacity:1;fill:#2e5c02;fill-opacity:1;stroke:none;stroke-width:3;stroke-linecap:butt;stroke-linejoin:miter;stroke-miterlimit:4;stroke-dasharray:none;stroke-opacity:1;filter:url(#filter4396)"
               inkscape:connector-curvature="0" />
          </g>
          <g
             transform="translate(-11.221652,25.794286)"
             id="g4620">
            <rect
               style="opacity:1;fill:#81c244;fill-opacity:1;stroke:#2e5c02;stroke-width:2.41713643;stroke-linecap:butt;stroke-linejoin:miter;stroke-miterlimit:4;stroke-dasharray:none;stroke-opacity:1"
               id="rect4622"
               width="67.582863"
               height="17.938719"
               x="-141.22191"
               y="890.599"
               transform="scale(-1,1)" />
            <path
               style="fill:none;fill-rule:evenodd;stroke:#2e5c02;stroke-width:3;stroke-linecap:butt;stroke-linejoin:miter;stroke-miterlimit:4;stroke-dasharray:none;stroke-opacity:1"
               d="m 72.430479,902.54357 c 77.000001,0 70.000001,0 70.000001,0"
               id="path4624"
               inkscape:connector-curvature="0" />
            <path
               inkscape:connector-curvature="0"
               id="path4626"
               d="m 72.430479,896.54357 c 77.000001,0 70.000001,0 70.000001,0"
               style="fill:none;fill-rule:evenodd;stroke:#2e5c02;stroke-width:3;stroke-linecap:butt;stroke-linejoin:miter;stroke-miterlimit:4;stroke-dasharray:none;stroke-opacity:1" />
          </g>
        </g>
        <g
           id="g4628"
           transform="translate(22,10)">
          <g
             id="g4630"
             transform="matrix(0.99013953,0,0,0.61354408,-10.906427,373.68048)">
            <path
               style="opacity:1;fill:#81c244;fill-opacity:1;stroke:#2e5c02;stroke-width:3.07017803;stroke-linecap:butt;stroke-linejoin:miter;stroke-miterlimit:4;stroke-dasharray:none;stroke-opacity:1"
               d="m 80.161572,859.35271 57.177448,0 4.38857,23.64575 -66.929828,0 z"
               id="path4632"
               inkscape:connector-curvature="0"
               sodipodi:nodetypes="ccccc" />
            <path
               inkscape:connector-curvature="0"
               style="opacity:1;fill:#2e5c02;fill-opacity:1;stroke:none;stroke-width:3;stroke-linecap:butt;stroke-linejoin:miter;stroke-miterlimit:4;stroke-dasharray:none;stroke-opacity:1;filter:url(#filter4396)"
               d="m 88.823841,861.1362 c -1.244857,0 -2.485342,0.25714 -3.454301,0.71757 -0.976376,0.46396 -1.602737,1.09893 -1.736573,1.76811 -0.13531,0.67655 0.243705,1.33241 1.05981,1.82046 0.822537,0.49191 2.016306,0.76996 3.313615,0.76996 1.297309,0 2.580631,-0.27805 3.561599,-0.76996 0.973293,-0.48805 1.56355,-1.14391 1.646142,-1.82046 0.08169,-0.66918 -0.340159,-1.30415 -1.167106,-1.76811 -0.820662,-0.46043 -1.978329,-0.71757 -3.223186,-0.71757 0,0 0,0 0,0 m 38.854009,0.3256 c -1.24823,0 -2.40892,0.25853 -3.23164,0.72146 -0.82904,0.4665 -1.25182,1.10494 -1.16968,1.77781 0.0831,0.6803 0.67517,1.33981 1.65136,1.8306 0.98391,0.49466 2.27096,0.77428 3.57192,0.77428 1.30096,0 2.49796,-0.27962 3.32254,-0.77428 0.81813,-0.49079 1.19783,-1.1503 1.06177,-1.8306 -0.13457,-0.67287 -0.76299,-1.31131 -1.74226,-1.77781 -0.97182,-0.46293 -2.2158,-0.72146 -3.46401,-0.72146 0,0 0,0 0,0 m -19.2697,4.37895 c -2.15579,0 -4.23823,0.46342 -5.80528,1.29684 -1.58799,0.84454 -2.53287,2.0082 -2.611332,3.24441 -0.168332,2.65218 3.603262,4.88314 8.430432,4.88314 4.82716,0 8.59222,-2.23096 8.41611,-4.88314 -0.082,-1.23621 -1.03038,-2.39987 -2.62085,-3.24441 -1.5695,-0.83342 -3.65329,-1.29684 -5.80908,-1.29684 0,0 0,0 0,0 m -21.798213,9.04308 c -1.386913,0 -2.774895,0.31925 -3.865803,0.89128 -1.100225,0.57693 -1.81528,1.36733 -1.982084,2.20135 -0.168855,0.84428 0.237716,1.66378 1.138035,2.27426 0.908264,0.61587 2.237958,0.96425 3.69029,0.96425 1.452334,0 2.894234,-0.34838 4.000856,-0.96425 1.096941,-0.61048 1.767457,-1.42998 1.870525,-2.27426 0.101815,-0.83402 -0.358671,-1.62442 -1.273081,-2.20135 -0.906666,-0.57203 -2.191826,-0.89128 -3.578738,-0.89128 0,0 0,0 0,0 m 43.229373,0 c -1.38691,0 -2.67206,0.31925 -3.57873,0.89128 -0.91441,0.57693 -1.3749,1.36733 -1.27308,2.20135 0.10307,0.84428 0.77358,1.66378 1.87053,2.27426 1.10662,0.61587 2.54851,0.96425 4.00084,0.96425 1.45234,0 2.78204,-0.34838 3.69029,-0.96425 0.90033,-0.61048 1.3069,-1.42998 1.13804,-2.27426 -0.1668,-0.83402 -0.88186,-1.62442 -1.98208,-2.20135 -1.09091,-0.57203 -2.47889,-0.89128 -3.86581,-0.89128 0,0 0,0 0,0"
               id="path4634" />
          </g>
          <g
             id="g4636"
             transform="translate(-11.221652,25.794286)">
            <rect
               transform="scale(-1,1)"
               y="890.599"
               x="-141.22191"
               height="17.938719"
               width="67.582863"
               id="rect4638"
               style="opacity:1;fill:#81c244;fill-opacity:1;stroke:#2e5c02;stroke-width:2.41713643;stroke-linecap:butt;stroke-linejoin:miter;stroke-miterlimit:4;stroke-dasharray:none;stroke-opacity:1" />
            <path
               inkscape:connector-curvature="0"
               id="path4640"
               d="m 72.430479,902.54357 c 77.000001,0 70.000001,0 70.000001,0"
               style="fill:none;fill-rule:evenodd;stroke:#2e5c02;stroke-width:3;stroke-linecap:butt;stroke-linejoin:miter;stroke-miterlimit:4;stroke-dasharray:none;stroke-opacity:1" />
            <path
               style="fill:none;fill-rule:evenodd;stroke:#2e5c02;stroke-width:3;stroke-linecap:butt;stroke-linejoin:miter;stroke-miterlimit:4;stroke-dasharray:none;stroke-opacity:1"
               d="m 72.430479,896.54357 c 77.000001,0 70.000001,0 70.000001,0"
               id="path4642"
               inkscape:connector-curvature="0" />
          </g>
        </g>
      </g>
      <g
         transform="translate(-20.967619,17.066667)"
         id="g4644">
        <ellipse
           ry="6.7683234"
           rx="14.768324"
           cy="925.36218"
           cx="189"
           id="ellipse4646"
           style="opacity:1;fill:#fdf3a6;fill-opacity:1;stroke:#8b7100;stroke-width:3.46335316;stroke-linecap:butt;stroke-linejoin:miter;stroke-miterlimit:4;stroke-dasharray:none;stroke-opacity:1" />
        <ellipse
           style="opacity:1;fill:#fdf3a6;fill-opacity:1;stroke:#8b7100;stroke-width:3.46335316;stroke-linecap:butt;stroke-linejoin:miter;stroke-miterlimit:4;stroke-dasharray:none;stroke-opacity:1"
           id="ellipse4648"
           cx="189"
           cy="919.36218"
           rx="14.768324"
           ry="6.7683234" />
        <ellipse
           ry="6.7683234"
           rx="14.768324"
           cy="913.36218"
           cx="189"
           id="ellipse4650"
           style="opacity:1;fill:#fdf3a6;fill-opacity:1;stroke:#8b7100;stroke-width:3.46335316;stroke-linecap:butt;stroke-linejoin:miter;stroke-miterlimit:4;stroke-dasharray:none;stroke-opacity:1" />
        <ellipse
           style="opacity:1;fill:#fdf3a6;fill-opacity:1;stroke:#8b7100;stroke-width:3.46335316;stroke-linecap:butt;stroke-linejoin:miter;stroke-miterlimit:4;stroke-dasharray:none;stroke-opacity:1"
           id="ellipse4652"
           cx="189"
           cy="907.36218"
           rx="14.768324"
           ry="6.7683234" />
        <ellipse
           ry="6.7683234"
           rx="14.768324"
           cy="901.36218"
           cx="189"
           id="ellipse4654"
           style="opacity:1;fill:#fdf3a6;fill-opacity:1;stroke:#8b7100;stroke-width:3.46335316;stroke-linecap:butt;stroke-linejoin:miter;stroke-miterlimit:4;stroke-dasharray:none;stroke-opacity:1" />
        <g
           id="g4656">
          <ellipse
             ry="6.7683234"
             rx="14.768324"
             cy="895.36218"
             cx="189"
             id="ellipse4658"
             style="opacity:1;fill:#fdf3a6;fill-opacity:1;stroke:#8b7100;stroke-width:3.46335316;stroke-linecap:butt;stroke-linejoin:miter;stroke-miterlimit:4;stroke-dasharray:none;stroke-opacity:1" />
        </g>
        <g
           id="g4660"
           transform="translate(0,40)">
          <ellipse
             ry="6.7683234"
             rx="14.768324"
             cy="895.36218"
             cx="175"
             id="ellipse4662"
             style="opacity:1;fill:#fdf3a6;fill-opacity:1;stroke:#8b7100;stroke-width:3.46335316;stroke-linecap:butt;stroke-linejoin:miter;stroke-miterlimit:4;stroke-dasharray:none;stroke-opacity:1" />
          <ellipse
             style="opacity:1;fill:#fdf3a6;fill-opacity:1;stroke:#8b7100;stroke-width:3.46335316;stroke-linecap:butt;stroke-linejoin:miter;stroke-miterlimit:4;stroke-dasharray:none;stroke-opacity:1"
             id="ellipse4664"
             cx="175"
             cy="889.36218"
             rx="14.768324"
             ry="6.7683234" />
          <ellipse
             ry="6.7683234"
             rx="14.768324"
             cy="883.36218"
             cx="175"
             id="ellipse4666"
             style="opacity:1;fill:#fdf3a6;fill-opacity:1;stroke:#8b7100;stroke-width:3.46335316;stroke-linecap:butt;stroke-linejoin:miter;stroke-miterlimit:4;stroke-dasharray:none;stroke-opacity:1" />
          <ellipse
             style="opacity:1;fill:#fdf3a6;fill-opacity:1;stroke:#8b7100;stroke-width:3.46335316;stroke-linecap:butt;stroke-linejoin:miter;stroke-miterlimit:4;stroke-dasharray:none;stroke-opacity:1"
             id="ellipse4668"
             cx="175"
             cy="877.36218"
             rx="14.768324"
             ry="6.7683234" />
          <ellipse
             ry="6.7683234"
             rx="14.768324"
             cy="871.36218"
             cx="175"
             id="ellipse4670"
             style="opacity:1;fill:#fdf3a6;fill-opacity:1;stroke:#8b7100;stroke-width:3.46335316;stroke-linecap:butt;stroke-linejoin:miter;stroke-miterlimit:4;stroke-dasharray:none;stroke-opacity:1" />
          <ellipse
             style="opacity:1;fill:#fdf3a6;fill-opacity:1;stroke:#8b7100;stroke-width:3.46335316;stroke-linecap:butt;stroke-linejoin:miter;stroke-miterlimit:4;stroke-dasharray:none;stroke-opacity:1"
             id="ellipse4672"
             cx="175"
             cy="865.36218"
             rx="14.768324"
             ry="6.7683234" />
        </g>
        <g
           id="g4674"
           transform="translate(0,-6)">
          <ellipse
             style="opacity:1;fill:#fdf3a6;fill-opacity:1;stroke:#8b7100;stroke-width:3.46335316;stroke-linecap:butt;stroke-linejoin:miter;stroke-miterlimit:4;stroke-dasharray:none;stroke-opacity:1"
             id="ellipse4676"
             cx="189"
             cy="895.36218"
             rx="14.768324"
             ry="6.7683234" />
        </g>
        <g
           transform="translate(0,-12)"
           id="g4678">
          <ellipse
             ry="6.7683234"
             rx="14.768324"
             cy="895.36218"
             cx="189"
             id="ellipse4680"
             style="opacity:1;fill:#fdf3a6;fill-opacity:1;stroke:#8b7100;stroke-width:3.46335316;stroke-linecap:butt;stroke-linejoin:miter;stroke-miterlimit:4;stroke-dasharray:none;stroke-opacity:1" />
        </g>
        <g
           id="g4682"
           transform="translate(0,-18)">
          <ellipse
             style="opacity:1;fill:#fdf3a6;fill-opacity:1;stroke:#8b7100;stroke-width:3.46335316;stroke-linecap:butt;stroke-linejoin:miter;stroke-miterlimit:4;stroke-dasharray:none;stroke-opacity:1"
             id="ellipse4684"
             cx="189"
             cy="895.36218"
             rx="14.768324"
             ry="6.7683234" />
        </g>
      </g>
    </g>
  </g>
</svg>
