<?xml version="1.0" encoding="UTF-8" standalone="no"?>
<!-- Created with Inkscape (http://www.inkscape.org/) -->

<svg
   xmlns:dc="http://purl.org/dc/elements/1.1/"
   xmlns:cc="http://creativecommons.org/ns#"
   xmlns:rdf="http://www.w3.org/1999/02/22-rdf-syntax-ns#"
   xmlns:svg="http://www.w3.org/2000/svg"
   xmlns="http://www.w3.org/2000/svg"
   xmlns:sodipodi="http://sodipodi.sourceforge.net/DTD/sodipodi-0.dtd"
   xmlns:inkscape="http://www.inkscape.org/namespaces/inkscape"
   sodipodi:docname="gnumeric.svg"
   inkscape:version="0.91 r13725"
   version="1.1"
   id="svg2"
   viewBox="0 0 256 256"
   height="256"
   width="256">
  <sodipodi:namedview
     inkscape:window-maximized="1"
     inkscape:window-y="0"
     inkscape:window-x="0"
     inkscape:window-height="721"
     inkscape:window-width="1366"
     units="px"
     showgrid="true"
     inkscape:current-layer="layer1"
     inkscape:document-units="px"
     inkscape:cy="128"
     inkscape:cx="128"
     inkscape:zoom="2.0507812"
     inkscape:pageshadow="2"
     inkscape:pageopacity="0.0"
     borderopacity="1.0"
     bordercolor="#666666"
     pagecolor="#ffffff"
     id="base">
    <inkscape:grid
       type="xygrid"
       id="grid4168"
       spacingx="5"
       spacingy="5" />
  </sodipodi:namedview>
  <defs
     id="defs4">
    <inkscape:path-effect
       effect="skeletal"
       id="path-effect4235"
       is_visible="true"
       pattern="M 0,0 1,0"
       copytype="single_stretched"
       prop_scale="1"
       scale_y_rel="false"
       spacing="0"
       normal_offset="0"
       tang_offset="0"
       prop_units="false"
       vertical_pattern="false"
       fuse_tolerance="0" />
    <clipPath
       clipPathUnits="userSpaceOnUse"
       id="clipPath5002">
      <g
         id="g5004">
        <path
           transform="translate(0,796.36216)"
           inkscape:connector-curvature="0"
           id="path5006"
           d="M 88.118406,249.43519 C 46.103287,235.29134 14.771284,201.68742 4.1335861,159.36053 1.3377997,148.23623 0.92261224,144.16281 0.92582381,127.88908 0.92787958,117.47222 1.134384,112.01362 1.6577819,108.54099 4.4653598,89.913336 12.17654,70.638106 23.042737,55.086148 c 3.958678,-5.665755 8.344812,-10.93092 9.101533,-10.925587 0.32809,0.0023 10.488643,18.309713 22.579009,40.683112 12.090365,22.373397 22.374546,41.334697 22.853732,42.136217 0.479186,0.80151 0.924733,2.44098 0.990103,3.64326 0.343424,6.31639 2.524175,14.20976 5.6424,20.42304 2.954444,5.88693 5.065381,8.73258 10.434696,14.06652 6.71418,6.66995 12.88853,10.28643 21.73204,12.72904 3.16587,0.87442 5.10478,1.05037 11.57517,1.05037 8.82596,0 12.60219,-0.76201 19.26429,-3.88733 2.04584,-0.95974 3.93661,-1.66536 4.20172,-1.56805 0.2651,0.0973 -11.0555,17.66459 -25.1569,39.0384 l -25.6389,38.86148 -3.094121,0.11221 c -2.554618,0.0927 -4.195204,-0.25845 -9.409103,-2.01364 z"
           style="fill:#0f9d58;fill-opacity:1;stroke:none;stroke-width:4.85768509;stroke-linejoin:round;stroke-miterlimit:4;stroke-dasharray:none;stroke-opacity:1" />
        <path
           inkscape:connector-curvature="0"
           id="path5008"
           d="m 112.35984,1051.5167 c -10.0014,-1.4495 -12.15632,-1.8201 -12.531784,-2.1556 -0.248854,-0.2223 1.738304,-3.7475 4.550294,-8.0722 7.16635,-11.0213 49.77231,-74.64801 50.25856,-75.05489 3.57509,-2.99158 8.63523,-8.0414 10.57512,-10.55356 3.36154,-4.35318 7.55784,-12.9141 9.06523,-18.494 6.19314,-22.92535 -2.59253,-47.15185 -21.69967,-59.83688 l -2.96081,-1.96565 17.02469,0.29584 c 9.36358,0.1627 31.17032,0.43384 48.45941,0.60252 l 31.43471,0.30668 1.54584,4.18869 c 2.24597,6.08579 4.67816,15.0947 5.93451,21.9816 1.52517,8.36049 1.92536,28.85896 0.73851,37.82758 -3.0805,23.27845 -12.81326,45.72018 -27.80202,64.10577 -20.47622,25.1166 -51.4599,42.1974 -84.14612,46.3885 -5.31244,0.6812 -26.64601,0.9864 -30.44647,0.4356 z"
           style="fill:#f4b400;fill-opacity:1;stroke:none;stroke-width:4.85768509;stroke-linejoin:round;stroke-miterlimit:4;stroke-dasharray:none;stroke-opacity:1" />
        <path
           transform="translate(0,796.36216)"
           inkscape:connector-curvature="0"
           id="path5010"
           d="M 67.989788,108.87302 C 41.284246,59.575543 33.290284,45.149038 32.233625,44.344765 31.651257,43.901497 32.811213,42.549931 38.695603,36.815353 53.43581,22.450419 68.809334,13.040746 87.839196,6.7360352 101.68742,2.1480329 112.58238,0.43719165 127.95142,0.43719165 c 21.3099,0 37.80488,3.80960275 56.83492,13.12633035 25.29351,12.383198 46.19421,33.578863 58.51993,59.345832 1.61138,3.368591 2.92978,6.372442 2.92978,6.675231 0,0.560033 -10.54865,0.49527 -71.16508,-0.436914 l -24.28843,-0.373518 -3.93063,-1.764495 c -6.75732,-3.033425 -10.64587,-3.839529 -18.6576,-3.867747 -5.0296,-0.01773 -7.97946,0.207636 -10.31642,0.788106 -14.50826,3.603659 -26.283291,12.94777 -33.291614,26.418653 -3.58502,6.89086 -5.24713,13.08166 -6.331628,23.58317 l -0.33738,3.26696 -9.92748,-18.32578 z"
           style="fill:#db4437;fill-opacity:1;stroke:none;stroke-width:10;stroke-linejoin:round;stroke-miterlimit:4;stroke-dasharray:none;stroke-opacity:1" />
      </g>
    </clipPath>
    <clipPath
       id="clipPath4271"
       clipPathUnits="userSpaceOnUse">
      <circle
         r="128"
         cy="128.00002"
         cx="128"
         id="circle4273"
         style="fill:#292929;fill-opacity:0.26020412;stroke:none;stroke-width:10;stroke-linejoin:round;stroke-miterlimit:4;stroke-dasharray:none;stroke-opacity:0.25882353" />
    </clipPath>
    <clipPath
       clipPathUnits="userSpaceOnUse"
       id="clipPath4363">
      <circle
         r="128"
         cy="924.36218"
         cx="128"
         id="circle4365"
         style="fill:#4285f4;fill-opacity:1;stroke:none;stroke-width:10;stroke-linejoin:round;stroke-miterlimit:4;stroke-dasharray:none;stroke-opacity:0.25882353" />
    </clipPath>
    <clipPath
       id="clipPath4452"
       clipPathUnits="userSpaceOnUse">
      <circle
         r="128"
         cy="924.36218"
         cx="128"
         id="circle4454"
         style="fill:#4285f4;fill-opacity:1;stroke:none;stroke-width:10;stroke-linejoin:round;stroke-miterlimit:4;stroke-dasharray:none;stroke-opacity:0.25882353" />
    </clipPath>
    <clipPath
       clipPathUnits="userSpaceOnUse"
       id="clipPath5177">
      <circle
         r="128"
         cy="924.36218"
         cx="128"
         id="circle5179"
         style="fill:#4285f4;fill-opacity:1;stroke:none;stroke-width:10;stroke-linejoin:round;stroke-miterlimit:4;stroke-dasharray:none;stroke-opacity:0.25882353" />
    </clipPath>
    <clipPath
       id="clipPath4342"
       clipPathUnits="userSpaceOnUse">
      <circle
         r="128"
         cy="933.48718"
         cx="128"
         id="circle4344"
         style="fill:#4285f4;fill-opacity:1;stroke:none;stroke-width:10;stroke-linejoin:round;stroke-miterlimit:4;stroke-dasharray:none;stroke-opacity:0.25882353" />
    </clipPath>
    <clipPath
       clipPathUnits="userSpaceOnUse"
       id="clipPath4681">
      <circle
         r="128"
         cy="930.43964"
         cx="127.00293"
         id="circle4683"
         style="fill:#9d5fad;fill-opacity:1;stroke:none;stroke-width:10;stroke-linejoin:round;stroke-miterlimit:4;stroke-dasharray:none;stroke-opacity:0.25882353" />
    </clipPath>
    <clipPath
       id="clipPath4480"
       clipPathUnits="userSpaceOnUse">
      <circle
         r="128"
         cy="924.36218"
         cx="128"
         id="circle4482"
         style="fill:#df7618;fill-opacity:1;stroke:none;stroke-width:10;stroke-linejoin:round;stroke-miterlimit:4;stroke-dasharray:none;stroke-opacity:0.25882353" />
    </clipPath>
    <filter
       id="filter4301"
       inkscape:label="Drop Shadow"
       style="color-interpolation-filters:sRGB">
      <feFlood
         id="feFlood4303"
         result="flood"
         flood-color="rgb(0,0,0)"
         flood-opacity="0.498039" />
      <feComposite
         id="feComposite4305"
         result="composite1"
         operator="in"
         in2="SourceGraphic"
         in="flood" />
      <feGaussianBlur
         id="feGaussianBlur4307"
         result="blur"
         stdDeviation="3.7"
         in="composite1" />
      <feOffset
         id="feOffset4309"
         result="offset"
         dy="3.7"
         dx="3.8" />
      <feComposite
         id="feComposite4311"
         result="composite2"
         operator="over"
         in2="offset"
         in="SourceGraphic" />
    </filter>
    <clipPath
       clipPathUnits="userSpaceOnUse"
       id="clipPath5827">
      <circle
         r="128"
         cy="924.36218"
         cx="128"
         id="circle5829"
         style="fill:#df7618;fill-opacity:1;stroke:none;stroke-width:10;stroke-linejoin:round;stroke-miterlimit:4;stroke-dasharray:none;stroke-opacity:0.25882353" />
    </clipPath>
    <clipPath
       id="clipPath5688"
       clipPathUnits="userSpaceOnUse">
      <circle
         r="128"
         cy="923.87457"
         cx="126.04952"
         id="circle5690"
         style="fill:#ffeb4f;fill-opacity:1;stroke:none;stroke-width:10;stroke-linejoin:round;stroke-miterlimit:4;stroke-dasharray:none;stroke-opacity:0.25882353" />
    </clipPath>
    <clipPath
       clipPathUnits="userSpaceOnUse"
       id="clipPath4624">
      <circle
         r="128"
         cy="923.87457"
         cx="126.04952"
         id="circle4626"
         style="fill:#ffeb4f;fill-opacity:1;stroke:none;stroke-width:10;stroke-linejoin:round;stroke-miterlimit:4;stroke-dasharray:none;stroke-opacity:0.25882353" />
    </clipPath>
    <filter
       inkscape:collect="always"
       style="color-interpolation-filters:sRGB"
       id="filter4628"
       x="-0.012"
       width="1.024"
       y="-0.012"
       height="1.024">
      <feGaussianBlur
         inkscape:collect="always"
         stdDeviation="1.28"
         id="feGaussianBlur4630" />
    </filter>
  </defs>
  <metadata
     id="metadata7">
    <rdf:RDF>
      <cc:Work
         rdf:about="">
        <dc:format>image/svg+xml</dc:format>
        <dc:type
           rdf:resource="http://purl.org/dc/dcmitype/StillImage" />
        <dc:title />
      </cc:Work>
    </rdf:RDF>
  </metadata>
  <g
     transform="translate(0,-796.36216)"
     id="layer1"
     inkscape:groupmode="layer"
     inkscape:label="Layer 1">
    <path
       inkscape:connector-curvature="0"
       id="path4913"
       d="M 154.47438,968.80998 101.03985,1048.476 0.4857685,1048.9618 0,842.0244 l 33.032258,-2.42884 45.176471,83.55218 21.373814,35.4611 26.717267,13.11575 z"
       style="fill:none;fill-rule:evenodd;stroke:none;stroke-width:1px;stroke-linecap:butt;stroke-linejoin:miter;stroke-opacity:1" />
    <circle
       style="fill:#ffeb4f;fill-opacity:1;stroke:none;stroke-width:10;stroke-linejoin:round;stroke-miterlimit:4;stroke-dasharray:none;stroke-opacity:0.25882353;filter:url(#filter4628)"
       id="path4152"
       cx="126.04952"
       cy="923.87457"
       r="128" />
    <text
       sodipodi:linespacing="125%"
       id="text4914"
       y="927.36218"
       x="120"
       style="font-style:normal;font-weight:normal;font-size:40px;line-height:125%;font-family:sans-serif;letter-spacing:0px;word-spacing:0px;fill:#000000;fill-opacity:1;stroke:none;stroke-width:1px;stroke-linecap:butt;stroke-linejoin:miter;stroke-opacity:1"
       xml:space="preserve"><tspan
         y="927.36218"
         x="120"
         id="tspan4916"
         sodipodi:role="line" /></text>
    <path
       style="fill:none;stroke:black;stroke-opacity:1;stroke-width:1px;stroke-linejoin:miter;stroke-linecap:butt;fill-rule:evenodd"
       d="m 90,171 c -0.02835,0.10164 -0.09512,0.18781 -0.142791,0.28195 -0.03402,0.0672 -0.06286,0.17517 0.01,0.19433 0.629137,0.16553 1.29252,0 1.943068,0 2e-6,0 4e-6,0 6e-6,0 2.428841,0 4.857683,0 7.286524,0 10e-7,0 2e-6,0 3e-6,0 5.667296,0 11.334596,0 17.001896,0 0,0 0,0 0,0 11.01075,0 22.02151,0 33.03226,0 3.40038,0 6.80076,0 10.20114,0 1.13346,0 2.26692,0 3.40038,0 0.64769,0 1.29538,0 1.94307,0 0,0 0,0 1e-5,0 0.16221,0 0.32574,0.0266 0.48575,0 0,0 1e-5,0 1e-5,0 0.8145,-0.13574 1.61434,-0.35002 2.42884,-0.48577 0,0 1e-5,0 1e-5,0 0.16001,-0.0266 0.32354,0 0.48576,0 0.64769,0 1.29539,0 1.94308,0 1.61923,0 3.23845,0 4.85768,0 1.94307,0 3.88615,0 5.82922,0 0.65029,0 1.31221,0.15772 1.94308,0 0.23053,-0.0576 0.26033,-0.41062 0.48575,-0.48577 10e-6,0 10e-6,0 10e-6,0 0.30935,-0.10312 0.64546,0 0.97153,0 1e-5,0 1e-5,0 1e-5,0 0.48771,0 0.98416,0.11829 1.45731,0 0.22811,-0.057 0.27547,-0.38062 0.48577,-0.48576 0.0332,-0.0166 0.073,-0.0132 0.11001,-0.0156 0,0 0,0 0,0 0.0743,-0.005 0.14882,-0.006 0.22329,-0.007 0.21191,-0.003 0.42387,-6e-4 0.63577,0.003 0.32448,0.005 0.64949,0.0204 0.974,0.0204 1.29538,0 2.59077,0 3.88615,0 0.33969,0 0.67926,0.0178 1.01889,0.024 1e-5,0 1e-5,0 1e-5,0 0.20078,0.004 0.40162,0.007 0.6024,0.003 0,0 10e-6,0 10e-6,0 0.10737,-0.002 0.22572,0.0211 0.32176,-0.027 0.20741,-0.1037 0.27836,-0.38207 0.48577,-0.48577 0.0501,-0.0251 0.11077,-0.0175 0.16675,-0.0206 0.1181,-0.006 0.23641,-0.008 0.35467,-0.01 0.34828,-0.004 0.6966,-6.9e-4 1.04487,0.003 0.61137,0.007 1.22268,0.0269 1.83409,0.0269 0.43027,0 0.86055,-0.006 1.29082,-0.008 0.26002,-0.001 0.52005,-0.002 0.78008,-0.001 0.0852,4.2e-4 0.17049,9e-4 0.25571,0.003 l 0,0 c 0,0 1e-5,0 1e-5,0 0.0244,5.9e-4 0.0489,0.001 0.0733,0.003 0.009,5.7e-4 0.0217,-0.003 0.0289,0.004 0.0602,0.0602 0.0251,0.16159 5e-5,0.24293 -0.0251,0.0813 -0.0602,0.1827 0,0.24289 0.0726,0.0726 0.19615,0.0134 0.2942,-0.0172 0.0707,-0.0221 0.20179,-0.0562 0.19157,0.0172 -0.054,0.38821 -0.41242,0.65005 -0.62239,0.98102"
       id="path4233"
       inkscape:path-effect="#path-effect4235"
       inkscape:original-d="m 90,171 c -0.04428,0.15876 -0.292221,0.43434 -0.132827,0.47628 0.626374,0.1648 1.295382,0 1.943074,0 2.428842,0 4.857685,0 7.286527,0 5.667296,0 11.334596,0 17.001896,0 11.01075,0 22.02151,0 33.03226,0 3.40038,0 6.80076,0 10.20114,0 1.13346,0 2.26692,0 3.40038,0 0.64769,0 1.29538,0 1.94307,0 0.16192,0 0.32605,0.0266 0.48577,0 0.81441,-0.13573 1.61443,-0.35003 2.42884,-0.48577 0.15972,-0.0266 0.32385,0 0.48577,0 0.64769,0 1.29538,0 1.94308,0 1.61922,0 3.23845,0 4.85768,0 1.94307,0 3.88615,0 5.82922,0 0.64769,0 1.31472,0.15709 1.94308,0 0.22215,-0.0555 0.26852,-0.41335 0.48576,-0.48577 0.30723,-0.10241 0.6477,0 0.97154,0 0.48577,0 0.98604,0.11782 1.45731,0 0.22215,-0.0555 0.28095,-0.38336 0.48577,-0.48576 0.10887,-0.0544 1.82764,0 1.94307,0 1.29538,0 2.59077,0 3.88615,0 0.25402,0 1.81534,0.0639 1.94307,0 0.20482,-0.10241 0.28095,-0.38336 0.48577,-0.48577 0.14338,-0.0717 2.89994,0 3.40038,0 0.22904,0 2.40683,-0.022 2.42884,0 0.1145,0.11449 -0.11449,0.37127 0,0.48577 0.1145,0.11449 0.50811,-0.16038 0.48577,0 -0.0534,0.38356 -0.41493,0.65401 -0.62239,0.98102" />
    <g
       id="g4284"
       clip-path="url(#clipPath4624)"
       style="fill:#d2bf2b;fill-opacity:1">
      <g
         id="g4266"
         transform="matrix(1.25,0,0,1.25,-31.983086,-241.2628)"
         style="fill:#d2bf2b;fill-opacity:1">
        <g
           id="g4494"
           transform="matrix(0.8,0,0,0.8,25.586469,830.09997)"
           style="fill:#d2bf2b;fill-opacity:1">
          <g
             id="g4496"
             style="opacity:0.98999999;fill:#d2bf2b;fill-opacity:1;stroke:none;stroke-width:3;stroke-linecap:round;stroke-linejoin:round;stroke-miterlimit:4;stroke-dasharray:none;stroke-opacity:1">
            <path
               id="path4498"
               d="M143.88086 29.828125L143.2207 49.982422L-68.911334356 262.114456356L-68.251174356 241.960159356Z"
               style="fill:#d2bf2b;fill-opacity:1" />
            <path
               id="path4500"
               d="M143.2207 49.982422L141.53711 101.30273L-70.594924356 313.434764356L-68.911334356 262.114456356Z"
               style="fill:#d2bf2b;fill-opacity:1" />
            <path
               id="path4502"
               d="M141.53711 101.30273L141.78711 101.16797L-70.344924356 313.300004356L-70.594924356 313.434764356Z"
               style="fill:#d2bf2b;fill-opacity:1" />
            <path
               id="path4504"
               d="M141.78711 101.16797L141.53711 108.80273L-70.594924356 320.934764356L-70.344924356 313.300004356Z"
               style="fill:#d2bf2b;fill-opacity:1" />
            <path
               id="path4506"
               d="M141.53711 108.80273L186.82617 84.597656L-25.305864356 296.729690356L-70.594924356 320.934764356Z"
               style="fill:#d2bf2b;fill-opacity:1" />
            <path
               id="path4508"
               d="M186.82617 84.597656L203.13281 75.882812L-8.99922435596 288.014846356L-25.305864356 296.729690356Z"
               style="fill:#d2bf2b;fill-opacity:1" />
            <path
               id="path4510"
               d="M203.13281 75.882812C201.59249 73.084567 205.49289 68.707676 202.00781 66.5625L-10.124224356 278.694534356C-6.63914435596 280.839710356 -10.539544356 285.216601356 -8.99922435596 288.014846356Z"
               style="fill:#d2bf2b;fill-opacity:1" />
            <path
               id="path4512"
               d="M202.00781 66.5625C189.71731 45.633795 168.05895 31.946403 143.88086 29.828125L-68.251174356 241.960159356C-44.073084356 244.078437356 -22.414724356 257.765829356 -10.124224356 278.694534356Z"
               style="fill:#d2bf2b;fill-opacity:1" />
            <path
               id="path4514"
               d="M128.0 49.25C86.578644 49.25 53.0 82.828644 53.0 124.25L-159.132034356 336.382034356C-159.132034356 294.960678356 -125.553390356 261.382034356 -84.132034356 261.382034356Z"
               style="fill:#d2bf2b;fill-opacity:1" />
            <path
               id="path4516"
               d="M53.0 124.25C53.03064 125.28547 53.08274 126.3202 53.15625 127.35352L-158.975784356 339.485554356C-159.049294356 338.452234356 -159.101394356 337.417504356 -159.132034356 336.382034356Z"
               style="fill:#d2bf2b;fill-opacity:1" />
            <path
               id="path4518"
               d="M53.15625 127.35352C53.06119 128.81717 53.009082 130.28329 53.0 131.75L-159.132034356 343.882034356C-159.122952356 342.415324356 -159.070844356 340.949204356 -158.975784356 339.485554356Z"
               style="fill:#d2bf2b;fill-opacity:1" />
            <path
               id="path4520"
               d="M53.0 131.75C53.0 173.17136 86.578644 206.75 128.0 206.75L-84.132034356 418.882034356C-125.553390356 418.882034356 -159.132034356 385.303394356 -159.132034356 343.882034356Z"
               style="fill:#d2bf2b;fill-opacity:1" />
            <path
               id="path4522"
               d="M128.0 206.75C149.844648312 202.303582712 167.803932147 192.642135472 180.713370972 179.732696647L-31.4186633839 391.864731003C-44.3281022092 404.774169828 -62.2873860441 414.435617068 -84.132034356 418.882034356Z"
               style="fill:#d2bf2b;fill-opacity:1" />
            <path
               id="path4524"
               d="M180.713370972 179.732696647C204.37596536 156.070102259 211.072224671 121.494992049 193.63086 88.121094L-18.501174356 300.253128356C-1.05980968546 333.627026405 -7.756068996 368.202136615 -31.4186633839 391.864731003Z"
               style="fill:#d2bf2b;fill-opacity:1" />
            <path
               id="path4526"
               d="M193.63086 88.121094L177.32422 96.837891L-34.807814356 308.969925356L-18.501174356 300.253128356Z"
               style="fill:#d2bf2b;fill-opacity:1" />
            <path
               id="path4528"
               d="M177.32422 96.837891L132.28516 120.90625L-79.846874356 333.038284356L-34.807814356 308.969925356Z"
               style="fill:#d2bf2b;fill-opacity:1" />
            <path
               id="path4530"
               d="M132.28516 120.90625L133.71875 77.220703L-78.413284356 289.352737356L-79.846874356 333.038284356Z"
               style="fill:#d2bf2b;fill-opacity:1" />
            <path
               id="path4532"
               d="M133.71875 77.220703L134.37891 57.066406L-77.753124356 269.198440356L-78.413284356 289.352737356Z"
               style="fill:#d2bf2b;fill-opacity:1" />
            <path
               id="path4534"
               d="M134.37891 57.066406C134.29691 57.062406 134.21485 57.058506 134.13281 57.054686L-77.999224356 269.186720356C-77.917184356 269.190540356 -77.835124356 269.194440356 -77.753124356 269.198440356Z"
               style="fill:#d2bf2b;fill-opacity:1" />
            <path
               id="path4536"
               d="M134.13281 57.054686L134.37891 49.566404L-77.753124356 261.698438356L-77.999224356 269.186720356Z"
               style="fill:#d2bf2b;fill-opacity:1" />
            <path
               id="path4538"
               d="M134.37891 49.566404C132.25806 49.37041 130.12983 49.264845 128.0 49.25L-84.132034356 261.382034356C-82.002204356 261.396879356 -79.873974356 261.502444356 -77.753124356 261.698438356Z"
               style="fill:#d2bf2b;fill-opacity:1" />
          </g>
          <path
             sodipodi:nodetypes="cccccccccccccccccccccc"
             inkscape:connector-curvature="0"
             id="path4225"
             transform=""
             d="m 143.88086,29.828125 -0.66016,20.154297 -1.68359,51.320308 0.25,-0.13476 -0.25,7.63476 45.28906,-24.205074 16.30664,-8.714844 c -1.54032,-2.798245 2.36008,-7.175136 -1.125,-9.320312 C 189.71731,45.633795 168.05895,31.946403 143.88086,29.828125 Z M 128,49.25 c -41.421356,0 -75,33.578644 -75,75 0.03064,1.03547 0.08274,2.0702 0.15625,3.10352 -0.09506,1.46365 -0.147168,2.92977 -0.15625,4.39648 0,41.42136 33.578644,75 75,75 61.8852,-12.59656 92.58759,-67.04744 65.63086,-118.628906 l -16.30664,8.716797 -45.03906,24.068359 1.43359,-43.685547 0.66016,-20.154297 c -0.082,-0.004 -0.16406,-0.0079 -0.2461,-0.01172 l 0.2461,-7.488282 C 132.25806,49.37041 130.12983,49.264845 128,49.25 Z"
             style="opacity:0.98999999;fill:#d2bf2b;fill-opacity:1;stroke:none;stroke-width:3;stroke-linecap:round;stroke-linejoin:round;stroke-miterlimit:4;stroke-dasharray:none;stroke-opacity:1" />
        </g>
      </g>
      <g
         id="g4250"
         transform="matrix(1.25,0,0,1.25,-28.955008,-218.40159)"
         style="fill:#d2bf2b;fill-opacity:1" />
    </g>
    <g
       id="g4292">
      <g
         transform="matrix(1.25,0,0,1.25,-31.983086,-241.2628)"
         id="g4294">
        <path
           inkscape:connector-curvature="0"
           id="path4296"
           d="m 133.08999,875.75387 a 60,60 0 0 0 -5.10352,-0.2539 60,60 0 0 0 -60.000002,60 60,60 0 0 0 60.000002,60 60,60 0 0 0 60,-60 60,60 0 0 0 -7.49609,-28.90235 l -13.04493,6.97266 -36.23046,19.36328 1.3457,-41.05664 0.5293,-16.12305 z"
           style="opacity:0.98999999;fill:#933a22;fill-opacity:1;stroke:none;stroke-width:3;stroke-linecap:round;stroke-linejoin:round;stroke-miterlimit:4;stroke-dasharray:none;stroke-opacity:1" />
        <path
           style="opacity:0.98999999;fill:#f46d6d;fill-opacity:1;stroke:none;stroke-width:3;stroke-linecap:round;stroke-linejoin:round;stroke-miterlimit:4;stroke-dasharray:none;stroke-opacity:1"
           d="m 133.08999,869.75387 a 60,60 0 0 0 -5.10352,-0.2539 60,60 0 0 0 -60.000002,60 60,60 0 0 0 60.000002,60 60,60 0 0 0 60,-60 60,60 0 0 0 -7.49609,-28.90235 l -13.04493,6.97266 -36.23046,19.36328 1.3457,-41.05664 0.5293,-16.12305 z"
           id="path4298"
           inkscape:connector-curvature="0" />
      </g>
      <g
         transform="matrix(1.25,0,0,1.25,-28.955008,-218.40159)"
         id="g4300">
        <path
           inkscape:connector-curvature="0"
           id="path4302"
           d="m 138.26924,841.67321 -0.5293,16.12305 -1.3457,41.05664 36.23046,-19.36328 13.04493,-6.97266 c -1.29963,-2.36099 2.25608,-6.13004 -1.39967,-7.72414 -15.66012,-6.82865 -28.72736,-21.6279 -46.00072,-23.11961 z"
           style="opacity:0.98999999;fill:#4676b0;fill-opacity:1;stroke:none;stroke-width:3;stroke-linecap:round;stroke-linejoin:round;stroke-miterlimit:4;stroke-dasharray:none;stroke-opacity:1"
           sodipodi:nodetypes="cccccsc" />
        <path
           style="opacity:0.98999999;fill:#78a3d0;fill-opacity:1;stroke:none;stroke-width:3;stroke-linecap:round;stroke-linejoin:round;stroke-miterlimit:4;stroke-dasharray:none;stroke-opacity:1"
           d="m 138.26924,835.67321 -0.5293,16.12305 -1.3457,41.05664 36.23046,-19.36328 13.04493,-6.97266 a 60,60 0 0 0 -47.40039,-30.84375 z"
           id="path4304"
           inkscape:connector-curvature="0" />
      </g>
    </g>
  </g>
</svg>
