<?xml version="1.0" encoding="UTF-8" standalone="no"?>
<!-- Created with Inkscape (http://www.inkscape.org/) -->

<svg
   xmlns:dc="http://purl.org/dc/elements/1.1/"
   xmlns:cc="http://creativecommons.org/ns#"
   xmlns:rdf="http://www.w3.org/1999/02/22-rdf-syntax-ns#"
   xmlns:svg="http://www.w3.org/2000/svg"
   xmlns="http://www.w3.org/2000/svg"
   xmlns:sodipodi="http://sodipodi.sourceforge.net/DTD/sodipodi-0.dtd"
   xmlns:inkscape="http://www.inkscape.org/namespaces/inkscape"
   sodipodi:docname="gnuplot.svg"
   inkscape:version="0.92.0 r"
   version="1.1"
   id="svg2"
   viewBox="0 0 256 256"
   height="256"
   width="256">
  <sodipodi:namedview
     inkscape:window-maximized="1"
     inkscape:window-y="0"
     inkscape:window-x="0"
     inkscape:window-height="1054"
     inkscape:window-width="1920"
     units="px"
     showgrid="true"
     inkscape:current-layer="layer1"
     inkscape:document-units="px"
     inkscape:cy="128"
     inkscape:cx="76.440277"
     inkscape:zoom="3.3359375"
     inkscape:pageshadow="2"
     inkscape:pageopacity="0.0"
     borderopacity="1.0"
     bordercolor="#666666"
     pagecolor="#ffffff"
     id="base">
    <inkscape:grid
       spacingy="5"
       spacingx="5"
       id="grid4168"
       type="xygrid" />
  </sodipodi:namedview>
  <defs
     id="defs4">
    <clipPath
       id="clipPath5002"
       clipPathUnits="userSpaceOnUse">
      <g
         id="g5004">
        <path
           style="fill:#0f9d58;fill-opacity:1;stroke:none;stroke-width:4.85768509;stroke-linejoin:round;stroke-miterlimit:4;stroke-dasharray:none;stroke-opacity:1"
           d="M 88.118406,249.43519 C 46.103287,235.29134 14.771284,201.68742 4.1335861,159.36053 1.3377997,148.23623 0.92261224,144.16281 0.92582381,127.88908 0.92787958,117.47222 1.134384,112.01362 1.6577819,108.54099 4.4653598,89.913336 12.17654,70.638106 23.042737,55.086148 c 3.958678,-5.665755 8.344812,-10.93092 9.101533,-10.925587 0.32809,0.0023 10.488643,18.309713 22.579009,40.683112 12.090365,22.373397 22.374546,41.334697 22.853732,42.136217 0.479186,0.80151 0.924733,2.44098 0.990103,3.64326 0.343424,6.31639 2.524175,14.20976 5.6424,20.42304 2.954444,5.88693 5.065381,8.73258 10.434696,14.06652 6.71418,6.66995 12.88853,10.28643 21.73204,12.72904 3.16587,0.87442 5.10478,1.05037 11.57517,1.05037 8.82596,0 12.60219,-0.76201 19.26429,-3.88733 2.04584,-0.95974 3.93661,-1.66536 4.20172,-1.56805 0.2651,0.0973 -11.0555,17.66459 -25.1569,39.0384 l -25.6389,38.86148 -3.094121,0.11221 c -2.554618,0.0927 -4.195204,-0.25845 -9.409103,-2.01364 z"
           id="path5006"
           inkscape:connector-curvature="0"
           transform="translate(0,796.36216)" />
        <path
           style="fill:#f4b400;fill-opacity:1;stroke:none;stroke-width:4.85768509;stroke-linejoin:round;stroke-miterlimit:4;stroke-dasharray:none;stroke-opacity:1"
           d="m 112.35984,1051.5167 c -10.0014,-1.4495 -12.15632,-1.8201 -12.531784,-2.1556 -0.248854,-0.2223 1.738304,-3.7475 4.550294,-8.0722 7.16635,-11.0213 49.77231,-74.64801 50.25856,-75.05489 3.57509,-2.99158 8.63523,-8.0414 10.57512,-10.55356 3.36154,-4.35318 7.55784,-12.9141 9.06523,-18.494 6.19314,-22.92535 -2.59253,-47.15185 -21.69967,-59.83688 l -2.96081,-1.96565 17.02469,0.29584 c 9.36358,0.1627 31.17032,0.43384 48.45941,0.60252 l 31.43471,0.30668 1.54584,4.18869 c 2.24597,6.08579 4.67816,15.0947 5.93451,21.9816 1.52517,8.36049 1.92536,28.85896 0.73851,37.82758 -3.0805,23.27845 -12.81326,45.72018 -27.80202,64.10577 -20.47622,25.1166 -51.4599,42.1974 -84.14612,46.3885 -5.31244,0.6812 -26.64601,0.9864 -30.44647,0.4356 z"
           id="path5008"
           inkscape:connector-curvature="0" />
        <path
           style="fill:#db4437;fill-opacity:1;stroke:none;stroke-width:10;stroke-linejoin:round;stroke-miterlimit:4;stroke-dasharray:none;stroke-opacity:1"
           d="M 67.989788,108.87302 C 41.284246,59.575543 33.290284,45.149038 32.233625,44.344765 31.651257,43.901497 32.811213,42.549931 38.695603,36.815353 53.43581,22.450419 68.809334,13.040746 87.839196,6.7360352 101.68742,2.1480329 112.58238,0.43719165 127.95142,0.43719165 c 21.3099,0 37.80488,3.80960275 56.83492,13.12633035 25.29351,12.383198 46.19421,33.578863 58.51993,59.345832 1.61138,3.368591 2.92978,6.372442 2.92978,6.675231 0,0.560033 -10.54865,0.49527 -71.16508,-0.436914 l -24.28843,-0.373518 -3.93063,-1.764495 c -6.75732,-3.033425 -10.64587,-3.839529 -18.6576,-3.867747 -5.0296,-0.01773 -7.97946,0.207636 -10.31642,0.788106 -14.50826,3.603659 -26.283291,12.94777 -33.291614,26.418653 -3.58502,6.89086 -5.24713,13.08166 -6.331628,23.58317 l -0.33738,3.26696 -9.92748,-18.32578 z"
           id="path5010"
           inkscape:connector-curvature="0"
           transform="translate(0,796.36216)" />
      </g>
    </clipPath>
    <clipPath
       clipPathUnits="userSpaceOnUse"
       id="clipPath4271">
      <circle
         style="fill:#292929;fill-opacity:0.26020412;stroke:none;stroke-width:10;stroke-linejoin:round;stroke-miterlimit:4;stroke-dasharray:none;stroke-opacity:0.25882353"
         id="circle4273"
         cx="128"
         cy="128.00002"
         r="128" />
    </clipPath>
    <clipPath
       id="clipPath4363"
       clipPathUnits="userSpaceOnUse">
      <circle
         style="fill:#4285f4;fill-opacity:1;stroke:none;stroke-width:10;stroke-linejoin:round;stroke-miterlimit:4;stroke-dasharray:none;stroke-opacity:0.25882353"
         id="circle4365"
         cx="128"
         cy="924.36218"
         r="128" />
    </clipPath>
    <clipPath
       clipPathUnits="userSpaceOnUse"
       id="clipPath4452">
      <circle
         style="fill:#4285f4;fill-opacity:1;stroke:none;stroke-width:10;stroke-linejoin:round;stroke-miterlimit:4;stroke-dasharray:none;stroke-opacity:0.25882353"
         id="circle4454"
         cx="128"
         cy="924.36218"
         r="128" />
    </clipPath>
    <clipPath
       id="clipPath5177"
       clipPathUnits="userSpaceOnUse">
      <circle
         style="fill:#4285f4;fill-opacity:1;stroke:none;stroke-width:10;stroke-linejoin:round;stroke-miterlimit:4;stroke-dasharray:none;stroke-opacity:0.25882353"
         id="circle5179"
         cx="128"
         cy="924.36218"
         r="128" />
    </clipPath>
    <clipPath
       clipPathUnits="userSpaceOnUse"
       id="clipPath4342">
      <circle
         style="fill:#4285f4;fill-opacity:1;stroke:none;stroke-width:10;stroke-linejoin:round;stroke-miterlimit:4;stroke-dasharray:none;stroke-opacity:0.25882353"
         id="circle4344"
         cx="128"
         cy="933.48718"
         r="128" />
    </clipPath>
    <clipPath
       id="clipPath4681"
       clipPathUnits="userSpaceOnUse">
      <circle
         style="fill:#9d5fad;fill-opacity:1;stroke:none;stroke-width:10;stroke-linejoin:round;stroke-miterlimit:4;stroke-dasharray:none;stroke-opacity:0.25882353"
         id="circle4683"
         cx="127.00293"
         cy="930.43964"
         r="128" />
    </clipPath>
    <clipPath
       clipPathUnits="userSpaceOnUse"
       id="clipPath4235">
      <circle
         style="fill:#0f9d58;fill-opacity:1;stroke:none;stroke-width:10;stroke-linejoin:round;stroke-miterlimit:4;stroke-dasharray:none;stroke-opacity:0.25882353"
         id="circle4237"
         cx="128"
         cy="924.36218"
         r="128" />
    </clipPath>
    <clipPath
       id="clipPath4771"
       clipPathUnits="userSpaceOnUse">
      <circle
         style="fill:#0f9d58;fill-opacity:1;stroke:none;stroke-width:10;stroke-linejoin:round;stroke-miterlimit:4;stroke-dasharray:none;stroke-opacity:0.25882353"
         id="circle4773"
         cx="128"
         cy="924.36218"
         r="128" />
    </clipPath>
    <clipPath
       clipPathUnits="userSpaceOnUse"
       id="clipPath4842">
      <circle
         style="fill:#0f9d58;fill-opacity:1;stroke:none;stroke-width:10;stroke-linejoin:round;stroke-miterlimit:4;stroke-dasharray:none;stroke-opacity:0.25882353"
         id="circle4844"
         cx="128"
         cy="924.36218"
         r="128" />
    </clipPath>
    <clipPath
       id="clipPath4458"
       clipPathUnits="userSpaceOnUse">
      <circle
         style="fill:#ff3b38;fill-opacity:1;stroke:none;stroke-width:10;stroke-linejoin:round;stroke-miterlimit:4;stroke-dasharray:none;stroke-opacity:0.25882353"
         id="circle4460"
         cx="128"
         cy="924.36218"
         r="128" />
    </clipPath>
    <clipPath
       clipPathUnits="userSpaceOnUse"
       id="clipPath4783">
      <circle
         style="fill:#ff3b38;fill-opacity:1;stroke:none;stroke-width:10;stroke-linejoin:round;stroke-miterlimit:4;stroke-dasharray:none;stroke-opacity:0.25882353"
         id="circle4785"
         cx="128"
         cy="924.36218"
         r="128" />
    </clipPath>
    <clipPath
       id="clipPath4789"
       clipPathUnits="userSpaceOnUse">
      <circle
         style="fill:#80b4ff;fill-opacity:1;stroke:none;stroke-width:10;stroke-linejoin:round;stroke-miterlimit:4;stroke-dasharray:none;stroke-opacity:0.25882353"
         id="circle4791"
         cx="102.64714"
         cy="924.36218"
         r="128" />
    </clipPath>
    <clipPath
       clipPathUnits="userSpaceOnUse"
       id="clipPath4721">
      <circle
         style="fill:#557ae6;fill-opacity:1;stroke:none;stroke-width:10;stroke-linejoin:round;stroke-miterlimit:4;stroke-dasharray:none;stroke-opacity:0.25882353"
         id="circle4723"
         cx="128"
         cy="924.36218"
         r="128" />
    </clipPath>
    <clipPath
       id="clipPath4491"
       clipPathUnits="userSpaceOnUse">
      <circle
         style="fill:#990000;fill-opacity:1;stroke:none;stroke-width:10;stroke-linejoin:round;stroke-miterlimit:4;stroke-dasharray:none;stroke-opacity:0.25882353"
         id="circle4493"
         cx="128"
         cy="924.36218"
         r="128" />
    </clipPath>
    <clipPath
       clipPathUnits="userSpaceOnUse"
       id="clipPath5042">
      <circle
         style="fill:#bebebe;fill-opacity:1;stroke:none;stroke-width:10;stroke-linejoin:round;stroke-miterlimit:4;stroke-dasharray:none;stroke-opacity:0.25882353"
         id="circle5044"
         cx="128"
         cy="924.36218"
         r="128" />
    </clipPath>
  </defs>
  <metadata
     id="metadata7">
    <rdf:RDF>
      <cc:Work
         rdf:about="">
        <dc:format>image/svg+xml</dc:format>
        <dc:type
           rdf:resource="http://purl.org/dc/dcmitype/StillImage" />
        <dc:title />
      </cc:Work>
    </rdf:RDF>
  </metadata>
  <g
     inkscape:label="Layer 1"
     inkscape:groupmode="layer"
     id="layer1"
     transform="translate(0,-796.36216)">
    <circle
       r="128"
       cy="924.36218"
       cx="128"
       id="path4152"
       style="fill:#dddddd;fill-opacity:1;stroke:none;stroke-width:10;stroke-linejoin:round;stroke-miterlimit:4;stroke-dasharray:none;stroke-opacity:0.25882353" />
    <text
       xml:space="preserve"
       style="font-style:normal;font-weight:normal;font-size:40px;line-height:125%;font-family:sans-serif;letter-spacing:0px;word-spacing:0px;fill:#000000;fill-opacity:1;stroke:none;stroke-width:1px;stroke-linecap:butt;stroke-linejoin:miter;stroke-opacity:1"
       x="120"
       y="927.36218"
       id="text4914"><tspan
         sodipodi:role="line"
         id="tspan4916"
         x="120"
         y="927.36218" /></text>
    <g
       id="g4241"
       transform="translate(-4.11162,138)"
       style="stroke:none">
      <g
         id="g4446"
         style="stroke:none">
        <g
           style="fill:none;fill-rule:evenodd;stroke:none;stroke-width:10;stroke-linecap:round;stroke-linejoin:miter;stroke-miterlimit:4;stroke-dasharray:none;stroke-opacity:1"
           id="g4448">
          <path
             inkscape:connector-curvature="0"
             d="m 129.98857,850.41168 c 0,15 0,15 0,15 L -82.143464,1077.5437 c 0,0 0,0 0,-15 z"
             id="path4450"
             style="stroke:none" />
        </g>
        <path
           style="fill:none;fill-rule:evenodd;stroke:none;stroke-width:10;stroke-linecap:round;stroke-linejoin:miter;stroke-miterlimit:4;stroke-dasharray:none;stroke-opacity:1"
           d="m 129.98857,850.41168 c 0,15 0,15 0,15"
           id="path4247"
           inkscape:connector-curvature="0" />
      </g>
      <g
         id="g4453"
         style="stroke:none">
        <g
           style="fill:none;fill-rule:evenodd;stroke:none;stroke-width:10;stroke-linecap:round;stroke-linejoin:miter;stroke-miterlimit:4;stroke-dasharray:none;stroke-opacity:1"
           id="g4455">
          <path
             inkscape:connector-curvature="0"
             d="m 111.58095,850.41168 c 0,15 0,15 0,15 l -212.13203,212.13202 c 0,0 0,0 0,-15 z"
             id="path4457"
             style="stroke:none" />
        </g>
        <path
           inkscape:connector-curvature="0"
           id="path4245"
           d="m 111.58095,850.41168 c 0,15 0,15 0,15"
           style="fill:none;fill-rule:evenodd;stroke:none;stroke-width:10;stroke-linecap:round;stroke-linejoin:miter;stroke-miterlimit:4;stroke-dasharray:none;stroke-opacity:1" />
      </g>
      <g
         id="g4460"
         style="stroke:none">
        <g
           style="fill:none;fill-rule:evenodd;stroke:none;stroke-width:10;stroke-linecap:round;stroke-linejoin:miter;stroke-miterlimit:4;stroke-dasharray:none;stroke-opacity:1"
           id="g4462">
          <path
             inkscape:connector-curvature="0"
             d="m 93.173333,850.41168 c 0,15 0,15 0,15 L -118.9587,1077.5437 c 0,0 0,0 0,-15 z"
             id="path4464"
             style="stroke:none" />
        </g>
        <path
           style="fill:none;fill-rule:evenodd;stroke:none;stroke-width:10;stroke-linecap:round;stroke-linejoin:miter;stroke-miterlimit:4;stroke-dasharray:none;stroke-opacity:1"
           d="m 93.173333,850.41168 c 0,15 0,15 0,15"
           id="path4243"
           inkscape:connector-curvature="0" />
      </g>
      <g
         id="g4467"
         style="stroke:none">
        <g
           style="fill:none;fill-rule:evenodd;stroke:none;stroke-width:10;stroke-linecap:round;stroke-linejoin:miter;stroke-miterlimit:4;stroke-dasharray:none;stroke-opacity:1"
           id="g4469">
          <path
             inkscape:connector-curvature="0"
             d="m 166.80381,850.41168 c 0,15 0,15 0,15 L -45.328224,1077.5437 c 0,0 0,0 0,-15 z"
             id="path4471"
             style="stroke:none" />
        </g>
        <path
           style="fill:none;fill-rule:evenodd;stroke:none;stroke-width:10;stroke-linecap:round;stroke-linejoin:miter;stroke-miterlimit:4;stroke-dasharray:none;stroke-opacity:1"
           d="m 166.80381,850.41168 c 0,15 0,15 0,15"
           id="path4251"
           inkscape:connector-curvature="0" />
      </g>
      <g
         id="g4474"
         style="stroke:none">
        <g
           style="fill:none;fill-rule:evenodd;stroke:none;stroke-width:10;stroke-linecap:round;stroke-linejoin:miter;stroke-miterlimit:4;stroke-dasharray:none;stroke-opacity:1"
           id="g4476">
          <path
             inkscape:connector-curvature="0"
             d="m 148.39619,850.41168 c 0,15 0,15 0,15 L -63.735844,1077.5437 c 0,0 0,0 0,-15 z"
             id="path4478"
             style="stroke:none" />
        </g>
        <path
           inkscape:connector-curvature="0"
           id="path4249"
           d="m 148.39619,850.41168 c 0,15 0,15 0,15"
           style="fill:none;fill-rule:evenodd;stroke:none;stroke-width:10;stroke-linecap:round;stroke-linejoin:miter;stroke-miterlimit:4;stroke-dasharray:none;stroke-opacity:1" />
      </g>
    </g>
    <text
       xml:space="preserve"
       style="font-style:normal;font-weight:normal;font-size:40px;line-height:125%;font-family:sans-serif;letter-spacing:0px;word-spacing:0px;fill:#000000;fill-opacity:1;stroke:none;stroke-width:1px;stroke-linecap:butt;stroke-linejoin:miter;stroke-opacity:1"
       x="120"
       y="997.36218"
       id="text4291"><tspan
         sodipodi:role="line"
         id="tspan4293"
         x="120"
         y="997.36218" /></text>
    <g
       id="g4638"
       clip-path="url(#clipPath5042)"
       style="fill:#9d9d9d;fill-opacity:1">
      <g
         transform="translate(73.0356,-124.00034)"
         id="g4636"
         style="fill:#9d9d9d;fill-opacity:1">
        <g
           id="g4878"
           transform="translate(-73.0356,920.3625)"
           style="fill:#9d9d9d;fill-opacity:1">
          <g
             id="g4875"
             style="color:#000000;fill:#9d9d9d;stroke:none;stroke-width:0.56306297;stroke-linecap:butt;stroke-linejoin:miter;shape-rendering:crispEdges;fill-opacity:1">
            <path
               id="path4709"
               d="M141.34375 41.0L138.36133 45.503906L-3.06002623731 186.925262237L-0.0776062373095 182.421356237Z"
               style="fill:#9d9d9d;fill-opacity:1" />
            <path
               id="path4711"
               d="M138.36133 45.503906L135.43164 58.568359L-5.98971623731 199.989715237L-3.06002623731 186.925262237Z"
               style="fill:#9d9d9d;fill-opacity:1" />
            <path
               id="path4713"
               d="M135.43164 58.568359L132.44727 77.880859L-8.97408623731 219.302215237L-5.98971623731 199.989715237Z"
               style="fill:#9d9d9d;fill-opacity:1" />
            <path
               id="path4715"
               d="M132.44727 77.880859L129.51953 100.4043L-11.9018262373 241.825656237L-8.97408623731 219.302215237Z"
               style="fill:#9d9d9d;fill-opacity:1" />
            <path
               id="path4717"
               d="M129.51953 100.4043L126.53516 122.86914L-14.8861962373 264.290496237L-11.9018262373 241.825656237Z"
               style="fill:#9d9d9d;fill-opacity:1" />
            <path
               id="path4719"
               d="M126.53516 122.86914L125.13867 132.28125L-16.2826862373 273.702606237L-14.8861962373 264.290496237Z"
               style="fill:#9d9d9d;fill-opacity:1" />
            <path
               id="path4721"
               d="M125.13867 132.28125L123.55273 131.65234L-17.8686262373 273.073696237L-16.2826862373 273.702606237Z"
               style="fill:#9d9d9d;fill-opacity:1" />
            <path
               id="path4723"
               d="M123.55273 131.65234L120.62305 131.08984L-20.7983062373 272.511196237L-17.8686262373 273.073696237Z"
               style="fill:#9d9d9d;fill-opacity:1" />
            <path
               id="path4725"
               d="M120.62305 131.08984L117.63867 131.08984L-23.7826862373 272.511196237L-20.7983062373 272.511196237Z"
               style="fill:#9d9d9d;fill-opacity:1" />
            <path
               id="path4727"
               d="M117.63867 131.08984L114.65625 131.76562L-26.7651062373 273.186976237L-23.7826862373 272.511196237Z"
               style="fill:#9d9d9d;fill-opacity:1" />
            <path
               id="path4729"
               d="M114.65625 131.76562L111.72656 132.94727L-29.6947962373 274.368626237L-26.7651062373 273.186976237Z"
               style="fill:#9d9d9d;fill-opacity:1" />
            <path
               id="path4731"
               d="M111.72656 132.94727L108.74414 134.75L-32.6772162373 276.171356237L-29.6947962373 274.368626237Z"
               style="fill:#9d9d9d;fill-opacity:1" />
            <path
               id="path4733"
               d="M108.74414 134.75L105.75977 137.00195L-35.6615862373 278.423306237L-32.6772162373 276.171356237Z"
               style="fill:#9d9d9d;fill-opacity:1" />
            <path
               id="path4735"
               d="M105.75977 137.00195L102.83203 139.76172L-38.5893262373 281.183076237L-35.6615862373 278.423306237Z"
               style="fill:#9d9d9d;fill-opacity:1" />
            <path
               id="path4737"
               d="M102.83203 139.76172L99.847656 142.80078L-41.5737002373 284.222136237L-38.5893262373 281.183076237Z"
               style="fill:#9d9d9d;fill-opacity:1" />
            <path
               id="path4739"
               d="M99.847656 142.80078L96.917969 146.12305L-44.5033872373 287.544406237L-41.5737002373 284.222136237Z"
               style="fill:#9d9d9d;fill-opacity:1" />
            <path
               id="path4741"
               d="M96.917969 146.12305L93.935547 149.67188L-47.4858092373 291.093236237L-44.5033872373 287.544406237Z"
               style="fill:#9d9d9d;fill-opacity:1" />
            <path
               id="path4743"
               d="M93.935547 149.67188L90.951172 153.33008L-50.4701842373 294.751436237L-47.4858092373 291.093236237Z"
               style="fill:#9d9d9d;fill-opacity:1" />
            <path
               id="path4745"
               d="M90.951172 153.33008L88.023438 156.99023L-53.3979182373 298.411586237L-50.4701842373 294.751436237Z"
               style="fill:#9d9d9d;fill-opacity:1" />
            <path
               id="path4747"
               d="M88.023438 156.99023L85.039062 160.65039L-56.3822942373 302.071746237L-53.3979182373 298.411586237Z"
               style="fill:#9d9d9d;fill-opacity:1" />
            <path
               id="path4749"
               d="M85.039062 160.65039L82.054688 164.14062L-59.3666682373 305.561976237L-56.3822942373 302.071746237Z"
               style="fill:#9d9d9d;fill-opacity:1" />
            <path
               id="path4751"
               d="M82.054688 164.14062L79.126953 167.46289L-62.2944032373 308.884246237L-59.3666682373 305.561976237Z"
               style="fill:#9d9d9d;fill-opacity:1" />
            <path
               id="path4753"
               d="M79.126953 167.46289L76.142578 170.61719L-65.2787782373 312.038546237L-62.2944032373 308.884246237Z"
               style="fill:#9d9d9d;fill-opacity:1" />
            <path
               id="path4755"
               d="M76.142578 170.61719L73.158203 173.54492L-68.2631532373 314.966276237L-65.2787782373 312.038546237Z"
               style="fill:#9d9d9d;fill-opacity:1" />
            <path
               id="path4757"
               d="M73.158203 173.54492L70.230469 176.19141L-71.1908872373 317.612766237L-68.2631532373 314.966276237Z"
               style="fill:#9d9d9d;fill-opacity:1" />
            <path
               id="path4759"
               d="M70.230469 176.19141L67.246094 178.55664L-74.1752622373 319.977996237L-71.1908872373 317.612766237Z"
               style="fill:#9d9d9d;fill-opacity:1" />
            <path
               id="path4761"
               d="M67.246094 178.55664L64.318359 180.63867L-77.1029972373 322.060026237L-74.1752622373 319.977996237Z"
               style="fill:#9d9d9d;fill-opacity:1" />
            <path
               id="path4763"
               d="M64.318359 180.63867L61.333984 182.44141L-80.0873722373 323.862766237L-77.1029972373 322.060026237Z"
               style="fill:#9d9d9d;fill-opacity:1" />
            <path
               id="path4765"
               d="M61.333984 182.44141L58.349609 184.01758L-83.0717472373 325.438936237L-80.0873722373 323.862766237Z"
               style="fill:#9d9d9d;fill-opacity:1" />
            <path
               id="path4767"
               d="M58.349609 184.01758L55.421875 185.36914L-85.9994812373 326.790496237L-83.0717472373 325.438936237Z"
               style="fill:#9d9d9d;fill-opacity:1" />
            <path
               id="path4769"
               d="M55.421875 185.36914L52.4375 186.49609L-88.9838562373 327.917446237L-85.9994812373 326.790496237Z"
               style="fill:#9d9d9d;fill-opacity:1" />
            <path
               id="path4771"
               d="M52.4375 186.49609L49.453125 187.45312L-91.9682312373 328.874476237L-88.9838562373 327.917446237Z"
               style="fill:#9d9d9d;fill-opacity:1" />
            <path
               id="path4773"
               d="M49.453125 187.45312L46.525391 188.24023L-94.8959652373 329.661586237L-91.9682312373 328.874476237Z"
               style="fill:#9d9d9d;fill-opacity:1" />
            <path
               id="path4775"
               d="M46.525391 188.24023L43.541016 188.85938L-97.8803402373 330.280736237L-94.8959652373 329.661586237Z"
               style="fill:#9d9d9d;fill-opacity:1" />
            <path
               id="path4777"
               d="M43.541016 188.85938L40.556641 189.36719L-100.864715237 330.788546237L-97.8803402373 330.280736237Z"
               style="fill:#9d9d9d;fill-opacity:1" />
            <path
               id="path4779"
               d="M40.556641 189.36719L37.628906 189.76172L-103.792450237 331.183076237L-100.864715237 330.788546237Z"
               style="fill:#9d9d9d;fill-opacity:1" />
            <path
               id="path4781"
               d="M37.628906 189.76172L34.644531 190.04297L-106.776825237 331.464326237L-103.792450237 331.183076237Z"
               style="fill:#9d9d9d;fill-opacity:1" />
            <path
               id="path4783"
               d="M34.644531 190.04297L31.716797 190.32422L-109.704559237 331.745576237L-106.776825237 331.464326237Z"
               style="fill:#9d9d9d;fill-opacity:1" />
            <path
               id="path4785"
               d="M31.716797 190.32422L28.732422 190.49219L-112.688934237 331.913546237L-109.704559237 331.745576237Z"
               style="fill:#9d9d9d;fill-opacity:1" />
            <path
               id="path4787"
               d="M28.732422 190.49219L25.748047 190.60547L-115.673309237 332.026826237L-112.688934237 331.913546237Z"
               style="fill:#9d9d9d;fill-opacity:1" />
            <path
               id="path4789"
               d="M25.748047 190.60547L22.820312 190.71875L-118.601044237 332.140106237L-115.673309237 332.026826237Z"
               style="fill:#9d9d9d;fill-opacity:1" />
            <path
               id="path4791"
               d="M22.820312 190.71875L19.835938 190.83008L-121.585418237 332.251436237L-118.601044237 332.140106237Z"
               style="fill:#9d9d9d;fill-opacity:1" />
            <path
               id="path4793"
               d="M19.835938 190.83008C21.060025 190.78389 57.629355 190.78917 98.257812 190.81055L-43.1635442373 332.231906237C-83.7920012373 332.210526237 -120.361331237 332.205246237 -121.585418237 332.251436237Z"
               style="fill:#9d9d9d;fill-opacity:1" />
            <path
               id="path4795"
               d="M98.257812 190.81055L96.917969 190.88867L-44.5033872373 332.310026237L-43.1635442373 332.231906237Z"
               style="fill:#9d9d9d;fill-opacity:1" />
            <path
               id="path4797"
               d="M96.917969 190.88867L93.935547 190.94336L-47.4858092373 332.364716237L-44.5033872373 332.310026237Z"
               style="fill:#9d9d9d;fill-opacity:1" />
            <path
               id="path4799"
               d="M93.935547 190.94336L90.951172 191.0L-50.4701842373 332.421356237L-47.4858092373 332.364716237Z"
               style="fill:#9d9d9d;fill-opacity:1" />
            <path
               id="path4801"
               d="M90.951172 191.0L102.83203 191.0L-38.5893262373 332.421356237L-50.4701842373 332.421356237Z"
               style="fill:#9d9d9d;fill-opacity:1" />
            <path
               id="path4803"
               d="M102.83203 191.0L191.73828 191.0L50.3169237627 332.421356237L-38.5893262373 332.421356237Z"
               style="fill:#9d9d9d;fill-opacity:1" />
            <path
               id="path4805"
               d="M191.73828 191.0L224.33984 191.0L82.9184837627 332.421356237L50.3169237627 332.421356237Z"
               style="fill:#9d9d9d;fill-opacity:1" />
            <path
               id="path4807"
               d="M224.33984 191.0L221.35547 190.94336L79.9341137627 332.364716237L82.9184837627 332.421356237Z"
               style="fill:#9d9d9d;fill-opacity:1" />
            <path
               id="path4809"
               d="M221.35547 190.94336L220.85352 190.93359L79.4321637627 332.354946237L79.9341137627 332.364716237Z"
               style="fill:#9d9d9d;fill-opacity:1" />
            <path
               id="path4811"
               d="M220.85352 190.93359C221.32071 190.93555 227.23115 190.93966 227.32422 190.94141L85.9028637627 332.362766237C85.8097937627 332.361016237 79.8993537627 332.356906237 79.4321637627 332.354946237Z"
               style="fill:#9d9d9d;fill-opacity:1" />
            <path
               id="path4813"
               d="M227.32422 190.94141L224.33984 190.88672L82.9184837627 332.308076237L85.9028637627 332.362766237Z"
               style="fill:#9d9d9d;fill-opacity:1" />
            <path
               id="path4815"
               d="M224.33984 190.88672L221.35547 190.83008L79.9341137627 332.251436237L82.9184837627 332.308076237Z"
               style="fill:#9d9d9d;fill-opacity:1" />
            <path
               id="path4817"
               d="M221.35547 190.83008L218.42773 190.77344L77.0063737627 332.194796237L79.9341137627 332.251436237Z"
               style="fill:#9d9d9d;fill-opacity:1" />
            <path
               id="path4819"
               d="M218.42773 190.77344L215.44336 190.71875L74.0220037627 332.140106237L77.0063737627 332.194796237Z"
               style="fill:#9d9d9d;fill-opacity:1" />
            <path
               id="path4821"
               d="M215.44336 190.71875L213.95117 190.66211L72.5298137627 332.083466237L74.0220037627 332.140106237Z"
               style="fill:#9d9d9d;fill-opacity:1" />
            <path
               id="path4823"
               d="M213.95117 190.66211L212.45898 190.54883L71.0376237627 331.970186237L72.5298137627 332.083466237Z"
               style="fill:#9d9d9d;fill-opacity:1" />
            <path
               id="path4825"
               d="M212.45898 190.54883L209.53125 190.15625L68.1098937627 331.577606237L71.0376237627 331.970186237Z"
               style="fill:#9d9d9d;fill-opacity:1" />
            <path
               id="path4827"
               d="M209.53125 190.15625L206.54688 189.42383L65.1255237627 330.845186237L68.1098937627 331.577606237Z"
               style="fill:#9d9d9d;fill-opacity:1" />
            <path
               id="path4829"
               d="M206.54688 189.42383L203.5625 188.24219L62.1411437627 329.663546237L65.1255237627 330.845186237Z"
               style="fill:#9d9d9d;fill-opacity:1" />
            <path
               id="path4831"
               d="M203.5625 188.24219L200.63477 186.32617L59.2134137627 327.747526237L62.1411437627 329.663546237Z"
               style="fill:#9d9d9d;fill-opacity:1" />
            <path
               id="path4833"
               d="M200.63477 186.32617L197.65039 183.28711L56.2290337627 324.708466237L59.2134137627 327.747526237Z"
               style="fill:#9d9d9d;fill-opacity:1" />
            <path
               id="path4835"
               d="M197.65039 183.28711L194.72266 178.89453L53.3013037627 320.315886237L56.2290337627 324.708466237Z"
               style="fill:#9d9d9d;fill-opacity:1" />
            <path
               id="path4837"
               d="M194.72266 178.89453L191.73828 172.70117L50.3169237627 314.122526237L53.3013037627 320.315886237Z"
               style="fill:#9d9d9d;fill-opacity:1" />
            <path
               id="path4839"
               d="M191.73828 172.70117L188.75391 164.48047L47.3325537627 305.901826237L50.3169237627 314.122526237Z"
               style="fill:#9d9d9d;fill-opacity:1" />
            <path
               id="path4841"
               d="M188.75391 164.48047L185.82617 154.0625L44.4048137627 295.483856237L47.3325537627 305.901826237Z"
               style="fill:#9d9d9d;fill-opacity:1" />
            <path
               id="path4843"
               d="M185.82617 154.0625L182.8418 141.67578L41.4204437627 283.097136237L44.4048137627 295.483856237Z"
               style="fill:#9d9d9d;fill-opacity:1" />
            <path
               id="path4845"
               d="M182.8418 141.67578L179.85742 127.71289L38.4360637627 269.134246237L41.4204437627 283.097136237Z"
               style="fill:#9d9d9d;fill-opacity:1" />
            <path
               id="path4847"
               d="M179.85742 127.71289L176.92969 113.07227L35.5083337627 254.493626237L38.4360637627 269.134246237Z"
               style="fill:#9d9d9d;fill-opacity:1" />
            <path
               id="path4849"
               d="M176.92969 113.07227L173.94531 98.882812L32.5239537627 240.304168237L35.5083337627 254.493626237Z"
               style="fill:#9d9d9d;fill-opacity:1" />
            <path
               id="path4851"
               d="M173.94531 98.882812L170.96094 86.496094L29.5395837627 227.917450237L32.5239537627 240.304168237Z"
               style="fill:#9d9d9d;fill-opacity:1" />
            <path
               id="path4853"
               d="M170.96094 86.496094L168.0332 77.148438L26.6118437627 218.569794237L29.5395837627 227.917450237Z"
               style="fill:#9d9d9d;fill-opacity:1" />
            <path
               id="path4855"
               d="M168.0332 77.148438L165.04883 71.912109L23.6274737627 213.333465237L26.6118437627 218.569794237Z"
               style="fill:#9d9d9d;fill-opacity:1" />
            <path
               id="path4857"
               d="M165.04883 71.912109L162.12109 71.40625L20.6997337627 212.827606237L23.6274737627 213.333465237Z"
               style="fill:#9d9d9d;fill-opacity:1" />
            <path
               id="path4859"
               d="M162.12109 71.40625L159.13672 75.742188L17.7153637627 217.163544237L20.6997337627 212.827606237Z"
               style="fill:#9d9d9d;fill-opacity:1" />
            <path
               id="path4861"
               d="M159.13672 75.742188L156.15234 84.298828L14.7309837627 225.720184237L17.7153637627 217.163544237Z"
               style="fill:#9d9d9d;fill-opacity:1" />
            <path
               id="path4863"
               d="M156.15234 84.298828L153.22461 96.236328L11.8032537627 237.657684237L14.7309837627 225.720184237Z"
               style="fill:#9d9d9d;fill-opacity:1" />
            <path
               id="path4865"
               d="M153.22461 96.236328L152.79297 98.259766L11.3716137627 239.681122237L11.8032537627 237.657684237Z"
               style="fill:#9d9d9d;fill-opacity:1" />
            <path
               id="path4867"
               d="M152.79297 98.259766L150.24023 78.951172L8.81887376269 220.372528237L11.3716137627 239.681122237Z"
               style="fill:#9d9d9d;fill-opacity:1" />
            <path
               id="path4869"
               d="M150.24023 78.951172L147.25586 59.412109L5.83450376269 200.833465237L8.81887376269 220.372528237Z"
               style="fill:#9d9d9d;fill-opacity:1" />
            <path
               id="path4871"
               d="M147.25586 59.412109L144.32812 45.955078L2.90676376269 187.376434237L5.83450376269 200.833465237Z"
               style="fill:#9d9d9d;fill-opacity:1" />
            <path
               id="path4873"
               d="M144.32812 45.955078L141.34375 41.0L-0.0776062373095 182.421356237L2.90676376269 187.376434237Z"
               style="fill:#9d9d9d;fill-opacity:1" />
          </g>
          <path
             id="path4630"
             transform=""
             d="M 141.34375 41 L 138.36133 45.503906 L 135.43164 58.568359 L 132.44727 77.880859 L 129.51953 100.4043 L 126.53516 122.86914 L 125.13867 132.28125 L 123.55273 131.65234 L 120.62305 131.08984 L 117.63867 131.08984 L 114.65625 131.76562 L 111.72656 132.94727 L 108.74414 134.75 L 105.75977 137.00195 L 102.83203 139.76172 L 99.847656 142.80078 L 96.917969 146.12305 L 93.935547 149.67188 L 90.951172 153.33008 L 88.023438 156.99023 L 85.039062 160.65039 L 82.054688 164.14062 L 79.126953 167.46289 L 76.142578 170.61719 L 73.158203 173.54492 L 70.230469 176.19141 L 67.246094 178.55664 L 64.318359 180.63867 L 61.333984 182.44141 L 58.349609 184.01758 L 55.421875 185.36914 L 52.4375 186.49609 L 49.453125 187.45312 L 46.525391 188.24023 L 43.541016 188.85938 L 40.556641 189.36719 L 37.628906 189.76172 L 34.644531 190.04297 L 31.716797 190.32422 L 28.732422 190.49219 L 25.748047 190.60547 L 22.820312 190.71875 L 19.835938 190.83008 C 21.060025 190.78389 57.629355 190.78917 98.257812 190.81055 L 96.917969 190.88867 L 93.935547 190.94336 L 90.951172 191 L 102.83203 191 L 191.73828 191 L 224.33984 191 L 221.35547 190.94336 L 220.85352 190.93359 C 221.32071 190.93555 227.23115 190.93966 227.32422 190.94141 L 224.33984 190.88672 L 221.35547 190.83008 L 218.42773 190.77344 L 215.44336 190.71875 L 213.95117 190.66211 L 212.45898 190.54883 L 209.53125 190.15625 L 206.54688 189.42383 L 203.5625 188.24219 L 200.63477 186.32617 L 197.65039 183.28711 L 194.72266 178.89453 L 191.73828 172.70117 L 188.75391 164.48047 L 185.82617 154.0625 L 182.8418 141.67578 L 179.85742 127.71289 L 176.92969 113.07227 L 173.94531 98.882812 L 170.96094 86.496094 L 168.0332 77.148438 L 165.04883 71.912109 L 162.12109 71.40625 L 159.13672 75.742188 L 156.15234 84.298828 L 153.22461 96.236328 L 152.79297 98.259766 L 150.24023 78.951172 L 147.25586 59.412109 L 144.32812 45.955078 L 141.34375 41 z "
             style="color:#000000;fill:#9d9d9d;stroke:none;stroke-width:0.56306297;stroke-linecap:butt;stroke-linejoin:miter;shape-rendering:crispEdges;fill-opacity:1" />
        </g>
      </g>
    </g>
    <path
       sodipodi:nodetypes="cccccccccccccccsssssssccccccccccccccccccccccccc"
       inkscape:connector-curvature="0"
       id="polygon196"
       d="m 88.022527,987.36186 h 2.927927 l 2.984234,-0.056 2.984234,-0.056 2.927927,-0.1689 2.984231,-0.3942 2.92793,-0.9009 2.98423,-1.6329 2.98424,-3.0968 2.92793,-5.1802 2.98423,-8.277 2.98423,-12.0496 2.92793,-16.2162 2.98423,-20.1013 2.98424,-22.4663 c 0,0 1.86182,-15.02725 2.92793,-22.52247 0.91732,-6.44918 1.77382,-12.91242 2.98423,-19.31307 0.82917,-4.38468 1.17868,-8.95781 2.92793,-13.06306 0.70603,-1.65696 1.18353,-4.54324 2.98423,-4.5045 1.92763,0.0415 2.27237,3.1631 2.98424,4.95495 1.69494,4.26633 2.09296,8.9431 2.92792,13.45721 1.19829,6.4784 2.05519,13.01582 2.98424,19.53828 1.07055,7.51588 2.98423,22.57886 2.98423,22.57886 l 2.92793,22.4099 2.98423,19.9324 2.98424,16.0473 2.92792,11.8243 2.98424,8.1082 2.92792,5.0675 2.98424,2.9843 2.98423,1.6328 2.92793,0.7883 2.98423,0.3942 2.98424,0.1689 2.92792,0.056 2.98424,0.056 h 2.98423 2.92793 2.98423 2.92793 2.98423 2.98424 2.92792 2.98424 2.98423 2.92793 z"
       style="color:#000000;fill:#228b22;stroke:none;stroke-width:0.56306297;stroke-linecap:butt;stroke-linejoin:miter;shape-rendering:crispEdges" />
    <path
       sodipodi:nodetypes="cccccccccccccccccccccccccccccccccccccccccccccccccccccccc"
       inkscape:connector-curvature="0"
       id="polygon213"
       d="m 76.141898,987.36186 h 2.984234 2.927927 2.984234 2.984234 2.927927 2.984234 2.984234 2.927927 2.984231 l 2.92793,-0.056 2.98423,-0.056 2.98424,-0.1126 2.92793,-0.2816 2.98423,-0.4504 2.98423,-0.7883 2.92793,-1.3513 2.98423,-2.0834 2.98424,-3.2657 2.92793,-4.7298 2.98423,-6.5878 2.92793,-8.6712 2.98423,-10.8108 2.98424,-12.7815 2.92792,-14.1329 2.98424,-14.6397 2.98423,-13.9639 2.92793,-11.937 2.98423,-8.55851 2.98424,-4.33559 2.92792,0.50676 2.98424,5.23648 2.92792,9.34686 2.98424,12.3874 2.98423,14.1892 2.92793,14.6396 2.98423,13.964 2.98424,12.3874 2.92792,10.4166 2.98424,8.2208 2.98423,6.1936 2.92793,4.3919 2.98423,3.0406 2.92793,1.9144 2.98423,1.1824 2.98424,0.732 2.92792,0.3941 2.98424,0.2253 2.98423,0.1126 2.92793,0.056 2.98423,0.056 h 2.98424 2.92793 2.98423 2.92793 c -11.82433,0 -160.022502,0 -160.022502,0 z"
       style="color:#000000;fill:#ffda12;stroke:none;stroke-width:0.56306297;stroke-linecap:butt;stroke-linejoin:miter;shape-rendering:crispEdges;fill-opacity:1" />
    <path
       sodipodi:nodetypes="cccccccccccccccccccccccccccccccccccccccccccccccccccccccccccccccccccccccc"
       inkscape:connector-curvature="0"
       id="polygon230"
       d="m 19.8356,987.19296 2.984234,-0.1126 2.927927,-0.1126 2.984234,-0.1127 2.984234,-0.1689 2.927927,-0.2815 2.984234,-0.2815 2.927928,-0.3942 2.984233,-0.5067 2.984234,-0.6194 2.927928,-0.7883 2.984233,-0.9572 2.984234,-1.1261 2.927928,-1.3514 2.984234,-1.5766 2.984233,-1.8018 2.927928,-2.0833 2.984234,-2.3649 2.927927,-2.6464 2.984234,-2.9279 2.984234,-3.1531 2.927927,-3.3221 2.984234,-3.491 2.984234,-3.6599 2.927927,-3.6599 2.984234,-3.6599 2.984234,-3.5473 2.927927,-3.3221 2.984231,-3.0405 2.92793,-2.759 2.98423,-2.2523 2.98424,-1.8018 2.92793,-1.1824 2.98423,-0.6757 h 2.98423 l 2.92793,0.5631 2.98423,1.1824 2.98424,1.6892 2.92793,2.2522 2.98423,2.6464 2.92793,3.0406 2.98423,3.322 2.98424,3.5473 2.92792,3.6036 2.98424,3.7163 2.98423,3.6036 2.92793,3.5473 2.98423,3.3783 2.98424,3.1532 2.92792,2.9279 2.98424,2.6464 2.92792,2.4212 2.98424,2.0833 2.98423,1.8581 2.92793,1.6329 2.98423,1.3514 2.98424,1.1824 2.92792,0.9572 2.98424,0.7883 2.98423,0.6194 2.92793,0.5067 2.98423,0.3942 2.92793,0.3378 2.98423,0.2252 2.98424,0.2252 2.92792,0.1127 2.98424,0.1126 2.98423,0.056 2.92793,0.056 2.98423,0.056 2.98424,0.056 c -2.98424,-0.056 -204.504476,-0.2252 -207.48871,-0.1126 z"
       style="color:#000000;fill:#9400d3;stroke:none;stroke-width:0.56306297;stroke-linecap:butt;stroke-linejoin:miter;shape-rendering:crispEdges" />
  </g>
</svg>
