<?xml version="1.0" encoding="UTF-8" standalone="no"?>
<!-- Created with Inkscape (http://www.inkscape.org/) -->

<svg
   xmlns:dc="http://purl.org/dc/elements/1.1/"
   xmlns:cc="http://creativecommons.org/ns#"
   xmlns:rdf="http://www.w3.org/1999/02/22-rdf-syntax-ns#"
   xmlns:svg="http://www.w3.org/2000/svg"
   xmlns="http://www.w3.org/2000/svg"
   xmlns:sodipodi="http://sodipodi.sourceforge.net/DTD/sodipodi-0.dtd"
   xmlns:inkscape="http://www.inkscape.org/namespaces/inkscape"
   width="256"
   height="256"
   viewBox="0 0 256 256"
   id="svg2"
   version="1.1"
   inkscape:version="0.92.0 r"
   sodipodi:docname="goa-account-microsoft.svg">
  <sodipodi:namedview
     id="base"
     pagecolor="#ffffff"
     bordercolor="#666666"
     borderopacity="1.0"
     inkscape:pageopacity="0.0"
     inkscape:pageshadow="2"
     inkscape:zoom="2.0507812"
     inkscape:cx="42.179046"
     inkscape:cy="128"
     inkscape:document-units="px"
     inkscape:current-layer="layer1"
     showgrid="false"
     units="px"
     inkscape:window-width="1920"
     inkscape:window-height="1054"
     inkscape:window-x="0"
     inkscape:window-y="0"
     inkscape:window-maximized="1" />
  <defs
     id="defs4">
    <clipPath
       clipPathUnits="userSpaceOnUse"
       id="clipPath5002">
      <g
         id="g5004">
        <path
           transform="translate(0,796.36216)"
           inkscape:connector-curvature="0"
           id="path5006"
           d="M 88.118406,249.43519 C 46.103287,235.29134 14.771284,201.68742 4.1335861,159.36053 1.3377997,148.23623 0.92261224,144.16281 0.92582381,127.88908 0.92787958,117.47222 1.134384,112.01362 1.6577819,108.54099 4.4653598,89.913336 12.17654,70.638106 23.042737,55.086148 c 3.958678,-5.665755 8.344812,-10.93092 9.101533,-10.925587 0.32809,0.0023 10.488643,18.309713 22.579009,40.683112 12.090365,22.373397 22.374546,41.334697 22.853732,42.136217 0.479186,0.80151 0.924733,2.44098 0.990103,3.64326 0.343424,6.31639 2.524175,14.20976 5.6424,20.42304 2.954444,5.88693 5.065381,8.73258 10.434696,14.06652 6.71418,6.66995 12.88853,10.28643 21.73204,12.72904 3.16587,0.87442 5.10478,1.05037 11.57517,1.05037 8.82596,0 12.60219,-0.76201 19.26429,-3.88733 2.04584,-0.95974 3.93661,-1.66536 4.20172,-1.56805 0.2651,0.0973 -11.0555,17.66459 -25.1569,39.0384 l -25.6389,38.86148 -3.094121,0.11221 c -2.554618,0.0927 -4.195204,-0.25845 -9.409103,-2.01364 z"
           style="fill:#0f9d58;fill-opacity:1;stroke:none;stroke-width:4.85768509;stroke-linejoin:round;stroke-miterlimit:4;stroke-dasharray:none;stroke-opacity:1" />
        <path
           inkscape:connector-curvature="0"
           id="path5008"
           d="m 112.35984,1051.5167 c -10.0014,-1.4495 -12.15632,-1.8201 -12.531784,-2.1556 -0.248854,-0.2223 1.738304,-3.7475 4.550294,-8.0722 7.16635,-11.0213 49.77231,-74.64801 50.25856,-75.05489 3.57509,-2.99158 8.63523,-8.0414 10.57512,-10.55356 3.36154,-4.35318 7.55784,-12.9141 9.06523,-18.494 6.19314,-22.92535 -2.59253,-47.15185 -21.69967,-59.83688 l -2.96081,-1.96565 17.02469,0.29584 c 9.36358,0.1627 31.17032,0.43384 48.45941,0.60252 l 31.43471,0.30668 1.54584,4.18869 c 2.24597,6.08579 4.67816,15.0947 5.93451,21.9816 1.52517,8.36049 1.92536,28.85896 0.73851,37.82758 -3.0805,23.27845 -12.81326,45.72018 -27.80202,64.10577 -20.47622,25.1166 -51.4599,42.1974 -84.14612,46.3885 -5.31244,0.6812 -26.64601,0.9864 -30.44647,0.4356 z"
           style="fill:#f4b400;fill-opacity:1;stroke:none;stroke-width:4.85768509;stroke-linejoin:round;stroke-miterlimit:4;stroke-dasharray:none;stroke-opacity:1" />
        <path
           transform="translate(0,796.36216)"
           inkscape:connector-curvature="0"
           id="path5010"
           d="M 67.989788,108.87302 C 41.284246,59.575543 33.290284,45.149038 32.233625,44.344765 31.651257,43.901497 32.811213,42.549931 38.695603,36.815353 53.43581,22.450419 68.809334,13.040746 87.839196,6.7360352 101.68742,2.1480329 112.58238,0.43719165 127.95142,0.43719165 c 21.3099,0 37.80488,3.80960275 56.83492,13.12633035 25.29351,12.383198 46.19421,33.578863 58.51993,59.345832 1.61138,3.368591 2.92978,6.372442 2.92978,6.675231 0,0.560033 -10.54865,0.49527 -71.16508,-0.436914 l -24.28843,-0.373518 -3.93063,-1.764495 c -6.75732,-3.033425 -10.64587,-3.839529 -18.6576,-3.867747 -5.0296,-0.01773 -7.97946,0.207636 -10.31642,0.788106 -14.50826,3.603659 -26.283291,12.94777 -33.291614,26.418653 -3.58502,6.89086 -5.24713,13.08166 -6.331628,23.58317 l -0.33738,3.26696 -9.92748,-18.32578 z"
           style="fill:#db4437;fill-opacity:1;stroke:none;stroke-width:10;stroke-linejoin:round;stroke-miterlimit:4;stroke-dasharray:none;stroke-opacity:1" />
      </g>
    </clipPath>
    <clipPath
       id="clipPath4430"
       clipPathUnits="userSpaceOnUse">
      <circle
         r="128"
         cy="924.36218"
         cx="128"
         id="circle4432"
         style="opacity:1;fill:#db4b39;fill-opacity:1;stroke:none;stroke-width:8;stroke-linecap:round;stroke-linejoin:round;stroke-miterlimit:4;stroke-dasharray:none;stroke-opacity:1" />
    </clipPath>
    <clipPath
       clipPathUnits="userSpaceOnUse"
       id="clipPath4565">
      <circle
         r="96.820312"
         cy="916.5603"
         cx="126.92334"
         id="circle4567"
         style="opacity:1;fill:#3b5998;fill-opacity:1;stroke:none;stroke-width:8;stroke-linecap:round;stroke-linejoin:round;stroke-miterlimit:4;stroke-dasharray:none;stroke-opacity:1" />
    </clipPath>
    <clipPath
       id="clipPath5990"
       clipPathUnits="userSpaceOnUse">
      <circle
         r="128"
         cy="924.36218"
         cx="128"
         id="circle5992"
         style="opacity:1;fill:#400290;fill-opacity:1;stroke:none;stroke-width:8;stroke-linecap:round;stroke-linejoin:round;stroke-miterlimit:4;stroke-dasharray:none;stroke-opacity:1" />
    </clipPath>
    <clipPath
       clipPathUnits="userSpaceOnUse"
       id="clipPath6086">
      <circle
         r="128"
         cy="924.36218"
         cx="128"
         id="circle6088"
         style="opacity:1;fill:#016db3;fill-opacity:1;stroke:none;stroke-width:8;stroke-linecap:round;stroke-linejoin:round;stroke-miterlimit:4;stroke-dasharray:none;stroke-opacity:1" />
    </clipPath>
    <clipPath
       clipPathUnits="userSpaceOnUse"
       id="clipPath1047">
      <circle
         r="128"
         cy="128.00002"
         cx="128"
         id="circle1049"
         style="fill:#990012;fill-opacity:1;stroke:none;stroke-width:20;stroke-miterlimit:4;stroke-dasharray:none;stroke-opacity:1" />
    </clipPath>
  </defs>
  <metadata
     id="metadata7">
    <rdf:RDF>
      <cc:Work
         rdf:about="">
        <dc:format>image/svg+xml</dc:format>
        <dc:type
           rdf:resource="http://purl.org/dc/dcmitype/StillImage" />
        <dc:title />
      </cc:Work>
    </rdf:RDF>
  </metadata>
  <g
     transform="translate(0,-796.36216)"
     id="layer1"
     inkscape:groupmode="layer"
     inkscape:label="Layer 1">
    <path
       inkscape:connector-curvature="0"
       id="path4913"
       d="M 154.47438,968.80998 101.03985,1048.476 0.4857685,1048.9618 0,842.0244 l 33.032258,-2.42884 45.176471,83.55218 21.373814,35.4611 26.717267,13.11575 z"
       style="fill:none;fill-rule:evenodd;stroke:none;stroke-width:1px;stroke-linecap:butt;stroke-linejoin:miter;stroke-opacity:1" />
    <path
       id="path4940"
       d="m 171.48957,922.48105 a 44.647257,48.224016 0 0 1 -44.64726,48.22393 44.647257,48.224016 0 0 1 -44.647261,-48.22393 44.647257,48.224016 0 0 1 44.647261,-48.22403 44.647257,48.224016 0 0 1 44.64726,48.22403 z"
       style="opacity:0.95999995;fill:#600000;fill-opacity:0;stroke:#ffffff;stroke-width:9.6054287;stroke-linecap:round;stroke-linejoin:miter;stroke-miterlimit:4;stroke-dasharray:none;stroke-opacity:1"
       inkscape:connector-curvature="0" />
    <circle
       style="opacity:1;fill:#00adef;fill-opacity:1;stroke:none;stroke-width:8;stroke-linecap:round;stroke-linejoin:round;stroke-miterlimit:4;stroke-dasharray:none;stroke-opacity:1"
       id="path4152"
       cx="128"
       cy="924.36218"
       r="128" />
    <g
       transform="translate(0,796.36214)"
       id="g972"
       clip-path="url(#clipPath1047)"
       style="fill:#006389;fill-opacity:1">
      <g
         id="g969"
         style="fill:#006389;fill-opacity:1;stroke-width:0.07556668">
        <path
           inkscape:connector-curvature="0"
           id="path875"
           d="m 203,52.771484 -0.16992,0.0078 -141.421356,141.421356 0.16992,-0.008 z"
           style="fill:#006389;fill-opacity:1" />
        <path
           inkscape:connector-curvature="0"
           id="path877"
           d="m 202.83008,52.779297 c -0.0935,0.0022 -18.38044,2.662079 -40.63672,5.912109 L 20.772004,200.11276 c 22.25628,-3.25003 40.5432,-5.90993 40.63672,-5.91211 z"
           style="fill:#006389;fill-opacity:1" />
        <path
           inkscape:connector-curvature="0"
           id="path879"
           d="m 162.19336,58.691406 -40.46484,5.910156 -141.421356,141.421358 40.46484,-5.91016 z"
           style="fill:#006389;fill-opacity:1" />
        <path
           inkscape:connector-curvature="0"
           id="path881"
           d="m 121.72852,64.601562 -0.0195,30.087891 -141.421356,141.421357 0.01954,-30.08789 z"
           style="fill:#006389;fill-opacity:1" />
        <path
           inkscape:connector-curvature="0"
           id="path883"
           d="m 121.70898,94.689453 -0.0195,30.083987 -141.421356,141.42136 0.01953,-30.08399 z"
           style="fill:#006389;fill-opacity:1" />
        <path
           inkscape:connector-curvature="0"
           id="path885"
           d="m 121.68945,124.77344 2.4375,-0.0352 -141.421356,141.42136 -2.4375,0.0352 z"
           style="fill:#006389;fill-opacity:1" />
        <path
           inkscape:connector-curvature="0"
           id="path887"
           d="m 124.12695,124.73828 c 1.34042,-0.0197 17.60413,-0.15154 36.14063,-0.29297 L 18.846224,265.86667 c -18.53650024,0.14143 -34.80021,0.27325 -36.14063,0.29297 z"
           style="fill:#006389;fill-opacity:1" />
        <path
           inkscape:connector-curvature="0"
           id="path889"
           d="m 160.26758,124.44531 c 18.53651,-0.14135 35.73349,-0.27884 38.2168,-0.30664 L 57.063024,265.56003 c -2.48331,0.0278 -19.68029,0.16529 -38.2168,0.30664 z"
           style="fill:#006389;fill-opacity:1" />
        <path
           inkscape:connector-curvature="0"
           id="path891"
           d="M 198.48438,124.13867 203,124.08789 61.578644,265.50925 l -4.51562,0.0508 z"
           style="fill:#006389;fill-opacity:1" />
        <path
           inkscape:connector-curvature="0"
           id="path893"
           d="M 203,124.08789 V 88.429688 L 61.578644,229.85104 v 35.65821 z"
           style="fill:#006389;fill-opacity:1" />
        <path
           inkscape:connector-curvature="0"
           id="path895"
           d="M 203,88.429688 V 52.771484 L 61.578644,194.19284 v 35.6582 z"
           style="fill:#006389;fill-opacity:1" />
        <path
           inkscape:connector-curvature="0"
           id="path897"
           d="m 114.26367,65.726562 c -0.0111,-0.01106 -13.80069,1.854085 -30.642576,4.146485 L -57.800262,211.2944 c 16.841886,-2.2924 30.631486,-4.15754 30.642576,-4.14648 z"
           style="fill:#006389;fill-opacity:1" />
        <path
           inkscape:connector-curvature="0"
           id="path899"
           d="M 83.621094,69.873047 53,74.041016 -88.421356,215.46237 -57.800262,211.2944 Z"
           style="fill:#006389;fill-opacity:1" />
        <path
           inkscape:connector-curvature="0"
           id="path901"
           d="M 53,74.041016 V 99.591797 L -88.421356,241.01315 v -25.55078 z"
           style="fill:#006389;fill-opacity:1" />
        <path
           inkscape:connector-curvature="0"
           id="path903"
           d="m 53,99.591797 c 0,14.051633 0.02419,25.571313 0.05273,25.601563 L -88.368622,266.61472 c -0.02855,-0.0302 -0.05273,-11.54993 -0.05273,-25.60157 z"
           style="fill:#006389;fill-opacity:1" />
        <path
           inkscape:connector-curvature="0"
           id="path905"
           d="m 53.052734,125.19336 c 0.02857,0.0291 1.686047,0.035 3.683594,0.0117 L -84.685028,266.62644 c -1.997547,0.0233 -3.65502,0.0174 -3.683594,-0.0117 z"
           style="fill:#006389;fill-opacity:1" />
        <path
           inkscape:connector-curvature="0"
           id="path907"
           d="m 56.736328,125.20508 c 1.997548,-0.0233 12.982643,-0.091 24.41211,-0.15039 L -60.272918,266.47605 c -11.429467,0.0594 -22.414562,0.12706 -24.41211,0.15039 z"
           style="fill:#006389;fill-opacity:1" />
        <path
           inkscape:connector-curvature="0"
           id="path909"
           d="m 81.148438,125.05469 c 11.429451,-0.0595 23.584422,-0.13111 27.009762,-0.15821 L -33.263156,266.31784 c -3.42534,0.0271 -15.580311,0.0987 -27.009762,0.15821 z"
           style="fill:#006389;fill-opacity:1" />
        <path
           inkscape:connector-curvature="0"
           id="path911"
           d="m 108.1582,124.89648 6.22657,-0.0508 -141.421356,141.42136 -6.22657,0.0508 z"
           style="fill:#006389;fill-opacity:1" />
        <path
           inkscape:connector-curvature="0"
           id="path913"
           d="m 114.38477,124.8457 -0.0508,-29.548825 -141.421356,141.421355 0.05079,29.54883 z"
           style="fill:#006389;fill-opacity:1" />
        <path
           inkscape:connector-curvature="0"
           id="path915"
           d="m 114.33398,95.296875 c -0.0279,-16.25264 -0.0587,-29.558712 -0.0703,-29.570313 L -27.157686,207.14792 c 0.0116,0.0116 0.04241,13.31767 0.07031,29.57031 z"
           style="fill:#006389;fill-opacity:1" />
        <path
           inkscape:connector-curvature="0"
           id="path917"
           d="m 53.037109,131.25 -0.01758,25.56445 -141.421356,141.42136 0.01758,-25.56445 z"
           style="fill:#006389;fill-opacity:1" />
        <path
           inkscape:connector-curvature="0"
           id="path919"
           d="m 53.019531,156.81445 c -0.01518,20.41102 -0.0013,25.56986 0.07422,25.59766 L -88.327606,323.83347 c -0.07549,-0.0278 -0.0894,-5.18664 -0.07422,-25.59766 z"
           style="fill:#006389;fill-opacity:1" />
        <path
           inkscape:connector-curvature="0"
           id="path921"
           d="m 53.09375,182.41211 c 0.05202,0.0193 13.764862,1.91689 30.472656,4.21875 L -57.85495,328.05222 c -16.707794,-2.30186 -30.420639,-4.19949 -30.472656,-4.21875 z"
           style="fill:#006389;fill-opacity:1" />
        <path
           inkscape:connector-curvature="0"
           id="path923"
           d="m 83.566406,186.63086 v -0.002 L -57.85495,328.05027 v 0.002 z"
           style="fill:#006389;fill-opacity:1" />
        <path
           inkscape:connector-curvature="0"
           id="path925"
           d="m 83.566406,186.62891 c 16.707794,2.30185 30.476514,4.18046 30.597654,4.19336 L -27.257296,332.24363 c -0.12114,-0.0129 -13.88986,-1.89151 -30.597654,-4.19336 z"
           style="fill:#006389;fill-opacity:1" />
        <path
           inkscape:connector-curvature="0"
           id="path927"
           d="m 114.16406,190.82227 0.22071,0.0137 -141.421356,141.42136 -0.22071,-0.0137 z"
           style="fill:#006389;fill-opacity:1" />
        <path
           inkscape:connector-curvature="0"
           id="path929"
           d="m 114.38477,190.83594 -0.0508,-8.78516 -141.421356,141.42136 0.05079,8.78516 z"
           style="fill:#006389;fill-opacity:1" />
        <path
           inkscape:connector-curvature="0"
           id="path931"
           d="m 114.33398,182.05078 c -0.0277,-4.83151 -0.0488,-18.14044 -0.0488,-29.57617 L -27.136196,293.89597 c 2e-5,11.43573 0.02112,24.74466 0.04882,29.57617 z"
           style="fill:#006389;fill-opacity:1" />
        <path
           inkscape:connector-curvature="0"
           id="path933"
           d="M 114.28516,152.47461 V 131.68164 L -27.136196,273.103 v 20.79297 z"
           style="fill:#006389;fill-opacity:1" />
        <path
           inkscape:connector-curvature="0"
           id="path935"
           d="m 114.28516,131.68164 -0.85157,-0.043 -141.421356,141.42136 0.85157,0.043 z"
           style="fill:#006389;fill-opacity:1" />
        <path
           inkscape:connector-curvature="0"
           id="path937"
           d="m 113.43359,131.63867 c -0.46756,-0.0235 -12.7849,-0.11171 -27.373043,-0.19531 L -55.360809,272.86472 c 14.588143,0.0836 26.905483,0.17184 27.373043,0.19531 z"
           style="fill:#006389;fill-opacity:1" />
        <path
           inkscape:connector-curvature="0"
           id="path939"
           d="M 86.060547,131.44336 C 71.472402,131.35962 58.07426,131.28308 56.287109,131.27148 L -85.134247,272.69284 c 1.787151,0.0116 15.185293,0.0881 29.773438,0.17188 z"
           style="fill:#006389;fill-opacity:1" />
        <path
           inkscape:connector-curvature="0"
           id="path941"
           d="m 56.287109,131.27148 -3.25,-0.0215 -141.421356,141.42136 3.25,0.0215 z"
           style="fill:#006389;fill-opacity:1" />
        <path
           inkscape:connector-curvature="0"
           id="path943"
           d="m 121.55078,132.04102 0.041,24.80664 -141.421356,141.42136 -0.04102,-24.80664 z"
           style="fill:#006389;fill-opacity:1" />
        <path
           inkscape:connector-curvature="0"
           id="path945"
           d="m 121.5918,156.84766 c 0.0218,13.64355 0.0613,27.08147 0.0879,29.86328 L -19.741666,328.1323 c -0.0266,-2.78181 -0.06609,-16.21973 -0.08789,-29.86328 z"
           style="fill:#006389;fill-opacity:1" />
        <path
           inkscape:connector-curvature="0"
           id="path947"
           d="m 121.67969,186.71094 0.0488,5.05859 -141.421356,141.42136 -0.04883,-5.05859 z"
           style="fill:#006389;fill-opacity:1" />
        <path
           inkscape:connector-curvature="0"
           id="path949"
           d="m 121.72852,191.76953 40.31445,5.68945 -141.421356,141.42136 -40.31445,-5.68945 z"
           style="fill:#006389;fill-opacity:1" />
        <path
           inkscape:connector-curvature="0"
           id="path951"
           d="m 162.04297,197.45898 c 22.17316,3.1288 40.38174,5.70175 40.46484,5.71875 L 61.086454,344.59909 c -0.0831,-0.017 -18.29168,-2.58995 -40.46484,-5.71875 z"
           style="fill:#006389;fill-opacity:1" />
        <path
           inkscape:connector-curvature="0"
           id="path953"
           d="m 202.50781,203.17773 0.002,-0.002 -141.421356,141.42136 -0.002,0.002 z"
           style="fill:#006389;fill-opacity:1" />
        <path
           inkscape:connector-curvature="0"
           id="path955"
           d="m 202.50977,203.17578 c 0.0831,0.017 0.22681,0.028 0.32031,0.041 L 61.408724,344.63816 c -0.0935,-0.013 -0.23718,-0.024 -0.32031,-0.041 z"
           style="fill:#006389;fill-opacity:1" />
        <path
           inkscape:connector-curvature="0"
           id="path957"
           d="M 202.83008,203.2168 203,203.22852 61.578644,344.64988 l -0.16992,-0.0117 z"
           style="fill:#006389;fill-opacity:1" />
        <path
           inkscape:connector-curvature="0"
           id="path959"
           d="M 203,203.22852 V 167.72266 L 61.578644,309.14402 v 35.50586 z"
           style="fill:#006389;fill-opacity:1" />
        <path
           inkscape:connector-curvature="0"
           id="path961"
           d="M 203,167.72266 V 132.21484 L 61.578644,273.6362 v 35.50782 z"
           style="fill:#006389;fill-opacity:1" />
        <path
           inkscape:connector-curvature="0"
           id="path963"
           d="m 203,132.21484 -18.83398,-0.0449 -141.421356,141.42136 18.83398,0.0449 z"
           style="fill:#006389;fill-opacity:1" />
        <path
           inkscape:connector-curvature="0"
           id="path965"
           d="m 184.16602,132.16992 c -10.35923,-0.025 -28.68554,-0.0654 -40.72461,-0.0879 L 2.0200538,273.50339 c 12.0390702,0.0225 30.3653802,0.0629 40.7246102,0.0879 z"
           style="fill:#006389;fill-opacity:1" />
        <path
           inkscape:connector-curvature="0"
           id="path967"
           d="m 143.44141,132.08203 -21.89063,-0.041 -141.421356,141.42136 21.8906298,0.041 z"
           style="fill:#006389;fill-opacity:1" />
      </g>
      <path
         inkscape:connector-curvature="0"
         id="path853"
         d="m 203,52.771484 -0.16992,0.0078 c -0.0935,0.0022 -18.38044,2.662079 -40.63672,5.912109 l -40.46484,5.910156 -0.0195,30.087891 -0.0195,30.08399 2.4375,-0.0352 c 1.34042,-0.0197 17.60413,-0.15154 36.14063,-0.29297 18.53651,-0.14135 35.73349,-0.27884 38.2168,-0.30664 L 203,124.08789 V 88.429688 Z m -88.73633,12.955078 c -0.0111,-0.01106 -13.80069,1.854085 -30.642576,4.146485 L 53,74.041016 v 25.550781 c 0,14.051633 0.02419,25.571313 0.05273,25.601563 0.02857,0.0291 1.686047,0.035 3.683594,0.0117 1.997548,-0.0233 12.982643,-0.091 24.41211,-0.15039 11.429451,-0.0595 23.584426,-0.13111 27.009766,-0.15821 l 6.22657,-0.0508 -0.0508,-29.548825 c -0.0279,-16.25264 -0.0587,-29.558712 -0.0703,-29.570313 z M 53.037109,131.25 l -0.01758,25.56445 c -0.01518,20.41102 -0.0013,25.56986 0.07422,25.59766 0.05202,0.0193 13.764862,1.91689 30.472656,4.21875 v -0.002 c 16.707795,2.30185 30.476515,4.18046 30.597655,4.19336 l 0.22071,0.0137 -0.0508,-8.78516 c -0.0277,-4.83151 -0.0488,-18.14044 -0.0488,-29.57617 v -20.79297 l -0.85157,-0.043 c -0.46756,-0.0235 -12.7849,-0.11171 -27.373044,-0.19531 -14.588145,-0.0837 -27.986287,-0.16028 -29.773438,-0.17188 z m 68.513671,0.79102 0.041,24.80664 c 0.0218,13.64355 0.0613,27.08147 0.0879,29.86328 l 0.0488,5.05859 40.31445,5.68945 c 22.17316,3.1288 40.38174,5.70175 40.46484,5.71875 l 0.002,-0.002 c 0.0831,0.017 0.22681,0.028 0.32031,0.041 L 203,203.22852 v -35.50586 -35.50782 l -18.83398,-0.0449 c -10.35923,-0.025 -28.68554,-0.0654 -40.72461,-0.0879 z"
         style="fill:#006389;fill-opacity:1;stroke-width:0.07556668" />
    </g>
    <path
       inkscape:connector-curvature="0"
       id="path4487-3"
       d="m 202.50862,999.53937 c -0.0831,-0.017 -18.2928,-2.5902 -40.46596,-5.719 l -40.31483,-5.68843 -0.0483,-5.05791 c -0.0266,-2.78181 -0.0664,-16.22082 -0.0882,-29.86437 l -0.0397,-24.80652 21.88921,0.0414 c 12.03907,0.0225 30.36497,0.0617 40.7242,0.0867 l 18.83501,0.0459 v 35.50697 35.50706 l -0.17003,-0.013 c -0.0935,-0.013 -0.23803,-0.024 -0.32116,-0.041 z M 83.566659,982.99376 c -16.707794,-2.30186 -30.420355,-4.20088 -30.472372,-4.22014 -0.07549,-0.0278 -0.09079,-5.18672 -0.07561,-25.59774 l 0.01903,-25.56277 3.249366,0.0203 c 1.787151,0.0116 15.185127,0.0889 29.773272,0.17264 14.588145,0.0836 26.906465,0.17129 27.374025,0.19476 l 0.85013,0.043 3e-5,20.79226 c 2e-5,11.43573 0.0226,24.74536 0.0503,29.57687 l 0.0503,8.78465 -0.2203,-0.0129 c -0.12114,-0.0129 -13.89032,-1.89267 -30.598113,-4.19452 z m -30.514757,-61.437 c -0.02855,-0.0285 -0.05195,-11.54961 -0.05195,-25.60232 v -25.55036 l 30.621633,-4.168 c 16.841885,-2.2924 30.630685,-4.15891 30.641775,-4.14786 0.0116,0.0116 0.0431,13.31775 0.071,29.57039 l 0.0508,29.55016 -6.22791,0.0496 c -3.42534,0.0271 -15.579275,0.0981 -27.008727,0.1576 -11.429466,0.0594 -22.41521,0.12705 -24.412758,0.15038 -1.997547,0.0233 -3.655292,0.0188 -3.683866,-0.0103 z m 68.656948,-30.50507 0.0189,-30.08834 40.46596,-5.90911 c 22.25628,-3.25003 40.54246,-5.91094 40.63598,-5.91312 l 0.17003,-0.008 v 35.65826 35.65825 l -4.51511,0.0504 c -2.48331,0.0278 -19.68134,0.16602 -38.21785,0.30737 -18.5365,0.14143 -34.79945,0.27323 -36.13987,0.29295 l -2.43711,0.0361 z"
       style="fill:#fffcfd;fill-opacity:1;stroke-width:0.07556668" />
  </g>
</svg>
