<?xml version="1.0" encoding="UTF-8" standalone="no"?>
<!-- Created with Inkscape (http://www.inkscape.org/) -->

<svg
   xmlns:dc="http://purl.org/dc/elements/1.1/"
   xmlns:cc="http://creativecommons.org/ns#"
   xmlns:rdf="http://www.w3.org/1999/02/22-rdf-syntax-ns#"
   xmlns:svg="http://www.w3.org/2000/svg"
   xmlns="http://www.w3.org/2000/svg"
   xmlns:sodipodi="http://sodipodi.sourceforge.net/DTD/sodipodi-0.dtd"
   xmlns:inkscape="http://www.inkscape.org/namespaces/inkscape"
   sodipodi:docname="gpodder.svg"
   inkscape:version="0.92+devel unknown"
   version="1.1"
   id="svg2"
   viewBox="0.0 0.0 273.066666667 273.066666667"
   height="273.066666667"
   width="273.066666667">
  <sodipodi:namedview
     inkscape:window-maximized="1"
     inkscape:window-y="0"
     inkscape:window-x="0"
     inkscape:window-height="1054"
     inkscape:window-width="1920"
     units="px"
     showgrid="true"
     inkscape:current-layer="layer1"
     inkscape:document-units="px"
     inkscape:cy="136.53334"
     inkscape:cx="54.790655"
     inkscape:zoom="2.8198241"
     inkscape:pageshadow="2"
     inkscape:pageopacity="0.0"
     borderopacity="1.0"
     bordercolor="#666666"
     pagecolor="#ffffff"
     id="base"
     inkscape:document-rotation="0" />
  <defs
     id="defs4">
    <clipPath
       id="clipPath5002"
       clipPathUnits="userSpaceOnUse">
      <g
         id="g5004">
        <path
           style="fill:#0f9d58;fill-opacity:1;stroke:none;stroke-width:4.85768509;stroke-linejoin:round;stroke-miterlimit:4;stroke-dasharray:none;stroke-opacity:1"
           d="M 88.118406,249.43519 C 46.103287,235.29134 14.771284,201.68742 4.1335861,159.36053 1.3377997,148.23623 0.92261224,144.16281 0.92582381,127.88908 0.92787958,117.47222 1.134384,112.01362 1.6577819,108.54099 4.4653598,89.913336 12.17654,70.638106 23.042737,55.086148 c 3.958678,-5.665755 8.344812,-10.93092 9.101533,-10.925587 0.32809,0.0023 10.488643,18.309713 22.579009,40.683112 12.090365,22.373397 22.374546,41.334697 22.853732,42.136217 0.479186,0.80151 0.924733,2.44098 0.990103,3.64326 0.343424,6.31639 2.524175,14.20976 5.6424,20.42304 2.954444,5.88693 5.065381,8.73258 10.434696,14.06652 6.71418,6.66995 12.88853,10.28643 21.73204,12.72904 3.16587,0.87442 5.10478,1.05037 11.57517,1.05037 8.82596,0 12.60219,-0.76201 19.26429,-3.88733 2.04584,-0.95974 3.93661,-1.66536 4.20172,-1.56805 0.2651,0.0973 -11.0555,17.66459 -25.1569,39.0384 l -25.6389,38.86148 -3.094121,0.11221 c -2.554618,0.0927 -4.195204,-0.25845 -9.409103,-2.01364 z"
           id="path5006"
           inkscape:connector-curvature="0"
           transform="translate(0,796.36216)" />
        <path
           style="fill:#f4b400;fill-opacity:1;stroke:none;stroke-width:4.85768509;stroke-linejoin:round;stroke-miterlimit:4;stroke-dasharray:none;stroke-opacity:1"
           d="m 112.35984,1051.5167 c -10.0014,-1.4495 -12.15632,-1.8201 -12.531784,-2.1556 -0.248854,-0.2223 1.738304,-3.7475 4.550294,-8.0722 7.16635,-11.0213 49.77231,-74.64801 50.25856,-75.05489 3.57509,-2.99158 8.63523,-8.0414 10.57512,-10.55356 3.36154,-4.35318 7.55784,-12.9141 9.06523,-18.494 6.19314,-22.92535 -2.59253,-47.15185 -21.69967,-59.83688 l -2.96081,-1.96565 17.02469,0.29584 c 9.36358,0.1627 31.17032,0.43384 48.45941,0.60252 l 31.43471,0.30668 1.54584,4.18869 c 2.24597,6.08579 4.67816,15.0947 5.93451,21.9816 1.52517,8.36049 1.92536,28.85896 0.73851,37.82758 -3.0805,23.27845 -12.81326,45.72018 -27.80202,64.10577 -20.47622,25.1166 -51.4599,42.1974 -84.14612,46.3885 -5.31244,0.6812 -26.64601,0.9864 -30.44647,0.4356 z"
           id="path5008"
           inkscape:connector-curvature="0" />
        <path
           style="fill:#db4437;fill-opacity:1;stroke:none;stroke-width:10;stroke-linejoin:round;stroke-miterlimit:4;stroke-dasharray:none;stroke-opacity:1"
           d="M 67.989788,108.87302 C 41.284246,59.575543 33.290284,45.149038 32.233625,44.344765 31.651257,43.901497 32.811213,42.549931 38.695603,36.815353 53.43581,22.450419 68.809334,13.040746 87.839196,6.7360352 101.68742,2.1480329 112.58238,0.43719165 127.95142,0.43719165 c 21.3099,0 37.80488,3.80960275 56.83492,13.12633035 25.29351,12.383198 46.19421,33.578863 58.51993,59.345832 1.61138,3.368591 2.92978,6.372442 2.92978,6.675231 0,0.560033 -10.54865,0.49527 -71.16508,-0.436914 l -24.28843,-0.373518 -3.93063,-1.764495 c -6.75732,-3.033425 -10.64587,-3.839529 -18.6576,-3.867747 -5.0296,-0.01773 -7.97946,0.207636 -10.31642,0.788106 -14.50826,3.603659 -26.283291,12.94777 -33.291614,26.418653 -3.58502,6.89086 -5.24713,13.08166 -6.331628,23.58317 l -0.33738,3.26696 -9.92748,-18.32578 z"
           id="path5010"
           inkscape:connector-curvature="0"
           transform="translate(0,796.36216)" />
      </g>
    </clipPath>
    <clipPath
       clipPathUnits="userSpaceOnUse"
       id="clipPath4253">
      <circle
         style="fill:#bababa;fill-opacity:1;stroke:none;stroke-width:0.1;stroke-linecap:round;stroke-linejoin:round;stroke-miterlimit:4;stroke-dasharray:none;stroke-opacity:1"
         id="circle4255"
         cx="128"
         cy="924.36218"
         r="128" />
    </clipPath>
    <clipPath
       id="clipPath4350"
       clipPathUnits="userSpaceOnUse">
      <circle
         style="fill:#7e7e7e;fill-opacity:1;stroke:none;stroke-width:0.1;stroke-linecap:round;stroke-linejoin:round;stroke-miterlimit:4;stroke-dasharray:none;stroke-opacity:1"
         id="circle4352"
         cx="128"
         cy="924.36218"
         r="128" />
    </clipPath>
    <clipPath
       clipPathUnits="userSpaceOnUse"
       id="clipPath4303">
      <circle
         style="fill:#a8c6d4;fill-opacity:1;stroke:none;stroke-width:0.1;stroke-linecap:round;stroke-linejoin:round;stroke-miterlimit:4;stroke-dasharray:none;stroke-opacity:1"
         id="circle4305"
         cx="128"
         cy="924.36218"
         r="128" />
    </clipPath>
    <clipPath
       clipPathUnits="userSpaceOnUse"
       id="clipPath1290">
      <circle
         style="fill:#7f5983;fill-opacity:1;stroke:none;stroke-width:0.1;stroke-linecap:round;stroke-linejoin:round;stroke-miterlimit:4;stroke-dasharray:none;stroke-opacity:1"
         id="circle1292"
         cx="127.99999"
         cy="924.36218"
         r="127.99999" />
    </clipPath>
  </defs>
  <metadata
     id="metadata7">
    <rdf:RDF>
      <cc:Work
         rdf:about="">
        <dc:format>image/svg+xml</dc:format>
        <dc:type
           rdf:resource="http://purl.org/dc/dcmitype/StillImage" />
        <dc:title />
      </cc:Work>
    </rdf:RDF>
  </metadata>
  <g
     inkscape:label="Layer 1"
     inkscape:groupmode="layer"
     id="layer1"
     transform="matrix(1.066667,0.000000,0.000000,1.066667,0.000000,-849.452971)">
    <path
       style="fill:none;fill-rule:evenodd;stroke:none;stroke-width:1px;stroke-linecap:butt;stroke-linejoin:miter;stroke-opacity:1"
       d="M 154.47438,968.80998 101.03985,1048.476 0.4857685,1048.9618 0,842.0244 l 33.032258,-2.42884 45.176471,83.55218 21.373814,35.4611 26.717267,13.11575 z"
       id="path4913"
       inkscape:connector-curvature="0" />
    <circle
       r="128"
       cy="924.36218"
       cx="128"
       id="path4152"
       style="fill:#aa87ae;fill-opacity:1;stroke:none;stroke-width:0.1;stroke-linecap:round;stroke-linejoin:round;stroke-miterlimit:4;stroke-dasharray:none;stroke-opacity:1" />
    <g
       id="g1162"
       clip-path="url(#clipPath1290)"
       style="fill:#7f5983;fill-opacity:1">
      <g
         id="g1159"
         style="fill:#7f5983;stroke-width:1.04901099;fill-opacity:1">
        <path
           id="path959"
           d="M76.162059 1006.0098C59.461653 1004.4858 44.50726 1000.2694 38.815498 995.48013L-102.605858237 1136.90148624C-96.9140962373 1141.69075624 -81.9597032373 1145.90715624 -65.2592972373 1147.43115624Z"
           style="fill:#7f5983;fill-opacity:1" />
        <path
           id="path961"
           d="M38.815498 995.48013C34.260685 991.64752 33.620369 989.16633 34.713242 979.58418L-106.708114237 1121.00553624C-107.800987237 1130.58768624 -107.160671237 1133.06887624 -102.605858237 1136.90148624Z"
           style="fill:#7f5983;fill-opacity:1" />
        <path
           id="path963"
           d="M34.713242 979.58418C35.430383539 973.296352503 36.2626675021 969.444526377 38.3816367831 967.325557096L-103.039719454 1108.74691333C-105.158688735 1110.86588261 -105.990972698 1114.71770874 -106.708114237 1121.00553624Z"
           style="fill:#7f5983;fill-opacity:1" />
        <path
           id="path965"
           d="M38.3816367831 967.325557096C41.2172049942 964.489988885 46.3568832739 964.757504892 56.608073 966.44314L-84.8132832373 1107.86449624C-95.0644729634 1106.17886113 -100.204151243 1105.91134512 -103.039719454 1108.74691333Z"
           style="fill:#7f5983;fill-opacity:1" />
        <path
           id="path967"
           d="M56.608073 966.44314C73.339307 969.1943 97.765412 969.26184 102.69465 966.57057L-38.7267062373 1107.99192624C-43.6559442373 1110.68319624 -68.0820492373 1110.61565624 -84.8132832373 1107.86449624Z"
           style="fill:#7f5983;fill-opacity:1" />
        <path
           id="path969"
           d="M102.69465 966.57057C103.613386804 966.068959464 104.557754655 965.331567146 105.351019864 964.538301936L-36.0703363731 1105.95965817C-36.8636015826 1106.75292338 -37.8079694335 1107.4903157 -38.7267062373 1107.99192624Z"
           style="fill:#7f5983;fill-opacity:1" />
        <path
           id="path971"
           d="M105.351019864 964.538301936C106.198194548 963.691127253 106.87303118 962.780227507 107.16026 962.02474L-34.2610962373 1103.44609624C-34.5483250578 1104.20158374 -35.2231616896 1105.11248349 -36.0703363731 1105.95965817Z"
           style="fill:#7f5983;fill-opacity:1" />
        <path
           id="path973"
           d="M107.16026 962.02474C108.45739 958.61305 106.92418 952.57071 104.89904 953.11333L-36.5223162373 1094.53468624C-34.4971762373 1093.99206624 -32.9639662373 1100.03440624 -34.2610962373 1103.44609624Z"
           style="fill:#7f5983;fill-opacity:1" />
        <path
           id="path975"
           d="M104.89904 953.11333C94.873744 955.79955 91.122975 954.9612 85.402971 948.75571L-56.0183852373 1090.17706624C-50.2983812373 1096.38255624 -46.5476122373 1097.22090624 -36.5223162373 1094.53468624Z"
           style="fill:#7f5983;fill-opacity:1" />
        <path
           id="path977"
           d="M85.402971 948.75571C83.143451 946.30442 80.375918 942.07369 79.252911 939.35411L-62.1684452373 1080.77546624C-61.0454382373 1083.49504624 -58.2779052373 1087.72577624 -56.0183852373 1090.17706624Z"
           style="fill:#7f5983;fill-opacity:1" />
        <path
           id="path979"
           d="M79.252911 939.35411L77.211071 934.40941L-64.2102852373 1075.83076624L-62.1684452373 1080.77546624Z"
           style="fill:#7f5983;fill-opacity:1" />
        <path
           id="path981"
           d="M77.211071 934.40941L71.441508 934.99867L-69.9798482373 1076.42002624L-64.2102852373 1075.83076624Z"
           style="fill:#7f5983;fill-opacity:1" />
        <path
           id="path983"
           d="M71.441508 934.99867C68.268246 935.32276 65.099235 935.76305 64.399268 935.97711L-77.0220882373 1077.39846624C-76.3221212373 1077.18440624 -73.1531102373 1076.74411624 -69.9798482373 1076.42002624Z"
           style="fill:#7f5983;fill-opacity:1" />
        <path
           id="path985"
           d="M64.399268 935.97711C63.652338 936.2055 62.899546 934.97759 62.57701 933.00474L-78.8443462373 1074.42609624C-78.5218102373 1076.39894624 -77.7690182373 1077.62685624 -77.0220882373 1077.39846624Z"
           style="fill:#7f5983;fill-opacity:1" />
        <path
           id="path987"
           d="M62.57701 933.00474C61.976248 929.33011 58.853371 901.53271 58.853371 899.85984L-82.5679852373 1041.28119624C-82.5679852373 1042.95406624 -79.4451082373 1070.75146624 -78.8443462373 1074.42609624Z"
           style="fill:#7f5983;fill-opacity:1" />
        <path
           id="path989"
           d="M58.853371 899.85984C58.853371 899.757349045 58.9084740665 899.653468376 59.0109700038 899.550972439L-82.4103862335 1040.97232868C-82.5128821708 1041.07482461 -82.5679852373 1041.17870528 -82.5679852373 1041.28119624Z"
           style="fill:#7f5983;fill-opacity:1" />
        <path
           id="path991"
           d="M59.0109700038 899.550972439C59.4782117615 899.083730681 60.9303328253 898.645265267 62.636917 898.49841L-78.7844392373 1039.91976624C-80.491023412 1040.0666215 -81.9431444758 1040.50508692 -82.4103862335 1040.97232868Z"
           style="fill:#7f5983;fill-opacity:1" />
        <path
           id="path993"
           d="M62.636917 898.49841L66.420453 898.17284L-75.0009032373 1039.59419624L-78.7844392373 1039.91976624Z"
           style="fill:#7f5983;fill-opacity:1" />
        <path
           id="path995"
           d="M66.420453 898.17284L66.862134 891.87878L-74.5592222373 1033.30013624L-75.0009032373 1039.59419624Z"
           style="fill:#7f5983;fill-opacity:1" />
        <path
           id="path997"
           d="M66.862134 891.87878C67.405997 884.12839 70.554285 874.27817 74.442352 868.16215L-66.9790042373 1009.58350624C-70.8670712373 1015.69952624 -74.0153592373 1025.54974624 -74.5592222373 1033.30013624Z"
           style="fill:#7f5983;fill-opacity:1" />
        <path
           id="path999"
           d="M74.442352 868.16215C76.2939069037 865.249604672 78.61137252 862.420337299 81.2637290424 859.767980776L-60.1576271949 1001.18933701C-62.8099837173 1003.84169354 -65.1274493336 1006.67096091 -66.9790042373 1009.58350624Z"
           style="fill:#7f5983;fill-opacity:1" />
        <path
           id="path1001"
           d="M81.2637290424 859.767980776C88.7388910876 852.292818731 98.874047869 846.222836474 108.73626 843.65405L-32.6850962373 985.075406237C-42.5473083683 987.644192711 -52.6824651497 993.714174969 -60.1576271949 1001.18933701Z"
           style="fill:#7f5983;fill-opacity:1" />
        <path
           id="path1003"
           d="M108.73626 843.65405C116.63111 841.59771 131.15842 841.59912 139.05913 843.65705L-2.36222623731 985.078406237C-10.2629362373 983.020476237 -24.7902462373 983.019066237 -32.6850962373 985.075406237Z"
           style="fill:#7f5983;fill-opacity:1" />
        <path
           id="path1005"
           d="M139.05913 843.65705C156.99323 848.32828 172.36133 862.58201 177.19286 879.02562L35.7715037627 1020.44697624C30.9399737627 1004.00336624 15.5718737627 989.749636237 -2.36222623731 985.078406237Z"
           style="fill:#7f5983;fill-opacity:1" />
        <path
           id="path1007"
           d="M177.19286 879.02562C178.87323 884.74453 179.13948 885.05743 182.3269 885.0588L40.9055437627 1026.48015624C37.7181237627 1026.47878624 37.4518737627 1026.16588624 35.7715037627 1020.44697624Z"
           style="fill:#7f5983;fill-opacity:1" />
        <path
           id="path1009"
           d="M182.3269 885.0588C185.30532 885.0598 185.75232 885.449 186.24718 888.46954L44.8258237627 1029.89089624C44.3309637627 1026.87035624 43.8839637627 1026.48115624 40.9055437627 1026.48015624Z"
           style="fill:#7f5983;fill-opacity:1" />
        <path
           id="path1011"
           d="M186.24718 888.46954C186.75534 891.57148 189.97975 919.84665 189.97975 921.20098L48.5583937627 1062.62233624C48.5583937627 1061.26800624 45.3339837627 1032.99283624 44.8258237627 1029.89089624Z"
           style="fill:#7f5983;fill-opacity:1" />
        <path
           id="path1013"
           d="M189.97975 921.20098C189.97975 921.242442394 189.959185613 921.282915927 189.920155042 921.321946497L48.4987988048 1062.74330273C48.5378293752 1062.70427216 48.5583937627 1062.66379863 48.5583937627 1062.62233624Z"
           style="fill:#7f5983;fill-opacity:1" />
        <path
           id="path1015"
           d="M189.920155042 921.321946497C189.661662946 921.580438594 188.593214016 921.77564 187.32431 921.77564L45.9029537627 1063.19699624C47.171857779 1063.19699624 48.2403067085 1063.00179483 48.4987988048 1062.74330273Z"
           style="fill:#7f5983;fill-opacity:1" />
        <path
           id="path1017"
           d="M187.32431 921.77564C186.123828573 921.77564 185.236615385 922.06888144 184.671119961 922.634376864L43.2497637235 1064.0557331C43.8152591474 1063.49023768 44.7024723356 1063.19699624 45.9029537627 1063.19699624Z"
           style="fill:#7f5983;fill-opacity:1" />
        <path
           id="path1019"
           d="M184.671119961 922.634376864C183.662686082 923.642810742 183.67733718 925.517031318 184.76299 928.13802L43.3416337627 1069.55937624C42.2559809428 1066.93838755 42.2413298451 1065.06416698 43.2497637235 1064.0557331Z"
           style="fill:#7f5983;fill-opacity:1" />
        <path
           id="path1021"
           d="M184.76299 928.13802C186.42725 932.15588 189.96369 933.97558 200.19559 936.07892L58.7742337627 1077.50027624C48.5423337627 1075.39693624 45.0058937627 1073.57723624 43.3416337627 1069.55937624Z"
           style="fill:#7f5983;fill-opacity:1" />
        <path
           id="path1023"
           d="M200.19559 936.07892C210.17771 938.13093 212.3612 939.23446 218.0917 945.12356L76.6703437627 1086.54491624C70.9398437627 1080.65581624 68.7563537627 1079.55228624 58.7742337627 1077.50027624Z"
           style="fill:#7f5983;fill-opacity:1" />
        <path
           id="path1025"
           d="M218.0917 945.12356C221.763856473 948.897363751 222.337881604 949.770786023 221.271747436 950.836920191L79.8503911986 1092.25827643C80.9165253668 1091.19214226 80.342500236 1090.31871999 76.6703437627 1086.54491624Z"
           style="fill:#7f5983;fill-opacity:1" />
        <path
           id="path1027"
           d="M221.271747436 950.836920191C221.17176285 950.936904777 221.057352846 951.03858429 220.92972 951.14451L79.5083637627 1092.56586624C79.6359966084 1092.45994053 79.7504066126 1092.35826101 79.8503911986 1092.25827643Z"
           style="fill:#7f5983;fill-opacity:1" />
        <path
           id="path1029"
           d="M220.92972 951.14451C219.49724 952.33337 218.70345 952.0126 215.37152 948.89832L73.9501637627 1090.31967624C77.2820937627 1093.43395624 78.0758837627 1093.75472624 79.5083637627 1092.56586624Z"
           style="fill:#7f5983;fill-opacity:1" />
        <path
           id="path1031"
           d="M215.37152 948.89832C209.29154 943.2155 208.84226 942.99861 198.4534 940.7312L57.0320437627 1082.15255624C67.4209037627 1084.41996624 67.8701837627 1084.63685624 73.9501637627 1090.31967624Z"
           style="fill:#7f5983;fill-opacity:1" />
        <path
           id="path1033"
           d="M198.4534 940.7312C186.42863 938.10676 182.40328 935.36822 179.80109 928.04162L38.3797337627 1069.46297624C40.9819237627 1076.78957624 45.0072737627 1079.52811624 57.0320437627 1082.15255624Z"
           style="fill:#7f5983;fill-opacity:1" />
        <path
           id="path1035"
           d="M179.80109 928.04162C178.78199 925.17229 177.39002 922.82465 176.70781 922.82465L35.2864537627 1064.24600624C35.9686637627 1064.24600624 37.3606337627 1066.59364624 38.3797337627 1069.46297624Z"
           style="fill:#7f5983;fill-opacity:1" />
        <path
           id="path1037"
           d="M176.70781 922.82465C176.586366143 922.82465 176.452554066 922.900648661 176.311079895 923.042122832L34.8897236575 1064.46347907C35.0311978287 1064.3220049 35.1650099054 1064.24600624 35.2864537627 1064.24600624Z"
           style="fill:#7f5983;fill-opacity:1" />
        <path
           id="path1039"
           d="M176.311079895 923.042122832C175.657858869 923.695343858 174.841289966 925.744434597 174.32462 928.15355L32.9032637627 1069.57490624C33.4199337284 1067.16579083 34.2365026318 1065.1167001 34.8897236575 1064.46347907Z"
           style="fill:#7f5983;fill-opacity:1" />
        <path
           id="path1041"
           d="M174.32462 928.15355C172.543113614 936.460384868 169.312048439 943.036233003 165.185887184 947.162394257L23.764530947 1088.58375049C27.8906922016 1084.45758924 31.1217573764 1077.88174111 32.9032637627 1069.57490624Z"
           style="fill:#7f5983;fill-opacity:1" />
        <path
           id="path1043"
           d="M165.185887184 947.162394257C162.456762396 949.891519046 159.336054408 951.548964216 155.9842 951.92677L14.5628437627 1093.34812624C17.9146981705 1092.97032045 21.0354061583 1091.31287528 23.764530947 1088.58375049Z"
           style="fill:#7f5983;fill-opacity:1" />
        <path
           id="path1045"
           d="M155.9842 951.92677C153.748279625 952.178792405 152.365404332 952.504105259 151.704497142 953.165012449L10.2831409052 1094.58636869C10.9440480948 1093.9254615 12.3269233874 1093.60014864 14.5628437627 1093.34812624Z"
           style="fill:#7f5983;fill-opacity:1" />
        <path
           id="path1047"
           d="M151.704497142 953.165012449C150.797961005 954.071548586 151.249761147 955.609483755 152.72163 958.45574L11.3002737627 1099.87709624C9.82840490943 1097.03083999 9.37660476765 1095.49290482 10.2831409052 1094.58636869Z"
           style="fill:#7f5983;fill-opacity:1" />
        <path
           id="path1049"
           d="M152.72163 958.45574C154.92473 962.7161 160.09974 964.16755 170.11 963.33273L28.6886437627 1104.75408624C18.6783837627 1105.58890624 13.5033737627 1104.13745624 11.3002737627 1099.87709624Z"
           style="fill:#7f5983;fill-opacity:1" />
        <path
           id="path1051"
           d="M170.11 963.33273C177.64674 962.7042 181.24594 961.91403 200.93683 956.56503L59.5154737627 1097.98638624C39.8245837627 1103.33538624 36.2253837627 1104.12555624 28.6886437627 1104.75408624Z"
           style="fill:#7f5983;fill-opacity:1" />
        <path
           id="path1053"
           d="M200.93683 956.56503C213.7755 953.07743 217.54479 956.16849 217.59452 970.22542L76.1731637627 1111.64677624C76.1234337627 1097.58984624 72.3541437627 1094.49878624 59.5154737627 1097.98638624Z"
           style="fill:#7f5983;fill-opacity:1" />
        <path
           id="path1055"
           d="M217.59452 970.22542C217.625497751 978.965254973 216.140106748 984.205172183 211.549857633 988.795421297L70.1285013958 1130.21677753C74.7187505102 1125.62652842 76.2041415138 1120.38661121 76.1731637627 1111.64677624Z"
           style="fill:#7f5983;fill-opacity:1" />
        <path
           id="path1057"
           d="M211.549857633 988.795421297C209.649870893 990.695408038 207.217934674 992.48408837 204.1414 994.36359L62.7200437627 1135.78494624C65.7965784369 1133.90544461 68.2285146555 1132.11676427 70.1285013958 1130.21677753Z"
           style="fill:#7f5983;fill-opacity:1" />
        <path
           id="path1059"
           d="M204.1414 994.36359C194.34641 1000.3475 183.24132 1002.9337 157.64624 1005.1916L16.2248837627 1146.61295624C41.8199637627 1144.35505624 52.9250537627 1141.76885624 62.7200437627 1135.78494624Z"
           style="fill:#7f5983;fill-opacity:1" />
        <path
           id="path1061"
           d="M157.64624 1005.1916C141.78139 1006.5912 88.40518 1007.1272 76.162059 1006.0098L-65.2592972373 1147.43115624C-53.0161762373 1148.54855624 0.360033762691 1148.01255624 16.2248837627 1146.61295624Z"
           style="fill:#7f5983;fill-opacity:1" />
        <path
           id="path1063"
           d="M101.65266 948.62503C103.181030054 947.829821902 104.607193625 946.749452162 105.926862296 945.429783491L-35.4944939415 1086.85113973C-36.8141626121 1088.1708084 -38.240326183 1089.25117814 -39.7686962373 1090.04638624Z"
           style="fill:#7f5983;fill-opacity:1" />
        <path
           id="path1065"
           d="M105.926862296 945.429783491C119.496661807 931.85998398 121.80626765 892.988012265 108.19314 878.67766L-33.2282162373 1020.09901624C-19.6150885876 1034.4093685 -21.9246944306 1073.28134022 -35.4944939415 1086.85113973Z"
           style="fill:#7f5983;fill-opacity:1" />
        <path
           id="path1067"
           d="M108.19314 878.67766C104.88221 875.19716 103.6259 874.57008 99.963742 874.57008L-41.4576142373 1015.99143624C-37.7954562373 1015.99143624 -36.5391462373 1016.61851624 -33.2282162373 1020.09901624Z"
           style="fill:#7f5983;fill-opacity:1" />
        <path
           id="path1069"
           d="M99.963742 874.57008C96.755206448 874.57008 93.7796429603 875.93953738 91.0667149855 878.652465355L-50.3546412518 1020.07382159C-47.641713277 1017.36089362 -44.6661497893 1015.99143624 -41.4576142373 1015.99143624Z"
           style="fill:#7f5983;fill-opacity:1" />
        <path
           id="path1071"
           d="M91.0667149855 878.652465355C88.9344199682 880.784760372 86.9643700199 883.746994482 85.170968 887.52655L-56.2503882373 1028.94790624C-54.4569862174 1025.16835072 -52.4869362691 1022.20611661 -50.3546412518 1020.07382159Z"
           style="fill:#7f5983;fill-opacity:1" />
        <path
           id="path1073"
           d="M85.170968 887.52655C80.89954 896.52847 79.511801 904.88553 80.064493 918.27782L-61.3568632373 1059.69917624C-61.9095552373 1046.30688624 -60.5218162373 1037.94982624 -56.2503882373 1028.94790624Z"
           style="fill:#7f5983;fill-opacity:1" />
        <path
           id="path1075"
           d="M80.064493 918.27782C80.99719 940.87763 90.599543 954.37598 101.65266 948.62503L-39.7686962373 1090.04638624C-50.8218132373 1095.79733624 -60.4241662373 1082.29898624 -61.3568632373 1059.69917624Z"
           style="fill:#7f5983;fill-opacity:1" />
        <path
           id="path1077"
           d="M92.896145 930.539C89.040864 926.37908 89.257581 918.80585 93.363386 914.21065L-48.0579702373 1055.63200624C-52.1637752373 1060.22720624 -52.3804922373 1067.80043624 -48.5252112373 1071.96035624Z"
           style="fill:#7f5983;fill-opacity:1" />
        <path
           id="path1079"
           d="M93.363386 914.21065C93.6979360023 913.836224095 94.0106950756 913.501224952 94.3101327222 913.201787305L-47.1112235151 1054.62314354C-47.4106611617 1054.92258119 -47.723420235 1055.25758033 -48.0579702373 1055.63200624Z"
           style="fill:#7f5983;fill-opacity:1" />
        <path
           id="path1081"
           d="M94.3101327222 913.201787305C96.2628957849 911.249024243 97.6491104162 910.80866 100.8178 910.80866L-40.6035562373 1052.23001624C-43.7722458211 1052.23001624 -45.1584604525 1052.67038048 -47.1112235151 1054.62314354Z"
           style="fill:#7f5983;fill-opacity:1" />
        <path
           id="path1083"
           d="M100.8178 910.80866C106.84218 910.80866 110.25491 914.64404 110.25491 921.41448L-31.1664462373 1062.83583624C-31.1664462373 1056.06539624 -34.5791762373 1052.23001624 -40.6035562373 1052.23001624Z"
           style="fill:#7f5983;fill-opacity:1" />
        <path
           id="path1085"
           d="M110.25491 921.41448C110.25491 925.437022982 109.697977482 926.738372519 106.688340645 929.748009355L-34.7330155925 1071.16936559C-31.7233787558 1068.15972876 -31.1664462373 1066.85837922 -31.1664462373 1062.83583624Z"
           style="fill:#7f5983;fill-opacity:1" />
        <path
           id="path1087"
           d="M106.688340645 929.748009355C106.68832043 929.74802957 106.688300215 929.748049785 106.68828 929.74807L-34.7330762373 1071.16942624C-34.7330560223 1071.16940602 -34.7330358073 1071.16938581 -34.7330155925 1071.16936559Z"
           style="fill:#7f5983;fill-opacity:1" />
        <path
           id="path1089"
           d="M106.68828 929.74807C106.688275385 929.748074615 106.688270769 929.748079231 106.688266154 929.748083846L-34.7330900831 1071.16944008C-34.7330854678 1071.16943547 -34.7330808526 1071.16943085 -34.7330762373 1071.16942624Z"
           style="fill:#7f5983;fill-opacity:1" />
        <path
           id="path1091"
           d="M106.688266154 929.748083846C102.058169392 934.378180608 96.7369681715 934.683315869 92.896145 930.539L-48.5252112373 1071.96035624C-44.6843880658 1076.10467211 -39.3631868456 1075.79953685 -34.7330900831 1071.16944008Z"
           style="fill:#7f5983;fill-opacity:1" />
        <path
           id="path1093"
           d="M160.60745 944.98277C161.012042581 944.705662219 161.418383927 944.361086286 161.823303475 943.956166737L20.4019472376 1085.37752297C19.9970276893 1085.78244252 19.590686344 1086.12701846 19.1860937627 1086.40412624Z"
           style="fill:#7f5983;fill-opacity:1" />
        <path
           id="path1095"
           d="M161.823303475 943.956166737C165.44614629 940.333323922 168.955174216 931.879972932 170.07959 923.6988L28.6582337627 1065.12015624C27.5338179789 1073.30132917 24.0247900531 1081.75468016 20.4019472376 1085.37752297Z"
           style="fill:#7f5983;fill-opacity:1" />
        <path
           id="path1097"
           d="M170.07959 923.6988C172.58419 905.47497 166.05341 882.73802 156.16558 875.25716L14.7442237627 1016.67851624C24.6320537627 1024.15937624 31.1628337627 1046.89632624 28.6582337627 1065.12015624Z"
           style="fill:#7f5983;fill-opacity:1" />
        <path
           id="path1099"
           d="M156.16558 875.25716C150.615960446 871.058461629 145.25593002 871.338864876 140.853468636 875.74132626L-0.567887601079 1017.1626825C3.83457378282 1012.76022111 9.19460420826 1012.47981787 14.7442237627 1016.67851624Z"
           style="fill:#7f5983;fill-opacity:1" />
        <path
           id="path1101"
           d="M140.853468636 875.74132626C138.721690012 877.873104885 136.814435605 880.971395416 135.2189 884.99566L-6.20245623731 1026.41701624C-4.60692063192 1022.39275165 -2.69966622555 1019.29446112 -0.567887601079 1017.1626825Z"
           style="fill:#7f5983;fill-opacity:1" />
        <path
           id="path1103"
           d="M135.2189 884.99566C133.28195 889.88107 132.89791 892.96203 132.85724 903.94241L-8.56411623731 1045.36376624C-8.52344623731 1034.38338624 -8.13940623731 1031.30242624 -6.20245623731 1026.41701624Z"
           style="fill:#7f5983;fill-opacity:1" />
        <path
           id="path1105"
           d="M132.85724 903.94241C132.80534 917.96386 133.92676 923.84929 138.3444 932.73895L-3.07695623731 1074.16030624C-7.49459623731 1065.27064624 -8.61601623731 1059.38521624 -8.56411623731 1045.36376624Z"
           style="fill:#7f5983;fill-opacity:1" />
        <path
           id="path1107"
           d="M138.3444 932.73895C142.31442 940.72783 145.01988 943.92138 149.59283 946.01668L8.17147376269 1087.43803624C3.59852376269 1085.34273624 0.893063762691 1082.14918624 -3.07695623731 1074.16030624Z"
           style="fill:#7f5983;fill-opacity:1" />
        <path
           id="path1109"
           d="M149.59283 946.01668C154.07142 948.06873 156.42422 947.84789 160.60745 944.98277L19.1860937627 1086.40412624C15.0028637627 1089.26924624 12.6500637627 1089.49008624 8.17147376269 1087.43803624Z"
           style="fill:#7f5983;fill-opacity:1" />
        <path
           id="path1111"
           d="M146.62627 931.17124C142.9875 928.30898 142.16097 923.35081 144.39277 917.773L2.97141376269 1059.19435624C0.739613762691 1064.77216624 1.56614376269 1069.73033624 5.20491376269 1072.59259624Z"
           style="fill:#7f5983;fill-opacity:1" />
        <path
           id="path1113"
           d="M144.39277 917.773C145.3068914 915.488388912 146.496501094 913.619145236 147.900743718 912.214902612L6.47938748066 1053.63625885C5.07514485694 1055.04050147 3.88553516285 1056.90974515 2.97141376269 1059.19435624Z"
           style="fill:#7f5983;fill-opacity:1" />
        <path
           id="path1115"
           d="M147.900743718 912.214902612C149.873194647 910.242451683 152.269117348 909.18745 154.91986 909.18745L13.4985037627 1050.60880624C10.847761111 1050.60880624 8.45183840983 1051.66380792 6.47938748066 1053.63625885Z"
           style="fill:#7f5983;fill-opacity:1" />
        <path
           id="path1117"
           d="M154.91986 909.18745C163.412771723 909.18745 164.579487525 922.942250513 157.892579287 929.629158751L16.4712230497 1071.05051499C23.1581312878 1064.36360675 21.9914154852 1050.60880624 13.4985037627 1050.60880624Z"
           style="fill:#7f5983;fill-opacity:1" />
        <path
           id="path1119"
           d="M157.892579287 929.629158751C157.17957859 930.342159448 156.37728862 930.974803998 155.48507 931.50185L14.0637137627 1072.92320624C14.9559323831 1072.39616024 15.7582223531 1071.76351569 16.4712230497 1071.05051499Z"
           style="fill:#7f5983;fill-opacity:1" />
        <path
           id="path1121"
           d="M155.48507 931.50185C151.51872 933.84484 149.95082 933.78631 146.62627 931.17124L5.20491376269 1072.59259624C8.52946376269 1075.20766624 10.0973637627 1075.26619624 14.0637137627 1072.92320624Z"
           style="fill:#7f5983;fill-opacity:1" />
        <path
           id="path1123"
           d="M78.675009 890.37484C80.9636888433 884.097917818 84.146695893 878.935777804 87.7691162273 875.31335747L-53.65224001 1016.73471371C-57.2746603443 1020.35713404 -60.457667394 1025.51927406 -62.7463472373 1031.79619624Z"
           style="fill:#7f5983;fill-opacity:1" />
        <path
           id="path1125"
           d="M87.7691162273 875.31335747C91.8348921636 871.247581533 96.4542251403 869.121489031 100.98389 869.53592L-40.4374662373 1010.95727624C-44.967131097 1010.54284527 -49.5864640737 1012.66893777 -53.65224001 1016.73471371Z"
           style="fill:#7f5983;fill-opacity:1" />
        <path
           id="path1127"
           d="M100.98389 869.53592C102.984838383 869.71899283 103.961375105 869.765637834 104.776211067 868.950801873L-36.6451451707 1010.37215811C-37.4599811322 1011.18699407 -38.4365178545 1011.14034907 -40.4374662373 1010.95727624Z"
           style="fill:#7f5983;fill-opacity:1" />
        <path
           id="path1129"
           d="M104.776211067 868.950801873C105.484823736 868.242189203 106.071146808 866.882063459 107.10257 864.39357L-34.3187862373 1005.81492624C-35.3502094292 1008.3034197 -35.9365325015 1009.66354544 -36.6451451707 1010.37215811Z"
           style="fill:#7f5983;fill-opacity:1" />
        <path
           id="path1131"
           d="M107.10257 864.39357C108.484030023 861.060551993 110.199033604 858.421947167 112.121160722 856.499820049L-29.3001955153 997.921176287C-31.2223226329 999.843303404 -32.9373262138 1002.48190823 -34.3187862373 1005.81492624Z"
           style="fill:#7f5983;fill-opacity:1" />
        <path
           id="path1133"
           d="M112.121160722 856.499820049C118.095427086 850.525553686 126.07063501 851.472905444 132.25081 860.0044L-9.17054623731 1001.42575624C-15.3507212274 992.894261682 -23.3259291518 991.946909923 -29.3001955153 997.921176287Z"
           style="fill:#7f5983;fill-opacity:1" />
        <path
           id="path1135"
           d="M132.25081 860.0044C133.94059 862.33707 135.84808 865.83623 136.48969 867.78029L-4.93166623731 1009.20164624C-5.57327623731 1007.25758624 -7.48076623731 1003.75842624 -9.17054623731 1001.42575624Z"
           style="fill:#7f5983;fill-opacity:1" />
        <path
           id="path1137"
           d="M136.48969 867.78029L137.65624 871.31497L-3.76511623731 1012.73632624L-4.93166623731 1009.20164624Z"
           style="fill:#7f5983;fill-opacity:1" />
        <path
           id="path1139"
           d="M137.65624 871.31497L141.00201 869.27492L-0.419346237309 1010.69627624L-3.76511623731 1012.73632624Z"
           style="fill:#7f5983;fill-opacity:1" />
        <path
           id="path1141"
           d="M141.00201 869.27492C144.94303 866.87192 151.17277 866.62499 155.15224 868.71407L13.7308837627 1010.13542624C9.75141376269 1008.04634624 3.52167376269 1008.29327624 -0.419346237309 1010.69627624Z"
           style="fill:#7f5983;fill-opacity:1" />
        <path
           id="path1143"
           d="M155.15224 868.71407C159.00768 870.73803 165.14163 877.34675 167.88994 882.43767L26.4685837627 1023.85902624C23.7202737627 1018.76810624 17.5863237627 1012.15938624 13.7308837627 1010.13542624Z"
           style="fill:#7f5983;fill-opacity:1" />
        <path
           id="path1145"
           d="M167.88994 882.43767L170.15515 886.63372L28.7337937627 1028.05507624L26.4685837627 1023.85902624Z"
           style="fill:#7f5983;fill-opacity:1" />
        <path
           id="path1147"
           d="M170.15515 886.63372L169.56071 882.96218L28.1393537627 1024.38353624L28.7337937627 1028.05507624Z"
           style="fill:#7f5983;fill-opacity:1" />
        <path
           id="path1149"
           d="M169.56071 882.96218C168.49169 876.35948 163.86991 868.60888 157.46643 862.68038L16.0450737627 1004.10173624C22.4485537627 1010.03023624 27.0703337627 1017.78083624 28.1393537627 1024.38353624Z"
           style="fill:#7f5983;fill-opacity:1" />
        <path
           id="path1151"
           d="M157.46643 862.68038C136.533250307 843.299955616 105.66141924 846.331775828 88.1386014894 863.854593579L-53.2827547479 1005.27594982C-35.7599369972 987.753132066 -4.8881059306 984.721311854 16.0450737627 1004.10173624Z"
           style="fill:#7f5983;fill-opacity:1" />
        <path
           id="path1153"
           d="M88.1386014894 863.854593579C81.2615925808 870.731602488 76.4406657718 879.840587643 75.08353 890.70272L-66.3378262373 1032.12407624C-64.9806904655 1021.26194388 -60.1597636565 1012.15295872 -53.2827547479 1005.27594982Z"
           style="fill:#7f5983;fill-opacity:1" />
        <path
           id="path1155"
           d="M75.08353 890.70272C74.4999705735 895.373374606 74.8622138598 897.19030772 75.8717427181 896.180778861L-65.5496135192 1037.6021351C-66.5591423775 1038.61166396 -66.9213856638 1036.79473084 -66.3378262373 1032.12407624Z"
           style="fill:#7f5983;fill-opacity:1" />
        <path
           id="path1157"
           d="M75.8717427181 896.180778861C76.5466198474 895.505901732 77.510769958 893.567874122 78.675009 890.37484L-62.7463472373 1031.79619624C-63.9105862793 1034.98923036 -64.87473639 1036.92725797 -65.5496135192 1037.6021351Z"
           style="fill:#7f5983;fill-opacity:1" />
      </g>
      <path
         style="fill:#7f5983;stroke-width:1.04901099;fill-opacity:1"
         d="m 76.162059,1006.0098 c -16.700406,-1.524 -31.654799,-5.7404 -37.346561,-10.52967 -4.554813,-3.83261 -5.195129,-6.3138 -4.102256,-15.89595 1.676808,-14.70209 3.983111,-16.08632 21.894831,-13.14104 16.731234,2.75116 41.157339,2.8187 46.086577,0.12743 1.89991,-1.03731 3.90943,-3.08293 4.46561,-4.54583 1.29713,-3.41169 -0.23608,-9.45403 -2.26122,-8.91141 -10.025296,2.68622 -13.776065,1.84787 -19.496069,-4.35762 -2.25952,-2.45129 -5.027053,-6.68202 -6.15006,-9.4016 l -2.04184,-4.9447 -5.769563,0.58926 c -3.173262,0.32409 -6.342273,0.76438 -7.04224,0.97844 -0.74693,0.22839 -1.499722,-0.99952 -1.822258,-2.97237 -0.600762,-3.67463 -3.723639,-31.47203 -3.723639,-33.1449 0,-0.56971 1.702599,-1.18236 3.783546,-1.36143 l 3.783536,-0.32557 0.441681,-6.29406 c 0.543863,-7.75039 3.692151,-17.60061 7.580218,-23.71663 7.06981,-11.121 20.93236,-21.02785 34.293908,-24.5081 7.89485,-2.05634 22.42216,-2.05493 30.32287,0.003 17.9341,4.67123 33.3022,18.92496 38.13373,35.36857 1.68037,5.71891 1.94662,6.03181 5.13404,6.03318 2.97842,10e-4 3.42542,0.3902 3.92028,3.41074 0.50816,3.10194 3.73257,31.37711 3.73257,32.73144 0,0.31606 -1.19494,0.57466 -2.65544,0.57466 -3.34127,0 -4.25577,2.27163 -2.56132,6.36238 1.66426,4.01786 5.2007,5.83756 15.4326,7.9409 9.98212,2.05201 12.16561,3.15554 17.89611,9.04464 4.01654,4.12772 4.3266,4.78554 2.83802,6.02095 -1.43248,1.18886 -2.22627,0.86809 -5.5582,-2.24619 -6.07998,-5.68282 -6.52926,-5.89971 -16.91812,-8.16712 -12.02477,-2.62444 -16.05012,-5.36298 -18.65231,-12.68958 -1.0191,-2.86933 -2.41107,-5.21697 -3.09328,-5.21697 -0.68218,0 -1.75462,2.39802 -2.38319,5.3289 -2.95983,13.80114 -9.9209,22.82421 -18.34042,23.77322 -5.30283,0.59771 -5.8075,1.60766 -3.26257,6.52897 2.2031,4.26036 7.37811,5.71181 17.38837,4.87699 7.53674,-0.62853 11.13594,-1.4187 30.82683,-6.7677 12.83867,-3.4876 16.60796,-0.39654 16.65769,13.66039 0.0438,12.35741 -2.94387,17.71791 -13.45312,24.13817 -9.79499,5.98391 -20.90008,8.57011 -46.49516,10.82801 -15.86485,1.3996 -69.24106,1.9356 -81.484181,0.8182 z m 25.490601,-57.38477 c 17.24419,-8.97212 21.47749,-54.24533 6.54048,-69.94737 -3.31093,-3.4805 -4.56724,-4.10758 -8.229398,-4.10758 -5.730366,0 -10.717619,4.36817 -14.792774,12.95647 -4.271428,9.00192 -5.659167,17.35898 -5.106475,30.75127 0.932697,22.59981 10.53505,36.09816 21.588167,30.34721 z M 92.896145,930.539 c -3.855281,-4.15992 -3.638564,-11.73315 0.467241,-16.32835 2.516296,-2.81622 3.799836,-3.40199 7.454414,-3.40199 6.02438,0 9.43711,3.83538 9.43711,10.60582 0,4.02257 -0.55694,5.32391 -3.56663,8.33359 -4.6301,4.63011 -9.951308,4.93525 -13.792135,0.79093 z m 67.711305,14.44377 c 4.02451,-2.75641 8.22205,-12.1884 9.47214,-21.28397 2.5046,-18.22383 -4.02618,-40.96078 -13.91401,-48.44164 -8.23688,-6.23181 -16.05611,-2.59651 -20.94668,9.7385 -1.93695,4.88541 -2.32099,7.96637 -2.36166,18.94675 -0.0519,14.02145 1.06952,19.90688 5.48716,28.79654 3.97002,7.98888 6.67548,11.18243 11.24843,13.27773 4.47859,2.05205 6.83139,1.83121 11.01462,-1.03391 z m -13.98118,-13.81153 c -3.63877,-2.86226 -4.4653,-7.82043 -2.2335,-13.39824 2.19813,-5.49366 5.98921,-8.58555 10.52709,-8.58555 9.39848,0 9.82514,16.84443 0.56521,22.3144 -3.96635,2.34299 -5.53425,2.28446 -8.8588,-0.33061 z m -67.951261,-40.7964 c 4.857476,-13.32209 13.743492,-21.62259 22.308881,-20.83892 3.74105,0.34228 3.90122,0.20767 6.11868,-5.14235 5.67525,-13.69255 16.97969,-15.66554 25.14824,-4.38917 1.68978,2.33267 3.59727,5.83183 4.23888,7.77589 l 1.16655,3.53468 3.34577,-2.04005 c 3.94102,-2.403 10.17076,-2.64993 14.15023,-0.56085 3.85544,2.02396 9.98939,8.63268 12.7377,13.7236 l 2.26521,4.19605 -0.59444,-3.67154 c -1.06902,-6.6027 -5.6908,-14.3533 -12.09428,-20.2818 -29.14862,-26.98647 -77.567743,-10.51682 -82.3829,28.02234 -0.973673,7.79302 0.685689,7.64152 3.591479,-0.32788 z"
         id="path938"
         inkscape:connector-curvature="0" />
    </g>
    <path
       style="fill:#ffffff;fill-opacity:1;stroke:none;stroke-width:0.1066667;stroke-linecap:round;stroke-linejoin:round;stroke-miterlimit:4;stroke-dasharray:none;stroke-opacity:1"
       d="M 108.73828,82.056641 C 95.632452,81.741961 82.991055,108.2978 86.861328,135.29688 c 1.308673,9.12932 4.763875,18.68524 8.238281,22.7871 4.776576,5.63922 11.514471,7.06628 16.824221,3.56446 9.38766,-6.19128 15.47221,-22.23689 15.5039,-40.89063 0.0271,-15.91916 -3.5891,-27.7727 -10.61328,-34.796872 -2.61667,-2.616672 -5.35609,-3.838987 -8.07617,-3.904297 z"
       transform="matrix(0.93749971,0,0,0.93749971,0,796.36191)"
       id="path4412" />
    <path
       style="fill:#ffffff;fill-opacity:1;stroke:none;stroke-width:0.1066667;stroke-linecap:round;stroke-linejoin:round;stroke-miterlimit:4;stroke-dasharray:none;stroke-opacity:1"
       d="m 160.30078,79.742188 c -1.37886,0.06105 -2.77955,0.468025 -4.30469,1.195312 -19.64289,9.367054 -16.472,65.57051 4.41797,78.30859 4.31628,2.63194 7.81861,2.72608 11.89453,0.31836 17.26155,-10.19664 15.84987,-58.62776 -2.18359,-74.919919 -3.86872,-3.495163 -6.79073,-5.036649 -9.82422,-4.902343 z"
       transform="matrix(0.93749971,0,0,0.93749971,0,796.36191)"
       id="path4414" />
    <path
       style="fill:#ffffff;fill-opacity:1;stroke:#ffffff;stroke-width:5.8190608;stroke-linecap:round;stroke-linejoin:round;stroke-miterlimit:4;stroke-dasharray:none;stroke-opacity:1"
       d="m 122.88386,855.4869 c -3.33063,0 -9.07096,6.11714 -10.63294,11.33056 -1.28813,4.29942 -1.24198,4.46266 2.39868,8.49243 12.5363,13.87619 12.89478,50.68912 0.65736,67.58237 -3.16502,4.36918 -3.17861,4.44329 -1.89698,10.89115 1.12528,5.6612 1.06589,6.9266 -0.45776,9.873 -0.98325,1.9014 -3.69337,4.4204 -6.19812,5.7587 -4.1357,2.2097 -5.72102,2.3741 -22.344363,2.3218 -12.324333,-0.039 -20.949363,-0.6263 -27.709342,-1.8879 -5.398014,-1.0073 -10.711879,-1.5473 -11.808468,-1.1993 -4.127021,1.3099 -5.929296,18.5852 -2.283324,21.8848 5.039743,4.5609 19.356599,8.37989 38.117053,10.16599 12.564774,1.1961 63.736224,0.5384 80.518784,-1.0346 31.17814,-2.92239 48.47355,-9.34869 52.75816,-19.60319 1.6992,-4.0668 1.92868,-16.4577 0.35889,-19.3909 -1.45269,-2.7144 -5.00522,-2.5843 -14.79859,0.5438 -19.63049,6.2702 -38.4304,7.475 -44.88829,2.8766 -3.26193,-2.3227 -4.91741,-5.5455 -5.9674,-11.6162 -0.34258,-1.98072 -1.76801,-4.43904 -3.25012,-5.60487 -10.92283,-8.59188 -18.17277,-33.20585 -15.45044,-52.45603 0.67061,-4.74199 2.47272,-11.41457 4.00452,-14.82788 2.77145,-6.1756 2.77695,-6.22853 0.94665,-11.02111 -2.27899,-5.96745 -8.84457,-13.07922 -12.07396,-13.07922 z"
       id="path4416"
       inkscape:connector-curvature="0" />
    <path
       style="fill:#383838;fill-opacity:1;stroke-width:1.05254483"
       d="m 93.104082,952.20852 c -4.409553,-1.95985 -7.312018,-5.40876 -10.605019,-12.60161 l -2.832554,-6.18713 -7.083792,0.65836 -7.083792,0.65838 -1.199059,-10.78258 c -2.633205,-23.67937 -2.651056,-24.08974 -1.090752,-25.0776 0.811937,-0.51406 2.541962,-0.9419 3.844479,-0.95077 2.124087,-0.0145 2.368233,-0.53586 2.368233,-5.0577 0,-29.31688 29.920535,-54.23921 61.663614,-51.36272 14.54338,1.31788 26.52734,6.91943 36.07477,16.86208 6.62905,6.90347 10.87968,14.19696 12.86199,22.06939 1.20005,4.76588 1.31618,4.87262 4.62553,4.25179 l 3.39457,-0.63683 1.24176,10.87598 c 0.68297,5.98179 1.53429,14.30991 1.89181,18.50693 l 0.65006,7.63095 h -3.31208 c -3.73508,0 -3.94148,0.66633 -1.79661,5.79975 2.0656,4.94366 6.46591,7.33248 17.42951,9.462 8.60023,1.67045 9.69197,2.17977 14.80862,6.90838 4.61447,4.26453 5.30894,5.36397 4.21833,6.67807 -1.12771,1.3588 -1.79986,1.07876 -4.9345,-2.05586 -5.49436,-5.49436 -7.53369,-6.47267 -17.24926,-8.2749 -4.92065,-0.91277 -10.13075,-2.53586 -11.578,-3.60688 -3.66693,-2.71367 -7.36781,-8.43104 -7.36781,-11.38231 0,-1.90765 -0.57635,-2.47571 -2.51185,-2.47571 -2.1972,0 -2.59904,0.62628 -3.20791,4.99959 -0.98789,7.09577 -6.34753,17.61967 -10.64131,20.89468 -5.42358,4.13676 -12.81141,4.26579 -18.18027,0.31749 -10.75537,-7.9096 -17.15618,-24.53095 -17.18729,-44.63129 -0.0289,-18.60936 4.84812,-30.65404 14.25597,-35.2083 8.48156,-4.10586 17.77069,0.17282 23.88112,10.99988 4.07244,7.21598 5.75782,8.47646 4.79252,3.58432 -1.05248,-5.33401 -5.35472,-13.57744 -9.79086,-18.76007 -17.57744,-20.53528 -53.45971,-21.57629 -72.901616,-2.11503 -6.045517,6.05155 -9.476511,11.52845 -11.669218,18.62761 -3.903815,12.63911 -1.890618,22.05642 2.164684,10.12592 5.138251,-15.11647 11.946798,-21.70164 22.35445,-21.62102 4.63672,0.0359 5.7633,0.51281 9.24669,3.91424 8.18491,7.99235 12.04792,21.56163 11.21647,39.39908 -0.62306,13.36649 -3.31606,22.538 -9.20891,31.36262 -5.88316,8.81009 -13.58675,11.74131 -21.552718,8.20082 z M 105.211,947.90396 c 4.00066,-2.06882 8.57266,-8.85734 11.69557,-17.36561 2.23011,-6.07589 2.50493,-8.54956 2.45565,-22.10345 -0.0601,-16.51986 -1.04424,-20.87583 -6.49683,-28.75509 -5.22002,-7.54316 -11.15147,-8.84604 -17.927106,-3.9378 -10.717538,7.76374 -16.574573,32.18763 -12.419697,51.79024 3.717084,17.53715 12.655894,25.56181 22.692413,20.37171 z m -8.7682,-17.41122 c -2.917779,-2.29513 -4.513561,-7.75244 -3.47588,-11.88689 1.086058,-4.3272 5.765908,-8.06586 10.0964,-8.06586 9.89036,0 12.72653,14.68066 3.87848,20.07588 -4.25062,2.59186 -7.08976,2.55858 -10.499,-0.12313 z m 65.61431,15.30164 c 11.8573,-6.13164 15.29284,-37.75277 6.31488,-58.1227 -11.1565,-25.31276 -29.14046,-21.77397 -33.71436,6.63412 -2.51779,15.63787 2.59938,37.55281 10.8893,46.63488 5.58541,6.1191 10.99042,7.70809 16.51018,4.8537 z m -13.81477,-16.42894 c -1.87937,-1.87937 -2.15012,-3.13393 -1.74098,-8.0675 0.42126,-5.07983 0.98426,-6.30008 4.31508,-9.35255 4.66207,-4.27247 8.18872,-4.50558 11.15294,-0.73719 2.53937,3.22828 2.81461,8.40955 0.71385,13.4374 -2.80002,6.7014 -10.07997,9.08076 -14.44089,4.71984 z"
       id="path3580"
       inkscape:connector-curvature="0" />
  </g>
</svg>
