<?xml version="1.0" encoding="UTF-8" standalone="no"?>
<!-- Created with Inkscape (http://www.inkscape.org/) -->

<svg
   xmlns:dc="http://purl.org/dc/elements/1.1/"
   xmlns:cc="http://creativecommons.org/ns#"
   xmlns:rdf="http://www.w3.org/1999/02/22-rdf-syntax-ns#"
   xmlns:svg="http://www.w3.org/2000/svg"
   xmlns="http://www.w3.org/2000/svg"
   xmlns:sodipodi="http://sodipodi.sourceforge.net/DTD/sodipodi-0.dtd"
   xmlns:inkscape="http://www.inkscape.org/namespaces/inkscape"
   sodipodi:docname="gthumb.svg"
   inkscape:version="0.92.1 r"
   version="1.1"
   id="svg2"
   viewBox="0 0 256 256"
   height="256"
   width="256">
  <sodipodi:namedview
     inkscape:window-maximized="1"
     inkscape:window-y="0"
     inkscape:window-x="0"
     inkscape:window-height="1054"
     inkscape:window-width="1920"
     units="px"
     showgrid="true"
     inkscape:current-layer="layer1"
     inkscape:document-units="px"
     inkscape:cy="128"
     inkscape:cx="127.70023"
     inkscape:zoom="3.3359375"
     inkscape:pageshadow="2"
     inkscape:pageopacity="0.0"
     borderopacity="1.0"
     bordercolor="#666666"
     pagecolor="#ffffff"
     id="base">
    <inkscape:grid
       spacingy="5"
       spacingx="5"
       id="grid4168"
       type="xygrid" />
  </sodipodi:namedview>
  <defs
     id="defs4">
    <clipPath
       id="clipPath5002"
       clipPathUnits="userSpaceOnUse">
      <g
         id="g5004">
        <path
           style="fill:#0f9d58;fill-opacity:1;stroke:none;stroke-width:4.85768509;stroke-linejoin:round;stroke-miterlimit:4;stroke-dasharray:none;stroke-opacity:1"
           d="M 88.118406,249.43519 C 46.103287,235.29134 14.771284,201.68742 4.1335861,159.36053 1.3377997,148.23623 0.92261224,144.16281 0.92582381,127.88908 0.92787958,117.47222 1.134384,112.01362 1.6577819,108.54099 4.4653598,89.913336 12.17654,70.638106 23.042737,55.086148 c 3.958678,-5.665755 8.344812,-10.93092 9.101533,-10.925587 0.32809,0.0023 10.488643,18.309713 22.579009,40.683112 12.090365,22.373397 22.374546,41.334697 22.853732,42.136217 0.479186,0.80151 0.924733,2.44098 0.990103,3.64326 0.343424,6.31639 2.524175,14.20976 5.6424,20.42304 2.954444,5.88693 5.065381,8.73258 10.434696,14.06652 6.71418,6.66995 12.88853,10.28643 21.73204,12.72904 3.16587,0.87442 5.10478,1.05037 11.57517,1.05037 8.82596,0 12.60219,-0.76201 19.26429,-3.88733 2.04584,-0.95974 3.93661,-1.66536 4.20172,-1.56805 0.2651,0.0973 -11.0555,17.66459 -25.1569,39.0384 l -25.6389,38.86148 -3.094121,0.11221 c -2.554618,0.0927 -4.195204,-0.25845 -9.409103,-2.01364 z"
           id="path5006"
           inkscape:connector-curvature="0"
           transform="translate(0,796.36216)" />
        <path
           style="fill:#f4b400;fill-opacity:1;stroke:none;stroke-width:4.85768509;stroke-linejoin:round;stroke-miterlimit:4;stroke-dasharray:none;stroke-opacity:1"
           d="m 112.35984,1051.5167 c -10.0014,-1.4495 -12.15632,-1.8201 -12.531784,-2.1556 -0.248854,-0.2223 1.738304,-3.7475 4.550294,-8.0722 7.16635,-11.0213 49.77231,-74.64801 50.25856,-75.05489 3.57509,-2.99158 8.63523,-8.0414 10.57512,-10.55356 3.36154,-4.35318 7.55784,-12.9141 9.06523,-18.494 6.19314,-22.92535 -2.59253,-47.15185 -21.69967,-59.83688 l -2.96081,-1.96565 17.02469,0.29584 c 9.36358,0.1627 31.17032,0.43384 48.45941,0.60252 l 31.43471,0.30668 1.54584,4.18869 c 2.24597,6.08579 4.67816,15.0947 5.93451,21.9816 1.52517,8.36049 1.92536,28.85896 0.73851,37.82758 -3.0805,23.27845 -12.81326,45.72018 -27.80202,64.10577 -20.47622,25.1166 -51.4599,42.1974 -84.14612,46.3885 -5.31244,0.6812 -26.64601,0.9864 -30.44647,0.4356 z"
           id="path5008"
           inkscape:connector-curvature="0" />
        <path
           style="fill:#db4437;fill-opacity:1;stroke:none;stroke-width:10;stroke-linejoin:round;stroke-miterlimit:4;stroke-dasharray:none;stroke-opacity:1"
           d="M 67.989788,108.87302 C 41.284246,59.575543 33.290284,45.149038 32.233625,44.344765 31.651257,43.901497 32.811213,42.549931 38.695603,36.815353 53.43581,22.450419 68.809334,13.040746 87.839196,6.7360352 101.68742,2.1480329 112.58238,0.43719165 127.95142,0.43719165 c 21.3099,0 37.80488,3.80960275 56.83492,13.12633035 25.29351,12.383198 46.19421,33.578863 58.51993,59.345832 1.61138,3.368591 2.92978,6.372442 2.92978,6.675231 0,0.560033 -10.54865,0.49527 -71.16508,-0.436914 l -24.28843,-0.373518 -3.93063,-1.764495 c -6.75732,-3.033425 -10.64587,-3.839529 -18.6576,-3.867747 -5.0296,-0.01773 -7.97946,0.207636 -10.31642,0.788106 -14.50826,3.603659 -26.283291,12.94777 -33.291614,26.418653 -3.58502,6.89086 -5.24713,13.08166 -6.331628,23.58317 l -0.33738,3.26696 -9.92748,-18.32578 z"
           id="path5010"
           inkscape:connector-curvature="0"
           transform="translate(0,796.36216)" />
      </g>
    </clipPath>
    <clipPath
       clipPathUnits="userSpaceOnUse"
       id="clipPath4271">
      <circle
         style="fill:#292929;fill-opacity:0.26020412;stroke:none;stroke-width:10;stroke-linejoin:round;stroke-miterlimit:4;stroke-dasharray:none;stroke-opacity:0.25882353"
         id="circle4273"
         cx="128"
         cy="128.00002"
         r="128" />
    </clipPath>
    <clipPath
       id="clipPath4363"
       clipPathUnits="userSpaceOnUse">
      <circle
         style="fill:#4285f4;fill-opacity:1;stroke:none;stroke-width:10;stroke-linejoin:round;stroke-miterlimit:4;stroke-dasharray:none;stroke-opacity:0.25882353"
         id="circle4365"
         cx="128"
         cy="924.36218"
         r="128" />
    </clipPath>
    <clipPath
       clipPathUnits="userSpaceOnUse"
       id="clipPath4452">
      <circle
         style="fill:#4285f4;fill-opacity:1;stroke:none;stroke-width:10;stroke-linejoin:round;stroke-miterlimit:4;stroke-dasharray:none;stroke-opacity:0.25882353"
         id="circle4454"
         cx="128"
         cy="924.36218"
         r="128" />
    </clipPath>
    <clipPath
       id="clipPath4954"
       clipPathUnits="userSpaceOnUse">
      <circle
         style="fill:#f16529;fill-opacity:1;stroke:none;stroke-width:10;stroke-linejoin:round;stroke-miterlimit:4;stroke-dasharray:none;stroke-opacity:0.25882353"
         id="circle4956"
         cx="128"
         cy="924.36218"
         r="128" />
    </clipPath>
    <clipPath
       clipPathUnits="userSpaceOnUse"
       id="clipPath5071">
      <circle
         style="fill:#0f9d58;fill-opacity:1;stroke:none;stroke-width:10;stroke-linejoin:round;stroke-miterlimit:4;stroke-dasharray:none;stroke-opacity:0.25882353"
         id="circle5073"
         cx="132.21979"
         cy="933.98254"
         r="99.306747" />
    </clipPath>
    <clipPath
       id="clipPath6641"
       clipPathUnits="userSpaceOnUse">
      <circle
         style="fill:#62d1f9;fill-opacity:1;stroke:none;stroke-width:10;stroke-linejoin:round;stroke-miterlimit:4;stroke-dasharray:none;stroke-opacity:0.25882353"
         id="circle6643"
         cx="128.0004"
         cy="918.68585"
         r="128" />
    </clipPath>
    <clipPath
       clipPathUnits="userSpaceOnUse"
       id="clipPath7343">
      <circle
         style="fill:#62d1f9;fill-opacity:1;stroke:none;stroke-width:10;stroke-linejoin:round;stroke-miterlimit:4;stroke-dasharray:none;stroke-opacity:0.25882353"
         id="circle7345"
         cx="126.88464"
         cy="924.20221"
         r="128" />
    </clipPath>
    <clipPath
       id="clipPath5934"
       clipPathUnits="userSpaceOnUse">
      <circle
         style="fill:#62d1f9;fill-opacity:1;stroke:none;stroke-width:10;stroke-linejoin:round;stroke-miterlimit:4;stroke-dasharray:none;stroke-opacity:0.25882353"
         id="circle5936"
         cx="128"
         cy="924.36218"
         r="128" />
    </clipPath>
    <clipPath
       clipPathUnits="userSpaceOnUse"
       id="clipPath4905">
      <circle
         style="fill:#ff9e50;fill-opacity:1;stroke:none;stroke-width:10;stroke-linejoin:round;stroke-miterlimit:4;stroke-dasharray:none;stroke-opacity:0.25882353"
         id="circle4907"
         cx="128"
         cy="128.00002"
         r="128" />
    </clipPath>
  </defs>
  <metadata
     id="metadata7">
    <rdf:RDF>
      <cc:Work
         rdf:about="">
        <dc:format>image/svg+xml</dc:format>
        <dc:type
           rdf:resource="http://purl.org/dc/dcmitype/StillImage" />
        <dc:title />
      </cc:Work>
    </rdf:RDF>
  </metadata>
  <g
     inkscape:label="Layer 1"
     inkscape:groupmode="layer"
     id="layer1"
     transform="translate(0,-796.36216)">
    <path
       style="fill:none;fill-rule:evenodd;stroke:none;stroke-width:1px;stroke-linecap:butt;stroke-linejoin:miter;stroke-opacity:1"
       d="M 154.47438,968.80998 101.03985,1048.476 0.4857685,1048.9618 0,842.0244 l 33.032258,-2.42884 45.176471,83.55218 21.373814,35.4611 26.717267,13.11575 z"
       id="path4913"
       inkscape:connector-curvature="0" />
    <circle
       r="128"
       cy="924.36218"
       cx="128"
       id="path4152"
       style="fill:#ff9e50;fill-opacity:1;stroke:none;stroke-width:10;stroke-linejoin:round;stroke-miterlimit:4;stroke-dasharray:none;stroke-opacity:0.25882353" />
    <g
       id="g4833"
       transform="translate(0,796.36216)"
       style="fill:#bc4e19;fill-opacity:1"
       clip-path="url(#clipPath4905)">
      <g
         id="g4830"
         style="opacity:1;fill:#bc4e19;fill-opacity:1;stroke:none;stroke-width:6.36226845;stroke-miterlimit:4;stroke-dasharray:none;stroke-opacity:1">
        <path
           id="path4784"
           d="M98.615234 54.0C97.2097109779 54.0 96.001969188 54.6084720174 95.0333498447 55.5770913607L-46.3880063926 196.998447598C-45.4193870493 196.029828255 -44.2116452594 195.421356237 -42.8061222373 195.421356237Z"
           style="fill:#bc4e19;fill-opacity:1" />
        <path
           id="path4786"
           d="M95.0333498447 55.5770913607C93.6560260375 56.954415168 92.7621907642 59.059931184 92.470703 61.179688L-48.9506532373 202.601044237C-48.6591654731 200.481287421 -47.7653301999 198.375771405 -46.3880063926 196.998447598Z"
           style="fill:#bc4e19;fill-opacity:1" />
        <path
           id="path4788"
           d="M92.470703 61.179688L90.294922 77.0L-51.1264342373 218.421356237L-48.9506532373 202.601044237Z"
           style="fill:#bc4e19;fill-opacity:1" />
        <path
           id="path4790"
           d="M90.294922 77.0L83.5 77.0L-57.9213562373 218.421356237L-51.1264342373 218.421356237Z"
           style="fill:#bc4e19;fill-opacity:1" />
        <path
           id="path4792"
           d="M83.5 77.0L83.5 68.0L-57.9213562373 209.421356237L-57.9213562373 218.421356237Z"
           style="fill:#bc4e19;fill-opacity:1" />
        <path
           id="path4794"
           d="M83.5 68.0L53.5 68.0L-87.9213562373 209.421356237L-57.9213562373 209.421356237Z"
           style="fill:#bc4e19;fill-opacity:1" />
        <path
           id="path4796"
           d="M53.5 68.0L53.5 77.0L-87.9213562373 218.421356237L-87.9213562373 209.421356237Z"
           style="fill:#bc4e19;fill-opacity:1" />
        <path
           id="path4798"
           d="M53.5 77.0L47.5 77.0L-93.9213562373 218.421356237L-87.9213562373 218.421356237Z"
           style="fill:#bc4e19;fill-opacity:1" />
        <path
           id="path4800"
           d="M47.5 77.0C43.5636903684 77.0 39.9908652078 78.5010832493 37.3203870972 80.9643871687L-104.10096914 222.385743406C-101.43049103 219.922439487 -97.8576658689 218.421356237 -93.9213562373 218.421356237Z"
           style="fill:#bc4e19;fill-opacity:1" />
        <path
           id="path4802"
           d="M37.3203870972 80.9643871687C34.3531891967 83.7013915235 32.5 87.6263226316 32.5 92.0L-108.921356237 233.421356237C-108.921356237 229.047678869 -107.068167041 225.122747761 -104.10096914 222.385743406Z"
           style="fill:#bc4e19;fill-opacity:1" />
        <path
           id="path4804"
           d="M32.5 92.0L32.5 187.0L-108.921356237 328.421356237L-108.921356237 233.421356237Z"
           style="fill:#bc4e19;fill-opacity:1" />
        <path
           id="path4806"
           d="M32.5 187.0C32.5 195.30999 39.190013 202.0 47.5 202.0L-93.9213562373 343.421356237C-102.231343237 343.421356237 -108.921356237 336.731346237 -108.921356237 328.421356237Z"
           style="fill:#bc4e19;fill-opacity:1" />
        <path
           id="path4808"
           d="M47.5 202.0L208.5 202.0L67.0786437627 343.421356237L-93.9213562373 343.421356237Z"
           style="fill:#bc4e19;fill-opacity:1" />
        <path
           id="path4810"
           d="M208.5 202.0C216.80999 202.0 223.5 195.30999 223.5 187.0L82.0786437627 328.421356237C82.0786437627 336.731346237 75.3886337627 343.421356237 67.0786437627 343.421356237Z"
           style="fill:#bc4e19;fill-opacity:1" />
        <path
           id="path4812"
           d="M223.5 187.0L223.5 92.0L82.0786437627 233.421356237L82.0786437627 328.421356237Z"
           style="fill:#bc4e19;fill-opacity:1" />
        <path
           id="path4814"
           d="M223.5 92.0C223.5 83.690013 216.80999 77.0 208.5 77.0L67.0786437627 218.421356237C75.3886337627 218.421356237 82.0786437627 225.111369237 82.0786437627 233.421356237Z"
           style="fill:#bc4e19;fill-opacity:1" />
        <path
           id="path4816"
           d="M208.5 77.0L208.5 68.0L67.0786437627 209.421356237L67.0786437627 218.421356237Z"
           style="fill:#bc4e19;fill-opacity:1" />
        <path
           id="path4818"
           d="M208.5 68.0L173.5 68.0L32.0786437627 209.421356237L67.0786437627 209.421356237Z"
           style="fill:#bc4e19;fill-opacity:1" />
        <path
           id="path4820"
           d="M173.5 68.0L173.5 77.0L32.0786437627 218.421356237L32.0786437627 209.421356237Z"
           style="fill:#bc4e19;fill-opacity:1" />
        <path
           id="path4822"
           d="M173.5 77.0L165.22266 77.0L23.8013037627 218.421356237L32.0786437627 218.421356237Z"
           style="fill:#bc4e19;fill-opacity:1" />
        <path
           id="path4824"
           d="M165.22266 77.0L162.4043 59.994141L20.9829437627 201.415497237L23.8013037627 218.421356237Z"
           style="fill:#bc4e19;fill-opacity:1" />
        <path
           id="path4826"
           d="M162.4043 59.994141C161.80863 56.400911 159.66389 54.0 156.25977 54.0L14.8384137627 195.421356237C18.2425337627 195.421356237 20.3872737627 197.822267237 20.9829437627 201.415497237Z"
           style="fill:#bc4e19;fill-opacity:1" />
        <path
           id="path4828"
           d="M156.25977 54.0L98.615234 54.0L-42.8061222373 195.421356237L14.8384137627 195.421356237Z"
           style="fill:#bc4e19;fill-opacity:1" />
      </g>
      <path
         id="path4741"
         d="M 98.615234 54 C 95.211134 54 92.967183 57.569187 92.470703 61.179688 L 90.294922 77 L 83.5 77 L 83.5 68 L 53.5 68 L 53.5 77 L 47.5 77 C 39.190013 77 32.5 83.690013 32.5 92 L 32.5 187 C 32.5 195.30999 39.190013 202 47.5 202 L 208.5 202 C 216.80999 202 223.5 195.30999 223.5 187 L 223.5 92 C 223.5 83.690013 216.80999 77 208.5 77 L 208.5 68 L 173.5 68 L 173.5 77 L 165.22266 77 L 162.4043 59.994141 C 161.80863 56.400911 159.66389 54 156.25977 54 L 98.615234 54 z "
         style="opacity:1;fill:#bc4e19;fill-opacity:1;stroke:none;stroke-width:6.36226845;stroke-miterlimit:4;stroke-dasharray:none;stroke-opacity:1"
         transform="" />
    </g>
    <rect
       style="fill:none;fill-opacity:1;stroke:none;stroke-width:9.19999981;stroke-miterlimit:4;stroke-dasharray:none;stroke-opacity:1"
       id="rect4316"
       width="115"
       height="30"
       x="65"
       y="957.36218" />
    <path
       style="opacity:1;fill:#129053;fill-opacity:1;stroke:none;stroke-width:24.8219471;stroke-miterlimit:4;stroke-dasharray:none;stroke-opacity:1"
       d="M 47.499977,873.36225 H 208.50002 c 8.30999,0 14.99998,6.68999 14.99998,14.99999 v 95.00005 c 0,8.30998 -6.68999,14.99996 -14.99998,14.99996 H 47.499977 C 39.18999,998.36225 32.5,991.67227 32.5,983.36229 v -95.00005 c 0,-8.30999 6.68999,-14.99999 14.999977,-14.99999 z"
       id="rect4570"
       inkscape:connector-curvature="0" />
    <path
       sodipodi:nodetypes="sssssssss"
       inkscape:connector-curvature="0"
       id="rect1018"
       d="m 98.61586,850.36207 h 57.64424 c 3.40412,0 5.54893,2.40195 6.1446,5.99518 l 5.52584,33.33322 c 0.59565,3.59321 -2.74048,6.58759 -6.1446,6.58759 H 94.1952 c -3.4041,0 -6.64106,-2.97709 -6.14459,-6.58759 l 4.42067,-32.14837 c 0.49648,-3.6105 2.74048,-7.18003 6.14458,-7.18003 z"
       style="opacity:1;fill:#ffffff;fill-opacity:1;stroke:none;stroke-width:6.36226845;stroke-miterlimit:4;stroke-dasharray:none;stroke-opacity:1" />
    <rect
       style="opacity:1;fill:#ffffff;fill-opacity:1;stroke:none;stroke-width:24.8219471;stroke-miterlimit:4;stroke-dasharray:none;stroke-opacity:1"
       id="rect4571"
       width="191"
       height="125"
       x="32.5"
       y="873.36224"
       ry="14.999977" />
    <rect
       style="opacity:1;fill:#ffffff;fill-opacity:1;stroke:none;stroke-width:28.56567001;stroke-miterlimit:4;stroke-dasharray:none;stroke-opacity:1"
       id="rect4573"
       width="30"
       height="16.999945"
       x="53.5"
       y="864.36224" />
    <rect
       style="opacity:1;fill:#ffffff;fill-opacity:1;stroke:none;stroke-width:28.16615486;stroke-miterlimit:4;stroke-dasharray:none;stroke-opacity:1"
       id="rect4575"
       width="35"
       height="16.999977"
       x="173.5"
       y="864.36224" />
    <circle
       style="opacity:1;fill:#ffffff;fill-opacity:1;stroke:#bc4e19;stroke-width:22.26645851;stroke-miterlimit:4;stroke-dasharray:none;stroke-opacity:1"
       id="path4577"
       cx="128"
       cy="935.86224"
       r="38.866772" />
  </g>
</svg>
