<?xml version="1.0" encoding="UTF-8" standalone="no"?>
<!-- Created with Inkscape (http://www.inkscape.org/) -->

<svg
   xmlns:dc="http://purl.org/dc/elements/1.1/"
   xmlns:cc="http://creativecommons.org/ns#"
   xmlns:rdf="http://www.w3.org/1999/02/22-rdf-syntax-ns#"
   xmlns:svg="http://www.w3.org/2000/svg"
   xmlns="http://www.w3.org/2000/svg"
   xmlns:sodipodi="http://sodipodi.sourceforge.net/DTD/sodipodi-0.dtd"
   xmlns:inkscape="http://www.inkscape.org/namespaces/inkscape"
   width="256"
   height="256"
   viewBox="0 0 256 256"
   id="svg2"
   version="1.1"
   inkscape:version="0.91 r13725"
   sodipodi:docname="help-browser-symbolic.svg">
  <sodipodi:namedview
     id="base"
     pagecolor="#ffffff"
     bordercolor="#666666"
     borderopacity="1.0"
     inkscape:pageopacity="0.0"
     inkscape:pageshadow="2"
     inkscape:zoom="2.0507812"
     inkscape:cx="39.253331"
     inkscape:cy="128"
     inkscape:document-units="px"
     inkscape:current-layer="layer1"
     showgrid="true"
     units="px"
     inkscape:window-width="1920"
     inkscape:window-height="1054"
     inkscape:window-x="0"
     inkscape:window-y="0"
     inkscape:window-maximized="1">
    <inkscape:grid
       type="xygrid"
       id="grid4168"
       spacingx="5"
       spacingy="5" />
  </sodipodi:namedview>
  <defs
     id="defs4">
    <clipPath
       clipPathUnits="userSpaceOnUse"
       id="clipPath5002">
      <g
         id="g5004">
        <path
           transform="translate(0,796.36216)"
           inkscape:connector-curvature="0"
           id="path5006"
           d="M 88.118406,249.43519 C 46.103287,235.29134 14.771284,201.68742 4.1335861,159.36053 1.3377997,148.23623 0.92261224,144.16281 0.92582381,127.88908 0.92787958,117.47222 1.134384,112.01362 1.6577819,108.54099 4.4653598,89.913336 12.17654,70.638106 23.042737,55.086148 c 3.958678,-5.665755 8.344812,-10.93092 9.101533,-10.925587 0.32809,0.0023 10.488643,18.309713 22.579009,40.683112 12.090365,22.373397 22.374546,41.334697 22.853732,42.136217 0.479186,0.80151 0.924733,2.44098 0.990103,3.64326 0.343424,6.31639 2.524175,14.20976 5.6424,20.42304 2.954444,5.88693 5.065381,8.73258 10.434696,14.06652 6.71418,6.66995 12.88853,10.28643 21.73204,12.72904 3.16587,0.87442 5.10478,1.05037 11.57517,1.05037 8.82596,0 12.60219,-0.76201 19.26429,-3.88733 2.04584,-0.95974 3.93661,-1.66536 4.20172,-1.56805 0.2651,0.0973 -11.0555,17.66459 -25.1569,39.0384 l -25.6389,38.86148 -3.094121,0.11221 c -2.554618,0.0927 -4.195204,-0.25845 -9.409103,-2.01364 z"
           style="fill:#0f9d58;fill-opacity:1;stroke:none;stroke-width:4.85768509;stroke-linejoin:round;stroke-miterlimit:4;stroke-dasharray:none;stroke-opacity:1" />
        <path
           inkscape:connector-curvature="0"
           id="path5008"
           d="m 112.35984,1051.5167 c -10.0014,-1.4495 -12.15632,-1.8201 -12.531784,-2.1556 -0.248854,-0.2223 1.738304,-3.7475 4.550294,-8.0722 7.16635,-11.0213 49.77231,-74.64801 50.25856,-75.05489 3.57509,-2.99158 8.63523,-8.0414 10.57512,-10.55356 3.36154,-4.35318 7.55784,-12.9141 9.06523,-18.494 6.19314,-22.92535 -2.59253,-47.15185 -21.69967,-59.83688 l -2.96081,-1.96565 17.02469,0.29584 c 9.36358,0.1627 31.17032,0.43384 48.45941,0.60252 l 31.43471,0.30668 1.54584,4.18869 c 2.24597,6.08579 4.67816,15.0947 5.93451,21.9816 1.52517,8.36049 1.92536,28.85896 0.73851,37.82758 -3.0805,23.27845 -12.81326,45.72018 -27.80202,64.10577 -20.47622,25.1166 -51.4599,42.1974 -84.14612,46.3885 -5.31244,0.6812 -26.64601,0.9864 -30.44647,0.4356 z"
           style="fill:#f4b400;fill-opacity:1;stroke:none;stroke-width:4.85768509;stroke-linejoin:round;stroke-miterlimit:4;stroke-dasharray:none;stroke-opacity:1" />
        <path
           transform="translate(0,796.36216)"
           inkscape:connector-curvature="0"
           id="path5010"
           d="M 67.989788,108.87302 C 41.284246,59.575543 33.290284,45.149038 32.233625,44.344765 31.651257,43.901497 32.811213,42.549931 38.695603,36.815353 53.43581,22.450419 68.809334,13.040746 87.839196,6.7360352 101.68742,2.1480329 112.58238,0.43719165 127.95142,0.43719165 c 21.3099,0 37.80488,3.80960275 56.83492,13.12633035 25.29351,12.383198 46.19421,33.578863 58.51993,59.345832 1.61138,3.368591 2.92978,6.372442 2.92978,6.675231 0,0.560033 -10.54865,0.49527 -71.16508,-0.436914 l -24.28843,-0.373518 -3.93063,-1.764495 c -6.75732,-3.033425 -10.64587,-3.839529 -18.6576,-3.867747 -5.0296,-0.01773 -7.97946,0.207636 -10.31642,0.788106 -14.50826,3.603659 -26.283291,12.94777 -33.291614,26.418653 -3.58502,6.89086 -5.24713,13.08166 -6.331628,23.58317 l -0.33738,3.26696 -9.92748,-18.32578 z"
           style="fill:#db4437;fill-opacity:1;stroke:none;stroke-width:10;stroke-linejoin:round;stroke-miterlimit:4;stroke-dasharray:none;stroke-opacity:1" />
      </g>
    </clipPath>
    <clipPath
       id="clipPath4271"
       clipPathUnits="userSpaceOnUse">
      <circle
         r="128"
         cy="128.00002"
         cx="128"
         id="circle4273"
         style="fill:#292929;fill-opacity:0.26020412;stroke:none;stroke-width:10;stroke-linejoin:round;stroke-miterlimit:4;stroke-dasharray:none;stroke-opacity:0.25882353" />
    </clipPath>
    <clipPath
       clipPathUnits="userSpaceOnUse"
       id="clipPath4363">
      <circle
         r="128"
         cy="924.36218"
         cx="128"
         id="circle4365"
         style="fill:#4285f4;fill-opacity:1;stroke:none;stroke-width:10;stroke-linejoin:round;stroke-miterlimit:4;stroke-dasharray:none;stroke-opacity:0.25882353" />
    </clipPath>
    <clipPath
       id="clipPath4452"
       clipPathUnits="userSpaceOnUse">
      <circle
         r="128"
         cy="924.36218"
         cx="128"
         id="circle4454"
         style="fill:#4285f4;fill-opacity:1;stroke:none;stroke-width:10;stroke-linejoin:round;stroke-miterlimit:4;stroke-dasharray:none;stroke-opacity:0.25882353" />
    </clipPath>
    <clipPath
       clipPathUnits="userSpaceOnUse"
       id="clipPath5177">
      <circle
         r="128"
         cy="924.36218"
         cx="128"
         id="circle5179"
         style="fill:#4285f4;fill-opacity:1;stroke:none;stroke-width:10;stroke-linejoin:round;stroke-miterlimit:4;stroke-dasharray:none;stroke-opacity:0.25882353" />
    </clipPath>
    <clipPath
       id="clipPath4342"
       clipPathUnits="userSpaceOnUse">
      <circle
         r="128"
         cy="933.48718"
         cx="128"
         id="circle4344"
         style="fill:#4285f4;fill-opacity:1;stroke:none;stroke-width:10;stroke-linejoin:round;stroke-miterlimit:4;stroke-dasharray:none;stroke-opacity:0.25882353" />
    </clipPath>
    <clipPath
       clipPathUnits="userSpaceOnUse"
       id="clipPath4393">
      <circle
         r="128"
         cy="924.36218"
         cx="128"
         id="circle4395"
         style="fill:#4285f4;fill-opacity:1;stroke:none;stroke-width:10;stroke-linejoin:round;stroke-miterlimit:4;stroke-dasharray:none;stroke-opacity:0.25882353" />
    </clipPath>
    <clipPath
       id="clipPath4417"
       clipPathUnits="userSpaceOnUse">
      <circle
         r="128"
         cy="924.36218"
         cx="128"
         id="circle4419"
         style="fill:#0f9d58;fill-opacity:1;stroke:none;stroke-width:10;stroke-linejoin:round;stroke-miterlimit:4;stroke-dasharray:none;stroke-opacity:0.25882353" />
    </clipPath>
    <clipPath
       clipPathUnits="userSpaceOnUse"
       id="clipPath4420">
      <circle
         r="128"
         cy="924.36218"
         cx="128"
         id="circle4422"
         style="fill:#0f9d58;fill-opacity:1;stroke:none;stroke-width:10;stroke-linejoin:round;stroke-miterlimit:4;stroke-dasharray:none;stroke-opacity:0.25882353" />
    </clipPath>
  </defs>
  <metadata
     id="metadata7">
    <rdf:RDF>
      <cc:Work
         rdf:about="">
        <dc:format>image/svg+xml</dc:format>
        <dc:type
           rdf:resource="http://purl.org/dc/dcmitype/StillImage" />
        <dc:title />
      </cc:Work>
    </rdf:RDF>
  </metadata>
  <g
     transform="translate(0,-796.36216)"
     id="layer1"
     inkscape:groupmode="layer"
     inkscape:label="Layer 1">
    <path
       style="fill:#0f9d58;fill-opacity:1;stroke:none;stroke-width:10;stroke-linejoin:round;stroke-miterlimit:4;stroke-dasharray:none;stroke-opacity:0.25882353"
       d="M 128 0 A 128 128 0 0 0 0 128 A 128 128 0 0 0 128 256 A 128 128 0 0 0 256 128 A 128 128 0 0 0 128 0 z M 73.150391 37.732422 C 77.792978 37.729791 82.543418 38.268148 87.230469 39.042969 C 97.82115 40.793717 108.60797 43.66346 118.31055 45.042969 C 121.17056 44.752758 124.04176 44.597656 126.91406 44.597656 C 130.18778 44.597656 133.45925 44.808552 136.71484 45.185547 C 146.67616 43.87088 157.85167 40.855231 168.81445 39.042969 C 173.27831 38.305047 177.79929 37.782041 182.23047 37.736328 C 191.97907 37.63576 201.29084 39.846528 208.58789 47.169922 C 219.20178 57.822122 219.02985 72.723297 216.67773 87.054688 C 214.87271 98.052664 211.86914 109.26589 210.55859 119.26758 C 211.26753 125.4144 211.32373 131.62441 210.70312 137.7793 C 212.07937 147.51538 214.9352 158.33 216.67773 168.94727 C 219.02985 183.27866 219.20178 198.17978 208.58789 208.83203 C 197.97399 219.48413 183.0988 219.31833 168.81445 216.95703 C 160.38866 215.56413 151.84572 213.46624 143.8125 211.96484 C 133.03115 214.14935 121.90178 214.22883 111.09766 212.18555 C 103.39432 213.66837 95.262259 215.62926 87.230469 216.95703 C 72.946124 219.31833 58.072881 219.48413 47.458984 208.83203 C 36.737756 198.07205 36.985547 182.56343 39.339844 167.54688 C 40.606486 159.46777 42.460438 151.28093 43.921875 143.55859 C 42.090981 132.79064 42.326771 121.73509 44.628906 111.04297 C 43.181824 102.95461 41.027142 94.271932 39.623047 85.716797 C 37.355662 71.901657 37.184002 57.481992 47.458984 47.169922 C 54.092667 40.512292 62.390193 38.078818 71.167969 37.767578 C 71.826302 37.744234 72.487164 37.732798 73.150391 37.732422 z M 126.88672 44.921875 C 124.47178 44.937764 122.02868 45.045876 119.61719 45.234375 C 119.63326 45.23645 119.64995 45.240122 119.66602 45.242188 C 117.46606 45.413097 115.29361 45.651134 113.19531 45.957031 C 113.16912 45.96085 113.14336 45.96491 113.11719 45.96875 C 112.19465 46.104112 111.29122 46.256021 110.40234 46.417969 C 110.2256 46.450469 110.04632 46.482095 109.87109 46.515625 C 108.93109 46.694081 108.00906 46.884663 107.11914 47.09375 C 104.9149 47.61163 103.01064 48.113636 102.88867 48.210938 C 102.83144 48.256613 103.2581 49.692234 103.84961 51.599609 C 106.52159 60.214453 114.30791 83.339531 114.62109 83.296875 C 114.79511 83.273155 117.1264 82.910324 119.80273 82.490234 C 125.01727 81.671704 132.04544 81.800319 136.42773 82.792969 C 137.91347 83.129479 139.26206 83.272908 139.42383 83.111328 C 139.63576 82.899634 147.09828 60.767886 149.93164 52.076172 C 150.58452 50.073579 151.07113 48.554818 151.07617 48.443359 C 151.09446 48.038319 143.11791 46.227871 138.60742 45.613281 C 137.72387 45.492893 136.80905 45.393383 135.88281 45.304688 C 135.88919 45.303903 135.89597 45.30352 135.90234 45.302734 C 133.03486 45.027495 129.9868 44.901478 126.88672 44.921875 z M 72.861328 46.671875 C 65.249883 46.688283 58.826404 48.485611 53.822266 53.507812 C 46.535823 60.820563 46.363357 71.326489 48.486328 84.261719 C 48.992379 87.345075 49.642173 90.528971 50.326172 93.748047 C 54.37005 84.865957 60.015752 76.555354 67.269531 69.275391 C 75.928204 60.585458 86.047522 54.191718 96.855469 50.091797 C 93.088036 49.279372 89.362516 48.500853 85.765625 47.90625 C 82.415981 47.35252 79.222431 46.945911 76.195312 46.769531 C 75.060143 46.703387 73.948677 46.669531 72.861328 46.671875 z M 182.08984 46.681641 C 178.41161 46.75328 174.46635 47.214088 170.2793 47.90625 C 166.22728 48.576088 162.01537 49.473241 157.75586 50.398438 C 168.26967 54.507538 178.11148 60.795831 186.56055 69.275391 C 194.98558 77.730845 201.23913 87.576164 205.33398 98.09375 C 206.25264 93.84231 207.15045 89.645376 207.81445 85.599609 C 210.02215 72.148129 209.84996 61.160684 202.22461 53.507812 C 196.98217 48.24646 190.18197 46.524035 182.08984 46.681641 z M 126.91406 81.986328 C 114.96007 81.986326 103.00623 86.616711 93.777344 95.878906 C 75.319578 114.40331 75.319578 143.86819 93.777344 162.39258 C 102.38456 171.03087 113.36283 175.63687 124.5 176.21875 C 120.79073 176.05612 117.19891 175.55873 114.37695 174.68555 L 111.32617 173.74219 L 105.45508 191.40234 L 100.92773 205.02148 L 99.583984 209.0625 L 103.51562 210.19727 C 104.3029 210.42442 105.10457 210.63361 105.91211 210.83594 C 106.2127 210.91106 106.51516 210.98302 106.81836 211.05469 C 107.35149 211.18108 107.88908 211.30027 108.42969 211.41602 C 108.7521 211.48483 109.07358 211.55603 109.39844 211.62109 C 110.17066 211.77617 110.94951 211.92294 111.73438 212.05664 C 121.92856 213.79321 133.10058 213.71795 143.21875 211.84766 C 143.23521 211.84461 143.25112 211.84094 143.26758 211.83789 C 144.36925 211.63363 145.45617 211.40653 146.53125 211.16211 C 146.67858 211.1282 146.82786 211.09722 146.97461 211.0625 C 148.10537 210.7982 149.22127 210.51212 150.3125 210.19727 L 154.24414 209.0625 L 152.73242 204.51562 L 148.375 191.40234 L 142.50391 173.74219 L 139.32617 174.73828 C 136.24538 175.70516 132.16506 176.19991 127.98633 176.26172 C 139.58065 175.99464 151.09766 171.37801 160.05078 162.39258 C 178.50855 143.86818 178.50854 114.4033 160.05078 95.878906 C 150.8219 86.616711 138.86805 81.986331 126.91406 81.986328 z M 205.41406 99.048828 C 205.40963 99.049003 205.12867 99.141996 205.11133 99.146484 C 204.53824 99.294815 197.26723 101.68086 188.25 104.68164 C 178.95993 107.77323 171.17504 110.46841 170.95117 110.67188 C 170.72728 110.87529 171.17323 113.0029 171.94141 115.40039 C 173.67586 120.81188 174.34792 128.10786 173.67773 134.23242 L 173.16602 138.9043 L 190.61719 144.73828 C 196.72066 146.77894 200.72816 148.07906 203.4375 148.87891 C 203.45608 148.88439 203.46592 148.88714 203.48438 148.89258 C 204.32041 149.13893 205.0196 149.33287 205.61523 149.48438 C 205.66687 149.49745 205.72159 149.51107 205.77148 149.52344 C 206.33414 149.66373 206.78667 149.75948 207.1543 149.81836 C 207.19227 149.82422 207.24137 149.83484 207.27734 149.83984 C 207.64291 149.89309 207.91762 149.90689 208.10742 149.88086 C 208.20023 149.86813 208.27102 149.84448 208.32812 149.81445 C 208.33374 149.81129 208.34237 149.80997 208.34766 149.80664 C 208.40327 149.77374 208.44258 149.7318 208.46484 149.68164 C 208.59039 149.39874 208.71014 149.0511 208.82617 148.66406 C 208.89486 148.43284 208.96036 148.15981 209.02539 147.89453 C 209.06783 147.72368 209.1114 147.56503 209.15234 147.38086 C 209.24863 146.94104 209.3403 146.47026 209.42773 145.96094 C 209.88948 143.27116 210.22686 139.67248 210.42578 135.81445 C 210.42571 135.81382 210.42586 135.81313 210.42578 135.8125 C 210.69134 130.65581 210.71214 125.06321 210.39844 120.41797 C 210.39719 120.39945 210.39579 120.38372 210.39453 120.36523 C 210.33218 119.4502 210.25283 118.58639 210.16602 117.75781 C 210.14739 117.58242 210.13112 117.40311 210.11133 117.23242 C 210.01394 116.38164 209.90482 115.57375 209.77734 114.85938 C 208.83038 109.55275 205.92589 99.028628 205.41406 99.048828 z M 48.203125 99.167969 C 48.145359 99.229211 48.057233 99.430795 47.949219 99.716797 C 47.910137 99.820465 47.859034 99.976089 47.814453 100.10547 C 47.750497 100.2902 47.683355 100.48659 47.609375 100.71875 C 47.450373 101.22156 47.249321 101.94261 47.056641 102.61914 C 46.92385 103.08151 46.798746 103.50895 46.65625 104.0293 C 46.34533 105.17576 46.020643 106.41349 45.705078 107.68164 C 45.364849 109.04891 45.039017 110.42464 44.759766 111.68164 C 44.757577 111.69149 44.754136 111.70306 44.751953 111.71289 C 44.595169 112.41951 44.405126 113.21182 44.287109 113.8125 C 42.671596 122.03516 42.621646 133.71112 44.029297 143.00781 C 44.029705 143.01051 44.030841 143.01293 44.03125 143.01562 C 44.136608 143.71105 44.250519 144.38891 44.371094 145.05664 C 44.389319 145.15643 44.405238 145.2603 44.423828 145.35938 C 44.557097 146.07761 44.699973 146.77959 44.853516 147.45508 C 45.188692 148.92965 45.553866 150.22727 45.664062 150.33789 C 45.724938 150.39899 48.427883 149.56261 52.220703 148.34375 C 52.223474 148.34286 52.227697 148.34073 52.230469 148.33984 C 55.3009 147.35303 58.996369 146.14811 63.277344 144.7168 L 80.691406 138.89453 L 80.166016 134.49023 C 79.46968 128.66173 79.90456 123.02907 81.523438 116.92188 C 82.252808 114.17033 82.972335 111.65671 83.123047 111.33789 C 83.280137 111.0056 75.930443 108.24239 65.898438 104.86133 C 59.970302 102.86339 54.929111 101.21429 51.708984 100.19922 C 49.701228 99.56634 48.243955 99.124545 48.203125 99.167969 z M 205.6543 159.35156 C 201.56858 170.18033 195.20622 180.31921 186.56055 188.99609 C 179.08047 196.50316 170.50832 202.2916 161.3457 206.37305 C 164.37698 207.01463 167.36614 207.61413 170.2793 208.0957 C 183.67788 210.3106 194.59926 210.14507 202.22461 202.49219 C 209.84996 194.8393 210.02215 183.85382 207.81445 170.40234 C 207.22506 166.81117 206.45952 163.11018 205.6543 159.35156 z M 49.382812 162.36914 C 48.956009 164.58241 48.551072 166.78046 48.212891 168.9375 C 45.991263 183.10784 46.239796 194.88234 53.822266 202.49219 C 61.447616 210.14507 72.367048 210.3106 85.765625 208.0957 C 88.193559 207.69435 90.670992 207.21 93.183594 206.6875 C 83.756986 202.59157 74.940112 196.69436 67.269531 188.99609 C 59.432201 181.13047 53.473008 172.06228 49.382812 162.36914 z "
       transform="translate(0,796.36216)"
       id="path4152" />
    <text
       sodipodi:linespacing="125%"
       id="text4914"
       y="927.36218"
       x="120"
       style="font-style:normal;font-weight:normal;font-size:40px;line-height:125%;font-family:sans-serif;letter-spacing:0px;word-spacing:0px;fill:#000000;fill-opacity:1;stroke:none;stroke-width:1px;stroke-linecap:butt;stroke-linejoin:miter;stroke-opacity:1"
       xml:space="preserve"><tspan
         y="927.36218"
         x="120"
         id="tspan4916"
         sodipodi:role="line" /></text>
  </g>
</svg>
