<?xml version="1.0" encoding="UTF-8" standalone="no"?>
<!-- Created with Inkscape (http://www.inkscape.org/) -->

<svg
   xmlns:dc="http://purl.org/dc/elements/1.1/"
   xmlns:cc="http://creativecommons.org/ns#"
   xmlns:rdf="http://www.w3.org/1999/02/22-rdf-syntax-ns#"
   xmlns:svg="http://www.w3.org/2000/svg"
   xmlns="http://www.w3.org/2000/svg"
   xmlns:sodipodi="http://sodipodi.sourceforge.net/DTD/sodipodi-0.dtd"
   xmlns:inkscape="http://www.inkscape.org/namespaces/inkscape"
   sodipodi:docname="hexchat.svg"
   inkscape:version="0.91 r13725"
   version="1.1"
   id="svg2"
   viewBox="0 0 256 256"
   height="256"
   width="256">
  <sodipodi:namedview
     inkscape:window-maximized="1"
     inkscape:window-y="0"
     inkscape:window-x="0"
     inkscape:window-height="1033"
     inkscape:window-width="1920"
     units="px"
     showgrid="true"
     inkscape:current-layer="layer1"
     inkscape:document-units="px"
     inkscape:cy="128"
     inkscape:cx="127.6956"
     inkscape:zoom="3.2851562"
     inkscape:pageshadow="2"
     inkscape:pageopacity="0.0"
     borderopacity="1.0"
     bordercolor="#666666"
     pagecolor="#ffffff"
     id="base">
    <inkscape:grid
       spacingy="5"
       spacingx="5"
       id="grid4168"
       type="xygrid" />
  </sodipodi:namedview>
  <defs
     id="defs4">
    <clipPath
       id="clipPath5002"
       clipPathUnits="userSpaceOnUse">
      <g
         id="g5004">
        <path
           style="fill:#0f9d58;fill-opacity:1;stroke:none;stroke-width:4.85768509;stroke-linejoin:round;stroke-miterlimit:4;stroke-dasharray:none;stroke-opacity:1"
           d="M 88.118406,249.43519 C 46.103287,235.29134 14.771284,201.68742 4.1335861,159.36053 1.3377997,148.23623 0.92261224,144.16281 0.92582381,127.88908 0.92787958,117.47222 1.134384,112.01362 1.6577819,108.54099 4.4653598,89.913336 12.17654,70.638106 23.042737,55.086148 c 3.958678,-5.665755 8.344812,-10.93092 9.101533,-10.925587 0.32809,0.0023 10.488643,18.309713 22.579009,40.683112 12.090365,22.373397 22.374546,41.334697 22.853732,42.136217 0.479186,0.80151 0.924733,2.44098 0.990103,3.64326 0.343424,6.31639 2.524175,14.20976 5.6424,20.42304 2.954444,5.88693 5.065381,8.73258 10.434696,14.06652 6.71418,6.66995 12.88853,10.28643 21.73204,12.72904 3.16587,0.87442 5.10478,1.05037 11.57517,1.05037 8.82596,0 12.60219,-0.76201 19.26429,-3.88733 2.04584,-0.95974 3.93661,-1.66536 4.20172,-1.56805 0.2651,0.0973 -11.0555,17.66459 -25.1569,39.0384 l -25.6389,38.86148 -3.094121,0.11221 c -2.554618,0.0927 -4.195204,-0.25845 -9.409103,-2.01364 z"
           id="path5006"
           inkscape:connector-curvature="0"
           transform="translate(0,796.36216)" />
        <path
           style="fill:#f4b400;fill-opacity:1;stroke:none;stroke-width:4.85768509;stroke-linejoin:round;stroke-miterlimit:4;stroke-dasharray:none;stroke-opacity:1"
           d="m 112.35984,1051.5167 c -10.0014,-1.4495 -12.15632,-1.8201 -12.531784,-2.1556 -0.248854,-0.2223 1.738304,-3.7475 4.550294,-8.0722 7.16635,-11.0213 49.77231,-74.64801 50.25856,-75.05489 3.57509,-2.99158 8.63523,-8.0414 10.57512,-10.55356 3.36154,-4.35318 7.55784,-12.9141 9.06523,-18.494 6.19314,-22.92535 -2.59253,-47.15185 -21.69967,-59.83688 l -2.96081,-1.96565 17.02469,0.29584 c 9.36358,0.1627 31.17032,0.43384 48.45941,0.60252 l 31.43471,0.30668 1.54584,4.18869 c 2.24597,6.08579 4.67816,15.0947 5.93451,21.9816 1.52517,8.36049 1.92536,28.85896 0.73851,37.82758 -3.0805,23.27845 -12.81326,45.72018 -27.80202,64.10577 -20.47622,25.1166 -51.4599,42.1974 -84.14612,46.3885 -5.31244,0.6812 -26.64601,0.9864 -30.44647,0.4356 z"
           id="path5008"
           inkscape:connector-curvature="0" />
        <path
           style="fill:#db4437;fill-opacity:1;stroke:none;stroke-width:10;stroke-linejoin:round;stroke-miterlimit:4;stroke-dasharray:none;stroke-opacity:1"
           d="M 67.989788,108.87302 C 41.284246,59.575543 33.290284,45.149038 32.233625,44.344765 31.651257,43.901497 32.811213,42.549931 38.695603,36.815353 53.43581,22.450419 68.809334,13.040746 87.839196,6.7360352 101.68742,2.1480329 112.58238,0.43719165 127.95142,0.43719165 c 21.3099,0 37.80488,3.80960275 56.83492,13.12633035 25.29351,12.383198 46.19421,33.578863 58.51993,59.345832 1.61138,3.368591 2.92978,6.372442 2.92978,6.675231 0,0.560033 -10.54865,0.49527 -71.16508,-0.436914 l -24.28843,-0.373518 -3.93063,-1.764495 c -6.75732,-3.033425 -10.64587,-3.839529 -18.6576,-3.867747 -5.0296,-0.01773 -7.97946,0.207636 -10.31642,0.788106 -14.50826,3.603659 -26.283291,12.94777 -33.291614,26.418653 -3.58502,6.89086 -5.24713,13.08166 -6.331628,23.58317 l -0.33738,3.26696 -9.92748,-18.32578 z"
           id="path5010"
           inkscape:connector-curvature="0"
           transform="translate(0,796.36216)" />
      </g>
    </clipPath>
    <clipPath
       clipPathUnits="userSpaceOnUse"
       id="clipPath4271">
      <circle
         style="fill:#292929;fill-opacity:0.26020412;stroke:none;stroke-width:10;stroke-linejoin:round;stroke-miterlimit:4;stroke-dasharray:none;stroke-opacity:0.25882353"
         id="circle4273"
         cx="128"
         cy="128.00002"
         r="128" />
    </clipPath>
    <clipPath
       id="clipPath4363"
       clipPathUnits="userSpaceOnUse">
      <circle
         style="fill:#4285f4;fill-opacity:1;stroke:none;stroke-width:10;stroke-linejoin:round;stroke-miterlimit:4;stroke-dasharray:none;stroke-opacity:0.25882353"
         id="circle4365"
         cx="128"
         cy="924.36218"
         r="128" />
    </clipPath>
    <clipPath
       clipPathUnits="userSpaceOnUse"
       id="clipPath4452">
      <circle
         style="fill:#4285f4;fill-opacity:1;stroke:none;stroke-width:10;stroke-linejoin:round;stroke-miterlimit:4;stroke-dasharray:none;stroke-opacity:0.25882353"
         id="circle4454"
         cx="128"
         cy="924.36218"
         r="128" />
    </clipPath>
    <clipPath
       id="clipPath5177"
       clipPathUnits="userSpaceOnUse">
      <circle
         style="fill:#4285f4;fill-opacity:1;stroke:none;stroke-width:10;stroke-linejoin:round;stroke-miterlimit:4;stroke-dasharray:none;stroke-opacity:0.25882353"
         id="circle5179"
         cx="128"
         cy="924.36218"
         r="128" />
    </clipPath>
    <clipPath
       clipPathUnits="userSpaceOnUse"
       id="clipPath4342">
      <circle
         style="fill:#4285f4;fill-opacity:1;stroke:none;stroke-width:10;stroke-linejoin:round;stroke-miterlimit:4;stroke-dasharray:none;stroke-opacity:0.25882353"
         id="circle4344"
         cx="128"
         cy="933.48718"
         r="128" />
    </clipPath>
    <clipPath
       id="clipPath4681"
       clipPathUnits="userSpaceOnUse">
      <circle
         style="fill:#9d5fad;fill-opacity:1;stroke:none;stroke-width:10;stroke-linejoin:round;stroke-miterlimit:4;stroke-dasharray:none;stroke-opacity:0.25882353"
         id="circle4683"
         cx="127.00293"
         cy="930.43964"
         r="128" />
    </clipPath>
    <clipPath
       clipPathUnits="userSpaceOnUse"
       id="clipPath4492">
      <circle
         style="fill:#9d5fad;fill-opacity:1;stroke:none;stroke-width:10;stroke-linejoin:round;stroke-miterlimit:4;stroke-dasharray:none;stroke-opacity:0.25882353"
         id="circle4494"
         cx="128"
         cy="924.36218"
         r="128" />
    </clipPath>
  </defs>
  <metadata
     id="metadata7">
    <rdf:RDF>
      <cc:Work
         rdf:about="">
        <dc:format>image/svg+xml</dc:format>
        <dc:type
           rdf:resource="http://purl.org/dc/dcmitype/StillImage" />
        <dc:title />
      </cc:Work>
    </rdf:RDF>
  </metadata>
  <g
     inkscape:label="Layer 1"
     inkscape:groupmode="layer"
     id="layer1"
     transform="translate(0,-796.36216)">
    <circle
       r="128"
       cy="924.36218"
       cx="128"
       id="path4152"
       style="fill:#ff9800;fill-opacity:1;stroke:none;stroke-width:10;stroke-linejoin:round;stroke-miterlimit:4;stroke-dasharray:none;stroke-opacity:0.25882353" />
    <text
       xml:space="preserve"
       style="font-style:normal;font-weight:normal;font-size:40px;line-height:125%;font-family:sans-serif;letter-spacing:0px;word-spacing:0px;fill:#000000;fill-opacity:1;stroke:none;stroke-width:1px;stroke-linecap:butt;stroke-linejoin:miter;stroke-opacity:1"
       x="120"
       y="927.36218"
       id="text4914"
       sodipodi:linespacing="125%"><tspan
         sodipodi:role="line"
         id="tspan4916"
         x="120"
         y="927.36218" /></text>
    <g
       id="g4288"
       clip-path="url(#clipPath4492)"
       style="fill:#b76d00;fill-opacity:1">
      <g
         id="g4290"
         style="fill:#b76d00;fill-opacity:1;stroke:none;stroke-width:10.5;stroke-linecap:round;stroke-linejoin:round;stroke-miterlimit:4;stroke-dasharray:none;stroke-opacity:1">
        <path
           id="path4292"
           d="M93.459193 1003.0839C89.075104 1002.7221 85.711821 1002.0018 83.393015 1000.928L-128.739019356 1213.06003436C-126.420213356 1214.13383436 -123.056930356 1214.85413436 -118.672841356 1215.21593436Z"
           style="fill:#b76d00;fill-opacity:1" />
        <path
           id="path4294"
           d="M83.393015 1000.928C77.78954 998.33309 65.957375 982.44809 50.676891 957.00572L-161.455143356 1169.13775436C-146.174659356 1194.58012436 -134.342494356 1210.46512436 -128.739019356 1213.06003436Z"
           style="fill:#b76d00;fill-opacity:1" />
        <path
           id="path4296"
           d="M50.676891 957.00572C42.519102 943.4228 36.727433 932.50497 35.25566 927.93526L-176.876374356 1140.06729436C-175.404601356 1144.63700436 -169.612932356 1155.55483436 -161.455143356 1169.13775436Z"
           style="fill:#b76d00;fill-opacity:1" />
        <path
           id="path4298"
           d="M35.25566 927.93526C34.580179 925.83796 34.577873 925.77732 35.101686 923.88689L-177.030348356 1136.01892436C-177.554161356 1137.90935436 -177.551855356 1137.96999436 -176.876374356 1140.06729436Z"
           style="fill:#b76d00;fill-opacity:1" />
        <path
           id="path4300"
           d="M35.101686 923.88689C38.6404064736 911.115769428 68.425564747 861.219096021 78.0173871356 851.627273632L-134.11464722 1063.75930799C-143.706469609 1073.35113038 -173.491627882 1123.24780378 -177.030348356 1136.01892436Z"
           style="fill:#b76d00;fill-opacity:1" />
        <path
           id="path4302"
           d="M78.0173871356 851.627273632C78.3570591386 851.287601629 78.6714075491 850.998474203 78.95837 850.76333L-133.173664356 1062.89536436C-133.460626807 1063.13050856 -133.774975217 1063.41963599 -134.11464722 1063.75930799Z"
           style="fill:#b76d00;fill-opacity:1" />
        <path
           id="path4304"
           d="M78.95837 850.76333C81.843402 848.39926 84.791526 847.6022 93.602569 846.8041L-118.529465356 1058.93613436C-127.340508356 1059.73423436 -130.288632356 1060.53129436 -133.173664356 1062.89536436Z"
           style="fill:#b76d00;fill-opacity:1" />
        <path
           id="path4306"
           d="M93.602569 846.8041C103.00933 845.95203 109.56526 845.68482 125.39005 845.50849L-86.741984356 1057.64052436C-102.566774356 1057.81685436 -109.122704356 1058.08406436 -118.529465356 1058.93613436Z"
           style="fill:#b76d00;fill-opacity:1" />
        <path
           id="path4308"
           d="M125.39005 845.50849C149.21508 845.24301 167.57173 846.1426 173.63738 847.87291L-38.494654356 1060.00494436C-44.560304356 1058.27463436 -62.916954356 1057.37504436 -86.741984356 1057.64052436Z"
           style="fill:#b76d00;fill-opacity:1" />
        <path
           id="path4310"
           d="M173.63738 847.87291C176.10456 848.5767 181.4465 855.10728 190.31346 868.25959L-21.818574356 1080.39162436C-30.685534356 1067.23931436 -36.027474356 1060.70873436 -38.494654356 1060.00494436Z"
           style="fill:#b76d00;fill-opacity:1" />
        <path
           id="path4312"
           d="M190.31346 868.25959C203.56515 887.91574 217.30503 911.68622 220.65416 920.75011L8.52212564404 1132.88214436C5.17299564404 1123.81825436 -8.56688435596 1100.04777436 -21.818574356 1080.39162436Z"
           style="fill:#b76d00;fill-opacity:1" />
        <path
           id="path4314"
           d="M220.65416 920.75011C222.04269 924.50794 221.3859 926.80728 215.65456 938.25309L3.52252564404 1150.38512436C9.25386564404 1138.93931436 9.91065564404 1136.63997436 8.52212564404 1132.88214436Z"
           style="fill:#b76d00;fill-opacity:1" />
        <path
           id="path4316"
           d="M215.65456 938.25309C204.634880101 960.260005177 185.931214293 990.010398226 178.38682468 997.554787839L-33.7452096759 1209.68682219C-26.2008200633 1202.14243258 -7.49715425538 1172.39203953 3.52252564404 1150.38512436Z"
           style="fill:#b76d00;fill-opacity:1" />
        <path
           id="path4318"
           d="M178.38682468 997.554787839C178.348369015 997.593243504 178.310203289 997.631122213 178.27233 997.66842L-33.859704356 1209.80045436C-33.8218310665 1209.76315657 -33.7836653413 1209.72527786 -33.7452096759 1209.68682219Z"
           style="fill:#b76d00;fill-opacity:1" />
        <path
           id="path4320"
           d="M178.27233 997.66842C174.6377 1001.2479 171.344 1002.0404 156.8954 1002.8126L-55.236634356 1214.94463436C-40.788034356 1214.17243436 -37.494334356 1213.37993436 -33.859704356 1209.80045436Z"
           style="fill:#b76d00;fill-opacity:1" />
        <path
           id="path4322"
           d="M156.8954 1002.8126C149.30414 1003.2182 97.75947 1003.4387 93.459193 1003.0839L-118.672841356 1215.21593436C-114.372564356 1215.57073436 -62.827894356 1215.35023436 -55.236634356 1214.94463436Z"
           style="fill:#b76d00;fill-opacity:1" />
        <path
           id="path4324"
           d="M146.08922 989.09875C157.47018 988.48524 162.98976 987.61826 165.9656 985.97669L-46.166434356 1198.10872436C-49.142274356 1199.75029436 -54.661854356 1200.61727436 -66.042814356 1201.23078436Z"
           style="fill:#b76d00;fill-opacity:1" />
        <path
           id="path4326"
           d="M165.9656 985.97669C166.386786817 985.744349534 166.720720154 985.516814658 166.961786484 985.275748328L-45.1702478724 1197.40778268C-45.4113142021 1197.64884901 -45.7452475387 1197.87638389 -46.166434356 1198.10872436Z"
           style="fill:#b76d00;fill-opacity:1" />
        <path
           id="path4328"
           d="M166.961786484 985.275748328C168.058348196 984.179186615 167.233347503 982.802638144 163.95843 979.42019L-48.173604356 1191.55222436C-44.8986868525 1194.9346725 -44.0736861596 1196.31122097 -45.1702478724 1197.40778268Z"
           style="fill:#b76d00;fill-opacity:1" />
        <path
           id="path4330"
           d="M163.95843 979.42019C161.52116 976.90288 131.63907 948.79213 128.8286 946.37276L-83.303434356 1158.50479436C-80.492964356 1160.92416436 -50.610874356 1189.03491436 -48.173604356 1191.55222436Z"
           style="fill:#b76d00;fill-opacity:1" />
        <path
           id="path4332"
           d="M128.8286 946.37276C128.18727 945.82068 128.11964 945.87839 118.49166 955.19444L-93.640374356 1167.32647436C-84.012394356 1158.01042436 -83.944764356 1157.95271436 -83.303434356 1158.50479436Z"
           style="fill:#b76d00;fill-opacity:1" />
        <path
           id="path4334"
           d="M118.49166 955.19444C109.800253699 963.604260677 103.544628427 969.709265821 99.1239253703 974.129968877L-113.008108986 1186.26200323C-108.587405929 1181.84130018 -102.331780657 1175.73629503 -93.640374356 1167.32647436Z"
           style="fill:#b76d00;fill-opacity:1" />
        <path
           id="path4336"
           d="M99.1239253703 974.129968877C91.6684218861 981.585472362 89.4319379814 984.25036102 89.532239 985.10115L-122.599795356 1197.23318436C-122.700096375 1196.38239538 -120.46361247 1193.71750672 -113.008108986 1186.26200323Z"
           style="fill:#b76d00;fill-opacity:1" />
        <path
           id="path4338"
           d="M89.532239 985.10115C89.792278 987.30692 95.148961 988.70532 105.91869 989.37893L-106.213344356 1201.51096436C-116.983073356 1200.83735436 -122.339756356 1199.43895436 -122.599795356 1197.23318436Z"
           style="fill:#b76d00;fill-opacity:1" />
        <path
           id="path4340"
           d="M105.91869 989.37893C111.22852 989.71104 138.22359 989.52276 146.08922 989.09875L-66.042814356 1201.23078436C-73.908444356 1201.65479436 -100.903514356 1201.84307436 -106.213344356 1201.51096436Z"
           style="fill:#b76d00;fill-opacity:1" />
        <path
           id="path4342"
           d="M77.601859 959.04548C79.693212 957.25513 87.334477 949.89247 94.582443 942.684L-117.549591356 1154.81603436C-124.797557356 1162.02450436 -132.438822356 1169.38716436 -134.530175356 1171.17751436Z"
           style="fill:#b76d00;fill-opacity:1" />
        <path
           id="path4344"
           d="M94.582443 942.684L107.76057 929.5777L-104.371464356 1141.70973436L-117.549591356 1154.81603436Z"
           style="fill:#b76d00;fill-opacity:1" />
        <path
           id="path4346"
           d="M107.76057 929.5777L97.81424 918.46712L-114.317794356 1130.59915436L-104.371464356 1141.70973436Z"
           style="fill:#b76d00;fill-opacity:1" />
        <path
           id="path4348"
           d="M97.81424 918.46712C86.005673 905.27631 79.657043 898.3937 75.534171 894.31308L-136.597863356 1106.44511436C-132.474991356 1110.52573436 -126.126361356 1117.40834436 -114.317794356 1130.59915436Z"
           style="fill:#b76d00;fill-opacity:1" />
        <path
           id="path4350"
           d="M75.534171 894.31308L72.504857 891.3148L-139.627177356 1103.44683436L-136.597863356 1106.44511436Z"
           style="fill:#b76d00;fill-opacity:1" />
        <path
           id="path4352"
           d="M72.504857 891.3148L71.819474 892.03008L-140.312560356 1104.16211436L-139.627177356 1103.44683436Z"
           style="fill:#b76d00;fill-opacity:1" />
        <path
           id="path4354"
           d="M71.819474 892.03008C68.875854 895.10209 57.590014 916.06129 55.696518 921.9724L-156.435516356 1134.10443436C-154.542020356 1128.19332436 -143.256180356 1107.23412436 -140.312560356 1104.16211436Z"
           style="fill:#b76d00;fill-opacity:1" />
        <path
           id="path4356"
           d="M55.696518 921.9724C54.603438 925.38477 54.559169 926.38556 55.391957 928.85765L-156.740077356 1140.98968436C-157.572865356 1138.51759436 -157.528596356 1137.51680436 -156.435516356 1134.10443436Z"
           style="fill:#b76d00;fill-opacity:1" />
        <path
           id="path4358"
           d="M55.391957 928.85765C56.591672 932.41895 63.743581 946.07887 69.076688 954.99506L-143.055346356 1167.12709436C-148.388453356 1158.21090436 -155.540362356 1144.55098436 -156.740077356 1140.98968436Z"
           style="fill:#b76d00;fill-opacity:1" />
        <path
           id="path4360"
           d="M69.076688 954.99506C72.737613 961.1156 73.466613 962.27996 73.644666 962.29103L-138.487368356 1174.42306436C-138.665421356 1174.41199436 -139.394421356 1173.24763436 -143.055346356 1167.12709436Z"
           style="fill:#b76d00;fill-opacity:1" />
        <path
           id="path4362"
           d="M73.644666 962.29103C73.729766 962.29603 75.510507 960.83582 77.601859 959.04548L-134.530175356 1171.17751436C-136.621527356 1172.96785436 -138.402268356 1174.42806436 -138.487368356 1174.42306436Z"
           style="fill:#b76d00;fill-opacity:1" />
        <path
           id="path4364"
           d="M184.39331 960.02432C188.30928 954.06813 199.22142 932.24484 201.24848 926.3155L-10.883554356 1138.44753436C-12.910614356 1144.37687436 -23.822754356 1166.20016436 -27.738724356 1172.15635436Z"
           style="fill:#b76d00;fill-opacity:1" />
        <path
           id="path4366"
           d="M201.24848 926.3155C201.81759 924.65081 201.82133 924.49936 201.33458 922.82516L-10.797454356 1134.95719436C-10.310704356 1136.63139436 -10.314444356 1136.78284436 -10.883554356 1138.44753436Z"
           style="fill:#b76d00;fill-opacity:1" />
        <path
           id="path4368"
           d="M201.33458 922.82516C199.38091 916.10477 186.48126 892.93716 183.75421 891.25105L-28.377824356 1103.38308436C-25.650774356 1105.06919436 -12.751124356 1128.23680436 -10.797454356 1134.95719436Z"
           style="fill:#b76d00;fill-opacity:1" />
        <path
           id="path4370"
           d="M183.75421 891.25105C183.431416659 891.051471285 183.192222218 891.09012651 182.687766602 891.594582125L-29.4442677535 1103.72661648C-28.9398121382 1103.22216087 -28.7006176972 1103.18350564 -28.377824356 1103.38308436Z"
           style="fill:#b76d00;fill-opacity:1" />
        <path
           id="path4372"
           d="M182.687766602 891.594582125C182.48545407 891.796894658 182.240476381 892.07412749 181.93033 892.44096L-30.201704356 1104.57299436C-29.8915579754 1104.20616185 -29.6465802863 1103.92892901 -29.4442677535 1103.72661648Z"
           style="fill:#b76d00;fill-opacity:1" />
        <path
           id="path4374"
           d="M181.93033 892.44096C179.76813 894.99841 176.91437 898.00906 163.60952 911.76899L-48.522514356 1123.90102436C-35.217664356 1110.14109436 -32.363904356 1107.13044436 -30.201704356 1104.57299436Z"
           style="fill:#b76d00;fill-opacity:1" />
        <path
           id="path4376"
           d="M163.60952 911.76899C146.18029 929.79438 146.31471 929.65195 146.43732 929.96384L-65.694714356 1142.09587436C-65.817324356 1141.78398436 -65.951744356 1141.92641436 -48.522514356 1123.90102436Z"
           style="fill:#b76d00;fill-opacity:1" />
        <path
           id="path4378"
           d="M146.43732 929.96384C146.5623 930.28178 168.48361 950.04723 176.79969 957.34021L-35.332344356 1169.47224436C-43.648424356 1162.17926436 -65.569734356 1142.41381436 -65.694714356 1142.09587436Z"
           style="fill:#b76d00;fill-opacity:1" />
        <path
           id="path4380"
           d="M176.79969 957.34021C179.87835 960.0401 182.55773 962.18753 182.75388 962.11226L-29.378154356 1174.24429436C-29.574304356 1174.31956436 -32.253684356 1172.17213436 -35.332344356 1169.47224436Z"
           style="fill:#b76d00;fill-opacity:1" />
        <path
           id="path4382"
           d="M182.75388 962.11226C182.792453787 962.097451159 182.851974622 962.049216151 182.928077962 961.973112811L-29.2039563943 1174.10514717C-29.2800597343 1174.18125051 -29.3395805694 1174.22948551 -29.378154356 1174.24429436Z"
           style="fill:#b76d00;fill-opacity:1" />
        <path
           id="path4384"
           d="M182.928077962 961.973112811C183.238944905 961.662245868 183.826500779 960.886379262 184.39327 960.02432L-27.738764356 1172.15635436C-28.3055335765 1173.01841362 -28.8930894508 1173.79428022 -29.2039563943 1174.10514717Z"
           style="fill:#b76d00;fill-opacity:1" />
        <path
           id="path4386"
           d="M131.92126 900.73188C139.73223 892.76597 162.75795 866.9493 164.1431 864.60443L-47.988934356 1076.73646436C-49.374084356 1079.08133436 -72.399804356 1104.89800436 -80.210774356 1112.86391436Z"
           style="fill:#b76d00;fill-opacity:1" />
        <path
           id="path4388"
           d="M164.1431 864.60443C164.66661 863.7182 164.66323 863.69294 163.95939 863.23176L-48.172644356 1075.36379436C-47.468804356 1075.82497436 -47.465424356 1075.85023436 -47.988934356 1076.73646436Z"
           style="fill:#b76d00;fill-opacity:1" />
        <path
           id="path4390"
           d="M163.95939 863.23176C161.42917 861.57389 138.99164 860.57383 118.71888 861.21534L-93.413154356 1073.34737436C-73.140394356 1072.70586436 -50.702864356 1073.70592436 -48.172644356 1075.36379436Z"
           style="fill:#b76d00;fill-opacity:1" />
        <path
           id="path4392"
           d="M118.71888 861.21534C101.912503588 861.747157831 92.399283683 862.696547739 91.1372524535 863.958578968L-120.994781902 1076.09061332C-119.732750673 1074.82858209 -110.219530768 1073.87919219 -93.413154356 1073.34737436Z"
           style="fill:#b76d00;fill-opacity:1" />
        <path
           id="path4394"
           d="M91.1372524535 863.958578968C91.0411624404 864.054668981 90.992906 864.15257143 90.992906 864.25224L-121.139128356 1076.38427436C-121.139128356 1076.28460579 -121.090871916 1076.18670334 -120.994781902 1076.09061332Z"
           style="fill:#b76d00;fill-opacity:1" />
        <path
           id="path4396"
           d="M90.992906 864.25224C90.992906 865.45172 95.650462 870.72492 112.12653 888.17937L-100.005504356 1100.31140436C-116.481572356 1082.85695436 -121.139128356 1077.58375436 -121.139128356 1076.38427436Z"
           style="fill:#b76d00;fill-opacity:1" />
        <path
           id="path4398"
           d="M112.12653 888.17937C125.48559 902.33171 127.29993 904.16034 127.98258 904.16034L-84.149454356 1116.29237436C-84.832104356 1116.29237436 -86.646444356 1114.46374436 -100.005504356 1100.31140436Z"
           style="fill:#b76d00;fill-opacity:1" />
        <path
           id="path4400"
           d="M127.98258 904.16034C128.289939507 904.16034 129.730361039 902.927217543 131.476037662 901.18154092L-80.6559966941 1113.31357528C-82.4016733168 1115.0592519 -83.8420948492 1116.29237436 -84.149454356 1116.29237436Z"
           style="fill:#b76d00;fill-opacity:1" />
        <path
           id="path4402"
           d="M131.476037662 901.18154092C131.622460347 901.035118235 131.771030626 900.885089523 131.92126 900.73188L-80.210774356 1112.86391436C-80.3610037301 1113.01712388 -80.5095740088 1113.16715259 -80.6559966941 1113.31357528Z"
           style="fill:#b76d00;fill-opacity:1" />
      </g>
      <path
         style="fill:#b76d00;fill-opacity:1;stroke:none;stroke-width:10.5;stroke-linecap:round;stroke-linejoin:round;stroke-miterlimit:4;stroke-dasharray:none;stroke-opacity:1"
         d="m 93.459193,1003.0839 c -4.384089,-0.3618 -7.747372,-1.0821 -10.066178,-2.1559 C 77.78954,998.33309 65.957375,982.44809 50.676891,957.00572 42.519102,943.4228 36.727433,932.50497 35.25566,927.93526 c -0.675481,-2.0973 -0.677787,-2.15794 -0.153974,-4.04837 3.664036,-13.22338 35.466337,-66.2483 43.856684,-73.12356 2.885032,-2.36407 5.833156,-3.16113 14.644199,-3.95923 9.406761,-0.85207 15.962691,-1.11928 31.787481,-1.29561 23.82503,-0.26548 42.18168,0.63411 48.24733,2.36442 2.46718,0.70379 7.80912,7.23437 16.67608,20.38668 13.25169,19.65615 26.99157,43.42663 30.3407,52.49052 1.38853,3.75783 0.73174,6.05717 -4.9996,17.50298 -11.07585,22.11909 -29.91422,52.0608 -37.38223,59.41533 -3.63463,3.57948 -6.92833,4.37198 -21.37693,5.14418 -7.59126,0.4056 -59.13593,0.6261 -63.436207,0.2713 z m 52.630027,-13.98515 c 11.38096,-0.61351 16.90054,-1.48049 19.87638,-3.12206 2.33708,-1.28921 1.9877,-2.43046 -2.00717,-6.5565 -2.43727,-2.51731 -32.31936,-30.62806 -35.12983,-33.04743 -0.64133,-0.55208 -0.70896,-0.49437 -10.33694,8.82168 -23.349439,22.59296 -29.119195,28.55145 -28.959421,29.90671 0.260039,2.20577 5.616722,3.60417 16.386451,4.27778 5.30983,0.33211 32.3049,0.14383 40.17053,-0.28018 z M 77.601859,959.04548 c 2.091353,-1.79035 9.732618,-9.15301 16.980584,-16.36148 L 107.76057,929.5777 97.81424,918.46712 C 86.005673,905.27631 79.657043,898.3937 75.534171,894.31308 l -3.029314,-2.99828 -0.685383,0.71528 c -2.94362,3.07201 -14.22946,24.03121 -16.122956,29.94232 -1.09308,3.41237 -1.137349,4.41316 -0.304561,6.88525 1.199715,3.5613 8.351624,17.22122 13.684731,26.13741 3.660925,6.12054 4.389925,7.2849 4.567978,7.29597 0.0851,0.005 1.865841,-1.45521 3.957193,-3.24555 z m 106.791451,0.97884 c 3.91597,-5.95619 14.82811,-27.77948 16.85517,-33.70882 0.56911,-1.66469 0.57285,-1.81614 0.0861,-3.49034 -1.95367,-6.72039 -14.85332,-29.888 -17.58037,-31.57411 -0.45225,-0.27962 -0.7404,-0.0916 -1.82388,1.18991 -2.1622,2.55745 -5.01596,5.5681 -18.32081,19.32803 -17.42923,18.02539 -17.29481,17.88296 -17.1722,18.19485 0.12498,0.31794 22.04629,20.08339 30.36237,27.37637 3.07866,2.69989 5.75804,4.84732 5.95419,4.77205 0.19614,-0.0753 0.93387,-1.01484 1.63939,-2.08794 z m -52.47205,-59.29244 c 7.81097,-7.96591 30.83669,-33.78258 32.22184,-36.12745 0.52351,-0.88623 0.52013,-0.91149 -0.18371,-1.37267 -2.53022,-1.65787 -24.96775,-2.65793 -45.24051,-2.01642 -18.086,0.57231 -27.725974,1.6282 -27.725974,3.0369 0,1.19948 4.657556,6.47268 21.133624,23.92713 13.35906,14.15234 15.1734,15.98097 15.85605,15.98097 0.33314,0 1.99739,-1.44866 3.93868,-3.42846 z"
         id="path4258"
         inkscape:connector-curvature="0" />
    </g>
    <path
       inkscape:connector-curvature="0"
       id="path4256"
       d="m 93.459193,1003.0839 c -4.384089,-0.3618 -7.747372,-1.0821 -10.066178,-2.1559 C 77.78954,998.33309 65.957375,982.44809 50.676891,957.00572 42.519102,943.4228 36.727433,932.50497 35.25566,927.93526 c -0.675481,-2.0973 -0.677787,-2.15794 -0.153974,-4.04837 3.664036,-13.22338 35.466337,-66.2483 43.856684,-73.12356 2.885032,-2.36407 5.833156,-3.16113 14.644199,-3.95923 9.406761,-0.85207 15.962691,-1.11928 31.787481,-1.29561 23.82503,-0.26548 42.18168,0.63411 48.24733,2.36442 2.46718,0.70379 7.80912,7.23437 16.67608,20.38668 13.25169,19.65615 26.99157,43.42663 30.3407,52.49052 1.38853,3.75783 0.73174,6.05717 -4.9996,17.50298 -11.07585,22.11909 -29.91422,52.0608 -37.38223,59.41533 -3.63463,3.57948 -6.92833,4.37198 -21.37693,5.14418 -7.59126,0.4056 -59.13593,0.6261 -63.436207,0.2713 z m 52.630027,-13.98515 c 11.38096,-0.61351 16.90054,-1.48049 19.87638,-3.12206 2.33708,-1.28921 1.9877,-2.43046 -2.00717,-6.5565 -2.43727,-2.51731 -32.31936,-30.62806 -35.12983,-33.04743 -0.64133,-0.55208 -0.70896,-0.49437 -10.33694,8.82168 -23.349439,22.59296 -29.119195,28.55145 -28.959421,29.90671 0.260039,2.20577 5.616722,3.60417 16.386451,4.27778 5.30983,0.33211 32.3049,0.14383 40.17053,-0.28018 z M 77.601859,959.04548 c 2.091353,-1.79035 9.732618,-9.15301 16.980584,-16.36148 L 107.76057,929.5777 97.81424,918.46712 C 86.005673,905.27631 79.657043,898.3937 75.534171,894.31308 l -3.029314,-2.99828 -0.685383,0.71528 c -2.94362,3.07201 -14.22946,24.03121 -16.122956,29.94232 -1.09308,3.41237 -1.137349,4.41316 -0.304561,6.88525 1.199715,3.5613 8.351624,17.22122 13.684731,26.13741 3.660925,6.12054 4.389925,7.2849 4.567978,7.29597 0.0851,0.005 1.865841,-1.45521 3.957193,-3.24555 z m 106.791451,0.97884 c 3.91597,-5.95619 14.82811,-27.77948 16.85517,-33.70882 0.56911,-1.66469 0.57285,-1.81614 0.0861,-3.49034 -1.95367,-6.72039 -14.85332,-29.888 -17.58037,-31.57411 -0.45225,-0.27962 -0.7404,-0.0916 -1.82388,1.18991 -2.1622,2.55745 -5.01596,5.5681 -18.32081,19.32803 -17.42923,18.02539 -17.29481,17.88296 -17.1722,18.19485 0.12498,0.31794 22.04629,20.08339 30.36237,27.37637 3.07866,2.69989 5.75804,4.84732 5.95419,4.77205 0.19614,-0.0753 0.93387,-1.01484 1.63939,-2.08794 z m -52.47205,-59.29244 c 7.81097,-7.96591 30.83669,-33.78258 32.22184,-36.12745 0.52351,-0.88623 0.52013,-0.91149 -0.18371,-1.37267 -2.53022,-1.65787 -24.96775,-2.65793 -45.24051,-2.01642 -18.086,0.57231 -27.725974,1.6282 -27.725974,3.0369 0,1.19948 4.657556,6.47268 21.133624,23.92713 13.35906,14.15234 15.1734,15.98097 15.85605,15.98097 0.33314,0 1.99739,-1.44866 3.93868,-3.42846 z"
       style="fill:#ffffff;fill-opacity:1;stroke:none;stroke-width:10.5;stroke-linecap:round;stroke-linejoin:round;stroke-miterlimit:4;stroke-dasharray:none;stroke-opacity:1" />
  </g>
</svg>
