<?xml version="1.0" encoding="UTF-8" standalone="no"?>
<!-- Created with Inkscape (http://www.inkscape.org/) -->

<svg
   xmlns:dc="http://purl.org/dc/elements/1.1/"
   xmlns:cc="http://creativecommons.org/ns#"
   xmlns:rdf="http://www.w3.org/1999/02/22-rdf-syntax-ns#"
   xmlns:svg="http://www.w3.org/2000/svg"
   xmlns="http://www.w3.org/2000/svg"
   xmlns:sodipodi="http://sodipodi.sourceforge.net/DTD/sodipodi-0.dtd"
   xmlns:inkscape="http://www.inkscape.org/namespaces/inkscape"
   width="256"
   height="256"
   viewBox="0 0 256 256"
   id="svg2"
   version="1.1"
   inkscape:version="0.92.2 (5c3e80d, 2017-08-06)"
   sodipodi:docname="im-irc.svg">
  <sodipodi:namedview
     id="base"
     pagecolor="#ffffff"
     bordercolor="#666666"
     borderopacity="1.0"
     inkscape:pageopacity="0.0"
     inkscape:pageshadow="2"
     inkscape:zoom="2.0507812"
     inkscape:cx="24.624759"
     inkscape:cy="128"
     inkscape:document-units="px"
     inkscape:current-layer="layer1"
     showgrid="false"
     units="px"
     inkscape:window-width="1920"
     inkscape:window-height="1048"
     inkscape:window-x="0"
     inkscape:window-y="0"
     inkscape:window-maximized="1" />
  <defs
     id="defs4">
    <marker
       inkscape:stockid="Arrow1Mend"
       orient="auto"
       refY="0.0"
       refX="0.0"
       id="Arrow1Mend"
       style="overflow:visible;"
       inkscape:isstock="true">
      <path
         id="path5459"
         d="M 0.0,0.0 L 5.0,-5.0 L -12.5,0.0 L 5.0,5.0 L 0.0,0.0 z "
         style="fill-rule:evenodd;stroke:#000000;stroke-width:1pt;stroke-opacity:1;fill:#000000;fill-opacity:1"
         transform="scale(0.4) rotate(180) translate(10,0)" />
    </marker>
    <marker
       inkscape:isstock="true"
       style="overflow:visible;"
       id="marker7388"
       refX="0.0"
       refY="0.0"
       orient="auto"
       inkscape:stockid="Arrow1Mend">
      <path
         transform="scale(0.4) rotate(180) translate(10,0)"
         style="fill-rule:evenodd;stroke:#000000;stroke-width:1pt;stroke-opacity:1;fill:none;fill-opacity:1"
         d="M 0.0,0.0 L 5.0,-5.0 L -12.5,0.0 L 5.0,5.0 L 0.0,0.0 z "
         id="path7390" />
    </marker>
    <clipPath
       id="clipPath5002"
       clipPathUnits="userSpaceOnUse">
      <g
         id="g5004">
        <path
           style="fill:#0f9d58;fill-opacity:1;stroke:none;stroke-width:4.85768509;stroke-linejoin:round;stroke-miterlimit:4;stroke-dasharray:none;stroke-opacity:1"
           d="M 88.118406,249.43519 C 46.103287,235.29134 14.771284,201.68742 4.1335861,159.36053 1.3377997,148.23623 0.92261224,144.16281 0.92582381,127.88908 0.92787958,117.47222 1.134384,112.01362 1.6577819,108.54099 4.4653598,89.913336 12.17654,70.638106 23.042737,55.086148 c 3.958678,-5.665755 8.344812,-10.93092 9.101533,-10.925587 0.32809,0.0023 10.488643,18.309713 22.579009,40.683112 12.090365,22.373397 22.374546,41.334697 22.853732,42.136217 0.479186,0.80151 0.924733,2.44098 0.990103,3.64326 0.343424,6.31639 2.524175,14.20976 5.6424,20.42304 2.954444,5.88693 5.065381,8.73258 10.434696,14.06652 6.71418,6.66995 12.88853,10.28643 21.73204,12.72904 3.16587,0.87442 5.10478,1.05037 11.57517,1.05037 8.82596,0 12.60219,-0.76201 19.26429,-3.88733 2.04584,-0.95974 3.93661,-1.66536 4.20172,-1.56805 0.2651,0.0973 -11.0555,17.66459 -25.1569,39.0384 l -25.6389,38.86148 -3.094121,0.11221 c -2.554618,0.0927 -4.195204,-0.25845 -9.409103,-2.01364 z"
           id="path5006"
           inkscape:connector-curvature="0"
           transform="translate(0,796.36216)" />
        <path
           style="fill:#f4b400;fill-opacity:1;stroke:none;stroke-width:4.85768509;stroke-linejoin:round;stroke-miterlimit:4;stroke-dasharray:none;stroke-opacity:1"
           d="m 112.35984,1051.5167 c -10.0014,-1.4495 -12.15632,-1.8201 -12.531784,-2.1556 -0.248854,-0.2223 1.738304,-3.7475 4.550294,-8.0722 7.16635,-11.0213 49.77231,-74.64801 50.25856,-75.05489 3.57509,-2.99158 8.63523,-8.0414 10.57512,-10.55356 3.36154,-4.35318 7.55784,-12.9141 9.06523,-18.494 6.19314,-22.92535 -2.59253,-47.15185 -21.69967,-59.83688 l -2.96081,-1.96565 17.02469,0.29584 c 9.36358,0.1627 31.17032,0.43384 48.45941,0.60252 l 31.43471,0.30668 1.54584,4.18869 c 2.24597,6.08579 4.67816,15.0947 5.93451,21.9816 1.52517,8.36049 1.92536,28.85896 0.73851,37.82758 -3.0805,23.27845 -12.81326,45.72018 -27.80202,64.10577 -20.47622,25.1166 -51.4599,42.1974 -84.14612,46.3885 -5.31244,0.6812 -26.64601,0.9864 -30.44647,0.4356 z"
           id="path5008"
           inkscape:connector-curvature="0" />
        <path
           style="fill:#db4437;fill-opacity:1;stroke:none;stroke-width:10;stroke-linejoin:round;stroke-miterlimit:4;stroke-dasharray:none;stroke-opacity:1"
           d="M 67.989788,108.87302 C 41.284246,59.575543 33.290284,45.149038 32.233625,44.344765 31.651257,43.901497 32.811213,42.549931 38.695603,36.815353 53.43581,22.450419 68.809334,13.040746 87.839196,6.7360352 101.68742,2.1480329 112.58238,0.43719165 127.95142,0.43719165 c 21.3099,0 37.80488,3.80960275 56.83492,13.12633035 25.29351,12.383198 46.19421,33.578863 58.51993,59.345832 1.61138,3.368591 2.92978,6.372442 2.92978,6.675231 0,0.560033 -10.54865,0.49527 -71.16508,-0.436914 l -24.28843,-0.373518 -3.93063,-1.764495 c -6.75732,-3.033425 -10.64587,-3.839529 -18.6576,-3.867747 -5.0296,-0.01773 -7.97946,0.207636 -10.31642,0.788106 -14.50826,3.603659 -26.283291,12.94777 -33.291614,26.418653 -3.58502,6.89086 -5.24713,13.08166 -6.331628,23.58317 l -0.33738,3.26696 -9.92748,-18.32578 z"
           id="path5010"
           inkscape:connector-curvature="0"
           transform="translate(0,796.36216)" />
      </g>
    </clipPath>
    <radialGradient
       gradientUnits="userSpaceOnUse"
       gradientTransform="matrix(0.7100982,0,0,-0.69667735,-12.931184,1000.262)"
       r="322.22"
       cy="216.92"
       cx="278.95999"
       id="SVGID21">
      <stop
         id="stop131"
         stop-color="#ffffff"
         offset="0.119" />
      <stop
         id="stop133"
         stop-color="#fffffa"
         offset="0.122" />
      <stop
         id="stop135"
         stop-color="#ffe560"
         offset="0.25" />
      <stop
         id="stop137"
         stop-color="#ffdf56"
         offset="0.287" />
      <stop
         id="stop139"
         stop-color="#f8d03b"
         offset="0.347" />
      <stop
         id="stop141"
         stop-color="#f0be1b"
         offset="0.406" />
      <stop
         id="stop143"
         stop-color="#eb9d23"
         offset="0.473" />
      <stop
         id="stop145"
         stop-color="#e57c27"
         offset="0.548" />
      <stop
         id="stop147"
         stop-color="#dd5626"
         offset="0.765" />
      <stop
         id="stop149"
         stop-color="#c33a28"
         offset="0.903" />
      <stop
         id="stop151"
         stop-color="#b02228"
         offset="1" />
    </radialGradient>
    <clipPath
       id="clipPath6128"
       clipPathUnits="userSpaceOnUse">
      <circle
         style="opacity:1;fill:#4285f4;fill-opacity:1;stroke:none;stroke-width:20.51976967;stroke-linecap:round;stroke-linejoin:round;stroke-miterlimit:4;stroke-dasharray:none;stroke-opacity:1"
         id="circle6130"
         cx="128"
         cy="925.362"
         r="128" />
    </clipPath>
    <clipPath
       clipPathUnits="userSpaceOnUse"
       id="clipPath6618">
      <circle
         style="opacity:1;fill:#4285f4;fill-opacity:1;stroke:none;stroke-width:20.51976967;stroke-linecap:round;stroke-linejoin:round;stroke-miterlimit:4;stroke-dasharray:none;stroke-opacity:1"
         id="circle6620"
         cx="128"
         cy="925.362"
         r="128" />
    </clipPath>
    <clipPath
       clipPathUnits="userSpaceOnUse"
       id="clipPath5300">
      <circle
         style="opacity:1;fill:#3f71aa;fill-opacity:1;stroke:none;stroke-width:20.51976967;stroke-linecap:round;stroke-linejoin:round;stroke-miterlimit:4;stroke-dasharray:none;stroke-opacity:1"
         id="circle5302"
         cx="128"
         cy="925.362"
         r="128" />
    </clipPath>
    <clipPath
       clipPathUnits="userSpaceOnUse"
       id="clipPath5390">
      <circle
         style="opacity:1;fill:#3f71aa;fill-opacity:1;stroke:none;stroke-width:20.51976967;stroke-linecap:round;stroke-linejoin:round;stroke-miterlimit:4;stroke-dasharray:none;stroke-opacity:1"
         id="circle5392"
         cx="128"
         cy="925.362"
         r="128" />
    </clipPath>
    <clipPath
       id="clipPath5032"
       clipPathUnits="userSpaceOnUse">
      <circle
         style="opacity:1;fill:#aa9a3f;fill-opacity:1;stroke:none;stroke-width:20.51976967;stroke-linecap:round;stroke-linejoin:round;stroke-miterlimit:4;stroke-dasharray:none;stroke-opacity:1"
         id="circle5034"
         cx="128"
         cy="927.04407"
         r="128" />
    </clipPath>
    <clipPath
       clipPathUnits="userSpaceOnUse"
       id="clipPath4424">
      <circle
         style="opacity:1;fill:#6996c8;fill-opacity:1;stroke:none;stroke-width:20.51976967;stroke-linecap:round;stroke-linejoin:round;stroke-miterlimit:4;stroke-dasharray:none;stroke-opacity:1"
         id="circle4426"
         cx="128"
         cy="924.36218"
         r="128" />
    </clipPath>
  </defs>
  <metadata
     id="metadata7">
    <rdf:RDF>
      <cc:Work
         rdf:about="">
        <dc:format>image/svg+xml</dc:format>
        <dc:type
           rdf:resource="http://purl.org/dc/dcmitype/StillImage" />
        <dc:title />
      </cc:Work>
    </rdf:RDF>
  </metadata>
  <g
     inkscape:label="Layer 1"
     inkscape:groupmode="layer"
     id="layer1"
     transform="translate(0,-796.36216)">
    <path
       style="fill:none;fill-rule:evenodd;stroke:none;stroke-width:1px;stroke-linecap:butt;stroke-linejoin:miter;stroke-opacity:1"
       d="M 154.47438,968.80998 101.03985,1048.476 0.4857685,1048.9618 0,842.0244 l 33.032258,-2.42884 45.176471,83.55218 21.373814,35.4611 26.717267,13.11575 z"
       id="path4913"
       inkscape:connector-curvature="0" />
    <circle
       r="128"
       cy="924.36218"
       cx="128"
       id="path4152"
       style="opacity:1;fill:#6996c8;fill-opacity:1;stroke:none;stroke-width:20.51976967;stroke-linecap:round;stroke-linejoin:round;stroke-miterlimit:4;stroke-dasharray:none;stroke-opacity:1" />
    <g
       id="text4227"
       style="font-style:normal;font-variant:normal;font-weight:bold;font-stretch:normal;font-size:180px;line-height:125%;font-family:sans-serif;-inkscape-font-specification:'sans-serif Bold';letter-spacing:0px;word-spacing:0px;fill:#365e96;fill-opacity:1;stroke:none;stroke-width:1px;stroke-linecap:butt;stroke-linejoin:miter;stroke-opacity:1"
       clip-path="url(#clipPath4424)">
      <g
         id="g4277"
         style="fill:#365e96;fill-opacity:1">
        <g
           id="g4279"
           style="fill:#365e96;fill-opacity:1">
          <path
             id="path4281"
             d="M132.6582 859.76257L124.2207 893.60046L-87.911334356 1105.73249436L-79.473834356 1071.89460436Z"
             style="fill:#365e96;fill-opacity:1" />
          <path
             id="path4283"
             d="M124.2207 893.60046L147.42383 893.60046L-64.708204356 1105.73249436L-87.911334356 1105.73249436Z"
             style="fill:#365e96;fill-opacity:1" />
          <path
             id="path4285"
             d="M147.42383 893.60046L155.94922 859.76257L-56.182814356 1071.89460436L-64.708204356 1105.73249436Z"
             style="fill:#365e96;fill-opacity:1" />
          <path
             id="path4287"
             d="M155.94922 859.76257L175.37305 859.76257L-36.758984356 1071.89460436L-56.182814356 1071.89460436Z"
             style="fill:#365e96;fill-opacity:1" />
          <path
             id="path4289"
             d="M175.37305 859.76257L166.84766 893.60046L-45.284374356 1105.73249436L-36.758984356 1071.89460436Z"
             style="fill:#365e96;fill-opacity:1" />
          <path
             id="path4291"
             d="M166.84766 893.60046L191.19336 893.60046L-20.938674356 1105.73249436L-45.284374356 1105.73249436Z"
             style="fill:#365e96;fill-opacity:1" />
          <path
             id="path4293"
             d="M191.19336 893.60046L191.19336 912.32117L-20.938674356 1124.45320436L-20.938674356 1105.73249436Z"
             style="fill:#365e96;fill-opacity:1" />
          <path
             id="path4295"
             d="M191.19336 912.32117L162.18945 912.32117L-49.942584356 1124.45320436L-20.938674356 1124.45320436Z"
             style="fill:#365e96;fill-opacity:1" />
          <path
             id="path4297"
             d="M162.18945 912.32117L156.125 936.4032L-56.007034356 1148.53523436L-49.942584356 1124.45320436Z"
             style="fill:#365e96;fill-opacity:1" />
          <path
             id="path4299"
             d="M156.125 936.4032L181.08594 936.4032L-31.046094356 1148.53523436L-56.007034356 1148.53523436Z"
             style="fill:#365e96;fill-opacity:1" />
          <path
             id="path4301"
             d="M181.08594 936.4032L181.08594 955.29968L-31.046094356 1167.43171436L-31.046094356 1148.53523436Z"
             style="fill:#365e96;fill-opacity:1" />
          <path
             id="path4303"
             d="M181.08594 955.29968L151.55469 955.29968L-60.577344356 1167.43171436L-31.046094356 1167.43171436Z"
             style="fill:#365e96;fill-opacity:1" />
          <path
             id="path4305"
             d="M151.55469 955.29968L143.11719 988.96179L-69.014844356 1201.09382436L-60.577344356 1167.43171436Z"
             style="fill:#365e96;fill-opacity:1" />
          <path
             id="path4307"
             d="M143.11719 988.96179L123.69336 988.96179L-88.438674356 1201.09382436L-69.014844356 1201.09382436Z"
             style="fill:#365e96;fill-opacity:1" />
          <path
             id="path4309"
             d="M123.69336 988.96179L132.13086 955.29968L-80.001174356 1167.43171436L-88.438674356 1201.09382436Z"
             style="fill:#365e96;fill-opacity:1" />
          <path
             id="path4311"
             d="M132.13086 955.29968L108.92773 955.29968L-103.204304356 1167.43171436L-80.001174356 1167.43171436Z"
             style="fill:#365e96;fill-opacity:1" />
          <path
             id="path4313"
             d="M108.92773 955.29968L100.49023 988.96179L-111.641804356 1201.09382436L-103.204304356 1167.43171436Z"
             style="fill:#365e96;fill-opacity:1" />
          <path
             id="path4315"
             d="M100.49023 988.96179L80.890625 988.96179L-131.241409356 1201.09382436L-111.641804356 1201.09382436Z"
             style="fill:#365e96;fill-opacity:1" />
          <path
             id="path4317"
             d="M80.890625 988.96179L89.328125 955.29968L-122.803909356 1167.43171436L-131.241409356 1201.09382436Z"
             style="fill:#365e96;fill-opacity:1" />
          <path
             id="path4319"
             d="M89.328125 955.29968L64.806641 955.29968L-147.325393356 1167.43171436L-122.803909356 1167.43171436Z"
             style="fill:#365e96;fill-opacity:1" />
          <path
             id="path4321"
             d="M64.806641 955.29968L64.806641 936.4032L-147.325393356 1148.53523436L-147.325393356 1167.43171436Z"
             style="fill:#365e96;fill-opacity:1" />
          <path
             id="path4323"
             d="M64.806641 936.4032L93.634766 936.4032L-118.497268356 1148.53523436L-147.325393356 1148.53523436Z"
             style="fill:#365e96;fill-opacity:1" />
          <path
             id="path4325"
             d="M93.634766 936.4032L99.787109 912.32117L-112.344925356 1124.45320436L-118.497268356 1148.53523436Z"
             style="fill:#365e96;fill-opacity:1" />
          <path
             id="path4327"
             d="M99.787109 912.32117L74.914062 912.32117L-137.217972356 1124.45320436L-112.344925356 1124.45320436Z"
             style="fill:#365e96;fill-opacity:1" />
          <path
             id="path4329"
             d="M74.914062 912.32117L74.914062 893.60046L-137.217972356 1105.73249436L-137.217972356 1124.45320436Z"
             style="fill:#365e96;fill-opacity:1" />
          <path
             id="path4331"
             d="M74.914062 893.60046L104.62109 893.60046L-107.510944356 1105.73249436L-137.217972356 1105.73249436Z"
             style="fill:#365e96;fill-opacity:1" />
          <path
             id="path4333"
             d="M104.62109 893.60046L113.05859 859.76257L-99.073444356 1071.89460436L-107.510944356 1105.73249436Z"
             style="fill:#365e96;fill-opacity:1" />
          <path
             id="path4335"
             d="M113.05859 859.76257L132.6582 859.76257L-79.473834356 1071.89460436L-99.073444356 1071.89460436Z"
             style="fill:#365e96;fill-opacity:1" />
          <path
             id="path4337"
             d="M142.58984 912.32117L119.38672 912.32117L-92.745314356 1124.45320436L-69.542194356 1124.45320436Z"
             style="fill:#365e96;fill-opacity:1" />
          <path
             id="path4339"
             d="M119.38672 912.32117L113.23438 936.4032L-98.897654356 1148.53523436L-92.745314356 1124.45320436Z"
             style="fill:#365e96;fill-opacity:1" />
          <path
             id="path4341"
             d="M113.23438 936.4032L136.4375 936.4032L-75.694534356 1148.53523436L-98.897654356 1148.53523436Z"
             style="fill:#365e96;fill-opacity:1" />
          <path
             id="path4343"
             d="M136.4375 936.4032L142.58984 912.32117L-69.542194356 1124.45320436L-75.694534356 1148.53523436Z"
             style="fill:#365e96;fill-opacity:1" />
        </g>
        <path
           id="path4236"
           style="fill:#365e96;fill-opacity:1"
           d="m 132.6582,859.76257 -8.4375,33.83789 23.20313,0 8.52539,-33.83789 19.42383,0 -8.52539,33.83789 24.3457,0 0,18.72071 -29.00391,0 -6.06445,24.08203 24.96094,0 0,18.89648 -29.53125,0 -8.4375,33.66211 -19.42383,0 8.4375,-33.66211 -23.20313,0 -8.4375,33.66211 -19.599605,0 8.4375,-33.66211 -24.521484,0 0,-18.89648 28.828125,0 6.152343,-24.08203 -24.873047,0 0,-18.72071 29.707028,0 8.4375,-33.83789 19.59961,0 z m 9.93164,52.5586 -23.20312,0 -6.15234,24.08203 23.20312,0 6.15234,-24.08203 z" />
      </g>
    </g>
    <g
       aria-label="#"
       style="font-style:normal;font-variant:normal;font-weight:bold;font-stretch:normal;line-height:0%;font-family:sans-serif;-inkscape-font-specification:'sans-serif Bold';letter-spacing:0px;word-spacing:0px;fill:#ffffff;fill-opacity:1;stroke:none;stroke-width:1px;stroke-linecap:butt;stroke-linejoin:miter;stroke-opacity:1"
       id="text4231">
      <path
         d="m 132.6582,859.76257 -8.4375,33.83789 h 23.20313 l 8.52539,-33.83789 h 19.42383 l -8.52539,33.83789 h 24.3457 v 18.72071 H 162.18945 L 156.125,936.4032 h 24.96094 v 18.89648 h -29.53125 l -8.4375,33.66211 h -19.42383 l 8.4375,-33.66211 h -23.20313 l -8.4375,33.66211 H 80.890625 l 8.4375,-33.66211 H 64.806641 V 936.4032 h 28.828125 l 6.152343,-24.08203 H 74.914062 v -18.72071 h 29.707028 l 8.4375,-33.83789 z m 9.93164,52.5586 h -23.20312 l -6.15234,24.08203 h 23.20312 z"
         style="font-size:180px;line-height:1.25"
         id="path912" />
    </g>
  </g>
</svg>
