<?xml version="1.0" encoding="UTF-8" standalone="no"?>
<!-- Created with Inkscape (http://www.inkscape.org/) -->

<svg
   xmlns:dc="http://purl.org/dc/elements/1.1/"
   xmlns:cc="http://creativecommons.org/ns#"
   xmlns:rdf="http://www.w3.org/1999/02/22-rdf-syntax-ns#"
   xmlns:svg="http://www.w3.org/2000/svg"
   xmlns="http://www.w3.org/2000/svg"
   xmlns:sodipodi="http://sodipodi.sourceforge.net/DTD/sodipodi-0.dtd"
   xmlns:inkscape="http://www.inkscape.org/namespaces/inkscape"
   width="256"
   height="256"
   viewBox="0 0 256 256"
   id="svg2"
   version="1.1"
   inkscape:version="0.92pre3 r"
   sodipodi:docname="IntelliJ.svg">
  <sodipodi:namedview
     id="base"
     pagecolor="#ffffff"
     bordercolor="#666666"
     borderopacity="1.0"
     inkscape:pageopacity="0.0"
     inkscape:pageshadow="2"
     inkscape:zoom="3.3359375"
     inkscape:cx="128"
     inkscape:cy="128"
     inkscape:document-units="px"
     inkscape:current-layer="layer1"
     showgrid="false"
     units="px"
     inkscape:window-width="1920"
     inkscape:window-height="1054"
     inkscape:window-x="0"
     inkscape:window-y="0"
     inkscape:window-maximized="1" />
  <defs
     id="defs4">
    <linearGradient
       id="linearGradient3931">
      <stop
         style="stop-color:#202020;stop-opacity:1;"
         offset="0"
         id="stop3933" />
      <stop
         style="stop-color:#1a1a1a;stop-opacity:1;"
         offset="1"
         id="stop3935" />
    </linearGradient>
    <clipPath
       id="clipPath5160"
       clipPathUnits="userSpaceOnUse">
      <circle
         r="128"
         cy="924.36218"
         cx="128"
         id="circle5162"
         style="fill:#a24c4c;fill-opacity:1;stroke:none;stroke-width:30;stroke-miterlimit:4;stroke-dasharray:none;stroke-opacity:1" />
    </clipPath>
    <clipPath
       clipPathUnits="userSpaceOnUse"
       id="clipPath4878">
      <circle
         r="120.24246"
         cy="924.36218"
         cx="128"
         id="circle4880"
         style="fill:#f38577;fill-opacity:1;stroke:none;stroke-width:28.18182755;stroke-miterlimit:4;stroke-dasharray:none;stroke-opacity:1" />
    </clipPath>
    <clipPath
       id="clipPath4813"
       clipPathUnits="userSpaceOnUse">
      <circle
         r="128"
         cy="924.36829"
         cx="128.86124"
         id="circle4815"
         style="fill:#31d76f;fill-opacity:1;stroke:none;stroke-width:30;stroke-miterlimit:4;stroke-dasharray:none;stroke-opacity:1" />
    </clipPath>
    <clipPath
       clipPathUnits="userSpaceOnUse"
       id="clipPath4753">
      <circle
         style="fill:#2dcd69;fill-opacity:1;stroke:none;stroke-width:16.52322197;stroke-miterlimit:4;stroke-dasharray:none;stroke-opacity:1"
         id="circle4755"
         cx="126.66613"
         cy="914.13287"
         r="70.499084" />
    </clipPath>
  </defs>
  <metadata
     id="metadata7">
    <rdf:RDF>
      <cc:Work
         rdf:about="">
        <dc:format>image/svg+xml</dc:format>
        <dc:type
           rdf:resource="http://purl.org/dc/dcmitype/StillImage" />
        <dc:title />
      </cc:Work>
    </rdf:RDF>
  </metadata>
  <g
     inkscape:label="Layer 1"
     inkscape:groupmode="layer"
     id="layer1"
     transform="translate(0,-796.36216)">
    <circle
       r="128"
       cy="924.36218"
       cx="128"
       id="circle4536"
       style="fill:#67a2e8;fill-opacity:1;stroke:none;stroke-width:30;stroke-miterlimit:4;stroke-dasharray:none;stroke-opacity:1" />
    <g
       id="g4606"
       transform="matrix(1.8156265,0,0,1.8156265,-101.97838,-735.36172)"
       clip-path="url(#clipPath4753)"
       style="fill:#195ba8;fill-opacity:1">
      <path
         id="path4604"
         d="m 87.076721,925.86244 c -5.379703,-3.22463 -7.736719,-10.57438 -5.278154,-16.45855 0.561434,-1.3437 2.247087,-3.5198 3.745896,-4.83577 8.137191,-7.14455 21.677757,-0.96173 21.677757,9.89838 0,10.26056 -11.338839,16.67473 -20.145499,11.39594 z"
         style="fill:#195ba8;stroke-width:0.75555557;fill-opacity:1"
         inkscape:connector-curvature="0" />
      <g
         id="g4692"
         transform="matrix(0.55077407,0,0,0.55077407,56.167048,843.6338)"
         style="fill:#195ba8;fill-opacity:1">
        <g
           id="g4689"
           style="fill:#195ba8;stroke-width:1.37180674;fill-opacity:1">
          <path
             id="path4629"
             d="M192.19727 43.009766C186.832446176 42.8426725258 181.333404128 44.8819458839 177.138448928 49.0769010838L35.7170926905 190.498257321C39.9120478904 186.303302121 45.4110899385 184.264028763 50.7759137627 184.431122237Z"
             style="fill:#195ba8;fill-opacity:1" />
          <path
             id="path4631"
             d="M177.138448928 49.0769010838C175.575195293 50.6401547185 174.19303845 52.5027649986 173.06641 54.662109L31.6450537627 196.083465237C32.7716822122 193.924121236 34.1538390558 192.061510956 35.7170926905 190.498257321Z"
             style="fill:#195ba8;fill-opacity:1" />
          <path
             id="path4633"
             d="M173.06641 54.662109C170.27844 60.005571 170.20508 61.892026 170.20508 126.68164L28.7837237627 268.102996237C28.7837237627 203.313382237 28.8570837627 201.426927237 31.6450537627 196.083465237Z"
             style="fill:#195ba8;fill-opacity:1" />
          <path
             id="path4635"
             d="M170.20508 126.68164C170.20508 177.74156 170.61922 194.38276 171.98633 198.23828L30.5649737627 339.659636237C29.1978637627 335.804116237 28.7837237627 319.162916237 28.7837237627 268.102996237Z"
             style="fill:#195ba8;fill-opacity:1" />
          <path
             id="path4637"
             d="M171.98633 198.23828C174.21072 204.51143 179.58664 209.99418 185.15039 211.66406L43.7290337627 353.085416237C38.1652837627 351.415536237 32.7893637627 345.932786237 30.5649737627 339.659636237Z"
             style="fill:#195ba8;fill-opacity:1" />
          <path
             id="path4639"
             d="M185.15039 211.66406C192.484631037 213.865330472 199.749923534 211.942951454 204.991804329 206.701070659L63.5704480916 348.122426896C58.3285672963 353.364307691 51.0632748001 355.286686709 43.7290337627 353.085416237Z"
             style="fill:#195ba8;fill-opacity:1" />
          <path
             id="path4641"
             d="M204.991804329 206.701070659C206.345856828 205.34701816 207.56489465 203.771467752 208.61523 201.98828L67.1938737627 343.409636237C66.1435384123 345.192823989 64.9245005905 346.768374397 63.5704480916 348.122426896Z"
             style="fill:#195ba8;fill-opacity:1" />
          <path
             id="path4643"
             d="M208.61523 201.98828C211.26117 197.49624 211.35938 194.8618 211.35938 128.05273L69.9380237627 269.474086237C69.9380237627 336.283156237 69.8398137627 338.917596237 67.1938737627 343.409636237Z"
             style="fill:#195ba8;fill-opacity:1" />
          <path
             id="path4645"
             d="M211.35938 128.05273C211.35938 60.865621 211.27296 58.615861 208.54492 53.416016L67.1235637627 194.837372237C69.8516037627 200.037217237 69.9380237627 202.286977237 69.9380237627 269.474086237Z"
             style="fill:#195ba8;fill-opacity:1" />
          <path
             id="path4647"
             d="M208.54492 53.416016C204.9958 46.651144 198.69493 43.212142 192.19727 43.009766L50.7759137627 184.431122237C57.2735737627 184.633498237 63.5744437627 188.072500237 67.1235637627 194.837372237Z"
             style="fill:#195ba8;fill-opacity:1" />
          <path
             id="path4649"
             d="M153.05664 45.744141L106.07227 45.75L-35.3490862373 187.171356237L11.6352837627 187.165497237Z"
             style="fill:#195ba8;fill-opacity:1" />
          <path
             id="path4651"
             d="M106.07227 45.75C61.608858 45.754848 58.848207 45.900772 54.617188 48.480469L-86.8041682373 189.901825237C-82.5731492373 187.322128237 -79.8124982373 187.176204237 -35.3490862373 187.171356237Z"
             style="fill:#195ba8;fill-opacity:1" />
          <path
             id="path4653"
             d="M54.617188 48.480469C53.0937749006 49.409304765 51.7461158419 50.4753332751 50.5733364129 51.6481127041L-90.8480198244 193.069468941C-89.6752403954 191.896689512 -88.3275813367 190.830661002 -86.8041682373 189.901825237Z"
             style="fill:#195ba8;fill-opacity:1" />
          <path
             id="path4655"
             d="M50.5733364129 51.6481127041C41.1646877997 61.0567613173 43.0114420448 77.3359905647 55.662109 84.767578L-85.7592472373 226.188934237C-98.4099141925 218.757346802 -100.256668438 202.478117555 -90.8480198244 193.069468941Z"
             style="fill:#195ba8;fill-opacity:1" />
          <path
             id="path4657"
             d="M55.662109 84.767578C59.936581 87.278608 63.198195 87.634795 85.621094 88.039062L-55.8002622373 229.460418237C-78.2231612373 229.056151237 -81.4847752373 228.699964237 -85.7592472373 226.188934237Z"
             style="fill:#195ba8;fill-opacity:1" />
          <path
             id="path4659"
             d="M85.621094 88.039062L110.7832 88.492188L-30.6381562373 229.913544237L-55.8002622373 229.460418237Z"
             style="fill:#195ba8;fill-opacity:1" />
          <path
             id="path4661"
             d="M110.7832 88.492188L110.28125 114.10352L-31.1401062373 255.524876237L-30.6381562373 229.913544237Z"
             style="fill:#195ba8;fill-opacity:1" />
          <path
             id="path4663"
             d="M110.28125 114.10352C109.79989 138.62346 109.62467 140.00729 106.16211 146.62695L-35.2592462373 288.048306237C-31.7966862373 281.428646237 -31.6214662373 280.044816237 -31.1401062373 255.524876237Z"
             style="fill:#195ba8;fill-opacity:1" />
          <path
             id="path4665"
             d="M106.16211 146.62695C104.166610718 150.44187496 100.98673353 154.519040896 97.4092459504 158.096528476L-44.0121102869 299.517884713C-40.4346227078 295.940397134 -37.2547455195 291.863231198 -35.2592462373 288.048306237Z"
             style="fill:#195ba8;fill-opacity:1" />
          <path
             id="path4667"
             d="M97.4092459504 158.096528476C93.3696672207 162.136107205 88.8231285894 165.538587669 84.902344 167.20703L-56.5190122373 308.628386237C-52.5982276479 306.959943906 -48.0516890166 303.557463443 -44.0121102869 299.517884713Z"
             style="fill:#195ba8;fill-opacity:1" />
          <path
             id="path4669"
             d="M84.902344 167.20703C82.022052 168.43271 74.643167 169.90787 68.505859 170.48633L-72.9154972373 311.907686237C-66.7781892373 311.329226237 -59.3993042373 309.854066237 -56.5190122373 308.628386237Z"
             style="fill:#195ba8;fill-opacity:1" />
          <path
             id="path4671"
             d="M68.505859 170.48633C59.5004057931 171.33511994 54.2086747283 173.014936503 50.6160544655 176.607556766L-90.8053017718 318.028913003C-87.212681509 314.43629274 -81.9209504442 312.756476178 -72.9154972373 311.907686237Z"
             style="fill:#195ba8;fill-opacity:1" />
          <path
             id="path4673"
             d="M50.6160544655 176.607556766C49.1407260314 178.0828852 47.9519318175 179.880784543 46.910156 182.07617L-94.5112002373 323.497526237C-93.4694244198 321.30214078 -92.2806302059 319.504241437 -90.8053017718 318.028913003Z"
             style="fill:#195ba8;fill-opacity:1" />
          <path
             id="path4675"
             d="M46.910156 182.07617C41.810443 192.82301 45.590783 204.8322 55.707031 210.01953L-85.7143252373 351.440886237C-95.8305732373 346.253556237 -99.6109132373 334.244366237 -94.5112002373 323.497526237Z"
             style="fill:#195ba8;fill-opacity:1" />
          <path
             id="path4677"
             d="M55.707031 210.01953L55.707031 210.01758L-85.7143252373 351.438936237L-85.7143252373 351.440886237Z"
             style="fill:#195ba8;fill-opacity:1" />
          <path
             id="path4679"
             d="M55.707031 210.01758C66.608381 215.60753 87.086909 213.18241 106.16016 204.04297L-35.2611962373 345.464326237C-54.3344472373 354.603766237 -74.8129752373 357.028886237 -85.7143252373 351.438936237Z"
             style="fill:#195ba8;fill-opacity:1" />
          <path
             id="path4681"
             d="M106.16016 204.04297C113.477638824 200.536609488 121.221745476 194.701891942 128.012910244 187.910727174L-13.4084459929 329.332083411C-20.1996107612 336.123248179 -27.9437174138 341.957965726 -35.2611962373 345.464326237Z"
             style="fill:#195ba8;fill-opacity:1" />
          <path
             id="path4683"
             d="M128.012910244 187.910727174C134.673589936 181.250047483 140.417595488 173.669321724 143.94336 166.46289L2.52200376269 307.884246237C-1.00376074884 315.090677961 -6.74776630159 322.67140372 -13.4084459929 329.332083411Z"
             style="fill:#195ba8;fill-opacity:1" />
          <path
             id="path4685"
             d="M143.94336 166.46289C152.19591 149.59519 153.00633 142.90119 153.0332 91.357422L11.6118437627 232.778778237C11.5849737627 284.322546237 10.7745537627 291.016546237 2.52200376269 307.884246237Z"
             style="fill:#195ba8;fill-opacity:1" />
          <path
             id="path4687"
             d="M153.0332 91.357422L153.05664 45.744141L11.6352837627 187.165497237L11.6118437627 232.778778237Z"
             style="fill:#195ba8;fill-opacity:1" />
        </g>
        <path
           id="path4600"
           transform=""
           d="M 192.19727 43.009766 C 184.83324 42.780405 177.21632 46.708215 173.06641 54.662109 C 170.27844 60.005571 170.20508 61.892026 170.20508 126.68164 C 170.20508 177.74156 170.61922 194.38276 171.98633 198.23828 C 174.21072 204.51143 179.58664 209.99418 185.15039 211.66406 C 194.37917 214.43395 203.49878 210.67464 208.61523 201.98828 C 211.26117 197.49624 211.35938 194.8618 211.35938 128.05273 C 211.35938 60.865621 211.27296 58.615861 208.54492 53.416016 C 204.9958 46.651144 198.69493 43.212142 192.19727 43.009766 z M 153.05664 45.744141 L 106.07227 45.75 C 61.608858 45.754848 58.848207 45.900772 54.617188 48.480469 C 40.87216 56.86091 41.434548 76.40965 55.662109 84.767578 C 59.936581 87.278608 63.198195 87.634795 85.621094 88.039062 L 110.7832 88.492188 L 110.28125 114.10352 C 109.79989 138.62346 109.62467 140.00729 106.16211 146.62695 C 101.91336 154.74956 92.295411 164.061 84.902344 167.20703 C 82.022052 168.43271 74.643167 169.90787 68.505859 170.48633 C 55.802269 171.68368 50.488794 174.53473 46.910156 182.07617 C 41.810443 192.82301 45.590783 204.8322 55.707031 210.01953 L 55.707031 210.01758 C 66.608381 215.60753 87.086909 213.18241 106.16016 204.04297 C 120.65452 197.09762 136.82276 181.01693 143.94336 166.46289 C 152.19591 149.59519 153.00633 142.90119 153.0332 91.357422 L 153.05664 45.744141 z "
           style="fill:#195ba8;stroke-width:1.37180674;fill-opacity:1" />
      </g>
    </g>
    <path
       id="path4544"
       d="m 55.707571,1006.3809 c -10.116248,-5.1874 -13.896555,-17.1949 -8.796842,-27.94174 3.578638,-7.54144 8.891904,-10.39308 21.595494,-11.59043 6.137308,-0.57846 13.515326,-2.05455 16.395618,-3.28022 7.393067,-3.14603 17.011329,-12.456 21.260079,-20.5786 3.46256,-6.61967 3.63801,-8.00484 4.11937,-32.52479 l 0.50276,-25.61068 -25.162186,-0.45365 c -22.422899,-0.40427 -25.684383,-0.76041 -29.958854,-3.27144 -14.227562,-8.35793 -14.791083,-27.90567 -1.046055,-36.28611 4.231019,-2.5797 6.991883,-2.72624 51.455295,-2.73108 l 46.98438,-0.005 -0.0238,45.61257 c -0.0269,51.54376 -0.83716,58.23872 -9.08971,75.10642 -7.1206,14.55404 -23.28792,30.63496 -37.78228,37.58025 -19.073249,9.1395 -39.551893,11.5645 -50.453243,5.9745 z"
       style="fill:#ffffff;stroke-width:1.37180674;fill-opacity:1"
       inkscape:connector-curvature="0" />
    <path
       id="path4542"
       d="m 185.15068,1008.027 c -5.56375,-1.6699 -10.94068,-7.1537 -13.16507,-13.42689 -1.36712,-3.85552 -1.78141,-20.49657 -1.78141,-71.55649 0,-64.78962 0.075,-66.67638 2.86296,-72.01984 7.8116,-14.97204 27.90692,-15.67785 35.47837,-1.24612 2.72804,5.19984 2.81288,7.45066 2.81288,74.63777 0,66.80907 -0.0977,69.44212 -2.74361,73.93416 -5.11645,8.68641 -14.23535,12.44731 -23.46412,9.67741 z"
       style="fill:#ffffff;stroke-width:1.37180674;fill-opacity:1"
       inkscape:connector-curvature="0" />
    <path
       id="path4538"
       d="m 56.120422,945.65866 c -9.767531,-5.85472 -14.046992,-19.19912 -9.583156,-29.88258 1.019354,-2.43966 4.079871,-6.39064 6.801148,-8.77995 14.7741,-12.97183 39.35871,-1.74614 39.35871,17.97176 0,18.62935 -20.587097,30.27508 -36.576702,20.69077 z"
       style="fill:#f28a20;stroke-width:1.37180674;fill-opacity:1"
       inkscape:connector-curvature="0" />
  </g>
</svg>
