<?xml version="1.0" encoding="UTF-8" standalone="no"?>
<!-- Created with Inkscape (http://www.inkscape.org/) -->

<svg
   xmlns:dc="http://purl.org/dc/elements/1.1/"
   xmlns:cc="http://creativecommons.org/ns#"
   xmlns:rdf="http://www.w3.org/1999/02/22-rdf-syntax-ns#"
   xmlns:svg="http://www.w3.org/2000/svg"
   xmlns="http://www.w3.org/2000/svg"
   xmlns:sodipodi="http://sodipodi.sourceforge.net/DTD/sodipodi-0.dtd"
   xmlns:inkscape="http://www.inkscape.org/namespaces/inkscape"
   width="256"
   height="256"
   viewBox="0 0 256 256"
   id="svg2"
   version="1.1"
   inkscape:version="0.91 r13725"
   sodipodi:docname="jdownloader.svg">
  <sodipodi:namedview
     id="base"
     pagecolor="#ffffff"
     bordercolor="#666666"
     borderopacity="1.0"
     inkscape:pageopacity="0.0"
     inkscape:pageshadow="2"
     inkscape:zoom="2.0507812"
     inkscape:cx="128"
     inkscape:cy="128"
     inkscape:document-units="px"
     inkscape:current-layer="layer1"
     showgrid="true"
     units="px"
     inkscape:window-width="1366"
     inkscape:window-height="721"
     inkscape:window-x="0"
     inkscape:window-y="0"
     inkscape:window-maximized="1">
    <inkscape:grid
       type="xygrid"
       id="grid4168"
       spacingx="5"
       spacingy="5" />
  </sodipodi:namedview>
  <defs
     id="defs4">
    <clipPath
       clipPathUnits="userSpaceOnUse"
       id="clipPath5002">
      <g
         id="g5004">
        <path
           transform="translate(0,796.36216)"
           inkscape:connector-curvature="0"
           id="path5006"
           d="M 88.118406,249.43519 C 46.103287,235.29134 14.771284,201.68742 4.1335861,159.36053 1.3377997,148.23623 0.92261224,144.16281 0.92582381,127.88908 0.92787958,117.47222 1.134384,112.01362 1.6577819,108.54099 4.4653598,89.913336 12.17654,70.638106 23.042737,55.086148 c 3.958678,-5.665755 8.344812,-10.93092 9.101533,-10.925587 0.32809,0.0023 10.488643,18.309713 22.579009,40.683112 12.090365,22.373397 22.374546,41.334697 22.853732,42.136217 0.479186,0.80151 0.924733,2.44098 0.990103,3.64326 0.343424,6.31639 2.524175,14.20976 5.6424,20.42304 2.954444,5.88693 5.065381,8.73258 10.434696,14.06652 6.71418,6.66995 12.88853,10.28643 21.73204,12.72904 3.16587,0.87442 5.10478,1.05037 11.57517,1.05037 8.82596,0 12.60219,-0.76201 19.26429,-3.88733 2.04584,-0.95974 3.93661,-1.66536 4.20172,-1.56805 0.2651,0.0973 -11.0555,17.66459 -25.1569,39.0384 l -25.6389,38.86148 -3.094121,0.11221 c -2.554618,0.0927 -4.195204,-0.25845 -9.409103,-2.01364 z"
           style="fill:#0f9d58;fill-opacity:1;stroke:none;stroke-width:4.85768509;stroke-linejoin:round;stroke-miterlimit:4;stroke-dasharray:none;stroke-opacity:1" />
        <path
           inkscape:connector-curvature="0"
           id="path5008"
           d="m 112.35984,1051.5167 c -10.0014,-1.4495 -12.15632,-1.8201 -12.531784,-2.1556 -0.248854,-0.2223 1.738304,-3.7475 4.550294,-8.0722 7.16635,-11.0213 49.77231,-74.64801 50.25856,-75.05489 3.57509,-2.99158 8.63523,-8.0414 10.57512,-10.55356 3.36154,-4.35318 7.55784,-12.9141 9.06523,-18.494 6.19314,-22.92535 -2.59253,-47.15185 -21.69967,-59.83688 l -2.96081,-1.96565 17.02469,0.29584 c 9.36358,0.1627 31.17032,0.43384 48.45941,0.60252 l 31.43471,0.30668 1.54584,4.18869 c 2.24597,6.08579 4.67816,15.0947 5.93451,21.9816 1.52517,8.36049 1.92536,28.85896 0.73851,37.82758 -3.0805,23.27845 -12.81326,45.72018 -27.80202,64.10577 -20.47622,25.1166 -51.4599,42.1974 -84.14612,46.3885 -5.31244,0.6812 -26.64601,0.9864 -30.44647,0.4356 z"
           style="fill:#f4b400;fill-opacity:1;stroke:none;stroke-width:4.85768509;stroke-linejoin:round;stroke-miterlimit:4;stroke-dasharray:none;stroke-opacity:1" />
        <path
           transform="translate(0,796.36216)"
           inkscape:connector-curvature="0"
           id="path5010"
           d="M 67.989788,108.87302 C 41.284246,59.575543 33.290284,45.149038 32.233625,44.344765 31.651257,43.901497 32.811213,42.549931 38.695603,36.815353 53.43581,22.450419 68.809334,13.040746 87.839196,6.7360352 101.68742,2.1480329 112.58238,0.43719165 127.95142,0.43719165 c 21.3099,0 37.80488,3.80960275 56.83492,13.12633035 25.29351,12.383198 46.19421,33.578863 58.51993,59.345832 1.61138,3.368591 2.92978,6.372442 2.92978,6.675231 0,0.560033 -10.54865,0.49527 -71.16508,-0.436914 l -24.28843,-0.373518 -3.93063,-1.764495 c -6.75732,-3.033425 -10.64587,-3.839529 -18.6576,-3.867747 -5.0296,-0.01773 -7.97946,0.207636 -10.31642,0.788106 -14.50826,3.603659 -26.283291,12.94777 -33.291614,26.418653 -3.58502,6.89086 -5.24713,13.08166 -6.331628,23.58317 l -0.33738,3.26696 -9.92748,-18.32578 z"
           style="fill:#db4437;fill-opacity:1;stroke:none;stroke-width:10;stroke-linejoin:round;stroke-miterlimit:4;stroke-dasharray:none;stroke-opacity:1" />
      </g>
    </clipPath>
    <clipPath
       id="clipPath4271"
       clipPathUnits="userSpaceOnUse">
      <circle
         r="128"
         cy="128.00002"
         cx="128"
         id="circle4273"
         style="fill:#292929;fill-opacity:0.26020412;stroke:none;stroke-width:10;stroke-linejoin:round;stroke-miterlimit:4;stroke-dasharray:none;stroke-opacity:0.25882353" />
    </clipPath>
    <clipPath
       clipPathUnits="userSpaceOnUse"
       id="clipPath4363">
      <circle
         r="128"
         cy="924.36218"
         cx="128"
         id="circle4365"
         style="fill:#4285f4;fill-opacity:1;stroke:none;stroke-width:10;stroke-linejoin:round;stroke-miterlimit:4;stroke-dasharray:none;stroke-opacity:0.25882353" />
    </clipPath>
    <clipPath
       id="clipPath4452"
       clipPathUnits="userSpaceOnUse">
      <circle
         r="128"
         cy="924.36218"
         cx="128"
         id="circle4454"
         style="fill:#4285f4;fill-opacity:1;stroke:none;stroke-width:10;stroke-linejoin:round;stroke-miterlimit:4;stroke-dasharray:none;stroke-opacity:0.25882353" />
    </clipPath>
    <inkscape:path-effect
       effect="spiro"
       id="path-effect4168"
       is_visible="true" />
    <inkscape:path-effect
       effect="skeletal"
       id="path-effect4170"
       is_visible="true"
       pattern="m 0,796.36216 1,0"
       copytype="single_stretched"
       prop_scale="1"
       scale_y_rel="false"
       spacing="0"
       normal_offset="0"
       tang_offset="0"
       prop_units="false"
       vertical_pattern="false"
       fuse_tolerance="0" />
    <inkscape:path-effect
       effect="spiro"
       id="path-effect4174"
       is_visible="true" />
    <inkscape:path-effect
       effect="skeletal"
       id="path-effect4176"
       is_visible="true"
       pattern="m 0,796.36216 1,0"
       copytype="single_stretched"
       prop_scale="1"
       scale_y_rel="false"
       spacing="0"
       normal_offset="0"
       tang_offset="0"
       prop_units="false"
       vertical_pattern="false"
       fuse_tolerance="0" />
    <clipPath
       id="clipPath4980"
       clipPathUnits="userSpaceOnUse">
      <path
         style="opacity:0.91000001;fill:#38bae1;fill-opacity:1;stroke:none;stroke-width:0;stroke-linecap:round;stroke-linejoin:round;stroke-miterlimit:4;stroke-dasharray:none;stroke-opacity:1;filter:url(#filter4298)"
         d="m 10.42124,864.27189 42.534575,-0.0913 21.267287,-0.0456 c 7.245384,-0.0152 14.490768,-0.0305 21.736152,-0.0456 8.394956,-10.58827 10.291846,-15.47699 14.084686,-17.71727 3.79283,-2.24028 9.4816,-1.8321 25.46032,-1.82658 23.36644,-0.007 109.60565,-0.67788 109.60565,-0.67788 l -0.0879,12.1518 -0.0879,12.1518 -0.0879,12.15181 -0.0879,12.1518 -0.0879,12.1518 -0.0879,12.1518 -0.0879,12.15181 -0.0879,12.1518 -0.0879,12.1518 -0.0879,12.1518 -0.0879,12.15181 -0.0879,12.1518 -0.0879,12.15181 -0.0879,12.1518 c 0,0 0.59382,8.1589 -0.0879,12.1518 -0.58177,3.4075 -0.78038,7.5176 -3.36995,9.8075 -2.83121,2.5035 -7.3341,1.9515 -11.09295,2.3443 -4.76571,0.4981 -14.375,0 -14.375,0 l -14.375,0 -14.375,0 -14.37501,0 -14.375,0 -14.375,0 -14.375,0 -14.375,0 -14.375,0 -14.375001,0 c 0,0 -9.583334,0 -14.375001,0 -4.791667,0 -9.583334,0 -14.375001,0 -4.791667,0 -9.500662,0.094 -14.375001,0 -4.874339,-0.093 -10.854147,0.062 -15.030858,-0.571 -4.176712,-0.6329 -7.699545,-0.5576 -9.968228,-2.7111 -2.268683,-2.1535 -2.21606,-4.4991 -2.972258,-7.5945 -0.756198,-3.0955 -0.95689,-7.246 -1.188915,-10.8765 -0.232024,-3.6305 -0.136752,-7.251 -0.205128,-10.8765 -0.06838,-3.6255 -0.136752,-7.25106 -0.205128,-10.87658 -0.06838,-3.62552 -0.136753,-7.25102 -0.205129,-10.87653 -0.06838,-3.62551 -0.136752,-7.25103 -0.205128,-10.87654 -0.06838,-3.62551 -0.205129,-10.87653 -0.205129,-10.87653 L 12.062467,951.28418 11.857339,940.40764 11.65221,929.53111 11.447082,918.65457 11.241954,907.77803 11.036825,896.9015 10.831697,886.02496 10.626568,875.14843 Z"
         id="path4982"
         inkscape:connector-curvature="0"
         sodipodi:nodetypes="cccccccccccccccccccccssscccccccccazzzzzzzzzzzsccccccccc"
         transform="matrix(1.0110039,0,0,0.87092225,-1.4059192,107.89621)" />
    </clipPath>
    <filter
       style="color-interpolation-filters:sRGB"
       inkscape:label="Drop Shadow"
       id="filter4298">
      <feFlood
         flood-opacity="0.498039"
         flood-color="rgb(0,0,0)"
         result="flood"
         id="feFlood4300" />
      <feComposite
         in="flood"
         in2="SourceGraphic"
         operator="in"
         result="composite1"
         id="feComposite4302" />
      <feGaussianBlur
         in="composite1"
         stdDeviation="1.6"
         result="blur"
         id="feGaussianBlur4304" />
      <feOffset
         dx="-2.77556e-17"
         dy="-7.7"
         result="offset"
         id="feOffset4306" />
      <feComposite
         in="SourceGraphic"
         in2="offset"
         operator="over"
         result="composite2"
         id="feComposite4308" />
    </filter>
    <clipPath
       clipPathUnits="userSpaceOnUse"
       id="clipPath6010">
      <circle
         r="128"
         cy="921.46759"
         cx="125.30894"
         id="circle6012"
         style="fill:#0f9d58;fill-opacity:1;stroke:none;stroke-width:10;stroke-linejoin:round;stroke-miterlimit:4;stroke-dasharray:none;stroke-opacity:0.25882353" />
    </clipPath>
    <clipPath
       clipPathUnits="userSpaceOnUse"
       id="clipPath6287">
      <ellipse
         cy="917.04297"
         cx="124.93641"
         id="circle6289"
         style="fill:#0f9d58;fill-opacity:1;stroke:none;stroke-width:10;stroke-linejoin:round;stroke-miterlimit:4;stroke-dasharray:none;stroke-opacity:0.25882353"
         rx="243.77826"
         ry="280.345" />
    </clipPath>
    <clipPath
       id="clipPath4376"
       clipPathUnits="userSpaceOnUse">
      <ellipse
         ry="228.68375"
         rx="198.85544"
         cy="905.0332"
         cx="125.53584"
         id="circle4378"
         style="fill:#aae3c7;fill-opacity:1;stroke:none;stroke-width:10;stroke-linejoin:round;stroke-miterlimit:4;stroke-dasharray:none;stroke-opacity:0.25882353" />
    </clipPath>
    <clipPath
       id="clipPath4215"
       clipPathUnits="userSpaceOnUse">
      <ellipse
         style="fill:#f87f3e;fill-opacity:1;stroke:none;stroke-width:9.19999981;stroke-miterlimit:4;stroke-dasharray:none;stroke-opacity:1"
         id="ellipse4217"
         cx="364.39816"
         cy="359.15744"
         rx="156.35095"
         ry="57.128235" />
    </clipPath>
    <clipPath
       id="clipPath4229"
       clipPathUnits="userSpaceOnUse">
      <path
         style="fill:#f87f3e;fill-opacity:1;stroke:none;stroke-width:9.19999981;stroke-miterlimit:4;stroke-dasharray:none;stroke-opacity:1"
         d="m 362.85584,484.06005 c -86.35044,-2.7e-4 -156.35062,-25.57778 -156.34962,-57.1289 0.032,-2.97675 -0.7167,-5.77087 0.58261,-8.70955 11.68343,27.85707 78.63668,48.2619 155.76701,48.29744 76.92219,-0.0175 144.26894,-20.65346 156.23646,-48.41741 1.26709,2.86138 -0.0656,5.93102 0,8.82952 10e-4,31.5514 -69.88527,57.12902 -156.23646,57.1289 z"
         id="path4231"
         inkscape:connector-curvature="0"
         sodipodi:nodetypes="scccccs" />
    </clipPath>
    <clipPath
       clipPathUnits="userSpaceOnUse"
       id="clipPath4860">
      <circle
         r="128"
         cy="925.31097"
         cx="144.73923"
         id="circle4862"
         style="fill:#7cf97b;fill-opacity:1;stroke:none;stroke-width:10;stroke-linejoin:round;stroke-miterlimit:4;stroke-dasharray:none;stroke-opacity:0.25882353" />
    </clipPath>
    <clipPath
       clipPathUnits="userSpaceOnUse"
       id="clipPath4308">
      <path
         id="path4310"
         d="m 125.29952,841.0874 a 85,85 0 0 0 -84.999996,85 85,85 0 0 0 84.999996,85 85,85 0 0 0 85,-85 85,85 0 0 0 -85,-85 z m 0,70.61719 a 14.383562,14.383562 0 0 1 14.38281,14.38281 14.383562,14.383562 0 0 1 -14.38281,14.38281 14.383562,14.383562 0 0 1 -14.38281,-14.38281 14.383562,14.383562 0 0 1 14.38281,-14.38281 z"
         style="opacity:1;fill:#ffffff;fill-opacity:0.99215686;stroke:none;stroke-width:3;stroke-linecap:butt;stroke-linejoin:miter;stroke-miterlimit:4;stroke-dasharray:none;stroke-opacity:1"
         inkscape:connector-curvature="0" />
    </clipPath>
    <clipPath
       clipPathUnits="userSpaceOnUse"
       id="clipPath4185">
      <circle
         r="128"
         cy="924.36218"
         cx="128"
         id="circle4187"
         style="fill:#ff9797;fill-opacity:1;stroke:none;stroke-width:10;stroke-linejoin:round;stroke-miterlimit:4;stroke-dasharray:none;stroke-opacity:0.25882353" />
    </clipPath>
    <clipPath
       id="clipPath4370"
       clipPathUnits="userSpaceOnUse">
      <circle
         r="128"
         cy="924.36218"
         cx="128"
         id="circle4372"
         style="fill:#ff9797;fill-opacity:1;stroke:none;stroke-width:10;stroke-linejoin:round;stroke-miterlimit:4;stroke-dasharray:none;stroke-opacity:0.25882353" />
    </clipPath>
    <clipPath
       id="clipPath4235"
       clipPathUnits="userSpaceOnUse">
      <circle
         style="fill:#2c7586;fill-opacity:1;stroke:none;stroke-width:10;stroke-miterlimit:4;stroke-dasharray:none;stroke-opacity:1"
         id="circle4237"
         cx="128"
         cy="924.36218"
         r="75" />
    </clipPath>
    <clipPath
       id="clipPath4256"
       clipPathUnits="userSpaceOnUse">
      <circle
         style="fill:#2c7586;fill-opacity:1;stroke:none;stroke-width:10;stroke-miterlimit:4;stroke-dasharray:none;stroke-opacity:1"
         id="circle4258"
         cx="128"
         cy="924.36218"
         r="75" />
    </clipPath>
    <clipPath
       id="clipPath4264"
       clipPathUnits="userSpaceOnUse">
      <circle
         style="fill:#2c7586;fill-opacity:1;stroke:none;stroke-width:10;stroke-miterlimit:4;stroke-dasharray:none;stroke-opacity:1"
         id="circle4266"
         cx="128"
         cy="924.36218"
         r="75" />
    </clipPath>
    <clipPath
       clipPathUnits="userSpaceOnUse"
       id="clipPath4586">
      <circle
         r="113.57896"
         cy="924.36218"
         cx="128.42352"
         id="circle4588"
         style="fill:#ff9797;fill-opacity:1;stroke:none;stroke-width:10;stroke-linejoin:round;stroke-miterlimit:4;stroke-dasharray:none;stroke-opacity:0.25882353" />
    </clipPath>
  </defs>
  <metadata
     id="metadata7">
    <rdf:RDF>
      <cc:Work
         rdf:about="">
        <dc:format>image/svg+xml</dc:format>
        <dc:type
           rdf:resource="http://purl.org/dc/dcmitype/StillImage" />
        <dc:title />
      </cc:Work>
    </rdf:RDF>
  </metadata>
  <g
     transform="translate(0,-796.36216)"
     id="layer1"
     inkscape:groupmode="layer"
     inkscape:label="Layer 1">
    <path
       inkscape:connector-curvature="0"
       id="path4913"
       d="M 154.47438,968.80998 101.03985,1048.476 0.4857685,1048.9618 0,842.0244 l 33.032258,-2.42884 45.176471,83.55218 21.373814,35.4611 26.717267,13.11575 z"
       style="fill:none;fill-rule:evenodd;stroke:none;stroke-width:1px;stroke-linecap:butt;stroke-linejoin:miter;stroke-opacity:1" />
    <circle
       style="fill:#9ec414;fill-opacity:1;stroke:none;stroke-width:10;stroke-linejoin:round;stroke-miterlimit:4;stroke-dasharray:none;stroke-opacity:0.25882353"
       id="path4152"
       cx="128"
       cy="924.36218"
       r="128" />
    <g
       transform="matrix(1.1269693,0,0,1.1269693,-16.729376,-117.36564)"
       id="g4398"
       clip-path="url(#clipPath4586)"
       style="fill:#568512;fill-opacity:1">
      <g
         id="g4268"
         style="fill:#568512;fill-opacity:1">
        <path
           clip-path="url(#clipPath4256)"
           inkscape:connector-curvature="0"
           id="path4251"
           d="m 120.61143,841.51073 c 29.92833,36.03777 48.00241,89.06702 55,125"
           style="fill:#568512;fill-rule:evenodd;stroke:#e5ab00;stroke-width:18.60000038;stroke-linecap:butt;stroke-linejoin:miter;stroke-miterlimit:4;stroke-dasharray:none;stroke-opacity:1;fill-opacity:1" />
        <path
           sodipodi:nodetypes="ccccc"
           inkscape:connector-curvature="0"
           id="path4239"
           d="m 203.84706,959.41619 -23.52236,-0.30188 -32.78711,0.18574 32.15674,35.69197 z"
           inkscape:transform-center-y="6.8824349"
           inkscape:transform-center-x="-0.21011817"
           style="fill:#568512;fill-opacity:1;stroke:none;stroke-width:0.7231493;stroke-miterlimit:4;stroke-dasharray:none;stroke-opacity:1" />
        <path
           clip-path="url(#clipPath4264)"
           inkscape:connector-curvature="0"
           id="path4260"
           d="m 70,982.36216 c 61.65977,-11.99273 106.16005,-67.65374 110,-125"
           style="fill:#568512;fill-rule:evenodd;stroke:#e5ab00;stroke-width:18.60000038;stroke-linecap:butt;stroke-linejoin:miter;stroke-miterlimit:4;stroke-dasharray:none;stroke-opacity:1;fill-opacity:1" />
      </g>
      <g
         id="g4489"
         style="fill:#568512;fill-opacity:1">
        <g
           id="g4491"
           style="fill:#568512;fill-opacity:1;stroke:none;stroke-width:10;stroke-miterlimit:4;stroke-dasharray:none;stroke-opacity:1">
          <path
             id="path4493"
             d="M203.0 924.36218C203.0 945.632608108 194.14544263 964.834941315 179.921268076 978.484239433L-32.2107662802 1190.61627379C-17.9865917263 1176.96697567 -9.13203435596 1157.76464246 -9.13203435596 1136.49421436Z"
             style="fill:#568512;fill-opacity:1" />
          <path
             id="path4495"
             d="M179.921268076 978.484239433C166.445734288 991.41515344 148.150931892 999.36218 128.0 999.36218L-84.132034356 1211.49421436C-63.9811024641 1211.49421436 -45.6863000682 1203.5471878 -32.2107662802 1190.61627379Z"
             style="fill:#568512;fill-opacity:1" />
          <path
             id="path4497"
             d="M128.0 999.36218C45.9237199825 990.881542646 43.3388836531 908.446384101 82.2772075433 869.508060211L-129.854826813 1081.64009457C-168.793150703 1120.57841846 -166.208314373 1203.013577 -84.132034356 1211.49421436Z"
             style="fill:#568512;fill-opacity:1" />
          <path
             id="path4499"
             d="M82.2772075433 869.508060211C94.0642684905 857.720999263 109.656261886 849.919726409 128.0 849.36218L-84.132034356 1061.49421436C-102.47577247 1062.05176077 -118.067765865 1069.85303362 -129.854826813 1081.64009457Z"
             style="fill:#568512;fill-opacity:1" />
          <path
             id="path4501"
             d="M128.0 849.36218C169.42136 849.36218 203.0 882.94082 203.0 924.36218L-9.13203435596 1136.49421436C-9.13203435596 1095.07285436 -42.710674356 1061.49421436 -84.132034356 1061.49421436Z"
             style="fill:#568512;fill-opacity:1" />
        </g>
        <path
           sodipodi:nodetypes="sccs"
           inkscape:connector-curvature="0"
           id="path4209"
           d="m 203,924.36218 c 0,41.42136 -33.57864,75 -75,75 -106.921677,-11.04782 -78.941916,-147.60061 0,-150 41.42136,0 75,33.57864 75,75 z"
           style="fill:#568512;fill-opacity:1;stroke:none;stroke-width:10;stroke-miterlimit:4;stroke-dasharray:none;stroke-opacity:1" />
      </g>
    </g>
    <g
       id="g4416"
       transform="matrix(1.1269693,0,0,1.1269693,-16.729376,-117.36564)">
      <circle
         r="75"
         cy="924.36218"
         cx="128"
         id="circle4418"
         style="fill:#255a68;fill-opacity:1;stroke:none;stroke-width:10;stroke-miterlimit:4;stroke-dasharray:none;stroke-opacity:1" />
      <g
         id="g4420">
        <path
           style="fill:none;fill-rule:evenodd;stroke:#e5ab00;stroke-width:18.60000038;stroke-linecap:butt;stroke-linejoin:miter;stroke-miterlimit:4;stroke-dasharray:none;stroke-opacity:1"
           d="m 120.61143,841.51073 c 29.92833,36.03777 48.00241,89.06702 55,125"
           id="path4422"
           inkscape:connector-curvature="0"
           clip-path="url(#clipPath4256)" />
        <path
           style="fill:#e5ab00;fill-opacity:1;stroke:none;stroke-width:0.7231493;stroke-miterlimit:4;stroke-dasharray:none;stroke-opacity:1"
           inkscape:transform-center-x="-0.21011817"
           inkscape:transform-center-y="6.8824349"
           d="m 203.84706,959.41619 -23.52236,-0.30188 -32.78711,0.18574 32.15674,35.69197 z"
           id="path4424"
           inkscape:connector-curvature="0"
           sodipodi:nodetypes="ccccc" />
        <path
           style="fill:none;fill-rule:evenodd;stroke:#e5ab00;stroke-width:18.60000038;stroke-linecap:butt;stroke-linejoin:miter;stroke-miterlimit:4;stroke-dasharray:none;stroke-opacity:1"
           d="m 70,982.36216 c 61.65977,-11.99273 106.16005,-67.65374 110,-125"
           id="path4426"
           inkscape:connector-curvature="0"
           clip-path="url(#clipPath4264)" />
      </g>
    </g>
  </g>
</svg>
