<?xml version="1.0" encoding="UTF-8" standalone="no"?>
<!-- Created with Inkscape (http://www.inkscape.org/) -->

<svg
   xmlns:dc="http://purl.org/dc/elements/1.1/"
   xmlns:cc="http://creativecommons.org/ns#"
   xmlns:rdf="http://www.w3.org/1999/02/22-rdf-syntax-ns#"
   xmlns:svg="http://www.w3.org/2000/svg"
   xmlns="http://www.w3.org/2000/svg"
   xmlns:sodipodi="http://sodipodi.sourceforge.net/DTD/sodipodi-0.dtd"
   xmlns:inkscape="http://www.inkscape.org/namespaces/inkscape"
   width="256"
   height="256"
   viewBox="0 0 256 256"
   id="svg4149"
   version="1.1"
   inkscape:version="0.91 r13725"
   sodipodi:docname="jitsi.svg">
  <sodipodi:namedview
     id="base"
     pagecolor="#ffffff"
     bordercolor="#666666"
     borderopacity="1.0"
     inkscape:pageopacity="0.0"
     inkscape:pageshadow="2"
     inkscape:zoom="2.0507812"
     inkscape:cx="46.079998"
     inkscape:cy="128"
     inkscape:document-units="px"
     inkscape:current-layer="layer1"
     showgrid="false"
     units="px"
     inkscape:window-width="1920"
     inkscape:window-height="1033"
     inkscape:window-x="0"
     inkscape:window-y="0"
     inkscape:window-maximized="1" />
  <defs
     id="defs4151">
    <clipPath
       id="clipPath4863"
       clipPathUnits="userSpaceOnUse">
      <circle
         r="77.263145"
         cy="924.36218"
         cx="128"
         id="circle4865"
         style="fill:#e9e9e9;fill-opacity:1;stroke:none;stroke-width:20;stroke-miterlimit:4;stroke-dasharray:none;stroke-opacity:1" />
    </clipPath>
    <clipPath
       clipPathUnits="userSpaceOnUse"
       id="clipPath4227">
      <circle
         r="77.263145"
         cy="924.36218"
         cx="128"
         id="circle4229"
         style="fill:#e9e9e9;fill-opacity:1;stroke:none;stroke-width:20;stroke-miterlimit:4;stroke-dasharray:none;stroke-opacity:1" />
    </clipPath>
    <clipPath
       id="clipPath5543"
       clipPathUnits="userSpaceOnUse">
      <circle
         r="128"
         cy="924.36218"
         cx="128"
         id="circle5545"
         style="fill:#9e9fe9;fill-opacity:1;stroke:none;stroke-width:20;stroke-miterlimit:4;stroke-dasharray:none;stroke-opacity:1" />
    </clipPath>
    <clipPath
       id="clipPath5522"
       clipPathUnits="userSpaceOnUse">
      <path
         inkscape:connector-curvature="0"
         id="path5524"
         d="m 153.38672,796.84847 -105.781251,0 c -7.804357,0 -14.087891,6.28158 -14.087891,14.08594 l 0,227.33989 c 0,7.8043 6.283534,14.0878 14.087891,14.0878 l 165.162111,0 c 7.80436,0 14.08594,-6.2835 14.08594,-14.0878 l 0,-154.82232 -73.4668,-86.60351 z"
         style="fill:#db4437;fill-opacity:1" />
    </clipPath>
    <clipPath
       id="clipPath7273"
       clipPathUnits="userSpaceOnUse">
      <circle
         r="87.222778"
         cy="965.23419"
         cx="125.3036"
         id="circle7275"
         style="fill:#9e9fe9;fill-opacity:1;stroke:none;stroke-width:20;stroke-miterlimit:4;stroke-dasharray:none;stroke-opacity:1" />
    </clipPath>
    <clipPath
       clipPathUnits="userSpaceOnUse"
       id="clipPath5533">
      <circle
         r="128"
         cy="128.00002"
         cx="128"
         id="circle5535"
         style="fill:#ffd794;fill-opacity:1;stroke:none;stroke-width:20;stroke-miterlimit:4;stroke-dasharray:none;stroke-opacity:1" />
    </clipPath>
  </defs>
  <metadata
     id="metadata4154">
    <rdf:RDF>
      <cc:Work
         rdf:about="">
        <dc:format>image/svg+xml</dc:format>
        <dc:type
           rdf:resource="http://purl.org/dc/dcmitype/StillImage" />
        <dc:title />
      </cc:Work>
    </rdf:RDF>
  </metadata>
  <g
     inkscape:label="Layer 1"
     inkscape:groupmode="layer"
     id="layer1"
     transform="translate(0,-796.36216)">
    <circle
       style="fill:#ff8b11;fill-opacity:1;stroke:none;stroke-width:20;stroke-miterlimit:4;stroke-dasharray:none;stroke-opacity:1"
       id="path4723"
       cx="128"
       cy="924.36218"
       r="128" />
    <g
       id="g5082"
       transform="translate(0,796.36216)"
       clip-path="url(#clipPath5533)"
       style="fill:#c46400;fill-opacity:1">
      <g
         id="g5084"
         style="fill:#c46400;fill-opacity:1;fill-rule:nonzero;stroke:none">
        <path
           id="path5086"
           d="M165.08594 30.783203C165.071108061 30.7729657115 165.05933707 30.7726791634 165.050360702 30.781655532L-47.0816736544 242.913689888C-47.0726972857 242.904713519 -47.0609262953 242.905000067 -47.046094356 242.915237356Z"
           style="fill:#c46400;fill-opacity:1" />
        <path
           id="path5088"
           d="M165.050360702 30.781655532C165.021778028 30.8102382058 165.021530625 30.9327395865 165.04102 31.126953L-47.091014356 243.258987356C-47.1105037313 243.064773943 -47.1102563281 242.942272562 -47.0816736544 242.913689888Z"
           style="fill:#c46400;fill-opacity:1" />
        <path
           id="path5090"
           d="M165.04102 31.126953C165.59594 36.656633 164.36123 44.394403 163.51758 47.533203L-48.614454356 259.665237356C-47.770804356 256.526437356 -46.536094356 248.788667356 -47.091014356 243.258987356Z"
           style="fill:#c46400;fill-opacity:1" />
        <path
           id="path5092"
           d="M163.51758 47.533203C162.893148503 49.8563655519 161.47740844 52.508189716 158.740806662 55.2447914936L-53.3912276938 267.37682585C-50.6546259162 264.640224072 -49.2388858534 261.988399908 -48.614454356 259.665237356Z"
           style="fill:#c46400;fill-opacity:1" />
        <path
           id="path5094"
           d="M158.740806662 55.2447914936C156.232724127 57.7528740291 152.615165901 60.3321666694 147.48047 62.794922L-64.651564356 274.926956356C-59.5168684554 272.464201025 -55.8993102292 269.884908385 -53.3912276938 267.37682585Z"
           style="fill:#c46400;fill-opacity:1" />
        <path
           id="path5096"
           d="M147.48047 62.794922C145.026824281 63.9717869202 135.324352032 68.5432712198 133.152576116 70.7150471356L-78.9794582397 282.847081492C-76.807682324 280.675305576 -67.1052100748 276.103821276 -64.651564356 274.926956356Z"
           style="fill:#c46400;fill-opacity:1" />
        <path
           id="path5098"
           d="M133.152576116 70.7150471356C133.094233933 70.7733893189 133.041326386 70.8299997179 132.99414 70.884766L-79.137894356 283.016800356C-79.0907079703 282.962034074 -79.0378004231 282.905423675 -78.9794582397 282.847081492Z"
           style="fill:#c46400;fill-opacity:1" />
        <path
           id="path5100"
           d="M132.99414 70.884766C130.75636 73.482086 130.20995 76.10135 129.15039 81.28125L-82.981644356 293.413284356C-81.922084356 288.233384356 -81.375674356 285.614120356 -79.137894356 283.016800356Z"
           style="fill:#c46400;fill-opacity:1" />
        <path
           id="path5102"
           d="M129.15039 81.28125C128.0299 86.75893 127.62263 91.869852 128.92969 97.732422L-83.202344356 309.864456356C-84.509404356 304.001886356 -84.102134356 298.890964356 -82.981644356 293.413284356Z"
           style="fill:#c46400;fill-opacity:1" />
        <path
           id="path5104"
           d="M128.92969 97.732422C129.517440096 100.368583335 130.117631168 101.505203217 129.36923199 102.253602396L-82.7628023663 314.385636752C-82.0144031877 313.637237573 -82.61459426 312.500617691 -83.202344356 309.864456356Z"
           style="fill:#c46400;fill-opacity:1" />
        <path
           id="path5106"
           d="M129.36923199 102.253602396C128.932263836 102.690570549 128.035554948 102.995192447 126.4082 103.38867L-85.723834356 315.520704356C-84.0964794079 315.127226803 -83.1997705201 314.822604905 -82.7628023663 314.385636752Z"
           style="fill:#c46400;fill-opacity:1" />
        <path
           id="path5108"
           d="M126.4082 103.38867C122.938196172 104.227724591 108.274102734 105.171671355 99.6112947433 113.834479346L-112.520739613 325.966513702C-103.857931622 317.303705711 -89.1938381844 316.359758947 -85.723834356 315.520704356Z"
           style="fill:#c46400;fill-opacity:1" />
        <path
           id="path5110"
           d="M99.6112947433 113.834479346C94.0228007181 119.422973371 90.931869907 128.223836484 94.955078 142.28125L-117.176956356 354.413284356C-121.200164449 340.35587084 -118.109233638 331.555007727 -112.520739613 325.966513702Z"
           style="fill:#c46400;fill-opacity:1" />
        <path
           id="path5112"
           d="M94.955078 142.28125C98.041998 152.58176 104.0599 159.11573 107.54883 160.31641L-104.583204356 372.448444356C-108.072134356 371.247764356 -114.090036356 364.713794356 -117.176956356 354.413284356Z"
           style="fill:#c46400;fill-opacity:1" />
        <path
           id="path5114"
           d="M107.54883 160.31641C110.31618 161.2687 109.84588 160.41123 109.35938 163.95703L-102.772654356 376.089064356C-102.286154356 372.543264356 -101.815854356 373.400734356 -104.583204356 372.448444356Z"
           style="fill:#c46400;fill-opacity:1" />
        <path
           id="path5116"
           d="M109.35938 163.95703C109.005764575 166.534115587 107.827147712 170.139777813 106.058776759 171.908148766L-106.073257597 384.040183122C-104.304886644 382.271812169 -103.126269781 378.666149943 -102.772654356 376.089064356Z"
           style="fill:#c46400;fill-opacity:1" />
        <path
           id="path5118"
           d="M106.058776759 171.908148766C105.414996918 172.551928607 104.693054483 172.952204497 103.9043 172.9707L-108.227734356 385.102734356C-107.438979873 385.084238853 -106.717037438 384.683962963 -106.073257597 384.040183122Z"
           style="fill:#c46400;fill-opacity:1" />
        <path
           id="path5120"
           d="M103.9043 172.9707C102.71806 172.99948 97.504728 169.84828 96.029297 168.87891L-116.102737356 381.010944356C-114.627306356 381.980314356 -109.413974356 385.131514356 -108.227734356 385.102734356Z"
           style="fill:#c46400;fill-opacity:1" />
        <path
           id="path5122"
           d="M96.029297 168.87891C87.763524 163.44838 84.818347 160.38624 78.949219 159.72852L-133.182815356 371.860554356C-127.313687356 372.518274356 -124.368510356 375.580414356 -116.102737356 381.010944356Z"
           style="fill:#c46400;fill-opacity:1" />
        <path
           id="path5124"
           d="M78.949219 159.72852C77.129775376 159.524602664 74.4547644879 160.727916726 71.8135076077 163.369173606L-140.318526748 375.501207962C-137.677269868 372.859951082 -135.00225898 371.65663702 -133.182815356 371.860554356Z"
           style="fill:#c46400;fill-opacity:1" />
        <path
           id="path5126"
           d="M71.8135076077 163.369173606C67.4365351596 167.746146054 63.1522567259 176.071944153 63.007812 188.48633L-149.124222356 400.618364356C-148.97977763 388.203978508 -144.695499196 379.87818041 -140.318526748 375.501207962Z"
           style="fill:#c46400;fill-opacity:1" />
        <path
           id="path5128"
           d="M63.007812 188.48633C62.725122 212.7818 69.536917 224.86191 69.730469 225.22461L-142.401565356 437.356644356C-142.595117356 436.993944356 -149.406912356 424.913834356 -149.124222356 400.618364356Z"
           style="fill:#c46400;fill-opacity:1" />
        <path
           id="path5130"
           d="M69.730469 225.22461C72.9531323445 210.625978996 75.5993150792 204.432812539 80.4956010663 199.536526552L-131.63643329 411.668560908C-136.532719277 416.564846895 -139.178902011 422.758013352 -142.401565356 437.356644356Z"
           style="fill:#c46400;fill-opacity:1" />
        <path
           id="path5132"
           d="M80.4956010663 199.536526552C83.2725952071 196.759532411 86.7733897518 194.399711396 91.513672 191.16016L-120.618362356 403.292194356C-125.358644604 406.531745752 -128.859439149 408.891566767 -131.63643329 411.668560908Z"
           style="fill:#c46400;fill-opacity:1" />
        <path
           id="path5134"
           d="M91.513672 191.16016C92.550716 190.45146 104.85556 200.81086 107.81445 200.75586L-104.317584356 412.887894356C-107.276474356 412.942894356 -119.581318356 402.583494356 -120.618362356 403.292194356Z"
           style="fill:#c46400;fill-opacity:1" />
        <path
           id="path5136"
           d="M107.81445 200.75586C119.800134423 200.52966107 139.483830503 201.11199959 153.366474127 187.229355966L-58.7655602291 399.361390322C-72.6482038528 413.244033946 -92.3318999329 412.661695426 -104.317584356 412.887894356Z"
           style="fill:#c46400;fill-opacity:1" />
        <path
           id="path5138"
           d="M153.366474127 187.229355966C156.625478182 183.970351911 159.564789887 179.914191794 162.00977 174.86328L-50.122264356 386.995314356C-52.5672444694 392.04622615 -55.5065561743 396.102386267 -58.7655602291 399.361390322Z"
           style="fill:#c46400;fill-opacity:1" />
        <path
           id="path5140"
           d="M162.00977 174.86328C162.013553617 174.855463522 162.018253557 174.848777212 162.023842365 174.843188405L-50.1081919913 386.975222761C-50.1137807989 386.980811568 -50.1184807392 386.987497877 -50.122264356 386.995314356Z"
           style="fill:#c46400;fill-opacity:1" />
        <path
           id="path5142"
           d="M162.023842365 174.843188405C162.385093127 174.481937643 166.460123822 178.706161945 166.83398 178.69336L-45.298054356 390.825394356C-45.6719105336 390.838196301 -49.7469412291 386.613971999 -50.1081919913 386.975222761Z"
           style="fill:#c46400;fill-opacity:1" />
        <path
           id="path5144"
           d="M166.83398 178.69336C166.892345008 178.691366487 170.019866935 177.313366042 174.100387789 173.232845188L-38.0316465671 385.364879544C-42.1121674213 389.445400398 -45.2396893479 390.823400843 -45.298054356 390.825394356Z"
           style="fill:#c46400;fill-opacity:1" />
        <path
           id="path5146"
           d="M174.100387789 173.232845188C181.011718216 166.32151476 190.656960587 151.657339487 192.75391 122.79492L-19.378124356 334.926954356C-21.4750737686 363.789373843 -31.1203161395 378.453549116 -38.0316465671 385.364879544Z"
           style="fill:#c46400;fill-opacity:1" />
        <path
           id="path5148"
           d="M192.75391 122.79492C194.27692 101.83233 188.40983 96.815206 184.29102 94.197266L-27.841014356 306.329300356C-23.722204356 308.947240356 -17.855114356 313.964364356 -19.378124356 334.926954356Z"
           style="fill:#c46400;fill-opacity:1" />
        <path
           id="path5150"
           d="M184.29102 94.197266C178.20897 90.331496 169.32399 91.676237 169.0332 91.710938L-43.098834356 303.842972356C-42.808044356 303.808271356 -33.923064356 302.463530356 -27.841014356 306.329300356Z"
           style="fill:#c46400;fill-opacity:1" />
        <path
           id="path5152"
           d="M169.0332 91.710938C167.02174 91.952657 168.42669 88.842694 168.76758 85.552734L-43.364454356 297.684768356C-43.705344356 300.974728356 -45.110294356 304.084691356 -43.098834356 303.842972356Z"
           style="fill:#c46400;fill-opacity:1" />
        <path
           id="path5154"
           d="M168.76758 85.552734C169.18363 81.536864 167.70849 76.015752 165.03711 71.601562L-47.094924356 283.733596356C-44.423544356 288.147786356 -42.948404356 293.668898356 -43.364454356 297.684768356Z"
           style="fill:#c46400;fill-opacity:1" />
        <path
           id="path5156"
           d="M165.03711 71.601562C163.75134 69.476923 163.28607 69.275016 164.24219 68.253906L-47.889844356 280.385940356C-48.845964356 281.407050356 -48.380694356 281.608957356 -47.094924356 283.733596356Z"
           style="fill:#c46400;fill-opacity:1" />
        <path
           id="path5158"
           d="M164.24219 68.253906C171.28235 60.735396 172.3826 52.408156 170.15039 45.472656L-41.981644356 257.604690356C-39.749434356 264.540190356 -40.849684356 272.867430356 -47.889844356 280.385940356Z"
           style="fill:#c46400;fill-opacity:1" />
        <path
           id="path5160"
           d="M170.15039 45.472656C166.60091 34.444277 165.35487 30.968823 165.08594 30.783203L-47.046094356 242.915237356C-46.777164356 243.100857356 -45.531124356 246.576311356 -41.981644356 257.604690356Z"
           style="fill:#c46400;fill-opacity:1" />
        <path
           id="path5162"
           d="M166.68164 39.408203C166.85097 39.417463 167.92292 42.646163 168.29102 43.816406L-43.841014356 255.948440356C-44.209114356 254.778197356 -45.281064356 251.549497356 -45.450394356 251.540237356Z"
           style="fill:#c46400;fill-opacity:1" />
        <path
           id="path5164"
           d="M168.29102 43.816406C169.98511 49.201876 169.76141 51.596473 169.375 54.320312L-42.757034356 266.452346356C-42.370624356 263.728507356 -42.146924356 261.333910356 -43.841014356 255.948440356Z"
           style="fill:#c46400;fill-opacity:1" />
        <path
           id="path5166"
           d="M169.375 54.320312C168.390749856 61.2582622372 164.694170865 65.8292756657 161.906759302 68.6166872285L-50.2252750542 280.748721584C-47.4378634913 277.961310022 -43.7412845004 273.390296593 -42.757034356 266.452346356Z"
           style="fill:#c46400;fill-opacity:1" />
        <path
           id="path5168"
           d="M161.906759302 68.6166872285C161.902030245 68.6214162853 161.897303805 68.6261402081 161.89258 68.630859L-50.239454356 280.762893356C-50.2347305507 280.758174564 -50.2300041109 280.753450641 -50.2252750542 280.748721584Z"
           style="fill:#c46400;fill-opacity:1" />
        <path
           id="path5170"
           d="M161.89258 68.630859C157.50977 73.008909 156.48147 73.636774 158.39453 70.177734L-53.737504356 282.309768356C-55.650564356 285.768808356 -54.622264356 285.140943356 -50.239454356 280.762893356Z"
           style="fill:#c46400;fill-opacity:1" />
        <path
           id="path5172"
           d="M158.39453 70.177734C164.48931 59.157804 165.77902 48.789422 166.66016 39.451172L-45.471874356 251.583206356C-46.353014356 260.921456356 -47.642724356 271.289838356 -53.737504356 282.309768356Z"
           style="fill:#c46400;fill-opacity:1" />
        <path
           id="path5174"
           d="M166.66016 39.451172C166.662065947 39.4309792121 166.666123258 39.4180347962 166.672102397 39.4120556571L-45.4599319588 251.544090013C-45.465911098 251.550069152 -45.4699684093 251.563013568 -45.471874356 251.583206356Z"
           style="fill:#c46400;fill-opacity:1" />
        <path
           id="path5176"
           d="M166.672102397 39.4120556571C166.674875758 39.4092822963 166.678062594 39.4080074943 166.68164 39.408203L-45.450394356 251.540237356C-45.4539717617 251.54004185 -45.457158598 251.541316652 -45.4599319588 251.544090013Z"
           style="fill:#c46400;fill-opacity:1" />
        <path
           id="path5178"
           d="M162.53906 53.589844C163.733816984 53.4049451145 160.133367121 68.8340781971 151.641365481 77.3260798374L-60.4906688753 289.458114193C-51.998667235 280.966112553 -48.3982173723 265.53697947 -49.592974356 265.721878356Z"
           style="fill:#c46400;fill-opacity:1" />
        <path
           id="path5180"
           d="M151.641365481 77.3260798374C151.346871079 77.6205742387 151.046493925 77.9067258009 150.74023 78.183594L-61.391804356 290.315628356C-61.0855404308 290.038760157 -60.7851632766 289.752608595 -60.4906688753 289.458114193Z"
           style="fill:#c46400;fill-opacity:1" />
        <path
           id="path5182"
           d="M150.74023 78.183594C147.45104 81.157044 138.41104 82.696267 130.60352 88.248047L-81.528514356 300.380081356C-73.720994356 294.828301356 -64.680994356 293.289078356 -61.391804356 290.315628356Z"
           style="fill:#c46400;fill-opacity:1" />
        <path
           id="path5184"
           d="M130.60352 88.248047C129.80248 88.817707 130.78899 78.898434 133.41992 73.371094L-78.712114356 285.503128356C-81.343044356 291.030468356 -82.329554356 300.949741356 -81.528514356 300.380081356Z"
           style="fill:#c46400;fill-opacity:1" />
        <path
           id="path5186"
           d="M133.41992 73.371094C133.594794953 72.9393336784 133.927171455 72.4973796011 134.374533021 72.0500180358L-77.7575013353 284.182052392C-78.2048629005 284.629413957 -78.5372394028 285.071368034 -78.712114356 285.503128356Z"
           style="fill:#c46400;fill-opacity:1" />
        <path
           id="path5188"
           d="M134.374533021 72.0500180358C135.932733221 70.4918178353 138.885921837 68.8680144787 141.4375 67.380859L-70.694534356 279.512893356C-73.2461125191 281.000048835 -76.1993011348 282.623852191 -77.7575013353 284.182052392Z"
           style="fill:#c46400;fill-opacity:1" />
        <path
           id="path5190"
           d="M141.4375 67.380859C144.432973017 65.6350543287 153.196215626 63.2377535327 159.769111298 56.6648578607L-52.3629230581 268.796892217C-58.9358187301 275.369787889 -67.6990613387 277.767088685 -70.694534356 279.512893356Z"
           style="fill:#c46400;fill-opacity:1" />
        <path
           id="path5192"
           d="M159.769111298 56.6648578607C160.630555639 55.8034135195 161.454376941 54.8702460336 162.22266 53.857422L-49.909374356 265.989456356C-50.677657415 267.00228039 -51.5014787169 267.935447875 -52.3629230581 268.796892217Z"
           style="fill:#c46400;fill-opacity:1" />
        <path
           id="path5194"
           d="M162.22266 53.857422C162.267034769 53.7989197601 162.308764255 53.7503542216 162.347783041 53.7113354356L-49.7842513152 265.843369792C-49.8232701013 265.882388578 -49.8649995866 265.930954116 -49.909374356 265.989456356Z"
           style="fill:#c46400;fill-opacity:1" />
        <path
           id="path5196"
           d="M162.347783041 53.7113354356C162.421314803 53.6378036735 162.485219725 53.5981764702 162.53906 53.589844L-49.592974356 265.721878356C-49.6468146314 265.730210826 -49.7107195532 265.769838029 -49.7842513152 265.843369792Z"
           style="fill:#c46400;fill-opacity:1" />
        <path
           id="path5198"
           d="M163.25977 72.894531C163.8406 72.894531 166.02075 76.469161 166.69922 79.244141L-45.432814356 291.376175356C-46.111284356 288.601195356 -48.291434356 285.026565356 -48.872264356 285.026565356Z"
           style="fill:#c46400;fill-opacity:1" />
        <path
           id="path5200"
           d="M166.69922 79.244141C167.742452056 83.5108007565 166.625488362 88.0442851572 164.269419611 90.4003539085L-47.8626147454 302.532388265C-45.506545994 300.176319513 -44.3895822996 295.642835112 -45.432814356 291.376175356Z"
           style="fill:#c46400;fill-opacity:1" />
        <path
           id="path5202"
           d="M164.269419611 90.4003539085C162.541836629 92.1279368902 160.148045338 92.6848262405 157.45117 91.107422L-54.680864356 303.239456356C-51.9839890183 304.816860596 -49.5901977271 304.259971246 -47.8626147454 302.532388265Z"
           style="fill:#c46400;fill-opacity:1" />
        <path
           id="path5204"
           d="M157.45117 91.107422C153.68479 88.904442 152.03051 82.48156 155.42578 78.9375L-56.706254356 291.069534356C-60.101524356 294.613594356 -58.447244356 301.036476356 -54.680864356 303.239456356Z"
           style="fill:#c46400;fill-opacity:1" />
        <path
           id="path5206"
           d="M155.42578 78.9375C155.462136878 78.8995493279 155.501030571 78.8598740812 155.542324152 78.8185804999L-56.5897102036 290.950614856C-56.6310037849 290.991908437 -56.669897478 291.031583684 -56.706254356 291.069534356Z"
           style="fill:#c46400;fill-opacity:1" />
        <path
           id="path5208"
           d="M155.542324152 78.8185804999C157.200141582 77.1607630701 162.726073526 72.894531 163.25977 72.894531L-48.872264356 285.026565356C-49.4059608302 285.026565356 -54.9318927738 289.292797426 -56.5897102036 290.950614856Z"
           style="fill:#c46400;fill-opacity:1" />
        <path
           id="path5210"
           d="M150.11914 81.363281C150.77543 81.468144 150.8517 82.454823 151.41406 85.220703L-60.717974356 297.352737356C-61.280334356 294.586857356 -61.356604356 293.600178356 -62.012894356 293.495315356Z"
           style="fill:#c46400;fill-opacity:1" />
        <path
           id="path5212"
           d="M151.41406 85.220703C152.21461 89.158053 153.0122 92.776445 161.19141 94.765625L-50.940624356 306.897659356C-59.119834356 304.908479356 -59.917424356 301.290087356 -60.717974356 297.352737356Z"
           style="fill:#c46400;fill-opacity:1" />
        <path
           id="path5214"
           d="M161.19141 94.765625C161.762576715 94.9044582622 158.669236209 100.758606789 157.662609381 101.765233617L-54.4694249754 313.897267973C-53.4627981474 312.890641145 -50.3694576413 307.036492618 -50.940624356 306.897659356Z"
           style="fill:#c46400;fill-opacity:1" />
        <path
           id="path5216"
           d="M157.662609381 101.765233617C157.640591157 101.78725184 157.619571302 101.806950815 157.59961 101.82422L-54.532424356 313.956254356C-54.5124630544 313.938985171 -54.4914431986 313.919286196 -54.4694249754 313.897267973Z"
           style="fill:#c46400;fill-opacity:1" />
        <path
           id="path5218"
           d="M157.59961 101.82422C157.202186007 102.46040111 156.4327679 103.35545562 155.430194949 104.358028571L-56.7018394074 316.490062927C-55.6992664562 315.487489976 -54.9298483488 314.592435466 -54.532424356 313.956254356Z"
           style="fill:#c46400;fill-opacity:1" />
        <path
           id="path5220"
           d="M155.430194949 104.358028571C151.835892733 107.952330787 145.244901635 112.928544319 142.05469 112.3125L-70.077344356 324.444534356C-66.8871327212 325.060578675 -60.2961416231 320.084365143 -56.7018394074 316.490062927Z"
           style="fill:#c46400;fill-opacity:1" />
        <path
           id="path5222"
           d="M142.05469 112.3125C139.25746 111.7723 133.24479 105.06432 131.60938 101.35742L-80.522654356 313.489454356C-78.887244356 317.196354356 -72.874574356 323.904334356 -70.077344356 324.444534356Z"
           style="fill:#c46400;fill-opacity:1" />
        <path
           id="path5224"
           d="M131.60938 101.35742C130.468893559 98.7723932148 128.448484253 92.3778827713 131.091707153 89.7346598717L-81.0403272032 301.866694228C-83.6835501027 304.509917127 -81.6631407971 310.904427571 -80.522654356 313.489454356Z"
           style="fill:#c46400;fill-opacity:1" />
        <path
           id="path5226"
           d="M131.091707153 89.7346598717C131.167895821 89.658471203 131.247959185 89.5853992239 131.33203 89.515625L-80.800004356 301.647659356C-80.8840751712 301.71743358 -80.9641385345 301.790505559 -81.0403272032 301.866694228Z"
           style="fill:#c46400;fill-opacity:1" />
        <path
           id="path5228"
           d="M131.33203 89.515625C133.24761 87.925815 136.71131 85.654571 149.23047 81.519531L-62.901564356 293.651565356C-75.420724356 297.786605356 -78.884424356 300.057849356 -80.800004356 301.647659356Z"
           style="fill:#c46400;fill-opacity:1" />
        <path
           id="path5230"
           d="M149.23047 81.519531C149.61783 81.391569 149.90038 81.328327 150.11914 81.363281L-62.012894356 293.495315356C-62.231654356 293.460361356 -62.514204356 293.523603356 -62.901564356 293.651565356Z"
           style="fill:#c46400;fill-opacity:1" />
        <path
           id="path5232"
           d="M179.24414 94.626953C184.30817 94.550421 190.64875 102.83123 191.06445 114.38086L-21.067584356 326.512894356C-21.483284356 314.963264356 -27.823864356 306.682455356 -32.887894356 306.758987356Z"
           style="fill:#c46400;fill-opacity:1" />
        <path
           id="path5234"
           d="M191.06445 114.38086C192.257908722 147.53877212 180.799018814 164.598476919 173.258369182 172.139126551L-38.8736651737 384.271160907C-31.3330155424 376.730511275 -19.874125634 359.670806476 -21.067584356 326.512894356Z"
           style="fill:#c46400;fill-opacity:1" />
        <path
           id="path5236"
           d="M173.258369182 172.139126551C169.687185582 175.71031015 166.994817865 177.14648 166.94141 177.14648L-45.190624356 389.278514356C-45.1372164908 389.278514356 -42.4448487735 387.842344506 -38.8736651737 384.271160907Z"
           style="fill:#c46400;fill-opacity:1" />
        <path
           id="path5238"
           d="M166.94141 177.14648C166.77524 177.15072 162.66211 173.32031 162.66211 173.32031L-49.469924356 385.452344356C-49.469924356 385.452344356 -45.356794356 389.282754356 -45.190624356 389.278514356Z"
           style="fill:#c46400;fill-opacity:1" />
        <path
           id="path5240"
           d="M162.66211 173.32031C162.66211 173.32031 162.66211 173.32031 162.66211 173.32031L-49.469924356 385.452344356C-49.469924356 385.452344356 -49.469924356 385.452344356 -49.469924356 385.452344356Z"
           style="fill:#c46400;fill-opacity:1" />
        <path
           id="path5242"
           d="M162.66211 173.32031C162.66211 173.32031 164.25037 169.86239 165.05078 165.45703L-47.081254356 377.589064356C-47.881664356 381.994424356 -49.469924356 385.452344356 -49.469924356 385.452344356Z"
           style="fill:#c46400;fill-opacity:1" />
        <path
           id="path5244"
           d="M165.05078 165.45703C165.70188 161.87337 166.01953 156.57031 166.01953 156.57031L-46.112504356 368.702344356C-46.112504356 368.702344356 -46.430154356 374.005404356 -47.081254356 377.589064356Z"
           style="fill:#c46400;fill-opacity:1" />
        <path
           id="path5246"
           d="M166.01953 156.57031C166.01953 156.57031 179.801507279 154.924478272 184.342841998 150.383143554L-27.7891923582 362.51517791C-32.3305270766 367.056512628 -46.112504356 368.702344356 -46.112504356 368.702344356Z"
           style="fill:#c46400;fill-opacity:1" />
        <path
           id="path5248"
           d="M184.342841998 150.383143554C185.117876091 149.608109461 185.623771106 148.748742163 185.74609 147.79883L-26.385944356 359.930864356C-26.5082632504 360.880776519 -27.0141582653 361.740143817 -27.7891923582 362.51517791Z"
           style="fill:#c46400;fill-opacity:1" />
        <path
           id="path5250"
           d="M185.74609 147.79883C186.70332 140.365 181.31715 124.89357 180.51953 122.36914L-31.612504356 334.501174356C-30.814884356 337.025604356 -25.428714356 352.497034356 -26.385944356 359.930864356Z"
           style="fill:#c46400;fill-opacity:1" />
        <path
           id="path5252"
           d="M180.51953 122.36914C180.18219 121.30158 175.49126 108.67376 174.80273 105.41016L-37.329304356 317.542194356C-36.640774356 320.805794356 -31.949844356 333.433614356 -31.612504356 334.501174356Z"
           style="fill:#c46400;fill-opacity:1" />
        <path
           id="path5254"
           d="M174.80273 105.41016C174.122165648 102.184516944 175.178297673 97.2256983877 176.938860259 95.4651358017L-35.1931740965 307.597170158C-36.9537366825 309.357732744 -38.0098687077 314.3165513 -37.329304356 317.542194356Z"
           style="fill:#c46400;fill-opacity:1" />
        <path
           id="path5256"
           d="M176.938860259 95.4651358017C177.186494439 95.2175016222 177.448065205 95.0331423413 177.7207 94.925781L-34.411334356 307.057815356C-34.6839691506 307.165176697 -34.945539917 307.349535978 -35.1931740965 307.597170158Z"
           style="fill:#c46400;fill-opacity:1" />
        <path
           id="path5258"
           d="M177.7207 94.925781C178.20927 94.733389 178.72028 94.63487 179.24414 94.626953L-32.887894356 306.758987356C-33.411754356 306.766904356 -33.922764356 306.865423356 -34.411334356 307.057815356Z"
           style="fill:#c46400;fill-opacity:1" />
        <path
           id="path5260"
           d="M174.04102 95.023438C175.17361 94.773747 169.99235 99.927608 174.43359 110.71094L-37.698444356 322.842974356C-42.139684356 312.059642356 -36.958424356 306.905781356 -38.091014356 307.155472356Z"
           style="fill:#c46400;fill-opacity:1" />
        <path
           id="path5262"
           d="M174.43359 110.71094C177.34387 117.77713 185.37617 142.00969 184.05469 145.89062L-28.077344356 358.022654356C-26.755864356 354.141724356 -34.788164356 329.909164356 -37.698444356 322.842974356Z"
           style="fill:#c46400;fill-opacity:1" />
        <path
           id="path5264"
           d="M184.05469 145.89062C183.749010408 146.788351066 183.454703546 147.402869299 183.092667336 147.764905508L-29.0393670198 359.896939864C-28.6773308103 359.534903655 -28.3830239484 358.920385422 -28.077344356 358.022654356Z"
           style="fill:#c46400;fill-opacity:1" />
        <path
           id="path5266"
           d="M183.092667336 147.764905508C182.520535655 148.33703719 181.779256751 148.278620457 180.55664 147.71094L-31.575394356 359.842974356C-30.3527776048 360.410654813 -29.6114987014 360.469071546 -29.0393670198 359.896939864Z"
           style="fill:#c46400;fill-opacity:1" />
        <path
           id="path5268"
           d="M180.55664 147.71094C174.95068 145.10808 168.04457 137.42877 154.78516 132.25L-57.346874356 344.382034356C-44.087464356 349.560804356 -37.181354356 357.240114356 -31.575394356 359.842974356Z"
           style="fill:#c46400;fill-opacity:1" />
        <path
           id="path5270"
           d="M154.78516 132.25C144.09539 128.07492 135.24127 128.17421 129.50391 129.30469L-82.628124356 341.436724356C-76.890764356 340.306244356 -68.036644356 340.206954356 -57.346874356 344.382034356Z"
           style="fill:#c46400;fill-opacity:1" />
        <path
           id="path5272"
           d="M129.50391 129.30469C116.30369 131.90556 109.47074 137.64938 105.63477 140.86133L-106.497264356 352.993364356C-102.661294356 349.781414356 -95.828344356 344.037594356 -82.628124356 341.436724356Z"
           style="fill:#c46400;fill-opacity:1" />
        <path
           id="path5274"
           d="M105.63477 140.86133C105.627569598 140.867359265 105.621402324 140.872941213 105.616259377 140.878084161L-106.515774979 353.010118517C-106.510632031 353.004975569 -106.504464758 352.999393621 -106.497264356 352.993364356Z"
           style="fill:#c46400;fill-opacity:1" />
        <path
           id="path5276"
           d="M105.616259377 140.878084161C105.202461167 141.291882371 111.419847064 138.863722651 119.68359 137.92578L-92.448444356 350.057814356C-100.712187292 350.995757007 -106.929573189 353.423916727 -106.515774979 353.010118517Z"
           style="fill:#c46400;fill-opacity:1" />
        <path
           id="path5278"
           d="M119.68359 137.92578C127.26863 137.06483 134.87255 137.8906 144.29297 144.29492L-67.839064356 356.426954356C-77.259484356 350.022634356 -84.863404356 349.196864356 -92.448444356 350.057814356Z"
           style="fill:#c46400;fill-opacity:1" />
        <path
           id="path5280"
           d="M144.29297 144.29492C147.998303956 147.399076662 148.863306806 148.439005448 148.345077214 148.95723504L-63.7869571415 361.089269396C-63.2687275497 360.571039804 -64.1337304004 359.531111018 -67.839064356 356.426954356Z"
           style="fill:#c46400;fill-opacity:1" />
        <path
           id="path5282"
           d="M148.345077214 148.95723504C148.022919063 149.279393192 147.166210091 149.399940448 146.125 149.68945L-66.007034356 361.821484356C-64.9658242647 361.531974804 -64.1091152933 361.411427548 -63.7869571415 361.089269396Z"
           style="fill:#c46400;fill-opacity:1" />
        <path
           id="path5284"
           d="M146.125 149.68945C135.75828 152.57216 115.99057 158.53979 109.0957 157.53125L-103.036334356 369.663284356C-96.141464356 370.671824356 -76.373754356 364.704194356 -66.007034356 361.821484356Z"
           style="fill:#c46400;fill-opacity:1" />
        <path
           id="path5286"
           d="M109.0957 157.53125C101.96305 156.48795 93.157877 138.18501 96.480469 124.24805L-115.651565356 336.380084356C-118.974157356 350.317044356 -110.168984356 368.619984356 -103.036334356 369.663284356Z"
           style="fill:#c46400;fill-opacity:1" />
        <path
           id="path5288"
           d="M96.480469 124.24805C97.2564599739 120.564011698 99.269600235 117.936287106 100.851270565 116.354616775L-111.280763791 328.486651131C-112.862434121 330.068321462 -114.875574382 332.696046054 -115.651565356 336.380084356Z"
           style="fill:#c46400;fill-opacity:1" />
        <path
           id="path5290"
           d="M100.851270565 116.354616775C101.994501371 115.21138597 102.912315296 114.614655099 102.97461 114.56055L-109.157424356 326.692584356C-109.21971906 326.746689455 -110.137532985 327.343420326 -111.280763791 328.486651131Z"
           style="fill:#c46400;fill-opacity:1" />
        <path
           id="path5292"
           d="M102.97461 114.56055C109.46441 108.92245 131.4715 104.67509 132.70117 106.30078L-79.430864356 318.432814356C-80.660534356 316.807124356 -102.667624356 321.054484356 -109.157424356 326.692584356Z"
           style="fill:#c46400;fill-opacity:1" />
        <path
           id="path5294"
           d="M132.70117 106.30078C134.62831 108.84852 139.93272 113.86445 142.76758 114.10547L-69.364454356 326.237504356C-72.199314356 325.996484356 -77.503724356 320.980554356 -79.430864356 318.432814356Z"
           style="fill:#c46400;fill-opacity:1" />
        <path
           id="path5296"
           d="M142.76758 114.10547C143.66544 114.18183 149.7161 112.28983 159.64258 103.40234L-52.489454356 315.534374356C-62.415934356 324.421864356 -68.466594356 326.313864356 -69.364454356 326.237504356Z"
           style="fill:#c46400;fill-opacity:1" />
        <path
           id="path5298"
           d="M159.64258 103.40234C163.70351 99.766504 168.54756 96.234338 174.04102 95.023438L-38.091014356 307.155472356C-43.584474356 308.366372356 -48.428524356 311.898538356 -52.489454356 315.534374356Z"
           style="fill:#c46400;fill-opacity:1" />
        <path
           id="path5300"
           d="M136.20117 130.75977C145.60822 130.73185 156.7699 133.51242 168.32812 142.50195L-43.803914356 354.633984356C-55.362134356 345.644454356 -66.523814356 342.863884356 -75.930864356 342.891804356Z"
           style="fill:#c46400;fill-opacity:1" />
        <path
           id="path5302"
           d="M168.32812 142.50195C173.87989 146.81986 177.19462 149.22411 180.10742 151.13477L-32.024614356 363.266804356C-34.937414356 361.356144356 -38.252144356 358.951894356 -43.803914356 354.633984356Z"
           style="fill:#c46400;fill-opacity:1" />
        <path
           id="path5304"
           d="M180.10742 151.13477C180.131240898 151.150395227 180.128547086 151.171787431 180.102023548 151.198310968L-32.0300108076 363.330345324C-32.0034872703 363.303821787 -32.000793458 363.282429583 -32.024614356 363.266804356Z"
           style="fill:#c46400;fill-opacity:1" />
        <path
           id="path5306"
           d="M180.102023548 151.198310968C179.660127006 151.640207511 172.603725419 153.506427302 171.34961 153.85742L-40.782424356 365.989454356C-39.528308937 365.638461658 -32.4719073504 363.772241867 -32.0300108076 363.330345324Z"
           style="fill:#c46400;fill-opacity:1" />
        <path
           id="path5308"
           d="M171.34961 153.85742C158.58945 155.96819 155.07434 153.46409 151.97656 149.77148L-60.155474356 361.903514356C-57.057694356 365.596124356 -53.542584356 368.100224356 -40.782424356 365.989454356Z"
           style="fill:#c46400;fill-opacity:1" />
        <path
           id="path5310"
           d="M151.97656 149.77148C143.64832 139.8439 134.14172 136.777 128.09375 136.37305L-84.038284356 348.505084356C-77.990314356 348.909034356 -68.483714356 351.975934356 -60.155474356 361.903514356Z"
           style="fill:#c46400;fill-opacity:1" />
        <path
           id="path5312"
           d="M128.09375 136.37305C120.58511 135.87151 115.17863 136.8348 110.06055 138.53711L-102.071484356 350.669144356C-96.953404356 348.966834356 -91.546924356 348.003544356 -84.038284356 348.505084356Z"
           style="fill:#c46400;fill-opacity:1" />
        <path
           id="path5314"
           d="M110.06055 138.53711C110.04872085 138.541042185 110.05001875 138.535604401 110.064190057 138.521433094L-102.067844299 350.65346745C-102.082015606 350.667638757 -102.083313506 350.673076541 -102.071484356 350.669144356Z"
           style="fill:#c46400;fill-opacity:1" />
        <path
           id="path5316"
           d="M110.064190057 138.521433094C110.463064782 138.122558369 121.060684436 130.804693933 136.20117 130.75977L-75.930864356 342.891804356C-91.0713499198 342.936728289 -101.668969574 350.254592725 -102.067844299 350.65346745Z"
           style="fill:#c46400;fill-opacity:1" />
        <path
           id="path5318"
           d="M149.65039 150.50586C150.19246 150.53659 150.34554 150.84074 150.67188 151.26562L-61.460154356 363.397654356C-61.786494356 362.972774356 -61.939574356 362.668624356 -62.481644356 362.637894356Z"
           style="fill:#c46400;fill-opacity:1" />
        <path
           id="path5320"
           d="M150.67188 151.26562C152.21126 153.27014 154.79371 154.60056 155.08398 154.73828L-57.048054356 366.870314356C-57.338324356 366.732594356 -59.920774356 365.402174356 -61.460154356 363.397654356Z"
           style="fill:#c46400;fill-opacity:1" />
        <path
           id="path5322"
           d="M155.08398 154.73828C158.89007 156.5441 163.8037 156.37364 163.91406 156.5332L-48.217974356 368.665234356C-48.328334356 368.505674356 -53.241964356 368.676134356 -57.048054356 366.870314356Z"
           style="fill:#c46400;fill-opacity:1" />
        <path
           id="path5324"
           d="M163.91406 156.5332C164.371127726 157.194350603 164.729441692 173.176182551 152.572775862 185.332848381L-59.5592584936 397.464882737C-47.4025926639 385.308216907 -47.7609066298 369.326384959 -48.217974356 368.665234356Z"
           style="fill:#c46400;fill-opacity:1" />
        <path
           id="path5326"
           d="M152.572775862 185.332848381C144.446776203 193.45884804 130.728935789 199.875718308 107.71094 198.86523L-104.421094356 410.997264356C-81.4030985665 412.007752664 -67.6852581528 405.590882396 -59.5592584936 397.464882737Z"
           style="fill:#c46400;fill-opacity:1" />
        <path
           id="path5328"
           d="M107.71094 198.86523C106.769851395 198.823979905 89.5749413219 187.070294525 89.9387135925 186.706522254L-122.193320763 398.83855661C-122.557093034 399.202328881 -105.362182961 410.956014261 -104.421094356 410.997264356Z"
           style="fill:#c46400;fill-opacity:1" />
        <path
           id="path5330"
           d="M89.9387135925 186.706522254C89.9409174331 186.704318413 89.9437657294 186.702532616 89.947266 186.70117L-122.184768356 398.833204356C-122.188268627 398.834566972 -122.191116923 398.836352769 -122.193320763 398.83855661Z"
           style="fill:#c46400;fill-opacity:1" />
        <path
           id="path5332"
           d="M89.947266 186.70117C97.0470836075 183.937414298 101.816291673 180.627665793 105.076812624 177.367144843L-107.055221732 389.499179199C-110.315742683 392.759700149 -115.084950749 396.069448654 -122.184768356 398.833204356Z"
           style="fill:#c46400;fill-opacity:1" />
        <path
           id="path5334"
           d="M105.076812624 177.367144843C111.031781942 171.412175525 111.954245885 165.621413833 112.85156 163.62109L-99.280474356 375.753124356C-100.177788471 377.753448189 -101.100252414 383.544209881 -107.055221732 389.499179199Z"
           style="fill:#c46400;fill-opacity:1" />
        <path
           id="path5336"
           d="M112.85156 163.62109C112.839457823 163.60182106 112.85131734 163.574656172 112.885960218 163.540013294L-99.2460741377 375.67204765C-99.2807170158 375.706690528 -99.2925765325 375.733855416 -99.280474356 375.753124356Z"
           style="fill:#c46400;fill-opacity:1" />
        <path
           id="path5338"
           d="M112.885960218 163.540013294C114.01728423 162.408689283 139.446236243 153.302360011 148.13477 150.77734L-63.997264356 362.909374356C-72.6857981132 365.434394367 -98.114750126 374.540723639 -99.2460741377 375.67204765Z"
           style="fill:#c46400;fill-opacity:1" />
        <path
           id="path5340"
           d="M148.13477 150.77734C148.86032 150.56652 149.32515 150.48742 149.65039 150.50586L-62.481644356 362.637894356C-62.806884356 362.619454356 -63.271714356 362.698554356 -63.997264356 362.909374356Z"
           style="fill:#c46400;fill-opacity:1" />
        <path
           id="path5342"
           d="M78.470703 163.44336C80.049947 163.46606 82.618582 165.33389 81.294922 181.27148L-130.837112356 393.403514356C-129.513452356 377.465924356 -132.082087356 375.598094356 -133.661331356 375.575394356Z"
           style="fill:#c46400;fill-opacity:1" />
        <path
           id="path5344"
           d="M81.294922 181.27148C81.125003 183.31725 90.34375 189.69531 90.34375 189.69531L-121.788284356 401.827344356C-121.788284356 401.827344356 -131.007031356 395.449284356 -130.837112356 393.403514356Z"
           style="fill:#c46400;fill-opacity:1" />
        <path
           id="path5346"
           d="M90.34375 189.69531C85.4341873987 192.581681729 81.9086987727 195.281525169 79.3107771585 197.879446783L-132.821257197 410.011481139C-130.223335583 407.413559525 -126.697846957 404.713716085 -121.788284356 401.827344356Z"
           style="fill:#c46400;fill-opacity:1" />
        <path
           id="path5348"
           d="M79.3107771585 197.879446783C71.9581223014 205.23210164 72.035343497 211.768355611 69.193359 219.40625L-142.938675356 431.538284356C-140.096690859 423.900389967 -140.173912055 417.364135996 -132.821257197 410.011481139Z"
           style="fill:#c46400;fill-opacity:1" />
        <path
           id="path5350"
           d="M69.193359 219.40625C68.450097 218.36235 63.572435 199.07082 64.923828 186.72266L-147.208206356 398.854694356C-148.559599356 411.202854356 -143.681937356 430.494384356 -142.938675356 431.538284356Z"
           style="fill:#c46400;fill-opacity:1" />
        <path
           id="path5352"
           d="M64.923828 186.72266C66.0641072186 176.303581718 70.0851813057 170.004428734 73.4535237931 166.636086247L-138.678510563 378.768120603C-142.04685305 382.13646309 -146.067927137 388.435616074 -147.208206356 398.854694356Z"
           style="fill:#c46400;fill-opacity:1" />
        <path
           id="path5354"
           d="M73.4535237931 166.636086247C75.5864556784 164.503154361 77.4576559852 163.545415554 78.169922 163.46094L-133.962112356 375.592974356C-134.674378371 375.67744991 -136.545578678 376.635188717 -138.678510563 378.768120603Z"
           style="fill:#c46400;fill-opacity:1" />
        <path
           id="path5356"
           d="M78.169922 163.46094C78.264959 163.44967 78.36542 163.44185 78.470703 163.44336L-133.661331356 375.575394356C-133.766614356 375.573884356 -133.867075356 375.581704356 -133.962112356 375.592974356Z"
           style="fill:#c46400;fill-opacity:1" />
        <path
           id="path5358"
           d="M85.523438 165.2207C85.5234158714 165.220472302 85.5234677276 165.220295793 85.5235932736 165.220170247L-126.608441082 377.352204603C-126.608566628 377.352330149 -126.608618485 377.352506657 -126.608596356 377.352734356Z"
           style="fill:#c46400;fill-opacity:1" />
        <path
           id="path5360"
           d="M85.5235932736 165.220170247C85.5778989637 165.165864557 99.41991899 174.646921616 103.17969 175.30078L-108.952344356 387.432814356C-112.712115366 386.778955972 -126.554135392 377.297898913 -126.608441082 377.352204603Z"
           style="fill:#c46400;fill-opacity:1" />
        <path
           id="path5362"
           d="M103.17969 175.30078C103.317740321 175.324800958 103.06632297 175.669833908 102.511182191 176.224974688L-109.620852165 388.357009044C-109.065711385 387.801868264 -108.814294035 387.456835314 -108.952344356 387.432814356Z"
           style="fill:#c46400;fill-opacity:1" />
        <path
           id="path5364"
           d="M102.511182191 176.224974688C100.594635264 178.141521615 95.058068517 182.562302432 89.429688 184.92383L-122.702346356 397.055864356C-117.073965839 394.694336788 -111.537399092 390.273555971 -109.620852165 388.357009044Z"
           style="fill:#c46400;fill-opacity:1" />
        <path
           id="path5366"
           d="M89.429688 184.92383C86.94504 184.59995 84.23761 181.45335 84.441406 179.42188L-127.690628356 391.553914356C-127.894424356 393.585384356 -125.186994356 396.731984356 -122.702346356 397.055864356Z"
           style="fill:#c46400;fill-opacity:1" />
        <path
           id="path5368"
           d="M84.441406 179.42188C84.930076 174.55077 86.000823 170.13539 85.523438 165.2207L-126.608596356 377.352734356C-126.131211356 382.267424356 -127.201958356 386.682804356 -127.690628356 391.553914356Z"
           style="fill:#c46400;fill-opacity:1" />
      </g>
      <path
         id="path4230"
         transform=""
         d="M 165.08594 30.783203 C 165.02388 30.740368 165.01541 30.871747 165.04102 31.126953 C 165.59594 36.656633 164.36123 44.394403 163.51758 47.533203 C 162.32086 51.985533 158.2177 57.645022 147.48047 62.794922 C 144.96091 64.003402 134.79783 68.791336 132.99414 70.884766 C 130.75636 73.482086 130.20995 76.10135 129.15039 81.28125 C 128.0299 86.75893 127.62263 91.869852 128.92969 97.732422 C 129.86061 101.90776 130.82274 102.32128 126.4082 103.38867 C 120.69965 104.76901 84.695435 106.43323 94.955078 142.28125 C 98.041998 152.58176 104.0599 159.11573 107.54883 160.31641 C 110.31618 161.2687 109.84588 160.41123 109.35938 163.95703 C 108.87703 167.47231 106.85965 172.9014 103.9043 172.9707 C 102.71806 172.99948 97.504728 169.84828 96.029297 168.87891 C 87.763524 163.44838 84.818347 160.38624 78.949219 159.72852 C 74.114675 159.18668 63.239421 168.58056 63.007812 188.48633 C 62.725122 212.7818 69.536917 224.86191 69.730469 225.22461 C 74.780909 202.34617 78.415512 200.11156 91.513672 191.16016 C 92.550716 190.45146 104.85556 200.81086 107.81445 200.75586 C 122.61382 200.47656 149.14971 201.42997 162.00977 174.86328 C 162.25812 174.35022 166.45434 178.70636 166.83398 178.69336 C 166.9912 178.68799 189.4189 168.69801 192.75391 122.79492 C 194.27692 101.83233 188.40983 96.815206 184.29102 94.197266 C 178.20897 90.331496 169.32399 91.676237 169.0332 91.710938 C 167.02174 91.952657 168.42669 88.842694 168.76758 85.552734 C 169.18363 81.536864 167.70849 76.015752 165.03711 71.601562 C 163.75134 69.476923 163.28607 69.275016 164.24219 68.253906 C 171.28235 60.735396 172.3826 52.408156 170.15039 45.472656 C 166.60091 34.444277 165.35487 30.968823 165.08594 30.783203 z M 166.68164 39.408203 C 166.85097 39.417463 167.92292 42.646163 168.29102 43.816406 C 169.98511 49.201876 169.76141 51.596473 169.375 54.320312 C 168.38908 61.270033 164.68162 65.844779 161.89258 68.630859 C 157.50977 73.008909 156.48147 73.636774 158.39453 70.177734 C 164.48931 59.157804 165.77902 48.789422 166.66016 39.451172 C 166.66295 39.421613 166.67035 39.407586 166.68164 39.408203 z M 162.53906 53.589844 C 163.77525 53.398533 159.87788 69.922991 150.74023 78.183594 C 147.45104 81.157044 138.41104 82.696267 130.60352 88.248047 C 129.80248 88.817707 130.78899 78.898434 133.41992 73.371094 C 134.2039 71.435474 138.15336 69.294979 141.4375 67.380859 C 144.82556 65.406249 155.59231 62.598182 162.22266 53.857422 C 162.35066 53.688671 162.45665 53.602598 162.53906 53.589844 z M 163.25977 72.894531 C 163.8406 72.894531 166.02075 76.469161 166.69922 79.244141 C 168.5074 86.639321 163.82603 94.836082 157.45117 91.107422 C 153.68479 88.904442 152.03051 82.48156 155.42578 78.9375 C 156.92176 77.37594 162.71278 72.894531 163.25977 72.894531 z M 150.11914 81.363281 C 150.77543 81.468144 150.8517 82.454823 151.41406 85.220703 C 152.21461 89.158053 153.0122 92.776445 161.19141 94.765625 C 161.77507 94.907495 158.53216 101.01744 157.59961 101.82422 C 155.77739 104.74116 146.13476 113.10038 142.05469 112.3125 C 139.25746 111.7723 133.24479 105.06432 131.60938 101.35742 C 130.43602 98.697882 128.33128 92.006085 131.33203 89.515625 C 133.24761 87.925815 136.71131 85.654571 149.23047 81.519531 C 149.61783 81.391569 149.90038 81.328327 150.11914 81.363281 z M 179.24414 94.626953 C 184.30817 94.550421 190.64875 102.83123 191.06445 114.38086 C 192.82312 163.24206 167.10759 177.14648 166.94141 177.14648 C 166.77524 177.15072 162.66211 173.32031 162.66211 173.32031 C 162.66211 173.32031 164.25037 169.86239 165.05078 165.45703 C 165.70188 161.87337 166.01953 156.57031 166.01953 156.57031 C 166.01953 156.57031 184.90704 154.31478 185.74609 147.79883 C 186.70332 140.365 181.31715 124.89357 180.51953 122.36914 C 180.18219 121.30158 175.49126 108.67376 174.80273 105.41016 C 174.02644 101.73081 175.50976 95.796431 177.7207 94.925781 C 178.20927 94.733389 178.72028 94.63487 179.24414 94.626953 z M 174.04102 95.023438 C 175.17361 94.773747 169.99235 99.927608 174.43359 110.71094 C 177.34387 117.77713 185.37617 142.00969 184.05469 145.89062 C 183.26594 148.20705 182.55291 148.63784 180.55664 147.71094 C 174.95068 145.10808 168.04457 137.42877 154.78516 132.25 C 144.09539 128.07492 135.24127 128.17421 129.50391 129.30469 C 116.30369 131.90556 109.47074 137.64938 105.63477 140.86133 C 105.04823 141.35247 111.31714 138.87538 119.68359 137.92578 C 127.26863 137.06483 134.87255 137.8906 144.29297 144.29492 C 150.30173 149.32878 148.84112 148.93423 146.125 149.68945 C 135.75828 152.57216 115.99057 158.53979 109.0957 157.53125 C 101.96305 156.48795 93.157877 138.18501 96.480469 124.24805 C 97.817346 117.90119 102.82613 114.68951 102.97461 114.56055 C 109.46441 108.92245 131.4715 104.67509 132.70117 106.30078 C 134.62831 108.84852 139.93272 113.86445 142.76758 114.10547 C 143.66544 114.18183 149.7161 112.28983 159.64258 103.40234 C 163.70351 99.766504 168.54756 96.234338 174.04102 95.023438 z M 136.20117 130.75977 C 145.60822 130.73185 156.7699 133.51242 168.32812 142.50195 C 173.87989 146.81986 177.19462 149.22411 180.10742 151.13477 C 180.52811 151.41072 172.679 153.48536 171.34961 153.85742 C 158.58945 155.96819 155.07434 153.46409 151.97656 149.77148 C 143.64832 139.8439 134.14172 136.777 128.09375 136.37305 C 120.58511 135.87151 115.17863 136.8348 110.06055 138.53711 C 109.71577 138.65172 120.52277 130.80629 136.20117 130.75977 z M 149.65039 150.50586 C 150.19246 150.53659 150.34554 150.84074 150.67188 151.26562 C 152.21126 153.27014 154.79371 154.60056 155.08398 154.73828 C 158.89007 156.5441 163.8037 156.37364 163.91406 156.5332 C 164.67665 157.63629 165.16434 201.38743 107.71094 198.86523 C 106.76415 198.82373 89.366001 186.92745 89.947266 186.70117 C 110.01409 178.88973 111.46294 166.71665 112.85156 163.62109 C 112.44424 162.97256 139.18018 153.37968 148.13477 150.77734 C 148.86032 150.56652 149.32515 150.48742 149.65039 150.50586 z M 78.470703 163.44336 C 80.049947 163.46606 82.618582 165.33389 81.294922 181.27148 C 81.125003 183.31725 90.34375 189.69531 90.34375 189.69531 C 71.539111 200.75071 73.039505 209.06965 69.193359 219.40625 C 68.450097 218.36235 63.572435 199.07082 64.923828 186.72266 C 66.786165 169.70592 76.33284 163.67882 78.169922 163.46094 C 78.264959 163.44967 78.36542 163.44185 78.470703 163.44336 z M 85.523438 165.2207 C 85.513844 165.12198 99.411227 174.64541 103.17969 175.30078 C 103.79434 175.40773 96.688367 181.87827 89.429688 184.92383 C 86.94504 184.59995 84.23761 181.45335 84.441406 179.42188 C 84.930076 174.55077 86.000823 170.13539 85.523438 165.2207 z "
         style="fill:#c46400;fill-opacity:1;fill-rule:nonzero;stroke:none" />
    </g>
    <path
       inkscape:connector-curvature="0"
       style="fill:#ffffff;fill-opacity:0;fill-rule:nonzero;stroke:none"
       d="m 141.43653,863.74285 c -3.28414,1.91412 -7.23261,4.05496 -8.01659,5.99058 -2.63093,5.52734 -3.61709,15.4466 -2.81605,14.87694 7.80752,-5.55178 16.84697,-7.09098 20.13616,-10.06443 9.74682,-8.81131 13.53074,-27.0264 11.48262,-24.32638 -6.63035,8.74076 -17.39808,11.54868 -20.78614,13.52329 z M 90.344539,986.05703 c 0,0 -9.21935,-6.37679 -9.04943,-8.42256 1.4119,-17.0001 -1.60529,-17.99209 -3.12589,-17.81182 -1.83708,0.21788 -11.38361,6.24468 -13.24595,23.26142 -1.35139,12.34816 3.52779,31.64073 4.27106,32.68463 3.84614,-10.3366 2.34557,-18.65627 21.15021,-29.71167 z M 191.06486,910.74236 c -0.45871,-12.74442 -8.13184,-21.50711 -13.3432,-19.45493 -2.21094,0.87065 -3.69534,6.80489 -2.91905,10.48424 0.68853,3.2636 5.38001,15.89258 5.71735,16.96014 0.79762,2.52443 6.1825,17.99608 5.22527,25.42991 -0.83905,6.51595 -19.72653,8.77041 -19.72653,8.77041 0,0 -0.3174,5.30357 -0.9685,8.88723 -0.80041,4.40536 -2.3873,7.86266 -2.3873,7.86266 0,0 4.11218,3.83084 4.27835,3.8266 0.16618,0 25.88228,-13.90506 24.12361,-62.76626 z m -19.71567,39.47814 c 1.32939,-0.37206 9.17866,-2.44746 8.75797,-2.72341 -2.9128,-1.91066 -6.22756,-4.31574 -11.77932,-8.63365 -30.82194,-23.97209 -58.81811,-3.78153 -58.26647,-3.96491 5.11808,-1.70231 10.52277,-2.66422 18.03141,-2.16268 6.04797,0.40395 15.55527,3.4697 23.88351,13.39728 3.09778,3.69261 6.61274,6.19814 19.3729,4.08737 z m -13.74882,-52.0338 c 0.93255,-0.80678 4.17379,-6.91678 3.59013,-7.05865 -8.17921,-1.98918 -8.97583,-5.60803 -9.77638,-9.54538 -0.74982,-3.68784 -0.63414,-4.21382 -2.1836,-3.70197 -12.51916,4.13504 -15.98209,6.40744 -17.89767,7.99725 -3.00075,2.49046 -0.8959,9.18234 0.27746,11.84188 1.63541,3.7069 7.64803,10.41464 10.44526,10.95484 4.08007,0.78788 13.72258,-7.57103 15.5448,-10.48797 z m 9.09875,-22.58126 c -0.67847,-2.77498 -2.85824,-6.34877 -3.43907,-6.34877 -0.54699,0 -6.33882,4.48171 -7.8348,6.04327 -3.39527,3.54406 -1.74059,9.96649 2.02579,12.16947 6.37486,3.72866 11.05626,-4.46879 9.24808,-11.86397 z m -4.80651,-10.61337 c 2.78904,-2.78608 6.49664,-7.35939 7.48256,-14.30911 0.38641,-2.72384 0.61078,-5.11983 -1.08331,-10.5053 -0.39263,-1.24826 -1.58615,-4.83799 -1.63077,-4.36505 -0.88114,9.33825 -2.17221,19.70731 -8.26699,30.72724 -1.91306,3.45904 -0.8843,2.83027 3.49851,-1.54778 z m -65.411261,55.61772 c -3.32259,13.93696 5.482291,32.24061 12.614941,33.28391 6.89487,1.00854 26.6614,-4.9595 37.02812,-7.84221 2.71612,-0.75522 4.17727,-0.36132 -1.83149,-5.39518 -9.42042,-6.40432 -17.02359,-7.22895 -24.60863,-6.368 -8.36645,0.9496 -14.63577,3.42593 -14.04923,2.93479 3.83597,-3.21195 10.66835,-8.9557 23.86857,-11.55657 5.73736,-1.13048 14.59155,-1.2298 25.28132,2.94528 13.25941,5.17877 20.16556,12.85891 25.77152,15.46177 1.99627,0.9269 2.70937,0.49591 3.49812,-1.82052 1.32148,-3.88093 -6.71145,-28.11285 -9.62173,-35.17904 -4.44124,-10.78333 0.74051,-15.93748 -0.39208,-15.68779 -5.49346,1.2109 -10.3377,4.74179 -14.39863,8.37763 -9.92648,8.88749 -15.97671,10.78073 -16.87457,10.70437 -2.83486,-0.24102 -8.13906,-5.25841 -10.0662,-7.80615 -1.22967,-1.62569 -23.2374,2.62227 -29.7272,8.26037 -0.14848,0.12896 -5.155951,3.34048 -6.492831,9.68734 z m -7.05131,60.67699 c 7.25868,-3.04556 14.365221,-9.51756 13.750571,-9.62451 -3.768461,-0.65537 -17.666561,-10.17857 -17.656971,-10.07985 0.47739,4.91469 -0.59369,9.3307 -1.08236,14.2018 -0.2038,2.03147 2.50411,5.17868 4.98876,5.50256 z m 23.422301,-21.30336 c -1.38862,3.09556 -2.83842,15.26824 -22.905251,23.07968 -0.58126,0.22628 16.816471,12.12253 17.763261,12.16403 57.4534,2.5222 56.96649,-41.22926 56.2039,-42.33235 -0.11036,-0.15956 -5.02437,0.0113 -8.83046,-1.79452 -0.29027,-0.13772 -2.87211,-1.46848 -4.4115,-3.473 -0.52214,-0.67981 -0.60341,-1.04927 -2.53822,-0.48706 -8.95459,2.60234 -35.68905,12.19469 -35.28173,12.84322 z M 94.954159,938.64313 c -10.25965,-35.84802 25.744881,-37.51106 31.453431,-38.8914 4.41454,-1.06739 3.45262,-1.48252 2.5217,-5.65786 -1.30706,-5.86257 -0.89989,-10.97278 0.2206,-16.45046 1.05956,-5.1799 1.60604,-7.79922 3.84382,-10.39654 1.80369,-2.09343 11.96735,-6.88099 14.48691,-8.08947 10.73723,-5.1499 14.83947,-10.81045 16.03619,-15.26278 0.84365,-3.1388 2.07816,-10.8751 1.52324,-16.40478 -0.13658,-1.3611 0.7416,0.77159 5.11019,14.34498 2.23221,6.9355 1.133,15.26312 -5.90716,22.78163 -0.95612,1.02111 -0.49243,1.2233 0.79334,3.34794 2.67138,4.41419 4.14814,9.93399 3.73209,13.94986 -0.34089,3.28996 -1.74727,6.40086 0.26419,6.15914 0.29079,-0.0347 9.1756,-1.38008 15.25765,2.48569 4.11881,2.61794 9.98617,7.6362 8.46316,28.59879 -3.33501,45.90309 -25.76286,55.89298 -25.92008,55.89835 -0.37964,0.013 -4.57565,-4.34364 -4.824,-3.83058 -12.86006,26.56669 -39.3958,25.61219 -54.19517,25.89149 -2.95889,0.055 -15.262611,-10.3041 -16.299651,-9.5954 -13.09816,8.9514 -16.73449,11.187 -21.78493,34.06547 -0.19355,-0.3627 -7.00381,-12.4431 -6.72112,-36.7386 0.23161,-19.90577 11.10659,-29.29992 15.94113,-28.75808 5.86913,0.65772 8.81459,3.71974 17.08036,9.15027 1.47543,0.96937 6.688301,4.12161 7.874541,4.09283 2.95535,-0.0693 4.9715,-5.49926 5.45385,-9.01454 0.48651,-3.5458 0.95688,-2.68884 -1.81047,-3.64113 -3.48893,-1.20068 -9.506891,-7.73431 -12.593811,-18.03482 z"
       id="path5062"
       sodipodi:nodetypes="ccsssccssscccsssscscsccsssssccssssssccsssccssssccsscssssssssssssccsssccssssssccssssssssssssscsssscssscssc"
       inkscape:export-filename="/home/emcho/storage/images/sc_logo/sc_logo136x203.png"
       inkscape:export-xdpi="19.25"
       inkscape:export-ydpi="19.25" />
    <path
       style="fill:#ffffff;fill-opacity:1;stroke:none;stroke-width:10;stroke-linecap:round;stroke-miterlimit:4;stroke-dasharray:none;stroke-opacity:1"
       d="m 107.08114,156.49256 c -3.76551,-2.40099 -7.90065,-9.16171 -9.786112,-15.99974 -1.959731,-7.10738 -1.313416,-16.7211 1.414663,-21.04266 3.590379,-5.68752 11.923359,-9.77097 25.185779,-12.34189 7.53479,-1.46062 7.58055,-1.45183 11.29139,2.1689 1.76013,1.71738 4.12967,3.59667 5.26567,4.17621 1.94926,0.99444 2.1867,1.01239 4.22113,0.31919 3.01235,-1.02641 9.26208,-5.24083 15.40581,-10.3887 4.72041,-3.955255 9.40255,-6.844466 12.53592,-7.735547 1.04815,-0.298076 1.13489,-0.21356 0.84197,0.820349 -1.52573,5.385278 -1.24413,9.231038 1.11264,15.195438 3.84785,9.73794 8.66753,26.23011 9.14883,31.3058 0.23054,2.43128 0.11857,3.12135 -0.66257,4.08336 -0.9292,1.14436 -0.95926,1.14779 -2.61756,0.29875 -0.92265,-0.4724 -4.42041,-2.77347 -7.77279,-5.1135 -7.75964,-5.41637 -11.78292,-7.71183 -17.5056,-9.98773 -12.60189,-5.01175 -25.29058,-4.8456 -37.35155,0.48909 -3.38627,1.49778 -10.28419,5.96601 -11.70523,7.58223 -0.8901,1.01236 -0.897,1.07877 -0.0812,0.7806 1.93688,-0.70792 8.55873,-2.22752 11.87984,-2.72623 7.97718,-1.19786 14.03715,-0.29367 20.97236,3.12926 4.06286,2.00525 10.03681,6.59126 9.41042,7.22407 -0.35091,0.35451 -19.26085,5.48159 -25.6,6.94097 -2.95009,0.67916 -7.33866,1.35177 -9.75238,1.49469 -3.77081,0.22327 -4.59449,0.12855 -5.85143,-0.67291 z"
       id="path4296"
       inkscape:connector-curvature="0"
       transform="translate(0,796.36216)" />
    <path
       style="fill:#ffffff;fill-opacity:1;stroke:none;stroke-width:10;stroke-linecap:round;stroke-miterlimit:4;stroke-dasharray:none;stroke-opacity:1"
       d="m 157.84628,153.66317 c -1.90876,-0.61369 -3.27647,-1.67411 -6.84549,-5.30752 -9.63757,-9.81146 -19.12904,-13.46636 -31.28665,-12.04762 -2.6571,0.31008 -5.37966,0.68513 -6.05014,0.83347 -2.0608,0.45592 3.43405,-2.28225 7.06579,-3.52099 13.25294,-4.52041 28.1871,-2.93229 40.3906,4.2952 2.85851,1.69295 15.90978,11.11946 17.79422,12.8522 0.51077,0.46965 -0.3304,0.85898 -4.13815,1.91532 -6.07148,1.68432 -13.41693,2.10949 -16.93018,0.97994 z"
       id="path4298"
       inkscape:connector-curvature="0"
       transform="translate(0,796.36216)" />
    <path
       style="fill:#ffffff;fill-opacity:1;stroke:none;stroke-width:10;stroke-linecap:round;stroke-miterlimit:4;stroke-dasharray:none;stroke-opacity:1"
       d="m 105.89021,197.55236 c -1.1914,-0.68099 -5.21462,-3.35014 -8.940495,-5.93144 l -6.774322,-4.69326 2.933745,-1.33173 c 9.290352,-4.21722 15.797892,-10.65165 18.617612,-18.40846 0.65264,-1.79537 1.58841,-3.39409 2.23439,-3.81735 1.92693,-1.26257 21.5075,-8.41519 31.14256,-11.37611 l 4.4003,-1.35224 1.89079,1.70472 c 2.26011,2.03771 5.16095,3.39347 8.12612,3.79789 4.41069,0.60159 4.36785,0.57616 4.36785,2.59288 0,5.23313 -2.41909,13.27458 -5.6577,18.8071 -2.56469,4.38125 -7.86457,9.94065 -12.13796,12.73231 -8.24541,5.38645 -20.74354,8.53778 -33.78918,8.51974 -3.64799,-0.005 -4.5533,-0.18064 -6.41371,-1.24405 z"
       id="path4300"
       inkscape:connector-curvature="0"
       transform="translate(0,796.36216)" />
    <path
       style="fill:#ffffff;fill-opacity:1;stroke:none;stroke-width:10;stroke-linecap:round;stroke-miterlimit:4;stroke-dasharray:none;stroke-opacity:1"
       d="m 86.603245,182.98823 -1.847946,-1.74283 0.313398,-3.89965 c 0.172368,-2.14481 0.452802,-5.63081 0.623187,-7.74666 l 0.309789,-3.84701 4.107914,2.67768 c 2.259353,1.47272 6.069493,3.71378 8.466977,4.98013 l 4.359066,2.30247 -2.53636,2.06323 c -3.234627,2.63125 -9.032522,6.23804 -10.678818,6.64315 -1.019619,0.2509 -1.632722,-0.0305 -3.117207,-1.43051 z"
       id="path4302"
       inkscape:connector-curvature="0"
       transform="translate(0,796.36216)" />
    <path
       style="fill:#ffffff;fill-opacity:1;stroke:none;stroke-width:10;stroke-linecap:round;stroke-miterlimit:4;stroke-dasharray:none;stroke-opacity:1"
       d="m 67.896613,214.08646 c -2.002873,-8.5581 -2.66575,-13.91421 -2.70628,-21.86703 -0.03452,-6.7732 0.108654,-8.31626 1.085843,-11.70286 1.692921,-5.86708 3.845669,-9.8566 7.151868,-13.25401 3.245036,-3.33455 5.356838,-4.27323 6.401041,-2.84519 1.207826,1.6518 1.786038,6.19242 1.51024,11.85971 l -0.268285,5.51289 1.502679,1.71146 c 0.826473,0.9413 2.795249,2.70607 4.375058,3.9217 l 2.872379,2.21025 -3.890549,2.66171 c -5.117993,3.50146 -10.128473,8.82431 -12.092374,12.84625 -0.851219,1.74323 -2.137196,5.25409 -2.857726,7.8019 -0.720531,2.54781 -1.482072,4.81769 -1.692314,5.04418 -0.210241,0.22648 -0.836452,-1.52895 -1.39158,-3.90096 z"
       id="path4304"
       inkscape:connector-curvature="0"
       transform="translate(0,796.36216)" />
    <path
       style="fill:#ffffff;fill-opacity:1;stroke:none;stroke-width:10;stroke-linecap:round;stroke-miterlimit:4;stroke-dasharray:none;stroke-opacity:1"
       d="m 164.79916,175.01479 c -1.69971,-1.58547 -1.93493,-2.02832 -1.50453,-2.83253 0.86362,-1.61369 2.00388,-6.60358 2.47858,-10.84654 0.24873,-2.2232 0.56575,-4.1557 0.7045,-4.29444 0.13874,-0.13875 2.19127,-0.67032 4.56118,-1.18127 6.3568,-1.37053 11.17141,-3.25087 13.184,-5.14898 l 1.74677,-1.64741 -0.28113,-5.24115 c -0.34256,-6.38644 -2.2035,-13.58781 -7.21376,-27.91542 -2.88907,-8.26174 -3.49541,-10.52154 -3.49451,-13.02391 0.001,-4.076595 1.67794,-7.6267 3.7114,-7.859254 4.35485,-0.498039 9.49813,5.599554 11.33878,13.442614 1.13114,4.81987 0.7054,22.13784 -0.73083,29.72741 -2.70743,14.30713 -8.5336,26.16601 -16.76754,34.12953 -5.07469,4.90801 -5.27994,4.97945 -7.73291,2.69135 z"
       id="path4306"
       inkscape:connector-curvature="0"
       transform="translate(0,796.36216)" />
    <path
       style="fill:#ffffff;fill-opacity:1;stroke:none;stroke-width:10;stroke-linecap:round;stroke-miterlimit:4;stroke-dasharray:none;stroke-opacity:1"
       d="m 140.23924,111.10164 c -1.83748,-1.13151 -5.59865,-5.15035 -7.17488,-7.66642 -1.78525,-2.84972 -2.82131,-6.367785 -2.82131,-9.580059 0,-3.48119 0.76145,-4.402366 5.67252,-6.862379 4.57445,-2.291393 13.13134,-5.405252 13.96965,-5.083562 0.37691,0.144634 0.93385,1.500646 1.23765,3.01336 1.08252,5.390269 2.81939,7.534013 7.52399,9.286532 1.2739,0.474545 2.31619,0.951454 2.31619,1.059798 0,0.573618 -2.29342,4.605588 -3.78252,6.6499 -3.11704,4.27922 -11.30374,10.08964 -14.21011,10.08546 -0.69758,-0.001 -1.92661,-0.40719 -2.73118,-0.90263 z"
       id="path4308"
       inkscape:connector-curvature="0"
       transform="translate(0,796.36216)" />
    <path
       style="fill:#ffffff;fill-opacity:1;stroke:none;stroke-width:10;stroke-linecap:round;stroke-miterlimit:4;stroke-dasharray:none;stroke-opacity:1"
       d="m 158.23459,91.073687 c -2.71239,-1.216001 -4.31026,-3.851596 -4.29753,-7.088502 0.005,-1.350405 0.28465,-2.958632 0.62073,-3.57384 0.76761,-1.405121 8.37293,-7.461704 8.93418,-7.114835 0.22843,0.141183 0.98427,1.379437 1.67964,2.751677 2.41642,4.768569 2.0097,10.683093 -0.94648,13.763957 -1.98706,2.07087 -3.4827,2.385837 -5.99054,1.261543 z"
       id="path4310"
       inkscape:connector-curvature="0"
       transform="translate(0,796.36216)" />
    <path
       style="fill:#ffffff;fill-opacity:1;stroke:none;stroke-width:10;stroke-linecap:round;stroke-miterlimit:4;stroke-dasharray:none;stroke-opacity:1"
       d="m 130.73067,85.613121 c 0,-2.795562 1.79029,-10.144656 2.92642,-12.01287 1.41307,-2.323605 4.26909,-4.161331 13.4102,-8.628876 7.07947,-3.459962 8.81836,-4.540373 11.9008,-7.394236 l 3.6099,-3.342212 -0.36044,1.944631 c -1.39806,7.54273 -7.34076,18.450806 -12.06601,22.147666 -0.71661,0.560652 -4.17814,2.208336 -7.69228,3.661519 -3.51414,1.453183 -7.48426,3.315856 -8.82249,4.139275 -1.33822,0.823418 -2.53955,1.497124 -2.66962,1.497124 -0.13007,0 -0.23648,-0.90541 -0.23648,-2.012021 z"
       id="path4312"
       inkscape:connector-curvature="0"
       transform="translate(0,796.36216)" />
    <path
       style="fill:#ffffff;fill-opacity:1;stroke:none;stroke-width:10;stroke-linecap:round;stroke-miterlimit:4;stroke-dasharray:none;stroke-opacity:1"
       d="m 159.98378,67.510856 c 3.39144,-7.244799 4.54269,-11.577044 6.70575,-25.234287 0.26443,-1.669599 0.29467,-1.632531 1.3921,1.706667 1.93595,5.890603 1.48169,11.895449 -1.33238,17.612441 -1.3679,2.778997 -7.29808,9.938036 -8.23216,9.938036 -0.22907,0 0.43094,-1.810286 1.46669,-4.022857 z"
       id="path4314"
       inkscape:connector-curvature="0"
       transform="translate(0,796.36216)" />
  </g>
</svg>
