<?xml version="1.0" encoding="UTF-8" standalone="no"?>
<!-- Created with Inkscape (http://www.inkscape.org/) -->

<svg
   xmlns:dc="http://purl.org/dc/elements/1.1/"
   xmlns:cc="http://creativecommons.org/ns#"
   xmlns:rdf="http://www.w3.org/1999/02/22-rdf-syntax-ns#"
   xmlns:svg="http://www.w3.org/2000/svg"
   xmlns="http://www.w3.org/2000/svg"
   xmlns:xlink="http://www.w3.org/1999/xlink"
   xmlns:sodipodi="http://sodipodi.sourceforge.net/DTD/sodipodi-0.dtd"
   xmlns:inkscape="http://www.inkscape.org/namespaces/inkscape"
   sodipodi:docname="josm.svg"
   inkscape:version="0.92+devel unknown"
   version="1.1"
   id="svg2"
   viewBox="0 0 256 256"
   height="256"
   width="256">
  <sodipodi:namedview
     inkscape:window-maximized="1"
     inkscape:window-y="0"
     inkscape:window-x="0"
     inkscape:window-height="1054"
     inkscape:window-width="1920"
     units="px"
     showgrid="true"
     inkscape:current-layer="layer1"
     inkscape:document-units="px"
     inkscape:cy="128"
     inkscape:cx="128"
     inkscape:zoom="3.3007812"
     inkscape:pageshadow="2"
     inkscape:pageopacity="0.0"
     borderopacity="1.0"
     bordercolor="#666666"
     pagecolor="#ffffff"
     id="base"
     inkscape:document-rotation="0">
    <inkscape:grid
       type="xygrid"
       id="grid4168"
       spacingx="5"
       spacingy="5" />
  </sodipodi:namedview>
  <defs
     id="defs4">
    <clipPath
       clipPathUnits="userSpaceOnUse"
       id="clipPath5002">
      <g
         id="g5004">
        <path
           transform="translate(0,796.36216)"
           inkscape:connector-curvature="0"
           id="path5006"
           d="M 88.118406,249.43519 C 46.103287,235.29134 14.771284,201.68742 4.1335861,159.36053 1.3377997,148.23623 0.92261224,144.16281 0.92582381,127.88908 0.92787958,117.47222 1.134384,112.01362 1.6577819,108.54099 4.4653598,89.913336 12.17654,70.638106 23.042737,55.086148 c 3.958678,-5.665755 8.344812,-10.93092 9.101533,-10.925587 0.32809,0.0023 10.488643,18.309713 22.579009,40.683112 12.090365,22.373397 22.374546,41.334697 22.853732,42.136217 0.479186,0.80151 0.924733,2.44098 0.990103,3.64326 0.343424,6.31639 2.524175,14.20976 5.6424,20.42304 2.954444,5.88693 5.065381,8.73258 10.434696,14.06652 6.71418,6.66995 12.88853,10.28643 21.73204,12.72904 3.16587,0.87442 5.10478,1.05037 11.57517,1.05037 8.82596,0 12.60219,-0.76201 19.26429,-3.88733 2.04584,-0.95974 3.93661,-1.66536 4.20172,-1.56805 0.2651,0.0973 -11.0555,17.66459 -25.1569,39.0384 l -25.6389,38.86148 -3.094121,0.11221 c -2.554618,0.0927 -4.195204,-0.25845 -9.409103,-2.01364 z"
           style="fill:#0f9d58;fill-opacity:1;stroke:none;stroke-width:4.85768509;stroke-linejoin:round;stroke-miterlimit:4;stroke-dasharray:none;stroke-opacity:1" />
        <path
           inkscape:connector-curvature="0"
           id="path5008"
           d="m 112.35984,1051.5167 c -10.0014,-1.4495 -12.15632,-1.8201 -12.531784,-2.1556 -0.248854,-0.2223 1.738304,-3.7475 4.550294,-8.0722 7.16635,-11.0213 49.77231,-74.64801 50.25856,-75.05489 3.57509,-2.99158 8.63523,-8.0414 10.57512,-10.55356 3.36154,-4.35318 7.55784,-12.9141 9.06523,-18.494 6.19314,-22.92535 -2.59253,-47.15185 -21.69967,-59.83688 l -2.96081,-1.96565 17.02469,0.29584 c 9.36358,0.1627 31.17032,0.43384 48.45941,0.60252 l 31.43471,0.30668 1.54584,4.18869 c 2.24597,6.08579 4.67816,15.0947 5.93451,21.9816 1.52517,8.36049 1.92536,28.85896 0.73851,37.82758 -3.0805,23.27845 -12.81326,45.72018 -27.80202,64.10577 -20.47622,25.1166 -51.4599,42.1974 -84.14612,46.3885 -5.31244,0.6812 -26.64601,0.9864 -30.44647,0.4356 z"
           style="fill:#f4b400;fill-opacity:1;stroke:none;stroke-width:4.85768509;stroke-linejoin:round;stroke-miterlimit:4;stroke-dasharray:none;stroke-opacity:1" />
        <path
           transform="translate(0,796.36216)"
           inkscape:connector-curvature="0"
           id="path5010"
           d="M 67.989788,108.87302 C 41.284246,59.575543 33.290284,45.149038 32.233625,44.344765 31.651257,43.901497 32.811213,42.549931 38.695603,36.815353 53.43581,22.450419 68.809334,13.040746 87.839196,6.7360352 101.68742,2.1480329 112.58238,0.43719165 127.95142,0.43719165 c 21.3099,0 37.80488,3.80960275 56.83492,13.12633035 25.29351,12.383198 46.19421,33.578863 58.51993,59.345832 1.61138,3.368591 2.92978,6.372442 2.92978,6.675231 0,0.560033 -10.54865,0.49527 -71.16508,-0.436914 l -24.28843,-0.373518 -3.93063,-1.764495 c -6.75732,-3.033425 -10.64587,-3.839529 -18.6576,-3.867747 -5.0296,-0.01773 -7.97946,0.207636 -10.31642,0.788106 -14.50826,3.603659 -26.283291,12.94777 -33.291614,26.418653 -3.58502,6.89086 -5.24713,13.08166 -6.331628,23.58317 l -0.33738,3.26696 -9.92748,-18.32578 z"
           style="fill:#db4437;fill-opacity:1;stroke:none;stroke-width:10;stroke-linejoin:round;stroke-miterlimit:4;stroke-dasharray:none;stroke-opacity:1" />
      </g>
    </clipPath>
    <clipPath
       id="clipPath4271"
       clipPathUnits="userSpaceOnUse">
      <circle
         r="128"
         cy="128.00002"
         cx="128"
         id="circle4273"
         style="fill:#292929;fill-opacity:0.26020412;stroke:none;stroke-width:10;stroke-linejoin:round;stroke-miterlimit:4;stroke-dasharray:none;stroke-opacity:0.25882353" />
    </clipPath>
    <clipPath
       clipPathUnits="userSpaceOnUse"
       id="clipPath4363">
      <circle
         r="128"
         cy="924.36218"
         cx="128"
         id="circle4365"
         style="fill:#4285f4;fill-opacity:1;stroke:none;stroke-width:10;stroke-linejoin:round;stroke-miterlimit:4;stroke-dasharray:none;stroke-opacity:0.25882353" />
    </clipPath>
    <clipPath
       id="clipPath4452"
       clipPathUnits="userSpaceOnUse">
      <circle
         r="128"
         cy="924.36218"
         cx="128"
         id="circle4454"
         style="fill:#4285f4;fill-opacity:1;stroke:none;stroke-width:10;stroke-linejoin:round;stroke-miterlimit:4;stroke-dasharray:none;stroke-opacity:0.25882353" />
    </clipPath>
    <clipPath
       clipPathUnits="userSpaceOnUse"
       id="clipPath5177">
      <circle
         r="128"
         cy="924.36218"
         cx="128"
         id="circle5179"
         style="fill:#4285f4;fill-opacity:1;stroke:none;stroke-width:10;stroke-linejoin:round;stroke-miterlimit:4;stroke-dasharray:none;stroke-opacity:0.25882353" />
    </clipPath>
    <clipPath
       id="clipPath4342"
       clipPathUnits="userSpaceOnUse">
      <circle
         r="128"
         cy="933.48718"
         cx="128"
         id="circle4344"
         style="fill:#4285f4;fill-opacity:1;stroke:none;stroke-width:10;stroke-linejoin:round;stroke-miterlimit:4;stroke-dasharray:none;stroke-opacity:0.25882353" />
    </clipPath>
    <clipPath
       clipPathUnits="userSpaceOnUse"
       id="clipPath4681">
      <circle
         r="128"
         cy="930.43964"
         cx="127.00293"
         id="circle4683"
         style="fill:#9d5fad;fill-opacity:1;stroke:none;stroke-width:10;stroke-linejoin:round;stroke-miterlimit:4;stroke-dasharray:none;stroke-opacity:0.25882353" />
    </clipPath>
    <clipPath
       clipPathUnits="userSpaceOnUse"
       id="clipPath4893">
      <circle
         r="128"
         cy="924.36218"
         cx="128"
         id="circle4895"
         style="opacity:1;fill:#0f9d58;fill-opacity:1;stroke:none;stroke-width:0.1;stroke-linecap:round;stroke-linejoin:round;stroke-miterlimit:4;stroke-dasharray:none;stroke-opacity:1" />
    </clipPath>
    <clipPath
       clipPathUnits="userSpaceOnUse"
       id="clipPath4780">
      <circle
         r="128"
         cy="924.36218"
         cx="128"
         id="circle4782"
         style="opacity:1;fill:#0f9d58;fill-opacity:1;stroke:none;stroke-width:0.1;stroke-linecap:round;stroke-linejoin:round;stroke-miterlimit:4;stroke-dasharray:none;stroke-opacity:1" />
    </clipPath>
    <clipPath
       id="clipPath4306"
       clipPathUnits="userSpaceOnUse">
      <circle
         r="128"
         cy="917.04791"
         cx="130.92572"
         id="circle4308"
         style="opacity:1;fill:#0f9d58;fill-opacity:1;stroke:none;stroke-width:0.1;stroke-linecap:round;stroke-linejoin:round;stroke-miterlimit:4;stroke-dasharray:none;stroke-opacity:1" />
    </clipPath>
    <clipPath
       id="clipPath4204"
       clipPathUnits="userSpaceOnUse">
      <circle
         r="128"
         cy="924.36218"
         cx="128"
         id="circle4206"
         style="opacity:1;fill:#0f9d58;fill-opacity:1;stroke:none;stroke-width:0.1;stroke-linecap:round;stroke-linejoin:round;stroke-miterlimit:4;stroke-dasharray:none;stroke-opacity:1" />
    </clipPath>
    <clipPath
       id="m">
      <use
         id="use60"
         xlink:href="#r"
         x="0"
         y="0"
         width="100%"
         height="100%" />
    </clipPath>
    <clipPath
       id="m-3">
      <use
         id="use60-6"
         xlink:href="#r"
         x="0"
         y="0"
         width="100%"
         height="100%" />
    </clipPath>
    <clipPath
       id="m-7">
      <use
         id="use60-5"
         xlink:href="#r" />
    </clipPath>
    <clipPath
       id="m-5">
      <use
         id="use60-62"
         xlink:href="#r" />
    </clipPath>
    <clipPath
       clipPathUnits="userSpaceOnUse"
       id="clipPath3690">
      <circle
         r="128"
         cy="869.36218"
         cx="128"
         id="circle3692"
         style="opacity:1;fill:#ffefbb;fill-opacity:0.99215686;stroke:none;stroke-width:0.1;stroke-linecap:round;stroke-linejoin:round;stroke-miterlimit:4;stroke-dasharray:none;stroke-opacity:1" />
    </clipPath>
    <clipPath
       clipPathUnits="userSpaceOnUse"
       id="clipPath4510">
      <circle
         r="128"
         cy="924.36218"
         cx="128"
         id="circle4512"
         style="opacity:1;fill:#ffe289;fill-opacity:1;stroke:none;stroke-width:0.1;stroke-linecap:round;stroke-linejoin:round;stroke-miterlimit:4;stroke-dasharray:none;stroke-opacity:1" />
    </clipPath>
    <clipPath
       clipPathUnits="userSpaceOnUse"
       id="clipPath4518">
      <circle
         r="128"
         cy="924.36218"
         cx="128"
         id="circle4520"
         style="opacity:1;fill:#ffe289;fill-opacity:1;stroke:none;stroke-width:0.1;stroke-linecap:round;stroke-linejoin:round;stroke-miterlimit:4;stroke-dasharray:none;stroke-opacity:1" />
    </clipPath>
  </defs>
  <metadata
     id="metadata7">
    <rdf:RDF>
      <cc:Work
         rdf:about="">
        <dc:format>image/svg+xml</dc:format>
        <dc:type
           rdf:resource="http://purl.org/dc/dcmitype/StillImage" />
        <dc:title />
      </cc:Work>
    </rdf:RDF>
  </metadata>
  <g
     transform="translate(0,-796.36216)"
     id="layer1"
     inkscape:groupmode="layer"
     inkscape:label="Layer 1">
    <path
       inkscape:connector-curvature="0"
       id="path4913"
       d="M 154.47438,968.80998 101.03985,1048.476 0.4857685,1048.9618 0,842.0244 l 33.032258,-2.42884 45.176471,83.55218 21.373814,35.4611 26.717267,13.11575 z"
       style="fill:none;fill-rule:evenodd;stroke:none;stroke-width:1px;stroke-linecap:butt;stroke-linejoin:miter;stroke-opacity:1" />
    <text
       id="text4914"
       y="927.36218"
       x="120"
       style="font-style:normal;font-weight:normal;line-height:0%;font-family:sans-serif;letter-spacing:0px;word-spacing:0px;fill:#000000;fill-opacity:1;stroke:none;stroke-width:1px;stroke-linecap:butt;stroke-linejoin:miter;stroke-opacity:1"
       xml:space="preserve"><tspan
         style="font-size:40px;line-height:1.25"
         y="927.36218"
         x="120"
         id="tspan4916"
         sodipodi:role="line"> </tspan></text>
    <circle
       style="opacity:1;fill:#ffe289;fill-opacity:1;stroke:none;stroke-width:0.1;stroke-linecap:round;stroke-linejoin:round;stroke-miterlimit:4;stroke-dasharray:none;stroke-opacity:1"
       id="path4856"
       cx="128"
       cy="924.36218"
       r="128" />
    <path
       fill="#646464"
       d="m 65,825 100,-70 20,-3 175,-12 85,-55 5,25 -90,55 -180,12 -10,3 -100,70 z m 102,-60 17,-1 5,-173 -36,-199 -15,5 34,195 z"
       clip-path="url(#m-3)"
       id="path234"
       inkscape:connector-curvature="0"
       style="stroke:#000000"
       transform="translate(-322.5,427.36216)" />
    <g
       id="g4425"
       transform="translate(-3e-6,55)"
       clip-path="url(#clipPath3690)"
       style="fill:#e5c258;fill-opacity:1">
      <g
         id="g3607"
         transform="translate(3e-6,741.36216)"
         style="fill:#e5c258;fill-opacity:1;stroke:none">
        <g
           id="g3604"
           style="opacity:1;fill:#e5c258;fill-opacity:1;stroke:none;stroke-width:0.12701671;stroke-linecap:round;stroke-linejoin:round;stroke-miterlimit:4;stroke-dasharray:none;stroke-opacity:1">
          <path
             id="path3576"
             d="M95.0 61.0L73.634766 81.662109L-67.7865902373 223.083465237L-46.4213562373 202.421356237Z"
             style="fill:#e5c258;fill-opacity:1;stroke:none" />
          <path
             id="path3578"
             d="M73.634766 81.662109L155.27539 168.16016L13.8540337627 309.581516237L-67.7865902373 223.083465237Z"
             style="fill:#e5c258;fill-opacity:1;stroke:none" />
          <path
             id="path3580"
             d="M155.27539 168.16016L155.26953 168.16602L13.8481737627 309.587376237L13.8540337627 309.581516237Z"
             style="fill:#e5c258;fill-opacity:1;stroke:none" />
          <path
             id="path3582"
             d="M155.26953 168.16602L155.28711 168.17383L13.8657537627 309.595186237L13.8481737627 309.587376237Z"
             style="fill:#e5c258;fill-opacity:1;stroke:none" />
          <path
             id="path3584"
             d="M155.28711 168.17383L155.60742 168.51367L14.1860637627 309.935026237L13.8657537627 309.595186237Z"
             style="fill:#e5c258;fill-opacity:1;stroke:none" />
          <path
             id="path3586"
             d="M155.60742 168.51367L155.74023 168.38477L14.3188737627 309.806126237L14.1860637627 309.935026237Z"
             style="fill:#e5c258;fill-opacity:1;stroke:none" />
          <path
             id="path3588"
             d="M155.74023 168.38477L177.96875 178.74414L36.5473937627 320.165496237L14.3188737627 309.806126237Z"
             style="fill:#e5c258;fill-opacity:1;stroke:none" />
          <path
             id="path3590"
             d="M177.96875 178.74414L177.9668 178.74609L36.5454437627 320.167446237L36.5473937627 320.165496237Z"
             style="fill:#e5c258;fill-opacity:1;stroke:none" />
          <path
             id="path3592"
             d="M177.9668 178.74609L192.4082 185.47656L50.9868437627 326.897916237L36.5454437627 320.167446237Z"
             style="fill:#e5c258;fill-opacity:1;stroke:none" />
          <path
             id="path3594"
             d="M192.4082 185.47656L186.31836 170.75391L44.8970037627 312.175266237L50.9868437627 326.897916237Z"
             style="fill:#e5c258;fill-opacity:1;stroke:none" />
          <path
             id="path3596"
             d="M186.31836 170.75391L186.31641 170.75586L44.8950537627 312.177216237L44.8970037627 312.175266237Z"
             style="fill:#e5c258;fill-opacity:1;stroke:none" />
          <path
             id="path3598"
             d="M186.31641 170.75586L176.88086 147.93945L35.4595037627 289.360806237L44.8950537627 312.177216237Z"
             style="fill:#e5c258;fill-opacity:1;stroke:none" />
          <path
             id="path3600"
             d="M176.88086 147.93945L176.97266 147.85156L35.5513037627 289.272916237L35.4595037627 289.360806237Z"
             style="fill:#e5c258;fill-opacity:1;stroke:none" />
          <path
             id="path3602"
             d="M176.97266 147.85156L95.0 61.0L-46.4213562373 202.421356237L35.5513037627 289.272916237Z"
             style="fill:#e5c258;fill-opacity:1;stroke:none" />
        </g>
        <path
           id="path4419"
           d="M 95 61 L 73.634766 81.662109 L 155.27539 168.16016 L 155.26953 168.16602 L 155.28711 168.17383 L 155.60742 168.51367 L 155.74023 168.38477 L 177.96875 178.74414 L 177.9668 178.74609 L 192.4082 185.47656 L 186.31836 170.75391 L 186.31641 170.75586 L 176.88086 147.93945 L 176.97266 147.85156 L 95 61 z "
           style="opacity:1;fill:#e5c258;fill-opacity:1;stroke:none;stroke-width:0.12701671;stroke-linecap:round;stroke-linejoin:round;stroke-miterlimit:4;stroke-dasharray:none;stroke-opacity:1"
           transform="" />
      </g>
    </g>
    <g
       transform="matrix(0.75000001,0,0,0.75000001,199.25,112.23904)"
       id="g4412">
      <path
         inkscape:connector-curvature="0"
         fill="#5c8b9f"
         stroke="#002f42"
         d="m -140.58824,1179.1856 82.352938,-5.8822 38.2353,-23.5294 v -55.8824 l -38.2353,23.5294 -82.352938,8.8234 z"
         id="path89"
         style="stroke-width:0.58823532" />
      <path
         inkscape:connector-curvature="0"
         fill="#de8f8f"
         stroke="#420000"
         d="m -25.882362,1046.8328 -8.82352,-43.5296 -23.52942,17.059 -35.294119,8.8234 -14.705879,-73.52936 -61.7647,14.706 23.52942,124.99996 88.235278,-22.059 z"
         id="path91"
         style="stroke-width:0.58823532" />
      <path
         style="fill:none;stroke:#000000;stroke-width:5;stroke-linecap:butt;stroke-linejoin:miter;stroke-miterlimit:4;stroke-dasharray:none;stroke-opacity:1"
         d="m -185,982.36216 20,115.00004 v 105"
         id="path4399"
         inkscape:connector-curvature="0" />
      <path
         style="fill:none;stroke:#000000;stroke-width:5;stroke-linecap:butt;stroke-linejoin:miter;stroke-miterlimit:4;stroke-dasharray:none;stroke-opacity:1"
         d="m -165,1197.3622 110,-10 50,-25"
         id="path4401"
         inkscape:connector-curvature="0" />
      <g
         transform="matrix(0.58823529,0,0,0.58823529,-270,749.77392)"
         stroke="#fff"
         stroke-linejoin="round"
         stroke-linecap="round"
         stroke-width="8"
         id="g248">
        <circle
           cx="175.5"
           cy="765.5"
           r="13.5"
           id="circle240" />
        <circle
           cx="450"
           cy="695.5"
           r="13.5"
           id="circle242" />
        <circle
           cx="145"
           cy="395.5"
           r="13.5"
           id="circle244" />
        <circle
           cx="180"
           cy="591.5"
           r="13.5"
           id="circle246" />
      </g>
    </g>
    <path
       transform="translate(-59,809.86216)"
       fill="#646464"
       d="m 65,825 100,-70 20,-3 175,-12 85,-55 5,25 -90,55 -180,12 -10,3 -100,70 z m 102,-60 17,-1 5,-173 -36,-199 -15,5 34,195 z"
       clip-path="url(#m-7)"
       id="path234-3"
       inkscape:connector-curvature="0"
       style="stroke:#000000" />
    <path
       transform="translate(-59,809.86216)"
       fill="#646464"
       d="m 65,825 100,-70 20,-3 175,-12 85,-55 5,25 -90,55 -180,12 -10,3 -100,70 z m 102,-60 17,-1 5,-173 -36,-199 -15,5 34,195 z"
       clip-path="url(#m-5)"
       id="path234-9"
       inkscape:connector-curvature="0"
       style="stroke:#000000" />
    <g
       transform="translate(-3e-6,55)"
       id="g4417">
      <path
         inkscape:connector-curvature="0"
         style="opacity:1;fill:#853909;fill-opacity:1;stroke:#454545;stroke-width:0.12701671;stroke-linecap:round;stroke-linejoin:round;stroke-miterlimit:4;stroke-dasharray:none;stroke-opacity:1"
         d="m 73.635394,823.02475 21.364609,-20.66259 81.972217,86.85176 -21.3646,20.6626 z"
         id="path4520" />
      <path
         style="fill:#cda99a;fill-opacity:1;fill-rule:evenodd;stroke:#000000;stroke-width:0.01712804;stroke-linecap:butt;stroke-linejoin:round;stroke-miterlimit:4;stroke-dasharray:none;stroke-opacity:1"
         d="m 155.26946,909.52901 37.13475,17.30523 -15.65745,-37.859 z"
         id="path4524"
         inkscape:connector-curvature="0" />
      <path
         inkscape:connector-curvature="0"
         id="path4526"
         d="m 177.96734,920.1086 14.44045,6.72942 -6.08867,-14.72211 z"
         style="fill:#393939;fill-opacity:1;fill-rule:evenodd;stroke:#000000;stroke-width:0.00666053;stroke-linecap:butt;stroke-linejoin:round;stroke-miterlimit:4;stroke-dasharray:none;stroke-opacity:1" />
    </g>
    <path
       style="fill:#3172e1;fill-opacity:1;stroke:none;stroke-width:15;stroke-miterlimit:4;stroke-dasharray:none"
       id="path4505"
       d="m 218.34096,802.94493 c -0.0607,0.90621 0.12544,1.80024 0.20379,2.69755 0.0436,0.49965 0.0502,1.00184 0.0766,1.5027 0.0181,0.903 0.0407,1.81596 -0.19065,2.69901 -0.22195,0.84725 -0.65862,1.62647 -1.05262,2.4011 -0.5891,1.13593 -1.21824,2.25076 -1.8054,3.38951 -0.66482,0.96066 -1.26102,1.9706 -1.84651,2.98222 -0.17764,0.34761 -0.49678,1.01284 -0.73966,1.33466 -0.15988,0.21185 -0.37793,0.37524 -0.53816,0.58682 -0.51081,0.67449 -0.90518,1.49937 -1.32373,2.23122 -0.65715,1.48473 -1.3467,2.95388 -2.01297,4.43339 -0.66853,1.39066 -1.40524,2.74131 -2.18639,4.07306 -0.64237,1.20227 -1.205,2.46624 -1.54184,3.7919 -0.19961,0.78563 -0.25624,1.35755 -0.36672,2.15681 -0.15557,2.0031 0.41783,3.67278 1.31691,5.42118 0.81898,1.25822 1.50268,2.59533 2.28544,3.87468 0.1342,0.19863 0.2825,0.38844 0.40261,0.59591 0.13927,0.24056 0.24292,0.5002 0.3739,0.74537 0.4977,0.93159 1.01293,1.82278 1.42193,2.79946 0.12858,0.25314 0.26958,0.50034 0.38572,0.75942 0.38328,0.85497 0.70394,1.73579 1.12785,2.57411 1.45977,2.8868 -0.73401,-1.65349 0.78265,1.51586 0.86124,1.49819 1.73897,2.9884 2.71549,4.41577 1.02555,1.21261 1.93797,2.51149 2.87573,3.79403 0.86314,1.10602 2.00986,1.89768 3.17217,2.65241 0.41124,0.21515 0.85566,0.382 1.29998,0.51675 0.1268,0.0385 0.26338,0.0425 0.38735,0.0893 0.15894,0.06 0.30363,0.15245 0.45544,0.22867 0.16577,0.0565 0.33154,0.113 0.49731,0.1695 1.27551,0.34674 2.55917,0.66941 3.83089,1.03871 0.26642,0.0554 0.53097,0.12064 0.79924,0.1662 1.32738,0.22547 0.37001,-0.0139 1.69348,0.27327 0.83521,0.18124 1.63956,0.34998 2.48864,0.46053 1.67323,0.37037 3.3897,0.37457 5.09259,0.43811 1.20046,0.0168 2.39972,0.0556 3.60054,0.0572 0.3249,4.3e-4 0.65087,-0.0282 0.9747,-0.002 0.35293,0.0287 0.69943,0.11095 1.04915,0.16642 2.24081,0.60838 4.46598,1.29136 6.74029,1.7694 1.03915,0.31604 2.16586,0.38584 3.15694,0.86135 0.24486,0.11748 0.99282,0.60314 1.23939,0.76032 1.1008,0.80784 2.32408,1.45434 3.32975,2.3944 0.29672,0.27737 0.556,0.59226 0.834,0.88839 0.34755,0.41571 0.67781,0.84651 1.04265,1.24712 0.39121,0.42957 0.83054,0.81348 1.22363,1.24134 0.41524,0.45197 0.79208,0.93795 1.19993,1.39661 0.37446,0.42111 0.77512,0.81856 1.14664,1.24228 0.93184,1.06278 1.10607,1.34379 1.93811,2.46421 0.35397,0.57699 1.20956,1.93184 1.5057,2.56614 0.22127,0.47392 0.37405,0.97692 0.56747,1.46287 0.51716,1.29935 1.01984,2.60042 1.51426,3.90878 0.97745,2.57453 1.74741,5.21953 2.36564,7.9009 0.55102,2.29143 1.10615,4.59694 1.35911,6.94249 0.21595,2.58865 0.77084,5.13402 0.98275,7.72077 0.17179,2.34422 0.30372,4.6937 0.37256,7.04328 0.0634,1.75588 0.14127,3.50792 0.12129,5.26516 -0.0473,1.87146 -0.0896,3.74552 -0.0619,5.6175 0.0373,1.8531 0.008,3.70594 -0.006,5.55891 -0.1856,2.69961 -0.85403,5.31833 -1.48212,7.93896 -0.32972,0.85752 -0.51396,1.76456 -0.83196,2.62592 -0.16536,0.44788 -0.37617,0.87771 -0.55494,1.32041 -0.30006,0.74308 -0.54662,1.50767 -0.86428,2.2434 -0.16351,0.37872 -0.35502,0.74473 -0.53253,1.1171 -1.08443,2.23695 -2.46909,4.31981 -3.84026,6.38989 -1.18156,1.70158 -2.39731,3.37862 -3.60833,5.05945 -0.85723,0.93694 -1.50117,2.03764 -2.24642,3.05981 -0.35511,0.48705 -0.73181,0.958 -1.09337,1.44028 -0.91886,1.08463 -1.55754,2.35976 -2.38494,3.50859 -0.10529,0.14619 -1.11891,1.46949 -1.25238,1.64399 -1.08445,1.39718 -2.0908,2.85048 -3.08902,4.30951 -1.04243,1.35657 -2.22297,2.59301 -3.34235,3.8818 -0.99214,1.22306 -1.80707,2.57137 -2.77459,3.8113 -0.16493,0.20724 -0.3211,0.42176 -0.49479,0.62172 -0.19615,0.22581 -0.42031,0.42646 -0.6138,0.65455 -0.67803,0.79929 -1.23777,1.73278 -1.72839,2.65438 -0.58114,1.28767 -0.96725,2.64275 -1.34252,4 -0.10965,0.52259 -0.42625,0.97021 -0.61531,1.45795 -0.13469,0.34751 -0.14217,0.60243 -0.19446,0.98151 -0.25815,0.86247 -0.66864,1.66257 -1.11217,2.44203 -0.15855,0.21898 -0.19351,0.50554 -0.34156,0.7296 -0.059,0.089 -0.16553,0.1402 -0.22498,0.2293 -0.1875,0.2809 -0.47323,0.861 -0.62514,1.1771 -0.34467,0.6496 -0.72842,1.2706 -1.05927,1.9296 -0.13016,0.3909 -0.33783,0.7532 -0.47489,1.1411 -0.0694,0.1964 -0.0966,0.4078 -0.18168,0.598 -0.10072,0.2252 -0.25877,0.4205 -0.37197,0.6396 -0.12207,0.2363 -0.22202,0.4834 -0.33303,0.7251 -0.69481,1.6254 -0.92677,3.3528 -1.03063,5.0993 -0.001,1.0651 0.056,2.1207 -0.065,3.1808 -0.17948,1.288 0.26717,2.4886 0.71632,3.6674 0.38224,1.0964 0.80844,2.1731 1.386,3.1815 0.46712,0.9311 1.07071,1.7767 1.76816,2.5466 0.5467,0.7696 1.37465,1.2703 1.99796,1.9647 0.20148,0.2244 0.3735,0.4737 0.56025,0.7106 0.20414,0.2221 0.40827,0.4442 0.6124,0.6663 0.20176,0.2022 0.40351,0.4044 0.60526,0.6066 0,0 -25.00496,15.2213 -25.00496,15.2213 v 0 c -0.18332,-0.2064 -0.36664,-0.4129 -0.54996,-0.6193 -1.19342,-1.2032 -0.0142,-0.061 -1.26481,-1.1411 -0.7614,-0.6577 -1.40667,-1.4441 -2.20472,-2.0623 -0.89774,-0.9491 -1.60396,-2.0214 -2.1514,-3.21 -0.58603,-1.1815 -1.25339,-2.3283 -1.63391,-3.6018 -0.44011,-1.4934 -0.80576,-3.0016 -1.17776,-4.5125 -0.1432,-1.1717 -0.0164,-2.3346 0.13798,-3.5013 0.21063,-1.8919 0.48329,-3.7794 0.80617,-5.6553 0.0798,-0.4998 0.0873,-1.0171 0.24154,-1.4992 0.0414,-0.1294 0.16466,-0.2198 0.21594,-0.3456 0.15969,-0.3916 0.14508,-0.8594 0.35673,-1.2375 0.23343,-0.8079 0.49328,-1.5989 0.91816,-2.3256 0.55856,-0.886 -0.11862,0.2251 0.40529,-0.7647 0.0586,-0.1107 0.15317,-0.2014 0.20241,-0.3166 0.0605,-0.1415 0.0553,-0.3069 0.12325,-0.445 0.11064,-0.2249 0.38547,-0.343 0.45331,-0.5999 0.38501,-0.7286 0.81515,-1.4328 1.28334,-2.1082 0.0786,-0.073 0.18685,-0.1243 0.23581,-0.2201 0.0949,-0.1854 0.10891,-0.7506 0.14203,-0.9222 0.0999,-0.5171 0.34346,-0.9975 0.58735,-1.4578 0.77691,-1.269 1.06581,-2.7304 1.61439,-4.1033 0.16942,-0.5118 0.39401,-1.2393 0.62139,-1.7312 0.10483,-0.2267 0.75428,-1.35843 0.86898,-1.56414 0.14144,-0.25365 0.25604,-0.52354 0.41927,-0.76375 0.13803,-0.20311 0.31981,-0.37276 0.47972,-0.55914 0.48658,-0.6004 1.06601,-1.14022 1.52654,-1.75902 0.48298,-0.64897 0.83061,-1.40139 1.36622,-2.01514 0.22903,-0.34783 0.71624,-1.10894 0.98274,-1.42795 0.74189,-0.88805 1.67342,-1.62095 2.35431,-2.56588 0.65602,-0.66931 1.02596,-1.22095 1.56439,-1.98068 0.83266,-1.1749 0.25879,-0.33551 1.14861,-1.51334 0.20534,-0.2718 0.40051,-0.55114 0.60077,-0.82672 1.25332,-1.63187 2.67678,-3.14029 3.60519,-4.99664 0.1315,-0.20369 0.86317,-1.34467 1.00831,-1.53884 0.77358,-1.03492 1.68253,-1.98102 2.28676,-3.14399 1.39371,-1.59168 2.59201,-3.32457 3.87065,-5.007 0.49646,-0.64874 1.01071,-1.28407 1.49437,-1.94241 0.9522,-1.29611 1.74562,-2.70079 2.56849,-4.07988 0.035,-0.0637 1.10768,-2.01277 1.12917,-2.05558 0.55048,-1.09648 0.56419,-1.28166 1.05621,-2.4012 0.17334,-0.39443 0.37807,-0.775 0.54104,-1.17383 0.16524,-0.40436 0.29511,-0.82229 0.44267,-1.23343 0.75113,-2.2725 1.29224,-4.62382 1.428,-7.02029 -0.0143,-1.85117 -0.0435,-3.7022 -0.006,-5.5535 0.0277,-1.85344 -0.0115,-3.70892 -0.0552,-5.56195 -0.0153,-1.78971 0.0752,-3.57372 0.12237,-5.36257 0.0364,-2.3176 0.11663,-4.63541 -0.0543,-6.95122 -0.22615,-2.51837 -0.40761,-5.04713 -0.95992,-7.52203 -0.45127,-2.27394 -0.70151,-4.5863 -1.1463,-6.86296 -0.14629,-0.75838 -0.32487,-1.75991 -0.52841,-2.50297 -0.11909,-0.43472 -0.28435,-0.85567 -0.41037,-1.28843 -0.36659,-1.259 -0.62699,-2.55357 -1.17109,-3.75625 -0.16371,-0.43577 -0.33745,-0.8679 -0.49114,-1.30731 -0.36069,-1.03126 -0.45424,-1.53928 -0.87112,-2.55687 -0.49417,-1.20621 -1.09822,-2.38191 -1.7581,-3.5041 -1.72993,-2.59687 -3.58717,-5.20117 -6.39428,-6.72286 -1.49751,-0.85788 -2.95738,-1.77843 -4.5267,-2.50773 -1.13222,-0.53382 -2.37373,-0.82022 -3.53415,-1.28853 -2.09754,-0.65991 -4.25725,-1.299 -6.47098,-1.31299 -1.91529,0.0405 -3.83625,0.025 -5.74955,-0.0573 -1.76464,-0.11434 -3.49426,-0.47206 -5.24255,-0.71998 -1.73957,-0.32945 -3.47401,-0.68405 -5.20197,-1.07085 -1.4333,-0.3181 -2.89543,-0.58882 -4.2606,-1.14043 -0.36854,-0.1517 -0.75603,-0.25616 -1.11986,-0.41883 -0.70149,-0.31365 -1.29486,-0.83745 -1.87999,-1.32055 -1.24857,-1.03655 -2.38667,-2.18206 -3.37025,-3.47803 -1.04792,-1.27541 -2.08367,-2.56678 -2.9526,-3.97321 -1.00725,-1.51187 -1.98901,-3.0497 -2.7924,-4.68149 -0.17227,-0.27991 -0.36058,-0.55055 -0.5168,-0.83972 -0.71127,-1.3166 -1.16416,-2.76211 -1.91639,-4.05947 -0.75476,-1.26442 -1.4519,-2.5634 -2.16939,-3.84941 -0.85006,-1.358 -1.63588,-2.75451 -2.22911,-4.24686 -1.00368,-2.14884 -1.78434,-4.44231 -1.73666,-6.84353 -0.0116,-0.44402 -0.0536,-0.88828 -0.0348,-1.33206 0.0172,-0.40784 0.0929,-0.81112 0.14236,-1.21632 0.17795,-1.45665 0.4601,-2.88524 0.96572,-4.26832 0.2908,-0.78132 0.30343,-0.9016 0.69189,-1.62017 0.2911,-0.53846 0.44321,-0.65677 0.69003,-1.20937 0.0942,-0.211 0.14465,-0.43973 0.238,-0.65113 0.0919,-0.20815 0.21107,-0.40317 0.3166,-0.60476 1.07465,-1.80854 -0.36125,0.64456 0.71047,-1.31437 0.56244,-1.02806 1.15654,-2.04102 1.62132,-3.12137 0.28855,-0.79061 0.31939,-0.93109 0.6695,-1.67855 0.11871,-0.25342 0.2668,-0.4929 0.37699,-0.75014 0.11179,-0.26098 0.14717,-0.55499 0.28772,-0.80167 0.20659,-0.36257 0.63745,-0.56085 0.84224,-0.92622 0.27057,-0.53494 0.52617,-1.0813 0.80461,-1.61182 0.54235,-1.03337 0.0372,-0.003 0.60507,-1.00333 0.0998,-0.17571 0.18216,-0.3607 0.27324,-0.54105 0.82517,-1.0355 1.39834,-2.21929 2.1251,-3.31831 0.38228,-0.63542 0.43711,-0.74196 0.84345,-1.35678 0.23625,-0.35746 0.53606,-0.67606 0.72948,-1.05839 0.20228,-0.39988 0.23166,-0.74584 0.30842,-1.17756 -0.0514,-1.12228 -0.0449,-2.45075 -0.51186,-3.47896 0,0 26.38148,-14.20827 26.38148,-14.20827 z"
       inkscape:connector-curvature="0"
       clip-path="url(#clipPath4510)" />
    <path
       style="fill:#009600;stroke:none;stroke-width:1px;stroke-linecap:butt;stroke-linejoin:miter;stroke-opacity:1;fill-opacity:1"
       d="m -5,837.36216 c 1.2917622,0.53103 2.6052609,1.01199 3.8752866,1.59309 1.43737006,0.65767 2.812855,1.44413 4.2414201,2.12071 0.4933752,0.23367 1.0466747,0.33729 1.5205991,0.60824 0.9506518,0.54351 1.793835,1.25972 2.7326461,1.82343 1.7182332,1.03172 2.0890319,0.89304 3.9384611,1.81775 0.127739,0.0639 0.172452,0.24496 0.302959,0.30296 0.80789,0.30296 1.615779,0.60592 2.423669,0.90888 0.201972,0 0.412462,-0.058 0.605917,0 8.290755,2.48722 -0.626274,-0.18185 3.332544,1.51479 0.863453,0.37005 2.194259,0.35532 3.029586,0.60592 0.432577,0.12977 0.783386,0.4631 1.211834,0.60591 0.182485,0.0608 2.345962,0.39616 3.029586,0.90888 0.228506,0.17138 0.368257,0.44747 0.605917,0.60592 0.08403,0.056 0.212634,-0.0452 0.302959,0 0.127738,0.0639 0.201972,0.20197 0.302958,0.30295 0.201973,0.20198 0.478179,0.35044 0.605918,0.60592 0.09032,0.18065 -0.0223,0.40518 0,0.60592 0.07886,0.70971 0.248191,1.40873 0.302958,2.12071 0.04647,0.60413 0,1.21183 0,1.81775 0,1.21183 0,2.42367 0,3.6355 0,1.81775 0,3.63551 0,5.45326 0,0.40394 -0.0702,0.81403 0,1.21183 0.234145,1.32682 0.460459,2.66795 0.908876,3.93846 0.168051,0.47615 0.638124,0.78563 0.908876,1.21184 0.44446,0.69964 0.806297,1.44881 1.232831,2.15953 0.195888,0.3264 0.463264,0.60971 0.633469,0.95021 0.149513,0.29911 0.168316,0.6523 0.317233,0.9517 0.163076,0.32787 0.421736,0.59953 0.610411,0.91337 0.360372,0.59944 0.347688,0.95361 0.908876,1.5148 0.35704,0.35704 0.817549,0.59344 1.211834,0.90887 0.897422,0.71794 1.352148,1.85897 2.007461,2.80309 0.255847,0.3686 0.503397,0.74446 0.788212,1.09117 0.181309,0.22071 0.487722,0.34589 0.605917,0.60592 1.065913,1.09446 0.665492,2.67823 1.211834,3.93846 1.099269,2.53565 2.305157,5.02384 3.484024,7.52347 0.638967,1.35485 1.242966,2.72932 1.969231,4.03944 0.138485,0.24982 0.489928,0.3449 0.605917,0.60592 0.298742,0.67229 0.34804,1.43327 0.606324,2.12212 0.05014,0.13372 0.249918,0.17035 0.302959,0.30296 0.154638,0.38659 0.156759,0.82196 0.302958,1.21183 0.251306,0.67015 0.814836,1.36839 0.908876,2.12071 0.06263,0.50103 -0.05576,1.01295 0,1.51479 0.04598,0.41383 0.234507,0.80113 0.302958,1.21184 0.13385,0.8031 0.179158,1.61896 0.302959,2.42367 0.0783,0.50894 0.246094,1.00301 0.302959,1.51479 0.04461,0.40147 -0.03355,0.80928 0,1.21183 0.06761,0.81137 0.235345,1.61231 0.302958,2.42367 0.03355,0.40255 -0.02687,0.80879 0,1.21184 0.0742,1.11295 0.217409,2.2204 0.302959,3.33254 0.01549,0.20138 0,0.40395 0,0.60592 0,0.80789 0,1.61578 0,2.42367 0,1.21183 0,2.42366 0,3.6355 0,2.04532 0.176387,2.58862 -0.605917,4.54438 -0.135228,0.33807 -0.431562,0.58922 -0.605918,0.90887 -0.432522,0.79296 -0.747117,1.64914 -1.211834,2.42367 -0.146956,0.24493 -0.447477,0.36826 -0.605917,0.60592 -0.451624,0.67744 -0.825833,1.40385 -1.211834,2.12071 -0.321173,0.59646 -0.523273,1.26077 -0.908876,1.81775 -0.529961,0.7655 -1.270136,1.36774 -1.817752,2.12071 -0.265632,0.36525 -0.381848,0.81972 -0.605917,1.21184 -0.584298,1.02252 -1.164486,2.04968 -1.817751,3.02958 -0.15844,0.23766 -0.424989,0.3849 -0.605917,0.60592 -0.731875,0.89405 -1.424477,1.81958 -2.129152,2.73522 -0.313037,0.40676 -0.595271,0.83756 -0.923881,1.23185 -0.18622,0.22343 -0.422517,0.40074 -0.617021,0.61701 -0.735047,0.81728 -1.435477,1.66526 -2.170599,2.48247 -0.196139,0.21804 -0.383785,0.45126 -0.622143,0.62213 -0.480636,0.34456 -1.028651,0.58577 -1.520609,0.91396 -1.196283,0.79805 -1.34636,1.19036 -2.726627,1.81775 -0.581444,0.2643 -1.246487,0.32029 -1.817751,0.60592 -1.612119,-0.68168 -1.366454,1.08379 -2.12071,1.51479 -1.672311,0.95561 -1.850795,0.91989 -3.635503,1.5148 -0.908876,0.30296 -1.787193,0.72099 -2.726627,0.90887 -0.594151,0.11883 -1.220079,-0.0996 -1.817752,0 -5.060116,0.84336 0.65812,0.38206 -3.029586,0.90888 -2.5913014,0.37018 1.125056,-0.58225 -2.12071,0.30296 -5.7915513,1.57951 0.03789,-0.0114 -3.0295856,0.90887 -0.7041849,0.21126 -1.4165252,0.39466 -2.1207101,0.60592 -0.3058783,0.0918 -0.5927389,0.2578 -0.9088757,0.30296 -0.6997986,0.1 -1.4209115,-0.1 -2.1207101,0 -0.4121919,0.0589 -0.7986729,0.25131 -1.2118343,0.30296 -0.40082545,0.0501 -0.80788954,0 -1.21183431,0 -0.80788955,0 -1.61577909,0 -2.42366869,0 -0.6059171,0 -1.2118343,0 -1.8177514,0 -0.3029586,0 -0.621464,0.0958 -0.9088758,0 -1.2454509,-0.41515 -2.4119481,-1.03897 -3.6355029,-1.5148 -0.5952647,-0.23149 -1.2291101,-0.35806 -1.8177511,-0.60591 -1.332595,-0.5611 -2.581686,-1.31796 -3.938462,-1.81775 -0.576881,-0.21251 -1.258891,-0.0503 -1.819235,-0.3032 -1.127682,-0.50898 -2.05494,-1.39115 -3.161377,-1.94479 -0.921455,-0.46108 -1.937404,-0.70326 -2.894309,-1.08537 -2.062779,-0.8237 -3.884836,-1.76165 -5.873886,-2.75548 -0.949458,-0.47439 -2.108472,-1.01101 -2.950925,-1.64249 -0.358462,-0.26869 -0.633553,-0.63354 -0.950328,-0.95031 -0.409808,-0.40981 -0.819613,-0.81962 -1.229419,-1.22942 -1.110849,-1.11085 -2.221697,-2.2217 -3.332545,-3.33255 -0.403945,-0.40394 -0.84006,-0.77809 -1.211834,-1.21183 -0.841639,-0.98191 -1.588301,-2.04233 -2.423669,-3.02959 -1.91517,-2.26338 -0.0082,0.90512 -3.031393,-3.334 -0.398949,-0.55941 -0.59871,-1.23729 -0.921833,-1.84366 -0.506521,-0.95053 -1.038935,-1.88707 -1.566564,-2.82605 -1.194873,-2.12643 -2.610863,-4.45558 -3.625037,-6.60688 -0.592819,-1.25751 -0.671576,-2.17868 -1.032003,-3.44015 -0.329861,-1.15447 -0.655454,-2.31102 -1.034958,-3.45014 -0.194324,-0.58329 -0.546345,-1.11354 -0.684999,-1.7125 -0.204194,-0.8821 -0.05036,-1.83609 -0.335392,-2.69547 -0.175151,-0.5281 -0.865006,-0.79594 -1.001484,-1.33532 -0.214447,-0.84753 0.09697,-1.75388 0,-2.62273 -0.124867,-1.11879 -0.517035,-2.19531 -0.662329,-3.31164 -0.37779,-2.90265 -0.335114,-3.66242 -0.335114,-6.01948 0,-1.09487 0.0641,-2.19162 0,-3.28461 -0.04509,-0.76889 -0.267416,-1.51948 -0.326771,-2.28739 -0.04984,-0.64482 0.04957,-1.29538 0,-1.94022 -0.05833,-0.7588 -0.278633,-1.50041 -0.322883,-2.26016 -0.06364,-1.09269 0,-2.18909 0,-3.28364 0,-1.90318 0,-3.80636 0,-5.70955 0,-1.54057 0,-3.08115 0,-4.62173 0,-0.31782 -0.05195,-0.63992 0,-0.95347 0.05338,-0.32221 0.264787,-0.60566 0.311872,-0.92885 0.05824,-0.39972 -0.06641,-0.81338 0,-1.21183 0.136903,-0.82142 0.418664,-1.61224 0.605917,-2.42367 0.115787,-0.50174 0.122154,-1.03265 0.302958,-1.51479 1.662697,-4.43386 0.983521,-1.98571 2.12071,-4.54438 0.347648,-0.78221 1.333147,-3.43894 1.514793,-3.93846 0.109135,-0.30012 0.160143,-0.62325 0.302959,-0.90888 1.334823,-2.66965 0.915287,-1.39531 2.12071,-3.6355 0.429885,-0.79891 0.758934,-1.65128 1.216337,-2.43477 0.259247,-0.44406 0.661012,-0.79315 0.925559,-1.23407 0.355051,-0.59178 0.560833,-1.26611 0.925883,-1.85177 0.15117,-0.24253 0.418042,-0.39116 0.606232,-0.60623 0.519386,-0.59358 1.030561,-1.19517 1.514793,-1.81775 0.223542,-0.28741 0.364015,-0.63674 0.605917,-0.90888 0.569291,-0.64045 1.211834,-1.21183 1.817751,-1.81775 0.201973,-0.20197 0.382876,-0.42749 0.605917,-0.60592 0.284323,-0.22746 0.605917,-0.40394 0.908876,-0.60592 0.403945,-0.30295 0.81755,-0.59344 1.211834,-0.90887 0.111521,-0.0892 0.17522,-0.23909 0.302959,-0.30296 0.09032,-0.0452 0.212634,0.0452 0.302959,0 0.127738,-0.0639 0.184128,-0.22374 0.302958,-0.30296 0.489949,-0.32663 1.03563,-0.56661 1.514793,-0.90887 1.055551,-0.75397 0.213727,-0.80399 1.817751,-1.5148 0.475323,-0.21063 1.031444,-0.15648 1.52942,-0.30588 0.525923,-0.15777 0.996851,-0.47814 1.529424,-0.61177 0.293851,-0.0737 0.613131,0.0657 0.908876,0 0.623483,-0.13855 1.211834,-0.40394 1.817751,-0.60591 0.302959,-0.10099 0.635039,-0.13866 0.908876,-0.30296 0.244927,-0.14696 0.35044,-0.47818 0.605917,-0.60592 0.372419,-0.18621 0.816825,-0.17129 1.211834,-0.30296 0.642673,-0.21422 1.17508,-0.69465 1.817752,-0.90887 0.191608,-0.0639 0.407867,0.0396 0.605917,0 0.608384,0.0695 0.987203,-0.47402 1.514793,-0.60592 0.293913,-0.0735 0.621464,0.0958 0.908876,0 0.768424,-0.25614 1.352242,-1.01972 2.12071,-1.21184 0.471281,-0.11781 1.038234,0.0953 1.514793,0 0.626289,-0.12525 1.198128,-0.45101 1.817751,-0.60591 0.09797,-0.0245 0.204988,0.0245 0.302959,0 0.309811,-0.0774 0.59573,-0.24033 0.908875,-0.30296 0.198051,-0.0396 0.403945,0 0.605918,0 0.403944,0 0.807889,0 1.211834,0 1.211834,0 2.4236685,0 3.6355028,0 0.5046197,0 1.0092394,0 1.5138591,0 0.094628,0 0.1892566,0 0.283885,0 0.087941,0 0.1944696,0.0541 0.2638221,0 0.3837043,-0.29916 0.69616,-0.67991 1.04424,-1.01986 z"
       id="path4514"
       inkscape:connector-curvature="0"
       clip-path="url(#clipPath4518)" />
  </g>
</svg>
