<?xml version="1.0" encoding="UTF-8" standalone="no"?>
<!-- Created with Inkscape (http://www.inkscape.org/) -->

<svg
   xmlns:dc="http://purl.org/dc/elements/1.1/"
   xmlns:cc="http://creativecommons.org/ns#"
   xmlns:rdf="http://www.w3.org/1999/02/22-rdf-syntax-ns#"
   xmlns:svg="http://www.w3.org/2000/svg"
   xmlns="http://www.w3.org/2000/svg"
   xmlns:sodipodi="http://sodipodi.sourceforge.net/DTD/sodipodi-0.dtd"
   xmlns:inkscape="http://www.inkscape.org/namespaces/inkscape"
   width="256"
   height="256"
   viewBox="0 0 256 256"
   id="svg2"
   version="1.1"
   inkscape:version="0.92pre3 r"
   sodipodi:docname="kdenlive.svg">
  <sodipodi:namedview
     id="base"
     pagecolor="#ffffff"
     bordercolor="#666666"
     borderopacity="1.0"
     inkscape:pageopacity="0.0"
     inkscape:pageshadow="2"
     inkscape:zoom="3.3359375"
     inkscape:cx="75.540984"
     inkscape:cy="128"
     inkscape:document-units="px"
     inkscape:current-layer="layer1"
     showgrid="false"
     units="px"
     inkscape:window-width="1920"
     inkscape:window-height="1054"
     inkscape:window-x="0"
     inkscape:window-y="0"
     inkscape:window-maximized="1" />
  <defs
     id="defs4">
    <linearGradient
       id="linearGradient3931">
      <stop
         style="stop-color:#202020;stop-opacity:1;"
         offset="0"
         id="stop3933" />
      <stop
         style="stop-color:#1a1a1a;stop-opacity:1;"
         offset="1"
         id="stop3935" />
    </linearGradient>
    <clipPath
       id="clipPath5160"
       clipPathUnits="userSpaceOnUse">
      <circle
         r="128"
         cy="924.36218"
         cx="128"
         id="circle5162"
         style="fill:#a24c4c;fill-opacity:1;stroke:none;stroke-width:30;stroke-miterlimit:4;stroke-dasharray:none;stroke-opacity:1" />
    </clipPath>
    <clipPath
       clipPathUnits="userSpaceOnUse"
       id="clipPath4878">
      <circle
         r="120.24246"
         cy="924.36218"
         cx="128"
         id="circle4880"
         style="fill:#f38577;fill-opacity:1;stroke:none;stroke-width:28.18182755;stroke-miterlimit:4;stroke-dasharray:none;stroke-opacity:1" />
    </clipPath>
  </defs>
  <metadata
     id="metadata7">
    <rdf:RDF>
      <cc:Work
         rdf:about="">
        <dc:format>image/svg+xml</dc:format>
        <dc:type
           rdf:resource="http://purl.org/dc/dcmitype/StillImage" />
        <dc:title />
      </cc:Work>
    </rdf:RDF>
  </metadata>
  <g
     inkscape:label="Layer 1"
     inkscape:groupmode="layer"
     id="layer1"
     transform="translate(0,-796.36216)">
    <circle
       style="fill:#83b9f5;fill-opacity:1;stroke:none;stroke-width:30;stroke-miterlimit:4;stroke-dasharray:none;stroke-opacity:1"
       id="path4136"
       cx="128"
       cy="924.36218"
       r="128" />
    <g
       id="g4535"
       transform="matrix(1.0645158,0,0,1.0645158,-8.2580224,-59.63598)"
       clip-path="url(#clipPath4878)"
       style="fill:#527eb2;fill-opacity:1">
      <g
         id="g4751"
         transform="matrix(0.93939423,0,0,0.93939423,7.7575386,804.11971)"
         style="fill:#527eb2;fill-opacity:1">
        <g
           id="g4748"
           style="fill:#527eb2;fill-opacity:1;stroke-width:1.06451583">
          <path
             id="path4560"
             d="M111.26758 45.5L119.76562 58.363281L-21.6557362373 199.784637237L-30.1537762373 186.921356237Z"
             style="fill:#527eb2;fill-opacity:1" />
          <path
             id="path4562"
             d="M119.76562 58.363281L128.26562 71.228516L-13.1557362373 212.649872237L-21.6557362373 199.784637237Z"
             style="fill:#527eb2;fill-opacity:1" />
          <path
             id="path4564"
             d="M128.26562 71.228516L128.26562 140.86328L-13.1557362373 282.284636237L-13.1557362373 212.649872237Z"
             style="fill:#527eb2;fill-opacity:1" />
          <path
             id="path4566"
             d="M128.26562 140.86328L128.26562 210.5L-13.1557362373 351.921356237L-13.1557362373 282.284636237Z"
             style="fill:#527eb2;fill-opacity:1" />
          <path
             id="path4568"
             d="M128.26562 210.5L130.92773 210.5L-10.4936262373 351.921356237L-13.1557362373 351.921356237Z"
             style="fill:#527eb2;fill-opacity:1" />
          <path
             id="path4570"
             d="M130.92773 210.5L133.58789 210.5L-7.83346623731 351.921356237L-10.4936262373 351.921356237Z"
             style="fill:#527eb2;fill-opacity:1" />
          <path
             id="path4572"
             d="M133.58789 210.5L133.58789 140.96289L-7.83346623731 282.384246237L-7.83346623731 351.921356237Z"
             style="fill:#527eb2;fill-opacity:1" />
          <path
             id="path4574"
             d="M133.58789 140.96289L133.58789 71.427734L-7.83346623731 212.849090237L-7.83346623731 282.384246237Z"
             style="fill:#527eb2;fill-opacity:1" />
          <path
             id="path4576"
             d="M133.58789 71.427734L142.06641 58.462891L0.645053762691 199.884247237L-7.83346623731 212.849090237Z"
             style="fill:#527eb2;fill-opacity:1" />
          <path
             id="path4578"
             d="M142.06641 58.462891L150.54492 45.5L9.12356376269 186.921356237L0.645053762691 199.884247237Z"
             style="fill:#527eb2;fill-opacity:1" />
          <path
             id="path4580"
             d="M150.54492 45.5L130.90625 45.5L-10.5151062373 186.921356237L9.12356376269 186.921356237Z"
             style="fill:#527eb2;fill-opacity:1" />
          <path
             id="path4582"
             d="M130.90625 45.5L111.26758 45.5L-30.1537762373 186.921356237L-10.5151062373 186.921356237Z"
             style="fill:#527eb2;fill-opacity:1" />
          <path
             id="path4584"
             d="M150.52734 69.957031C150.498653213 69.953355295 150.479385135 69.9562201344 150.469852899 69.9657523706L9.04849666165 211.387108608C9.05802889786 211.377576372 9.07729697522 211.374711532 9.10598376269 211.378387237Z"
             style="fill:#527eb2;fill-opacity:1" />
          <path
             id="path4586"
             d="M150.469852899 69.9657523706C150.465223079 69.970382191 150.46289 69.9765848892 150.46289 69.984375L9.04153376269 211.405731237C9.04153376269 211.397941127 9.04386684128 211.391738428 9.04849666165 211.387108608Z"
             style="fill:#527eb2;fill-opacity:1" />
          <path
             id="path4588"
             d="M150.46289 69.984375L150.46289 132.54102L9.04153376269 273.962376237L9.04153376269 211.405731237Z"
             style="fill:#527eb2;fill-opacity:1" />
          <path
             id="path4590"
             d="M150.46289 132.54102L150.46289 194.60156L9.04153376269 336.022916237L9.04153376269 273.962376237Z"
             style="fill:#527eb2;fill-opacity:1" />
          <path
             id="path4592"
             d="M150.46289 194.60156L150.46289 196.64258L9.04153376269 338.063936237L9.04153376269 336.022916237Z"
             style="fill:#527eb2;fill-opacity:1" />
          <path
             id="path4594"
             d="M150.46289 196.64258L195.33008 166.03906L53.9087237627 307.460416237L9.04153376269 338.063936237Z"
             style="fill:#527eb2;fill-opacity:1" />
          <path
             id="path4596"
             d="M195.33008 166.03906C219.656353166 149.445950336 230.66784887 140.721510229 234.98602351 136.403335589L93.5646672726 277.824691826C89.2464926327 282.142866466 78.2349969291 290.867306573 53.9087237627 307.460416237Z"
             style="fill:#527eb2;fill-opacity:1" />
          <path
             id="path4598"
             d="M234.98602351 136.403335589C236.725573127 134.663785972 237.37891 133.639298677 237.37891 133.10352L95.9575537627 274.524876237C95.9575537627 275.060654914 95.3042168894 276.085142209 93.5646672726 277.824691826Z"
             style="fill:#527eb2;fill-opacity:1" />
          <path
             id="path4600"
             d="M237.37891 133.10352C237.37891 131.23789 228.78911 124.50705 195.59961 100.36914L54.1782537627 241.790496237C87.3677537627 265.928406237 95.9575537627 272.659246237 95.9575537627 274.524876237Z"
             style="fill:#527eb2;fill-opacity:1" />
          <path
             id="path4602"
             d="M195.59961 100.36914C173.33885 84.179438 151.84875 70.12634 150.52734 69.957031L9.10598376269 211.378387237C10.4273937627 211.547696237 31.9174937627 225.600794237 54.1782537627 241.790496237Z"
             style="fill:#527eb2;fill-opacity:1" />
          <path
             id="path4604"
             d="M100.58789 69.984375L100.58789 74.242188L-40.8334662373 215.663544237L-40.8334662373 211.405731237Z"
             style="fill:#527eb2;fill-opacity:1" />
          <path
             id="path4606"
             d="M100.58789 74.242188L100.58789 78.5L-40.8334662373 219.921356237L-40.8334662373 215.663544237Z"
             style="fill:#527eb2;fill-opacity:1" />
          <path
             id="path4608"
             d="M100.58789 78.5L106.44336 78.5L-34.9779962373 219.921356237L-40.8334662373 219.921356237Z"
             style="fill:#527eb2;fill-opacity:1" />
          <path
             id="path4610"
             d="M106.44336 78.5L112.29883 78.5L-29.1225262373 219.921356237L-34.9779962373 219.921356237Z"
             style="fill:#527eb2;fill-opacity:1" />
          <path
             id="path4612"
             d="M112.29883 78.5L112.29883 74.242188L-29.1225262373 215.663544237L-29.1225262373 219.921356237Z"
             style="fill:#527eb2;fill-opacity:1" />
          <path
             id="path4614"
             d="M112.29883 74.242188L112.29883 69.984375L-29.1225262373 211.405731237L-29.1225262373 215.663544237Z"
             style="fill:#527eb2;fill-opacity:1" />
          <path
             id="path4616"
             d="M112.29883 69.984375L106.44336 69.984375L-34.9779962373 211.405731237L-29.1225262373 211.405731237Z"
             style="fill:#527eb2;fill-opacity:1" />
          <path
             id="path4618"
             d="M106.44336 69.984375L100.58789 69.984375L-40.8334662373 211.405731237L-34.9779962373 211.405731237Z"
             style="fill:#527eb2;fill-opacity:1" />
          <path
             id="path4620"
             d="M91.007812 84.886719L91.007812 89.144531L-50.4135442373 230.565887237L-50.4135442373 226.308075237Z"
             style="fill:#527eb2;fill-opacity:1" />
          <path
             id="path4622"
             d="M91.007812 89.144531L91.007812 93.402344L-50.4135442373 234.823700237L-50.4135442373 230.565887237Z"
             style="fill:#527eb2;fill-opacity:1" />
          <path
             id="path4624"
             d="M91.007812 93.402344L101.65234 93.402344L-39.7690162373 234.823700237L-50.4135442373 234.823700237Z"
             style="fill:#527eb2;fill-opacity:1" />
          <path
             id="path4626"
             d="M101.65234 93.402344L112.29883 93.402344L-29.1225262373 234.823700237L-39.7690162373 234.823700237Z"
             style="fill:#527eb2;fill-opacity:1" />
          <path
             id="path4628"
             d="M112.29883 93.402344L112.29883 89.144531L-29.1225262373 230.565887237L-29.1225262373 234.823700237Z"
             style="fill:#527eb2;fill-opacity:1" />
          <path
             id="path4630"
             d="M112.29883 89.144531L112.29883 84.886719L-29.1225262373 226.308075237L-29.1225262373 230.565887237Z"
             style="fill:#527eb2;fill-opacity:1" />
          <path
             id="path4632"
             d="M112.29883 84.886719L101.65234 84.886719L-39.7690162373 226.308075237L-29.1225262373 226.308075237Z"
             style="fill:#527eb2;fill-opacity:1" />
          <path
             id="path4634"
             d="M101.65234 84.886719L91.007812 84.886719L-50.4135442373 226.308075237L-39.7690162373 226.308075237Z"
             style="fill:#527eb2;fill-opacity:1" />
          <path
             id="path4636"
             d="M64.394531 99.791016L64.394531 104.04883L-77.0268252373 245.470186237L-77.0268252373 241.212372237Z"
             style="fill:#527eb2;fill-opacity:1" />
          <path
             id="path4638"
             d="M64.394531 104.04883L64.394531 108.30664L-77.0268252373 249.727996237L-77.0268252373 245.470186237Z"
             style="fill:#527eb2;fill-opacity:1" />
          <path
             id="path4640"
             d="M64.394531 108.30664L88.347656 108.30664L-53.0737002373 249.727996237L-77.0268252373 249.727996237Z"
             style="fill:#527eb2;fill-opacity:1" />
          <path
             id="path4642"
             d="M88.347656 108.30664L112.29883 108.30664L-29.1225262373 249.727996237L-53.0737002373 249.727996237Z"
             style="fill:#527eb2;fill-opacity:1" />
          <path
             id="path4644"
             d="M112.29883 108.30664L112.29883 104.04883L-29.1225262373 245.470186237L-29.1225262373 249.727996237Z"
             style="fill:#527eb2;fill-opacity:1" />
          <path
             id="path4646"
             d="M112.29883 104.04883L112.29883 99.791016L-29.1225262373 241.212372237L-29.1225262373 245.470186237Z"
             style="fill:#527eb2;fill-opacity:1" />
          <path
             id="path4648"
             d="M112.29883 99.791016L88.347656 99.791016L-53.0737002373 241.212372237L-29.1225262373 241.212372237Z"
             style="fill:#527eb2;fill-opacity:1" />
          <path
             id="path4650"
             d="M88.347656 99.791016L64.394531 99.791016L-77.0268252373 241.212372237L-53.0737002373 241.212372237Z"
             style="fill:#527eb2;fill-opacity:1" />
          <path
             id="path4652"
             d="M36.716797 114.69336L36.716797 118.95117L-104.704559237 260.372526237L-104.704559237 256.114716237Z"
             style="fill:#527eb2;fill-opacity:1" />
          <path
             id="path4654"
             d="M36.716797 118.95117L36.716797 123.20898L-104.704559237 264.630336237L-104.704559237 260.372526237Z"
             style="fill:#527eb2;fill-opacity:1" />
          <path
             id="path4656"
             d="M36.716797 123.20898L74.507812 123.20898L-66.9135442373 264.630336237L-104.704559237 264.630336237Z"
             style="fill:#527eb2;fill-opacity:1" />
          <path
             id="path4658"
             d="M74.507812 123.20898L112.29883 123.20898L-29.1225262373 264.630336237L-66.9135442373 264.630336237Z"
             style="fill:#527eb2;fill-opacity:1" />
          <path
             id="path4660"
             d="M112.29883 123.20898L112.29883 118.95117L-29.1225262373 260.372526237L-29.1225262373 264.630336237Z"
             style="fill:#527eb2;fill-opacity:1" />
          <path
             id="path4662"
             d="M112.29883 118.95117L112.29883 114.69336L-29.1225262373 256.114716237L-29.1225262373 260.372526237Z"
             style="fill:#527eb2;fill-opacity:1" />
          <path
             id="path4664"
             d="M112.29883 114.69336L74.507812 114.69336L-66.9135442373 256.114716237L-29.1225262373 256.114716237Z"
             style="fill:#527eb2;fill-opacity:1" />
          <path
             id="path4666"
             d="M74.507812 114.69336L36.716797 114.69336L-104.704559237 256.114716237L-66.9135442373 256.114716237Z"
             style="fill:#527eb2;fill-opacity:1" />
          <path
             id="path4668"
             d="M18.621094 129.59766L18.621094 133.32227L-122.800262237 274.743626237L-122.800262237 271.019016237Z"
             style="fill:#527eb2;fill-opacity:1" />
          <path
             id="path4670"
             d="M18.621094 133.32227L18.621094 137.04883L-122.800262237 278.470186237L-122.800262237 274.743626237Z"
             style="fill:#527eb2;fill-opacity:1" />
          <path
             id="path4672"
             d="M18.621094 137.04883L65.458984 137.04883L-75.9623722373 278.470186237L-122.800262237 278.470186237Z"
             style="fill:#527eb2;fill-opacity:1" />
          <path
             id="path4674"
             d="M65.458984 137.04883L112.29883 137.04883L-29.1225262373 278.470186237L-75.9623722373 278.470186237Z"
             style="fill:#527eb2;fill-opacity:1" />
          <path
             id="path4676"
             d="M112.29883 137.04883L112.29883 133.32227L-29.1225262373 274.743626237L-29.1225262373 278.470186237Z"
             style="fill:#527eb2;fill-opacity:1" />
          <path
             id="path4678"
             d="M112.29883 133.32227L112.29883 129.59766L-29.1225262373 271.019016237L-29.1225262373 274.743626237Z"
             style="fill:#527eb2;fill-opacity:1" />
          <path
             id="path4680"
             d="M112.29883 129.59766L65.458984 129.59766L-75.9623722373 271.019016237L-29.1225262373 271.019016237Z"
             style="fill:#527eb2;fill-opacity:1" />
          <path
             id="path4682"
             d="M65.458984 129.59766L18.621094 129.59766L-122.800262237 271.019016237L-75.9623722373 271.019016237Z"
             style="fill:#527eb2;fill-opacity:1" />
          <path
             id="path4684"
             d="M48.427734 144.5L48.427734 148.22656L-92.9936222373 289.647916237L-92.9936222373 285.921356237Z"
             style="fill:#527eb2;fill-opacity:1" />
          <path
             id="path4686"
             d="M48.427734 148.22656L48.427734 151.95117L-92.9936222373 293.372526237L-92.9936222373 289.647916237Z"
             style="fill:#527eb2;fill-opacity:1" />
          <path
             id="path4688"
             d="M48.427734 151.95117L80.363281 151.95117L-61.0580752373 293.372526237L-92.9936222373 293.372526237Z"
             style="fill:#527eb2;fill-opacity:1" />
          <path
             id="path4690"
             d="M80.363281 151.95117L112.29883 151.95117L-29.1225262373 293.372526237L-61.0580752373 293.372526237Z"
             style="fill:#527eb2;fill-opacity:1" />
          <path
             id="path4692"
             d="M112.29883 151.95117L112.29883 148.22656L-29.1225262373 289.647916237L-29.1225262373 293.372526237Z"
             style="fill:#527eb2;fill-opacity:1" />
          <path
             id="path4694"
             d="M112.29883 148.22656L112.29883 144.5L-29.1225262373 285.921356237L-29.1225262373 289.647916237Z"
             style="fill:#527eb2;fill-opacity:1" />
          <path
             id="path4696"
             d="M112.29883 144.5L80.363281 144.5L-61.0580752373 285.921356237L-29.1225262373 285.921356237Z"
             style="fill:#527eb2;fill-opacity:1" />
          <path
             id="path4698"
             d="M80.363281 144.5L48.427734 144.5L-92.9936222373 285.921356237L-61.0580752373 285.921356237Z"
             style="fill:#527eb2;fill-opacity:1" />
          <path
             id="path4700"
             d="M75.041016 158.33789L75.041016 162.59766L-66.3803402373 304.019016237L-66.3803402373 299.759246237Z"
             style="fill:#527eb2;fill-opacity:1" />
          <path
             id="path4702"
             d="M75.041016 162.59766L75.041016 166.85547L-66.3803402373 308.276826237L-66.3803402373 304.019016237Z"
             style="fill:#527eb2;fill-opacity:1" />
          <path
             id="path4704"
             d="M75.041016 166.85547L93.669922 166.85547L-47.7514342373 308.276826237L-66.3803402373 308.276826237Z"
             style="fill:#527eb2;fill-opacity:1" />
          <path
             id="path4706"
             d="M93.669922 166.85547L112.29883 166.85547L-29.1225262373 308.276826237L-47.7514342373 308.276826237Z"
             style="fill:#527eb2;fill-opacity:1" />
          <path
             id="path4708"
             d="M112.29883 166.85547L112.29883 162.59766L-29.1225262373 304.019016237L-29.1225262373 308.276826237Z"
             style="fill:#527eb2;fill-opacity:1" />
          <path
             id="path4710"
             d="M112.29883 162.59766L112.29883 158.33789L-29.1225262373 299.759246237L-29.1225262373 304.019016237Z"
             style="fill:#527eb2;fill-opacity:1" />
          <path
             id="path4712"
             d="M112.29883 158.33789L93.669922 158.33789L-47.7514342373 299.759246237L-29.1225262373 299.759246237Z"
             style="fill:#527eb2;fill-opacity:1" />
          <path
             id="path4714"
             d="M93.669922 158.33789L75.041016 158.33789L-66.3803402373 299.759246237L-47.7514342373 299.759246237Z"
             style="fill:#527eb2;fill-opacity:1" />
          <path
             id="path4716"
             d="M64.394531 173.24219L64.394531 177.5L-77.0268252373 318.921356237L-77.0268252373 314.663546237Z"
             style="fill:#527eb2;fill-opacity:1" />
          <path
             id="path4718"
             d="M64.394531 177.5L64.394531 181.75781L-77.0268252373 323.179166237L-77.0268252373 318.921356237Z"
             style="fill:#527eb2;fill-opacity:1" />
          <path
             id="path4720"
             d="M64.394531 181.75781L88.347656 181.75781L-53.0737002373 323.179166237L-77.0268252373 323.179166237Z"
             style="fill:#527eb2;fill-opacity:1" />
          <path
             id="path4722"
             d="M88.347656 181.75781L112.29883 181.75781L-29.1225262373 323.179166237L-53.0737002373 323.179166237Z"
             style="fill:#527eb2;fill-opacity:1" />
          <path
             id="path4724"
             d="M112.29883 181.75781L112.29883 177.5L-29.1225262373 318.921356237L-29.1225262373 323.179166237Z"
             style="fill:#527eb2;fill-opacity:1" />
          <path
             id="path4726"
             d="M112.29883 177.5L112.29883 173.24219L-29.1225262373 314.663546237L-29.1225262373 318.921356237Z"
             style="fill:#527eb2;fill-opacity:1" />
          <path
             id="path4728"
             d="M112.29883 173.24219L88.347656 173.24219L-53.0737002373 314.663546237L-29.1225262373 314.663546237Z"
             style="fill:#527eb2;fill-opacity:1" />
          <path
             id="path4730"
             d="M88.347656 173.24219L64.394531 173.24219L-77.0268252373 314.663546237L-53.0737002373 314.663546237Z"
             style="fill:#527eb2;fill-opacity:1" />
          <path
             id="path4732"
             d="M89.943359 188.14453L89.943359 191.87109L-51.4779972373 333.292446237L-51.4779972373 329.565886237Z"
             style="fill:#527eb2;fill-opacity:1" />
          <path
             id="path4734"
             d="M89.943359 191.87109L89.943359 195.59766L-51.4779972373 337.019016237L-51.4779972373 333.292446237Z"
             style="fill:#527eb2;fill-opacity:1" />
          <path
             id="path4736"
             d="M89.943359 195.59766L101.12109 195.59766L-40.3002662373 337.019016237L-51.4779972373 337.019016237Z"
             style="fill:#527eb2;fill-opacity:1" />
          <path
             id="path4738"
             d="M101.12109 195.59766L112.29883 195.59766L-29.1225262373 337.019016237L-40.3002662373 337.019016237Z"
             style="fill:#527eb2;fill-opacity:1" />
          <path
             id="path4740"
             d="M112.29883 195.59766L112.29883 191.87109L-29.1225262373 333.292446237L-29.1225262373 337.019016237Z"
             style="fill:#527eb2;fill-opacity:1" />
          <path
             id="path4742"
             d="M112.29883 191.87109L112.29883 188.14453L-29.1225262373 329.565886237L-29.1225262373 333.292446237Z"
             style="fill:#527eb2;fill-opacity:1" />
          <path
             id="path4744"
             d="M112.29883 188.14453L101.12109 188.14453L-40.3002662373 329.565886237L-29.1225262373 329.565886237Z"
             style="fill:#527eb2;fill-opacity:1" />
          <path
             id="path4746"
             d="M101.12109 188.14453L89.943359 188.14453L-51.4779972373 329.565886237L-40.3002662373 329.565886237Z"
             style="fill:#527eb2;fill-opacity:1" />
        </g>
        <path
           id="path4513"
           transform=""
           d="M 111.26758 45.5 L 119.76562 58.363281 L 128.26562 71.228516 L 128.26562 140.86328 L 128.26562 210.5 L 130.92773 210.5 L 133.58789 210.5 L 133.58789 140.96289 L 133.58789 71.427734 L 142.06641 58.462891 L 150.54492 45.5 L 130.90625 45.5 L 111.26758 45.5 z M 150.52734 69.957031 C 150.48472 69.95157 150.46289 69.960546 150.46289 69.984375 L 150.46289 132.54102 L 150.46289 194.60156 L 150.46289 196.64258 L 195.33008 166.03906 C 229.45604 142.76152 237.37891 134.96929 237.37891 133.10352 C 237.37891 131.23789 228.78911 124.50705 195.59961 100.36914 C 173.33885 84.179438 151.84875 70.12634 150.52734 69.957031 z M 100.58789 69.984375 L 100.58789 74.242188 L 100.58789 78.5 L 106.44336 78.5 L 112.29883 78.5 L 112.29883 74.242188 L 112.29883 69.984375 L 106.44336 69.984375 L 100.58789 69.984375 z M 91.007812 84.886719 L 91.007812 89.144531 L 91.007812 93.402344 L 101.65234 93.402344 L 112.29883 93.402344 L 112.29883 89.144531 L 112.29883 84.886719 L 101.65234 84.886719 L 91.007812 84.886719 z M 64.394531 99.791016 L 64.394531 104.04883 L 64.394531 108.30664 L 88.347656 108.30664 L 112.29883 108.30664 L 112.29883 104.04883 L 112.29883 99.791016 L 88.347656 99.791016 L 64.394531 99.791016 z M 36.716797 114.69336 L 36.716797 118.95117 L 36.716797 123.20898 L 74.507812 123.20898 L 112.29883 123.20898 L 112.29883 118.95117 L 112.29883 114.69336 L 74.507812 114.69336 L 36.716797 114.69336 z M 18.621094 129.59766 L 18.621094 133.32227 L 18.621094 137.04883 L 65.458984 137.04883 L 112.29883 137.04883 L 112.29883 133.32227 L 112.29883 129.59766 L 65.458984 129.59766 L 18.621094 129.59766 z M 48.427734 144.5 L 48.427734 148.22656 L 48.427734 151.95117 L 80.363281 151.95117 L 112.29883 151.95117 L 112.29883 148.22656 L 112.29883 144.5 L 80.363281 144.5 L 48.427734 144.5 z M 75.041016 158.33789 L 75.041016 162.59766 L 75.041016 166.85547 L 93.669922 166.85547 L 112.29883 166.85547 L 112.29883 162.59766 L 112.29883 158.33789 L 93.669922 158.33789 L 75.041016 158.33789 z M 64.394531 173.24219 L 64.394531 177.5 L 64.394531 181.75781 L 88.347656 181.75781 L 112.29883 181.75781 L 112.29883 177.5 L 112.29883 173.24219 L 88.347656 173.24219 L 64.394531 173.24219 z M 89.943359 188.14453 L 89.943359 191.87109 L 89.943359 195.59766 L 101.12109 195.59766 L 112.29883 195.59766 L 112.29883 191.87109 L 112.29883 188.14453 L 101.12109 188.14453 L 89.943359 188.14453 z "
           style="fill:#527eb2;fill-opacity:1;stroke-width:1.06451583" />
      </g>
    </g>
    <g
       transform="matrix(1.0645158,0,0,1.0645158,-8.2580224,-59.63598)"
       id="g4511">
      <path
         style="fill:#ffffff;fill-opacity:1"
         d="m 128.25,936.44673 v -65.41542 l -7.98462,-12.08458 -7.98462,-12.08458 h 18.449 18.44901 l -7.96439,12.17783 -7.96438,12.17782 v 65.32218 65.32222 h -2.5 -2.5 z"
         id="path3742"
         inkscape:connector-curvature="0" />
      <path
         style="fill:#ffffff;fill-opacity:1"
         d="m 149.10118,986.92787 v -58.29998 -58.76574 c 0,-0.7163 20.81499,12.84473 42.40119,28.54384 31.17803,22.67501 39.24763,28.99744 39.24763,30.75 0,1.7527 -7.44227,9.0726 -39.5,30.93939 l -42.14882,28.74999 z"
         id="path3740"
         inkscape:connector-curvature="0"
         sodipodi:nodetypes="ccsssscc" />
      <path
         style="fill:#ffffff;fill-opacity:1"
         d="m 92.25,984.36217 v -3.5 h 10.5 10.5 v 3.5 3.5 h -10.5 -10.5 z"
         id="path3738"
         inkscape:connector-curvature="0" />
      <path
         style="fill:#ffffff;fill-opacity:1"
         d="m 68.25,970.86217 v -4 h 22.5 22.5 v 4 4 h -22.5 -22.5 z"
         id="path3712"
         inkscape:connector-curvature="0" />
      <path
         style="fill:#ffffff;fill-opacity:1"
         d="m 78.25,956.86215 v -4 h 17.5 17.5 v 4 4 h -17.5 -17.5 z"
         id="path3710"
         inkscape:connector-curvature="0" />
      <path
         style="fill:#ffffff;fill-opacity:1"
         d="m 53.25,943.36215 v -3.5 h 30 30 v 3.5 3.5 h -30 -30 z"
         id="path3708"
         inkscape:connector-curvature="0" />
      <path
         style="fill:#ffffff;fill-opacity:1"
         d="m 25.25,929.36215 v -3.5 h 44 44 v 3.5 3.5 h -44 -44 z"
         id="path3706"
         inkscape:connector-curvature="0" />
      <path
         style="fill:#ffffff;fill-opacity:1"
         d="m 42.25,915.86215 v -4 h 35.5 35.5 v 4 4 h -35.5 -35.5 z"
         id="path3704"
         inkscape:connector-curvature="0" />
      <path
         style="fill:#ffffff;fill-opacity:1"
         d="m 68.25,901.86215 v -4 h 22.5 22.5 v 4 4 h -22.5 -22.5 z"
         id="path3702"
         inkscape:connector-curvature="0" />
      <path
         style="fill:#ffffff;fill-opacity:1"
         d="m 93.25,887.86215 v -4 h 10 10 v 4 4 h -10 -10 z"
         id="path3698"
         inkscape:connector-curvature="0" />
      <path
         style="fill:#ffffff;fill-opacity:1"
         d="m 102.25,873.86215 v -4 h 5.5 5.5 v 4 4 h -5.5 -5.5 z"
         id="path3694"
         inkscape:connector-curvature="0" />
    </g>
  </g>
</svg>
