<?xml version="1.0" encoding="UTF-8" standalone="no"?>
<!-- Created with Inkscape (http://www.inkscape.org/) -->

<svg
   xmlns:dc="http://purl.org/dc/elements/1.1/"
   xmlns:cc="http://creativecommons.org/ns#"
   xmlns:rdf="http://www.w3.org/1999/02/22-rdf-syntax-ns#"
   xmlns:svg="http://www.w3.org/2000/svg"
   xmlns="http://www.w3.org/2000/svg"
   xmlns:sodipodi="http://sodipodi.sourceforge.net/DTD/sodipodi-0.dtd"
   xmlns:inkscape="http://www.inkscape.org/namespaces/inkscape"
   sodipodi:docname="kget.svg"
   inkscape:version="0.92.2 (5c3e80d, 2017-08-06)"
   version="1.1"
   id="svg2"
   viewBox="0 0 256 256"
   height="256"
   width="256">
  <sodipodi:namedview
     inkscape:window-maximized="1"
     inkscape:window-y="0"
     inkscape:window-x="0"
     inkscape:window-height="1048"
     inkscape:window-width="1920"
     units="px"
     showgrid="true"
     inkscape:current-layer="layer1"
     inkscape:document-units="px"
     inkscape:cy="127.99998"
     inkscape:cx="128"
     inkscape:zoom="3.3125"
     inkscape:pageshadow="2"
     inkscape:pageopacity="0.0"
     borderopacity="1.0"
     bordercolor="#666666"
     pagecolor="#ffffff"
     id="base">
    <inkscape:grid
       type="xygrid"
       id="grid4168"
       spacingx="5"
       spacingy="5" />
  </sodipodi:namedview>
  <defs
     id="defs4">
    <clipPath
       clipPathUnits="userSpaceOnUse"
       id="clipPath5002">
      <g
         id="g5004">
        <path
           transform="translate(0,796.36216)"
           inkscape:connector-curvature="0"
           id="path5006"
           d="M 88.118406,249.43519 C 46.103287,235.29134 14.771284,201.68742 4.1335861,159.36053 1.3377997,148.23623 0.92261224,144.16281 0.92582381,127.88908 0.92787958,117.47222 1.134384,112.01362 1.6577819,108.54099 4.4653598,89.913336 12.17654,70.638106 23.042737,55.086148 c 3.958678,-5.665755 8.344812,-10.93092 9.101533,-10.925587 0.32809,0.0023 10.488643,18.309713 22.579009,40.683112 12.090365,22.373397 22.374546,41.334697 22.853732,42.136217 0.479186,0.80151 0.924733,2.44098 0.990103,3.64326 0.343424,6.31639 2.524175,14.20976 5.6424,20.42304 2.954444,5.88693 5.065381,8.73258 10.434696,14.06652 6.71418,6.66995 12.88853,10.28643 21.73204,12.72904 3.16587,0.87442 5.10478,1.05037 11.57517,1.05037 8.82596,0 12.60219,-0.76201 19.26429,-3.88733 2.04584,-0.95974 3.93661,-1.66536 4.20172,-1.56805 0.2651,0.0973 -11.0555,17.66459 -25.1569,39.0384 l -25.6389,38.86148 -3.094121,0.11221 c -2.554618,0.0927 -4.195204,-0.25845 -9.409103,-2.01364 z"
           style="fill:#0f9d58;fill-opacity:1;stroke:none;stroke-width:4.85768509;stroke-linejoin:round;stroke-miterlimit:4;stroke-dasharray:none;stroke-opacity:1" />
        <path
           inkscape:connector-curvature="0"
           id="path5008"
           d="m 112.35984,1051.5167 c -10.0014,-1.4495 -12.15632,-1.8201 -12.531784,-2.1556 -0.248854,-0.2223 1.738304,-3.7475 4.550294,-8.0722 7.16635,-11.0213 49.77231,-74.64801 50.25856,-75.05489 3.57509,-2.99158 8.63523,-8.0414 10.57512,-10.55356 3.36154,-4.35318 7.55784,-12.9141 9.06523,-18.494 6.19314,-22.92535 -2.59253,-47.15185 -21.69967,-59.83688 l -2.96081,-1.96565 17.02469,0.29584 c 9.36358,0.1627 31.17032,0.43384 48.45941,0.60252 l 31.43471,0.30668 1.54584,4.18869 c 2.24597,6.08579 4.67816,15.0947 5.93451,21.9816 1.52517,8.36049 1.92536,28.85896 0.73851,37.82758 -3.0805,23.27845 -12.81326,45.72018 -27.80202,64.10577 -20.47622,25.1166 -51.4599,42.1974 -84.14612,46.3885 -5.31244,0.6812 -26.64601,0.9864 -30.44647,0.4356 z"
           style="fill:#f4b400;fill-opacity:1;stroke:none;stroke-width:4.85768509;stroke-linejoin:round;stroke-miterlimit:4;stroke-dasharray:none;stroke-opacity:1" />
        <path
           transform="translate(0,796.36216)"
           inkscape:connector-curvature="0"
           id="path5010"
           d="M 67.989788,108.87302 C 41.284246,59.575543 33.290284,45.149038 32.233625,44.344765 31.651257,43.901497 32.811213,42.549931 38.695603,36.815353 53.43581,22.450419 68.809334,13.040746 87.839196,6.7360352 101.68742,2.1480329 112.58238,0.43719165 127.95142,0.43719165 c 21.3099,0 37.80488,3.80960275 56.83492,13.12633035 25.29351,12.383198 46.19421,33.578863 58.51993,59.345832 1.61138,3.368591 2.92978,6.372442 2.92978,6.675231 0,0.560033 -10.54865,0.49527 -71.16508,-0.436914 l -24.28843,-0.373518 -3.93063,-1.764495 c -6.75732,-3.033425 -10.64587,-3.839529 -18.6576,-3.867747 -5.0296,-0.01773 -7.97946,0.207636 -10.31642,0.788106 -14.50826,3.603659 -26.283291,12.94777 -33.291614,26.418653 -3.58502,6.89086 -5.24713,13.08166 -6.331628,23.58317 l -0.33738,3.26696 -9.92748,-18.32578 z"
           style="fill:#db4437;fill-opacity:1;stroke:none;stroke-width:10;stroke-linejoin:round;stroke-miterlimit:4;stroke-dasharray:none;stroke-opacity:1" />
      </g>
    </clipPath>
    <clipPath
       id="clipPath4271"
       clipPathUnits="userSpaceOnUse">
      <circle
         r="128"
         cy="128.00002"
         cx="128"
         id="circle4273"
         style="fill:#292929;fill-opacity:0.26020412;stroke:none;stroke-width:10;stroke-linejoin:round;stroke-miterlimit:4;stroke-dasharray:none;stroke-opacity:0.25882353" />
    </clipPath>
    <clipPath
       clipPathUnits="userSpaceOnUse"
       id="clipPath4363">
      <circle
         r="128"
         cy="924.36218"
         cx="128"
         id="circle4365"
         style="fill:#4285f4;fill-opacity:1;stroke:none;stroke-width:10;stroke-linejoin:round;stroke-miterlimit:4;stroke-dasharray:none;stroke-opacity:0.25882353" />
    </clipPath>
    <clipPath
       id="clipPath4452"
       clipPathUnits="userSpaceOnUse">
      <circle
         r="128"
         cy="924.36218"
         cx="128"
         id="circle4454"
         style="fill:#4285f4;fill-opacity:1;stroke:none;stroke-width:10;stroke-linejoin:round;stroke-miterlimit:4;stroke-dasharray:none;stroke-opacity:0.25882353" />
    </clipPath>
    <clipPath
       clipPathUnits="userSpaceOnUse"
       id="clipPath5177">
      <circle
         r="128"
         cy="924.36218"
         cx="128"
         id="circle5179"
         style="fill:#4285f4;fill-opacity:1;stroke:none;stroke-width:10;stroke-linejoin:round;stroke-miterlimit:4;stroke-dasharray:none;stroke-opacity:0.25882353" />
    </clipPath>
    <clipPath
       id="clipPath4342"
       clipPathUnits="userSpaceOnUse">
      <circle
         r="128"
         cy="933.48718"
         cx="128"
         id="circle4344"
         style="fill:#4285f4;fill-opacity:1;stroke:none;stroke-width:10;stroke-linejoin:round;stroke-miterlimit:4;stroke-dasharray:none;stroke-opacity:0.25882353" />
    </clipPath>
    <clipPath
       clipPathUnits="userSpaceOnUse"
       id="clipPath4681">
      <circle
         r="128"
         cy="930.43964"
         cx="127.00293"
         id="circle4683"
         style="fill:#9d5fad;fill-opacity:1;stroke:none;stroke-width:10;stroke-linejoin:round;stroke-miterlimit:4;stroke-dasharray:none;stroke-opacity:0.25882353" />
    </clipPath>
    <clipPath
       id="clipPath4235"
       clipPathUnits="userSpaceOnUse">
      <circle
         r="128"
         cy="924.36218"
         cx="128"
         id="circle4237"
         style="fill:#0f9d58;fill-opacity:1;stroke:none;stroke-width:10;stroke-linejoin:round;stroke-miterlimit:4;stroke-dasharray:none;stroke-opacity:0.25882353" />
    </clipPath>
    <clipPath
       clipPathUnits="userSpaceOnUse"
       id="clipPath4771">
      <circle
         r="128"
         cy="924.36218"
         cx="128"
         id="circle4773"
         style="fill:#0f9d58;fill-opacity:1;stroke:none;stroke-width:10;stroke-linejoin:round;stroke-miterlimit:4;stroke-dasharray:none;stroke-opacity:0.25882353" />
    </clipPath>
    <clipPath
       id="clipPath4842"
       clipPathUnits="userSpaceOnUse">
      <circle
         r="128"
         cy="924.36218"
         cx="128"
         id="circle4844"
         style="fill:#0f9d58;fill-opacity:1;stroke:none;stroke-width:10;stroke-linejoin:round;stroke-miterlimit:4;stroke-dasharray:none;stroke-opacity:0.25882353" />
    </clipPath>
    <clipPath
       clipPathUnits="userSpaceOnUse"
       id="clipPath4458">
      <circle
         r="128"
         cy="924.36218"
         cx="128"
         id="circle4460"
         style="fill:#ff3b38;fill-opacity:1;stroke:none;stroke-width:10;stroke-linejoin:round;stroke-miterlimit:4;stroke-dasharray:none;stroke-opacity:0.25882353" />
    </clipPath>
    <clipPath
       id="clipPath4783"
       clipPathUnits="userSpaceOnUse">
      <circle
         r="128"
         cy="924.36218"
         cx="128"
         id="circle4785"
         style="fill:#ff3b38;fill-opacity:1;stroke:none;stroke-width:10;stroke-linejoin:round;stroke-miterlimit:4;stroke-dasharray:none;stroke-opacity:0.25882353" />
    </clipPath>
    <clipPath
       clipPathUnits="userSpaceOnUse"
       id="clipPath4789">
      <circle
         r="128"
         cy="924.36218"
         cx="102.64714"
         id="circle4791"
         style="fill:#80b4ff;fill-opacity:1;stroke:none;stroke-width:10;stroke-linejoin:round;stroke-miterlimit:4;stroke-dasharray:none;stroke-opacity:0.25882353" />
    </clipPath>
    <clipPath
       id="clipPath4721"
       clipPathUnits="userSpaceOnUse">
      <circle
         r="128"
         cy="924.36218"
         cx="128"
         id="circle4723"
         style="fill:#557ae6;fill-opacity:1;stroke:none;stroke-width:10;stroke-linejoin:round;stroke-miterlimit:4;stroke-dasharray:none;stroke-opacity:0.25882353" />
    </clipPath>
    <clipPath
       clipPathUnits="userSpaceOnUse"
       id="clipPath4491">
      <circle
         r="128"
         cy="924.36218"
         cx="128"
         id="circle4493"
         style="fill:#990000;fill-opacity:1;stroke:none;stroke-width:10;stroke-linejoin:round;stroke-miterlimit:4;stroke-dasharray:none;stroke-opacity:0.25882353" />
    </clipPath>
    <clipPath
       id="clipPath1102"
       clipPathUnits="userSpaceOnUse">
      <circle
         r="128"
         cy="924.36218"
         cx="128"
         id="circle1104"
         style="fill:#b40000;fill-opacity:1;stroke:none;stroke-width:10;stroke-linejoin:round;stroke-miterlimit:4;stroke-dasharray:none;stroke-opacity:0.25882353" />
    </clipPath>
    <clipPath
       id="clipPath1102-3"
       clipPathUnits="userSpaceOnUse">
      <circle
         r="128"
         cy="924.36218"
         cx="128"
         id="circle1104-6"
         style="fill:#b40000;fill-opacity:1;stroke:none;stroke-width:10;stroke-linejoin:round;stroke-miterlimit:4;stroke-dasharray:none;stroke-opacity:0.25882353" />
    </clipPath>
    <filter
       height="1.7056"
       y="-0.3528"
       width="1.0641455"
       x="-0.032072727"
       id="filter1051"
       style="color-interpolation-filters:sRGB"
       inkscape:collect="always">
      <feGaussianBlur
         id="feGaussianBlur1053"
         stdDeviation="1.47"
         inkscape:collect="always" />
    </filter>
    <clipPath
       clipPathUnits="userSpaceOnUse"
       id="clipPath1252">
      <circle
         r="93.76226"
         cy="929.62622"
         cx="135"
         id="circle1254"
         style="fill:#aac4e4;fill-opacity:1;stroke:none;stroke-width:7.32517672;stroke-linejoin:round;stroke-miterlimit:4;stroke-dasharray:none;stroke-opacity:0.25882353" />
    </clipPath>
  </defs>
  <metadata
     id="metadata7">
    <rdf:RDF>
      <cc:Work
         rdf:about="">
        <dc:format>image/svg+xml</dc:format>
        <dc:type
           rdf:resource="http://purl.org/dc/dcmitype/StillImage" />
        <dc:title />
      </cc:Work>
    </rdf:RDF>
  </metadata>
  <g
     transform="translate(0,-796.36216)"
     id="layer1"
     inkscape:groupmode="layer"
     inkscape:label="Layer 1">
    <circle
       style="fill:#81a8d7;fill-opacity:1;stroke:none;stroke-width:10;stroke-linejoin:round;stroke-miterlimit:4;stroke-dasharray:none;stroke-opacity:0.25882353"
       id="path4152"
       cx="128"
       cy="924.36218"
       r="128" />
    <g
       id="g1090"
       transform="matrix(1.3651548,0,0,1.3651548,-56.295897,-344.72149)"
       style="fill:#4780c5;fill-opacity:1"
       clip-path="url(#clipPath1252)">
      <g
         transform="translate(5.0000003)"
         id="g1086"
         style="fill:#4780c5;fill-opacity:1">
        <g
           id="g1176"
           transform="matrix(0.73251766,0,0,0.73251766,36.237738,835.86393)"
           style="fill:#4780c5;fill-opacity:1">
          <g
             id="g1173"
             style="fill:#4780c5;fill-opacity:1;stroke:none;stroke-width:1.36515474">
            <path
               id="path1145"
               d="M104.10938 43.0L104.10938 124.91016L-37.3119762373 266.331516237L-37.3119762373 184.421356237Z"
               style="fill:#4780c5;fill-opacity:1" />
            <path
               id="path1147"
               d="M104.10938 124.91016L68.886719 124.91016L-72.5346372373 266.331516237L-37.3119762373 266.331516237Z"
               style="fill:#4780c5;fill-opacity:1" />
            <path
               id="path1149"
               d="M68.886719 124.91016L98.443359 162.45117L-42.9779972373 303.872526237L-72.5346372373 266.331516237Z"
               style="fill:#4780c5;fill-opacity:1" />
            <path
               id="path1151"
               d="M98.443359 162.45117L123.73242 194.57031L-17.6889362373 335.991666237L-42.9779972373 303.872526237Z"
               style="fill:#4780c5;fill-opacity:1" />
            <path
               id="path1153"
               d="M123.73242 194.57031C92.3077810522 194.935434096 69.3646554798 198.300963671 66.0716783405 201.59394081L-75.3496778968 343.015297047C-72.0567007575 339.722319908 -49.1135751851 336.356790334 -17.6889362373 335.991666237Z"
               style="fill:#4780c5;fill-opacity:1" />
            <path
               id="path1155"
               d="M66.0716783405 201.59394081C62.7397237343 204.925895416 79.5258502925 208.183569882 128.0 208.18359L-13.4213562373 349.604946237C-61.8955059448 349.60492612 -78.681632503 346.347251654 -75.3496778968 343.015297047Z"
               style="fill:#4780c5;fill-opacity:1" />
            <path
               id="path1157"
               d="M128.0 208.18359C167.146382759 208.18359 199.296087964 205.45977141 202.77252904 201.983330335L61.3511728025 343.404686572C57.874731727 346.881127647 25.7250265213 349.604946237 -13.4213562373 349.604946237Z"
               style="fill:#4780c5;fill-opacity:1" />
            <path
               id="path1159"
               d="M202.77252904 201.983330335C202.978656841 201.777202534 203.08398 201.568428789 203.08398 201.35742L61.6626237627 342.778776237C61.6626237627 342.989785027 61.5573006034 343.198558771 61.3511728025 343.404686572Z"
               style="fill:#4780c5;fill-opacity:1" />
            <path
               id="path1161"
               d="M203.08398 201.35742C203.08398 197.7191 171.74618 194.75566 132.2832 194.55273L-9.13815623731 335.974086237C30.3248237627 336.177016237 61.6626237627 339.140456237 61.6626237627 342.778776237Z"
               style="fill:#4780c5;fill-opacity:1" />
            <path
               id="path1163"
               d="M132.2832 194.55273L157.55664 162.45117L16.1352837627 303.872526237L-9.13815623731 335.974086237Z"
               style="fill:#4780c5;fill-opacity:1" />
            <path
               id="path1165"
               d="M157.55664 162.45117L187.11328 124.91016L45.6919237627 266.331516237L16.1352837627 303.872526237Z"
               style="fill:#4780c5;fill-opacity:1" />
            <path
               id="path1167"
               d="M187.11328 124.91016L151.89062 124.91016L10.4692637627 266.331516237L45.6919237627 266.331516237Z"
               style="fill:#4780c5;fill-opacity:1" />
            <path
               id="path1169"
               d="M151.89062 124.91016L151.89062 43.0L10.4692637627 184.421356237L10.4692637627 266.331516237Z"
               style="fill:#4780c5;fill-opacity:1" />
            <path
               id="path1171"
               d="M151.89062 43.0L104.10938 43.0L-37.3119762373 184.421356237L10.4692637627 184.421356237Z"
               style="fill:#4780c5;fill-opacity:1" />
          </g>
          <path
             id="rect1082"
             transform=""
             d="M 104.10938 43 L 104.10938 124.91016 L 68.886719 124.91016 L 98.443359 162.45117 L 123.73242 194.57031 C 60.511183 195.30488 31.618755 208.18355 128 208.18359 C 169.46748 208.18359 203.08398 205.12719 203.08398 201.35742 C 203.08398 197.7191 171.74618 194.75566 132.2832 194.55273 L 157.55664 162.45117 L 187.11328 124.91016 L 151.89062 124.91016 L 151.89062 43 L 104.10938 43 z "
             style="fill:#4780c5;fill-opacity:1;stroke:none;stroke-width:1.36515474" />
        </g>
      </g>
    </g>
    <ellipse
       ry="5"
       rx="55"
       cy="983.36218"
       cx="135"
       id="path861"
       style="fill:#d7d7d7;fill-opacity:0.99215686;stroke:none;filter:url(#filter1051)"
       transform="matrix(1.3651548,0,0,1.3651548,-56.295897,-344.72149)" />
    <g
       transform="matrix(1.3651548,0,0,1.3651548,-49.470123,-344.72149)"
       id="g859"
       style="fill:#ffffff;fill-opacity:0.99215686">
      <rect
         style="fill:#ffffff;fill-opacity:0.99215686;stroke:none"
         id="rect851"
         width="35"
         height="85"
         x="112.5"
         y="867.36218" />
      <path
         sodipodi:type="star"
         style="fill:#ffffff;fill-opacity:0.99215686;stroke:none"
         id="path855"
         sodipodi:sides="3"
         sodipodi:cx="130"
         sodipodi:cy="932.36218"
         sodipodi:r1="50"
         sodipodi:r2="25"
         sodipodi:arg1="1.5707963"
         sodipodi:arg2="2.6179939"
         inkscape:flatsided="false"
         inkscape:rounded="0"
         inkscape:randomized="0"
         d="m 130,982.36218 -21.65064,-37.5 -21.650631,-37.5 43.301271,0 43.30127,0 -21.65064,37.5 z"
         inkscape:transform-center-y="9.1666634"
         transform="matrix(1,0,0,0.73333363,0,261.96295)" />
    </g>
  </g>
</svg>
