<?xml version="1.0" encoding="UTF-8" standalone="no"?>
<!-- Created with Inkscape (http://www.inkscape.org/) -->

<svg
   xmlns:dc="http://purl.org/dc/elements/1.1/"
   xmlns:cc="http://creativecommons.org/ns#"
   xmlns:rdf="http://www.w3.org/1999/02/22-rdf-syntax-ns#"
   xmlns:svg="http://www.w3.org/2000/svg"
   xmlns="http://www.w3.org/2000/svg"
   xmlns:xlink="http://www.w3.org/1999/xlink"
   xmlns:sodipodi="http://sodipodi.sourceforge.net/DTD/sodipodi-0.dtd"
   xmlns:inkscape="http://www.inkscape.org/namespaces/inkscape"
   sodipodi:docname="kodi.svg"
   inkscape:version="0.91 r13725"
   version="1.1"
   id="svg2"
   viewBox="0 0 256 256"
   height="256"
   width="256">
  <sodipodi:namedview
     inkscape:window-maximized="1"
     inkscape:window-y="0"
     inkscape:window-x="0"
     inkscape:window-height="1033"
     inkscape:window-width="1920"
     units="px"
     showgrid="false"
     inkscape:current-layer="layer1"
     inkscape:document-units="px"
     inkscape:cy="128"
     inkscape:cx="37.059049"
     inkscape:zoom="2.0507812"
     inkscape:pageshadow="2"
     inkscape:pageopacity="0.0"
     borderopacity="1.0"
     bordercolor="#666666"
     pagecolor="#ffffff"
     id="base" />
  <defs
     id="defs4">
    <clipPath
       clipPathUnits="userSpaceOnUse"
       id="clipPath5002">
      <g
         id="g5004">
        <path
           transform="translate(0,796.36216)"
           inkscape:connector-curvature="0"
           id="path5006"
           d="M 88.118406,249.43519 C 46.103287,235.29134 14.771284,201.68742 4.1335861,159.36053 1.3377997,148.23623 0.92261224,144.16281 0.92582381,127.88908 0.92787958,117.47222 1.134384,112.01362 1.6577819,108.54099 4.4653598,89.913336 12.17654,70.638106 23.042737,55.086148 c 3.958678,-5.665755 8.344812,-10.93092 9.101533,-10.925587 0.32809,0.0023 10.488643,18.309713 22.579009,40.683112 12.090365,22.373397 22.374546,41.334697 22.853732,42.136217 0.479186,0.80151 0.924733,2.44098 0.990103,3.64326 0.343424,6.31639 2.524175,14.20976 5.6424,20.42304 2.954444,5.88693 5.065381,8.73258 10.434696,14.06652 6.71418,6.66995 12.88853,10.28643 21.73204,12.72904 3.16587,0.87442 5.10478,1.05037 11.57517,1.05037 8.82596,0 12.60219,-0.76201 19.26429,-3.88733 2.04584,-0.95974 3.93661,-1.66536 4.20172,-1.56805 0.2651,0.0973 -11.0555,17.66459 -25.1569,39.0384 l -25.6389,38.86148 -3.094121,0.11221 c -2.554618,0.0927 -4.195204,-0.25845 -9.409103,-2.01364 z"
           style="fill:#0f9d58;fill-opacity:1;stroke:none;stroke-width:4.85768509;stroke-linejoin:round;stroke-miterlimit:4;stroke-dasharray:none;stroke-opacity:1" />
        <path
           inkscape:connector-curvature="0"
           id="path5008"
           d="m 112.35984,1051.5167 c -10.0014,-1.4495 -12.15632,-1.8201 -12.531784,-2.1556 -0.248854,-0.2223 1.738304,-3.7475 4.550294,-8.0722 7.16635,-11.0213 49.77231,-74.64801 50.25856,-75.05489 3.57509,-2.99158 8.63523,-8.0414 10.57512,-10.55356 3.36154,-4.35318 7.55784,-12.9141 9.06523,-18.494 6.19314,-22.92535 -2.59253,-47.15185 -21.69967,-59.83688 l -2.96081,-1.96565 17.02469,0.29584 c 9.36358,0.1627 31.17032,0.43384 48.45941,0.60252 l 31.43471,0.30668 1.54584,4.18869 c 2.24597,6.08579 4.67816,15.0947 5.93451,21.9816 1.52517,8.36049 1.92536,28.85896 0.73851,37.82758 -3.0805,23.27845 -12.81326,45.72018 -27.80202,64.10577 -20.47622,25.1166 -51.4599,42.1974 -84.14612,46.3885 -5.31244,0.6812 -26.64601,0.9864 -30.44647,0.4356 z"
           style="fill:#f4b400;fill-opacity:1;stroke:none;stroke-width:4.85768509;stroke-linejoin:round;stroke-miterlimit:4;stroke-dasharray:none;stroke-opacity:1" />
        <path
           transform="translate(0,796.36216)"
           inkscape:connector-curvature="0"
           id="path5010"
           d="M 67.989788,108.87302 C 41.284246,59.575543 33.290284,45.149038 32.233625,44.344765 31.651257,43.901497 32.811213,42.549931 38.695603,36.815353 53.43581,22.450419 68.809334,13.040746 87.839196,6.7360352 101.68742,2.1480329 112.58238,0.43719165 127.95142,0.43719165 c 21.3099,0 37.80488,3.80960275 56.83492,13.12633035 25.29351,12.383198 46.19421,33.578863 58.51993,59.345832 1.61138,3.368591 2.92978,6.372442 2.92978,6.675231 0,0.560033 -10.54865,0.49527 -71.16508,-0.436914 l -24.28843,-0.373518 -3.93063,-1.764495 c -6.75732,-3.033425 -10.64587,-3.839529 -18.6576,-3.867747 -5.0296,-0.01773 -7.97946,0.207636 -10.31642,0.788106 -14.50826,3.603659 -26.283291,12.94777 -33.291614,26.418653 -3.58502,6.89086 -5.24713,13.08166 -6.331628,23.58317 l -0.33738,3.26696 -9.92748,-18.32578 z"
           style="fill:#db4437;fill-opacity:1;stroke:none;stroke-width:10;stroke-linejoin:round;stroke-miterlimit:4;stroke-dasharray:none;stroke-opacity:1" />
      </g>
    </clipPath>
    <radialGradient
       id="SVGID21"
       cx="278.95999"
       cy="216.92"
       r="322.22"
       gradientTransform="matrix(0.7100982,0,0,-0.69667735,-12.931184,1000.262)"
       gradientUnits="userSpaceOnUse">
      <stop
         offset="0.119"
         stop-color="#ffffff"
         id="stop131" />
      <stop
         offset="0.122"
         stop-color="#fffffa"
         id="stop133" />
      <stop
         offset="0.25"
         stop-color="#ffe560"
         id="stop135" />
      <stop
         offset="0.287"
         stop-color="#ffdf56"
         id="stop137" />
      <stop
         offset="0.347"
         stop-color="#f8d03b"
         id="stop139" />
      <stop
         offset="0.406"
         stop-color="#f0be1b"
         id="stop141" />
      <stop
         offset="0.473"
         stop-color="#eb9d23"
         id="stop143" />
      <stop
         offset="0.548"
         stop-color="#e57c27"
         id="stop145" />
      <stop
         offset="0.765"
         stop-color="#dd5626"
         id="stop147" />
      <stop
         offset="0.903"
         stop-color="#c33a28"
         id="stop149" />
      <stop
         offset="1"
         stop-color="#b02228"
         id="stop151" />
    </radialGradient>
    <clipPath
       clipPathUnits="userSpaceOnUse"
       id="clipPath6128">
      <circle
         r="128"
         cy="925.362"
         cx="128"
         id="circle6130"
         style="opacity:1;fill:#4285f4;fill-opacity:1;stroke:none;stroke-width:20.51976967;stroke-linecap:round;stroke-linejoin:round;stroke-miterlimit:4;stroke-dasharray:none;stroke-opacity:1" />
    </clipPath>
    <clipPath
       id="clipPath6618"
       clipPathUnits="userSpaceOnUse">
      <circle
         r="128"
         cy="925.362"
         cx="128"
         id="circle6620"
         style="opacity:1;fill:#4285f4;fill-opacity:1;stroke:none;stroke-width:20.51976967;stroke-linecap:round;stroke-linejoin:round;stroke-miterlimit:4;stroke-dasharray:none;stroke-opacity:1" />
    </clipPath>
    <clipPath
       clipPathUnits="userSpaceOnUse"
       id="clipPath6303">
      <circle
         r="103.42248"
         cy="917.89111"
         cx="129.64604"
         id="circle6305"
         style="opacity:1;fill:#7f76d5;fill-opacity:1;stroke:none;stroke-width:20.51976967;stroke-linecap:round;stroke-linejoin:round;stroke-miterlimit:4;stroke-dasharray:none;stroke-opacity:1" />
    </clipPath>
    <linearGradient
       x1="70.079597"
       y1="104.14981"
       x2="30.154556"
       y2="72.577919"
       id="linearGradient3964"
       xlink:href="#linearGradient9111"
       gradientUnits="userSpaceOnUse"
       gradientTransform="matrix(0.99887757,1.7001398e-4,-1.7001398e-4,0.99887757,74.902565,898.57659)" />
    <linearGradient
       id="linearGradient9111">
      <stop
         id="stop9113"
         style="stop-color:#729fcf;stop-opacity:1"
         offset="0" />
      <stop
         id="stop9115"
         style="stop-color:#ffffff;stop-opacity:1"
         offset="1" />
    </linearGradient>
    <radialGradient
       cx="78.836967"
       cy="65.425926"
       r="36.617115"
       fx="78.836967"
       fy="65.425926"
       id="radialGradient3966"
       xlink:href="#linearGradient9111"
       gradientUnits="userSpaceOnUse"
       gradientTransform="matrix(0.7838606,-0.35445714,0.14592105,0.32269526,83.180084,971.76961)"
       spreadMethod="pad" />
    <linearGradient
       x1="185.18442"
       y1="178.86754"
       x2="185.18442"
       y2="162.24416"
       id="linearGradient3968"
       xlink:href="#linearGradient9111"
       gradientUnits="userSpaceOnUse" />
    <radialGradient
       cx="185.18442"
       cy="162.24416"
       r="8.3116884"
       fx="185.18442"
       fy="162.24416"
       id="radialGradient3970"
       xlink:href="#linearGradient9111"
       gradientUnits="userSpaceOnUse"
       gradientTransform="matrix(1.765929,0,0,3.004776,-141.8381,-325.2632)" />
    <radialGradient
       cx="185.18442"
       cy="162.24416"
       r="8.3116884"
       fx="185.18442"
       fy="162.24416"
       id="radialGradient3974"
       xlink:href="#linearGradient9111"
       gradientUnits="userSpaceOnUse"
       gradientTransform="matrix(1.765929,0,0,3.004776,-141.8381,-325.2632)" />
    <radialGradient
       cx="46.132965"
       cy="72.531746"
       r="0.28773159"
       fx="46.132965"
       fy="72.531746"
       id="radialGradient3976"
       xlink:href="#linearGradient2762"
       gradientUnits="userSpaceOnUse"
       gradientTransform="matrix(5.2209775,-0.4611487,0.56362604,6.3811936,-164.31628,460.89795)" />
    <linearGradient
       id="linearGradient2762">
      <stop
         id="stop2764"
         style="stop-color:#000000;stop-opacity:0.70588237"
         offset="0" />
      <stop
         id="stop4540"
         style="stop-color:#000000;stop-opacity:0.35294119"
         offset="0.40000001" />
      <stop
         id="stop2766"
         style="stop-color:#000000;stop-opacity:0"
         offset="1" />
    </linearGradient>
    <radialGradient
       cx="46.132965"
       cy="72.531746"
       r="0.28773159"
       fx="46.132965"
       fy="72.531746"
       id="radialGradient3978"
       xlink:href="#linearGradient2762"
       gradientUnits="userSpaceOnUse"
       gradientTransform="matrix(5.1716587,0.85158045,-1.0408204,6.3209147,-39.205782,405.03164)" />
    <radialGradient
       cx="47.304798"
       cy="72.108414"
       r="0.50028783"
       fx="47.304798"
       fy="72.108414"
       id="radialGradient3980"
       xlink:href="#linearGradient12684"
       gradientUnits="userSpaceOnUse"
       gradientTransform="matrix(4.9764756,0.24657052,-0.89794109,18.123022,-49.764913,-422.14819)" />
    <linearGradient
       id="linearGradient12684">
      <stop
         id="stop12686"
         style="stop-color:#ffffff;stop-opacity:1"
         offset="0" />
      <stop
         id="stop12692"
         style="stop-color:#ffffff;stop-opacity:0.84536082"
         offset="0.34999999" />
      <stop
         id="stop12688"
         style="stop-color:#ffffff;stop-opacity:0"
         offset="1" />
    </linearGradient>
    <radialGradient
       cx="67.904976"
       cy="141.29233"
       r="21.288834"
       fx="67.904976"
       fy="141.29233"
       id="radialGradient3982"
       xlink:href="#linearGradient9111"
       gradientUnits="userSpaceOnUse"
       gradientTransform="matrix(3.2928969,-0.3347118,0.16776525,1.650469,-101.99239,818.31458)" />
    <linearGradient
       x1="32.877586"
       y1="104.45485"
       x2="82.408028"
       y2="62.983276"
       id="linearGradient3984"
       xlink:href="#linearGradient9111"
       gradientUnits="userSpaceOnUse"
       gradientTransform="matrix(0.99887757,1.7001398e-4,-1.7001398e-4,0.99887757,74.902565,898.57659)" />
    <clipPath
       id="clipPath8646"
       clipPathUnits="userSpaceOnUse">
      <circle
         r="115.93736"
         cy="919.25348"
         cx="130.47743"
         id="circle8648"
         style="opacity:1;fill:#7f76d5;fill-opacity:1;stroke:none;stroke-width:20.51976967;stroke-linecap:round;stroke-linejoin:round;stroke-miterlimit:4;stroke-dasharray:none;stroke-opacity:1" />
    </clipPath>
    <clipPath
       clipPathUnits="userSpaceOnUse"
       id="clipPath4448">
      <circle
         r="128"
         cy="128.00002"
         cx="128"
         id="circle4450"
         style="opacity:1;fill:#8dc458;fill-opacity:1;stroke:none;stroke-width:20.51976967;stroke-linecap:round;stroke-linejoin:round;stroke-miterlimit:4;stroke-dasharray:none;stroke-opacity:1" />
    </clipPath>
  </defs>
  <metadata
     id="metadata7">
    <rdf:RDF>
      <cc:Work
         rdf:about="">
        <dc:format>image/svg+xml</dc:format>
        <dc:type
           rdf:resource="http://purl.org/dc/dcmitype/StillImage" />
        <dc:title />
      </cc:Work>
    </rdf:RDF>
  </metadata>
  <g
     transform="translate(0,-796.36216)"
     id="layer1"
     inkscape:groupmode="layer"
     inkscape:label="Layer 1">
    <path
       inkscape:connector-curvature="0"
       id="path4913"
       d="M 154.47438,968.80998 101.03985,1048.476 0.4857685,1048.9618 0,842.0244 l 33.032258,-2.42884 45.176471,83.55218 21.373814,35.4611 26.717267,13.11575 z"
       style="fill:none;fill-rule:evenodd;stroke:none;stroke-width:1px;stroke-linecap:butt;stroke-linejoin:miter;stroke-opacity:1" />
    <circle
       style="opacity:1;fill:#31afe1;fill-opacity:1;stroke:none;stroke-width:20.51976967;stroke-linecap:round;stroke-linejoin:round;stroke-miterlimit:4;stroke-dasharray:none;stroke-opacity:1"
       id="path4152"
       cx="128"
       cy="924.36218"
       r="128" />
    <g
       id="g4307"
       transform="translate(0,796.36216)"
       clip-path="url(#clipPath4448)"
       style="fill:#2481a6;fill-opacity:1">
      <g
         id="g4309"
         style="fill:#2481a6;fill-opacity:1">
        <path
           id="path4311"
           d="M136.27344 25.34375C134.6242 25.357869 132.96922 25.924664 131.60156 27.072266L-80.530474356 239.204300356C-79.162814356 238.056698356 -77.507834356 237.489903356 -75.858594356 237.475784356Z"
           style="fill:#2481a6;fill-opacity:1" />
        <path
           id="path4313"
           d="M131.60156 27.072266L92.671875 59.738281L-119.460159356 271.870315356L-80.530474356 239.204300356Z"
           style="fill:#2481a6;fill-opacity:1" />
        <path
           id="path4315"
           d="M92.671875 59.738281L78.777344 161.4082L-133.354690356 373.540234356L-119.460159356 271.870315356Z"
           style="fill:#2481a6;fill-opacity:1" />
        <path
           id="path4317"
           d="M78.777344 161.4082L181.56641 75.158203L-30.565624356 287.290237356L-133.354690356 373.540234356Z"
           style="fill:#2481a6;fill-opacity:1" />
        <path
           id="path4319"
           d="M181.56641 75.158203L141.98047 27.980469L-70.151564356 240.112503356L-30.565624356 287.290237356Z"
           style="fill:#2481a6;fill-opacity:1" />
        <path
           id="path4321"
           d="M141.98047 27.980469C140.50498 26.222054 138.39389 25.325597 136.27344 25.34375L-75.858594356 237.475784356C-73.738144356 237.457631356 -71.627054356 238.354088356 -70.151564356 240.112503356Z"
           style="fill:#2481a6;fill-opacity:1" />
        <path
           id="path4323"
           d="M78.882812 71.308594L27.978516 114.02148L-184.153518356 326.153514356L-133.249222356 283.440628356Z"
           style="fill:#2481a6;fill-opacity:1" />
        <path
           id="path4325"
           d="M27.978516 114.02148C27.8091763769 114.163573399 27.6478322088 114.311549315 27.4945311365 114.464850388L-184.637503219 326.596884744C-184.484202147 326.443583671 -184.322857979 326.295607755 -184.153518356 326.153514356Z"
           style="fill:#2481a6;fill-opacity:1" />
        <path
           id="path4327"
           d="M27.4945311365 114.464850388C24.8178341601 117.141547364 24.5931982118 121.44169984 27.074219 124.39844L-185.057815356 336.530474356C-187.538836144 333.573734196 -187.314200196 329.27358172 -184.637503219 326.596884744Z"
           style="fill:#2481a6;fill-opacity:1" />
        <path
           id="path4329"
           d="M27.074219 124.39844L65.634766 170.35547L-146.497268356 382.487504356L-185.057815356 336.530474356Z"
           style="fill:#2481a6;fill-opacity:1" />
        <path
           id="path4331"
           d="M65.634766 170.35547C65.542976 169.77963 65.504656 169.18714 65.587891 168.57812L-146.544143356 380.710154356C-146.627378356 381.319174356 -146.589058356 381.911664356 -146.497268356 382.487504356Z"
           style="fill:#2481a6;fill-opacity:1" />
        <path
           id="path4333"
           d="M65.587891 168.57812L78.882812 71.308594L-133.249222356 283.440628356L-146.544143356 380.710154356Z"
           style="fill:#2481a6;fill-opacity:1" />
        <path
           id="path4335"
           d="M189.3418 84.423828L136.50977 128.75391L-75.622264356 340.885944356L-22.790234356 296.555862356Z"
           style="fill:#2481a6;fill-opacity:1" />
        <path
           id="path4337"
           d="M136.50977 128.75391C136.57667 128.82601 136.64696 128.89444 136.71094 128.9707L-75.421094356 341.102734356C-75.485074356 341.026474356 -75.555364356 340.958044356 -75.622264356 340.885944356Z"
           style="fill:#2481a6;fill-opacity:1" />
        <path
           id="path4339"
           d="M136.71094 128.9707L180.84375 181.56445L-31.288284356 393.696484356L-75.421094356 341.102734356Z"
           style="fill:#2481a6;fill-opacity:1" />
        <path
           id="path4341"
           d="M180.84375 181.56445L228.01953 141.97852L15.887495644 354.110554356L-31.288284356 393.696484356Z"
           style="fill:#2481a6;fill-opacity:1" />
        <path
           id="path4343"
           d="M228.01953 141.97852C228.189007398 141.836311175 228.350487721 141.688210272 228.503921982 141.534776012L16.3718876259 353.666810368C16.2184533655 353.820244628 16.0569730425 353.968345531 15.887495644 354.110554356Z"
           style="fill:#2481a6;fill-opacity:1" />
        <path
           id="path4345"
           d="M228.503921982 141.534776012C231.180645473 138.85805252 231.408611717 134.558162602 228.92773 131.60156L16.795695644 343.733594356C19.2765773611 346.690196958 19.0486111174 350.990086876 16.3718876259 353.666810368Z"
           style="fill:#2481a6;fill-opacity:1" />
        <path
           id="path4347"
           d="M228.92773 131.60156L189.3418 84.423828L-22.790234356 296.555862356L16.795695644 343.733594356Z"
           style="fill:#2481a6;fill-opacity:1" />
        <path
           id="path4349"
           d="M127.26562 136.50977L74.435547 180.83984L-137.696487356 392.971874356L-84.866414356 348.641804356Z"
           style="fill:#2481a6;fill-opacity:1" />
        <path
           id="path4351"
           d="M74.435547 180.83984L74.435547 180.8418L-137.696487356 392.973834356L-137.696487356 392.971874356Z"
           style="fill:#2481a6;fill-opacity:1" />
        <path
           id="path4353"
           d="M74.435547 180.8418L114.02148 228.01953L-98.110554356 440.151564356L-137.696487356 392.973834356Z"
           style="fill:#2481a6;fill-opacity:1" />
        <path
           id="path4355"
           d="M114.02148 228.01953C116.64457 231.14563 121.27223 231.55058 124.39844 228.92578L-87.733594356 441.057814356C-90.859804356 443.682614356 -95.487464356 443.277664356 -98.110554356 440.151564356Z"
           style="fill:#2481a6;fill-opacity:1" />
        <path
           id="path4357"
           d="M124.39844 228.92578L171.57617 189.33984L-40.555864356 401.471874356L-87.733594356 441.057814356Z"
           style="fill:#2481a6;fill-opacity:1" />
        <path
           id="path4359"
           d="M171.57617 189.33984L127.44531 136.74609L-84.686724356 348.878124356L-40.555864356 401.471874356Z"
           style="fill:#2481a6;fill-opacity:1" />
        <path
           id="path4361"
           d="M127.44531 136.74609C127.38141 136.66989 127.32485 136.58844 127.26562 136.50977L-84.866414356 348.641804356C-84.807184356 348.720474356 -84.750624356 348.801924356 -84.686724356 348.878124356Z"
           style="fill:#2481a6;fill-opacity:1" />
      </g>
      <path
         id="rect4230"
         transform=""
         d="M 136.27344 25.34375 C 134.6242 25.357869 132.96922 25.924664 131.60156 27.072266 L 92.671875 59.738281 L 78.777344 161.4082 L 181.56641 75.158203 L 141.98047 27.980469 C 140.50498 26.222054 138.39389 25.325597 136.27344 25.34375 z M 78.882812 71.308594 L 27.978516 114.02148 C 24.85244 116.64458 24.451104 121.27236 27.074219 124.39844 L 65.634766 170.35547 C 65.542976 169.77963 65.504656 169.18714 65.587891 168.57812 L 78.882812 71.308594 z M 189.3418 84.423828 L 136.50977 128.75391 C 136.57667 128.82601 136.64696 128.89444 136.71094 128.9707 L 180.84375 181.56445 L 228.01953 141.97852 C 231.14561 139.35542 231.55082 134.72764 228.92773 131.60156 L 189.3418 84.423828 z M 127.26562 136.50977 L 74.435547 180.83984 L 74.435547 180.8418 L 114.02148 228.01953 C 116.64457 231.14563 121.27223 231.55058 124.39844 228.92578 L 171.57617 189.33984 L 127.44531 136.74609 C 127.38141 136.66989 127.32485 136.58844 127.26562 136.50977 z "
         style="fill:#2481a6;fill-opacity:1" />
    </g>
    <path
       style="fill:#ffffff;fill-opacity:1"
       d="m 27.979409,910.38385 c -3.12608,2.6231 -3.52928,7.25093 -0.90616,10.37701 l 38.56239,45.95687 c -0.0918,-0.57584 -0.13071,-1.16777 -0.0475,-1.77678 l 13.29459,-97.27005 -50.90332,42.71296 z m 64.69292,-54.2838 -13.89587,101.66996 102.789411,-86.25057 -39.58598,-47.17673 c -2.62309,-3.12607 -7.25244,-3.53108 -10.37852,-0.90799 l -38.929041,32.66533 z m -18.23746,121.10421 39.585981,47.17674 c 2.62309,3.1261 7.25063,3.5326 10.37684,0.9078 l 47.17856,-39.58748 -44.13141,-52.59376 c -0.0639,-0.0762 -0.11972,-0.1567 -0.17895,-0.23537 l -52.830861,44.33037 z m 62.075801,-52.08779 c 0.0669,0.0721 0.13674,0.14086 0.20072,0.21712 l 44.13139,52.59376 47.17674,-39.58598 c 3.12608,-2.6231 3.5311,-7.25244 0.90801,-10.37852 l -39.58598,-47.17674 -52.83085,44.33035 z"
       id="path4249"
       inkscape:connector-curvature="0" />
  </g>
</svg>
