<?xml version="1.0" encoding="UTF-8" standalone="no"?>
<!-- Created with Inkscape (http://www.inkscape.org/) -->

<svg
   xmlns:dc="http://purl.org/dc/elements/1.1/"
   xmlns:cc="http://creativecommons.org/ns#"
   xmlns:rdf="http://www.w3.org/1999/02/22-rdf-syntax-ns#"
   xmlns:svg="http://www.w3.org/2000/svg"
   xmlns="http://www.w3.org/2000/svg"
   xmlns:sodipodi="http://sodipodi.sourceforge.net/DTD/sodipodi-0.dtd"
   xmlns:inkscape="http://www.inkscape.org/namespaces/inkscape"
   sodipodi:docname="konqueror.svg"
   inkscape:version="0.92.1 r15371"
   version="1.1"
   id="svg2"
   viewBox="0 0 256 256"
   height="256"
   width="256">
  <sodipodi:namedview
     inkscape:window-maximized="1"
     inkscape:window-y="27"
     inkscape:window-x="0"
     inkscape:window-height="1016"
     inkscape:window-width="1920"
     units="px"
     showgrid="true"
     inkscape:current-layer="layer1"
     inkscape:document-units="px"
     inkscape:cy="128"
     inkscape:cx="128"
     inkscape:zoom="3.2148438"
     inkscape:pageshadow="2"
     inkscape:pageopacity="0.0"
     borderopacity="1.0"
     bordercolor="#666666"
     pagecolor="#ffffff"
     id="base">
    <inkscape:grid
       type="xygrid"
       id="grid4168"
       spacingx="5"
       spacingy="5" />
  </sodipodi:namedview>
  <defs
     id="defs4">
    <clipPath
       clipPathUnits="userSpaceOnUse"
       id="clipPath5002">
      <g
         id="g5004">
        <path
           transform="translate(0,796.36216)"
           inkscape:connector-curvature="0"
           id="path5006"
           d="M 88.118406,249.43519 C 46.103287,235.29134 14.771284,201.68742 4.1335861,159.36053 1.3377997,148.23623 0.92261224,144.16281 0.92582381,127.88908 0.92787958,117.47222 1.134384,112.01362 1.6577819,108.54099 4.4653598,89.913336 12.17654,70.638106 23.042737,55.086148 c 3.958678,-5.665755 8.344812,-10.93092 9.101533,-10.925587 0.32809,0.0023 10.488643,18.309713 22.579009,40.683112 12.090365,22.373397 22.374546,41.334697 22.853732,42.136217 0.479186,0.80151 0.924733,2.44098 0.990103,3.64326 0.343424,6.31639 2.524175,14.20976 5.6424,20.42304 2.954444,5.88693 5.065381,8.73258 10.434696,14.06652 6.71418,6.66995 12.88853,10.28643 21.73204,12.72904 3.16587,0.87442 5.10478,1.05037 11.57517,1.05037 8.82596,0 12.60219,-0.76201 19.26429,-3.88733 2.04584,-0.95974 3.93661,-1.66536 4.20172,-1.56805 0.2651,0.0973 -11.0555,17.66459 -25.1569,39.0384 l -25.6389,38.86148 -3.094121,0.11221 c -2.554618,0.0927 -4.195204,-0.25845 -9.409103,-2.01364 z"
           style="fill:#0f9d58;fill-opacity:1;stroke:none;stroke-width:4.85768509;stroke-linejoin:round;stroke-miterlimit:4;stroke-dasharray:none;stroke-opacity:1" />
        <path
           inkscape:connector-curvature="0"
           id="path5008"
           d="m 112.35984,1051.5167 c -10.0014,-1.4495 -12.15632,-1.8201 -12.531784,-2.1556 -0.248854,-0.2223 1.738304,-3.7475 4.550294,-8.0722 7.16635,-11.0213 49.77231,-74.64801 50.25856,-75.05489 3.57509,-2.99158 8.63523,-8.0414 10.57512,-10.55356 3.36154,-4.35318 7.55784,-12.9141 9.06523,-18.494 6.19314,-22.92535 -2.59253,-47.15185 -21.69967,-59.83688 l -2.96081,-1.96565 17.02469,0.29584 c 9.36358,0.1627 31.17032,0.43384 48.45941,0.60252 l 31.43471,0.30668 1.54584,4.18869 c 2.24597,6.08579 4.67816,15.0947 5.93451,21.9816 1.52517,8.36049 1.92536,28.85896 0.73851,37.82758 -3.0805,23.27845 -12.81326,45.72018 -27.80202,64.10577 -20.47622,25.1166 -51.4599,42.1974 -84.14612,46.3885 -5.31244,0.6812 -26.64601,0.9864 -30.44647,0.4356 z"
           style="fill:#f4b400;fill-opacity:1;stroke:none;stroke-width:4.85768509;stroke-linejoin:round;stroke-miterlimit:4;stroke-dasharray:none;stroke-opacity:1" />
        <path
           transform="translate(0,796.36216)"
           inkscape:connector-curvature="0"
           id="path5010"
           d="M 67.989788,108.87302 C 41.284246,59.575543 33.290284,45.149038 32.233625,44.344765 31.651257,43.901497 32.811213,42.549931 38.695603,36.815353 53.43581,22.450419 68.809334,13.040746 87.839196,6.7360352 101.68742,2.1480329 112.58238,0.43719165 127.95142,0.43719165 c 21.3099,0 37.80488,3.80960275 56.83492,13.12633035 25.29351,12.383198 46.19421,33.578863 58.51993,59.345832 1.61138,3.368591 2.92978,6.372442 2.92978,6.675231 0,0.560033 -10.54865,0.49527 -71.16508,-0.436914 l -24.28843,-0.373518 -3.93063,-1.764495 c -6.75732,-3.033425 -10.64587,-3.839529 -18.6576,-3.867747 -5.0296,-0.01773 -7.97946,0.207636 -10.31642,0.788106 -14.50826,3.603659 -26.283291,12.94777 -33.291614,26.418653 -3.58502,6.89086 -5.24713,13.08166 -6.331628,23.58317 l -0.33738,3.26696 -9.92748,-18.32578 z"
           style="fill:#db4437;fill-opacity:1;stroke:none;stroke-width:10;stroke-linejoin:round;stroke-miterlimit:4;stroke-dasharray:none;stroke-opacity:1" />
      </g>
    </clipPath>
    <clipPath
       id="clipPath4271"
       clipPathUnits="userSpaceOnUse">
      <circle
         r="128"
         cy="128.00002"
         cx="128"
         id="circle4273"
         style="fill:#292929;fill-opacity:0.26020412;stroke:none;stroke-width:10;stroke-linejoin:round;stroke-miterlimit:4;stroke-dasharray:none;stroke-opacity:0.25882353" />
    </clipPath>
    <clipPath
       clipPathUnits="userSpaceOnUse"
       id="clipPath4363">
      <circle
         r="128"
         cy="924.36218"
         cx="128"
         id="circle4365"
         style="fill:#4285f4;fill-opacity:1;stroke:none;stroke-width:10;stroke-linejoin:round;stroke-miterlimit:4;stroke-dasharray:none;stroke-opacity:0.25882353" />
    </clipPath>
    <clipPath
       id="clipPath4452"
       clipPathUnits="userSpaceOnUse">
      <circle
         r="128"
         cy="924.36218"
         cx="128"
         id="circle4454"
         style="fill:#4285f4;fill-opacity:1;stroke:none;stroke-width:10;stroke-linejoin:round;stroke-miterlimit:4;stroke-dasharray:none;stroke-opacity:0.25882353" />
    </clipPath>
    <clipPath
       clipPathUnits="userSpaceOnUse"
       id="clipPath5177">
      <circle
         r="128"
         cy="924.36218"
         cx="128"
         id="circle5179"
         style="fill:#4285f4;fill-opacity:1;stroke:none;stroke-width:10;stroke-linejoin:round;stroke-miterlimit:4;stroke-dasharray:none;stroke-opacity:0.25882353" />
    </clipPath>
    <clipPath
       id="clipPath4342"
       clipPathUnits="userSpaceOnUse">
      <circle
         r="128"
         cy="933.48718"
         cx="128"
         id="circle4344"
         style="fill:#4285f4;fill-opacity:1;stroke:none;stroke-width:10;stroke-linejoin:round;stroke-miterlimit:4;stroke-dasharray:none;stroke-opacity:0.25882353" />
    </clipPath>
    <clipPath
       clipPathUnits="userSpaceOnUse"
       id="clipPath4681">
      <circle
         r="128"
         cy="930.43964"
         cx="127.00293"
         id="circle4683"
         style="fill:#9d5fad;fill-opacity:1;stroke:none;stroke-width:10;stroke-linejoin:round;stroke-miterlimit:4;stroke-dasharray:none;stroke-opacity:0.25882353" />
    </clipPath>
    <clipPath
       id="clipPath4235"
       clipPathUnits="userSpaceOnUse">
      <circle
         r="128"
         cy="924.36218"
         cx="128"
         id="circle4237"
         style="fill:#0f9d58;fill-opacity:1;stroke:none;stroke-width:10;stroke-linejoin:round;stroke-miterlimit:4;stroke-dasharray:none;stroke-opacity:0.25882353" />
    </clipPath>
    <clipPath
       clipPathUnits="userSpaceOnUse"
       id="clipPath4771">
      <circle
         r="128"
         cy="924.36218"
         cx="128"
         id="circle4773"
         style="fill:#0f9d58;fill-opacity:1;stroke:none;stroke-width:10;stroke-linejoin:round;stroke-miterlimit:4;stroke-dasharray:none;stroke-opacity:0.25882353" />
    </clipPath>
    <clipPath
       id="clipPath4842"
       clipPathUnits="userSpaceOnUse">
      <circle
         r="128"
         cy="924.36218"
         cx="128"
         id="circle4844"
         style="fill:#0f9d58;fill-opacity:1;stroke:none;stroke-width:10;stroke-linejoin:round;stroke-miterlimit:4;stroke-dasharray:none;stroke-opacity:0.25882353" />
    </clipPath>
    <clipPath
       clipPathUnits="userSpaceOnUse"
       id="clipPath4458">
      <circle
         r="128"
         cy="924.36218"
         cx="128"
         id="circle4460"
         style="fill:#ff3b38;fill-opacity:1;stroke:none;stroke-width:10;stroke-linejoin:round;stroke-miterlimit:4;stroke-dasharray:none;stroke-opacity:0.25882353" />
    </clipPath>
    <clipPath
       id="clipPath4783"
       clipPathUnits="userSpaceOnUse">
      <circle
         r="128"
         cy="924.36218"
         cx="128"
         id="circle4785"
         style="fill:#ff3b38;fill-opacity:1;stroke:none;stroke-width:10;stroke-linejoin:round;stroke-miterlimit:4;stroke-dasharray:none;stroke-opacity:0.25882353" />
    </clipPath>
    <clipPath
       clipPathUnits="userSpaceOnUse"
       id="clipPath4789">
      <circle
         r="128"
         cy="924.36218"
         cx="102.64714"
         id="circle4791"
         style="fill:#80b4ff;fill-opacity:1;stroke:none;stroke-width:10;stroke-linejoin:round;stroke-miterlimit:4;stroke-dasharray:none;stroke-opacity:0.25882353" />
    </clipPath>
    <clipPath
       id="clipPath4721"
       clipPathUnits="userSpaceOnUse">
      <circle
         r="128"
         cy="924.36218"
         cx="128"
         id="circle4723"
         style="fill:#557ae6;fill-opacity:1;stroke:none;stroke-width:10;stroke-linejoin:round;stroke-miterlimit:4;stroke-dasharray:none;stroke-opacity:0.25882353" />
    </clipPath>
    <clipPath
       clipPathUnits="userSpaceOnUse"
       id="clipPath4491">
      <circle
         r="128"
         cy="924.36218"
         cx="128"
         id="circle4493"
         style="fill:#990000;fill-opacity:1;stroke:none;stroke-width:10;stroke-linejoin:round;stroke-miterlimit:4;stroke-dasharray:none;stroke-opacity:0.25882353" />
    </clipPath>
    <clipPath
       id="clipPath1102"
       clipPathUnits="userSpaceOnUse">
      <circle
         r="128"
         cy="924.36218"
         cx="128"
         id="circle1104"
         style="fill:#b40000;fill-opacity:1;stroke:none;stroke-width:10;stroke-linejoin:round;stroke-miterlimit:4;stroke-dasharray:none;stroke-opacity:0.25882353" />
    </clipPath>
    <clipPath
       clipPathUnits="userSpaceOnUse"
       id="clipPath5083">
      <circle
         style="fill:#50a9ff;fill-opacity:1;stroke-width:1.6778121"
         id="circle5085"
         cx="128"
         cy="924.36218"
         r="112.94118" />
    </clipPath>
  </defs>
  <metadata
     id="metadata7">
    <rdf:RDF>
      <cc:Work
         rdf:about="">
        <dc:format>image/svg+xml</dc:format>
        <dc:type
           rdf:resource="http://purl.org/dc/dcmitype/StillImage" />
        <dc:title />
      </cc:Work>
    </rdf:RDF>
  </metadata>
  <g
     transform="translate(0,-796.36216)"
     id="layer1"
     inkscape:groupmode="layer"
     inkscape:label="Layer 1">
    <circle
       r="128"
       cy="924.36218"
       cx="128"
       id="path4559"
       style="fill:#50a9ff;fill-opacity:1;stroke-width:1.90152037" />
    <g
       transform="matrix(1.1333333,0,0,1.1333333,-17.066664,-123.24826)"
       id="g4635">
      <polygon
         id="polygon239-7-7"
         points="388.551,252.99 382.525,260.019 377.505,259.015 384.534,252.99 "
         style="fill:#ffffff;fill-opacity:1"
         transform="matrix(0.30806666,0,0,0.30806666,49.610281,845.46025)" />
      <path
         d="m 168.07239,926.49136 0.61859,0.9279 0.61891,1.5468 h 1.85579 l 0.92821,-1.23719 h 1.5468 l 0.3093,1.85579 1.85579,0.92821 c 0,0 1.54681,-0.92821 2.1654,-1.23751 0.6186,-0.30961 -0.61859,4.6401 -1.2375,5.568 -0.6186,0.9279 -1.85579,2.784 -1.85579,3.40259 0,0.61891 -1.23751,1.8558 -1.54681,2.16541 -0.3096,0.30929 -3.4029,0.30929 -3.0936,-0.30961 0.30961,-0.6186 0.30961,-0.9279 0.30961,-0.9279 l -3.40291,-1.2375 -0.6186,-6.4962 v -2.4747 l -0.9282,-0.3093 0.6189,-1.54681 1.2372,0.92821 z"
         id="path241-6-9"
         style="fill:#ffffff;fill-opacity:1;stroke-width:0.30806667"
         inkscape:connector-curvature="0" />
      <polygon
         id="polygon243-1-3"
         points="358.427,314.241 358.427,307.212 361.439,303.196 364.451,293.154 366.46,293.154 367.464,303.196 362.443,308.217 362.443,315.245 "
         style="fill:#ffffff;fill-opacity:1"
         transform="matrix(0.30806666,0,0,0.30806666,49.610281,845.46025)" />
      <polygon
         id="polygon245-8-1"
         points="336.336,279.097 328.303,291.146 332.319,293.154 347.382,273.072 "
         style="fill:#ffffff;fill-opacity:1"
         transform="matrix(0.30806666,0,0,0.30806666,49.610281,845.46025)" />
      <path
         d="m 131.5708,873.28545 2.784,0.6186 h 0.92789 l -5.56799,4.6401 -4.3308,2.47469 -0.3093,-1.8561 c 0,0 0.6186,-1.5468 1.5468,-2.1654 0.92821,-0.6186 3.4026,-3.09329 3.7122,-3.40259 0.30899,-0.3093 1.2372,-0.3093 1.2372,-0.3093 z"
         id="path247-9-9"
         style="fill:#ffffff;fill-opacity:1;stroke-width:0.30806667"
         inkscape:connector-curvature="0" />
      <path
         d="m 137.75739,873.59475 c 0,0 -0.30929,1.2375 0.3093,1.54683 0.61891,0.30927 1.54681,0.30927 1.8561,0.30927 0.3093,0 1.2372,-0.30927 1.2372,-0.30927 l -0.6186,-0.92793 z"
         id="path249-2-8"
         style="fill:#ffffff;fill-opacity:1;stroke-width:0.30806667"
         inkscape:connector-curvature="0" />
      <polygon
         id="polygon251-7-6"
         points="274.08,105.384 275.085,111.409 272.072,113.417 267.052,111.409 269.06,106.388 "
         style="fill:#ffffff;fill-opacity:1"
         transform="matrix(0.30806666,0,0,0.30806666,49.610281,845.46025)" />
      <path
         d="m 181.59251,916.18407 c -1.15433,-19.07795 -13.68155,-35.08571 -30.89354,-41.3293 l -4.58927,0.28681 -1.54681,1.5468 -1.85579,-1.5468 v 1.8561 l 0.9279,0.9279 -0.6186,0.3093 -3.0933,0.6186 -8.04269,3.71189 0.61859,4.0215 -0.61859,-0.3093 -0.61891,1.23751 2.1654,4.0215 -0.3093,0.9279 -1.5468,0.3093 0.3093,2.78399 h -1.23751 v 2.1654 l -10.20809,8.04267 0.3093,3.09361 6.49589,7.11479 6.1869,-0.30929 3.0933,-0.3093 v 2.4747 l 1.2375,3.09329 0.92821,2.4747 v 6.18691 l 1.85579,3.71223 2.1654,5.568 4.94909,-0.92821 1.8558,-1.85579 3.0936,-5.87761 5.8773,-4.3308 0.9282,-3.09329 6.4959,-6.1866 0.3096,2.1654 1.8558,0.3093 0.3093,-3.0936 -1.23751,-1.85611 -2.4747,-1.23722 2.784,-0.61857 1.23751,0.3093 v -1.54683 l 1.5468,0.61859 -0.6186,2.1654 -0.3093,2.1654 1.23751,0.9279 c 0,0 0.61859,-0.9279 1.5468,-1.85579 0.92789,-0.92818 2.784,-1.8561 3.40259,-1.23748 0.61891,0.61857 -0.30929,4.02151 -0.30929,4.02151 l -0.92821,1.2375 -0.6186,2.47439 -0.9282,-0.3093 -0.6186,-2.16509 h -1.5468 l -0.92821,2.47439 1.5468,1.5468 h 2.784 l 2.4747,-2.47439 c 0,0 -0.9282,-5.56799 1.23751,-4.9494 2.16509,0.6186 1.5468,5.568 1.5468,5.568 z m -44.14441,-18.4609 c -0.3093,0 -2.784,0 -2.784,0 l 1.5468,-1.2375 1.2375,-1.2375 c 0.3093,0 2.784,0.61859 2.784,0.61859 l 2.16509,1.54681 -0.92789,0.9282 c 0,0 -3.71221,-0.6186 -4.0215,-0.6186 z m 14.53858,0 -0.30929,0.61857 -2.4747,0.3093 -0.3093,0.92821 -1.8558,0.30929 -0.3096,0.6186 -3.0933,-0.92789 -1.2375,-0.6186 1.5468,-1.23751 0.30961,-0.92789 h 0.92789 l 0.61891,0.61859 2.4747,-0.30929 0.6186,-1.23751 2.1654,0.92821 1.85579,0.3093 -0.92821,0.61859 z m 2.47501,-3.0936 -1.5468,0.61857 -1.85579,0.61859 -0.30961,-1.2375 1.8561,-0.61857 0.3093,-1.2375 1.5468,1.5468 z m 7.11449,19.79787 c 0,0 -1.5468,-3.71189 -2.16509,-4.64007 -0.6189,-0.92792 -3.7122,-6.18693 -3.7122,-6.18693 0,0 3.40259,4.02153 4.6401,5.87763 1.2375,1.8558 2.1654,3.7119 2.1654,3.7119 l 0.9282,1.23747 z"
         id="path253-9-5"
         style="fill:#ffffff;fill-opacity:1;stroke-width:0.30806667"
         inkscape:connector-curvature="0" />
      <path
         d="m 141.15999,961.13716 -1.2372,0.30929 v 0.9279 l -1.8561,-0.6186 -0.92789,-1.85579 -1.85611,0.9279 -1.85579,1.2375 -3.0933,-0.6186 -0.6189,-0.9282 -5.568,-0.3093 -1.5468,1.2375 -1.5468,-0.6189 0.30929,-1.8558 -1.85579,-0.3093 -0.9282,2.1651 -4.6401,-0.3093 2.8148,2.03324 c 5.52056,2.27661 11.56821,3.53506 17.91069,3.53506 4.73313,0 9.30176,-0.70177 13.611,-2.00335 v -1.39924 h -4.64041 z"
         id="path255-5-0"
         style="fill:#ffffff;fill-opacity:1;stroke-width:0.30806667"
         inkscape:connector-curvature="0" />
      <g
         id="g4608">
        <path
           inkscape:connector-curvature="0"
           style="fill:#ffffff;fill-opacity:1;stroke-width:0.30806667"
           id="path259-3-2"
           d="m 71.772812,849.54047 c -0.236904,0 -0.474731,0.09 -0.654642,0.26956 l -5.400809,5.39117 c -0.359822,0.35923 -0.360099,0.94976 0,1.30928 l 7.605427,7.62465 -1.915805,1.9158 c -0.59919,0.59919 -0.723711,1.68559 -0.27917,2.40677 l 13.593441,22.03641 c -2.133238,3.71966 -3.865004,7.69776 -5.131251,11.87979 l -25.078567,4.65951 C 53.678424,907.18778 53,908.00576 53,908.85294 v 16.09649 c 0,0.84718 0.677438,1.70154 1.501825,1.89655 l 24.221741,5.74735 c 1.238305,5.1404 3.174565,10.00903 5.689621,14.50803 l -14.151843,20.60196 c -0.479629,0.69836 -0.377751,1.75974 0.221439,2.35862 l 11.379212,11.37921 c 0.357665,0.35736 0.89364,0.54876 1.415166,0.54876 0.352736,0 0.700482,-0.0903 0.991605,-0.26956 L 105.4676,968.64674 c 4.18022,2.46719 8.69651,4.43256 13.46828,5.7859 l 4.31293,23.23977 c 0.15437,0.83302 0.97235,1.51144 1.81953,1.51144 h 16.09649 c 0.84718,0 1.70154,-0.67744 1.89655,-1.50182 l 5.39116,-22.73914 c 5.35808,-1.31757 10.41657,-3.38338 15.06637,-6.08432 l 19.77403,13.5838 c 0.29852,0.20517 0.66318,0.30806 1.03009,0.30806 0.49108,0 0.98535,-0.17698 1.32856,-0.51986 l 2.76296,-2.76299 7.6054,7.61504 c 0.1796,0.17991 0.41773,0.26956 0.65464,0.26956 0.2369,0 0.47473,-0.0903 0.65464,-0.26956 l 5.40078,-5.39116 c 0.35985,-0.35921 0.36013,-0.94947 0,-1.30929 l -7.61501,-7.61504 1.92542,-1.92541 c 0.59888,-0.59888 0.72371,-1.67595 0.2792,-2.39713 l -12.76554,-20.69823 c 1.82455,-3.16717 3.35182,-6.52112 4.55362,-10.03142 l -8.15412,-1.98318 c -6.82864,18.96027 -24.97377,32.52029 -46.28702,32.52029 -27.16381,0 -49.184782,-22.02067 -49.184782,-49.18475 0,-20.98273 13.134884,-38.89361 31.634592,-45.95973 l -1.65586,-8.2889 c -3.18768,1.12835 -6.2442,2.53206 -9.14572,4.17815 L 85.154457,854.45993 c -0.298516,-0.20518 -0.663483,-0.30807 -1.030113,-0.30807 -0.491058,0 -0.985628,0.17698 -1.328507,0.51986 l -2.762988,2.76296 -7.605396,-7.62465 c -0.179602,-0.18022 -0.417738,-0.26956 -0.654641,-0.26956 z m 41.386818,19.48522 0.44287,2.19497 c -18.76711,8.28484 -31.201388,27.192 -31.201388,47.84664 0,28.81898 23.446118,52.26541 52.265448,52.26541 21.04558,0 40.06404,-12.73988 48.17393,-31.97152 l 2.15646,0.51983 c -8.36925,20.25295 -28.18255,33.64667 -50.33039,33.64667 -14.54567,0 -28.22294,-5.66698 -38.508331,-15.95206 -10.285453,-10.28512 -15.952092,-23.96235 -15.952092,-38.50833 0,-11.48288 3.533309,-22.46041 10.21435,-31.75016 5.840605,-8.12094 13.650863,-14.39191 22.739143,-18.29145 z" />
        <path
           inkscape:connector-curvature="0"
           style="fill:#ffffff;fill-opacity:1;stroke-width:0.30806667"
           id="path275-8-8"
           d="m 115.46169,864.81734 c -22.333913,7.90558 -38.334587,29.2078 -38.334587,54.25023 0,31.77677 25.760227,57.53669 57.536687,57.53669 25.25037,0 46.69982,-16.26623 54.44585,-38.89126 l -8.15976,-1.9781 c -6.82861,18.96027 -24.97281,32.51736 -46.28609,32.51736 -27.16378,0 -49.184692,-22.02029 -49.184692,-49.18438 0,-20.98273 13.140891,-38.89341 31.640602,-45.95954 z" />
      </g>
      <path
         d="m 129.0961,882.56568 -5.8776,-0.3093 -1.54681,-0.92821 2.1654,-2.78399 1.23751,-2.1654 -1.8561,-1.54681 -1.54681,3.0933 -1.5468,1.5468 h -3.7122 l 2.1654,-2.4747 -0.22674,-2.04094 c -14.5771,5.39271 -25.750675,17.80379 -29.417593,33.13165 l 0.725189,1.45007 c 0,0 1.232267,0.61613 0.9242,2.15646 -0.308066,1.54034 -1.540333,2.46454 -1.540333,2.46454 l -1.329924,2.39398 c -0.04405,0.83271 -0.06808,1.67065 -0.06808,2.51444 0,8.21706 2.109948,15.9403 5.81445,22.66139 1.34009,1.90785 6.868341,7.9629 6.868341,7.9629 l 1.8561,-1.2375 -3.40259,-6.80519 c 0,0 4.6401,-8.0427 5.2587,-8.352 0.61859,-0.30961 2.1654,-0.30961 2.1654,-0.30961 0,0 0.92789,0.30961 1.5468,0 0.6186,-0.30929 2.784,-7.11479 2.784,-7.11479 0,0 2.4747,-0.9279 2.784,-1.23751 0.3093,-0.3093 0.92789,-1.85579 -0.6186,-3.0933 -1.5468,-1.23719 -4.9494,-3.40259 -4.9494,-3.40259 0,0 -0.3093,-1.23751 -0.3093,-1.8558 0,-0.61859 -13.610691,-5.8776 -13.610691,-5.8776 l -0.928204,-1.2375 c 0,0 0.618597,-1.54681 0.928204,-1.8558 0.309299,-0.3093 -0.309299,-2.1654 -0.309299,-2.1654 0,0 0.309299,-4.9494 1.856102,-5.56799 1.546803,-0.6186 2.783998,-0.3093 2.165401,0.61859 -0.618598,0.92821 -1.546803,1.54681 -1.546803,1.54681 l -1.237504,0.61859 1.237504,1.8558 2.1654,0.3093 0.618598,-0.92821 -1.546802,-1.5468 1.546802,-0.6186 3.711892,-6.49589 c 0,0 8.0427,-3.4026 9.2802,-4.0215 1.2372,-0.6186 2.1654,-1.54681 2.4747,-1.54681 0.3093,0 1.5468,-0.3093 2.1654,-0.3093 0.6186,0 1.23751,-0.30929 1.23751,-0.61859 0,-0.3093 0.30929,-1.54681 0.61859,-1.85611 0.24214,-0.24214 0.86136,-0.67251 1.12013,-0.84841 -0.24861,0.2024 -0.67343,0.7945 1.04527,1.77662 2.1654,1.2375 2.4747,0 2.4747,0 l -0.3093,-1.2375 2.1654,0.30929 5.2587,-0.61859 0.92821,-2.1654 z"
         id="path281-2-6"
         style="fill:#ffffff;fill-opacity:1;stroke-width:0.30806667"
         inkscape:connector-curvature="0" />
      <path
         d="m 134.66154,871.99493 c -25.97532,0 -47.056659,21.09076 -47.056659,47.06605 0,25.97529 21.081339,47.05669 47.056659,47.05669 25.97532,0 47.06609,-21.0814 47.06609,-47.05669 0,-25.97529 -21.09077,-47.06605 -47.06609,-47.06605 z m 0,2.47023 c 24.64336,0 44.59582,19.95243 44.59582,44.59582 0,24.64339 -19.95246,44.58643 -44.59582,44.58643 -24.64336,0 -44.586457,-19.94304 -44.586457,-44.58643 0,-24.64339 19.943097,-44.59582 44.586457,-44.59582 z"
         id="path4615"
         style="color:#000000;font-style:normal;font-variant:normal;font-weight:normal;font-stretch:normal;font-size:medium;line-height:normal;font-family:Sans;-inkscape-font-specification:Sans;text-indent:0;text-align:start;text-decoration:none;text-decoration-line:none;letter-spacing:normal;word-spacing:normal;text-transform:none;writing-mode:lr-tb;direction:ltr;baseline-shift:baseline;text-anchor:start;display:inline;overflow:visible;visibility:visible;fill:#ffffff;fill-opacity:1;stroke:none;stroke-width:2.5260725;marker:none;enable-background:accumulate"
         inkscape:connector-curvature="0" />
    </g>
    <g
       id="g4665"
       transform="matrix(1.1333333,0,0,1.1333333,-17.066664,-123.24826)"
       clip-path="url(#clipPath5083)">
      <g
         id="g4659"
         style="fill:#236dd8;fill-opacity:1">
        <g
           id="g4915"
           transform="matrix(0.88235297,0,0,0.88235297,15.058822,811.42098)"
           style="fill:#236dd8;fill-opacity:1">
          <g
             id="g4912"
             style="fill:#236dd8;fill-opacity:1;stroke-width:0.34914222">
            <path
               id="path4738"
               d="M64.275391 43.201172C64.006899 43.201172 63.737102 43.304311 63.533203 43.507812L-77.8881532373 184.929168237C-77.6842542373 184.725667237 -77.4144572373 184.622528237 -77.1459652373 184.622528237Z"
               style="fill:#236dd8;fill-opacity:1" />
            <path
               id="path4740"
               d="M63.533203 43.507812L57.412109 49.617188L-84.0092472373 191.038544237L-77.8881532373 184.929168237Z"
               style="fill:#236dd8;fill-opacity:1" />
            <path
               id="path4742"
               d="M57.412109 49.617188C57.4119048021 49.6173918619 57.4117007064 49.6175957897 57.4114967128 49.6177997832L-84.0098595245 191.039156021C-84.0096555309 191.038952027 -84.0094514352 191.038748099 -84.0092472373 191.038544237Z"
               style="fill:#236dd8;fill-opacity:1" />
            <path
               id="path4744"
               d="M57.4114967128 49.6177997832C57.0043107879 50.0249857081 57.0042013551 50.6943110262 57.412109 51.101562L-84.0092472373 192.522918237C-84.4171548822 192.115667263 -84.4170454494 191.446341945 -84.0098595245 191.039156021Z"
               style="fill:#236dd8;fill-opacity:1" />
            <path
               id="path4746"
               d="M57.412109 51.101562L66.033203 59.742188L-75.3881532373 201.163544237L-84.0092472373 192.522918237Z"
               style="fill:#236dd8;fill-opacity:1" />
            <path
               id="path4748"
               d="M66.033203 59.742188L63.861328 61.914062L-77.5600282373 203.335418237L-75.3881532373 201.163544237Z"
               style="fill:#236dd8;fill-opacity:1" />
            <path
               id="path4750"
               d="M63.861328 61.914062C63.182246 62.593144 63.041109 63.825241 63.544922 64.642578L-77.8764342373 206.063934237C-78.3802472373 205.246597237 -78.2391102373 204.014500237 -77.5600282373 203.335418237Z"
               style="fill:#236dd8;fill-opacity:1" />
            <path
               id="path4752"
               d="M63.544922 64.642578L78.951172 89.615234L-62.4701842373 231.036590237L-77.8764342373 206.063934237Z"
               style="fill:#236dd8;fill-opacity:1" />
            <path
               id="path4754"
               d="M78.951172 89.615234C76.533502 93.830849 74.569846 98.340444 73.134766 103.08008L-68.2865902373 244.501436237C-66.8515102373 239.761800237 -64.8878542373 235.252205237 -62.4701842373 231.036590237Z"
               style="fill:#236dd8;fill-opacity:1" />
            <path
               id="path4756"
               d="M73.134766 103.08008L44.712891 108.36133L-96.7084652373 249.782686237L-68.2865902373 244.501436237Z"
               style="fill:#236dd8;fill-opacity:1" />
            <path
               id="path4758"
               d="M44.712891 108.36133C44.3098456566 108.436019336 43.9387450537 108.647851379 43.6457723054 108.940824127L-97.7755839319 250.362180365C-97.4826111836 250.069207616 -97.1115105807 249.857375573 -96.7084652373 249.782686237Z"
               style="fill:#236dd8;fill-opacity:1" />
            <path
               id="path4760"
               d="M43.6457723054 108.940824127C43.2524947106 109.334101722 43.0 109.873591222 43.0 110.42383L-98.4213562373 251.845186237C-98.4213562373 251.29494746 -98.1688615267 250.75545796 -97.7755839319 250.362180365Z"
               style="fill:#236dd8;fill-opacity:1" />
            <path
               id="path4762"
               d="M43.0 110.42383L43.0 128.66602L-98.4213562373 270.087376237L-98.4213562373 251.845186237Z"
               style="fill:#236dd8;fill-opacity:1" />
            <path
               id="path4764"
               d="M43.0 128.66602C43.0 129.62615 43.766867 130.59344 44.701172 130.81445L-96.7201842373 272.235806237C-97.6544892373 272.014796237 -98.4213562373 271.047506237 -98.4213562373 270.087376237Z"
               style="fill:#236dd8;fill-opacity:1" />
            <path
               id="path4766"
               d="M44.701172 130.81445L72.154297 137.32812L-69.2670592373 278.749476237L-96.7201842373 272.235806237Z"
               style="fill:#236dd8;fill-opacity:1" />
            <path
               id="path4768"
               d="M72.154297 137.32812C73.557709 143.15391 75.751166 148.67262 78.601562 153.77148L-62.8197942373 295.192836237C-65.6701902373 290.093976237 -67.8636472373 284.575266237 -69.2670592373 278.749476237Z"
               style="fill:#236dd8;fill-opacity:1" />
            <path
               id="path4770"
               d="M78.601562 153.77148L62.5625 177.11914L-78.8588562373 318.540496237L-62.8197942373 295.192836237Z"
               style="fill:#236dd8;fill-opacity:1" />
            <path
               id="path4772"
               d="M62.5625 177.11914C62.01892 177.91062 62.135371 179.11424 62.814453 179.79297L-78.6069032373 321.214326237C-79.2859852373 320.535596237 -79.4024362373 319.331976237 -78.8588562373 318.540496237Z"
               style="fill:#236dd8;fill-opacity:1" />
            <path
               id="path4774"
               d="M62.814453 179.79297L75.710938 192.68945L-65.7104182373 334.110806237L-78.6069032373 321.214326237Z"
               style="fill:#236dd8;fill-opacity:1" />
            <path
               id="path4776"
               d="M75.710938 192.68945C76.116291 193.09446 76.72339 193.31055 77.314453 193.31055L-64.1069032373 334.731906237C-64.6979662373 334.731906237 -65.3050652373 334.515816237 -65.7104182373 334.110806237Z"
               style="fill:#236dd8;fill-opacity:1" />
            <path
               id="path4778"
               d="M77.314453 193.31055C77.714221 193.31055 78.107561 193.20902 78.4375 193.00586L-62.9838562373 334.427216237C-63.3137952373 334.630376237 -63.7071352373 334.731906237 -64.1069032373 334.731906237Z"
               style="fill:#236dd8;fill-opacity:1" />
            <path
               id="path4780"
               d="M78.4375 193.00586L102.46289 178.18945L-38.9584662373 319.610806237L-62.9838562373 334.427216237Z"
               style="fill:#236dd8;fill-opacity:1" />
            <path
               id="path4782"
               d="M102.46289 178.18945C107.20047 180.9856 112.31856 183.21231 117.72656 184.74609L-23.6947962373 326.167446237C-29.1027962373 324.633666237 -34.2208862373 322.406956237 -38.9584662373 319.610806237Z"
               style="fill:#236dd8;fill-opacity:1" />
            <path
               id="path4784"
               d="M117.72656 184.74609L122.61523 211.08398L-18.8061262373 352.505336237L-23.6947962373 326.167446237Z"
               style="fill:#236dd8;fill-opacity:1" />
            <path
               id="path4786"
               d="M122.61523 211.08398C122.79019 212.02807 123.7176 212.79883 124.67773 212.79883L-16.7436262373 354.220186237C-17.7037562373 354.220186237 -18.6311662373 353.449426237 -18.8061262373 352.505336237Z"
               style="fill:#236dd8;fill-opacity:1" />
            <path
               id="path4788"
               d="M124.67773 212.79883L142.91992 212.79883L1.49856376269 354.220186237L-16.7436262373 354.220186237Z"
               style="fill:#236dd8;fill-opacity:1" />
            <path
               id="path4790"
               d="M142.91992 212.79883C143.492078437 212.79883 144.06746838 212.525810411 144.485827889 212.107450902L3.06447165196 353.528807139C2.64611214247 353.947166648 2.0707221999 354.220186237 1.49856376269 354.220186237Z"
               style="fill:#236dd8;fill-opacity:1" />
            <path
               id="path4792"
               d="M144.485827889 212.107450902C144.76951815 211.823760641 144.981002394 211.473239915 145.07031 211.0957L3.64895376269 352.517056237C3.55964615631 352.894596152 3.34816191281 353.245116878 3.06447165196 353.528807139Z"
               style="fill:#236dd8;fill-opacity:1" />
            <path
               id="path4794"
               d="M145.07031 211.0957L151.17969 185.32422L9.75833376269 326.745576237L3.64895376269 352.517056237Z"
               style="fill:#236dd8;fill-opacity:1" />
            <path
               id="path4796"
               d="M151.17969 185.32422C157.25218 183.83097 162.98413 181.49075 168.25391 178.42969L26.8325537627 319.851046237C21.5627737627 322.912106237 15.8308237627 325.252326237 9.75833376269 326.745576237Z"
               style="fill:#236dd8;fill-opacity:1" />
            <path
               id="path4798"
               d="M168.25391 178.42969L190.66602 193.82422L49.2446637627 335.245576237L26.8325537627 319.851046237Z"
               style="fill:#236dd8;fill-opacity:1" />
            <path
               id="path4800"
               d="M190.66602 193.82422C191.00434 194.05674 191.4162 194.17383 191.83203 194.17383L50.4106737627 335.595186237C49.9948437627 335.595186237 49.5829837627 335.478096237 49.2446637627 335.245576237Z"
               style="fill:#236dd8;fill-opacity:1" />
            <path
               id="path4802"
               d="M191.83203 194.17383C192.38859 194.17383 192.94892 193.97258 193.33789 193.58398L51.9165337627 335.005336237C51.5275637627 335.393936237 50.9672337627 335.595186237 50.4106737627 335.595186237Z"
               style="fill:#236dd8;fill-opacity:1" />
            <path
               id="path4804"
               d="M193.33789 193.58398L196.4707 190.45312L55.0493437627 331.874476237L51.9165337627 335.005336237Z"
               style="fill:#236dd8;fill-opacity:1" />
            <path
               id="path4806"
               d="M196.4707 190.45312L205.08984 199.08398L63.6684837627 340.505336237L55.0493437627 331.874476237Z"
               style="fill:#236dd8;fill-opacity:1" />
            <path
               id="path4808"
               d="M205.08984 199.08398C205.29339 199.28788 205.56353 199.38867 205.83203 199.38867L64.4106737627 340.810026237C64.1421737627 340.810026237 63.8720337627 340.709236237 63.6684837627 340.505336237Z"
               style="fill:#236dd8;fill-opacity:1" />
            <path
               id="path4810"
               d="M205.83203 199.38867C206.10052 199.38867 206.36837 199.28715 206.57227 199.08398L65.1509137627 340.505336237C64.9470137627 340.708506237 64.6791637627 340.810026237 64.4106737627 340.810026237Z"
               style="fill:#236dd8;fill-opacity:1" />
            <path
               id="path4812"
               d="M206.57227 199.08398L212.69336 192.97266L71.2720037627 334.394016237L65.1509137627 340.505336237Z"
               style="fill:#236dd8;fill-opacity:1" />
            <path
               id="path4814"
               d="M212.69336 192.97266C212.693579861 192.972440527 212.693799604 192.972220979 212.694019228 192.972001354L71.2726629904 334.393357592C71.2724433663 334.393577216 71.2722236237 334.393796764 71.2720037627 334.394016237Z"
               style="fill:#236dd8;fill-opacity:1" />
            <path
               id="path4816"
               d="M212.694019228 192.972001354C213.101190226 192.564830356 213.101289966 191.897810155 212.69336 191.49023L71.2720037627 332.911586237C71.6799337292 333.319166392 71.679833989 333.986186593 71.2726629904 334.393357592Z"
               style="fill:#236dd8;fill-opacity:1" />
            <path
               id="path4818"
               d="M212.69336 191.49023L204.06445 182.85938L62.6430937627 324.280736237L71.2720037627 332.911586237Z"
               style="fill:#236dd8;fill-opacity:1" />
            <path
               id="path4820"
               d="M204.06445 182.85938L206.24609 180.67773L64.8247337627 322.099086237L62.6430937627 324.280736237Z"
               style="fill:#236dd8;fill-opacity:1" />
            <path
               id="path4822"
               d="M206.24609 180.67773C206.24609 180.67773 206.24609 180.67773 206.24609 180.67773L64.8247337627 322.099086237C64.8247337627 322.099086237 64.8247337627 322.099086237 64.8247337627 322.099086237Z"
               style="fill:#236dd8;fill-opacity:1" />
            <path
               id="path4824"
               d="M206.24609 180.67773C206.92482 179.999 207.06628 178.77827 206.5625 177.96094L65.1411437627 319.382296237C65.6449237627 320.199626237 65.5034637627 321.420356237 64.8247337627 322.099086237Z"
               style="fill:#236dd8;fill-opacity:1" />
            <path
               id="path4826"
               d="M206.5625 177.96094L192.09375 154.50195L50.6723937627 295.923306237L65.1411437627 319.382296237Z"
               style="fill:#236dd8;fill-opacity:1" />
            <path
               id="path4828"
               d="M192.09375 154.50195C194.16157 150.91249 195.89382 147.11115 197.25586 143.13281L55.8345037627 284.554166237C54.4724637627 288.532506237 52.7402137627 292.333846237 50.6723937627 295.923306237Z"
               style="fill:#236dd8;fill-opacity:1" />
            <path
               id="path4830"
               d="M197.25586 143.13281L188.01367 140.88477L46.5923137627 282.306126237L55.8345037627 284.554166237Z"
               style="fill:#236dd8;fill-opacity:1" />
            <path
               id="path4832"
               d="M188.01367 140.88477C185.205741273 148.681213894 180.709429075 155.672126846 174.96584371 161.415712211L33.5444874722 302.837068449C39.2880728374 297.093483084 43.7843850355 290.102570131 46.5923137627 282.306126237Z"
               style="fill:#236dd8;fill-opacity:1" />
            <path
               id="path4834"
               d="M174.96584371 161.415712211C164.879149645 171.502406276 150.945713076 177.74219 135.55469 177.74219L-5.86666623731 319.163546237C9.52435683842 319.163546237 23.4577934073 312.923762514 33.5444874722 302.837068449Z"
               style="fill:#236dd8;fill-opacity:1" />
            <path
               id="path4836"
               d="M135.55469 177.74219C104.76904 177.74219 79.8125 152.78596 79.8125 122.0L-61.6088562373 263.421356237C-61.6088562373 294.207316237 -36.6523162373 319.163546237 -5.86666623731 319.163546237Z"
               style="fill:#236dd8;fill-opacity:1" />
            <path
               id="path4838"
               d="M79.8125 122.0C79.8125 106.606942946 86.0501776807 92.6725101373 96.1366541576 82.5860336604L-45.2847020797 224.007389898C-55.3711785566 234.093866375 -61.6088562373 248.028299183 -61.6088562373 263.421356237Z"
               style="fill:#236dd8;fill-opacity:1" />
            <path
               id="path4840"
               d="M96.1366541576 82.5860336604C101.632574128 77.0901136902 108.27118047 72.7366299697 115.66602 69.912109L-25.7553362373 211.333465237C-33.1501757668 214.157986207 -39.7887821095 218.511469928 -45.2847020797 224.007389898Z"
               style="fill:#236dd8;fill-opacity:1" />
            <path
               id="path4842"
               d="M115.66602 69.912109L113.78906 60.517578L-27.6322962373 201.938934237L-25.7553362373 211.333465237Z"
               style="fill:#236dd8;fill-opacity:1" />
            <path
               id="path4844"
               d="M113.78906 60.517578C110.17636 61.796375 106.71222 63.386385 103.42383 65.251953L-37.9975262373 206.673309237C-34.7091362373 204.807741237 -31.2449962373 203.217731237 -27.6322962373 201.938934237Z"
               style="fill:#236dd8;fill-opacity:1" />
            <path
               id="path4846"
               d="M103.42383 65.251953L79.441406 48.777344L-61.9799502373 190.198700237L-37.9975262373 206.673309237Z"
               style="fill:#236dd8;fill-opacity:1" />
            <path
               id="path4848"
               d="M79.441406 48.777344C79.103088 48.544806 78.688951 48.427734 78.273438 48.427734L-63.1479182373 189.849090237C-62.7324052373 189.849090237 -62.3182682373 189.966162237 -61.9799502373 190.198700237Z"
               style="fill:#236dd8;fill-opacity:1" />
            <path
               id="path4850"
               d="M78.273438 48.427734C77.7169057783 48.427734 77.1581285629 48.6289804371 76.7695326303 49.0175763697L-64.651823607 190.438932607C-64.2632276744 190.050336674 -63.704450459 189.849090237 -63.1479182373 189.849090237Z"
               style="fill:#236dd8;fill-opacity:1" />
            <path
               id="path4852"
               d="M76.7695326303 49.0175763697C76.7695320869 49.0175769131 76.7695315434 49.0175774566 76.769531 49.017578L-64.6518252373 190.438934237C-64.6518246939 190.438933694 -64.6518241504 190.43893315 -64.651823607 190.438932607Z"
               style="fill:#236dd8;fill-opacity:1" />
            <path
               id="path4854"
               d="M76.769531 49.017578L73.636719 52.148438L-67.7846372373 193.569794237L-64.6518252373 190.438934237Z"
               style="fill:#236dd8;fill-opacity:1" />
            <path
               id="path4856"
               d="M73.636719 52.148438L65.017578 43.507812L-76.4037782373 184.929168237L-67.7846372373 193.569794237Z"
               style="fill:#236dd8;fill-opacity:1" />
            <path
               id="path4858"
               d="M65.017578 43.507812C64.814029 43.303563 64.543881 43.201172 64.275391 43.201172L-77.1459652373 184.622528237C-76.8774752373 184.622528237 -76.6073272373 184.724919237 -76.4037782373 184.929168237Z"
               style="fill:#236dd8;fill-opacity:1" />
            <path
               id="path4860"
               d="M111.18164 65.285156L111.68359 67.773438L-29.7377662373 209.194794237L-30.2397162373 206.706512237Z"
               style="fill:#236dd8;fill-opacity:1" />
            <path
               id="path4862"
               d="M111.68359 67.773438C104.933316023 70.7533826621 98.9057866208 74.9459433514 93.8221607069 80.0295692653L-47.5991955304 221.450925503C-42.5155696165 216.367299589 -36.4880402146 212.174738899 -29.7377662373 209.194794237Z"
               style="fill:#236dd8;fill-opacity:1" />
            <path
               id="path4864"
               d="M93.8221607069 80.0295692653C82.8878283441 90.9639016281 76.3203126826 106.020603018 76.320312 122.0L-65.1010442373 263.421356237C-65.1010435547 247.441959256 -58.5335278932 232.385257865 -47.5991955304 221.450925503Z"
               style="fill:#236dd8;fill-opacity:1" />
            <path
               id="path4866"
               d="M76.320312 122.0C76.320312 154.66151 102.89278 181.23242 135.55469 181.23242L-5.86666623731 322.653776237C-38.5285762373 322.653776237 -65.1010442373 296.082866237 -65.1010442373 263.421356237Z"
               style="fill:#236dd8;fill-opacity:1" />
            <path
               id="path4868"
               d="M135.55469 181.23242C151.590050149 181.23242 166.587276776 174.706477243 177.487435538 163.80631848L36.066079301 305.227674718C25.1659205382 316.12783348 10.1686939115 322.653776237 -5.86666623731 322.653776237Z"
               style="fill:#236dd8;fill-opacity:1" />
            <path
               id="path4870"
               d="M177.487435538 163.80631848C182.800618374 158.493135644 187.140343627 152.140645215 190.15234 144.99805L48.7309837627 286.419406237C45.7189873901 293.562001452 41.3792621371 299.914491881 36.066079301 305.227674718Z"
               style="fill:#236dd8;fill-opacity:1" />
            <path
               id="path4872"
               d="M190.15234 144.99805L192.5957 145.58789L51.1743437627 287.009246237L48.7309837627 286.419406237Z"
               style="fill:#236dd8;fill-opacity:1" />
            <path
               id="path4874"
               d="M192.5957 145.58789C189.442782458 153.217710122 184.856782713 159.988567965 179.216885005 165.628465672L37.7955287679 307.04982191C43.4354264753 301.409924202 48.0214262206 294.63906636 51.1743437627 287.009246237Z"
               style="fill:#236dd8;fill-opacity:1" />
            <path
               id="path4876"
               d="M179.216885005 165.628465672C167.889870313 176.955480365 152.311895427 183.7207 135.55469 183.7207L-5.86666623731 325.142056237C10.89053919 325.142056237 26.4685140756 318.376836602 37.7955287679 307.04982191Z"
               style="fill:#236dd8;fill-opacity:1" />
            <path
               id="path4878"
               d="M135.55469 183.7207C119.0696 183.7207 103.56889 177.299 91.912109 165.64258L-49.5092472373 307.063936237C-37.8524662373 318.720356237 -22.3517562373 325.142056237 -5.86666623731 325.142056237Z"
               style="fill:#236dd8;fill-opacity:1" />
            <path
               id="path4880"
               d="M91.912109 165.64258C80.255263 153.98611 73.833984 138.48544 73.833984 122.0L-67.5873722373 263.421356237C-67.5873722373 279.906796237 -61.1660932373 295.407466237 -49.5092472373 307.063936237Z"
               style="fill:#236dd8;fill-opacity:1" />
            <path
               id="path4882"
               d="M73.833984 122.0C73.833984 108.98607 77.83831 96.544008 85.410156 86.015625L-56.0112002373 227.436981237C-63.5830462373 237.965364237 -67.5873722373 250.407426237 -67.5873722373 263.421356237Z"
               style="fill:#236dd8;fill-opacity:1" />
            <path
               id="path4884"
               d="M85.410156 86.015625C87.3992694251 83.2499061075 89.5899985522 80.6734989891 91.9610487472 78.3024487941L-49.4603074902 219.723805031C-51.8313576851 222.094855226 -54.0220868122 224.671262345 -56.0112002373 227.436981237Z"
               style="fill:#236dd8;fill-opacity:1" />
            <path
               id="path4886"
               d="M91.9610487472 78.3024487941C97.4803559607 72.7831415806 103.976752145 68.3765827963 111.18164 65.285156L-30.2397162373 206.706512237C-37.4446040924 209.797939034 -43.9410002767 214.204497818 -49.4603074902 219.723805031Z"
               style="fill:#236dd8;fill-opacity:1" />
            <path
               id="path4888"
               d="M135.54883 68.650391C120.832414252 68.650391 107.502275639 74.6237924837 97.8500506256 84.276017497L-43.5713056117 225.697373734C-33.9190805984 216.045148721 -20.5889419856 210.071747237 -5.87252623731 210.071747237Z"
               style="fill:#236dd8;fill-opacity:1" />
            <path
               id="path4890"
               d="M97.8500506256 84.276017497C88.1939765695 93.9320915531 82.21875 107.269923752 82.21875 121.99219L-59.2026062373 263.413546237C-59.2026062373 248.691279989 -53.2273796678 235.35344779 -43.5713056117 225.697373734Z"
               style="fill:#236dd8;fill-opacity:1" />
            <path
               id="path4892"
               d="M82.21875 121.99219C82.21875 151.43085 106.11013 175.32227 135.54883 175.32227L-5.87252623731 316.743626237C-35.3112262373 316.743626237 -59.2026062373 292.852206237 -59.2026062373 263.413546237Z"
               style="fill:#236dd8;fill-opacity:1" />
            <path
               id="path4894"
               d="M135.54883 175.32227C150.271098751 175.32227 163.608920172 169.347041949 173.264987091 159.69097503L31.8436308535 301.112331268C22.1875639347 310.768398186 8.84974251407 316.743626237 -5.87252623731 316.743626237Z"
               style="fill:#236dd8;fill-opacity:1" />
            <path
               id="path4896"
               d="M173.264987091 159.69097503C182.917218739 150.038743382 188.89062 136.708596252 188.89062 121.99219L47.4692637627 263.413546237C47.4692637627 278.129952489 41.4958625022 291.460099619 31.8436308535 301.112331268Z"
               style="fill:#236dd8;fill-opacity:1" />
            <path
               id="path4898"
               d="M188.89062 121.99219C188.89062 92.553526 164.98752 68.650391 135.54883 68.650391L-5.87252623731 210.071747237C23.5661637627 210.071747237 47.4692637627 233.974882237 47.4692637627 263.413546237Z"
               style="fill:#236dd8;fill-opacity:1" />
            <path
               id="path4900"
               d="M135.54883 71.449219C163.47797 71.449219 186.0918 94.063013 186.0918 121.99219L44.6704437627 263.413546237C44.6704437627 235.484369237 22.0566137627 212.870575237 -5.87252623731 212.870575237Z"
               style="fill:#236dd8;fill-opacity:1" />
            <path
               id="path4902"
               d="M186.0918 121.99219C186.0918 135.953841249 180.440717665 148.584279509 171.299505471 157.725491704L29.8781492334 299.146847941C39.0193614277 290.005635747 44.6704437627 277.375197486 44.6704437627 263.413546237Z"
               style="fill:#236dd8;fill-opacity:1" />
            <path
               id="path4904"
               d="M171.299505471 157.725491704C162.154451604 166.87054557 149.516333748 172.52344 135.54883 172.52344L-5.87252623731 313.944796237C8.09497751098 313.944796237 20.7330953669 308.291901808 29.8781492334 299.146847941Z"
               style="fill:#236dd8;fill-opacity:1" />
            <path
               id="path4906"
               d="M135.54883 172.52344C107.61969 172.52344 85.017578 149.92136 85.017578 121.99219L-56.4037782373 263.413546237C-56.4037782373 291.342716237 -33.8016662373 313.944796237 -5.87252623731 313.944796237Z"
               style="fill:#236dd8;fill-opacity:1" />
            <path
               id="path4908"
               d="M85.017578 121.99219C85.017578 108.024676373 90.6704734514 95.3865652546 99.8155216069 86.241517099L-41.6058346304 227.662873336C-50.7508827859 236.807921492 -56.4037782373 249.44603261 -56.4037782373 263.413546237Z"
               style="fill:#236dd8;fill-opacity:1" />
            <path
               id="path4910"
               d="M99.8155216069 86.241517099C108.956739385 77.1002993211 121.587185123 71.449219 135.54883 71.449219L-5.87252623731 212.870575237C-19.8341711144 212.870575237 -32.4646168525 218.521655558 -41.6058346304 227.662873336Z"
               style="fill:#236dd8;fill-opacity:1" />
          </g>
          <path
             id="path4655"
             d="M 64.275391 43.201172 C 64.006899 43.201172 63.737102 43.304311 63.533203 43.507812 L 57.412109 49.617188 C 57.004311 50.024315 57.003997 50.694107 57.412109 51.101562 L 66.033203 59.742188 L 63.861328 61.914062 C 63.182246 62.593144 63.041109 63.825241 63.544922 64.642578 L 78.951172 89.615234 C 76.533502 93.830849 74.569846 98.340444 73.134766 103.08008 L 44.712891 108.36133 C 43.76881 108.53628 43 109.46369 43 110.42383 L 43 128.66602 C 43 129.62615 43.766867 130.59344 44.701172 130.81445 L 72.154297 137.32812 C 73.557709 143.15391 75.751166 148.67262 78.601562 153.77148 L 62.5625 177.11914 C 62.01892 177.91062 62.135371 179.11424 62.814453 179.79297 L 75.710938 192.68945 C 76.116291 193.09446 76.72339 193.31055 77.314453 193.31055 C 77.714221 193.31055 78.107561 193.20902 78.4375 193.00586 L 102.46289 178.18945 C 107.20047 180.9856 112.31856 183.21231 117.72656 184.74609 L 122.61523 211.08398 C 122.79019 212.02807 123.7176 212.79883 124.67773 212.79883 L 142.91992 212.79883 C 143.88006 212.79883 144.8493 212.03 145.07031 211.0957 L 151.17969 185.32422 C 157.25218 183.83097 162.98413 181.49075 168.25391 178.42969 L 190.66602 193.82422 C 191.00434 194.05674 191.4162 194.17383 191.83203 194.17383 C 192.38859 194.17383 192.94892 193.97258 193.33789 193.58398 L 196.4707 190.45312 L 205.08984 199.08398 C 205.29339 199.28788 205.56353 199.38867 205.83203 199.38867 C 206.10052 199.38867 206.36837 199.28715 206.57227 199.08398 L 212.69336 192.97266 C 213.10119 192.56555 213.10151 191.89803 212.69336 191.49023 L 204.06445 182.85938 L 206.24609 180.67773 C 206.92482 179.999 207.06628 178.77827 206.5625 177.96094 L 192.09375 154.50195 C 194.16157 150.91249 195.89382 147.11115 197.25586 143.13281 L 188.01367 140.88477 C 180.27455 162.37307 159.7097 177.74219 135.55469 177.74219 C 104.76904 177.74219 79.8125 152.78596 79.8125 122 C 79.8125 98.219573 94.699681 77.920378 115.66602 69.912109 L 113.78906 60.517578 C 110.17636 61.796375 106.71222 63.386385 103.42383 65.251953 L 79.441406 48.777344 C 79.103088 48.544806 78.688951 48.427734 78.273438 48.427734 C 77.716905 48.427734 77.158127 48.628981 76.769531 49.017578 L 73.636719 52.148438 L 65.017578 43.507812 C 64.814029 43.303563 64.543881 43.201172 64.275391 43.201172 z M 111.18164 65.285156 L 111.68359 67.773438 C 90.414203 77.162923 76.320313 98.591409 76.320312 122 C 76.320312 154.66151 102.89278 181.23242 135.55469 181.23242 C 159.40634 181.23242 180.96114 166.7939 190.15234 144.99805 L 192.5957 145.58789 C 183.11055 168.54123 160.65557 183.7207 135.55469 183.7207 C 119.0696 183.7207 103.56889 177.299 91.912109 165.64258 C 80.255263 153.98611 73.833984 138.48544 73.833984 122 C 73.833984 108.98607 77.83831 96.544008 85.410156 86.015625 C 92.029508 76.811893 100.88159 69.704635 111.18164 65.285156 z M 135.54883 68.650391 C 106.11013 68.650391 82.21875 92.553526 82.21875 121.99219 C 82.21875 151.43085 106.11013 175.32227 135.54883 175.32227 C 164.98752 175.32227 188.89062 151.43085 188.89062 121.99219 C 188.89062 92.553526 164.98752 68.650391 135.54883 68.650391 z M 135.54883 71.449219 C 163.47797 71.449219 186.0918 94.063013 186.0918 121.99219 C 186.0918 149.92136 163.47797 172.52344 135.54883 172.52344 C 107.61969 172.52344 85.017578 149.92136 85.017578 121.99219 C 85.017578 94.063013 107.61969 71.449219 135.54883 71.449219 z "
             style="fill:#f4f4f4;fill-opacity:1;stroke-width:0.34914222"
             transform="" />
        </g>
        <path
           d="m 115.46169,864.81734 c -22.333913,7.90558 -38.334587,29.2078 -38.334587,54.25023 0,31.77677 25.760227,57.53669 57.536687,57.53669 25.25037,0 46.69982,-16.26623 54.44585,-38.89126 l -8.15976,-1.9781 c -6.82861,18.96027 -24.97281,32.51736 -46.28609,32.51736 -27.16378,0 -49.184692,-22.02029 -49.184692,-49.18438 0,-20.98273 13.140891,-38.89341 31.640602,-45.95954 z"
           id="path4657"
           style="fill:#f6f7f9;fill-opacity:1;stroke-width:0.30806667"
           inkscape:connector-curvature="0" />
      </g>
      <path
         id="polygon4637"
         d="m 388.551,252.99 -6.026,7.029 -5.02,-1.004 7.029,-6.025 z"
         style="fill:#ffffff;fill-opacity:1"
         transform="matrix(0.30806666,0,0,0.30806666,49.610281,845.46025)" />
      <path
         inkscape:connector-curvature="0"
         style="fill:#ffffff;fill-opacity:1;stroke-width:0.30806667"
         id="path4639"
         d="m 168.07239,926.49136 0.61859,0.9279 0.61891,1.5468 h 1.85579 l 0.92821,-1.23719 h 1.5468 l 0.3093,1.85579 1.85579,0.92821 c 0,0 1.54681,-0.92821 2.1654,-1.23751 0.6186,-0.30961 -0.61859,4.6401 -1.2375,5.568 -0.6186,0.9279 -1.85579,2.784 -1.85579,3.40259 0,0.61891 -1.23751,1.8558 -1.54681,2.16541 -0.3096,0.30929 -3.4029,0.30929 -3.0936,-0.30961 0.30961,-0.6186 0.30961,-0.9279 0.30961,-0.9279 l -3.40291,-1.2375 -0.6186,-6.4962 v -2.4747 l -0.9282,-0.3093 0.6189,-1.54681 1.2372,0.92821 z" />
      <path
         id="polygon4641"
         d="m 358.427,314.241 v -7.029 l 3.012,-4.016 3.012,-10.042 h 2.009 l 1.004,10.042 -5.021,5.021 v 7.028 z"
         style="fill:#ffffff;fill-opacity:1"
         transform="matrix(0.30806666,0,0,0.30806666,49.610281,845.46025)" />
      <path
         id="polygon4643"
         d="m 336.336,279.097 -8.033,12.049 4.016,2.008 15.063,-20.082 z"
         style="fill:#ffffff;fill-opacity:1"
         transform="matrix(0.30806666,0,0,0.30806666,49.610281,845.46025)" />
      <path
         inkscape:connector-curvature="0"
         style="fill:#ffffff;fill-opacity:1;stroke-width:0.30806667"
         id="path4645"
         d="m 131.5708,873.28545 2.784,0.6186 h 0.92789 l -5.56799,4.6401 -4.3308,2.47469 -0.3093,-1.8561 c 0,0 0.6186,-1.5468 1.5468,-2.1654 0.92821,-0.6186 3.4026,-3.09329 3.7122,-3.40259 0.30899,-0.3093 1.2372,-0.3093 1.2372,-0.3093 z" />
      <path
         inkscape:connector-curvature="0"
         style="fill:#ffffff;fill-opacity:1;stroke-width:0.30806667"
         id="path4647"
         d="m 137.75739,873.59475 c 0,0 -0.30929,1.2375 0.3093,1.54683 0.61891,0.30927 1.54681,0.30927 1.8561,0.30927 0.3093,0 1.2372,-0.30927 1.2372,-0.30927 l -0.6186,-0.92793 z" />
      <path
         id="polygon4649"
         d="m 274.08,105.384 1.005,6.025 -3.013,2.008 -5.02,-2.008 2.008,-5.021 z"
         style="fill:#ffffff;fill-opacity:1"
         transform="matrix(0.30806666,0,0,0.30806666,49.610281,845.46025)" />
      <path
         inkscape:connector-curvature="0"
         style="fill:#ffffff;fill-opacity:1;stroke-width:0.30806667"
         id="path4651"
         d="m 181.59251,916.18407 c -1.15433,-19.07795 -13.68155,-35.08571 -30.89354,-41.3293 l -4.58927,0.28681 -1.54681,1.5468 -1.85579,-1.5468 v 1.8561 l 0.9279,0.9279 -0.6186,0.3093 -3.0933,0.6186 -8.04269,3.71189 0.61859,4.0215 -0.61859,-0.3093 -0.61891,1.23751 2.1654,4.0215 -0.3093,0.9279 -1.5468,0.3093 0.3093,2.78399 h -1.23751 v 2.1654 l -10.20809,8.04267 0.3093,3.09361 6.49589,7.11479 6.1869,-0.30929 3.0933,-0.3093 v 2.4747 l 1.2375,3.09329 0.92821,2.4747 v 6.18691 l 1.85579,3.71223 2.1654,5.568 4.94909,-0.92821 1.8558,-1.85579 3.0936,-5.87761 5.8773,-4.3308 0.9282,-3.09329 6.4959,-6.1866 0.3096,2.1654 1.8558,0.3093 0.3093,-3.0936 -1.23751,-1.85611 -2.4747,-1.23722 2.784,-0.61857 1.23751,0.3093 v -1.54683 l 1.5468,0.61859 -0.6186,2.1654 -0.3093,2.1654 1.23751,0.9279 c 0,0 0.61859,-0.9279 1.5468,-1.85579 0.92789,-0.92818 2.784,-1.8561 3.40259,-1.23748 0.61891,0.61857 -0.30929,4.02151 -0.30929,4.02151 l -0.92821,1.2375 -0.6186,2.47439 -0.9282,-0.3093 -0.6186,-2.16509 h -1.5468 l -0.92821,2.47439 1.5468,1.5468 h 2.784 l 2.4747,-2.47439 c 0,0 -0.9282,-5.56799 1.23751,-4.9494 2.16509,0.6186 1.5468,5.568 1.5468,5.568 z m -44.14441,-18.4609 c -0.3093,0 -2.784,0 -2.784,0 l 1.5468,-1.2375 1.2375,-1.2375 c 0.3093,0 2.784,0.61859 2.784,0.61859 l 2.16509,1.54681 -0.92789,0.9282 c 0,0 -3.71221,-0.6186 -4.0215,-0.6186 z m 14.53858,0 -0.30929,0.61857 -2.4747,0.3093 -0.3093,0.92821 -1.8558,0.30929 -0.3096,0.6186 -3.0933,-0.92789 -1.2375,-0.6186 1.5468,-1.23751 0.30961,-0.92789 h 0.92789 l 0.61891,0.61859 2.4747,-0.30929 0.6186,-1.23751 2.1654,0.92821 1.85579,0.3093 -0.92821,0.61859 z m 2.47501,-3.0936 -1.5468,0.61857 -1.85579,0.61859 -0.30961,-1.2375 1.8561,-0.61857 0.3093,-1.2375 1.5468,1.5468 z m 7.11449,19.79787 c 0,0 -1.5468,-3.71189 -2.16509,-4.64007 -0.6189,-0.92792 -3.7122,-6.18693 -3.7122,-6.18693 0,0 3.40259,4.02153 4.6401,5.87763 1.2375,1.8558 2.1654,3.7119 2.1654,3.7119 l 0.9282,1.23747 z" />
      <path
         inkscape:connector-curvature="0"
         style="fill:#ffffff;fill-opacity:1;stroke-width:0.30806667"
         id="path4653"
         d="m 141.15999,961.13716 -1.2372,0.30929 v 0.9279 l -1.8561,-0.6186 -0.92789,-1.85579 -1.85611,0.9279 -1.85579,1.2375 -3.0933,-0.6186 -0.6189,-0.9282 -5.568,-0.3093 -1.5468,1.2375 -1.5468,-0.6189 0.30929,-1.8558 -1.85579,-0.3093 -0.9282,2.1651 -4.6401,-0.3093 2.8148,2.03324 c 5.52056,2.27661 11.56821,3.53506 17.91069,3.53506 4.73313,0 9.30176,-0.70177 13.611,-2.00335 v -1.39924 h -4.64041 z" />
      <path
         inkscape:connector-curvature="0"
         style="fill:#ffffff;fill-opacity:1;stroke-width:0.30806667"
         id="path4661"
         d="m 129.0961,882.56568 -5.8776,-0.3093 -1.54681,-0.92821 2.1654,-2.78399 1.23751,-2.1654 -1.8561,-1.54681 -1.54681,3.0933 -1.5468,1.5468 h -3.7122 l 2.1654,-2.4747 -0.22674,-2.04094 c -14.5771,5.39271 -25.750675,17.80379 -29.417593,33.13165 l 0.725189,1.45007 c 0,0 1.232267,0.61613 0.9242,2.15646 -0.308066,1.54034 -1.540333,2.46454 -1.540333,2.46454 l -1.329924,2.39398 c -0.04405,0.83271 -0.06808,1.67065 -0.06808,2.51444 0,8.21706 2.109948,15.9403 5.81445,22.66139 1.34009,1.90785 6.868341,7.9629 6.868341,7.9629 l 1.8561,-1.2375 -3.40259,-6.80519 c 0,0 4.6401,-8.0427 5.2587,-8.352 0.61859,-0.30961 2.1654,-0.30961 2.1654,-0.30961 0,0 0.92789,0.30961 1.5468,0 0.6186,-0.30929 2.784,-7.11479 2.784,-7.11479 0,0 2.4747,-0.9279 2.784,-1.23751 0.3093,-0.3093 0.92789,-1.85579 -0.6186,-3.0933 -1.5468,-1.23719 -4.9494,-3.40259 -4.9494,-3.40259 0,0 -0.3093,-1.23751 -0.3093,-1.8558 0,-0.61859 -13.610691,-5.8776 -13.610691,-5.8776 l -0.928204,-1.2375 c 0,0 0.618597,-1.54681 0.928204,-1.8558 0.309299,-0.3093 -0.309299,-2.1654 -0.309299,-2.1654 0,0 0.309299,-4.9494 1.856102,-5.56799 1.546803,-0.6186 2.783998,-0.3093 2.165401,0.61859 -0.618598,0.92821 -1.546803,1.54681 -1.546803,1.54681 l -1.237504,0.61859 1.237504,1.8558 2.1654,0.3093 0.618598,-0.92821 -1.546802,-1.5468 1.546802,-0.6186 3.711892,-6.49589 c 0,0 8.0427,-3.4026 9.2802,-4.0215 1.2372,-0.6186 2.1654,-1.54681 2.4747,-1.54681 0.3093,0 1.5468,-0.3093 2.1654,-0.3093 0.6186,0 1.23751,-0.30929 1.23751,-0.61859 0,-0.3093 0.30929,-1.54681 0.61859,-1.85611 0.24214,-0.24214 0.86136,-0.67251 1.12013,-0.84841 -0.24861,0.2024 -0.67343,0.7945 1.04527,1.77662 2.1654,1.2375 2.4747,0 2.4747,0 l -0.3093,-1.2375 2.1654,0.30929 5.2587,-0.61859 0.92821,-2.1654 z" />
    </g>
  </g>
</svg>
