<?xml version="1.0" encoding="UTF-8" standalone="no"?>
<!-- Created with Inkscape (http://www.inkscape.org/) -->

<svg
   xmlns:dc="http://purl.org/dc/elements/1.1/"
   xmlns:cc="http://creativecommons.org/ns#"
   xmlns:rdf="http://www.w3.org/1999/02/22-rdf-syntax-ns#"
   xmlns:svg="http://www.w3.org/2000/svg"
   xmlns="http://www.w3.org/2000/svg"
   xmlns:sodipodi="http://sodipodi.sourceforge.net/DTD/sodipodi-0.dtd"
   xmlns:inkscape="http://www.inkscape.org/namespaces/inkscape"
   width="256"
   height="256"
   viewBox="0 0 256 256"
   id="svg2"
   version="1.1"
   inkscape:version="0.91 r13725"
   sodipodi:docname="konversation.svg">
  <sodipodi:namedview
     id="base"
     pagecolor="#ffffff"
     bordercolor="#666666"
     borderopacity="1.0"
     inkscape:pageopacity="0.0"
     inkscape:pageshadow="2"
     inkscape:zoom="3.3632812"
     inkscape:cx="128"
     inkscape:cy="128"
     inkscape:document-units="px"
     inkscape:current-layer="layer1"
     showgrid="true"
     units="px"
     inkscape:window-width="1920"
     inkscape:window-height="1054"
     inkscape:window-x="0"
     inkscape:window-y="0"
     inkscape:window-maximized="1">
    <inkscape:grid
       spacingy="5"
       spacingx="5"
       id="grid4168"
       type="xygrid" />
  </sodipodi:namedview>
  <defs
     id="defs4">
    <clipPath
       id="clipPath5002"
       clipPathUnits="userSpaceOnUse">
      <g
         id="g5004">
        <path
           style="fill:#0f9d58;fill-opacity:1;stroke:none;stroke-width:4.85768509;stroke-linejoin:round;stroke-miterlimit:4;stroke-dasharray:none;stroke-opacity:1"
           d="M 88.118406,249.43519 C 46.103287,235.29134 14.771284,201.68742 4.1335861,159.36053 1.3377997,148.23623 0.92261224,144.16281 0.92582381,127.88908 0.92787958,117.47222 1.134384,112.01362 1.6577819,108.54099 4.4653598,89.913336 12.17654,70.638106 23.042737,55.086148 c 3.958678,-5.665755 8.344812,-10.93092 9.101533,-10.925587 0.32809,0.0023 10.488643,18.309713 22.579009,40.683112 12.090365,22.373397 22.374546,41.334697 22.853732,42.136217 0.479186,0.80151 0.924733,2.44098 0.990103,3.64326 0.343424,6.31639 2.524175,14.20976 5.6424,20.42304 2.954444,5.88693 5.065381,8.73258 10.434696,14.06652 6.71418,6.66995 12.88853,10.28643 21.73204,12.72904 3.16587,0.87442 5.10478,1.05037 11.57517,1.05037 8.82596,0 12.60219,-0.76201 19.26429,-3.88733 2.04584,-0.95974 3.93661,-1.66536 4.20172,-1.56805 0.2651,0.0973 -11.0555,17.66459 -25.1569,39.0384 l -25.6389,38.86148 -3.094121,0.11221 c -2.554618,0.0927 -4.195204,-0.25845 -9.409103,-2.01364 z"
           id="path5006"
           inkscape:connector-curvature="0"
           transform="translate(0,796.36216)" />
        <path
           style="fill:#f4b400;fill-opacity:1;stroke:none;stroke-width:4.85768509;stroke-linejoin:round;stroke-miterlimit:4;stroke-dasharray:none;stroke-opacity:1"
           d="m 112.35984,1051.5167 c -10.0014,-1.4495 -12.15632,-1.8201 -12.531784,-2.1556 -0.248854,-0.2223 1.738304,-3.7475 4.550294,-8.0722 7.16635,-11.0213 49.77231,-74.64801 50.25856,-75.05489 3.57509,-2.99158 8.63523,-8.0414 10.57512,-10.55356 3.36154,-4.35318 7.55784,-12.9141 9.06523,-18.494 6.19314,-22.92535 -2.59253,-47.15185 -21.69967,-59.83688 l -2.96081,-1.96565 17.02469,0.29584 c 9.36358,0.1627 31.17032,0.43384 48.45941,0.60252 l 31.43471,0.30668 1.54584,4.18869 c 2.24597,6.08579 4.67816,15.0947 5.93451,21.9816 1.52517,8.36049 1.92536,28.85896 0.73851,37.82758 -3.0805,23.27845 -12.81326,45.72018 -27.80202,64.10577 -20.47622,25.1166 -51.4599,42.1974 -84.14612,46.3885 -5.31244,0.6812 -26.64601,0.9864 -30.44647,0.4356 z"
           id="path5008"
           inkscape:connector-curvature="0" />
        <path
           style="fill:#db4437;fill-opacity:1;stroke:none;stroke-width:10;stroke-linejoin:round;stroke-miterlimit:4;stroke-dasharray:none;stroke-opacity:1"
           d="M 67.989788,108.87302 C 41.284246,59.575543 33.290284,45.149038 32.233625,44.344765 31.651257,43.901497 32.811213,42.549931 38.695603,36.815353 53.43581,22.450419 68.809334,13.040746 87.839196,6.7360352 101.68742,2.1480329 112.58238,0.43719165 127.95142,0.43719165 c 21.3099,0 37.80488,3.80960275 56.83492,13.12633035 25.29351,12.383198 46.19421,33.578863 58.51993,59.345832 1.61138,3.368591 2.92978,6.372442 2.92978,6.675231 0,0.560033 -10.54865,0.49527 -71.16508,-0.436914 l -24.28843,-0.373518 -3.93063,-1.764495 c -6.75732,-3.033425 -10.64587,-3.839529 -18.6576,-3.867747 -5.0296,-0.01773 -7.97946,0.207636 -10.31642,0.788106 -14.50826,3.603659 -26.283291,12.94777 -33.291614,26.418653 -3.58502,6.89086 -5.24713,13.08166 -6.331628,23.58317 l -0.33738,3.26696 -9.92748,-18.32578 z"
           id="path5010"
           inkscape:connector-curvature="0"
           transform="translate(0,796.36216)" />
      </g>
    </clipPath>
    <clipPath
       clipPathUnits="userSpaceOnUse"
       id="clipPath4271">
      <circle
         style="fill:#292929;fill-opacity:0.26020412;stroke:none;stroke-width:10;stroke-linejoin:round;stroke-miterlimit:4;stroke-dasharray:none;stroke-opacity:0.25882353"
         id="circle4273"
         cx="128"
         cy="128.00002"
         r="128" />
    </clipPath>
    <clipPath
       id="clipPath4363"
       clipPathUnits="userSpaceOnUse">
      <circle
         style="fill:#4285f4;fill-opacity:1;stroke:none;stroke-width:10;stroke-linejoin:round;stroke-miterlimit:4;stroke-dasharray:none;stroke-opacity:0.25882353"
         id="circle4365"
         cx="128"
         cy="924.36218"
         r="128" />
    </clipPath>
    <clipPath
       clipPathUnits="userSpaceOnUse"
       id="clipPath4452">
      <circle
         style="fill:#4285f4;fill-opacity:1;stroke:none;stroke-width:10;stroke-linejoin:round;stroke-miterlimit:4;stroke-dasharray:none;stroke-opacity:0.25882353"
         id="circle4454"
         cx="128"
         cy="924.36218"
         r="128" />
    </clipPath>
    <clipPath
       id="clipPath5177"
       clipPathUnits="userSpaceOnUse">
      <circle
         style="fill:#4285f4;fill-opacity:1;stroke:none;stroke-width:10;stroke-linejoin:round;stroke-miterlimit:4;stroke-dasharray:none;stroke-opacity:0.25882353"
         id="circle5179"
         cx="128"
         cy="924.36218"
         r="128" />
    </clipPath>
    <clipPath
       clipPathUnits="userSpaceOnUse"
       id="clipPath4342">
      <circle
         style="fill:#4285f4;fill-opacity:1;stroke:none;stroke-width:10;stroke-linejoin:round;stroke-miterlimit:4;stroke-dasharray:none;stroke-opacity:0.25882353"
         id="circle4344"
         cx="128"
         cy="933.48718"
         r="128" />
    </clipPath>
    <clipPath
       id="clipPath4373"
       clipPathUnits="userSpaceOnUse">
      <circle
         style="fill:#4285f4;fill-opacity:1;stroke:none;stroke-width:10;stroke-linejoin:round;stroke-miterlimit:4;stroke-dasharray:none;stroke-opacity:0.25882353"
         id="circle4375"
         cx="128"
         cy="924.36218"
         r="128" />
    </clipPath>
    <clipPath
       clipPathUnits="userSpaceOnUse"
       id="clipPath4484">
      <circle
         style="fill:#4285f4;fill-opacity:1;stroke:none;stroke-width:10;stroke-linejoin:round;stroke-miterlimit:4;stroke-dasharray:none;stroke-opacity:0.25882353"
         id="circle4486"
         cx="128"
         cy="933.47552"
         r="128" />
    </clipPath>
    <clipPath
       id="clipPath4344"
       clipPathUnits="userSpaceOnUse">
      <circle
         style="fill:#4285f4;fill-opacity:1;stroke:none;stroke-width:10;stroke-linejoin:round;stroke-miterlimit:4;stroke-dasharray:none;stroke-opacity:0.25882353"
         id="circle4346"
         cx="128"
         cy="128.00002"
         r="128" />
    </clipPath>
    <clipPath
       clipPathUnits="userSpaceOnUse"
       id="clipPath4309">
      <circle
         style="fill:#4285f4;fill-opacity:1;stroke:none;stroke-width:10;stroke-linejoin:round;stroke-miterlimit:4;stroke-dasharray:none;stroke-opacity:0.25882353"
         id="circle4311"
         cx="128"
         cy="924.36218"
         r="128" />
    </clipPath>
  </defs>
  <metadata
     id="metadata7">
    <rdf:RDF>
      <cc:Work
         rdf:about="">
        <dc:format>image/svg+xml</dc:format>
        <dc:type
           rdf:resource="http://purl.org/dc/dcmitype/StillImage" />
        <dc:title />
      </cc:Work>
    </rdf:RDF>
  </metadata>
  <g
     inkscape:label="Layer 1"
     inkscape:groupmode="layer"
     id="layer1"
     transform="translate(0,-796.36216)">
    <path
       style="fill:none;fill-rule:evenodd;stroke:none;stroke-width:1px;stroke-linecap:butt;stroke-linejoin:miter;stroke-opacity:1"
       d="M 154.47438,968.80998 101.03985,1048.476 0.4857685,1048.9618 0,842.0244 l 33.032258,-2.42884 45.176471,83.55218 21.373814,35.4611 26.717267,13.11575 z"
       id="path4913"
       inkscape:connector-curvature="0" />
    <circle
       r="128"
       cy="924.36218"
       cx="128"
       id="path4152"
       style="fill:#9abef9;fill-opacity:1;stroke:none;stroke-width:10;stroke-linejoin:round;stroke-miterlimit:4;stroke-dasharray:none;stroke-opacity:0.25882353" />
    <text
       xml:space="preserve"
       style="font-style:normal;font-weight:normal;font-size:40px;line-height:125%;font-family:sans-serif;letter-spacing:0px;word-spacing:0px;fill:#000000;fill-opacity:1;stroke:none;stroke-width:1px;stroke-linecap:butt;stroke-linejoin:miter;stroke-opacity:1"
       x="120"
       y="927.36218"
       id="text4914"
       sodipodi:linespacing="125%"><tspan
         sodipodi:role="line"
         id="tspan4916"
         x="120"
         y="927.36218" /></text>
    <circle
       style="opacity:1;fill:#4285f4;fill-opacity:1;stroke:none;stroke-width:2;stroke-linecap:round;stroke-linejoin:round;stroke-miterlimit:4;stroke-dasharray:none;stroke-opacity:1"
       id="circle4215"
       cx="128"
       cy="914.36218"
       r="47.5" />
    <path
       inkscape:connector-curvature="0"
       id="path4207"
       d="m 163.11252,921.17984 a 44.359747,44.359747 0 0 1 -32.18248,13.91007 44.359747,44.359747 0 0 1 -32.191131,-13.8711 33.26981,33.26981 0 0 0 32.191131,24.96103 33.26981,33.26981 0 0 0 32.18248,-25 z"
       style="fill:#ffffff;fill-opacity:1;stroke:none;stroke-width:0.1;stroke-linecap:round;stroke-linejoin:round;stroke-miterlimit:4;stroke-dasharray:none;stroke-opacity:1" />
    <g
       id="g4234"
       clip-path="url(#clipPath4309)"
       style="fill:#4285f4;fill-opacity:1">
      <g
         id="g4236"
         style="fill:#4285f4;fill-opacity:1">
        <path
           id="path4238"
           d="M128.0 849.36218C96.9487406714 849.36218 69.6529355188 859.735735378 53.9844438182 875.404227079L-87.4369124191 1016.82558332C-71.7684207185 1001.15709162 -44.4726155659 990.783536237 -13.4213562373 990.783536237Z"
           style="fill:#4285f4;fill-opacity:1" />
        <path
           id="path4240"
           d="M53.9844438182 875.404227079C45.1235925909 884.265078306 39.9813107225 894.819320535 39.98131 906.14843L-101.440046237 1047.56978624C-101.440045515 1036.24067677 -96.2977636464 1025.68643454 -87.4369124191 1016.82558332Z"
           style="fill:#4285f4;fill-opacity:1" />
        <path
           id="path4242"
           d="M39.98131 906.14843C39.981312 937.51061 79.388621 962.93468 128.0 962.93468L-13.4213562373 1104.35603624C-62.0327352373 1104.35603624 -101.440044237 1078.93196624 -101.440046237 1047.56978624Z"
           style="fill:#4285f4;fill-opacity:1" />
        <path
           id="path4244"
           d="M128.0 962.93468C132.02096 962.91378 136.03498 962.71517 140.01384 962.3402L-1.40751623731 1103.76155624C-5.38637623731 1104.13652624 -9.40039623731 1104.33513624 -13.4213562373 1104.35603624Z"
           style="fill:#4285f4;fill-opacity:1" />
        <path
           id="path4246"
           d="M140.01384 962.3402L125.98809 999.36218L-15.4332662373 1140.78353624L-1.40751623731 1103.76155624Z"
           style="fill:#4285f4;fill-opacity:1" />
        <path
           id="path4248"
           d="M125.98809 999.36218L158.4361 972.6682L17.0147437627 1114.08955624L-15.4332662373 1140.78353624Z"
           style="fill:#4285f4;fill-opacity:1" />
        <path
           id="path4250"
           d="M158.4361 972.6682L190.88412 945.97201L49.4627637627 1087.39336624L17.0147437627 1114.08955624Z"
           style="fill:#4285f4;fill-opacity:1" />
        <path
           id="path4252"
           d="M190.88412 945.97201C190.81972 945.94781 190.78832 945.93601 190.72441 945.91211L49.3030537627 1087.33346624C49.3669637627 1087.35736624 49.3983637627 1087.36916624 49.4627637627 1087.39336624Z"
           style="fill:#4285f4;fill-opacity:1" />
        <path
           id="path4254"
           d="M190.72441 945.91211C194.970655577 943.129328198 198.728078803 940.093537015 201.961368304 936.860247513L60.5400120671 1078.28160375C57.3067225653 1081.51489325 53.5492993397 1084.55068444 49.3030537627 1087.33346624Z"
           style="fill:#4285f4;fill-opacity:1" />
        <path
           id="path4256"
           d="M201.961368304 936.860247513C211.049260374 927.772355444 215.996400247 917.124190567 216.01869 906.14839L74.5973337627 1047.56974624C74.5750440093 1058.5455468 69.6279041363 1069.19371168 60.5400120671 1078.28160375Z"
           style="fill:#4285f4;fill-opacity:1" />
        <path
           id="path4258"
           d="M216.01869 906.14839C202.70376 865.27725 156.39413 849.91894 128.0 849.36218L-13.4213562373 990.783536237C14.9727737627 991.340296237 61.2824037627 1006.69860624 74.5973337627 1047.56974624Z"
           style="fill:#4285f4;fill-opacity:1" />
      </g>
      <path
         sodipodi:nodetypes="cscccccccc"
         style="fill:#4285f4;fill-opacity:1"
         d="m 128,849.36218 c -48.611379,0 -88.018688,25.42407 -88.01869,56.78625 2e-6,31.36218 39.407311,56.78625 88.01869,56.78625 4.02096,-0.0209 8.03498,-0.21951 12.01384,-0.59448 l -14.02575,37.02198 32.44801,-26.69398 32.44802,-26.69619 c -0.0644,-0.0242 -0.0958,-0.036 -0.15971,-0.0599 16.18128,-10.60442 25.26406,-24.88295 25.29428,-39.76372 C 202.70376,865.27725 156.39413,849.91894 128,849.36218 Z"
         id="path4198"
         inkscape:connector-curvature="0" />
    </g>
    <path
       inkscape:connector-curvature="0"
       id="path4186"
       d="M 128,849.36218 A 88.018691,56.786252 0 0 0 39.98131,906.14843 88.018691,56.786252 0 0 0 128,962.93468 88.018691,56.786252 0 0 0 140.01384,962.3402 l -14.02575,37.02198 32.44801,-26.69398 32.44802,-26.69619 c -0.0644,-0.0242 -0.0958,-0.036 -0.15971,-0.0599 A 88.018691,56.786252 0 0 0 216.01869,906.14839 88.018691,56.786252 0 0 0 128,849.36214 Z"
       style="fill:#ffffff;fill-opacity:1" />
  </g>
</svg>
