<?xml version="1.0" encoding="UTF-8" standalone="no"?>
<!-- Created with Inkscape (http://www.inkscape.org/) -->

<svg
   xmlns:dc="http://purl.org/dc/elements/1.1/"
   xmlns:cc="http://creativecommons.org/ns#"
   xmlns:rdf="http://www.w3.org/1999/02/22-rdf-syntax-ns#"
   xmlns:svg="http://www.w3.org/2000/svg"
   xmlns="http://www.w3.org/2000/svg"
   xmlns:sodipodi="http://sodipodi.sourceforge.net/DTD/sodipodi-0.dtd"
   xmlns:inkscape="http://www.inkscape.org/namespaces/inkscape"
   sodipodi:docname="lighttale.svg"
   inkscape:version="0.91 r13725"
   version="1.1"
   id="svg2"
   viewBox="0 0 256 256"
   height="256"
   width="256">
  <sodipodi:namedview
     inkscape:window-maximized="1"
     inkscape:window-y="0"
     inkscape:window-x="0"
     inkscape:window-height="1033"
     inkscape:window-width="1920"
     units="px"
     showgrid="true"
     inkscape:current-layer="layer1"
     inkscape:document-units="px"
     inkscape:cy="128"
     inkscape:cx="77.165279"
     inkscape:zoom="3.2851562"
     inkscape:pageshadow="2"
     inkscape:pageopacity="0.0"
     borderopacity="1.0"
     bordercolor="#666666"
     pagecolor="#ffffff"
     id="base">
    <inkscape:grid
       type="xygrid"
       id="grid4168"
       spacingx="5"
       spacingy="5" />
  </sodipodi:namedview>
  <defs
     id="defs4">
    <inkscape:path-effect
       effect="skeletal"
       id="path-effect4235"
       is_visible="true"
       pattern="M 0,0 1,0"
       copytype="single_stretched"
       prop_scale="1"
       scale_y_rel="false"
       spacing="0"
       normal_offset="0"
       tang_offset="0"
       prop_units="false"
       vertical_pattern="false"
       fuse_tolerance="0" />
    <clipPath
       clipPathUnits="userSpaceOnUse"
       id="clipPath5002">
      <g
         id="g5004">
        <path
           transform="translate(0,796.36216)"
           inkscape:connector-curvature="0"
           id="path5006"
           d="M 88.118406,249.43519 C 46.103287,235.29134 14.771284,201.68742 4.1335861,159.36053 1.3377997,148.23623 0.92261224,144.16281 0.92582381,127.88908 0.92787958,117.47222 1.134384,112.01362 1.6577819,108.54099 4.4653598,89.913336 12.17654,70.638106 23.042737,55.086148 c 3.958678,-5.665755 8.344812,-10.93092 9.101533,-10.925587 0.32809,0.0023 10.488643,18.309713 22.579009,40.683112 12.090365,22.373397 22.374546,41.334697 22.853732,42.136217 0.479186,0.80151 0.924733,2.44098 0.990103,3.64326 0.343424,6.31639 2.524175,14.20976 5.6424,20.42304 2.954444,5.88693 5.065381,8.73258 10.434696,14.06652 6.71418,6.66995 12.88853,10.28643 21.73204,12.72904 3.16587,0.87442 5.10478,1.05037 11.57517,1.05037 8.82596,0 12.60219,-0.76201 19.26429,-3.88733 2.04584,-0.95974 3.93661,-1.66536 4.20172,-1.56805 0.2651,0.0973 -11.0555,17.66459 -25.1569,39.0384 l -25.6389,38.86148 -3.094121,0.11221 c -2.554618,0.0927 -4.195204,-0.25845 -9.409103,-2.01364 z"
           style="fill:#0f9d58;fill-opacity:1;stroke:none;stroke-width:4.85768509;stroke-linejoin:round;stroke-miterlimit:4;stroke-dasharray:none;stroke-opacity:1" />
        <path
           inkscape:connector-curvature="0"
           id="path5008"
           d="m 112.35984,1051.5167 c -10.0014,-1.4495 -12.15632,-1.8201 -12.531784,-2.1556 -0.248854,-0.2223 1.738304,-3.7475 4.550294,-8.0722 7.16635,-11.0213 49.77231,-74.64801 50.25856,-75.05489 3.57509,-2.99158 8.63523,-8.0414 10.57512,-10.55356 3.36154,-4.35318 7.55784,-12.9141 9.06523,-18.494 6.19314,-22.92535 -2.59253,-47.15185 -21.69967,-59.83688 l -2.96081,-1.96565 17.02469,0.29584 c 9.36358,0.1627 31.17032,0.43384 48.45941,0.60252 l 31.43471,0.30668 1.54584,4.18869 c 2.24597,6.08579 4.67816,15.0947 5.93451,21.9816 1.52517,8.36049 1.92536,28.85896 0.73851,37.82758 -3.0805,23.27845 -12.81326,45.72018 -27.80202,64.10577 -20.47622,25.1166 -51.4599,42.1974 -84.14612,46.3885 -5.31244,0.6812 -26.64601,0.9864 -30.44647,0.4356 z"
           style="fill:#f4b400;fill-opacity:1;stroke:none;stroke-width:4.85768509;stroke-linejoin:round;stroke-miterlimit:4;stroke-dasharray:none;stroke-opacity:1" />
        <path
           transform="translate(0,796.36216)"
           inkscape:connector-curvature="0"
           id="path5010"
           d="M 67.989788,108.87302 C 41.284246,59.575543 33.290284,45.149038 32.233625,44.344765 31.651257,43.901497 32.811213,42.549931 38.695603,36.815353 53.43581,22.450419 68.809334,13.040746 87.839196,6.7360352 101.68742,2.1480329 112.58238,0.43719165 127.95142,0.43719165 c 21.3099,0 37.80488,3.80960275 56.83492,13.12633035 25.29351,12.383198 46.19421,33.578863 58.51993,59.345832 1.61138,3.368591 2.92978,6.372442 2.92978,6.675231 0,0.560033 -10.54865,0.49527 -71.16508,-0.436914 l -24.28843,-0.373518 -3.93063,-1.764495 c -6.75732,-3.033425 -10.64587,-3.839529 -18.6576,-3.867747 -5.0296,-0.01773 -7.97946,0.207636 -10.31642,0.788106 -14.50826,3.603659 -26.283291,12.94777 -33.291614,26.418653 -3.58502,6.89086 -5.24713,13.08166 -6.331628,23.58317 l -0.33738,3.26696 -9.92748,-18.32578 z"
           style="fill:#db4437;fill-opacity:1;stroke:none;stroke-width:10;stroke-linejoin:round;stroke-miterlimit:4;stroke-dasharray:none;stroke-opacity:1" />
      </g>
    </clipPath>
    <clipPath
       id="clipPath4271"
       clipPathUnits="userSpaceOnUse">
      <circle
         r="128"
         cy="128.00002"
         cx="128"
         id="circle4273"
         style="fill:#292929;fill-opacity:0.26020412;stroke:none;stroke-width:10;stroke-linejoin:round;stroke-miterlimit:4;stroke-dasharray:none;stroke-opacity:0.25882353" />
    </clipPath>
    <clipPath
       clipPathUnits="userSpaceOnUse"
       id="clipPath4363">
      <circle
         r="128"
         cy="924.36218"
         cx="128"
         id="circle4365"
         style="fill:#4285f4;fill-opacity:1;stroke:none;stroke-width:10;stroke-linejoin:round;stroke-miterlimit:4;stroke-dasharray:none;stroke-opacity:0.25882353" />
    </clipPath>
    <clipPath
       id="clipPath4452"
       clipPathUnits="userSpaceOnUse">
      <circle
         r="128"
         cy="924.36218"
         cx="128"
         id="circle4454"
         style="fill:#4285f4;fill-opacity:1;stroke:none;stroke-width:10;stroke-linejoin:round;stroke-miterlimit:4;stroke-dasharray:none;stroke-opacity:0.25882353" />
    </clipPath>
    <clipPath
       clipPathUnits="userSpaceOnUse"
       id="clipPath5177">
      <circle
         r="128"
         cy="924.36218"
         cx="128"
         id="circle5179"
         style="fill:#4285f4;fill-opacity:1;stroke:none;stroke-width:10;stroke-linejoin:round;stroke-miterlimit:4;stroke-dasharray:none;stroke-opacity:0.25882353" />
    </clipPath>
    <clipPath
       id="clipPath4342"
       clipPathUnits="userSpaceOnUse">
      <circle
         r="128"
         cy="933.48718"
         cx="128"
         id="circle4344"
         style="fill:#4285f4;fill-opacity:1;stroke:none;stroke-width:10;stroke-linejoin:round;stroke-miterlimit:4;stroke-dasharray:none;stroke-opacity:0.25882353" />
    </clipPath>
    <clipPath
       clipPathUnits="userSpaceOnUse"
       id="clipPath4681">
      <circle
         r="128"
         cy="930.43964"
         cx="127.00293"
         id="circle4683"
         style="fill:#9d5fad;fill-opacity:1;stroke:none;stroke-width:10;stroke-linejoin:round;stroke-miterlimit:4;stroke-dasharray:none;stroke-opacity:0.25882353" />
    </clipPath>
    <clipPath
       id="clipPath4480"
       clipPathUnits="userSpaceOnUse">
      <circle
         r="128"
         cy="924.36218"
         cx="128"
         id="circle4482"
         style="fill:#df7618;fill-opacity:1;stroke:none;stroke-width:10;stroke-linejoin:round;stroke-miterlimit:4;stroke-dasharray:none;stroke-opacity:0.25882353" />
    </clipPath>
    <filter
       id="filter4301"
       inkscape:label="Drop Shadow"
       style="color-interpolation-filters:sRGB">
      <feFlood
         id="feFlood4303"
         result="flood"
         flood-color="rgb(0,0,0)"
         flood-opacity="0.498039" />
      <feComposite
         id="feComposite4305"
         result="composite1"
         operator="in"
         in2="SourceGraphic"
         in="flood" />
      <feGaussianBlur
         id="feGaussianBlur4307"
         result="blur"
         stdDeviation="3.7"
         in="composite1" />
      <feOffset
         id="feOffset4309"
         result="offset"
         dy="3.7"
         dx="3.8" />
      <feComposite
         id="feComposite4311"
         result="composite2"
         operator="over"
         in2="offset"
         in="SourceGraphic" />
    </filter>
    <clipPath
       clipPathUnits="userSpaceOnUse"
       id="clipPath5827">
      <circle
         r="128"
         cy="924.36218"
         cx="128"
         id="circle5829"
         style="fill:#df7618;fill-opacity:1;stroke:none;stroke-width:10;stroke-linejoin:round;stroke-miterlimit:4;stroke-dasharray:none;stroke-opacity:0.25882353" />
    </clipPath>
    <clipPath
       id="clipPath5688"
       clipPathUnits="userSpaceOnUse">
      <circle
         r="128"
         cy="923.87457"
         cx="126.04952"
         id="circle5690"
         style="fill:#ffeb4f;fill-opacity:1;stroke:none;stroke-width:10;stroke-linejoin:round;stroke-miterlimit:4;stroke-dasharray:none;stroke-opacity:0.25882353" />
    </clipPath>
    <clipPath
       id="clipPath5238"
       clipPathUnits="userSpaceOnUse">
      <path
         inkscape:connector-curvature="0"
         id="path5240"
         d="m 151.20117,796.60532 -105.78125,0 c -7.804357,0 -14.087891,6.28158 -14.087891,14.08594 l 0,227.33994 c 0,7.8043 6.283534,14.0878 14.087891,14.0878 l 165.16211,0 c 7.80436,0 14.08594,-6.2835 14.08594,-14.0878 l 0,-154.82237 -73.4668,-86.60351 z"
         style="fill:#df1818;fill-opacity:1" />
    </clipPath>
    <clipPath
       id="clipPath5740"
       clipPathUnits="userSpaceOnUse">
      <circle
         r="128"
         cy="923.87457"
         cx="126.04952"
         id="circle5742"
         style="fill:#ffeb4f;fill-opacity:1;stroke:none;stroke-width:10;stroke-linejoin:round;stroke-miterlimit:4;stroke-dasharray:none;stroke-opacity:0.25882353" />
    </clipPath>
    <clipPath
       id="clipPath5744"
       clipPathUnits="userSpaceOnUse">
      <circle
         r="99.950417"
         cy="962.41302"
         cx="128.12729"
         id="circle5746"
         style="fill:#ffeb4f;fill-opacity:1;stroke:none;stroke-width:10;stroke-linejoin:round;stroke-miterlimit:4;stroke-dasharray:none;stroke-opacity:0.25882353" />
    </clipPath>
    <clipPath
       clipPathUnits="userSpaceOnUse"
       id="clipPath4649">
      <circle
         r="53.581394"
         cy="57.295895"
         cx="62.183521"
         id="circle4651"
         style="fill:#29abe2;fill-opacity:1;stroke:none;stroke-width:10;stroke-linejoin:round;stroke-miterlimit:4;stroke-dasharray:none;stroke-opacity:0.25882353" />
    </clipPath>
    <clipPath
       id="clipPath4835"
       clipPathUnits="userSpaceOnUse">
      <circle
         r="53.581394"
         cy="57.500008"
         cx="63"
         id="circle4837"
         style="fill:#29abe2;fill-opacity:1;stroke:none;stroke-width:10;stroke-linejoin:round;stroke-miterlimit:4;stroke-dasharray:none;stroke-opacity:0.25882353" />
    </clipPath>
    <clipPath
       clipPathUnits="userSpaceOnUse"
       id="clipPath4437">
      <circle
         r="128"
         cy="924.36218"
         cx="128"
         id="circle4439"
         style="fill:#38a7db;fill-opacity:1;stroke:none;stroke-width:10;stroke-linejoin:round;stroke-miterlimit:4;stroke-dasharray:none;stroke-opacity:0.25882353" />
    </clipPath>
  </defs>
  <metadata
     id="metadata7">
    <rdf:RDF>
      <cc:Work
         rdf:about="">
        <dc:format>image/svg+xml</dc:format>
        <dc:type
           rdf:resource="http://purl.org/dc/dcmitype/StillImage" />
        <dc:title />
      </cc:Work>
    </rdf:RDF>
  </metadata>
  <g
     transform="translate(0,-796.36216)"
     id="layer1"
     inkscape:groupmode="layer"
     inkscape:label="Layer 1">
    <path
       inkscape:connector-curvature="0"
       id="path4913"
       d="M 154.47438,968.80998 101.03985,1048.476 0.4857685,1048.9618 0,842.0244 l 33.032258,-2.42884 45.176471,83.55218 21.373814,35.4611 26.717267,13.11575 z"
       style="fill:none;fill-rule:evenodd;stroke:none;stroke-width:1px;stroke-linecap:butt;stroke-linejoin:miter;stroke-opacity:1" />
    <circle
       style="fill:#38a7db;fill-opacity:1;stroke:none;stroke-width:10;stroke-linejoin:round;stroke-miterlimit:4;stroke-dasharray:none;stroke-opacity:0.25882353"
       id="path4152"
       cx="128"
       cy="924.36218"
       r="128" />
    <text
       sodipodi:linespacing="125%"
       id="text4914"
       y="927.36218"
       x="120"
       style="font-style:normal;font-weight:normal;font-size:40px;line-height:125%;font-family:sans-serif;letter-spacing:0px;word-spacing:0px;fill:#000000;fill-opacity:1;stroke:none;stroke-width:1px;stroke-linecap:butt;stroke-linejoin:miter;stroke-opacity:1"
       xml:space="preserve"><tspan
         y="927.36218"
         x="120"
         id="tspan4916"
         sodipodi:role="line" /></text>
    <path
       style="fill:none;stroke:black;stroke-opacity:1;stroke-width:1px;stroke-linejoin:miter;stroke-linecap:butt;fill-rule:evenodd"
       d="m 90,171 c -0.02835,0.10164 -0.09512,0.18781 -0.142791,0.28195 -0.03402,0.0672 -0.06286,0.17517 0.01,0.19433 0.629137,0.16553 1.29252,0 1.943068,0 2e-6,0 4e-6,0 6e-6,0 2.428841,0 4.857683,0 7.286524,0 10e-7,0 2e-6,0 3e-6,0 5.667296,0 11.334596,0 17.001896,0 0,0 0,0 0,0 11.01075,0 22.02151,0 33.03226,0 3.40038,0 6.80076,0 10.20114,0 1.13346,0 2.26692,0 3.40038,0 0.64769,0 1.29538,0 1.94307,0 0,0 0,0 1e-5,0 0.16221,0 0.32574,0.0266 0.48575,0 0,0 1e-5,0 1e-5,0 0.8145,-0.13574 1.61434,-0.35002 2.42884,-0.48577 0,0 1e-5,0 1e-5,0 0.16001,-0.0266 0.32354,0 0.48576,0 0.64769,0 1.29539,0 1.94308,0 1.61923,0 3.23845,0 4.85768,0 1.94307,0 3.88615,0 5.82922,0 0.65029,0 1.31221,0.15772 1.94308,0 0.23053,-0.0576 0.26033,-0.41062 0.48575,-0.48577 10e-6,0 10e-6,0 10e-6,0 0.30935,-0.10312 0.64546,0 0.97153,0 1e-5,0 1e-5,0 1e-5,0 0.48771,0 0.98416,0.11829 1.45731,0 0.22811,-0.057 0.27547,-0.38062 0.48577,-0.48576 0.0332,-0.0166 0.073,-0.0132 0.11001,-0.0156 0,0 0,0 0,0 0.0743,-0.005 0.14882,-0.006 0.22329,-0.007 0.21191,-0.003 0.42387,-6e-4 0.63577,0.003 0.32448,0.005 0.64949,0.0204 0.974,0.0204 1.29538,0 2.59077,0 3.88615,0 0.33969,0 0.67926,0.0178 1.01889,0.024 1e-5,0 1e-5,0 1e-5,0 0.20078,0.004 0.40162,0.007 0.6024,0.003 0,0 10e-6,0 10e-6,0 0.10737,-0.002 0.22572,0.0211 0.32176,-0.027 0.20741,-0.1037 0.27836,-0.38207 0.48577,-0.48577 0.0501,-0.0251 0.11077,-0.0175 0.16675,-0.0206 0.1181,-0.006 0.23641,-0.008 0.35467,-0.01 0.34828,-0.004 0.6966,-6.9e-4 1.04487,0.003 0.61137,0.007 1.22268,0.0269 1.83409,0.0269 0.43027,0 0.86055,-0.006 1.29082,-0.008 0.26002,-0.001 0.52005,-0.002 0.78008,-0.001 0.0852,4.2e-4 0.17049,9e-4 0.25571,0.003 l 0,0 c 0,0 1e-5,0 1e-5,0 0.0244,5.9e-4 0.0489,0.001 0.0733,0.003 0.009,5.7e-4 0.0217,-0.003 0.0289,0.004 0.0602,0.0602 0.0251,0.16159 5e-5,0.24293 -0.0251,0.0813 -0.0602,0.1827 0,0.24289 0.0726,0.0726 0.19615,0.0134 0.2942,-0.0172 0.0707,-0.0221 0.20179,-0.0562 0.19157,0.0172 -0.054,0.38821 -0.41242,0.65005 -0.62239,0.98102"
       id="path4233"
       inkscape:path-effect="#path-effect4235"
       inkscape:original-d="m 90,171 c -0.04428,0.15876 -0.292221,0.43434 -0.132827,0.47628 0.626374,0.1648 1.295382,0 1.943074,0 2.428842,0 4.857685,0 7.286527,0 5.667296,0 11.334596,0 17.001896,0 11.01075,0 22.02151,0 33.03226,0 3.40038,0 6.80076,0 10.20114,0 1.13346,0 2.26692,0 3.40038,0 0.64769,0 1.29538,0 1.94307,0 0.16192,0 0.32605,0.0266 0.48577,0 0.81441,-0.13573 1.61443,-0.35003 2.42884,-0.48577 0.15972,-0.0266 0.32385,0 0.48577,0 0.64769,0 1.29538,0 1.94308,0 1.61922,0 3.23845,0 4.85768,0 1.94307,0 3.88615,0 5.82922,0 0.64769,0 1.31472,0.15709 1.94308,0 0.22215,-0.0555 0.26852,-0.41335 0.48576,-0.48577 0.30723,-0.10241 0.6477,0 0.97154,0 0.48577,0 0.98604,0.11782 1.45731,0 0.22215,-0.0555 0.28095,-0.38336 0.48577,-0.48576 0.10887,-0.0544 1.82764,0 1.94307,0 1.29538,0 2.59077,0 3.88615,0 0.25402,0 1.81534,0.0639 1.94307,0 0.20482,-0.10241 0.28095,-0.38336 0.48577,-0.48577 0.14338,-0.0717 2.89994,0 3.40038,0 0.22904,0 2.40683,-0.022 2.42884,0 0.1145,0.11449 -0.11449,0.37127 0,0.48577 0.1145,0.11449 0.50811,-0.16038 0.48577,0 -0.0534,0.38356 -0.41493,0.65401 -0.62239,0.98102" />
    <g
       id="g4295"
       clip-path="url(#clipPath4437)"
       style="fill:#003653;fill-opacity:1">
      <g
         id="g4297"
         style="fill:#003653;fill-opacity:1;stroke:none;stroke-width:15;stroke-linejoin:bevel;stroke-miterlimit:4;stroke-dasharray:none;stroke-opacity:1">
        <path
           id="path4299"
           d="M159.76923 851.31837C116.36554 851.31837 114.38985 851.38117 112.73944 852.87603L-28.6819162373 994.297386237C-27.0315062373 992.802526237 -25.0558162373 992.739726237 18.3478737627 992.739726237Z"
           style="fill:#003653;fill-opacity:1" />
        <path
           id="path4301"
           d="M112.73944 852.87603C112.667141485 852.941456821 112.597216104 853.007979726 112.529664342 853.075531487L-28.8916918953 994.496887725C-28.8241401336 994.429335963 -28.7542147526 994.362813058 -28.6819162373 994.297386237Z"
           style="fill:#003653;fill-opacity:1" />
        <path
           id="path4303"
           d="M112.529664342 853.075531487C110.569098655 855.036097175 110.607936798 857.863313793 112.65804 859.91362L-28.7633162373 1001.33497624C-30.8134194391 999.28467003 -30.8522575828 996.457453412 -28.8916918953 994.496887725Z"
           style="fill:#003653;fill-opacity:1" />
        <path
           id="path4305"
           d="M112.65804 859.91362C114.24226 861.49776 115.38565 861.54632 148.28383 861.54632L6.86247376269 1002.96767624C-26.0357062373 1002.96767624 -27.1790962373 1002.91911624 -28.7633162373 1001.33497624Z"
           style="fill:#003653;fill-opacity:1" />
        <path
           id="path4307"
           d="M148.28383 861.54632C185.74355 861.54632 185.67244 861.54932 191.11609 866.70721L49.6947337627 1008.12856624C44.2510837627 1002.97067624 44.3221937627 1002.96767624 6.86247376269 1002.96767624Z"
           style="fill:#003653;fill-opacity:1" />
        <path
           id="path4309"
           d="M191.11609 866.70721C197.21002 872.48905 196.91372 869.00803 196.9338 934.48064L55.5124437627 1075.90199624C55.4923637627 1010.42938624 55.7886637627 1013.91040624 49.6947337627 1008.12856624Z"
           style="fill:#003653;fill-opacity:1" />
        <path
           id="path4311"
           d="M196.9338 934.48064C196.9531 992.52098 196.9684 993.11242 198.64785 995.24785L57.2264937627 1136.66920624C55.5470437627 1134.53377624 55.5317437627 1133.94233624 55.5124437627 1075.90199624Z"
           style="fill:#003653;fill-opacity:1" />
        <path
           id="path4313"
           d="M198.64785 995.24785C200.65794 997.80335 203.37444 998.01625 206.06703 995.83585L64.6456737627 1137.25720624C61.9530837627 1139.43760624 59.2365837627 1139.22470624 57.2264937627 1136.66920624Z"
           style="fill:#003653;fill-opacity:1" />
        <path
           id="path4315"
           d="M206.06703 995.83585L208.0 994.27189L66.5786437627 1135.69324624L64.6456737627 1137.25720624Z"
           style="fill:#003653;fill-opacity:1" />
        <path
           id="path4317"
           d="M208.0 994.27189L208.0 924.25895L66.5786437627 1065.68030624L66.5786437627 1135.69324624Z"
           style="fill:#003653;fill-opacity:1" />
        <path
           id="path4319"
           d="M208.0 924.25895C208.0 858.13551 207.9161 854.16266 206.5362 852.78221L65.1148437627 994.203566237C66.4947437627 995.584016237 66.5786437627 999.556866237 66.5786437627 1065.68030624Z"
           style="fill:#003653;fill-opacity:1" />
        <path
           id="path4321"
           d="M206.5362 852.78221C205.16847 851.41458 202.17112 851.31837 159.76916 851.31837L18.3478037627 992.739726237C60.7497637627 992.739726237 63.7471137627 992.835936237 65.1148437627 994.203566237Z"
           style="fill:#003653;fill-opacity:1" />
        <path
           id="path4323"
           d="M53.905308 851.72501C52.4685322467 851.648995572 51.0062712498 852.12537829 49.9551079122 853.176541627L-91.4662483251 994.597897865C-90.4150849875 993.546734527 -88.9528239906 993.070351809 -87.5160482373 993.146366237Z"
           style="fill:#003653;fill-opacity:1" />
        <path
           id="path4325"
           d="M49.9551079122 853.176541627C49.5580154469 853.573634093 49.2195891718 854.052751324 48.963365 854.6151L-92.4579912373 996.036456237C-92.2017670655 995.474107561 -91.8633407905 994.99499033 -91.4662483251 994.597897865Z"
           style="fill:#003653;fill-opacity:1" />
        <path
           id="path4327"
           d="M48.963365 854.6151C48.255208 856.16945 48.0 874.53575 48.0 924.9033L-93.4213562373 1066.32465624C-93.4213562373 1015.95710624 -93.1661482373 997.590806237 -92.4579912373 996.036456237Z"
           style="fill:#003653;fill-opacity:1" />
        <path
           id="path4329"
           d="M48.0 924.9033C48.0 992.64643 48.01505 993.10537 49.70153 995.24785L-91.7198262373 1136.66920624C-93.4063062373 1134.52672624 -93.4213562373 1134.06778624 -93.4213562373 1066.32465624Z"
           style="fill:#003653;fill-opacity:1" />
        <path
           id="path4331"
           d="M49.70153 995.24785L51.396804 997.40595L-90.0245522373 1138.82730624L-91.7198262373 1136.66920624Z"
           style="fill:#003653;fill-opacity:1" />
        <path
           id="path4333"
           d="M51.396804 997.40595L96.756325 997.40595L-44.6650312373 1138.82730624L-90.0245522373 1138.82730624Z"
           style="fill:#003653;fill-opacity:1" />
        <path
           id="path4335"
           d="M96.756325 997.40595C141.014128373 997.40595 142.156807816 997.364972431 143.753519025 995.768261222L2.33216278781 1137.18961746C0.735451578368 1138.78632867 -0.407227864805 1138.82730624 -44.6650312373 1138.82730624Z"
           style="fill:#003653;fill-opacity:1" />
        <path
           id="path4337"
           d="M143.753519025 995.768261222C143.753955982 995.767824264 143.754392974 995.76738719 143.75483 995.76695L2.33347376269 1137.18830624C2.33303673647 1137.18874343 2.33259974514 1137.1891805 2.33216278781 1137.18961746Z"
           style="fill:#003653;fill-opacity:1" />
        <path
           id="path4339"
           d="M143.75483 995.76695C145.77127 993.75047 145.84209 991.57565 143.96142 989.32371L2.54006376269 1130.74506624C4.42073376269 1132.99700624 4.34991376269 1135.17182624 2.33347376269 1137.18830624Z"
           style="fill:#003653;fill-opacity:1" />
        <path
           id="path4341"
           d="M143.96142 989.32371C142.55424 987.63899 141.92209 987.60401 107.74762 987.3907L-33.6737362373 1128.81205624C0.500733762691 1129.02536624 1.13288376269 1129.06034624 2.54006376269 1130.74506624Z"
           style="fill:#003653;fill-opacity:1" />
        <path
           id="path4343"
           d="M107.74762 987.3907C73.883892 987.17932 72.875575 987.12903 69.688393 985.40767L-71.7329632373 1126.82902624C-68.5457812373 1128.55038624 -67.5374642373 1128.60067624 -33.6737362373 1128.81205624Z"
           style="fill:#003653;fill-opacity:1" />
        <path
           id="path4345"
           d="M69.688393 985.40767C67.887928 984.43624 65.422392 982.59573 64.208466 981.3165L-77.2128902373 1122.73785624C-75.9989642373 1124.01708624 -73.5334282373 1125.85759624 -71.7329632373 1126.82902624Z"
           style="fill:#003653;fill-opacity:1" />
        <path
           id="path4347"
           d="M64.208466 981.3165C59.309827 976.15539 59.460452 978.22884 59.460452 915.30091L-81.9609042373 1056.72226624C-81.9609042373 1119.65019624 -82.1115292373 1117.57674624 -77.2128902373 1122.73785624Z"
           style="fill:#003653;fill-opacity:1" />
        <path
           id="path4349"
           d="M59.460452 915.30091C59.460452 875.52275 59.181162 856.90484 58.559643 855.1218L-82.8617132373 996.543156237C-82.2401942373 998.326196237 -81.9609042373 1016.94410624 -81.9609042373 1056.72226624Z"
           style="fill:#003653;fill-opacity:1" />
        <path
           id="path4351"
           d="M58.559643 855.1218C57.813693 852.98194 55.884999 851.82968 53.905459 851.72501L-87.5158972373 993.146366237C-85.5363572373 993.251036237 -83.6076632373 994.403296237 -82.8617132373 996.543156237Z"
           style="fill:#003653;fill-opacity:1" />
      </g>
      <path
         style="fill:#003653;fill-opacity:1;stroke:none;stroke-width:15;stroke-linejoin:bevel;stroke-miterlimit:4;stroke-dasharray:none;stroke-opacity:1"
         d="m 159.76923,851.31837 c -43.40369,0 -45.37938,0.0628 -47.02979,1.55766 -2.17063,1.96432 -2.20214,4.91664 -0.0814,7.03759 1.58422,1.58414 2.72761,1.6327 35.62579,1.6327 37.45972,0 37.38861,0.003 42.83226,5.16089 6.09393,5.78184 5.79763,2.30082 5.81771,67.77343 0.0193,58.04034 0.0346,58.63178 1.71405,60.76721 2.01009,2.5555 4.72659,2.7684 7.41918,0.588 L 208,994.27189 l 0,-70.01294 c 0,-66.12344 -0.0839,-70.09629 -1.4638,-71.47674 -1.36773,-1.36763 -4.36508,-1.46384 -46.76704,-1.46384 z m -105.863922,0.40664 c -1.979539,-0.10473 -4.007455,0.83912 -4.941943,2.89009 C 48.255208,856.16945 48,874.53575 48,924.9033 c 0,67.74313 0.01505,68.20207 1.70153,70.34455 l 1.695274,2.1581 45.359521,0 c 44.269915,0 45.401105,-0.041 46.998505,-1.639 2.01644,-2.01648 2.08726,-4.1913 0.20659,-6.44324 -1.40718,-1.68472 -2.03933,-1.7197 -36.2138,-1.93301 -33.863728,-0.21138 -34.872045,-0.26167 -38.059227,-1.98303 -1.800465,-0.97143 -4.266001,-2.81194 -5.479927,-4.09117 -4.898639,-5.16111 -4.748014,-3.08766 -4.748014,-66.01559 0,-39.77816 -0.27929,-58.39607 -0.900809,-60.17911 -0.74595,-2.13986 -2.674644,-3.29212 -4.654184,-3.39679 z"
         id="path4240"
         inkscape:connector-curvature="0"
         sodipodi:nodetypes="sccsccsccscsscsccsccsccscs" />
    </g>
    <path
       sodipodi:nodetypes="sccsccsccscsscsccsccsccscs"
       inkscape:connector-curvature="0"
       id="rect3420"
       d="m 159.76923,851.31837 c -43.40369,0 -45.37938,0.0628 -47.02979,1.55766 -2.17063,1.96432 -2.20214,4.91664 -0.0814,7.03759 1.58422,1.58414 2.72761,1.6327 35.62579,1.6327 37.45972,0 37.38861,0.003 42.83226,5.16089 6.09393,5.78184 5.79763,2.30082 5.81771,67.77343 0.0193,58.04034 0.0346,58.63178 1.71405,60.76721 2.01009,2.5555 4.72659,2.7684 7.41918,0.588 L 208,994.27189 l 0,-70.01294 c 0,-66.12344 -0.0839,-70.09629 -1.4638,-71.47674 -1.36773,-1.36763 -4.36508,-1.46384 -46.76704,-1.46384 z m -105.863922,0.40664 c -1.979539,-0.10473 -4.007455,0.83912 -4.941943,2.89009 C 48.255208,856.16945 48,874.53575 48,924.9033 c 0,67.74313 0.01505,68.20207 1.70153,70.34455 l 1.695274,2.1581 45.359521,0 c 44.269915,0 45.401105,-0.041 46.998505,-1.639 2.01644,-2.01648 2.08726,-4.1913 0.20659,-6.44324 -1.40718,-1.68472 -2.03933,-1.7197 -36.2138,-1.93301 -33.863728,-0.21138 -34.872045,-0.26167 -38.059227,-1.98303 -1.800465,-0.97143 -4.266001,-2.81194 -5.479927,-4.09117 -4.898639,-5.16111 -4.748014,-3.08766 -4.748014,-66.01559 0,-39.77816 -0.27929,-58.39607 -0.900809,-60.17911 -0.74595,-2.13986 -2.674644,-3.29212 -4.654184,-3.39679 z"
       style="fill:#ffffff;fill-opacity:1;stroke:none;stroke-width:15;stroke-linejoin:bevel;stroke-miterlimit:4;stroke-dasharray:none;stroke-opacity:1" />
  </g>
</svg>
