<?xml version="1.0" encoding="UTF-8" standalone="no"?>
<!-- Created with Inkscape (http://www.inkscape.org/) -->

<svg
   xmlns:dc="http://purl.org/dc/elements/1.1/"
   xmlns:cc="http://creativecommons.org/ns#"
   xmlns:rdf="http://www.w3.org/1999/02/22-rdf-syntax-ns#"
   xmlns:svg="http://www.w3.org/2000/svg"
   xmlns="http://www.w3.org/2000/svg"
   xmlns:sodipodi="http://sodipodi.sourceforge.net/DTD/sodipodi-0.dtd"
   xmlns:inkscape="http://www.inkscape.org/namespaces/inkscape"
   width="256"
   height="256"
   viewBox="0 0 256 256"
   id="svg2"
   version="1.1"
   inkscape:version="0.91 r13725"
   sodipodi:docname="matlab.svg">
  <sodipodi:namedview
     id="base"
     pagecolor="#ffffff"
     bordercolor="#666666"
     borderopacity="1.0"
     inkscape:pageopacity="0.0"
     inkscape:pageshadow="2"
     inkscape:zoom="3.3632812"
     inkscape:cx="128"
     inkscape:cy="128"
     inkscape:document-units="px"
     inkscape:current-layer="layer1"
     showgrid="false"
     units="px"
     inkscape:window-width="1920"
     inkscape:window-height="1054"
     inkscape:window-x="0"
     inkscape:window-y="0"
     inkscape:window-maximized="1" />
  <defs
     id="defs4">
    <clipPath
       clipPathUnits="userSpaceOnUse"
       id="clipPath4382">
      <circle
         style="fill:#ed690f;fill-opacity:1"
         id="circle4384"
         cx="452.32669"
         cy="614.42175"
         r="415.10107" />
    </clipPath>
  </defs>
  <metadata
     id="metadata7">
    <rdf:RDF>
      <cc:Work
         rdf:about="">
        <dc:format>image/svg+xml</dc:format>
        <dc:type
           rdf:resource="http://purl.org/dc/dcmitype/StillImage" />
        <dc:title></dc:title>
      </cc:Work>
    </rdf:RDF>
  </metadata>
  <g
     transform="translate(0,-796.36219)"
     id="layer1"
     inkscape:groupmode="layer"
     inkscape:label="Layer 1">
    <circle
       r="128"
       cy="924.36218"
       cx="128"
       id="path4170"
       style="fill:#ed690f;fill-opacity:1" />
    <g
       id="g4188"
       transform="matrix(0.30835864,0,0,0.30835864,-11.478839,734.89992)"
       style="fill:#b9470f;fill-opacity:1"
       clip-path="url(#clipPath4382)">
      <g
         id="g4209"
         transform="matrix(3.2429771,0,0,3.2429771,37.225612,199.32073)"
         style="fill:#b9470f;fill-opacity:1">
        <g
           id="g4211"
           style="fill:#b9470f;fill-opacity:1">
          <path
             id="path4213"
             d="M157.29492 51.302734C156.41497 51.355239 155.54772 51.668308 154.6582 52.232422L13.2368437627 193.653778237C14.1263637627 193.089664237 14.9936137627 192.776595237 15.8735637627 192.724090237Z"
             style="fill:#b9470f;fill-opacity:1" />
          <path
             id="path4215"
             d="M154.6582 52.232422C154.057359045 52.6134641739 153.468788813 53.0835732303 152.871361963 53.6810000803L11.4500057255 195.102356318C12.0474325755 194.504929468 12.6360028073 194.034820411 13.2368437627 193.653778237Z"
             style="fill:#b9470f;fill-opacity:1" />
          <path
             id="path4217"
             d="M152.871361963 53.6810000803C149.678757642 56.8736044014 146.233230135 63.7020910896 139.31055 80.003906L-2.11080623731 221.425262237C4.81187389721 205.123447327 8.2574014044 198.294960639 11.4500057255 195.102356318Z"
             style="fill:#b9470f;fill-opacity:1" />
          <path
             id="path4219"
             d="M139.31055 80.003906C133.16811 94.468387 130.5199 100.36742 126.50586 108.52734L-14.9154962373 249.948696237C-10.9014562373 241.788776237 -8.25324623731 235.889743237 -2.11080623731 221.425262237Z"
             style="fill:#b9470f;fill-opacity:1" />
          <path
             id="path4221"
             d="M126.50586 108.52734C117.506360833 126.821932144 108.506292229 140.116760923 98.0155661157 150.607487036L-43.4057901216 292.028843273C-32.9150640086 281.53811716 -23.9149954046 268.243288382 -14.9154962373 249.948696237Z"
             style="fill:#b9470f;fill-opacity:1" />
          <path
             id="path4223"
             d="M98.0155661157 150.607487036C98.0103777751 150.612675376 98.00518907 150.617863031 98.0 150.62305L-43.4213562373 292.044406237C-43.4161671673 292.039219268 -43.4109784622 292.034031614 -43.4057901216 292.028843273Z"
             style="fill:#b9470f;fill-opacity:1" />
          <path
             id="path4225"
             d="M98.0 150.62305C94.673208 153.94849 92.495193 155.83302 86.882812 160.24805L-54.5385442373 301.669406237C-48.9261632373 297.254376237 -46.7481482373 295.369846237 -43.4213562373 292.044406237Z"
             style="fill:#b9470f;fill-opacity:1" />
          <path
             id="path4227"
             d="M86.882812 160.24805L85.8125 161.08984L-55.6088562373 302.511196237L-54.5385442373 301.669406237Z"
             style="fill:#b9470f;fill-opacity:1" />
          <path
             id="path4229"
             d="M85.8125 161.08984L87.046875 160.5957L-54.3744812373 302.017056237L-55.6088562373 302.511196237Z"
             style="fill:#b9470f;fill-opacity:1" />
          <path
             id="path4231"
             d="M87.046875 160.5957C88.836906 159.87867 91.671217 159.9348 93.435547 160.7207L-47.9858092373 302.142056237C-49.7501392373 301.356156237 -52.5844502373 301.300026237 -54.3744812373 302.017056237Z"
             style="fill:#b9470f;fill-opacity:1" />
          <path
             id="path4233"
             d="M93.435547 160.7207C98.135485 162.81425 101.86701 168.952 108.47852 185.46289L-32.9428362373 326.884246237C-39.5543462373 310.373356237 -43.2858712373 304.235606237 -47.9858092373 302.142056237Z"
             style="fill:#b9470f;fill-opacity:1" />
          <path
             id="path4235"
             d="M108.47852 185.46289C111.90164 194.01145 114.80885 200.33816 116.60156 203.14062L-24.8197962373 344.561976237C-26.6125062373 341.759516237 -29.5197162373 335.432806237 -32.9428362373 326.884246237Z"
             style="fill:#b9470f;fill-opacity:1" />
          <path
             id="path4237"
             d="M116.60156 203.14062C117.89883 205.16857 117.56493 205.14256 121.58398 203.5293L-19.8373762373 344.950656237C-23.8564262373 346.563916237 -23.5225262373 346.589926237 -24.8197962373 344.561976237Z"
             style="fill:#b9470f;fill-opacity:1" />
          <path
             id="path4239"
             d="M121.58398 203.5293C126.73071 201.46339 132.19373 197.64057 138.20703 191.89844L-3.21432623731 333.319796237C-9.22762623731 339.061926237 -14.6906462373 342.884746237 -19.8373762373 344.950656237Z"
             style="fill:#b9470f;fill-opacity:1" />
          <path
             id="path4241"
             d="M138.20703 191.89844C138.627727462 191.496714499 139.103147004 191.030786888 139.633324128 190.500609765L-1.78803210978 331.921966002C-2.31820923295 332.452143125 -2.79362877552 332.918070737 -3.21432623731 333.319796237Z"
             style="fill:#b9470f;fill-opacity:1" />
          <path
             id="path4243"
             d="M139.633324128 190.500609765C143.419018983 186.71491491 149.99657291 179.653407276 159.37891 169.29883L17.9575537627 310.720186237C8.57521667314 321.074763513 1.99766274523 328.136271147 -1.78803210978 331.921966002Z"
             style="fill:#b9470f;fill-opacity:1" />
          <path
             id="path4245"
             d="M159.37891 169.29883C161.383524256 167.086485195 163.008495121 165.352916419 164.416059364 163.945352176L22.9947031267 305.366708414C21.5871388838 306.774272657 19.9621680186 308.507841432 17.9575537627 310.720186237Z"
             style="fill:#b9470f;fill-opacity:1" />
          <path
             id="path4247"
             d="M164.416059364 163.945352176C166.757675843 161.603735697 168.497609173 160.16435224 170.38281 158.92383L28.9614537627 300.345186237C27.0762529359 301.585708477 25.3363196061 303.025091934 22.9947031267 305.366708414Z"
             style="fill:#b9470f;fill-opacity:1" />
          <path
             id="path4249"
             d="M170.38281 158.92383C176.08897 155.16899 181.51262 154.9803 188.18945 158.30469L46.7680937627 299.726046237C40.0912637627 296.401656237 34.6676137627 296.590346237 28.9614537627 300.345186237Z"
             style="fill:#b9470f;fill-opacity:1" />
          <path
             id="path4251"
             d="M188.18945 158.30469C192.46049 160.43123 195.5401 162.86443 202.57422 169.66406L61.1528637627 311.085416237C54.1187437627 304.285786237 51.0391337627 301.852586237 46.7680937627 299.726046237Z"
             style="fill:#b9470f;fill-opacity:1" />
          <path
             id="path4253"
             d="M202.57422 169.66406C207.66829 174.58832 210.86889 177.31578 212.93555 178.49609L71.5141937627 319.917446237C69.4475337627 318.737136237 66.2469337627 316.009676237 61.1528637627 311.085416237Z"
             style="fill:#b9470f;fill-opacity:1" />
          <path
             id="path4255"
             d="M212.93555 178.49609C212.957841984 178.508821379 212.974211803 178.50937475 212.984951914 178.498634639L71.5635956765 319.919990877C71.5528555657 319.930730987 71.5364857466 319.930177617 71.5141937627 319.917446237Z"
             style="fill:#b9470f;fill-opacity:1" />
          <path
             id="path4257"
             d="M212.984951914 178.498634639C213.076539713 178.40704684 212.758731495 177.494189769 212.21289 176.30859L70.7915337627 317.729946237C71.3373752575 318.915546007 71.6551834761 319.828403077 71.5635956765 319.919990877Z"
             style="fill:#b9470f;fill-opacity:1" />
          <path
             id="path4259"
             d="M212.21289 176.30859C206.48803 163.87398 202.25213 152.67312 193.46094 126.7207L52.0395837627 268.142056237C60.8307737627 294.094476237 65.0666737627 305.295336237 70.7915337627 317.729946237Z"
             style="fill:#b9470f;fill-opacity:1" />
          <path
             id="path4261"
             d="M193.46094 126.7207C179.84038 86.511591 176.84367 78.391426 171.72266 67.824219L30.3013037627 209.245575237C35.4223137627 219.812782237 38.4190237627 227.932947237 52.0395837627 268.142056237Z"
             style="fill:#b9470f;fill-opacity:1" />
          <path
             id="path4263"
             d="M171.72266 67.824219C168.62142 61.424812 166.23695 57.614428 163.59766 54.835938L22.1763037627 196.257294237C24.8155937627 199.035784237 27.2000637627 202.846168237 30.3013037627 209.245575237Z"
             style="fill:#b9470f;fill-opacity:1" />
          <path
             id="path4265"
             d="M163.59766 54.835938C161.22042 52.33332 159.23081 51.187223 157.29492 51.302734L15.8735637627 192.724090237C17.8094537627 192.608579237 19.7990637627 193.754676237 22.1763037627 196.257294237Z"
             style="fill:#b9470f;fill-opacity:1" />
          <path
             id="path4267"
             d="M141.92383 67.492188C141.916098459 67.482188101 141.89929751 67.4904180342 141.873745646 67.515969898L0.452389409021 208.937326135C0.477941272773 208.911774272 0.49474222173 208.903544338 0.502473762691 208.913544237Z"
             style="fill:#b9470f;fill-opacity:1" />
          <path
             id="path4269"
             d="M141.873745646 67.515969898C141.662799847 67.7269156974 140.855436994 69.1184346136 139.63086 71.179688L-1.79049623731 212.601044237C-0.565919243173 210.539790851 0.241443609559 209.148271935 0.452389409021 208.937326135Z"
             style="fill:#b9470f;fill-opacity:1" />
          <path
             id="path4271"
             d="M139.63086 71.179688C135.094662443 78.815147458 130.34377182 85.2718126312 126.243914831 89.3716696205L-15.1774414067 230.793025858C-11.0775844174 226.693168869 -6.32669379478 220.236503695 -1.79049623731 212.601044237Z"
             style="fill:#b9470f;fill-opacity:1" />
          <path
             id="path4273"
             d="M126.243914831 89.3716696205C126.210092084 89.4054923675 126.176313645 89.4391547145 126.14258 89.472656L-15.2787762373 230.894012237C-15.2450425927 230.860510952 -15.2112641538 230.826848605 -15.1774414067 230.793025858Z"
             style="fill:#b9470f;fill-opacity:1" />
          <path
             id="path4275"
             d="M126.14258 89.472656C122.62462 92.966381 119.57845 94.846398 114.58398 96.607422L-26.8373762373 238.028778237C-21.8429062373 236.267754237 -18.7967362373 234.387737237 -15.2787762373 230.894012237Z"
             style="fill:#b9470f;fill-opacity:1" />
          <path
             id="path4277"
             d="M114.58398 96.607422C111.02625 97.861862 109.67891 98.562767 107.03125 100.53906L-34.3901062373 241.960416237C-31.7424462373 239.984123237 -30.3951062373 239.283218237 -26.8373762373 238.028778237Z"
             style="fill:#b9470f;fill-opacity:1" />
          <path
             id="path4279"
             d="M107.03125 100.53906C105.175547279 101.924215417 103.046549909 103.824263361 100.972261403 105.898551867L-40.4490948348 247.319908105C-38.374806328 245.245619598 -36.245808958 243.345571655 -34.3901062373 241.960416237Z"
             style="fill:#b9470f;fill-opacity:1" />
          <path
             id="path4281"
             d="M100.972261403 105.898551867C98.1761428381 108.694670432 95.4794343789 111.807397162 93.685547 114.40234L-47.7358092373 255.823696237C-45.9419218584 253.228753399 -43.2452133993 250.116026669 -40.4490948348 247.319908105Z"
             style="fill:#b9470f;fill-opacity:1" />
          <path
             id="path4283"
             d="M93.685547 114.40234L92.154297 116.61914L-49.2670592373 258.040496237L-47.7358092373 255.823696237Z"
             style="fill:#b9470f;fill-opacity:1" />
          <path
             id="path4285"
             d="M92.154297 116.61914L101.47266 123.7207L-39.9486962373 265.142056237L-49.2670592373 258.040496237Z"
             style="fill:#b9470f;fill-opacity:1" />
          <path
             id="path4287"
             d="M101.47266 123.7207C108.54916 129.11378 110.87852 130.73618 111.1543 130.4668L-30.2670562373 271.888156237C-30.5428362373 272.157536237 -32.8721962373 270.535136237 -39.9486962373 265.142056237Z"
             style="fill:#b9470f;fill-opacity:1" />
          <path
             id="path4289"
             d="M111.1543 130.4668C111.155023792 130.466092986 111.155759667 130.465365489 111.156507584 130.464617572L-30.264848653 271.885973809C-30.26559657 271.886721726 -30.2663324452 271.887449224 -30.2670562373 271.888156237Z"
             style="fill:#b9470f;fill-opacity:1" />
          <path
             id="path4291"
             d="M111.156507584 130.464617572C111.362146938 130.258978218 112.478112299 128.509702183 113.64453 126.56641L-27.7768262373 267.987766237C-28.9432439381 269.93105842 -30.0592092998 271.680334456 -30.264848653 271.885973809Z"
             style="fill:#b9470f;fill-opacity:1" />
          <path
             id="path4293"
             d="M113.64453 126.56641C120.08698 115.83308 125.77173 104.26921 136.45703 80.158203L-4.96432623731 221.579559237C-15.6496262373 245.690566237 -21.3343762373 257.254436237 -27.7768262373 267.987766237Z"
             style="fill:#b9470f;fill-opacity:1" />
          <path
             id="path4295"
             d="M136.45703 80.158203C140.47188 71.098823 142.02841 67.62746 141.92383 67.492188L0.502473762691 208.913544237C0.607053762691 209.048816237 -0.949476237309 212.520179237 -4.96432623731 221.579559237Z"
             style="fill:#b9470f;fill-opacity:1" />
          <path
             id="path4297"
             d="M90.041016 117.83203C89.85613 117.87712 47.128437 135.0552 44.054688 136.32031L-97.3666682373 277.741666237C-94.2929192373 276.476556237 -51.5652262373 259.298476237 -51.3803402373 259.253386237Z"
             style="fill:#b9470f;fill-opacity:1" />
          <path
             id="path4299"
             d="M44.054688 136.32031L43.0 136.75586L-98.4213562373 278.177216237L-97.3666682373 277.741666237Z"
             style="fill:#b9470f;fill-opacity:1" />
          <path
             id="path4301"
             d="M43.0 136.75586L62.234375 148.77539L-79.1869812373 290.196746237L-98.4213562373 278.177216237Z"
             style="fill:#b9470f;fill-opacity:1" />
          <path
             id="path4303"
             d="M62.234375 148.77539C72.813155 155.38619 81.585409 160.79492 81.728516 160.79492L-59.6928402373 302.216276237C-59.8359472373 302.216276237 -68.6082012373 296.807546237 -79.1869812373 290.196746237Z"
             style="fill:#b9470f;fill-opacity:1" />
          <path
             id="path4305"
             d="M81.728516 160.79492C81.871622 160.79492 83.379146 159.74173 85.078125 158.45508L-56.3432312373 299.876436237C-58.0422102373 301.163086237 -59.5497342373 302.216276237 -59.6928402373 302.216276237Z"
             style="fill:#b9470f;fill-opacity:1" />
          <path
             id="path4307"
             d="M85.078125 158.45508C89.7782345751 154.89564905 93.7865747029 151.459892941 97.3598174909 147.886650153L-44.0615387464 289.308006391C-47.6347815344 292.881249179 -51.6431216622 296.317005287 -56.3432312373 299.876436237Z"
             style="fill:#b9470f;fill-opacity:1" />
          <path
             id="path4309"
             d="M97.3598174909 147.886650153C101.315958415 143.93050923 104.738758446 139.805837585 107.97656 135.1582L-33.4447962373 276.579556237C-36.6825977915 281.227193823 -40.1053978227 285.351865467 -44.0615387464 289.308006391Z"
             style="fill:#b9470f;fill-opacity:1" />
          <path
             id="path4311"
             d="M107.97656 135.1582C108.76101 134.03218 109.39598 132.99166 109.38672 132.8457L-32.0346362373 274.267056237C-32.0253762373 274.413016237 -32.6603462373 275.453536237 -33.4447962373 276.579556237Z"
             style="fill:#b9470f;fill-opacity:1" />
          <path
             id="path4313"
             d="M109.38672 132.8457C109.366 132.51932 90.345261 117.75783 90.041016 117.83203L-51.3803402373 259.253386237C-51.0760952373 259.179186237 -32.0553562373 273.940676237 -32.0346362373 274.267056237Z"
             style="fill:#b9470f;fill-opacity:1" />
        </g>
        <path
           id="path4190"
           transform=""
           d="M 157.29492 51.302734 C 156.41497 51.355239 155.54772 51.668308 154.6582 52.232422 C 150.84651 54.649725 147.52866 60.651559 139.31055 80.003906 C 133.16811 94.468387 130.5199 100.36742 126.50586 108.52734 C 117.50191 126.83098 108.49739 140.12991 98 150.62305 C 94.673208 153.94849 92.495193 155.83302 86.882812 160.24805 L 85.8125 161.08984 L 87.046875 160.5957 C 88.836906 159.87867 91.671217 159.9348 93.435547 160.7207 C 98.135485 162.81425 101.86701 168.952 108.47852 185.46289 C 111.90164 194.01145 114.80885 200.33816 116.60156 203.14062 C 117.89883 205.16857 117.56493 205.14256 121.58398 203.5293 C 126.73071 201.46339 132.19373 197.64057 138.20703 191.89844 C 141.63169 188.62822 148.6826 181.10354 159.37891 169.29883 C 164.71839 163.40604 167.3644 160.91004 170.38281 158.92383 C 176.08897 155.16899 181.51262 154.9803 188.18945 158.30469 C 192.46049 160.43123 195.5401 162.86443 202.57422 169.66406 C 207.66829 174.58832 210.86889 177.31578 212.93555 178.49609 C 213.14794 178.61739 212.82274 177.63322 212.21289 176.30859 C 206.48803 163.87398 202.25213 152.67312 193.46094 126.7207 C 179.84038 86.511591 176.84367 78.391426 171.72266 67.824219 C 168.62142 61.424812 166.23695 57.614428 163.59766 54.835938 C 161.22042 52.33332 159.23081 51.187223 157.29492 51.302734 z M 141.92383 67.492188 C 141.85227 67.399633 141.00377 68.868755 139.63086 71.179688 C 135.05724 78.878138 130.26537 85.378264 126.14258 89.472656 C 122.62462 92.966381 119.57845 94.846398 114.58398 96.607422 C 111.02625 97.861862 109.67891 98.562767 107.03125 100.53906 C 102.67408 103.79139 96.810222 109.88235 93.685547 114.40234 L 92.154297 116.61914 L 101.47266 123.7207 C 108.54916 129.11378 110.87852 130.73618 111.1543 130.4668 C 111.35403 130.2717 112.47387 128.51677 113.64453 126.56641 C 120.08698 115.83308 125.77173 104.26921 136.45703 80.158203 C 140.47188 71.098823 142.02841 67.62746 141.92383 67.492188 z M 90.041016 117.83203 C 89.85613 117.87712 47.128437 135.0552 44.054688 136.32031 L 43 136.75586 L 62.234375 148.77539 C 72.813155 155.38619 81.585409 160.79492 81.728516 160.79492 C 81.871622 160.79492 83.379146 159.74173 85.078125 158.45508 C 94.981994 150.9548 101.81433 144.00365 107.97656 135.1582 C 108.76101 134.03218 109.39598 132.99166 109.38672 132.8457 C 109.366 132.51932 90.345261 117.75783 90.041016 117.83203 z "
           style="fill:#b9470f;fill-opacity:1" />
      </g>
    </g>
    <g
       style="fill:#ffffff;fill-opacity:1"
       transform="matrix(0.30835864,0,0,0.30835864,-11.478839,734.89992)"
       id="g4172">
      <path
         style="fill:#ffffff;fill-opacity:1"
         d="m 431.51947,859.3631 c 16.6907,-6.69969 34.40788,-19.0954 53.90888,-37.717 11.10608,-10.60524 33.96841,-35.01208 68.65628,-73.2945 17.31583,-19.11019 25.90023,-27.20273 35.68887,-33.64397 18.50494,-12.17685 36.09022,-12.78814 57.74304,-2.00723 13.85088,6.89632 23.84306,14.78582 46.65456,36.83688 16.51996,15.96924 26.8956,24.81454 33.59773,28.64227 0.68877,0.39336 -0.36586,-2.79949 -2.3436,-7.09523 -18.5656,-40.32517 -32.30083,-76.64734 -60.81048,-160.81043 -44.17114,-130.39723 -53.89086,-156.73079 -70.49819,-191 -10.05724,-20.75313 -17.78761,-33.11235 -26.34678,-42.12293 -11.21358,-11.80499 -19.76296,-14.29349 -28.99392,-8.43938 -12.36123,7.83926 -23.11685,27.30309 -49.76799,90.06231 -19.91979,46.90798 -28.50739,66.03756 -41.52482,92.5 -29.19959,59.35828 -58.405,102.48465 -92.44779,136.51366 -10.78871,10.78435 -17.84868,16.8976 -36.0495,31.21543 l -3.46922,2.72909 4,-1.60229 c 5.80503,-2.32533 14.99555,-2.14726 20.71723,0.40141 15.24179,6.78932 27.34638,26.69827 48.78734,80.2427 11.10111,27.72278 20.52919,48.24071 26.34291,57.32903 4.207,6.57659 3.12175,6.49194 16.15545,1.26018 z"
         id="path4166"
         inkscape:connector-curvature="0" />
      <path
         style="fill:#ffffff;fill-opacity:1"
         d="m 313.13078,713.18738 c 32.11802,-24.32324 54.27642,-46.8673 74.2604,-75.55289 2.54395,-3.65167 4.6008,-7.02667 4.57076,-7.5 -0.0672,-1.05846 -61.7513,-48.9287 -62.73796,-48.68806 -0.59958,0.14623 -139.16079,55.85773 -149.12889,59.96046 l -3.42146,1.40823 62.37591,38.97938 c 34.30674,21.43867 62.75561,38.97939 63.2197,38.97939 0.46409,0 5.35179,-3.41393 10.86154,-7.58651 z"
         id="path4164"
         inkscape:connector-curvature="0" />
      <path
         style="fill:#ffffff;fill-opacity:1"
         d="m 405.77452,609.77389 c 20.8927,-34.80794 39.32613,-72.30856 73.97831,-150.5 21.92855,-49.48103 21.25157,-47.5657 10.29198,-29.11819 -14.83215,24.9659 -30.37437,46.04206 -43.74448,59.32008 -11.40865,11.33007 -21.28725,17.42817 -37.48418,23.13913 -11.53764,4.06812 -15.90623,6.34255 -24.49253,12.75163 -14.1302,10.54721 -33.14199,30.29713 -43.27524,44.95538 l -4.97129,7.19123 30.21973,23.03073 c 22.94895,17.48961 30.50307,22.75396 31.3974,21.88037 0.64772,-0.6327 4.28386,-6.32536 8.0803,-12.65036 z"
         id="path4158"
         inkscape:connector-curvature="0" />
    </g>
  </g>
</svg>
