<?xml version="1.0" encoding="UTF-8" standalone="no"?>
<!-- Created with Inkscape (http://www.inkscape.org/) -->

<svg
   xmlns:dc="http://purl.org/dc/elements/1.1/"
   xmlns:cc="http://creativecommons.org/ns#"
   xmlns:rdf="http://www.w3.org/1999/02/22-rdf-syntax-ns#"
   xmlns:svg="http://www.w3.org/2000/svg"
   xmlns="http://www.w3.org/2000/svg"
   xmlns:sodipodi="http://sodipodi.sourceforge.net/DTD/sodipodi-0.dtd"
   xmlns:inkscape="http://www.inkscape.org/namespaces/inkscape"
   sodipodi:docname="meld.svg"
   inkscape:version="0.91 r13725"
   version="1.1"
   id="svg2"
   viewBox="0 0 256 256"
   height="256"
   width="256">
  <sodipodi:namedview
     inkscape:window-maximized="1"
     inkscape:window-y="0"
     inkscape:window-x="0"
     inkscape:window-height="1033"
     inkscape:window-width="1920"
     units="px"
     showgrid="true"
     inkscape:current-layer="layer1"
     inkscape:document-units="px"
     inkscape:cy="128"
     inkscape:cx="76.860879"
     inkscape:zoom="3.2851562"
     inkscape:pageshadow="2"
     inkscape:pageopacity="0.0"
     borderopacity="1.0"
     bordercolor="#666666"
     pagecolor="#ffffff"
     id="base">
    <inkscape:grid
       type="xygrid"
       id="grid4167" />
  </sodipodi:namedview>
  <defs
     id="defs4">
    <clipPath
       clipPathUnits="userSpaceOnUse"
       id="clipPath5002">
      <g
         id="g5004">
        <path
           transform="translate(0,796.36216)"
           inkscape:connector-curvature="0"
           id="path5006"
           d="M 88.118406,249.43519 C 46.103287,235.29134 14.771284,201.68742 4.1335861,159.36053 1.3377997,148.23623 0.92261224,144.16281 0.92582381,127.88908 0.92787958,117.47222 1.134384,112.01362 1.6577819,108.54099 4.4653598,89.913336 12.17654,70.638106 23.042737,55.086148 c 3.958678,-5.665755 8.344812,-10.93092 9.101533,-10.925587 0.32809,0.0023 10.488643,18.309713 22.579009,40.683112 12.090365,22.373397 22.374546,41.334697 22.853732,42.136217 0.479186,0.80151 0.924733,2.44098 0.990103,3.64326 0.343424,6.31639 2.524175,14.20976 5.6424,20.42304 2.954444,5.88693 5.065381,8.73258 10.434696,14.06652 6.71418,6.66995 12.88853,10.28643 21.73204,12.72904 3.16587,0.87442 5.10478,1.05037 11.57517,1.05037 8.82596,0 12.60219,-0.76201 19.26429,-3.88733 2.04584,-0.95974 3.93661,-1.66536 4.20172,-1.56805 0.2651,0.0973 -11.0555,17.66459 -25.1569,39.0384 l -25.6389,38.86148 -3.094121,0.11221 c -2.554618,0.0927 -4.195204,-0.25845 -9.409103,-2.01364 z"
           style="fill:#0f9d58;fill-opacity:1;stroke:none;stroke-width:4.85768509;stroke-linejoin:round;stroke-miterlimit:4;stroke-dasharray:none;stroke-opacity:1" />
        <path
           inkscape:connector-curvature="0"
           id="path5008"
           d="m 112.35984,1051.5167 c -10.0014,-1.4495 -12.15632,-1.8201 -12.531784,-2.1556 -0.248854,-0.2223 1.738304,-3.7475 4.550294,-8.0722 7.16635,-11.0213 49.77231,-74.64801 50.25856,-75.05489 3.57509,-2.99158 8.63523,-8.0414 10.57512,-10.55356 3.36154,-4.35318 7.55784,-12.9141 9.06523,-18.494 6.19314,-22.92535 -2.59253,-47.15185 -21.69967,-59.83688 l -2.96081,-1.96565 17.02469,0.29584 c 9.36358,0.1627 31.17032,0.43384 48.45941,0.60252 l 31.43471,0.30668 1.54584,4.18869 c 2.24597,6.08579 4.67816,15.0947 5.93451,21.9816 1.52517,8.36049 1.92536,28.85896 0.73851,37.82758 -3.0805,23.27845 -12.81326,45.72018 -27.80202,64.10577 -20.47622,25.1166 -51.4599,42.1974 -84.14612,46.3885 -5.31244,0.6812 -26.64601,0.9864 -30.44647,0.4356 z"
           style="fill:#f4b400;fill-opacity:1;stroke:none;stroke-width:4.85768509;stroke-linejoin:round;stroke-miterlimit:4;stroke-dasharray:none;stroke-opacity:1" />
        <path
           transform="translate(0,796.36216)"
           inkscape:connector-curvature="0"
           id="path5010"
           d="M 67.989788,108.87302 C 41.284246,59.575543 33.290284,45.149038 32.233625,44.344765 31.651257,43.901497 32.811213,42.549931 38.695603,36.815353 53.43581,22.450419 68.809334,13.040746 87.839196,6.7360352 101.68742,2.1480329 112.58238,0.43719165 127.95142,0.43719165 c 21.3099,0 37.80488,3.80960275 56.83492,13.12633035 25.29351,12.383198 46.19421,33.578863 58.51993,59.345832 1.61138,3.368591 2.92978,6.372442 2.92978,6.675231 0,0.560033 -10.54865,0.49527 -71.16508,-0.436914 l -24.28843,-0.373518 -3.93063,-1.764495 c -6.75732,-3.033425 -10.64587,-3.839529 -18.6576,-3.867747 -5.0296,-0.01773 -7.97946,0.207636 -10.31642,0.788106 -14.50826,3.603659 -26.283291,12.94777 -33.291614,26.418653 -3.58502,6.89086 -5.24713,13.08166 -6.331628,23.58317 l -0.33738,3.26696 -9.92748,-18.32578 z"
           style="fill:#db4437;fill-opacity:1;stroke:none;stroke-width:10;stroke-linejoin:round;stroke-miterlimit:4;stroke-dasharray:none;stroke-opacity:1" />
      </g>
    </clipPath>
    <clipPath
       id="clipPath4253"
       clipPathUnits="userSpaceOnUse">
      <circle
         r="128"
         cy="924.36218"
         cx="128"
         id="circle4255"
         style="fill:#bababa;fill-opacity:1;stroke:none;stroke-width:0.1;stroke-linecap:round;stroke-linejoin:round;stroke-miterlimit:4;stroke-dasharray:none;stroke-opacity:1" />
    </clipPath>
    <clipPath
       clipPathUnits="userSpaceOnUse"
       id="clipPath4350">
      <circle
         r="128"
         cy="924.36218"
         cx="128"
         id="circle4352"
         style="fill:#7e7e7e;fill-opacity:1;stroke:none;stroke-width:0.1;stroke-linecap:round;stroke-linejoin:round;stroke-miterlimit:4;stroke-dasharray:none;stroke-opacity:1" />
    </clipPath>
    <clipPath
       id="clipPath4345"
       clipPathUnits="userSpaceOnUse">
      <circle
         r="128"
         cy="924.36218"
         cx="128"
         id="circle4347"
         style="fill:#7e7e7e;fill-opacity:1;stroke:none;stroke-width:0.1;stroke-linecap:round;stroke-linejoin:round;stroke-miterlimit:4;stroke-dasharray:none;stroke-opacity:1" />
    </clipPath>
    <clipPath
       clipPathUnits="userSpaceOnUse"
       id="clipPath4373">
      <circle
         r="60.133072"
         cy="902.62708"
         cx="115.26678"
         id="circle4375"
         style="fill:#d2abff;fill-opacity:1;stroke:none;stroke-width:0.1;stroke-linecap:round;stroke-linejoin:round;stroke-miterlimit:4;stroke-dasharray:none;stroke-opacity:1" />
    </clipPath>
  </defs>
  <metadata
     id="metadata7">
    <rdf:RDF>
      <cc:Work
         rdf:about="">
        <dc:format>image/svg+xml</dc:format>
        <dc:type
           rdf:resource="http://purl.org/dc/dcmitype/StillImage" />
        <dc:title />
      </cc:Work>
    </rdf:RDF>
  </metadata>
  <g
     transform="translate(0,-796.36216)"
     id="layer1"
     inkscape:groupmode="layer"
     inkscape:label="Layer 1">
    <path
       inkscape:connector-curvature="0"
       id="path4913"
       d="M 154.47438,968.80998 101.03985,1048.476 0.4857685,1048.9618 0,842.0244 l 33.032258,-2.42884 45.176471,83.55218 21.373814,35.4611 26.717267,13.11575 z"
       style="fill:none;fill-rule:evenodd;stroke:none;stroke-width:1px;stroke-linecap:butt;stroke-linejoin:miter;stroke-opacity:1" />
    <circle
       style="fill:#85acd5;fill-opacity:1;stroke:none;stroke-width:0.1;stroke-linecap:round;stroke-linejoin:round;stroke-miterlimit:4;stroke-dasharray:none;stroke-opacity:1"
       id="path4152"
       cx="128"
       cy="924.36218"
       r="128" />
    <g
       id="g4167"
       transform="matrix(2.1286123,0,0,2.1286123,-117.35829,-996.9809)"
       clip-path="url(#clipPath4373)"
       style="fill:#1d4279;fill-opacity:0.95294118;stroke:#1c4278;stroke-opacity:1">
      <g
         id="g4197"
         transform="translate(0,796.36216)"
         style="fill:#1d4279;fill-opacity:0.95294118;stroke:#1c4278;stroke-opacity:1">
        <g
           id="g4199"
           style="opacity:1;fill:#1d4279;fill-opacity:0.95294118;stroke:#1c4278;stroke-width:3.04399514;stroke-linecap:square;stroke-linejoin:round;stroke-miterlimit:4;stroke-dasharray:none;stroke-opacity:1">
          <path
             id="path4201"
             d="M105.52967 128.02686C98.415216 127.44798 91.419238 122.97036 86.813066 116.04771L-125.318968356 328.179744356C-120.712796356 335.102394356 -113.716818356 339.580014356 -106.602364356 340.158894356Z"
             style="fill:#1d4279;fill-opacity:0.95294118;stroke:#1c4278;stroke-opacity:1" />
          <path
             id="path4203"
             d="M86.813066 116.04771C80.351978 106.3373 79.802812 94.545043 85.295751 83.46635L-126.836283356 295.598384356C-132.329222356 306.677077356 -131.780056356 318.469334356 -125.318968356 328.179744356Z"
             style="fill:#1d4279;fill-opacity:0.95294118;stroke:#1c4278;stroke-opacity:1" />
          <path
             id="path4205"
             d="M85.295751 83.46635C86.6712819328 80.6920436123 89.3132989358 76.7250001703 90.4185288624 75.6197702436L-121.713505494 287.7518046C-122.81873542 288.857034526 -125.460752423 292.824077968 -126.836283356 295.598384356Z"
             style="fill:#1d4279;fill-opacity:0.95294118;stroke:#1c4278;stroke-opacity:1" />
          <path
             id="path4207"
             d="M90.4185288624 75.6197702436C90.6705558476 75.3677432585 90.8426725777 75.2645255984 90.90164 75.358193L-121.230394356 287.490227356C-121.289361778 287.396559954 -121.461478508 287.499777614 -121.713505494 287.7518046Z"
             style="fill:#1d4279;fill-opacity:0.95294118;stroke:#1c4278;stroke-opacity:1" />
          <path
             id="path4209"
             d="M90.90164 75.358193C91.043674 75.58381 96.983064 74.708655 106.14411 73.112252L-105.987924356 285.244286356C-115.148970356 286.840689356 -121.088360356 287.715844356 -121.230394356 287.490227356Z"
             style="fill:#1d4279;fill-opacity:0.95294118;stroke:#1c4278;stroke-opacity:1" />
          <path
             id="path4211"
             d="M106.14411 73.112252C106.527875792 73.0453771526 106.673140061 73.0637367253 106.518093443 73.2187833426L-105.613940913 285.350817699C-105.458894295 285.195771081 -105.604158564 285.177411509 -105.987924356 285.244286356Z"
             style="fill:#1d4279;fill-opacity:0.95294118;stroke:#1c4278;stroke-opacity:1" />
          <path
             id="path4213"
             d="M106.518093443 73.2187833426C106.327490225 73.4093865608 105.683042648 73.8065578627 104.46992 74.505887L-107.662114356 286.637921356C-106.448991708 285.938592219 -105.804544131 285.541420917 -105.613940913 285.350817699Z"
             style="fill:#1d4279;fill-opacity:0.95294118;stroke:#1c4278;stroke-opacity:1" />
          <path
             id="path4215"
             d="M104.46992 74.505887C101.654625805 76.1288159143 99.222378269 77.9628928073 97.1568112491 80.0284598272L-114.975223107 292.160494183C-112.909656087 290.094927163 -110.477408551 288.26085027 -107.662114356 286.637921356Z"
             style="fill:#1d4279;fill-opacity:0.95294118;stroke:#1c4278;stroke-opacity:1" />
          <path
             id="path4217"
             d="M97.1568112491 80.0284598272C93.5828800363 83.60239104 91.1066942368 87.8693430544 89.643479 92.934686L-122.488555356 305.066720356C-121.025340119 300.00137741 -118.54915432 295.734425396 -114.975223107 292.160494183Z"
             style="fill:#1d4279;fill-opacity:0.95294118;stroke:#1c4278;stroke-opacity:1" />
          <path
             id="path4219"
             d="M89.643479 92.934686C89.046432 95.00154 88.948999 96.040961 88.9474 100.36052L-123.184634356 312.492554356C-123.183035356 308.172995356 -123.085602356 307.133574356 -122.488555356 305.066720356Z"
             style="fill:#1d4279;fill-opacity:0.95294118;stroke:#1c4278;stroke-opacity:1" />
          <path
             id="path4221"
             d="M88.9474 100.36052C88.9453 106.13656 89.291608 107.87825 91.217341 111.77551L-120.914693356 323.907544356C-122.840426356 320.010284356 -123.186734356 318.268594356 -123.184634356 312.492554356Z"
             style="fill:#1d4279;fill-opacity:0.95294118;stroke:#1c4278;stroke-opacity:1" />
          <path
             id="path4223"
             d="M91.217341 111.77551C94.184918 117.78122 99.35582 121.90828 105.33379 123.04229L-106.798244356 335.174324356C-112.776214356 334.040314356 -117.947116356 329.913254356 -120.914693356 323.907544356Z"
             style="fill:#1d4279;fill-opacity:0.95294118;stroke:#1c4278;stroke-opacity:1" />
          <path
             id="path4225"
             d="M105.33379 123.04229C111.195357443 124.154215744 116.287965308 122.900232932 119.65636494 119.5318333L-92.4756694155 331.663867656C-95.8440690478 335.032267288 -100.936676913 336.2862501 -106.798244356 335.174324356Z"
             style="fill:#1d4279;fill-opacity:0.95294118;stroke:#1c4278;stroke-opacity:1" />
          <path
             id="path4227"
             d="M119.65636494 119.5318333C119.770280967 119.417917273 119.88222497 119.301582931 119.99216 119.18284L-92.139874356 331.314874356C-92.2498093862 331.433617287 -92.361753389 331.549951629 -92.4756694155 331.663867656Z"
             style="fill:#1d4279;fill-opacity:0.95294118;stroke:#1c4278;stroke-opacity:1" />
          <path
             id="path4229"
             d="M119.99216 119.18284C123.00364 115.93007 123.64398 112.12652 121.81087 108.37978L-90.321164356 320.511814356C-88.488054356 324.258554356 -89.128394356 328.062104356 -92.139874356 331.314874356Z"
             style="fill:#1d4279;fill-opacity:0.95294118;stroke:#1c4278;stroke-opacity:1" />
          <path
             id="path4231"
             d="M121.81087 108.37978C120.49802 105.69641 118.633 104.54149 116.6135 105.16129L-95.518534356 317.293324356C-93.499034356 316.673524356 -91.634014356 317.828444356 -90.321164356 320.511814356Z"
             style="fill:#1d4279;fill-opacity:0.95294118;stroke:#1c4278;stroke-opacity:1" />
          <path
             id="path4233"
             d="M116.6135 105.16129C115.32383 105.55711 115.19769 104.97725 116.32766 103.84728L-95.804374356 315.979314356C-96.934344356 317.109284356 -96.808204356 317.689144356 -95.518534356 317.293324356Z"
             style="fill:#1d4279;fill-opacity:0.95294118;stroke:#1c4278;stroke-opacity:1" />
          <path
             id="path4235"
             d="M116.32766 103.84728C116.32766 103.84728 116.32766 103.84728 116.32766 103.84728L-95.804374356 315.979314356C-95.804374356 315.979314356 -95.804374356 315.979314356 -95.804374356 315.979314356Z"
             style="fill:#1d4279;fill-opacity:0.95294118;stroke:#1c4278;stroke-opacity:1" />
          <path
             id="path4237"
             d="M116.32766 103.84728C118.58343 101.59152 124.69034 104.74139 126.01244 108.84256L-86.119594356 320.974594356C-87.441694356 316.873424356 -93.548604356 313.723554356 -95.804374356 315.979314356Z"
             style="fill:#1d4279;fill-opacity:0.95294118;stroke:#1c4278;stroke-opacity:1" />
          <path
             id="path4239"
             d="M126.01244 108.84256C127.07218 112.12994 126.51006 116.12888 124.54729 119.26561L-87.584744356 331.397644356C-85.621974356 328.260914356 -85.059854356 324.261974356 -86.119594356 320.974594356Z"
             style="fill:#1d4279;fill-opacity:0.95294118;stroke:#1c4278;stroke-opacity:1" />
          <path
             id="path4242"
             d="M124.54729 119.26561C123.981322816 120.170082541 123.232852337 121.080783066 122.359273683 121.95436172L-89.772760673 334.086396076C-88.8991820187 333.212817422 -88.1507115398 332.302116897 -87.584744356 331.397644356Z"
             style="fill:#1d4279;fill-opacity:0.95294118;stroke:#1c4278;stroke-opacity:1" />
          <path
             id="path4244"
             d="M122.359273683 121.95436172C120.066702423 124.24693298 116.912488192 126.283839101 113.93401 127.28156L-98.198024356 339.413594356C-95.2195461641 338.415873457 -92.0653319325 336.378967336 -89.772760673 334.086396076Z"
             style="fill:#1d4279;fill-opacity:0.95294118;stroke:#1c4278;stroke-opacity:1" />
          <path
             id="path4246"
             d="M113.93401 127.28156C111.96885 127.93985 108.37604 128.25846 105.52967 128.02686L-106.602364356 340.158894356C-103.755994356 340.390494356 -100.163184356 340.071884356 -98.198024356 339.413594356Z"
             style="fill:#1d4279;fill-opacity:0.95294118;stroke:#1c4278;stroke-opacity:1" />
        </g>
        <path
           transform=""
           inkscape:connector-curvature="0"
           id="path4169"
           d="m 105.52967,128.02686 c -7.114454,-0.57888 -14.110432,-5.0565 -18.716604,-11.97915 -6.461088,-9.71041 -7.010254,-21.502667 -1.517315,-32.58136 1.689195,-3.406935 5.288328,-8.61259 5.605889,-8.108157 0.142034,0.225617 6.081424,-0.649538 15.24247,-2.245941 0.85554,-0.149086 0.52575,0.125435 -1.67419,1.393635 -7.686435,4.430989 -12.517555,10.435922 -14.826441,18.428799 -0.597047,2.066854 -0.69448,3.106275 -0.696079,7.425834 -0.0021,5.77604 0.344208,7.51773 2.269941,11.41499 2.967577,6.00571 8.138479,10.13277 14.116449,11.26678 6.0598,1.14953 11.29775,-0.22958 14.65837,-3.85945 3.01148,-3.25277 3.65182,-7.05632 1.81871,-10.80306 -1.31285,-2.68337 -3.17787,-3.83829 -5.19737,-3.21849 -1.28967,0.39582 -1.41581,-0.18404 -0.28584,-1.31401 2.25577,-2.25576 8.36268,0.89411 9.68478,4.99528 1.05974,3.28738 0.49762,7.28632 -1.46515,10.42305 -2.05126,3.27812 -6.49986,6.63805 -10.61328,8.01595 -1.96516,0.65829 -5.55797,0.9769 -8.40434,0.7453 z"
           style="opacity:1;fill:#1d4279;fill-opacity:0.95294118;stroke:#1c4278;stroke-width:3.04399514;stroke-linecap:square;stroke-linejoin:round;stroke-miterlimit:4;stroke-dasharray:none;stroke-opacity:1" />
      </g>
      <g
         id="g4249"
         style="fill:#1d4279;fill-opacity:0.95294118;stroke:#1c4278;stroke-opacity:1">
        <g
           id="g4251"
           style="opacity:1;fill:#1d4279;fill-opacity:0.95294118;stroke:#1c4278;stroke-width:3.04399514;stroke-linecap:square;stroke-linejoin:round;stroke-miterlimit:4;stroke-dasharray:none;stroke-opacity:1">
          <path
             id="path4253"
             d="M125.0039 880.8651C132.11835 881.44398 139.11433 885.9216 143.7205 892.84425L-68.411534356 1104.97628436C-73.017704356 1098.05363436 -80.013684356 1093.57601436 -87.128134356 1092.99713436Z"
             style="fill:#1d4279;fill-opacity:0.95294118;stroke:#1c4278;stroke-opacity:1" />
          <path
             id="path4255"
             d="M143.7205 892.84425C150.18159 902.55466 150.73075 914.34691 145.23782 925.42561L-66.894214356 1137.55764436C-61.401284356 1126.47894436 -61.950444356 1114.68669436 -68.411534356 1104.97628436Z"
             style="fill:#1d4279;fill-opacity:0.95294118;stroke:#1c4278;stroke-opacity:1" />
          <path
             id="path4257"
             d="M145.23782 925.42561C143.8622858 928.199910693 141.220272318 932.166953676 140.115042378 933.272183615L-72.0169919783 1145.40421797C-70.9117620384 1144.29898803 -68.2697485555 1140.33194505 -66.894214356 1137.55764436Z"
             style="fill:#1d4279;fill-opacity:0.95294118;stroke:#1c4278;stroke-opacity:1" />
          <path
             id="path4259"
             d="M140.115042378 933.272183615C139.863014595 933.524211398 139.690897388 933.627428942 139.63193 933.53376L-72.500104356 1145.66579436C-72.4411369681 1145.7594633 -72.2690197606 1145.65624575 -72.0169919783 1145.40421797Z"
             style="fill:#1d4279;fill-opacity:0.95294118;stroke:#1c4278;stroke-opacity:1" />
          <path
             id="path4261"
             d="M139.63193 933.53376C139.48989 933.30815 133.5505 934.1833 124.38946 935.7797L-87.742574356 1147.91173436C-78.581534356 1146.31533436 -72.642144356 1145.44018436 -72.500104356 1145.66579436Z"
             style="fill:#1d4279;fill-opacity:0.95294118;stroke:#1c4278;stroke-opacity:1" />
          <path
             id="path4263"
             d="M124.38946 935.7797C124.005695108 935.846576485 123.860430621 935.828218346 124.015475466 935.673173501L-88.1165588902 1147.80520786C-88.2716037353 1147.9602527 -88.1263392482 1147.97861084 -87.742574356 1147.91173436Z"
             style="fill:#1d4279;fill-opacity:0.95294118;stroke:#1c4278;stroke-opacity:1" />
          <path
             id="path4265"
             d="M124.015475466 935.673173501C124.206077316 935.482571651 124.850525037 935.085400472 126.06365 934.38607L-86.068384356 1146.51810436C-87.2815093185 1147.21743483 -87.9259570401 1147.61460601 -88.1165588902 1147.80520786Z"
             style="fill:#1d4279;fill-opacity:0.95294118;stroke:#1c4278;stroke-opacity:1" />
          <path
             id="path4267"
             d="M126.06365 934.38607C128.878941603 932.763141158 131.311187424 930.929064988 133.376753545 928.863498867L-78.7552808108 1140.99553322C-80.8208469317 1143.06109934 -83.2530927533 1144.89517551 -86.068384356 1146.51810436Z"
             style="fill:#1d4279;fill-opacity:0.95294118;stroke:#1c4278;stroke-opacity:1" />
          <path
             id="path4269"
             d="M133.376753545 928.863498867C136.950684727 925.289567686 139.426872 921.022615638 140.89009 915.95727L-71.241944356 1128.08930436C-72.7051623563 1133.15464999 -75.1813496293 1137.42160204 -78.7552808108 1140.99553322Z"
             style="fill:#1d4279;fill-opacity:0.95294118;stroke:#1c4278;stroke-opacity:1" />
          <path
             id="path4271"
             d="M140.89009 915.95727C141.48713 913.89042 141.58457 912.85099 141.58617 908.53144L-70.545864356 1120.66347436C-70.547464356 1124.98302436 -70.644904356 1126.02245436 -71.241944356 1128.08930436Z"
             style="fill:#1d4279;fill-opacity:0.95294118;stroke:#1c4278;stroke-opacity:1" />
          <path
             id="path4273"
             d="M141.58617 908.53144C141.58817 902.7554 141.24196 901.01371 139.31623 897.11645L-72.815804356 1109.24848436C-70.890074356 1113.14574436 -70.543864356 1114.88743436 -70.545864356 1120.66347436Z"
             style="fill:#1d4279;fill-opacity:0.95294118;stroke:#1c4278;stroke-opacity:1" />
          <path
             id="path4275"
             d="M139.31623 897.11645C136.34865 891.11074 131.17775 886.98368 125.19978 885.84967L-86.932254356 1097.98170436C-80.954284356 1099.11571436 -75.783384356 1103.24277436 -72.815804356 1109.24848436Z"
             style="fill:#1d4279;fill-opacity:0.95294118;stroke:#1c4278;stroke-opacity:1" />
          <path
             id="path4277"
             d="M125.19978 885.84967C119.338202876 884.737744255 114.245594689 885.991727071 110.877195046 889.360126714L-101.25483931 1101.49216107C-97.8864396671 1098.12376143 -92.7938314796 1096.86977861 -86.932254356 1097.98170436Z"
             style="fill:#1d4279;fill-opacity:0.95294118;stroke:#1c4278;stroke-opacity:1" />
          <path
             id="path4279"
             d="M110.877195046 889.360126714C110.763279024 889.474042736 110.651335026 889.590377074 110.5414 889.70912L-101.590634356 1101.84115436C-101.48069933 1101.72241143 -101.368755332 1101.60607709 -101.25483931 1101.49216107Z"
             style="fill:#1d4279;fill-opacity:0.95294118;stroke:#1c4278;stroke-opacity:1" />
          <path
             id="path4281"
             d="M110.5414 889.70912C107.52992 892.96189 106.88958 896.76544 108.72269 900.51218L-103.409344356 1112.64421436C-105.242454356 1108.89747436 -104.602114356 1105.09392436 -101.590634356 1101.84115436Z"
             style="fill:#1d4279;fill-opacity:0.95294118;stroke:#1c4278;stroke-opacity:1" />
          <path
             id="path4283"
             d="M108.72269 900.51218C110.03554 903.19555 111.90056 904.35047 113.92006 903.73067L-98.211974356 1115.86270436C-100.231474356 1116.48250436 -102.096494356 1115.32758436 -103.409344356 1112.64421436Z"
             style="fill:#1d4279;fill-opacity:0.95294118;stroke:#1c4278;stroke-opacity:1" />
          <path
             id="path4285"
             d="M113.92006 903.73067C115.20973 903.33485 115.33587 903.91471 114.2059 905.04468L-97.926134356 1117.17671436C-96.796164356 1116.04674436 -96.922304356 1115.46688436 -98.211974356 1115.86270436Z"
             style="fill:#1d4279;fill-opacity:0.95294118;stroke:#1c4278;stroke-opacity:1" />
          <path
             id="path4287"
             d="M114.2059 905.04468C111.95013 907.30044 105.84322 904.15057 104.52112 900.0494L-107.610914356 1112.18143436C-106.288814356 1116.28260436 -100.181904356 1119.43247436 -97.926134356 1117.17671436Z"
             style="fill:#1d4279;fill-opacity:0.95294118;stroke:#1c4278;stroke-opacity:1" />
          <path
             id="path4289"
             d="M104.52112 900.0494C103.46138 896.76202 104.0235 892.76308 105.98627 889.62635L-106.145764356 1101.75838436C-108.108534356 1104.89511436 -108.670654356 1108.89405436 -107.610914356 1112.18143436Z"
             style="fill:#1d4279;fill-opacity:0.95294118;stroke:#1c4278;stroke-opacity:1" />
          <path
             id="path4291"
             d="M105.98627 889.62635C106.552237184 888.721877459 107.300707663 887.811176934 108.174286317 886.93759828L-103.957748039 1099.06963264C-104.831326693 1099.94321129 -105.579797172 1100.85391181 -106.145764356 1101.75838436Z"
             style="fill:#1d4279;fill-opacity:0.95294118;stroke:#1c4278;stroke-opacity:1" />
          <path
             id="path4293"
             d="M108.174286317 886.93759828C110.466857577 884.64502702 113.621071808 882.608120899 116.59955 881.6104L-95.532484356 1093.74243436C-98.5109625479 1094.74015526 -101.665176779 1096.77706138 -103.957748039 1099.06963264Z"
             style="fill:#1d4279;fill-opacity:0.95294118;stroke:#1c4278;stroke-opacity:1" />
          <path
             id="path4295"
             d="M116.59955 881.6104C118.56471 880.95211 122.15752 880.6335 125.0039 880.8651L-87.128134356 1092.99713436C-89.974514356 1092.76553436 -93.567324356 1093.08414436 -95.532484356 1093.74243436Z"
             style="fill:#1d4279;fill-opacity:0.95294118;stroke:#1c4278;stroke-opacity:1" />
        </g>
        <path
           style="opacity:1;fill:#1d4279;fill-opacity:0.95294118;stroke:#1c4278;stroke-width:3.04399514;stroke-linecap:square;stroke-linejoin:round;stroke-miterlimit:4;stroke-dasharray:none;stroke-opacity:1"
           d="m 125.0039,880.8651 c 7.11445,0.57888 14.11043,5.0565 18.7166,11.97915 6.46109,9.71041 7.01025,21.50266 1.51732,32.58136 -1.6892,3.40693 -5.28833,8.61259 -5.60589,8.10815 -0.14204,-0.22561 -6.08143,0.64954 -15.24247,2.24594 -0.85554,0.14909 -0.52575,-0.12543 1.67419,-1.39363 7.68643,-4.43099 12.51755,-10.43592 14.82644,-18.4288 0.59704,-2.06685 0.69448,-3.10628 0.69608,-7.42583 0.002,-5.77604 -0.34421,-7.51773 -2.26994,-11.41499 -2.96758,-6.00571 -8.13848,-10.13277 -14.11645,-11.26678 -6.05981,-1.14953 -11.29776,0.22958 -14.65838,3.85945 -3.01148,3.25277 -3.65182,7.05632 -1.81871,10.80306 1.31285,2.68337 3.17787,3.83829 5.19737,3.21849 1.28967,-0.39582 1.41581,0.18404 0.28584,1.31401 -2.25577,2.25576 -8.36268,-0.89411 -9.68478,-4.99528 -1.05974,-3.28738 -0.49762,-7.28632 1.46515,-10.42305 2.05126,-3.27812 6.49986,-6.63805 10.61328,-8.01595 1.96516,-0.65829 5.55797,-0.9769 8.40435,-0.7453 z"
           id="path4171"
           inkscape:connector-curvature="0" />
      </g>
    </g>
    <g
       transform="matrix(2.1286123,0,0,2.1286123,-117.35829,-996.9809)"
       id="g4163"
       style="fill:#fcae40;fill-opacity:1;stroke:#fcae40;stroke-opacity:1">
      <path
         style="opacity:1;fill:#fcae40;fill-opacity:1;stroke:#fcae40;stroke-width:3.04399514;stroke-linecap:square;stroke-linejoin:round;stroke-miterlimit:4;stroke-dasharray:none;stroke-opacity:1"
         d="m 105.52967,128.02686 c -7.114454,-0.57888 -14.110432,-5.0565 -18.716604,-11.97915 -6.461088,-9.71041 -7.010254,-21.502667 -1.517315,-32.58136 1.689195,-3.406935 5.288328,-8.61259 5.605889,-8.108157 0.142034,0.225617 6.081424,-0.649538 15.24247,-2.245941 0.85554,-0.149086 0.52575,0.125435 -1.67419,1.393635 -7.686435,4.430989 -12.517555,10.435922 -14.826441,18.428799 -0.597047,2.066854 -0.69448,3.106275 -0.696079,7.425834 -0.0021,5.77604 0.344208,7.51773 2.269941,11.41499 2.967577,6.00571 8.138479,10.13277 14.116449,11.26678 6.0598,1.14953 11.29775,-0.22958 14.65837,-3.85945 3.01148,-3.25277 3.65182,-7.05632 1.81871,-10.80306 -1.31285,-2.68337 -3.17787,-3.83829 -5.19737,-3.21849 -1.28967,0.39582 -1.41581,-0.18404 -0.28584,-1.31401 2.25577,-2.25576 8.36268,0.89411 9.68478,4.99528 1.05974,3.28738 0.49762,7.28632 -1.46515,10.42305 -2.05126,3.27812 -6.49986,6.63805 -10.61328,8.01595 -1.96516,0.65829 -5.55797,0.9769 -8.40434,0.7453 z"
         id="path4241"
         inkscape:connector-curvature="0"
         transform="translate(0,796.36216)" />
      <path
         inkscape:connector-curvature="0"
         id="path4161"
         d="m 125.0039,880.8651 c 7.11445,0.57888 14.11043,5.0565 18.7166,11.97915 6.46109,9.71041 7.01025,21.50266 1.51732,32.58136 -1.6892,3.40693 -5.28833,8.61259 -5.60589,8.10815 -0.14204,-0.22561 -6.08143,0.64954 -15.24247,2.24594 -0.85554,0.14909 -0.52575,-0.12543 1.67419,-1.39363 7.68643,-4.43099 12.51755,-10.43592 14.82644,-18.4288 0.59704,-2.06685 0.69448,-3.10628 0.69608,-7.42583 0.002,-5.77604 -0.34421,-7.51773 -2.26994,-11.41499 -2.96758,-6.00571 -8.13848,-10.13277 -14.11645,-11.26678 -6.05981,-1.14953 -11.29776,0.22958 -14.65838,3.85945 -3.01148,3.25277 -3.65182,7.05632 -1.81871,10.80306 1.31285,2.68337 3.17787,3.83829 5.19737,3.21849 1.28967,-0.39582 1.41581,0.18404 0.28584,1.31401 -2.25577,2.25576 -8.36268,-0.89411 -9.68478,-4.99528 -1.05974,-3.28738 -0.49762,-7.28632 1.46515,-10.42305 2.05126,-3.27812 6.49986,-6.63805 10.61328,-8.01595 1.96516,-0.65829 5.55797,-0.9769 8.40435,-0.7453 z"
         style="opacity:1;fill:#fcae40;fill-opacity:1;stroke:#fcae40;stroke-width:3.04399514;stroke-linecap:square;stroke-linejoin:round;stroke-miterlimit:4;stroke-dasharray:none;stroke-opacity:1" />
    </g>
  </g>
</svg>
