<?xml version="1.0" encoding="UTF-8" standalone="no"?>
<!-- Created with Inkscape (http://www.inkscape.org/) -->

<svg
   xmlns:dc="http://purl.org/dc/elements/1.1/"
   xmlns:cc="http://creativecommons.org/ns#"
   xmlns:rdf="http://www.w3.org/1999/02/22-rdf-syntax-ns#"
   xmlns:svg="http://www.w3.org/2000/svg"
   xmlns="http://www.w3.org/2000/svg"
   xmlns:sodipodi="http://sodipodi.sourceforge.net/DTD/sodipodi-0.dtd"
   xmlns:inkscape="http://www.inkscape.org/namespaces/inkscape"
   sodipodi:docname="muon.svg"
   inkscape:version="0.92.2 (5c3e80d, 2017-08-06)"
   version="1.1"
   id="svg2"
   viewBox="0 0 256 256"
   height="256"
   width="256">
  <sodipodi:namedview
     inkscape:window-maximized="1"
     inkscape:window-y="0"
     inkscape:window-x="0"
     inkscape:window-height="1048"
     inkscape:window-width="1920"
     units="px"
     showgrid="true"
     inkscape:current-layer="layer1"
     inkscape:document-units="px"
     inkscape:cy="128"
     inkscape:cx="128"
     inkscape:zoom="3.3125"
     inkscape:pageshadow="2"
     inkscape:pageopacity="0.0"
     borderopacity="1.0"
     bordercolor="#666666"
     pagecolor="#ffffff"
     id="base">
    <inkscape:grid
       type="xygrid"
       id="grid4168"
       spacingx="5"
       spacingy="5" />
  </sodipodi:namedview>
  <defs
     id="defs4">
    <clipPath
       clipPathUnits="userSpaceOnUse"
       id="clipPath5002">
      <g
         id="g5004">
        <path
           transform="translate(0,796.36216)"
           inkscape:connector-curvature="0"
           id="path5006"
           d="M 88.118406,249.43519 C 46.103287,235.29134 14.771284,201.68742 4.1335861,159.36053 1.3377997,148.23623 0.92261224,144.16281 0.92582381,127.88908 0.92787958,117.47222 1.134384,112.01362 1.6577819,108.54099 4.4653598,89.913336 12.17654,70.638106 23.042737,55.086148 c 3.958678,-5.665755 8.344812,-10.93092 9.101533,-10.925587 0.32809,0.0023 10.488643,18.309713 22.579009,40.683112 12.090365,22.373397 22.374546,41.334697 22.853732,42.136217 0.479186,0.80151 0.924733,2.44098 0.990103,3.64326 0.343424,6.31639 2.524175,14.20976 5.6424,20.42304 2.954444,5.88693 5.065381,8.73258 10.434696,14.06652 6.71418,6.66995 12.88853,10.28643 21.73204,12.72904 3.16587,0.87442 5.10478,1.05037 11.57517,1.05037 8.82596,0 12.60219,-0.76201 19.26429,-3.88733 2.04584,-0.95974 3.93661,-1.66536 4.20172,-1.56805 0.2651,0.0973 -11.0555,17.66459 -25.1569,39.0384 l -25.6389,38.86148 -3.094121,0.11221 c -2.554618,0.0927 -4.195204,-0.25845 -9.409103,-2.01364 z"
           style="fill:#0f9d58;fill-opacity:1;stroke:none;stroke-width:4.85768509;stroke-linejoin:round;stroke-miterlimit:4;stroke-dasharray:none;stroke-opacity:1" />
        <path
           inkscape:connector-curvature="0"
           id="path5008"
           d="m 112.35984,1051.5167 c -10.0014,-1.4495 -12.15632,-1.8201 -12.531784,-2.1556 -0.248854,-0.2223 1.738304,-3.7475 4.550294,-8.0722 7.16635,-11.0213 49.77231,-74.64801 50.25856,-75.05489 3.57509,-2.99158 8.63523,-8.0414 10.57512,-10.55356 3.36154,-4.35318 7.55784,-12.9141 9.06523,-18.494 6.19314,-22.92535 -2.59253,-47.15185 -21.69967,-59.83688 l -2.96081,-1.96565 17.02469,0.29584 c 9.36358,0.1627 31.17032,0.43384 48.45941,0.60252 l 31.43471,0.30668 1.54584,4.18869 c 2.24597,6.08579 4.67816,15.0947 5.93451,21.9816 1.52517,8.36049 1.92536,28.85896 0.73851,37.82758 -3.0805,23.27845 -12.81326,45.72018 -27.80202,64.10577 -20.47622,25.1166 -51.4599,42.1974 -84.14612,46.3885 -5.31244,0.6812 -26.64601,0.9864 -30.44647,0.4356 z"
           style="fill:#f4b400;fill-opacity:1;stroke:none;stroke-width:4.85768509;stroke-linejoin:round;stroke-miterlimit:4;stroke-dasharray:none;stroke-opacity:1" />
        <path
           transform="translate(0,796.36216)"
           inkscape:connector-curvature="0"
           id="path5010"
           d="M 67.989788,108.87302 C 41.284246,59.575543 33.290284,45.149038 32.233625,44.344765 31.651257,43.901497 32.811213,42.549931 38.695603,36.815353 53.43581,22.450419 68.809334,13.040746 87.839196,6.7360352 101.68742,2.1480329 112.58238,0.43719165 127.95142,0.43719165 c 21.3099,0 37.80488,3.80960275 56.83492,13.12633035 25.29351,12.383198 46.19421,33.578863 58.51993,59.345832 1.61138,3.368591 2.92978,6.372442 2.92978,6.675231 0,0.560033 -10.54865,0.49527 -71.16508,-0.436914 l -24.28843,-0.373518 -3.93063,-1.764495 c -6.75732,-3.033425 -10.64587,-3.839529 -18.6576,-3.867747 -5.0296,-0.01773 -7.97946,0.207636 -10.31642,0.788106 -14.50826,3.603659 -26.283291,12.94777 -33.291614,26.418653 -3.58502,6.89086 -5.24713,13.08166 -6.331628,23.58317 l -0.33738,3.26696 -9.92748,-18.32578 z"
           style="fill:#db4437;fill-opacity:1;stroke:none;stroke-width:10;stroke-linejoin:round;stroke-miterlimit:4;stroke-dasharray:none;stroke-opacity:1" />
      </g>
    </clipPath>
    <clipPath
       id="clipPath4271"
       clipPathUnits="userSpaceOnUse">
      <circle
         r="128"
         cy="128.00002"
         cx="128"
         id="circle4273"
         style="fill:#292929;fill-opacity:0.26020412;stroke:none;stroke-width:10;stroke-linejoin:round;stroke-miterlimit:4;stroke-dasharray:none;stroke-opacity:0.25882353" />
    </clipPath>
    <clipPath
       clipPathUnits="userSpaceOnUse"
       id="clipPath4363">
      <circle
         r="128"
         cy="924.36218"
         cx="128"
         id="circle4365"
         style="fill:#4285f4;fill-opacity:1;stroke:none;stroke-width:10;stroke-linejoin:round;stroke-miterlimit:4;stroke-dasharray:none;stroke-opacity:0.25882353" />
    </clipPath>
    <clipPath
       id="clipPath4452"
       clipPathUnits="userSpaceOnUse">
      <circle
         r="128"
         cy="924.36218"
         cx="128"
         id="circle4454"
         style="fill:#4285f4;fill-opacity:1;stroke:none;stroke-width:10;stroke-linejoin:round;stroke-miterlimit:4;stroke-dasharray:none;stroke-opacity:0.25882353" />
    </clipPath>
    <clipPath
       clipPathUnits="userSpaceOnUse"
       id="clipPath5177">
      <circle
         r="128"
         cy="924.36218"
         cx="128"
         id="circle5179"
         style="fill:#4285f4;fill-opacity:1;stroke:none;stroke-width:10;stroke-linejoin:round;stroke-miterlimit:4;stroke-dasharray:none;stroke-opacity:0.25882353" />
    </clipPath>
    <clipPath
       id="clipPath4342"
       clipPathUnits="userSpaceOnUse">
      <circle
         r="128"
         cy="933.48718"
         cx="128"
         id="circle4344"
         style="fill:#4285f4;fill-opacity:1;stroke:none;stroke-width:10;stroke-linejoin:round;stroke-miterlimit:4;stroke-dasharray:none;stroke-opacity:0.25882353" />
    </clipPath>
    <clipPath
       clipPathUnits="userSpaceOnUse"
       id="clipPath4681">
      <circle
         r="128"
         cy="930.43964"
         cx="127.00293"
         id="circle4683"
         style="fill:#9d5fad;fill-opacity:1;stroke:none;stroke-width:10;stroke-linejoin:round;stroke-miterlimit:4;stroke-dasharray:none;stroke-opacity:0.25882353" />
    </clipPath>
    <clipPath
       id="clipPath4235"
       clipPathUnits="userSpaceOnUse">
      <circle
         r="128"
         cy="924.36218"
         cx="128"
         id="circle4237"
         style="fill:#0f9d58;fill-opacity:1;stroke:none;stroke-width:10;stroke-linejoin:round;stroke-miterlimit:4;stroke-dasharray:none;stroke-opacity:0.25882353" />
    </clipPath>
    <clipPath
       clipPathUnits="userSpaceOnUse"
       id="clipPath4771">
      <circle
         r="128"
         cy="924.36218"
         cx="128"
         id="circle4773"
         style="fill:#0f9d58;fill-opacity:1;stroke:none;stroke-width:10;stroke-linejoin:round;stroke-miterlimit:4;stroke-dasharray:none;stroke-opacity:0.25882353" />
    </clipPath>
    <clipPath
       id="clipPath4842"
       clipPathUnits="userSpaceOnUse">
      <circle
         r="128"
         cy="924.36218"
         cx="128"
         id="circle4844"
         style="fill:#0f9d58;fill-opacity:1;stroke:none;stroke-width:10;stroke-linejoin:round;stroke-miterlimit:4;stroke-dasharray:none;stroke-opacity:0.25882353" />
    </clipPath>
    <clipPath
       clipPathUnits="userSpaceOnUse"
       id="clipPath4458">
      <circle
         r="128"
         cy="924.36218"
         cx="128"
         id="circle4460"
         style="fill:#ff3b38;fill-opacity:1;stroke:none;stroke-width:10;stroke-linejoin:round;stroke-miterlimit:4;stroke-dasharray:none;stroke-opacity:0.25882353" />
    </clipPath>
    <clipPath
       id="clipPath4783"
       clipPathUnits="userSpaceOnUse">
      <circle
         r="128"
         cy="924.36218"
         cx="128"
         id="circle4785"
         style="fill:#ff3b38;fill-opacity:1;stroke:none;stroke-width:10;stroke-linejoin:round;stroke-miterlimit:4;stroke-dasharray:none;stroke-opacity:0.25882353" />
    </clipPath>
    <clipPath
       clipPathUnits="userSpaceOnUse"
       id="clipPath4789">
      <circle
         r="128"
         cy="924.36218"
         cx="102.64714"
         id="circle4791"
         style="fill:#80b4ff;fill-opacity:1;stroke:none;stroke-width:10;stroke-linejoin:round;stroke-miterlimit:4;stroke-dasharray:none;stroke-opacity:0.25882353" />
    </clipPath>
    <clipPath
       id="clipPath4721"
       clipPathUnits="userSpaceOnUse">
      <circle
         r="128"
         cy="924.36218"
         cx="128"
         id="circle4723"
         style="fill:#557ae6;fill-opacity:1;stroke:none;stroke-width:10;stroke-linejoin:round;stroke-miterlimit:4;stroke-dasharray:none;stroke-opacity:0.25882353" />
    </clipPath>
    <clipPath
       clipPathUnits="userSpaceOnUse"
       id="clipPath4491">
      <circle
         r="128"
         cy="924.36218"
         cx="128"
         id="circle4493"
         style="fill:#990000;fill-opacity:1;stroke:none;stroke-width:10;stroke-linejoin:round;stroke-miterlimit:4;stroke-dasharray:none;stroke-opacity:0.25882353" />
    </clipPath>
    <clipPath
       id="clipPath1102"
       clipPathUnits="userSpaceOnUse">
      <circle
         r="128"
         cy="924.36218"
         cx="128"
         id="circle1104"
         style="fill:#b40000;fill-opacity:1;stroke:none;stroke-width:10;stroke-linejoin:round;stroke-miterlimit:4;stroke-dasharray:none;stroke-opacity:0.25882353" />
    </clipPath>
    <clipPath
       id="clipPath1102-3"
       clipPathUnits="userSpaceOnUse">
      <circle
         r="128"
         cy="924.36218"
         cx="128"
         id="circle1104-6"
         style="fill:#b40000;fill-opacity:1;stroke:none;stroke-width:10;stroke-linejoin:round;stroke-miterlimit:4;stroke-dasharray:none;stroke-opacity:0.25882353" />
    </clipPath>
    <clipPath
       id="clipPath4359"
       clipPathUnits="userSpaceOnUse">
      <circle
         style="fill:#f4b400;fill-opacity:1;stroke:none;stroke-width:10;stroke-linejoin:round;stroke-miterlimit:4;stroke-dasharray:none;stroke-opacity:0.25882353"
         id="circle4361"
         cx="101.19023"
         cy="930.17133"
         r="128" />
    </clipPath>
    <clipPath
       id="clipPath4228"
       clipPathUnits="userSpaceOnUse">
      <circle
         style="fill:#f4b400;fill-opacity:1;stroke:none;stroke-width:10;stroke-linejoin:round;stroke-miterlimit:4;stroke-dasharray:none;stroke-opacity:0.25882353"
         id="circle4230"
         cx="128"
         cy="924.36218"
         r="128" />
    </clipPath>
    <clipPath
       id="clipPath4206"
       clipPathUnits="userSpaceOnUse">
      <circle
         style="fill:#f4b400;fill-opacity:1;stroke:none;stroke-width:10;stroke-linejoin:round;stroke-miterlimit:4;stroke-dasharray:none;stroke-opacity:0.25882353"
         id="circle4208"
         cx="128"
         cy="924.36218"
         r="128" />
    </clipPath>
    <clipPath
       id="clipPath4359-3"
       clipPathUnits="userSpaceOnUse">
      <circle
         style="fill:#f4b400;fill-opacity:1;stroke:none;stroke-width:10;stroke-linejoin:round;stroke-miterlimit:4;stroke-dasharray:none;stroke-opacity:0.25882353"
         id="circle4361-6"
         cx="101.19023"
         cy="930.17133"
         r="128" />
    </clipPath>
    <clipPath
       id="clipPath1126"
       clipPathUnits="userSpaceOnUse">
      <circle
         r="128"
         cy="924.36218"
         cx="128"
         id="circle1128"
         style="fill:#f4b400;fill-opacity:1;stroke:none;stroke-width:10;stroke-linejoin:round;stroke-miterlimit:4;stroke-dasharray:none;stroke-opacity:0.25882353" />
    </clipPath>
    <clipPath
       clipPathUnits="userSpaceOnUse"
       id="clipPath1387">
      <circle
         r="128"
         cy="924.36218"
         cx="128"
         id="circle1389"
         style="fill:#f4b400;fill-opacity:1;stroke:none;stroke-width:10;stroke-linejoin:round;stroke-miterlimit:4;stroke-dasharray:none;stroke-opacity:0.25882353" />
    </clipPath>
    <clipPath
       clipPathUnits="userSpaceOnUse"
       id="clipPath1393">
      <circle
         r="128"
         cy="924.36218"
         cx="128"
         id="circle1395"
         style="fill:#f4b400;fill-opacity:1;stroke:none;stroke-width:10;stroke-linejoin:round;stroke-miterlimit:4;stroke-dasharray:none;stroke-opacity:0.25882353" />
    </clipPath>
  </defs>
  <metadata
     id="metadata7">
    <rdf:RDF>
      <cc:Work
         rdf:about="">
        <dc:format>image/svg+xml</dc:format>
        <dc:type
           rdf:resource="http://purl.org/dc/dcmitype/StillImage" />
        <dc:title />
      </cc:Work>
    </rdf:RDF>
  </metadata>
  <g
     transform="translate(0,-796.36216)"
     id="layer1"
     inkscape:groupmode="layer"
     inkscape:label="Layer 1">
    <path
       inkscape:connector-curvature="0"
       id="path4913"
       d="M 154.47438,971.05536 101.03985,1050.7214 0.485769,1051.2072 0,844.26978 l 33.032258,-2.42884 45.176471,83.55218 21.373814,35.4611 26.717267,13.11575 z"
       style="fill:none;fill-rule:evenodd;stroke:none;stroke-width:1px;stroke-linecap:butt;stroke-linejoin:miter;stroke-opacity:1" />
    <circle
       style="fill:#f4b400;fill-opacity:1;stroke:none;stroke-width:10;stroke-linejoin:round;stroke-miterlimit:4;stroke-dasharray:none;stroke-opacity:0.25882353"
       id="path4152"
       cx="128"
       cy="924.36218"
       r="128" />
    <g
       id="g1274"
       clip-path="url(#clipPath1387)"
       style="fill:#a27e19;fill-opacity:1">
      <g
         id="g1271"
         style="color:#000000;font-style:normal;font-variant:normal;font-weight:normal;font-stretch:normal;font-size:medium;line-height:normal;font-family:sans-serif;font-variant-ligatures:normal;font-variant-position:normal;font-variant-caps:normal;font-variant-numeric:normal;font-variant-alternates:normal;font-feature-settings:normal;text-indent:0;text-align:start;text-decoration:none;text-decoration-line:none;text-decoration-style:solid;text-decoration-color:#000000;letter-spacing:normal;word-spacing:normal;text-transform:none;writing-mode:lr-tb;direction:ltr;text-orientation:mixed;dominant-baseline:auto;baseline-shift:baseline;text-anchor:start;white-space:normal;shape-padding:0;clip-rule:nonzero;display:inline;overflow:visible;visibility:visible;opacity:1;isolation:auto;mix-blend-mode:normal;color-interpolation:sRGB;color-interpolation-filters:linearRGB;solid-color:#000000;solid-opacity:1;vector-effect:none;fill:#a27e19;fill-opacity:1;fill-rule:nonzero;stroke:none;stroke-width:0;stroke-linecap:butt;stroke-linejoin:miter;stroke-miterlimit:4;stroke-dasharray:none;stroke-dashoffset:0;stroke-opacity:1;color-rendering:auto;image-rendering:auto;shape-rendering:auto;text-rendering:auto;enable-background:accumulate">
        <path
           id="path1257"
           d="M109.07227 794.10156L109.07227 794.11716L-32.3490862373 935.538516237L-32.3490862373 935.522916237Z"
           style="fill:#a27e19;fill-opacity:1" />
        <path
           id="path1259"
           d="M109.07227 794.11716L109.07227 930.34567L-32.3490862373 1071.76702624L-32.3490862373 935.538516237Z"
           style="fill:#a27e19;fill-opacity:1" />
        <path
           id="path1261"
           d="M109.07227 930.34567L146.92773 930.34567L5.50637376269 1071.76702624L-32.3490862373 1071.76702624Z"
           style="fill:#a27e19;fill-opacity:1" />
        <path
           id="path1263"
           d="M146.92773 930.34567L146.92773 794.10156L5.50637376269 935.522916237L5.50637376269 1071.76702624Z"
           style="fill:#a27e19;fill-opacity:1" />
        <path
           id="path1265"
           d="M109.10347 794.13276L146.89643 794.13276L5.47507376269 935.554116237L-32.3178862373 935.554116237Z"
           style="fill:#a27e19;fill-opacity:1" />
        <path
           id="path1267"
           d="M146.89643 794.13276L146.89643 930.3144L5.47507376269 1071.73575624L5.47507376269 935.554116237Z"
           style="fill:#a27e19;fill-opacity:1" />
        <path
           id="path1269"
           d="M146.89643 930.3144L109.10347 930.3144L-32.3178862373 1071.73575624L5.47507376269 1071.73575624Z"
           style="fill:#a27e19;fill-opacity:1" />
      </g>
      <path
         inkscape:connector-curvature="0"
         id="rect1130"
         clip-path="url(#clipPath1126)"
         d="m 109.07227,794.10156 v 0.0156 136.22851 h 37.85546 V 794.10156 Z m 0.0312,0.0312 h 37.79296 v 136.18164 h -37.79296 z"
         style="color:#000000;font-style:normal;font-variant:normal;font-weight:normal;font-stretch:normal;font-size:medium;line-height:normal;font-family:sans-serif;font-variant-ligatures:normal;font-variant-position:normal;font-variant-caps:normal;font-variant-numeric:normal;font-variant-alternates:normal;font-feature-settings:normal;text-indent:0;text-align:start;text-decoration:none;text-decoration-line:none;text-decoration-style:solid;text-decoration-color:#000000;letter-spacing:normal;word-spacing:normal;text-transform:none;writing-mode:lr-tb;direction:ltr;text-orientation:mixed;dominant-baseline:auto;baseline-shift:baseline;text-anchor:start;white-space:normal;shape-padding:0;clip-rule:nonzero;display:inline;overflow:visible;visibility:visible;opacity:1;isolation:auto;mix-blend-mode:normal;color-interpolation:sRGB;color-interpolation-filters:linearRGB;solid-color:#000000;solid-opacity:1;vector-effect:none;fill:#a27e19;fill-opacity:1;fill-rule:nonzero;stroke:none;stroke-width:0;stroke-linecap:butt;stroke-linejoin:miter;stroke-miterlimit:4;stroke-dasharray:none;stroke-dashoffset:0;stroke-opacity:1;color-rendering:auto;image-rendering:auto;shape-rendering:auto;text-rendering:auto;enable-background:accumulate" />
    </g>
    <rect
       clip-path="url(#clipPath1126)"
       style="fill:#ffffff;fill-opacity:1;stroke:#000000;stroke-width:0;stroke-miterlimit:4;stroke-dasharray:none;stroke-opacity:1"
       id="rect4192"
       width="37.824127"
       height="136.21365"
       x="109.08794"
       y="794.11676" />
    <g
       id="g1255"
       clip-path="url(#clipPath1393)"
       style="fill:#a27e19;fill-opacity:1">
      <g
         id="g1252"
         style="color:#000000;font-style:normal;font-variant:normal;font-weight:normal;font-stretch:normal;font-size:medium;line-height:normal;font-family:sans-serif;font-variant-ligatures:normal;font-variant-position:normal;font-variant-caps:normal;font-variant-numeric:normal;font-variant-alternates:normal;font-feature-settings:normal;text-indent:0;text-align:start;text-decoration:none;text-decoration-line:none;text-decoration-style:solid;text-decoration-color:#000000;letter-spacing:normal;word-spacing:normal;text-transform:none;writing-mode:lr-tb;direction:ltr;text-orientation:mixed;dominant-baseline:auto;baseline-shift:baseline;text-anchor:start;white-space:normal;shape-padding:0;clip-rule:nonzero;display:inline;overflow:visible;visibility:visible;opacity:1;isolation:auto;mix-blend-mode:normal;color-interpolation:sRGB;color-interpolation-filters:linearRGB;solid-color:#000000;solid-opacity:1;vector-effect:none;fill:#a27e19;fill-opacity:1;fill-rule:nonzero;stroke:none;stroke-width:0;stroke-linecap:round;stroke-linejoin:miter;stroke-miterlimit:4;stroke-dasharray:none;stroke-dashoffset:0;stroke-opacity:1;color-rendering:auto;image-rendering:auto;shape-rendering:auto;text-rendering:auto;enable-background:accumulate">
        <path
           id="path1214"
           d="M123.07422 933.47266C120.29992 933.47266 117.796008475 934.589416525 115.985673962 936.399751038L-25.4356822753 1077.82110728C-23.6253477627 1076.01077276 -21.1214362373 1074.89401624 -18.3471362373 1074.89401624Z"
           style="fill:#a27e19;fill-opacity:1" />
        <path
           id="path1216"
           d="M115.985673962 936.399751038C114.175345975 938.210079025 113.05859 940.71398 113.05859 943.48828L-28.3627662373 1084.90963624C-28.3627662373 1082.13533624 -27.2460102627 1079.63143526 -25.4356822753 1077.82110728Z"
           style="fill:#a27e19;fill-opacity:1" />
        <path
           id="path1218"
           d="M113.05859 943.48828L113.05859 971.83203L-28.3627662373 1113.25338624L-28.3627662373 1084.90963624Z"
           style="fill:#a27e19;fill-opacity:1" />
        <path
           id="path1220"
           d="M113.05859 971.83203C113.05859 977.38052 117.52563 981.84766 123.07422 981.84766L-18.3471362373 1123.26901624C-23.8957262373 1123.26901624 -28.3627662373 1118.80187624 -28.3627662373 1113.25338624Z"
           style="fill:#a27e19;fill-opacity:1" />
        <path
           id="path1222"
           d="M123.07422 981.84766L132.92578 981.84766L-8.49557623731 1123.26901624L-18.3471362373 1123.26901624Z"
           style="fill:#a27e19;fill-opacity:1" />
        <path
           id="path1224"
           d="M132.92578 981.84766C135.70005875 981.84766 138.203957193 980.730884057 140.014290477 978.920550774L-1.40706576076 1120.34190701C-3.21739904464 1122.15224029 -5.72129748741 1123.26901624 -8.49557623731 1123.26901624Z"
           style="fill:#a27e19;fill-opacity:1" />
        <path
           id="path1226"
           d="M140.014290477 978.920550774C141.824638443 977.110202807 142.94141 974.60628625 142.94141 971.83203L1.52005376269 1113.25338624C1.52005376269 1116.02764249 0.403282205445 1118.53155904 -1.40706576076 1120.34190701Z"
           style="fill:#a27e19;fill-opacity:1" />
        <path
           id="path1228"
           d="M142.94141 971.83203L142.94141 943.48828L1.52005376269 1084.90963624L1.52005376269 1113.25338624Z"
           style="fill:#a27e19;fill-opacity:1" />
        <path
           id="path1230"
           d="M142.94141 943.48828C142.94141 937.93967 138.47436 933.47266 132.92578 933.47266L-8.49557623731 1074.89401624C-2.94699623731 1074.89401624 1.52005376269 1079.36102624 1.52005376269 1084.90963624Z"
           style="fill:#a27e19;fill-opacity:1" />
        <path
           id="path1232"
           d="M123.07422 933.50386L132.92578 933.50386L-8.49557623731 1074.92521624L-18.3471362373 1074.92521624Z"
           style="fill:#a27e19;fill-opacity:1" />
        <path
           id="path1234"
           d="M132.92578 933.50386C138.45718 933.50386 142.9082 937.9568 142.9082 943.48823L1.48684376269 1084.90958624C1.48684376269 1079.37815624 -2.96417623731 1074.92521624 -8.49557623731 1074.92521624Z"
           style="fill:#a27e19;fill-opacity:1" />
        <path
           id="path1236"
           d="M142.9082 943.48823L142.9082 971.83198L1.48684376269 1113.25333624L1.48684376269 1084.90958624Z"
           style="fill:#a27e19;fill-opacity:1" />
        <path
           id="path1238"
           d="M142.9082 971.83198C142.9082 974.598136246 141.795041613 977.094634773 139.990283966 978.89939242L-1.43107227144 1120.32074866C0.373685375839 1118.51599101 1.48684376269 1116.01949248 1.48684376269 1113.25333624Z"
           style="fill:#a27e19;fill-opacity:1" />
        <path
           id="path1240"
           d="M139.990283966 978.89939242C138.186180387 980.703496 135.690978746 981.81636 132.92578 981.81636L-8.49557623731 1123.23771624C-5.73037749137 1123.23771624 -3.23517585054 1122.12485224 -1.43107227144 1120.32074866Z"
           style="fill:#a27e19;fill-opacity:1" />
        <path
           id="path1242"
           d="M132.92578 981.81636L123.07422 981.81636L-18.3471362373 1123.23771624L-8.49557623731 1123.23771624Z"
           style="fill:#a27e19;fill-opacity:1" />
        <path
           id="path1244"
           d="M123.07422 981.81636C117.54281 981.81636 113.0918 977.36329 113.0918 971.83198L-28.3295562373 1113.25333624C-28.3295562373 1118.78464624 -23.8785462373 1123.23771624 -18.3471362373 1123.23771624Z"
           style="fill:#a27e19;fill-opacity:1" />
        <path
           id="path1246"
           d="M113.0918 971.83198L113.0918 943.48823L-28.3295562373 1084.90958624L-28.3295562373 1113.25333624Z"
           style="fill:#a27e19;fill-opacity:1" />
        <path
           id="path1248"
           d="M113.0918 943.48823C113.0918 940.722029999 114.204942803 938.22554707 116.009680466 936.420809406L-25.4116757712 1077.84216564C-27.2164134344 1079.64690331 -28.3295562373 1082.14338624 -28.3295562373 1084.90958624Z"
           style="fill:#a27e19;fill-opacity:1" />
        <path
           id="path1250"
           d="M116.009680466 936.420809406C117.813785276 934.616704596 120.308999999 933.50386 123.07422 933.50386L-18.3471362373 1074.92521624C-21.1123562382 1074.92521624 -23.6075709613 1076.03806083 -25.4116757712 1077.84216564Z"
           style="fill:#a27e19;fill-opacity:1" />
      </g>
      <path
         inkscape:connector-curvature="0"
         id="path1132"
         d="m 123.07422,933.47266 c -5.54859,0 -10.01563,4.46701 -10.01563,10.01562 v 28.34375 c 0,5.54849 4.46704,10.01563 10.01563,10.01563 h 9.85156 c 5.54858,0 10.01563,-4.46714 10.01563,-10.01563 v -28.34375 c 0,-5.54861 -4.46705,-10.01562 -10.01563,-10.01562 z m 0,0.0312 h 9.85156 c 5.5314,0 9.98242,4.45294 9.98242,9.98437 v 28.34375 c 0,5.53131 -4.45102,9.98438 -9.98242,9.98438 h -9.85156 c -5.53141,0 -9.98242,-4.45307 -9.98242,-9.98438 v -28.34375 c 0,-5.53143 4.45101,-9.98437 9.98242,-9.98437 z"
         style="color:#000000;font-style:normal;font-variant:normal;font-weight:normal;font-stretch:normal;font-size:medium;line-height:normal;font-family:sans-serif;font-variant-ligatures:normal;font-variant-position:normal;font-variant-caps:normal;font-variant-numeric:normal;font-variant-alternates:normal;font-feature-settings:normal;text-indent:0;text-align:start;text-decoration:none;text-decoration-line:none;text-decoration-style:solid;text-decoration-color:#000000;letter-spacing:normal;word-spacing:normal;text-transform:none;writing-mode:lr-tb;direction:ltr;text-orientation:mixed;dominant-baseline:auto;baseline-shift:baseline;text-anchor:start;white-space:normal;shape-padding:0;clip-rule:nonzero;display:inline;overflow:visible;visibility:visible;opacity:1;isolation:auto;mix-blend-mode:normal;color-interpolation:sRGB;color-interpolation-filters:linearRGB;solid-color:#000000;solid-opacity:1;vector-effect:none;fill:#a27e19;fill-opacity:1;fill-rule:nonzero;stroke:none;stroke-width:0;stroke-linecap:round;stroke-linejoin:miter;stroke-miterlimit:4;stroke-dasharray:none;stroke-dashoffset:0;stroke-opacity:1;color-rendering:auto;image-rendering:auto;shape-rendering:auto;text-rendering:auto;enable-background:accumulate" />
    </g>
    <path
       inkscape:connector-curvature="0"
       id="path4194"
       d="m 123.07491,933.48852 h 9.85021 c 5.53999,0 9.99999,4.46 9.99999,10.00002 v 28.3432 c 0,5.5399 -4.46,10 -9.99999,10 h -9.85021 c -5.54,0 -10,-4.4601 -10,-10 v -28.3432 c 0,-5.54002 4.46,-10.00002 10,-10.00002 z"
       style="fill:#fefefe;fill-opacity:1;stroke:#000000;stroke-width:0;stroke-linecap:round;stroke-linejoin:miter;stroke-miterlimit:4;stroke-dasharray:none;stroke-opacity:1" />
    <path
       inkscape:connector-curvature="0"
       id="path4196"
       d="m 117.85963,936.92514 h 20.28076 c 0.78424,0 1.4156,0.63135 1.4156,1.41559 v 10.91541 c 0,0.7842 -0.63136,1.4156 -1.4156,1.4156 h -20.28076 c -0.78424,0 -1.4156,-0.6314 -1.4156,-1.4156 v -10.91541 c 0,-0.78424 0.63136,-1.41559 1.4156,-1.41559 z"
       style="fill:#f4b400;fill-opacity:1;stroke:#000000;stroke-width:0;stroke-linecap:round;stroke-linejoin:miter;stroke-miterlimit:4;stroke-dasharray:none;stroke-opacity:1" />
    <g
       id="g4198"
       transform="translate(26.809769,-5.563782)"
       clip-path="url(#clipPath4359-3)">
      <g
         transform="translate(-0.3241806)"
         id="g4200">
        <rect
           style="opacity:0.98999999;fill:#f4b400;fill-opacity:1;stroke:none;stroke-width:3.91300011;stroke-linecap:round;stroke-linejoin:round;stroke-miterlimit:4;stroke-dasharray:none;stroke-opacity:1"
           id="rect4202"
           width="18"
           height="11.3333"
           x="83.547386"
           y="797.68048" />
        <rect
           y="808.99182"
           x="101.48145"
           height="11.3333"
           width="18"
           id="rect4204"
           style="opacity:0.98999999;fill:#f4b400;fill-opacity:1;stroke:none;stroke-width:3.91300011;stroke-linecap:round;stroke-linejoin:round;stroke-miterlimit:4;stroke-dasharray:none;stroke-opacity:1" />
      </g>
      <g
         id="g4206"
         transform="translate(-0.3241806,22.582488)">
        <rect
           y="797.68048"
           x="83.547386"
           height="11.3333"
           width="18"
           id="rect4208"
           style="opacity:0.98999999;fill:#f4b400;fill-opacity:1;stroke:none;stroke-width:3.91300011;stroke-linecap:round;stroke-linejoin:round;stroke-miterlimit:4;stroke-dasharray:none;stroke-opacity:1" />
        <rect
           style="opacity:0.98999999;fill:#f4b400;fill-opacity:1;stroke:none;stroke-width:3.91300011;stroke-linecap:round;stroke-linejoin:round;stroke-miterlimit:4;stroke-dasharray:none;stroke-opacity:1"
           id="rect4210"
           width="18"
           height="11.3333"
           x="101.48145"
           y="808.99182" />
      </g>
      <g
         transform="translate(-0.3241806,45.209905)"
         id="g4212">
        <rect
           style="opacity:0.98999999;fill:#f4b400;fill-opacity:1;stroke:none;stroke-width:3.91300011;stroke-linecap:round;stroke-linejoin:round;stroke-miterlimit:4;stroke-dasharray:none;stroke-opacity:1"
           id="rect4214"
           width="18"
           height="11.3333"
           x="83.547386"
           y="797.68048" />
        <rect
           y="808.99182"
           x="101.48145"
           height="11.3333"
           width="18"
           id="rect4216"
           style="opacity:0.98999999;fill:#f4b400;fill-opacity:1;stroke:none;stroke-width:3.91300011;stroke-linecap:round;stroke-linejoin:round;stroke-miterlimit:4;stroke-dasharray:none;stroke-opacity:1" />
      </g>
      <g
         id="g4218"
         transform="translate(-0.3241806,67.754438)">
        <rect
           y="797.68048"
           x="83.547386"
           height="11.3333"
           width="18"
           id="rect4220"
           style="opacity:0.98999999;fill:#f4b400;fill-opacity:1;stroke:none;stroke-width:3.91300011;stroke-linecap:round;stroke-linejoin:round;stroke-miterlimit:4;stroke-dasharray:none;stroke-opacity:1" />
        <rect
           style="opacity:0.98999999;fill:#f4b400;fill-opacity:1;stroke:none;stroke-width:3.91300011;stroke-linecap:round;stroke-linejoin:round;stroke-miterlimit:4;stroke-dasharray:none;stroke-opacity:1"
           id="rect4222"
           width="18"
           height="11.3333"
           x="101.48145"
           y="808.99182" />
      </g>
      <g
         transform="translate(-0.3241806,90.298971)"
         id="g4224">
        <rect
           style="opacity:0.98999999;fill:#f4b400;fill-opacity:1;stroke:none;stroke-width:3.91300011;stroke-linecap:round;stroke-linejoin:round;stroke-miterlimit:4;stroke-dasharray:none;stroke-opacity:1"
           id="rect4226"
           width="18"
           height="11.3333"
           x="83.547386"
           y="797.68048" />
        <rect
           y="808.99182"
           x="101.48145"
           height="11.3333"
           width="18"
           id="rect4229"
           style="opacity:0.98999999;fill:#f4b400;fill-opacity:1;stroke:none;stroke-width:3.91300011;stroke-linecap:round;stroke-linejoin:round;stroke-miterlimit:4;stroke-dasharray:none;stroke-opacity:1" />
      </g>
      <g
         id="g4231"
         transform="translate(-0.3241806,112.8435)">
        <rect
           y="797.68048"
           x="83.547386"
           height="11.3333"
           width="18"
           id="rect4233"
           style="opacity:0.98999999;fill:#f4b400;fill-opacity:1;stroke:none;stroke-width:3.91300011;stroke-linecap:round;stroke-linejoin:round;stroke-miterlimit:4;stroke-dasharray:none;stroke-opacity:1" />
        <rect
           style="opacity:0.98999999;fill:#f4b400;fill-opacity:1;stroke:none;stroke-width:3.91300011;stroke-linecap:round;stroke-linejoin:round;stroke-miterlimit:4;stroke-dasharray:none;stroke-opacity:1"
           id="rect4235"
           width="18"
           height="11.3333"
           x="101.48145"
           y="808.99182" />
      </g>
    </g>
  </g>
</svg>
