<?xml version="1.0" encoding="UTF-8" standalone="no"?>
<!-- Created with Inkscape (http://www.inkscape.org/) -->

<svg
   xmlns:dc="http://purl.org/dc/elements/1.1/"
   xmlns:cc="http://creativecommons.org/ns#"
   xmlns:rdf="http://www.w3.org/1999/02/22-rdf-syntax-ns#"
   xmlns:svg="http://www.w3.org/2000/svg"
   xmlns="http://www.w3.org/2000/svg"
   xmlns:sodipodi="http://sodipodi.sourceforge.net/DTD/sodipodi-0.dtd"
   xmlns:inkscape="http://www.inkscape.org/namespaces/inkscape"
   width="256"
   height="256"
   viewBox="0 0 256 256"
   id="svg2"
   version="1.1"
   inkscape:version="0.91 r13725"
   sodipodi:docname="notepadqq.svg">
  <sodipodi:namedview
     id="base"
     pagecolor="#ffffff"
     bordercolor="#666666"
     borderopacity="1.0"
     inkscape:pageopacity="0.0"
     inkscape:pageshadow="2"
     inkscape:zoom="3.3632812"
     inkscape:cx="78.197444"
     inkscape:cy="128"
     inkscape:document-units="px"
     inkscape:current-layer="layer1"
     showgrid="true"
     units="px"
     inkscape:window-width="1920"
     inkscape:window-height="1054"
     inkscape:window-x="0"
     inkscape:window-y="0"
     inkscape:window-maximized="1">
    <inkscape:grid
       type="xygrid"
       id="grid4168"
       spacingx="5"
       spacingy="5" />
  </sodipodi:namedview>
  <defs
     id="defs4">
    <clipPath
       clipPathUnits="userSpaceOnUse"
       id="clipPath5002">
      <g
         id="g5004">
        <path
           transform="translate(0,796.36216)"
           inkscape:connector-curvature="0"
           id="path5006"
           d="M 88.118406,249.43519 C 46.103287,235.29134 14.771284,201.68742 4.1335861,159.36053 1.3377997,148.23623 0.92261224,144.16281 0.92582381,127.88908 0.92787958,117.47222 1.134384,112.01362 1.6577819,108.54099 4.4653598,89.913336 12.17654,70.638106 23.042737,55.086148 c 3.958678,-5.665755 8.344812,-10.93092 9.101533,-10.925587 0.32809,0.0023 10.488643,18.309713 22.579009,40.683112 12.090365,22.373397 22.374546,41.334697 22.853732,42.136217 0.479186,0.80151 0.924733,2.44098 0.990103,3.64326 0.343424,6.31639 2.524175,14.20976 5.6424,20.42304 2.954444,5.88693 5.065381,8.73258 10.434696,14.06652 6.71418,6.66995 12.88853,10.28643 21.73204,12.72904 3.16587,0.87442 5.10478,1.05037 11.57517,1.05037 8.82596,0 12.60219,-0.76201 19.26429,-3.88733 2.04584,-0.95974 3.93661,-1.66536 4.20172,-1.56805 0.2651,0.0973 -11.0555,17.66459 -25.1569,39.0384 l -25.6389,38.86148 -3.094121,0.11221 c -2.554618,0.0927 -4.195204,-0.25845 -9.409103,-2.01364 z"
           style="fill:#0f9d58;fill-opacity:1;stroke:none;stroke-width:4.85768509;stroke-linejoin:round;stroke-miterlimit:4;stroke-dasharray:none;stroke-opacity:1" />
        <path
           inkscape:connector-curvature="0"
           id="path5008"
           d="m 112.35984,1051.5167 c -10.0014,-1.4495 -12.15632,-1.8201 -12.531784,-2.1556 -0.248854,-0.2223 1.738304,-3.7475 4.550294,-8.0722 7.16635,-11.0213 49.77231,-74.64801 50.25856,-75.05489 3.57509,-2.99158 8.63523,-8.0414 10.57512,-10.55356 3.36154,-4.35318 7.55784,-12.9141 9.06523,-18.494 6.19314,-22.92535 -2.59253,-47.15185 -21.69967,-59.83688 l -2.96081,-1.96565 17.02469,0.29584 c 9.36358,0.1627 31.17032,0.43384 48.45941,0.60252 l 31.43471,0.30668 1.54584,4.18869 c 2.24597,6.08579 4.67816,15.0947 5.93451,21.9816 1.52517,8.36049 1.92536,28.85896 0.73851,37.82758 -3.0805,23.27845 -12.81326,45.72018 -27.80202,64.10577 -20.47622,25.1166 -51.4599,42.1974 -84.14612,46.3885 -5.31244,0.6812 -26.64601,0.9864 -30.44647,0.4356 z"
           style="fill:#f4b400;fill-opacity:1;stroke:none;stroke-width:4.85768509;stroke-linejoin:round;stroke-miterlimit:4;stroke-dasharray:none;stroke-opacity:1" />
        <path
           transform="translate(0,796.36216)"
           inkscape:connector-curvature="0"
           id="path5010"
           d="M 67.989788,108.87302 C 41.284246,59.575543 33.290284,45.149038 32.233625,44.344765 31.651257,43.901497 32.811213,42.549931 38.695603,36.815353 53.43581,22.450419 68.809334,13.040746 87.839196,6.7360352 101.68742,2.1480329 112.58238,0.43719165 127.95142,0.43719165 c 21.3099,0 37.80488,3.80960275 56.83492,13.12633035 25.29351,12.383198 46.19421,33.578863 58.51993,59.345832 1.61138,3.368591 2.92978,6.372442 2.92978,6.675231 0,0.560033 -10.54865,0.49527 -71.16508,-0.436914 l -24.28843,-0.373518 -3.93063,-1.764495 c -6.75732,-3.033425 -10.64587,-3.839529 -18.6576,-3.867747 -5.0296,-0.01773 -7.97946,0.207636 -10.31642,0.788106 -14.50826,3.603659 -26.283291,12.94777 -33.291614,26.418653 -3.58502,6.89086 -5.24713,13.08166 -6.331628,23.58317 l -0.33738,3.26696 -9.92748,-18.32578 z"
           style="fill:#db4437;fill-opacity:1;stroke:none;stroke-width:10;stroke-linejoin:round;stroke-miterlimit:4;stroke-dasharray:none;stroke-opacity:1" />
      </g>
    </clipPath>
    <clipPath
       id="clipPath4271"
       clipPathUnits="userSpaceOnUse">
      <circle
         r="128"
         cy="128.00002"
         cx="128"
         id="circle4273"
         style="fill:#292929;fill-opacity:0.26020412;stroke:none;stroke-width:10;stroke-linejoin:round;stroke-miterlimit:4;stroke-dasharray:none;stroke-opacity:0.25882353" />
    </clipPath>
    <clipPath
       clipPathUnits="userSpaceOnUse"
       id="clipPath4363">
      <circle
         r="128"
         cy="924.36218"
         cx="128"
         id="circle4365"
         style="fill:#4285f4;fill-opacity:1;stroke:none;stroke-width:10;stroke-linejoin:round;stroke-miterlimit:4;stroke-dasharray:none;stroke-opacity:0.25882353" />
    </clipPath>
    <clipPath
       id="clipPath4452"
       clipPathUnits="userSpaceOnUse">
      <circle
         r="128"
         cy="924.36218"
         cx="128"
         id="circle4454"
         style="fill:#4285f4;fill-opacity:1;stroke:none;stroke-width:10;stroke-linejoin:round;stroke-miterlimit:4;stroke-dasharray:none;stroke-opacity:0.25882353" />
    </clipPath>
    <clipPath
       clipPathUnits="userSpaceOnUse"
       id="clipPath5177">
      <circle
         r="128"
         cy="924.36218"
         cx="128"
         id="circle5179"
         style="fill:#4285f4;fill-opacity:1;stroke:none;stroke-width:10;stroke-linejoin:round;stroke-miterlimit:4;stroke-dasharray:none;stroke-opacity:0.25882353" />
    </clipPath>
    <clipPath
       id="clipPath4342"
       clipPathUnits="userSpaceOnUse">
      <circle
         r="128"
         cy="933.48718"
         cx="128"
         id="circle4344"
         style="fill:#4285f4;fill-opacity:1;stroke:none;stroke-width:10;stroke-linejoin:round;stroke-miterlimit:4;stroke-dasharray:none;stroke-opacity:0.25882353" />
    </clipPath>
    <clipPath
       clipPathUnits="userSpaceOnUse"
       id="clipPath4373">
      <circle
         r="128"
         cy="924.36218"
         cx="128"
         id="circle4375"
         style="fill:#4285f4;fill-opacity:1;stroke:none;stroke-width:10;stroke-linejoin:round;stroke-miterlimit:4;stroke-dasharray:none;stroke-opacity:0.25882353" />
    </clipPath>
    <clipPath
       id="clipPath4484"
       clipPathUnits="userSpaceOnUse">
      <circle
         r="128"
         cy="933.47552"
         cx="128"
         id="circle4486"
         style="fill:#4285f4;fill-opacity:1;stroke:none;stroke-width:10;stroke-linejoin:round;stroke-miterlimit:4;stroke-dasharray:none;stroke-opacity:0.25882353" />
    </clipPath>
    <clipPath
       clipPathUnits="userSpaceOnUse"
       id="clipPath4344">
      <circle
         r="128"
         cy="128.00002"
         cx="128"
         id="circle4346"
         style="fill:#4285f4;fill-opacity:1;stroke:none;stroke-width:10;stroke-linejoin:round;stroke-miterlimit:4;stroke-dasharray:none;stroke-opacity:0.25882353" />
    </clipPath>
    <clipPath
       id="clipPath4309"
       clipPathUnits="userSpaceOnUse">
      <circle
         r="128"
         cy="924.36218"
         cx="128"
         id="circle4311"
         style="fill:#4285f4;fill-opacity:1;stroke:none;stroke-width:10;stroke-linejoin:round;stroke-miterlimit:4;stroke-dasharray:none;stroke-opacity:0.25882353" />
    </clipPath>
    <clipPath
       clipPathUnits="userSpaceOnUse"
       id="clipPath4771">
      <circle
         r="128"
         cy="924.36218"
         cx="128"
         id="circle4773"
         style="fill:#9abef9;fill-opacity:1;stroke:none;stroke-width:10;stroke-linejoin:round;stroke-miterlimit:4;stroke-dasharray:none;stroke-opacity:0.25882353" />
    </clipPath>
  </defs>
  <metadata
     id="metadata7">
    <rdf:RDF>
      <cc:Work
         rdf:about="">
        <dc:format>image/svg+xml</dc:format>
        <dc:type
           rdf:resource="http://purl.org/dc/dcmitype/StillImage" />
        <dc:title />
      </cc:Work>
    </rdf:RDF>
  </metadata>
  <g
     transform="translate(0,-796.36216)"
     id="layer1"
     inkscape:groupmode="layer"
     inkscape:label="Layer 1">
    <path
       inkscape:connector-curvature="0"
       id="path4913"
       d="M 154.47438,968.80998 101.03985,1048.476 0.4857685,1048.9618 0,842.0244 l 33.032258,-2.42884 45.176471,83.55218 21.373814,35.4611 26.717267,13.11575 z"
       style="fill:none;fill-rule:evenodd;stroke:none;stroke-width:1px;stroke-linecap:butt;stroke-linejoin:miter;stroke-opacity:1" />
    <circle
       style="fill:#58b45c;fill-opacity:1;stroke:none;stroke-width:10;stroke-linejoin:round;stroke-miterlimit:4;stroke-dasharray:none;stroke-opacity:0.25882353"
       id="path4152"
       cx="128"
       cy="924.36218"
       r="128" />
    <text
       sodipodi:linespacing="125%"
       id="text4914"
       y="927.36218"
       x="120"
       style="font-style:normal;font-weight:normal;font-size:40px;line-height:125%;font-family:sans-serif;letter-spacing:0px;word-spacing:0px;fill:#000000;fill-opacity:1;stroke:none;stroke-width:1px;stroke-linecap:butt;stroke-linejoin:miter;stroke-opacity:1"
       xml:space="preserve"><tspan
         y="927.36218"
         x="120"
         id="tspan4916"
         sodipodi:role="line" /></text>
    <g
       style="font-style:normal;font-variant:normal;font-weight:normal;font-stretch:normal;font-size:90px;line-height:125%;font-family:sans-serif;-inkscape-font-specification:sans-serif;letter-spacing:0px;word-spacing:0px;fill:#0e7a12;fill-opacity:1;stroke:none;stroke-width:1px;stroke-linecap:butt;stroke-linejoin:miter;stroke-opacity:1"
       id="g4468"
       clip-path="url(#clipPath4771)">
      <g
         id="g4470"
         transform="translate(-1.189312,-1.67226)"
         style="fill:#0e7a12;fill-opacity:1">
        <g
           id="g4519"
           transform="translate(1.189312,798.03442)"
           style="fill:#0e7a12;fill-opacity:1">
          <g
             id="g4521"
             style="fill:#0e7a12;fill-opacity:1">
            <path
               id="path4523"
               d="M74.519531 93.4375C71.091797 93.4375 68.058594 94.169926 65.421875 95.634766L-75.9994812373 237.056122237C-73.3627622373 235.591282237 -70.3295592373 234.858856237 -66.9018252373 234.858856237Z"
               style="fill:#0e7a12;fill-opacity:1" />
            <path
               id="path4525"
               d="M65.421875 95.634766C64.0476910183 96.4067806216 62.7673588032 97.3860271321 61.5805927547 98.5727931806L-79.8407634826 239.994149418C-78.6539974341 238.807383369 -77.373665219 237.828136859 -75.9994812373 237.056122237Z"
               style="fill:#0e7a12;fill-opacity:1" />
            <path
               id="path4527"
               d="M61.5805927547 98.5727931806C60.5155497696 99.6378361657 59.52586366 100.87001247 58.611328 102.26953L-82.8100282373 243.690886237C-81.8954925773 242.291368707 -80.9058064677 241.059192403 -79.8407634826 239.994149418Z"
               style="fill:#0e7a12;fill-opacity:1" />
            <path
               id="path4529"
               d="M58.611328 102.26953L58.611328 94.623047L-82.8100282373 236.044403237L-82.8100282373 243.690886237Z"
               style="fill:#0e7a12;fill-opacity:1" />
            <path
               id="path4531"
               d="M58.611328 94.623047L50.480469 94.623047L-90.9408872373 236.044403237L-82.8100282373 236.044403237Z"
               style="fill:#0e7a12;fill-opacity:1" />
            <path
               id="path4533"
               d="M50.480469 94.623047L50.480469 143.8418L-90.9408872373 285.263156237L-90.9408872373 236.044403237Z"
               style="fill:#0e7a12;fill-opacity:1" />
            <path
               id="path4535"
               d="M50.480469 143.8418L58.611328 143.8418L-82.8100282373 285.263156237L-90.9408872373 285.263156237Z"
               style="fill:#0e7a12;fill-opacity:1" />
            <path
               id="path4537"
               d="M58.611328 143.8418L58.611328 116.02539L-82.8100282373 257.446746237L-82.8100282373 285.263156237Z"
               style="fill:#0e7a12;fill-opacity:1" />
            <path
               id="path4539"
               d="M58.611328 116.02539C58.611328 111.2207 59.871094 107.42578 62.390625 104.64258L-79.0307312373 246.063936237C-81.5502622373 248.847136237 -82.8100282373 252.642056237 -82.8100282373 257.446746237Z"
               style="fill:#0e7a12;fill-opacity:1" />
            <path
               id="path4541"
               d="M62.390625 104.64258C62.5341415028 104.484044491 62.6806491427 104.330027346 62.8301482808 104.180528208L-78.5912079565 245.601884445C-78.7407070946 245.751383583 -78.8872147345 245.905400728 -79.0307312373 246.063936237Z"
               style="fill:#0e7a12;fill-opacity:1" />
            <path
               id="path4543"
               d="M62.8301482808 104.180528208C65.3052094223 101.705467066 68.6002127454 100.46875 72.716797 100.46875L-68.7045592373 241.890106237C-72.8211434919 241.890106237 -76.116146815 243.126823304 -78.5912079565 245.601884445Z"
               style="fill:#0e7a12;fill-opacity:1" />
            <path
               id="path4545"
               d="M72.716797 100.46875C76.34961 100.46875 79.074219 101.625 80.890625 103.93945L-60.5307312373 245.360806237C-62.3471372373 243.046356237 -65.0717462373 241.890106237 -68.7045592373 241.890106237Z"
               style="fill:#0e7a12;fill-opacity:1" />
            <path
               id="path4547"
               d="M80.890625 103.93945C82.707031 106.25391 83.615234 109.74024 83.615234 114.39844L-57.8061222373 255.819796237C-57.8061222373 251.161596237 -58.7143252373 247.675266237 -60.5307312373 245.360806237Z"
               style="fill:#0e7a12;fill-opacity:1" />
            <path
               id="path4549"
               d="M83.615234 114.39844L83.615234 143.8418L-57.8061222373 285.263156237L-57.8061222373 255.819796237Z"
               style="fill:#0e7a12;fill-opacity:1" />
            <path
               id="path4551"
               d="M83.615234 143.8418L91.701172 143.8418L-49.7201842373 285.263156237L-57.8061222373 285.263156237Z"
               style="fill:#0e7a12;fill-opacity:1" />
            <path
               id="path4553"
               d="M91.701172 143.8418L91.701172 114.13477L-49.7201842373 255.556126237L-49.7201842373 285.263156237Z"
               style="fill:#0e7a12;fill-opacity:1" />
            <path
               id="path4555"
               d="M91.701172 114.13477C91.701172 107.33789 90.251953 102.19726 87.351562 98.710938L-54.0697942373 240.132294237C-51.1694032373 243.618616237 -49.7201842373 248.759246237 -49.7201842373 255.556126237Z"
               style="fill:#0e7a12;fill-opacity:1" />
            <path
               id="path4557"
               d="M87.351562 98.710938C84.451172 95.195311 80.173828 93.4375 74.519531 93.4375L-66.9018252373 234.858856237C-61.2475282373 234.858856237 -56.9701842373 236.616667237 -54.0697942373 240.132294237Z"
               style="fill:#0e7a12;fill-opacity:1" />
            <path
               id="path4559"
               d="M124.52734 93.4375C119.433477891 93.4375 115.146284564 95.1783720719 111.664541048 98.6601155874L-29.756815189 240.081471825C-26.2750716735 236.599728309 -21.9878783458 234.858856237 -16.8940162373 234.858856237Z"
               style="fill:#0e7a12;fill-opacity:1" />
            <path
               id="path4561"
               d="M111.664541048 98.6601155874C111.081228718 99.2434279173 110.520523613 99.8756027225 109.98242 100.55664L-31.4389362373 241.977996237C-30.9008326244 241.29695896 -30.3401275189 240.664784155 -29.756815189 240.081471825Z"
               style="fill:#0e7a12;fill-opacity:1" />
            <path
               id="path4563"
               d="M109.98242 100.55664C106.26172 105.30273 104.40234 111.54297 104.40234 119.27734L-37.0190162373 260.698696237C-37.0190162373 252.964326237 -35.1596362373 246.724086237 -31.4389362373 241.977996237Z"
               style="fill:#0e7a12;fill-opacity:1" />
            <path
               id="path4565"
               d="M104.40234 119.27734C104.40234 127.01172 106.26172 133.25195 109.98242 137.99805L-31.4389362373 279.419406237C-35.1596362373 274.673306237 -37.0190162373 268.433076237 -37.0190162373 260.698696237Z"
               style="fill:#0e7a12;fill-opacity:1" />
            <path
               id="path4567"
               d="M109.98242 137.99805C113.73242 142.74414 118.58008 145.11719 124.52734 145.11719L-16.8940162373 286.538546237C-22.8412762373 286.538546237 -27.6889362373 284.165496237 -31.4389362373 279.419406237Z"
               style="fill:#0e7a12;fill-opacity:1" />
            <path
               id="path4569"
               d="M124.52734 145.11719C128.16016 145.11719 131.26758 144.41407 133.8457 143.00781L-7.57565623731 284.429166237C-10.1537762373 285.835426237 -13.2611962373 286.538546237 -16.8940162373 286.538546237Z"
               style="fill:#0e7a12;fill-opacity:1" />
            <path
               id="path4571"
               d="M133.8457 143.00781C135.116554045 142.30812916 136.279302644 141.430740803 137.334170422 140.375873026L-4.08718581579 281.797229263C-5.14205359293 282.85209704 -6.30480219217 283.729485397 -7.57565623731 284.429166237Z"
               style="fill:#0e7a12;fill-opacity:1" />
            <path
               id="path4573"
               d="M137.334170422 140.375873026C138.44358213 139.266461317 139.433668223 137.960741861 140.30469 136.45898L-1.11666623731 277.880336237C-1.98768801432 279.382098099 -2.97777410704 280.687817554 -4.08718581579 281.797229263Z"
               style="fill:#0e7a12;fill-opacity:1" />
            <path
               id="path4575"
               d="M140.30469 136.45898L140.30469 162.5625L-1.11666623731 303.983856237L-1.11666623731 277.880336237Z"
               style="fill:#0e7a12;fill-opacity:1" />
            <path
               id="path4577"
               d="M140.30469 162.5625L148.39062 162.5625L6.96926376269 303.983856237L-1.11666623731 303.983856237Z"
               style="fill:#0e7a12;fill-opacity:1" />
            <path
               id="path4579"
               d="M148.39062 162.5625L148.39062 94.623047L6.96926376269 236.044403237L6.96926376269 303.983856237Z"
               style="fill:#0e7a12;fill-opacity:1" />
            <path
               id="path4581"
               d="M148.39062 94.623047L140.30469 94.623047L-1.11666623731 236.044403237L6.96926376269 236.044403237Z"
               style="fill:#0e7a12;fill-opacity:1" />
            <path
               id="path4583"
               d="M140.30469 94.623047L140.30469 102.09375L-1.11666623731 243.515106237L-1.11666623731 236.044403237Z"
               style="fill:#0e7a12;fill-opacity:1" />
            <path
               id="path4585"
               d="M140.30469 102.09375C138.60547 99.164057 136.45312 96.99609 133.8457 95.589844L-7.57565623731 237.011200237C-4.96823623731 238.417446237 -2.81588623731 240.585413237 -1.11666623731 243.515106237Z"
               style="fill:#0e7a12;fill-opacity:1" />
            <path
               id="path4587"
               d="M133.8457 95.589844C131.26758 94.154297 128.16016 93.4375 124.52734 93.4375L-16.8940162373 234.858856237C-13.2611962373 234.858856237 -10.1537762373 235.575653237 -7.57565623731 237.011200237Z"
               style="fill:#0e7a12;fill-opacity:1" />
            <path
               id="path4589"
               d="M181.6582 93.4375C176.563927414 93.4375 172.275022866 95.1786526521 168.79271819 98.6609573278L27.371361953 240.082313565C30.8536666287 236.600008889 35.1425711762 234.858856237 40.2368437627 234.858856237Z"
               style="fill:#0e7a12;fill-opacity:1" />
            <path
               id="path4591"
               d="M168.79271819 98.6609573278C168.209639447 99.2440360712 167.649174789 99.8759302963 167.11133 100.55664L25.6899737627 241.977996237C26.2278185519 241.297286534 26.7882832095 240.665392309 27.371361953 240.082313565Z"
               style="fill:#0e7a12;fill-opacity:1" />
            <path
               id="path4593"
               d="M167.11133 100.55664C163.39062 105.30273 161.5293 111.54297 161.5293 119.27734L20.1079437627 260.698696237C20.1079437627 252.964326237 21.9692637627 246.724086237 25.6899737627 241.977996237Z"
               style="fill:#0e7a12;fill-opacity:1" />
            <path
               id="path4595"
               d="M161.5293 119.27734C161.5293 127.01172 163.39062 133.25195 167.11133 137.99805L25.6899737627 279.419406237C21.9692637627 274.673306237 20.1079437627 268.433076237 20.1079437627 260.698696237Z"
               style="fill:#0e7a12;fill-opacity:1" />
            <path
               id="path4597"
               d="M167.11133 137.99805C170.86133 142.74414 175.71094 145.11719 181.6582 145.11719L40.2368437627 286.538546237C34.2895837627 286.538546237 29.4399737627 284.165496237 25.6899737627 279.419406237Z"
               style="fill:#0e7a12;fill-opacity:1" />
            <path
               id="path4599"
               d="M181.6582 145.11719C185.29102 145.11719 188.39454 144.41407 190.97266 143.00781L49.5513037627 284.429166237C46.9731837627 285.835426237 43.8696637627 286.538546237 40.2368437627 286.538546237Z"
               style="fill:#0e7a12;fill-opacity:1" />
            <path
               id="path4601"
               d="M190.97266 143.00781C192.245820773 142.306859169 193.410948219 141.427555122 194.467812999 140.370127199L53.0464567619 281.791483437C51.9895919822 282.848911359 50.8244645352 283.728215406 49.5513037627 284.429166237Z"
               style="fill:#0e7a12;fill-opacity:1" />
            <path
               id="path4603"
               d="M194.467812999 140.370127199C195.575396279 139.261953752 196.564076603 137.958150029 197.43359 136.45898L56.0122337627 277.880336237C55.1427203656 279.379506266 54.1540400421 280.683309989 53.0464567619 281.791483437Z"
               style="fill:#0e7a12;fill-opacity:1" />
            <path
               id="path4605"
               d="M197.43359 136.45898L197.43359 162.5625L56.0122337627 303.983856237L56.0122337627 277.880336237Z"
               style="fill:#0e7a12;fill-opacity:1" />
            <path
               id="path4607"
               d="M197.43359 162.5625L205.51953 162.5625L64.0981737627 303.983856237L56.0122337627 303.983856237Z"
               style="fill:#0e7a12;fill-opacity:1" />
            <path
               id="path4609"
               d="M205.51953 162.5625L205.51953 94.623047L64.0981737627 236.044403237L64.0981737627 303.983856237Z"
               style="fill:#0e7a12;fill-opacity:1" />
            <path
               id="path4611"
               d="M205.51953 94.623047L197.43359 94.623047L56.0122337627 236.044403237L64.0981737627 236.044403237Z"
               style="fill:#0e7a12;fill-opacity:1" />
            <path
               id="path4613"
               d="M197.43359 94.623047L197.43359 102.09375L56.0122337627 243.515106237L56.0122337627 236.044403237Z"
               style="fill:#0e7a12;fill-opacity:1" />
            <path
               id="path4615"
               d="M197.43359 102.09375C195.73438 99.164057 193.58008 96.99609 190.97266 95.589844L49.5513037627 237.011200237C52.1587237627 238.417446237 54.3130237627 240.585413237 56.0122337627 243.515106237Z"
               style="fill:#0e7a12;fill-opacity:1" />
            <path
               id="path4617"
               d="M190.97266 95.589844C188.39454 94.154297 185.29102 93.4375 181.6582 93.4375L40.2368437627 234.858856237C43.8696637627 234.858856237 46.9731837627 235.575653237 49.5513037627 237.011200237Z"
               style="fill:#0e7a12;fill-opacity:1" />
            <path
               id="path4619"
               d="M126.50586 100.20508C130.7832 100.20508 134.15234 101.9043 136.61328 105.30273L-4.80807623731 246.724086237C-7.26901623731 243.325656237 -10.6381562373 241.626436237 -14.9154962373 241.626436237Z"
               style="fill:#0e7a12;fill-opacity:1" />
            <path
               id="path4621"
               d="M136.61328 105.30273C139.07422 108.67187 140.30469 113.33008 140.30469 119.27734L-1.11666623731 260.698696237C-1.11666623731 254.751436237 -2.34713623731 250.093226237 -4.80807623731 246.724086237Z"
               style="fill:#0e7a12;fill-opacity:1" />
            <path
               id="path4623"
               d="M140.30469 119.27734C140.30469 125.22461 139.07422 129.89648 136.61328 133.29492L-4.80807623731 274.716276237C-2.34713623731 271.317836237 -1.11666623731 266.645966237 -1.11666623731 260.698696237Z"
               style="fill:#0e7a12;fill-opacity:1" />
            <path
               id="path4625"
               d="M136.61328 133.29492C136.18213441 133.885178135 135.723113019 134.423761068 135.236215828 134.910658259L-6.18514040958 276.332014496C-5.69824321854 275.845117305 -5.23922182778 275.306534372 -4.80807623731 274.716276237Z"
               style="fill:#0e7a12;fill-opacity:1" />
            <path
               id="path4627"
               d="M135.236215828 134.910658259C132.94394793 137.202926157 130.033829321 138.34961 126.50586 138.34961L-14.9154962373 279.770966237C-11.3875269168 279.770966237 -8.47740830754 278.624282394 -6.18514040958 276.332014496Z"
               style="fill:#0e7a12;fill-opacity:1" />
            <path
               id="path4629"
               d="M126.50586 138.34961C122.22851 138.34961 118.85937 136.66406 116.39844 133.29492L-25.0229162373 274.716276237C-22.5619862373 278.085416237 -19.1928462373 279.770966237 -14.9154962373 279.770966237Z"
               style="fill:#0e7a12;fill-opacity:1" />
            <path
               id="path4631"
               d="M116.39844 133.29492C113.9668 129.89648 112.75195 125.22461 112.75195 119.27734L-28.6694062373 260.698696237C-28.6694062373 266.645966237 -27.4545562373 271.317836237 -25.0229162373 274.716276237Z"
               style="fill:#0e7a12;fill-opacity:1" />
            <path
               id="path4633"
               d="M112.75195 119.27734C112.75195 113.33008 113.9668 108.67187 116.39844 105.30273L-25.0229162373 246.724086237C-27.4545562373 250.093226237 -28.6694062373 254.751436237 -28.6694062373 260.698696237Z"
               style="fill:#0e7a12;fill-opacity:1" />
            <path
               id="path4635"
               d="M116.39844 105.30273C116.840854548 104.691776063 117.312621694 104.135739194 117.813741439 103.634619449L-23.6076147983 245.055975686C-24.1087345433 245.557095431 -24.5805016897 246.113132301 -25.0229162373 246.724086237Z"
               style="fill:#0e7a12;fill-opacity:1" />
            <path
               id="path4637"
               d="M117.813741439 103.634619449C120.100099232 101.348261656 122.997472086 100.20508 126.50586 100.20508L-14.9154962373 241.626436237C-18.4238841517 241.626436237 -21.3212570054 242.769617893 -23.6076147983 245.055975686Z"
               style="fill:#0e7a12;fill-opacity:1" />
            <path
               id="path4639"
               d="M183.63477 100.20508C187.91211 100.20508 191.28125 101.9043 193.74219 105.30273L52.3208337627 246.724086237C49.8598937627 243.325656237 46.4907537627 241.626436237 42.2134137627 241.626436237Z"
               style="fill:#0e7a12;fill-opacity:1" />
            <path
               id="path4641"
               d="M193.74219 105.30273C196.20312 108.67187 197.43359 113.33008 197.43359 119.27734L56.0122337627 260.698696237C56.0122337627 254.751436237 54.7817637627 250.093226237 52.3208337627 246.724086237Z"
               style="fill:#0e7a12;fill-opacity:1" />
            <path
               id="path4643"
               d="M197.43359 119.27734C197.43359 125.22461 196.20312 129.89648 193.74219 133.29492L52.3208337627 274.716276237C54.7817637627 271.317836237 56.0122337627 266.645966237 56.0122337627 260.698696237Z"
               style="fill:#0e7a12;fill-opacity:1" />
            <path
               id="path4645"
               d="M193.74219 133.29492C193.31104441 133.885178135 192.852023019 134.423761068 192.365125828 134.910658259L50.9437695904 276.332014496C51.4306667815 275.845117305 51.8896881722 275.306534372 52.3208337627 274.716276237Z"
               style="fill:#0e7a12;fill-opacity:1" />
            <path
               id="path4647"
               d="M192.365125828 134.910658259C190.07285793 137.202926157 187.162739321 138.34961 183.63477 138.34961L42.2134137627 279.770966237C45.7413830832 279.770966237 48.6515016925 278.624282394 50.9437695904 276.332014496Z"
               style="fill:#0e7a12;fill-opacity:1" />
            <path
               id="path4649"
               d="M183.63477 138.34961C179.35742 138.34961 175.98828 136.66406 173.52734 133.29492L32.1059837627 274.716276237C34.5669237627 278.085416237 37.9360637627 279.770966237 42.2134137627 279.770966237Z"
               style="fill:#0e7a12;fill-opacity:1" />
            <path
               id="path4651"
               d="M173.52734 133.29492C171.0957 129.89648 169.87891 125.22461 169.87891 119.27734L28.4575537627 260.698696237C28.4575537627 266.645966237 29.6743437627 271.317836237 32.1059837627 274.716276237Z"
               style="fill:#0e7a12;fill-opacity:1" />
            <path
               id="path4653"
               d="M169.87891 119.27734C169.87891 113.33008 171.0957 108.67187 173.52734 105.30273L32.1059837627 246.724086237C29.6743437627 250.093226237 28.4575537627 254.751436237 28.4575537627 260.698696237Z"
               style="fill:#0e7a12;fill-opacity:1" />
            <path
               id="path4655"
               d="M173.52734 105.30273C173.969753171 104.691780448 174.441518195 104.135747174 174.942635132 103.634630237L33.521278895 245.055986474C33.0201619579 245.557103411 32.5483969332 246.113136685 32.1059837627 246.724086237Z"
               style="fill:#0e7a12;fill-opacity:1" />
            <path
               id="path4657"
               d="M174.942635132 103.634630237C177.229000118 101.348265252 180.126376567 100.20508 183.63477 100.20508L42.2134137627 241.626436237C38.7050203301 241.626436237 35.8076438803 242.769621489 33.521278895 245.055986474Z"
               style="fill:#0e7a12;fill-opacity:1" />
          </g>
          <path
             id="path4472"
             transform=""
             d="M 74.519531 93.4375 C 71.091797 93.4375 68.058594 94.169926 65.421875 95.634766 C 62.814453 97.099612 60.544921 99.310545 58.611328 102.26953 L 58.611328 94.623047 L 50.480469 94.623047 L 50.480469 143.8418 L 58.611328 143.8418 L 58.611328 116.02539 C 58.611328 111.2207 59.871094 107.42578 62.390625 104.64258 C 64.910156 101.85938 68.351562 100.46875 72.716797 100.46875 C 76.34961 100.46875 79.074219 101.625 80.890625 103.93945 C 82.707031 106.25391 83.615234 109.74024 83.615234 114.39844 L 83.615234 143.8418 L 91.701172 143.8418 L 91.701172 114.13477 C 91.701172 107.33789 90.251953 102.19726 87.351562 98.710938 C 84.451172 95.195311 80.173828 93.4375 74.519531 93.4375 z M 124.52734 93.4375 C 118.58008 93.4375 113.73242 95.810547 109.98242 100.55664 C 106.26172 105.30273 104.40234 111.54297 104.40234 119.27734 C 104.40234 127.01172 106.26172 133.25195 109.98242 137.99805 C 113.73242 142.74414 118.58008 145.11719 124.52734 145.11719 C 128.16016 145.11719 131.26758 144.41407 133.8457 143.00781 C 136.45312 141.57227 138.60547 139.38867 140.30469 136.45898 L 140.30469 162.5625 L 148.39062 162.5625 L 148.39062 94.623047 L 140.30469 94.623047 L 140.30469 102.09375 C 138.60547 99.164057 136.45312 96.99609 133.8457 95.589844 C 131.26758 94.154297 128.16016 93.4375 124.52734 93.4375 z M 181.6582 93.4375 C 175.71094 93.4375 170.86133 95.810547 167.11133 100.55664 C 163.39062 105.30273 161.5293 111.54297 161.5293 119.27734 C 161.5293 127.01172 163.39062 133.25195 167.11133 137.99805 C 170.86133 142.74414 175.71094 145.11719 181.6582 145.11719 C 185.29102 145.11719 188.39454 144.41407 190.97266 143.00781 C 193.58008 141.57227 195.73438 139.38867 197.43359 136.45898 L 197.43359 162.5625 L 205.51953 162.5625 L 205.51953 94.623047 L 197.43359 94.623047 L 197.43359 102.09375 C 195.73438 99.164057 193.58008 96.99609 190.97266 95.589844 C 188.39454 94.154297 185.29102 93.4375 181.6582 93.4375 z M 126.50586 100.20508 C 130.7832 100.20508 134.15234 101.9043 136.61328 105.30273 C 139.07422 108.67187 140.30469 113.33008 140.30469 119.27734 C 140.30469 125.22461 139.07422 129.89648 136.61328 133.29492 C 134.15234 136.66406 130.7832 138.34961 126.50586 138.34961 C 122.22851 138.34961 118.85937 136.66406 116.39844 133.29492 C 113.9668 129.89648 112.75195 125.22461 112.75195 119.27734 C 112.75195 113.33008 113.9668 108.67187 116.39844 105.30273 C 118.85937 101.9043 122.22851 100.20508 126.50586 100.20508 z M 183.63477 100.20508 C 187.91211 100.20508 191.28125 101.9043 193.74219 105.30273 C 196.20312 108.67187 197.43359 113.33008 197.43359 119.27734 C 197.43359 125.22461 196.20312 129.89648 193.74219 133.29492 C 191.28125 136.66406 187.91211 138.34961 183.63477 138.34961 C 179.35742 138.34961 175.98828 136.66406 173.52734 133.29492 C 171.0957 129.89648 169.87891 125.22461 169.87891 119.27734 C 169.87891 113.33008 171.0957 108.67187 173.52734 105.30273 C 175.98828 101.9043 179.35742 100.20508 183.63477 100.20508 z "
             style="fill:#0e7a12;fill-opacity:1" />
        </g>
      </g>
    </g>
    <g
       id="text4445"
       style="font-style:normal;font-variant:normal;font-weight:normal;font-stretch:normal;font-size:90px;line-height:125%;font-family:sans-serif;-inkscape-font-specification:sans-serif;letter-spacing:0px;word-spacing:0px;fill:#000000;fill-opacity:1;stroke:none;stroke-width:1px;stroke-linecap:butt;stroke-linejoin:miter;stroke-opacity:1">
      <g
         style="fill:#ffffff;fill-opacity:1"
         transform="translate(-1.189312,-1.67226)"
         id="g4463">
        <path
           style="fill:#ffffff;fill-opacity:1"
           d="m 92.890487,912.16967 0,29.70703 -8.085938,0 0,-29.44336 q 0,-6.9873 -2.724609,-10.45898 -2.724609,-3.47168 -8.173828,-3.47168 -6.547852,0 -10.327149,4.1748 -3.779296,4.17481 -3.779296,11.38184 l 0,27.81738 -8.129883,0 0,-49.21875 8.129883,0 0,7.64649 q 2.90039,-4.43848 6.811523,-6.63575 3.955078,-2.19726 9.09668,-2.19726 8.481445,0 12.832031,5.27344 4.350586,5.22949 4.350586,15.4248 z"
           id="path4457"
           inkscape:connector-curvature="0" />
        <path
           style="fill:#ffffff;fill-opacity:1"
           d="m 113.94029,917.31127 q 0,8.9209 3.64746,14.01856 3.6914,5.05371 10.10742,5.05371 6.41601,0 10.10742,-5.05371 3.69141,-5.09766 3.69141,-14.01856 0,-8.9209 -3.69141,-13.97461 -3.69141,-5.09765 -10.10742,-5.09765 -6.41602,0 -10.10742,5.09765 -3.64746,5.05371 -3.64746,13.97461 z m 27.55371,17.18262 q -2.54883,4.39453 -6.45996,6.54785 -3.86719,2.10938 -9.31641,2.10938 -8.9209,0 -14.5459,-7.11914 -5.58105,-7.11914 -5.58105,-18.72071 0,-11.60156 5.58105,-18.7207 5.625,-7.11914 14.5459,-7.11914 5.44922,0 9.31641,2.15332 3.91113,2.10937 6.45996,6.50391 l 0,-7.47071 8.08593,0 0,67.93946 -8.08593,0 0,-26.10352 z"
           id="path4459"
           inkscape:connector-curvature="0" />
        <path
           style="fill:#ffffff;fill-opacity:1"
           d="m 171.06919,917.31127 q 0,8.9209 3.64746,14.01856 3.69141,5.05371 10.10743,5.05371 6.41601,0 10.10742,-5.05371 3.6914,-5.09766 3.6914,-14.01856 0,-8.9209 -3.6914,-13.97461 -3.69141,-5.09765 -10.10742,-5.09765 -6.41602,0 -10.10743,5.09765 -3.64746,5.05371 -3.64746,13.97461 z m 27.55371,17.18262 q -2.54882,4.39453 -6.45996,6.54785 -3.86718,2.10938 -9.3164,2.10938 -8.9209,0 -14.5459,-7.11914 -5.58106,-7.11914 -5.58106,-18.72071 0,-11.60156 5.58106,-18.7207 5.625,-7.11914 14.5459,-7.11914 5.44922,0 9.3164,2.15332 3.91114,2.10937 6.45996,6.50391 l 0,-7.47071 8.08594,0 0,67.93946 -8.08594,0 0,-26.10352 z"
           id="path4461"
           inkscape:connector-curvature="0" />
      </g>
    </g>
  </g>
</svg>
