<?xml version="1.0" encoding="UTF-8" standalone="no"?>
<svg
   xmlns:figma="http://www.figma.com/figma/ns"
   xmlns:dc="http://purl.org/dc/elements/1.1/"
   xmlns:cc="http://creativecommons.org/ns#"
   xmlns:rdf="http://www.w3.org/1999/02/22-rdf-syntax-ns#"
   xmlns:svg="http://www.w3.org/2000/svg"
   xmlns="http://www.w3.org/2000/svg"
   xmlns:xlink="http://www.w3.org/1999/xlink"
   xmlns:sodipodi="http://sodipodi.sourceforge.net/DTD/sodipodi-0.dtd"
   xmlns:inkscape="http://www.inkscape.org/namespaces/inkscape"
   sodipodi:docname="notebook.svg"
   inkscape:version="1.0.2 (e86c870879, 2021-01-15)"
   version="1.1"
   id="svg2"
   viewBox="0 0 256 256"
   height="256"
   width="256">
  <sodipodi:namedview
     inkscape:window-maximized="1"
     inkscape:window-y="0"
     inkscape:window-x="0"
     inkscape:window-height="1048"
     inkscape:window-width="1920"
     units="px"
     showgrid="true"
     inkscape:current-layer="layer1"
     inkscape:document-units="px"
     inkscape:cy="128.00004"
     inkscape:cx="157.0166"
     inkscape:zoom="3.3437496"
     inkscape:pageshadow="2"
     inkscape:pageopacity="0.0"
     borderopacity="1.0"
     bordercolor="#666666"
     pagecolor="#ffffff"
     id="base"
     inkscape:document-rotation="0">
    <inkscape:grid
       spacingy="5"
       spacingx="5"
       id="grid4168"
       type="xygrid" />
  </sodipodi:namedview>
  <defs
     id="defs4">
    <inkscape:path-effect
       fuse_tolerance="0"
       vertical_pattern="false"
       prop_units="false"
       tang_offset="0"
       normal_offset="0"
       spacing="0"
       scale_y_rel="false"
       prop_scale="1"
       copytype="single_stretched"
       pattern="M 0,0 1,0"
       is_visible="true"
       id="path-effect4235"
       effect="skeletal" />
    <clipPath
       id="clipPath5002"
       clipPathUnits="userSpaceOnUse">
      <g
         id="g5004">
        <path
           style="fill:#0f9d58;fill-opacity:1;stroke:none;stroke-width:4.85768509;stroke-linejoin:round;stroke-miterlimit:4;stroke-dasharray:none;stroke-opacity:1"
           d="M 88.118406,249.43519 C 46.103287,235.29134 14.771284,201.68742 4.1335861,159.36053 1.3377997,148.23623 0.92261224,144.16281 0.92582381,127.88908 0.92787958,117.47222 1.134384,112.01362 1.6577819,108.54099 4.4653598,89.913336 12.17654,70.638106 23.042737,55.086148 c 3.958678,-5.665755 8.344812,-10.93092 9.101533,-10.925587 0.32809,0.0023 10.488643,18.309713 22.579009,40.683112 12.090365,22.373397 22.374546,41.334697 22.853732,42.136217 0.479186,0.80151 0.924733,2.44098 0.990103,3.64326 0.343424,6.31639 2.524175,14.20976 5.6424,20.42304 2.954444,5.88693 5.065381,8.73258 10.434696,14.06652 6.71418,6.66995 12.88853,10.28643 21.73204,12.72904 3.16587,0.87442 5.10478,1.05037 11.57517,1.05037 8.82596,0 12.60219,-0.76201 19.26429,-3.88733 2.04584,-0.95974 3.93661,-1.66536 4.20172,-1.56805 0.2651,0.0973 -11.0555,17.66459 -25.1569,39.0384 l -25.6389,38.86148 -3.094121,0.11221 c -2.554618,0.0927 -4.195204,-0.25845 -9.409103,-2.01364 z"
           id="path5006"
           inkscape:connector-curvature="0"
           transform="translate(0,796.36216)" />
        <path
           style="fill:#f4b400;fill-opacity:1;stroke:none;stroke-width:4.85768509;stroke-linejoin:round;stroke-miterlimit:4;stroke-dasharray:none;stroke-opacity:1"
           d="m 112.35984,1051.5167 c -10.0014,-1.4495 -12.15632,-1.8201 -12.531784,-2.1556 -0.248854,-0.2223 1.738304,-3.7475 4.550294,-8.0722 7.16635,-11.0213 49.77231,-74.64801 50.25856,-75.05489 3.57509,-2.99158 8.63523,-8.0414 10.57512,-10.55356 3.36154,-4.35318 7.55784,-12.9141 9.06523,-18.494 6.19314,-22.92535 -2.59253,-47.15185 -21.69967,-59.83688 l -2.96081,-1.96565 17.02469,0.29584 c 9.36358,0.1627 31.17032,0.43384 48.45941,0.60252 l 31.43471,0.30668 1.54584,4.18869 c 2.24597,6.08579 4.67816,15.0947 5.93451,21.9816 1.52517,8.36049 1.92536,28.85896 0.73851,37.82758 -3.0805,23.27845 -12.81326,45.72018 -27.80202,64.10577 -20.47622,25.1166 -51.4599,42.1974 -84.14612,46.3885 -5.31244,0.6812 -26.64601,0.9864 -30.44647,0.4356 z"
           id="path5008"
           inkscape:connector-curvature="0" />
        <path
           style="fill:#db4437;fill-opacity:1;stroke:none;stroke-width:10;stroke-linejoin:round;stroke-miterlimit:4;stroke-dasharray:none;stroke-opacity:1"
           d="M 67.989788,108.87302 C 41.284246,59.575543 33.290284,45.149038 32.233625,44.344765 31.651257,43.901497 32.811213,42.549931 38.695603,36.815353 53.43581,22.450419 68.809334,13.040746 87.839196,6.7360352 101.68742,2.1480329 112.58238,0.43719165 127.95142,0.43719165 c 21.3099,0 37.80488,3.80960275 56.83492,13.12633035 25.29351,12.383198 46.19421,33.578863 58.51993,59.345832 1.61138,3.368591 2.92978,6.372442 2.92978,6.675231 0,0.560033 -10.54865,0.49527 -71.16508,-0.436914 l -24.28843,-0.373518 -3.93063,-1.764495 c -6.75732,-3.033425 -10.64587,-3.839529 -18.6576,-3.867747 -5.0296,-0.01773 -7.97946,0.207636 -10.31642,0.788106 -14.50826,3.603659 -26.283291,12.94777 -33.291614,26.418653 -3.58502,6.89086 -5.24713,13.08166 -6.331628,23.58317 l -0.33738,3.26696 -9.92748,-18.32578 z"
           id="path5010"
           inkscape:connector-curvature="0"
           transform="translate(0,796.36216)" />
      </g>
    </clipPath>
    <clipPath
       clipPathUnits="userSpaceOnUse"
       id="clipPath4271">
      <circle
         style="fill:#292929;fill-opacity:0.26020412;stroke:none;stroke-width:10;stroke-linejoin:round;stroke-miterlimit:4;stroke-dasharray:none;stroke-opacity:0.25882353"
         id="circle4273"
         cx="128"
         cy="128.00002"
         r="128" />
    </clipPath>
    <clipPath
       id="clipPath4363"
       clipPathUnits="userSpaceOnUse">
      <circle
         style="fill:#4285f4;fill-opacity:1;stroke:none;stroke-width:10;stroke-linejoin:round;stroke-miterlimit:4;stroke-dasharray:none;stroke-opacity:0.25882353"
         id="circle4365"
         cx="128"
         cy="924.36218"
         r="128" />
    </clipPath>
    <clipPath
       clipPathUnits="userSpaceOnUse"
       id="clipPath4452">
      <circle
         style="fill:#4285f4;fill-opacity:1;stroke:none;stroke-width:10;stroke-linejoin:round;stroke-miterlimit:4;stroke-dasharray:none;stroke-opacity:0.25882353"
         id="circle4454"
         cx="128"
         cy="924.36218"
         r="128" />
    </clipPath>
    <clipPath
       id="clipPath5177"
       clipPathUnits="userSpaceOnUse">
      <circle
         style="fill:#4285f4;fill-opacity:1;stroke:none;stroke-width:10;stroke-linejoin:round;stroke-miterlimit:4;stroke-dasharray:none;stroke-opacity:0.25882353"
         id="circle5179"
         cx="128"
         cy="924.36218"
         r="128" />
    </clipPath>
    <clipPath
       clipPathUnits="userSpaceOnUse"
       id="clipPath4342">
      <circle
         style="fill:#4285f4;fill-opacity:1;stroke:none;stroke-width:10;stroke-linejoin:round;stroke-miterlimit:4;stroke-dasharray:none;stroke-opacity:0.25882353"
         id="circle4344"
         cx="128"
         cy="933.48718"
         r="128" />
    </clipPath>
    <clipPath
       id="clipPath4681"
       clipPathUnits="userSpaceOnUse">
      <circle
         style="fill:#9d5fad;fill-opacity:1;stroke:none;stroke-width:10;stroke-linejoin:round;stroke-miterlimit:4;stroke-dasharray:none;stroke-opacity:0.25882353"
         id="circle4683"
         cx="127.00293"
         cy="930.43964"
         r="128" />
    </clipPath>
    <clipPath
       clipPathUnits="userSpaceOnUse"
       id="clipPath4480">
      <circle
         style="fill:#df7618;fill-opacity:1;stroke:none;stroke-width:10;stroke-linejoin:round;stroke-miterlimit:4;stroke-dasharray:none;stroke-opacity:0.25882353"
         id="circle4482"
         cx="128"
         cy="924.36218"
         r="128" />
    </clipPath>
    <filter
       style="color-interpolation-filters:sRGB"
       inkscape:label="Drop Shadow"
       id="filter4301">
      <feFlood
         flood-opacity="0.498039"
         flood-color="rgb(0,0,0)"
         result="flood"
         id="feFlood4303" />
      <feComposite
         in="flood"
         in2="SourceGraphic"
         operator="in"
         result="composite1"
         id="feComposite4305" />
      <feGaussianBlur
         in="composite1"
         stdDeviation="3.7"
         result="blur"
         id="feGaussianBlur4307" />
      <feOffset
         dx="3.8"
         dy="3.7"
         result="offset"
         id="feOffset4309" />
      <feComposite
         in="SourceGraphic"
         in2="offset"
         operator="over"
         result="composite2"
         id="feComposite4311" />
    </filter>
    <clipPath
       id="clipPath5827"
       clipPathUnits="userSpaceOnUse">
      <circle
         style="fill:#df7618;fill-opacity:1;stroke:none;stroke-width:10;stroke-linejoin:round;stroke-miterlimit:4;stroke-dasharray:none;stroke-opacity:0.25882353"
         id="circle5829"
         cx="128"
         cy="924.36218"
         r="128" />
    </clipPath>
    <clipPath
       clipPathUnits="userSpaceOnUse"
       id="clipPath6481">
      <circle
         style="fill:#f4a1d7;fill-opacity:1;stroke:none;stroke-width:10;stroke-linejoin:round;stroke-miterlimit:4;stroke-dasharray:none;stroke-opacity:0.25882353"
         id="circle6483"
         cx="128"
         cy="924.36218"
         r="128" />
    </clipPath>
    <filter
       style="color-interpolation-filters:sRGB"
       inkscape:label="Drop Shadow"
       id="filter4165">
      <feFlood
         flood-opacity="0.498039"
         flood-color="rgb(0,0,0)"
         result="flood"
         id="feFlood4167" />
      <feComposite
         in="flood"
         in2="SourceGraphic"
         operator="in"
         result="composite1"
         id="feComposite4169" />
      <feGaussianBlur
         in="composite1"
         stdDeviation="9.1"
         result="blur"
         id="feGaussianBlur4171" />
      <feOffset
         dx="-6.9"
         dy="-6.3"
         result="offset"
         id="feOffset4173" />
      <feComposite
         in="SourceGraphic"
         in2="offset"
         operator="over"
         result="composite2"
         id="feComposite4175" />
    </filter>
    <clipPath
       id="clipPath4500"
       clipPathUnits="userSpaceOnUse">
      <circle
         style="fill:#f4a1d7;fill-opacity:1;stroke:none;stroke-width:10;stroke-linejoin:round;stroke-miterlimit:4;stroke-dasharray:none;stroke-opacity:0.25882353"
         id="circle4502"
         cx="394.56247"
         cy="513.31494"
         r="567.44757" />
    </clipPath>
    <clipPath
       clipPathUnits="userSpaceOnUse"
       id="clipPath4645">
      <circle
         style="fill:#83def2;fill-opacity:1;stroke:none;stroke-width:10;stroke-linejoin:round;stroke-miterlimit:4;stroke-dasharray:none;stroke-opacity:0.25882353"
         id="circle4647"
         cx="128"
         cy="924.36218"
         r="128" />
    </clipPath>
    <linearGradient
       y2="204"
       x2="45.963043"
       y1="204"
       x1="461.96304"
       gradientUnits="userSpaceOnUse"
       id="linearGradient973"
       xlink:href="#linearGradient987"
       gradientTransform="matrix(0.25,0,0,0.25,-90.49076,912.36208)" />
    <linearGradient
       id="linearGradient987">
      <stop
         id="stop975"
         offset="0"
         style="stop-color:#f5c211;stop-opacity:1" />
      <stop
         style="stop-color:#f8e45c;stop-opacity:1"
         offset="0.04166667"
         id="stop977" />
      <stop
         id="stop979"
         offset="0.08333334"
         style="stop-color:#f6d32d;stop-opacity:1" />
      <stop
         style="stop-color:#f5c211;stop-opacity:1"
         offset="0.91666669"
         id="stop981" />
      <stop
         id="stop983"
         offset="0.95833331"
         style="stop-color:#f8e45c;stop-opacity:1" />
      <stop
         id="stop985"
         offset="1"
         style="stop-color:#f5c211;stop-opacity:1" />
    </linearGradient>
    <radialGradient
       r="48"
       fy="151.00006"
       fx="405"
       cy="151.00006"
       cx="405"
       gradientTransform="matrix(1.4599987,-1.4599987,0.02960147,0.02960147,-581.51932,1536.9418)"
       gradientUnits="userSpaceOnUse"
       id="radialGradient902"
       xlink:href="#linearGradient897" />
    <linearGradient
       id="linearGradient897">
      <stop
         id="stop893"
         offset="0"
         style="stop-color:#f6d32d;stop-opacity:1" />
      <stop
         id="stop895"
         offset="1"
         style="stop-color:#fcf9c0;stop-opacity:1" />
    </linearGradient>
    <clipPath
       id="clipPath2213"
       clipPathUnits="userSpaceOnUse">
      <rect
         ry="8"
         rx="8"
         y="-188"
         x="160"
         height="56"
         width="16"
         id="rect2215"
         style="display:inline;opacity:1;vector-effect:none;fill:none;fill-opacity:1;stroke:#000000;stroke-width:1;stroke-linecap:butt;stroke-linejoin:miter;stroke-miterlimit:4;stroke-dasharray:none;stroke-dashoffset:0;stroke-opacity:1;marker:none;marker-start:none;marker-mid:none;marker-end:none;paint-order:normal;enable-background:new" />
    </clipPath>
    <clipPath
       id="clipPath973"
       clipPathUnits="userSpaceOnUse">
      <rect
         ry="8"
         rx="8"
         y="-188"
         x="160"
         height="56"
         width="16"
         id="rect971"
         style="display:inline;opacity:1;vector-effect:none;fill:none;fill-opacity:1;stroke:#000000;stroke-width:1;stroke-linecap:butt;stroke-linejoin:miter;stroke-miterlimit:4;stroke-dasharray:none;stroke-dashoffset:0;stroke-opacity:1;marker:none;marker-start:none;marker-mid:none;marker-end:none;paint-order:normal;enable-background:new" />
    </clipPath>
    <clipPath
       id="clipPath977"
       clipPathUnits="userSpaceOnUse">
      <rect
         ry="8"
         rx="8"
         y="-188"
         x="160"
         height="56"
         width="16"
         id="rect975"
         style="display:inline;opacity:1;vector-effect:none;fill:none;fill-opacity:1;stroke:#000000;stroke-width:1;stroke-linecap:butt;stroke-linejoin:miter;stroke-miterlimit:4;stroke-dasharray:none;stroke-dashoffset:0;stroke-opacity:1;marker:none;marker-start:none;marker-mid:none;marker-end:none;paint-order:normal;enable-background:new" />
    </clipPath>
    <clipPath
       id="clipPath981"
       clipPathUnits="userSpaceOnUse">
      <rect
         ry="8"
         rx="8"
         y="-188"
         x="160"
         height="56"
         width="16"
         id="rect979"
         style="display:inline;opacity:1;vector-effect:none;fill:none;fill-opacity:1;stroke:#000000;stroke-width:1;stroke-linecap:butt;stroke-linejoin:miter;stroke-miterlimit:4;stroke-dasharray:none;stroke-dashoffset:0;stroke-opacity:1;marker:none;marker-start:none;marker-mid:none;marker-end:none;paint-order:normal;enable-background:new" />
    </clipPath>
    <clipPath
       id="clipPath985"
       clipPathUnits="userSpaceOnUse">
      <rect
         ry="8"
         rx="8"
         y="-188"
         x="160"
         height="56"
         width="16"
         id="rect983"
         style="display:inline;opacity:1;vector-effect:none;fill:none;fill-opacity:1;stroke:#000000;stroke-width:1;stroke-linecap:butt;stroke-linejoin:miter;stroke-miterlimit:4;stroke-dasharray:none;stroke-dashoffset:0;stroke-opacity:1;marker:none;marker-start:none;marker-mid:none;marker-end:none;paint-order:normal;enable-background:new" />
    </clipPath>
    <clipPath
       id="clipPath989"
       clipPathUnits="userSpaceOnUse">
      <rect
         ry="8"
         rx="8"
         y="-188"
         x="160"
         height="56"
         width="16"
         id="rect987"
         style="display:inline;opacity:1;vector-effect:none;fill:none;fill-opacity:1;stroke:#000000;stroke-width:1;stroke-linecap:butt;stroke-linejoin:miter;stroke-miterlimit:4;stroke-dasharray:none;stroke-dashoffset:0;stroke-opacity:1;marker:none;marker-start:none;marker-mid:none;marker-end:none;paint-order:normal;enable-background:new" />
    </clipPath>
    <clipPath
       clipPathUnits="userSpaceOnUse"
       id="clipPath1096">
      <circle
         id="circle1098"
         style="opacity:1;fill:#f37726;fill-opacity:1;stroke:none;stroke-width:26.6304;stroke-miterlimit:4;stroke-dasharray:none;stroke-opacity:1"
         cx="130.39777"
         cy="930.24603"
         r="98.504097" />
    </clipPath>
  </defs>
  <metadata
     id="metadata7">
    <rdf:RDF>
      <cc:Work
         rdf:about="">
        <dc:format>image/svg+xml</dc:format>
        <dc:type
           rdf:resource="http://purl.org/dc/dcmitype/StillImage" />
        <dc:title />
      </cc:Work>
    </rdf:RDF>
  </metadata>
  <g
     inkscape:label="Layer 1"
     inkscape:groupmode="layer"
     id="layer1"
     transform="translate(0,-796.36216)">
    <circle
       id="path878"
       style="opacity:1;fill:#f37726;fill-opacity:1;stroke:none;stroke-width:34.6046;stroke-miterlimit:4;stroke-dasharray:none;stroke-opacity:1"
       cx="128"
       cy="924.36218"
       r="128" />
    <path
       id="rect6305"
       d="m 314.0332,978.33872 c -1.18004,0.38292 -2.67903,0.69702 -4.41406,0.95313 l 1.375,1.62109 3.03906,-2.57422 z"
       style="opacity:0.95;fill:#f4a1d7;fill-opacity:0.17511525;stroke:none;stroke-width:7;stroke-linecap:round;stroke-linejoin:round;stroke-miterlimit:4;stroke-dasharray:none;stroke-opacity:1" />
    <path
       style="fill:none;fill-rule:evenodd;stroke:none;stroke-width:1px;stroke-linecap:butt;stroke-linejoin:miter;stroke-opacity:1"
       d="M 154.47438,968.80998 101.03985,1048.476 0.4857685,1048.9618 0,842.0244 l 33.032258,-2.42884 45.176471,83.55218 21.373814,35.4611 26.717267,13.11575 z"
       id="path4913"
       inkscape:connector-curvature="0" />
    <text
       xml:space="preserve"
       style="font-style:normal;font-weight:normal;line-height:0%;font-family:sans-serif;letter-spacing:0px;word-spacing:0px;fill:#000000;fill-opacity:1;stroke:none;stroke-width:1px;stroke-linecap:butt;stroke-linejoin:miter;stroke-opacity:1"
       x="120"
       y="927.36218"
       id="text4914"><tspan
         sodipodi:role="line"
         id="tspan4916"
         x="120"
         y="927.36218"
         style="font-size:40px;line-height:1.25"> </tspan></text>
    <g
       id="g12027"
       transform="matrix(7.9911709,0,0,8.0036407,-269.22352,-4162.4861)"
       style="display:inline;fill:#000000;enable-background:new" />
    <g
       transform="translate(-125.43262,707.59147)"
       style="fill:none;fill-opacity:0.25098039;stroke:#a579b3;stroke-opacity:1"
       id="g883" />
    <g
       transform="translate(-125.43262,707.59147)"
       style="fill:none;fill-opacity:0.25098039;stroke:#a579b3;stroke-opacity:1"
       id="g900" />
    <g
       id="g1137"
       transform="matrix(1.500001,0,0,1.500001,178.50007,-450.68202)" />
    <g
       id="g926"
       transform="matrix(1.2994383,0,0,1.2994383,-41.443845,-284.43511)"
       style="fill:#cb570b;fill-opacity:1"
       clip-path="url(#clipPath1096)">
      <g
         id="g918"
         style="mix-blend-mode:normal;fill:#cb570b;fill-opacity:1"
         figma:type="group"
         transform="matrix(3.5003662,0,0,3.5003662,-5673.2234,-6480.9628)">
        <g
           id="g916"
           style="mix-blend-mode:normal;fill:#cb570b;fill-opacity:1"
           figma:type="vector">
          <g
             transform="matrix(0.219852 0 0 0.219852 1629.86 2089.13)"
             id="g1063"
             style="fill:#cb570b;fill-opacity:1">
            <g
               style="color:#000000;font-style:normal;font-variant:normal;font-weight:normal;font-stretch:normal;font-size:medium;line-height:normal;font-family:sans-serif;font-variant-ligatures:normal;font-variant-position:normal;font-variant-caps:normal;font-variant-numeric:normal;font-variant-alternates:normal;font-variant-east-asian:normal;font-feature-settings:normal;font-variation-settings:normal;text-indent:0;text-align:start;text-decoration:none;text-decoration-line:none;text-decoration-style:solid;text-decoration-color:#000000;letter-spacing:normal;word-spacing:normal;text-transform:none;writing-mode:lr-tb;direction:ltr;text-orientation:mixed;dominant-baseline:auto;baseline-shift:baseline;text-anchor:start;white-space:normal;shape-padding:0;shape-margin:0;inline-size:0;clip-rule:nonzero;display:inline;overflow:visible;visibility:visible;opacity:1;isolation:auto;mix-blend-mode:normal;color-interpolation:sRGB;color-interpolation-filters:linearRGB;solid-color:#000000;solid-opacity:1;vector-effect:none;fill:#cb570b;fill-opacity:1;fill-rule:nonzero;stroke:none;stroke-width:4.54851;stroke-linecap:butt;stroke-linejoin:miter;stroke-miterlimit:4;stroke-dasharray:none;stroke-dashoffset:0;stroke-opacity:1;color-rendering:auto;image-rendering:auto;shape-rendering:auto;text-rendering:auto;enable-background:accumulate;stop-color:#000000;stop-opacity:1"
               id="g1060">
              <path
                 d="M 127.977 38 C 109.722 38 91.919 43.723 77.0312 54.377 L -64.3901 195.798 C -49.5024 185.144 -31.6993 179.421 -13.4448 179.421 Z"
                 id="path1024"
                 style="fill:#cb570b;fill-opacity:1" />
              <path
                 d="M 77.0312 54.377 C 73.0851 57.2009 69.3956 60.3342 65.9917 63.7381 L -75.4297 205.159 C -72.0258 201.756 -68.3363 198.622 -64.3901 195.798 Z"
                 id="path1026"
                 style="fill:#cb570b;fill-opacity:1" />
              <path
                 d="M 65.9917 63.7381 C 56.5539 73.1759 49.3115 84.6938 44.8809 97.4648 L -96.5405 238.886 C -92.1099 226.115 -84.8674 214.597 -75.4297 205.159 Z"
                 id="path1028"
                 style="fill:#cb570b;fill-opacity:1" />
              <path
                 d="M 44.8809 97.4648 C 46.0765 96.0408 47.3534 94.6505 48.7073 93.2966 L -92.7141 234.718 C -94.068 236.072 -95.3448 237.462 -96.5405 238.886 Z"
                 id="path1030"
                 style="fill:#cb570b;fill-opacity:1" />
              <path
                 d="M 48.7073 93.2966 C 65.7275 76.2764 94.9208 65.0156 127.996 65.0156 L -13.4253 206.437 C -46.5005 206.437 -75.6939 217.698 -92.7141 234.718 Z"
                 id="path1032"
                 style="fill:#cb570b;fill-opacity:1" />
              <path
                 d="M 127.996 65.0156 C 163.703 65.0156 194.887 78.0991 211.074 97.4648 L 69.6529 238.886 C 53.4661 219.52 22.2815 206.437 -13.4253 206.437 Z"
                 id="path1034"
                 style="fill:#cb570b;fill-opacity:1" />
              <path
                 d="M 211.074 97.4648 C 205.046 80.0877 193.809 65.0305 178.922 54.377 L 37.5005 195.798 C 52.3878 206.452 63.6243 221.509 69.6529 238.886 Z"
                 id="path1036"
                 style="fill:#cb570b;fill-opacity:1" />
              <path
                 d="M 178.922 54.377 C 164.034 43.723 146.231 38 127.977 38 L -13.4448 179.421 C 4.80974 179.421 22.6128 185.144 37.5005 195.798 Z"
                 id="path1038"
                 style="fill:#cb570b;fill-opacity:1" />
              <path
                 d="M 127.977 38 L 127.977 38 L -13.4448 179.421 L -13.4448 179.421 Z"
                 id="path1040"
                 style="fill:#cb570b;fill-opacity:1" />
              <path
                 d="M 44.9258 158.535 C 50.9544 175.912 62.1909 190.97 77.0781 201.623 L -64.3432 343.044 C -79.2305 332.391 -90.467 317.334 -96.4956 299.957 Z"
                 id="path1042"
                 style="fill:#cb570b;fill-opacity:1" />
              <path
                 d="M 77.0781 201.623 C 91.9659 212.277 109.769 218 128.023 218 L -13.3979 359.421 C -31.6525 359.421 -49.4555 353.698 -64.3432 343.044 Z"
                 id="path1044"
                 style="fill:#cb570b;fill-opacity:1" />
              <path
                 d="M 128.023 218 C 146.278 218 164.081 212.277 178.969 201.623 L 37.5474 343.044 C 22.6597 353.698 4.85661 359.421 -13.3979 359.421 Z"
                 id="path1046"
                 style="fill:#cb570b;fill-opacity:1" />
              <path
                 d="M 178.969 201.623 C 182.915 198.799 186.604 195.666 190.008 192.262 L 48.587 333.683 C 45.183 337.087 41.4935 340.22 37.5474 343.044 Z"
                 id="path1048"
                 style="fill:#cb570b;fill-opacity:1" />
              <path
                 d="M 190.008 192.262 C 199.446 182.824 206.689 171.306 211.119 158.535 L 69.6978 299.957 C 65.2672 312.728 58.0247 324.245 48.587 333.683 Z"
                 id="path1050"
                 style="fill:#cb570b;fill-opacity:1" />
              <path
                 d="M 211.119 158.535 C 209.912 159.975 208.623 161.381 207.255 162.749 L 65.8337 304.17 C 67.2016 302.802 68.491 301.397 69.6978 299.957 Z"
                 id="path1052"
                 style="fill:#cb570b;fill-opacity:1" />
              <path
                 d="M 207.255 162.749 C 190.229 179.775 161.053 190.984 128.002 190.984 L -13.4194 332.406 C 19.6319 332.406 48.8078 321.196 65.8337 304.17 Z"
                 id="path1054"
                 style="fill:#cb570b;fill-opacity:1" />
              <path
                 d="M 128.002 190.984 C 92.2957 190.984 61.1126 177.901 44.9258 158.535 L -96.4956 299.957 C -80.3088 319.322 -49.1257 332.406 -13.4194 332.406 Z"
                 id="path1056"
                 style="fill:#cb570b;fill-opacity:1" />
              <path
                 d="M 44.9258 158.535 L 127.977 38 L -13.4448 179.421 L -96.4956 299.957 Z"
                 id="path1058"
                 style="fill:#cb570b;fill-opacity:1" />
            </g>
            <path
               id="path914"
               style="color:#000000;font-style:normal;font-variant:normal;font-weight:normal;font-stretch:normal;font-size:medium;line-height:normal;font-family:sans-serif;font-variant-ligatures:normal;font-variant-position:normal;font-variant-caps:normal;font-variant-numeric:normal;font-variant-alternates:normal;font-variant-east-asian:normal;font-feature-settings:normal;font-variation-settings:normal;text-indent:0;text-align:start;text-decoration:none;text-decoration-line:none;text-decoration-style:solid;text-decoration-color:#000000;letter-spacing:normal;word-spacing:normal;text-transform:none;writing-mode:lr-tb;direction:ltr;text-orientation:mixed;dominant-baseline:auto;baseline-shift:baseline;text-anchor:start;white-space:normal;shape-padding:0;shape-margin:0;inline-size:0;clip-rule:nonzero;display:inline;overflow:visible;visibility:visible;opacity:1;isolation:auto;mix-blend-mode:normal;color-interpolation:sRGB;color-interpolation-filters:linearRGB;solid-color:#000000;solid-opacity:1;vector-effect:none;fill:#cb570b;fill-opacity:1;fill-rule:nonzero;stroke:none;stroke-width:4.54851;stroke-linecap:butt;stroke-linejoin:miter;stroke-miterlimit:4;stroke-dasharray:none;stroke-dashoffset:0;stroke-opacity:1;color-rendering:auto;image-rendering:auto;shape-rendering:auto;text-rendering:auto;enable-background:accumulate;stop-color:#000000;stop-opacity:1"
               d="M 127.97656 38 C 109.72203 38 91.918978 43.722978 77.03125 54.376953 C 62.143977 65.030473 50.909454 80.087717 44.880859 97.464844 C 61.107668 78.139135 92.289836 65.015625 127.99609 65.015625 C 163.70281 65.015625 194.88744 78.099108 211.07422 97.464844 C 205.04562 80.087717 193.80915 65.030473 178.92188 54.376953 C 164.03415 43.722978 146.2311 38 127.97656 38 z M 44.925781 158.53516 C 50.954376 175.91228 62.190852 190.96953 77.078125 201.62305 C 91.965853 212.27657 109.7689 218 128.02344 218 C 146.27797 218 164.08102 212.27657 178.96875 201.62305 C 193.85602 190.96953 205.09055 175.91228 211.11914 158.53516 C 194.89233 177.90089 163.70867 190.98438 128.00195 190.98438 C 92.295696 190.98438 61.112563 177.90089 44.925781 158.53516 z " />
          </g>
        </g>
      </g>
      <g
         id="g924"
         style="mix-blend-mode:normal;fill:#cb570b;fill-opacity:1"
         figma:type="group"
         transform="matrix(3.5003662,0,0,3.5003662,-5673.2234,-6480.9628)">
        <g
           id="g922"
           style="mix-blend-mode:normal;fill:#cb570b;fill-opacity:1"
           figma:type="vector" />
      </g>
    </g>
    <g
       id="g1809"
       transform="matrix(1.2994383,0,0,1.2994383,-41.443845,-284.43511)"
       style="fill:#ffffff;fill-opacity:1">
      <g
         id="g50"
         style="mix-blend-mode:normal;fill:#ffffff;fill-opacity:1"
         figma:type="group"
         transform="matrix(3.5003662,0,0,3.5003662,-5673.2234,-6480.9628)">
        <g
           id="path8 fill"
           style="mix-blend-mode:normal;fill:#ffffff;fill-opacity:1"
           figma:type="vector">
          <path
             id="use47"
             d="m 1658.0046,2131.1141 c -7.8501,0 -14.7059,-2.8765 -18.2646,-7.1341 1.3254,3.8204 3.7956,7.1308 7.0686,9.473 3.2731,2.3422 7.1871,3.6004 11.2004,3.6004 4.0133,0 7.9273,-1.2582 11.2004,-3.6004 3.273,-2.3422 5.7432,-5.6526 7.0686,-9.473 -3.5675,4.2576 -10.4232,7.1341 -18.2734,7.1341 z"
             style="mix-blend-mode:normal;fill:#ffffff;fill-opacity:1" />
        </g>
      </g>
      <g
         id="g55"
         style="mix-blend-mode:normal;fill:#ffffff;fill-opacity:1"
         figma:type="group"
         transform="matrix(3.5003662,0,0,3.5003662,-5673.2234,-6480.9628)">
        <g
           id="path9 fill"
           style="mix-blend-mode:normal;fill:#ffffff;fill-opacity:1"
           figma:type="vector">
          <path
             id="use52"
             d="m 1658.0033,2103.4193 c 7.8502,0 14.706,2.8765 18.2647,7.1341 -1.3254,-3.8204 -3.7956,-7.1308 -7.0686,-9.473 -3.2731,-2.3423 -7.1871,-3.6004 -11.2004,-3.6004 -4.0133,0 -7.9273,1.2581 -11.2004,3.6004 -3.273,2.3422 -5.7432,5.6526 -7.0686,9.473 3.5675,-4.2488 10.4232,-7.1341 18.2733,-7.1341 z"
             style="mix-blend-mode:normal;fill:#ffffff;fill-opacity:1" />
        </g>
      </g>
    </g>
    <g
       id="g60"
       style="mix-blend-mode:normal"
       figma:type="group"
       transform="matrix(3.5003662,0,0,3.5003662,-5673.2234,-6480.9628)">
      <g
         id="path10 fill"
         style="mix-blend-mode:normal"
         figma:type="vector" />
    </g>
  </g>
</svg>
