<?xml version="1.0" encoding="UTF-8" standalone="no"?>
<!-- Created with Inkscape (http://www.inkscape.org/) -->

<svg
   xmlns:dc="http://purl.org/dc/elements/1.1/"
   xmlns:cc="http://creativecommons.org/ns#"
   xmlns:rdf="http://www.w3.org/1999/02/22-rdf-syntax-ns#"
   xmlns:svg="http://www.w3.org/2000/svg"
   xmlns="http://www.w3.org/2000/svg"
   xmlns:xlink="http://www.w3.org/1999/xlink"
   xmlns:sodipodi="http://sodipodi.sourceforge.net/DTD/sodipodi-0.dtd"
   xmlns:inkscape="http://www.inkscape.org/namespaces/inkscape"
   width="256"
   height="256"
   viewBox="0 0 256 256"
   id="svg2"
   version="1.1"
   inkscape:version="0.91 r13725"
   sodipodi:docname="ooo-writer.svg">
  <sodipodi:namedview
     id="base"
     pagecolor="#ffffff"
     bordercolor="#666666"
     borderopacity="1.0"
     inkscape:pageopacity="0.0"
     inkscape:pageshadow="2"
     inkscape:zoom="2.0507812"
     inkscape:cx="128"
     inkscape:cy="128"
     inkscape:document-units="px"
     inkscape:current-layer="layer1"
     showgrid="true"
     units="px"
     inkscape:window-width="1366"
     inkscape:window-height="721"
     inkscape:window-x="0"
     inkscape:window-y="0"
     inkscape:window-maximized="1">
    <inkscape:grid
       spacingy="5"
       spacingx="5"
       id="grid4168"
       type="xygrid" />
  </sodipodi:namedview>
  <defs
     id="defs4">
    <clipPath
       id="clipPath5002"
       clipPathUnits="userSpaceOnUse">
      <g
         id="g5004">
        <path
           style="fill:#0f9d58;fill-opacity:1;stroke:none;stroke-width:4.85768509;stroke-linejoin:round;stroke-miterlimit:4;stroke-dasharray:none;stroke-opacity:1"
           d="M 88.118406,249.43519 C 46.103287,235.29134 14.771284,201.68742 4.1335861,159.36053 1.3377997,148.23623 0.92261224,144.16281 0.92582381,127.88908 0.92787958,117.47222 1.134384,112.01362 1.6577819,108.54099 4.4653598,89.913336 12.17654,70.638106 23.042737,55.086148 c 3.958678,-5.665755 8.344812,-10.93092 9.101533,-10.925587 0.32809,0.0023 10.488643,18.309713 22.579009,40.683112 12.090365,22.373397 22.374546,41.334697 22.853732,42.136217 0.479186,0.80151 0.924733,2.44098 0.990103,3.64326 0.343424,6.31639 2.524175,14.20976 5.6424,20.42304 2.954444,5.88693 5.065381,8.73258 10.434696,14.06652 6.71418,6.66995 12.88853,10.28643 21.73204,12.72904 3.16587,0.87442 5.10478,1.05037 11.57517,1.05037 8.82596,0 12.60219,-0.76201 19.26429,-3.88733 2.04584,-0.95974 3.93661,-1.66536 4.20172,-1.56805 0.2651,0.0973 -11.0555,17.66459 -25.1569,39.0384 l -25.6389,38.86148 -3.094121,0.11221 c -2.554618,0.0927 -4.195204,-0.25845 -9.409103,-2.01364 z"
           id="path5006"
           inkscape:connector-curvature="0"
           transform="translate(0,796.36216)" />
        <path
           style="fill:#f4b400;fill-opacity:1;stroke:none;stroke-width:4.85768509;stroke-linejoin:round;stroke-miterlimit:4;stroke-dasharray:none;stroke-opacity:1"
           d="m 112.35984,1051.5167 c -10.0014,-1.4495 -12.15632,-1.8201 -12.531784,-2.1556 -0.248854,-0.2223 1.738304,-3.7475 4.550294,-8.0722 7.16635,-11.0213 49.77231,-74.64801 50.25856,-75.05489 3.57509,-2.99158 8.63523,-8.0414 10.57512,-10.55356 3.36154,-4.35318 7.55784,-12.9141 9.06523,-18.494 6.19314,-22.92535 -2.59253,-47.15185 -21.69967,-59.83688 l -2.96081,-1.96565 17.02469,0.29584 c 9.36358,0.1627 31.17032,0.43384 48.45941,0.60252 l 31.43471,0.30668 1.54584,4.18869 c 2.24597,6.08579 4.67816,15.0947 5.93451,21.9816 1.52517,8.36049 1.92536,28.85896 0.73851,37.82758 -3.0805,23.27845 -12.81326,45.72018 -27.80202,64.10577 -20.47622,25.1166 -51.4599,42.1974 -84.14612,46.3885 -5.31244,0.6812 -26.64601,0.9864 -30.44647,0.4356 z"
           id="path5008"
           inkscape:connector-curvature="0" />
        <path
           style="fill:#db4437;fill-opacity:1;stroke:none;stroke-width:10;stroke-linejoin:round;stroke-miterlimit:4;stroke-dasharray:none;stroke-opacity:1"
           d="M 67.989788,108.87302 C 41.284246,59.575543 33.290284,45.149038 32.233625,44.344765 31.651257,43.901497 32.811213,42.549931 38.695603,36.815353 53.43581,22.450419 68.809334,13.040746 87.839196,6.7360352 101.68742,2.1480329 112.58238,0.43719165 127.95142,0.43719165 c 21.3099,0 37.80488,3.80960275 56.83492,13.12633035 25.29351,12.383198 46.19421,33.578863 58.51993,59.345832 1.61138,3.368591 2.92978,6.372442 2.92978,6.675231 0,0.560033 -10.54865,0.49527 -71.16508,-0.436914 l -24.28843,-0.373518 -3.93063,-1.764495 c -6.75732,-3.033425 -10.64587,-3.839529 -18.6576,-3.867747 -5.0296,-0.01773 -7.97946,0.207636 -10.31642,0.788106 -14.50826,3.603659 -26.283291,12.94777 -33.291614,26.418653 -3.58502,6.89086 -5.24713,13.08166 -6.331628,23.58317 l -0.33738,3.26696 -9.92748,-18.32578 z"
           id="path5010"
           inkscape:connector-curvature="0"
           transform="translate(0,796.36216)" />
      </g>
    </clipPath>
    <clipPath
       clipPathUnits="userSpaceOnUse"
       id="clipPath4271">
      <circle
         style="fill:#292929;fill-opacity:0.26020412;stroke:none;stroke-width:10;stroke-linejoin:round;stroke-miterlimit:4;stroke-dasharray:none;stroke-opacity:0.25882353"
         id="circle4273"
         cx="128"
         cy="128.00002"
         r="128" />
    </clipPath>
    <clipPath
       id="clipPath4363"
       clipPathUnits="userSpaceOnUse">
      <circle
         style="fill:#4285f4;fill-opacity:1;stroke:none;stroke-width:10;stroke-linejoin:round;stroke-miterlimit:4;stroke-dasharray:none;stroke-opacity:0.25882353"
         id="circle4365"
         cx="128"
         cy="924.36218"
         r="128" />
    </clipPath>
    <clipPath
       clipPathUnits="userSpaceOnUse"
       id="clipPath4452">
      <circle
         style="fill:#4285f4;fill-opacity:1;stroke:none;stroke-width:10;stroke-linejoin:round;stroke-miterlimit:4;stroke-dasharray:none;stroke-opacity:0.25882353"
         id="circle4454"
         cx="128"
         cy="924.36218"
         r="128" />
    </clipPath>
    <clipPath
       id="clipPath4954"
       clipPathUnits="userSpaceOnUse">
      <circle
         style="fill:#f16529;fill-opacity:1;stroke:none;stroke-width:10;stroke-linejoin:round;stroke-miterlimit:4;stroke-dasharray:none;stroke-opacity:0.25882353"
         id="circle4956"
         cx="128"
         cy="924.36218"
         r="128" />
    </clipPath>
    <clipPath
       clipPathUnits="userSpaceOnUse"
       id="clipPath5071">
      <circle
         style="fill:#0f9d58;fill-opacity:1;stroke:none;stroke-width:10;stroke-linejoin:round;stroke-miterlimit:4;stroke-dasharray:none;stroke-opacity:0.25882353"
         id="circle5073"
         cx="132.21979"
         cy="933.98254"
         r="99.306747" />
    </clipPath>
    <clipPath
       id="clipPath4232"
       clipPathUnits="userSpaceOnUse">
      <circle
         style="fill:#72a854;fill-opacity:1;stroke:none;stroke-width:10;stroke-linejoin:round;stroke-miterlimit:4;stroke-dasharray:none;stroke-opacity:0.25882353"
         id="circle4234"
         cx="128"
         cy="924.36218"
         r="128" />
    </clipPath>
    <radialGradient
       gradientTransform="matrix(0.9473764,-0.3327843,0.2051643,0.5840656,36.444325,878.82546)"
       gradientUnits="userSpaceOnUse"
       xlink:href="#linearGradient3601-0"
       id="radialGradient3787-5"
       fy="58.66795"
       fx="48.193913"
       r="33.906048"
       cy="58.66795"
       cx="48.193913" />
    <linearGradient
       id="linearGradient3601-0">
      <stop
         offset="0"
         style="stop-color:#b8d9f4;stop-opacity:1"
         id="stop3603-9" />
      <stop
         offset="1"
         style="stop-color:#ebf4fc;stop-opacity:1"
         id="stop3605-3" />
    </linearGradient>
    <radialGradient
       gradientTransform="matrix(0.8476225,-0.3415184,0.2499426,0.620338,43.631027,866.78283)"
       gradientUnits="userSpaceOnUse"
       xlink:href="#linearGradient3601-0"
       id="radialGradient3789-2"
       fy="38.667461"
       fx="48.241459"
       r="25.550245"
       cy="38.667461"
       cx="48.241459" />
    <clipPath
       clipPathUnits="userSpaceOnUse"
       id="clipPath4477">
      <circle
         style="fill:#0e85cd;fill-opacity:1;stroke:none;stroke-width:10;stroke-linejoin:round;stroke-miterlimit:4;stroke-dasharray:none;stroke-opacity:0.25882353"
         id="circle4479"
         cx="112.26152"
         cy="922.84924"
         r="128" />
    </clipPath>
  </defs>
  <metadata
     id="metadata7">
    <rdf:RDF>
      <cc:Work
         rdf:about="">
        <dc:format>image/svg+xml</dc:format>
        <dc:type
           rdf:resource="http://purl.org/dc/dcmitype/StillImage" />
        <dc:title></dc:title>
      </cc:Work>
    </rdf:RDF>
  </metadata>
  <g
     inkscape:label="Layer 1"
     inkscape:groupmode="layer"
     id="layer1"
     transform="translate(0,-796.36216)">
    <path
       style="fill:none;fill-rule:evenodd;stroke:none;stroke-width:1px;stroke-linecap:butt;stroke-linejoin:miter;stroke-opacity:1"
       d="M 154.47438,968.80998 101.03985,1048.476 0.4857685,1048.9618 0,842.0244 l 33.032258,-2.42884 45.176471,83.55218 21.373814,35.4611 26.717267,13.11575 z"
       id="path4913"
       inkscape:connector-curvature="0" />
    <circle
       r="128"
       cy="924.36218"
       cx="128"
       id="path4152"
       style="fill:#69a8ea;fill-opacity:1;stroke:none;stroke-width:10;stroke-linejoin:round;stroke-miterlimit:4;stroke-dasharray:none;stroke-opacity:0.25882353" />
    <g
       transform="translate(15.738477,1.5129648)"
       id="g4282"
       clip-path="url(#clipPath4477)"
       style="fill:#1c6ec5;fill-opacity:1">
      <g
         transform="matrix(0.98545546,0.1699339,-0.1699339,0.98545546,169.0307,-12.606861)"
         id="g4284"
         style="fill:#1c6ec5;fill-opacity:1">
        <path
           style="fill:#1c6ec5;fill-opacity:1;fill-rule:evenodd;stroke:none"
           id="path4286"
           inkscape:connector-curvature="0"
           d="m 170.77331,874.09762 c -11.66217,0.12659 -26.01194,3.85411 -37.36557,16.52858 -48.013723,-17.7681 -70.7275,15.82355 -69.247722,17.54694 0.117714,0.13712 0.436795,0.1138 0.861679,0 4.695598,-7.84691 27.253598,-30.26182 68.386043,-15.04023 19.64448,-21.92986 48.14014,-16.91622 56.40086,-13.23854 1.66919,-0.18399 2.62254,-0.45043 2.35003,-1.01834 -0.71115,-1.48207 -9.72316,-4.90507 -21.38532,-4.77841 z" />
        <g
           id="g4288"
           style="fill:#1c6ec5;fill-opacity:1">
          <g
             id="g4344"
             transform="matrix(0.98545547,-0.1699339,0.1699339,0.98545547,-44.867638,827.11053)"
             style="fill:#1c6ec5;fill-opacity:1">
            <g
               id="g4346"
               style="fill:#1c6ec5;fill-opacity:1;fill-rule:evenodd;stroke:none">
              <path
                 id="path4348"
                 d="M195.32031 82.255859C185.69249 82.298945 174.90127 84.942705 164.89453 92.863281L-117.948182475 375.705993475C-107.941442475 367.785417475 -97.1502224746 365.141657475 -87.5224024746 365.098571475Z"
                 style="fill:#1c6ec5;fill-opacity:1" />
              <path
                 id="path4350"
                 d="M164.89453 92.863281C128.836734254 71.9683440926 103.518287777 87.4785050917 95.9721263203 95.0246665481L-186.870586154 377.867379023C-179.324424698 370.321217566 -154.005978221 354.811056567 -117.948182475 375.705993475Z"
                 style="fill:#1c6ec5;fill-opacity:1" />
              <path
                 id="path4352"
                 d="M95.9721263203 95.0246665481C95.5983332102 95.3984596582 95.2681468448 95.7527120005 94.982422 96.082031L-187.860290475 378.924743475C-187.57456563 378.595424475 -187.244379264 378.241172133 -186.870586154 377.867379023Z"
                 style="fill:#1c6ec5;fill-opacity:1" />
              <path
                 id="path4354"
                 d="M94.982422 96.082031C94.970366 96.083231 94.953222 96.086814 94.941406 96.087891L-187.901306475 378.930603475C-187.889490475 378.929526475 -187.872346475 378.925943475 -187.860290475 378.924743475Z"
                 style="fill:#1c6ec5;fill-opacity:1" />
              <path
                 id="path4356"
                 d="M94.941406 96.087891C94.596139 96.489584 94.343192 96.84023 94.132812 97.162109L-188.709900475 380.004821475C-188.499520475 379.682942475 -188.246573475 379.332296475 -187.901306475 378.930603475Z"
                 style="fill:#1c6ec5;fill-opacity:1" />
              <path
                 id="path4358"
                 d="M94.132812 97.162109C94.086252 97.230826 94.050004 97.291209 94.009766 97.355469L-188.832946475 380.198181475C-188.792708475 380.133921475 -188.756460475 380.073538475 -188.709900475 380.004821475Z"
                 style="fill:#1c6ec5;fill-opacity:1" />
              <path
                 id="path4360"
                 d="M94.009766 97.355469C93.948931 97.456423 93.885132 97.559056 93.839844 97.648438L-189.002868475 380.491150475C-188.957580475 380.401768475 -188.893781475 380.299135475 -188.832946475 380.198181475Z"
                 style="fill:#1c6ec5;fill-opacity:1" />
              <path
                 id="path4362"
                 d="M93.839844 97.648438C93.748974 97.820116 93.686114 97.969507 93.654297 98.09375L-189.188415475 380.936462475C-189.156598475 380.812219475 -189.093738475 380.662828475 -189.002868475 380.491150475Z"
                 style="fill:#1c6ec5;fill-opacity:1" />
              <path
                 id="path4364"
                 d="M93.654297 98.09375C93.637794 98.158191 93.635204 98.209202 93.634766 98.259766L-189.207946475 381.102478475C-189.207508475 381.051914475 -189.204918475 381.000903475 -189.188415475 380.936462475Z"
                 style="fill:#1c6ec5;fill-opacity:1" />
              <path
                 id="path4366"
                 d="M93.634766 98.259766C93.634732 98.276167 93.637027 98.289856 93.638672 98.304688L-189.204040475 381.147400475C-189.205685475 381.132568475 -189.207980475 381.118879475 -189.207946475 381.102478475Z"
                 style="fill:#1c6ec5;fill-opacity:1" />
              <path
                 id="path4368"
                 d="M93.638672 98.304688C93.642997 98.346107 93.63286 98.400358 93.650391 98.429688L-189.192321475 381.272400475C-189.209852475 381.243070475 -189.199715475 381.188819475 -189.204040475 381.147400475Z"
                 style="fill:#1c6ec5;fill-opacity:1" />
              <path
                 id="path4370"
                 d="M93.650391 98.429688C94.978817 100.65229 133.21935 80.398491 166.41406 108.11133L-116.428652475 390.954042475C-149.623362475 363.241203475 -187.863895475 383.495002475 -189.192321475 381.272400475Z"
                 style="fill:#1c6ec5;fill-opacity:1" />
              <path
                 id="path4372"
                 d="M166.41406 108.11133C166.68270147 107.832194724 166.95224833 107.55745875 167.22265072 107.28705636L-115.620061755 390.129768834C-115.890464145 390.400171224 -116.160011004 390.674907199 -116.428652475 390.954042475Z"
                 style="fill:#1c6ec5;fill-opacity:1" />
              <path
                 id="path4374"
                 d="M167.22265072 107.28705636C191.120960282 83.3887467978 221.70191774 93.3405882504 224.54492 91.775391L-58.2977924746 374.618103475C-61.1407947347 376.183300725 -91.7217521926 366.231459272 -115.620061755 390.129768834Z"
                 style="fill:#1c6ec5;fill-opacity:1" />
              <path
                 id="path4376"
                 d="M224.54492 91.775391C224.60943581 91.7447681873 224.662314875 91.7093751458 224.702992569 91.6686974514L-58.1397199051 374.511409926C-58.1803975996 374.55208762 -58.2332766644 374.587480662 -58.2977924746 374.618103475Z"
                 style="fill:#1c6ec5;fill-opacity:1" />
              <path
                 id="path4378"
                 d="M224.702992569 91.6686974514C224.797924402 91.5737656187 224.826402456 91.4500513505 224.78125 91.291016L-58.0614624746 374.133728475C-58.0163100186 374.292763825 -58.0447880725 374.416478093 -58.1397199051 374.511409926Z"
                 style="fill:#1c6ec5;fill-opacity:1" />
              <path
                 id="path4380"
                 d="M224.78125 91.291016C224.70712 91.029757 224.36752 90.675561 223.86328 90.265625L-58.9794324746 373.108337475C-58.4751924746 373.518273475 -58.1355924746 373.872469475 -58.0614624746 374.133728475Z"
                 style="fill:#1c6ec5;fill-opacity:1" />
              <path
                 id="path4382"
                 d="M223.86328 90.265625C220.67849 87.546711 209.2213 82.193651 195.32031 82.255859L-87.5224024746 365.098571475C-73.6214124746 365.036363475 -62.1642224746 370.389423475 -58.9794324746 373.108337475Z"
                 style="fill:#1c6ec5;fill-opacity:1" />
              <path
                 id="path4384"
                 d="M169.86719 137.47852C156.31516 137.53535 141.16944 141.20597 127.27148 152.27344L-155.571232475 435.116152475C-141.673272475 424.048682475 -126.527552475 420.378062475 -112.975522475 420.321232475Z"
                 style="fill:#1c6ec5;fill-opacity:1" />
              <path
                 id="path4386"
                 d="M127.27148 152.27344C80.8459419713 122.287456231 41.0830722348 147.058007833 32.7927826971 155.348297371L-250.049929778 438.191009845C-241.75964024 429.900720308 -201.996770503 405.130168705 -155.571232475 435.116152475Z"
                 style="fill:#1c6ec5;fill-opacity:1" />
              <path
                 id="path4388"
                 d="M32.7927826971 155.348297371C31.6147663007 156.526313767 31.072220738 157.37157302 31.236328 157.67969L-251.606384475 440.522402475C-251.770491737 440.214285495 -251.227946174 439.369026242 -250.049929778 438.191009845Z"
                 style="fill:#1c6ec5;fill-opacity:1" />
              <path
                 id="path4390"
                 d="M31.236328 157.67969C32.739863 160.50267 86.589451 137.62427 125.81836 173.76758L-157.024352475 456.610292475C-196.253261475 420.466982475 -250.102849475 443.345382475 -251.606384475 440.522402475Z"
                 style="fill:#1c6ec5;fill-opacity:1" />
              <path
                 id="path4392"
                 d="M125.81836 173.76758C125.829280341 173.756647828 125.840201828 173.745720429 125.851124457 173.734797799L-156.991588017 456.577510274C-157.002510647 456.588432903 -157.013432133 456.599360303 -157.024352475 456.610292475Z"
                 style="fill:#1c6ec5;fill-opacity:1" />
              <path
                 id="path4394"
                 d="M125.851124457 173.734797799C161.138399974 138.447522283 208.359947175 152.944124916 211.079816647 150.222767639L-71.7628958273 433.065480113C-74.4827652993 435.786837391 -121.704312501 421.290234757 -156.991588017 456.577510274Z"
                 style="fill:#1c6ec5;fill-opacity:1" />
              <path
                 id="path4396"
                 d="M211.079816647 150.222767639C211.190017808 150.112506197 211.227163522 149.973979175 211.1875 149.80273L-71.6552124746 432.645442475C-71.6155489523 432.81669165 -71.652694667 432.955218671 -71.7628958273 433.065480113Z"
                 style="fill:#1c6ec5;fill-opacity:1" />
              <path
                 id="path4398"
                 d="M211.1875 149.80273C210.61417 147.32731 192.45389 137.3838 169.86719 137.47852L-112.975522475 420.321232475C-90.3888224746 420.226512475 -72.2285424746 430.170022475 -71.6552124746 432.645442475Z"
                 style="fill:#1c6ec5;fill-opacity:1" />
            </g>
            <path
               id="path4290"
               transform=""
               d="M 195.32031 82.255859 C 185.69249 82.298945 174.90127 84.942705 164.89453 92.863281 C 127.05064 70.93333 101.03638 89.104397 94.982422 96.082031 C 94.970366 96.083231 94.953222 96.086814 94.941406 96.087891 C 94.596139 96.489584 94.343192 96.84023 94.132812 97.162109 C 94.086252 97.230826 94.050004 97.291209 94.009766 97.355469 C 93.948931 97.456423 93.885132 97.559056 93.839844 97.648438 C 93.748974 97.820116 93.686114 97.969507 93.654297 98.09375 C 93.637794 98.158191 93.635204 98.209202 93.634766 98.259766 C 93.634732 98.276167 93.637027 98.289856 93.638672 98.304688 C 93.642997 98.346107 93.63286 98.400358 93.650391 98.429688 C 94.978817 100.65229 133.21935 80.398491 166.41406 108.11133 C 190.42538 83.162068 221.66975 93.358298 224.54492 91.775391 C 224.76 91.673302 224.84575 91.518197 224.78125 91.291016 C 224.70712 91.029757 224.36752 90.675561 223.86328 90.265625 C 220.67849 87.546711 209.2213 82.193651 195.32031 82.255859 z M 169.86719 137.47852 C 156.31516 137.53535 141.16944 141.20597 127.27148 152.27344 C 74.249062 118.02657 29.917316 155.2032 31.236328 157.67969 C 32.739863 160.50267 86.589451 137.62427 125.81836 173.76758 C 162.5386 137.00756 212.2064 154.20188 211.1875 149.80273 C 210.61417 147.32731 192.45389 137.3838 169.86719 137.47852 z "
               style="fill:#1c6ec5;fill-opacity:1;fill-rule:evenodd;stroke:none" />
          </g>
        </g>
      </g>
      <g
         transform="matrix(0.95650962,0.29170078,-0.29170078,0.95650962,258.54137,7.806525)"
         id="g4294"
         style="fill:#1c6ec5;fill-opacity:1">
        <path
           style="fill:#1c6ec5;fill-opacity:1;fill-rule:evenodd;stroke:none"
           id="path4296"
           inkscape:connector-curvature="0"
           d="m 193.96033,911.14985 c -17.70057,0.0291 -43.77736,5.75848 -60.55259,30.15879 -60.706296,-17.29077 -92.303752,31.22981 -90.31971,33.21384 0.473972,0.47397 3.198635,-1.03243 7.050107,-3.13338 10.671898,-13.60203 39.8732,-38.14147 85.776313,-25.06705 20.62769,-30.0039 55.24468,-31.81763 71.12774,-29.45378 4.05186,-0.889 6.38032,-1.47497 5.87509,-2.35003 -0.76229,-1.32031 -8.3366,-3.38576 -18.95695,-3.36839 z" />
      </g>
    </g>
    <g
       transform="translate(15.738477,1.5129648)"
       id="g4272">
      <g
         id="g4258"
         transform="matrix(0.98545546,0.1699339,-0.1699339,0.98545546,169.0307,-12.606861)">
        <path
           d="m 170.77331,874.09762 c -11.66217,0.12659 -26.01194,3.85411 -37.36557,16.52858 -48.013723,-17.7681 -70.7275,15.82355 -69.247722,17.54694 0.117714,0.13712 0.436795,0.1138 0.861679,0 4.695598,-7.84691 27.253598,-30.26182 68.386043,-15.04023 19.64448,-21.92986 48.14014,-16.91622 56.40086,-13.23854 1.66919,-0.18399 2.62254,-0.45043 2.35003,-1.01834 -0.71115,-1.48207 -9.72316,-4.90507 -21.38532,-4.77841 z"
           inkscape:connector-curvature="0"
           id="path3617"
           style="fill:#ffffff;fill-opacity:1;fill-rule:evenodd;stroke:none" />
        <g
           id="g4254">
          <path
             style="fill:#ffffff;fill-opacity:1;fill-rule:evenodd;stroke:none"
             id="path3599"
             inkscape:connector-curvature="0"
             d="m 64.147619,908.19447 c -1.479778,-1.72338 21.247899,-35.36041 69.261621,-17.5923 22.70726,-25.34896 57.29117,-14.66315 58.71347,-11.69905 1.57978,3.29226 -33.94858,-4.05036 -54.62484,26.46707 -37.42126,-21.66886 -71.663451,4.78881 -73.350251,2.82428 z" />
          <path
             style="opacity:0.3;fill:#ffffff;fill-opacity:1;fill-rule:evenodd;stroke:none"
             id="path3633"
             inkscape:connector-curvature="0"
             d="m 189.8086,877.38767 c -8.0072,0.88233 -35.21785,0.20555 -52.32746,25.45872 -34.80957,-20.15656 -66.796425,1.30391 -72.459443,2.82004 -0.785553,1.31277 -1.073759,2.25972 -0.861679,2.50671 1.686799,1.96453 35.899862,-24.48893 73.321122,-2.82004 20.67625,-30.51743 56.25727,-23.18482 54.67749,-26.47707 -0.19176,-0.3998 -1.06209,-0.91498 -2.35003,-1.48836 z" />
        </g>
      </g>
      <g
         id="g4268"
         transform="matrix(0.95650962,0.29170078,-0.29170078,0.95650962,258.54137,7.806525)">
        <path
           d="m 193.96033,911.14985 c -17.70057,0.0291 -43.77736,5.75848 -60.55259,30.15879 -60.706296,-17.29077 -92.303752,31.22981 -90.31971,33.21384 0.473972,0.47397 3.198635,-1.03243 7.050107,-3.13338 10.671898,-13.60203 39.8732,-38.14147 85.776313,-25.06705 20.62769,-30.0039 55.24468,-31.81763 71.12774,-29.45378 4.05186,-0.889 6.38032,-1.47497 5.87509,-2.35003 -0.76229,-1.32031 -8.3366,-3.38576 -18.95695,-3.36839 z"
           inkscape:connector-curvature="0"
           id="path3622"
           style="fill:#ffffff;fill-opacity:1;fill-rule:evenodd;stroke:none" />
        <path
           d="m 43.103215,974.53138 c -1.984042,-1.98403 29.574909,-50.47521 90.281205,-33.18443 26.84037,-39.0405 77.51228,-30.36119 79.54504,-26.84035 2.25782,3.91061 -50.26464,1.952 -74.66498,47.82463 -48.06586,-23.12832 -92.899653,14.46178 -95.161265,12.20015 z"
           inkscape:connector-curvature="0"
           id="path3597"
           style="fill:#ffffff;fill-opacity:1;fill-rule:evenodd;stroke:none" />
      </g>
    </g>
  </g>
</svg>
