<?xml version="1.0" encoding="UTF-8" standalone="no"?>
<!-- Created with Inkscape (http://www.inkscape.org/) -->

<svg
   xmlns:dc="http://purl.org/dc/elements/1.1/"
   xmlns:cc="http://creativecommons.org/ns#"
   xmlns:rdf="http://www.w3.org/1999/02/22-rdf-syntax-ns#"
   xmlns:svg="http://www.w3.org/2000/svg"
   xmlns="http://www.w3.org/2000/svg"
   xmlns:sodipodi="http://sodipodi.sourceforge.net/DTD/sodipodi-0.dtd"
   xmlns:inkscape="http://www.inkscape.org/namespaces/inkscape"
   sodipodi:docname="openmw-cs.svg"
   inkscape:version="0.92.0 r"
   version="1.1"
   id="svg2"
   viewBox="0 0 256 256"
   height="256"
   width="256">
  <sodipodi:namedview
     inkscape:window-maximized="1"
     inkscape:window-y="0"
     inkscape:window-x="0"
     inkscape:window-height="1054"
     inkscape:window-width="1920"
     units="px"
     showgrid="true"
     inkscape:current-layer="layer1"
     inkscape:document-units="px"
     inkscape:cy="128"
     inkscape:cx="128"
     inkscape:zoom="3.3359375"
     inkscape:pageshadow="2"
     inkscape:pageopacity="0.0"
     borderopacity="1.0"
     bordercolor="#666666"
     pagecolor="#ffffff"
     id="base">
    <inkscape:grid
       spacingy="5"
       spacingx="5"
       id="grid4168"
       type="xygrid" />
  </sodipodi:namedview>
  <defs
     id="defs4">
    <clipPath
       id="clipPath5002"
       clipPathUnits="userSpaceOnUse">
      <g
         id="g5004">
        <path
           style="fill:#0f9d58;fill-opacity:1;stroke:none;stroke-width:4.85768509;stroke-linejoin:round;stroke-miterlimit:4;stroke-dasharray:none;stroke-opacity:1"
           d="M 88.118406,249.43519 C 46.103287,235.29134 14.771284,201.68742 4.1335861,159.36053 1.3377997,148.23623 0.92261224,144.16281 0.92582381,127.88908 0.92787958,117.47222 1.134384,112.01362 1.6577819,108.54099 4.4653598,89.913336 12.17654,70.638106 23.042737,55.086148 c 3.958678,-5.665755 8.344812,-10.93092 9.101533,-10.925587 0.32809,0.0023 10.488643,18.309713 22.579009,40.683112 12.090365,22.373397 22.374546,41.334697 22.853732,42.136217 0.479186,0.80151 0.924733,2.44098 0.990103,3.64326 0.343424,6.31639 2.524175,14.20976 5.6424,20.42304 2.954444,5.88693 5.065381,8.73258 10.434696,14.06652 6.71418,6.66995 12.88853,10.28643 21.73204,12.72904 3.16587,0.87442 5.10478,1.05037 11.57517,1.05037 8.82596,0 12.60219,-0.76201 19.26429,-3.88733 2.04584,-0.95974 3.93661,-1.66536 4.20172,-1.56805 0.2651,0.0973 -11.0555,17.66459 -25.1569,39.0384 l -25.6389,38.86148 -3.094121,0.11221 c -2.554618,0.0927 -4.195204,-0.25845 -9.409103,-2.01364 z"
           id="path5006"
           inkscape:connector-curvature="0"
           transform="translate(0,796.36216)" />
        <path
           style="fill:#f4b400;fill-opacity:1;stroke:none;stroke-width:4.85768509;stroke-linejoin:round;stroke-miterlimit:4;stroke-dasharray:none;stroke-opacity:1"
           d="m 112.35984,1051.5167 c -10.0014,-1.4495 -12.15632,-1.8201 -12.531784,-2.1556 -0.248854,-0.2223 1.738304,-3.7475 4.550294,-8.0722 7.16635,-11.0213 49.77231,-74.64801 50.25856,-75.05489 3.57509,-2.99158 8.63523,-8.0414 10.57512,-10.55356 3.36154,-4.35318 7.55784,-12.9141 9.06523,-18.494 6.19314,-22.92535 -2.59253,-47.15185 -21.69967,-59.83688 l -2.96081,-1.96565 17.02469,0.29584 c 9.36358,0.1627 31.17032,0.43384 48.45941,0.60252 l 31.43471,0.30668 1.54584,4.18869 c 2.24597,6.08579 4.67816,15.0947 5.93451,21.9816 1.52517,8.36049 1.92536,28.85896 0.73851,37.82758 -3.0805,23.27845 -12.81326,45.72018 -27.80202,64.10577 -20.47622,25.1166 -51.4599,42.1974 -84.14612,46.3885 -5.31244,0.6812 -26.64601,0.9864 -30.44647,0.4356 z"
           id="path5008"
           inkscape:connector-curvature="0" />
        <path
           style="fill:#db4437;fill-opacity:1;stroke:none;stroke-width:10;stroke-linejoin:round;stroke-miterlimit:4;stroke-dasharray:none;stroke-opacity:1"
           d="M 67.989788,108.87302 C 41.284246,59.575543 33.290284,45.149038 32.233625,44.344765 31.651257,43.901497 32.811213,42.549931 38.695603,36.815353 53.43581,22.450419 68.809334,13.040746 87.839196,6.7360352 101.68742,2.1480329 112.58238,0.43719165 127.95142,0.43719165 c 21.3099,0 37.80488,3.80960275 56.83492,13.12633035 25.29351,12.383198 46.19421,33.578863 58.51993,59.345832 1.61138,3.368591 2.92978,6.372442 2.92978,6.675231 0,0.560033 -10.54865,0.49527 -71.16508,-0.436914 l -24.28843,-0.373518 -3.93063,-1.764495 c -6.75732,-3.033425 -10.64587,-3.839529 -18.6576,-3.867747 -5.0296,-0.01773 -7.97946,0.207636 -10.31642,0.788106 -14.50826,3.603659 -26.283291,12.94777 -33.291614,26.418653 -3.58502,6.89086 -5.24713,13.08166 -6.331628,23.58317 l -0.33738,3.26696 -9.92748,-18.32578 z"
           id="path5010"
           inkscape:connector-curvature="0"
           transform="translate(0,796.36216)" />
      </g>
    </clipPath>
    <clipPath
       clipPathUnits="userSpaceOnUse"
       id="clipPath4271">
      <circle
         style="fill:#292929;fill-opacity:0.26020412;stroke:none;stroke-width:10;stroke-linejoin:round;stroke-miterlimit:4;stroke-dasharray:none;stroke-opacity:0.25882353"
         id="circle4273"
         cx="128"
         cy="128.00002"
         r="128" />
    </clipPath>
    <clipPath
       id="clipPath4363"
       clipPathUnits="userSpaceOnUse">
      <circle
         style="fill:#4285f4;fill-opacity:1;stroke:none;stroke-width:10;stroke-linejoin:round;stroke-miterlimit:4;stroke-dasharray:none;stroke-opacity:0.25882353"
         id="circle4365"
         cx="128"
         cy="924.36218"
         r="128" />
    </clipPath>
    <clipPath
       clipPathUnits="userSpaceOnUse"
       id="clipPath4452">
      <circle
         style="fill:#4285f4;fill-opacity:1;stroke:none;stroke-width:10;stroke-linejoin:round;stroke-miterlimit:4;stroke-dasharray:none;stroke-opacity:0.25882353"
         id="circle4454"
         cx="128"
         cy="924.36218"
         r="128" />
    </clipPath>
    <clipPath
       id="clipPath5177"
       clipPathUnits="userSpaceOnUse">
      <circle
         style="fill:#4285f4;fill-opacity:1;stroke:none;stroke-width:10;stroke-linejoin:round;stroke-miterlimit:4;stroke-dasharray:none;stroke-opacity:0.25882353"
         id="circle5179"
         cx="128"
         cy="924.36218"
         r="128" />
    </clipPath>
    <clipPath
       clipPathUnits="userSpaceOnUse"
       id="clipPath4342">
      <circle
         style="fill:#4285f4;fill-opacity:1;stroke:none;stroke-width:10;stroke-linejoin:round;stroke-miterlimit:4;stroke-dasharray:none;stroke-opacity:0.25882353"
         id="circle4344"
         cx="128"
         cy="933.48718"
         r="128" />
    </clipPath>
    <clipPath
       id="clipPath4681"
       clipPathUnits="userSpaceOnUse">
      <circle
         style="fill:#9d5fad;fill-opacity:1;stroke:none;stroke-width:10;stroke-linejoin:round;stroke-miterlimit:4;stroke-dasharray:none;stroke-opacity:0.25882353"
         id="circle4683"
         cx="127.00293"
         cy="930.43964"
         r="128" />
    </clipPath>
    <clipPath
       clipPathUnits="userSpaceOnUse"
       id="clipPath4235">
      <circle
         style="fill:#0f9d58;fill-opacity:1;stroke:none;stroke-width:10;stroke-linejoin:round;stroke-miterlimit:4;stroke-dasharray:none;stroke-opacity:0.25882353"
         id="circle4237"
         cx="128"
         cy="924.36218"
         r="128" />
    </clipPath>
    <clipPath
       id="clipPath4771"
       clipPathUnits="userSpaceOnUse">
      <circle
         style="fill:#0f9d58;fill-opacity:1;stroke:none;stroke-width:10;stroke-linejoin:round;stroke-miterlimit:4;stroke-dasharray:none;stroke-opacity:0.25882353"
         id="circle4773"
         cx="128"
         cy="924.36218"
         r="128" />
    </clipPath>
    <clipPath
       clipPathUnits="userSpaceOnUse"
       id="clipPath4842">
      <circle
         style="fill:#0f9d58;fill-opacity:1;stroke:none;stroke-width:10;stroke-linejoin:round;stroke-miterlimit:4;stroke-dasharray:none;stroke-opacity:0.25882353"
         id="circle4844"
         cx="128"
         cy="924.36218"
         r="128" />
    </clipPath>
    <clipPath
       id="clipPath4458"
       clipPathUnits="userSpaceOnUse">
      <circle
         style="fill:#ff3b38;fill-opacity:1;stroke:none;stroke-width:10;stroke-linejoin:round;stroke-miterlimit:4;stroke-dasharray:none;stroke-opacity:0.25882353"
         id="circle4460"
         cx="128"
         cy="924.36218"
         r="128" />
    </clipPath>
    <clipPath
       clipPathUnits="userSpaceOnUse"
       id="clipPath4783">
      <circle
         style="fill:#ff3b38;fill-opacity:1;stroke:none;stroke-width:10;stroke-linejoin:round;stroke-miterlimit:4;stroke-dasharray:none;stroke-opacity:0.25882353"
         id="circle4785"
         cx="128"
         cy="924.36218"
         r="128" />
    </clipPath>
    <clipPath
       id="clipPath4789"
       clipPathUnits="userSpaceOnUse">
      <circle
         style="fill:#80b4ff;fill-opacity:1;stroke:none;stroke-width:10;stroke-linejoin:round;stroke-miterlimit:4;stroke-dasharray:none;stroke-opacity:0.25882353"
         id="circle4791"
         cx="102.64714"
         cy="924.36218"
         r="128" />
    </clipPath>
    <clipPath
       clipPathUnits="userSpaceOnUse"
       id="clipPath4721">
      <circle
         style="fill:#557ae6;fill-opacity:1;stroke:none;stroke-width:10;stroke-linejoin:round;stroke-miterlimit:4;stroke-dasharray:none;stroke-opacity:0.25882353"
         id="circle4723"
         cx="128"
         cy="924.36218"
         r="128" />
    </clipPath>
    <clipPath
       id="clipPath4491"
       clipPathUnits="userSpaceOnUse">
      <circle
         style="fill:#990000;fill-opacity:1;stroke:none;stroke-width:10;stroke-linejoin:round;stroke-miterlimit:4;stroke-dasharray:none;stroke-opacity:0.25882353"
         id="circle4493"
         cx="128"
         cy="924.36218"
         r="128" />
    </clipPath>
    <clipPath
       clipPathUnits="userSpaceOnUse"
       id="clipPath1102">
      <circle
         style="fill:#b40000;fill-opacity:1;stroke:none;stroke-width:10;stroke-linejoin:round;stroke-miterlimit:4;stroke-dasharray:none;stroke-opacity:0.25882353"
         id="circle1104"
         cx="128"
         cy="924.36218"
         r="128" />
    </clipPath>
    <clipPath
       id="clipPath5110"
       clipPathUnits="userSpaceOnUse">
      <circle
         style="fill:#aba674;fill-opacity:1;stroke:none;stroke-width:9.02291203;stroke-linejoin:round;stroke-miterlimit:4;stroke-dasharray:none;stroke-opacity:0.25882353"
         id="circle5112"
         cx="125.18329"
         cy="921.50842"
         r="115.49327" />
    </clipPath>
    <clipPath
       clipPathUnits="userSpaceOnUse"
       id="clipPath5363">
      <circle
         style="fill:#aba674;fill-opacity:1;stroke:none;stroke-width:10;stroke-linejoin:round;stroke-miterlimit:4;stroke-dasharray:none;stroke-opacity:0.25882353"
         id="circle5365"
         cx="128"
         cy="924.36218"
         r="128" />
    </clipPath>
  </defs>
  <metadata
     id="metadata7">
    <rdf:RDF>
      <cc:Work
         rdf:about="">
        <dc:format>image/svg+xml</dc:format>
        <dc:type
           rdf:resource="http://purl.org/dc/dcmitype/StillImage" />
        <dc:title />
      </cc:Work>
    </rdf:RDF>
  </metadata>
  <g
     inkscape:label="Layer 1"
     inkscape:groupmode="layer"
     id="layer1"
     transform="translate(0,-796.36216)">
    <circle
       r="128"
       cy="924.36218"
       cx="128"
       id="path4152"
       style="fill:#aba674;fill-opacity:1;stroke:none;stroke-width:10;stroke-linejoin:round;stroke-miterlimit:4;stroke-dasharray:none;stroke-opacity:0.25882353" />
    <text
       xml:space="preserve"
       style="font-style:normal;font-weight:normal;font-size:40px;line-height:125%;font-family:sans-serif;letter-spacing:0px;word-spacing:0px;fill:#000000;fill-opacity:1;stroke:none;stroke-width:1px;stroke-linecap:butt;stroke-linejoin:miter;stroke-opacity:1"
       x="120"
       y="927.36218"
       id="text4914"><tspan
         sodipodi:role="line"
         id="tspan4916"
         x="120"
         y="927.36218" /></text>
    <g
       id="g4241"
       transform="translate(-4.11162,138)"
       style="stroke:none">
      <g
         id="g4446"
         style="stroke:none">
        <g
           style="fill:none;fill-rule:evenodd;stroke:none;stroke-width:10;stroke-linecap:round;stroke-linejoin:miter;stroke-miterlimit:4;stroke-dasharray:none;stroke-opacity:1"
           id="g4448">
          <path
             inkscape:connector-curvature="0"
             d="m 129.98857,850.41168 c 0,15 0,15 0,15 L -82.143464,1077.5437 c 0,0 0,0 0,-15 z"
             id="path4450"
             style="stroke:none" />
        </g>
        <path
           style="fill:none;fill-rule:evenodd;stroke:none;stroke-width:10;stroke-linecap:round;stroke-linejoin:miter;stroke-miterlimit:4;stroke-dasharray:none;stroke-opacity:1"
           d="m 129.98857,850.41168 c 0,15 0,15 0,15"
           id="path4247"
           inkscape:connector-curvature="0" />
      </g>
      <g
         id="g4453"
         style="stroke:none">
        <g
           style="fill:none;fill-rule:evenodd;stroke:none;stroke-width:10;stroke-linecap:round;stroke-linejoin:miter;stroke-miterlimit:4;stroke-dasharray:none;stroke-opacity:1"
           id="g4455">
          <path
             inkscape:connector-curvature="0"
             d="m 111.58095,850.41168 c 0,15 0,15 0,15 l -212.13203,212.13202 c 0,0 0,0 0,-15 z"
             id="path4457"
             style="stroke:none" />
        </g>
        <path
           inkscape:connector-curvature="0"
           id="path4245"
           d="m 111.58095,850.41168 c 0,15 0,15 0,15"
           style="fill:none;fill-rule:evenodd;stroke:none;stroke-width:10;stroke-linecap:round;stroke-linejoin:miter;stroke-miterlimit:4;stroke-dasharray:none;stroke-opacity:1" />
      </g>
      <g
         id="g4460"
         style="stroke:none">
        <g
           style="fill:none;fill-rule:evenodd;stroke:none;stroke-width:10;stroke-linecap:round;stroke-linejoin:miter;stroke-miterlimit:4;stroke-dasharray:none;stroke-opacity:1"
           id="g4462">
          <path
             inkscape:connector-curvature="0"
             d="m 93.173333,850.41168 c 0,15 0,15 0,15 L -118.9587,1077.5437 c 0,0 0,0 0,-15 z"
             id="path4464"
             style="stroke:none" />
        </g>
        <path
           style="fill:none;fill-rule:evenodd;stroke:none;stroke-width:10;stroke-linecap:round;stroke-linejoin:miter;stroke-miterlimit:4;stroke-dasharray:none;stroke-opacity:1"
           d="m 93.173333,850.41168 c 0,15 0,15 0,15"
           id="path4243"
           inkscape:connector-curvature="0" />
      </g>
      <g
         id="g4467"
         style="stroke:none">
        <g
           style="fill:none;fill-rule:evenodd;stroke:none;stroke-width:10;stroke-linecap:round;stroke-linejoin:miter;stroke-miterlimit:4;stroke-dasharray:none;stroke-opacity:1"
           id="g4469">
          <path
             inkscape:connector-curvature="0"
             d="m 166.80381,850.41168 c 0,15 0,15 0,15 L -45.328224,1077.5437 c 0,0 0,0 0,-15 z"
             id="path4471"
             style="stroke:none" />
        </g>
        <path
           style="fill:none;fill-rule:evenodd;stroke:none;stroke-width:10;stroke-linecap:round;stroke-linejoin:miter;stroke-miterlimit:4;stroke-dasharray:none;stroke-opacity:1"
           d="m 166.80381,850.41168 c 0,15 0,15 0,15"
           id="path4251"
           inkscape:connector-curvature="0" />
      </g>
      <g
         id="g4474"
         style="stroke:none">
        <g
           style="fill:none;fill-rule:evenodd;stroke:none;stroke-width:10;stroke-linecap:round;stroke-linejoin:miter;stroke-miterlimit:4;stroke-dasharray:none;stroke-opacity:1"
           id="g4476">
          <path
             inkscape:connector-curvature="0"
             d="m 148.39619,850.41168 c 0,15 0,15 0,15 L -63.735844,1077.5437 c 0,0 0,0 0,-15 z"
             id="path4478"
             style="stroke:none" />
        </g>
        <path
           inkscape:connector-curvature="0"
           id="path4249"
           d="m 148.39619,850.41168 c 0,15 0,15 0,15"
           style="fill:none;fill-rule:evenodd;stroke:none;stroke-width:10;stroke-linecap:round;stroke-linejoin:miter;stroke-miterlimit:4;stroke-dasharray:none;stroke-opacity:1" />
      </g>
    </g>
    <text
       xml:space="preserve"
       style="font-style:normal;font-weight:normal;font-size:40px;line-height:125%;font-family:sans-serif;letter-spacing:0px;word-spacing:0px;fill:#000000;fill-opacity:1;stroke:none;stroke-width:1px;stroke-linecap:butt;stroke-linejoin:miter;stroke-opacity:1"
       x="120"
       y="997.36218"
       id="text4291"><tspan
         sodipodi:role="line"
         id="tspan4293"
         x="120"
         y="997.36218" /></text>
    <g
       id="g4684"
       clip-path="url(#clipPath5363)"
       style="fill:#827e4f;fill-opacity:1">
      <g
         transform="translate(-1.1286015,-2e-5)"
         id="g4678"
         style="fill:#827e4f;fill-opacity:1">
        <g
           id="g4776"
           style="fill:#827e4f;fill-opacity:1">
          <g
             id="g4773"
             style="opacity:1;fill:#827e4f;fill-opacity:1;stroke:none;stroke-width:6.32555342">
            <path
               id="path4761"
               d="M142.88331 842.12996C111.255543187 842.12996 87.5347175312 853.199678469 71.7208330312 869.013562969L-69.7005232061 1010.43491921C-53.8866387061 994.621034706 -30.1658130498 983.551316237 1.46195376269 983.551316237Z"
               style="fill:#827e4f;fill-opacity:1" />
            <path
               id="path4763"
               d="M71.7208330312 869.013562969C55.9069463437 884.827449656 48.000003 905.385503687 48.000003 924.36217L-93.4213532373 1065.78352624C-93.4213532373 1046.80685992 -85.5144098936 1026.24880589 -69.7005232061 1010.43491921Z"
               style="fill:#827e4f;fill-opacity:1" />
            <path
               id="path4765"
               d="M48.000003 924.36217C48.000003 962.31548 79.627772 1006.5944 142.88331 1006.5944L1.46195376269 1148.01575624C-61.7935842373 1148.01575624 -93.4213532373 1103.73683624 -93.4213532373 1065.78352624Z"
               style="fill:#827e4f;fill-opacity:1" />
            <path
               id="path4767"
               d="M142.88331 1006.5944C92.278879 993.94325 66.976665 962.31548 66.976665 924.36217L-74.4446912373 1065.78352624C-74.4446912373 1103.73683624 -49.1424772373 1135.36460624 1.46195376269 1148.01575624Z"
               style="fill:#827e4f;fill-opacity:1" />
            <path
               id="path4769"
               d="M66.976665 924.36217C66.976665 903.814946642 74.3925849839 885.121705185 89.2244254278 870.289864741L-52.1969308095 1011.71122098C-67.0287712534 1026.54306142 -74.4446912373 1045.23630288 -74.4446912373 1065.78352624Z"
               style="fill:#827e4f;fill-opacity:1" />
            <path
               id="path4771"
               d="M89.2244254278 870.289864741C101.788877177 857.725412992 119.675171938 847.931995547 142.88331 842.12996L1.46195376269 983.551316237C-21.7461842992 989.353351785 -39.6324790601 999.146769229 -52.1969308095 1011.71122098Z"
               style="fill:#827e4f;fill-opacity:1" />
          </g>
          <path
             sodipodi:nodetypes="cscsc"
             inkscape:connector-curvature="0"
             id="path4676"
             d="m 142.88331,842.12996 c -63.255538,0 -94.883307,44.27888 -94.883307,82.23221 0,37.95331 31.627769,82.23223 94.883307,82.23223 -50.604431,-12.65115 -75.906645,-44.27892 -75.906645,-82.23223 0,-37.95333 25.302214,-69.5811 75.906645,-82.23221 z"
             style="opacity:1;fill:#827e4f;fill-opacity:1;stroke:none;stroke-width:6.32555342" />
        </g>
        <g
           id="g4793"
           style="fill:#827e4f;fill-opacity:1">
          <g
             id="g4790"
             style="opacity:1;fill:#827e4f;fill-opacity:1;stroke:none;stroke-width:6.32555342">
            <path
               id="path4778"
               d="M142.88331 842.12996C111.255543187 842.12996 87.5347175312 853.199678469 71.7208330312 869.013562969L-69.7005232061 1010.43491921C-53.8866387061 994.621034706 -30.1658130498 983.551316237 1.46195376269 983.551316237Z"
               style="fill:#827e4f;fill-opacity:1" />
            <path
               id="path4780"
               d="M71.7208330312 869.013562969C55.9069463437 884.827449656 48.000003 905.385503687 48.000003 924.36217L-93.4213532373 1065.78352624C-93.4213532373 1046.80685992 -85.5144098936 1026.24880589 -69.7005232061 1010.43491921Z"
               style="fill:#827e4f;fill-opacity:1" />
            <path
               id="path4782"
               d="M48.000003 924.36217C48.000003 962.31548 79.627772 1006.5944 142.88331 1006.5944L1.46195376269 1148.01575624C-61.7935842373 1148.01575624 -93.4213532373 1103.73683624 -93.4213532373 1065.78352624Z"
               style="fill:#827e4f;fill-opacity:1" />
            <path
               id="path4784"
               d="M142.88331 1006.5944C104.92999 984.01687 85.953325 962.31548 85.953325 924.36217L-55.4680312373 1065.78352624C-55.4680312373 1103.73683624 -36.4913662373 1125.43822624 1.46195376269 1148.01575624Z"
               style="fill:#827e4f;fill-opacity:1" />
            <path
               id="path4786"
               d="M85.953325 924.36217C85.953325 900.168635425 93.6644680703 882.57905547 109.086751621 867.156771919L-32.3346046166 1008.57812816C-47.756888167 1024.00041171 -55.4680312373 1041.58999166 -55.4680312373 1065.78352624Z"
               style="fill:#827e4f;fill-opacity:1" />
            <path
               id="path4788"
               d="M109.086751621 867.156771919C117.857998582 858.385524958 129.123518201 850.315319324 142.88331 842.12996L1.46195376269 983.551316237C-12.2978380365 991.736675562 -23.5633576551 999.806881195 -32.3346046166 1008.57812816Z"
               style="fill:#827e4f;fill-opacity:1" />
          </g>
          <path
             inkscape:connector-curvature="0"
             id="path4674"
             d="m 142.88331,842.12996 c -63.255538,0 -94.883307,44.27888 -94.883307,82.23221 0,37.95331 31.627769,82.23223 94.883307,82.23223 -37.95332,-22.57753 -56.929985,-44.27892 -56.929985,-82.23223 0,-37.95333 18.976665,-59.65472 56.929985,-82.23221 z"
             style="opacity:1;fill:#827e4f;fill-opacity:1;stroke:none;stroke-width:6.32555342" />
        </g>
      </g>
      <path
         inkscape:connector-curvature="0"
         id="path4682"
         d="m 150.6286,890.64485 a 34.124999,34.124999 0 0 0 -34.125,34.125 34.124999,34.124999 0 0 0 34.125,34.125 34.124999,34.124999 0 0 0 34.125,-34.125 34.124999,34.124999 0 0 0 -34.125,-34.125 z m 0,8.125 a 26,26 0 0 1 26,26 26,26 0 0 1 -26,26 26,26 0 0 1 -26,-26 26,26 0 0 1 26,-26 z"
         style="fill:#827e4f;fill-opacity:1;stroke-width:1.51666677" />
      <g
         id="g5106"
         style="fill:#827e4f;fill-opacity:1">
        <g
           id="g5103"
           style="color:#000000;font-style:normal;font-variant:normal;font-weight:normal;font-stretch:normal;font-size:medium;line-height:normal;font-family:sans-serif;font-variant-ligatures:normal;font-variant-position:normal;font-variant-caps:normal;font-variant-numeric:normal;font-variant-alternates:normal;font-feature-settings:normal;text-indent:0;text-align:start;text-decoration:none;text-decoration-line:none;text-decoration-style:solid;text-decoration-color:#000000;letter-spacing:normal;word-spacing:normal;text-transform:none;writing-mode:lr-tb;direction:ltr;text-orientation:mixed;dominant-baseline:auto;baseline-shift:baseline;text-anchor:start;white-space:normal;shape-padding:0;clip-rule:nonzero;display:inline;overflow:visible;visibility:visible;opacity:1;isolation:auto;mix-blend-mode:normal;color-interpolation:sRGB;color-interpolation-filters:linearRGB;solid-color:#000000;solid-opacity:1;vector-effect:none;fill-opacity:1;fill-rule:nonzero;stroke:none;stroke-width:0.75641459;stroke-linecap:butt;stroke-linejoin:miter;stroke-miterlimit:4;stroke-dasharray:none;stroke-dashoffset:0;stroke-opacity:1;color-rendering:auto;image-rendering:auto;shape-rendering:auto;text-rendering:auto;enable-background:accumulate;fill:#827e4f">
          <path
             id="path4797"
             d="M165.45312 867.92578L165.33984 868.0957L23.9184837627 1009.51705624L24.0317637627 1009.34713624Z"
             style="fill:#827e4f;fill-opacity:1" />
          <path
             id="path4799"
             d="M165.33984 868.0957L156.72461 881.00781L15.3032537627 1022.42916624L23.9184837627 1009.51705624Z"
             style="fill:#827e4f;fill-opacity:1" />
          <path
             id="path4801"
             d="M156.72461 881.00781C154.70652 880.7096 152.67098 880.53484 150.63086 880.51758L9.20950376269 1021.93893624C11.2496237627 1021.95619624 13.2851637627 1022.13095624 15.3032537627 1022.42916624Z"
             style="fill:#827e4f;fill-opacity:1" />
          <path
             id="path4803"
             d="M150.63086 880.51758L150.62886 880.51758L9.20750376269 1021.93893624L9.20950376269 1021.93893624Z"
             style="fill:#827e4f;fill-opacity:1" />
          <path
             id="path4805"
             d="M150.62886 880.51758C148.2196 880.51858 145.8162 880.73449 143.4394 881.12695L2.01804376269 1022.54830624C4.39484376269 1022.15584624 6.79824376269 1021.93993624 9.20750376269 1021.93893624Z"
             style="fill:#827e4f;fill-opacity:1" />
          <path
             id="path4807"
             d="M143.4394 881.12695L134.36518 868.2207L-7.05617623731 1009.64205624L2.01804376269 1022.54830624Z"
             style="fill:#827e4f;fill-opacity:1" />
          <path
             id="path4809"
             d="M134.36518 868.2207L134.10542 868.2949L-7.31593623731 1009.71625624L-7.05617623731 1009.64205624Z"
             style="fill:#827e4f;fill-opacity:1" />
          <path
             id="path4811"
             d="M134.10542 868.2949C132.53605 868.74519 130.98547 869.2607 129.45893 869.83982L-11.9624262373 1011.26117624C-10.4358862373 1010.68205624 -8.88530623731 1010.16654624 -7.31593623731 1009.71625624Z"
             style="fill:#827e4f;fill-opacity:1" />
          <path
             id="path4813"
             d="M129.45893 869.83982L129.20503 869.93552L-12.2163262373 1011.35687624L-11.9624262373 1011.26117624Z"
             style="fill:#827e4f;fill-opacity:1" />
          <path
             id="path4815"
             d="M129.20503 869.93552L129.83589 885.75388L-11.5854662373 1027.17523624L-12.2163262373 1011.35687624Z"
             style="fill:#827e4f;fill-opacity:1" />
          <path
             id="path4817"
             d="M129.83589 885.75388C125.99941902 887.805236771 122.490210238 890.410584978 119.414829899 893.485965317L-22.0065263382 1034.90732155C-18.9311459993 1031.83194122 -15.4219372174 1029.22659301 -11.5854662373 1027.17523624Z"
             style="fill:#827e4f;fill-opacity:1" />
          <path
             id="path4819"
             d="M119.414829899 893.485965317C119.343358513 893.557436703 119.272121435 893.629161948 119.20112 893.70114L-22.2202362373 1035.12249624C-22.1492348027 1035.05051819 -22.0779977238 1034.97879294 -22.0065263382 1034.90732155Z"
             style="fill:#827e4f;fill-opacity:1" />
          <path
             id="path4821"
             d="M119.20112 893.70114L104.26753 888.59177L-37.1538262373 1030.01312624L-22.2202362373 1035.12249624Z"
             style="fill:#827e4f;fill-opacity:1" />
          <path
             id="path4823"
             d="M104.26753 888.59177L104.10151 888.80466L-37.3198462373 1030.22601624L-37.1538262373 1030.01312624Z"
             style="fill:#827e4f;fill-opacity:1" />
          <path
             id="path4825"
             d="M104.10151 888.80466C103.09371 890.10034 102.14014 891.43714 101.24409 892.81247L-40.1772662373 1034.23382624C-39.2812162373 1032.85849624 -38.3276462373 1031.52169624 -37.3198462373 1030.22601624Z"
             style="fill:#827e4f;fill-opacity:1" />
          <path
             id="path4827"
             d="M101.24409 892.81247L101.09565 893.03903L-40.3257062373 1034.46038624L-40.1772662373 1034.23382624Z"
             style="fill:#827e4f;fill-opacity:1" />
          <path
             id="path4829"
             d="M101.09565 893.03903L110.89448 905.45309L-30.5268762373 1046.87444624L-40.3257062373 1034.46038624Z"
             style="fill:#827e4f;fill-opacity:1" />
          <path
             id="path4831"
             d="M110.89448 905.45309C108.9535 909.44935 107.62567 913.71171 106.95503 918.10349L-34.4663262373 1059.52484624C-33.7956862373 1055.13306624 -32.4678562373 1050.87070624 -30.5268762373 1046.87444624Z"
             style="fill:#827e4f;fill-opacity:1" />
          <path
             id="path4833"
             d="M106.95503 918.10349L91.853466 922.75192L-49.5678902373 1064.17327624L-34.4663262373 1059.52484624Z"
             style="fill:#827e4f;fill-opacity:1" />
          <path
             id="path4835"
             d="M91.853466 922.75192L91.837836 923.01169L-49.5835202373 1064.43304624L-49.5678902373 1064.17327624Z"
             style="fill:#827e4f;fill-opacity:1" />
          <path
             id="path4837"
             d="M91.837836 923.01169C91.800266 923.5926 91.770276 924.17406 91.749946 924.75583L-49.6714102373 1066.17718624C-49.6510802373 1065.59541624 -49.6210902373 1065.01395624 -49.5835202373 1064.43304624Z"
             style="fill:#827e4f;fill-opacity:1" />
          <path
             id="path4839"
             d="M91.749946 924.75583L91.749946 924.76583L-49.6714102373 1066.18718624L-49.6714102373 1066.17718624Z"
             style="fill:#827e4f;fill-opacity:1" />
          <path
             id="path4841"
             d="M91.749946 924.76583L91.749946 924.77383L-49.6714102373 1066.19518624L-49.6714102373 1066.18718624Z"
             style="fill:#827e4f;fill-opacity:1" />
          <path
             id="path4843"
             d="M91.749946 924.77383C91.759046 925.83006 91.797356 926.88563 91.863227 927.93984L-49.5581292373 1069.36119624C-49.6240002373 1068.30698624 -49.6623102373 1067.25141624 -49.6714102373 1066.19518624Z"
             style="fill:#827e4f;fill-opacity:1" />
          <path
             id="path4845"
             d="M91.863227 927.93984L91.878857 928.20742L-49.5424992373 1069.62877624L-49.5581292373 1069.36119624Z"
             style="fill:#827e4f;fill-opacity:1" />
          <path
             id="path4847"
             d="M91.878857 928.20742L107.074171 932.48281L-34.3471852373 1073.90416624L-49.5424992373 1069.62877624Z"
             style="fill:#827e4f;fill-opacity:1" />
          <path
             id="path4849"
             d="M107.074171 932.48281C107.859041 936.87352 109.302901 941.1176 111.357371 945.07656L-30.0639852373 1086.49791624C-32.1184552373 1082.53895624 -33.5623152373 1078.29487624 -34.3471852373 1073.90416624Z"
             style="fill:#827e4f;fill-opacity:1" />
          <path
             id="path4851"
             d="M111.357371 945.07656L101.886671 957.6918L-39.5346852373 1099.11315624L-30.0639852373 1086.49791624Z"
             style="fill:#827e4f;fill-opacity:1" />
          <path
             id="path4853"
             d="M101.886671 957.6918L102.037061 957.91641L-39.3842952373 1099.33776624L-39.5346852373 1099.11315624Z"
             style="fill:#827e4f;fill-opacity:1" />
          <path
             id="path4855"
             d="M102.037061 957.91641C102.951881 959.27451 103.922421 960.59238 104.947221 961.86953L-36.4741352373 1103.29088624C-37.4989352373 1102.01373624 -38.4694752373 1100.69586624 -39.3842952373 1099.33776624Z"
             style="fill:#827e4f;fill-opacity:1" />
          <path
             id="path4857"
             d="M104.947221 961.86953L105.119091 962.08242L-36.3022652373 1103.50377624L-36.4741352373 1103.29088624Z"
             style="fill:#827e4f;fill-opacity:1" />
          <path
             id="path4859"
             d="M105.119091 962.08242L119.968701 956.59609L-21.4526552373 1098.01744624L-36.3022652373 1103.50377624Z"
             style="fill:#827e4f;fill-opacity:1" />
          <path
             id="path4861"
             d="M119.968701 956.59609C123.172441 959.67707 126.820261 962.25483 130.792921 964.24844L-10.6284352373 1105.66979624C-14.6010952373 1103.67618624 -18.2489152373 1101.09842624 -21.4526552373 1098.01744624Z"
             style="fill:#827e4f;fill-opacity:1" />
          <path
             id="path4863"
             d="M130.792921 964.24844L130.548781 980.04336L-10.8725752373 1121.46471624L-10.6284352373 1105.66979624Z"
             style="fill:#827e4f;fill-opacity:1" />
          <path
             id="path4865"
             d="M130.548781 980.04336L130.802681 980.13316L-10.6186752373 1121.55451624L-10.8725752373 1121.46471624Z"
             style="fill:#827e4f;fill-opacity:1" />
          <path
             id="path4867"
             d="M130.802681 980.13316C132.348901 980.68748 133.918681 981.17681 135.505811 981.59996L-5.91554523731 1123.02131624C-7.50267523731 1122.59816624 -9.07245523731 1122.10883624 -10.6186752373 1121.55451624Z"
             style="fill:#827e4f;fill-opacity:1" />
          <path
             id="path4869"
             d="M135.505811 981.59996L135.767531 981.67026L-5.65382523731 1123.09161624L-5.91554523731 1123.02131624Z"
             style="fill:#827e4f;fill-opacity:1" />
          <path
             id="path4871"
             d="M135.767531 981.67026L144.535111 968.53159L3.11375476269 1109.95294624L-5.65382523731 1123.09161624Z"
             style="fill:#827e4f;fill-opacity:1" />
          <path
             id="path4873"
             d="M144.535111 968.53159C146.552101 968.82997 148.585881 969.00605 150.624951 969.02378L9.20359476269 1110.44513624C7.16452476269 1110.42740624 5.13074476269 1110.25132624 3.11375476269 1109.95294624Z"
             style="fill:#827e4f;fill-opacity:1" />
          <path
             id="path4875"
             d="M150.624951 969.02378L150.626951 969.02378L9.20559476269 1110.44513624L9.20359476269 1110.44513624Z"
             style="fill:#827e4f;fill-opacity:1" />
          <path
             id="path4877"
             d="M150.626951 969.02378L150.628951 969.02378L9.20759476269 1110.44513624L9.20559476269 1110.44513624Z"
             style="fill:#827e4f;fill-opacity:1" />
          <path
             id="path4879"
             d="M150.628951 969.02378C153.037151 969.02278 155.438791 968.80309 157.814491 968.4105L16.3931347627 1109.83185624C14.0174347627 1110.22444624 11.6157947627 1110.44413624 9.20759476269 1110.44513624Z"
             style="fill:#827e4f;fill-opacity:1" />
          <path
             id="path4881"
             d="M157.814491 968.4105L166.892621 981.32065L25.4712647627 1122.74200624L16.3931347627 1109.83185624Z"
             style="fill:#827e4f;fill-opacity:1" />
          <path
             id="path4883"
             d="M166.892621 981.32065L167.152381 981.24645L25.7310247627 1122.66780624L25.4712647627 1122.74200624Z"
             style="fill:#827e4f;fill-opacity:1" />
          <path
             id="path4885"
             d="M167.152381 981.24645C168.721751 980.79616 170.270391 980.28065 171.796921 979.70153L30.3755647627 1121.12288624C28.8490347627 1121.70200624 27.3003947627 1122.21751624 25.7310247627 1122.66780624Z"
             style="fill:#827e4f;fill-opacity:1" />
          <path
             id="path4887"
             d="M171.796921 979.70153L172.052771 979.60583L30.6314147627 1121.02718624L30.3755647627 1121.12288624Z"
             style="fill:#827e4f;fill-opacity:1" />
          <path
             id="path4889"
             d="M172.052771 979.60583L171.419961 963.78356L29.9986047627 1105.20491624L30.6314147627 1121.02718624Z"
             style="fill:#827e4f;fill-opacity:1" />
          <path
             id="path4891"
             d="M171.419961 963.78356C175.25570273 961.732265531 178.765436547 959.129023687 181.840325515 956.054134718L40.4189692782 1097.47549096C37.3440803093 1100.55037992 33.834346493 1103.15362177 29.9986047627 1105.20491624Z"
             style="fill:#827e4f;fill-opacity:1" />
          <path
             id="path4893"
             d="M181.840325515 956.054134718C181.912030942 955.982429291 181.983499897 955.910467379 182.054731 955.83825L40.6333747627 1097.25960624C40.5621436599 1097.33182362 40.490674705 1097.40378553 40.4189692782 1097.47549096Z"
             style="fill:#827e4f;fill-opacity:1" />
          <path
             id="path4895"
             d="M182.054731 955.83825L196.990271 960.94958L55.5689147627 1102.37093624L40.6333747627 1097.25960624Z"
             style="fill:#827e4f;fill-opacity:1" />
          <path
             id="path4897"
             d="M196.990271 960.94958L197.156291 960.73669L55.7349347627 1102.15804624L55.5689147627 1102.37093624Z"
             style="fill:#827e4f;fill-opacity:1" />
          <path
             id="path4899"
             d="M197.156291 960.73669C198.164061 959.44143 199.117631 958.10377 200.013711 956.72888L58.5923547627 1098.15023624C57.6962747627 1099.52512624 56.7427047627 1100.86278624 55.7349347627 1102.15804624Z"
             style="fill:#827e4f;fill-opacity:1" />
          <path
             id="path4901"
             d="M200.013711 956.72888L200.162151 956.50231L58.7407947627 1097.92366624L58.5923547627 1098.15023624Z"
             style="fill:#827e4f;fill-opacity:1" />
          <path
             id="path4903"
             d="M200.162151 956.50231L190.363321 944.0863L48.9419647627 1085.50765624L58.7407947627 1097.92366624Z"
             style="fill:#827e4f;fill-opacity:1" />
          <path
             id="path4905"
             d="M190.363321 944.0863C192.304141 940.09074 193.631881 935.82694 194.302771 931.43591L52.8814147627 1072.85726624C52.2105247627 1077.24829624 50.8827847627 1081.51209624 48.9419647627 1085.50765624Z"
             style="fill:#827e4f;fill-opacity:1" />
          <path
             id="path4907"
             d="M194.302771 931.43591L209.402381 926.78747L67.9810247627 1068.20882624L52.8814147627 1072.85726624Z"
             style="fill:#827e4f;fill-opacity:1" />
          <path
             id="path4909"
             d="M209.402381 926.78747L209.419981 926.5277L67.9986247627 1067.94905624L67.9810247627 1068.20882624Z"
             style="fill:#827e4f;fill-opacity:1" />
          <path
             id="path4911"
             d="M209.419981 926.5277C209.457581 925.94679 209.485581 925.36533 209.505881 924.78356L68.0845247627 1066.20491624C68.0642247627 1066.78668624 68.0362247627 1067.36814624 67.9986247627 1067.94905624Z"
             style="fill:#827e4f;fill-opacity:1" />
          <path
             id="path4913"
             d="M209.505881 924.78356L209.507881 924.77556L68.0865247627 1066.19691624L68.0845247627 1066.20491624Z"
             style="fill:#827e4f;fill-opacity:1" />
          <path
             id="path4915"
             d="M209.507881 924.77556L209.505881 924.76756L68.0845247627 1066.18891624L68.0865247627 1066.19691624Z"
             style="fill:#827e4f;fill-opacity:1" />
          <path
             id="path4917"
             d="M209.505881 924.76756C209.496881 923.71134 209.461981 922.65381 209.396501 921.59959L67.9751447627 1063.02094624C68.0406247627 1064.07516624 68.0755247627 1065.13269624 68.0845247627 1066.18891624Z"
             style="fill:#827e4f;fill-opacity:1" />
          <path
             id="path4919"
             d="M209.396501 921.59959L209.378901 921.33201L67.9575447627 1062.75336624L67.9751447627 1063.02094624Z"
             style="fill:#827e4f;fill-opacity:1" />
          <path
             id="path4921"
             d="M209.378901 921.33201L194.183581 917.05662L52.7622247627 1058.47797624L67.9575447627 1062.75336624Z"
             style="fill:#827e4f;fill-opacity:1" />
          <path
             id="path4923"
             d="M194.183581 917.05662C193.399111 912.66601 191.954411 908.42384 189.900381 904.46482L48.4790247627 1045.88617624C50.5330547627 1049.84519624 51.9777547627 1054.08736624 52.7622247627 1058.47797624Z"
             style="fill:#827e4f;fill-opacity:1" />
          <path
             id="path4925"
             d="M189.900381 904.46482L199.371081 891.84764L57.9497247627 1033.26899624L48.4790247627 1045.88617624Z"
             style="fill:#827e4f;fill-opacity:1" />
          <path
             id="path4927"
             d="M199.371081 891.84764L199.220691 891.62498L57.7993347627 1033.04633624L57.9497247627 1033.26899624Z"
             style="fill:#827e4f;fill-opacity:1" />
          <path
             id="path4929"
             d="M199.220691 891.62498C198.305881 890.26688 197.333381 888.94705 196.308581 887.6699L54.8872247627 1029.09125624C55.9120247627 1030.36840624 56.8845247627 1031.68823624 57.7993347627 1033.04633624Z"
             style="fill:#827e4f;fill-opacity:1" />
          <path
             id="path4931"
             d="M196.308581 887.6699L196.138661 887.45701L54.7173047627 1028.87836624L54.8872247627 1029.09125624Z"
             style="fill:#827e4f;fill-opacity:1" />
          <path
             id="path4933"
             d="M196.138661 887.45701L181.289051 892.94725L39.8676947627 1034.36860624L54.7173047627 1028.87836624Z"
             style="fill:#827e4f;fill-opacity:1" />
          <path
             id="path4935"
             d="M181.289051 892.94725C178.085571 889.86582 174.439341 887.28312 170.466791 885.28904L29.0454347627 1026.71039624C33.0179847627 1028.70447624 36.6642147627 1031.28717624 39.8676947627 1034.36860624Z"
             style="fill:#827e4f;fill-opacity:1" />
          <path
             id="path4937"
             d="M170.466791 885.28904L170.710931 869.49803L29.2895747627 1010.91938624L29.0454347627 1026.71039624Z"
             style="fill:#827e4f;fill-opacity:1" />
          <path
             id="path4939"
             d="M170.710931 869.49803L170.455071 869.40623L29.0337147627 1010.82758624L29.2895747627 1010.91938624Z"
             style="fill:#827e4f;fill-opacity:1" />
          <path
             id="path4941"
             d="M170.455071 869.40623C168.908431 868.85187 167.339511 868.36254 165.751941 867.93943L24.3305847627 1009.36078624C25.9181547627 1009.78389624 27.4870747627 1010.27322624 29.0337147627 1010.82758624Z"
             style="fill:#827e4f;fill-opacity:1" />
          <path
             id="path4943"
             d="M165.751941 867.93943L165.705041 867.92573L24.2836847627 1009.34708624L24.3305847627 1009.36078624Z"
             style="fill:#827e4f;fill-opacity:1" />
          <path
             id="path4945"
             d="M165.8125 868.75C167.20517 869.12806 168.58464 869.55843 169.94531 870.03906L28.5239537627 1011.46041624C27.1632837627 1010.97978624 25.7838137627 1010.54941624 24.3911437627 1010.17135624Z"
             style="fill:#827e4f;fill-opacity:1" />
          <path
             id="path4947"
             d="M169.94531 870.03906L169.70312 885.73438L28.2817637627 1027.15573624L28.5239537627 1011.46041624Z"
             style="fill:#827e4f;fill-opacity:1" />
          <path
             id="path4949"
             d="M169.70312 885.73438L169.91602 885.8418L28.4946637627 1027.26315624L28.2817637627 1027.15573624Z"
             style="fill:#827e4f;fill-opacity:1" />
          <path
             id="path4951"
             d="M169.91602 885.8418C173.97917 887.85267 177.70354 890.48531 180.95312 893.64648L39.5317637627 1035.06783624C36.2821837627 1031.90666624 32.5578137627 1029.27402624 28.4946637627 1027.26315624Z"
             style="fill:#827e4f;fill-opacity:1" />
          <path
             id="path4953"
             d="M180.95312 893.64648L181.125 893.8125L39.7036437627 1035.23385624L39.5317637627 1035.06783624Z"
             style="fill:#827e4f;fill-opacity:1" />
          <path
             id="path4955"
             d="M181.125 893.8125L195.87891 888.35938L54.4575537627 1029.78073624L39.7036437627 1035.23385624Z"
             style="fill:#827e4f;fill-opacity:1" />
          <path
             id="path4957"
             d="M195.87891 888.35938C196.77392 889.48545 197.62652 890.64463 198.43555 891.83398L57.0141937627 1033.25533624C56.2051637627 1032.06598624 55.3525637627 1030.90680624 54.4575537627 1029.78073624Z"
             style="fill:#827e4f;fill-opacity:1" />
          <path
             id="path4959"
             d="M198.43555 891.83398L189.02344 904.37695L47.6020837627 1045.79830624L57.0141937627 1033.25533624Z"
             style="fill:#827e4f;fill-opacity:1" />
          <path
             id="path4961"
             d="M189.02344 904.37695L189.13477 904.58789L47.7134137627 1046.00924624L47.6020837627 1045.79830624Z"
             style="fill:#827e4f;fill-opacity:1" />
          <path
             id="path4963"
             d="M189.13477 904.58789C191.25195 908.613 192.72327 912.94429 193.49805 917.42578L52.0766937627 1058.84713624C51.3019137627 1054.36564624 49.8305937627 1050.03435624 47.7134137627 1046.00924624Z"
             style="fill:#827e4f;fill-opacity:1" />
          <path
             id="path4965"
             d="M193.49805 917.42578L193.53905 917.66211L52.1176937627 1059.08346624L52.0766937627 1058.84713624Z"
             style="fill:#827e4f;fill-opacity:1" />
          <path
             id="path4967"
             d="M193.53905 917.66211L208.65038 921.91406L67.2290237627 1063.33541624L52.1176937627 1059.08346624Z"
             style="fill:#827e4f;fill-opacity:1" />
          <path
             id="path4969"
             d="M208.65038 921.91406C208.70508 922.86592 208.74218 923.82001 208.74998 924.77344L67.3286237627 1066.19479624C67.3208237627 1065.24136624 67.2837237627 1064.28727624 67.2290237627 1063.33541624Z"
             style="fill:#827e4f;fill-opacity:1" />
          <path
             id="path4971"
             d="M208.74998 924.77344C208.73298 925.25527 208.70668 925.7375 208.67768 926.21875L67.2563237627 1067.64010624C67.2853237627 1067.15885624 67.3116237627 1066.67662624 67.3286237627 1066.19479624Z"
             style="fill:#827e4f;fill-opacity:1" />
          <path
             id="path4973"
             d="M208.67768 926.21875L193.64448 930.84766L52.2231237627 1072.26901624L67.2563237627 1067.64010624Z"
             style="fill:#827e4f;fill-opacity:1" />
          <path
             id="path4975"
             d="M193.64448 930.84766L193.60928 931.08398L52.1879237627 1072.50533624L52.2231237627 1072.26901624Z"
             style="fill:#827e4f;fill-opacity:1" />
          <path
             id="path4977"
             d="M193.60928 931.08398C192.95015 935.56674 191.5945 939.91815 189.5917 943.98242L48.1703437627 1085.40377624C50.1731437627 1081.33950624 51.5287937627 1076.98809624 52.1879237627 1072.50533624Z"
             style="fill:#827e4f;fill-opacity:1" />
          <path
             id="path4979"
             d="M189.5917 943.98242L189.48623 944.19727L48.0648737627 1085.61862624L48.1703437627 1085.40377624Z"
             style="fill:#827e4f;fill-opacity:1" />
          <path
             id="path4981"
             d="M189.48623 944.19727L199.22256 956.53516L57.8012037627 1097.95651624L48.0648737627 1085.61862624Z"
             style="fill:#827e4f;fill-opacity:1" />
          <path
             id="path4983"
             d="M199.22256 956.53516C198.42985 957.73922 197.5928 958.91288 196.71279 960.05469L55.2914337627 1101.47604624C56.1714437627 1100.33423624 57.0084937627 1099.16057624 57.8012037627 1097.95651624Z"
             style="fill:#827e4f;fill-opacity:1" />
          <path
             id="path4985"
             d="M196.71279 960.05469L181.86904 954.97461L40.4476837627 1096.39596624L55.2914337627 1101.47604624Z"
             style="fill:#827e4f;fill-opacity:1" />
          <path
             id="path4987"
             d="M181.86904 954.97461L181.70107 955.14648L40.2797137627 1096.56783624L40.4476837627 1096.39596624Z"
             style="fill:#827e4f;fill-opacity:1" />
          <path
             id="path4989"
             d="M181.70107 955.14648C181.57415041 955.276618872 181.446447863 955.405930044 181.317970768 955.534407138L39.8966145307 1096.95576338C40.0250916253 1096.82728628 40.1527941731 1096.69797511 40.2797137627 1096.56783624Z"
             style="fill:#827e4f;fill-opacity:1" />
          <path
             id="path4991"
             d="M181.317970768 955.534407138C178.238194779 958.614183128 174.713342479 961.214675036 170.85928 963.24805L29.4379237627 1104.66940624C33.2919862414 1102.63603127 36.8168385416 1100.03553936 39.8966145307 1096.95576338Z"
             style="fill:#827e4f;fill-opacity:1" />
          <path
             id="path4993"
             d="M170.85928 963.24805L170.64834 963.35938L29.2269837627 1104.78073624L29.4379237627 1104.66940624Z"
             style="fill:#827e4f;fill-opacity:1" />
          <path
             id="path4995"
             d="M170.64834 963.35938L171.27334 979.08008L29.8519837627 1120.50143624L29.2269837627 1104.78073624Z"
             style="fill:#827e4f;fill-opacity:1" />
          <path
             id="path4997"
             d="M171.27334 979.08008C169.9311 979.58216 168.57088 980.03402 167.19521 980.43555L25.7738537627 1121.85690624C27.1495237627 1121.45537624 28.5097437627 1121.00351624 29.8519837627 1120.50143624Z"
             style="fill:#827e4f;fill-opacity:1" />
          <path
             id="path4999"
             d="M167.19521 980.43555L158.17178 967.60352L16.7504237627 1109.02487624L25.7738537627 1121.85690624Z"
             style="fill:#827e4f;fill-opacity:1" />
          <path
             id="path5001"
             d="M158.17178 967.60352L157.9374 967.64452L16.5160437627 1109.06587624L16.7504237627 1109.02487624Z"
             style="fill:#827e4f;fill-opacity:1" />
          <path
             id="path5003"
             d="M157.9374 967.64452C155.52436 968.05738 153.08081 968.26583 150.63271 968.26757L9.21135376269 1109.68892624C11.6594537627 1109.68718624 14.1030037627 1109.47873624 16.5160437627 1109.06587624Z"
             style="fill:#827e4f;fill-opacity:1" />
          <path
             id="path5005"
             d="M150.63271 968.26757C148.54624 968.24947 146.46262 968.08071 144.40029 967.76366L2.97893376269 1109.18501624C5.04126376269 1109.50206624 7.12488376269 1109.67082624 9.21135376269 1109.68892624Z"
             style="fill:#827e4f;fill-opacity:1" />
          <path
             id="path5007"
             d="M144.40029 967.76366L144.16201 967.72656L2.74065376269 1109.14791624L2.97893376269 1109.18501624Z"
             style="fill:#827e4f;fill-opacity:1" />
          <path
             id="path5009"
             d="M144.16201 967.72656L135.44521 980.78906L-5.97614623731 1122.21041624L2.74065376269 1109.14791624Z"
             style="fill:#827e4f;fill-opacity:1" />
          <path
             id="path5011"
             d="M135.44521 980.78906C134.05187 980.41073 132.67371 979.98296 131.3124 979.50195L-10.1089562373 1120.92330624C-8.74764623731 1121.40431624 -7.36948623731 1121.83208624 -5.97614623731 1122.21041624Z"
             style="fill:#827e4f;fill-opacity:1" />
          <path
             id="path5013"
             d="M131.3124 979.50195L131.55654 963.80273L-9.86481623731 1105.22408624L-10.1089562373 1120.92330624Z"
             style="fill:#827e4f;fill-opacity:1" />
          <path
             id="path5015"
             d="M131.55654 963.80273L131.3417 963.69727L-10.0796562373 1105.11862624L-9.86481623731 1105.22408624Z"
             style="fill:#827e4f;fill-opacity:1" />
          <path
             id="path5017"
             d="M131.3417 963.69727C127.27862 961.68678 123.55427 959.05331 120.30459 955.89258L-21.1167662373 1097.31393624C-17.8670862373 1100.47466624 -14.1427362373 1103.10813624 -10.0796562373 1105.11862624Z"
             style="fill:#827e4f;fill-opacity:1" />
          <path
             id="path5019"
             d="M120.30459 955.89258L120.13467 955.72656L-21.2866862373 1097.14791624L-21.1167662373 1097.31393624Z"
             style="fill:#827e4f;fill-opacity:1" />
          <path
             id="path5021"
             d="M120.13467 955.72656L105.37881 961.17969L-36.0425462373 1102.60104624L-21.2866862373 1097.14791624Z"
             style="fill:#827e4f;fill-opacity:1" />
          <path
             id="path5023"
             d="M105.37881 961.17969C104.48409 960.05404 103.63096 958.89591 102.82217 957.70703L-38.5991862373 1099.12838624C-37.7903962373 1100.31726624 -36.9372662373 1101.47539624 -36.0425462373 1102.60104624Z"
             style="fill:#827e4f;fill-opacity:1" />
          <path
             id="path5025"
             d="M102.82217 957.70703L112.23623 945.16406L-29.1851262373 1086.58541624L-38.5991862373 1099.12838624Z"
             style="fill:#827e4f;fill-opacity:1" />
          <path
             id="path5027"
             d="M112.23623 945.16406L112.1249 944.95117L-29.2964562373 1086.37252624L-29.1851262373 1086.58541624Z"
             style="fill:#827e4f;fill-opacity:1" />
          <path
             id="path5029"
             d="M112.1249 944.95117C110.00728 940.92613 108.53288 936.59484 107.75771 932.11328L-33.6636462373 1073.53463624C-32.8884762373 1078.01619624 -31.4140762373 1082.34748624 -29.2964562373 1086.37252624Z"
             style="fill:#827e4f;fill-opacity:1" />
          <path
             id="path5031"
             d="M107.75771 932.11328L107.71861 931.87891L-33.7027462373 1073.30026624L-33.6636462373 1073.53463624Z"
             style="fill:#827e4f;fill-opacity:1" />
          <path
             id="path5033"
             d="M107.71861 931.87891L92.607282 927.625L-48.8140742373 1069.04635624L-33.7027462373 1073.30026624Z"
             style="fill:#827e4f;fill-opacity:1" />
          <path
             id="path5035"
             d="M92.607282 927.625C92.552542 926.67899 92.514142 925.73078 92.505719 924.7832L-48.9156372373 1066.20455624C-48.9072142373 1067.15213624 -48.8688142373 1068.10034624 -48.8140742373 1069.04635624Z"
             style="fill:#827e4f;fill-opacity:1" />
          <path
             id="path5037"
             d="M92.505719 924.7832L92.505719 924.7752L-48.9156372373 1066.19655624L-48.9156372373 1066.20455624Z"
             style="fill:#827e4f;fill-opacity:1" />
          <path
             id="path5039"
             d="M92.505719 924.7752C92.505691 924.7722 92.505747 924.7682 92.505719 924.7652L-48.9156372373 1066.18655624C-48.9156092373 1066.18955624 -48.9156652373 1066.19355624 -48.9156372373 1066.19655624Z"
             style="fill:#827e4f;fill-opacity:1" />
          <path
             id="path5041"
             d="M92.505719 924.7652C92.522699 924.28337 92.549019 923.80115 92.577989 923.31989L-48.8433672373 1064.74124624C-48.8723372373 1065.22250624 -48.8986572373 1065.70472624 -48.9156372373 1066.18655624Z"
             style="fill:#827e4f;fill-opacity:1" />
          <path
             id="path5043"
             d="M92.577989 923.31989L107.613144 918.69099L-33.8082122373 1060.11234624L-48.8433672373 1064.74124624Z"
             style="fill:#827e4f;fill-opacity:1" />
          <path
             id="path5045"
             d="M107.613144 918.69099L107.648344 918.45466L-33.7730122373 1059.87601624L-33.8082122373 1060.11234624Z"
             style="fill:#827e4f;fill-opacity:1" />
          <path
             id="path5047"
             d="M107.648344 918.45466C108.307064 913.97198 109.661594 909.62056 111.663964 905.55622L-29.7573922373 1046.97757624C-31.7597622373 1051.04191624 -33.1142922373 1055.39333624 -33.7730122373 1059.87601624Z"
             style="fill:#827e4f;fill-opacity:1" />
          <path
             id="path5049"
             d="M111.663964 905.55622L111.769434 905.34138L-29.6519222373 1046.76273624L-29.7573922373 1046.97757624Z"
             style="fill:#827e4f;fill-opacity:1" />
          <path
             id="path5051"
             d="M111.769434 905.34138L102.033104 893.00739L-39.3882522373 1034.42874624L-29.6519222373 1046.76273624Z"
             style="fill:#827e4f;fill-opacity:1" />
          <path
             id="path5053"
             d="M102.033104 893.00739C102.825764 891.80286 103.662854 890.62817 104.542874 889.48591L-36.8784822373 1030.90726624C-37.7585022373 1032.04952624 -38.5955922373 1033.22421624 -39.3882522373 1034.42874624Z"
             style="fill:#827e4f;fill-opacity:1" />
          <path
             id="path5055"
             d="M104.542874 889.48591L119.386624 894.56403L-22.0347322373 1035.98538624L-36.8784822373 1030.90726624Z"
             style="fill:#827e4f;fill-opacity:1" />
          <path
             id="path5057"
             d="M119.386624 894.56403L119.554594 894.39216L-21.8667622373 1035.81351624L-22.0347322373 1035.98538624Z"
             style="fill:#827e4f;fill-opacity:1" />
          <path
             id="path5059"
             d="M119.554594 894.39216C119.680985247 894.26257442 119.808153954 894.133809595 119.936091726 894.005871823L-21.4852645114 1035.42722806C-21.6132022832 1035.55516583 -21.7403709901 1035.68393066 -21.8667622373 1035.81351624Z"
             style="fill:#827e4f;fill-opacity:1" />
          <path
             id="path5061"
             d="M119.936091726 894.005871823C123.016678923 890.925284626 126.543160984 888.324213386 130.398344 886.2906L-11.0230122373 1027.71195624C-14.8781952534 1029.74556962 -18.4046773139 1032.34664086 -21.4852645114 1035.42722806Z"
             style="fill:#827e4f;fill-opacity:1" />
          <path
             id="path5063"
             d="M130.398344 886.2906L130.609284 886.17927L-10.8120722373 1027.60062624L-11.0230122373 1027.71195624Z"
             style="fill:#827e4f;fill-opacity:1" />
          <path
             id="path5065"
             d="M130.609284 886.17927L129.982324 870.46247L-11.4390322373 1011.88382624L-10.8120722373 1027.60062624Z"
             style="fill:#827e4f;fill-opacity:1" />
          <path
             id="path5067"
             d="M129.982324 870.46247C131.325314 869.96004 132.685934 869.50681 134.062404 869.10505L-7.35895223731 1010.52640624C-8.73542223731 1010.92816624 -10.0960422373 1011.38139624 -11.4390322373 1011.88382624Z"
             style="fill:#827e4f;fill-opacity:1" />
          <path
             id="path5069"
             d="M134.062404 869.10505L143.083884 881.93513L1.66252776269 1023.35648624L-7.35895223731 1010.52640624Z"
             style="fill:#827e4f;fill-opacity:1" />
          <path
             id="path5071"
             d="M143.083884 881.93513L143.318264 881.89413L1.89690776269 1023.31548624L1.66252776269 1023.35648624Z"
             style="fill:#827e4f;fill-opacity:1" />
          <path
             id="path5073"
             d="M143.318264 881.89413C145.731754 881.48162 148.176424 881.27428 150.624904 881.27304L9.20354776269 1022.69439624C6.75506776269 1022.69563624 4.31039776269 1022.90297624 1.89690776269 1023.31548624Z"
             style="fill:#827e4f;fill-opacity:1" />
          <path
             id="path5075"
             d="M150.624904 881.27304C152.711774 881.29074 154.794554 881.4583 156.857324 881.77499L15.4359677627 1023.19634624C13.3731977627 1022.87965624 11.2904177627 1022.71209624 9.20354776269 1022.69439624Z"
             style="fill:#827e4f;fill-opacity:1" />
          <path
             id="path5077"
             d="M156.857324 881.77499L157.095604 881.81209L15.6742477627 1023.23344624L15.4359677627 1023.19634624Z"
             style="fill:#827e4f;fill-opacity:1" />
          <path
             id="path5079"
             d="M150.62891 898.39258C143.34651625 898.39258 136.751392247 901.346263953 131.977064954 906.120591247L-9.44429128371 1047.54194748C-4.66996398997 1042.76762019 1.92516001253 1039.81393624 9.20755376269 1039.81393624Z"
             style="fill:#827e4f;fill-opacity:1" />
          <path
             id="path5081"
             d="M131.977064954 906.120591247C127.203378508 910.894277693 124.25 917.48811875 124.25 924.76953L-17.1713562373 1066.19088624C-17.1713562373 1058.90947499 -14.2179777296 1052.31563393 -9.44429128371 1047.54194748Z"
             style="fill:#827e4f;fill-opacity:1" />
          <path
             id="path5083"
             d="M124.25 924.76953C124.25 939.33333 136.0651 951.14844 150.62891 951.14844L9.20755376269 1092.56979624C-5.35625623731 1092.56979624 -17.1713562373 1080.75468624 -17.1713562373 1066.19088624Z"
             style="fill:#827e4f;fill-opacity:1" />
          <path
             id="path5085"
             d="M150.62891 951.14844C157.91032 951.14844 164.504160043 948.195060007 169.277846294 943.421373755L27.8564900567 1084.84272999C23.0828038054 1089.61641624 16.4889637627 1092.56979624 9.20755376269 1092.56979624Z"
             style="fill:#827e4f;fill-opacity:1" />
          <path
             id="path5087"
             d="M169.277846294 943.421373755C174.052175032 938.647045017 177.00586 932.05192 177.00586 924.76953L35.5845037627 1066.19088624C35.5845037627 1073.47327624 32.6308187951 1080.06840125 27.8564900567 1084.84272999Z"
             style="fill:#827e4f;fill-opacity:1" />
          <path
             id="path5089"
             d="M177.00586 924.76953C177.00586 910.20573 165.19271 898.39258 150.62891 898.39258L9.20755376269 1039.81393624C23.7713537627 1039.81393624 35.5845037627 1051.62708624 35.5845037627 1066.19088624Z"
             style="fill:#827e4f;fill-opacity:1" />
          <path
             id="path5091"
             d="M150.62891 899.14844C164.78391 899.14844 176.25 910.61453 176.25 924.76953L34.8286437627 1066.19088624C34.8286437627 1052.03588624 23.3625537627 1040.56979624 9.20755376269 1040.56979624Z"
             style="fill:#827e4f;fill-opacity:1" />
          <path
             id="path5093"
             d="M176.25 924.76953C176.25 931.84752375 173.38308158 938.25368222 168.746619553 942.890144247L27.325263316 1084.31150048C31.961725343 1079.67503846 34.8286437627 1073.26887999 34.8286437627 1066.19088624Z"
             style="fill:#827e4f;fill-opacity:1" />
          <path
             id="path5095"
             d="M168.746619553 942.890144247C164.110797841 947.52596596 157.70592125 950.39258 150.62891 950.39258L9.20755376269 1091.81393624C16.2845650129 1091.81393624 22.6894416037 1088.9473222 27.325263316 1084.31150048Z"
             style="fill:#827e4f;fill-opacity:1" />
          <path
             id="path5097"
             d="M150.62891 950.39258C136.4739 950.39258 125.00586 938.92454 125.00586 924.76953L-16.4154962373 1066.19088624C-16.4154962373 1080.34589624 -4.94745623731 1091.81393624 9.20755376269 1091.81393624Z"
             style="fill:#827e4f;fill-opacity:1" />
          <path
             id="path5099"
             d="M125.00586 924.76953C125.00586 917.69251875 127.87247404 911.287642159 132.508295753 906.651820447L-8.91306048462 1048.07317668C-13.548882197 1052.7089984 -16.4154962373 1059.11387499 -16.4154962373 1066.19088624Z"
             style="fill:#827e4f;fill-opacity:1" />
          <path
             id="path5101"
             d="M132.508295753 906.651820447C137.14475778 902.01535842 143.55091625 899.14844 150.62891 899.14844L9.20755376269 1040.56979624C2.12956001252 1040.56979624 -4.27659845761 1043.43671466 -8.91306048462 1048.07317668Z"
             style="fill:#827e4f;fill-opacity:1" />
        </g>
        <path
           inkscape:connector-curvature="0"
           id="path4680"
           d="m 165.45312,867.92578 -0.11328,0.16992 -8.61523,12.91211 c -2.01809,-0.29821 -4.05363,-0.47297 -6.09375,-0.49023 h -0.002 c -2.40926,0.001 -4.81266,0.21691 -7.18946,0.60937 l -9.07422,-12.90625 -0.25976,0.0742 c -1.56937,0.45029 -3.11995,0.9658 -4.64649,1.54492 l -0.2539,0.0957 0.63086,15.81836 c -3.92563,2.09903 -7.50861,4.7781 -10.63477,7.94726 l -14.93359,-5.10937 -0.16602,0.21289 c -1.0078,1.29568 -1.96137,2.63248 -2.85742,4.00781 l -0.14844,0.22656 9.79883,12.41406 c -1.94098,3.99626 -3.26881,8.25862 -3.93945,12.6504 l -15.101564,4.64843 -0.01563,0.25977 c -0.03757,0.58091 -0.06756,1.16237 -0.08789,1.74414 v 0.01 0.008 c 0.0091,1.05623 0.04741,2.1118 0.113281,3.16601 l 0.01563,0.26758 15.195314,4.27539 c 0.78487,4.39071 2.22873,8.63479 4.2832,12.59375 l -9.4707,12.61524 0.15039,0.22461 c 0.91482,1.3581 1.88536,2.67597 2.91016,3.95312 l 0.17187,0.21289 14.84961,-5.48633 c 3.20374,3.08098 6.85156,5.65874 10.82422,7.65235 l -0.24414,15.79492 0.2539,0.0898 c 1.54622,0.55432 3.116,1.04365 4.70313,1.4668 l 0.26172,0.0703 8.76758,-13.13867 c 2.01699,0.29838 4.05077,0.47446 6.08984,0.49219 h 0.002 0.002 c 2.4082,-0.001 4.80984,-0.22069 7.18554,-0.61328 l 9.07813,12.91015 0.25976,-0.0742 c 1.56937,-0.45029 3.11801,-0.9658 4.64454,-1.54492 l 0.25585,-0.0957 -0.63281,-15.82227 c 3.92519,-2.09913 7.50899,-4.77625 10.63477,-7.94531 l 14.93554,5.11133 0.16602,-0.21289 c 1.00777,-1.29526 1.96134,-2.63292 2.85742,-4.00781 l 0.14844,-0.22657 -9.79883,-12.41601 c 1.94082,-3.99556 3.26856,-8.25936 3.93945,-12.65039 l 15.09961,-4.64844 0.0176,-0.25977 c 0.0376,-0.58091 0.0656,-1.16237 0.0859,-1.74414 l 0.002,-0.008 -0.002,-0.008 c -0.009,-1.05622 -0.0439,-2.11375 -0.10938,-3.16797 l -0.0176,-0.26758 -15.19532,-4.27539 c -0.78447,-4.39061 -2.22917,-8.63278 -4.2832,-12.5918 l 9.4707,-12.61718 -0.15039,-0.22266 c -0.91481,-1.3581 -1.88731,-2.67793 -2.91211,-3.95508 l -0.16992,-0.21289 -14.84961,5.49024 c -3.20348,-3.08143 -6.84971,-5.66413 -10.82226,-7.65821 l 0.24414,-15.79101 -0.25586,-0.0918 c -1.54664,-0.55436 -3.11556,-1.04369 -4.70313,-1.4668 l -0.0469,-0.0137 z m 0.35938,0.82422 c 1.39267,0.37806 2.77214,0.80843 4.13281,1.28906 l -0.24219,15.69532 0.2129,0.10742 c 4.06315,2.01087 7.78752,4.64351 11.0371,7.80468 l 0.17188,0.16602 14.75391,-5.45312 c 0.89501,1.12607 1.74761,2.28525 2.55664,3.4746 l -9.41211,12.54297 0.11133,0.21094 c 2.11718,4.02511 3.5885,8.3564 4.36328,12.83789 l 0.041,0.23633 15.11133,4.25195 c 0.0547,0.95186 0.0918,1.90595 0.0996,2.85938 -0.017,0.48183 -0.0433,0.96406 -0.0723,1.44531 l -15.0332,4.62891 -0.0352,0.23632 c -0.65913,4.48276 -2.01478,8.83417 -4.01758,12.89844 l -0.10547,0.21485 9.73633,12.33789 c -0.79271,1.20406 -1.62976,2.37772 -2.50977,3.51953 l -14.84375,-5.08008 -0.16797,0.17187 c -3.16936,3.24975 -6.82695,5.98337 -10.84179,8.10157 l -0.21094,0.11133 0.625,15.7207 c -1.34224,0.50208 -2.70246,0.95394 -4.07813,1.35547 l -9.02343,-12.83203 -0.23438,0.041 c -2.41304,0.41286 -4.85659,0.62131 -7.30469,0.62305 -2.08647,-0.0181 -4.17009,-0.18686 -6.23242,-0.50391 l -0.23828,-0.0371 -8.7168,13.0625 c -1.39334,-0.37833 -2.7715,-0.8061 -4.13281,-1.28711 l 0.24414,-15.69922 -0.21484,-0.10546 c -4.06308,-2.01049 -7.78743,-4.64396 -11.03711,-7.80469 l -0.16992,-0.16602 -14.75586,5.45313 c -0.89472,-1.12565 -1.74785,-2.28378 -2.55664,-3.47266 l 9.41406,-12.54297 -0.11133,-0.21289 c -2.11762,-4.02504 -3.59202,-8.35633 -4.36719,-12.83789 l -0.0391,-0.23437 -15.111328,-4.25391 c -0.05474,-0.94601 -0.09314,-1.89422 -0.101563,-2.8418 v -0.008 c -2.8e-5,-0.003 2.8e-5,-0.007 0,-0.01 0.01698,-0.48183 0.0433,-0.96405 0.07227,-1.44531 l 15.035155,-4.6289 0.0352,-0.23633 c 0.65872,-4.48268 2.01325,-8.8341 4.01562,-12.89844 l 0.10547,-0.21484 -9.73633,-12.33399 c 0.79266,-1.20453 1.62975,-2.37922 2.50977,-3.52148 l 14.84375,5.07812 0.16797,-0.17187 c 3.16974,-3.24985 6.82846,-5.98349 10.84375,-8.10156 l 0.21094,-0.11133 -0.62696,-15.7168 c 1.34299,-0.50243 2.70361,-0.95566 4.08008,-1.35742 l 9.02148,12.83008 0.23438,-0.041 c 2.41349,-0.41251 4.85816,-0.61985 7.30664,-0.62109 2.08687,0.0177 4.16965,0.18526 6.23242,0.50195 l 0.23828,0.0371 z m -15.18359,29.64258 c -14.56381,0 -26.37891,11.81315 -26.37891,26.37695 0,14.5638 11.8151,26.37891 26.37891,26.37891 14.5638,0 26.37695,-11.81511 26.37695,-26.37891 0,-14.5638 -11.81315,-26.37695 -26.37695,-26.37695 z m 0,0.75586 c 14.155,0 25.62109,11.46609 25.62109,25.62109 0,14.15501 -11.46609,25.62305 -25.62109,25.62305 -14.15501,0 -25.62305,-11.46804 -25.62305,-25.62305 0,-14.155 11.46804,-25.62109 25.62305,-25.62109 z"
           style="color:#000000;font-style:normal;font-variant:normal;font-weight:normal;font-stretch:normal;font-size:medium;line-height:normal;font-family:sans-serif;font-variant-ligatures:normal;font-variant-position:normal;font-variant-caps:normal;font-variant-numeric:normal;font-variant-alternates:normal;font-feature-settings:normal;text-indent:0;text-align:start;text-decoration:none;text-decoration-line:none;text-decoration-style:solid;text-decoration-color:#000000;letter-spacing:normal;word-spacing:normal;text-transform:none;writing-mode:lr-tb;direction:ltr;text-orientation:mixed;dominant-baseline:auto;baseline-shift:baseline;text-anchor:start;white-space:normal;shape-padding:0;clip-rule:nonzero;display:inline;overflow:visible;visibility:visible;opacity:1;isolation:auto;mix-blend-mode:normal;color-interpolation:sRGB;color-interpolation-filters:linearRGB;solid-color:#000000;solid-opacity:1;vector-effect:none;fill-opacity:1;fill-rule:nonzero;stroke:none;stroke-width:0.75641459;stroke-linecap:butt;stroke-linejoin:miter;stroke-miterlimit:4;stroke-dasharray:none;stroke-dashoffset:0;stroke-opacity:1;color-rendering:auto;image-rendering:auto;shape-rendering:auto;text-rendering:auto;enable-background:accumulate;fill:#827e4f" />
      </g>
    </g>
    <g
       transform="translate(-1.1286015,-2e-5)"
       id="g4645">
      <path
         inkscape:connector-curvature="0"
         id="path3075"
         d="m 142.88331,842.12996 c -63.255538,0 -94.883307,44.27888 -94.883307,82.23221 0,37.95331 31.627769,82.23223 94.883307,82.23223 -37.95332,-22.57753 -56.929985,-44.27892 -56.929985,-82.23223 0,-37.95333 18.976665,-59.65472 56.929985,-82.23221 z"
         style="opacity:1;fill:#c9c9c9;fill-opacity:1;stroke:none;stroke-width:6.32555342" />
      <path
         sodipodi:nodetypes="cscsc"
         inkscape:connector-curvature="0"
         id="path3847"
         d="m 142.88331,842.12996 c -63.255538,0 -94.883307,44.27888 -94.883307,82.23221 0,37.95331 31.627769,82.23223 94.883307,82.23223 -50.604431,-12.65115 -75.906645,-44.27892 -75.906645,-82.23223 0,-37.95333 25.302214,-69.5811 75.906645,-82.23221 z"
         style="opacity:1;fill:#ffffff;fill-opacity:1;stroke:none;stroke-width:6.32555342" />
    </g>
    <path
       inkscape:connector-curvature="0"
       id="path3803"
       d="m 165.65477,868.30491 -8.73945,13.09648 a 43.874999,43.874999 0 0 0 -6.28672,-0.50654 43.874999,43.874999 0 0 0 -7.37344,0.62715 l -9.0454,-12.86416 a 58.499999,58.499999 0 0 0 -4.61602,1.53486 l 0.62841,15.76377 a 43.874999,43.874999 0 0 0 -10.93827,8.17197 l -14.88399,-5.09209 a 58.499999,58.499999 0 0 0 -2.83867,3.98252 l 9.76397,12.37032 a 43.874999,43.874999 0 0 0 -4.05108,13.01142 l -15.059181,4.63633 a 58.499999,58.499999 0 0 0 -0.0863,1.73291 58.499999,58.499999 0 0 0 0.11172,3.1459 l 15.145511,4.26181 a 43.874999,43.874999 0 0 0 4.404,12.95049 l -9.43896,12.57598 a 58.499999,58.499999 0 0 0 2.89199,3.9292 l 14.79892,-5.46914 a 43.874999,43.874999 0 0 0 11.13253,7.87236 l -0.24375,15.74092 a 58.499999,58.499999 0 0 0 4.67187,1.45742 l 8.74072,-13.09775 a 43.874999,43.874999 0 0 0 6.28545,0.50781 43.874999,43.874999 0 0 0 7.37217,-0.62842 l 9.04668,12.8667 a 58.499999,58.499999 0 0 0 4.61601,-1.53486 l -0.62841,-15.76631 a 43.874999,43.874999 0 0 0 10.93701,-8.17198 l 14.88525,5.09337 a 58.499999,58.499999 0 0 0 2.83867,-3.98125 l -9.76523,-12.37158 a 43.874999,43.874999 0 0 0 4.05234,-13.01143 l 15.05918,-4.63633 a 58.499999,58.499999 0 0 0 0.0863,-1.73291 58.499999,58.499999 0 0 0 -0.11045,-3.1459 l -15.14675,-4.26181 a 43.874999,43.874999 0 0 0 -4.40273,-12.95049 l 9.43769,-12.57598 a 58.499999,58.499999 0 0 0 -2.89199,-3.9292 l -14.79765,5.46914 a 43.874999,43.874999 0 0 0 -11.13252,-7.87363 l 0.24375,-15.73965 a 58.499999,58.499999 0 0 0 -4.67315,-1.45742 z m -15.02617,30.46494 a 26,26 0 0 1 26,26 26,26 0 0 1 -26,26 26,26 0 0 1 -26,-26 26,26 0 0 1 26,-26 z"
       style="fill:#ffffff;fill-opacity:1;stroke-width:0.75641459" />
    <path
       inkscape:connector-curvature="0"
       id="circle4623"
       d="m 150.6286,890.64485 a 34.124999,34.124999 0 0 0 -34.125,34.125 34.124999,34.124999 0 0 0 34.125,34.125 34.124999,34.124999 0 0 0 34.125,-34.125 34.124999,34.124999 0 0 0 -34.125,-34.125 z m 0,8.125 a 26,26 0 0 1 26,26 26,26 0 0 1 -26,26 26,26 0 0 1 -26,-26 26,26 0 0 1 26,-26 z"
       style="fill:#c9c9c9;fill-opacity:1;stroke-width:1.51666677" />
  </g>
</svg>
