<?xml version="1.0" encoding="UTF-8" standalone="no"?>
<!-- Created with Inkscape (http://www.inkscape.org/) -->

<svg
   xmlns:dc="http://purl.org/dc/elements/1.1/"
   xmlns:cc="http://creativecommons.org/ns#"
   xmlns:rdf="http://www.w3.org/1999/02/22-rdf-syntax-ns#"
   xmlns:svg="http://www.w3.org/2000/svg"
   xmlns="http://www.w3.org/2000/svg"
   xmlns:sodipodi="http://sodipodi.sourceforge.net/DTD/sodipodi-0.dtd"
   xmlns:inkscape="http://www.inkscape.org/namespaces/inkscape"
   sodipodi:docname="openra.svg"
   inkscape:version="0.91 r13725"
   version="1.1"
   id="svg2"
   viewBox="0 0 256 256"
   height="256"
   width="256">
  <sodipodi:namedview
     inkscape:window-maximized="1"
     inkscape:window-y="0"
     inkscape:window-x="0"
     inkscape:window-height="1054"
     inkscape:window-width="1920"
     units="px"
     showgrid="false"
     inkscape:current-layer="layer1"
     inkscape:document-units="px"
     inkscape:cy="128"
     inkscape:cx="51.931427"
     inkscape:zoom="2.0507812"
     inkscape:pageshadow="2"
     inkscape:pageopacity="0.0"
     borderopacity="1.0"
     bordercolor="#666666"
     pagecolor="#ffffff"
     id="base" />
  <defs
     id="defs4">
    <marker
       inkscape:isstock="true"
       style="overflow:visible;"
       id="Arrow1Mend"
       refX="0.0"
       refY="0.0"
       orient="auto"
       inkscape:stockid="Arrow1Mend">
      <path
         transform="scale(0.4) rotate(180) translate(10,0)"
         style="fill-rule:evenodd;stroke:#000000;stroke-width:1pt;stroke-opacity:1;fill:#000000;fill-opacity:1"
         d="M 0.0,0.0 L 5.0,-5.0 L -12.5,0.0 L 5.0,5.0 L 0.0,0.0 z "
         id="path5459" />
    </marker>
    <marker
       inkscape:stockid="Arrow1Mend"
       orient="auto"
       refY="0.0"
       refX="0.0"
       id="marker7388"
       style="overflow:visible;"
       inkscape:isstock="true">
      <path
         id="path7390"
         d="M 0.0,0.0 L 5.0,-5.0 L -12.5,0.0 L 5.0,5.0 L 0.0,0.0 z "
         style="fill-rule:evenodd;stroke:#000000;stroke-width:1pt;stroke-opacity:1;fill:none;fill-opacity:1"
         transform="scale(0.4) rotate(180) translate(10,0)" />
    </marker>
    <clipPath
       clipPathUnits="userSpaceOnUse"
       id="clipPath5002">
      <g
         id="g5004">
        <path
           transform="translate(0,796.36216)"
           inkscape:connector-curvature="0"
           id="path5006"
           d="M 88.118406,249.43519 C 46.103287,235.29134 14.771284,201.68742 4.1335861,159.36053 1.3377997,148.23623 0.92261224,144.16281 0.92582381,127.88908 0.92787958,117.47222 1.134384,112.01362 1.6577819,108.54099 4.4653598,89.913336 12.17654,70.638106 23.042737,55.086148 c 3.958678,-5.665755 8.344812,-10.93092 9.101533,-10.925587 0.32809,0.0023 10.488643,18.309713 22.579009,40.683112 12.090365,22.373397 22.374546,41.334697 22.853732,42.136217 0.479186,0.80151 0.924733,2.44098 0.990103,3.64326 0.343424,6.31639 2.524175,14.20976 5.6424,20.42304 2.954444,5.88693 5.065381,8.73258 10.434696,14.06652 6.71418,6.66995 12.88853,10.28643 21.73204,12.72904 3.16587,0.87442 5.10478,1.05037 11.57517,1.05037 8.82596,0 12.60219,-0.76201 19.26429,-3.88733 2.04584,-0.95974 3.93661,-1.66536 4.20172,-1.56805 0.2651,0.0973 -11.0555,17.66459 -25.1569,39.0384 l -25.6389,38.86148 -3.094121,0.11221 c -2.554618,0.0927 -4.195204,-0.25845 -9.409103,-2.01364 z"
           style="fill:#0f9d58;fill-opacity:1;stroke:none;stroke-width:4.85768509;stroke-linejoin:round;stroke-miterlimit:4;stroke-dasharray:none;stroke-opacity:1" />
        <path
           inkscape:connector-curvature="0"
           id="path5008"
           d="m 112.35984,1051.5167 c -10.0014,-1.4495 -12.15632,-1.8201 -12.531784,-2.1556 -0.248854,-0.2223 1.738304,-3.7475 4.550294,-8.0722 7.16635,-11.0213 49.77231,-74.64801 50.25856,-75.05489 3.57509,-2.99158 8.63523,-8.0414 10.57512,-10.55356 3.36154,-4.35318 7.55784,-12.9141 9.06523,-18.494 6.19314,-22.92535 -2.59253,-47.15185 -21.69967,-59.83688 l -2.96081,-1.96565 17.02469,0.29584 c 9.36358,0.1627 31.17032,0.43384 48.45941,0.60252 l 31.43471,0.30668 1.54584,4.18869 c 2.24597,6.08579 4.67816,15.0947 5.93451,21.9816 1.52517,8.36049 1.92536,28.85896 0.73851,37.82758 -3.0805,23.27845 -12.81326,45.72018 -27.80202,64.10577 -20.47622,25.1166 -51.4599,42.1974 -84.14612,46.3885 -5.31244,0.6812 -26.64601,0.9864 -30.44647,0.4356 z"
           style="fill:#f4b400;fill-opacity:1;stroke:none;stroke-width:4.85768509;stroke-linejoin:round;stroke-miterlimit:4;stroke-dasharray:none;stroke-opacity:1" />
        <path
           transform="translate(0,796.36216)"
           inkscape:connector-curvature="0"
           id="path5010"
           d="M 67.989788,108.87302 C 41.284246,59.575543 33.290284,45.149038 32.233625,44.344765 31.651257,43.901497 32.811213,42.549931 38.695603,36.815353 53.43581,22.450419 68.809334,13.040746 87.839196,6.7360352 101.68742,2.1480329 112.58238,0.43719165 127.95142,0.43719165 c 21.3099,0 37.80488,3.80960275 56.83492,13.12633035 25.29351,12.383198 46.19421,33.578863 58.51993,59.345832 1.61138,3.368591 2.92978,6.372442 2.92978,6.675231 0,0.560033 -10.54865,0.49527 -71.16508,-0.436914 l -24.28843,-0.373518 -3.93063,-1.764495 c -6.75732,-3.033425 -10.64587,-3.839529 -18.6576,-3.867747 -5.0296,-0.01773 -7.97946,0.207636 -10.31642,0.788106 -14.50826,3.603659 -26.283291,12.94777 -33.291614,26.418653 -3.58502,6.89086 -5.24713,13.08166 -6.331628,23.58317 l -0.33738,3.26696 -9.92748,-18.32578 z"
           style="fill:#db4437;fill-opacity:1;stroke:none;stroke-width:10;stroke-linejoin:round;stroke-miterlimit:4;stroke-dasharray:none;stroke-opacity:1" />
      </g>
    </clipPath>
    <radialGradient
       id="SVGID21"
       cx="278.95999"
       cy="216.92"
       r="322.22"
       gradientTransform="matrix(0.7100982,0,0,-0.69667735,-12.931184,1000.262)"
       gradientUnits="userSpaceOnUse">
      <stop
         offset="0.119"
         stop-color="#ffffff"
         id="stop131" />
      <stop
         offset="0.122"
         stop-color="#fffffa"
         id="stop133" />
      <stop
         offset="0.25"
         stop-color="#ffe560"
         id="stop135" />
      <stop
         offset="0.287"
         stop-color="#ffdf56"
         id="stop137" />
      <stop
         offset="0.347"
         stop-color="#f8d03b"
         id="stop139" />
      <stop
         offset="0.406"
         stop-color="#f0be1b"
         id="stop141" />
      <stop
         offset="0.473"
         stop-color="#eb9d23"
         id="stop143" />
      <stop
         offset="0.548"
         stop-color="#e57c27"
         id="stop145" />
      <stop
         offset="0.765"
         stop-color="#dd5626"
         id="stop147" />
      <stop
         offset="0.903"
         stop-color="#c33a28"
         id="stop149" />
      <stop
         offset="1"
         stop-color="#b02228"
         id="stop151" />
    </radialGradient>
    <clipPath
       clipPathUnits="userSpaceOnUse"
       id="clipPath6128">
      <circle
         r="128"
         cy="925.362"
         cx="128"
         id="circle6130"
         style="opacity:1;fill:#4285f4;fill-opacity:1;stroke:none;stroke-width:20.51976967;stroke-linecap:round;stroke-linejoin:round;stroke-miterlimit:4;stroke-dasharray:none;stroke-opacity:1" />
    </clipPath>
    <clipPath
       id="clipPath6618"
       clipPathUnits="userSpaceOnUse">
      <circle
         r="128"
         cy="925.362"
         cx="128"
         id="circle6620"
         style="opacity:1;fill:#4285f4;fill-opacity:1;stroke:none;stroke-width:20.51976967;stroke-linecap:round;stroke-linejoin:round;stroke-miterlimit:4;stroke-dasharray:none;stroke-opacity:1" />
    </clipPath>
    <clipPath
       id="clipPath5300"
       clipPathUnits="userSpaceOnUse">
      <circle
         r="128"
         cy="925.362"
         cx="128"
         id="circle5302"
         style="opacity:1;fill:#3f71aa;fill-opacity:1;stroke:none;stroke-width:20.51976967;stroke-linecap:round;stroke-linejoin:round;stroke-miterlimit:4;stroke-dasharray:none;stroke-opacity:1" />
    </clipPath>
    <clipPath
       id="clipPath5390"
       clipPathUnits="userSpaceOnUse">
      <circle
         r="128"
         cy="925.362"
         cx="128"
         id="circle5392"
         style="opacity:1;fill:#3f71aa;fill-opacity:1;stroke:none;stroke-width:20.51976967;stroke-linecap:round;stroke-linejoin:round;stroke-miterlimit:4;stroke-dasharray:none;stroke-opacity:1" />
    </clipPath>
    <clipPath
       clipPathUnits="userSpaceOnUse"
       id="clipPath5032">
      <circle
         r="128"
         cy="927.04407"
         cx="128"
         id="circle5034"
         style="opacity:1;fill:#aa9a3f;fill-opacity:1;stroke:none;stroke-width:20.51976967;stroke-linecap:round;stroke-linejoin:round;stroke-miterlimit:4;stroke-dasharray:none;stroke-opacity:1" />
    </clipPath>
    <clipPath
       id="clipPath4424"
       clipPathUnits="userSpaceOnUse">
      <circle
         r="128"
         cy="924.36218"
         cx="128"
         id="circle4426"
         style="opacity:1;fill:#6996c8;fill-opacity:1;stroke:none;stroke-width:20.51976967;stroke-linecap:round;stroke-linejoin:round;stroke-miterlimit:4;stroke-dasharray:none;stroke-opacity:1" />
    </clipPath>
    <clipPath
       clipPathUnits="userSpaceOnUse"
       id="clipPath5175">
      <circle
         r="113.77779"
         cy="919.76141"
         cx="125.05498"
         id="circle5177"
         style="opacity:1;fill:#272d2c;fill-opacity:1;stroke:none;stroke-width:20.51976967;stroke-linecap:round;stroke-linejoin:round;stroke-miterlimit:4;stroke-dasharray:none;stroke-opacity:1" />
    </clipPath>
  </defs>
  <metadata
     id="metadata7">
    <rdf:RDF>
      <cc:Work
         rdf:about="">
        <dc:format>image/svg+xml</dc:format>
        <dc:type
           rdf:resource="http://purl.org/dc/dcmitype/StillImage" />
        <dc:title />
      </cc:Work>
    </rdf:RDF>
  </metadata>
  <g
     transform="translate(0,-796.36216)"
     id="layer1"
     inkscape:groupmode="layer"
     inkscape:label="Layer 1">
    <circle
       style="opacity:1;fill:#869693;fill-opacity:1;stroke:none;stroke-width:20.51976967;stroke-linecap:round;stroke-linejoin:round;stroke-miterlimit:4;stroke-dasharray:none;stroke-opacity:1"
       id="path4152"
       cx="128"
       cy="924.36218"
       r="128" />
    <g
       id="g4923"
       transform="matrix(1.1249999,0,0,1.1249999,-12.686833,-110.36933)"
       clip-path="url(#clipPath5175)"
       style="fill:#272d2c;fill-opacity:1">
      <path
         inkscape:connector-curvature="0"
         id="path4927"
         d="m 123.78915,872.26019 c -0.39873,0 2.5359,3.31156 6.52028,7.36011 17.63039,17.91433 24.44235,35.28651 18.4119,46.94816 -1.76404,3.41118 -2.37329,3.76599 -3.8385,2.24123 -0.95806,-0.99703 -6.55542,-7.11539 -12.44032,-13.59702 l -10.70142,-11.7834 4.64742,-4.76077 c 2.5555,-2.61708 4.64482,-5.17725 4.64482,-5.69075 0,-0.5135 -4.11667,-0.93258 -9.15055,-0.93258 l -9.15313,0 -9.97235,8.8002 c -5.485149,4.84119 -9.974934,9.17212 -9.974934,9.62457 0,0.45245 2.374156,3.14051 5.273421,5.97156 l 5.270843,5.14719 4.51603,-4.37949 4.5186,-4.37692 12.30379,12.83965 c 6.76739,7.06152 12.48105,13.29683 12.69537,13.85727 0.60724,1.58742 -7.45692,3.95726 -13.44762,3.95173 -5.69351,0 -12.06583,-3.12089 -18.22125,-8.90576 -2.86022,-2.68812 -3.95857,-3.04715 -5.46663,-1.79555 -1.038049,0.86144 -2.396253,1.47411 -3.0167,1.36279 -2.724962,-0.48909 -4.425854,0.24283 -4.425854,1.90371 0,0.98622 -3.116143,4.11356 -6.924751,6.95059 -7.127134,5.30885 -9.138225,9.5559 -6.203412,13.092 2.523575,3.04081 6.016008,2.23332 10.294369,-2.38026 2.186359,-2.35772 5.08182,-5.6849 6.432704,-7.39365 l 2.455077,-3.10691 6.940207,5.92257 c 10.94438,9.34194 22.99469,11.06654 37.30554,5.3405 4.84703,-1.93947 5.37015,-1.9177 7.83927,0.31682 2.57884,2.33383 2.76154,2.27752 7.2648,-2.22581 l 4.61907,-4.61901 -2.72043,-3.45723 -2.72044,-3.45986 2.87758,-5.52067 c 4.44363,-8.52536 4.09341,-21.94627 -0.83983,-32.24853 -4.84063,-10.10879 -16.27477,-21.60296 -26.75868,-26.89522 -4.4703,-2.2566 -8.45556,-4.10126 -8.85429,-4.10126 z"
         style="fill:#272d2c;fill-opacity:1;stroke:none;stroke-width:5;stroke-miterlimit:4;stroke-dasharray:none;stroke-opacity:1" />
      <g
         id="g5096"
         transform="matrix(1.7402905,-0.80246767,0.80246767,1.7402905,-742.12532,-489.98625)"
         style="fill:#272d2c;fill-opacity:1">
        <g
           id="g5098"
           style="fill:#272d2c;fill-opacity:1;stroke:none;stroke-width:5;stroke-miterlimit:4;stroke-dasharray:none;stroke-opacity:1">
          <path
             id="path5100"
             d="M110.68952 904.12599L93.80038 878.38573L-47.6209762373 1019.80708624L-30.7318362373 1045.54734624Z"
             style="fill:#272d2c;fill-opacity:1" />
          <path
             id="path5102"
             d="M93.80038 878.38573L63.477439 883.28689L-77.9439172373 1024.70824624L-47.6209762373 1019.80708624Z"
             style="fill:#272d2c;fill-opacity:1" />
          <path
             id="path5104"
             d="M63.477439 883.28689L82.738855 859.27019L-58.6825012373 1000.69154624L-77.9439172373 1024.70824624Z"
             style="fill:#272d2c;fill-opacity:1" />
          <path
             id="path5106"
             d="M82.738855 859.27019L69.225226 830.82261L-72.1961302373 972.243966237L-58.6825012373 1000.69154624Z"
             style="fill:#272d2c;fill-opacity:1" />
          <path
             id="path5108"
             d="M69.225226 830.82261L97.113631 843.68227L-44.3077252373 985.103626237L-72.1961302373 972.243966237Z"
             style="fill:#272d2c;fill-opacity:1" />
          <path
             id="path5110"
             d="M97.113631 843.68227L119.15155 821.05452L-22.2698062373 962.475876237L-44.3077252373 985.103626237Z"
             style="fill:#272d2c;fill-opacity:1" />
          <path
             id="path5112"
             d="M119.15155 821.05452L117.16745 852.92931L-24.2539062373 994.350666237L-22.2698062373 962.475876237Z"
             style="fill:#272d2c;fill-opacity:1" />
          <path
             id="path5114"
             d="M117.16745 852.92931L145.04321 865.78314L3.62185376269 1007.20449624L-24.2539062373 994.350666237Z"
             style="fill:#272d2c;fill-opacity:1" />
          <path
             id="path5116"
             d="M145.04321 865.78314L115.39854 873.77262L-26.0228162373 1015.19397624L3.62185376269 1007.20449624Z"
             style="fill:#272d2c;fill-opacity:1" />
        </g>
        <path
           sodipodi:nodetypes="ccccccccccc"
           inkscape:connector-curvature="0"
           id="path4925"
           d="m 110.68952,904.12599 -16.88914,-25.74026 -30.322941,4.90116 19.261416,-24.0167 -13.513629,-28.44758 27.888405,12.85966 22.037919,-22.62775 -1.9841,31.87479 27.87576,12.85383 -29.64467,7.98948 z"
           inkscape:transform-center-y="-7.7242094"
           inkscape:transform-center-x="5.439322"
           style="fill:#272d2c;fill-opacity:1;stroke:none;stroke-width:5;stroke-miterlimit:4;stroke-dasharray:none;stroke-opacity:1"
           transform="" />
      </g>
    </g>
    <g
       transform="matrix(1.1249999,0,0,1.1249999,-12.686833,-110.36933)"
       id="g4255">
      <path
         transform="matrix(1.7402905,-0.80246767,0.80246767,1.7402905,-742.12532,-489.98625)"
         style="fill:#ff0000;fill-opacity:1;stroke:none;stroke-width:5;stroke-miterlimit:4;stroke-dasharray:none;stroke-opacity:1"
         inkscape:transform-center-x="5.439322"
         inkscape:transform-center-y="-7.7242094"
         d="m 110.68952,904.12599 -16.88914,-25.74026 -30.322941,4.90116 19.261416,-24.0167 -13.513629,-28.44758 27.888405,12.85966 22.037919,-22.62775 -1.9841,31.87479 27.87576,12.85383 -29.64467,7.98948 z"
         id="path4241"
         inkscape:connector-curvature="0"
         sodipodi:nodetypes="ccccccccccc" />
      <path
         style="fill:#ffd300;fill-opacity:1;stroke:none;stroke-width:5;stroke-miterlimit:4;stroke-dasharray:none;stroke-opacity:1"
         d="m 123.78915,872.26019 c -0.39873,0 2.5359,3.31156 6.52028,7.36011 17.63039,17.91433 24.44235,35.28651 18.4119,46.94816 -1.76404,3.41118 -2.37329,3.76599 -3.8385,2.24123 -0.95806,-0.99703 -6.55542,-7.11539 -12.44032,-13.59702 l -10.70142,-11.7834 4.64742,-4.76077 c 2.5555,-2.61708 4.64482,-5.17725 4.64482,-5.69075 0,-0.5135 -4.11667,-0.93258 -9.15055,-0.93258 l -9.15313,0 -9.97235,8.8002 c -5.485149,4.84119 -9.974934,9.17212 -9.974934,9.62457 0,0.45245 2.374156,3.14051 5.273421,5.97156 l 5.270843,5.14719 4.51603,-4.37949 4.5186,-4.37692 12.30379,12.83965 c 6.76739,7.06152 12.48105,13.29683 12.69537,13.85727 0.60724,1.58742 -7.45692,3.95726 -13.44762,3.95173 -5.69351,0 -12.06583,-3.12089 -18.22125,-8.90576 -2.86022,-2.68812 -3.95857,-3.04715 -5.46663,-1.79555 -1.038049,0.86144 -2.396253,1.47411 -3.0167,1.36279 -2.724962,-0.48909 -4.425854,0.24283 -4.425854,1.90371 0,0.98622 -3.116143,4.11356 -6.924751,6.95059 -7.127134,5.30885 -9.138225,9.5559 -6.203412,13.092 2.523575,3.04081 6.016008,2.23332 10.294369,-2.38026 2.186359,-2.35772 5.08182,-5.6849 6.432704,-7.39365 l 2.455077,-3.10691 6.940207,5.92257 c 10.94438,9.34194 22.99469,11.06654 37.30554,5.3405 4.84703,-1.93947 5.37015,-1.9177 7.83927,0.31682 2.57884,2.33383 2.76154,2.27752 7.2648,-2.22581 l 4.61907,-4.61901 -2.72043,-3.45723 -2.72044,-3.45986 2.87758,-5.52067 c 4.44363,-8.52536 4.09341,-21.94627 -0.83983,-32.24853 -4.84063,-10.10879 -16.27477,-21.60296 -26.75868,-26.89522 -4.4703,-2.2566 -8.45556,-4.10126 -8.85429,-4.10126 z"
         id="rect4231"
         inkscape:connector-curvature="0" />
    </g>
  </g>
</svg>
