<?xml version="1.0" encoding="UTF-8" standalone="no"?>
<!-- Created with Inkscape (http://www.inkscape.org/) -->

<svg
   xmlns:dc="http://purl.org/dc/elements/1.1/"
   xmlns:cc="http://creativecommons.org/ns#"
   xmlns:rdf="http://www.w3.org/1999/02/22-rdf-syntax-ns#"
   xmlns:svg="http://www.w3.org/2000/svg"
   xmlns="http://www.w3.org/2000/svg"
   xmlns:sodipodi="http://sodipodi.sourceforge.net/DTD/sodipodi-0.dtd"
   xmlns:inkscape="http://www.inkscape.org/namespaces/inkscape"
   sodipodi:docname="org.gnome.ChromeGnomeShell.svg"
   inkscape:version="0.92.2 (5c3e80d, 2017-08-06)"
   version="1.1"
   id="svg2"
   viewBox="0 0 256 256"
   height="256"
   width="256">
  <sodipodi:namedview
     inkscape:window-maximized="1"
     inkscape:window-y="28"
     inkscape:window-x="0"
     inkscape:window-height="1020"
     inkscape:window-width="1920"
     units="px"
     showgrid="true"
     inkscape:current-layer="layer1"
     inkscape:document-units="px"
     inkscape:cy="128"
     inkscape:cx="128"
     inkscape:zoom="3.203125"
     inkscape:pageshadow="2"
     inkscape:pageopacity="0.0"
     borderopacity="1.0"
     bordercolor="#666666"
     pagecolor="#ffffff"
     id="base">
    <inkscape:grid
       type="xygrid"
       id="grid4168"
       spacingx="5"
       spacingy="5" />
  </sodipodi:namedview>
  <defs
     id="defs4">
    <clipPath
       clipPathUnits="userSpaceOnUse"
       id="clipPath5002">
      <g
         id="g5004">
        <path
           transform="translate(0,796.36216)"
           inkscape:connector-curvature="0"
           id="path5006"
           d="M 88.118406,249.43519 C 46.103287,235.29134 14.771284,201.68742 4.1335861,159.36053 1.3377997,148.23623 0.92261224,144.16281 0.92582381,127.88908 0.92787958,117.47222 1.134384,112.01362 1.6577819,108.54099 4.4653598,89.913336 12.17654,70.638106 23.042737,55.086148 c 3.958678,-5.665755 8.344812,-10.93092 9.101533,-10.925587 0.32809,0.0023 10.488643,18.309713 22.579009,40.683112 12.090365,22.373397 22.374546,41.334697 22.853732,42.136217 0.479186,0.80151 0.924733,2.44098 0.990103,3.64326 0.343424,6.31639 2.524175,14.20976 5.6424,20.42304 2.954444,5.88693 5.065381,8.73258 10.434696,14.06652 6.71418,6.66995 12.88853,10.28643 21.73204,12.72904 3.16587,0.87442 5.10478,1.05037 11.57517,1.05037 8.82596,0 12.60219,-0.76201 19.26429,-3.88733 2.04584,-0.95974 3.93661,-1.66536 4.20172,-1.56805 0.2651,0.0973 -11.0555,17.66459 -25.1569,39.0384 l -25.6389,38.86148 -3.094121,0.11221 c -2.554618,0.0927 -4.195204,-0.25845 -9.409103,-2.01364 z"
           style="fill:#0f9d58;fill-opacity:1;stroke:none;stroke-width:4.85768509;stroke-linejoin:round;stroke-miterlimit:4;stroke-dasharray:none;stroke-opacity:1" />
        <path
           inkscape:connector-curvature="0"
           id="path5008"
           d="m 112.35984,1051.5167 c -10.0014,-1.4495 -12.15632,-1.8201 -12.531784,-2.1556 -0.248854,-0.2223 1.738304,-3.7475 4.550294,-8.0722 7.16635,-11.0213 49.77231,-74.64801 50.25856,-75.05489 3.57509,-2.99158 8.63523,-8.0414 10.57512,-10.55356 3.36154,-4.35318 7.55784,-12.9141 9.06523,-18.494 6.19314,-22.92535 -2.59253,-47.15185 -21.69967,-59.83688 l -2.96081,-1.96565 17.02469,0.29584 c 9.36358,0.1627 31.17032,0.43384 48.45941,0.60252 l 31.43471,0.30668 1.54584,4.18869 c 2.24597,6.08579 4.67816,15.0947 5.93451,21.9816 1.52517,8.36049 1.92536,28.85896 0.73851,37.82758 -3.0805,23.27845 -12.81326,45.72018 -27.80202,64.10577 -20.47622,25.1166 -51.4599,42.1974 -84.14612,46.3885 -5.31244,0.6812 -26.64601,0.9864 -30.44647,0.4356 z"
           style="fill:#f4b400;fill-opacity:1;stroke:none;stroke-width:4.85768509;stroke-linejoin:round;stroke-miterlimit:4;stroke-dasharray:none;stroke-opacity:1" />
        <path
           transform="translate(0,796.36216)"
           inkscape:connector-curvature="0"
           id="path5010"
           d="M 67.989788,108.87302 C 41.284246,59.575543 33.290284,45.149038 32.233625,44.344765 31.651257,43.901497 32.811213,42.549931 38.695603,36.815353 53.43581,22.450419 68.809334,13.040746 87.839196,6.7360352 101.68742,2.1480329 112.58238,0.43719165 127.95142,0.43719165 c 21.3099,0 37.80488,3.80960275 56.83492,13.12633035 25.29351,12.383198 46.19421,33.578863 58.51993,59.345832 1.61138,3.368591 2.92978,6.372442 2.92978,6.675231 0,0.560033 -10.54865,0.49527 -71.16508,-0.436914 l -24.28843,-0.373518 -3.93063,-1.764495 c -6.75732,-3.033425 -10.64587,-3.839529 -18.6576,-3.867747 -5.0296,-0.01773 -7.97946,0.207636 -10.31642,0.788106 -14.50826,3.603659 -26.283291,12.94777 -33.291614,26.418653 -3.58502,6.89086 -5.24713,13.08166 -6.331628,23.58317 l -0.33738,3.26696 -9.92748,-18.32578 z"
           style="fill:#db4437;fill-opacity:1;stroke:none;stroke-width:10;stroke-linejoin:round;stroke-miterlimit:4;stroke-dasharray:none;stroke-opacity:1" />
      </g>
    </clipPath>
    <clipPath
       id="clipPath4271"
       clipPathUnits="userSpaceOnUse">
      <circle
         r="128"
         cy="128.00002"
         cx="128"
         id="circle4273"
         style="fill:#292929;fill-opacity:0.26020412;stroke:none;stroke-width:10;stroke-linejoin:round;stroke-miterlimit:4;stroke-dasharray:none;stroke-opacity:0.25882353" />
    </clipPath>
    <clipPath
       clipPathUnits="userSpaceOnUse"
       id="clipPath4363">
      <circle
         r="128"
         cy="924.36218"
         cx="128"
         id="circle4365"
         style="fill:#4285f4;fill-opacity:1;stroke:none;stroke-width:10;stroke-linejoin:round;stroke-miterlimit:4;stroke-dasharray:none;stroke-opacity:0.25882353" />
    </clipPath>
    <clipPath
       id="clipPath4452"
       clipPathUnits="userSpaceOnUse">
      <circle
         r="128"
         cy="924.36218"
         cx="128"
         id="circle4454"
         style="fill:#4285f4;fill-opacity:1;stroke:none;stroke-width:10;stroke-linejoin:round;stroke-miterlimit:4;stroke-dasharray:none;stroke-opacity:0.25882353" />
    </clipPath>
    <clipPath
       clipPathUnits="userSpaceOnUse"
       id="clipPath5177">
      <circle
         r="128"
         cy="924.36218"
         cx="128"
         id="circle5179"
         style="fill:#4285f4;fill-opacity:1;stroke:none;stroke-width:10;stroke-linejoin:round;stroke-miterlimit:4;stroke-dasharray:none;stroke-opacity:0.25882353" />
    </clipPath>
    <clipPath
       id="clipPath4342"
       clipPathUnits="userSpaceOnUse">
      <circle
         r="128"
         cy="933.48718"
         cx="128"
         id="circle4344"
         style="fill:#4285f4;fill-opacity:1;stroke:none;stroke-width:10;stroke-linejoin:round;stroke-miterlimit:4;stroke-dasharray:none;stroke-opacity:0.25882353" />
    </clipPath>
    <clipPath
       clipPathUnits="userSpaceOnUse"
       id="clipPath4681">
      <circle
         r="128"
         cy="930.43964"
         cx="127.00293"
         id="circle4683"
         style="fill:#9d5fad;fill-opacity:1;stroke:none;stroke-width:10;stroke-linejoin:round;stroke-miterlimit:4;stroke-dasharray:none;stroke-opacity:0.25882353" />
    </clipPath>
    <clipPath
       id="clipPath4235"
       clipPathUnits="userSpaceOnUse">
      <circle
         r="128"
         cy="924.36218"
         cx="128"
         id="circle4237"
         style="fill:#0f9d58;fill-opacity:1;stroke:none;stroke-width:10;stroke-linejoin:round;stroke-miterlimit:4;stroke-dasharray:none;stroke-opacity:0.25882353" />
    </clipPath>
    <clipPath
       clipPathUnits="userSpaceOnUse"
       id="clipPath4771">
      <circle
         r="128"
         cy="924.36218"
         cx="128"
         id="circle4773"
         style="fill:#0f9d58;fill-opacity:1;stroke:none;stroke-width:10;stroke-linejoin:round;stroke-miterlimit:4;stroke-dasharray:none;stroke-opacity:0.25882353" />
    </clipPath>
    <clipPath
       id="clipPath4842"
       clipPathUnits="userSpaceOnUse">
      <circle
         r="128"
         cy="924.36218"
         cx="128"
         id="circle4844"
         style="fill:#0f9d58;fill-opacity:1;stroke:none;stroke-width:10;stroke-linejoin:round;stroke-miterlimit:4;stroke-dasharray:none;stroke-opacity:0.25882353" />
    </clipPath>
    <clipPath
       clipPathUnits="userSpaceOnUse"
       id="clipPath4458">
      <circle
         r="128"
         cy="924.36218"
         cx="128"
         id="circle4460"
         style="fill:#ff3b38;fill-opacity:1;stroke:none;stroke-width:10;stroke-linejoin:round;stroke-miterlimit:4;stroke-dasharray:none;stroke-opacity:0.25882353" />
    </clipPath>
    <clipPath
       id="clipPath4783"
       clipPathUnits="userSpaceOnUse">
      <circle
         r="128"
         cy="924.36218"
         cx="128"
         id="circle4785"
         style="fill:#ff3b38;fill-opacity:1;stroke:none;stroke-width:10;stroke-linejoin:round;stroke-miterlimit:4;stroke-dasharray:none;stroke-opacity:0.25882353" />
    </clipPath>
    <clipPath
       clipPathUnits="userSpaceOnUse"
       id="clipPath4789">
      <circle
         r="128"
         cy="924.36218"
         cx="102.64714"
         id="circle4791"
         style="fill:#80b4ff;fill-opacity:1;stroke:none;stroke-width:10;stroke-linejoin:round;stroke-miterlimit:4;stroke-dasharray:none;stroke-opacity:0.25882353" />
    </clipPath>
    <clipPath
       id="clipPath4721"
       clipPathUnits="userSpaceOnUse">
      <circle
         r="128"
         cy="924.36218"
         cx="128"
         id="circle4723"
         style="fill:#557ae6;fill-opacity:1;stroke:none;stroke-width:10;stroke-linejoin:round;stroke-miterlimit:4;stroke-dasharray:none;stroke-opacity:0.25882353" />
    </clipPath>
    <clipPath
       clipPathUnits="userSpaceOnUse"
       id="clipPath4491">
      <circle
         r="128"
         cy="924.36218"
         cx="128"
         id="circle4493"
         style="fill:#990000;fill-opacity:1;stroke:none;stroke-width:10;stroke-linejoin:round;stroke-miterlimit:4;stroke-dasharray:none;stroke-opacity:0.25882353" />
    </clipPath>
    <clipPath
       id="clipPath1102"
       clipPathUnits="userSpaceOnUse">
      <circle
         r="128"
         cy="924.36218"
         cx="128"
         id="circle1104"
         style="fill:#b40000;fill-opacity:1;stroke:none;stroke-width:10;stroke-linejoin:round;stroke-miterlimit:4;stroke-dasharray:none;stroke-opacity:0.25882353" />
    </clipPath>
    <clipPath
       id="clipPath1102-3"
       clipPathUnits="userSpaceOnUse">
      <circle
         r="128"
         cy="924.36218"
         cx="128"
         id="circle1104-6"
         style="fill:#b40000;fill-opacity:1;stroke:none;stroke-width:10;stroke-linejoin:round;stroke-miterlimit:4;stroke-dasharray:none;stroke-opacity:0.25882353" />
    </clipPath>
    <clipPath
       clipPathUnits="userSpaceOnUse"
       id="clipPath1071">
      <circle
         style="fill:#2dc7cf;fill-opacity:1;stroke:none;stroke-width:1.61264849;stroke-linecap:square;stroke-linejoin:miter;stroke-miterlimit:4;stroke-dasharray:none;stroke-dashoffset:0;stroke-opacity:1"
         id="circle1073"
         cx="128"
         cy="128.00002"
         r="128" />
    </clipPath>
  </defs>
  <metadata
     id="metadata7">
    <rdf:RDF>
      <cc:Work
         rdf:about="">
        <dc:format>image/svg+xml</dc:format>
        <dc:type
           rdf:resource="http://purl.org/dc/dcmitype/StillImage" />
        <dc:title />
      </cc:Work>
    </rdf:RDF>
  </metadata>
  <g
     transform="translate(0,-796.36216)"
     id="layer1"
     inkscape:groupmode="layer"
     inkscape:label="Layer 1">
    <circle
       r="128"
       cy="924.36218"
       cx="128"
       id="path873"
       style="fill:#2dc7cf;fill-opacity:1;stroke:none;stroke-width:1.61264849;stroke-linecap:square;stroke-linejoin:miter;stroke-miterlimit:4;stroke-dasharray:none;stroke-dashoffset:0;stroke-opacity:1" />
    <g
       id="g987"
       transform="translate(0,796.36216)"
       clip-path="url(#clipPath1071)"
       style="fill:#1b7a7e;fill-opacity:1">
      <g
         id="g984"
         style="fill:#1b7a7e;fill-opacity:1;stroke:none;stroke-width:10;stroke-linejoin:round;stroke-miterlimit:4;stroke-dasharray:none;stroke-opacity:0.25882353">
        <path
           id="path920"
           d="M191.13086 29.669922C180.022881623 29.669922 171.365005389 33.96560835 165.106289251 40.224324488L23.6849330141 181.645680725C29.9436491521 175.386964587 38.6015253855 171.091278237 49.7095037627 171.091278237Z"
           style="fill:#1b7a7e;fill-opacity:1" />
        <path
           id="path922"
           d="M165.106289251 40.224324488C148.313621041 57.0169926988 148.792376374 87.941406 165.55859 87.941406L24.1372337627 229.362762237C7.37102013704 229.362762237 6.89226480325 198.438348936 23.6849330141 181.645680725Z"
           style="fill:#1b7a7e;fill-opacity:1" />
        <path
           id="path924"
           d="M165.55859 87.941406C172.926120814 87.941406 182.391113049 81.968293343 190.512588697 73.8468176947L49.0912324599 215.268173932C40.9697568116 223.38964958 31.5047645772 229.362762237 24.1372337627 229.362762237Z"
           style="fill:#1b7a7e;fill-opacity:1" />
        <path
           id="path926"
           d="M190.512588697 73.8468176947C207.757734778 56.6016716136 218.945192954 29.669922 191.13086 29.669922L49.7095037627 171.091278237C77.523836717 171.091278237 66.336378541 198.023027851 49.0912324599 215.268173932Z"
           style="fill:#1b7a7e;fill-opacity:1" />
        <path
           id="path928"
           d="M127.91797 36.808594C127.26832 36.806394 126.58498 36.849954 125.86523 36.943359L-15.5561262373 178.364715237C-14.8363762373 178.271310237 -14.1530362373 178.227750237 -13.5033862373 178.229950237Z"
           style="fill:#1b7a7e;fill-opacity:1" />
        <path
           id="path930"
           d="M125.86523 36.943359C121.987133389 37.4467130284 118.991980722 39.0013396268 116.750942754 41.2423775948L-24.6704134836 182.663733832C-22.4293755156 180.422695864 -19.4342228488 178.868069266 -15.5561262373 178.364715237Z"
           style="fill:#1b7a7e;fill-opacity:1" />
        <path
           id="path932"
           d="M116.750942754 41.2423775948C105.687440812 52.3058795369 113.003037558 80.0984312169 123.19727 80.720703L-18.2240862373 222.142059237C-28.418318679 221.519787454 -35.7339154257 193.727235774 -24.6704134836 182.663733832Z"
           style="fill:#1b7a7e;fill-opacity:1" />
        <path
           id="path934"
           d="M123.19727 80.720703C125.076858308 80.8354835621 126.98445492 79.8148358261 128.78413655 78.0151541957L-12.6372196871 219.436510433C-14.4369013175 221.236192063 -16.3444979296 222.256839799 -18.2240862373 222.142059237Z"
           style="fill:#1b7a7e;fill-opacity:1" />
        <path
           id="path936"
           d="M128.78413655 78.0151541957C138.351024113 68.4482666329 144.868390075 36.8670058203 127.91797 36.808594L-13.5033862373 178.229950237C3.44703383814 178.288362058 -3.07033212433 209.86962287 -12.6372196871 219.436510433Z"
           style="fill:#1b7a7e;fill-opacity:1" />
        <path
           id="path938"
           d="M88.027344 52.652344C86.810264 52.679314 85.480606 52.968003 84.035156 53.564453L-57.3862002373 194.985809237C-55.9407502373 194.389359237 -54.6110922373 194.100670237 -53.3940122373 194.073700237Z"
           style="fill:#1b7a7e;fill-opacity:1" />
        <path
           id="path940"
           d="M84.035156 53.564453C82.1420709723 54.345639994 80.6069235796 55.3767936445 79.3873901097 56.5963271145L-62.0339661276 198.017683352C-60.8144326577 196.798149882 -59.279285265 195.766996231 -57.3862002373 194.985809237Z"
           style="fill:#1b7a7e;fill-opacity:1" />
        <path
           id="path942"
           d="M79.3873901097 56.5963271145C68.6858010507 67.2979161734 82.2875118397 92.5053647977 91.59375 90.603516L-49.8276062373 232.024872237C-59.1338443977 233.926721035 -72.7355551866 208.719272411 -62.0339661276 198.017683352Z"
           style="fill:#1b7a7e;fill-opacity:1" />
        <path
           id="path944"
           d="M91.59375 90.603516C92.5123352059 90.4162352648 93.3540497147 89.9119365615 94.1124636641 89.1535226121L-47.3088925732 230.574878849C-48.0673065226 231.333292799 -48.9090210314 231.837591502 -49.8276062373 232.024872237Z"
           style="fill:#1b7a7e;fill-opacity:1" />
        <path
           id="path946"
           d="M94.1124636641 89.1535226121C101.250829829 82.015156447 101.009594051 52.3647042176 88.027344 52.652344L-53.3940122373 194.073700237C-40.4117621862 193.786060455 -40.1705264081 223.436512684 -47.3088925732 230.574878849Z"
           style="fill:#1b7a7e;fill-opacity:1" />
        <path
           id="path948"
           d="M58.541016 77.359375C56.932086 77.305225 55.192364 77.837967 53.339844 79.117188L-88.0815122373 220.538544237C-86.2289922373 219.259323237 -84.4892702373 218.726581237 -82.8803402373 218.780731237Z"
           style="fill:#1b7a7e;fill-opacity:1" />
        <path
           id="path950"
           d="M53.339844 79.117188C52.6173977422 79.6163636471 51.9772673734 80.1500055297 51.4141531571 80.7131197461L-90.0072030802 222.134475983C-89.4440888639 221.571361767 -88.8039584951 221.037719884 -88.0815122373 220.538544237Z"
           style="fill:#1b7a7e;fill-opacity:1" />
        <path
           id="path952"
           d="M51.4141531571 80.7131197461C40.4308446066 91.6964282965 58.7466983445 113.891861332 67.037109 110.24414L-74.3842472373 251.665496237C-82.6746578928 255.313217569 -100.990511631 233.117784534 -90.0072030802 222.134475983Z"
           style="fill:#1b7a7e;fill-opacity:1" />
        <path
           id="path954"
           d="M67.037109 110.24414C67.4830375013 110.047849782 67.8862741792 109.763369589 68.2480352254 109.401608543L-73.1733210119 250.82296478C-73.5350820581 251.184725826 -73.938318736 251.46920602 -74.3842472373 251.665496237Z"
           style="fill:#1b7a7e;fill-opacity:1" />
        <path
           id="path956"
           d="M68.2480352254 109.401608543C74.0729175144 103.576726254 69.1449466335 77.7162319846 58.541016 77.359375L-82.8803402373 218.780731237C-72.2764096038 219.137588222 -67.3484387229 244.998082491 -73.1733210119 250.82296478Z"
           style="fill:#1b7a7e;fill-opacity:1" />
        <path
           id="path958"
           d="M140.73438 96.269531C118.281136946 96.468711906 91.4558527874 104.653307781 75.4240502959 120.685110273L-65.9973059414 262.10646651C-49.9655034499 246.074664018 -23.1402192918 237.890068143 -0.686976237309 237.690887237Z"
           style="fill:#1b7a7e;fill-opacity:1" />
        <path
           id="path960"
           d="M75.4240502959 120.685110273C69.0140070278 127.095153541 64.3294788935 134.759701536 62.339844 143.66992L-79.0815122373 285.091276237C-77.0918773438 276.181057773 -72.4073492095 268.516509778 -65.9973059414 262.10646651Z"
           style="fill:#1b7a7e;fill-opacity:1" />
        <path
           id="path962"
           d="M62.339844 143.66992C54.602194 178.29394 94.190637 226.33008 135.49805 226.33008L-5.92330623731 367.751436237C-47.2307192373 367.751436237 -86.8191622373 319.715296237 -79.0815122373 285.091276237Z"
           style="fill:#1b7a7e;fill-opacity:1" />
        <path
           id="path964"
           d="M135.49805 226.33008C147.144204833 226.33008 159.814827134 220.303294379 169.335923175 210.782198338L27.9145669379 352.203554576C18.3934708969 361.724650617 5.72284859553 367.751436237 -5.92330623731 367.751436237Z"
           style="fill:#1b7a7e;fill-opacity:1" />
        <path
           id="path966"
           d="M169.335923175 210.782198338C176.427970506 203.690151007 181.772528266 194.65931336 183.64453 184.73633L42.2231737627 326.157686237C40.351172029 336.080669597 35.0066142689 345.111507245 27.9145669379 352.203554576Z"
           style="fill:#1b7a7e;fill-opacity:1" />
        <path
           id="path968"
           d="M183.64453 184.73633C186.483985817 169.708636666 156.18040193 172.526432463 147.827275594 180.8795588L6.40591935621 322.300915037C14.7590456932 313.9477887 45.0626295799 311.129992903 42.2231737627 326.157686237Z"
           style="fill:#1b7a7e;fill-opacity:1" />
        <path
           id="path970"
           d="M147.827275594 180.8795588C146.327825097 182.379009296 145.53568451 184.056824827 145.76953 185.8418L4.34817376269 327.263156237C4.11432827244 325.478181065 4.90646886015 323.800365533 6.40591935621 322.300915037Z"
           style="fill:#1b7a7e;fill-opacity:1" />
        <path
           id="path972"
           d="M145.76953 185.8418C146.499439698 191.415991819 145.029100777 195.871402709 142.246565658 198.653937829L0.825209420327 340.075294066C3.60774453969 337.292758947 5.07808346043 332.837348057 4.34817376269 327.263156237Z"
           style="fill:#1b7a7e;fill-opacity:1" />
        <path
           id="path974"
           d="M142.246565658 198.653937829C138.011403326 202.88910016 130.736352953 203.24880922 123.55273 197.7793L-17.8686262373 339.200656237C-10.6850032845 344.670165458 -3.40995291119 344.310456398 0.825209420327 340.075294066Z"
           style="fill:#1b7a7e;fill-opacity:1" />
        <path
           id="path976"
           d="M123.55273 197.7793C112.006817525 188.988746237 113.321652169 181.540591933 120.544297021 174.317947081L-20.8770592168 315.739303319C-28.0997040682 322.96194817 -29.4145387128 330.410102474 -17.8686262373 339.200656237Z"
           style="fill:#1b7a7e;fill-opacity:1" />
        <path
           id="path978"
           d="M120.544297021 174.317947081C133.199907322 161.66233678 163.993968809 149.699096756 175.521556547 132.419660075L34.1002003096 273.841016312C22.5726125719 291.120452994 -8.22144891504 303.083693017 -20.8770592168 315.739303319Z"
           style="fill:#1b7a7e;fill-opacity:1" />
        <path
           id="path980"
           d="M175.521556547 132.419660075C179.006790252 127.195420928 180.730903049 121.485235821 179.66016 115.12305L38.2388037627 256.544406237C39.3095468117 262.906592058 37.5854340148 268.616777165 34.1002003096 273.841016312Z"
           style="fill:#1b7a7e;fill-opacity:1" />
        <path
           id="path982"
           d="M179.66016 115.12305C177.50938 102.3431 160.88232 96.090801 140.73438 96.269531L-0.68697623731 237.690887237C19.4609637627 237.512157237 36.0880237627 243.764456237 38.2388037627 256.544406237Z"
           style="fill:#1b7a7e;fill-opacity:1" />
      </g>
      <path
         transform=""
         style="fill:#1b7a7e;fill-opacity:1;stroke:none;stroke-width:10;stroke-linejoin:round;stroke-miterlimit:4;stroke-dasharray:none;stroke-opacity:0.25882353"
         d="m 191.13086,29.669922 c -40.91163,0 -48.58734,58.271484 -25.57227,58.271484 23.01175,0 66.48556,-58.271484 25.57227,-58.271484 z m -63.21289,7.138672 c -0.64965,-0.0022 -1.33299,0.04136 -2.05274,0.134765 -23.02339,2.9883 -14.92715,43.029024 -2.66796,43.777344 11.87125,0.72494 24.85976,-43.842709 4.7207,-43.912109 z m -39.890626,15.84375 c -1.21708,0.02697 -2.546738,0.315659 -3.992188,0.912109 -18.50519,7.63622 -2.808166,39.157643 7.558594,37.039063 9.56452,-1.95001 10.79514,-38.269372 -3.566406,-37.951172 z M 58.541016,77.359375 c -1.60893,-0.05415 -3.348652,0.478592 -5.201172,1.757813 -14.81346,10.235389 4.981805,34.961692 13.697265,31.126952 7.62603,-3.35685 2.766407,-32.505745 -8.496093,-32.884765 z m 82.193364,18.910156 c -31.43079,0.27882 -71.428736,16.205319 -78.394536,47.400389 -7.73765,34.62402 31.850793,82.66016 73.158206,82.66016 20.32111,0 43.76131,-18.34913 48.14648,-41.59375 3.34916,-17.72528 -39.41155,-10.62323 -37.875,1.10547 1.84087,14.0584 -10.31348,21.00052 -22.2168,11.9375 -37.893386,-28.85037 62.74089,-43.24128 56.10743,-82.65625 -2.15078,-12.77995 -18.77784,-19.032249 -38.92578,-18.853519 z"
         id="path875"
         inkscape:connector-curvature="0"
         sodipodi:nodetypes="sssccccccccccccscsccccs" />
    </g>
    <path
       sodipodi:nodetypes="sssccccccccccccscsccccs"
       inkscape:connector-curvature="0"
       id="path4152"
       transform="translate(0,796.36216)"
       d="m 191.13086,29.669922 c -40.91163,0 -48.58734,58.271484 -25.57227,58.271484 23.01175,0 66.48556,-58.271484 25.57227,-58.271484 z m -63.21289,7.138672 c -0.64965,-0.0022 -1.33299,0.04136 -2.05274,0.134765 -23.02339,2.9883 -14.92715,43.029024 -2.66796,43.777344 11.87125,0.72494 24.85976,-43.842709 4.7207,-43.912109 z m -39.890626,15.84375 c -1.21708,0.02697 -2.546738,0.315659 -3.992188,0.912109 -18.50519,7.63622 -2.808166,39.157643 7.558594,37.039063 9.56452,-1.95001 10.79514,-38.269372 -3.566406,-37.951172 z M 58.541016,77.359375 c -1.60893,-0.05415 -3.348652,0.478592 -5.201172,1.757813 -14.81346,10.235389 4.981805,34.961692 13.697265,31.126952 7.62603,-3.35685 2.766407,-32.505745 -8.496093,-32.884765 z m 82.193364,18.910156 c -31.43079,0.27882 -71.428736,16.205319 -78.394536,47.400389 -7.73765,34.62402 31.850793,82.66016 73.158206,82.66016 20.32111,0 43.76131,-18.34913 48.14648,-41.59375 3.34916,-17.72528 -39.41155,-10.62323 -37.875,1.10547 1.84087,14.0584 -10.31348,21.00052 -22.2168,11.9375 -37.893386,-28.85037 62.74089,-43.24128 56.10743,-82.65625 -2.15078,-12.77995 -18.77784,-19.032249 -38.92578,-18.853519 z"
       style="fill:#ffffff;fill-opacity:1;stroke:none;stroke-width:10;stroke-linejoin:round;stroke-miterlimit:4;stroke-dasharray:none;stroke-opacity:0.25882353" />
  </g>
</svg>
