<?xml version="1.0" encoding="UTF-8" standalone="no"?>
<!-- Created with Inkscape (http://www.inkscape.org/) -->

<svg
   sodipodi:docname="org.gnome.Connections.svg"
   inkscape:version="1.1 (c68e22c387, 2021-05-23)"
   version="1.1"
   id="svg2"
   viewBox="0 0 256 256"
   height="256"
   width="256"
   xmlns:inkscape="http://www.inkscape.org/namespaces/inkscape"
   xmlns:sodipodi="http://sodipodi.sourceforge.net/DTD/sodipodi-0.dtd"
   xmlns="http://www.w3.org/2000/svg"
   xmlns:svg="http://www.w3.org/2000/svg"
   xmlns:rdf="http://www.w3.org/1999/02/22-rdf-syntax-ns#"
   xmlns:cc="http://creativecommons.org/ns#"
   xmlns:dc="http://purl.org/dc/elements/1.1/">
  <sodipodi:namedview
     inkscape:window-maximized="1"
     inkscape:window-y="0"
     inkscape:window-x="0"
     inkscape:window-height="1048"
     inkscape:window-width="1920"
     units="px"
     showgrid="true"
     inkscape:current-layer="layer1"
     inkscape:document-units="px"
     inkscape:cy="128"
     inkscape:cx="128"
     inkscape:zoom="3.1171875"
     inkscape:pageshadow="2"
     inkscape:pageopacity="0.0"
     borderopacity="1.0"
     bordercolor="#666666"
     pagecolor="#ffffff"
     id="base"
     inkscape:pagecheckerboard="0">
    <inkscape:grid
       spacingy="5"
       spacingx="5"
       id="grid4168"
       type="xygrid" />
  </sodipodi:namedview>
  <defs
     id="defs4">
    <clipPath
       id="clipPath5002"
       clipPathUnits="userSpaceOnUse">
      <g
         id="g5004">
        <path
           style="fill:#0f9d58;fill-opacity:1;stroke:none;stroke-width:4.85768509;stroke-linejoin:round;stroke-miterlimit:4;stroke-dasharray:none;stroke-opacity:1"
           d="M 88.118406,249.43519 C 46.103287,235.29134 14.771284,201.68742 4.1335861,159.36053 1.3377997,148.23623 0.92261224,144.16281 0.92582381,127.88908 0.92787958,117.47222 1.134384,112.01362 1.6577819,108.54099 4.4653598,89.913336 12.17654,70.638106 23.042737,55.086148 c 3.958678,-5.665755 8.344812,-10.93092 9.101533,-10.925587 0.32809,0.0023 10.488643,18.309713 22.579009,40.683112 12.090365,22.373397 22.374546,41.334697 22.853732,42.136217 0.479186,0.80151 0.924733,2.44098 0.990103,3.64326 0.343424,6.31639 2.524175,14.20976 5.6424,20.42304 2.954444,5.88693 5.065381,8.73258 10.434696,14.06652 6.71418,6.66995 12.88853,10.28643 21.73204,12.72904 3.16587,0.87442 5.10478,1.05037 11.57517,1.05037 8.82596,0 12.60219,-0.76201 19.26429,-3.88733 2.04584,-0.95974 3.93661,-1.66536 4.20172,-1.56805 0.2651,0.0973 -11.0555,17.66459 -25.1569,39.0384 l -25.6389,38.86148 -3.094121,0.11221 c -2.554618,0.0927 -4.195204,-0.25845 -9.409103,-2.01364 z"
           id="path5006"
           inkscape:connector-curvature="0"
           transform="translate(0,796.36216)" />
        <path
           style="fill:#f4b400;fill-opacity:1;stroke:none;stroke-width:4.85768509;stroke-linejoin:round;stroke-miterlimit:4;stroke-dasharray:none;stroke-opacity:1"
           d="m 112.35984,1051.5167 c -10.0014,-1.4495 -12.15632,-1.8201 -12.531784,-2.1556 -0.248854,-0.2223 1.738304,-3.7475 4.550294,-8.0722 7.16635,-11.0213 49.77231,-74.64801 50.25856,-75.05489 3.57509,-2.99158 8.63523,-8.0414 10.57512,-10.55356 3.36154,-4.35318 7.55784,-12.9141 9.06523,-18.494 6.19314,-22.92535 -2.59253,-47.15185 -21.69967,-59.83688 l -2.96081,-1.96565 17.02469,0.29584 c 9.36358,0.1627 31.17032,0.43384 48.45941,0.60252 l 31.43471,0.30668 1.54584,4.18869 c 2.24597,6.08579 4.67816,15.0947 5.93451,21.9816 1.52517,8.36049 1.92536,28.85896 0.73851,37.82758 -3.0805,23.27845 -12.81326,45.72018 -27.80202,64.10577 -20.47622,25.1166 -51.4599,42.1974 -84.14612,46.3885 -5.31244,0.6812 -26.64601,0.9864 -30.44647,0.4356 z"
           id="path5008"
           inkscape:connector-curvature="0" />
        <path
           style="fill:#db4437;fill-opacity:1;stroke:none;stroke-width:10;stroke-linejoin:round;stroke-miterlimit:4;stroke-dasharray:none;stroke-opacity:1"
           d="M 67.989788,108.87302 C 41.284246,59.575543 33.290284,45.149038 32.233625,44.344765 31.651257,43.901497 32.811213,42.549931 38.695603,36.815353 53.43581,22.450419 68.809334,13.040746 87.839196,6.7360352 101.68742,2.1480329 112.58238,0.43719165 127.95142,0.43719165 c 21.3099,0 37.80488,3.80960275 56.83492,13.12633035 25.29351,12.383198 46.19421,33.578863 58.51993,59.345832 1.61138,3.368591 2.92978,6.372442 2.92978,6.675231 0,0.560033 -10.54865,0.49527 -71.16508,-0.436914 l -24.28843,-0.373518 -3.93063,-1.764495 c -6.75732,-3.033425 -10.64587,-3.839529 -18.6576,-3.867747 -5.0296,-0.01773 -7.97946,0.207636 -10.31642,0.788106 -14.50826,3.603659 -26.283291,12.94777 -33.291614,26.418653 -3.58502,6.89086 -5.24713,13.08166 -6.331628,23.58317 l -0.33738,3.26696 -9.92748,-18.32578 z"
           id="path5010"
           inkscape:connector-curvature="0"
           transform="translate(0,796.36216)" />
      </g>
    </clipPath>
    <clipPath
       clipPathUnits="userSpaceOnUse"
       id="clipPath4271">
      <circle
         style="fill:#292929;fill-opacity:0.26020412;stroke:none;stroke-width:10;stroke-linejoin:round;stroke-miterlimit:4;stroke-dasharray:none;stroke-opacity:0.25882353"
         id="circle4273"
         cx="128"
         cy="128.00002"
         r="128" />
    </clipPath>
    <clipPath
       id="clipPath4363"
       clipPathUnits="userSpaceOnUse">
      <circle
         style="fill:#4285f4;fill-opacity:1;stroke:none;stroke-width:10;stroke-linejoin:round;stroke-miterlimit:4;stroke-dasharray:none;stroke-opacity:0.25882353"
         id="circle4365"
         cx="128"
         cy="924.36218"
         r="128" />
    </clipPath>
    <clipPath
       clipPathUnits="userSpaceOnUse"
       id="clipPath4452">
      <circle
         style="fill:#4285f4;fill-opacity:1;stroke:none;stroke-width:10;stroke-linejoin:round;stroke-miterlimit:4;stroke-dasharray:none;stroke-opacity:0.25882353"
         id="circle4454"
         cx="128"
         cy="924.36218"
         r="128" />
    </clipPath>
    <clipPath
       id="clipPath5177"
       clipPathUnits="userSpaceOnUse">
      <circle
         style="fill:#4285f4;fill-opacity:1;stroke:none;stroke-width:10;stroke-linejoin:round;stroke-miterlimit:4;stroke-dasharray:none;stroke-opacity:0.25882353"
         id="circle5179"
         cx="128"
         cy="924.36218"
         r="128" />
    </clipPath>
    <clipPath
       clipPathUnits="userSpaceOnUse"
       id="clipPath4342">
      <circle
         style="fill:#4285f4;fill-opacity:1;stroke:none;stroke-width:10;stroke-linejoin:round;stroke-miterlimit:4;stroke-dasharray:none;stroke-opacity:0.25882353"
         id="circle4344"
         cx="128"
         cy="933.48718"
         r="128" />
    </clipPath>
    <clipPath
       id="clipPath4681"
       clipPathUnits="userSpaceOnUse">
      <circle
         style="fill:#9d5fad;fill-opacity:1;stroke:none;stroke-width:10;stroke-linejoin:round;stroke-miterlimit:4;stroke-dasharray:none;stroke-opacity:0.25882353"
         id="circle4683"
         cx="127.00293"
         cy="930.43964"
         r="128" />
    </clipPath>
    <clipPath
       clipPathUnits="userSpaceOnUse"
       id="clipPath4235">
      <circle
         style="fill:#0f9d58;fill-opacity:1;stroke:none;stroke-width:10;stroke-linejoin:round;stroke-miterlimit:4;stroke-dasharray:none;stroke-opacity:0.25882353"
         id="circle4237"
         cx="128"
         cy="924.36218"
         r="128" />
    </clipPath>
    <clipPath
       id="clipPath4771"
       clipPathUnits="userSpaceOnUse">
      <circle
         style="fill:#0f9d58;fill-opacity:1;stroke:none;stroke-width:10;stroke-linejoin:round;stroke-miterlimit:4;stroke-dasharray:none;stroke-opacity:0.25882353"
         id="circle4773"
         cx="128"
         cy="924.36218"
         r="128" />
    </clipPath>
    <clipPath
       clipPathUnits="userSpaceOnUse"
       id="clipPath4842">
      <circle
         style="fill:#0f9d58;fill-opacity:1;stroke:none;stroke-width:10;stroke-linejoin:round;stroke-miterlimit:4;stroke-dasharray:none;stroke-opacity:0.25882353"
         id="circle4844"
         cx="128"
         cy="924.36218"
         r="128" />
    </clipPath>
    <clipPath
       id="clipPath4458"
       clipPathUnits="userSpaceOnUse">
      <circle
         style="fill:#ff3b38;fill-opacity:1;stroke:none;stroke-width:10;stroke-linejoin:round;stroke-miterlimit:4;stroke-dasharray:none;stroke-opacity:0.25882353"
         id="circle4460"
         cx="128"
         cy="924.36218"
         r="128" />
    </clipPath>
    <clipPath
       clipPathUnits="userSpaceOnUse"
       id="clipPath4783">
      <circle
         style="fill:#ff3b38;fill-opacity:1;stroke:none;stroke-width:10;stroke-linejoin:round;stroke-miterlimit:4;stroke-dasharray:none;stroke-opacity:0.25882353"
         id="circle4785"
         cx="128"
         cy="924.36218"
         r="128" />
    </clipPath>
    <clipPath
       id="clipPath4789"
       clipPathUnits="userSpaceOnUse">
      <circle
         style="fill:#80b4ff;fill-opacity:1;stroke:none;stroke-width:10;stroke-linejoin:round;stroke-miterlimit:4;stroke-dasharray:none;stroke-opacity:0.25882353"
         id="circle4791"
         cx="102.64714"
         cy="924.36218"
         r="128" />
    </clipPath>
    <clipPath
       clipPathUnits="userSpaceOnUse"
       id="clipPath4721">
      <circle
         style="fill:#557ae6;fill-opacity:1;stroke:none;stroke-width:10;stroke-linejoin:round;stroke-miterlimit:4;stroke-dasharray:none;stroke-opacity:0.25882353"
         id="circle4723"
         cx="128"
         cy="924.36218"
         r="128" />
    </clipPath>
    <clipPath
       id="clipPath4491"
       clipPathUnits="userSpaceOnUse">
      <circle
         style="fill:#990000;fill-opacity:1;stroke:none;stroke-width:10;stroke-linejoin:round;stroke-miterlimit:4;stroke-dasharray:none;stroke-opacity:0.25882353"
         id="circle4493"
         cx="128"
         cy="924.36218"
         r="128" />
    </clipPath>
    <clipPath
       clipPathUnits="userSpaceOnUse"
       id="clipPath1102">
      <circle
         style="fill:#b40000;fill-opacity:1;stroke:none;stroke-width:10;stroke-linejoin:round;stroke-miterlimit:4;stroke-dasharray:none;stroke-opacity:0.25882353"
         id="circle1104"
         cx="128"
         cy="924.36218"
         r="128" />
    </clipPath>
    <clipPath
       clipPathUnits="userSpaceOnUse"
       id="clipPath1102-3">
      <circle
         style="fill:#b40000;fill-opacity:1;stroke:none;stroke-width:10;stroke-linejoin:round;stroke-miterlimit:4;stroke-dasharray:none;stroke-opacity:0.25882353"
         id="circle1104-6"
         cx="128"
         cy="924.36218"
         r="128" />
    </clipPath>
    <clipPath
       clipPathUnits="userSpaceOnUse"
       id="clipPath1316">
      <circle
         cy="560.34442"
         cx="756.86035"
         id="circle1318"
         style="fill:#c42626;fill-opacity:1;stroke:none;stroke-width:10.6438;stroke-linejoin:round;stroke-miterlimit:4;stroke-dasharray:none;stroke-opacity:0.258824"
         r="136.24088"
         transform="rotate(45)" />
    </clipPath>
  </defs>
  <metadata
     id="metadata7">
    <rdf:RDF>
      <cc:Work
         rdf:about="">
        <dc:format>image/svg+xml</dc:format>
        <dc:type
           rdf:resource="http://purl.org/dc/dcmitype/StillImage" />
      </cc:Work>
    </rdf:RDF>
  </metadata>
  <g
     inkscape:label="Layer 1"
     inkscape:groupmode="layer"
     id="layer1"
     transform="translate(0,-796.36216)">
    <circle
       cy="924.36218"
       cx="128"
       id="path4152"
       style="fill:#1c71d8;fill-opacity:1;stroke:none;stroke-width:10;stroke-linejoin:round;stroke-miterlimit:4;stroke-dasharray:none;stroke-opacity:0.258824"
       r="128" />
    <g
       id="g877"
       transform="matrix(0.66433561,-0.66433561,0.66433561,0.66433561,-583.07971,397.91163)"
       clip-path="url(#clipPath1316)"
       style="fill:#1a559e;fill-opacity:1">
      <g
         id="g873"
         style="fill:#1a559e;fill-opacity:1">
        <g
           transform="matrix(0.752632 0.752632 -0.752632 0.752632 138.958 738.731)"
           id="g1252"
           style="fill:#1a559e;fill-opacity:1">
          <g
             style="color:#000000;fill:#1a559e;stroke-width:2.4039px;-inkscape-stroke:none;fill-opacity:1"
             id="g1249">
            <path
               d="M 92.791 36.9297 L 72.8594 56.8594 L -68.562 198.281 L -48.6303 178.351 Z"
               id="path1181"
               style="fill:#1a559e;fill-opacity:1" />
            <path
               d="M 72.8594 56.8594 L 92.791 76.791 L -48.6303 218.212 L -68.562 198.281 Z"
               id="path1183"
               style="fill:#1a559e;fill-opacity:1" />
            <path
               d="M 92.791 76.791 L 112.721 56.8594 L -28.7007 198.281 L -48.6303 218.212 Z"
               id="path1185"
               style="fill:#1a559e;fill-opacity:1" />
            <path
               d="M 112.721 56.8594 L 92.791 36.9297 L -48.6303 178.351 L -28.7007 198.281 Z"
               id="path1187"
               style="fill:#1a559e;fill-opacity:1" />
            <path
               d="M 33 47.5586 L 117.99 217.541 L -23.4311 358.962 L -108.421 188.98 Z"
               id="path1189"
               style="fill:#1a559e;fill-opacity:1" />
            <path
               d="M 117.99 217.541 L 147.385 188.146 L 5.96341 329.568 L -23.4311 358.962 Z"
               id="path1191"
               style="fill:#1a559e;fill-opacity:1" />
            <path
               d="M 147.385 188.146 L 172.881 213.643 L 31.4595 355.064 L 5.96341 329.568 Z"
               id="path1193"
               style="fill:#1a559e;fill-opacity:1" />
            <path
               d="M 172.881 213.643 C 176.355 217.118 181.068 219.07 185.982 219.07 L 44.5611 360.491 C 39.6469 360.491 34.9341 358.539 31.4595 355.064 Z"
               id="path1195"
               style="fill:#1a559e;fill-opacity:1" />
            <path
               d="M 185.982 219.07 C 190.896 219.07 195.609 217.118 199.083 213.643 L 57.6618 355.065 C 54.1873 358.539 49.4748 360.491 44.5611 360.491 Z"
               id="path1197"
               style="fill:#1a559e;fill-opacity:1" />
            <path
               d="M 199.083 213.643 C 199.083 213.643 199.084 213.643 199.084 213.643 L 57.6626 355.064 C 57.6623 355.064 57.6621 355.064 57.6618 355.065 Z"
               id="path1199"
               style="fill:#1a559e;fill-opacity:1" />
            <path
               d="M 199.084 213.643 C 206.319 206.407 206.319 194.677 199.084 187.441 L 57.6626 328.863 C 64.8978 336.098 64.8978 347.829 57.6626 355.064 Z"
               id="path1201"
               style="fill:#1a559e;fill-opacity:1" />
            <path
               d="M 199.084 187.441 L 173.588 161.945 L 32.1665 303.367 L 57.6626 328.863 Z"
               id="path1203"
               style="fill:#1a559e;fill-opacity:1" />
            <path
               d="M 173.588 161.945 L 202.982 132.551 L 61.5611 273.972 L 32.1665 303.367 Z"
               id="path1205"
               style="fill:#1a559e;fill-opacity:1" />
            <path
               d="M 202.982 132.551 L 194.213 128.166 L 52.7915 269.587 L 61.5611 273.972 Z"
               id="path1207"
               style="fill:#1a559e;fill-opacity:1" />
            <path
               d="M 194.213 128.166 L 223 99.377 L 81.5786 240.798 L 52.7915 269.587 Z"
               id="path1209"
               style="fill:#1a559e;fill-opacity:1" />
            <path
               d="M 223 99.377 L 193.105 69.4824 L 51.6841 210.904 L 81.5786 240.798 Z"
               id="path1211"
               style="fill:#1a559e;fill-opacity:1" />
            <path
               d="M 193.105 69.4824 L 163.209 99.377 L 21.7876 240.798 L 51.6841 210.904 Z"
               id="path1213"
               style="fill:#1a559e;fill-opacity:1" />
            <path
               d="M 163.209 99.377 L 193.105 129.273 L 51.6841 270.695 L 21.7876 240.798 Z"
               id="path1215"
               style="fill:#1a559e;fill-opacity:1" />
            <path
               d="M 193.105 129.273 L 178.49 143.889 L 37.0689 285.31 L 51.6841 270.695 Z"
               id="path1217"
               style="fill:#1a559e;fill-opacity:1" />
            <path
               d="M 178.49 143.889 L 148.594 113.992 L 7.17239 255.414 L 37.0689 285.31 Z"
               id="path1219"
               style="fill:#1a559e;fill-opacity:1" />
            <path
               d="M 148.594 113.992 L 154.352 108.236 L 12.9302 249.658 L 7.17239 255.414 Z"
               id="path1221"
               style="fill:#1a559e;fill-opacity:1" />
            <path
               d="M 154.352 108.236 L 136.637 99.377 L -4.78464 240.798 L 12.9302 249.658 Z"
               id="path1223"
               style="fill:#1a559e;fill-opacity:1" />
            <path
               d="M 136.637 99.377 L 122.021 113.992 L -19.3999 255.414 L -4.78464 240.798 Z"
               id="path1225"
               style="fill:#1a559e;fill-opacity:1" />
            <path
               d="M 122.021 113.992 L 98.7695 90.7402 L -42.6518 232.162 L -19.3999 255.414 Z"
               id="path1227"
               style="fill:#1a559e;fill-opacity:1" />
            <path
               d="M 98.7695 90.7402 L 105.635 83.875 L -35.7866 225.296 L -42.6518 232.162 Z"
               id="path1229"
               style="fill:#1a559e;fill-opacity:1" />
            <path
               d="M 105.635 83.875 L 92.3477 77.2324 L -49.0737 218.654 L -35.7866 225.296 Z"
               id="path1231"
               style="fill:#1a559e;fill-opacity:1" />
            <path
               d="M 92.3477 77.2324 L 82.1602 87.4199 L -59.2612 228.841 L -49.0737 218.654 Z"
               id="path1233"
               style="fill:#1a559e;fill-opacity:1" />
            <path
               d="M 82.1602 87.4199 L 62.2305 67.4902 L -79.1909 208.912 L -59.2612 228.841 Z"
               id="path1235"
               style="fill:#1a559e;fill-opacity:1" />
            <path
               d="M 62.2305 67.4902 L 65.7734 63.9453 L -75.6479 205.367 L -79.1909 208.912 Z"
               id="path1237"
               style="fill:#1a559e;fill-opacity:1" />
            <path
               d="M 65.7734 63.9453 L 92.791 36.9297 L -48.6303 178.351 L -75.6479 205.367 Z"
               id="path1239"
               style="fill:#1a559e;fill-opacity:1" />
            <path
               d="M 136.637 99.377 L 159.889 76.125 L 18.4673 217.546 L -4.78464 240.798 Z"
               id="path1241"
               style="fill:#1a559e;fill-opacity:1" />
            <path
               d="M 159.889 76.125 L 136.637 52.873 L -4.78464 194.294 L 18.4673 217.546 Z"
               id="path1243"
               style="fill:#1a559e;fill-opacity:1" />
            <path
               d="M 136.637 52.873 L 113.385 76.125 L -28.0366 217.546 L -4.78464 194.294 Z"
               id="path1245"
               style="fill:#1a559e;fill-opacity:1" />
            <path
               d="M 113.385 76.125 L 92.791 36.9297 L -48.6303 178.351 L -28.0366 217.546 Z"
               id="path1247"
               style="fill:#1a559e;fill-opacity:1" />
          </g>
          <path
             style="color:#000000;fill:#1a559e;stroke-width:2.4039px;-inkscape-stroke:none;fill-opacity:1"
             d="M 92.791016,36.929688 72.859375,56.859375 92.791016,76.791016 112.7207,56.859375 Z M 33,47.558594 l 84.99023,169.982426 29.39454,-29.39454 25.49609,25.4961 a 18.527232,18.527232 0 0 0 26.20312,0 18.527232,18.527232 0 0 0 0,-26.20117 l -25.49609,-25.4961 29.39453,-29.39453 -8.76953,-4.38476 L 223,99.376953 193.10547,69.482422 l -29.89649,29.894531 29.89649,29.896487 -14.61524,14.61523 -29.89648,-29.89648 5.75781,-5.75586 L 136.63672,99.376953 122.02148,113.99219 98.769531,90.740234 105.63477,83.875 92.347656,77.232422 82.160156,87.419922 62.230469,67.490234 65.773438,63.945312 Z M 136.63672,99.376953 159.88867,76.125 136.63672,52.873047 113.38477,76.125 Z"
             id="path867" />
        </g>
      </g>
    </g>
    <g
       id="g2106"
       transform="matrix(0.66433561,-0.66433561,0.66433561,0.66433561,-583.07971,397.91163)">
      <g
         id="g2099">
        <path
           id="path1030"
           style="fill:#ffffff;fill-opacity:1;stroke:none;stroke-width:2.55867px;stroke-linecap:butt;stroke-linejoin:miter;stroke-opacity:1"
           d="M 128,3 64.033203,194.90039 H 108.2793 V 233.2793 A 19.72005,19.72005 0 0 0 128,253 19.72005,19.72005 0 0 0 147.7207,233.2793 v -38.37891 h 44.2461 L 188.66602,185 H 165 v -45 h 8.66602 L 167,120 H 145 V 85 h 10.33398 l -5,-15 H 135 V 40 h 5.33398 z"
           transform="translate(0,796.36216)" />
        <rect
           style="fill:#ffffff;fill-opacity:1;stroke:none;stroke-width:18;stroke-linecap:round;stroke-miterlimit:4;stroke-dasharray:none"
           id="rect2087"
           width="30"
           height="30"
           x="151"
           y="836.36218" />
        <rect
           style="fill:#ffffff;fill-opacity:1;stroke:none;stroke-width:21;stroke-linecap:round;stroke-miterlimit:4;stroke-dasharray:none"
           id="rect2090"
           width="35"
           height="35"
           x="167"
           y="881.36218" />
      </g>
      <rect
         style="fill:#ffffff;fill-opacity:1;stroke:none;stroke-width:27;stroke-linecap:round;stroke-miterlimit:4;stroke-dasharray:none"
         id="rect2093"
         width="45"
         height="45"
         x="187"
         y="936.36218" />
    </g>
  </g>
</svg>
