<?xml version="1.0" encoding="UTF-8" standalone="no"?>
<!-- Created with Inkscape (http://www.inkscape.org/) -->

<svg
   xmlns:dc="http://purl.org/dc/elements/1.1/"
   xmlns:cc="http://creativecommons.org/ns#"
   xmlns:rdf="http://www.w3.org/1999/02/22-rdf-syntax-ns#"
   xmlns:svg="http://www.w3.org/2000/svg"
   xmlns="http://www.w3.org/2000/svg"
   xmlns:sodipodi="http://sodipodi.sourceforge.net/DTD/sodipodi-0.dtd"
   xmlns:inkscape="http://www.inkscape.org/namespaces/inkscape"
   width="256"
   height="256"
   viewBox="0 0 256 256"
   id="svg2"
   version="1.1"
   inkscape:version="0.91 r13725"
   sodipodi:docname="org.gnome.Polari.svg">
  <sodipodi:namedview
     id="base"
     pagecolor="#ffffff"
     bordercolor="#666666"
     borderopacity="1.0"
     inkscape:pageopacity="0.0"
     inkscape:pageshadow="2"
     inkscape:zoom="3.3632812"
     inkscape:cx="73.886178"
     inkscape:cy="129.84445"
     inkscape:document-units="px"
     inkscape:current-layer="layer1"
     showgrid="true"
     units="px"
     inkscape:window-width="1920"
     inkscape:window-height="1054"
     inkscape:window-x="0"
     inkscape:window-y="0"
     inkscape:window-maximized="1" />
  <defs
     id="defs4">
    <clipPath
       id="clipPath5002"
       clipPathUnits="userSpaceOnUse">
      <g
         id="g5004">
        <path
           style="fill:#0f9d58;fill-opacity:1;stroke:none;stroke-width:4.85768509;stroke-linejoin:round;stroke-miterlimit:4;stroke-dasharray:none;stroke-opacity:1"
           d="M 88.118406,249.43519 C 46.103287,235.29134 14.771284,201.68742 4.1335861,159.36053 1.3377997,148.23623 0.92261224,144.16281 0.92582381,127.88908 0.92787958,117.47222 1.134384,112.01362 1.6577819,108.54099 4.4653598,89.913336 12.17654,70.638106 23.042737,55.086148 c 3.958678,-5.665755 8.344812,-10.93092 9.101533,-10.925587 0.32809,0.0023 10.488643,18.309713 22.579009,40.683112 12.090365,22.373397 22.374546,41.334697 22.853732,42.136217 0.479186,0.80151 0.924733,2.44098 0.990103,3.64326 0.343424,6.31639 2.524175,14.20976 5.6424,20.42304 2.954444,5.88693 5.065381,8.73258 10.434696,14.06652 6.71418,6.66995 12.88853,10.28643 21.73204,12.72904 3.16587,0.87442 5.10478,1.05037 11.57517,1.05037 8.82596,0 12.60219,-0.76201 19.26429,-3.88733 2.04584,-0.95974 3.93661,-1.66536 4.20172,-1.56805 0.2651,0.0973 -11.0555,17.66459 -25.1569,39.0384 l -25.6389,38.86148 -3.094121,0.11221 c -2.554618,0.0927 -4.195204,-0.25845 -9.409103,-2.01364 z"
           id="path5006"
           inkscape:connector-curvature="0"
           transform="translate(0,796.36216)" />
        <path
           style="fill:#f4b400;fill-opacity:1;stroke:none;stroke-width:4.85768509;stroke-linejoin:round;stroke-miterlimit:4;stroke-dasharray:none;stroke-opacity:1"
           d="m 112.35984,1051.5167 c -10.0014,-1.4495 -12.15632,-1.8201 -12.531784,-2.1556 -0.248854,-0.2223 1.738304,-3.7475 4.550294,-8.0722 7.16635,-11.0213 49.77231,-74.64801 50.25856,-75.05489 3.57509,-2.99158 8.63523,-8.0414 10.57512,-10.55356 3.36154,-4.35318 7.55784,-12.9141 9.06523,-18.494 6.19314,-22.92535 -2.59253,-47.15185 -21.69967,-59.83688 l -2.96081,-1.96565 17.02469,0.29584 c 9.36358,0.1627 31.17032,0.43384 48.45941,0.60252 l 31.43471,0.30668 1.54584,4.18869 c 2.24597,6.08579 4.67816,15.0947 5.93451,21.9816 1.52517,8.36049 1.92536,28.85896 0.73851,37.82758 -3.0805,23.27845 -12.81326,45.72018 -27.80202,64.10577 -20.47622,25.1166 -51.4599,42.1974 -84.14612,46.3885 -5.31244,0.6812 -26.64601,0.9864 -30.44647,0.4356 z"
           id="path5008"
           inkscape:connector-curvature="0" />
        <path
           style="fill:#db4437;fill-opacity:1;stroke:none;stroke-width:10;stroke-linejoin:round;stroke-miterlimit:4;stroke-dasharray:none;stroke-opacity:1"
           d="M 67.989788,108.87302 C 41.284246,59.575543 33.290284,45.149038 32.233625,44.344765 31.651257,43.901497 32.811213,42.549931 38.695603,36.815353 53.43581,22.450419 68.809334,13.040746 87.839196,6.7360352 101.68742,2.1480329 112.58238,0.43719165 127.95142,0.43719165 c 21.3099,0 37.80488,3.80960275 56.83492,13.12633035 25.29351,12.383198 46.19421,33.578863 58.51993,59.345832 1.61138,3.368591 2.92978,6.372442 2.92978,6.675231 0,0.560033 -10.54865,0.49527 -71.16508,-0.436914 l -24.28843,-0.373518 -3.93063,-1.764495 c -6.75732,-3.033425 -10.64587,-3.839529 -18.6576,-3.867747 -5.0296,-0.01773 -7.97946,0.207636 -10.31642,0.788106 -14.50826,3.603659 -26.283291,12.94777 -33.291614,26.418653 -3.58502,6.89086 -5.24713,13.08166 -6.331628,23.58317 l -0.33738,3.26696 -9.92748,-18.32578 z"
           id="path5010"
           inkscape:connector-curvature="0"
           transform="translate(0,796.36216)" />
      </g>
    </clipPath>
    <clipPath
       clipPathUnits="userSpaceOnUse"
       id="clipPath4271">
      <circle
         style="fill:#292929;fill-opacity:0.26020412;stroke:none;stroke-width:10;stroke-linejoin:round;stroke-miterlimit:4;stroke-dasharray:none;stroke-opacity:0.25882353"
         id="circle4273"
         cx="128"
         cy="128.00002"
         r="128" />
    </clipPath>
    <clipPath
       id="clipPath4363"
       clipPathUnits="userSpaceOnUse">
      <circle
         style="fill:#4285f4;fill-opacity:1;stroke:none;stroke-width:10;stroke-linejoin:round;stroke-miterlimit:4;stroke-dasharray:none;stroke-opacity:0.25882353"
         id="circle4365"
         cx="128"
         cy="924.36218"
         r="128" />
    </clipPath>
    <clipPath
       clipPathUnits="userSpaceOnUse"
       id="clipPath4452">
      <circle
         style="fill:#4285f4;fill-opacity:1;stroke:none;stroke-width:10;stroke-linejoin:round;stroke-miterlimit:4;stroke-dasharray:none;stroke-opacity:0.25882353"
         id="circle4454"
         cx="128"
         cy="924.36218"
         r="128" />
    </clipPath>
    <clipPath
       id="clipPath5177"
       clipPathUnits="userSpaceOnUse">
      <circle
         style="fill:#4285f4;fill-opacity:1;stroke:none;stroke-width:10;stroke-linejoin:round;stroke-miterlimit:4;stroke-dasharray:none;stroke-opacity:0.25882353"
         id="circle5179"
         cx="128"
         cy="924.36218"
         r="128" />
    </clipPath>
    <clipPath
       clipPathUnits="userSpaceOnUse"
       id="clipPath4342">
      <circle
         style="fill:#4285f4;fill-opacity:1;stroke:none;stroke-width:10;stroke-linejoin:round;stroke-miterlimit:4;stroke-dasharray:none;stroke-opacity:0.25882353"
         id="circle4344"
         cx="128"
         cy="933.48718"
         r="128" />
    </clipPath>
    <clipPath
       id="clipPath4373"
       clipPathUnits="userSpaceOnUse">
      <circle
         style="fill:#4285f4;fill-opacity:1;stroke:none;stroke-width:10;stroke-linejoin:round;stroke-miterlimit:4;stroke-dasharray:none;stroke-opacity:0.25882353"
         id="circle4375"
         cx="128"
         cy="924.36218"
         r="128" />
    </clipPath>
    <clipPath
       clipPathUnits="userSpaceOnUse"
       id="clipPath4484">
      <circle
         style="fill:#4285f4;fill-opacity:1;stroke:none;stroke-width:10;stroke-linejoin:round;stroke-miterlimit:4;stroke-dasharray:none;stroke-opacity:0.25882353"
         id="circle4486"
         cx="128"
         cy="933.47552"
         r="128" />
    </clipPath>
    <clipPath
       id="clipPath4344"
       clipPathUnits="userSpaceOnUse">
      <circle
         style="fill:#4285f4;fill-opacity:1;stroke:none;stroke-width:10;stroke-linejoin:round;stroke-miterlimit:4;stroke-dasharray:none;stroke-opacity:0.25882353"
         id="circle4346"
         cx="128"
         cy="128.00002"
         r="128" />
    </clipPath>
    <clipPath
       clipPathUnits="userSpaceOnUse"
       id="clipPath4428">
      <circle
         style="fill:#9cc674;fill-opacity:1;stroke:none;stroke-width:10;stroke-linejoin:round;stroke-miterlimit:4;stroke-dasharray:none;stroke-opacity:0.25882353"
         id="circle4430"
         cx="128"
         cy="128.00002"
         r="128" />
    </clipPath>
  </defs>
  <metadata
     id="metadata7">
    <rdf:RDF>
      <cc:Work
         rdf:about="">
        <dc:format>image/svg+xml</dc:format>
        <dc:type
           rdf:resource="http://purl.org/dc/dcmitype/StillImage" />
        <dc:title />
      </cc:Work>
    </rdf:RDF>
  </metadata>
  <g
     inkscape:label="Layer 1"
     inkscape:groupmode="layer"
     id="layer1"
     transform="translate(0,-796.36216)">
    <path
       style="fill:none;fill-rule:evenodd;stroke:none;stroke-width:1px;stroke-linecap:butt;stroke-linejoin:miter;stroke-opacity:1"
       d="M 154.47438,968.80998 101.03985,1048.476 0.4857685,1048.9618 0,842.0244 l 33.032258,-2.42884 45.176471,83.55218 21.373814,35.4611 26.717267,13.11575 z"
       id="path4913"
       inkscape:connector-curvature="0" />
    <circle
       r="128"
       cy="924.36218"
       cx="128"
       id="path4152"
       style="fill:#9cc674;fill-opacity:1;stroke:none;stroke-width:10;stroke-linejoin:round;stroke-miterlimit:4;stroke-dasharray:none;stroke-opacity:0.25882353" />
    <g
       id="g4250"
       transform="translate(0,796.36216)"
       clip-path="url(#clipPath4428)"
       style="fill:#6e9d40;fill-opacity:1">
      <g
         id="g4252"
         style="fill:#6e9d40;fill-opacity:1;stroke:none;stroke-opacity:1">
        <path
           id="path4254"
           d="M69.001953 68.423828C61.7996928751 68.423828 55.2995985763 71.3230379988 50.5998723532 76.0227642219L-90.8214838841 217.444120459C-86.121757661 212.744394236 -79.6216633622 209.845184237 -72.4194032373 209.845184237Z"
           style="fill:#6e9d40;fill-opacity:1" />
        <path
           id="path4256"
           d="M50.5998723532 76.0227642219C45.8995074613 80.7231291138 43.0 87.2244996252 43.0 94.427734L-98.4213562373 235.849090237C-98.4213562373 228.645855862 -95.521848776 222.144485351 -90.8214838841 217.444120459Z"
           style="fill:#6e9d40;fill-opacity:1" />
        <path
           id="path4258"
           d="M43.0 94.427734L43.0 159.35938L-98.4213562373 300.780736237L-98.4213562373 235.849090237Z"
           style="fill:#6e9d40;fill-opacity:1" />
        <path
           id="path4260"
           d="M43.0 159.35938C43.0 173.76487 54.596454 185.36523 69.001953 185.36523L-72.4194032373 326.786586237C-86.8249022373 326.786586237 -98.4213562373 315.186226237 -98.4213562373 300.780736237Z"
           style="fill:#6e9d40;fill-opacity:1" />
        <path
           id="path4262"
           d="M69.001953 185.36523L81.318359 185.36523L-60.1029972373 326.786586237L-72.4194032373 326.786586237Z"
           style="fill:#6e9d40;fill-opacity:1" />
        <path
           id="path4264"
           d="M81.318359 185.36523L81.982422 185.36523L-59.4389342373 326.786586237L-60.1029972373 326.786586237Z"
           style="fill:#6e9d40;fill-opacity:1" />
        <path
           id="path4266"
           d="M81.982422 185.36523L66.716797 215.57617L-74.7045592373 356.997526237L-59.4389342373 326.786586237Z"
           style="fill:#6e9d40;fill-opacity:1" />
        <path
           id="path4268"
           d="M66.716797 215.57617L107.11133 185.36523L-34.3100262373 326.786586237L-74.7045592373 356.997526237Z"
           style="fill:#6e9d40;fill-opacity:1" />
        <path
           id="path4270"
           d="M107.11133 185.36523L186.99609 185.36523L45.5747337627 326.786586237L-34.3100262373 326.786586237Z"
           style="fill:#6e9d40;fill-opacity:1" />
        <path
           id="path4272"
           d="M186.99609 185.36523C194.19835 185.36523 200.698937004 182.465530545 205.399154237 177.765313312L63.9777979997 319.186669549C59.2775807671 323.886886782 52.7769937627 326.786586237 45.5747337627 326.786586237Z"
           style="fill:#6e9d40;fill-opacity:1" />
        <path
           id="path4274"
           d="M205.399154237 177.765313312C210.100004494 173.064463054 213.0 166.56261 213.0 159.35938L71.5786437627 300.780736237C71.5786437627 307.983966237 68.6786482572 314.485819292 63.9777979997 319.186669549Z"
           style="fill:#6e9d40;fill-opacity:1" />
        <path
           id="path4276"
           d="M213.0 159.35938L213.0 94.427734L71.5786437627 235.849090237L71.5786437627 300.780736237Z"
           style="fill:#6e9d40;fill-opacity:1" />
        <path
           id="path4278"
           d="M213.0 94.427734C213.0 80.022244 201.40158 68.423828 186.99609 68.423828L45.5747337627 209.845184237C59.9802237627 209.845184237 71.5786437627 221.443600237 71.5786437627 235.849090237Z"
           style="fill:#6e9d40;fill-opacity:1" />
        <path
           id="path4280"
           d="M186.99609 68.423828L69.001953 68.423828L-72.4194032373 209.845184237L45.5747337627 209.845184237Z"
           style="fill:#6e9d40;fill-opacity:1" />
        <path
           id="path4282"
           d="M118.54297 87.109375L130.94922 87.109375L-10.4721362373 228.530731237L-22.8783862373 228.530731237Z"
           style="fill:#6e9d40;fill-opacity:1" />
        <path
           id="path4284"
           d="M130.94922 87.109375L125.60742 108.5293L-15.8139362373 249.950656237L-10.4721362373 228.530731237Z"
           style="fill:#6e9d40;fill-opacity:1" />
        <path
           id="path4286"
           d="M125.60742 108.5293L140.29492 108.5293L-1.12643623731 249.950656237L-15.8139362373 249.950656237Z"
           style="fill:#6e9d40;fill-opacity:1" />
        <path
           id="path4288"
           d="M140.29492 108.5293L145.69141 87.109375L4.27005376269 228.530731237L-1.12643623731 249.950656237Z"
           style="fill:#6e9d40;fill-opacity:1" />
        <path
           id="path4290"
           d="M145.69141 87.109375L157.98633 87.109375L16.5649737627 228.530731237L4.27005376269 228.530731237Z"
           style="fill:#6e9d40;fill-opacity:1" />
        <path
           id="path4292"
           d="M157.98633 87.109375L152.58984 108.5293L11.1684837627 249.950656237L16.5649737627 228.530731237Z"
           style="fill:#6e9d40;fill-opacity:1" />
        <path
           id="path4294"
           d="M152.58984 108.5293L168.0 108.5293L26.5786437627 249.950656237L11.1684837627 249.950656237Z"
           style="fill:#6e9d40;fill-opacity:1" />
        <path
           id="path4296"
           d="M168.0 108.5293L168.0 120.37891L26.5786437627 261.800266237L26.5786437627 249.950656237Z"
           style="fill:#6e9d40;fill-opacity:1" />
        <path
           id="path4298"
           d="M168.0 120.37891L149.64062 120.37891L8.21926376269 261.800266237L26.5786437627 261.800266237Z"
           style="fill:#6e9d40;fill-opacity:1" />
        <path
           id="path4300"
           d="M149.64062 120.37891L145.80273 135.62109L4.38137376269 277.042446237L8.21926376269 261.800266237Z"
           style="fill:#6e9d40;fill-opacity:1" />
        <path
           id="path4302"
           d="M145.80273 135.62109L161.60156 135.62109L20.1802037627 277.042446237L4.38137376269 277.042446237Z"
           style="fill:#6e9d40;fill-opacity:1" />
        <path
           id="path4304"
           d="M161.60156 135.62109L161.60156 147.58203L20.1802037627 289.003386237L20.1802037627 277.042446237Z"
           style="fill:#6e9d40;fill-opacity:1" />
        <path
           id="path4306"
           d="M161.60156 147.58203L142.91016 147.58203L1.48880376269 289.003386237L20.1802037627 289.003386237Z"
           style="fill:#6e9d40;fill-opacity:1" />
        <path
           id="path4308"
           d="M142.91016 147.58203L137.56836 168.89062L-3.85299623731 310.311976237L1.48880376269 289.003386237Z"
           style="fill:#6e9d40;fill-opacity:1" />
        <path
           id="path4310"
           d="M137.56836 168.89062L125.27344 168.89062L-16.1479162373 310.311976237L-3.85299623731 310.311976237Z"
           style="fill:#6e9d40;fill-opacity:1" />
        <path
           id="path4312"
           d="M125.27344 168.89062L130.61523 147.58203L-10.8061262373 289.003386237L-16.1479162373 310.311976237Z"
           style="fill:#6e9d40;fill-opacity:1" />
        <path
           id="path4314"
           d="M130.61523 147.58203L115.92773 147.58203L-25.4936262373 289.003386237L-10.8061262373 289.003386237Z"
           style="fill:#6e9d40;fill-opacity:1" />
        <path
           id="path4316"
           d="M115.92773 147.58203L110.58789 168.89062L-30.8334662373 310.311976237L-25.4936262373 289.003386237Z"
           style="fill:#6e9d40;fill-opacity:1" />
        <path
           id="path4318"
           d="M110.58789 168.89062L98.181641 168.89062L-43.2397152373 310.311976237L-30.8334662373 310.311976237Z"
           style="fill:#6e9d40;fill-opacity:1" />
        <path
           id="path4320"
           d="M98.181641 168.89062L103.52148 147.58203L-37.8998762373 289.003386237L-43.2397152373 310.311976237Z"
           style="fill:#6e9d40;fill-opacity:1" />
        <path
           id="path4322"
           d="M103.52148 147.58203L88.0 147.58203L-53.4213562373 289.003386237L-37.8998762373 289.003386237Z"
           style="fill:#6e9d40;fill-opacity:1" />
        <path
           id="path4324"
           d="M88.0 147.58203L88.0 135.62109L-53.4213562373 277.042446237L-53.4213562373 289.003386237Z"
           style="fill:#6e9d40;fill-opacity:1" />
        <path
           id="path4326"
           d="M88.0 135.62109L106.24805 135.62109L-35.1733062373 277.042446237L-53.4213562373 277.042446237Z"
           style="fill:#6e9d40;fill-opacity:1" />
        <path
           id="path4328"
           d="M106.24805 135.62109L110.14258 120.37891L-31.2787762373 261.800266237L-35.1733062373 277.042446237Z"
           style="fill:#6e9d40;fill-opacity:1" />
        <path
           id="path4330"
           d="M110.14258 120.37891L94.398438 120.37891L-47.0229182373 261.800266237L-31.2787762373 261.800266237Z"
           style="fill:#6e9d40;fill-opacity:1" />
        <path
           id="path4332"
           d="M94.398438 120.37891L94.398438 108.5293L-47.0229182373 249.950656237L-47.0229182373 261.800266237Z"
           style="fill:#6e9d40;fill-opacity:1" />
        <path
           id="path4334"
           d="M94.398438 108.5293L113.20117 108.5293L-28.2201862373 249.950656237L-47.0229182373 249.950656237Z"
           style="fill:#6e9d40;fill-opacity:1" />
        <path
           id="path4336"
           d="M113.20117 108.5293L118.54297 87.109375L-22.8783862373 228.530731237L-28.2201862373 249.950656237Z"
           style="fill:#6e9d40;fill-opacity:1" />
        <path
           id="path4338"
           d="M122.54883 120.37891L118.6543 135.62109L-22.7670562373 277.042446237L-18.8725262373 261.800266237Z"
           style="fill:#6e9d40;fill-opacity:1" />
        <path
           id="path4340"
           d="M118.6543 135.62109L133.33984 135.62109L-8.08151623731 277.042446237L-22.7670562373 277.042446237Z"
           style="fill:#6e9d40;fill-opacity:1" />
        <path
           id="path4342"
           d="M133.33984 135.62109L137.23438 120.37891L-4.18697623731 261.800266237L-8.08151623731 277.042446237Z"
           style="fill:#6e9d40;fill-opacity:1" />
        <path
           id="path4344"
           d="M137.23438 120.37891L122.54883 120.37891L-18.8725262373 261.800266237L-4.18697623731 261.800266237Z"
           style="fill:#6e9d40;fill-opacity:1" />
      </g>
      <path
         style="fill:#6e9d40;fill-opacity:1;stroke:none;stroke-opacity:1"
         d="M 69.001953 68.423828 C 54.596454 68.423828 43 80.022244 43 94.427734 L 43 159.35938 C 43 173.76487 54.596454 185.36523 69.001953 185.36523 L 81.318359 185.36523 L 81.982422 185.36523 L 66.716797 215.57617 L 107.11133 185.36523 L 186.99609 185.36523 C 201.40158 185.36523 213 173.76487 213 159.35938 L 213 94.427734 C 213 80.022244 201.40158 68.423828 186.99609 68.423828 L 69.001953 68.423828 z M 118.54297 87.109375 L 130.94922 87.109375 L 125.60742 108.5293 L 140.29492 108.5293 L 145.69141 87.109375 L 157.98633 87.109375 L 152.58984 108.5293 L 168 108.5293 L 168 120.37891 L 149.64062 120.37891 L 145.80273 135.62109 L 161.60156 135.62109 L 161.60156 147.58203 L 142.91016 147.58203 L 137.56836 168.89062 L 125.27344 168.89062 L 130.61523 147.58203 L 115.92773 147.58203 L 110.58789 168.89062 L 98.181641 168.89062 L 103.52148 147.58203 L 88 147.58203 L 88 135.62109 L 106.24805 135.62109 L 110.14258 120.37891 L 94.398438 120.37891 L 94.398438 108.5293 L 113.20117 108.5293 L 118.54297 87.109375 z M 122.54883 120.37891 L 118.6543 135.62109 L 133.33984 135.62109 L 137.23438 120.37891 L 122.54883 120.37891 z "
         transform=""
         id="path4216" />
    </g>
    <text
       xml:space="preserve"
       style="font-style:normal;font-weight:normal;font-size:40px;line-height:125%;font-family:sans-serif;letter-spacing:0px;word-spacing:0px;fill:#000000;fill-opacity:1;stroke:none;stroke-width:1px;stroke-linecap:butt;stroke-linejoin:miter;stroke-opacity:1"
       x="120"
       y="927.36218"
       id="text4914"
       sodipodi:linespacing="125%"><tspan
         sodipodi:role="line"
         id="tspan4916"
         x="120"
         y="927.36218" /></text>
    <path
       id="rect4197"
       transform="translate(0,796.36216)"
       d="M 69.001953 68.423828 C 54.596454 68.423828 43 80.022244 43 94.427734 L 43 159.35938 C 43 173.76487 54.596454 185.36523 69.001953 185.36523 L 81.318359 185.36523 L 81.982422 185.36523 L 66.716797 215.57617 L 107.11133 185.36523 L 186.99609 185.36523 C 201.40158 185.36523 213 173.76487 213 159.35938 L 213 94.427734 C 213 80.022244 201.40158 68.423828 186.99609 68.423828 L 69.001953 68.423828 z M 118.54297 87.109375 L 130.94922 87.109375 L 125.60742 108.5293 L 140.29492 108.5293 L 145.69141 87.109375 L 157.98633 87.109375 L 152.58984 108.5293 L 168 108.5293 L 168 120.37891 L 149.64062 120.37891 L 145.80273 135.62109 L 161.60156 135.62109 L 161.60156 147.58203 L 142.91016 147.58203 L 137.56836 168.89062 L 125.27344 168.89062 L 130.61523 147.58203 L 115.92773 147.58203 L 110.58789 168.89062 L 98.181641 168.89062 L 103.52148 147.58203 L 88 147.58203 L 88 135.62109 L 106.24805 135.62109 L 110.14258 120.37891 L 94.398438 120.37891 L 94.398438 108.5293 L 113.20117 108.5293 L 118.54297 87.109375 z M 122.54883 120.37891 L 118.6543 135.62109 L 133.33984 135.62109 L 137.23438 120.37891 L 122.54883 120.37891 z "
       style="fill:#ffffff;fill-opacity:1;stroke:none;stroke-opacity:1" />
  </g>
</svg>
