<?xml version="1.0" encoding="UTF-8" standalone="no"?>
<!-- Created with Inkscape (http://www.inkscape.org/) -->

<svg
   xmlns:dc="http://purl.org/dc/elements/1.1/"
   xmlns:cc="http://creativecommons.org/ns#"
   xmlns:rdf="http://www.w3.org/1999/02/22-rdf-syntax-ns#"
   xmlns:svg="http://www.w3.org/2000/svg"
   xmlns="http://www.w3.org/2000/svg"
   xmlns:sodipodi="http://sodipodi.sourceforge.net/DTD/sodipodi-0.dtd"
   xmlns:inkscape="http://www.inkscape.org/namespaces/inkscape"
   sodipodi:docname="palemoon.svg"
   inkscape:version="0.91 r13725"
   version="1.1"
   id="svg2"
   viewBox="0 0 256 256"
   height="256"
   width="256">
  <sodipodi:namedview
     inkscape:window-maximized="1"
     inkscape:window-y="0"
     inkscape:window-x="0"
     inkscape:window-height="1033"
     inkscape:window-width="1920"
     units="px"
     showgrid="false"
     inkscape:current-layer="layer1"
     inkscape:document-units="px"
     inkscape:cy="128"
     inkscape:cx="50.551082"
     inkscape:zoom="2.0507812"
     inkscape:pageshadow="2"
     inkscape:pageopacity="0.0"
     borderopacity="1.0"
     bordercolor="#666666"
     pagecolor="#ffffff"
     id="base" />
  <defs
     id="defs4">
    <clipPath
       id="clipPath5002"
       clipPathUnits="userSpaceOnUse">
      <g
         id="g5004">
        <path
           style="fill:#0f9d58;fill-opacity:1;stroke:none;stroke-width:4.85768509;stroke-linejoin:round;stroke-miterlimit:4;stroke-dasharray:none;stroke-opacity:1"
           d="M 88.118406,249.43519 C 46.103287,235.29134 14.771284,201.68742 4.1335861,159.36053 1.3377997,148.23623 0.92261224,144.16281 0.92582381,127.88908 0.92787958,117.47222 1.134384,112.01362 1.6577819,108.54099 4.4653598,89.913336 12.17654,70.638106 23.042737,55.086148 c 3.958678,-5.665755 8.344812,-10.93092 9.101533,-10.925587 0.32809,0.0023 10.488643,18.309713 22.579009,40.683112 12.090365,22.373397 22.374546,41.334697 22.853732,42.136217 0.479186,0.80151 0.924733,2.44098 0.990103,3.64326 0.343424,6.31639 2.524175,14.20976 5.6424,20.42304 2.954444,5.88693 5.065381,8.73258 10.434696,14.06652 6.71418,6.66995 12.88853,10.28643 21.73204,12.72904 3.16587,0.87442 5.10478,1.05037 11.57517,1.05037 8.82596,0 12.60219,-0.76201 19.26429,-3.88733 2.04584,-0.95974 3.93661,-1.66536 4.20172,-1.56805 0.2651,0.0973 -11.0555,17.66459 -25.1569,39.0384 l -25.6389,38.86148 -3.094121,0.11221 c -2.554618,0.0927 -4.195204,-0.25845 -9.409103,-2.01364 z"
           id="path5006"
           inkscape:connector-curvature="0"
           transform="translate(0,796.36216)" />
        <path
           style="fill:#f4b400;fill-opacity:1;stroke:none;stroke-width:4.85768509;stroke-linejoin:round;stroke-miterlimit:4;stroke-dasharray:none;stroke-opacity:1"
           d="m 112.35984,1051.5167 c -10.0014,-1.4495 -12.15632,-1.8201 -12.531784,-2.1556 -0.248854,-0.2223 1.738304,-3.7475 4.550294,-8.0722 7.16635,-11.0213 49.77231,-74.64801 50.25856,-75.05489 3.57509,-2.99158 8.63523,-8.0414 10.57512,-10.55356 3.36154,-4.35318 7.55784,-12.9141 9.06523,-18.494 6.19314,-22.92535 -2.59253,-47.15185 -21.69967,-59.83688 l -2.96081,-1.96565 17.02469,0.29584 c 9.36358,0.1627 31.17032,0.43384 48.45941,0.60252 l 31.43471,0.30668 1.54584,4.18869 c 2.24597,6.08579 4.67816,15.0947 5.93451,21.9816 1.52517,8.36049 1.92536,28.85896 0.73851,37.82758 -3.0805,23.27845 -12.81326,45.72018 -27.80202,64.10577 -20.47622,25.1166 -51.4599,42.1974 -84.14612,46.3885 -5.31244,0.6812 -26.64601,0.9864 -30.44647,0.4356 z"
           id="path5008"
           inkscape:connector-curvature="0" />
        <path
           style="fill:#db4437;fill-opacity:1;stroke:none;stroke-width:10;stroke-linejoin:round;stroke-miterlimit:4;stroke-dasharray:none;stroke-opacity:1"
           d="M 67.989788,108.87302 C 41.284246,59.575543 33.290284,45.149038 32.233625,44.344765 31.651257,43.901497 32.811213,42.549931 38.695603,36.815353 53.43581,22.450419 68.809334,13.040746 87.839196,6.7360352 101.68742,2.1480329 112.58238,0.43719165 127.95142,0.43719165 c 21.3099,0 37.80488,3.80960275 56.83492,13.12633035 25.29351,12.383198 46.19421,33.578863 58.51993,59.345832 1.61138,3.368591 2.92978,6.372442 2.92978,6.675231 0,0.560033 -10.54865,0.49527 -71.16508,-0.436914 l -24.28843,-0.373518 -3.93063,-1.764495 c -6.75732,-3.033425 -10.64587,-3.839529 -18.6576,-3.867747 -5.0296,-0.01773 -7.97946,0.207636 -10.31642,0.788106 -14.50826,3.603659 -26.283291,12.94777 -33.291614,26.418653 -3.58502,6.89086 -5.24713,13.08166 -6.331628,23.58317 l -0.33738,3.26696 -9.92748,-18.32578 z"
           id="path5010"
           inkscape:connector-curvature="0"
           transform="translate(0,796.36216)" />
      </g>
    </clipPath>
    <radialGradient
       gradientUnits="userSpaceOnUse"
       gradientTransform="matrix(0.7100982,0,0,-0.69667735,-12.931184,1000.262)"
       r="322.22"
       cy="216.92"
       cx="278.95999"
       id="SVGID21">
      <stop
         id="stop131"
         stop-color="#ffffff"
         offset="0.119" />
      <stop
         id="stop133"
         stop-color="#fffffa"
         offset="0.122" />
      <stop
         id="stop135"
         stop-color="#ffe560"
         offset="0.25" />
      <stop
         id="stop137"
         stop-color="#ffdf56"
         offset="0.287" />
      <stop
         id="stop139"
         stop-color="#f8d03b"
         offset="0.347" />
      <stop
         id="stop141"
         stop-color="#f0be1b"
         offset="0.406" />
      <stop
         id="stop143"
         stop-color="#eb9d23"
         offset="0.473" />
      <stop
         id="stop145"
         stop-color="#e57c27"
         offset="0.548" />
      <stop
         id="stop147"
         stop-color="#dd5626"
         offset="0.765" />
      <stop
         id="stop149"
         stop-color="#c33a28"
         offset="0.903" />
      <stop
         id="stop151"
         stop-color="#b02228"
         offset="1" />
    </radialGradient>
    <clipPath
       id="clipPath6128"
       clipPathUnits="userSpaceOnUse">
      <circle
         style="opacity:1;fill:#4285f4;fill-opacity:1;stroke:none;stroke-width:20.51976967;stroke-linecap:round;stroke-linejoin:round;stroke-miterlimit:4;stroke-dasharray:none;stroke-opacity:1"
         id="circle6130"
         cx="128"
         cy="925.362"
         r="128" />
    </clipPath>
    <clipPath
       clipPathUnits="userSpaceOnUse"
       id="clipPath6618">
      <circle
         style="opacity:1;fill:#4285f4;fill-opacity:1;stroke:none;stroke-width:20.51976967;stroke-linecap:round;stroke-linejoin:round;stroke-miterlimit:4;stroke-dasharray:none;stroke-opacity:1"
         id="circle6620"
         cx="128"
         cy="925.362"
         r="128" />
    </clipPath>
    <clipPath
       clipPathUnits="userSpaceOnUse"
       id="clipPath5379">
      <circle
         style="opacity:1;fill:#4285f4;fill-opacity:1;stroke:none;stroke-width:20.51976967;stroke-linecap:round;stroke-linejoin:round;stroke-miterlimit:4;stroke-dasharray:none;stroke-opacity:1"
         id="circle5381"
         cx="128"
         cy="925.362"
         r="128" />
    </clipPath>
  </defs>
  <metadata
     id="metadata7">
    <rdf:RDF>
      <cc:Work
         rdf:about="">
        <dc:format>image/svg+xml</dc:format>
        <dc:type
           rdf:resource="http://purl.org/dc/dcmitype/StillImage" />
        <dc:title />
      </cc:Work>
    </rdf:RDF>
  </metadata>
  <g
     inkscape:label="Layer 1"
     inkscape:groupmode="layer"
     id="layer1"
     transform="translate(0,-796.36216)">
    <path
       style="fill:none;fill-rule:evenodd;stroke:none;stroke-width:1px;stroke-linecap:butt;stroke-linejoin:miter;stroke-opacity:1"
       d="M 154.47438,968.80998 101.03985,1048.476 0.4857685,1048.9618 0,842.0244 l 33.032258,-2.42884 45.176471,83.55218 21.373814,35.4611 26.717267,13.11575 z"
       id="path4913"
       inkscape:connector-curvature="0" />
    <path
       inkscape:connector-curvature="0"
       style="opacity:0.95999995;fill:#600000;fill-opacity:0;stroke:#ffffff;stroke-width:9.6054287;stroke-linecap:round;stroke-linejoin:miter;stroke-miterlimit:4;stroke-dasharray:none;stroke-opacity:1"
       d="m 171.48957,922.48105 a 44.647257,48.224016 0 0 1 -44.64726,48.22393 44.647257,48.224016 0 0 1 -44.647261,-48.22393 44.647257,48.224016 0 0 1 44.647261,-48.22403 44.647257,48.224016 0 0 1 44.64726,48.22403 z"
       id="path4940" />
    <circle
       r="128"
       cy="925.362"
       cx="128"
       id="path4152"
       style="opacity:1;fill:#4285f4;fill-opacity:1;stroke:none;stroke-width:20.51976967;stroke-linecap:round;stroke-linejoin:round;stroke-miterlimit:4;stroke-dasharray:none;stroke-opacity:1" />
    <g
       id="g5253"
       clip-path="url(#clipPath5379)"
       style="fill:#09419d;fill-opacity:1">
      <g
         style="fill:#09419d;fill-opacity:1;stroke:none;stroke-width:10;stroke-linecap:butt;stroke-linejoin:miter;stroke-miterlimit:4;stroke-dasharray:none;stroke-opacity:1"
         id="g5255" />
      <g
         id="g5321"
         style="fill:#09419d;fill-opacity:1">
        <g
           id="g5323"
           style="fill:#09419d;fill-opacity:1;stroke:none;stroke-width:10;stroke-linecap:butt;stroke-linejoin:miter;stroke-miterlimit:4;stroke-dasharray:none;stroke-opacity:1">
          <path
             id="path5325"
             d="M136.12186 828.83826C134.28119 828.85006 132.44124 828.91456 130.60427 829.03182L-81.527764356 1041.16385436C-79.690794356 1041.04659436 -77.850844356 1040.98209436 -76.010174356 1040.97029436Z"
             style="fill:#09419d;fill-opacity:1" />
          <path
             id="path5327"
             d="M130.60427 829.03182C197.40735042 866.690729516 186.987331017 943.446039704 146.237232034 984.196138688L-65.8948023218 1196.32817304C-25.1447033385 1155.57807406 -14.7246839356 1078.82276387 -81.527764356 1041.16385436Z"
             style="fill:#09419d;fill-opacity:1" />
          <path
             id="path5329"
             d="M146.237232034 984.196138688C131.508208699 998.925162023 112.816732451 1008.95030868 92.377142 1010.7252L-119.754892356 1222.85723436C-99.3153019051 1221.08234304 -80.6238256574 1211.05719638 -65.8948023218 1196.32817304Z"
             style="fill:#09419d;fill-opacity:1" />
          <path
             id="path5331"
             d="M92.377142 1010.7252C105.91403 1017.6743 120.90555 1021.3151 136.12186 1021.3489L-76.010174356 1233.48093436C-91.226484356 1233.44713436 -106.218004356 1229.80633436 -119.754892356 1222.85723436Z"
             style="fill:#09419d;fill-opacity:1" />
          <path
             id="path5333"
             d="M136.12186 1021.3489C165.544771612 1018.30874287 187.008051272 1007.86337231 201.573634374 993.297789208L-10.5583999821 1205.42982356C-25.1239830843 1219.99540667 -46.5872627435 1230.44077723 -76.010174356 1233.48093436Z"
             style="fill:#09419d;fill-opacity:1" />
          <path
             id="path5335"
             d="M201.573634374 993.297789208C254.939569627 939.931853955 215.712839865 831.257388337 136.12186 828.83826L-76.010174356 1040.97029436C3.58080550944 1043.38942269 42.8075352714 1152.06388831 -10.5583999821 1205.42982356Z"
             style="fill:#09419d;fill-opacity:1" />
        </g>
        <path
           sodipodi:nodetypes="ccccc"
           inkscape:connector-curvature="0"
           id="path5221"
           d="m 136.12186,828.83826 c -1.84067,0.0118 -3.68062,0.0763 -5.51759,0.19356 90.94889,51.27063 38.76172,175.00798 -38.227128,181.69338 13.536888,6.9491 28.528408,10.5899 43.744718,10.6237 137.22369,-14.1788 101.31437,-189.43124 0,-192.51064 z"
           style="fill:#09419d;fill-opacity:1;stroke:none;stroke-width:10;stroke-linecap:butt;stroke-linejoin:miter;stroke-miterlimit:4;stroke-dasharray:none;stroke-opacity:1" />
      </g>
    </g>
    <path
       style="fill:#ffffff;fill-opacity:1;stroke:none;stroke-width:10;stroke-linecap:butt;stroke-linejoin:miter;stroke-miterlimit:4;stroke-dasharray:none;stroke-opacity:1"
       d="m 136.12186,828.83826 a 96.255286,96.255286 0 0 0 -5.51759,0.19356 96.255286,96.255286 0 0 1 52.51057,85.63392 96.255286,96.255286 0 0 1 -90.737698,96.05946 96.255286,96.255286 0 0 0 43.744718,10.6237 96.255286,96.255286 0 0 0 96.25528,-96.25535 96.255286,96.255286 0 0 0 -96.25528,-96.25529 z"
       id="path4155"
       inkscape:connector-curvature="0" />
  </g>
</svg>
