<?xml version="1.0" encoding="UTF-8" standalone="no"?>
<!-- Created with Inkscape (http://www.inkscape.org/) -->

<svg
   xmlns:dc="http://purl.org/dc/elements/1.1/"
   xmlns:cc="http://creativecommons.org/ns#"
   xmlns:rdf="http://www.w3.org/1999/02/22-rdf-syntax-ns#"
   xmlns:svg="http://www.w3.org/2000/svg"
   xmlns="http://www.w3.org/2000/svg"
   xmlns:sodipodi="http://sodipodi.sourceforge.net/DTD/sodipodi-0.dtd"
   xmlns:inkscape="http://www.inkscape.org/namespaces/inkscape"
   sodipodi:docname="paraview.svg"
   inkscape:version="0.91 r13725"
   version="1.1"
   id="svg2"
   viewBox="0 0 256 256"
   height="256"
   width="256">
  <sodipodi:namedview
     inkscape:window-maximized="1"
     inkscape:window-y="0"
     inkscape:window-x="0"
     inkscape:window-height="1054"
     inkscape:window-width="1920"
     units="px"
     showgrid="true"
     inkscape:current-layer="layer1"
     inkscape:document-units="px"
     inkscape:cy="128"
     inkscape:cx="128"
     inkscape:zoom="3.3632812"
     inkscape:pageshadow="2"
     inkscape:pageopacity="0.0"
     borderopacity="1.0"
     bordercolor="#666666"
     pagecolor="#ffffff"
     id="base">
    <inkscape:grid
       type="xygrid"
       id="grid4168"
       spacingx="5"
       spacingy="5" />
  </sodipodi:namedview>
  <defs
     id="defs4">
    <clipPath
       clipPathUnits="userSpaceOnUse"
       id="clipPath5002">
      <g
         id="g5004">
        <path
           transform="translate(0,796.36216)"
           inkscape:connector-curvature="0"
           id="path5006"
           d="M 88.118406,249.43519 C 46.103287,235.29134 14.771284,201.68742 4.1335861,159.36053 1.3377997,148.23623 0.92261224,144.16281 0.92582381,127.88908 0.92787958,117.47222 1.134384,112.01362 1.6577819,108.54099 4.4653598,89.913336 12.17654,70.638106 23.042737,55.086148 c 3.958678,-5.665755 8.344812,-10.93092 9.101533,-10.925587 0.32809,0.0023 10.488643,18.309713 22.579009,40.683112 12.090365,22.373397 22.374546,41.334697 22.853732,42.136217 0.479186,0.80151 0.924733,2.44098 0.990103,3.64326 0.343424,6.31639 2.524175,14.20976 5.6424,20.42304 2.954444,5.88693 5.065381,8.73258 10.434696,14.06652 6.71418,6.66995 12.88853,10.28643 21.73204,12.72904 3.16587,0.87442 5.10478,1.05037 11.57517,1.05037 8.82596,0 12.60219,-0.76201 19.26429,-3.88733 2.04584,-0.95974 3.93661,-1.66536 4.20172,-1.56805 0.2651,0.0973 -11.0555,17.66459 -25.1569,39.0384 l -25.6389,38.86148 -3.094121,0.11221 c -2.554618,0.0927 -4.195204,-0.25845 -9.409103,-2.01364 z"
           style="fill:#0f9d58;fill-opacity:1;stroke:none;stroke-width:4.85768509;stroke-linejoin:round;stroke-miterlimit:4;stroke-dasharray:none;stroke-opacity:1" />
        <path
           inkscape:connector-curvature="0"
           id="path5008"
           d="m 112.35984,1051.5167 c -10.0014,-1.4495 -12.15632,-1.8201 -12.531784,-2.1556 -0.248854,-0.2223 1.738304,-3.7475 4.550294,-8.0722 7.16635,-11.0213 49.77231,-74.64801 50.25856,-75.05489 3.57509,-2.99158 8.63523,-8.0414 10.57512,-10.55356 3.36154,-4.35318 7.55784,-12.9141 9.06523,-18.494 6.19314,-22.92535 -2.59253,-47.15185 -21.69967,-59.83688 l -2.96081,-1.96565 17.02469,0.29584 c 9.36358,0.1627 31.17032,0.43384 48.45941,0.60252 l 31.43471,0.30668 1.54584,4.18869 c 2.24597,6.08579 4.67816,15.0947 5.93451,21.9816 1.52517,8.36049 1.92536,28.85896 0.73851,37.82758 -3.0805,23.27845 -12.81326,45.72018 -27.80202,64.10577 -20.47622,25.1166 -51.4599,42.1974 -84.14612,46.3885 -5.31244,0.6812 -26.64601,0.9864 -30.44647,0.4356 z"
           style="fill:#f4b400;fill-opacity:1;stroke:none;stroke-width:4.85768509;stroke-linejoin:round;stroke-miterlimit:4;stroke-dasharray:none;stroke-opacity:1" />
        <path
           transform="translate(0,796.36216)"
           inkscape:connector-curvature="0"
           id="path5010"
           d="M 67.989788,108.87302 C 41.284246,59.575543 33.290284,45.149038 32.233625,44.344765 31.651257,43.901497 32.811213,42.549931 38.695603,36.815353 53.43581,22.450419 68.809334,13.040746 87.839196,6.7360352 101.68742,2.1480329 112.58238,0.43719165 127.95142,0.43719165 c 21.3099,0 37.80488,3.80960275 56.83492,13.12633035 25.29351,12.383198 46.19421,33.578863 58.51993,59.345832 1.61138,3.368591 2.92978,6.372442 2.92978,6.675231 0,0.560033 -10.54865,0.49527 -71.16508,-0.436914 l -24.28843,-0.373518 -3.93063,-1.764495 c -6.75732,-3.033425 -10.64587,-3.839529 -18.6576,-3.867747 -5.0296,-0.01773 -7.97946,0.207636 -10.31642,0.788106 -14.50826,3.603659 -26.283291,12.94777 -33.291614,26.418653 -3.58502,6.89086 -5.24713,13.08166 -6.331628,23.58317 l -0.33738,3.26696 -9.92748,-18.32578 z"
           style="fill:#db4437;fill-opacity:1;stroke:none;stroke-width:10;stroke-linejoin:round;stroke-miterlimit:4;stroke-dasharray:none;stroke-opacity:1" />
      </g>
    </clipPath>
    <clipPath
       id="clipPath4271"
       clipPathUnits="userSpaceOnUse">
      <circle
         r="128"
         cy="128.00002"
         cx="128"
         id="circle4273"
         style="fill:#292929;fill-opacity:0.26020412;stroke:none;stroke-width:10;stroke-linejoin:round;stroke-miterlimit:4;stroke-dasharray:none;stroke-opacity:0.25882353" />
    </clipPath>
    <clipPath
       clipPathUnits="userSpaceOnUse"
       id="clipPath4363">
      <circle
         r="128"
         cy="924.36218"
         cx="128"
         id="circle4365"
         style="fill:#4285f4;fill-opacity:1;stroke:none;stroke-width:10;stroke-linejoin:round;stroke-miterlimit:4;stroke-dasharray:none;stroke-opacity:0.25882353" />
    </clipPath>
    <clipPath
       id="clipPath4452"
       clipPathUnits="userSpaceOnUse">
      <circle
         r="128"
         cy="924.36218"
         cx="128"
         id="circle4454"
         style="fill:#4285f4;fill-opacity:1;stroke:none;stroke-width:10;stroke-linejoin:round;stroke-miterlimit:4;stroke-dasharray:none;stroke-opacity:0.25882353" />
    </clipPath>
    <clipPath
       clipPathUnits="userSpaceOnUse"
       id="clipPath5177">
      <circle
         r="128"
         cy="924.36218"
         cx="128"
         id="circle5179"
         style="fill:#4285f4;fill-opacity:1;stroke:none;stroke-width:10;stroke-linejoin:round;stroke-miterlimit:4;stroke-dasharray:none;stroke-opacity:0.25882353" />
    </clipPath>
    <clipPath
       id="clipPath4342"
       clipPathUnits="userSpaceOnUse">
      <circle
         r="128"
         cy="933.48718"
         cx="128"
         id="circle4344"
         style="fill:#4285f4;fill-opacity:1;stroke:none;stroke-width:10;stroke-linejoin:round;stroke-miterlimit:4;stroke-dasharray:none;stroke-opacity:0.25882353" />
    </clipPath>
    <clipPath
       clipPathUnits="userSpaceOnUse"
       id="clipPath4681">
      <circle
         r="128"
         cy="930.43964"
         cx="127.00293"
         id="circle4683"
         style="fill:#9d5fad;fill-opacity:1;stroke:none;stroke-width:10;stroke-linejoin:round;stroke-miterlimit:4;stroke-dasharray:none;stroke-opacity:0.25882353" />
    </clipPath>
    <clipPath
       id="clipPath4235"
       clipPathUnits="userSpaceOnUse">
      <circle
         r="128"
         cy="924.36218"
         cx="128"
         id="circle4237"
         style="fill:#0f9d58;fill-opacity:1;stroke:none;stroke-width:10;stroke-linejoin:round;stroke-miterlimit:4;stroke-dasharray:none;stroke-opacity:0.25882353" />
    </clipPath>
    <clipPath
       clipPathUnits="userSpaceOnUse"
       id="clipPath5089">
      <circle
         r="128"
         cy="924.36218"
         cx="128"
         id="circle5091"
         style="fill:#0f9d58;fill-opacity:1;stroke:none;stroke-width:10;stroke-linejoin:round;stroke-miterlimit:4;stroke-dasharray:none;stroke-opacity:0.25882353" />
    </clipPath>
    <clipPath
       id="clipPath5275"
       clipPathUnits="userSpaceOnUse">
      <circle
         r="116.36364"
         cy="924.36218"
         cx="128"
         id="circle5277"
         style="fill:#0f9d58;fill-opacity:1;stroke:none;stroke-width:10;stroke-linejoin:round;stroke-miterlimit:4;stroke-dasharray:none;stroke-opacity:0.25882353" />
    </clipPath>
    <clipPath
       clipPathUnits="userSpaceOnUse"
       id="clipPath4404">
      <circle
         r="66.215057"
         cy="918.57825"
         cx="126.23748"
         id="circle4406"
         style="fill:#dedede;fill-opacity:1;stroke:none;stroke-width:10;stroke-linejoin:round;stroke-miterlimit:4;stroke-dasharray:none;stroke-opacity:0.25882353" />
    </clipPath>
  </defs>
  <metadata
     id="metadata7">
    <rdf:RDF>
      <cc:Work
         rdf:about="">
        <dc:format>image/svg+xml</dc:format>
        <dc:type
           rdf:resource="http://purl.org/dc/dcmitype/StillImage" />
        <dc:title />
      </cc:Work>
    </rdf:RDF>
  </metadata>
  <g
     transform="translate(0,-796.36216)"
     id="layer1"
     inkscape:groupmode="layer"
     inkscape:label="Layer 1">
    <circle
       style="fill:#dedede;fill-opacity:1;stroke:none;stroke-width:10;stroke-linejoin:round;stroke-miterlimit:4;stroke-dasharray:none;stroke-opacity:0.25882353"
       id="path4152"
       cx="128"
       cy="924.36218"
       r="128" />
    <text
       sodipodi:linespacing="125%"
       id="text4914"
       y="927.36218"
       x="120"
       style="font-style:normal;font-weight:normal;font-size:40px;line-height:125%;font-family:sans-serif;letter-spacing:0px;word-spacing:0px;fill:#000000;fill-opacity:1;stroke:none;stroke-width:1px;stroke-linecap:butt;stroke-linejoin:miter;stroke-opacity:1"
       xml:space="preserve"><tspan
         y="927.36218"
         x="120"
         id="tspan4916"
         sodipodi:role="line" /></text>
    <g
       id="g4235"
       transform="matrix(1.9330951,0,0,1.9330951,-116.02906,-851.33688)"
       clip-path="url(#clipPath4404)"
       style="fill:#939393;fill-opacity:1">
      <g
         id="g4280"
         style="fill:#939393;fill-opacity:1">
        <g
           id="g4282"
           style="fill:#939393;fill-opacity:1">
          <path
             id="path4284"
             d="M80.973286 949.83767C80.121176 949.83767 84.151866 935.46431 88.036796 920.77892L-53.3845602373 1062.20027624C-57.2694902373 1076.88566624 -61.3001802373 1091.25902624 -60.4480702373 1091.25902624Z"
             style="fill:#939393;fill-opacity:1" />
          <path
             id="path4286"
             d="M88.036796 920.77892C91.921716 906.09353 95.539066 892.39071 96.075336 890.32821L-45.3460202373 1031.74956624C-45.8822902373 1033.81206624 -49.4996402373 1047.51488624 -53.3845602373 1062.20027624Z"
             style="fill:#939393;fill-opacity:1" />
          <path
             id="path4288"
             d="M96.075336 890.32821L97.050376 887.1691L-44.3709802373 1028.59045624L-45.3460202373 1031.74956624Z"
             style="fill:#939393;fill-opacity:1" />
          <path
             id="path4290"
             d="M97.050376 887.1691L107.51183 887.1691L-33.9095262373 1028.59045624L-44.3709802373 1028.59045624Z"
             style="fill:#939393;fill-opacity:1" />
          <path
             id="path4292"
             d="M107.51183 887.1691L117.97941 887.1691L-23.4419462373 1028.59045624L-33.9095262373 1028.59045624Z"
             style="fill:#939393;fill-opacity:1" />
          <path
             id="path4294"
             d="M117.97941 887.1691C117.98241 887.5816 114.28348 902.14071 109.75874 919.32821L-31.6626162373 1060.74956624C-27.1378762373 1043.56206624 -23.4389462373 1029.00295624 -23.4419462373 1028.59045624Z"
             style="fill:#939393;fill-opacity:1" />
          <path
             id="path4296"
             d="M109.75874 919.32821L101.53193 949.83767L-39.8894262373 1091.25902624L-31.6626162373 1060.74956624Z"
             style="fill:#939393;fill-opacity:1" />
          <path
             id="path4298"
             d="M101.53193 949.83767L91.252606 949.83767L-50.1687502373 1091.25902624L-39.8894262373 1091.25902624Z"
             style="fill:#939393;fill-opacity:1" />
        </g>
        <path
           id="path4237"
           d="m 80.973286,949.83767 c -0.85211,0 3.17858,-14.37336 7.06351,-29.05875 3.88492,-14.68539 7.50227,-28.38821 8.03854,-30.45071 l 0.97504,-3.15911 10.461454,0 10.46758,0 c 0.003,0.4125 -3.69593,14.97161 -8.22067,32.15911 l -8.22681,30.50946 -10.279324,0 z"
           style="fill:#939393;fill-opacity:1"
           inkscape:connector-curvature="0"
           sodipodi:nodetypes="ssscccsccs" />
      </g>
      <g
         id="g4301"
         style="fill:#939393;fill-opacity:1">
        <g
           id="g4303"
           style="fill:#939393;fill-opacity:1">
          <path
             id="path4305"
             d="M133.95986 949.83767L142.18004 917.82821L0.758683762691 1059.24956624L-7.46149623731 1091.25902624Z"
             style="fill:#939393;fill-opacity:1" />
          <path
             id="path4307"
             d="M142.18004 917.82821L150.41365 887.1691L8.99229376269 1028.59045624L0.758683762691 1059.24956624Z"
             style="fill:#939393;fill-opacity:1" />
          <path
             id="path4309"
             d="M150.41365 887.1691L161.16209 887.1691L19.7407337627 1028.59045624L8.99229376269 1028.59045624Z"
             style="fill:#939393;fill-opacity:1" />
          <path
             id="path4311"
             d="M161.16209 887.1691L171.47273 887.1691L30.0513737627 1028.59045624L19.7407337627 1028.59045624Z"
             style="fill:#939393;fill-opacity:1" />
          <path
             id="path4313"
             d="M171.47273 887.1691L154.97329 949.83767L13.5519337627 1091.25902624L30.0513737627 1028.59045624Z"
             style="fill:#939393;fill-opacity:1" />
        </g>
        <path
           id="path4241"
           d="m 133.95986,949.83767 8.22018,-32.00946 8.23361,-30.65911 10.74844,0 10.31064,0 -16.49944,62.66857 z"
           style="fill:#939393;fill-opacity:1"
           inkscape:connector-curvature="0"
           sodipodi:nodetypes="ccccccc" />
      </g>
      <g
         id="g4316"
         style="fill:#939393;fill-opacity:1">
        <g
           id="g4318"
           style="fill:#939393;fill-opacity:1">
          <path
             id="path4320"
             d="M115.95414 916.13272L123.62004 887.1691L-17.8013162373 1028.59045624L-25.4672162373 1057.55407624Z"
             style="fill:#939393;fill-opacity:1" />
          <path
             id="path4322"
             d="M123.62004 887.1691L134.32428 887.1691L-7.09707623731 1028.59045624L-17.8013162373 1028.59045624Z"
             style="fill:#939393;fill-opacity:1" />
          <path
             id="path4324"
             d="M134.32428 887.1691L145.02852 887.1691L3.60716376269 1028.59045624L-7.09707623731 1028.59045624Z"
             style="fill:#939393;fill-opacity:1" />
          <path
             id="path4326"
             d="M145.02852 887.1691L144.33233 889.2941L2.91097376269 1030.71545624L3.60716376269 1028.59045624Z"
             style="fill:#939393;fill-opacity:1" />
          <path
             id="path4328"
             d="M144.33233 889.2941C143.84091 890.79406 140.18107 905.12821 135.9582 921.07821L-5.46315623731 1062.49956624C-1.24028623731 1046.54956624 2.41955376269 1032.21541624 2.91097376269 1030.71545624Z"
             style="fill:#939393;fill-opacity:1" />
          <path
             id="path4330"
             d="M135.9582 921.07821L128.28025 949.83767L-13.1411062373 1091.25902624L-5.46315623731 1062.49956624Z"
             style="fill:#939393;fill-opacity:1" />
          <path
             id="path4332"
             d="M128.28025 949.83767L117.59916 949.83767L-23.8221962373 1091.25902624L-13.1411062373 1091.25902624Z"
             style="fill:#939393;fill-opacity:1" />
          <path
             id="path4334"
             d="M117.59916 949.83767L106.91806 949.83767L-34.5032962373 1091.25902624L-23.8221962373 1091.25902624Z"
             style="fill:#939393;fill-opacity:1" />
        </g>
        <path
           id="path4239"
           d="m 115.95414,916.13272 7.6659,-28.96362 10.70424,0 10.70424,0 -0.69619,2.125 c -0.49142,1.49996 -4.15126,15.83411 -8.37413,31.78411 l -7.67795,28.75946 -10.68109,0 -10.6811,0 z"
           style="fill:#939393;fill-opacity:1"
           inkscape:connector-curvature="0"
           sodipodi:nodetypes="ccccsscccc" />
      </g>
    </g>
    <g
       transform="matrix(1.9330951,0,0,1.9330951,-116.02906,-851.33688)"
       id="g4230">
      <path
         sodipodi:nodetypes="ssscccsccs"
         inkscape:connector-curvature="0"
         style="fill:#be2128;fill-opacity:1"
         d="m 80.973286,949.83767 c -0.85211,0 3.17858,-14.37336 7.06351,-29.05875 3.88492,-14.68539 7.50227,-28.38821 8.03854,-30.45071 l 0.97504,-3.15911 10.461454,0 10.46758,0 c 0.003,0.4125 -3.69593,14.97161 -8.22067,32.15911 l -8.22681,30.50946 -10.279324,0 z"
         id="path4217" />
      <path
         sodipodi:nodetypes="ccccsscccc"
         inkscape:connector-curvature="0"
         style="fill:#249847;fill-opacity:1"
         d="m 115.95414,916.13272 7.6659,-28.96362 10.70424,0 10.70424,0 -0.69619,2.125 c -0.49142,1.49996 -4.15126,15.83411 -8.37413,31.78411 l -7.67795,28.75946 -10.68109,0 -10.6811,0 z"
         id="path4215" />
      <path
         sodipodi:nodetypes="ccccccc"
         inkscape:connector-curvature="0"
         style="fill:#064f8c;fill-opacity:1"
         d="m 133.95986,949.83767 8.22018,-32.00946 8.23361,-30.65911 10.74844,0 10.31064,0 -16.49944,62.66857 z"
         id="path4211" />
    </g>
  </g>
</svg>
