<?xml version="1.0" encoding="UTF-8" standalone="no"?>
<!-- Created with Inkscape (http://www.inkscape.org/) -->

<svg
   xmlns:dc="http://purl.org/dc/elements/1.1/"
   xmlns:cc="http://creativecommons.org/ns#"
   xmlns:rdf="http://www.w3.org/1999/02/22-rdf-syntax-ns#"
   xmlns:svg="http://www.w3.org/2000/svg"
   xmlns="http://www.w3.org/2000/svg"
   xmlns:sodipodi="http://sodipodi.sourceforge.net/DTD/sodipodi-0.dtd"
   xmlns:inkscape="http://www.inkscape.org/namespaces/inkscape"
   sodipodi:docname="picard.svg"
   inkscape:version="0.91 r13725"
   version="1.1"
   id="svg2"
   viewBox="0 0 256 256"
   height="256"
   width="256">
  <sodipodi:namedview
     inkscape:window-maximized="1"
     inkscape:window-y="0"
     inkscape:window-x="0"
     inkscape:window-height="1033"
     inkscape:window-width="1920"
     units="px"
     showgrid="true"
     inkscape:current-layer="layer1"
     inkscape:document-units="px"
     inkscape:cy="128"
     inkscape:cx="128"
     inkscape:zoom="3.2851562"
     inkscape:pageshadow="2"
     inkscape:pageopacity="0.0"
     borderopacity="1.0"
     bordercolor="#666666"
     pagecolor="#ffffff"
     id="base">
    <inkscape:grid
       spacingy="5"
       spacingx="5"
       id="grid4168"
       type="xygrid" />
  </sodipodi:namedview>
  <defs
     id="defs4">
    <clipPath
       id="clipPath5002"
       clipPathUnits="userSpaceOnUse">
      <g
         id="g5004">
        <path
           style="fill:#0f9d58;fill-opacity:1;stroke:none;stroke-width:4.85768509;stroke-linejoin:round;stroke-miterlimit:4;stroke-dasharray:none;stroke-opacity:1"
           d="M 88.118406,249.43519 C 46.103287,235.29134 14.771284,201.68742 4.1335861,159.36053 1.3377997,148.23623 0.92261224,144.16281 0.92582381,127.88908 0.92787958,117.47222 1.134384,112.01362 1.6577819,108.54099 4.4653598,89.913336 12.17654,70.638106 23.042737,55.086148 c 3.958678,-5.665755 8.344812,-10.93092 9.101533,-10.925587 0.32809,0.0023 10.488643,18.309713 22.579009,40.683112 12.090365,22.373397 22.374546,41.334697 22.853732,42.136217 0.479186,0.80151 0.924733,2.44098 0.990103,3.64326 0.343424,6.31639 2.524175,14.20976 5.6424,20.42304 2.954444,5.88693 5.065381,8.73258 10.434696,14.06652 6.71418,6.66995 12.88853,10.28643 21.73204,12.72904 3.16587,0.87442 5.10478,1.05037 11.57517,1.05037 8.82596,0 12.60219,-0.76201 19.26429,-3.88733 2.04584,-0.95974 3.93661,-1.66536 4.20172,-1.56805 0.2651,0.0973 -11.0555,17.66459 -25.1569,39.0384 l -25.6389,38.86148 -3.094121,0.11221 c -2.554618,0.0927 -4.195204,-0.25845 -9.409103,-2.01364 z"
           id="path5006"
           inkscape:connector-curvature="0"
           transform="translate(0,796.36216)" />
        <path
           style="fill:#f4b400;fill-opacity:1;stroke:none;stroke-width:4.85768509;stroke-linejoin:round;stroke-miterlimit:4;stroke-dasharray:none;stroke-opacity:1"
           d="m 112.35984,1051.5167 c -10.0014,-1.4495 -12.15632,-1.8201 -12.531784,-2.1556 -0.248854,-0.2223 1.738304,-3.7475 4.550294,-8.0722 7.16635,-11.0213 49.77231,-74.64801 50.25856,-75.05489 3.57509,-2.99158 8.63523,-8.0414 10.57512,-10.55356 3.36154,-4.35318 7.55784,-12.9141 9.06523,-18.494 6.19314,-22.92535 -2.59253,-47.15185 -21.69967,-59.83688 l -2.96081,-1.96565 17.02469,0.29584 c 9.36358,0.1627 31.17032,0.43384 48.45941,0.60252 l 31.43471,0.30668 1.54584,4.18869 c 2.24597,6.08579 4.67816,15.0947 5.93451,21.9816 1.52517,8.36049 1.92536,28.85896 0.73851,37.82758 -3.0805,23.27845 -12.81326,45.72018 -27.80202,64.10577 -20.47622,25.1166 -51.4599,42.1974 -84.14612,46.3885 -5.31244,0.6812 -26.64601,0.9864 -30.44647,0.4356 z"
           id="path5008"
           inkscape:connector-curvature="0" />
        <path
           style="fill:#db4437;fill-opacity:1;stroke:none;stroke-width:10;stroke-linejoin:round;stroke-miterlimit:4;stroke-dasharray:none;stroke-opacity:1"
           d="M 67.989788,108.87302 C 41.284246,59.575543 33.290284,45.149038 32.233625,44.344765 31.651257,43.901497 32.811213,42.549931 38.695603,36.815353 53.43581,22.450419 68.809334,13.040746 87.839196,6.7360352 101.68742,2.1480329 112.58238,0.43719165 127.95142,0.43719165 c 21.3099,0 37.80488,3.80960275 56.83492,13.12633035 25.29351,12.383198 46.19421,33.578863 58.51993,59.345832 1.61138,3.368591 2.92978,6.372442 2.92978,6.675231 0,0.560033 -10.54865,0.49527 -71.16508,-0.436914 l -24.28843,-0.373518 -3.93063,-1.764495 c -6.75732,-3.033425 -10.64587,-3.839529 -18.6576,-3.867747 -5.0296,-0.01773 -7.97946,0.207636 -10.31642,0.788106 -14.50826,3.603659 -26.283291,12.94777 -33.291614,26.418653 -3.58502,6.89086 -5.24713,13.08166 -6.331628,23.58317 l -0.33738,3.26696 -9.92748,-18.32578 z"
           id="path5010"
           inkscape:connector-curvature="0"
           transform="translate(0,796.36216)" />
      </g>
    </clipPath>
    <clipPath
       clipPathUnits="userSpaceOnUse"
       id="clipPath4271">
      <circle
         style="fill:#292929;fill-opacity:0.26020412;stroke:none;stroke-width:10;stroke-linejoin:round;stroke-miterlimit:4;stroke-dasharray:none;stroke-opacity:0.25882353"
         id="circle4273"
         cx="128"
         cy="128.00002"
         r="128" />
    </clipPath>
    <clipPath
       id="clipPath4363"
       clipPathUnits="userSpaceOnUse">
      <circle
         style="fill:#4285f4;fill-opacity:1;stroke:none;stroke-width:10;stroke-linejoin:round;stroke-miterlimit:4;stroke-dasharray:none;stroke-opacity:0.25882353"
         id="circle4365"
         cx="128"
         cy="924.36218"
         r="128" />
    </clipPath>
    <clipPath
       clipPathUnits="userSpaceOnUse"
       id="clipPath4452">
      <circle
         style="fill:#4285f4;fill-opacity:1;stroke:none;stroke-width:10;stroke-linejoin:round;stroke-miterlimit:4;stroke-dasharray:none;stroke-opacity:0.25882353"
         id="circle4454"
         cx="128"
         cy="924.36218"
         r="128" />
    </clipPath>
    <clipPath
       id="clipPath4954"
       clipPathUnits="userSpaceOnUse">
      <circle
         style="fill:#f16529;fill-opacity:1;stroke:none;stroke-width:10;stroke-linejoin:round;stroke-miterlimit:4;stroke-dasharray:none;stroke-opacity:0.25882353"
         id="circle4956"
         cx="128"
         cy="924.36218"
         r="128" />
    </clipPath>
    <clipPath
       clipPathUnits="userSpaceOnUse"
       id="clipPath5071">
      <circle
         style="fill:#0f9d58;fill-opacity:1;stroke:none;stroke-width:10;stroke-linejoin:round;stroke-miterlimit:4;stroke-dasharray:none;stroke-opacity:0.25882353"
         id="circle5073"
         cx="132.21979"
         cy="933.98254"
         r="99.306747" />
    </clipPath>
    <clipPath
       id="clipPath6641"
       clipPathUnits="userSpaceOnUse">
      <circle
         style="fill:#62d1f9;fill-opacity:1;stroke:none;stroke-width:10;stroke-linejoin:round;stroke-miterlimit:4;stroke-dasharray:none;stroke-opacity:0.25882353"
         id="circle6643"
         cx="128.0004"
         cy="918.68585"
         r="128" />
    </clipPath>
    <clipPath
       clipPathUnits="userSpaceOnUse"
       id="clipPath7343">
      <circle
         style="fill:#62d1f9;fill-opacity:1;stroke:none;stroke-width:10;stroke-linejoin:round;stroke-miterlimit:4;stroke-dasharray:none;stroke-opacity:0.25882353"
         id="circle7345"
         cx="126.88464"
         cy="924.20221"
         r="128" />
    </clipPath>
    <clipPath
       id="clipPath5934"
       clipPathUnits="userSpaceOnUse">
      <circle
         style="fill:#62d1f9;fill-opacity:1;stroke:none;stroke-width:10;stroke-linejoin:round;stroke-miterlimit:4;stroke-dasharray:none;stroke-opacity:0.25882353"
         id="circle5936"
         cx="128"
         cy="924.36218"
         r="128" />
    </clipPath>
    <clipPath
       clipPathUnits="userSpaceOnUse"
       id="clipPath4749">
      <circle
         style="fill:#13cc72;fill-opacity:1;stroke:none;stroke-width:10;stroke-linejoin:round;stroke-miterlimit:4;stroke-dasharray:none;stroke-opacity:0.25882353"
         id="circle4751"
         cx="128"
         cy="128.00002"
         r="128" />
    </clipPath>
  </defs>
  <metadata
     id="metadata7">
    <rdf:RDF>
      <cc:Work
         rdf:about="">
        <dc:format>image/svg+xml</dc:format>
        <dc:type
           rdf:resource="http://purl.org/dc/dcmitype/StillImage" />
        <dc:title />
      </cc:Work>
    </rdf:RDF>
  </metadata>
  <g
     inkscape:label="Layer 1"
     inkscape:groupmode="layer"
     id="layer1"
     transform="translate(0,-796.36216)">
    <path
       style="fill:none;fill-rule:evenodd;stroke:none;stroke-width:1px;stroke-linecap:butt;stroke-linejoin:miter;stroke-opacity:1"
       d="M 154.47438,968.80998 101.03985,1048.476 0.4857685,1048.9618 0,842.0244 l 33.032258,-2.42884 45.176471,83.55218 21.373814,35.4611 26.717267,13.11575 z"
       id="path4913"
       inkscape:connector-curvature="0" />
    <circle
       r="128"
       cy="924.36218"
       cx="128"
       id="path4152"
       style="fill:#51eba0;fill-opacity:1;stroke:none;stroke-width:10;stroke-linejoin:round;stroke-miterlimit:4;stroke-dasharray:none;stroke-opacity:0.25882353" />
    <path
       inkscape:connector-curvature="0"
       style="fill:#ffa954;fill-opacity:1;stroke:none;stroke-width:10.5;stroke-linecap:round;stroke-linejoin:round;stroke-miterlimit:4;stroke-dasharray:none;stroke-opacity:1"
       d="m 76.391944,876.13068 c -7.453238,2.23082 -11.659296,10.02729 -9.428487,17.48052 l 30.270587,101.13541 c 2.230817,7.45329 10.028586,11.65689 17.481826,9.42599 l 68.89243,-20.61996 c 7.45324,-2.23081 11.65743,-10.02671 9.42662,-17.47996 l -30.27059,-101.1354 c -2.23081,-7.45324 -10.02671,-11.65743 -17.47995,-9.42661 l -68.892436,20.62001 z m 36.178036,-4.52051 a 7.5,7.5 0 0 1 9.33561,5.03453 7.5,7.5 0 0 1 -5.03452,9.3356 7.5,7.5 0 0 1 -9.33561,-5.03452 7.5,7.5 0 0 1 5.03452,-9.33561 z"
       id="path4355" />
    <g
       id="g4474">
      <path
         style="fill:#5b59a3;fill-opacity:1;stroke:none;stroke-width:10.5;stroke-linecap:round;stroke-linejoin:round;stroke-miterlimit:4;stroke-dasharray:none;stroke-opacity:1"
         d="M 84.912109 66.957031 C 77.132182 66.957031 70.867188 73.220073 70.867188 81 L 70.867188 186.56836 C 70.867188 194.34829 77.132182 200.61133 84.912109 200.61133 L 156.82422 200.61133 C 164.60415 200.61133 170.86719 194.34829 170.86719 186.56836 L 170.86719 81 C 170.86719 73.220073 164.60415 66.957031 156.82422 66.957031 L 84.912109 66.957031 z M 120.86719 73 A 7.5 7.5 0 0 1 128.36719 80.5 A 7.5 7.5 0 0 1 120.86719 88 A 7.5 7.5 0 0 1 113.36719 80.5 A 7.5 7.5 0 0 1 120.86719 73 z "
         transform="translate(0,796.36216)"
         id="rect4337" />
      <circle
         style="fill:none;fill-opacity:1;stroke:#000000;stroke-width:3.1;stroke-linecap:round;stroke-linejoin:round;stroke-miterlimit:4;stroke-dasharray:none;stroke-opacity:1"
         id="path4339"
         cx="120.86801"
         cy="876.86218"
         r="7.5" />
    </g>
    <g
       transform="matrix(1.4964548,0,0,1.6127746,-68.819237,-575.74844)"
       style="fill:#ffffff;fill-opacity:1;stroke:none;stroke-opacity:1"
       id="g4453">
      <rect
         style="fill:#ffffff;fill-opacity:1;stroke:none;stroke-width:3.0999999;stroke-linecap:round;stroke-linejoin:round;stroke-miterlimit:4;stroke-dasharray:none;stroke-opacity:1"
         id="rect4434"
         width="63.197922"
         height="14.871428"
         x="-115.84389"
         y="912.41852"
         transform="matrix(0.94673842,-0.32200367,0.26194686,0.9650823,0,0)" />
      <g
         style="fill:#ffffff;fill-opacity:1;stroke:none;stroke-opacity:1"
         id="g4443"
         transform="matrix(1.1521998,0,0,1,37.288942,-19.785969)">
        <rect
           y="917.0578"
           x="129.6956"
           height="50"
           width="5"
           id="rect4436"
           style="fill:#ffffff;fill-opacity:1;stroke:none;stroke-width:3.0999999;stroke-linecap:round;stroke-linejoin:round;stroke-miterlimit:4;stroke-dasharray:none;stroke-opacity:1" />
        <ellipse
           ry="5"
           rx="10"
           cy="967.36218"
           cx="125"
           id="path4441"
           style="fill:#ffffff;fill-opacity:1;stroke:none;stroke-width:3.0999999;stroke-linecap:round;stroke-linejoin:round;stroke-miterlimit:4;stroke-dasharray:none;stroke-opacity:1" />
      </g>
      <g
         style="fill:#ffffff;fill-opacity:1;stroke:none;stroke-opacity:1"
         transform="matrix(1.1369798,0,0,1,-17.883472,3.6872962e-8)"
         id="g4447">
        <rect
           style="fill:#ffffff;fill-opacity:1;stroke:none;stroke-width:3.0999999;stroke-linecap:round;stroke-linejoin:round;stroke-miterlimit:4;stroke-dasharray:none;stroke-opacity:1"
           id="rect4449"
           width="5"
           height="50"
           x="129.6956"
           y="917.0578" />
        <ellipse
           style="fill:#ffffff;fill-opacity:1;stroke:none;stroke-width:3.0999999;stroke-linecap:round;stroke-linejoin:round;stroke-miterlimit:4;stroke-dasharray:none;stroke-opacity:1"
           id="ellipse4451"
           cx="125"
           cy="967.36218"
           rx="10"
           ry="5" />
      </g>
    </g>
    <g
       id="g4595"
       transform="translate(0,796.36216)"
       clip-path="url(#clipPath4749)"
       style="fill:#16bd6b;fill-opacity:1">
      <g
         id="g4597"
         style="fill:#16bd6b;fill-opacity:1;stroke:none;stroke-width:10.5;stroke-linecap:round;stroke-linejoin:round;stroke-miterlimit:4;stroke-dasharray:none;stroke-opacity:1">
        <path
           id="path4599"
           d="M149.47461 58.550781C148.09198 58.5376 146.68264 58.730159 145.28516 59.148438L-66.846874356 271.280472356C-65.449394356 270.862193356 -64.040054356 270.669634356 -62.657424356 270.682815356Z"
           style="fill:#16bd6b;fill-opacity:1" />
        <path
           id="path4601"
           d="M145.28516 59.148438L119.19531 66.957031L-92.936724356 279.089065356L-66.846874356 271.280472356Z"
           style="fill:#16bd6b;fill-opacity:1" />
        <path
           id="path4603"
           d="M119.19531 66.957031L84.912109 66.957031L-127.219925356 279.089065356L-92.936724356 279.089065356Z"
           style="fill:#16bd6b;fill-opacity:1" />
        <path
           id="path4605"
           d="M84.912109 66.957031C81.0216575 66.957031 77.5100342809 68.5231843772 74.9712204584 71.0619981998L-137.160813898 283.194032556C-134.622000075 280.655218733 -131.110376856 279.089065356 -127.219925356 279.089065356Z"
           style="fill:#16bd6b;fill-opacity:1" />
        <path
           id="path4607"
           d="M74.9712204584 71.0619981998C72.4330435496 73.6001751085 70.867188 77.1105245 70.867188 81.0L-141.264846356 293.132034356C-141.264846356 289.242558856 -139.698990806 285.732209465 -137.160813898 283.194032556Z"
           style="fill:#16bd6b;fill-opacity:1" />
        <path
           id="path4609"
           d="M70.867188 81.0L70.867188 82.933594L-141.264846356 295.065628356L-141.264846356 293.132034356Z"
           style="fill:#16bd6b;fill-opacity:1" />
        <path
           id="path4611"
           d="M70.867188 82.933594C70.7364018239 83.0547922793 70.6081086635 83.1783106708 70.482356714 83.3040626204L-141.649677642 295.436096976C-141.523925692 295.310345027 -141.395632532 295.186826635 -141.264846356 295.065628356Z"
           style="fill:#16bd6b;fill-opacity:1" />
        <path
           id="path4613"
           d="M70.482356714 83.3040626204C66.9545476364 86.831871698 65.4266989566 92.1175150735 66.962891 97.25L-145.169143356 309.382034356C-146.705335399 304.249549429 -145.17748672 298.963906054 -141.649677642 295.436096976Z"
           style="fill:#16bd6b;fill-opacity:1" />
        <path
           id="path4615"
           d="M66.962891 97.25L70.867188 110.29492L-141.264846356 322.426954356L-145.169143356 309.382034356Z"
           style="fill:#16bd6b;fill-opacity:1" />
        <path
           id="path4617"
           d="M70.867188 110.29492L70.867188 186.56836L-141.264846356 398.700394356L-141.264846356 322.426954356Z"
           style="fill:#16bd6b;fill-opacity:1" />
        <path
           id="path4619"
           d="M70.867188 186.56836C70.867188 194.34829 77.132182 200.61133 84.912109 200.61133L-127.219925356 412.743364356C-134.999852356 412.743364356 -141.264846356 406.480324356 -141.264846356 398.700394356Z"
           style="fill:#16bd6b;fill-opacity:1" />
        <path
           id="path4621"
           d="M84.912109 200.61133L98.126953 200.61133L-114.005081356 412.743364356L-127.219925356 412.743364356Z"
           style="fill:#16bd6b;fill-opacity:1" />
        <path
           id="path4623"
           d="M98.126953 200.61133C101.11132 206.64029 108.04588 209.80728 114.7168 207.81055L-97.415234356 419.942584356C-104.086154356 421.939314356 -111.020714356 418.772324356 -114.005081356 412.743364356Z"
           style="fill:#16bd6b;fill-opacity:1" />
        <path
           id="path4625"
           d="M114.7168 207.81055L138.76953 200.61133L-73.362504356 412.743364356L-97.415234356 419.942584356Z"
           style="fill:#16bd6b;fill-opacity:1" />
        <path
           id="path4627"
           d="M138.76953 200.61133L156.82422 200.61133L-55.307814356 412.743364356L-73.362504356 412.743364356Z"
           style="fill:#16bd6b;fill-opacity:1" />
        <path
           id="path4629"
           d="M156.82422 200.61133C160.708023688 200.61133 164.208093394 199.047859226 166.741205223 196.514747398L-45.3908291333 408.646781754C-47.9239409615 411.179893582 -51.4240106678 412.743364356 -55.307814356 412.743364356Z"
           style="fill:#16bd6b;fill-opacity:1" />
        <path
           id="path4631"
           d="M166.741205223 196.514747398C168.210005817 195.045946804 169.353700766 193.251138442 170.05859 191.24609L-42.073444356 403.378124356C-42.7783335897 405.383172798 -43.9220285394 407.17798116 -45.3908291333 408.646781754Z"
           style="fill:#16bd6b;fill-opacity:1" />
        <path
           id="path4633"
           d="M170.05859 191.24609L183.60742 187.19141L-28.524614356 399.323444356L-42.073444356 403.378124356Z"
           style="fill:#16bd6b;fill-opacity:1" />
        <path
           id="path4635"
           d="M183.60742 187.19141C185.927038427 186.497131004 187.932063496 185.26376995 189.526387431 183.669446014L-22.6056469247 395.80148037C-24.1999708601 397.395804306 -26.2049959292 398.62916536 -28.524614356 399.323444356Z"
           style="fill:#16bd6b;fill-opacity:1" />
        <path
           id="path4637"
           d="M189.526387431 183.669446014C193.054836617 180.140996828 194.571691004 174.844568461 193.03516 169.71094L-19.096874356 381.842974356C-17.5603433518 386.976602817 -19.0771977386 392.273031184 -22.6056469247 395.80148037Z"
           style="fill:#16bd6b;fill-opacity:1" />
        <path
           id="path4639"
           d="M193.03516 169.71094L190.72461 161.98828L-21.407424356 374.120314356L-19.096874356 381.842974356Z"
           style="fill:#16bd6b;fill-opacity:1" />
        <path
           id="path4641"
           d="M219.22656 154.17578L219.22656 74.986328L7.09452564404 287.118362356L7.09452564404 366.307814356Z"
           style="fill:#16bd6b;fill-opacity:1" />
        <path
           id="path4643"
           d="M219.22656 74.986328L210.60547 74.986328L-1.52656435596 287.118362356L7.09452564404 287.118362356Z"
           style="fill:#16bd6b;fill-opacity:1" />
        <path
           id="path4645"
           d="M210.60547 74.986328L210.60547 149.0L-1.52656435596 361.132034356L-1.52656435596 287.118362356Z"
           style="fill:#16bd6b;fill-opacity:1" />
        <path
           id="path4647"
           d="M187.72852 151.98242L170.86719 95.648438L-41.264844356 307.780472356L-24.403514356 364.114454356Z"
           style="fill:#16bd6b;fill-opacity:1" />
        <path
           id="path4649"
           d="M170.86719 95.648438L170.86719 81.0L-41.264844356 293.132034356L-41.264844356 307.780472356Z"
           style="fill:#16bd6b;fill-opacity:1" />
        <path
           id="path4651"
           d="M170.86719 81.0C170.86719 75.298773 167.4976 70.423042 162.63867 68.21875L-49.493364356 280.350784356C-44.634434356 282.555076356 -41.264844356 287.430807356 -41.264844356 293.132034356Z"
           style="fill:#16bd6b;fill-opacity:1" />
        <path
           id="path4653"
           d="M162.63867 68.21875C160.71896 62.37018 155.34542 58.606752 149.47461 58.550781L-62.657424356 270.682815356C-56.786614356 270.738786356 -51.413074356 274.502214356 -49.493364356 280.350784356Z"
           style="fill:#16bd6b;fill-opacity:1" />
      </g>
      <path
         id="path4502"
         transform=""
         d="M 149.47461 58.550781 C 148.09198 58.5376 146.68264 58.730159 145.28516 59.148438 L 119.19531 66.957031 L 84.912109 66.957031 C 77.132182 66.957031 70.867188 73.220073 70.867188 81 L 70.867188 82.933594 C 67.067364 86.454854 65.37194 91.934563 66.962891 97.25 L 70.867188 110.29492 L 70.867188 186.56836 C 70.867188 194.34829 77.132182 200.61133 84.912109 200.61133 L 98.126953 200.61133 C 101.11132 206.64029 108.04588 209.80728 114.7168 207.81055 L 138.76953 200.61133 L 156.82422 200.61133 C 162.96001 200.61133 168.13804 196.70907 170.05859 191.24609 L 183.60742 187.19141 C 191.06066 184.9606 195.26597 177.16419 193.03516 169.71094 L 190.72461 161.98828 A 17.242149 8.063873 0 0 0 202.50977 164.17969 A 17.242149 8.063873 0 0 0 219.75195 156.11719 A 17.242149 8.063873 0 0 0 219.22656 154.17578 L 219.22656 74.986328 L 210.60547 74.986328 L 210.60547 149 A 17.242149 8.063873 0 0 0 202.50977 148.05273 A 17.242149 8.063873 0 0 0 187.72852 151.98242 L 170.86719 95.648438 L 170.86719 81 C 170.86719 75.298773 167.4976 70.423042 162.63867 68.21875 C 160.71896 62.37018 155.34542 58.606752 149.47461 58.550781 z M 115.76172 75.013672 A 7.5 7.5 0 0 1 121.90625 80.283203 A 7.5 7.5 0 0 1 119.83008 87.917969 A 7.5 7.5 0 0 1 113.36719 80.5 A 7.5 7.5 0 0 1 115.76172 75.013672 z "
         style="fill:#16bd6b;fill-opacity:1;stroke:none;stroke-width:10.5;stroke-linecap:round;stroke-linejoin:round;stroke-miterlimit:4;stroke-dasharray:none;stroke-opacity:1" />
    </g>
    <path
       id="path4478"
       d="m 76.391944,876.13068 c -7.453238,2.23082 -11.659296,10.02729 -9.428487,17.48052 l 30.270587,101.13541 c 2.230817,7.45329 10.028586,11.65689 17.481826,9.42599 l 68.89243,-20.61996 c 7.45324,-2.23081 11.65743,-10.02671 9.42662,-17.47996 l -30.27059,-101.1354 c -2.23081,-7.45324 -10.02671,-11.65743 -17.47995,-9.42661 l -68.892436,20.62001 z m 36.178036,-4.52051 a 7.5,7.5 0 0 1 9.33561,5.03453 7.5,7.5 0 0 1 -5.03452,9.3356 7.5,7.5 0 0 1 -9.33561,-5.03452 7.5,7.5 0 0 1 5.03452,-9.33561 z"
       style="fill:#ffa954;fill-opacity:1;stroke:none;stroke-width:10.5;stroke-linecap:round;stroke-linejoin:round;stroke-miterlimit:4;stroke-dasharray:none;stroke-opacity:1"
       inkscape:connector-curvature="0" />
    <g
       id="g4480">
      <path
         id="path4482"
         transform="translate(0,796.36216)"
         d="M 84.912109 66.957031 C 77.132182 66.957031 70.867188 73.220073 70.867188 81 L 70.867188 186.56836 C 70.867188 194.34829 77.132182 200.61133 84.912109 200.61133 L 156.82422 200.61133 C 164.60415 200.61133 170.86719 194.34829 170.86719 186.56836 L 170.86719 81 C 170.86719 73.220073 164.60415 66.957031 156.82422 66.957031 L 84.912109 66.957031 z M 120.86719 73 A 7.5 7.5 0 0 1 128.36719 80.5 A 7.5 7.5 0 0 1 120.86719 88 A 7.5 7.5 0 0 1 113.36719 80.5 A 7.5 7.5 0 0 1 120.86719 73 z "
         style="fill:#5b59a3;fill-opacity:1;stroke:none;stroke-width:10.5;stroke-linecap:round;stroke-linejoin:round;stroke-miterlimit:4;stroke-dasharray:none;stroke-opacity:1" />
      <circle
         r="7.5"
         cy="876.86218"
         cx="120.86801"
         id="circle4484"
         style="fill:none;fill-opacity:1;stroke:#000000;stroke-width:3.1;stroke-linecap:round;stroke-linejoin:round;stroke-miterlimit:4;stroke-dasharray:none;stroke-opacity:1" />
    </g>
    <g
       id="g4486"
       style="fill:#ffffff;fill-opacity:1;stroke:none;stroke-opacity:1"
       transform="matrix(1.4964548,0,0,1.6127746,-68.819237,-575.74844)">
      <rect
         transform="matrix(0.94673842,-0.32200367,0.26194686,0.9650823,0,0)"
         y="912.41852"
         x="-115.84389"
         height="14.871428"
         width="63.197922"
         id="rect4488"
         style="fill:#ffffff;fill-opacity:1;stroke:none;stroke-width:3.0999999;stroke-linecap:round;stroke-linejoin:round;stroke-miterlimit:4;stroke-dasharray:none;stroke-opacity:1" />
      <g
         transform="matrix(1.1521998,0,0,1,37.288942,-19.785969)"
         id="g4490"
         style="fill:#ffffff;fill-opacity:1;stroke:none;stroke-opacity:1">
        <rect
           style="fill:#ffffff;fill-opacity:1;stroke:none;stroke-width:3.0999999;stroke-linecap:round;stroke-linejoin:round;stroke-miterlimit:4;stroke-dasharray:none;stroke-opacity:1"
           id="rect4492"
           width="5"
           height="50"
           x="129.6956"
           y="917.0578" />
        <ellipse
           style="fill:#ffffff;fill-opacity:1;stroke:none;stroke-width:3.0999999;stroke-linecap:round;stroke-linejoin:round;stroke-miterlimit:4;stroke-dasharray:none;stroke-opacity:1"
           id="ellipse4494"
           cx="125"
           cy="967.36218"
           rx="10"
           ry="5" />
      </g>
      <g
         id="g4496"
         transform="matrix(1.1369798,0,0,1,-17.883472,3.6872962e-8)"
         style="fill:#ffffff;fill-opacity:1;stroke:none;stroke-opacity:1">
        <rect
           y="917.0578"
           x="129.6956"
           height="50"
           width="5"
           id="rect4498"
           style="fill:#ffffff;fill-opacity:1;stroke:none;stroke-width:3.0999999;stroke-linecap:round;stroke-linejoin:round;stroke-miterlimit:4;stroke-dasharray:none;stroke-opacity:1" />
        <ellipse
           ry="5"
           rx="10"
           cy="967.36218"
           cx="125"
           id="ellipse4500"
           style="fill:#ffffff;fill-opacity:1;stroke:none;stroke-width:3.0999999;stroke-linecap:round;stroke-linejoin:round;stroke-miterlimit:4;stroke-dasharray:none;stroke-opacity:1" />
      </g>
    </g>
    <g
       id="g4504">
      <path
         id="circle4508"
         d="m 128.36801,876.86218 a 7.5,7.5 0 0 1 -7.5,7.5 7.5,7.5 0 0 1 -7.5,-7.5 7.5,7.5 0 0 1 7.5,-7.5 7.5,7.5 0 0 1 7.5,7.5 z"
         style="fill:none;fill-opacity:1;stroke:#000000;stroke-width:3.0999999;stroke-linecap:round;stroke-linejoin:round;stroke-miterlimit:4;stroke-dasharray:none;stroke-opacity:1" />
    </g>
    <g
       transform="matrix(1.4964548,0,0,1.6127746,-68.819237,-575.74844)"
       style="fill:#ffffff;fill-opacity:1;stroke:none;stroke-opacity:1"
       id="g4510">
      <path
         id="rect4512"
         d="m -115.84389,912.41852 63.197924,0 0,14.87143 -63.197924,0 z"
         style="fill:#ffffff;fill-opacity:1;stroke:none;stroke-width:3.0999999;stroke-linecap:round;stroke-linejoin:round;stroke-miterlimit:4;stroke-dasharray:none;stroke-opacity:1"
         transform="matrix(0.94673842,-0.32200367,0.26194686,0.9650823,0,0)" />
      <g
         style="fill:#ffffff;fill-opacity:1;stroke:none;stroke-opacity:1"
         id="g4514"
         transform="matrix(1.1521998,0,0,1,37.288942,-19.785969)" />
      <g
         style="fill:#ffffff;fill-opacity:1;stroke:none;stroke-opacity:1"
         transform="matrix(1.1369798,0,0,1,-17.883472,3.6872962e-8)"
         id="g4520">
        <path
           id="rect4522"
           d="m 129.6956,917.0578 5,0 0,50 -5,0 z"
           style="fill:#ffffff;fill-opacity:1;stroke:none;stroke-width:3.0999999;stroke-linecap:round;stroke-linejoin:round;stroke-miterlimit:4;stroke-dasharray:none;stroke-opacity:1" />
        <path
           id="ellipse4524"
           d="m 135,967.36218 a 10,5 0 0 1 -10,5 10,5 0 0 1 -10,-5 10,5 0 0 1 10,-5 10,5 0 0 1 10,5 z"
           style="fill:#ffffff;fill-opacity:1;stroke:none;stroke-width:3.0999999;stroke-linecap:round;stroke-linejoin:round;stroke-miterlimit:4;stroke-dasharray:none;stroke-opacity:1" />
      </g>
    </g>
  </g>
</svg>
