<?xml version="1.0" encoding="UTF-8" standalone="no"?>
<!-- Created with Inkscape (http://www.inkscape.org/) -->

<svg
   xmlns:dc="http://purl.org/dc/elements/1.1/"
   xmlns:cc="http://creativecommons.org/ns#"
   xmlns:rdf="http://www.w3.org/1999/02/22-rdf-syntax-ns#"
   xmlns:svg="http://www.w3.org/2000/svg"
   xmlns="http://www.w3.org/2000/svg"
   xmlns:sodipodi="http://sodipodi.sourceforge.net/DTD/sodipodi-0.dtd"
   xmlns:inkscape="http://www.inkscape.org/namespaces/inkscape"
   width="256"
   height="256"
   viewBox="0 0 256 256"
   id="svg2"
   version="1.1"
   inkscape:version="0.92+devel unknown"
   sodipodi:docname="pithos.svg">
  <sodipodi:namedview
     inkscape:document-rotation="0"
     id="base"
     pagecolor="#ffffff"
     bordercolor="#666666"
     borderopacity="1.0"
     inkscape:pageopacity="0.0"
     inkscape:pageshadow="2"
     inkscape:zoom="3.3203125"
     inkscape:cx="123.48235"
     inkscape:cy="128"
     inkscape:document-units="px"
     inkscape:current-layer="layer1"
     showgrid="true"
     units="px"
     inkscape:window-width="1920"
     inkscape:window-height="1054"
     inkscape:window-x="0"
     inkscape:window-y="0"
     inkscape:window-maximized="1">
    <inkscape:grid
       type="xygrid"
       id="grid4168"
       spacingx="5"
       spacingy="5" />
  </sodipodi:namedview>
  <defs
     id="defs4">
    <clipPath
       clipPathUnits="userSpaceOnUse"
       id="clipPath5002">
      <g
         id="g5004">
        <path
           transform="translate(0,796.36216)"
           inkscape:connector-curvature="0"
           id="path5006"
           d="M 88.118406,249.43519 C 46.103287,235.29134 14.771284,201.68742 4.1335861,159.36053 1.3377997,148.23623 0.92261224,144.16281 0.92582381,127.88908 0.92787958,117.47222 1.134384,112.01362 1.6577819,108.54099 4.4653598,89.913336 12.17654,70.638106 23.042737,55.086148 c 3.958678,-5.665755 8.344812,-10.93092 9.101533,-10.925587 0.32809,0.0023 10.488643,18.309713 22.579009,40.683112 12.090365,22.373397 22.374546,41.334697 22.853732,42.136217 0.479186,0.80151 0.924733,2.44098 0.990103,3.64326 0.343424,6.31639 2.524175,14.20976 5.6424,20.42304 2.954444,5.88693 5.065381,8.73258 10.434696,14.06652 6.71418,6.66995 12.88853,10.28643 21.73204,12.72904 3.16587,0.87442 5.10478,1.05037 11.57517,1.05037 8.82596,0 12.60219,-0.76201 19.26429,-3.88733 2.04584,-0.95974 3.93661,-1.66536 4.20172,-1.56805 0.2651,0.0973 -11.0555,17.66459 -25.1569,39.0384 l -25.6389,38.86148 -3.094121,0.11221 c -2.554618,0.0927 -4.195204,-0.25845 -9.409103,-2.01364 z"
           style="fill:#0f9d58;fill-opacity:1;stroke:none;stroke-width:4.85768509;stroke-linejoin:round;stroke-miterlimit:4;stroke-dasharray:none;stroke-opacity:1" />
        <path
           inkscape:connector-curvature="0"
           id="path5008"
           d="m 112.35984,1051.5167 c -10.0014,-1.4495 -12.15632,-1.8201 -12.531784,-2.1556 -0.248854,-0.2223 1.738304,-3.7475 4.550294,-8.0722 7.16635,-11.0213 49.77231,-74.64801 50.25856,-75.05489 3.57509,-2.99158 8.63523,-8.0414 10.57512,-10.55356 3.36154,-4.35318 7.55784,-12.9141 9.06523,-18.494 6.19314,-22.92535 -2.59253,-47.15185 -21.69967,-59.83688 l -2.96081,-1.96565 17.02469,0.29584 c 9.36358,0.1627 31.17032,0.43384 48.45941,0.60252 l 31.43471,0.30668 1.54584,4.18869 c 2.24597,6.08579 4.67816,15.0947 5.93451,21.9816 1.52517,8.36049 1.92536,28.85896 0.73851,37.82758 -3.0805,23.27845 -12.81326,45.72018 -27.80202,64.10577 -20.47622,25.1166 -51.4599,42.1974 -84.14612,46.3885 -5.31244,0.6812 -26.64601,0.9864 -30.44647,0.4356 z"
           style="fill:#f4b400;fill-opacity:1;stroke:none;stroke-width:4.85768509;stroke-linejoin:round;stroke-miterlimit:4;stroke-dasharray:none;stroke-opacity:1" />
        <path
           transform="translate(0,796.36216)"
           inkscape:connector-curvature="0"
           id="path5010"
           d="M 67.989788,108.87302 C 41.284246,59.575543 33.290284,45.149038 32.233625,44.344765 31.651257,43.901497 32.811213,42.549931 38.695603,36.815353 53.43581,22.450419 68.809334,13.040746 87.839196,6.7360352 101.68742,2.1480329 112.58238,0.43719165 127.95142,0.43719165 c 21.3099,0 37.80488,3.80960275 56.83492,13.12633035 25.29351,12.383198 46.19421,33.578863 58.51993,59.345832 1.61138,3.368591 2.92978,6.372442 2.92978,6.675231 0,0.560033 -10.54865,0.49527 -71.16508,-0.436914 l -24.28843,-0.373518 -3.93063,-1.764495 c -6.75732,-3.033425 -10.64587,-3.839529 -18.6576,-3.867747 -5.0296,-0.01773 -7.97946,0.207636 -10.31642,0.788106 -14.50826,3.603659 -26.283291,12.94777 -33.291614,26.418653 -3.58502,6.89086 -5.24713,13.08166 -6.331628,23.58317 l -0.33738,3.26696 -9.92748,-18.32578 z"
           style="fill:#db4437;fill-opacity:1;stroke:none;stroke-width:10;stroke-linejoin:round;stroke-miterlimit:4;stroke-dasharray:none;stroke-opacity:1" />
      </g>
    </clipPath>
    <clipPath
       id="clipPath4271"
       clipPathUnits="userSpaceOnUse">
      <circle
         r="128"
         cy="128.00002"
         cx="128"
         id="circle4273"
         style="fill:#292929;fill-opacity:0.26020412;stroke:none;stroke-width:10;stroke-linejoin:round;stroke-miterlimit:4;stroke-dasharray:none;stroke-opacity:0.25882353" />
    </clipPath>
    <clipPath
       clipPathUnits="userSpaceOnUse"
       id="clipPath4363">
      <circle
         r="128"
         cy="924.36218"
         cx="128"
         id="circle4365"
         style="fill:#4285f4;fill-opacity:1;stroke:none;stroke-width:10;stroke-linejoin:round;stroke-miterlimit:4;stroke-dasharray:none;stroke-opacity:0.25882353" />
    </clipPath>
    <clipPath
       id="clipPath4452"
       clipPathUnits="userSpaceOnUse">
      <circle
         r="128"
         cy="924.36218"
         cx="128"
         id="circle4454"
         style="fill:#4285f4;fill-opacity:1;stroke:none;stroke-width:10;stroke-linejoin:round;stroke-miterlimit:4;stroke-dasharray:none;stroke-opacity:0.25882353" />
    </clipPath>
    <clipPath
       clipPathUnits="userSpaceOnUse"
       id="clipPath5177">
      <circle
         r="128"
         cy="924.36218"
         cx="128"
         id="circle5179"
         style="fill:#4285f4;fill-opacity:1;stroke:none;stroke-width:10;stroke-linejoin:round;stroke-miterlimit:4;stroke-dasharray:none;stroke-opacity:0.25882353" />
    </clipPath>
    <clipPath
       id="clipPath4342"
       clipPathUnits="userSpaceOnUse">
      <circle
         r="128"
         cy="933.48718"
         cx="128"
         id="circle4344"
         style="fill:#4285f4;fill-opacity:1;stroke:none;stroke-width:10;stroke-linejoin:round;stroke-miterlimit:4;stroke-dasharray:none;stroke-opacity:0.25882353" />
    </clipPath>
    <clipPath
       clipPathUnits="userSpaceOnUse"
       id="clipPath4681">
      <circle
         r="128"
         cy="930.43964"
         cx="127.00293"
         id="circle4683"
         style="fill:#9d5fad;fill-opacity:1;stroke:none;stroke-width:10;stroke-linejoin:round;stroke-miterlimit:4;stroke-dasharray:none;stroke-opacity:0.25882353" />
    </clipPath>
    <clipPath
       id="clipPath4235"
       clipPathUnits="userSpaceOnUse">
      <circle
         r="128"
         cy="924.36218"
         cx="128"
         id="circle4237"
         style="fill:#0f9d58;fill-opacity:1;stroke:none;stroke-width:10;stroke-linejoin:round;stroke-miterlimit:4;stroke-dasharray:none;stroke-opacity:0.25882353" />
    </clipPath>
    <clipPath
       clipPathUnits="userSpaceOnUse"
       id="clipPath4771">
      <circle
         r="128"
         cy="924.36218"
         cx="128"
         id="circle4773"
         style="fill:#0f9d58;fill-opacity:1;stroke:none;stroke-width:10;stroke-linejoin:round;stroke-miterlimit:4;stroke-dasharray:none;stroke-opacity:0.25882353" />
    </clipPath>
    <clipPath
       id="clipPath4842"
       clipPathUnits="userSpaceOnUse">
      <circle
         r="128"
         cy="924.36218"
         cx="128"
         id="circle4844"
         style="fill:#0f9d58;fill-opacity:1;stroke:none;stroke-width:10;stroke-linejoin:round;stroke-miterlimit:4;stroke-dasharray:none;stroke-opacity:0.25882353" />
    </clipPath>
    <clipPath
       clipPathUnits="userSpaceOnUse"
       id="clipPath4458">
      <circle
         r="128"
         cy="924.36218"
         cx="128"
         id="circle4460"
         style="fill:#ff3b38;fill-opacity:1;stroke:none;stroke-width:10;stroke-linejoin:round;stroke-miterlimit:4;stroke-dasharray:none;stroke-opacity:0.25882353" />
    </clipPath>
    <clipPath
       id="clipPath4783"
       clipPathUnits="userSpaceOnUse">
      <circle
         r="128"
         cy="924.36218"
         cx="128"
         id="circle4785"
         style="fill:#ff3b38;fill-opacity:1;stroke:none;stroke-width:10;stroke-linejoin:round;stroke-miterlimit:4;stroke-dasharray:none;stroke-opacity:0.25882353" />
    </clipPath>
    <clipPath
       clipPathUnits="userSpaceOnUse"
       id="clipPath4789">
      <circle
         r="128"
         cy="924.36218"
         cx="102.64714"
         id="circle4791"
         style="fill:#80b4ff;fill-opacity:1;stroke:none;stroke-width:10;stroke-linejoin:round;stroke-miterlimit:4;stroke-dasharray:none;stroke-opacity:0.25882353" />
    </clipPath>
    <clipPath
       id="clipPath4721"
       clipPathUnits="userSpaceOnUse">
      <circle
         r="128"
         cy="924.36218"
         cx="128"
         id="circle4723"
         style="fill:#557ae6;fill-opacity:1;stroke:none;stroke-width:10;stroke-linejoin:round;stroke-miterlimit:4;stroke-dasharray:none;stroke-opacity:0.25882353" />
    </clipPath>
    <clipPath
       clipPathUnits="userSpaceOnUse"
       id="clipPath4954">
      <circle
         r="128"
         cy="128.00002"
         cx="128"
         id="circle4956"
         style="fill:#f8df95;fill-opacity:1;stroke:none;stroke-width:10;stroke-linejoin:round;stroke-miterlimit:4;stroke-dasharray:none;stroke-opacity:0.25882353" />
    </clipPath>
    <clipPath
       id="clipPath4887"
       clipPathUnits="userSpaceOnUse">
      <circle
         r="128"
         cy="931.72461"
         cx="126.42841"
         id="circle4889"
         style="fill:#f8df95;fill-opacity:1;stroke:none;stroke-width:10;stroke-linejoin:round;stroke-miterlimit:4;stroke-dasharray:none;stroke-opacity:0.25882353" />
    </clipPath>
    <clipPath
       clipPathUnits="userSpaceOnUse"
       id="clipPath4850">
      <circle
         r="119.70102"
         cy="919.9328"
         cx="126.09223"
         id="circle4852"
         style="fill:#f8df95;fill-opacity:1;stroke:none;stroke-width:9.35164261;stroke-linejoin:round;stroke-miterlimit:4;stroke-dasharray:none;stroke-opacity:0.25882353" />
    </clipPath>
  </defs>
  <metadata
     id="metadata7">
    <rdf:RDF>
      <cc:Work
         rdf:about="">
        <dc:format>image/svg+xml</dc:format>
        <dc:type
           rdf:resource="http://purl.org/dc/dcmitype/StillImage" />
        <dc:title />
      </cc:Work>
    </rdf:RDF>
  </metadata>
  <g
     transform="translate(0,-796.36216)"
     id="layer1"
     inkscape:groupmode="layer"
     inkscape:label="Layer 1">
    <circle
       style="fill:#f8df95;fill-opacity:1;stroke:none;stroke-width:10;stroke-linejoin:round;stroke-miterlimit:4;stroke-dasharray:none;stroke-opacity:0.25882353"
       id="path4152"
       cx="128"
       cy="924.36218"
       r="128" />
    <text
       id="text4914"
       y="927.36218"
       x="120"
       style="font-style:normal;font-weight:normal;line-height:0%;font-family:sans-serif;letter-spacing:0px;word-spacing:0px;fill:#000000;fill-opacity:1;stroke:none;stroke-width:1px;stroke-linecap:butt;stroke-linejoin:miter;stroke-opacity:1"
       xml:space="preserve"><tspan
         style="font-size:40px;line-height:1.25"
         y="927.36218"
         x="120"
         id="tspan4916"
         sodipodi:role="line"> </tspan></text>
    <g
       style="stroke:none"
       transform="translate(-4.11162,138)"
       id="g4241">
      <g
         style="stroke:none"
         id="g4446">
        <g
           id="g4448"
           style="fill:none;fill-rule:evenodd;stroke:none;stroke-width:10;stroke-linecap:round;stroke-linejoin:miter;stroke-miterlimit:4;stroke-dasharray:none;stroke-opacity:1">
          <path
             style="stroke:none"
             id="path4450"
             d="m 129.98857,850.41168 c 0,15 0,15 0,15 L -82.143464,1077.5437 c 0,0 0,0 0,-15 z"
             inkscape:connector-curvature="0" />
        </g>
        <path
           inkscape:connector-curvature="0"
           id="path4247"
           d="m 129.98857,850.41168 c 0,15 0,15 0,15"
           style="fill:none;fill-rule:evenodd;stroke:none;stroke-width:10;stroke-linecap:round;stroke-linejoin:miter;stroke-miterlimit:4;stroke-dasharray:none;stroke-opacity:1" />
      </g>
      <g
         style="stroke:none"
         id="g4453">
        <g
           id="g4455"
           style="fill:none;fill-rule:evenodd;stroke:none;stroke-width:10;stroke-linecap:round;stroke-linejoin:miter;stroke-miterlimit:4;stroke-dasharray:none;stroke-opacity:1">
          <path
             style="stroke:none"
             id="path4457"
             d="m 111.58095,850.41168 c 0,15 0,15 0,15 l -212.13203,212.13202 c 0,0 0,0 0,-15 z"
             inkscape:connector-curvature="0" />
        </g>
        <path
           style="fill:none;fill-rule:evenodd;stroke:none;stroke-width:10;stroke-linecap:round;stroke-linejoin:miter;stroke-miterlimit:4;stroke-dasharray:none;stroke-opacity:1"
           d="m 111.58095,850.41168 c 0,15 0,15 0,15"
           id="path4245"
           inkscape:connector-curvature="0" />
      </g>
      <g
         style="stroke:none"
         id="g4460">
        <g
           id="g4462"
           style="fill:none;fill-rule:evenodd;stroke:none;stroke-width:10;stroke-linecap:round;stroke-linejoin:miter;stroke-miterlimit:4;stroke-dasharray:none;stroke-opacity:1">
          <path
             style="stroke:none"
             id="path4464"
             d="m 93.173333,850.41168 c 0,15 0,15 0,15 L -118.9587,1077.5437 c 0,0 0,0 0,-15 z"
             inkscape:connector-curvature="0" />
        </g>
        <path
           inkscape:connector-curvature="0"
           id="path4243"
           d="m 93.173333,850.41168 c 0,15 0,15 0,15"
           style="fill:none;fill-rule:evenodd;stroke:none;stroke-width:10;stroke-linecap:round;stroke-linejoin:miter;stroke-miterlimit:4;stroke-dasharray:none;stroke-opacity:1" />
      </g>
      <g
         style="stroke:none"
         id="g4467">
        <g
           id="g4469"
           style="fill:none;fill-rule:evenodd;stroke:none;stroke-width:10;stroke-linecap:round;stroke-linejoin:miter;stroke-miterlimit:4;stroke-dasharray:none;stroke-opacity:1">
          <path
             style="stroke:none"
             id="path4471"
             d="m 166.80381,850.41168 c 0,15 0,15 0,15 L -45.328224,1077.5437 c 0,0 0,0 0,-15 z"
             inkscape:connector-curvature="0" />
        </g>
        <path
           inkscape:connector-curvature="0"
           id="path4251"
           d="m 166.80381,850.41168 c 0,15 0,15 0,15"
           style="fill:none;fill-rule:evenodd;stroke:none;stroke-width:10;stroke-linecap:round;stroke-linejoin:miter;stroke-miterlimit:4;stroke-dasharray:none;stroke-opacity:1" />
      </g>
      <g
         style="stroke:none"
         id="g4474">
        <g
           id="g4476"
           style="fill:none;fill-rule:evenodd;stroke:none;stroke-width:10;stroke-linecap:round;stroke-linejoin:miter;stroke-miterlimit:4;stroke-dasharray:none;stroke-opacity:1">
          <path
             style="stroke:none"
             id="path4478"
             d="m 148.39619,850.41168 c 0,15 0,15 0,15 L -63.735844,1077.5437 c 0,0 0,0 0,-15 z"
             inkscape:connector-curvature="0" />
        </g>
        <path
           style="fill:none;fill-rule:evenodd;stroke:none;stroke-width:10;stroke-linecap:round;stroke-linejoin:miter;stroke-miterlimit:4;stroke-dasharray:none;stroke-opacity:1"
           d="m 148.39619,850.41168 c 0,15 0,15 0,15"
           id="path4249"
           inkscape:connector-curvature="0" />
      </g>
    </g>
    <g
       id="g4345"
       transform="matrix(1.0693309,0,0,1.0693309,-6.8343165,-59.350414)"
       clip-path="url(#clipPath4850)"
       style="fill:#c3a56e;fill-opacity:1">
      <g
         id="g4738"
         transform="matrix(0.93516422,0,0,0.93516422,6.3912083,800.23178)"
         style="fill:#c3a56e;fill-opacity:1">
        <g
           id="g4735"
           style="fill:#c3a56e;fill-opacity:1;stroke:none;stroke-width:6.04042816;stroke-miterlimit:4;stroke-dasharray:none;stroke-opacity:1">
          <path
             id="path4667"
             d="M118.20117 37.107422C107.54454 37.107422 97.897242 38.491928 90.390625 40.994141L-121.741409356 253.126175356C-114.234792356 250.623962356 -104.587494356 249.239456356 -93.930864356 249.239456356Z"
             style="fill:#c3a56e;fill-opacity:1" />
          <path
             id="path4669"
             d="M90.390625 40.994141C86.637316 42.245236 83.399905 43.740766 80.699219 45.869141L-131.432815356 258.001175356C-128.732129356 255.872800356 -125.494718356 254.377270356 -121.741409356 253.126175356Z"
             style="fill:#c3a56e;fill-opacity:1" />
          <path
             id="path4671"
             d="M80.699219 45.869141C80.19156867 46.2692133385 79.6910610226 46.7090422157 79.2129476608 47.1871555774L-132.919086695 259.319189933C-132.440973333 258.841076572 -131.940465686 258.401247694 -131.432815356 258.001175356Z"
             style="fill:#c3a56e;fill-opacity:1" />
          <path
             id="path4673"
             d="M79.2129476608 47.1871555774C77.1475108933 49.2525923449 75.5 52.0325005139 75.5 55.408203L-136.632034356 267.540237356C-136.632034356 264.16453487 -134.984523463 261.384626701 -132.919086695 259.319189933Z"
             style="fill:#c3a56e;fill-opacity:1" />
          <path
             id="path4675"
             d="M75.5 55.408203C75.5 59.565334 77.998533 62.820833 80.699219 64.949219L-131.432815356 277.081253356C-134.133501356 274.952867356 -136.632034356 271.697368356 -136.632034356 267.540237356Z"
             style="fill:#c3a56e;fill-opacity:1" />
          <path
             id="path4677"
             d="M80.699219 64.949219C80.756642 64.994451 80.817096 65.035423 80.875 65.080078L-131.257034356 277.212112356C-131.314938356 277.167457356 -131.375392356 277.126485356 -131.432815356 277.081253356Z"
             style="fill:#c3a56e;fill-opacity:1" />
          <path
             id="path4679"
             d="M79.539062 66.912109C72.940475 63.474403 66.766933 61.887562 60.755859 62.244141L-151.376175356 274.376175356C-145.365101356 274.019596356 -139.191559356 275.606437356 -132.592972356 279.044143356Z"
             style="fill:#c3a56e;fill-opacity:1" />
          <path
             id="path4681"
             d="M60.755859 62.244141C55.4597545005 62.5583114599 50.6855593356 65.0109011505 47.1396609494 68.5567995367L-164.992373407 280.688833893C-161.44647502 277.142935506 -156.672279855 274.690345816 -151.376175356 274.376175356Z"
             style="fill:#c3a56e;fill-opacity:1" />
          <path
             id="path4683"
             d="M47.1396609494 68.5567995367C44.2571056453 71.4393548408 42.1862699503 75.0444229142 41.306641 78.810547L-170.825393356 290.942581356C-169.945764406 287.17645727 -167.874928711 283.571389197 -164.992373407 280.688833893Z"
             style="fill:#c3a56e;fill-opacity:1" />
          <path
             id="path4685"
             d="M41.306641 78.810547C37.890133 93.438309 45.425937 110.45529 61.910156 122.14062L-150.221878356 334.272654356C-166.706097356 322.587324356 -174.241901356 305.570343356 -170.825393356 290.942581356Z"
             style="fill:#c3a56e;fill-opacity:1" />
          <path
             id="path4687"
             d="M171.64453 124.72461L180.29883 93.171875L-31.833204356 305.303909356L-40.487504356 336.856644356Z"
             style="fill:#c3a56e;fill-opacity:1" />
          <path
             id="path4689"
             d="M180.29883 93.171875L197.05664 104.37891L-15.075394356 316.510944356L-31.833204356 305.303909356Z"
             style="fill:#c3a56e;fill-opacity:1" />
          <path
             id="path4691"
             d="M197.05664 104.37891C203.20476 106.06522 209.35188 107.74924 215.5 109.43555L3.36796564404 321.567584356C-2.78015435596 319.881274356 -8.92727435596 318.197254356 -15.075394356 316.510944356Z"
             style="fill:#c3a56e;fill-opacity:1" />
          <path
             id="path4693"
             d="M215.5 109.43555C195.96649 84.245832 200.42959 92.083032 188.73047 62.431641L-23.401564356 274.563675356C-11.702444356 304.215066356 -16.165544356 296.377866356 3.36796564404 321.567584356Z"
             style="fill:#c3a56e;fill-opacity:1" />
          <path
             id="path4695"
             d="M188.73047 62.431641L170.28516 57.373047L-41.846874356 269.505081356L-23.401564356 274.563675356Z"
             style="fill:#c3a56e;fill-opacity:1" />
          <path
             id="path4697"
             d="M170.28516 57.373047L163.20508 83.1875L-48.926954356 295.319534356L-41.846874356 269.505081356Z"
             style="fill:#c3a56e;fill-opacity:1" />
          <path
             id="path4699"
             d="M153.56445 66.4375C154.30978 65.976864 155.02297 65.483702 155.70117 64.949219L-56.430864356 277.081253356C-57.109064356 277.615736356 -57.822254356 278.108898356 -58.567584356 278.569534356Z"
             style="fill:#c3a56e;fill-opacity:1" />
          <path
             id="path4701"
             d="M155.70117 64.949219C156.208820469 64.5491448889 156.709396925 64.109246531 157.187621984 63.6310214722L-54.9444123725 275.763055828C-55.4226374312 276.241280887 -55.9232138869 276.681179245 -56.430864356 277.081253356Z"
             style="fill:#c3a56e;fill-opacity:1" />
          <path
             id="path4703"
             d="M157.187621984 63.6310214722C159.25354435 61.5650991054 160.90234 58.7839153618 160.90234 55.408203L-51.229694356 267.540237356C-51.229694356 270.915949718 -52.8784900056 273.697133461 -54.9444123725 275.763055828Z"
             style="fill:#c3a56e;fill-opacity:1" />
          <path
             id="path4705"
             d="M160.90234 55.408203C160.90234 51.251083 158.40186 47.997515 155.70117 45.869141L-56.430864356 258.001175356C-53.730174356 260.129549356 -51.229694356 263.383117356 -51.229694356 267.540237356Z"
             style="fill:#c3a56e;fill-opacity:1" />
          <path
             id="path4707"
             d="M155.70117 45.869141C153.00049 43.740766 149.76504 42.245236 146.01172 40.994141L-66.120314356 253.126175356C-62.366994356 254.377270356 -59.131544356 255.872800356 -56.430864356 258.001175356Z"
             style="fill:#c3a56e;fill-opacity:1" />
          <path
             id="path4709"
             d="M146.01172 40.994141C138.50511 38.491928 128.85779 37.107422 118.20117 37.107422L-93.930864356 249.239456356C-83.274244356 249.239456356 -73.626924356 250.623962356 -66.120314356 253.126175356Z"
             style="fill:#c3a56e;fill-opacity:1" />
          <path
             id="path4711"
             d="M118.20117 49.306641C127.75886 49.306641 136.41386 50.656841 142.1543 52.570312L-69.977734356 264.702346356C-75.718174356 262.788875356 -84.373174356 261.438675356 -93.930864356 261.438675356Z"
             style="fill:#c3a56e;fill-opacity:1" />
          <path
             id="path4713"
             d="M142.1543 52.570312C144.98359 53.513409 147.04186 54.620979 148.0625 55.410156L-64.069534356 267.542190356C-65.090174356 266.753013356 -67.148444356 265.645443356 -69.977734356 264.702346356Z"
             style="fill:#c3a56e;fill-opacity:1" />
          <path
             id="path4715"
             d="M148.0625 55.410156C147.04167 56.199301 144.98313 57.3051 142.1543 58.248047L-69.977734356 270.380081356C-67.148904356 269.437134356 -65.090364356 268.331335356 -64.069534356 267.542190356Z"
             style="fill:#c3a56e;fill-opacity:1" />
          <path
             id="path4717"
             d="M142.1543 58.248047C136.41386 60.161529 127.75886 61.507812 118.20117 61.507812L-93.930864356 273.639846356C-84.373174356 273.639846356 -75.718174356 272.293563356 -69.977734356 270.380081356Z"
             style="fill:#c3a56e;fill-opacity:1" />
          <path
             id="path4719"
             d="M118.20117 61.507812C108.64348 61.507812 99.988472 60.161529 94.248047 58.248047L-117.883987356 270.380081356C-112.143562356 272.293563356 -103.488554356 273.639846356 -93.930864356 273.639846356Z"
             style="fill:#c3a56e;fill-opacity:1" />
          <path
             id="path4721"
             d="M94.248047 58.248047C91.419207 57.3051 89.358727 56.199301 88.337891 55.410156L-123.794143356 267.542190356C-122.773307356 268.331335356 -120.712827356 269.437134356 -117.883987356 270.380081356Z"
             style="fill:#c3a56e;fill-opacity:1" />
          <path
             id="path4723"
             d="M88.337891 55.410156C89.358546 54.620979 91.418758 53.513409 94.248047 52.570312L-117.883987356 264.702346356C-120.713276356 265.645443356 -122.773488356 266.753013356 -123.794143356 267.542190356Z"
             style="fill:#c3a56e;fill-opacity:1" />
          <path
             id="path4725"
             d="M94.248047 52.570312C99.988472 50.656841 108.64348 49.306641 118.20117 49.306641L-93.930864356 261.438675356C-103.488554356 261.438675356 -112.143562356 262.788875356 -117.883987356 264.702346356Z"
             style="fill:#c3a56e;fill-opacity:1" />
          <path
             id="path4727"
             d="M61.837891 80.513672C63.307491 80.426414 66.234466 81.000441 70.261719 82.914062L-141.870315356 295.046096356C-145.897568356 293.132475356 -148.824543356 292.558448356 -150.294143356 292.645706356Z"
             style="fill:#c3a56e;fill-opacity:1" />
          <path
             id="path4729"
             d="M64.859375 99.455078C59.87481 92.747657 58.43331 85.942477 59.126953 82.972656L-153.005081356 295.104690356C-153.698724356 298.074511356 -152.257224356 304.879691356 -147.272659356 311.587112356Z"
             style="fill:#c3a56e;fill-opacity:1" />
          <path
             id="path4731"
             d="M59.126953 82.972656C59.4076722826 81.7707635408 59.4517049585 81.1937803197 59.7473927523 80.8980925259L-152.384641604 293.030126882C-152.680329397 293.325814676 -152.724362073 293.902797897 -153.005081356 295.104690356Z"
             style="fill:#c3a56e;fill-opacity:1" />
          <path
             id="path4733"
             d="M59.7473927523 80.8980925259C60.0400095171 80.6054757611 60.5790811392 80.5883416689 61.837891 80.513672L-150.294143356 292.645706356C-151.552953217 292.720376025 -152.092024839 292.737510117 -152.384641604 293.030126882Z"
             style="fill:#c3a56e;fill-opacity:1" />
        </g>
        <path
           id="path4341"
           transform=""
           d="M 118.20117 37.107422 C 107.54454 37.107422 97.897242 38.491928 90.390625 40.994141 C 86.637316 42.245236 83.399905 43.740766 80.699219 45.869141 C 77.998533 47.997515 75.5 51.251083 75.5 55.408203 C 75.5 59.565334 77.998533 62.820833 80.699219 64.949219 C 80.756642 64.994451 80.817096 65.035423 80.875 65.080078 A 54.901889 79.302728 0 0 0 79.539062 66.912109 C 72.940475 63.474403 66.766933 61.887562 60.755859 62.244141 C 51.15441 62.813709 43.268322 70.411626 41.306641 78.810547 C 37.890133 93.438309 45.425937 110.45529 61.910156 122.14062 A 54.901889 79.302728 0 0 0 61.847656 124.94922 A 54.901889 79.302728 0 0 0 90.154297 194.2207 A 36.601259 14.640503 0 0 0 80.148438 204.25195 A 36.601259 14.640503 0 0 0 116.75 218.89258 A 36.601259 14.640503 0 0 0 153.35156 204.25195 A 36.601259 14.640503 0 0 0 143.41602 194.23828 A 54.901889 79.302728 0 0 0 171.65234 124.94922 A 54.901889 79.302728 0 0 0 171.64453 124.72461 L 180.29883 93.171875 L 197.05664 104.37891 C 203.20476 106.06522 209.35188 107.74924 215.5 109.43555 C 195.96649 84.245832 200.42959 92.083032 188.73047 62.431641 L 170.28516 57.373047 L 163.20508 83.1875 A 54.901889 79.302728 0 0 0 153.56445 66.4375 C 154.30978 65.976864 155.02297 65.483702 155.70117 64.949219 C 158.40186 62.820833 160.90234 59.565334 160.90234 55.408203 C 160.90234 51.251083 158.40186 47.997515 155.70117 45.869141 C 153.00049 43.740766 149.76504 42.245236 146.01172 40.994141 C 138.50511 38.491928 128.85779 37.107422 118.20117 37.107422 z M 118.20117 49.306641 C 127.75886 49.306641 136.41386 50.656841 142.1543 52.570312 C 144.98359 53.513409 147.04186 54.620979 148.0625 55.410156 C 147.04167 56.199301 144.98313 57.3051 142.1543 58.248047 C 136.41386 60.161529 127.75886 61.507812 118.20117 61.507812 C 108.64348 61.507812 99.988472 60.161529 94.248047 58.248047 C 91.419207 57.3051 89.358727 56.199301 88.337891 55.410156 C 89.358546 54.620979 91.418758 53.513409 94.248047 52.570312 C 99.988472 50.656841 108.64348 49.306641 118.20117 49.306641 z M 61.837891 80.513672 C 63.307491 80.426414 66.234466 81.000441 70.261719 82.914062 A 54.901889 79.302728 0 0 0 64.859375 99.455078 C 59.87481 92.747657 58.43331 85.942477 59.126953 82.972656 C 59.685476 80.581354 59.30706 80.663795 61.837891 80.513672 z "
           style="fill:#c3a56e;fill-opacity:1;stroke:none;stroke-width:6.04042816;stroke-miterlimit:4;stroke-dasharray:none;stroke-opacity:1" />
      </g>
    </g>
    <g
       transform="matrix(1.0693309,0,0,1.0693309,-6.8343165,-59.350414)"
       id="g4682">
      <path
         style="fill:#ffffff;fill-opacity:1;stroke:none;stroke-width:5.64879227;stroke-miterlimit:4;stroke-dasharray:none;stroke-opacity:1"
         d="m 116.92835,834.93281 c -9.9657,0 -18.98771,1.29454 -26.00763,3.63452 -3.50996,1.16998 -6.537308,2.56892 -9.062893,4.5593 -2.525585,1.99038 -4.862364,5.03268 -4.862364,8.92027 0,3.8876 2.336779,6.93212 4.862364,8.92251 0.0537,0.0423 0.110751,0.0808 0.164901,0.12256 a 51.342282,74.161074 0 0 0 -1.250131,1.71364 c -6.170763,-3.21482 -11.942887,-4.69889 -17.564228,-4.36543 -8.978932,0.53264 -16.353692,7.63745 -18.188186,15.49182 -3.194996,13.67936 3.851276,29.59348 19.266728,40.52119 a 51.342282,74.161074 0 0 0 -0.05796,2.62727 51.342282,74.161074 0 0 0 26.471139,64.77952 34.228188,13.691275 0 0 0 -9.357046,9.38155 34.228188,13.691275 0 0 0 34.228186,13.69127 34.228188,13.691275 0 0 0 34.22819,-13.69127 34.228188,13.691275 0 0 0 -9.29019,-9.36595 51.342282,74.161074 0 0 0 26.40428,-64.79512 A 51.342282,74.161074 0 0 0 150,862.36216 c 0.697,-0.43077 1.36241,-0.89292 1.99664,-1.39275 2.52559,-1.99039 4.86459,-5.03491 4.86459,-8.92251 0,-3.88759 -2.339,-6.92989 -4.86459,-8.92027 -2.52558,-1.99038 -5.5507,-3.38932 -9.06067,-4.5593 -7.01991,-2.33998 -16.04193,-3.63452 -26.00762,-3.63452 z m 0,11.4094 c 8.93801,0 17.0316,1.26126 22.39985,3.05067 2.64585,0.88195 4.57195,1.91824 5.52642,2.65625 -0.95464,0.73798 -2.881,1.77222 -5.52642,2.65403 -5.36825,1.78942 -13.46184,3.04844 -22.39985,3.04844 -8.93801,0 -17.03161,-1.25902 -22.39985,-3.04844 -2.64543,-0.88181 -4.57178,-1.91605 -5.52643,-2.65403 0.95448,-0.73801 2.88058,-1.7743 5.52643,-2.65625 5.36824,-1.78941 13.46184,-3.05067 22.39985,-3.05067 z m -52.708287,29.1831 c 1.374318,-0.0816 4.111238,0.45444 7.877381,2.24399 a 51.342282,74.161074 0 0 0 -5.051777,15.46954 c -4.661387,-6.27254 -6.010195,-12.63656 -5.361525,-15.41383 0.522311,-2.23626 0.169179,-2.15931 2.535921,-2.2997 z"
         id="path1012"
         inkscape:connector-curvature="0" />
      <path
         style="fill:#729fcf;fill-opacity:1;stroke:none;stroke-width:12.44412518;stroke-miterlimit:4;stroke-dasharray:none;stroke-opacity:1"
         d="m 165.63669,853.88469 -22.41904,81.73821 a 25.974541,20.866464 15.337924 0 0 -7.46506,-3.11797 25.974541,20.866464 15.337924 0 0 -30.56954,13.25245 25.974541,20.866464 15.337924 0 0 19.53119,26.99409 25.974541,20.866464 15.337924 0 0 29.60863,-10.69518 l 0.17622,0.0491 0.44001,-1.6022 a 25.974541,20.866464 15.337924 0 0 0.34236,-1.0039 25.974541,20.866464 15.337924 0 0 0.3285,-1.44039 25.974541,20.866464 15.337924 0 0 0.001,-0.007 L 175,887.36216 l 15.67194,10.48019 c 5.7495,1.57698 11.49766,3.15356 17.24716,4.73053 -18.26704,-23.55652 -14.09288,-16.22886 -25.03348,-43.95778 z"
         id="path1057"
         inkscape:connector-curvature="0" />
    </g>
  </g>
</svg>
