<?xml version="1.0" encoding="UTF-8" standalone="no"?>
<!-- Created with Inkscape (http://www.inkscape.org/) -->

<svg
   xmlns:dc="http://purl.org/dc/elements/1.1/"
   xmlns:cc="http://creativecommons.org/ns#"
   xmlns:rdf="http://www.w3.org/1999/02/22-rdf-syntax-ns#"
   xmlns:svg="http://www.w3.org/2000/svg"
   xmlns="http://www.w3.org/2000/svg"
   xmlns:sodipodi="http://sodipodi.sourceforge.net/DTD/sodipodi-0.dtd"
   xmlns:inkscape="http://www.inkscape.org/namespaces/inkscape"
   width="256"
   height="256"
   viewBox="0 0 256 256"
   id="svg4149"
   version="1.1"
   inkscape:version="0.91 r13725"
   sodipodi:docname="popcorntime.svg">
  <sodipodi:namedview
     id="base"
     pagecolor="#ffffff"
     bordercolor="#666666"
     borderopacity="1.0"
     inkscape:pageopacity="0.0"
     inkscape:pageshadow="2"
     inkscape:zoom="3.2851562"
     inkscape:cx="76.55648"
     inkscape:cy="128"
     inkscape:document-units="px"
     inkscape:current-layer="layer1"
     showgrid="true"
     units="px"
     inkscape:window-width="1920"
     inkscape:window-height="1033"
     inkscape:window-x="0"
     inkscape:window-y="0"
     inkscape:window-maximized="1">
    <inkscape:grid
       spacingy="5"
       spacingx="5"
       id="grid4250"
       type="xygrid" />
  </sodipodi:namedview>
  <defs
     id="defs4151">
    <clipPath
       id="clipPath4863"
       clipPathUnits="userSpaceOnUse">
      <circle
         r="77.263145"
         cy="924.36218"
         cx="128"
         id="circle4865"
         style="fill:#e9e9e9;fill-opacity:1;stroke:none;stroke-width:20;stroke-miterlimit:4;stroke-dasharray:none;stroke-opacity:1" />
    </clipPath>
    <clipPath
       clipPathUnits="userSpaceOnUse"
       id="clipPath4227">
      <circle
         r="77.263145"
         cy="924.36218"
         cx="128"
         id="circle4229"
         style="fill:#e9e9e9;fill-opacity:1;stroke:none;stroke-width:20;stroke-miterlimit:4;stroke-dasharray:none;stroke-opacity:1" />
    </clipPath>
    <clipPath
       id="clipPath5543"
       clipPathUnits="userSpaceOnUse">
      <circle
         r="128"
         cy="924.36218"
         cx="128"
         id="circle5545"
         style="fill:#9e9fe9;fill-opacity:1;stroke:none;stroke-width:20;stroke-miterlimit:4;stroke-dasharray:none;stroke-opacity:1" />
    </clipPath>
    <clipPath
       clipPathUnits="userSpaceOnUse"
       id="clipPath6248">
      <circle
         r="128"
         cy="924.36218"
         cx="128"
         id="circle6250"
         style="fill:#77c445;fill-opacity:1;stroke:none;stroke-width:20;stroke-miterlimit:4;stroke-dasharray:none;stroke-opacity:1" />
    </clipPath>
    <clipPath
       clipPathUnits="userSpaceOnUse"
       id="clipPath4624">
      <path
         style="fill:#0f9d58;fill-opacity:1"
         d="m 151.20117,0.24318 -105.78125,0 c -7.804357,0 -14.087891,6.28158 -14.087891,14.08594 l 0,227.33994 c 0,7.8043 6.283534,14.0878 14.087891,14.0878 l 165.16211,0 c 7.80436,0 14.08594,-6.2835 14.08594,-14.0878 l 0,-154.82237 -73.4668,-86.60351 z"
         id="path4626"
         inkscape:connector-curvature="0" />
    </clipPath>
    <clipPath
       clipPathUnits="userSpaceOnUse"
       id="clipPath6409">
      <circle
         r="128"
         cy="924.36218"
         cx="128"
         id="circle6411"
         style="fill:#77c445;fill-opacity:1;stroke:none;stroke-width:20;stroke-miterlimit:4;stroke-dasharray:none;stroke-opacity:1" />
    </clipPath>
    <clipPath
       id="clipPath4544"
       clipPathUnits="userSpaceOnUse">
      <circle
         r="128"
         cy="128.00002"
         cx="128"
         id="circle4546"
         style="fill:#0f9d97;fill-opacity:1;stroke:none;stroke-width:20;stroke-miterlimit:4;stroke-dasharray:none;stroke-opacity:1" />
    </clipPath>
    <clipPath
       clipPathUnits="userSpaceOnUse"
       id="clipPath4250">
      <circle
         r="128"
         cy="924.36218"
         cx="128"
         id="circle4252"
         style="fill:#b70a01;fill-opacity:1;stroke:none;stroke-width:20;stroke-miterlimit:4;stroke-dasharray:none;stroke-opacity:1" />
    </clipPath>
    <clipPath
       id="clipPath4241"
       clipPathUnits="userSpaceOnUse">
      <circle
         r="128"
         cy="924.36218"
         cx="128"
         id="circle4243"
         style="fill:#01a3d2;fill-opacity:1;stroke:none;stroke-width:20;stroke-miterlimit:4;stroke-dasharray:none;stroke-opacity:1" />
    </clipPath>
    <clipPath
       clipPathUnits="userSpaceOnUse"
       id="clipPath4247">
      <circle
         r="128"
         cy="924.36218"
         cx="128"
         id="circle4249"
         style="fill:#01a3d2;fill-opacity:1;stroke:none;stroke-width:20;stroke-miterlimit:4;stroke-dasharray:none;stroke-opacity:1" />
    </clipPath>
    <clipPath
       id="clipPath5181"
       clipPathUnits="userSpaceOnUse">
      <circle
         r="128"
         cy="931.80023"
         cx="135.51227"
         id="circle5183"
         style="fill:#ff5353;fill-opacity:1;stroke:none;stroke-width:20;stroke-miterlimit:4;stroke-dasharray:none;stroke-opacity:1" />
    </clipPath>
    <clipPath
       id="clipPath5123"
       clipPathUnits="userSpaceOnUse">
      <circle
         r="128"
         cy="901.25757"
         cx="117.28299"
         id="circle5125"
         style="fill:#6ab5d9;fill-opacity:1;stroke:none;stroke-width:20;stroke-miterlimit:4;stroke-dasharray:none;stroke-opacity:1" />
    </clipPath>
    <clipPath
       clipPathUnits="userSpaceOnUse"
       id="clipPath4468">
      <circle
         r="128"
         cy="924.36218"
         cx="128"
         id="circle4470"
         style="fill:#3976b0;fill-opacity:1;stroke:none;stroke-width:20;stroke-miterlimit:4;stroke-dasharray:none;stroke-opacity:1" />
    </clipPath>
  </defs>
  <metadata
     id="metadata4154">
    <rdf:RDF>
      <cc:Work
         rdf:about="">
        <dc:format>image/svg+xml</dc:format>
        <dc:type
           rdf:resource="http://purl.org/dc/dcmitype/StillImage" />
        <dc:title />
      </cc:Work>
    </rdf:RDF>
  </metadata>
  <g
     inkscape:label="Layer 1"
     inkscape:groupmode="layer"
     id="layer1"
     transform="translate(0,-796.36216)">
    <circle
       style="fill:#3976b0;fill-opacity:1;stroke:none;stroke-width:20;stroke-miterlimit:4;stroke-dasharray:none;stroke-opacity:1"
       id="path4723"
       cx="128"
       cy="924.36218"
       r="128" />
    <g
       style="fill:#0c4070;fill-opacity:1"
       clip-path="url(#clipPath5123)"
       transform="translate(10.717009,23.104625)"
       id="g4955">
      <g
         style="fill:#0c4070;fill-opacity:1"
         id="g4969"
         transform="translate(-0.30439952,24.351962)">
        <path
           inkscape:connector-curvature="0"
           id="path4971"
           d="m 74.639515,967.25532 c 0,-0.22029 -3.2867,-22.30828 -7.30378,-49.08442 -4.01708,-26.77614 -7.3046,-48.85512 -7.30559,-49.06439 -10e-4,-0.30316 12.55496,-0.3805 61.772165,-0.3805 l 61.77397,0 -0.14184,0.9893 c -0.078,0.54411 -2.26039,22.28965 -4.84972,48.32342 -2.58934,26.03377 -4.7891,47.8478 -4.88838,48.47563 l -0.18049,1.1415 -49.43816,0 c -40.666585,0 -49.438175,-0.0711 -49.438175,-0.40054 z"
           style="opacity:1;fill:#0c4070;fill-opacity:1;stroke:none" />
      </g>
      <g
         style="fill:#0c4070;fill-opacity:1"
         transform="translate(-10.717009,773.25753)"
         id="g5025">
        <g
           style="opacity:1;fill:#0c4070;fill-opacity:1;stroke:none"
           id="g5027">
          <path
             style="fill:#0c4070;fill-opacity:1"
             d="M69.755859 119.55859L84.716797 219.28516L-127.415237356 431.417194356L-142.376175356 331.690624356Z"
             id="path5029" />
          <path
             style="fill:#0c4070;fill-opacity:1"
             d="M84.716797 219.28516L104.7168 219.28516L-107.415234356 431.417194356L-127.415237356 431.417194356Z"
             id="path5031" />
          <path
             style="fill:#0c4070;fill-opacity:1"
             d="M104.7168 219.28516L94.779297 119.93164L-117.352737356 332.063674356L-107.415234356 431.417194356Z"
             id="path5033" />
          <path
             style="fill:#0c4070;fill-opacity:1"
             d="M94.779297 119.93164L119.74805 119.93164L-92.383984356 332.063674356L-117.352737356 332.063674356Z"
             id="path5035" />
          <path
             style="fill:#0c4070;fill-opacity:1"
             d="M119.74805 119.93164L124.71484 219.28516L-87.417194356 431.417194356L-92.383984356 332.063674356Z"
             id="path5037" />
          <path
             style="fill:#0c4070;fill-opacity:1"
             d="M124.71484 219.28516L144.71484 219.28516L-67.417194356 431.417194356L-87.417194356 431.417194356Z"
             id="path5039" />
          <path
             style="fill:#0c4070;fill-opacity:1"
             d="M144.71484 219.28516L144.71484 119.93164L-67.417194356 332.063674356L-67.417194356 431.417194356Z"
             id="path5041" />
          <path
             style="fill:#0c4070;fill-opacity:1"
             d="M144.71484 119.93164L169.68164 119.93164L-42.450394356 332.063674356L-67.417194356 332.063674356Z"
             id="path5043" />
          <path
             style="fill:#0c4070;fill-opacity:1"
             d="M169.68164 119.93164L164.71484 219.28516L-47.417194356 431.417194356L-42.450394356 332.063674356Z"
             id="path5045" />
          <path
             style="fill:#0c4070;fill-opacity:1"
             d="M164.71484 219.28516L184.71484 219.28516L-27.417194356 431.417194356L-47.417194356 431.417194356Z"
             id="path5047" />
          <path
             style="fill:#0c4070;fill-opacity:1"
             d="M184.71484 219.28516L194.65039 119.93164L-17.481644356 332.063674356L-27.417194356 431.417194356Z"
             id="path5049" />
          <path
             style="fill:#0c4070;fill-opacity:1"
             d="M194.65039 119.93164L196.02148 119.93164L-16.110554356 332.063674356L-17.481644356 332.063674356Z"
             id="path5051" />
          <path
             style="fill:#0c4070;fill-opacity:1"
             d="M196.02148 119.93164L196.02148 118.13281L-16.110554356 330.264844356L-16.110554356 332.063674356Z"
             id="path5053" />
          <path
             style="fill:#0c4070;fill-opacity:1"
             d="M196.02148 93.333984L196.02148 93.207031L-16.110554356 305.339065356L-16.110554356 305.466018356Z"
             id="path5055" />
          <path
             style="fill:#0c4070;fill-opacity:1"
             d="M81.021484 119.24414L81.021484 119.28516L-131.110550356 331.417194356L-131.110550356 331.376174356Z"
             id="path5057" />
          <path
             style="fill:#0c4070;fill-opacity:1"
             d="M81.021484 119.28516L80.742188 119.28516L-131.389846356 331.417194356L-131.110550356 331.417194356Z"
             id="path5059" />
        </g>
        <path
           style="opacity:1;fill:#0c4070;fill-opacity:1;stroke:none"
           d="M 166.48047 36.714844 A 37.5 35 0 0 0 132.99023 56.060547 A 17.5 25 0 0 0 120.04297 47.841797 A 17.5 25 0 0 0 102.60742 70.988281 A 22.5 22.5 0 0 0 82.568359 58.716797 A 22.5 22.5 0 0 0 60.068359 81.216797 A 22.5 22.5 0 0 0 60.845703 87.044922 A 27.5 17.5 0 0 0 46.759766 102.29883 A 27.5 17.5 0 0 0 69.755859 119.55859 L 84.716797 219.28516 L 104.7168 219.28516 L 94.779297 119.93164 L 119.74805 119.93164 L 124.71484 219.28516 L 144.71484 219.28516 L 144.71484 119.93164 L 169.68164 119.93164 L 164.71484 219.28516 L 184.71484 219.28516 L 194.65039 119.93164 L 196.02148 119.93164 L 196.02148 118.13281 A 15 12.5 0 0 0 209.24023 105.73633 A 15 12.5 0 0 0 196.02148 93.333984 L 196.02148 93.207031 A 37.5 35 0 0 0 203.98047 71.714844 A 37.5 35 0 0 0 166.48047 36.714844 z M 81.021484 119.24414 L 81.021484 119.28516 L 80.742188 119.28516 A 27.5 17.5 0 0 0 81.021484 119.24414 z "
           transform=""
           id="ellipse4957" />
      </g>
    </g>
    <g
       id="g4230"
       clip-path="url(#clipPath4468)"
       style="fill:#0c4070;fill-opacity:1">
      <circle
         r="10"
         cy="874.96979"
         cx="105.52438"
         id="circle4244"
         style="opacity:1;fill:#0c4070;fill-opacity:1;stroke:none" />
      <circle
         style="opacity:1;fill:#0c4070;fill-opacity:1;stroke:none"
         id="circle4246"
         cx="160.92509"
         cy="874.96979"
         r="10" />
      <path
         sodipodi:nodetypes="sssss"
         inkscape:connector-curvature="0"
         id="path4248"
         d="m 155.73841,896.29381 c 0,9.66498 -10.07359,17.5 -22.5,17.5 -12.42641,0 -22.5,-7.83502 -22.5,-17.5 0,-9.66498 9.76919,-9.58561 22.1956,-9.58561 12.42641,0 22.8044,-0.0794 22.8044,9.58561 z"
         style="opacity:1;fill:#0c4070;fill-opacity:1;stroke:none" />
      <g
         id="g4321"
         transform="translate(0,796.36216)"
         style="fill:#0c4070;fill-opacity:1">
        <g
           id="g4323"
           style="opacity:1;fill:#0c4070;fill-opacity:1;stroke:none">
          <path
             id="path4325"
             d="M168.00391 28.800781C139.47628 44.632737 139.09348 42.322641 119.13086 41.753906L-93.001174356 253.885940356C-73.038554356 254.454675356 -72.655754356 256.764771356 -44.128124356 240.932815356Z"
             style="fill:#0c4070;fill-opacity:1" />
          <path
             id="path4327"
             d="M119.13086 41.753906C115.448390068 41.7580661764 111.97639857 43.4057849455 109.110493271 46.271690244L-103.021541085 258.4037246C-100.155635786 255.537819301 -96.683644288 253.890100532 -93.001174356 253.885940356Z"
             style="fill:#0c4070;fill-opacity:1" />
          <path
             id="path4329"
             d="M109.110493271 46.271690244C105.914163604 49.4680199111 103.471734133 54.1796308429 102.33203 59.816406L-109.800004356 271.948440356C-108.660300223 266.311665199 -106.217870752 261.600054267 -103.021541085 258.4037246Z"
             style="fill:#0c4070;fill-opacity:1" />
          <path
             id="path4331"
             d="M102.33203 59.816406C98.110829 51.159148 89.661254 45.717049 80.4375 45.714844L-131.694534356 257.846878356C-122.470780356 257.849083356 -114.021205356 263.291182356 -109.800004356 271.948440356Z"
             style="fill:#0c4070;fill-opacity:1" />
          <path
             id="path4333"
             d="M80.4375 45.714844C73.8769841258 45.7148261555 67.9155204871 48.4223735247 63.5012089162 52.8366850957L-148.63082544 264.968719452C-144.216513869 260.554407881 -138.25505023 257.846860511 -131.694534356 257.846878356Z"
             style="fill:#0c4070;fill-opacity:1" />
          <path
             id="path4335"
             d="M63.5012089162 52.8366850957C58.7625885387 57.5753054731 55.8068020097 64.2806859731 55.806641 71.714844L-156.325393356 283.846878356C-156.325232346 276.412720329 -153.369445817 269.707339829 -148.63082544 264.968719452Z"
             style="fill:#0c4070;fill-opacity:1" />
          <path
             id="path4337"
             d="M55.806641 71.714844C55.816851 77.262914 57.507975 82.662071 60.632812 87.123047L-151.499222356 299.255081356C-154.624059356 294.794105356 -156.315183356 289.394948356 -156.325393356 283.846878356Z"
             style="fill:#0c4070;fill-opacity:1" />
          <path
             id="path4339"
             d="M60.632812 87.123047C56.6786232786 88.5585737299 53.421782002 90.5653538626 51.0597258306 92.927410034L-161.072308525 305.05944439C-158.710252354 302.697388219 -155.453411077 300.690608086 -151.499222356 299.255081356Z"
             style="fill:#0c4070;fill-opacity:1" />
          <path
             id="path4341"
             d="M51.0597258306 92.927410034C48.3049511296 95.682184735 46.7672321869 98.9201936182 46.759766 102.29883L-165.372268356 314.430864356C-165.364802169 311.052227974 -163.827083226 307.814219091 -161.072308525 305.05944439Z"
             style="fill:#0c4070;fill-opacity:1" />
          <path
             id="path4343"
             d="M46.759766 102.29883C46.759766 111.96381 59.071935 119.79883 74.259766 119.79883L-137.872268356 331.930864356C-153.060099356 331.930864356 -165.372268356 324.095844356 -165.372268356 314.430864356Z"
             style="fill:#0c4070;fill-opacity:1" />
          <path
             id="path4345"
             d="M74.259766 119.79883C76.541102 119.79283 78.812459 119.6068 81.021484 119.24414L-131.110550356 331.376174356C-133.319575356 331.738834356 -135.590932356 331.924864356 -137.872268356 331.930864356Z"
             style="fill:#0c4070;fill-opacity:1" />
          <path
             id="path4347"
             d="M81.021484 119.24414L81.021484 119.93164L-131.110550356 332.063674356L-131.110550356 331.376174356Z"
             style="fill:#0c4070;fill-opacity:1" />
          <path
             id="path4349"
             d="M81.021484 119.93164L196.02148 119.93164L-16.110554356 332.063674356L-131.110550356 332.063674356Z"
             style="fill:#0c4070;fill-opacity:1" />
          <path
             id="path4351"
             d="M196.02148 119.93164L196.02148 118.13281L-16.110554356 330.264844356L-16.110554356 332.063674356Z"
             style="fill:#0c4070;fill-opacity:1" />
          <path
             id="path4353"
             d="M196.02148 118.13281C199.957783226 117.740507153 203.386494272 116.100673067 205.764955814 113.722211525L-6.36707854209 325.85424588C-8.74554008407 328.232707422 -12.17425113 329.872541509 -16.110554356 330.264844356Z"
             style="fill:#0c4070;fill-opacity:1" />
          <path
             id="path4355"
             d="M205.764955814 113.722211525C207.93924769 111.547919649 209.235860167 108.756366734 209.24023 105.73633L-2.89180435596 317.868364356C-2.89617418864 320.88840109 -4.1927866664 323.679954005 -6.36707854209 325.85424588Z"
             style="fill:#0c4070;fill-opacity:1" />
          <path
             id="path4357"
             d="M209.24023 105.73633C209.23423 99.41043 203.55885 94.085183 196.02148 93.333984L-16.110554356 305.466018356C-8.57318435596 306.217217356 -2.89780435596 311.542464356 -2.89180435596 317.868364356Z"
             style="fill:#0c4070;fill-opacity:1" />
          <path
             id="path4359"
             d="M196.02148 93.333984L196.02148 92.833984L-16.110554356 304.966018356L-16.110554356 305.466018356Z"
             style="fill:#0c4070;fill-opacity:1" />
          <path
             id="path4361"
             d="M196.02148 92.833984C202.11684 85.7996 205.49031 76.715926 205.50391 67.300781L-6.62812435596 279.432815356C-6.64172435596 288.847960356 -10.015194356 297.931634356 -16.110554356 304.966018356Z"
             style="fill:#0c4070;fill-opacity:1" />
          <path
             id="path4363"
             d="M205.50391 67.300781C205.50359 46.037722 188.71436 28.800781 168.00391 28.800781L-44.128124356 240.932815356C-23.417674356 240.932815356 -6.62844435596 258.169756356 -6.62812435596 279.432815356Z"
             style="fill:#0c4070;fill-opacity:1" />
          <path
             id="path4365"
             d="M104.00195 79.261719C104.08935 79.486997 104.17923 79.710331 104.27148 79.931641L-107.860554356 292.063675356C-107.952804356 291.842365356 -108.042684356 291.619031356 -108.130084356 291.393753356Z"
             style="fill:#0c4070;fill-opacity:1" />
          <path
             id="path4367"
             d="M104.27148 79.931641L103.78516 79.931641L-108.346874356 292.063675356L-107.860554356 292.063675356Z"
             style="fill:#0c4070;fill-opacity:1" />
          <path
             id="path4369"
             d="M103.78516 79.931641C103.86026 79.709383 103.93257 79.486055 104.00195 79.261719L-108.130084356 291.393753356C-108.199464356 291.618089356 -108.271774356 291.841417356 -108.346874356 292.063675356Z"
             style="fill:#0c4070;fill-opacity:1" />
        </g>
        <path
           sodipodi:nodetypes="ccccccccccccccccccccc"
           inkscape:connector-curvature="0"
           id="ellipse4232"
           transform=""
           d="m 168.00391,28.800781 c -28.52763,15.831956 -28.91043,13.52186 -48.87305,12.953125 -7.78951,0.0088 -14.63724,7.371658 -16.79883,18.0625 C 98.110829,51.159148 89.661254,45.717049 80.4375,45.714844 c -13.603017,-3.7e-5 -24.630548,11.640474 -24.630859,26 0.01021,5.54807 1.701334,10.947227 4.826171,15.408203 -8.565806,3.109726 -13.859178,8.900166 -13.873046,15.175783 0,9.66498 12.312169,17.5 27.5,17.5 2.281336,-0.006 4.552693,-0.19203 6.761718,-0.55469 l 0,0.6875 114.999996,0 0,-1.79883 c 7.53471,-0.75093 13.2096,-6.07282 13.21875,-12.39648 -0.006,-6.3259 -5.68138,-11.651147 -13.21875,-12.402346 l 0,-0.5 c 6.09536,-7.034384 9.46883,-16.118058 9.48243,-25.533203 -3.2e-4,-21.263059 -16.78955,-38.5 -37.5,-38.5 z m -64.00196,50.460938 c 0.0874,0.225278 0.17728,0.448612 0.26953,0.669922 l -0.48632,0 c 0.0751,-0.222258 0.14741,-0.445586 0.21679,-0.669922 z"
           style="opacity:1;fill:#0c4070;fill-opacity:1;stroke:none" />
      </g>
    </g>
    <g
       id="g4914"
       transform="translate(10.412609,47.456587)">
      <path
         inkscape:connector-curvature="0"
         id="path4912"
         d="m 74.639515,967.25532 c 0,-0.22029 -3.2867,-22.30828 -7.30378,-49.08442 -4.01708,-26.77614 -7.3046,-48.85512 -7.30559,-49.06439 -10e-4,-0.30316 12.55496,-0.3805 61.772165,-0.3805 l 61.77397,0 -0.14184,0.9893 c -0.078,0.54411 -2.26039,22.28965 -4.84972,48.32342 -2.58934,26.03377 -4.7891,47.8478 -4.88838,48.47563 l -0.18049,1.1415 -49.43816,0 c -40.666585,0 -49.438175,-0.0711 -49.438175,-0.40054 z"
         style="opacity:1;fill:#ffffff;fill-opacity:1;stroke:none" />
      <path
         inkscape:connector-curvature="0"
         style="opacity:1;fill:#b3170b;fill-opacity:1;stroke:none"
         d="m 59.30321,868.19094 c 0,0 15.000001,100 15.000001,100 0,0 20,0 20,0 0,0 -10.000001,-100 -10.000001,-100 0,0 -25,0 -25,0 0,0 0,0 0,0 m 50,0 c 0,0 5,100 5,100 0,0 20,0 20,0 0,0 0,-100 0,-100 0,0 -25,0 -25,0 0,0 0,0 0,0 m 50,0 c 0,0 -5,100 -5,100 0,0 20,0 20,0 0,0 10,-100 10,-100 0,0 -25,0 -25,0 0,0 0,0 0,0"
         id="rect4828" />
    </g>
    <g
       id="g4219">
      <ellipse
         ry="38.500595"
         rx="37.5"
         cy="863.66296"
         cx="168.00298"
         id="path4924"
         style="opacity:1;fill:#f4ece3;fill-opacity:1;stroke:none" />
      <ellipse
         cy="868.07739"
         cx="80.438171"
         id="path4918"
         style="opacity:1;fill:#f4ece3;fill-opacity:1;stroke:none"
         rx="24.630796"
         ry="26.000595" />
      <ellipse
         ry="17.5"
         rx="27.5"
         cy="898.66003"
         cx="74.259811"
         id="path4922"
         style="opacity:1;fill:#f4ece3;fill-opacity:1;stroke:none" />
      <ellipse
         ry="12.5"
         rx="15"
         cy="902.09875"
         cx="194.24019"
         id="path4926"
         style="opacity:1;fill:#f4ece3;fill-opacity:1;stroke:none" />
      <rect
         y="876.29321"
         x="81.021408"
         height="40"
         width="115"
         id="rect4930"
         style="opacity:1;fill:#f4ece3;fill-opacity:1;stroke:none" />
      <ellipse
         ry="25"
         rx="17.5"
         cy="863.11597"
         cx="119.13021"
         id="path4928"
         style="opacity:1;fill:#f4ece3;fill-opacity:1;stroke:none" />
      <circle
         style="opacity:1;fill:#630400;fill-opacity:1;stroke:none"
         id="path4211"
         cx="105.52438"
         cy="874.96979"
         r="10" />
      <circle
         r="10"
         cy="874.96979"
         cx="160.92509"
         id="circle4213"
         style="opacity:1;fill:#630400;fill-opacity:1;stroke:none" />
      <path
         style="opacity:1;fill:#9a1409;fill-opacity:1;stroke:none"
         d="m 155.73841,896.29381 c 0,9.66498 -10.07359,17.5 -22.5,17.5 -12.42641,0 -22.5,-7.83502 -22.5,-17.5 0,-9.66498 9.76919,-9.58561 22.1956,-9.58561 12.42641,0 22.8044,-0.0794 22.8044,9.58561 z"
         id="path4215"
         inkscape:connector-curvature="0"
         sodipodi:nodetypes="sssss" />
    </g>
  </g>
</svg>
