<?xml version="1.0" encoding="UTF-8" standalone="no"?>
<svg
   xmlns:dc="http://purl.org/dc/elements/1.1/"
   xmlns:cc="http://creativecommons.org/ns#"
   xmlns:rdf="http://www.w3.org/1999/02/22-rdf-syntax-ns#"
   xmlns:svg="http://www.w3.org/2000/svg"
   xmlns="http://www.w3.org/2000/svg"
   xmlns:sodipodi="http://sodipodi.sourceforge.net/DTD/sodipodi-0.dtd"
   xmlns:inkscape="http://www.inkscape.org/namespaces/inkscape"
   width="256"
   height="256"
   viewBox="0 0 256 256"
   id="svg2"
   version="1.1"
   inkscape:version="1.0.2 (e86c870879, 2021-01-15)"
   sodipodi:docname="preferences-composer.svg">
  <sodipodi:namedview
     id="base"
     pagecolor="#ffffff"
     bordercolor="#666666"
     borderopacity="1.0"
     inkscape:pageopacity="0.0"
     inkscape:pageshadow="2"
     inkscape:zoom="3.3125"
     inkscape:cx="47.966409"
     inkscape:cy="128"
     inkscape:document-units="px"
     inkscape:current-layer="layer1"
     showgrid="true"
     units="px"
     inkscape:window-width="1920"
     inkscape:window-height="1048"
     inkscape:window-x="0"
     inkscape:window-y="0"
     inkscape:window-maximized="1"
     inkscape:document-rotation="0">
    <inkscape:grid
       spacingy="5"
       spacingx="5"
       id="grid4168"
       type="xygrid" />
  </sodipodi:namedview>
  <defs
     id="defs4">
    <inkscape:path-effect
       fuse_tolerance="0"
       vertical_pattern="false"
       prop_units="false"
       tang_offset="0"
       normal_offset="0"
       spacing="0"
       scale_y_rel="false"
       prop_scale="1"
       copytype="single_stretched"
       pattern="M 0,0 1,0"
       is_visible="true"
       id="path-effect4235"
       effect="skeletal" />
    <clipPath
       id="clipPath5002"
       clipPathUnits="userSpaceOnUse">
      <g
         id="g5004">
        <path
           style="fill:#0f9d58;fill-opacity:1;stroke:none;stroke-width:4.85768509;stroke-linejoin:round;stroke-miterlimit:4;stroke-dasharray:none;stroke-opacity:1"
           d="M 88.118406,249.43519 C 46.103287,235.29134 14.771284,201.68742 4.1335861,159.36053 1.3377997,148.23623 0.92261224,144.16281 0.92582381,127.88908 0.92787958,117.47222 1.134384,112.01362 1.6577819,108.54099 4.4653598,89.913336 12.17654,70.638106 23.042737,55.086148 c 3.958678,-5.665755 8.344812,-10.93092 9.101533,-10.925587 0.32809,0.0023 10.488643,18.309713 22.579009,40.683112 12.090365,22.373397 22.374546,41.334697 22.853732,42.136217 0.479186,0.80151 0.924733,2.44098 0.990103,3.64326 0.343424,6.31639 2.524175,14.20976 5.6424,20.42304 2.954444,5.88693 5.065381,8.73258 10.434696,14.06652 6.71418,6.66995 12.88853,10.28643 21.73204,12.72904 3.16587,0.87442 5.10478,1.05037 11.57517,1.05037 8.82596,0 12.60219,-0.76201 19.26429,-3.88733 2.04584,-0.95974 3.93661,-1.66536 4.20172,-1.56805 0.2651,0.0973 -11.0555,17.66459 -25.1569,39.0384 l -25.6389,38.86148 -3.094121,0.11221 c -2.554618,0.0927 -4.195204,-0.25845 -9.409103,-2.01364 z"
           id="path5006"
           inkscape:connector-curvature="0"
           transform="translate(0,796.36216)" />
        <path
           style="fill:#f4b400;fill-opacity:1;stroke:none;stroke-width:4.85768509;stroke-linejoin:round;stroke-miterlimit:4;stroke-dasharray:none;stroke-opacity:1"
           d="m 112.35984,1051.5167 c -10.0014,-1.4495 -12.15632,-1.8201 -12.531784,-2.1556 -0.248854,-0.2223 1.738304,-3.7475 4.550294,-8.0722 7.16635,-11.0213 49.77231,-74.64801 50.25856,-75.05489 3.57509,-2.99158 8.63523,-8.0414 10.57512,-10.55356 3.36154,-4.35318 7.55784,-12.9141 9.06523,-18.494 6.19314,-22.92535 -2.59253,-47.15185 -21.69967,-59.83688 l -2.96081,-1.96565 17.02469,0.29584 c 9.36358,0.1627 31.17032,0.43384 48.45941,0.60252 l 31.43471,0.30668 1.54584,4.18869 c 2.24597,6.08579 4.67816,15.0947 5.93451,21.9816 1.52517,8.36049 1.92536,28.85896 0.73851,37.82758 -3.0805,23.27845 -12.81326,45.72018 -27.80202,64.10577 -20.47622,25.1166 -51.4599,42.1974 -84.14612,46.3885 -5.31244,0.6812 -26.64601,0.9864 -30.44647,0.4356 z"
           id="path5008"
           inkscape:connector-curvature="0" />
        <path
           style="fill:#db4437;fill-opacity:1;stroke:none;stroke-width:10;stroke-linejoin:round;stroke-miterlimit:4;stroke-dasharray:none;stroke-opacity:1"
           d="M 67.989788,108.87302 C 41.284246,59.575543 33.290284,45.149038 32.233625,44.344765 31.651257,43.901497 32.811213,42.549931 38.695603,36.815353 53.43581,22.450419 68.809334,13.040746 87.839196,6.7360352 101.68742,2.1480329 112.58238,0.43719165 127.95142,0.43719165 c 21.3099,0 37.80488,3.80960275 56.83492,13.12633035 25.29351,12.383198 46.19421,33.578863 58.51993,59.345832 1.61138,3.368591 2.92978,6.372442 2.92978,6.675231 0,0.560033 -10.54865,0.49527 -71.16508,-0.436914 l -24.28843,-0.373518 -3.93063,-1.764495 c -6.75732,-3.033425 -10.64587,-3.839529 -18.6576,-3.867747 -5.0296,-0.01773 -7.97946,0.207636 -10.31642,0.788106 -14.50826,3.603659 -26.283291,12.94777 -33.291614,26.418653 -3.58502,6.89086 -5.24713,13.08166 -6.331628,23.58317 l -0.33738,3.26696 -9.92748,-18.32578 z"
           id="path5010"
           inkscape:connector-curvature="0"
           transform="translate(0,796.36216)" />
      </g>
    </clipPath>
    <clipPath
       clipPathUnits="userSpaceOnUse"
       id="clipPath4271">
      <circle
         style="fill:#292929;fill-opacity:0.26020412;stroke:none;stroke-width:10;stroke-linejoin:round;stroke-miterlimit:4;stroke-dasharray:none;stroke-opacity:0.25882353"
         id="circle4273"
         cx="128"
         cy="128.00002"
         r="128" />
    </clipPath>
    <clipPath
       id="clipPath4363"
       clipPathUnits="userSpaceOnUse">
      <circle
         style="fill:#4285f4;fill-opacity:1;stroke:none;stroke-width:10;stroke-linejoin:round;stroke-miterlimit:4;stroke-dasharray:none;stroke-opacity:0.25882353"
         id="circle4365"
         cx="128"
         cy="924.36218"
         r="128" />
    </clipPath>
    <clipPath
       clipPathUnits="userSpaceOnUse"
       id="clipPath4452">
      <circle
         style="fill:#4285f4;fill-opacity:1;stroke:none;stroke-width:10;stroke-linejoin:round;stroke-miterlimit:4;stroke-dasharray:none;stroke-opacity:0.25882353"
         id="circle4454"
         cx="128"
         cy="924.36218"
         r="128" />
    </clipPath>
    <clipPath
       id="clipPath5177"
       clipPathUnits="userSpaceOnUse">
      <circle
         style="fill:#4285f4;fill-opacity:1;stroke:none;stroke-width:10;stroke-linejoin:round;stroke-miterlimit:4;stroke-dasharray:none;stroke-opacity:0.25882353"
         id="circle5179"
         cx="128"
         cy="924.36218"
         r="128" />
    </clipPath>
    <clipPath
       clipPathUnits="userSpaceOnUse"
       id="clipPath4342">
      <circle
         style="fill:#4285f4;fill-opacity:1;stroke:none;stroke-width:10;stroke-linejoin:round;stroke-miterlimit:4;stroke-dasharray:none;stroke-opacity:0.25882353"
         id="circle4344"
         cx="128"
         cy="933.48718"
         r="128" />
    </clipPath>
    <clipPath
       id="clipPath4681"
       clipPathUnits="userSpaceOnUse">
      <circle
         style="fill:#9d5fad;fill-opacity:1;stroke:none;stroke-width:10;stroke-linejoin:round;stroke-miterlimit:4;stroke-dasharray:none;stroke-opacity:0.25882353"
         id="circle4683"
         cx="127.00293"
         cy="930.43964"
         r="128" />
    </clipPath>
    <clipPath
       clipPathUnits="userSpaceOnUse"
       id="clipPath4480">
      <circle
         style="fill:#df7618;fill-opacity:1;stroke:none;stroke-width:10;stroke-linejoin:round;stroke-miterlimit:4;stroke-dasharray:none;stroke-opacity:0.25882353"
         id="circle4482"
         cx="128"
         cy="924.36218"
         r="128" />
    </clipPath>
    <filter
       style="color-interpolation-filters:sRGB"
       inkscape:label="Drop Shadow"
       id="filter4301">
      <feFlood
         flood-opacity="0.498039"
         flood-color="rgb(0,0,0)"
         result="flood"
         id="feFlood4303" />
      <feComposite
         in="flood"
         in2="SourceGraphic"
         operator="in"
         result="composite1"
         id="feComposite4305" />
      <feGaussianBlur
         in="composite1"
         stdDeviation="3.7"
         result="blur"
         id="feGaussianBlur4307" />
      <feOffset
         dx="3.8"
         dy="3.7"
         result="offset"
         id="feOffset4309" />
      <feComposite
         in="SourceGraphic"
         in2="offset"
         operator="over"
         result="composite2"
         id="feComposite4311" />
    </filter>
    <clipPath
       id="clipPath5827"
       clipPathUnits="userSpaceOnUse">
      <circle
         style="fill:#df7618;fill-opacity:1;stroke:none;stroke-width:10;stroke-linejoin:round;stroke-miterlimit:4;stroke-dasharray:none;stroke-opacity:0.25882353"
         id="circle5829"
         cx="128"
         cy="924.36218"
         r="128" />
    </clipPath>
    <clipPath
       clipPathUnits="userSpaceOnUse"
       id="clipPath5292">
      <circle
         style="fill:#862112;fill-opacity:1;stroke:none;stroke-width:10;stroke-linejoin:round;stroke-miterlimit:4;stroke-dasharray:none;stroke-opacity:0.25882353"
         id="circle5294"
         cx="128"
         cy="128.00002"
         r="128" />
    </clipPath>
    <filter
       style="color-interpolation-filters:sRGB"
       inkscape:label="Drop Shadow"
       id="filter4301-3">
      <feFlood
         flood-opacity="0.498039"
         flood-color="rgb(0,0,0)"
         result="flood"
         id="feFlood4303-6" />
      <feComposite
         in="flood"
         in2="SourceGraphic"
         operator="in"
         result="composite1"
         id="feComposite4305-4" />
      <feGaussianBlur
         in="composite1"
         stdDeviation="3.7"
         result="blur"
         id="feGaussianBlur4307-5" />
      <feOffset
         dx="3.8"
         dy="3.7"
         result="offset"
         id="feOffset4309-9" />
      <feComposite
         in="SourceGraphic"
         in2="offset"
         operator="over"
         result="composite2"
         id="feComposite4311-5" />
    </filter>
    <clipPath
       id="clipPath4555"
       clipPathUnits="userSpaceOnUse">
      <circle
         style="fill:#df7618;fill-opacity:1;stroke:none;stroke-width:10;stroke-linejoin:round;stroke-miterlimit:4;stroke-dasharray:none;stroke-opacity:0.25882353"
         id="circle4557"
         cx="124.4071"
         cy="916.79962"
         r="147.69231" />
    </clipPath>
    <clipPath
       clipPathUnits="userSpaceOnUse"
       id="clipPath4447">
      <circle
         style="fill:#9f4f43;fill-opacity:1;stroke:none;stroke-width:10;stroke-linejoin:round;stroke-miterlimit:4;stroke-dasharray:none;stroke-opacity:0.25882353"
         id="circle4449"
         cx="128"
         cy="924.36218"
         r="128" />
    </clipPath>
    <clipPath
       clipPathUnits="userSpaceOnUse"
       id="clipPath1017">
      <circle
         id="circle1019"
         style="opacity:0.99;fill:#ecbb55;fill-opacity:1;stroke:none;stroke-width:25.0828;stroke-miterlimit:4;stroke-dasharray:none;stroke-opacity:1"
         cx="128"
         cy="924.36218"
         r="128" />
    </clipPath>
  </defs>
  <metadata
     id="metadata7">
    <rdf:RDF>
      <cc:Work
         rdf:about="">
        <dc:format>image/svg+xml</dc:format>
        <dc:type
           rdf:resource="http://purl.org/dc/dcmitype/StillImage" />
        <dc:title />
      </cc:Work>
    </rdf:RDF>
  </metadata>
  <g
     inkscape:label="Layer 1"
     inkscape:groupmode="layer"
     id="layer1"
     transform="translate(0,-796.36216)">
    <circle
       id="path862"
       style="opacity:0.99;fill:#ecbb55;fill-opacity:1;stroke:none;stroke-width:25.0828;stroke-miterlimit:4;stroke-dasharray:none;stroke-opacity:1"
       cx="128"
       cy="924.36218"
       r="128" />
    <path
       style="fill:none;fill-rule:evenodd;stroke:none;stroke-width:1px;stroke-linecap:butt;stroke-linejoin:miter;stroke-opacity:1"
       d="M 154.47438,968.80998 101.03985,1048.476 0.4857685,1048.9618 0,842.0244 l 33.032258,-2.42884 45.176471,83.55218 21.373814,35.4611 26.717267,13.11575 z"
       id="path4913"
       inkscape:connector-curvature="0" />
    <text
       xml:space="preserve"
       style="font-style:normal;font-weight:normal;line-height:0%;font-family:sans-serif;letter-spacing:0px;word-spacing:0px;fill:#000000;fill-opacity:1;stroke:none;stroke-width:1px;stroke-linecap:butt;stroke-linejoin:miter;stroke-opacity:1"
       x="120"
       y="927.36218"
       id="text4914"><tspan
         sodipodi:role="line"
         id="tspan4916"
         x="120"
         y="927.36218"
         style="font-size:40px;line-height:1.25"> </tspan></text>
    <g
       id="g982"
       clip-path="url(#clipPath1017)"
       style="fill:#e6a621;fill-opacity:0.99215686">
      <g
         style="fill:#e6a621;fill-opacity:0.99215686;stroke:none;stroke-width:1.21876788"
         id="g979">
        <path
           d="M 129.245 839.362 L 129.245 884.869 L -12.1759 1026.29 L -12.1759 980.783 Z"
           id="path929"
           style="fill:#e6a621;fill-opacity:0.99215686" />
        <path
           d="M 129.245 884.869 C 130.688 885.404 131.736 886.788 131.736 888.464 L -9.68502 1029.89 C -9.68502 1028.21 -10.7333 1026.83 -12.1759 1026.29 Z"
           id="path931"
           style="fill:#e6a621;fill-opacity:0.99215686" />
        <path
           d="M 131.736 888.464 C 131.736 889.558 131.297 890.548 130.591 891.254 L -10.8299 1032.68 C -10.1241 1031.97 -9.68502 1030.98 -9.68502 1029.89 Z"
           id="path933"
           style="fill:#e6a621;fill-opacity:0.99215686" />
        <path
           d="M 130.591 891.254 C 129.92 891.926 129.006 892.34 128 892.34 L -13.4214 1033.76 C -12.4151 1033.76 -11.5017 1033.35 -10.8299 1032.68 Z"
           id="path935"
           style="fill:#e6a621;fill-opacity:0.99215686" />
        <path
           d="M 128 892.34 C 125.936 892.34 124.264 890.599 124.264 888.464 L -17.1577 1029.89 C -17.1577 1032.02 -15.4849 1033.76 -13.4214 1033.76 Z"
           id="path937"
           style="fill:#e6a621;fill-opacity:0.99215686" />
        <path
           d="M 124.264 888.464 C 124.264 887.385 124.684 886.431 125.369 885.746 L -16.0523 1027.17 C -16.7371 1027.85 -17.1577 1028.81 -17.1577 1029.89 Z"
           id="path939"
           style="fill:#e6a621;fill-opacity:0.99215686" />
        <path
           d="M 125.369 885.746 C 125.756 885.359 126.227 885.058 126.755 884.869 L -14.6668 1026.29 C -15.1942 1026.48 -15.6654 1026.78 -16.0523 1027.17 Z"
           id="path941"
           style="fill:#e6a621;fill-opacity:0.99215686" />
        <path
           d="M 126.755 884.869 L 126.755 839.362 L -14.6668 980.783 L -14.6668 1026.29 Z"
           id="path943"
           style="fill:#e6a621;fill-opacity:0.99215686" />
        <path
           d="M 126.755 839.362 C 125.583 844.75 123.712 852.457 121.617 856.941 L -19.8043 998.363 C -17.7095 993.878 -15.8381 986.171 -14.6668 980.783 Z"
           id="path945"
           style="fill:#e6a621;fill-opacity:0.99215686" />
        <path
           d="M 121.617 856.941 C 118.266 864.117 108.306 875.919 108.306 875.919 L -33.1149 1017.34 C -33.1149 1017.34 -23.1556 1005.54 -19.8043 998.363 Z"
           id="path947"
           style="fill:#e6a621;fill-opacity:0.99215686" />
        <path
           d="M 108.306 875.919 C 108.306 875.919 112.409 887.415 113.327 893.299 L -28.0943 1034.72 C -29.0124 1028.84 -33.1149 1017.34 -33.1149 1017.34 Z"
           id="path949"
           style="fill:#e6a621;fill-opacity:0.99215686" />
        <path
           d="M 113.327 893.299 C 114.245 899.182 113.833 910.958 113.833 910.958 L -27.5883 1052.38 C -27.5883 1052.38 -27.1762 1040.6 -28.0943 1034.72 Z"
           id="path951"
           style="fill:#e6a621;fill-opacity:0.99215686" />
        <path
           d="M 113.833 910.958 C 113.833 910.958 111.123 911.421 109.941 911.997 L -31.4803 1053.42 C -30.2982 1052.84 -27.5883 1052.38 -27.5883 1052.38 Z"
           id="path953"
           style="fill:#e6a621;fill-opacity:0.99215686" />
        <path
           d="M 109.941 911.997 C 108.759 912.572 106.905 914.314 106.905 914.314 L -34.5161 1055.74 C -34.5161 1055.74 -32.6622 1053.99 -31.4803 1053.42 Z"
           id="path955"
           style="fill:#e6a621;fill-opacity:0.99215686" />
        <path
           d="M 106.905 914.314 L 103.169 1009.36 L -38.2524 1150.78 L -34.5161 1055.74 Z"
           id="path957"
           style="fill:#e6a621;fill-opacity:0.99215686" />
        <path
           d="M 103.169 1009.36 C 119.807 1009.31 136.193 1009.36 152.831 1009.36 L 11.4097 1150.78 C -5.22859 1150.78 -21.6143 1150.73 -38.2524 1150.78 Z"
           id="path959"
           style="fill:#e6a621;fill-opacity:0.99215686" />
        <path
           d="M 152.831 1009.36 L 149.211 914.314 L 7.79004 1055.74 L 11.4097 1150.78 Z"
           id="path961"
           style="fill:#e6a621;fill-opacity:0.99215686" />
        <path
           d="M 149.211 914.314 C 149.211 914.314 147.28 912.572 146.098 911.997 L 4.67644 1053.42 C 5.85849 1053.99 7.79004 1055.74 7.79004 1055.74 Z"
           id="path963"
           style="fill:#e6a621;fill-opacity:0.99215686" />
        <path
           d="M 146.098 911.997 C 144.916 911.421 142.206 910.958 142.206 910.958 L 0.784424 1052.38 C 0.784424 1052.38 3.49438 1052.84 4.67644 1053.42 Z"
           id="path965"
           style="fill:#e6a621;fill-opacity:0.99215686" />
        <path
           d="M 142.206 910.958 C 142.206 910.958 141.872 899.182 142.79 893.299 L 1.36829 1034.72 C 0.450144 1040.6 0.784424 1052.38 0.784424 1052.38 Z"
           id="path967"
           style="fill:#e6a621;fill-opacity:0.99215686" />
        <path
           d="M 142.79 893.299 C 143.708 887.415 147.694 875.919 147.694 875.919 L 6.27222 1017.34 C 6.27222 1017.34 2.2863 1028.84 1.36829 1034.72 Z"
           id="path969"
           style="fill:#e6a621;fill-opacity:0.99215686" />
        <path
           d="M 147.694 875.919 C 147.694 875.919 147.694 875.919 147.694 875.919 L 6.27222 1017.34 C 6.27222 1017.34 6.27222 1017.34 6.27222 1017.34 Z"
           id="path971"
           style="fill:#e6a621;fill-opacity:0.99215686" />
        <path
           d="M 147.694 875.919 C 147.694 875.919 137.773 864.117 134.422 856.941 L -6.9996 998.363 C -3.64823 1005.54 6.27222 1017.34 6.27222 1017.34 Z"
           id="path973"
           style="fill:#e6a621;fill-opacity:0.99215686" />
        <path
           d="M 134.422 856.941 C 132.306 852.412 130.424 844.75 129.245 839.362 L -12.1759 980.783 C -10.9975 986.171 -9.11524 993.833 -6.9996 998.363 Z"
           id="path975"
           style="fill:#e6a621;fill-opacity:0.99215686" />
        <path
           d="M 129.245 839.362 L 129.245 839.362 L -12.1759 980.783 L -12.1759 980.783 Z"
           id="path977"
           style="fill:#e6a621;fill-opacity:0.99215686" />
      </g>
      <path
         d="m 129.24544,839.36214 v 45.50646 c 1.4426,0.53533 2.4909,1.91919 2.4909,3.59576 0,2.13465 -1.67289,3.87545 -3.73634,3.87545 -2.06358,0 -3.73633,-1.7408 -3.73633,-3.87545 0,-1.68992 1.0301,-3.07052 2.49088,-3.59576 v -45.50646 c -1.17134,5.3876 -3.04274,13.09471 -5.13745,17.57931 -3.35136,7.17539 -13.31068,18.97768 -13.31068,18.97768 0,0 4.10249,11.49583 5.02063,17.37956 0.91815,5.88371 0.50602,17.65921 0.50602,17.65921 0,0 -2.70996,0.46353 -3.89201,1.03878 -1.18192,0.57525 -3.03576,2.31728 -3.03576,2.31728 l -3.73634,95.04824 c 16.63813,-0.051 33.02381,0 49.66208,0 l -3.61964,-95.04824 c 0,0 -1.93155,-1.74203 -3.1136,-2.31728 -1.18206,-0.57525 -3.89202,-1.03878 -3.89202,-1.03878 0,0 -0.33428,-11.7755 0.58387,-17.65921 0.91801,-5.88373 4.90393,-17.37956 4.90393,-17.37956 0,0 -9.92045,-11.80229 -13.27182,-18.97768 -2.11564,-4.52968 -3.99788,-12.19171 -5.17632,-17.57931 z"
         id="path877"
         style="fill:#e6a621;fill-opacity:0.99215686;stroke:none;stroke-width:1.21876788"
         inkscape:connector-curvature="0" />
    </g>
    <path
       d="m 129.24544,839.36214 v 45.50646 c 1.4426,0.53533 2.4909,1.91919 2.4909,3.59576 0,2.13465 -1.67289,3.87545 -3.73634,3.87545 -2.06358,0 -3.73633,-1.7408 -3.73633,-3.87545 0,-1.68992 1.0301,-3.07052 2.49088,-3.59576 v -45.50646 c -1.17134,5.3876 -3.04274,13.09471 -5.13745,17.57931 -3.35136,7.17539 -13.31068,18.97768 -13.31068,18.97768 0,0 4.10249,11.49583 5.02063,17.37956 0.91815,5.88371 0.50602,17.65921 0.50602,17.65921 0,0 -2.70996,0.46353 -3.89201,1.03878 -1.18192,0.57525 -3.03576,2.31728 -3.03576,2.31728 l -3.73634,95.04824 c 16.63813,-0.051 33.02381,0 49.66208,0 l -3.61964,-95.04824 c 0,0 -1.93155,-1.74203 -3.1136,-2.31728 -1.18206,-0.57525 -3.89202,-1.03878 -3.89202,-1.03878 0,0 -0.33428,-11.7755 0.58387,-17.65921 0.91801,-5.88373 4.90393,-17.37956 4.90393,-17.37956 0,0 -9.92045,-11.80229 -13.27182,-18.97768 -2.11564,-4.52968 -3.99788,-12.19171 -5.17632,-17.57931 z"
       id="path3833"
       style="fill:#ffffff;fill-opacity:1;stroke:none;stroke-width:1.21876788"
       inkscape:connector-curvature="0" />
  </g>
</svg>
