<?xml version="1.0" encoding="UTF-8" standalone="no"?>
<!-- Created with Inkscape (http://www.inkscape.org/) -->

<svg
   xmlns:dc="http://purl.org/dc/elements/1.1/"
   xmlns:cc="http://creativecommons.org/ns#"
   xmlns:rdf="http://www.w3.org/1999/02/22-rdf-syntax-ns#"
   xmlns:svg="http://www.w3.org/2000/svg"
   xmlns="http://www.w3.org/2000/svg"
   xmlns:sodipodi="http://sodipodi.sourceforge.net/DTD/sodipodi-0.dtd"
   xmlns:inkscape="http://www.inkscape.org/namespaces/inkscape"
   width="256"
   height="256"
   viewBox="0 0 256 256"
   id="svg2"
   version="1.1"
   inkscape:version="0.91 r13725"
   sodipodi:docname="preferences-system-privacy.svg">
  <sodipodi:namedview
     id="base"
     pagecolor="#ffffff"
     bordercolor="#666666"
     borderopacity="1.0"
     inkscape:pageopacity="0.0"
     inkscape:pageshadow="2"
     inkscape:zoom="2.0507812"
     inkscape:cx="128"
     inkscape:cy="128"
     inkscape:document-units="px"
     inkscape:current-layer="layer1"
     showgrid="true"
     units="px"
     inkscape:window-width="1366"
     inkscape:window-height="721"
     inkscape:window-x="0"
     inkscape:window-y="0"
     inkscape:window-maximized="1">
    <inkscape:grid
       type="xygrid"
       id="grid4168"
       spacingx="5"
       spacingy="5" />
  </sodipodi:namedview>
  <defs
     id="defs4">
    <clipPath
       clipPathUnits="userSpaceOnUse"
       id="clipPath5002">
      <g
         id="g5004">
        <path
           transform="translate(0,796.36216)"
           inkscape:connector-curvature="0"
           id="path5006"
           d="M 88.118406,249.43519 C 46.103287,235.29134 14.771284,201.68742 4.1335861,159.36053 1.3377997,148.23623 0.92261224,144.16281 0.92582381,127.88908 0.92787958,117.47222 1.134384,112.01362 1.6577819,108.54099 4.4653598,89.913336 12.17654,70.638106 23.042737,55.086148 c 3.958678,-5.665755 8.344812,-10.93092 9.101533,-10.925587 0.32809,0.0023 10.488643,18.309713 22.579009,40.683112 12.090365,22.373397 22.374546,41.334697 22.853732,42.136217 0.479186,0.80151 0.924733,2.44098 0.990103,3.64326 0.343424,6.31639 2.524175,14.20976 5.6424,20.42304 2.954444,5.88693 5.065381,8.73258 10.434696,14.06652 6.71418,6.66995 12.88853,10.28643 21.73204,12.72904 3.16587,0.87442 5.10478,1.05037 11.57517,1.05037 8.82596,0 12.60219,-0.76201 19.26429,-3.88733 2.04584,-0.95974 3.93661,-1.66536 4.20172,-1.56805 0.2651,0.0973 -11.0555,17.66459 -25.1569,39.0384 l -25.6389,38.86148 -3.094121,0.11221 c -2.554618,0.0927 -4.195204,-0.25845 -9.409103,-2.01364 z"
           style="fill:#0f9d58;fill-opacity:1;stroke:none;stroke-width:4.85768509;stroke-linejoin:round;stroke-miterlimit:4;stroke-dasharray:none;stroke-opacity:1" />
        <path
           inkscape:connector-curvature="0"
           id="path5008"
           d="m 112.35984,1051.5167 c -10.0014,-1.4495 -12.15632,-1.8201 -12.531784,-2.1556 -0.248854,-0.2223 1.738304,-3.7475 4.550294,-8.0722 7.16635,-11.0213 49.77231,-74.64801 50.25856,-75.05489 3.57509,-2.99158 8.63523,-8.0414 10.57512,-10.55356 3.36154,-4.35318 7.55784,-12.9141 9.06523,-18.494 6.19314,-22.92535 -2.59253,-47.15185 -21.69967,-59.83688 l -2.96081,-1.96565 17.02469,0.29584 c 9.36358,0.1627 31.17032,0.43384 48.45941,0.60252 l 31.43471,0.30668 1.54584,4.18869 c 2.24597,6.08579 4.67816,15.0947 5.93451,21.9816 1.52517,8.36049 1.92536,28.85896 0.73851,37.82758 -3.0805,23.27845 -12.81326,45.72018 -27.80202,64.10577 -20.47622,25.1166 -51.4599,42.1974 -84.14612,46.3885 -5.31244,0.6812 -26.64601,0.9864 -30.44647,0.4356 z"
           style="fill:#f4b400;fill-opacity:1;stroke:none;stroke-width:4.85768509;stroke-linejoin:round;stroke-miterlimit:4;stroke-dasharray:none;stroke-opacity:1" />
        <path
           transform="translate(0,796.36216)"
           inkscape:connector-curvature="0"
           id="path5010"
           d="M 67.989788,108.87302 C 41.284246,59.575543 33.290284,45.149038 32.233625,44.344765 31.651257,43.901497 32.811213,42.549931 38.695603,36.815353 53.43581,22.450419 68.809334,13.040746 87.839196,6.7360352 101.68742,2.1480329 112.58238,0.43719165 127.95142,0.43719165 c 21.3099,0 37.80488,3.80960275 56.83492,13.12633035 25.29351,12.383198 46.19421,33.578863 58.51993,59.345832 1.61138,3.368591 2.92978,6.372442 2.92978,6.675231 0,0.560033 -10.54865,0.49527 -71.16508,-0.436914 l -24.28843,-0.373518 -3.93063,-1.764495 c -6.75732,-3.033425 -10.64587,-3.839529 -18.6576,-3.867747 -5.0296,-0.01773 -7.97946,0.207636 -10.31642,0.788106 -14.50826,3.603659 -26.283291,12.94777 -33.291614,26.418653 -3.58502,6.89086 -5.24713,13.08166 -6.331628,23.58317 l -0.33738,3.26696 -9.92748,-18.32578 z"
           style="fill:#db4437;fill-opacity:1;stroke:none;stroke-width:10;stroke-linejoin:round;stroke-miterlimit:4;stroke-dasharray:none;stroke-opacity:1" />
      </g>
    </clipPath>
    <clipPath
       id="clipPath4271"
       clipPathUnits="userSpaceOnUse">
      <circle
         r="128"
         cy="128.00002"
         cx="128"
         id="circle4273"
         style="fill:#292929;fill-opacity:0.26020412;stroke:none;stroke-width:10;stroke-linejoin:round;stroke-miterlimit:4;stroke-dasharray:none;stroke-opacity:0.25882353" />
    </clipPath>
    <clipPath
       clipPathUnits="userSpaceOnUse"
       id="clipPath4363">
      <circle
         r="128"
         cy="924.36218"
         cx="128"
         id="circle4365"
         style="fill:#4285f4;fill-opacity:1;stroke:none;stroke-width:10;stroke-linejoin:round;stroke-miterlimit:4;stroke-dasharray:none;stroke-opacity:0.25882353" />
    </clipPath>
    <clipPath
       id="clipPath4452"
       clipPathUnits="userSpaceOnUse">
      <circle
         r="128"
         cy="924.36218"
         cx="128"
         id="circle4454"
         style="fill:#4285f4;fill-opacity:1;stroke:none;stroke-width:10;stroke-linejoin:round;stroke-miterlimit:4;stroke-dasharray:none;stroke-opacity:0.25882353" />
    </clipPath>
    <clipPath
       clipPathUnits="userSpaceOnUse"
       id="clipPath5177">
      <circle
         r="128"
         cy="924.36218"
         cx="128"
         id="circle5179"
         style="fill:#4285f4;fill-opacity:1;stroke:none;stroke-width:10;stroke-linejoin:round;stroke-miterlimit:4;stroke-dasharray:none;stroke-opacity:0.25882353" />
    </clipPath>
    <clipPath
       id="clipPath4342"
       clipPathUnits="userSpaceOnUse">
      <circle
         r="128"
         cy="933.48718"
         cx="128"
         id="circle4344"
         style="fill:#4285f4;fill-opacity:1;stroke:none;stroke-width:10;stroke-linejoin:round;stroke-miterlimit:4;stroke-dasharray:none;stroke-opacity:0.25882353" />
    </clipPath>
    <clipPath
       clipPathUnits="userSpaceOnUse"
       id="clipPath4681">
      <circle
         r="128"
         cy="930.43964"
         cx="127.00293"
         id="circle4683"
         style="fill:#9d5fad;fill-opacity:1;stroke:none;stroke-width:10;stroke-linejoin:round;stroke-miterlimit:4;stroke-dasharray:none;stroke-opacity:0.25882353" />
    </clipPath>
    <clipPath
       id="clipPath4235"
       clipPathUnits="userSpaceOnUse">
      <circle
         r="128"
         cy="924.36218"
         cx="128"
         id="circle4237"
         style="fill:#0f9d58;fill-opacity:1;stroke:none;stroke-width:10;stroke-linejoin:round;stroke-miterlimit:4;stroke-dasharray:none;stroke-opacity:0.25882353" />
    </clipPath>
    <clipPath
       clipPathUnits="userSpaceOnUse"
       id="clipPath4771">
      <circle
         r="128"
         cy="924.36218"
         cx="128"
         id="circle4773"
         style="fill:#0f9d58;fill-opacity:1;stroke:none;stroke-width:10;stroke-linejoin:round;stroke-miterlimit:4;stroke-dasharray:none;stroke-opacity:0.25882353" />
    </clipPath>
    <clipPath
       id="clipPath4842"
       clipPathUnits="userSpaceOnUse">
      <circle
         r="128"
         cy="924.36218"
         cx="128"
         id="circle4844"
         style="fill:#0f9d58;fill-opacity:1;stroke:none;stroke-width:10;stroke-linejoin:round;stroke-miterlimit:4;stroke-dasharray:none;stroke-opacity:0.25882353" />
    </clipPath>
    <clipPath
       clipPathUnits="userSpaceOnUse"
       id="clipPath4510">
      <circle
         r="128"
         cy="924.36218"
         cx="128"
         id="circle4512"
         style="fill:#0f9d58;fill-opacity:1;stroke:none;stroke-width:10;stroke-linejoin:round;stroke-miterlimit:4;stroke-dasharray:none;stroke-opacity:0.25882353" />
    </clipPath>
    <clipPath
       id="clipPath4442"
       clipPathUnits="userSpaceOnUse">
      <circle
         r="128"
         cy="924.36218"
         cx="128"
         id="circle4444"
         style="fill:#dadada;fill-opacity:1;stroke:none;stroke-width:10;stroke-linejoin:round;stroke-miterlimit:4;stroke-dasharray:none;stroke-opacity:0.25882353" />
    </clipPath>
    <clipPath
       clipPathUnits="userSpaceOnUse"
       id="clipPath4389">
      <circle
         r="128"
         cy="924.36218"
         cx="128"
         id="circle4391"
         style="fill:#4285f4;fill-opacity:1;stroke:none;stroke-width:10;stroke-linejoin:round;stroke-miterlimit:4;stroke-dasharray:none;stroke-opacity:0.25882353" />
    </clipPath>
    <clipPath
       id="clipPath4657"
       clipPathUnits="userSpaceOnUse">
      <circle
         r="128"
         cy="924.36218"
         cx="128"
         id="circle4659"
         style="fill:#4285f4;fill-opacity:1;stroke:none;stroke-width:10;stroke-linejoin:round;stroke-miterlimit:4;stroke-dasharray:none;stroke-opacity:0.25882353" />
    </clipPath>
    <clipPath
       id="clipPath4226"
       clipPathUnits="userSpaceOnUse">
      <g
         id="g4228">
        <rect
           ry="8.0328598"
           y="882.36218"
           x="78"
           height="95"
           width="100"
           id="rect4230"
           style="opacity:1;fill:#ffffff;fill-opacity:1;stroke:none;stroke-width:2;stroke-linecap:round;stroke-linejoin:round;stroke-miterlimit:4;stroke-dasharray:none;stroke-opacity:1" />
        <rect
           ry="8.0328598"
           y="849.36218"
           x="103"
           height="40"
           width="50"
           id="rect4232"
           style="opacity:1;fill:none;fill-opacity:1;stroke:#ffffff;stroke-width:10;stroke-linecap:round;stroke-linejoin:round;stroke-miterlimit:4;stroke-dasharray:none;stroke-opacity:1" />
      </g>
    </clipPath>
    <clipPath
       clipPathUnits="userSpaceOnUse"
       id="clipPath4441">
      <circle
         r="128"
         cy="924.36218"
         cx="128"
         id="circle4443"
         style="fill:#f45342;fill-opacity:1;stroke:none;stroke-width:10;stroke-linejoin:round;stroke-miterlimit:4;stroke-dasharray:none;stroke-opacity:0.25882353" />
    </clipPath>
  </defs>
  <metadata
     id="metadata7">
    <rdf:RDF>
      <cc:Work
         rdf:about="">
        <dc:format>image/svg+xml</dc:format>
        <dc:type
           rdf:resource="http://purl.org/dc/dcmitype/StillImage" />
        <dc:title />
      </cc:Work>
    </rdf:RDF>
  </metadata>
  <g
     transform="translate(0,-796.36216)"
     id="layer1"
     inkscape:groupmode="layer"
     inkscape:label="Layer 1">
    <path
       inkscape:connector-curvature="0"
       id="path4913"
       d="M 154.47438,968.80998 101.03985,1048.476 0.4857685,1048.9618 0,842.0244 l 33.032258,-2.42884 45.176471,83.55218 21.373814,35.4611 26.717267,13.11575 z"
       style="fill:none;fill-rule:evenodd;stroke:none;stroke-width:1px;stroke-linecap:butt;stroke-linejoin:miter;stroke-opacity:1" />
    <circle
       style="fill:#f45342;fill-opacity:1;stroke:none;stroke-width:10;stroke-linejoin:round;stroke-miterlimit:4;stroke-dasharray:none;stroke-opacity:0.25882353"
       id="path4152"
       cx="128"
       cy="924.36218"
       r="128" />
    <text
       sodipodi:linespacing="125%"
       id="text4914"
       y="927.36218"
       x="120"
       style="font-style:normal;font-weight:normal;font-size:40px;line-height:125%;font-family:sans-serif;letter-spacing:0px;word-spacing:0px;fill:#000000;fill-opacity:1;stroke:none;stroke-width:1px;stroke-linecap:butt;stroke-linejoin:miter;stroke-opacity:1"
       xml:space="preserve"><tspan
         y="927.36218"
         x="120"
         id="tspan4916"
         sodipodi:role="line" /></text>
    <g
       transform="translate(0,-1.1308594e-5)"
       id="g4254"
       clip-path="url(#clipPath4441)"
       style="fill:#c11d0b;fill-opacity:1;stroke:none;stroke-opacity:1">
      <g
         id="g4312"
         transform="translate(0,796.36217)"
         style="fill:#c11d0b;fill-opacity:1;stroke:none;stroke-opacity:1">
        <g
           id="g4314"
           style="opacity:1;fill:#c11d0b;fill-opacity:1;stroke:none;stroke-width:2;stroke-linecap:round;stroke-linejoin:round;stroke-miterlimit:4;stroke-dasharray:none;stroke-opacity:1">
          <path
             id="path4316"
             d="M106.79102 51.125C104.00964275 51.125 101.499385939 52.2445658113 99.6844743455 54.0594774045L-253.868916248 407.612867998C-252.054004655 405.797956405 -249.543747843 404.678390593 -246.762370593 404.678390593Z"
             style="fill:#c11d0b;fill-opacity:1;stroke:none;stroke-opacity:1" />
          <path
             id="path4318"
             d="M99.6844743455 54.0594774045C97.8695656887 55.8743860613 96.75 58.38463825 96.75 61.166016L-256.803390593 414.719406593C-256.803390593 411.938028843 -255.683824905 409.427776655 -253.868916248 407.612867998Z"
             style="fill:#c11d0b;fill-opacity:1;stroke:none;stroke-opacity:1" />
          <path
             id="path4320"
             d="M96.75 61.166016L96.75 91.083984L-256.803390593 444.637374593L-256.803390593 414.719406593Z"
             style="fill:#c11d0b;fill-opacity:1;stroke:none;stroke-opacity:1" />
          <path
             id="path4322"
             d="M96.75 91.083984C96.75 91.522607 96.785821 91.951526 96.839844 92.375L-256.713546593 445.928390593C-256.767569593 445.504916593 -256.803390593 445.075997593 -256.803390593 444.637374593Z"
             style="fill:#c11d0b;fill-opacity:1;stroke:none;stroke-opacity:1" />
          <path
             id="path4324"
             d="M96.839844 92.375L75.541016 92.375L-278.012374593 445.928390593L-256.713546593 445.928390593Z"
             style="fill:#c11d0b;fill-opacity:1;stroke:none;stroke-opacity:1" />
          <path
             id="path4326"
             d="M75.541016 92.375C72.7596374999 92.375 70.2493830972 93.4945634026 68.434473521 95.309472979L-285.118917072 448.862863572C-283.304007496 447.047953996 -280.793753093 445.928390593 -278.012374593 445.928390593Z"
             style="fill:#c11d0b;fill-opacity:1;stroke:none;stroke-opacity:1" />
          <path
             id="path4328"
             d="M68.434473521 95.309472979C66.6195645974 97.1243819028 65.5 99.6346365001 65.5 102.41602L-288.053390593 455.969410593C-288.053390593 453.188027093 -286.933825996 450.677772496 -285.118917072 448.862863572Z"
             style="fill:#c11d0b;fill-opacity:1;stroke:none;stroke-opacity:1" />
          <path
             id="path4330"
             d="M65.5 102.41602L65.5 201.08398L-288.053390593 554.637370593L-288.053390593 455.969410593Z"
             style="fill:#c11d0b;fill-opacity:1;stroke:none;stroke-opacity:1" />
          <path
             id="path4332"
             d="M65.5 201.08398C65.5 206.64674 69.97826 211.125 75.541016 211.125L-278.012374593 564.678390593C-283.575130593 564.678390593 -288.053390593 560.200130593 -288.053390593 554.637370593Z"
             style="fill:#c11d0b;fill-opacity:1;stroke:none;stroke-opacity:1" />
          <path
             id="path4334"
             d="M75.541016 211.125L115.95898 211.125L-237.594410593 564.678390593L-278.012374593 564.678390593Z"
             style="fill:#c11d0b;fill-opacity:1;stroke:none;stroke-opacity:1" />
          <path
             id="path4336"
             d="M115.95898 211.125C115.94458 210.91523 115.92773 210.70573 115.92773 210.49219L-237.625660593 564.045580593C-237.625660593 564.259120593 -237.608810593 564.468620593 -237.594410593 564.678390593Z"
             style="fill:#c11d0b;fill-opacity:1;stroke:none;stroke-opacity:1" />
          <path
             id="path4338"
             d="M115.92773 210.49219L115.92773 176.86719L-237.625660593 530.420580593L-237.625660593 564.045580593Z"
             style="fill:#c11d0b;fill-opacity:1;stroke:none;stroke-opacity:1" />
          <path
             id="path4340"
             d="M140.07227 176.88477L140.07227 210.49219L-213.481120593 564.045580593L-213.481120593 530.438160593Z"
             style="fill:#c11d0b;fill-opacity:1;stroke:none;stroke-opacity:1" />
          <path
             id="path4342"
             d="M140.07227 210.49219C140.07227 210.70573 140.05532 210.91523 140.04102 211.125L-213.512370593 564.678390593C-213.498070593 564.468620593 -213.481120593 564.259120593 -213.481120593 564.045580593Z"
             style="fill:#c11d0b;fill-opacity:1;stroke:none;stroke-opacity:1" />
          <path
             id="path4344"
             d="M140.04102 211.125L180.45898 211.125L-173.094410593 564.678390593L-213.512370593 564.678390593Z"
             style="fill:#c11d0b;fill-opacity:1;stroke:none;stroke-opacity:1" />
          <path
             id="path4346"
             d="M180.45898 211.125C186.02174 211.125 190.5 206.64674 190.5 201.08398L-163.053390593 554.637370593C-163.053390593 560.200130593 -167.531650593 564.678390593 -173.094410593 564.678390593Z"
             style="fill:#c11d0b;fill-opacity:1;stroke:none;stroke-opacity:1" />
          <path
             id="path4348"
             d="M190.5 201.08398L190.5 102.41602L-163.053390593 455.969410593L-163.053390593 554.637370593Z"
             style="fill:#c11d0b;fill-opacity:1;stroke:none;stroke-opacity:1" />
          <path
             id="path4350"
             d="M190.5 102.41602C190.49995 96.853252 186.02174 92.375 180.45898 92.375L-173.094410593 445.928390593C-167.531650593 445.928390593 -163.053440593 450.406642593 -163.053390593 455.969410593Z"
             style="fill:#c11d0b;fill-opacity:1;stroke:none;stroke-opacity:1" />
          <path
             id="path4352"
             d="M180.45898 92.375L159.16016 92.375L-194.393230593 445.928390593L-173.094410593 445.928390593Z"
             style="fill:#c11d0b;fill-opacity:1;stroke:none;stroke-opacity:1" />
          <path
             id="path4354"
             d="M159.16016 92.375C159.21418 91.951526 159.25 91.522607 159.25 91.083984L-194.303390593 444.637374593C-194.303390593 445.075997593 -194.339210593 445.504916593 -194.393230593 445.928390593Z"
             style="fill:#c11d0b;fill-opacity:1;stroke:none;stroke-opacity:1" />
          <path
             id="path4356"
             d="M159.25 91.083984L159.25 61.166016L-194.303390593 414.719406593L-194.303390593 444.637374593Z"
             style="fill:#c11d0b;fill-opacity:1;stroke:none;stroke-opacity:1" />
          <path
             id="path4358"
             d="M159.25 61.166016C159.25 55.603256 154.77173 51.125 149.20898 51.125L-204.344410593 404.678390593C-198.781660593 404.678390593 -194.303390593 409.156646593 -194.303390593 414.719406593Z"
             style="fill:#c11d0b;fill-opacity:1;stroke:none;stroke-opacity:1" />
          <path
             id="path4360"
             d="M149.20898 51.125L106.79102 51.125L-246.762370593 404.678390593L-204.344410593 404.678390593Z"
             style="fill:#c11d0b;fill-opacity:1;stroke:none;stroke-opacity:1" />
        </g>
        <path
           id="rect4204"
           transform=""
           d="M 106.79102 51.125 C 101.22827 51.125 96.75 55.603256 96.75 61.166016 L 96.75 91.083984 C 96.75 91.522607 96.785821 91.951526 96.839844 92.375 L 75.541016 92.375 C 69.97826 92.375 65.5 96.853252 65.5 102.41602 L 65.5 201.08398 C 65.5 206.64674 69.97826 211.125 75.541016 211.125 L 115.95898 211.125 C 115.94458 210.91523 115.92773 210.70573 115.92773 210.49219 L 115.92773 176.86719 A 27.5 27.5 0 0 1 100.5 152.19727 A 27.5 27.5 0 0 1 128 124.69727 A 27.5 27.5 0 0 1 155.5 152.19727 A 27.5 27.5 0 0 1 140.07227 176.88477 L 140.07227 210.49219 C 140.07227 210.70573 140.05532 210.91523 140.04102 211.125 L 180.45898 211.125 C 186.02174 211.125 190.5 206.64674 190.5 201.08398 L 190.5 102.41602 C 190.49995 96.853252 186.02174 92.375 180.45898 92.375 L 159.16016 92.375 C 159.21418 91.951526 159.25 91.522607 159.25 91.083984 L 159.25 61.166016 C 159.25 55.603256 154.77173 51.125 149.20898 51.125 L 106.79102 51.125 z "
           style="opacity:1;fill:#c11d0b;fill-opacity:1;stroke:none;stroke-width:2;stroke-linecap:round;stroke-linejoin:round;stroke-miterlimit:4;stroke-dasharray:none;stroke-opacity:1" />
      </g>
    </g>
    <g
       id="g4258"
       transform="translate(-2.5e-5,-1.1308594e-5)">
      <path
         id="path4260"
         transform="translate(0,796.36216)"
         d="M 75.541016,92.375 C 69.97826,92.375 65.5,96.853256 65.5,102.41602 l 0,98.66796 c 0,5.56276 4.47826,10.04102 10.041016,10.04102 l 40.417964,0 c -0.0144,-0.20977 -0.0312,-0.41927 -0.0312,-0.63281 l 0,-33.625 A 27.5,27.5 0 0 1 100.5,152.19727 a 27.5,27.5 0 0 1 27.5,-27.5 27.5,27.5 0 0 1 27.5,27.5 27.5,27.5 0 0 1 -15.42773,24.6875 l 0,33.60742 c 0,0.21354 -0.0169,0.42304 -0.0312,0.63281 l 40.41796,0 c 5.56276,0 10.04102,-4.47826 10.04102,-10.04102 l 0,-98.66796 C 190.5,96.853256 186.02174,92.375 180.45898,92.375 l -104.917964,0 z"
         style="opacity:1;fill:#ffffff;fill-opacity:1;stroke:none;stroke-width:2;stroke-linecap:round;stroke-linejoin:round;stroke-miterlimit:4;stroke-dasharray:none;stroke-opacity:1"
         inkscape:connector-curvature="0" />
      <rect
         ry="10.041075"
         y="847.48718"
         x="96.75"
         height="50"
         width="62.5"
         id="rect4262"
         style="opacity:1;fill:none;fill-opacity:1;stroke:#ffffff;stroke-width:12.5;stroke-linecap:round;stroke-linejoin:round;stroke-miterlimit:4;stroke-dasharray:none;stroke-opacity:1" />
    </g>
  </g>
</svg>
