<?xml version="1.0" encoding="UTF-8" standalone="no"?>
<!-- Created with Inkscape (http://www.inkscape.org/) -->

<svg
   xmlns:dc="http://purl.org/dc/elements/1.1/"
   xmlns:cc="http://creativecommons.org/ns#"
   xmlns:rdf="http://www.w3.org/1999/02/22-rdf-syntax-ns#"
   xmlns:svg="http://www.w3.org/2000/svg"
   xmlns="http://www.w3.org/2000/svg"
   xmlns:sodipodi="http://sodipodi.sourceforge.net/DTD/sodipodi-0.dtd"
   xmlns:inkscape="http://www.inkscape.org/namespaces/inkscape"
   sodipodi:docname="preferences-system-sharing.svg"
   inkscape:version="0.92.2 (5c3e80d, 2017-08-06)"
   version="1.1"
   id="svg2"
   viewBox="0 0 256 256"
   height="256"
   width="256">
  <sodipodi:namedview
     inkscape:window-maximized="1"
     inkscape:window-y="0"
     inkscape:window-x="0"
     inkscape:window-height="1048"
     inkscape:window-width="1920"
     units="px"
     showgrid="true"
     inkscape:current-layer="layer1"
     inkscape:document-units="px"
     inkscape:cy="128"
     inkscape:cx="128"
     inkscape:zoom="3.3125"
     inkscape:pageshadow="2"
     inkscape:pageopacity="0.0"
     borderopacity="1.0"
     bordercolor="#666666"
     pagecolor="#ffffff"
     id="base">
    <inkscape:grid
       type="xygrid"
       id="grid4168"
       spacingx="5"
       spacingy="5" />
  </sodipodi:namedview>
  <defs
     id="defs4">
    <clipPath
       clipPathUnits="userSpaceOnUse"
       id="clipPath5002">
      <g
         id="g5004">
        <path
           transform="translate(0,796.36216)"
           inkscape:connector-curvature="0"
           id="path5006"
           d="M 88.118406,249.43519 C 46.103287,235.29134 14.771284,201.68742 4.1335861,159.36053 1.3377997,148.23623 0.92261224,144.16281 0.92582381,127.88908 0.92787958,117.47222 1.134384,112.01362 1.6577819,108.54099 4.4653598,89.913336 12.17654,70.638106 23.042737,55.086148 c 3.958678,-5.665755 8.344812,-10.93092 9.101533,-10.925587 0.32809,0.0023 10.488643,18.309713 22.579009,40.683112 12.090365,22.373397 22.374546,41.334697 22.853732,42.136217 0.479186,0.80151 0.924733,2.44098 0.990103,3.64326 0.343424,6.31639 2.524175,14.20976 5.6424,20.42304 2.954444,5.88693 5.065381,8.73258 10.434696,14.06652 6.71418,6.66995 12.88853,10.28643 21.73204,12.72904 3.16587,0.87442 5.10478,1.05037 11.57517,1.05037 8.82596,0 12.60219,-0.76201 19.26429,-3.88733 2.04584,-0.95974 3.93661,-1.66536 4.20172,-1.56805 0.2651,0.0973 -11.0555,17.66459 -25.1569,39.0384 l -25.6389,38.86148 -3.094121,0.11221 c -2.554618,0.0927 -4.195204,-0.25845 -9.409103,-2.01364 z"
           style="fill:#0f9d58;fill-opacity:1;stroke:none;stroke-width:4.85768509;stroke-linejoin:round;stroke-miterlimit:4;stroke-dasharray:none;stroke-opacity:1" />
        <path
           inkscape:connector-curvature="0"
           id="path5008"
           d="m 112.35984,1051.5167 c -10.0014,-1.4495 -12.15632,-1.8201 -12.531784,-2.1556 -0.248854,-0.2223 1.738304,-3.7475 4.550294,-8.0722 7.16635,-11.0213 49.77231,-74.64801 50.25856,-75.05489 3.57509,-2.99158 8.63523,-8.0414 10.57512,-10.55356 3.36154,-4.35318 7.55784,-12.9141 9.06523,-18.494 6.19314,-22.92535 -2.59253,-47.15185 -21.69967,-59.83688 l -2.96081,-1.96565 17.02469,0.29584 c 9.36358,0.1627 31.17032,0.43384 48.45941,0.60252 l 31.43471,0.30668 1.54584,4.18869 c 2.24597,6.08579 4.67816,15.0947 5.93451,21.9816 1.52517,8.36049 1.92536,28.85896 0.73851,37.82758 -3.0805,23.27845 -12.81326,45.72018 -27.80202,64.10577 -20.47622,25.1166 -51.4599,42.1974 -84.14612,46.3885 -5.31244,0.6812 -26.64601,0.9864 -30.44647,0.4356 z"
           style="fill:#f4b400;fill-opacity:1;stroke:none;stroke-width:4.85768509;stroke-linejoin:round;stroke-miterlimit:4;stroke-dasharray:none;stroke-opacity:1" />
        <path
           transform="translate(0,796.36216)"
           inkscape:connector-curvature="0"
           id="path5010"
           d="M 67.989788,108.87302 C 41.284246,59.575543 33.290284,45.149038 32.233625,44.344765 31.651257,43.901497 32.811213,42.549931 38.695603,36.815353 53.43581,22.450419 68.809334,13.040746 87.839196,6.7360352 101.68742,2.1480329 112.58238,0.43719165 127.95142,0.43719165 c 21.3099,0 37.80488,3.80960275 56.83492,13.12633035 25.29351,12.383198 46.19421,33.578863 58.51993,59.345832 1.61138,3.368591 2.92978,6.372442 2.92978,6.675231 0,0.560033 -10.54865,0.49527 -71.16508,-0.436914 l -24.28843,-0.373518 -3.93063,-1.764495 c -6.75732,-3.033425 -10.64587,-3.839529 -18.6576,-3.867747 -5.0296,-0.01773 -7.97946,0.207636 -10.31642,0.788106 -14.50826,3.603659 -26.283291,12.94777 -33.291614,26.418653 -3.58502,6.89086 -5.24713,13.08166 -6.331628,23.58317 l -0.33738,3.26696 -9.92748,-18.32578 z"
           style="fill:#db4437;fill-opacity:1;stroke:none;stroke-width:10;stroke-linejoin:round;stroke-miterlimit:4;stroke-dasharray:none;stroke-opacity:1" />
      </g>
    </clipPath>
    <clipPath
       id="clipPath4271"
       clipPathUnits="userSpaceOnUse">
      <circle
         r="128"
         cy="128.00002"
         cx="128"
         id="circle4273"
         style="fill:#292929;fill-opacity:0.26020412;stroke:none;stroke-width:10;stroke-linejoin:round;stroke-miterlimit:4;stroke-dasharray:none;stroke-opacity:0.25882353" />
    </clipPath>
    <clipPath
       clipPathUnits="userSpaceOnUse"
       id="clipPath4363">
      <circle
         r="128"
         cy="924.36218"
         cx="128"
         id="circle4365"
         style="fill:#4285f4;fill-opacity:1;stroke:none;stroke-width:10;stroke-linejoin:round;stroke-miterlimit:4;stroke-dasharray:none;stroke-opacity:0.25882353" />
    </clipPath>
    <clipPath
       id="clipPath4452"
       clipPathUnits="userSpaceOnUse">
      <circle
         r="128"
         cy="924.36218"
         cx="128"
         id="circle4454"
         style="fill:#4285f4;fill-opacity:1;stroke:none;stroke-width:10;stroke-linejoin:round;stroke-miterlimit:4;stroke-dasharray:none;stroke-opacity:0.25882353" />
    </clipPath>
    <clipPath
       clipPathUnits="userSpaceOnUse"
       id="clipPath5177">
      <circle
         r="128"
         cy="924.36218"
         cx="128"
         id="circle5179"
         style="fill:#4285f4;fill-opacity:1;stroke:none;stroke-width:10;stroke-linejoin:round;stroke-miterlimit:4;stroke-dasharray:none;stroke-opacity:0.25882353" />
    </clipPath>
    <clipPath
       id="clipPath4342"
       clipPathUnits="userSpaceOnUse">
      <circle
         r="128"
         cy="933.48718"
         cx="128"
         id="circle4344"
         style="fill:#4285f4;fill-opacity:1;stroke:none;stroke-width:10;stroke-linejoin:round;stroke-miterlimit:4;stroke-dasharray:none;stroke-opacity:0.25882353" />
    </clipPath>
    <clipPath
       clipPathUnits="userSpaceOnUse"
       id="clipPath4373">
      <circle
         r="128"
         cy="924.36218"
         cx="128"
         id="circle4375"
         style="fill:#4285f4;fill-opacity:1;stroke:none;stroke-width:10;stroke-linejoin:round;stroke-miterlimit:4;stroke-dasharray:none;stroke-opacity:0.25882353" />
    </clipPath>
    <clipPath
       id="clipPath4504"
       clipPathUnits="userSpaceOnUse">
      <circle
         r="128"
         cy="923.43903"
         cx="133.31175"
         id="circle4506"
         style="fill:#0f9d58;fill-opacity:1;stroke:none;stroke-width:10;stroke-linejoin:round;stroke-miterlimit:4;stroke-dasharray:none;stroke-opacity:0.25882353" />
    </clipPath>
    <clipPath
       clipPathUnits="userSpaceOnUse"
       id="clipPath1276">
      <circle
         r="128"
         cy="128.00002"
         cx="128"
         id="circle1278"
         style="fill:#0f9d58;fill-opacity:1;stroke:none;stroke-width:10;stroke-linejoin:round;stroke-miterlimit:4;stroke-dasharray:none;stroke-opacity:0.25882353" />
    </clipPath>
  </defs>
  <metadata
     id="metadata7">
    <rdf:RDF>
      <cc:Work
         rdf:about="">
        <dc:format>image/svg+xml</dc:format>
        <dc:type
           rdf:resource="http://purl.org/dc/dcmitype/StillImage" />
        <dc:title />
      </cc:Work>
    </rdf:RDF>
  </metadata>
  <g
     transform="translate(0,-796.36216)"
     id="layer1"
     inkscape:groupmode="layer"
     inkscape:label="Layer 1">
    <path
       inkscape:connector-curvature="0"
       id="path4913"
       d="M 154.47438,968.80998 101.03985,1048.476 0.4857685,1048.9618 0,842.0244 l 33.032258,-2.42884 45.176471,83.55218 21.373814,35.4611 26.717267,13.11575 z"
       style="fill:none;fill-rule:evenodd;stroke:none;stroke-width:1px;stroke-linecap:butt;stroke-linejoin:miter;stroke-opacity:1" />
    <circle
       style="fill:#0f9d58;fill-opacity:1;stroke:none;stroke-width:10;stroke-linejoin:round;stroke-miterlimit:4;stroke-dasharray:none;stroke-opacity:0.25882353"
       id="path4152"
       cx="128"
       cy="924.36218"
       r="128" />
    <text
       id="text4914"
       y="927.36218"
       x="120"
       style="font-style:normal;font-weight:normal;line-height:0%;font-family:sans-serif;letter-spacing:0px;word-spacing:0px;fill:#000000;fill-opacity:1;stroke:none;stroke-width:1px;stroke-linecap:butt;stroke-linejoin:miter;stroke-opacity:1"
       xml:space="preserve"><tspan
         style="font-size:40px;line-height:1.25"
         y="927.36218"
         x="120"
         id="tspan4916"
         sodipodi:role="line"> </tspan></text>
    <g
       id="g1197"
       transform="translate(0,796.36216)"
       clip-path="url(#clipPath1276)"
       style="fill:#0a6539;fill-opacity:1">
      <g
         id="g1194"
         style="opacity:1;fill:#0a6539;fill-opacity:1;stroke:none;stroke-width:10;stroke-linecap:butt;stroke-linejoin:round;stroke-miterlimit:4;stroke-dasharray:none;stroke-opacity:1">
        <path
           id="path1118"
           d="M135.2793 49.072266C113.529392656 49.072266 93.8002752478 57.9274922031 79.5076268415 72.2201406093L-61.9137293958 213.641496847C-47.6210809896 199.34884844 -27.8919635811 190.493622237 -6.14205623731 190.493622237Z"
           style="fill:#0a6539;fill-opacity:1" />
        <path
           id="path1120"
           d="M79.5076268415 72.2201406093C71.5223048419 80.2054626089 65.233961428 89.8880607332 61.238281 100.67188L-80.1830752373 242.093236237C-76.1873948093 231.309416971 -69.8990513954 221.626818846 -61.9137293958 213.641496847Z"
           style="fill:#0a6539;fill-opacity:1" />
        <path
           id="path1122"
           d="M61.238281 100.67188C62.241293 100.55984 63.25931 100.49805 64.291016 100.49805L-77.1303402373 241.919406237C-78.1620462373 241.919406237 -79.1800632373 241.981196237 -80.1830752373 242.093236237Z"
           style="fill:#0a6539;fill-opacity:1" />
        <path
           id="path1124"
           d="M64.291016 100.49805C68.585591 100.49805 72.65683 101.49562 76.287109 103.26953L-65.1342472373 244.690886237C-68.7645262373 242.916976237 -72.8357652373 241.919406237 -77.1303402373 241.919406237Z"
           style="fill:#0a6539;fill-opacity:1" />
        <path
           id="path1126"
           d="M76.287109 103.26953C79.5180931362 95.5395151393 84.2206623562 88.5872733564 90.0479252749 82.7600104376L-51.3734309624 224.181366675C-57.2006938811 230.008629594 -61.9032631011 236.960871377 -65.1342472373 244.690886237Z"
           style="fill:#0a6539;fill-opacity:1" />
        <path
           id="path1128"
           d="M90.0479252749 82.7600104376C101.603842719 71.2040929934 117.582729173 64.072266 135.2793 64.072266L-6.14205623731 205.493622237C-23.8386270645 205.493622237 -39.8175135182 212.625449231 -51.3734309624 224.181366675Z"
           style="fill:#0a6539;fill-opacity:1" />
        <path
           id="path1130"
           d="M135.2793 64.072266C143.94244 64.072266 152.18974 65.789975 159.71289 68.890625L18.2915337627 210.311981237C10.7683837627 207.211331237 2.52108376269 205.493622237 -6.14205623731 205.493622237Z"
           style="fill:#0a6539;fill-opacity:1" />
        <path
           id="path1132"
           d="M159.71289 68.890625C161.092559933 64.9017272714 163.365195502 61.322368794 166.292204909 58.3953593873L24.8708486716 199.816715625C21.9438392648 202.743725031 19.6712036962 206.323083509 18.2915337627 210.311981237Z"
           style="fill:#0a6539;fill-opacity:1" />
        <path
           id="path1134"
           d="M166.292204909 58.3953593873C166.986517759 57.7010465376 167.717650974 57.0434401237 168.48242 56.425781L27.0610637627 197.847137237C26.2962947367 198.464796361 25.5651615213 199.122402775 24.8708486716 199.816715625Z"
           style="fill:#0a6539;fill-opacity:1" />
        <path
           id="path1136"
           d="M168.48242 56.425781C158.38056 51.717601 147.13426 49.072266 135.2793 49.072266L-6.14205623731 190.493622237C5.71290376269 190.493622237 16.9592037627 193.138957237 27.0610637627 197.847137237Z"
           style="fill:#0a6539;fill-opacity:1" />
        <path
           id="path1138"
           d="M185.70898 55.318359C178.831275303 56.0290071944 173.814161621 58.4706480319 170.409407823 61.8754018299L28.988051586 203.296758067C32.392805384 199.892004269 37.4099190653 197.450363432 44.2876237627 196.739715237Z"
           style="fill:#0a6539;fill-opacity:1" />
        <path
           id="path1140"
           d="M170.409407823 61.8754018299C157.934941735 74.3498679182 167.104324452 99.7528814835 185.70898 100.31836L44.2876237627 241.739716237C25.6829682152 241.174237721 16.5135854977 215.771224156 28.988051586 203.296758067Z"
           style="fill:#0a6539;fill-opacity:1" />
        <path
           id="path1142"
           d="M185.70898 100.31836C191.922184375 100.31836 197.547183868 97.799962007 201.61888252 93.7282633546L60.1975262831 235.149619592C56.1258276303 239.221318244 50.5008281373 241.739716237 44.2876237627 241.739716237Z"
           style="fill:#0a6539;fill-opacity:1" />
        <path
           id="path1144"
           d="M201.61888252 93.7282633546C205.690581993 89.6565638824 208.20898 84.0315631254 208.20898 77.818359L66.7876237627 219.239715237C66.7876237627 225.452919363 64.2692257557 231.07792012 60.1975262831 235.149619592Z"
           style="fill:#0a6539;fill-opacity:1" />
        <path
           id="path1146"
           d="M208.20898 77.818359C208.20898 65.391952 198.13539 55.318359 185.70898 55.318359L44.2876237627 196.739715237C56.7140337627 196.739715237 66.7876237627 206.813308237 66.7876237627 219.239715237Z"
           style="fill:#0a6539;fill-opacity:1" />
        <path
           id="path1148"
           d="M207.01367 95.154297C206.422334214 95.8789013471 205.794927432 96.5729086773 205.134258592 97.2335775167L63.7129023551 238.654933754C64.3735711945 237.994264915 65.0009779762 237.300257584 65.5923137627 236.575653237Z"
           style="fill:#0a6539;fill-opacity:1" />
        <path
           id="path1150"
           d="M205.134258592 97.2335775167C202.174272382 100.193563727 198.546617744 102.484347267 194.50391 103.85938L53.0825537627 245.280736237C57.1252615071 243.905703505 60.752916145 241.614919964 63.7129023551 238.654933754Z"
           style="fill:#0a6539;fill-opacity:1" />
        <path
           id="path1152"
           d="M194.50391 103.85938C197.52863 111.30352 199.20703 119.44732 199.20703 127.99805L57.7856737627 269.419406237C57.7856737627 260.868676237 56.1072737627 252.724876237 53.0825537627 245.280736237Z"
           style="fill:#0a6539;fill-opacity:1" />
        <path
           id="path1154"
           d="M199.20703 127.99805C199.20704 135.76319 197.83206 143.19642 195.31445 150.07227L53.8930937627 291.493626237C56.4107037627 284.617776237 57.7856837627 277.184546237 57.7856737627 269.419406237Z"
           style="fill:#0a6539;fill-opacity:1" />
        <path
           id="path1156"
           d="M195.31445 150.07227C200.2687 151.93348 204.55514 155.18851 207.68945 159.35352L66.2680937627 300.774876237C63.1337837627 296.609866237 58.8473437627 293.354836237 53.8930937627 291.493626237Z"
           style="fill:#0a6539;fill-opacity:1" />
        <path
           id="path1158"
           d="M207.68945 159.35352C211.87309 149.73501 214.20704 139.13347 214.20703 127.99805L72.7856737627 269.419406237C72.7856837627 280.554826237 70.4517337627 291.156366237 66.2680937627 300.774876237Z"
           style="fill:#0a6539;fill-opacity:1" />
        <path
           id="path1160"
           d="M214.20703 127.99805C214.20703 116.2828 211.61791 105.1639 207.01367 95.154297L65.5923137627 236.575653237C70.1965537627 246.585256237 72.7856737627 257.704156237 72.7856737627 269.419406237Z"
           style="fill:#0a6539;fill-opacity:1" />
        <path
           id="path1162"
           d="M64.292969 105.5C58.0797651247 105.5 52.4547648205 108.018397804 48.3830656373 112.090096988L-93.0382906001 253.511453225C-88.9665914168 249.439754042 -83.3415911126 246.921356237 -77.1283872373 246.921356237Z"
           style="fill:#0a6539;fill-opacity:1" />
        <path
           id="path1164"
           d="M48.3830656373 112.090096988C44.3113669458 116.161795679 41.792969 121.786795375 41.792969 128.0L-99.6283872373 269.421356237C-99.6283872373 263.208151613 -97.1099892915 257.583151917 -93.0382906001 253.511453225Z"
           style="fill:#0a6539;fill-opacity:1" />
        <path
           id="path1166"
           d="M41.792969 128.0C41.792969 140.42641 51.866562 150.5 64.292969 150.5L-77.1283872373 291.921356237C-89.5547942373 291.921356237 -99.6283872373 281.847766237 -99.6283872373 269.421356237Z"
           style="fill:#0a6539;fill-opacity:1" />
        <path
           id="path1168"
           d="M64.292969 150.5C71.170675017 149.789351307 76.187789606 147.347709906 79.5925439139 143.942955598L-61.8288123234 285.364311835C-65.2335666313 288.769066143 -70.2506812203 291.210707544 -77.1283872373 291.921356237Z"
           style="fill:#0a6539;fill-opacity:1" />
        <path
           id="path1170"
           d="M79.5925439139 143.942955598C92.0670103086 131.468489203 82.8976279761 106.065479287 64.292969 105.5L-77.1283872373 246.921356237C-58.5237282613 247.486835524 -49.3543459287 272.889845441 -61.8288123234 285.364311835Z"
           style="fill:#0a6539;fill-opacity:1" />
        <path
           id="path1172"
           d="M76.287109 152.72461C72.65683 154.49853 68.585591 155.49805 64.291016 155.49805L-77.1303402373 296.919406237C-72.8357652373 296.919406237 -68.7645262373 295.919886237 -65.1342472373 294.145966237Z"
           style="fill:#0a6539;fill-opacity:1" />
        <path
           id="path1174"
           d="M64.291016 155.49805C63.25931 155.49805 62.241293 155.43625 61.238281 155.32422L-80.1830752373 296.745576237C-79.1800632373 296.857606237 -78.1620462373 296.919406237 -77.1303402373 296.919406237Z"
           style="fill:#0a6539;fill-opacity:1" />
        <path
           id="path1176"
           d="M61.238281 155.32422C72.386151 185.40923 101.37832 206.92969 135.2793 206.92969L-6.14205623731 348.351046237C-40.0430362373 348.351046237 -69.0352052373 326.830586237 -80.1830752373 296.745576237Z"
           style="fill:#0a6539;fill-opacity:1" />
        <path
           id="path1178"
           d="M135.2793 206.92969C147.89127 206.92969 159.81451 203.93347 170.40234 198.64453L28.9809837627 340.065886237C18.3931537627 345.354826237 6.46991376269 348.351046237 -6.14205623731 348.351046237Z"
           style="fill:#0a6539;fill-opacity:1" />
        <path
           id="path1180"
           d="M170.40234 198.64453C166.07338 195.72551 162.61515 191.60778 160.50195 186.7793L19.0805937627 328.200656237C21.1937937627 333.029136237 24.6520237627 337.146866237 28.9809837627 340.065886237Z"
           style="fill:#0a6539;fill-opacity:1" />
        <path
           id="path1182"
           d="M160.50195 186.7793C152.76856 190.0892 144.24583 191.92772 135.2793 191.92773L-6.14205623731 333.349086237C2.82447376269 333.349076237 11.3472037627 331.510556237 19.0805937627 328.200656237Z"
           style="fill:#0a6539;fill-opacity:1" />
        <path
           id="path1184"
           d="M135.2793 191.92773C108.65894 191.92773 85.925387 175.78441 76.287109 152.72461L-65.1342472373 294.145966237C-55.4959692373 317.205766237 -32.7624162373 333.349086237 -6.14205623731 333.349086237Z"
           style="fill:#0a6539;fill-opacity:1" />
        <path
           id="path1186"
           d="M185.70898 153.33008C178.831275283 154.040728625 173.814161593 156.482369627 170.409407795 159.887123426L28.9880515574 301.308479663C32.3928053559 297.903725865 37.4099190461 295.462084863 44.2876237627 294.751436237Z"
           style="fill:#0a6539;fill-opacity:1" />
        <path
           id="path1188"
           d="M170.409407795 159.887123426C157.934941749 172.361589472 167.104324467 197.764600698 185.70898 198.33008L44.2876237627 339.751436237C25.6829682294 339.185956936 16.5135855117 313.782945709 28.9880515574 301.308479663Z"
           style="fill:#0a6539;fill-opacity:1" />
        <path
           id="path1190"
           d="M185.70898 198.33008C198.13539 198.33008 208.20898 188.25649 208.20898 175.83008L66.7876237627 317.251436237C66.7876237627 329.677846237 56.7140337627 339.751436237 44.2876237627 339.751436237Z"
           style="fill:#0a6539;fill-opacity:1" />
        <path
           id="path1192"
           d="M208.20898 175.83008C208.20898 163.40367 198.13539 153.33008 185.70898 153.33008L44.2876237627 294.751436237C56.7140337627 294.751436237 66.7876237627 304.825026237 66.7876237627 317.251436237Z"
           style="fill:#0a6539;fill-opacity:1" />
      </g>
      <path
         id="circle911"
         transform=""
         d="M 135.2793 49.072266 C 101.37769 49.072266 72.38569 70.58648 61.238281 100.67188 C 62.241293 100.55984 63.25931 100.49805 64.291016 100.49805 C 68.585591 100.49805 72.65683 101.49562 76.287109 103.26953 C 85.925387 80.210292 108.65894 64.072266 135.2793 64.072266 C 143.94244 64.072266 152.18974 65.789975 159.71289 68.890625 C 161.41983 63.955525 164.49362 59.647301 168.48242 56.425781 C 158.38056 51.717601 147.13426 49.072266 135.2793 49.072266 z M 185.70898 55.318359 C 153.63248 58.632707 162.02641 99.598541 185.70898 100.31836 C 198.13539 100.31836 208.20898 90.244766 208.20898 77.818359 C 208.20898 65.391952 198.13539 55.318359 185.70898 55.318359 z M 207.01367 95.154297 C 203.77298 99.125337 199.44895 102.17744 194.50391 103.85938 C 197.52863 111.30352 199.20703 119.44732 199.20703 127.99805 C 199.20704 135.76319 197.83206 143.19642 195.31445 150.07227 C 200.2687 151.93348 204.55514 155.18851 207.68945 159.35352 C 211.87309 149.73501 214.20704 139.13347 214.20703 127.99805 C 214.20703 116.2828 211.61791 105.1639 207.01367 95.154297 z M 64.292969 105.5 C 51.866562 105.5 41.792969 115.57359 41.792969 128 C 41.792969 140.42641 51.866562 150.5 64.292969 150.5 C 96.369472 147.18565 87.975544 106.21982 64.292969 105.5 z M 76.287109 152.72461 C 72.65683 154.49853 68.585591 155.49805 64.291016 155.49805 C 63.25931 155.49805 62.241293 155.43625 61.238281 155.32422 C 72.386151 185.40923 101.37832 206.92969 135.2793 206.92969 C 147.89127 206.92969 159.81451 203.93347 170.40234 198.64453 C 166.07338 195.72551 162.61515 191.60778 160.50195 186.7793 C 152.76856 190.0892 144.24583 191.92772 135.2793 191.92773 C 108.65894 191.92773 85.925387 175.78441 76.287109 152.72461 z M 185.70898 153.33008 C 153.63248 156.64443 162.02641 197.61026 185.70898 198.33008 C 198.13539 198.33008 208.20898 188.25649 208.20898 175.83008 C 208.20898 163.40367 198.13539 153.33008 185.70898 153.33008 z "
         style="opacity:1;fill:#0a6539;fill-opacity:1;stroke:none;stroke-width:10;stroke-linecap:butt;stroke-linejoin:round;stroke-miterlimit:4;stroke-dasharray:none;stroke-opacity:1" />
    </g>
    <g
       transform="translate(7.2799437,-9.78e-4)"
       id="g907">
      <path
         inkscape:connector-curvature="0"
         style="color:#000000;font-style:normal;font-variant:normal;font-weight:normal;font-stretch:normal;font-size:medium;line-height:normal;font-family:sans-serif;font-variant-ligatures:normal;font-variant-position:normal;font-variant-caps:normal;font-variant-numeric:normal;font-variant-alternates:normal;font-feature-settings:normal;text-indent:0;text-align:start;text-decoration:none;text-decoration-line:none;text-decoration-style:solid;text-decoration-color:#000000;letter-spacing:normal;word-spacing:normal;text-transform:none;writing-mode:lr-tb;direction:ltr;text-orientation:mixed;dominant-baseline:auto;baseline-shift:baseline;text-anchor:start;white-space:normal;shape-padding:0;clip-rule:nonzero;display:inline;overflow:visible;visibility:visible;opacity:1;isolation:auto;mix-blend-mode:normal;color-interpolation:sRGB;color-interpolation-filters:linearRGB;solid-color:#000000;solid-opacity:1;vector-effect:none;fill:#ffffff;fill-opacity:1;fill-rule:nonzero;stroke:none;stroke-width:15;stroke-linecap:butt;stroke-linejoin:round;stroke-miterlimit:4;stroke-dasharray:none;stroke-dashoffset:0;stroke-opacity:1;color-rendering:auto;image-rendering:auto;shape-rendering:auto;text-rendering:auto;enable-background:accumulate"
         d="m 128,49.072266 c -33.901617,0 -62.893607,21.51617 -74.041016,51.601564 1.003012,-0.11202 2.021029,-0.17383 3.052735,-0.17383 4.294575,0 8.365814,0.99757 11.996093,2.77148 C 78.64609,80.212244 101.37964,64.072266 128,64.072266 c 8.66314,2e-6 16.91044,1.719663 24.43359,4.820312 1.70694,-4.935098 4.78073,-9.243325 8.76953,-12.464844 C 151.10126,51.719549 139.85496,49.072268 128,49.072266 Z m 43.08398,12.857422 c -4.74022,2.176426 -8.30325,6.396274 -9.60156,11.564453 8.64779,5.310581 15.9269,12.616422 21.19531,21.292968 5.1746,-1.274857 9.4056,-4.818426 11.60352,-9.542968 -6.01944,-9.295448 -13.93331,-17.250473 -23.19727,-23.314453 z m 28.6504,33.226562 c -3.24069,3.971035 -7.56473,7.02315 -12.50977,8.70508 3.02472,7.44415 4.70312,15.58794 4.70312,24.13867 1e-5,7.76514 -1.37496,15.19837 -3.89257,22.07422 4.95425,1.86121 9.24069,5.11429 12.375,9.2793 4.18364,-9.61851 6.51758,-20.2181 6.51757,-31.35352 0,-11.71525 -2.58911,-22.83415 -7.19335,-32.84375 z M 57.011719,110.5 c -2.199439,0 -4.29,0.41442 -6.222657,1.14258 -1.118419,5.27999 -1.716796,10.75053 -1.716796,16.35742 -10e-7,5.60689 0.598378,11.07542 1.716796,16.35547 1.932655,0.72816 4.023218,1.14453 6.222657,1.14453 3.246271,0 6.264189,-0.88404 8.859375,-2.40039 -1.165909,-4.84096 -1.798829,-9.89268 -1.798828,-15.09961 0,-5.20693 0.632918,-10.26067 1.798828,-15.10156 C 63.275908,111.38209 60.25799,110.5 57.011719,110.5 Z m 11.996093,42.22656 C 65.377533,154.50048 61.306294,155.5 57.011719,155.5 c -1.031706,0 -2.049723,-0.0618 -3.052735,-0.17383 11.14787,30.08501 40.140036,51.60352 74.041016,51.60352 12.61197,0 24.53522,-2.9943 35.12305,-8.28321 -4.32896,-2.91902 -7.78719,-7.03675 -9.90039,-11.86523 -7.73339,3.3099 -16.25613,5.14843 -25.22266,5.14844 -26.62036,0 -49.35391,-16.14333 -58.992188,-39.20313 z m 114.837888,6.45508 c -5.21813,9.35242 -12.71443,17.24132 -21.75,22.93359 1.90841,5.00828 6.02305,8.88874 11.19532,10.45508 8.61388,-6.06236 15.96641,-13.79384 21.58007,-22.73047 -1.82426,-5.05825 -5.88444,-9.0066 -11.02539,-10.6582 z"
         transform="translate(0,796.36216)"
         id="path874" />
      <circle
         r="22.5"
         cy="924.36218"
         cx="57.012383"
         id="circle882"
         style="opacity:1;fill:#ffffff;fill-opacity:1;stroke:none;stroke-width:10;stroke-linecap:butt;stroke-linejoin:round;stroke-miterlimit:4;stroke-dasharray:none;stroke-opacity:1" />
      <circle
         style="opacity:1;fill:#ffffff;fill-opacity:1;stroke:none;stroke-width:10;stroke-linecap:butt;stroke-linejoin:round;stroke-miterlimit:4;stroke-dasharray:none;stroke-opacity:1"
         id="circle884"
         cx="178.42953"
         cy="874.18219"
         r="22.5" />
      <circle
         style="opacity:1;fill:#ffffff;fill-opacity:1;stroke:none;stroke-width:10;stroke-linecap:butt;stroke-linejoin:round;stroke-miterlimit:4;stroke-dasharray:none;stroke-opacity:1"
         id="circle886"
         cx="178.42953"
         cy="972.1936"
         r="22.5" />
    </g>
  </g>
</svg>
