<?xml version="1.0" encoding="UTF-8" standalone="no"?>
<!-- Created with Inkscape (http://www.inkscape.org/) -->

<svg
   xmlns:dc="http://purl.org/dc/elements/1.1/"
   xmlns:cc="http://creativecommons.org/ns#"
   xmlns:rdf="http://www.w3.org/1999/02/22-rdf-syntax-ns#"
   xmlns:svg="http://www.w3.org/2000/svg"
   xmlns="http://www.w3.org/2000/svg"
   xmlns:sodipodi="http://sodipodi.sourceforge.net/DTD/sodipodi-0.dtd"
   xmlns:inkscape="http://www.inkscape.org/namespaces/inkscape"
   sodipodi:docname="quadrapassel.svg"
   inkscape:version="0.92+devel unknown"
   version="1.1"
   id="svg2"
   viewBox="0 0 256 256"
   height="256"
   width="256">
  <sodipodi:namedview
     inkscape:window-maximized="1"
     inkscape:window-y="0"
     inkscape:window-x="0"
     inkscape:window-height="1054"
     inkscape:window-width="1920"
     units="px"
     showgrid="true"
     inkscape:current-layer="layer1"
     inkscape:document-units="px"
     inkscape:cy="128"
     inkscape:cx="128"
     inkscape:zoom="3.3007812"
     inkscape:pageshadow="2"
     inkscape:pageopacity="0.0"
     borderopacity="1.0"
     bordercolor="#666666"
     pagecolor="#ffffff"
     id="base"
     inkscape:document-rotation="0">
    <inkscape:grid
       type="xygrid"
       id="grid4168"
       spacingx="5"
       spacingy="5" />
  </sodipodi:namedview>
  <defs
     id="defs4">
    <clipPath
       clipPathUnits="userSpaceOnUse"
       id="clipPath5002">
      <g
         id="g5004">
        <path
           transform="translate(0,796.36216)"
           inkscape:connector-curvature="0"
           id="path5006"
           d="M 88.118406,249.43519 C 46.103287,235.29134 14.771284,201.68742 4.1335861,159.36053 1.3377997,148.23623 0.92261224,144.16281 0.92582381,127.88908 0.92787958,117.47222 1.134384,112.01362 1.6577819,108.54099 4.4653598,89.913336 12.17654,70.638106 23.042737,55.086148 c 3.958678,-5.665755 8.344812,-10.93092 9.101533,-10.925587 0.32809,0.0023 10.488643,18.309713 22.579009,40.683112 12.090365,22.373397 22.374546,41.334697 22.853732,42.136217 0.479186,0.80151 0.924733,2.44098 0.990103,3.64326 0.343424,6.31639 2.524175,14.20976 5.6424,20.42304 2.954444,5.88693 5.065381,8.73258 10.434696,14.06652 6.71418,6.66995 12.88853,10.28643 21.73204,12.72904 3.16587,0.87442 5.10478,1.05037 11.57517,1.05037 8.82596,0 12.60219,-0.76201 19.26429,-3.88733 2.04584,-0.95974 3.93661,-1.66536 4.20172,-1.56805 0.2651,0.0973 -11.0555,17.66459 -25.1569,39.0384 l -25.6389,38.86148 -3.094121,0.11221 c -2.554618,0.0927 -4.195204,-0.25845 -9.409103,-2.01364 z"
           style="fill:#0f9d58;fill-opacity:1;stroke:none;stroke-width:4.85768509;stroke-linejoin:round;stroke-miterlimit:4;stroke-dasharray:none;stroke-opacity:1" />
        <path
           inkscape:connector-curvature="0"
           id="path5008"
           d="m 112.35984,1051.5167 c -10.0014,-1.4495 -12.15632,-1.8201 -12.531784,-2.1556 -0.248854,-0.2223 1.738304,-3.7475 4.550294,-8.0722 7.16635,-11.0213 49.77231,-74.64801 50.25856,-75.05489 3.57509,-2.99158 8.63523,-8.0414 10.57512,-10.55356 3.36154,-4.35318 7.55784,-12.9141 9.06523,-18.494 6.19314,-22.92535 -2.59253,-47.15185 -21.69967,-59.83688 l -2.96081,-1.96565 17.02469,0.29584 c 9.36358,0.1627 31.17032,0.43384 48.45941,0.60252 l 31.43471,0.30668 1.54584,4.18869 c 2.24597,6.08579 4.67816,15.0947 5.93451,21.9816 1.52517,8.36049 1.92536,28.85896 0.73851,37.82758 -3.0805,23.27845 -12.81326,45.72018 -27.80202,64.10577 -20.47622,25.1166 -51.4599,42.1974 -84.14612,46.3885 -5.31244,0.6812 -26.64601,0.9864 -30.44647,0.4356 z"
           style="fill:#f4b400;fill-opacity:1;stroke:none;stroke-width:4.85768509;stroke-linejoin:round;stroke-miterlimit:4;stroke-dasharray:none;stroke-opacity:1" />
        <path
           transform="translate(0,796.36216)"
           inkscape:connector-curvature="0"
           id="path5010"
           d="M 67.989788,108.87302 C 41.284246,59.575543 33.290284,45.149038 32.233625,44.344765 31.651257,43.901497 32.811213,42.549931 38.695603,36.815353 53.43581,22.450419 68.809334,13.040746 87.839196,6.7360352 101.68742,2.1480329 112.58238,0.43719165 127.95142,0.43719165 c 21.3099,0 37.80488,3.80960275 56.83492,13.12633035 25.29351,12.383198 46.19421,33.578863 58.51993,59.345832 1.61138,3.368591 2.92978,6.372442 2.92978,6.675231 0,0.560033 -10.54865,0.49527 -71.16508,-0.436914 l -24.28843,-0.373518 -3.93063,-1.764495 c -6.75732,-3.033425 -10.64587,-3.839529 -18.6576,-3.867747 -5.0296,-0.01773 -7.97946,0.207636 -10.31642,0.788106 -14.50826,3.603659 -26.283291,12.94777 -33.291614,26.418653 -3.58502,6.89086 -5.24713,13.08166 -6.331628,23.58317 l -0.33738,3.26696 -9.92748,-18.32578 z"
           style="fill:#db4437;fill-opacity:1;stroke:none;stroke-width:10;stroke-linejoin:round;stroke-miterlimit:4;stroke-dasharray:none;stroke-opacity:1" />
      </g>
    </clipPath>
    <clipPath
       id="clipPath4271"
       clipPathUnits="userSpaceOnUse">
      <circle
         r="128"
         cy="128.00002"
         cx="128"
         id="circle4273"
         style="fill:#292929;fill-opacity:0.26020412;stroke:none;stroke-width:10;stroke-linejoin:round;stroke-miterlimit:4;stroke-dasharray:none;stroke-opacity:0.25882353" />
    </clipPath>
    <clipPath
       clipPathUnits="userSpaceOnUse"
       id="clipPath4363">
      <circle
         r="128"
         cy="924.36218"
         cx="128"
         id="circle4365"
         style="fill:#4285f4;fill-opacity:1;stroke:none;stroke-width:10;stroke-linejoin:round;stroke-miterlimit:4;stroke-dasharray:none;stroke-opacity:0.25882353" />
    </clipPath>
    <clipPath
       id="clipPath4452"
       clipPathUnits="userSpaceOnUse">
      <circle
         r="128"
         cy="924.36218"
         cx="128"
         id="circle4454"
         style="fill:#4285f4;fill-opacity:1;stroke:none;stroke-width:10;stroke-linejoin:round;stroke-miterlimit:4;stroke-dasharray:none;stroke-opacity:0.25882353" />
    </clipPath>
    <clipPath
       clipPathUnits="userSpaceOnUse"
       id="clipPath5177">
      <circle
         r="128"
         cy="924.36218"
         cx="128"
         id="circle5179"
         style="fill:#4285f4;fill-opacity:1;stroke:none;stroke-width:10;stroke-linejoin:round;stroke-miterlimit:4;stroke-dasharray:none;stroke-opacity:0.25882353" />
    </clipPath>
    <clipPath
       id="clipPath4342"
       clipPathUnits="userSpaceOnUse">
      <circle
         r="128"
         cy="933.48718"
         cx="128"
         id="circle4344"
         style="fill:#4285f4;fill-opacity:1;stroke:none;stroke-width:10;stroke-linejoin:round;stroke-miterlimit:4;stroke-dasharray:none;stroke-opacity:0.25882353" />
    </clipPath>
    <clipPath
       clipPathUnits="userSpaceOnUse"
       id="clipPath4681">
      <circle
         r="128"
         cy="930.43964"
         cx="127.00293"
         id="circle4683"
         style="fill:#9d5fad;fill-opacity:1;stroke:none;stroke-width:10;stroke-linejoin:round;stroke-miterlimit:4;stroke-dasharray:none;stroke-opacity:0.25882353" />
    </clipPath>
    <clipPath
       id="clipPath4235"
       clipPathUnits="userSpaceOnUse">
      <circle
         r="128"
         cy="924.36218"
         cx="128"
         id="circle4237"
         style="fill:#0f9d58;fill-opacity:1;stroke:none;stroke-width:10;stroke-linejoin:round;stroke-miterlimit:4;stroke-dasharray:none;stroke-opacity:0.25882353" />
    </clipPath>
    <clipPath
       clipPathUnits="userSpaceOnUse"
       id="clipPath4771">
      <circle
         r="128"
         cy="924.36218"
         cx="128"
         id="circle4773"
         style="fill:#0f9d58;fill-opacity:1;stroke:none;stroke-width:10;stroke-linejoin:round;stroke-miterlimit:4;stroke-dasharray:none;stroke-opacity:0.25882353" />
    </clipPath>
    <clipPath
       id="clipPath4842"
       clipPathUnits="userSpaceOnUse">
      <circle
         r="128"
         cy="924.36218"
         cx="128"
         id="circle4844"
         style="fill:#0f9d58;fill-opacity:1;stroke:none;stroke-width:10;stroke-linejoin:round;stroke-miterlimit:4;stroke-dasharray:none;stroke-opacity:0.25882353" />
    </clipPath>
    <clipPath
       clipPathUnits="userSpaceOnUse"
       id="clipPath4458">
      <circle
         r="128"
         cy="924.36218"
         cx="128"
         id="circle4460"
         style="fill:#ff3b38;fill-opacity:1;stroke:none;stroke-width:10;stroke-linejoin:round;stroke-miterlimit:4;stroke-dasharray:none;stroke-opacity:0.25882353" />
    </clipPath>
    <clipPath
       id="clipPath4783"
       clipPathUnits="userSpaceOnUse">
      <circle
         r="128"
         cy="924.36218"
         cx="128"
         id="circle4785"
         style="fill:#ff3b38;fill-opacity:1;stroke:none;stroke-width:10;stroke-linejoin:round;stroke-miterlimit:4;stroke-dasharray:none;stroke-opacity:0.25882353" />
    </clipPath>
    <clipPath
       clipPathUnits="userSpaceOnUse"
       id="clipPath4789">
      <circle
         r="128"
         cy="924.36218"
         cx="102.64714"
         id="circle4791"
         style="fill:#80b4ff;fill-opacity:1;stroke:none;stroke-width:10;stroke-linejoin:round;stroke-miterlimit:4;stroke-dasharray:none;stroke-opacity:0.25882353" />
    </clipPath>
    <clipPath
       id="clipPath4721"
       clipPathUnits="userSpaceOnUse">
      <circle
         r="128"
         cy="924.36218"
         cx="128"
         id="circle4723"
         style="fill:#557ae6;fill-opacity:1;stroke:none;stroke-width:10;stroke-linejoin:round;stroke-miterlimit:4;stroke-dasharray:none;stroke-opacity:0.25882353" />
    </clipPath>
    <clipPath
       clipPathUnits="userSpaceOnUse"
       id="clipPath4491">
      <circle
         r="128"
         cy="924.36218"
         cx="128"
         id="circle4493"
         style="fill:#990000;fill-opacity:1;stroke:none;stroke-width:10;stroke-linejoin:round;stroke-miterlimit:4;stroke-dasharray:none;stroke-opacity:0.25882353" />
    </clipPath>
    <clipPath
       id="clipPath1102"
       clipPathUnits="userSpaceOnUse">
      <circle
         r="128"
         cy="924.36218"
         cx="128"
         id="circle1104"
         style="fill:#b40000;fill-opacity:1;stroke:none;stroke-width:10;stroke-linejoin:round;stroke-miterlimit:4;stroke-dasharray:none;stroke-opacity:0.25882353" />
    </clipPath>
    <clipPath
       clipPathUnits="userSpaceOnUse"
       id="clipPath4894">
      <circle
         r="128"
         cy="928.36285"
         cx="134"
         id="circle4896"
         style="fill:#f15252;fill-opacity:1;stroke:none;stroke-width:10;stroke-linejoin:round;stroke-miterlimit:4;stroke-dasharray:none;stroke-opacity:0.25882353" />
    </clipPath>
  </defs>
  <metadata
     id="metadata7">
    <rdf:RDF>
      <cc:Work
         rdf:about="">
        <dc:format>image/svg+xml</dc:format>
        <dc:type
           rdf:resource="http://purl.org/dc/dcmitype/StillImage" />
        <dc:title />
      </cc:Work>
    </rdf:RDF>
  </metadata>
  <g
     transform="translate(0,-796.36216)"
     id="layer1"
     inkscape:groupmode="layer"
     inkscape:label="Layer 1">
    <circle
       style="fill:#f15252;fill-opacity:1;stroke:none;stroke-width:10;stroke-linejoin:round;stroke-miterlimit:4;stroke-dasharray:none;stroke-opacity:0.25882353"
       id="path4152"
       cx="128"
       cy="924.36218"
       r="128" />
    <text
       id="text4914"
       y="927.36218"
       x="120"
       style="font-style:normal;font-weight:normal;font-size:40px;line-height:125%;font-family:sans-serif;letter-spacing:0px;word-spacing:0px;fill:#000000;fill-opacity:1;stroke:none;stroke-width:1px;stroke-linecap:butt;stroke-linejoin:miter;stroke-opacity:1"
       xml:space="preserve"><tspan
         y="927.36218"
         x="120"
         id="tspan4916"
         sodipodi:role="line" /></text>
    <g
       style="stroke:none"
       transform="translate(-4.11162,138)"
       id="g4241">
      <g
         style="stroke:none"
         id="g4446">
        <g
           id="g4448"
           style="fill:none;fill-rule:evenodd;stroke:none;stroke-width:10;stroke-linecap:round;stroke-linejoin:miter;stroke-miterlimit:4;stroke-dasharray:none;stroke-opacity:1">
          <path
             style="stroke:none"
             id="path4450"
             d="m 129.98857,850.41168 c 0,15 0,15 0,15 L -82.143464,1077.5437 c 0,0 0,0 0,-15 z"
             inkscape:connector-curvature="0" />
        </g>
        <path
           inkscape:connector-curvature="0"
           id="path4247"
           d="m 129.98857,850.41168 c 0,15 0,15 0,15"
           style="fill:none;fill-rule:evenodd;stroke:none;stroke-width:10;stroke-linecap:round;stroke-linejoin:miter;stroke-miterlimit:4;stroke-dasharray:none;stroke-opacity:1" />
      </g>
      <g
         style="stroke:none"
         id="g4453">
        <g
           id="g4455"
           style="fill:none;fill-rule:evenodd;stroke:none;stroke-width:10;stroke-linecap:round;stroke-linejoin:miter;stroke-miterlimit:4;stroke-dasharray:none;stroke-opacity:1">
          <path
             style="stroke:none"
             id="path4457"
             d="m 111.58095,850.41168 c 0,15 0,15 0,15 l -212.13203,212.13202 c 0,0 0,0 0,-15 z"
             inkscape:connector-curvature="0" />
        </g>
        <path
           style="fill:none;fill-rule:evenodd;stroke:none;stroke-width:10;stroke-linecap:round;stroke-linejoin:miter;stroke-miterlimit:4;stroke-dasharray:none;stroke-opacity:1"
           d="m 111.58095,850.41168 c 0,15 0,15 0,15"
           id="path4245"
           inkscape:connector-curvature="0" />
      </g>
      <g
         style="stroke:none"
         id="g4460">
        <g
           id="g4462"
           style="fill:none;fill-rule:evenodd;stroke:none;stroke-width:10;stroke-linecap:round;stroke-linejoin:miter;stroke-miterlimit:4;stroke-dasharray:none;stroke-opacity:1">
          <path
             style="stroke:none"
             id="path4464"
             d="m 93.173333,850.41168 c 0,15 0,15 0,15 L -118.9587,1077.5437 c 0,0 0,0 0,-15 z"
             inkscape:connector-curvature="0" />
        </g>
        <path
           inkscape:connector-curvature="0"
           id="path4243"
           d="m 93.173333,850.41168 c 0,15 0,15 0,15"
           style="fill:none;fill-rule:evenodd;stroke:none;stroke-width:10;stroke-linecap:round;stroke-linejoin:miter;stroke-miterlimit:4;stroke-dasharray:none;stroke-opacity:1" />
      </g>
      <g
         style="stroke:none"
         id="g4467">
        <g
           id="g4469"
           style="fill:none;fill-rule:evenodd;stroke:none;stroke-width:10;stroke-linecap:round;stroke-linejoin:miter;stroke-miterlimit:4;stroke-dasharray:none;stroke-opacity:1">
          <path
             style="stroke:none"
             id="path4471"
             d="m 166.80381,850.41168 c 0,15 0,15 0,15 L -45.328224,1077.5437 c 0,0 0,0 0,-15 z"
             inkscape:connector-curvature="0" />
        </g>
        <path
           inkscape:connector-curvature="0"
           id="path4251"
           d="m 166.80381,850.41168 c 0,15 0,15 0,15"
           style="fill:none;fill-rule:evenodd;stroke:none;stroke-width:10;stroke-linecap:round;stroke-linejoin:miter;stroke-miterlimit:4;stroke-dasharray:none;stroke-opacity:1" />
      </g>
      <g
         style="stroke:none"
         id="g4474">
        <g
           id="g4476"
           style="fill:none;fill-rule:evenodd;stroke:none;stroke-width:10;stroke-linecap:round;stroke-linejoin:miter;stroke-miterlimit:4;stroke-dasharray:none;stroke-opacity:1">
          <path
             style="stroke:none"
             id="path4478"
             d="m 148.39619,850.41168 c 0,15 0,15 0,15 L -63.735844,1077.5437 c 0,0 0,0 0,-15 z"
             inkscape:connector-curvature="0" />
        </g>
        <path
           style="fill:none;fill-rule:evenodd;stroke:none;stroke-width:10;stroke-linecap:round;stroke-linejoin:miter;stroke-miterlimit:4;stroke-dasharray:none;stroke-opacity:1"
           d="m 148.39619,850.41168 c 0,15 0,15 0,15"
           id="path4249"
           inkscape:connector-curvature="0" />
      </g>
    </g>
    <text
       id="text4291"
       y="997.36218"
       x="120"
       style="font-style:normal;font-weight:normal;font-size:40px;line-height:125%;font-family:sans-serif;letter-spacing:0px;word-spacing:0px;fill:#000000;fill-opacity:1;stroke:none;stroke-width:1px;stroke-linecap:butt;stroke-linejoin:miter;stroke-opacity:1"
       xml:space="preserve"><tspan
         y="997.36218"
         x="120"
         id="tspan4293"
         sodipodi:role="line" /></text>
    <g
       id="g4505"
       transform="translate(-6.0000075,-4.0006825)"
       clip-path="url(#clipPath4894)"
       style="fill:#a70101;fill-opacity:0.9254902">
      <g
         id="g4485"
         style="fill:#a70101;fill-opacity:0.9254902">
        <path
           id="rect4481"
           d="m 64,858.36249 h 65 v 65 H 64 Z"
           style="fill:#a70101;fill-opacity:0.9254902;stroke-width:6.22544575" />
        <g
           id="g4723"
           transform="translate(6.0000075,800.36284)"
           style="fill:#a70101;fill-opacity:0.9254902">
          <g
             id="g4720"
             style="fill:#a70101;fill-opacity:0.9254902;stroke-width:10.08637333">
            <path
               id="path4596"
               d="M58.0 58.0L58.0 123.0L-83.4213562373 264.421356237L-83.4213562373 199.421356237Z"
               style="fill:#a70101;fill-opacity:0.9254902" />
            <path
               id="path4598"
               d="M58.0 123.0L85.888672 123.0L-55.5326842373 264.421356237L-83.4213562373 264.421356237Z"
               style="fill:#a70101;fill-opacity:0.9254902" />
            <path
               id="path4600"
               d="M85.888672 123.0C87.0268427314 121.358592569 88.3302432819 119.8171809 89.77139042 118.376033762L-51.6499658173 259.79739C-53.0911129555 261.238537138 -54.3945135059 262.779948807 -55.5326842373 264.421356237Z"
               style="fill:#a70101;fill-opacity:0.9254902" />
            <path
               id="path4602"
               d="M89.77139042 118.376033762C98.0423053407 110.105118842 110.850246689 105.136665587 123.0 103.52148L-18.4213562373 244.942836237C-30.571109548 246.558021824 -43.3790508966 251.526475079 -51.6499658173 259.79739Z"
               style="fill:#a70101;fill-opacity:0.9254902" />
            <path
               id="path4604"
               d="M123.0 103.52148L123.0 91.839844L-18.4213562373 233.261200237L-18.4213562373 244.942836237Z"
               style="fill:#a70101;fill-opacity:0.9254902" />
            <path
               id="path4606"
               d="M123.0 91.839844C122.01056 92.688604 120.98223 93.167589 119.96484 93.105469L-21.4565162373 234.526825237C-20.4391262373 234.588945237 -19.4107962373 234.109960237 -18.4213562373 233.261200237Z"
               style="fill:#a70101;fill-opacity:0.9254902" />
            <path
               id="path4608"
               d="M119.96484 93.105469C113.519001223 92.7120074751 108.892359022 75.139164072 115.887596672 68.1439264222L-25.5337595654 209.56528266C-32.5289972152 216.560520309 -27.9023550147 234.133363712 -21.4565162373 234.526825237Z"
               style="fill:#a70101;fill-opacity:0.9254902" />
            <path
               id="path4610"
               d="M115.887596672 68.1439264222C117.304532606 66.726990488 119.198307644 65.744047687 121.65039 65.425781L-19.7709662373 206.847137237C-22.223048593 207.165403924 -24.1168236312 208.148346725 -25.5337595654 209.56528266Z"
               style="fill:#a70101;fill-opacity:0.9254902" />
            <path
               id="path4612"
               d="M121.65039 65.425781C122.10549 65.366781 122.53844 65.336491 122.94922 65.337891L-18.4721362373 206.759247237C-18.8829162373 206.757847237 -19.3158662373 206.788137237 -19.7709662373 206.847137237Z"
               style="fill:#a70101;fill-opacity:0.9254902" />
            <path
               id="path4614"
               d="M122.94922 65.337891C122.96712 65.337951 122.9822 65.34375 123.0 65.34375L-18.4213562373 206.765106237C-18.4391562373 206.765106237 -18.4542362373 206.759307237 -18.4721362373 206.759247237Z"
               style="fill:#a70101;fill-opacity:0.9254902" />
            <path
               id="path4616"
               d="M123.0 65.34375L123.0 58.0L-18.4213562373 199.421356237L-18.4213562373 206.765106237Z"
               style="fill:#a70101;fill-opacity:0.9254902" />
            <path
               id="path4618"
               d="M123.0 58.0L58.0 58.0L-83.4213562373 199.421356237L-18.4213562373 199.421356237Z"
               style="fill:#a70101;fill-opacity:0.9254902" />
            <path
               id="path4620"
               d="M133.0 58.0L133.0 65.341797L-8.42135623731 206.763153237L-8.42135623731 199.421356237Z"
               style="fill:#a70101;fill-opacity:0.9254902" />
            <path
               id="path4622"
               d="M133.0 65.341797C143.65035505 65.4448690034 139.534622888 85.3405223486 133.495786035 91.3793592022L-7.92557020268 232.80071544C-1.88673334904 226.761878586 2.22899881233 206.866225241 -8.42135623731 206.763153237Z"
               style="fill:#a70101;fill-opacity:0.9254902" />
            <path
               id="path4624"
               d="M133.495786035 91.3793592022C133.331855536 91.5432897012 133.166507887 91.6970090093 133.0 91.839844L-8.42135623731 233.261200237C-8.25484835067 233.118365247 -8.08950070162 232.964645938 -7.92557020268 232.80071544Z"
               style="fill:#a70101;fill-opacity:0.9254902" />
            <path
               id="path4626"
               d="M133.0 91.839844L133.0 103.51758L-8.42135623731 244.938936237L-8.42135623731 233.261200237Z"
               style="fill:#a70101;fill-opacity:0.9254902" />
            <path
               id="path4628"
               d="M133.0 103.51758C135.60326 103.17152 138.17719 102.97926 140.66797 102.94141L-0.753386237309 244.362766237C-3.24416623731 244.400616237 -5.81809623731 244.592876237 -8.42135623731 244.938936237Z"
               style="fill:#a70101;fill-opacity:0.9254902" />
            <path
               id="path4630"
               d="M140.66797 102.94141C141.30715 102.93141 141.94084 102.93136 142.56836 102.94336L1.14700376269 244.364716237C0.519483762691 244.352716237 -0.114206237309 244.352766237 -0.753386237309 244.362766237Z"
               style="fill:#a70101;fill-opacity:0.9254902" />
            <path
               id="path4632"
               d="M142.56836 102.94336C154.61677 103.14719 164.36048 107.09986 165.66602 114.85742L24.2446637627 256.278776237C22.9391237627 248.521216237 13.1954137627 244.568546237 1.14700376269 244.364716237Z"
               style="fill:#a70101;fill-opacity:0.9254902" />
            <path
               id="path4634"
               d="M165.66602 114.85742C166.15728 117.77639 165.70783 120.47499 164.58789 123.0L23.1665337627 264.421356237C24.2864737627 261.896346237 24.7359237627 259.197746237 24.2446637627 256.278776237Z"
               style="fill:#a70101;fill-opacity:0.9254902" />
            <path
               id="path4636"
               d="M164.58789 123.0L198.0 123.0L56.5786437627 264.421356237L23.1665337627 264.421356237Z"
               style="fill:#a70101;fill-opacity:0.9254902" />
            <path
               id="path4638"
               d="M198.0 123.0L198.0 58.0L56.5786437627 199.421356237L56.5786437627 264.421356237Z"
               style="fill:#a70101;fill-opacity:0.9254902" />
            <path
               id="path4640"
               d="M198.0 58.0L133.0 58.0L-8.42135623731 199.421356237L56.5786437627 199.421356237Z"
               style="fill:#a70101;fill-opacity:0.9254902" />
            <path
               id="path4642"
               d="M172.91602 60.826172C190.503066978 60.826172 183.429863238 77.8545231386 172.526145296 88.7582410806L31.104789059 230.179597318C42.008507001 219.275879376 49.0817107402 202.247528237 31.4946637627 202.247528237Z"
               style="fill:#a70101;fill-opacity:0.9254902" />
            <path
               id="path4644"
               d="M172.526145296 88.7582410806C167.391124116 93.8932622613 161.406546295 97.669922 156.74805 97.669922L15.3266937627 239.091278237C19.9851900582 239.091278237 25.9697678783 235.314618499 31.104789059 230.179597318Z"
               style="fill:#a70101;fill-opacity:0.9254902" />
            <path
               id="path4646"
               d="M156.74805 97.669922C146.146748387 97.669922 145.84328865 78.1171030227 156.460914082 67.4994775911L15.0395578445 208.920833828C4.42193241296 219.53845926 4.72539214981 239.091278237 15.3266937627 239.091278237Z"
               style="fill:#a70101;fill-opacity:0.9254902" />
            <path
               id="path4648"
               d="M156.460914082 67.4994775911C160.418156438 63.5422352347 165.892436207 60.826172 172.91602 60.826172L31.4946637627 202.247528237C24.4710799698 202.247528237 18.9968002009 204.963591472 15.0395578445 208.920833828Z"
               style="fill:#a70101;fill-opacity:0.9254902" />
            <path
               id="path4650"
               d="M97.492188 75.367188C97.727428 75.352088 97.957287 75.352588 98.179688 75.367188L-43.2416682373 216.788544237C-43.4640692373 216.773944237 -43.6939282373 216.773444237 -43.9291682373 216.788544237Z"
               style="fill:#a70101;fill-opacity:0.9254902" />
            <path
               id="path4652"
               d="M98.179688 75.367188C105.939138968 75.8738534568 106.002212841 94.0075748484 101.57318691 98.4366007789L-39.848169327 239.857957016C-35.4191433965 235.428931086 -35.4822172695 217.295209694 -43.2416682373 216.788544237Z"
               style="fill:#a70101;fill-opacity:0.9254902" />
            <path
               id="path4654"
               d="M101.57318691 98.4366007789C101.093596182 98.916191507 100.561334097 99.2350901448 99.980469 99.353516L-41.4408872373 240.774872237C-40.8600221401 240.656446382 -40.3277600551 240.337547744 -39.848169327 239.857957016Z"
               style="fill:#a70101;fill-opacity:0.9254902" />
            <path
               id="path4656"
               d="M99.980469 99.353516C94.0961156895 100.556069683 85.4957563369 84.6172841781 92.2623939938 77.8506465212L-49.1589622435 219.272002758C-55.9255999004 226.038640415 -47.3252405478 241.97742592 -41.4408872373 240.774872237Z"
               style="fill:#a70101;fill-opacity:0.9254902" />
            <path
               id="path4658"
               d="M92.2623939938 77.8506465212C93.0335048262 77.0795356888 94.0041771644 76.4275377602 95.201172 75.933594L-46.2201842373 217.354950237C-47.417179073 217.848893997 -48.3878514111 218.500891926 -49.1589622435 219.272002758Z"
               style="fill:#a70101;fill-opacity:0.9254902" />
            <path
               id="path4660"
               d="M95.201172 75.933594C96.023752 75.594174 96.786447 75.412547 97.492188 75.367188L-43.9291682373 216.788544237C-44.6349092373 216.833903237 -45.3976042373 217.015530237 -46.2201842373 217.354950237Z"
               style="fill:#a70101;fill-opacity:0.9254902" />
            <path
               id="path4662"
               d="M79.080078 90.978516C85.7850103303 91.2041637026 88.9018168194 107.557656042 85.2187025535 111.240770308L-56.2026536838 252.662126546C-52.5195394179 248.97901228 -55.6363459071 232.62551994 -62.3412782373 232.399872237Z"
               style="fill:#a70101;fill-opacity:0.9254902" />
            <path
               id="path4664"
               d="M85.2187025535 111.240770308C84.9899880943 111.469484768 84.7350519433 111.649340018 84.453125 111.77344L-56.9682312373 253.194796237C-56.686304294 253.070696255 -56.431368143 252.890841005 -56.2026536838 252.662126546Z"
               style="fill:#a70101;fill-opacity:0.9254902" />
            <path
               id="path4666"
               d="M84.453125 111.77344C79.211071467 114.079893672 67.6287102151 100.045604866 74.5734558751 93.1008592064L-66.8479003622 234.522215444C-73.7926460222 241.466961104 -62.2102847703 255.501249909 -56.9682312373 253.194796237Z"
               style="fill:#a70101;fill-opacity:0.9254902" />
            <path
               id="path4668"
               d="M74.5734558751 93.1008592064C74.9294962691 92.7448188125 75.3342326826 92.4074123333 75.791016 92.091797L-65.6303402373 233.513153237C-66.0871235547 233.828768571 -66.4918599682 234.16617505 -66.8479003622 234.522215444Z"
               style="fill:#a70101;fill-opacity:0.9254902" />
            <path
               id="path4670"
               d="M75.791016 92.091797C76.962363 91.282957 78.062748 90.944286 79.080078 90.978516L-62.3412782373 232.399872237C-63.3586082373 232.365642237 -64.4589932373 232.704313237 -65.6303402373 233.513153237Z"
               style="fill:#a70101;fill-opacity:0.9254902" />
            <path
               id="path4672"
               d="M58.0 133.0L58.0 198.0L-83.4213562373 339.421356237L-83.4213562373 274.421356237Z"
               style="fill:#a70101;fill-opacity:0.9254902" />
            <path
               id="path4674"
               d="M58.0 198.0L123.0 198.0L-18.4213562373 339.421356237L-83.4213562373 339.421356237Z"
               style="fill:#a70101;fill-opacity:0.9254902" />
            <path
               id="path4676"
               d="M123.0 198.0L123.0 194.84375L-18.4213562373 336.265106237L-18.4213562373 339.421356237Z"
               style="fill:#a70101;fill-opacity:0.9254902" />
            <path
               id="path4678"
               d="M123.0 194.84375C98.69177 191.51285 76.887067 163.47322 81.482422 142.91016L-59.9389342373 284.331516237C-64.5342892373 304.894576237 -42.7295862373 332.934206237 -18.4213562373 336.265106237Z"
               style="fill:#a70101;fill-opacity:0.9254902" />
            <path
               id="path4680"
               d="M81.482422 142.91016C82.293641 139.27726 83.8248 135.9764 85.888672 133.0L-55.5326842373 274.421356237C-57.5965562373 277.397756237 -59.1277152373 280.698616237 -59.9389342373 284.331516237Z"
               style="fill:#a70101;fill-opacity:0.9254902" />
            <path
               id="path4682"
               d="M85.888672 133.0L58.0 133.0L-83.4213562373 274.421356237L-55.5326842373 274.421356237Z"
               style="fill:#a70101;fill-opacity:0.9254902" />
            <path
               id="path4684"
               d="M164.58789 133.0C163.485142456 135.486372437 161.724018088 137.801390902 159.542154243 139.983254747L18.1207980061 281.404610984C20.3026618509 279.222747139 22.0637862191 276.907728674 23.1665337627 274.421356237Z"
               style="fill:#a70101;fill-opacity:0.9254902" />
            <path
               id="path4686"
               d="M159.542154243 139.983254747C152.422500586 147.102908404 140.822870739 152.804749947 133.0 158.41602L-8.42135623731 299.837376237C-0.598485498514 294.226106185 11.0011443489 288.524264641 18.1207980061 281.404610984Z"
               style="fill:#a70101;fill-opacity:0.9254902" />
            <path
               id="path4688"
               d="M133.0 158.41602L133.0 178.80469L-8.42135623731 320.226046237L-8.42135623731 299.837376237Z"
               style="fill:#a70101;fill-opacity:0.9254902" />
            <path
               id="path4690"
               d="M133.0 178.80469C136.55398796 180.379593739 139.88625684 179.797623511 142.009577075 177.674303276L0.588220837441 319.095659514C-1.53509939738 321.218979748 -4.86736827765 321.800949976 -8.42135623731 320.226046237Z"
               style="fill:#a70101;fill-opacity:0.9254902" />
            <path
               id="path4692"
               d="M142.009577075 177.674303276C143.768516687 175.915363664 144.69783725 173.098700608 144.23633 169.57422L2.81497376269 310.995576237C3.27648101316 314.520056845 2.34716044933 317.336719902 0.588220837441 319.095659514Z"
               style="fill:#a70101;fill-opacity:0.9254902" />
            <path
               id="path4694"
               d="M144.23633 169.57422C144.088452256 168.445444447 144.589386953 167.384436931 145.537585773 166.436238111L4.11622953569 307.857594348C3.16803071553 308.805793169 2.66709601911 309.866800684 2.81497376269 310.995576237Z"
               style="fill:#a70101;fill-opacity:0.9254902" />
            <path
               id="path4696"
               d="M145.537585773 166.436238111C150.819073878 161.154750006 169.976995347 159.373167793 168.18164 168.875L26.7602837627 310.296356237C28.5556391095 300.79452403 9.39771764079 302.576106243 4.11622953569 307.857594348Z"
               style="fill:#a70101;fill-opacity:0.9254902" />
            <path
               id="path4698"
               d="M168.18164 168.875C166.997926709 175.149496691 163.618673845 180.859700584 159.13449011 185.343884319L17.7131338724 326.765240556C22.1973176076 322.281056821 25.5765704716 316.570852928 26.7602837627 310.296356237Z"
               style="fill:#a70101;fill-opacity:0.9254902" />
            <path
               id="path4700"
               d="M159.13449011 185.343884319C153.114808266 191.363566163 145.103924119 195.17383 137.74023 195.17383L-3.68112623731 336.595186237C3.68256788174 336.595186237 11.6934520287 332.7849224 17.7131338724 326.765240556Z"
               style="fill:#a70101;fill-opacity:0.9254902" />
            <path
               id="path4702"
               d="M137.74023 195.17383C136.15377 195.17383 134.57199 195.05915 133.0 194.84375L-8.42135623731 336.265106237C-6.84936623731 336.480506237 -5.26758623731 336.595186237 -3.68112623731 336.595186237Z"
               style="fill:#a70101;fill-opacity:0.9254902" />
            <path
               id="path4704"
               d="M133.0 194.84375L133.0 198.0L-8.42135623731 339.421356237L-8.42135623731 336.265106237Z"
               style="fill:#a70101;fill-opacity:0.9254902" />
            <path
               id="path4706"
               d="M133.0 198.0L198.0 198.0L56.5786437627 339.421356237L-8.42135623731 339.421356237Z"
               style="fill:#a70101;fill-opacity:0.9254902" />
            <path
               id="path4708"
               d="M198.0 198.0L198.0 133.0L56.5786437627 274.421356237L56.5786437627 339.421356237Z"
               style="fill:#a70101;fill-opacity:0.9254902" />
            <path
               id="path4710"
               d="M198.0 133.0L164.58789 133.0L23.1665337627 274.421356237L56.5786437627 274.421356237Z"
               style="fill:#a70101;fill-opacity:0.9254902" />
            <path
               id="path4712"
               d="M123.0 158.41602C121.197575447 159.708883875 119.595590189 160.997072649 118.295809789 162.296853049L-23.1255464484 303.718209287C-21.8257660483 302.418428886 -20.2237807898 301.130240112 -18.4213562373 299.837376237Z"
               style="fill:#a70101;fill-opacity:0.9254902" />
            <path
               id="path4714"
               d="M118.295809789 162.296853049C113.731485511 166.861177327 112.893775634 171.568442789 120.18945 177.12305L-21.2319062373 318.544406237C-28.5275806034 312.989799026 -27.6898707259 308.282533564 -23.1255464484 303.718209287Z"
               style="fill:#a70101;fill-opacity:0.9254902" />
            <path
               id="path4716"
               d="M120.18945 177.12305C121.12938 177.8387 122.0727 178.39378 123.0 178.80469L-18.4213562373 320.226046237C-19.3486562373 319.815136237 -20.2919762373 319.260056237 -21.2319062373 318.544406237Z"
               style="fill:#a70101;fill-opacity:0.9254902" />
            <path
               id="path4718"
               d="M123.0 178.80469L123.0 158.41602L-18.4213562373 299.837376237L-18.4213562373 320.226046237Z"
               style="fill:#a70101;fill-opacity:0.9254902" />
          </g>
          <path
             id="path4483"
             d="M 58 58 L 58 123 L 85.888672 123 C 93.55894 111.93836 108.73324 105.4181 123 103.52148 L 123 91.839844 C 122.01056 92.688604 120.98223 93.167589 119.96484 93.105469 C 112.21335 92.632309 107.09268 67.315291 121.65039 65.425781 C 122.10549 65.366781 122.53844 65.336491 122.94922 65.337891 C 122.96712 65.337951 122.9822 65.34375 123 65.34375 L 123 58 L 58 58 z M 133 58 L 133 65.341797 C 143.93947 65.447667 139.30029 86.435284 133 91.839844 L 133 103.51758 C 135.60326 103.17152 138.17719 102.97926 140.66797 102.94141 C 141.30715 102.93141 141.94084 102.93136 142.56836 102.94336 C 154.61677 103.14719 164.36048 107.09986 165.66602 114.85742 C 166.15728 117.77639 165.70783 120.47499 164.58789 123 L 198 123 L 198 58 L 133 58 z M 172.91602 60.826172 C 198.78555 60.826172 171.29841 97.669922 156.74805 97.669922 C 142.19559 97.669922 147.04755 60.826172 172.91602 60.826172 z M 97.492188 75.367188 C 97.727428 75.352088 97.957287 75.352588 98.179688 75.367188 C 106.77936 75.928717 105.92563 98.141426 99.980469 99.353516 C 93.425548 100.69311 83.50033 80.761984 95.201172 75.933594 C 96.023752 75.594174 96.786447 75.412547 97.492188 75.367188 z M 79.080078 90.978516 C 86.201374 91.218176 89.275076 109.65089 84.453125 111.77344 C 78.942324 114.19814 66.424446 98.563647 75.791016 92.091797 C 76.962363 91.282957 78.062748 90.944286 79.080078 90.978516 z M 58 133 L 58 198 L 123 198 L 123 194.84375 C 98.69177 191.51285 76.887067 163.47322 81.482422 142.91016 C 82.293641 139.27726 83.8248 135.9764 85.888672 133 L 58 133 z M 164.58789 133 C 159.88676 143.59967 143.22024 151.08514 133 158.41602 L 133 178.80469 C 139.49808 181.68423 145.25495 177.35331 144.23633 169.57422 C 143.26477 162.15814 170.29932 157.66728 168.18164 168.875 C 165.40888 183.57254 150.58929 195.17383 137.74023 195.17383 C 136.15377 195.17383 134.57199 195.05915 133 194.84375 L 133 198 L 198 198 L 198 133 L 164.58789 133 z M 123 158.41602 C 114.86816 164.24892 110.81619 169.98666 120.18945 177.12305 C 121.12938 177.8387 122.0727 178.39378 123 178.80469 L 123 158.41602 z "
             style="fill:#a70101;fill-opacity:0.9254902;stroke-width:10.08637333"
             transform="" />
        </g>
      </g>
      <g
         transform="translate(-4.999995)"
         id="g4491"
         style="fill:#a70101;fill-opacity:0.9254902">
        <path
           id="rect4487"
           d="m 144.00002,858.36249 h 65 v 65 h -65 z"
           style="fill:#a70101;fill-opacity:0.9254902;stroke-width:6.22544575" />
      </g>
      <g
         transform="translate(-4.8146973e-6,-4.9996849)"
         id="g4497"
         style="fill:#a70101;fill-opacity:0.9254902">
        <path
           id="rect4493"
           d="m 64.000008,938.36261 h 65.000002 v 64.99999 H 64.000008 Z"
           style="fill:#a70101;fill-opacity:0.9254902;stroke-width:6.22544575" />
      </g>
      <g
         transform="translate(-4.9999976,-5.000005)"
         id="g4503"
         style="fill:#a70101;fill-opacity:0.9254902">
        <path
           id="rect4499"
           d="m 144.00002,938.36328 h 65 v 65.00002 h -65 z"
           style="fill:#a70101;fill-opacity:0.9254902;stroke-width:6.22544575" />
      </g>
    </g>
    <g
       transform="translate(-6.0000075,-4.0006825)"
       id="g4479">
      <g
         id="g4452">
        <rect
           style="fill:#ffffff;fill-opacity:1;stroke-width:6.22544575"
           id="rect4416"
           width="65"
           height="65"
           x="64"
           y="858.36249" />
        <path
           inkscape:connector-curvature="0"
           id="rect4359"
           d="m 63.99999,858.36268 v 65 h 27.887739 c 7.670268,-11.06164 22.845501,-17.58131 37.112261,-19.47793 v -11.68188 c -0.98944,0.84876 -2.01845,1.32723 -3.03584,1.26511 -7.75149,-0.47316 -12.87089,-25.79069 1.68682,-27.6802 0.4551,-0.059 0.88746,-0.0875 1.29824,-0.0861 0.0179,6e-5 0.033,0.004 0.0508,0.004 v -7.34342 z m 39.49236,17.36718 c 0.23524,-0.0151 0.46425,-0.0146 0.68665,0 8.59967,0.56153 7.74679,22.77433 1.80163,23.98642 -6.554921,1.33959 -16.480912,-18.5906 -4.78007,-23.41899 0.82258,-0.33942 1.58605,-0.52207 2.29179,-0.56743 z m -18.411517,15.61193 c 7.121296,0.23966 10.193725,18.67127 5.371774,20.79382 -5.510801,2.4247 -18.028087,-13.20921 -8.661517,-19.68106 1.171347,-0.80884 2.272413,-1.14699 3.289743,-1.11276 z"
           style="fill:#5180b8;fill-opacity:1;stroke-width:10.08637333" />
      </g>
      <g
         id="g4456"
         transform="translate(-4.999995)">
        <rect
           y="858.36249"
           x="144.00002"
           height="65"
           width="65"
           id="rect4414"
           style="fill:#ffffff;fill-opacity:1;stroke-width:6.22544575" />
        <path
           inkscape:connector-curvature="0"
           id="rect4361"
           d="m 144.00001,858.36207 v 7.34341 c 10.93947,0.10587 6.30029,21.09222 0,26.49678 v 11.67746 c 2.60326,-0.34606 5.17718,-0.53839 7.66796,-0.57624 0.63918,-0.01 1.27347,-0.009 1.90099,0.003 12.04841,0.20383 21.7911,4.15617 23.09664,11.91373 0.49126,2.91897 0.0425,5.61765 -1.07744,8.14266 h 33.41186 v -65 z m 39.91627,2.82609 c 25.86953,0 -1.61795,36.84511 -16.16831,36.84511 -14.55246,0 -9.70016,-36.84511 16.16831,-36.84511 z"
           style="fill:#5180b8;fill-opacity:1;stroke-width:10.08637333" />
      </g>
      <g
         id="g4465"
         transform="translate(-4.8146973e-6,-4.9996849)">
        <rect
           style="fill:#ffffff;fill-opacity:1;stroke-width:6.22544575"
           id="rect4412"
           width="65"
           height="65"
           x="64.000008"
           y="938.36261" />
        <path
           inkscape:connector-curvature="0"
           id="rect4363"
           d="m 64.000002,938.36325 v 65.00005 H 129 v -3.1573 c -24.30823,-3.3309 -46.112336,-31.37072 -41.516981,-51.93378 0.811219,-3.6329 2.34085,-6.93256 4.404722,-9.90896 z M 129,963.77816 c -8.13184,5.8329 -12.18389,11.57098 -2.81063,18.70737 0.93993,0.71565 1.88333,1.27149 2.81063,1.6824 z"
           style="fill:#5180b8;fill-opacity:1;stroke-width:10.08637333" />
      </g>
      <g
         id="g4461"
         transform="translate(-4.9999976,-5.000005)">
        <rect
           y="938.36328"
           x="144.00002"
           height="65"
           width="65"
           id="rect4410"
           style="fill:#ffffff;fill-opacity:1;stroke-width:6.22544575" />
        <path
           inkscape:connector-curvature="0"
           id="rect4365"
           d="m 175.58817,938.36325 c -4.70113,10.59967 -21.36791,18.08403 -31.58815,25.41491 v 20.38977 c 6.49808,2.87954 12.25452,-1.45205 11.2359,-9.23114 -0.97156,-7.41608 26.06436,-11.90761 23.94668,-0.69989 -2.77276,14.69754 -17.5932,26.3003 -30.44226,26.3003 -1.58646,0 -3.16833,-0.1158 -4.74032,-0.3312 v 3.1573 h 65 v -65.00005 z"
           style="fill:#5180b8;fill-opacity:1;stroke-width:10.08637333" />
      </g>
    </g>
    <g
       style="opacity:1;fill:#ffffff;fill-opacity:1;fill-rule:nonzero;stroke:none;stroke-width:1.00008464;stroke-miterlimit:4;stroke-dasharray:none;stroke-opacity:1"
       id="g4383"
       transform="matrix(0.93015406,0,0,0.9301539,83.254983,869.36216)">
      <g
         style="fill:#ffffff;fill-opacity:1;stroke:none;stroke-width:1.00008464;stroke-miterlimit:4;stroke-dasharray:none;stroke-opacity:1"
         id="g4381" />
    </g>
    <g
       style="opacity:1;fill:#ffffff;fill-opacity:1;fill-rule:nonzero;stroke:none;stroke-width:1.00008464;stroke-miterlimit:4;stroke-dasharray:none;stroke-opacity:1"
       id="g4390"
       transform="matrix(0.93015406,0,0,0.9301539,83.254983,869.36216)">
      <g
         style="fill:#ffffff;fill-opacity:1;stroke:none;stroke-width:1.00008464;stroke-miterlimit:4;stroke-dasharray:none;stroke-opacity:1"
         id="g4388" />
    </g>
  </g>
</svg>
