<?xml version="1.0" encoding="UTF-8" standalone="no"?>
<!-- Created with Inkscape (http://www.inkscape.org/) -->

<svg
   xmlns:dc="http://purl.org/dc/elements/1.1/"
   xmlns:cc="http://creativecommons.org/ns#"
   xmlns:rdf="http://www.w3.org/1999/02/22-rdf-syntax-ns#"
   xmlns:svg="http://www.w3.org/2000/svg"
   xmlns="http://www.w3.org/2000/svg"
   xmlns:sodipodi="http://sodipodi.sourceforge.net/DTD/sodipodi-0.dtd"
   xmlns:inkscape="http://www.inkscape.org/namespaces/inkscape"
   sodipodi:docname="remerkable.svg"
   inkscape:version="0.92.0 r"
   version="1.1"
   id="svg2"
   viewBox="0 0 256 256"
   height="256"
   width="256">
  <sodipodi:namedview
     inkscape:window-maximized="1"
     inkscape:window-y="0"
     inkscape:window-x="0"
     inkscape:window-height="1054"
     inkscape:window-width="1920"
     units="px"
     showgrid="true"
     inkscape:current-layer="layer1"
     inkscape:document-units="px"
     inkscape:cy="128"
     inkscape:cx="116.15925"
     inkscape:zoom="3.3359375"
     inkscape:pageshadow="2"
     inkscape:pageopacity="0.0"
     borderopacity="1.0"
     bordercolor="#666666"
     pagecolor="#ffffff"
     id="base">
    <inkscape:grid
       type="xygrid"
       id="grid4168"
       spacingx="5"
       spacingy="5" />
  </sodipodi:namedview>
  <defs
     id="defs4">
    <clipPath
       clipPathUnits="userSpaceOnUse"
       id="clipPath5002">
      <g
         id="g5004">
        <path
           transform="translate(0,796.36216)"
           inkscape:connector-curvature="0"
           id="path5006"
           d="M 88.118406,249.43519 C 46.103287,235.29134 14.771284,201.68742 4.1335861,159.36053 1.3377997,148.23623 0.92261224,144.16281 0.92582381,127.88908 0.92787958,117.47222 1.134384,112.01362 1.6577819,108.54099 4.4653598,89.913336 12.17654,70.638106 23.042737,55.086148 c 3.958678,-5.665755 8.344812,-10.93092 9.101533,-10.925587 0.32809,0.0023 10.488643,18.309713 22.579009,40.683112 12.090365,22.373397 22.374546,41.334697 22.853732,42.136217 0.479186,0.80151 0.924733,2.44098 0.990103,3.64326 0.343424,6.31639 2.524175,14.20976 5.6424,20.42304 2.954444,5.88693 5.065381,8.73258 10.434696,14.06652 6.71418,6.66995 12.88853,10.28643 21.73204,12.72904 3.16587,0.87442 5.10478,1.05037 11.57517,1.05037 8.82596,0 12.60219,-0.76201 19.26429,-3.88733 2.04584,-0.95974 3.93661,-1.66536 4.20172,-1.56805 0.2651,0.0973 -11.0555,17.66459 -25.1569,39.0384 l -25.6389,38.86148 -3.094121,0.11221 c -2.554618,0.0927 -4.195204,-0.25845 -9.409103,-2.01364 z"
           style="fill:#0f9d58;fill-opacity:1;stroke:none;stroke-width:4.85768509;stroke-linejoin:round;stroke-miterlimit:4;stroke-dasharray:none;stroke-opacity:1" />
        <path
           inkscape:connector-curvature="0"
           id="path5008"
           d="m 112.35984,1051.5167 c -10.0014,-1.4495 -12.15632,-1.8201 -12.531784,-2.1556 -0.248854,-0.2223 1.738304,-3.7475 4.550294,-8.0722 7.16635,-11.0213 49.77231,-74.64801 50.25856,-75.05489 3.57509,-2.99158 8.63523,-8.0414 10.57512,-10.55356 3.36154,-4.35318 7.55784,-12.9141 9.06523,-18.494 6.19314,-22.92535 -2.59253,-47.15185 -21.69967,-59.83688 l -2.96081,-1.96565 17.02469,0.29584 c 9.36358,0.1627 31.17032,0.43384 48.45941,0.60252 l 31.43471,0.30668 1.54584,4.18869 c 2.24597,6.08579 4.67816,15.0947 5.93451,21.9816 1.52517,8.36049 1.92536,28.85896 0.73851,37.82758 -3.0805,23.27845 -12.81326,45.72018 -27.80202,64.10577 -20.47622,25.1166 -51.4599,42.1974 -84.14612,46.3885 -5.31244,0.6812 -26.64601,0.9864 -30.44647,0.4356 z"
           style="fill:#f4b400;fill-opacity:1;stroke:none;stroke-width:4.85768509;stroke-linejoin:round;stroke-miterlimit:4;stroke-dasharray:none;stroke-opacity:1" />
        <path
           transform="translate(0,796.36216)"
           inkscape:connector-curvature="0"
           id="path5010"
           d="M 67.989788,108.87302 C 41.284246,59.575543 33.290284,45.149038 32.233625,44.344765 31.651257,43.901497 32.811213,42.549931 38.695603,36.815353 53.43581,22.450419 68.809334,13.040746 87.839196,6.7360352 101.68742,2.1480329 112.58238,0.43719165 127.95142,0.43719165 c 21.3099,0 37.80488,3.80960275 56.83492,13.12633035 25.29351,12.383198 46.19421,33.578863 58.51993,59.345832 1.61138,3.368591 2.92978,6.372442 2.92978,6.675231 0,0.560033 -10.54865,0.49527 -71.16508,-0.436914 l -24.28843,-0.373518 -3.93063,-1.764495 c -6.75732,-3.033425 -10.64587,-3.839529 -18.6576,-3.867747 -5.0296,-0.01773 -7.97946,0.207636 -10.31642,0.788106 -14.50826,3.603659 -26.283291,12.94777 -33.291614,26.418653 -3.58502,6.89086 -5.24713,13.08166 -6.331628,23.58317 l -0.33738,3.26696 -9.92748,-18.32578 z"
           style="fill:#db4437;fill-opacity:1;stroke:none;stroke-width:10;stroke-linejoin:round;stroke-miterlimit:4;stroke-dasharray:none;stroke-opacity:1" />
      </g>
    </clipPath>
    <clipPath
       id="clipPath4271"
       clipPathUnits="userSpaceOnUse">
      <circle
         r="128"
         cy="128.00002"
         cx="128"
         id="circle4273"
         style="fill:#292929;fill-opacity:0.26020412;stroke:none;stroke-width:10;stroke-linejoin:round;stroke-miterlimit:4;stroke-dasharray:none;stroke-opacity:0.25882353" />
    </clipPath>
    <clipPath
       clipPathUnits="userSpaceOnUse"
       id="clipPath4363">
      <circle
         r="128"
         cy="924.36218"
         cx="128"
         id="circle4365"
         style="fill:#4285f4;fill-opacity:1;stroke:none;stroke-width:10;stroke-linejoin:round;stroke-miterlimit:4;stroke-dasharray:none;stroke-opacity:0.25882353" />
    </clipPath>
    <clipPath
       id="clipPath4452"
       clipPathUnits="userSpaceOnUse">
      <circle
         r="128"
         cy="924.36218"
         cx="128"
         id="circle4454"
         style="fill:#4285f4;fill-opacity:1;stroke:none;stroke-width:10;stroke-linejoin:round;stroke-miterlimit:4;stroke-dasharray:none;stroke-opacity:0.25882353" />
    </clipPath>
    <clipPath
       clipPathUnits="userSpaceOnUse"
       id="clipPath5177">
      <circle
         r="128"
         cy="924.36218"
         cx="128"
         id="circle5179"
         style="fill:#4285f4;fill-opacity:1;stroke:none;stroke-width:10;stroke-linejoin:round;stroke-miterlimit:4;stroke-dasharray:none;stroke-opacity:0.25882353" />
    </clipPath>
    <clipPath
       id="clipPath4342"
       clipPathUnits="userSpaceOnUse">
      <circle
         r="128"
         cy="933.48718"
         cx="128"
         id="circle4344"
         style="fill:#4285f4;fill-opacity:1;stroke:none;stroke-width:10;stroke-linejoin:round;stroke-miterlimit:4;stroke-dasharray:none;stroke-opacity:0.25882353" />
    </clipPath>
    <clipPath
       clipPathUnits="userSpaceOnUse"
       id="clipPath4681">
      <circle
         r="128"
         cy="930.43964"
         cx="127.00293"
         id="circle4683"
         style="fill:#9d5fad;fill-opacity:1;stroke:none;stroke-width:10;stroke-linejoin:round;stroke-miterlimit:4;stroke-dasharray:none;stroke-opacity:0.25882353" />
    </clipPath>
    <clipPath
       id="clipPath4235"
       clipPathUnits="userSpaceOnUse">
      <circle
         r="128"
         cy="924.36218"
         cx="128"
         id="circle4237"
         style="fill:#0f9d58;fill-opacity:1;stroke:none;stroke-width:10;stroke-linejoin:round;stroke-miterlimit:4;stroke-dasharray:none;stroke-opacity:0.25882353" />
    </clipPath>
    <clipPath
       clipPathUnits="userSpaceOnUse"
       id="clipPath4771">
      <circle
         r="128"
         cy="924.36218"
         cx="128"
         id="circle4773"
         style="fill:#0f9d58;fill-opacity:1;stroke:none;stroke-width:10;stroke-linejoin:round;stroke-miterlimit:4;stroke-dasharray:none;stroke-opacity:0.25882353" />
    </clipPath>
    <clipPath
       id="clipPath4842"
       clipPathUnits="userSpaceOnUse">
      <circle
         r="128"
         cy="924.36218"
         cx="128"
         id="circle4844"
         style="fill:#0f9d58;fill-opacity:1;stroke:none;stroke-width:10;stroke-linejoin:round;stroke-miterlimit:4;stroke-dasharray:none;stroke-opacity:0.25882353" />
    </clipPath>
    <clipPath
       clipPathUnits="userSpaceOnUse"
       id="clipPath4458">
      <circle
         r="128"
         cy="924.36218"
         cx="128"
         id="circle4460"
         style="fill:#ff3b38;fill-opacity:1;stroke:none;stroke-width:10;stroke-linejoin:round;stroke-miterlimit:4;stroke-dasharray:none;stroke-opacity:0.25882353" />
    </clipPath>
    <clipPath
       id="clipPath4783"
       clipPathUnits="userSpaceOnUse">
      <circle
         r="128"
         cy="924.36218"
         cx="128"
         id="circle4785"
         style="fill:#ff3b38;fill-opacity:1;stroke:none;stroke-width:10;stroke-linejoin:round;stroke-miterlimit:4;stroke-dasharray:none;stroke-opacity:0.25882353" />
    </clipPath>
    <clipPath
       clipPathUnits="userSpaceOnUse"
       id="clipPath4789">
      <circle
         r="128"
         cy="924.36218"
         cx="102.64714"
         id="circle4791"
         style="fill:#80b4ff;fill-opacity:1;stroke:none;stroke-width:10;stroke-linejoin:round;stroke-miterlimit:4;stroke-dasharray:none;stroke-opacity:0.25882353" />
    </clipPath>
    <clipPath
       id="clipPath4721"
       clipPathUnits="userSpaceOnUse">
      <circle
         r="128"
         cy="924.36218"
         cx="128"
         id="circle4723"
         style="fill:#557ae6;fill-opacity:1;stroke:none;stroke-width:10;stroke-linejoin:round;stroke-miterlimit:4;stroke-dasharray:none;stroke-opacity:0.25882353" />
    </clipPath>
    <clipPath
       clipPathUnits="userSpaceOnUse"
       id="clipPath4491">
      <circle
         r="128"
         cy="924.36218"
         cx="128"
         id="circle4493"
         style="fill:#990000;fill-opacity:1;stroke:none;stroke-width:10;stroke-linejoin:round;stroke-miterlimit:4;stroke-dasharray:none;stroke-opacity:0.25882353" />
    </clipPath>
    <clipPath
       id="clipPath1102"
       clipPathUnits="userSpaceOnUse">
      <circle
         r="128"
         cy="924.36218"
         cx="128"
         id="circle1104"
         style="fill:#b40000;fill-opacity:1;stroke:none;stroke-width:10;stroke-linejoin:round;stroke-miterlimit:4;stroke-dasharray:none;stroke-opacity:0.25882353" />
    </clipPath>
    <clipPath
       clipPathUnits="userSpaceOnUse"
       id="clipPath4177">
      <circle
         r="19.825592"
         cy="17.382126"
         cx="18.066984"
         id="circle4179"
         style="fill:#4cc1ff;fill-opacity:0.50196078;stroke:none;stroke-width:1.54887426;stroke-linejoin:round;stroke-miterlimit:4;stroke-dasharray:none;stroke-opacity:0.25882353" />
    </clipPath>
  </defs>
  <metadata
     id="metadata7">
    <rdf:RDF>
      <cc:Work
         rdf:about="">
        <dc:format>image/svg+xml</dc:format>
        <dc:type
           rdf:resource="http://purl.org/dc/dcmitype/StillImage" />
        <dc:title />
      </cc:Work>
    </rdf:RDF>
  </metadata>
  <g
     transform="translate(0,-796.36216)"
     id="layer1"
     inkscape:groupmode="layer"
     inkscape:label="Layer 1">
    <circle
       style="fill:#94daff;fill-opacity:0.99519229;stroke:none;stroke-width:10;stroke-linejoin:round;stroke-miterlimit:4;stroke-dasharray:none;stroke-opacity:0.25882353"
       id="path4152"
       cx="128"
       cy="924.36218"
       r="128" />
    <text
       id="text4914"
       y="927.36218"
       x="120"
       style="font-style:normal;font-weight:normal;font-size:40px;line-height:125%;font-family:sans-serif;letter-spacing:0px;word-spacing:0px;fill:#000000;fill-opacity:1;stroke:none;stroke-width:1px;stroke-linecap:butt;stroke-linejoin:miter;stroke-opacity:1"
       xml:space="preserve"><tspan
         y="927.36218"
         x="120"
         id="tspan4916"
         sodipodi:role="line" /></text>
    <g
       style="stroke:none"
       transform="translate(-4.11162,138)"
       id="g4241">
      <g
         style="stroke:none"
         id="g4446">
        <g
           id="g4448"
           style="fill:none;fill-rule:evenodd;stroke:none;stroke-width:10;stroke-linecap:round;stroke-linejoin:miter;stroke-miterlimit:4;stroke-dasharray:none;stroke-opacity:1">
          <path
             style="stroke:none"
             id="path4450"
             d="m 129.98857,850.41168 c 0,15 0,15 0,15 L -82.143464,1077.5437 c 0,0 0,0 0,-15 z"
             inkscape:connector-curvature="0" />
        </g>
        <path
           inkscape:connector-curvature="0"
           id="path4247"
           d="m 129.98857,850.41168 c 0,15 0,15 0,15"
           style="fill:none;fill-rule:evenodd;stroke:none;stroke-width:10;stroke-linecap:round;stroke-linejoin:miter;stroke-miterlimit:4;stroke-dasharray:none;stroke-opacity:1" />
      </g>
      <g
         style="stroke:none"
         id="g4453">
        <g
           id="g4455"
           style="fill:none;fill-rule:evenodd;stroke:none;stroke-width:10;stroke-linecap:round;stroke-linejoin:miter;stroke-miterlimit:4;stroke-dasharray:none;stroke-opacity:1">
          <path
             style="stroke:none"
             id="path4457"
             d="m 111.58095,850.41168 c 0,15 0,15 0,15 l -212.13203,212.13202 c 0,0 0,0 0,-15 z"
             inkscape:connector-curvature="0" />
        </g>
        <path
           style="fill:none;fill-rule:evenodd;stroke:none;stroke-width:10;stroke-linecap:round;stroke-linejoin:miter;stroke-miterlimit:4;stroke-dasharray:none;stroke-opacity:1"
           d="m 111.58095,850.41168 c 0,15 0,15 0,15"
           id="path4245"
           inkscape:connector-curvature="0" />
      </g>
      <g
         style="stroke:none"
         id="g4460">
        <g
           id="g4462"
           style="fill:none;fill-rule:evenodd;stroke:none;stroke-width:10;stroke-linecap:round;stroke-linejoin:miter;stroke-miterlimit:4;stroke-dasharray:none;stroke-opacity:1">
          <path
             style="stroke:none"
             id="path4464"
             d="m 93.173333,850.41168 c 0,15 0,15 0,15 L -118.9587,1077.5437 c 0,0 0,0 0,-15 z"
             inkscape:connector-curvature="0" />
        </g>
        <path
           inkscape:connector-curvature="0"
           id="path4243"
           d="m 93.173333,850.41168 c 0,15 0,15 0,15"
           style="fill:none;fill-rule:evenodd;stroke:none;stroke-width:10;stroke-linecap:round;stroke-linejoin:miter;stroke-miterlimit:4;stroke-dasharray:none;stroke-opacity:1" />
      </g>
      <g
         style="stroke:none"
         id="g4467">
        <g
           id="g4469"
           style="fill:none;fill-rule:evenodd;stroke:none;stroke-width:10;stroke-linecap:round;stroke-linejoin:miter;stroke-miterlimit:4;stroke-dasharray:none;stroke-opacity:1">
          <path
             style="stroke:none"
             id="path4471"
             d="m 166.80381,850.41168 c 0,15 0,15 0,15 L -45.328224,1077.5437 c 0,0 0,0 0,-15 z"
             inkscape:connector-curvature="0" />
        </g>
        <path
           inkscape:connector-curvature="0"
           id="path4251"
           d="m 166.80381,850.41168 c 0,15 0,15 0,15"
           style="fill:none;fill-rule:evenodd;stroke:none;stroke-width:10;stroke-linecap:round;stroke-linejoin:miter;stroke-miterlimit:4;stroke-dasharray:none;stroke-opacity:1" />
      </g>
      <g
         style="stroke:none"
         id="g4474">
        <g
           id="g4476"
           style="fill:none;fill-rule:evenodd;stroke:none;stroke-width:10;stroke-linecap:round;stroke-linejoin:miter;stroke-miterlimit:4;stroke-dasharray:none;stroke-opacity:1">
          <path
             style="stroke:none"
             id="path4478"
             d="m 148.39619,850.41168 c 0,15 0,15 0,15 L -63.735844,1077.5437 c 0,0 0,0 0,-15 z"
             inkscape:connector-curvature="0" />
        </g>
        <path
           style="fill:none;fill-rule:evenodd;stroke:none;stroke-width:10;stroke-linecap:round;stroke-linejoin:miter;stroke-miterlimit:4;stroke-dasharray:none;stroke-opacity:1"
           d="m 148.39619,850.41168 c 0,15 0,15 0,15"
           id="path4249"
           inkscape:connector-curvature="0" />
      </g>
    </g>
    <text
       id="text4291"
       y="997.36218"
       x="120"
       style="font-style:normal;font-weight:normal;font-size:40px;line-height:125%;font-family:sans-serif;letter-spacing:0px;word-spacing:0px;fill:#000000;fill-opacity:1;stroke:none;stroke-width:1px;stroke-linecap:butt;stroke-linejoin:miter;stroke-opacity:1"
       xml:space="preserve"><tspan
         y="997.36218"
         x="120"
         id="tspan4293"
         sodipodi:role="line" /></text>
    <g
       style="font-style:normal;font-weight:normal;font-size:31.41309929px;line-height:125%;font-family:Sans;letter-spacing:0px;word-spacing:0px;fill:#4cc1ff;fill-opacity:1;stroke:none"
       id="g3775"
       transform="matrix(6.4563018,0,0,6.4563018,11.354094,812.13792)"
       clip-path="url(#clipPath4177)">
      <g
         id="g4015"
         style="fill:#4cc1ff;fill-opacity:1">
        <g
           id="g4012"
           style="font-variant:normal;font-weight:bold;font-stretch:normal;font-size:28.27178764px;font-family:Daniel;-inkscape-font-specification:'Daniel Bold';fill:#4cc1ff;fill-opacity:1">
          <path
             id="path3844"
             d="M29.683542 12.012141C29.683518 12.794416 29.131335 13.958601 28.026992 15.504701L-113.394364237 156.926057237C-112.290021237 155.379957237 -111.737838237 154.215772237 -111.737814237 153.433497237Z"
             style="fill:#4cc1ff;fill-opacity:1" />
          <path
             id="path3846"
             d="M28.026992 15.504701C27.9993825597 15.543811749 27.9637941928 15.5851507722 27.9202268932 15.6287180718L-113.501129344 157.050074309C-113.457562045 157.00650701 -113.421973678 156.965167986 -113.394364237 156.926057237Z"
             style="fill:#4cc1ff;fill-opacity:1" />
          <path
             id="path3848"
             d="M27.9202268932 15.6287180718C27.6152234828 15.9337214822 26.9191695217 16.3479335682 25.832063 16.871355L-115.589293237 158.292711237C-114.502186716 157.769289806 -113.806132754 157.355077719 -113.501129344 157.050074309Z"
             style="fill:#4cc1ff;fill-opacity:1" />
          <path
             id="path3850"
             d="M25.832063 16.871355C25.7841233697 16.9297790133 25.7287473048 16.9903972719 25.6659347923 17.0532097844L-115.755421445 158.474566022C-115.692608932 158.411753509 -115.637232868 158.351135251 -115.589293237 158.292711237Z"
             style="fill:#4cc1ff;fill-opacity:1" />
          <path
             id="path3852"
             d="M25.6659347923 17.0532097844C25.3428574796 17.3762870971 24.8230431356 17.7574151111 24.10649 18.196595L-117.314866237 159.617951237C-116.598313102 159.178771348 -116.078498758 158.797643334 -115.755421445 158.474566022Z"
             style="fill:#4cc1ff;fill-opacity:1" />
          <path
             id="path3854"
             d="M24.10649 18.196595C23.471461 18.389868 22.564961 18.69817 21.386987 19.121502L-120.034369237 160.542858237C-118.856395237 160.119526237 -117.949895237 159.811224237 -117.314866237 159.617951237Z"
             style="fill:#4cc1ff;fill-opacity:1" />
          <path
             id="path3856"
             d="M21.386987 19.121502C20.99124 19.351586 20.411448 19.650685 19.647609 20.0188L-121.773747237 161.440156237C-121.009908237 161.072041237 -120.430116237 160.772942237 -120.034369237 160.542858237Z"
             style="fill:#4cc1ff;fill-opacity:1" />
          <path
             id="path3858"
             d="M19.647609 20.0188C19.527956 20.04642 18.593846 20.198267 16.845279 20.474351L-124.576077237 161.895707237C-122.827510237 161.619623237 -121.893400237 161.467776237 -121.773747237 161.440156237Z"
             style="fill:#4cc1ff;fill-opacity:1" />
          <path
             id="path3860"
             d="M16.845279 20.474351C15.7666297242 20.644667899 15.1038485827 20.8532839982 14.8569337416 21.1001988394L-126.564422496 162.521555077C-126.317507655 162.274640236 -125.654726513 162.066024136 -124.576077237 161.895707237Z"
             style="fill:#4cc1ff;fill-opacity:1" />
          <path
             id="path3862"
             d="M14.8569337416 21.1001988394C14.7836305043 21.1735020767 14.7469799398 21.2501808009 14.746982 21.330235L-126.674374237 162.751591237C-126.674376298 162.671537038 -126.637725733 162.594858314 -126.564422496 162.521555077Z"
             style="fill:#4cc1ff;fill-opacity:1" />
          <path
             id="path3864"
             d="M14.746982 21.330235C14.746973 21.652348 15.349772 22.241343 16.555383 23.097222L-124.865973237 164.518578237C-126.071584237 163.662699237 -126.674383237 163.073704237 -126.674374237 162.751591237Z"
             style="fill:#4cc1ff;fill-opacity:1" />
          <path
             id="path3866"
             d="M16.555383 23.097222C17.540098 23.796658 18.21192 24.2246 18.570852 24.381048L-122.850504237 165.802404237C-123.209436237 165.645956237 -123.881258237 165.218014237 -124.865973237 164.518578237Z"
             style="fill:#4cc1ff;fill-opacity:1" />
          <path
             id="path3868"
             d="M18.570852 24.381048C19.555565 24.813595 21.193707 25.55444 23.485284 26.603586L-117.936072237 168.024942237C-120.227649237 166.975796237 -121.865791237 166.234951237 -122.850504237 165.802404237Z"
             style="fill:#4cc1ff;fill-opacity:1" />
          <path
             id="path3870"
             d="M23.485284 26.603586L25.859672 27.390448L-115.561684237 168.811804237L-117.936072237 168.024942237Z"
             style="fill:#4cc1ff;fill-opacity:1" />
          <path
             id="path3872"
             d="M25.859672 27.390448C26.918002 27.869006 27.460982 28.439595 27.488613 29.102216L-113.932743237 170.523572237C-113.960374237 169.860951237 -114.503354237 169.290362237 -115.561684237 168.811804237Z"
             style="fill:#4cc1ff;fill-opacity:1" />
          <path
             id="path3874"
             d="M27.488613 29.102216C27.4398879483 29.1915328604 27.3840008567 29.267715869 27.3209516744 29.3307650513L-114.100404563 170.752121289C-114.037355381 170.689072106 -113.981468289 170.612889098 -113.932743237 170.523572237Z"
             style="fill:#4cc1ff;fill-opacity:1" />
          <path
             id="path3876"
             d="M27.3209516744 29.3307650513C27.1696183365 29.4820983892 26.9770230129 29.5577655882 26.743165 29.557767L-114.678191237 170.979123237C-114.444333224 170.979121826 -114.251737901 170.903454627 -114.100404563 170.752121289Z"
             style="fill:#4cc1ff;fill-opacity:1" />
          <path
             id="path3878"
             d="M26.743165 29.557767C26.733965 29.557765 26.54988 29.520957 26.190982 29.447331L-115.230374237 170.868687237C-114.871476237 170.942313237 -114.687391237 170.979121237 -114.678191237 170.979123237Z"
             style="fill:#4cc1ff;fill-opacity:1" />
          <path
             id="path3880"
             d="M26.190982 29.447331C25.832043 29.382911 25.615771 29.350701 25.542167 29.350701L-115.879189237 170.772057237C-115.805585237 170.772057237 -115.589313237 170.804267237 -115.230374237 170.868687237Z"
             style="fill:#4cc1ff;fill-opacity:1" />
          <path
             id="path3882"
             d="M25.542167 29.350701C24.272126 29.3507 23.103339 29.106819 22.035802 28.619058L-119.385554237 170.040414237C-118.318017237 170.528175237 -117.149230237 170.772056237 -115.879189237 170.772057237Z"
             style="fill:#4cc1ff;fill-opacity:1" />
          <path
             id="path3884"
             d="M22.035802 28.619058C21.971362 28.609858 20.926819 28.131296 18.902162 27.183382L-122.519194237 168.604738237C-120.494537237 169.552652237 -119.449994237 170.031214237 -119.385554237 170.040414237Z"
             style="fill:#4cc1ff;fill-opacity:1" />
          <path
             id="path3886"
             d="M18.902162 27.183382C18.488011 26.925697 17.866806 26.525364 17.038543 25.982383L-124.382813237 167.403739237C-123.554550237 167.946720237 -122.933345237 168.347053237 -122.519194237 168.604738237Z"
             style="fill:#4cc1ff;fill-opacity:1" />
          <path
             id="path3888"
             d="M17.038543 25.982383C16.357506 25.540638 15.865143 25.1219 15.561453 24.726166L-125.859903237 166.147522237C-125.556213237 166.543256237 -125.063850237 166.961994237 -124.382813237 167.403739237Z"
             style="fill:#4cc1ff;fill-opacity:1" />
          <path
             id="path3890"
             d="M15.561453 24.726166C15.441803 24.716966 15.276148 24.684756 15.064488 24.629536L-126.356868237 166.050892237C-126.145208237 166.106112237 -125.979553237 166.138322237 -125.859903237 166.147522237Z"
             style="fill:#4cc1ff;fill-opacity:1" />
          <path
             id="path3892"
             d="M15.064488 24.629536C14.760777 24.160183 13.914097 23.502165 12.524444 22.65548L-128.896912237 164.076836237C-127.507259237 164.923521237 -126.660579237 165.581539237 -126.356868237 166.050892237Z"
             style="fill:#4cc1ff;fill-opacity:1" />
          <path
             id="path3894"
             d="M12.524444 22.65548C11.35565 21.928444 10.771257 21.353254 10.771262 20.929907L-130.650094237 162.351263237C-130.650099237 162.774610237 -130.065706237 163.349800237 -128.896912237 164.076836237Z"
             style="fill:#4cc1ff;fill-opacity:1" />
          <path
             id="path3896"
             d="M10.771262 20.929907C10.826472 20.791868 11.001333 20.354723 11.295836 19.618472L-130.125520237 161.039828237C-130.420023237 161.776079237 -130.594884237 162.213224237 -130.650094237 162.351263237Z"
             style="fill:#4cc1ff;fill-opacity:1" />
          <path
             id="path3898"
             d="M11.295836 19.618472C13.127237 19.222749 15.455607 18.679769 18.280956 17.989531L-123.140400237 159.410887237C-125.965749237 160.101125237 -128.294119237 160.644105237 -130.125520237 161.039828237Z"
             style="fill:#4cc1ff;fill-opacity:1" />
          <path
             id="path3900"
             d="M18.280956 17.989531C18.566237 17.934321 19.265669 17.773269 20.379252 17.506371L-121.042104237 158.927727237C-122.155687237 159.194625237 -122.855119237 159.355677237 -123.140400237 159.410887237Z"
             style="fill:#4cc1ff;fill-opacity:1" />
          <path
             id="path3902"
             d="M20.379252 17.506371C21.097075 17.331523 22.348689 16.641294 24.134099 15.435683L-117.287257237 156.857039237C-119.072667237 158.062650237 -120.324281237 158.752879237 -121.042104237 158.927727237Z"
             style="fill:#4cc1ff;fill-opacity:1" />
          <path
             id="path3904"
             d="M24.134099 15.435683C25.0668949974 14.8023026877 25.8051525139 14.21375305 26.3488718398 13.6700337241L-115.072484398 155.091389961C-115.616203723 155.635109287 -116.35446124 156.223658925 -117.287257237 156.857039237Z"
             style="fill:#4cc1ff;fill-opacity:1" />
          <path
             id="path3906"
             d="M26.3488718398 13.6700337241C27.1086867204 12.9102188434 27.4886001765 12.2379502655 27.488613 11.653227L-113.932743237 153.074583237C-113.932756061 153.659306503 -114.312669517 154.331575081 -115.072484398 155.091389961Z"
             style="fill:#4cc1ff;fill-opacity:1" />
          <path
             id="path3908"
             d="M27.488613 11.653227C27.488591 10.760547 27.097462 9.9460777 26.315223 9.2098157L-115.106133237 150.631171937C-114.323894237 151.367433937 -113.932765237 152.181903237 -113.932743237 153.074583237Z"
             style="fill:#4cc1ff;fill-opacity:1" />
          <path
             id="path3910"
             d="M26.315223 9.2098157C25.532944 8.4643822 24.575827 8.0042298 23.44387 7.8293523L-117.977486237 149.250708537C-116.845529237 149.425586037 -115.888412237 149.885738437 -115.106133237 150.631171937Z"
             style="fill:#4cc1ff;fill-opacity:1" />
          <path
             id="path3912"
             d="M23.44387 7.8293523C22.919278 7.6177019 22.601773 7.5118668 22.491354 7.5118468L-118.930002237 148.933203037C-118.819583237 148.933223037 -118.502078237 149.039058137 -117.977486237 149.250708537Z"
             style="fill:#4cc1ff;fill-opacity:1" />
          <path
             id="path3914"
             d="M22.491354 7.5118468C22.307276 7.5118668 21.966763 7.5072668 21.469814 7.4980428L-119.951542237 148.919399037C-119.454593237 148.928623037 -119.114080237 148.933223037 -118.930002237 148.933203037Z"
             style="fill:#4cc1ff;fill-opacity:1" />
          <path
             id="path3916"
             d="M21.469814 7.4980428C20.862397 7.4888628 20.370034 7.4842578 19.992724 7.4842378L-121.428632237 148.905594037C-121.051322237 148.905614037 -120.558959237 148.910219037 -119.951542237 148.919399037Z"
             style="fill:#4cc1ff;fill-opacity:1" />
          <path
             id="path3918"
             d="M19.992724 7.4842378L18.308565 7.4704328L-123.112791237 148.891789037L-121.428632237 148.905594037Z"
             style="fill:#4cc1ff;fill-opacity:1" />
          <path
             id="path3920"
             d="M18.308565 7.4704328C18.2024446573 7.47044927115 18.1400271716 7.47981537967 18.1213119843 7.49853056697L-123.300044253 148.919886804C-123.281329066 148.901171617 -123.21891158 148.891805508 -123.112791237 148.891789037Z"
             style="fill:#4cc1ff;fill-opacity:1" />
          <path
             id="path3922"
             d="M18.1213119843 7.49853056697C18.1173023659 7.50254018543 18.1152987062 7.50697893161 18.115301 7.5118468L-123.306055237 148.933203037C-123.306057531 148.928335169 -123.304053871 148.923896423 -123.300044253 148.919886804Z"
             style="fill:#4cc1ff;fill-opacity:1" />
          <path
             id="path3924"
             d="M18.115301 7.5118468C18.1152880001 7.60389709981 18.10148121 7.66371618996 18.0738916296 7.69130577042L-123.347464608 149.112662008C-123.319875027 149.085072427 -123.306068237 149.025253337 -123.306055237 148.933203037Z"
             style="fill:#4cc1ff;fill-opacity:1" />
          <path
             id="path3926"
             d="M18.0738916296 7.69130577042C18.0738914197 7.69130598028 18.0738912099 7.69130619014 18.073891 7.6913064L-123.347465237 149.112662637C-123.347465027 149.112662427 -123.347464818 149.112662218 -123.347464608 149.112662008Z"
             style="fill:#4cc1ff;fill-opacity:1" />
          <path
             id="path3928"
             d="M18.073891 7.6913064C17.816193 7.6821264 17.581515 7.6775214 17.369857 7.6775024L-124.051499237 149.098858637C-123.839841237 149.098877637 -123.605163237 149.103482637 -123.347465237 149.112662637Z"
             style="fill:#4cc1ff;fill-opacity:1" />
          <path
             id="path3930"
             d="M17.369857 7.6775024C16.734835 7.6775222 16.316096 7.7051314 16.11364 7.7603294L-125.307716237 149.181685637C-125.105260237 149.126487637 -124.686521237 149.098878437 -124.051499237 149.098858637Z"
             style="fill:#4cc1ff;fill-opacity:1" />
          <path
             id="path3932"
             d="M16.11364 7.7603294C15.66268 7.8983948 14.917233 8.1836892 13.877297 8.6162136L-127.544059237 150.037569837C-126.504123237 149.605045437 -125.758676237 149.319751037 -125.307716237 149.181685637Z"
             style="fill:#4cc1ff;fill-opacity:1" />
          <path
             id="path3934"
             d="M13.877297 8.6162136C13.352715 8.7542781 12.699299 8.9383391 11.917046 9.1683969L-129.504310237 150.589753137C-128.722057237 150.359695337 -128.068641237 150.175634337 -127.544059237 150.037569837Z"
             style="fill:#4cc1ff;fill-opacity:1" />
          <path
             id="path3936"
             d="M11.917046 9.1683969C11.473830773 9.36605727259 11.1553496771 9.56176092756 10.9616024365 9.7555081681L-130.459753801 151.176864405C-130.26600656 150.983117165 -129.947525464 150.78741351 -129.504310237 150.589753137Z"
             style="fill:#4cc1ff;fill-opacity:1" />
          <path
             id="path3938"
             d="M10.9616024365 9.7555081681C10.8576435764 9.85946702819 10.7895964451 9.96286262321 10.757461 10.065695L-130.663895237 151.487051237C-130.631759792 151.384218861 -130.563712661 151.280823266 -130.459753801 151.176864405Z"
             style="fill:#4cc1ff;fill-opacity:1" />
          <path
             id="path3940"
             d="M10.757461 10.065695C10.214476 11.832697 9.8463545 13.92639 9.6530947 16.34678L-131.768261537 157.768136237C-131.575001737 155.347746237 -131.206880237 153.254053237 -130.663895237 151.487051237Z"
             style="fill:#4cc1ff;fill-opacity:1" />
          <path
             id="path3942"
             d="M9.6530947 16.34678C9.6899027 16.843756 9.7083087 17.603007 9.7083127 18.624537L-131.713043537 160.045893237C-131.713047537 159.024363237 -131.731453537 158.265112237 -131.768261537 157.768136237Z"
             style="fill:#4cc1ff;fill-opacity:1" />
          <path
             id="path3944"
             d="M9.7083127 18.624537C9.7083085 18.790201 9.7083085 18.965058 9.7083127 19.149111L-131.713043537 160.570467237C-131.713047737 160.386414237 -131.713047737 160.211557237 -131.713043537 160.045893237Z"
             style="fill:#4cc1ff;fill-opacity:1" />
          <path
             id="path3946"
             d="M9.7083127 19.149111C9.6438867 19.296368 9.5472552 19.531046 9.4184165 19.853145L-132.002939737 161.274501237C-131.874101037 160.952402237 -131.777469537 160.717724237 -131.713043537 160.570467237Z"
             style="fill:#4cc1ff;fill-opacity:1" />
          <path
             id="path3948"
             d="M9.4184165 19.853145C9.2251486 20.727442 9.1285166 21.495896 9.1285202 22.15851L-132.292836037 163.579866237C-132.292839637 162.917252237 -132.196207637 162.148798237 -132.002939737 161.274501237Z"
             style="fill:#4cc1ff;fill-opacity:1" />
          <path
             id="path3950"
             d="M9.1285202 22.15851C9.1285166 22.333373 9.1331202 22.499028 9.1423252 22.655475L-132.279031037 164.076831237C-132.288236037 163.920384237 -132.292839637 163.754729237 -132.292836037 163.579866237Z"
             style="fill:#4cc1ff;fill-opacity:1" />
          <path
             id="path3952"
             d="M9.1423252 22.655475L9.2251532 23.525164L-132.196203037 164.946520237L-132.279031037 164.076831237Z"
             style="fill:#4cc1ff;fill-opacity:1" />
          <path
             id="path3954"
             d="M9.2251532 23.525164C9.2527582 23.874884 9.2665632 24.381051 9.2665672 25.043668L-132.154789037 166.465024237C-132.154793037 165.802407237 -132.168598037 165.296240237 -132.196203037 164.946520237Z"
             style="fill:#4cc1ff;fill-opacity:1" />
          <path
             id="path3956"
             d="M9.2665672 25.043668C9.26656444279 26.0853700312 9.12363262807 26.7491514446 8.83777145026 27.0350126221L-132.583584787 168.456368859C-132.297723609 168.170507682 -132.154791795 167.506726269 -132.154789037 166.465024237Z"
             style="fill:#4cc1ff;fill-opacity:1" />
          <path
             id="path3958"
             d="M8.83777145026 27.0350126221C8.72965758362 27.1431264887 8.60109933905 27.1971832744 8.4520967 27.197183L-132.969259537 168.618539237C-132.820256898 168.618539512 -132.691698654 168.564482726 -132.583584787 168.456368859Z"
             style="fill:#4cc1ff;fill-opacity:1" />
          <path
             id="path3960"
             d="M8.4520967 27.197183C8.4520938 27.197184 8.2542283 27.128163 7.8584996 26.990115L-133.562856637 168.411471237C-133.167127937 168.549519237 -132.969262437 168.618540237 -132.969259537 168.618539237Z"
             style="fill:#4cc1ff;fill-opacity:1" />
          <path
             id="path3962"
             d="M7.8584996 26.990115C7.4719645 26.842866 7.2464898 26.769242 7.1820702 26.769241L-134.239286037 168.190597237C-134.174866437 168.190598237 -133.949391737 168.264222237 -133.562856637 168.411471237Z"
             style="fill:#4cc1ff;fill-opacity:1" />
          <path
             id="path3964"
             d="M7.1820702 26.769241C6.9888045 25.747704 6.8921725 24.04514 6.8921739 21.661545L-134.529182337 163.082901237C-134.529183737 165.466496237 -134.432551737 167.169060237 -134.239286037 168.190597237Z"
             style="fill:#4cc1ff;fill-opacity:1" />
          <path
             id="path3966"
             d="M6.8921739 21.661545C6.8921725 21.569525 6.9703979 20.814871 7.1268519 19.397594L-134.294504337 160.818950237C-134.450958337 162.236227237 -134.529183737 162.990881237 -134.529182337 163.082901237Z"
             style="fill:#4cc1ff;fill-opacity:1" />
          <path
             id="path3968"
             d="M7.1268519 19.397594C7.3293173 17.464962 7.5179797 15.923451 7.6928398 14.773058L-133.728516437 156.194414237C-133.903376537 157.344807237 -134.092038937 158.886318237 -134.294504337 160.818950237Z"
             style="fill:#4cc1ff;fill-opacity:1" />
          <path
             id="path3970"
             d="M7.6928398 14.773058C7.8861016 14.147263 8.0839671 13.401817 8.2864369 12.536715L-133.134919337 153.958071237C-133.337389137 154.823173237 -133.535254637 155.568619237 -133.728516437 156.194414237Z"
             style="fill:#4cc1ff;fill-opacity:1" />
          <path
             id="path3972"
             d="M8.2864369 12.536715L8.2864369 11.874095L-133.134919337 153.295451237L-133.134919337 153.958071237Z"
             style="fill:#4cc1ff;fill-opacity:1" />
          <path
             id="path3974"
             d="M8.2864369 11.874095C8.1483884 11.736065 8.0609595 11.662441 8.0241498 11.653222L-133.397206437 153.074578237C-133.360396737 153.083797237 -133.272967837 153.157421237 -133.134919337 153.295451237Z"
             style="fill:#4cc1ff;fill-opacity:1" />
          <path
             id="path3976"
             d="M8.0241498 11.653222C8.02414979977 11.6532220015 8.02414979834 11.6532220035 8.02414979572 11.6532220061L-133.397206442 153.074578243C-133.397206439 153.074578241 -133.397206438 153.074578239 -133.397206437 153.074578237Z"
             style="fill:#4cc1ff;fill-opacity:1" />
          <path
             id="path3978"
             d="M8.02414979572 11.6532220061C8.02412114693 11.6532506549 7.88147394832 11.7222746526 7.5962077 11.860291L-133.825148537 153.281647237C-133.539882289 153.14363089 -133.39723509 153.074606892 -133.397206442 153.074578243Z"
             style="fill:#4cc1ff;fill-opacity:1" />
          <path
             id="path3980"
             d="M7.5962077 11.860291C7.3201142 11.989149 7.1498579 12.05357 7.0854381 12.053555L-134.335918137 153.474911237C-134.271498337 153.474926237 -134.101242037 153.410505237 -133.825148537 153.281647237Z"
             style="fill:#4cc1ff;fill-opacity:1" />
          <path
             id="path3982"
             d="M7.0854381 12.053555C6.9105786 12.05357 6.7495253 11.887916 6.6022777 11.55659L-134.819078537 152.977946237C-134.671830937 153.309272237 -134.510777637 153.474926237 -134.335918137 153.474911237Z"
             style="fill:#4cc1ff;fill-opacity:1" />
          <path
             id="path3984"
             d="M6.6022777 11.55659C6.5010431 11.344936 6.4504263 11.165476 6.4504273 11.018211L-134.970928937 152.439567237C-134.970929937 152.586832237 -134.920313137 152.766292237 -134.819078537 152.977946237Z"
             style="fill:#4cc1ff;fill-opacity:1" />
          <path
             id="path3986"
             d="M6.4504273 11.018211C6.4504263 10.033502 6.7219162 9.2328365 7.2648977 8.6162136L-134.156458537 150.037569837C-134.699440037 150.654192737 -134.970929937 151.454858237 -134.970928937 152.439567237Z"
             style="fill:#4cc1ff;fill-opacity:1" />
          <path
             id="path3988"
             d="M7.2648977 8.6162136C7.30338865268 8.57303035516 7.34662015543 8.52745270602 7.394592211 8.47948065045L-134.026764026 149.900836888C-134.074736082 149.948808943 -134.117967585 149.994386592 -134.156458537 150.037569837Z"
             style="fill:#4cc1ff;fill-opacity:1" />
          <path
             id="path3990"
             d="M7.394592211 8.47948065045C7.81688571798 8.05718714347 8.60653015341 7.4493483094 9.7635274 6.6559627L-131.657828837 148.077318937C-132.814826084 148.870704547 -133.604470519 149.478543381 -134.026764026 149.900836888Z"
             style="fill:#4cc1ff;fill-opacity:1" />
          <path
             id="path3992"
             d="M9.7635274 6.6559627C9.9015688 6.563953 11.097965 6.2970647 13.352719 5.8552968L-128.068637237 147.276653037C-130.323391237 147.718420937 -131.519787437 147.985309237 -131.657828837 148.077318937Z"
             style="fill:#4cc1ff;fill-opacity:1" />
          <path
             id="path3994"
             d="M13.352719 5.8552968C15.662676 5.4227752 17.236397 5.2065036 18.073887 5.2064814L-123.347469237 146.627837637C-124.184959237 146.627859837 -125.758680237 146.844131437 -128.068637237 147.276653037Z"
             style="fill:#4cc1ff;fill-opacity:1" />
          <path
             id="path3996"
             d="M18.073887 5.2064814C19.914484 5.2065036 21.672265 5.2893314 23.347238 5.4549639L-118.074118237 146.876320137C-119.749091237 146.710687637 -121.506872237 146.627859837 -123.347469237 146.627837637Z"
             style="fill:#4cc1ff;fill-opacity:1" />
          <path
             id="path3998"
             d="M23.347238 5.4549639C23.46686 5.5562194 23.669327 5.6482499 23.95464 5.7310555L-117.466716237 147.152411737C-117.752029237 147.069606137 -117.954496237 146.977575637 -118.074118237 146.876320137Z"
             style="fill:#4cc1ff;fill-opacity:1" />
          <path
             id="path4000"
             d="M23.95464 5.7310555C24.828911 5.7402755 25.859652 6.2234403 27.046866 7.1805368L-114.374490237 148.601893037C-115.561704237 147.644796537 -116.592445237 147.161631737 -117.466716237 147.152411737Z"
             style="fill:#4cc1ff;fill-opacity:1" />
          <path
             id="path4002"
             d="M27.046866 7.1805368C28.234038 8.137674 28.924266 9.034971 29.117554 9.8724307L-112.303802237 151.293786937C-112.497090237 150.456327237 -113.187318237 149.559030237 -114.374490237 148.601893037Z"
             style="fill:#4cc1ff;fill-opacity:1" />
          <path
             id="path4004"
             d="M29.117554 9.8724307C29.11753 9.8908547 29.181954 10.033502 29.310818 10.300373L-112.110538237 151.721729237C-112.239402237 151.454858237 -112.303826237 151.312210937 -112.303802237 151.293786937Z"
             style="fill:#4cc1ff;fill-opacity:1" />
          <path
             id="path4006"
             d="M29.310818 10.300373C29.439637 10.567278 29.504058 10.714527 29.504082 10.742119L-111.917274237 152.163475237C-111.917298237 152.135883237 -111.981719237 151.988634237 -112.110538237 151.721729237Z"
             style="fill:#4cc1ff;fill-opacity:1" />
          <path
             id="path4008"
             d="M29.504082 10.742119C29.504058 10.778949 29.536272 10.986017 29.600712 11.363326L-111.820644237 152.784682237C-111.885084237 152.407373237 -111.917298237 152.200305237 -111.917274237 152.163475237Z"
             style="fill:#4cc1ff;fill-opacity:1" />
          <path
             id="path4010"
             d="M29.600712 11.363326C29.655902 11.759073 29.683512 11.975344 29.683542 12.012141L-111.737814237 153.433497237C-111.737844237 153.396700237 -111.765454237 153.180429237 -111.820644237 152.784682237Z"
             style="fill:#4cc1ff;fill-opacity:1" />
        </g>
        <path
           d="m 29.683542,12.012141 c -2.4e-5,0.782275 -0.552207,1.94646 -1.65655,3.49256 -0.220896,0.312915 -0.952538,0.768466 -2.194929,1.366654 -0.294518,0.358929 -0.869708,0.800675 -1.725573,1.32524 -0.635029,0.193273 -1.541529,0.501575 -2.719503,0.924907 -0.395747,0.230084 -0.975539,0.529183 -1.739378,0.897298 -0.119653,0.02762 -1.053763,0.179467 -2.80233,0.455551 -1.398875,0.22088 -2.098306,0.506175 -2.098297,0.855884 -9e-6,0.322113 0.60279,0.911108 1.808401,1.766987 0.984715,0.699436 1.656537,1.127378 2.015469,1.283826 0.984713,0.432547 2.622855,1.173392 4.914432,2.222538 l 2.374388,0.786862 c 1.05833,0.478558 1.60131,1.049147 1.628941,1.711768 -0.165677,0.303699 -0.414159,0.455549 -0.745448,0.455551 -0.0092,-2e-6 -0.193285,-0.03681 -0.552183,-0.110436 -0.358939,-0.06442 -0.575211,-0.09663 -0.648815,-0.09663 -1.270041,-1e-6 -2.438828,-0.243882 -3.506365,-0.731643 -0.06444,-0.0092 -1.108983,-0.487762 -3.13364,-1.435676 -0.414151,-0.257685 -1.035356,-0.658018 -1.863619,-1.200999 -0.681037,-0.441745 -1.1734,-0.860483 -1.47709,-1.256217 -0.11965,-0.0092 -0.285305,-0.04141 -0.496965,-0.09663 -0.303711,-0.469353 -1.150391,-1.127371 -2.540044,-1.974056 -1.168794,-0.727036 -1.753187,-1.302226 -1.753182,-1.725573 0.05521,-0.138039 0.230071,-0.575184 0.524574,-1.311435 1.831401,-0.395723 4.159771,-0.938703 6.98512,-1.628941 0.285281,-0.05521 0.984713,-0.216262 2.098296,-0.48316 0.717823,-0.174848 1.969437,-0.865077 3.754847,-2.070688 2.236322,-1.518491 3.354492,-2.779308 3.354514,-3.782456 -2.2e-5,-0.89268 -0.391151,-1.7071493 -1.17339,-2.4434113 C 25.532944,8.4643822 24.575827,8.0042298 23.44387,7.8293523 22.919278,7.6177019 22.601773,7.5118668 22.491354,7.5118468 c -0.184078,2e-5 -0.524591,-0.00458 -1.02154,-0.013804 -0.607417,-0.00918 -1.09978,-0.013785 -1.47709,-0.013805 l -1.684159,-0.013805 c -0.128856,2e-5 -0.193277,0.013825 -0.193264,0.041414 -1.3e-5,0.092051 -0.01382,0.1518703 -0.04141,0.1794596 -0.257698,-0.00918 -0.492376,-0.013785 -0.704034,-0.013804 -0.635022,1.98e-5 -1.053761,0.027629 -1.256217,0.082827 -0.45096,0.1380654 -1.196407,0.4233598 -2.236343,0.8558842 -0.524582,0.1380645 -1.177998,0.3221255 -1.960251,0.5521833 -0.681031,0.3037189 -1.067559,0.6028179 -1.159585,0.8972981 -0.542985,1.767002 -0.9111065,3.860695 -1.1043663,6.281085 0.036808,0.496976 0.055214,1.256227 0.055218,2.277757 -4.2e-6,0.165664 -4.2e-6,0.340521 0,0.524574 -0.064426,0.147257 -0.1610575,0.381935 -0.2898962,0.704034 -0.1932679,0.874297 -0.2898999,1.642751 -0.2898963,2.305365 -3.6e-6,0.174863 0.0046,0.340518 0.013805,0.496965 l 0.082828,0.869689 c 0.027605,0.34972 0.04141,0.855887 0.041414,1.518504 -3.8e-6,1.435678 -0.2714937,2.153516 -0.8144705,2.153515 -2.9e-6,1e-6 -0.1978684,-0.06902 -0.5935971,-0.207068 C 7.4719645,26.842866 7.2464898,26.769242 7.1820702,26.769241 6.9888045,25.747704 6.8921725,24.04514 6.8921739,21.661545 c -1.4e-6,-0.09202 0.078224,-0.846674 0.234678,-2.263951 0.2024654,-1.932632 0.3911278,-3.474143 0.5659879,-4.624536 0.1932618,-0.625795 0.3911273,-1.371241 0.5935971,-2.236343 v -0.66262 c -0.1380485,-0.13803 -0.2254774,-0.211654 -0.2622871,-0.220873 -2.5e-6,1.6e-5 -0.1426497,0.06904 -0.4279421,0.207069 C 7.3201142,11.989149 7.1498579,12.05357 7.0854381,12.053555 6.9105786,12.05357 6.7495253,11.887916 6.6022777,11.55659 6.5010431,11.344936 6.4504263,11.165476 6.4504273,11.018211 6.4504263,10.033502 6.7219162,9.2328365 7.2648977,8.6162136 7.6422209,8.1928923 8.4750966,7.539476 9.7635274,6.6559627 9.9015688,6.563953 11.097965,6.2970647 13.352719,5.8552968 c 2.309957,-0.4325216 3.883678,-0.6487932 4.721168,-0.6488154 1.840597,2.22e-5 3.598378,0.08285 5.273351,0.2484825 0.119622,0.1012555 0.322089,0.193286 0.607402,0.2760916 0.874271,0.00922 1.905012,0.4923848 3.092226,1.4494813 1.187172,0.9571372 1.8774,1.8544342 2.070688,2.6918939 -2.4e-5,0.018424 0.0644,0.1610713 0.193264,0.4279423 0.128819,0.266905 0.19324,0.414154 0.193264,0.441746 -2.4e-5,0.03683 0.03219,0.243898 0.09663,0.621207 0.05519,0.395747 0.0828,0.612018 0.08283,0.648815"
           style="font-variant:normal;font-weight:bold;font-stretch:normal;font-size:28.27178764px;font-family:Daniel;-inkscape-font-specification:'Daniel Bold';fill:#4cc1ff;fill-opacity:1"
           id="path3773"
           inkscape:connector-curvature="0" />
      </g>
    </g>
    <g
       transform="matrix(6.4563018,0,0,6.4563018,11.354094,812.13792)"
       id="text3773"
       style="font-style:normal;font-weight:normal;font-size:31.41309929px;line-height:125%;font-family:Sans;letter-spacing:0px;word-spacing:0px;fill:#ffffff;fill-opacity:1;stroke:none">
      <path
         inkscape:connector-curvature="0"
         id="path2996"
         style="font-variant:normal;font-weight:bold;font-stretch:normal;font-size:28.27178764px;font-family:Daniel;-inkscape-font-specification:'Daniel Bold';fill:#ffffff"
         d="m 29.683542,12.012141 c -2.4e-5,0.782275 -0.552207,1.94646 -1.65655,3.49256 -0.220896,0.312915 -0.952538,0.768466 -2.194929,1.366654 -0.294518,0.358929 -0.869708,0.800675 -1.725573,1.32524 -0.635029,0.193273 -1.541529,0.501575 -2.719503,0.924907 -0.395747,0.230084 -0.975539,0.529183 -1.739378,0.897298 -0.119653,0.02762 -1.053763,0.179467 -2.80233,0.455551 -1.398875,0.22088 -2.098306,0.506175 -2.098297,0.855884 -9e-6,0.322113 0.60279,0.911108 1.808401,1.766987 0.984715,0.699436 1.656537,1.127378 2.015469,1.283826 0.984713,0.432547 2.622855,1.173392 4.914432,2.222538 l 2.374388,0.786862 c 1.05833,0.478558 1.60131,1.049147 1.628941,1.711768 -0.165677,0.303699 -0.414159,0.455549 -0.745448,0.455551 -0.0092,-2e-6 -0.193285,-0.03681 -0.552183,-0.110436 -0.358939,-0.06442 -0.575211,-0.09663 -0.648815,-0.09663 -1.270041,-1e-6 -2.438828,-0.243882 -3.506365,-0.731643 -0.06444,-0.0092 -1.108983,-0.487762 -3.13364,-1.435676 -0.414151,-0.257685 -1.035356,-0.658018 -1.863619,-1.200999 -0.681037,-0.441745 -1.1734,-0.860483 -1.47709,-1.256217 -0.11965,-0.0092 -0.285305,-0.04141 -0.496965,-0.09663 -0.303711,-0.469353 -1.150391,-1.127371 -2.540044,-1.974056 -1.168794,-0.727036 -1.753187,-1.302226 -1.753182,-1.725573 0.05521,-0.138039 0.230071,-0.575184 0.524574,-1.311435 1.831401,-0.395723 4.159771,-0.938703 6.98512,-1.628941 0.285281,-0.05521 0.984713,-0.216262 2.098296,-0.48316 0.717823,-0.174848 1.969437,-0.865077 3.754847,-2.070688 2.236322,-1.518491 3.354492,-2.779308 3.354514,-3.782456 -2.2e-5,-0.89268 -0.391151,-1.7071493 -1.17339,-2.4434113 C 25.532944,8.4643822 24.575827,8.0042298 23.44387,7.8293523 22.919278,7.6177019 22.601773,7.5118668 22.491354,7.5118468 c -0.184078,2e-5 -0.524591,-0.00458 -1.02154,-0.013804 -0.607417,-0.00918 -1.09978,-0.013785 -1.47709,-0.013805 l -1.684159,-0.013805 c -0.128856,2e-5 -0.193277,0.013825 -0.193264,0.041414 -1.3e-5,0.092051 -0.01382,0.1518703 -0.04141,0.1794596 -0.257698,-0.00918 -0.492376,-0.013785 -0.704034,-0.013804 -0.635022,1.98e-5 -1.053761,0.027629 -1.256217,0.082827 -0.45096,0.1380654 -1.196407,0.4233598 -2.236343,0.8558842 -0.524582,0.1380645 -1.177998,0.3221255 -1.960251,0.5521833 -0.681031,0.3037189 -1.067559,0.6028179 -1.159585,0.8972981 -0.542985,1.767002 -0.9111065,3.860695 -1.1043663,6.281085 0.036808,0.496976 0.055214,1.256227 0.055218,2.277757 -4.2e-6,0.165664 -4.2e-6,0.340521 0,0.524574 -0.064426,0.147257 -0.1610575,0.381935 -0.2898962,0.704034 -0.1932679,0.874297 -0.2898999,1.642751 -0.2898963,2.305365 -3.6e-6,0.174863 0.0046,0.340518 0.013805,0.496965 l 0.082828,0.869689 c 0.027605,0.34972 0.04141,0.855887 0.041414,1.518504 -3.8e-6,1.435678 -0.2714937,2.153516 -0.8144705,2.153515 -2.9e-6,1e-6 -0.1978684,-0.06902 -0.5935971,-0.207068 C 7.4719645,26.842866 7.2464898,26.769242 7.1820702,26.769241 6.9888045,25.747704 6.8921725,24.04514 6.8921739,21.661545 c -1.4e-6,-0.09202 0.078224,-0.846674 0.234678,-2.263951 0.2024654,-1.932632 0.3911278,-3.474143 0.5659879,-4.624536 0.1932618,-0.625795 0.3911273,-1.371241 0.5935971,-2.236343 v -0.66262 c -0.1380485,-0.13803 -0.2254774,-0.211654 -0.2622871,-0.220873 -2.5e-6,1.6e-5 -0.1426497,0.06904 -0.4279421,0.207069 C 7.3201142,11.989149 7.1498579,12.05357 7.0854381,12.053555 6.9105786,12.05357 6.7495253,11.887916 6.6022777,11.55659 6.5010431,11.344936 6.4504263,11.165476 6.4504273,11.018211 6.4504263,10.033502 6.7219162,9.2328365 7.2648977,8.6162136 7.6422209,8.1928923 8.4750966,7.539476 9.7635274,6.6559627 9.9015688,6.563953 11.097965,6.2970647 13.352719,5.8552968 c 2.309957,-0.4325216 3.883678,-0.6487932 4.721168,-0.6488154 1.840597,2.22e-5 3.598378,0.08285 5.273351,0.2484825 0.119622,0.1012555 0.322089,0.193286 0.607402,0.2760916 0.874271,0.00922 1.905012,0.4923848 3.092226,1.4494813 1.187172,0.9571372 1.8774,1.8544342 2.070688,2.6918939 -2.4e-5,0.018424 0.0644,0.1610713 0.193264,0.4279423 0.128819,0.266905 0.19324,0.414154 0.193264,0.441746 -2.4e-5,0.03683 0.03219,0.243898 0.09663,0.621207 0.05519,0.395747 0.0828,0.612018 0.08283,0.648815" />
    </g>
  </g>
</svg>
