<?xml version="1.0" encoding="UTF-8" standalone="no"?>
<!-- Created with Inkscape (http://www.inkscape.org/) -->

<svg
   xmlns:dc="http://purl.org/dc/elements/1.1/"
   xmlns:cc="http://creativecommons.org/ns#"
   xmlns:rdf="http://www.w3.org/1999/02/22-rdf-syntax-ns#"
   xmlns:svg="http://www.w3.org/2000/svg"
   xmlns="http://www.w3.org/2000/svg"
   xmlns:sodipodi="http://sodipodi.sourceforge.net/DTD/sodipodi-0.dtd"
   xmlns:inkscape="http://www.inkscape.org/namespaces/inkscape"
   sodipodi:docname="scummvm.svg"
   inkscape:version="0.92+devel unknown"
   version="1.1"
   id="svg2"
   viewBox="0 0 256 256"
   height="256"
   width="256">
  <sodipodi:namedview
     inkscape:window-maximized="1"
     inkscape:window-y="0"
     inkscape:window-x="0"
     inkscape:window-height="1054"
     inkscape:window-width="1920"
     units="px"
     showgrid="true"
     inkscape:current-layer="layer1"
     inkscape:document-units="px"
     inkscape:cy="128"
     inkscape:cx="119.00702"
     inkscape:zoom="3.3359375"
     inkscape:pageshadow="2"
     inkscape:pageopacity="0.0"
     borderopacity="1.0"
     bordercolor="#666666"
     pagecolor="#ffffff"
     id="base"
     inkscape:document-rotation="0">
    <inkscape:grid
       type="xygrid"
       id="grid4168"
       spacingx="5"
       spacingy="5" />
  </sodipodi:namedview>
  <defs
     id="defs4">
    <clipPath
       clipPathUnits="userSpaceOnUse"
       id="clipPath5002">
      <g
         id="g5004">
        <path
           transform="translate(0,796.36216)"
           inkscape:connector-curvature="0"
           id="path5006"
           d="M 88.118406,249.43519 C 46.103287,235.29134 14.771284,201.68742 4.1335861,159.36053 1.3377997,148.23623 0.92261224,144.16281 0.92582381,127.88908 0.92787958,117.47222 1.134384,112.01362 1.6577819,108.54099 4.4653598,89.913336 12.17654,70.638106 23.042737,55.086148 c 3.958678,-5.665755 8.344812,-10.93092 9.101533,-10.925587 0.32809,0.0023 10.488643,18.309713 22.579009,40.683112 12.090365,22.373397 22.374546,41.334697 22.853732,42.136217 0.479186,0.80151 0.924733,2.44098 0.990103,3.64326 0.343424,6.31639 2.524175,14.20976 5.6424,20.42304 2.954444,5.88693 5.065381,8.73258 10.434696,14.06652 6.71418,6.66995 12.88853,10.28643 21.73204,12.72904 3.16587,0.87442 5.10478,1.05037 11.57517,1.05037 8.82596,0 12.60219,-0.76201 19.26429,-3.88733 2.04584,-0.95974 3.93661,-1.66536 4.20172,-1.56805 0.2651,0.0973 -11.0555,17.66459 -25.1569,39.0384 l -25.6389,38.86148 -3.094121,0.11221 c -2.554618,0.0927 -4.195204,-0.25845 -9.409103,-2.01364 z"
           style="fill:#0f9d58;fill-opacity:1;stroke:none;stroke-width:4.85768509;stroke-linejoin:round;stroke-miterlimit:4;stroke-dasharray:none;stroke-opacity:1" />
        <path
           inkscape:connector-curvature="0"
           id="path5008"
           d="m 112.35984,1051.5167 c -10.0014,-1.4495 -12.15632,-1.8201 -12.531784,-2.1556 -0.248854,-0.2223 1.738304,-3.7475 4.550294,-8.0722 7.16635,-11.0213 49.77231,-74.64801 50.25856,-75.05489 3.57509,-2.99158 8.63523,-8.0414 10.57512,-10.55356 3.36154,-4.35318 7.55784,-12.9141 9.06523,-18.494 6.19314,-22.92535 -2.59253,-47.15185 -21.69967,-59.83688 l -2.96081,-1.96565 17.02469,0.29584 c 9.36358,0.1627 31.17032,0.43384 48.45941,0.60252 l 31.43471,0.30668 1.54584,4.18869 c 2.24597,6.08579 4.67816,15.0947 5.93451,21.9816 1.52517,8.36049 1.92536,28.85896 0.73851,37.82758 -3.0805,23.27845 -12.81326,45.72018 -27.80202,64.10577 -20.47622,25.1166 -51.4599,42.1974 -84.14612,46.3885 -5.31244,0.6812 -26.64601,0.9864 -30.44647,0.4356 z"
           style="fill:#f4b400;fill-opacity:1;stroke:none;stroke-width:4.85768509;stroke-linejoin:round;stroke-miterlimit:4;stroke-dasharray:none;stroke-opacity:1" />
        <path
           transform="translate(0,796.36216)"
           inkscape:connector-curvature="0"
           id="path5010"
           d="M 67.989788,108.87302 C 41.284246,59.575543 33.290284,45.149038 32.233625,44.344765 31.651257,43.901497 32.811213,42.549931 38.695603,36.815353 53.43581,22.450419 68.809334,13.040746 87.839196,6.7360352 101.68742,2.1480329 112.58238,0.43719165 127.95142,0.43719165 c 21.3099,0 37.80488,3.80960275 56.83492,13.12633035 25.29351,12.383198 46.19421,33.578863 58.51993,59.345832 1.61138,3.368591 2.92978,6.372442 2.92978,6.675231 0,0.560033 -10.54865,0.49527 -71.16508,-0.436914 l -24.28843,-0.373518 -3.93063,-1.764495 c -6.75732,-3.033425 -10.64587,-3.839529 -18.6576,-3.867747 -5.0296,-0.01773 -7.97946,0.207636 -10.31642,0.788106 -14.50826,3.603659 -26.283291,12.94777 -33.291614,26.418653 -3.58502,6.89086 -5.24713,13.08166 -6.331628,23.58317 l -0.33738,3.26696 -9.92748,-18.32578 z"
           style="fill:#db4437;fill-opacity:1;stroke:none;stroke-width:10;stroke-linejoin:round;stroke-miterlimit:4;stroke-dasharray:none;stroke-opacity:1" />
      </g>
    </clipPath>
    <clipPath
       id="clipPath4271"
       clipPathUnits="userSpaceOnUse">
      <circle
         r="128"
         cy="128.00002"
         cx="128"
         id="circle4273"
         style="fill:#292929;fill-opacity:0.26020412;stroke:none;stroke-width:10;stroke-linejoin:round;stroke-miterlimit:4;stroke-dasharray:none;stroke-opacity:0.25882353" />
    </clipPath>
    <clipPath
       clipPathUnits="userSpaceOnUse"
       id="clipPath4363">
      <circle
         r="128"
         cy="924.36218"
         cx="128"
         id="circle4365"
         style="fill:#4285f4;fill-opacity:1;stroke:none;stroke-width:10;stroke-linejoin:round;stroke-miterlimit:4;stroke-dasharray:none;stroke-opacity:0.25882353" />
    </clipPath>
    <clipPath
       id="clipPath4452"
       clipPathUnits="userSpaceOnUse">
      <circle
         r="128"
         cy="924.36218"
         cx="128"
         id="circle4454"
         style="fill:#4285f4;fill-opacity:1;stroke:none;stroke-width:10;stroke-linejoin:round;stroke-miterlimit:4;stroke-dasharray:none;stroke-opacity:0.25882353" />
    </clipPath>
    <clipPath
       clipPathUnits="userSpaceOnUse"
       id="clipPath5177">
      <circle
         r="128"
         cy="924.36218"
         cx="128"
         id="circle5179"
         style="fill:#4285f4;fill-opacity:1;stroke:none;stroke-width:10;stroke-linejoin:round;stroke-miterlimit:4;stroke-dasharray:none;stroke-opacity:0.25882353" />
    </clipPath>
    <clipPath
       id="clipPath4342"
       clipPathUnits="userSpaceOnUse">
      <circle
         r="128"
         cy="933.48718"
         cx="128"
         id="circle4344"
         style="fill:#4285f4;fill-opacity:1;stroke:none;stroke-width:10;stroke-linejoin:round;stroke-miterlimit:4;stroke-dasharray:none;stroke-opacity:0.25882353" />
    </clipPath>
    <clipPath
       clipPathUnits="userSpaceOnUse"
       id="clipPath4681">
      <circle
         r="128"
         cy="930.43964"
         cx="127.00293"
         id="circle4683"
         style="fill:#9d5fad;fill-opacity:1;stroke:none;stroke-width:10;stroke-linejoin:round;stroke-miterlimit:4;stroke-dasharray:none;stroke-opacity:0.25882353" />
    </clipPath>
    <clipPath
       id="clipPath4235"
       clipPathUnits="userSpaceOnUse">
      <circle
         r="128"
         cy="924.36218"
         cx="128"
         id="circle4237"
         style="fill:#0f9d58;fill-opacity:1;stroke:none;stroke-width:10;stroke-linejoin:round;stroke-miterlimit:4;stroke-dasharray:none;stroke-opacity:0.25882353" />
    </clipPath>
    <clipPath
       clipPathUnits="userSpaceOnUse"
       id="clipPath4771">
      <circle
         r="128"
         cy="924.36218"
         cx="128"
         id="circle4773"
         style="fill:#0f9d58;fill-opacity:1;stroke:none;stroke-width:10;stroke-linejoin:round;stroke-miterlimit:4;stroke-dasharray:none;stroke-opacity:0.25882353" />
    </clipPath>
    <clipPath
       id="clipPath4842"
       clipPathUnits="userSpaceOnUse">
      <circle
         r="128"
         cy="924.36218"
         cx="128"
         id="circle4844"
         style="fill:#0f9d58;fill-opacity:1;stroke:none;stroke-width:10;stroke-linejoin:round;stroke-miterlimit:4;stroke-dasharray:none;stroke-opacity:0.25882353" />
    </clipPath>
    <clipPath
       clipPathUnits="userSpaceOnUse"
       id="clipPath4458">
      <circle
         r="128"
         cy="924.36218"
         cx="128"
         id="circle4460"
         style="fill:#ff3b38;fill-opacity:1;stroke:none;stroke-width:10;stroke-linejoin:round;stroke-miterlimit:4;stroke-dasharray:none;stroke-opacity:0.25882353" />
    </clipPath>
    <clipPath
       id="clipPath4783"
       clipPathUnits="userSpaceOnUse">
      <circle
         r="128"
         cy="924.36218"
         cx="128"
         id="circle4785"
         style="fill:#ff3b38;fill-opacity:1;stroke:none;stroke-width:10;stroke-linejoin:round;stroke-miterlimit:4;stroke-dasharray:none;stroke-opacity:0.25882353" />
    </clipPath>
    <clipPath
       clipPathUnits="userSpaceOnUse"
       id="clipPath4789">
      <circle
         r="128"
         cy="924.36218"
         cx="102.64714"
         id="circle4791"
         style="fill:#80b4ff;fill-opacity:1;stroke:none;stroke-width:10;stroke-linejoin:round;stroke-miterlimit:4;stroke-dasharray:none;stroke-opacity:0.25882353" />
    </clipPath>
    <clipPath
       id="clipPath4721"
       clipPathUnits="userSpaceOnUse">
      <circle
         r="128"
         cy="924.36218"
         cx="128"
         id="circle4723"
         style="fill:#557ae6;fill-opacity:1;stroke:none;stroke-width:10;stroke-linejoin:round;stroke-miterlimit:4;stroke-dasharray:none;stroke-opacity:0.25882353" />
    </clipPath>
    <clipPath
       clipPathUnits="userSpaceOnUse"
       id="clipPath4491">
      <circle
         r="128"
         cy="924.36218"
         cx="128"
         id="circle4493"
         style="fill:#990000;fill-opacity:1;stroke:none;stroke-width:10;stroke-linejoin:round;stroke-miterlimit:4;stroke-dasharray:none;stroke-opacity:0.25882353" />
    </clipPath>
    <clipPath
       id="clipPath1102"
       clipPathUnits="userSpaceOnUse">
      <circle
         r="128"
         cy="924.36218"
         cx="128"
         id="circle1104"
         style="fill:#b40000;fill-opacity:1;stroke:none;stroke-width:10;stroke-linejoin:round;stroke-miterlimit:4;stroke-dasharray:none;stroke-opacity:0.25882353" />
    </clipPath>
    <clipPath
       clipPathUnits="userSpaceOnUse"
       id="clipPath4594">
      <circle
         r="128"
         cy="924.36218"
         cx="128"
         id="circle4596"
         style="fill:#c42626;fill-opacity:1;stroke:none;stroke-width:10;stroke-linejoin:round;stroke-miterlimit:4;stroke-dasharray:none;stroke-opacity:0.25882353" />
    </clipPath>
  </defs>
  <metadata
     id="metadata7">
    <rdf:RDF>
      <cc:Work
         rdf:about="">
        <dc:format>image/svg+xml</dc:format>
        <dc:type
           rdf:resource="http://purl.org/dc/dcmitype/StillImage" />
        <dc:title />
      </cc:Work>
    </rdf:RDF>
  </metadata>
  <g
     transform="translate(0,-796.36216)"
     id="layer1"
     inkscape:groupmode="layer"
     inkscape:label="Layer 1">
    <circle
       style="fill:#5c8822;fill-opacity:1;stroke:none;stroke-width:10;stroke-linejoin:round;stroke-miterlimit:4;stroke-dasharray:none;stroke-opacity:0.25882353"
       id="path4152"
       cx="128"
       cy="924.36218"
       r="128" />
    <text
       id="text4914"
       y="927.36218"
       x="120"
       style="font-style:normal;font-weight:normal;font-size:40px;line-height:125%;font-family:sans-serif;letter-spacing:0px;word-spacing:0px;fill:#000000;fill-opacity:1;stroke:none;stroke-width:1px;stroke-linecap:butt;stroke-linejoin:miter;stroke-opacity:1"
       xml:space="preserve"><tspan
         y="927.36218"
         x="120"
         id="tspan4916"
         sodipodi:role="line" /></text>
    <g
       style="stroke:none"
       transform="translate(-4.11162,138)"
       id="g4241">
      <g
         style="stroke:none"
         id="g4446">
        <g
           id="g4448"
           style="fill:none;fill-rule:evenodd;stroke:none;stroke-width:10;stroke-linecap:round;stroke-linejoin:miter;stroke-miterlimit:4;stroke-dasharray:none;stroke-opacity:1">
          <path
             style="stroke:none"
             id="path4450"
             d="m 129.98857,850.41168 c 0,15 0,15 0,15 L -82.143464,1077.5437 c 0,0 0,0 0,-15 z"
             inkscape:connector-curvature="0" />
        </g>
        <path
           inkscape:connector-curvature="0"
           id="path4247"
           d="m 129.98857,850.41168 c 0,15 0,15 0,15"
           style="fill:none;fill-rule:evenodd;stroke:none;stroke-width:10;stroke-linecap:round;stroke-linejoin:miter;stroke-miterlimit:4;stroke-dasharray:none;stroke-opacity:1" />
      </g>
      <g
         style="stroke:none"
         id="g4453">
        <g
           id="g4455"
           style="fill:none;fill-rule:evenodd;stroke:none;stroke-width:10;stroke-linecap:round;stroke-linejoin:miter;stroke-miterlimit:4;stroke-dasharray:none;stroke-opacity:1">
          <path
             style="stroke:none"
             id="path4457"
             d="m 111.58095,850.41168 c 0,15 0,15 0,15 l -212.13203,212.13202 c 0,0 0,0 0,-15 z"
             inkscape:connector-curvature="0" />
        </g>
        <path
           style="fill:none;fill-rule:evenodd;stroke:none;stroke-width:10;stroke-linecap:round;stroke-linejoin:miter;stroke-miterlimit:4;stroke-dasharray:none;stroke-opacity:1"
           d="m 111.58095,850.41168 c 0,15 0,15 0,15"
           id="path4245"
           inkscape:connector-curvature="0" />
      </g>
      <g
         style="stroke:none"
         id="g4460">
        <g
           id="g4462"
           style="fill:none;fill-rule:evenodd;stroke:none;stroke-width:10;stroke-linecap:round;stroke-linejoin:miter;stroke-miterlimit:4;stroke-dasharray:none;stroke-opacity:1">
          <path
             style="stroke:none"
             id="path4464"
             d="m 93.173333,850.41168 c 0,15 0,15 0,15 L -118.9587,1077.5437 c 0,0 0,0 0,-15 z"
             inkscape:connector-curvature="0" />
        </g>
        <path
           inkscape:connector-curvature="0"
           id="path4243"
           d="m 93.173333,850.41168 c 0,15 0,15 0,15"
           style="fill:none;fill-rule:evenodd;stroke:none;stroke-width:10;stroke-linecap:round;stroke-linejoin:miter;stroke-miterlimit:4;stroke-dasharray:none;stroke-opacity:1" />
      </g>
      <g
         style="stroke:none"
         id="g4467">
        <g
           id="g4469"
           style="fill:none;fill-rule:evenodd;stroke:none;stroke-width:10;stroke-linecap:round;stroke-linejoin:miter;stroke-miterlimit:4;stroke-dasharray:none;stroke-opacity:1">
          <path
             style="stroke:none"
             id="path4471"
             d="m 166.80381,850.41168 c 0,15 0,15 0,15 L -45.328224,1077.5437 c 0,0 0,0 0,-15 z"
             inkscape:connector-curvature="0" />
        </g>
        <path
           inkscape:connector-curvature="0"
           id="path4251"
           d="m 166.80381,850.41168 c 0,15 0,15 0,15"
           style="fill:none;fill-rule:evenodd;stroke:none;stroke-width:10;stroke-linecap:round;stroke-linejoin:miter;stroke-miterlimit:4;stroke-dasharray:none;stroke-opacity:1" />
      </g>
      <g
         style="stroke:none"
         id="g4474">
        <g
           id="g4476"
           style="fill:none;fill-rule:evenodd;stroke:none;stroke-width:10;stroke-linecap:round;stroke-linejoin:miter;stroke-miterlimit:4;stroke-dasharray:none;stroke-opacity:1">
          <path
             style="stroke:none"
             id="path4478"
             d="m 148.39619,850.41168 c 0,15 0,15 0,15 L -63.735844,1077.5437 c 0,0 0,0 0,-15 z"
             inkscape:connector-curvature="0" />
        </g>
        <path
           style="fill:none;fill-rule:evenodd;stroke:none;stroke-width:10;stroke-linecap:round;stroke-linejoin:miter;stroke-miterlimit:4;stroke-dasharray:none;stroke-opacity:1"
           d="m 148.39619,850.41168 c 0,15 0,15 0,15"
           id="path4249"
           inkscape:connector-curvature="0" />
      </g>
    </g>
    <text
       id="text4291"
       y="997.36218"
       x="120"
       style="font-style:normal;font-weight:normal;font-size:40px;line-height:125%;font-family:sans-serif;letter-spacing:0px;word-spacing:0px;fill:#000000;fill-opacity:1;stroke:none;stroke-width:1px;stroke-linecap:butt;stroke-linejoin:miter;stroke-opacity:1"
       xml:space="preserve"><tspan
         y="997.36218"
         x="120"
         id="tspan4293"
         sodipodi:role="line" /></text>
    <g
       id="g4374"
       clip-path="url(#clipPath4594)"
       style="fill:#4a6d1b;fill-opacity:1">
      <path
         transform="translate(0,796.36216)"
         id="path4372"
         d="m 121.25195,51.304688 c -0.95819,0.0091 -1.96796,0.02674 -3.04101,0.05273 -6.54978,0.15864 -9.28682,0.389102 -12.08789,1.013672 -19.02969,4.24311 -31.686715,15.280778 -35.880862,31.292968 -1.189739,4.54211 -1.638379,12.856749 -0.980469,18.173828 1.264074,10.21596 6.614948,19.83772 15.992187,28.75391 6.368918,6.05579 11.65433,9.7659 28.005864,19.66797 13.84595,8.38475 18.13621,12.28799 18.79492,17.09375 0.40933,2.98645 -0.43661,5.53007 -2.42383,7.27929 -2.35523,2.07315 -4.33309,2.55181 -9.45117,2.28711 -7.20092,-0.37241 -14.65018,-2.8674 -23.691409,-7.9375 -4.379414,-2.45586 -7.43795,-4.69985 -11.185547,-8.20312 -4.201012,-3.92714 -5.211664,-4.09214 -7.5,-1.23047 -6.163742,7.70804 -13.258261,16.77482 -14.101562,18.02148 -0.565269,0.83565 -1.027344,2.0044 -1.027344,2.59766 0,2.97148 11.662832,14.86838 20.253906,20.66015 3.713067,2.5032 11.443523,6.07002 16.074219,7.41602 C 108.3343,210.95684 119.7526,211.9717 130,211 c 23.28987,-2.2086 40.82258,-13.04636 47.91016,-29.61328 5.18776,-12.12615 4.65563,-28.22856 -1.33985,-40.49219 -2.85003,-5.82968 -6.12833,-10.29348 -11.0957,-15.11133 -6.97459,-6.76465 -11.45211,-9.80414 -27.17383,-18.44531 -11.00128,-6.04668 -14.30589,-8.096417 -16.87109,-10.460937 -4.23947,-3.90781 -4.81099,-9.044349 -1.35352,-12.167969 1.87685,-1.69562 3.28967,-1.991443 8.20313,-1.720703 8.22866,0.45343 20.682,6.122758 31.13281,14.173828 1.7517,1.34947 3.57106,2.6606 4.04101,2.912111 1.44296,0.77225 2.93631,-0.168957 4.57227,-2.878908 0.79478,-1.31655 3.69555,-5.788216 6.44531,-9.935546 6.39713,-9.64847 6.35541,-9.281603 1.58203,-13.757813 -11.17556,-10.4798 -25.48148,-18.170895 -38.78711,-20.853515 -5.15632,-1.039597 -9.30632,-1.407495 -16.01367,-1.34375 z"
         style="fill:#4a6d1b;fill-opacity:1;stroke:none;stroke-width:10;stroke-linejoin:round;stroke-miterlimit:4;stroke-dasharray:none;stroke-opacity:0.25882353" />
      <g
         id="g4494"
         transform="translate(0,796.36216)"
         style="fill:#4a6d1b;fill-opacity:1">
        <g
           id="g4491"
           style="fill:#4a6d1b;fill-opacity:1;stroke:none;stroke-width:10;stroke-linejoin:round;stroke-miterlimit:4;stroke-dasharray:none;stroke-opacity:0.25882353">
          <path
             id="path4446"
             d="M122.04883 36.712891C100.14072 36.664481 82.86077 42.709849 70.283203 54.824219L-71.1381532373 196.245575237C-58.5605862373 184.131205237 -41.2806362373 178.085837237 -19.3725262373 178.134247237Z"
             style="fill:#4a6d1b;fill-opacity:1" />
          <path
             id="path4448"
             d="M70.283203 54.824219C70.0853154321 55.0148179629 69.8817054588 55.2148926483 69.6740347746 55.4225633325L-71.7473214627 196.84391957C-71.5396507785 196.636248886 -71.3360408052 196.4361742 -71.1381532373 196.245575237Z"
             style="fill:#4a6d1b;fill-opacity:1" />
          <path
             id="path4451"
             d="M69.6740347746 55.4225633325C67.5858641335 57.5107339736 65.0871268467 60.3669139037 63.867188 62.080078L-77.5541682373 203.501434237C-76.3342293906 201.788270141 -73.8354921038 198.932090211 -71.7473214627 196.84391957Z"
             style="fill:#4a6d1b;fill-opacity:1" />
          <path
             id="path4453"
             d="M63.867188 62.080078C50.250632 81.201828 50.536279 110.53239 64.515625 128.7168L-76.9057312373 270.138156237C-90.8850772373 251.953746237 -91.1707242373 222.623184237 -77.5541682373 203.501434237Z"
             style="fill:#4a6d1b;fill-opacity:1" />
          <path
             id="path4455"
             d="M64.515625 128.7168C70.054649 135.922 72.442153 139.38976 73.015625 141.05859L-68.4057312373 282.479946237C-68.9792032373 280.811116237 -71.3667072373 277.343356237 -76.9057312373 270.138156237Z"
             style="fill:#4a6d1b;fill-opacity:1" />
          <path
             id="path4458"
             d="M73.015625 141.05859C74.00277 143.93124 72.990477 145.51833 64.652344 154.1875L-76.7690122373 295.608856237C-68.4308792373 286.939686237 -67.4185862373 285.352596237 -68.4057312373 282.479946237Z"
             style="fill:#4a6d1b;fill-opacity:1" />
          <path
             id="path4460"
             d="M64.652344 154.1875C51.632508 167.72425 48.077098 173.09726 47.544922 180.03516L-93.8764342373 321.456516237C-93.3442582373 314.518616237 -89.7888482373 309.145606237 -76.7690122373 295.608856237Z"
             style="fill:#4a6d1b;fill-opacity:1" />
          <path
             id="path4462"
             d="M47.544922 180.03516C46.855515 189.02286 52.213158 197.4287 65.994141 208.98633L-75.4272152373 350.407686237C-89.2081982373 338.850056237 -94.5658412373 330.444216237 -93.8764342373 321.456516237Z"
             style="fill:#4a6d1b;fill-opacity:1" />
          <path
             id="path4465"
             d="M65.994141 208.98633C78.347091 219.34623 93.091576 225.31666 111.89258 227.56836L-29.5287762373 368.989716237C-48.3297802373 366.738016237 -63.0742652373 360.767586237 -75.4272152373 350.407686237Z"
             style="fill:#4a6d1b;fill-opacity:1" />
          <path
             id="path4467"
             d="M111.89258 227.56836C115.29169 227.97546 134.10912 227.46163 137.79883 226.86133L-3.62252623731 368.282686237C-7.31223623731 368.882986237 -26.1296662373 369.396816237 -29.5287762373 368.989716237Z"
             style="fill:#4a6d1b;fill-opacity:1" />
          <path
             id="path4469"
             d="M137.79883 226.86133C156.2114 223.86573 171.10638 217.07316 181.06055 207.13086L39.6391937627 348.552216237C29.6850237627 358.494516237 14.7900437627 365.287086237 -3.62252623731 368.282686237Z"
             style="fill:#4a6d1b;fill-opacity:1" />
          <path
             id="path4472"
             d="M181.06055 207.13086C181.067321319 207.124096859 181.074090997 207.117331269 181.080859034 207.110563231L39.659502797 348.531919469C39.6527347597 348.538687506 39.6459650814 348.545453096 39.6391937627 348.552216237Z"
             style="fill:#4a6d1b;fill-opacity:1" />
          <path
             id="path4474"
             d="M181.080859034 207.110563231C191.518946926 196.67247534 198.053618636 180.413749203 197.95898 165.11328L56.5376237627 306.534636237C56.6322623992 321.835105441 50.0975906884 338.093831577 39.659502797 348.531919469Z"
             style="fill:#4a6d1b;fill-opacity:1" />
          <path
             id="path4476"
             d="M197.95898 165.11328C197.87573 151.65906 193.09684 136.74831 186.06445 128.00391L44.6430937627 269.425266237C51.6754837627 278.169666237 56.4543737627 293.080416237 56.5376237627 306.534636237Z"
             style="fill:#4a6d1b;fill-opacity:1" />
          <path
             id="path4479"
             d="M186.06445 128.00391C179.15821 119.4164 177.12656 116.24524 177.12695 114.05469L35.7055937627 255.476046237C35.7052037627 257.666596237 37.7368537627 260.837756237 44.6430937627 269.425266237Z"
             style="fill:#4a6d1b;fill-opacity:1" />
          <path
             id="path4481"
             d="M177.12695 114.05469C177.12747 111.91286 179.14616 108.3452 183.38086 103.00391L41.9595037627 244.425266237C37.7248037627 249.766556237 35.7061137627 253.334216237 35.7055937627 255.476046237Z"
             style="fill:#4a6d1b;fill-opacity:1" />
          <path
             id="path4483"
             d="M183.38086 103.00391C191.94562 92.201072 195.87695 84.444403 195.87695 78.345703L54.4555937627 219.767059237C54.4555937627 225.865759237 50.5242637627 233.622428237 41.9595037627 244.425266237Z"
             style="fill:#4a6d1b;fill-opacity:1" />
          <path
             id="path4485"
             d="M195.87695 78.345703C195.87695 73.331513 192.81113 67.736287 186.98828 62.123047L45.5669237627 203.544403237C51.3897737627 209.157643237 54.4555937627 214.752869237 54.4555937627 219.767059237Z"
             style="fill:#4a6d1b;fill-opacity:1" />
          <path
             id="path4487"
             d="M186.98828 62.123047C180.12743 55.509157 169.05362 48.301745 159.79297 44.421875L18.3716137627 185.843231237C27.6322637627 189.723101237 38.7060737627 196.930513237 45.5669237627 203.544403237Z"
             style="fill:#4a6d1b;fill-opacity:1" />
          <path
             id="path4489"
             d="M159.79297 44.421875C147.32376 39.197735 135.29706 36.742191 122.04883 36.712891L-19.3725262373 178.134247237C-6.12429623731 178.163547237 5.90240376269 180.619091237 18.3716137627 185.843231237Z"
             style="fill:#4a6d1b;fill-opacity:1" />
        </g>
        <path
           id="path4370"
           transform=""
           d="M 122.04883 36.712891 C 100.14072 36.664481 82.86077 42.709849 70.283203 54.824219 C 68.095516 56.931329 65.208451 60.196538 63.867188 62.080078 C 50.250632 81.201828 50.536279 110.53239 64.515625 128.7168 C 70.054649 135.922 72.442153 139.38976 73.015625 141.05859 C 74.00277 143.93124 72.990477 145.51833 64.652344 154.1875 C 51.632508 167.72425 48.077098 173.09726 47.544922 180.03516 C 46.855515 189.02286 52.213158 197.4287 65.994141 208.98633 C 78.347091 219.34623 93.091576 225.31666 111.89258 227.56836 C 115.29169 227.97546 134.10912 227.46163 137.79883 226.86133 C 156.2114 223.86573 171.10638 217.07316 181.06055 207.13086 C 191.51047 196.69356 198.05368 180.42367 197.95898 165.11328 C 197.87573 151.65906 193.09684 136.74831 186.06445 128.00391 C 179.15821 119.4164 177.12656 116.24524 177.12695 114.05469 C 177.12747 111.91286 179.14616 108.3452 183.38086 103.00391 C 191.94562 92.201072 195.87695 84.444403 195.87695 78.345703 C 195.87695 73.331513 192.81113 67.736287 186.98828 62.123047 C 180.12743 55.509157 169.05362 48.301745 159.79297 44.421875 C 147.32376 39.197735 135.29706 36.742191 122.04883 36.712891 z "
           style="fill:#4a6d1b;fill-opacity:1;stroke:none;stroke-width:10;stroke-linejoin:round;stroke-miterlimit:4;stroke-dasharray:none;stroke-opacity:0.25882353" />
      </g>
    </g>
    <path
       inkscape:connector-curvature="0"
       id="path4348"
       d="m 122.04883,833.07505 c 13.24823,0.0293 25.27493,2.48484 37.74414,7.70899 9.26065,3.87986 20.33446,11.08728 27.19531,17.70117 5.82285,5.61324 8.88867,11.20846 8.88867,16.22265 0,6.0987 -3.93133,13.85538 -12.49609,24.65821 -4.2347,5.34129 -6.25339,8.90895 -6.25391,11.05078 -3.9e-4,2.19055 2.03126,5.36171 8.9375,13.94922 7.03239,8.7444 11.81128,23.65515 11.89453,37.10937 0.0947,15.31039 -6.44851,31.58028 -16.89843,42.01756 -9.95417,9.9423 -24.84915,16.7349 -43.26172,19.7305 -3.68971,0.6003 -22.50714,1.1141 -25.90625,0.707 -18.801002,-2.2517 -33.545489,-8.2221 -45.898439,-18.582 -13.780983,-11.55764 -19.138626,-19.96348 -18.449219,-28.95118 0.532176,-6.9379 4.087586,-12.31091 17.107422,-25.84766 8.338133,-8.66917 9.350426,-10.25626 8.363281,-13.12891 -0.573472,-1.66883 -2.960976,-5.13659 -8.5,-12.34179 -13.979346,-18.18441 -14.264993,-47.51497 -0.648437,-66.63672 1.341264,-1.88354 4.228328,-5.14875 6.416015,-7.25586 12.577567,-12.11437 29.857517,-18.15974 51.765627,-18.11133 z"
       style="fill:#000000;fill-opacity:1;stroke:none;stroke-width:10;stroke-linejoin:round;stroke-miterlimit:4;stroke-dasharray:none;stroke-opacity:0.25882353" />
    <path
       inkscape:connector-curvature="0"
       id="circle4342"
       d="m 121.25195,847.66685 c -0.95819,0.009 -1.96796,0.0267 -3.04101,0.0527 -6.54978,0.15864 -9.28682,0.3891 -12.08789,1.01367 -19.02969,4.24311 -31.686715,15.28078 -35.880862,31.29297 -1.189739,4.54211 -1.638379,12.85675 -0.980469,18.17383 1.264074,10.21596 6.614948,19.83772 15.992187,28.75391 6.368918,6.05579 11.65433,9.7659 28.005864,19.66797 13.84595,8.38475 18.13621,12.28799 18.79492,17.09375 0.40933,2.98645 -0.43661,5.53007 -2.42383,7.27929 -2.35523,2.07315 -4.33309,2.55181 -9.45117,2.28711 -7.20092,-0.37241 -14.65018,-2.8674 -23.691409,-7.9375 -4.379414,-2.45586 -7.43795,-4.69985 -11.185547,-8.20312 -4.201012,-3.92714 -5.211664,-4.09214 -7.5,-1.23047 -6.163742,7.70804 -13.258261,16.77482 -14.101562,18.02148 -0.565269,0.83565 -1.027344,2.0044 -1.027344,2.59766 0,2.97148 11.662832,14.86838 20.253906,20.66015 3.713067,2.5032 11.443523,6.07002 16.074219,7.41602 9.332347,2.7127 20.750647,3.7276 30.998047,2.7559 23.28987,-2.2086 40.82258,-13.0464 47.91016,-29.61332 5.18776,-12.12615 4.65563,-28.22856 -1.33985,-40.49219 -2.85003,-5.82968 -6.12833,-10.29348 -11.0957,-15.11133 -6.97459,-6.76465 -11.45211,-9.80414 -27.17383,-18.44531 -11.00128,-6.04668 -14.30589,-8.09642 -16.87109,-10.46094 -4.23947,-3.90781 -4.81099,-9.04435 -1.35352,-12.16797 1.87685,-1.69562 3.28967,-1.99144 8.20313,-1.7207 8.22866,0.45343 20.682,6.12276 31.13281,14.17383 1.7517,1.34947 3.57106,2.6606 4.04101,2.91211 1.44296,0.77225 2.93631,-0.16896 4.57227,-2.87891 0.79478,-1.31655 3.69555,-5.78821 6.44531,-9.93554 6.39713,-9.64847 6.35541,-9.28161 1.58203,-13.75782 -11.17556,-10.4798 -25.48148,-18.17089 -38.78711,-20.85351 -5.15632,-1.0396 -9.30632,-1.4075 -16.01367,-1.34375 z"
       style="fill:#ffffff;fill-opacity:1;stroke:none;stroke-width:10;stroke-linejoin:round;stroke-miterlimit:4;stroke-dasharray:none;stroke-opacity:0.25882353" />
  </g>
</svg>
