<?xml version="1.0" encoding="UTF-8" standalone="no"?>
<!-- Created with Inkscape (http://www.inkscape.org/) -->

<svg
   xmlns:dc="http://purl.org/dc/elements/1.1/"
   xmlns:cc="http://creativecommons.org/ns#"
   xmlns:rdf="http://www.w3.org/1999/02/22-rdf-syntax-ns#"
   xmlns:svg="http://www.w3.org/2000/svg"
   xmlns="http://www.w3.org/2000/svg"
   xmlns:sodipodi="http://sodipodi.sourceforge.net/DTD/sodipodi-0.dtd"
   xmlns:inkscape="http://www.inkscape.org/namespaces/inkscape"
   width="256"
   height="256"
   viewBox="0 0 67.733332 67.733335"
   version="1.1"
   id="svg8"
   inkscape:version="0.92.1 r"
   sodipodi:docname="shotwell-symbolic.svg">
  <defs
     id="defs2" />
  <sodipodi:namedview
     id="base"
     pagecolor="#ffffff"
     bordercolor="#666666"
     borderopacity="1.0"
     inkscape:pageopacity="0.0"
     inkscape:pageshadow="2"
     inkscape:zoom="3.3359375"
     inkscape:cx="128"
     inkscape:cy="128"
     inkscape:document-units="mm"
     inkscape:current-layer="layer1"
     showgrid="true"
     units="px"
     inkscape:window-width="1920"
     inkscape:window-height="1054"
     inkscape:window-x="0"
     inkscape:window-y="0"
     inkscape:window-maximized="1">
    <inkscape:grid
       type="xygrid"
       id="grid4485" />
  </sodipodi:namedview>
  <metadata
     id="metadata5">
    <rdf:RDF>
      <cc:Work
         rdf:about="">
        <dc:format>image/svg+xml</dc:format>
        <dc:type
           rdf:resource="http://purl.org/dc/dcmitype/StillImage" />
        <dc:title></dc:title>
      </cc:Work>
    </rdf:RDF>
  </metadata>
  <g
     inkscape:label="Layer 1"
     inkscape:groupmode="layer"
     id="layer1"
     transform="translate(0,-229.26665)">
    <path
       style="opacity:1;fill:#129053;fill-opacity:1;stroke:none;stroke-width:53.96953583;stroke-miterlimit:4;stroke-dasharray:none;stroke-opacity:1"
       d="M 128 0 A 127.99999 127.99999 0 0 0 0 128 A 127.99999 127.99999 0 0 0 128 256 A 127.99999 127.99999 0 0 0 256 128 A 127.99999 127.99999 0 0 0 128 0 z M 98.615234 54 L 156.25977 54 C 159.66388 54 161.80862 56.400906 162.4043 59.994141 L 165.22266 77 L 173.5 77 L 173.5 68 L 208.5 68 L 208.5 77 C 216.80999 77 223.5 83.690012 223.5 92 L 223.5 187 C 223.5 195.30999 216.80999 202 208.5 202 L 47.5 202 C 39.190012 202 32.5 195.30999 32.5 187 L 32.5 92 C 32.5 83.690012 39.190012 77 47.5 77 L 53.5 77 L 53.5 68 L 83.5 68 L 83.5 77 L 90.294922 77 L 92.470703 61.179688 C 92.967178 57.56918 95.211139 54 98.615234 54 z M 128.00195 89.501953 C 127.21192 89.501953 126.4279 89.523751 125.64648 89.560547 C 125.37915 89.57316 125.11391 89.594464 124.84766 89.611328 C 124.32104 89.644617 123.79566 89.68469 123.27344 89.734375 C 122.98659 89.761725 122.70147 89.793926 122.41602 89.826172 C 121.91852 89.882248 121.4228 89.944885 120.92969 90.015625 C 120.6376 90.057621 120.34516 90.101351 120.05469 90.148438 C 119.58205 90.22489 119.11276 90.310648 118.64453 90.400391 C 118.33836 90.459195 118.03077 90.513701 117.72656 90.578125 C 117.20605 90.688132 116.69034 90.813246 116.17578 90.939453 C 115.68576 91.059891 115.1992 91.187369 114.71484 91.322266 C 114.30204 91.437003 113.88901 91.550721 113.48047 91.675781 C 113.08482 91.797133 112.69423 91.929644 112.30273 92.060547 C 112.00301 92.160581 111.70348 92.259679 111.40625 92.365234 C 110.97717 92.517882 110.55066 92.677793 110.12695 92.841797 C 109.89109 92.932945 109.65602 93.026474 109.42188 93.121094 C 108.95103 93.311658 108.48327 93.506529 108.01953 93.710938 C 107.88394 93.770613 107.7502 93.833686 107.61523 93.894531 C 105.87156 94.681768 104.17536 95.560523 102.54297 96.535156 C 102.03944 96.835791 101.5448 97.149223 101.05273 97.466797 C 100.94816 97.534248 100.84233 97.599762 100.73828 97.667969 C 100.26507 97.978355 99.797992 98.297304 99.335938 98.623047 C 99.233594 98.695176 99.131081 98.766971 99.029297 98.839844 C 98.539369 99.190705 98.054841 99.548239 97.578125 99.916016 C 85.697524 109.08159 77.996094 123.43798 77.996094 139.5 C 77.996094 166.98238 100.51958 189.49609 128.00195 189.49609 C 155.48432 189.49609 178 166.98238 178 139.5 C 178 123.43798 170.30221 109.08159 158.42383 99.916016 L 158.42188 99.916016 C 157.93009 99.536549 157.42966 99.168092 156.92383 98.806641 C 156.85209 98.755395 156.781 98.70322 156.70898 98.652344 C 156.22129 98.307688 155.72671 97.972046 155.22656 97.644531 C 155.15677 97.598855 155.08566 97.555102 155.01562 97.509766 C 152.9084 96.144756 150.69255 94.935754 148.38672 93.894531 C 148.25177 93.833686 148.11799 93.770613 147.98242 93.710938 C 147.51423 93.50453 147.04184 93.307523 146.56641 93.115234 C 146.34182 93.024552 146.11678 92.935145 145.89062 92.847656 C 145.46284 92.681884 145.03288 92.521377 144.59961 92.367188 C 144.2916 92.257772 143.98061 92.154265 143.66992 92.050781 C 143.29321 91.925079 142.91767 91.796546 142.53711 91.679688 C 142.10801 91.548169 141.67404 91.428717 141.24023 91.308594 C 140.76139 91.175734 140.27929 91.05037 139.79492 90.931641 C 139.29352 90.809003 138.79222 90.687337 138.28516 90.580078 C 137.96941 90.513138 137.64989 90.457368 137.33203 90.396484 C 136.87528 90.309201 136.41798 90.223076 135.95703 90.148438 C 135.66189 90.100533 135.36517 90.058272 135.06836 90.015625 C 134.57717 89.945215 134.08344 89.882031 133.58789 89.826172 C 133.30246 89.793926 133.0173 89.761725 132.73047 89.734375 C 132.20827 89.68469 131.68285 89.644617 131.15625 89.611328 C 130.89001 89.594464 130.62475 89.57316 130.35742 89.560547 C 129.57601 89.523751 128.79199 89.501953 128.00195 89.501953 z M 128.00195 111.76562 C 143.45063 111.76562 155.73633 124.05133 155.73633 139.5 C 155.73633 154.94867 143.45063 167.23242 128.00195 167.23242 C 112.55327 167.23242 100.26758 154.94867 100.26758 139.5 C 100.26758 124.05133 112.55327 111.76562 128.00195 111.76562 z "
       transform="matrix(0.26458333,0,0,0.26458333,0,229.26665)"
       id="path4487" />
  </g>
</svg>
