<?xml version="1.0" encoding="UTF-8" standalone="no"?>
<svg
   xmlns:dc="http://purl.org/dc/elements/1.1/"
   xmlns:cc="http://creativecommons.org/ns#"
   xmlns:rdf="http://www.w3.org/1999/02/22-rdf-syntax-ns#"
   xmlns:svg="http://www.w3.org/2000/svg"
   xmlns="http://www.w3.org/2000/svg"
   xmlns:sodipodi="http://sodipodi.sourceforge.net/DTD/sodipodi-0.dtd"
   xmlns:inkscape="http://www.inkscape.org/namespaces/inkscape"
   sodipodi:docname="system-users.svg"
   inkscape:version="1.0.1 (3bc2e813f5, 2020-09-07)"
   version="1.1"
   id="svg2"
   viewBox="0 0 256 256"
   height="256"
   width="256">
  <sodipodi:namedview
     inkscape:window-maximized="1"
     inkscape:window-y="0"
     inkscape:window-x="0"
     inkscape:window-height="1048"
     inkscape:window-width="1920"
     units="px"
     showgrid="true"
     inkscape:current-layer="layer1"
     inkscape:document-units="px"
     inkscape:cy="128.00002"
     inkscape:cx="128"
     inkscape:zoom="3.34375"
     inkscape:pageshadow="2"
     inkscape:pageopacity="0.0"
     borderopacity="1.0"
     bordercolor="#666666"
     pagecolor="#ffffff"
     id="base"
     inkscape:document-rotation="0">
    <inkscape:grid
       spacingy="5"
       spacingx="5"
       id="grid4168"
       type="xygrid" />
  </sodipodi:namedview>
  <defs
     id="defs4">
    <inkscape:path-effect
       fuse_tolerance="0"
       vertical_pattern="false"
       prop_units="false"
       tang_offset="0"
       normal_offset="0"
       spacing="0"
       scale_y_rel="false"
       prop_scale="1"
       copytype="single_stretched"
       pattern="M 0,0 1,0"
       is_visible="true"
       id="path-effect4235"
       effect="skeletal" />
    <clipPath
       id="clipPath5002"
       clipPathUnits="userSpaceOnUse">
      <g
         id="g5004">
        <path
           style="fill:#0f9d58;fill-opacity:1;stroke:none;stroke-width:4.85768509;stroke-linejoin:round;stroke-miterlimit:4;stroke-dasharray:none;stroke-opacity:1"
           d="M 88.118406,249.43519 C 46.103287,235.29134 14.771284,201.68742 4.1335861,159.36053 1.3377997,148.23623 0.92261224,144.16281 0.92582381,127.88908 0.92787958,117.47222 1.134384,112.01362 1.6577819,108.54099 4.4653598,89.913336 12.17654,70.638106 23.042737,55.086148 c 3.958678,-5.665755 8.344812,-10.93092 9.101533,-10.925587 0.32809,0.0023 10.488643,18.309713 22.579009,40.683112 12.090365,22.373397 22.374546,41.334697 22.853732,42.136217 0.479186,0.80151 0.924733,2.44098 0.990103,3.64326 0.343424,6.31639 2.524175,14.20976 5.6424,20.42304 2.954444,5.88693 5.065381,8.73258 10.434696,14.06652 6.71418,6.66995 12.88853,10.28643 21.73204,12.72904 3.16587,0.87442 5.10478,1.05037 11.57517,1.05037 8.82596,0 12.60219,-0.76201 19.26429,-3.88733 2.04584,-0.95974 3.93661,-1.66536 4.20172,-1.56805 0.2651,0.0973 -11.0555,17.66459 -25.1569,39.0384 l -25.6389,38.86148 -3.094121,0.11221 c -2.554618,0.0927 -4.195204,-0.25845 -9.409103,-2.01364 z"
           id="path5006"
           inkscape:connector-curvature="0"
           transform="translate(0,796.36216)" />
        <path
           style="fill:#f4b400;fill-opacity:1;stroke:none;stroke-width:4.85768509;stroke-linejoin:round;stroke-miterlimit:4;stroke-dasharray:none;stroke-opacity:1"
           d="m 112.35984,1051.5167 c -10.0014,-1.4495 -12.15632,-1.8201 -12.531784,-2.1556 -0.248854,-0.2223 1.738304,-3.7475 4.550294,-8.0722 7.16635,-11.0213 49.77231,-74.64801 50.25856,-75.05489 3.57509,-2.99158 8.63523,-8.0414 10.57512,-10.55356 3.36154,-4.35318 7.55784,-12.9141 9.06523,-18.494 6.19314,-22.92535 -2.59253,-47.15185 -21.69967,-59.83688 l -2.96081,-1.96565 17.02469,0.29584 c 9.36358,0.1627 31.17032,0.43384 48.45941,0.60252 l 31.43471,0.30668 1.54584,4.18869 c 2.24597,6.08579 4.67816,15.0947 5.93451,21.9816 1.52517,8.36049 1.92536,28.85896 0.73851,37.82758 -3.0805,23.27845 -12.81326,45.72018 -27.80202,64.10577 -20.47622,25.1166 -51.4599,42.1974 -84.14612,46.3885 -5.31244,0.6812 -26.64601,0.9864 -30.44647,0.4356 z"
           id="path5008"
           inkscape:connector-curvature="0" />
        <path
           style="fill:#db4437;fill-opacity:1;stroke:none;stroke-width:10;stroke-linejoin:round;stroke-miterlimit:4;stroke-dasharray:none;stroke-opacity:1"
           d="M 67.989788,108.87302 C 41.284246,59.575543 33.290284,45.149038 32.233625,44.344765 31.651257,43.901497 32.811213,42.549931 38.695603,36.815353 53.43581,22.450419 68.809334,13.040746 87.839196,6.7360352 101.68742,2.1480329 112.58238,0.43719165 127.95142,0.43719165 c 21.3099,0 37.80488,3.80960275 56.83492,13.12633035 25.29351,12.383198 46.19421,33.578863 58.51993,59.345832 1.61138,3.368591 2.92978,6.372442 2.92978,6.675231 0,0.560033 -10.54865,0.49527 -71.16508,-0.436914 l -24.28843,-0.373518 -3.93063,-1.764495 c -6.75732,-3.033425 -10.64587,-3.839529 -18.6576,-3.867747 -5.0296,-0.01773 -7.97946,0.207636 -10.31642,0.788106 -14.50826,3.603659 -26.283291,12.94777 -33.291614,26.418653 -3.58502,6.89086 -5.24713,13.08166 -6.331628,23.58317 l -0.33738,3.26696 -9.92748,-18.32578 z"
           id="path5010"
           inkscape:connector-curvature="0"
           transform="translate(0,796.36216)" />
      </g>
    </clipPath>
    <clipPath
       clipPathUnits="userSpaceOnUse"
       id="clipPath4271">
      <circle
         style="fill:#292929;fill-opacity:0.26020412;stroke:none;stroke-width:10;stroke-linejoin:round;stroke-miterlimit:4;stroke-dasharray:none;stroke-opacity:0.25882353"
         id="circle4273"
         cx="128"
         cy="128.00002"
         r="128" />
    </clipPath>
    <clipPath
       id="clipPath4363"
       clipPathUnits="userSpaceOnUse">
      <circle
         style="fill:#4285f4;fill-opacity:1;stroke:none;stroke-width:10;stroke-linejoin:round;stroke-miterlimit:4;stroke-dasharray:none;stroke-opacity:0.25882353"
         id="circle4365"
         cx="128"
         cy="924.36218"
         r="128" />
    </clipPath>
    <clipPath
       clipPathUnits="userSpaceOnUse"
       id="clipPath4452">
      <circle
         style="fill:#4285f4;fill-opacity:1;stroke:none;stroke-width:10;stroke-linejoin:round;stroke-miterlimit:4;stroke-dasharray:none;stroke-opacity:0.25882353"
         id="circle4454"
         cx="128"
         cy="924.36218"
         r="128" />
    </clipPath>
    <clipPath
       id="clipPath5177"
       clipPathUnits="userSpaceOnUse">
      <circle
         style="fill:#4285f4;fill-opacity:1;stroke:none;stroke-width:10;stroke-linejoin:round;stroke-miterlimit:4;stroke-dasharray:none;stroke-opacity:0.25882353"
         id="circle5179"
         cx="128"
         cy="924.36218"
         r="128" />
    </clipPath>
    <clipPath
       clipPathUnits="userSpaceOnUse"
       id="clipPath4342">
      <circle
         style="fill:#4285f4;fill-opacity:1;stroke:none;stroke-width:10;stroke-linejoin:round;stroke-miterlimit:4;stroke-dasharray:none;stroke-opacity:0.25882353"
         id="circle4344"
         cx="128"
         cy="933.48718"
         r="128" />
    </clipPath>
    <clipPath
       id="clipPath4681"
       clipPathUnits="userSpaceOnUse">
      <circle
         style="fill:#9d5fad;fill-opacity:1;stroke:none;stroke-width:10;stroke-linejoin:round;stroke-miterlimit:4;stroke-dasharray:none;stroke-opacity:0.25882353"
         id="circle4683"
         cx="127.00293"
         cy="930.43964"
         r="128" />
    </clipPath>
    <clipPath
       clipPathUnits="userSpaceOnUse"
       id="clipPath4480">
      <circle
         style="fill:#df7618;fill-opacity:1;stroke:none;stroke-width:10;stroke-linejoin:round;stroke-miterlimit:4;stroke-dasharray:none;stroke-opacity:0.25882353"
         id="circle4482"
         cx="128"
         cy="924.36218"
         r="128" />
    </clipPath>
    <clipPath
       id="clipPath4532"
       clipPathUnits="userSpaceOnUse">
      <circle
         style="fill:#df7618;fill-opacity:1;stroke:none;stroke-width:10;stroke-linejoin:round;stroke-miterlimit:4;stroke-dasharray:none;stroke-opacity:0.25882353"
         id="circle4534"
         cx="145.46286"
         cy="927.47681"
         r="128" />
    </clipPath>
    <clipPath
       clipPathUnits="userSpaceOnUse"
       id="clipPath4430">
      <circle
         style="fill:#df7618;fill-opacity:1;stroke:none;stroke-width:10;stroke-linejoin:round;stroke-miterlimit:4;stroke-dasharray:none;stroke-opacity:0.25882353"
         id="circle4432"
         cx="128"
         cy="924.36218"
         r="117.19496" />
    </clipPath>
    <clipPath
       clipPathUnits="userSpaceOnUse"
       id="clipPath1011">
      <circle
         r="128"
         cy="909.74677"
         cx="128"
         id="circle1013"
         style="fill:#df7618;fill-opacity:1;stroke:none;stroke-width:10;stroke-linejoin:round;stroke-miterlimit:4;stroke-dasharray:none;stroke-opacity:0.258824" />
    </clipPath>
  </defs>
  <metadata
     id="metadata7">
    <rdf:RDF>
      <cc:Work
         rdf:about="">
        <dc:format>image/svg+xml</dc:format>
        <dc:type
           rdf:resource="http://purl.org/dc/dcmitype/StillImage" />
        <dc:title />
      </cc:Work>
    </rdf:RDF>
  </metadata>
  <g
     inkscape:label="Layer 1"
     inkscape:groupmode="layer"
     id="layer1"
     transform="translate(0,-796.36216)">
    <path
       style="fill:none;fill-rule:evenodd;stroke:none;stroke-width:1px;stroke-linecap:butt;stroke-linejoin:miter;stroke-opacity:1"
       d="M 154.47438,968.80998 101.03985,1048.476 0.4857685,1048.9618 0,842.0244 l 33.032258,-2.42884 45.176471,83.55218 21.373814,35.4611 26.717267,13.11575 z"
       id="path4913"
       inkscape:connector-curvature="0" />
    <circle
       r="128"
       cy="924.36218"
       cx="128"
       id="path4152"
       style="fill:#8f8f8f;fill-opacity:1;stroke:none;stroke-width:10;stroke-linejoin:round;stroke-miterlimit:4;stroke-dasharray:none;stroke-opacity:0.25882353" />
    <text
       xml:space="preserve"
       style="font-style:normal;font-weight:normal;line-height:0%;font-family:sans-serif;letter-spacing:0px;word-spacing:0px;fill:#000000;fill-opacity:1;stroke:none;stroke-width:1px;stroke-linecap:butt;stroke-linejoin:miter;stroke-opacity:1"
       x="120"
       y="927.36218"
       id="text4914"><tspan
         sodipodi:role="line"
         id="tspan4916"
         x="120"
         y="927.36218"
         style="font-size:40px;line-height:1.25"> </tspan></text>
    <g
       id="g1038">
      <g
         id="g911"
         transform="translate(1e-6,14.61538)"
         clip-path="url(#clipPath1011)"
         style="fill:#565656;fill-opacity:1">
        <g
           transform="translate(-1e-06, 781.747)"
           id="g984"
           style="fill:#565656;fill-opacity:1">
          <g
             style="fill:#565656;fill-opacity:1;stroke-width:19"
             id="g981">
            <path
               d="M 128 47.6152 C 117.508 47.6152 108.008 51.8696 101.131 58.7468 L -40.2904 200.168 C -33.4132 193.291 -23.913 189.037 -13.4214 189.037 Z"
               id="path949"
               style="fill:#565656;fill-opacity:1" />
            <path
               d="M 101.131 58.7468 C 95.7665 64.1112 91.998 71.0716 90.5996 78.8535 L -50.8217 220.275 C -49.4234 212.493 -45.6548 205.533 -40.2904 200.168 Z"
               id="path951"
               style="fill:#565656;fill-opacity:1" />
            <path
               d="M 90.5996 78.8535 C 86.8659 100.043 103.366 117.859 128 123.615 L -13.4214 265.037 C -38.0557 259.28 -54.5554 241.464 -50.8217 220.275 Z"
               id="path953"
               style="fill:#565656;fill-opacity:1" />
            <path
               d="M 128 123.615 C 138.492 123.615 147.992 119.361 154.869 112.484 L 13.4475 253.905 C 6.57044 260.782 -2.92956 265.037 -13.4214 265.037 Z"
               id="path955"
               style="fill:#565656;fill-opacity:1" />
            <path
               d="M 154.869 112.484 C 161.746 105.607 166 96.107 166 85.6152 L 24.5786 227.037 C 24.5786 237.528 20.3245 247.028 13.4475 253.905 Z"
               id="path957"
               style="fill:#565656;fill-opacity:1" />
            <path
               d="M 166 85.6152 C 166 64.6291 148.986 47.6152 128 47.6152 L -13.4214 189.037 C 7.56477 189.037 24.5786 206.05 24.5786 227.037 Z"
               id="path959"
               style="fill:#565656;fill-opacity:1" />
            <path
               d="M 128 47.6152 L 128 47.6152 L -13.4214 189.037 L -13.4214 189.037 Z"
               id="path961"
               style="fill:#565656;fill-opacity:1" />
            <path
               d="M 128 142.615 C 93.9266 142.635 75.1295 152.04 64.7597 162.409 L -76.6616 303.831 C -66.2919 293.461 -47.4948 284.056 -13.4214 284.037 Z"
               id="path963"
               style="fill:#565656;fill-opacity:1" />
            <path
               d="M 64.7597 162.409 C 52.0023 175.167 52 189.385 52 189.385 L -89.4214 330.806 C -89.4214 330.806 -89.419 316.588 -76.6616 303.831 Z"
               id="path965"
               style="fill:#565656;fill-opacity:1" />
            <path
               d="M 52 189.385 C 52 189.385 52 189.385 52 189.385 L -89.4214 330.806 C -89.4214 330.806 -89.4214 330.806 -89.4214 330.806 Z"
               id="path967"
               style="fill:#565656;fill-opacity:1" />
            <path
               d="M 52 189.385 L 52 208.385 L -89.4214 349.806 L -89.4214 330.806 Z"
               id="path969"
               style="fill:#565656;fill-opacity:1" />
            <path
               d="M 52 208.385 L 204 208.385 L 62.5786 349.806 L -89.4214 349.806 Z"
               id="path971"
               style="fill:#565656;fill-opacity:1" />
            <path
               d="M 204 208.385 L 204 189.385 L 62.5786 330.806 L 62.5786 349.806 Z"
               id="path973"
               style="fill:#565656;fill-opacity:1" />
            <path
               d="M 204 189.385 C 204 189.385 204 142.586 128.016 142.615 L -13.4057 284.037 C 62.5791 284.007 62.5786 330.806 62.5786 330.806 Z"
               id="path975"
               style="fill:#565656;fill-opacity:1" />
            <path
               d="M 128.016 142.615 L 128 142.615 L -13.4214 284.037 L -13.4057 284.037 Z"
               id="path977"
               style="fill:#565656;fill-opacity:1" />
            <path
               d="M 128 142.615 L 128 47.6152 L -13.4214 189.037 L -13.4214 284.037 Z"
               id="path979"
               style="fill:#565656;fill-opacity:1" />
          </g>
          <path
             id="path907"
             style="fill:#565656;fill-opacity:1;stroke-width:19"
             d="M 128 47.615234 C 109.32443 47.615234 93.790704 61.095186 90.599609 78.853516 C 86.865907 100.04259 103.3657 117.85891 128 123.61523 C 148.9836 123.61523 166 106.59883 166 85.615234 C 166 64.629104 148.98613 47.615234 128 47.615234 z M 128 142.61523 C 52.007598 142.65913 52 189.38477 52 189.38477 L 52 208.38477 L 204 208.38477 L 204 189.38477 C 204 189.38477 204.00043 142.586 128.01562 142.61523 L 128 142.61523 z " />
        </g>
      </g>
      <g
         id="g896"
         transform="translate(1e-6,14.61538)">
        <path
           style="fill:#ffffff;fill-opacity:1;stroke-width:19"
           d="m 128,829.36216 c 20.98613,0 38,17.01387 38,38 0,20.9836 -17.0164,38 -38,38 -20.9836,0 -37.999998,-17.0164 -37.999998,-38 0,-20.9836 17.016398,-38 37.999998,-38 z"
           id="path4" />
        <path
           style="fill:#ffffff;fill-opacity:1;stroke-width:19"
           d="m 128,924.36218 c -75.992402,0.0439 -76.000002,46.76922 -76.000002,46.76922 v 19 H 204 v -19 c 0,0 0,-46.79845 -75.9848,-46.76922 z"
           id="path6"
           sodipodi:nodetypes="sccccss" />
      </g>
    </g>
  </g>
</svg>
