<?xml version="1.0" encoding="UTF-8" standalone="no"?>
<svg
   xmlns:dc="http://purl.org/dc/elements/1.1/"
   xmlns:cc="http://creativecommons.org/ns#"
   xmlns:rdf="http://www.w3.org/1999/02/22-rdf-syntax-ns#"
   xmlns:svg="http://www.w3.org/2000/svg"
   xmlns="http://www.w3.org/2000/svg"
   xmlns:sodipodi="http://sodipodi.sourceforge.net/DTD/sodipodi-0.dtd"
   xmlns:inkscape="http://www.inkscape.org/namespaces/inkscape"
   sodipodi:docname="TeamViewer.svg"
   inkscape:version="1.0.2 (e86c870879, 2021-01-15)"
   version="1.1"
   id="svg2"
   viewBox="0 0 256 256"
   height="256"
   width="256">
  <sodipodi:namedview
     inkscape:window-maximized="1"
     inkscape:window-y="0"
     inkscape:window-x="0"
     inkscape:window-height="1048"
     inkscape:window-width="1920"
     units="px"
     showgrid="true"
     inkscape:current-layer="layer1"
     inkscape:document-units="px"
     inkscape:cy="128"
     inkscape:cx="128"
     inkscape:zoom="3.34375"
     inkscape:pageshadow="2"
     inkscape:pageopacity="0.0"
     borderopacity="1.0"
     bordercolor="#666666"
     pagecolor="#ffffff"
     id="base"
     inkscape:document-rotation="0">
    <inkscape:grid
       type="xygrid"
       id="grid4168"
       spacingx="5"
       spacingy="5" />
  </sodipodi:namedview>
  <defs
     id="defs4">
    <clipPath
       clipPathUnits="userSpaceOnUse"
       id="clipPath5002">
      <g
         id="g5004">
        <path
           transform="translate(0,796.36216)"
           inkscape:connector-curvature="0"
           id="path5006"
           d="M 88.118406,249.43519 C 46.103287,235.29134 14.771284,201.68742 4.1335861,159.36053 1.3377997,148.23623 0.92261224,144.16281 0.92582381,127.88908 0.92787958,117.47222 1.134384,112.01362 1.6577819,108.54099 4.4653598,89.913336 12.17654,70.638106 23.042737,55.086148 c 3.958678,-5.665755 8.344812,-10.93092 9.101533,-10.925587 0.32809,0.0023 10.488643,18.309713 22.579009,40.683112 12.090365,22.373397 22.374546,41.334697 22.853732,42.136217 0.479186,0.80151 0.924733,2.44098 0.990103,3.64326 0.343424,6.31639 2.524175,14.20976 5.6424,20.42304 2.954444,5.88693 5.065381,8.73258 10.434696,14.06652 6.71418,6.66995 12.88853,10.28643 21.73204,12.72904 3.16587,0.87442 5.10478,1.05037 11.57517,1.05037 8.82596,0 12.60219,-0.76201 19.26429,-3.88733 2.04584,-0.95974 3.93661,-1.66536 4.20172,-1.56805 0.2651,0.0973 -11.0555,17.66459 -25.1569,39.0384 l -25.6389,38.86148 -3.094121,0.11221 c -2.554618,0.0927 -4.195204,-0.25845 -9.409103,-2.01364 z"
           style="fill:#0f9d58;fill-opacity:1;stroke:none;stroke-width:4.85768509;stroke-linejoin:round;stroke-miterlimit:4;stroke-dasharray:none;stroke-opacity:1" />
        <path
           inkscape:connector-curvature="0"
           id="path5008"
           d="m 112.35984,1051.5167 c -10.0014,-1.4495 -12.15632,-1.8201 -12.531784,-2.1556 -0.248854,-0.2223 1.738304,-3.7475 4.550294,-8.0722 7.16635,-11.0213 49.77231,-74.64801 50.25856,-75.05489 3.57509,-2.99158 8.63523,-8.0414 10.57512,-10.55356 3.36154,-4.35318 7.55784,-12.9141 9.06523,-18.494 6.19314,-22.92535 -2.59253,-47.15185 -21.69967,-59.83688 l -2.96081,-1.96565 17.02469,0.29584 c 9.36358,0.1627 31.17032,0.43384 48.45941,0.60252 l 31.43471,0.30668 1.54584,4.18869 c 2.24597,6.08579 4.67816,15.0947 5.93451,21.9816 1.52517,8.36049 1.92536,28.85896 0.73851,37.82758 -3.0805,23.27845 -12.81326,45.72018 -27.80202,64.10577 -20.47622,25.1166 -51.4599,42.1974 -84.14612,46.3885 -5.31244,0.6812 -26.64601,0.9864 -30.44647,0.4356 z"
           style="fill:#f4b400;fill-opacity:1;stroke:none;stroke-width:4.85768509;stroke-linejoin:round;stroke-miterlimit:4;stroke-dasharray:none;stroke-opacity:1" />
        <path
           transform="translate(0,796.36216)"
           inkscape:connector-curvature="0"
           id="path5010"
           d="M 67.989788,108.87302 C 41.284246,59.575543 33.290284,45.149038 32.233625,44.344765 31.651257,43.901497 32.811213,42.549931 38.695603,36.815353 53.43581,22.450419 68.809334,13.040746 87.839196,6.7360352 101.68742,2.1480329 112.58238,0.43719165 127.95142,0.43719165 c 21.3099,0 37.80488,3.80960275 56.83492,13.12633035 25.29351,12.383198 46.19421,33.578863 58.51993,59.345832 1.61138,3.368591 2.92978,6.372442 2.92978,6.675231 0,0.560033 -10.54865,0.49527 -71.16508,-0.436914 l -24.28843,-0.373518 -3.93063,-1.764495 c -6.75732,-3.033425 -10.64587,-3.839529 -18.6576,-3.867747 -5.0296,-0.01773 -7.97946,0.207636 -10.31642,0.788106 -14.50826,3.603659 -26.283291,12.94777 -33.291614,26.418653 -3.58502,6.89086 -5.24713,13.08166 -6.331628,23.58317 l -0.33738,3.26696 -9.92748,-18.32578 z"
           style="fill:#db4437;fill-opacity:1;stroke:none;stroke-width:10;stroke-linejoin:round;stroke-miterlimit:4;stroke-dasharray:none;stroke-opacity:1" />
      </g>
    </clipPath>
    <clipPath
       id="clipPath4271"
       clipPathUnits="userSpaceOnUse">
      <circle
         r="128"
         cy="128.00002"
         cx="128"
         id="circle4273"
         style="fill:#292929;fill-opacity:0.26020412;stroke:none;stroke-width:10;stroke-linejoin:round;stroke-miterlimit:4;stroke-dasharray:none;stroke-opacity:0.25882353" />
    </clipPath>
    <clipPath
       clipPathUnits="userSpaceOnUse"
       id="clipPath4363">
      <circle
         r="128"
         cy="924.36218"
         cx="128"
         id="circle4365"
         style="fill:#4285f4;fill-opacity:1;stroke:none;stroke-width:10;stroke-linejoin:round;stroke-miterlimit:4;stroke-dasharray:none;stroke-opacity:0.25882353" />
    </clipPath>
    <clipPath
       id="clipPath4452"
       clipPathUnits="userSpaceOnUse">
      <circle
         r="128"
         cy="924.36218"
         cx="128"
         id="circle4454"
         style="fill:#4285f4;fill-opacity:1;stroke:none;stroke-width:10;stroke-linejoin:round;stroke-miterlimit:4;stroke-dasharray:none;stroke-opacity:0.25882353" />
    </clipPath>
    <clipPath
       clipPathUnits="userSpaceOnUse"
       id="clipPath5177">
      <circle
         r="128"
         cy="924.36218"
         cx="128"
         id="circle5179"
         style="fill:#4285f4;fill-opacity:1;stroke:none;stroke-width:10;stroke-linejoin:round;stroke-miterlimit:4;stroke-dasharray:none;stroke-opacity:0.25882353" />
    </clipPath>
    <clipPath
       id="clipPath4342"
       clipPathUnits="userSpaceOnUse">
      <circle
         r="128"
         cy="933.48718"
         cx="128"
         id="circle4344"
         style="fill:#4285f4;fill-opacity:1;stroke:none;stroke-width:10;stroke-linejoin:round;stroke-miterlimit:4;stroke-dasharray:none;stroke-opacity:0.25882353" />
    </clipPath>
    <clipPath
       clipPathUnits="userSpaceOnUse"
       id="clipPath4681">
      <circle
         r="128"
         cy="930.43964"
         cx="127.00293"
         id="circle4683"
         style="fill:#9d5fad;fill-opacity:1;stroke:none;stroke-width:10;stroke-linejoin:round;stroke-miterlimit:4;stroke-dasharray:none;stroke-opacity:0.25882353" />
    </clipPath>
    <clipPath
       id="clipPath4235"
       clipPathUnits="userSpaceOnUse">
      <circle
         r="128"
         cy="924.36218"
         cx="128"
         id="circle4237"
         style="fill:#0f9d58;fill-opacity:1;stroke:none;stroke-width:10;stroke-linejoin:round;stroke-miterlimit:4;stroke-dasharray:none;stroke-opacity:0.25882353" />
    </clipPath>
    <clipPath
       clipPathUnits="userSpaceOnUse"
       id="clipPath4771">
      <circle
         r="128"
         cy="924.36218"
         cx="128"
         id="circle4773"
         style="fill:#0f9d58;fill-opacity:1;stroke:none;stroke-width:10;stroke-linejoin:round;stroke-miterlimit:4;stroke-dasharray:none;stroke-opacity:0.25882353" />
    </clipPath>
    <clipPath
       id="clipPath4842"
       clipPathUnits="userSpaceOnUse">
      <circle
         r="128"
         cy="924.36218"
         cx="128"
         id="circle4844"
         style="fill:#0f9d58;fill-opacity:1;stroke:none;stroke-width:10;stroke-linejoin:round;stroke-miterlimit:4;stroke-dasharray:none;stroke-opacity:0.25882353" />
    </clipPath>
    <clipPath
       clipPathUnits="userSpaceOnUse"
       id="clipPath4458">
      <circle
         r="128"
         cy="924.36218"
         cx="128"
         id="circle4460"
         style="fill:#ff3b38;fill-opacity:1;stroke:none;stroke-width:10;stroke-linejoin:round;stroke-miterlimit:4;stroke-dasharray:none;stroke-opacity:0.25882353" />
    </clipPath>
    <clipPath
       id="clipPath4783"
       clipPathUnits="userSpaceOnUse">
      <circle
         r="128"
         cy="924.36218"
         cx="128"
         id="circle4785"
         style="fill:#ff3b38;fill-opacity:1;stroke:none;stroke-width:10;stroke-linejoin:round;stroke-miterlimit:4;stroke-dasharray:none;stroke-opacity:0.25882353" />
    </clipPath>
    <clipPath
       clipPathUnits="userSpaceOnUse"
       id="clipPath4789">
      <circle
         r="128"
         cy="924.36218"
         cx="102.64714"
         id="circle4791"
         style="fill:#80b4ff;fill-opacity:1;stroke:none;stroke-width:10;stroke-linejoin:round;stroke-miterlimit:4;stroke-dasharray:none;stroke-opacity:0.25882353" />
    </clipPath>
    <clipPath
       id="clipPath21124"
       clipPathUnits="userSpaceOnUse">
      <circle
         r="128"
         cy="924.36218"
         cx="128"
         id="circle21126"
         style="fill:#8595bb;fill-opacity:1;stroke:none;stroke-width:10;stroke-linejoin:round;stroke-miterlimit:4;stroke-dasharray:none;stroke-opacity:0.25882353" />
    </clipPath>
    <clipPath
       clipPathUnits="userSpaceOnUse"
       id="clipPath5162">
      <circle
         r="128"
         cy="924.36218"
         cx="128"
         id="circle5164"
         style="fill:#1fadfa;fill-opacity:1;stroke:none;stroke-width:10;stroke-linejoin:round;stroke-miterlimit:4;stroke-dasharray:none;stroke-opacity:0.25882353" />
    </clipPath>
    <clipPath
       clipPathUnits="userSpaceOnUse"
       id="clipPath5168">
      <circle
         r="110.93333"
         cy="924.58148"
         cx="128.03987"
         id="circle5170"
         style="fill:#1fadfa;fill-opacity:1;stroke:none;stroke-width:10;stroke-linejoin:round;stroke-miterlimit:4;stroke-dasharray:none;stroke-opacity:0.25882353" />
    </clipPath>
    <clipPath
       clipPathUnits="userSpaceOnUse"
       id="clipPath1077">
      <circle
         style="fill:#1fadfa;fill-opacity:1;stroke:none;stroke-width:10;stroke-linejoin:round;stroke-miterlimit:4;stroke-dasharray:none;stroke-opacity:0.258824"
         id="circle1079"
         cx="128"
         cy="924.36218"
         r="128" />
    </clipPath>
  </defs>
  <metadata
     id="metadata7">
    <rdf:RDF>
      <cc:Work
         rdf:about="">
        <dc:format>image/svg+xml</dc:format>
        <dc:type
           rdf:resource="http://purl.org/dc/dcmitype/StillImage" />
        <dc:title />
      </cc:Work>
    </rdf:RDF>
  </metadata>
  <g
     transform="translate(0,-796.36216)"
     id="layer1"
     inkscape:groupmode="layer"
     inkscape:label="Layer 1">
    <circle
       style="fill:#36a3f3;fill-opacity:1;stroke:none;stroke-width:10;stroke-linejoin:round;stroke-miterlimit:4;stroke-dasharray:none;stroke-opacity:0.25882353"
       id="path4152"
       cx="128"
       cy="924.36218"
       r="128" />
    <text
       id="text4914"
       y="927.36218"
       x="120"
       style="font-style:normal;font-weight:normal;line-height:0%;font-family:sans-serif;letter-spacing:0px;word-spacing:0px;fill:#000000;fill-opacity:1;stroke:none;stroke-width:1px;stroke-linecap:butt;stroke-linejoin:miter;stroke-opacity:1"
       xml:space="preserve"><tspan
         y="927.36218"
         x="120"
         id="tspan4916"
         sodipodi:role="line"
         style="font-size:40px;line-height:1.25"> </tspan></text>
    <g
       style="stroke:none"
       transform="translate(-4.11162,138)"
       id="g4241">
      <g
         style="stroke:none"
         id="g4446">
        <g
           id="g4448"
           style="fill:none;fill-rule:evenodd;stroke:none;stroke-width:10;stroke-linecap:round;stroke-linejoin:miter;stroke-miterlimit:4;stroke-dasharray:none;stroke-opacity:1">
          <path
             style="stroke:none"
             id="path4450"
             d="m 129.98857,850.41168 c 0,15 0,15 0,15 L -82.143464,1077.5437 c 0,0 0,0 0,-15 z"
             inkscape:connector-curvature="0" />
        </g>
        <path
           inkscape:connector-curvature="0"
           id="path4247"
           d="m 129.98857,850.41168 c 0,15 0,15 0,15"
           style="fill:none;fill-rule:evenodd;stroke:none;stroke-width:10;stroke-linecap:round;stroke-linejoin:miter;stroke-miterlimit:4;stroke-dasharray:none;stroke-opacity:1" />
      </g>
      <g
         style="stroke:none"
         id="g4453">
        <g
           id="g4455"
           style="fill:none;fill-rule:evenodd;stroke:none;stroke-width:10;stroke-linecap:round;stroke-linejoin:miter;stroke-miterlimit:4;stroke-dasharray:none;stroke-opacity:1">
          <path
             style="stroke:none"
             id="path4457"
             d="m 111.58095,850.41168 c 0,15 0,15 0,15 l -212.13203,212.13202 c 0,0 0,0 0,-15 z"
             inkscape:connector-curvature="0" />
        </g>
        <path
           style="fill:none;fill-rule:evenodd;stroke:none;stroke-width:10;stroke-linecap:round;stroke-linejoin:miter;stroke-miterlimit:4;stroke-dasharray:none;stroke-opacity:1"
           d="m 111.58095,850.41168 c 0,15 0,15 0,15"
           id="path4245"
           inkscape:connector-curvature="0" />
      </g>
      <g
         style="stroke:none"
         id="g4460">
        <g
           id="g4462"
           style="fill:none;fill-rule:evenodd;stroke:none;stroke-width:10;stroke-linecap:round;stroke-linejoin:miter;stroke-miterlimit:4;stroke-dasharray:none;stroke-opacity:1">
          <path
             style="stroke:none"
             id="path4464"
             d="m 93.173333,850.41168 c 0,15 0,15 0,15 L -118.9587,1077.5437 c 0,0 0,0 0,-15 z"
             inkscape:connector-curvature="0" />
        </g>
        <path
           inkscape:connector-curvature="0"
           id="path4243"
           d="m 93.173333,850.41168 c 0,15 0,15 0,15"
           style="fill:none;fill-rule:evenodd;stroke:none;stroke-width:10;stroke-linecap:round;stroke-linejoin:miter;stroke-miterlimit:4;stroke-dasharray:none;stroke-opacity:1" />
      </g>
      <g
         style="stroke:none"
         id="g4467">
        <g
           id="g4469"
           style="fill:none;fill-rule:evenodd;stroke:none;stroke-width:10;stroke-linecap:round;stroke-linejoin:miter;stroke-miterlimit:4;stroke-dasharray:none;stroke-opacity:1">
          <path
             style="stroke:none"
             id="path4471"
             d="m 166.80381,850.41168 c 0,15 0,15 0,15 L -45.328224,1077.5437 c 0,0 0,0 0,-15 z"
             inkscape:connector-curvature="0" />
        </g>
        <path
           inkscape:connector-curvature="0"
           id="path4251"
           d="m 166.80381,850.41168 c 0,15 0,15 0,15"
           style="fill:none;fill-rule:evenodd;stroke:none;stroke-width:10;stroke-linecap:round;stroke-linejoin:miter;stroke-miterlimit:4;stroke-dasharray:none;stroke-opacity:1" />
      </g>
      <g
         style="stroke:none"
         id="g4474">
        <g
           id="g4476"
           style="fill:none;fill-rule:evenodd;stroke:none;stroke-width:10;stroke-linecap:round;stroke-linejoin:miter;stroke-miterlimit:4;stroke-dasharray:none;stroke-opacity:1">
          <path
             style="stroke:none"
             id="path4478"
             d="m 148.39619,850.41168 c 0,15 0,15 0,15 L -63.735844,1077.5437 c 0,0 0,0 0,-15 z"
             inkscape:connector-curvature="0" />
        </g>
        <path
           style="fill:none;fill-rule:evenodd;stroke:none;stroke-width:10;stroke-linecap:round;stroke-linejoin:miter;stroke-miterlimit:4;stroke-dasharray:none;stroke-opacity:1"
           d="m 148.39619,850.41168 c 0,15 0,15 0,15"
           id="path4249"
           inkscape:connector-curvature="0" />
      </g>
    </g>
    <g
       id="g1041"
       clip-path="url(#clipPath1077)"
       style="fill:#075eb0;fill-opacity:1">
      <g
         style="color:#000000;font-style:normal;font-variant:normal;font-weight:normal;font-stretch:normal;font-size:medium;line-height:normal;font-family:sans-serif;font-variant-ligatures:normal;font-variant-position:normal;font-variant-caps:normal;font-variant-numeric:normal;font-variant-alternates:normal;font-variant-east-asian:normal;font-feature-settings:normal;font-variation-settings:normal;text-indent:0;text-align:start;text-decoration:none;text-decoration-line:none;text-decoration-style:solid;text-decoration-color:#000000;letter-spacing:normal;word-spacing:normal;text-transform:none;writing-mode:lr-tb;direction:ltr;text-orientation:mixed;dominant-baseline:auto;baseline-shift:baseline;text-anchor:start;white-space:normal;shape-padding:0;shape-margin:0;inline-size:0;clip-rule:nonzero;display:inline;overflow:visible;visibility:visible;isolation:auto;mix-blend-mode:normal;color-interpolation:sRGB;color-interpolation-filters:linearRGB;solid-color:#000000;solid-opacity:1;vector-effect:none;fill:#075eb0;fill-opacity:1;fill-rule:nonzero;stroke-width:1.05371;stroke-linecap:butt;stroke-linejoin:miter;stroke-miterlimit:4;stroke-dasharray:none;stroke-dashoffset:0;stroke-opacity:1;color-rendering:auto;image-rendering:auto;shape-rendering:auto;text-rendering:auto;enable-background:accumulate;stop-color:#000000;stop-opacity:1;stroke:none;opacity:1"
         id="g1038">
        <path
           d="M 64.0138 943.765 C 43.8747 933.552 27.3973 924.873 27.3973 924.477 L -114.024 1065.9 C -114.024 1066.29 -97.5466 1074.97 -77.4075 1085.19 Z"
           id="path986"
           style="fill:#075eb0;fill-opacity:1" />
        <path
           d="M 27.3973 924.477 C 27.3973 924.467 27.407 924.453 27.4262 924.434 L -113.995 1065.86 C -114.014 1065.87 -114.024 1065.89 -114.024 1065.9 Z"
           id="path988"
           style="fill:#075eb0;fill-opacity:1" />
        <path
           d="M 27.4262 924.434 C 28.2017 923.658 44.491 915.095 64.2936 905.06 L -77.1277 1046.48 C -96.9304 1056.52 -113.22 1065.08 -113.995 1065.86 Z"
           id="path990"
           style="fill:#075eb0;fill-opacity:1" />
        <path
           d="M 64.2936 905.06 L 101.19 886.362 L -40.2314 1027.78 L -77.1277 1046.48 Z"
           id="path992"
           style="fill:#075eb0;fill-opacity:1" />
        <path
           d="M 101.19 886.362 L 99.1112 891.636 L -42.3101 1033.06 L -40.2314 1027.78 Z"
           id="path994"
           style="fill:#075eb0;fill-opacity:1" />
        <path
           d="M 99.1112 891.636 C 97.9679 894.537 95.7991 899.84 94.2917 903.422 L -47.1297 1044.84 C -45.6223 1041.26 -43.4535 1035.96 -42.3101 1033.06 Z"
           id="path996"
           style="fill:#075eb0;fill-opacity:1" />
        <path
           d="M 94.2917 903.422 C 92.7843 907.003 91.7429 910.125 91.9776 910.36 L -49.4437 1051.78 C -49.6784 1051.55 -48.6371 1048.42 -47.1297 1044.84 Z"
           id="path998"
           style="fill:#075eb0;fill-opacity:1" />
        <path
           d="M 91.9776 910.36 C 92.2123 910.595 108.567 910.662 128.322 910.509 L -13.0992 1051.93 C -32.854 1052.08 -49.2091 1052.02 -49.4437 1051.78 Z"
           id="path1000"
           style="fill:#075eb0;fill-opacity:1" />
        <path
           d="M 128.322 910.509 L 164.24 910.232 L 22.8187 1051.65 L -13.0992 1051.93 Z"
           id="path1002"
           style="fill:#075eb0;fill-opacity:1" />
        <path
           d="M 164.24 910.232 L 160.096 900.222 L 18.6746 1041.64 L 22.8187 1051.65 Z"
           id="path1004"
           style="fill:#075eb0;fill-opacity:1" />
        <path
           d="M 160.096 900.222 C 157.817 894.716 155.682 889.38 155.352 888.363 L 13.9305 1029.78 C 14.2606 1030.8 16.3954 1036.14 18.6746 1041.64 Z"
           id="path1006"
           style="fill:#075eb0;fill-opacity:1" />
        <path
           d="M 155.352 888.363 C 155.334 888.308 155.339 888.265 155.369 888.236 L 13.9474 1029.66 C 13.9181 1029.69 13.9125 1029.73 13.9305 1029.78 Z"
           id="path1008"
           style="fill:#075eb0;fill-opacity:1" />
        <path
           d="M 155.369 888.236 C 156.003 887.602 167.739 893.094 191.678 905.222 L 50.2562 1046.64 C 26.3175 1034.52 14.5812 1029.02 13.9474 1029.66 Z"
           id="path1010"
           style="fill:#075eb0;fill-opacity:1" />
        <path
           d="M 191.678 905.222 C 211.987 915.512 228.603 924.167 228.603 924.457 L 87.1813 1065.88 C 87.1817 1065.59 70.5654 1056.93 50.2562 1046.64 Z"
           id="path1012"
           style="fill:#075eb0;fill-opacity:1" />
        <path
           d="M 228.603 924.457 C 228.603 924.462 228.597 924.47 228.587 924.48 L 87.1658 1065.9 C 87.1761 1065.89 87.1813 1065.88 87.1813 1065.88 Z"
           id="path1014"
           style="fill:#075eb0;fill-opacity:1" />
        <path
           d="M 228.587 924.48 C 228.013 925.054 211.621 933.602 191.665 943.73 L 50.2434 1085.15 C 70.1997 1075.02 86.592 1066.48 87.1658 1065.9 Z"
           id="path1016"
           style="fill:#075eb0;fill-opacity:1" />
        <path
           d="M 191.665 943.73 C 162.579 958.491 154.875 962.01 155.423 960.283 L 14.002 1101.7 C 13.4541 1103.43 21.1572 1099.91 50.2434 1085.15 Z"
           id="path1018"
           style="fill:#075eb0;fill-opacity:1" />
        <path
           d="M 155.423 960.283 C 155.806 959.077 157.948 953.724 160.183 948.387 L 18.7614 1089.81 C 16.5265 1095.15 14.3848 1100.5 14.002 1101.7 Z"
           id="path1020"
           style="fill:#075eb0;fill-opacity:1" />
        <path
           d="M 160.183 948.387 L 164.246 938.682 L 22.825 1080.1 L 18.7614 1089.81 Z"
           id="path1022"
           style="fill:#075eb0;fill-opacity:1" />
        <path
           d="M 164.246 938.682 L 128.325 938.405 L -13.096 1079.83 L 22.825 1080.1 Z"
           id="path1024"
           style="fill:#075eb0;fill-opacity:1" />
        <path
           d="M 128.325 938.405 C 108.569 938.252 92.2123 938.319 91.9776 938.554 L -49.4437 1079.98 C -49.2091 1079.74 -32.8526 1079.67 -13.096 1079.83 Z"
           id="path1026"
           style="fill:#075eb0;fill-opacity:1" />
        <path
           d="M 91.9776 938.554 C 91.7429 938.789 92.7843 941.911 94.2917 945.492 L -47.1297 1086.91 C -48.6371 1083.33 -49.6784 1080.21 -49.4437 1079.98 Z"
           id="path1028"
           style="fill:#075eb0;fill-opacity:1" />
        <path
           d="M 94.2917 945.492 C 98.0923 954.522 101.081 962.167 100.889 962.358 L -40.5321 1103.78 C -40.3403 1103.59 -43.329 1095.94 -47.1297 1086.91 Z"
           id="path1030"
           style="fill:#075eb0;fill-opacity:1" />
        <path
           d="M 100.889 962.358 C 100.886 962.361 100.883 962.363 100.878 962.362 L -40.5429 1103.78 C -40.5386 1103.78 -40.535 1103.78 -40.5321 1103.78 Z"
           id="path1032"
           style="fill:#075eb0;fill-opacity:1" />
        <path
           d="M 100.878 962.362 C 100.742 962.346 84.1529 953.978 64.0138 943.765 L -77.4075 1085.19 C -57.2684 1095.4 -40.6794 1103.77 -40.5429 1103.78 Z"
           id="path1034"
           style="fill:#075eb0;fill-opacity:1" />
        <path
           d="M 64.0138 943.765 L 64.0138 943.765 L -77.4075 1085.19 L -77.4075 1085.19 Z"
           id="path1036"
           style="fill:#075eb0;fill-opacity:1" />
      </g>
      <path
         style="color:#000000;font-style:normal;font-variant:normal;font-weight:normal;font-stretch:normal;font-size:medium;line-height:normal;font-family:sans-serif;font-variant-ligatures:normal;font-variant-position:normal;font-variant-caps:normal;font-variant-numeric:normal;font-variant-alternates:normal;font-variant-east-asian:normal;font-feature-settings:normal;font-variation-settings:normal;text-indent:0;text-align:start;text-decoration:none;text-decoration-line:none;text-decoration-style:solid;text-decoration-color:#000000;letter-spacing:normal;word-spacing:normal;text-transform:none;writing-mode:lr-tb;direction:ltr;text-orientation:mixed;dominant-baseline:auto;baseline-shift:baseline;text-anchor:start;white-space:normal;shape-padding:0;shape-margin:0;inline-size:0;clip-rule:nonzero;display:inline;overflow:visible;visibility:visible;isolation:auto;mix-blend-mode:normal;color-interpolation:sRGB;color-interpolation-filters:linearRGB;solid-color:#000000;solid-opacity:1;vector-effect:none;fill:#075eb0;fill-opacity:1;fill-rule:nonzero;stroke-width:1.05371;stroke-linecap:butt;stroke-linejoin:miter;stroke-miterlimit:4;stroke-dasharray:none;stroke-dashoffset:0;stroke-opacity:1;color-rendering:auto;image-rendering:auto;shape-rendering:auto;text-rendering:auto;enable-background:accumulate;stop-color:#000000;stop-opacity:1;stroke:none;opacity:1"
         d="m 64.01383,943.76487 c -20.139088,-10.2127 -36.61652,-18.89224 -36.61652,-19.2879 0,-0.39562 16.603355,-9.13331 36.89634,-19.41708 l 36.89635,-18.69773 -2.07878,5.2739 c -1.14334,2.90065 -3.31212,8.20419 -4.81954,11.78566 -1.50741,3.58144 -2.54874,6.70374 -2.31406,6.93842 0.23467,0.23467 16.58971,0.30184 36.34454,0.14924 l 35.91785,-0.27746 -4.14401,-10.01028 c -2.2792,-5.50564 -4.41409,-10.8421 -4.74417,-11.85878 -0.40704,-1.2537 11.28176,4.17128 36.3257,16.8594 20.30923,10.28937 36.92554,18.94501 36.92516,19.23478 -3.8e-4,0.28978 -16.62245,8.96255 -36.93795,19.27283 -29.08623,14.76152 -36.78932,18.27998 -36.24137,16.55348 0.38274,-1.20585 2.52446,-6.55944 4.75942,-11.89684 l 4.06355,-9.70434 -35.92102,-0.27746 c -19.75655,-0.1526 -36.11302,-0.0854 -36.3477,0.14924 -0.23468,0.23468 0.80665,3.35697 2.31406,6.93842 3.8577,9.16546 6.87896,16.90342 6.58673,16.86968 -0.13644,-0.0159 -16.7255,-8.38449 -36.86458,-18.59718 z"
         id="path916" />
    </g>
    <path
       style="fill:#ffffff;fill-opacity:1;stroke-width:1.05371"
       d="m 64.01383,943.76487 c -20.139088,-10.2127 -36.61652,-18.89224 -36.61652,-19.2879 0,-0.39562 16.603355,-9.13331 36.89634,-19.41708 l 36.89635,-18.69773 -2.07878,5.2739 c -1.14334,2.90065 -3.31212,8.20419 -4.81954,11.78566 -1.50741,3.58144 -2.54874,6.70374 -2.31406,6.93842 0.23467,0.23467 16.58971,0.30184 36.34454,0.14924 l 35.91785,-0.27746 -4.14401,-10.01028 c -2.2792,-5.50564 -4.41409,-10.8421 -4.74417,-11.85878 -0.40704,-1.2537 11.28176,4.17128 36.3257,16.8594 20.30923,10.28937 36.92554,18.94501 36.92516,19.23478 -3.8e-4,0.28978 -16.62245,8.96255 -36.93795,19.27283 -29.08623,14.76152 -36.78932,18.27998 -36.24137,16.55348 0.38274,-1.20585 2.52446,-6.55944 4.75942,-11.89684 l 4.06355,-9.70434 -35.92102,-0.27746 c -19.75655,-0.1526 -36.11302,-0.0854 -36.3477,0.14924 -0.23468,0.23468 0.80665,3.35697 2.31406,6.93842 3.8577,9.16546 6.87896,16.90342 6.58673,16.86968 -0.13644,-0.0159 -16.7255,-8.38449 -36.86458,-18.59718 z"
       id="path849" />
  </g>
</svg>
