<?xml version="1.0" encoding="UTF-8" standalone="no"?>
<!-- Created with Inkscape (http://www.inkscape.org/) -->

<svg
   xmlns:dc="http://purl.org/dc/elements/1.1/"
   xmlns:cc="http://creativecommons.org/ns#"
   xmlns:rdf="http://www.w3.org/1999/02/22-rdf-syntax-ns#"
   xmlns:svg="http://www.w3.org/2000/svg"
   xmlns="http://www.w3.org/2000/svg"
   xmlns:sodipodi="http://sodipodi.sourceforge.net/DTD/sodipodi-0.dtd"
   xmlns:inkscape="http://www.inkscape.org/namespaces/inkscape"
   width="256"
   height="256"
   viewBox="0 0 256 256"
   id="svg2"
   version="1.1"
   inkscape:version="0.91 r13725"
   sodipodi:docname="telepathy.svg">
  <sodipodi:namedview
     id="base"
     pagecolor="#ffffff"
     bordercolor="#666666"
     borderopacity="1.0"
     inkscape:pageopacity="0.0"
     inkscape:pageshadow="2"
     inkscape:zoom="2.0507812"
     inkscape:cx="128"
     inkscape:cy="128"
     inkscape:document-units="px"
     inkscape:current-layer="layer1"
     showgrid="true"
     units="px"
     inkscape:window-width="1366"
     inkscape:window-height="721"
     inkscape:window-x="0"
     inkscape:window-y="0"
     inkscape:window-maximized="1">
    <inkscape:grid
       spacingy="5"
       spacingx="5"
       id="grid4168"
       type="xygrid" />
  </sodipodi:namedview>
  <defs
     id="defs4">
    <clipPath
       id="clipPath5002"
       clipPathUnits="userSpaceOnUse">
      <g
         id="g5004">
        <path
           style="fill:#0f9d58;fill-opacity:1;stroke:none;stroke-width:4.85768509;stroke-linejoin:round;stroke-miterlimit:4;stroke-dasharray:none;stroke-opacity:1"
           d="M 88.118406,249.43519 C 46.103287,235.29134 14.771284,201.68742 4.1335861,159.36053 1.3377997,148.23623 0.92261224,144.16281 0.92582381,127.88908 0.92787958,117.47222 1.134384,112.01362 1.6577819,108.54099 4.4653598,89.913336 12.17654,70.638106 23.042737,55.086148 c 3.958678,-5.665755 8.344812,-10.93092 9.101533,-10.925587 0.32809,0.0023 10.488643,18.309713 22.579009,40.683112 12.090365,22.373397 22.374546,41.334697 22.853732,42.136217 0.479186,0.80151 0.924733,2.44098 0.990103,3.64326 0.343424,6.31639 2.524175,14.20976 5.6424,20.42304 2.954444,5.88693 5.065381,8.73258 10.434696,14.06652 6.71418,6.66995 12.88853,10.28643 21.73204,12.72904 3.16587,0.87442 5.10478,1.05037 11.57517,1.05037 8.82596,0 12.60219,-0.76201 19.26429,-3.88733 2.04584,-0.95974 3.93661,-1.66536 4.20172,-1.56805 0.2651,0.0973 -11.0555,17.66459 -25.1569,39.0384 l -25.6389,38.86148 -3.094121,0.11221 c -2.554618,0.0927 -4.195204,-0.25845 -9.409103,-2.01364 z"
           id="path5006"
           inkscape:connector-curvature="0"
           transform="translate(0,796.36216)" />
        <path
           style="fill:#f4b400;fill-opacity:1;stroke:none;stroke-width:4.85768509;stroke-linejoin:round;stroke-miterlimit:4;stroke-dasharray:none;stroke-opacity:1"
           d="m 112.35984,1051.5167 c -10.0014,-1.4495 -12.15632,-1.8201 -12.531784,-2.1556 -0.248854,-0.2223 1.738304,-3.7475 4.550294,-8.0722 7.16635,-11.0213 49.77231,-74.64801 50.25856,-75.05489 3.57509,-2.99158 8.63523,-8.0414 10.57512,-10.55356 3.36154,-4.35318 7.55784,-12.9141 9.06523,-18.494 6.19314,-22.92535 -2.59253,-47.15185 -21.69967,-59.83688 l -2.96081,-1.96565 17.02469,0.29584 c 9.36358,0.1627 31.17032,0.43384 48.45941,0.60252 l 31.43471,0.30668 1.54584,4.18869 c 2.24597,6.08579 4.67816,15.0947 5.93451,21.9816 1.52517,8.36049 1.92536,28.85896 0.73851,37.82758 -3.0805,23.27845 -12.81326,45.72018 -27.80202,64.10577 -20.47622,25.1166 -51.4599,42.1974 -84.14612,46.3885 -5.31244,0.6812 -26.64601,0.9864 -30.44647,0.4356 z"
           id="path5008"
           inkscape:connector-curvature="0" />
        <path
           style="fill:#db4437;fill-opacity:1;stroke:none;stroke-width:10;stroke-linejoin:round;stroke-miterlimit:4;stroke-dasharray:none;stroke-opacity:1"
           d="M 67.989788,108.87302 C 41.284246,59.575543 33.290284,45.149038 32.233625,44.344765 31.651257,43.901497 32.811213,42.549931 38.695603,36.815353 53.43581,22.450419 68.809334,13.040746 87.839196,6.7360352 101.68742,2.1480329 112.58238,0.43719165 127.95142,0.43719165 c 21.3099,0 37.80488,3.80960275 56.83492,13.12633035 25.29351,12.383198 46.19421,33.578863 58.51993,59.345832 1.61138,3.368591 2.92978,6.372442 2.92978,6.675231 0,0.560033 -10.54865,0.49527 -71.16508,-0.436914 l -24.28843,-0.373518 -3.93063,-1.764495 c -6.75732,-3.033425 -10.64587,-3.839529 -18.6576,-3.867747 -5.0296,-0.01773 -7.97946,0.207636 -10.31642,0.788106 -14.50826,3.603659 -26.283291,12.94777 -33.291614,26.418653 -3.58502,6.89086 -5.24713,13.08166 -6.331628,23.58317 l -0.33738,3.26696 -9.92748,-18.32578 z"
           id="path5010"
           inkscape:connector-curvature="0"
           transform="translate(0,796.36216)" />
      </g>
    </clipPath>
    <clipPath
       clipPathUnits="userSpaceOnUse"
       id="clipPath4271">
      <circle
         style="fill:#292929;fill-opacity:0.26020412;stroke:none;stroke-width:10;stroke-linejoin:round;stroke-miterlimit:4;stroke-dasharray:none;stroke-opacity:0.25882353"
         id="circle4273"
         cx="128"
         cy="128.00002"
         r="128" />
    </clipPath>
    <clipPath
       id="clipPath4363"
       clipPathUnits="userSpaceOnUse">
      <circle
         style="fill:#4285f4;fill-opacity:1;stroke:none;stroke-width:10;stroke-linejoin:round;stroke-miterlimit:4;stroke-dasharray:none;stroke-opacity:0.25882353"
         id="circle4365"
         cx="128"
         cy="924.36218"
         r="128" />
    </clipPath>
    <clipPath
       clipPathUnits="userSpaceOnUse"
       id="clipPath4452">
      <circle
         style="fill:#4285f4;fill-opacity:1;stroke:none;stroke-width:10;stroke-linejoin:round;stroke-miterlimit:4;stroke-dasharray:none;stroke-opacity:0.25882353"
         id="circle4454"
         cx="128"
         cy="924.36218"
         r="128" />
    </clipPath>
    <clipPath
       id="clipPath5177"
       clipPathUnits="userSpaceOnUse">
      <circle
         style="fill:#4285f4;fill-opacity:1;stroke:none;stroke-width:10;stroke-linejoin:round;stroke-miterlimit:4;stroke-dasharray:none;stroke-opacity:0.25882353"
         id="circle5179"
         cx="128"
         cy="924.36218"
         r="128" />
    </clipPath>
    <clipPath
       clipPathUnits="userSpaceOnUse"
       id="clipPath4342">
      <circle
         style="fill:#4285f4;fill-opacity:1;stroke:none;stroke-width:10;stroke-linejoin:round;stroke-miterlimit:4;stroke-dasharray:none;stroke-opacity:0.25882353"
         id="circle4344"
         cx="128"
         cy="933.48718"
         r="128" />
    </clipPath>
    <clipPath
       id="clipPath4373"
       clipPathUnits="userSpaceOnUse">
      <circle
         style="fill:#4285f4;fill-opacity:1;stroke:none;stroke-width:10;stroke-linejoin:round;stroke-miterlimit:4;stroke-dasharray:none;stroke-opacity:0.25882353"
         id="circle4375"
         cx="128"
         cy="924.36218"
         r="128" />
    </clipPath>
    <clipPath
       clipPathUnits="userSpaceOnUse"
       id="clipPath4484">
      <circle
         style="fill:#4285f4;fill-opacity:1;stroke:none;stroke-width:10;stroke-linejoin:round;stroke-miterlimit:4;stroke-dasharray:none;stroke-opacity:0.25882353"
         id="circle4486"
         cx="128"
         cy="933.47552"
         r="128" />
    </clipPath>
    <clipPath
       id="clipPath4344"
       clipPathUnits="userSpaceOnUse">
      <circle
         style="fill:#4285f4;fill-opacity:1;stroke:none;stroke-width:10;stroke-linejoin:round;stroke-miterlimit:4;stroke-dasharray:none;stroke-opacity:0.25882353"
         id="circle4346"
         cx="128"
         cy="128.00002"
         r="128" />
    </clipPath>
    <clipPath
       clipPathUnits="userSpaceOnUse"
       id="clipPath4561">
      <circle
         style="fill:#4285f4;fill-opacity:1;stroke:none;stroke-width:10;stroke-linejoin:round;stroke-miterlimit:4;stroke-dasharray:none;stroke-opacity:0.25882353"
         id="circle4563"
         cx="129.54271"
         cy="971.61078"
         r="87.855125" />
    </clipPath>
  </defs>
  <metadata
     id="metadata7">
    <rdf:RDF>
      <cc:Work
         rdf:about="">
        <dc:format>image/svg+xml</dc:format>
        <dc:type
           rdf:resource="http://purl.org/dc/dcmitype/StillImage" />
        <dc:title />
      </cc:Work>
    </rdf:RDF>
  </metadata>
  <g
     inkscape:label="Layer 1"
     inkscape:groupmode="layer"
     id="layer1"
     transform="translate(0,-796.36216)">
    <circle
       r="128"
       cy="924.36218"
       cx="128"
       id="path4152"
       style="fill:#4285f4;fill-opacity:1;stroke:none;stroke-width:10;stroke-linejoin:round;stroke-miterlimit:4;stroke-dasharray:none;stroke-opacity:0.25882353" />
    <text
       xml:space="preserve"
       style="font-style:normal;font-weight:normal;font-size:40px;line-height:125%;font-family:sans-serif;letter-spacing:0px;word-spacing:0px;fill:#000000;fill-opacity:1;stroke:none;stroke-width:1px;stroke-linecap:butt;stroke-linejoin:miter;stroke-opacity:1"
       x="120"
       y="927.36218"
       id="text4914"
       sodipodi:linespacing="125%"><tspan
         sodipodi:role="line"
         id="tspan4916"
         x="120"
         y="927.36218" /></text>
    <g
       style="fill:#001d4d;fill-opacity:1"
       transform="matrix(1.456944,0,0,1.456944,-60.736476,-491.22031)"
       id="g4254"
       clip-path="url(#clipPath4561)">
      <g
         id="g4311"
         transform="matrix(0.68636818,0,0,0.68636818,41.687584,883.75564)"
         style="fill:#001d4d;fill-opacity:1">
        <g
           id="g4313"
           style="fill:#001d4d;fill-opacity:1">
          <path
             id="path4315"
             d="M124.07031 50.804688C122.74861 50.804475 121.31333 51.215031 119.88281 52.152344L-92.249224356 264.284378356C-90.818704356 263.347065356 -89.383424356 262.936509356 -88.061724356 262.936722356Z"
             style="fill:#001d4d;fill-opacity:1" />
          <path
             id="path4317"
             d="M119.88281 52.152344C119.303571711 52.5318751597 118.796439343 52.9421596648 118.362251861 53.3763471468L-93.7697824954 265.508381503C-93.3355950134 265.074194021 -92.8284626453 264.663909516 -92.249224356 264.284378356Z"
             style="fill:#001d4d;fill-opacity:1" />
          <path
             id="path4319"
             d="M118.362251861 53.3763471468C115.750154362 55.9884446458 115.778148616 59.4656617658 118.62891 62.316406L-93.503124356 274.448440356C-96.3538857395 271.597696122 -96.3818799944 268.120479002 -93.7697824954 265.508381503Z"
             style="fill:#001d4d;fill-opacity:1" />
          <path
             id="path4321"
             d="M118.62891 62.316406C121.468531805 65.1560269439 124.977857619 65.1959216289 127.55720371 62.6165755384L-84.5748306459 274.748609894C-87.1541767365 277.327955985 -90.6635025506 277.2880613 -93.503124356 274.448440356Z"
             style="fill:#001d4d;fill-opacity:1" />
          <path
             id="path4323"
             d="M127.55720371 62.6165755384C127.971950761 62.2018284879 128.362653028 61.7193605254 128.72266 61.169922L-83.409374356 273.301956356C-83.7693813276 273.851394881 -84.1600835955 274.333862844 -84.5748306459 274.748609894Z"
             style="fill:#001d4d;fill-opacity:1" />
          <path
             id="path4325"
             d="M128.72266 61.169922C132.08413 56.039658 128.79067 50.805446 124.07031 50.804688L-88.061724356 262.936722356C-83.341364356 262.937480356 -80.047904356 268.171692356 -83.409374356 273.301956356Z"
             style="fill:#001d4d;fill-opacity:1" />
          <path
             id="path4327"
             d="M98.126953 55.951172C95.999119 55.951172 93.872336 56.686258 92.404297 58.154297L-119.727737356 270.286331356C-118.259698356 268.818292356 -116.132915356 268.083206356 -114.005081356 268.083206356Z"
             style="fill:#001d4d;fill-opacity:1" />
          <path
             id="path4329"
             d="M92.404297 58.154297C89.46822 61.090374 89.46822 66.665485 92.404297 69.601562L-119.727737356 281.733596356C-122.663814356 278.797519356 -122.663814356 273.222408356 -119.727737356 270.286331356Z"
             style="fill:#001d4d;fill-opacity:1" />
          <path
             id="path4331"
             d="M92.404297 69.601562C93.663504 70.860785 96.238127 71.890625 98.126953 71.890625L-114.005081356 284.022659356C-115.893907356 284.022659356 -118.468530356 282.992819356 -119.727737356 281.733596356Z"
             style="fill:#001d4d;fill-opacity:1" />
          <path
             id="path4333"
             d="M98.126953 71.890625C100.369596019 71.890625 102.269638551 70.9913898319 103.654788014 69.606240369L-108.477246342 281.738274725C-109.862395805 283.123424188 -111.762438337 284.022659356 -114.005081356 284.022659356Z"
             style="fill:#001d4d;fill-opacity:1" />
          <path
             id="path4335"
             d="M103.654788014 69.606240369C106.599717635 66.6613107482 107.217233428 61.5199568257 103.85156 58.154297L-108.280474356 270.286331356C-104.914800928 273.651991182 -105.532316721 278.793345104 -108.477246342 281.738274725Z"
             style="fill:#001d4d;fill-opacity:1" />
          <path
             id="path4337"
             d="M103.85156 58.154297C102.38352 56.686258 100.25479 55.951172 98.126953 55.951172L-114.005081356 268.083206356C-111.877244356 268.083206356 -109.748514356 268.818292356 -108.280474356 270.286331356Z"
             style="fill:#001d4d;fill-opacity:1" />
          <path
             id="path4339"
             d="M143.05859 61.853516C142.435451721 61.8948777901 142.001933907 62.0441065914 141.704777811 62.3412626877L-70.4272565452 274.473297044C-70.1301004489 274.176140947 -69.6965826345 274.026912146 -69.073444356 273.985550356Z"
             style="fill:#001d4d;fill-opacity:1" />
          <path
             id="path4341"
             d="M141.704777811 62.3412626877C141.237515692 62.8085248068 141.10742 63.6415502664 141.10742 64.996094L-71.024614356 277.128128356C-71.024614356 275.773584622 -70.8945186642 274.940559163 -70.4272565452 274.473297044Z"
             style="fill:#001d4d;fill-opacity:1" />
          <path
             id="path4343"
             d="M141.10742 64.996094C141.10742 66.91907 141.57261 68.955492 142.14062 69.523438L-69.991414356 281.655472356C-70.559424356 281.087526356 -71.024614356 279.051104356 -71.024614356 277.128128356Z"
             style="fill:#001d4d;fill-opacity:1" />
          <path
             id="path4345"
             d="M142.14062 69.523438C142.70864 70.091442 144.51088 70.36499 146.14648 70.130859L-65.985554356 282.262893356C-67.621154356 282.497024356 -69.423394356 282.223476356 -69.991414356 281.655472356Z"
             style="fill:#001d4d;fill-opacity:1" />
          <path
             id="path4347"
             d="M146.14648 70.130859C147.019268766 70.0059210159 147.682250509 69.7211245748 148.158281326 69.2450937583L-63.9737530302 281.377128114C-64.4497838467 281.853158931 -65.1127655897 282.137955372 -65.985554356 282.262893356Z"
             style="fill:#001d4d;fill-opacity:1" />
          <path
             id="path4349"
             d="M148.158281326 69.2450937583C148.820681297 68.582693787 149.12109 67.5500085466 149.12109 66.0625L-63.010944356 278.194534356C-63.010944356 279.682042903 -63.3113530589 280.714728143 -63.9737530302 281.377128114Z"
             style="fill:#001d4d;fill-opacity:1" />
          <path
             id="path4351"
             d="M149.12109 66.0625C149.12109 63.172069 148.29276 62.324823 145.11328 61.958984L-67.018754356 274.091018356C-63.839274356 274.456857356 -63.010944356 275.304103356 -63.010944356 278.194534356Z"
             style="fill:#001d4d;fill-opacity:1" />
          <path
             id="path4353"
             d="M145.11328 61.958984C144.26682 61.861588 143.59292 61.818049 143.05859 61.853516L-69.073444356 273.985550356C-68.539114356 273.950083356 -67.865214356 273.993622356 -67.018754356 274.091018356Z"
             style="fill:#001d4d;fill-opacity:1" />
          <path
             id="path4355"
             d="M84.019531 78.505859C82.8781529004 78.5283413817 81.6951230623 79.151756202 80.7920151496 80.0548641148L-131.340019206 292.186898471C-130.436911294 291.283790558 -129.253881456 290.660375738 -128.112503356 290.637893356Z"
             style="fill:#001d4d;fill-opacity:1" />
          <path
             id="path4357"
             d="M80.7920151496 80.0548641148C79.5887104315 81.2581688329 78.8823513262 82.9580129164 79.433594 84.394531L-132.698440356 296.526565356C-133.24968303 295.090047272 -132.543323924 293.390203189 -131.340019206 292.186898471Z"
             style="fill:#001d4d;fill-opacity:1" />
          <path
             id="path4359"
             d="M79.433594 84.394531C80.3926553604 86.8938042678 83.9213390174 86.7150057155 85.7832667297 84.8530780032L-126.348767626 296.985112359C-128.210695339 298.847040071 -131.739378996 299.025838624 -132.698440356 296.526565356Z"
             style="fill:#001d4d;fill-opacity:1" />
          <path
             id="path4361"
             d="M85.7832667297 84.8530780032C86.3664644653 84.2698802676 86.7861395048 83.5215534865 86.912109 82.638672L-125.219925356 294.770706356C-125.345894851 295.653587842 -125.765569891 296.401914624 -126.348767626 296.985112359Z"
             style="fill:#001d4d;fill-opacity:1" />
          <path
             id="path4363"
             d="M86.912109 82.638672C87.161757 80.889028 86.390855 79.177313 85.134766 78.695312L-126.997268356 290.827346356C-125.741179356 291.309347356 -124.970277356 293.021062356 -125.219925356 294.770706356Z"
             style="fill:#001d4d;fill-opacity:1" />
          <path
             id="path4365"
             d="M85.134766 78.695312C84.775529 78.55746 84.399839 78.498368 84.019531 78.505859L-128.112503356 290.637893356C-127.732195356 290.630402356 -127.356505356 290.689494356 -126.997268356 290.827346356Z"
             style="fill:#001d4d;fill-opacity:1" />
          <path
             id="path4367"
             d="M155.24414 79.451172C154.392731069 79.4224770936 153.649203717 79.7509868079 153.113516934 80.2866735914L-59.018517422 292.418707947C-58.4828306386 291.883021164 -57.7393032868 291.55451145 -56.887894356 291.583206356Z"
             style="fill:#001d4d;fill-opacity:1" />
          <path
             id="path4369"
             d="M153.113516934 80.2866735914C152.076469237 81.3237212878 151.818364975 83.1372257598 153.06445 84.638672L-59.067584356 296.770706356C-60.3136693814 295.269260116 -60.0555651185 293.455755644 -59.018517422 292.418707947Z"
             style="fill:#001d4d;fill-opacity:1" />
          <path
             id="path4371"
             d="M153.06445 84.638672C153.94021 85.693878 155.37839 86.316851 156.25977 86.023438L-55.872264356 298.155472356C-56.753644356 298.448885356 -58.191824356 297.825912356 -59.067584356 296.770706356Z"
             style="fill:#001d4d;fill-opacity:1" />
          <path
             id="path4373"
             d="M156.25977 86.023438C156.677728582 85.8842969936 157.031573398 85.6563100669 157.320848314 85.3670351509L-54.8111860418 297.499069507C-55.1004609578 297.788344423 -55.4543057735 298.01633135 -55.872264356 298.155472356Z"
             style="fill:#001d4d;fill-opacity:1" />
          <path
             id="path4375"
             d="M157.320848314 85.3670351509C158.864782225 83.8231012398 158.569359382 80.5333000147 156.36523 79.6875L-55.766804356 291.819534356C-53.5626749742 292.665334371 -53.2672521307 295.955135596 -54.8111860418 297.499069507Z"
             style="fill:#001d4d;fill-opacity:1" />
          <path
             id="path4377"
             d="M156.36523 79.6875C155.97758 79.538742 155.60124 79.463207 155.24414 79.451172L-56.887894356 291.583206356C-56.530794356 291.595241356 -56.154454356 291.670776356 -55.766804356 291.819534356Z"
             style="fill:#001d4d;fill-opacity:1" />
          <path
             id="path4379"
             d="M174.40234 89.351562C169.47578 89.24977 164.48683 90.349557 159.91211 92.765625L-52.219924356 304.897659356C-47.645204356 302.481591356 -42.656254356 301.381804356 -37.729694356 301.483596356Z"
             style="fill:#001d4d;fill-opacity:1" />
          <path
             id="path4381"
             d="M159.91211 92.765625C157.706663197 93.9303998788 155.585382756 95.563569175 153.673260955 97.4756909754L-58.4587734007 309.607725331C-56.5466516003 307.695603531 -54.4253711594 306.062434235 -52.219924356 304.897659356Z"
             style="fill:#001d4d;fill-opacity:1" />
          <path
             id="path4383"
             d="M153.673260955 97.4756909754C148.600434048 102.548517883 144.999732492 109.58470166 145.20508 115.04688L-66.926954356 327.178914356C-67.1323018636 321.716736016 -63.5316003084 314.680552239 -58.4587734007 309.607725331Z"
             style="fill:#001d4d;fill-opacity:1" />
          <path
             id="path4385"
             d="M145.20508 115.04688C145.31248 117.90365 144.10642 122.77592 142.52539 125.875L-69.606644356 338.007034356C-68.025614356 334.907954356 -66.819554356 330.035684356 -66.926954356 327.178914356Z"
             style="fill:#001d4d;fill-opacity:1" />
          <path
             id="path4387"
             d="M142.52539 125.875C140.94436 128.97407 139.65039 132.63082 139.65039 134.00195L-72.481644356 346.133984356C-72.481644356 344.762854356 -71.187674356 341.106104356 -69.606644356 338.007034356Z"
             style="fill:#001d4d;fill-opacity:1" />
          <path
             id="path4389"
             d="M139.65039 134.00195C139.65039 137.06859 143.77262 141.82422 146.43164 141.82422L-65.700394356 353.956254356C-68.359414356 353.956254356 -72.481644356 349.200624356 -72.481644356 346.133984356Z"
             style="fill:#001d4d;fill-opacity:1" />
          <path
             id="path4391"
             d="M146.43164 141.82422C147.62894 141.82422 148.39258 143.49136 148.39258 146.10938L-63.739454356 358.241414356C-63.739454356 355.623394356 -64.503094356 353.956254356 -65.700394356 353.956254356Z"
             style="fill:#001d4d;fill-opacity:1" />
          <path
             id="path4393"
             d="M148.39258 146.10938C148.39258 148.46604 149.04829 150.79968 149.84961 151.29492L-62.282424356 363.426954356C-63.083744356 362.931714356 -63.739454356 360.598074356 -63.739454356 358.241414356Z"
             style="fill:#001d4d;fill-opacity:1" />
          <path
             id="path4395"
             d="M149.84961 151.29492C150.65093 151.79017 151.30664 153.84563 151.30664 155.86328L-60.825394356 367.995314356C-60.825394356 365.977664356 -61.481104356 363.922204356 -62.282424356 363.426954356Z"
             style="fill:#001d4d;fill-opacity:1" />
          <path
             id="path4397"
             d="M151.30664 155.86328C151.30664 157.9753 153.11258 161.33915 155.56445 163.79102L-56.567584356 375.923054356C-59.019454356 373.471184356 -60.825394356 370.107334356 -60.825394356 367.995314356Z"
             style="fill:#001d4d;fill-opacity:1" />
          <path
             id="path4399"
             d="M155.56445 163.79102C160.43792 168.66449 167.64744 169.46803 174.53516 165.90625L-37.596874356 378.038284356C-44.484594356 381.600064356 -51.694114356 380.796524356 -56.567584356 375.923054356Z"
             style="fill:#001d4d;fill-opacity:1" />
          <path
             id="path4401"
             d="M174.53516 165.90625C176.425126816 164.928908563 178.924179949 162.853273205 181.635186401 160.142266752L-30.4968479546 372.274301108C-33.2078544073 374.985307561 -35.7069075401 377.060942919 -37.596874356 378.038284356Z"
             style="fill:#001d4d;fill-opacity:1" />
          <path
             id="path4403"
             d="M181.635186401 160.142266752C187.479534985 154.297918169 194.308917846 145.500738711 198.14453 138.38867L-13.987504356 350.520704356C-17.8231165098 357.632773067 -24.6524993711 366.429952524 -30.4968479546 372.274301108Z"
             style="fill:#001d4d;fill-opacity:1" />
          <path
             id="path4405"
             d="M198.14453 138.38867C202.31168 130.66186 202.97567 128.01484 203.0 119.00781L-9.13203435596 331.139844356C-9.15636435596 340.146874356 -9.82035435596 342.793894356 -13.987504356 350.520704356Z"
             style="fill:#001d4d;fill-opacity:1" />
          <path
             id="path4407"
             d="M203.0 119.00781C203.02497 109.75266 202.53189 107.86393 198.63672 102.25391L-13.495314356 314.385944356C-9.60014435596 319.995964356 -9.10706435596 321.884694356 -9.13203435596 331.139844356Z"
             style="fill:#001d4d;fill-opacity:1" />
          <path
             id="path4409"
             d="M198.63672 102.25391C192.98734 94.117348 183.80759 89.545895 174.40234 89.351562L-37.729694356 301.483596356C-28.324444356 301.677929356 -19.144694356 306.249382356 -13.495314356 314.385944356Z"
             style="fill:#001d4d;fill-opacity:1" />
          <path
             id="path4411"
             d="M92.398438 96.875C82.701322 96.890157 73.188795 100.45542 65.703125 107.35547L-146.428909356 319.487504356C-138.943239356 312.587454356 -129.430712356 309.022191356 -119.733596356 309.007034356Z"
             style="fill:#001d4d;fill-opacity:1" />
          <path
             id="path4413"
             d="M65.703125 107.35547C64.8856030475 108.10903541 64.1166952993 108.844342836 63.3939303691 109.567107766L-148.738103987 321.699142122C-148.015339057 320.976377192 -147.246431308 320.241069766 -146.428909356 319.487504356Z"
             style="fill:#001d4d;fill-opacity:1" />
          <path
             id="path4415"
             d="M63.3939303691 109.567107766C55.3903852174 117.570652918 53.0449941438 124.036204083 53.001953 136.72461L-159.130081356 348.856644356C-159.087040212 336.168238439 -156.741649139 329.702687274 -148.738103987 321.699142122Z"
             style="fill:#001d4d;fill-opacity:1" />
          <path
             id="path4417"
             d="M53.001953 136.72461C52.966216 147.26003 53.495217 149.49973 58.515625 160.03516L-153.616409356 372.167194356C-158.636817356 361.631764356 -159.165818356 359.392064356 -159.130081356 348.856644356Z"
             style="fill:#001d4d;fill-opacity:1" />
          <path
             id="path4419"
             d="M58.515625 160.03516C68.476597 180.93849 84.352906 198.99849 96.931641 203.73633L-115.200393356 415.868364356C-127.779128356 411.130524356 -143.655437356 393.070524356 -153.616409356 372.167194356Z"
             style="fill:#001d4d;fill-opacity:1" />
          <path
             id="path4421"
             d="M96.931641 203.73633C104.641010952 206.640181545 111.907918208 205.148995863 117.277812439 199.779101632L-94.8542219174 411.911135988C-100.224116148 417.281030219 -107.491023404 418.772215901 -115.200393356 415.868364356Z"
             style="fill:#001d4d;fill-opacity:1" />
          <path
             id="path4423"
             d="M117.277812439 199.779101632C118.557274478 198.499639592 119.729041984 196.999981011 120.77344 195.28711L-91.358594356 407.419144356C-92.4029923719 409.132015367 -93.5747598778 410.631673948 -94.8542219174 411.911135988Z"
             style="fill:#001d4d;fill-opacity:1" />
          <path
             id="path4425"
             d="M120.77344 195.28711C122.33483 192.72638 123.61623 189.25798 123.61914 187.57812L-88.512894356 399.710154356C-88.515804356 401.390014356 -89.797204356 404.858414356 -91.358594356 407.419144356Z"
             style="fill:#001d4d;fill-opacity:1" />
          <path
             id="path4427"
             d="M123.61914 187.57812C123.62214 185.89827 124.65236 182.46084 125.91016 179.93945L-86.221874356 392.071484356C-87.479674356 394.592874356 -88.509894356 398.030304356 -88.512894356 399.710154356Z"
             style="fill:#001d4d;fill-opacity:1" />
          <path
             id="path4429"
             d="M125.91016 179.93945C127.16797 177.41821 127.82691 174.1857 127.37305 172.75586L-84.758984356 384.887894356C-84.305124356 386.317734356 -84.964064356 389.550244356 -86.221874356 392.071484356Z"
             style="fill:#001d4d;fill-opacity:1" />
          <path
             id="path4431"
             d="M127.37305 172.75586C127.053875589 171.750215539 127.222602429 170.921024681 128.081460282 170.062166828L-84.0505740736 382.194201184C-84.9094319265 383.053059037 -85.078158767 383.882249895 -84.758984356 384.887894356Z"
             style="fill:#001d4d;fill-opacity:1" />
          <path
             id="path4433"
             d="M128.081460282 170.062166828C128.917072161 169.226554949 130.405962248 168.362860285 132.73438 167.28125L-79.397654356 379.413284356C-81.7260721075 380.494894641 -83.214962195 381.358589305 -84.0505740736 382.194201184Z"
             style="fill:#001d4d;fill-opacity:1" />
          <path
             id="path4435"
             d="M132.73438 167.28125C134.810199408 166.317003859 136.377418012 165.380748143 137.457867991 164.300298164L-74.6741663646 376.43233252C-75.7546163436 377.512782499 -77.3218349485 378.449038215 -79.397654356 379.413284356Z"
             style="fill:#001d4d;fill-opacity:1" />
          <path
             id="path4437"
             d="M137.457867991 164.300298164C140.556515529 161.201650627 139.651499221 156.917007669 135.25781 147.38477L-76.874224356 359.516804356C-72.4805351346 369.049042025 -71.5755188268 373.333684982 -74.6741663646 376.43233252Z"
             style="fill:#001d4d;fill-opacity:1" />
          <path
             id="path4439"
             d="M135.25781 147.38477C131.67825 139.61888 130.8257 136.17043 131.54102 132.35742L-80.591014356 344.489454356C-81.306334356 348.302464356 -80.453784356 351.750914356 -76.874224356 359.516804356Z"
             style="fill:#001d4d;fill-opacity:1" />
          <path
             id="path4441"
             d="M131.54102 132.35742C133.36677 122.62533 124.39404 108.66201 111.9707 101.90039L-100.161334356 314.032424356C-87.737994356 320.794044356 -78.765264356 334.757364356 -80.591014356 344.489454356Z"
             style="fill:#001d4d;fill-opacity:1" />
          <path
             id="path4443"
             d="M111.9707 101.90039C105.75313 98.516362 99.033306 96.86463 92.398438 96.875L-119.733596356 309.007034356C-113.098728356 308.996664356 -106.378904356 310.648396356 -100.161334356 314.032424356Z"
             style="fill:#001d4d;fill-opacity:1" />
        </g>
        <path
           id="path4231"
           transform=""
           d="M 124.07031 50.804688 C 122.74861 50.804475 121.31333 51.215031 119.88281 52.152344 C 115.81884 54.815157 115.30429 58.991806 118.62891 62.316406 C 121.92513 65.612625 126.12374 65.136364 128.72266 61.169922 C 132.08413 56.039658 128.79067 50.805446 124.07031 50.804688 z M 98.126953 55.951172 C 95.999119 55.951172 93.872336 56.686258 92.404297 58.154297 C 89.46822 61.090374 89.46822 66.665485 92.404297 69.601562 C 93.663504 70.860785 96.238127 71.890625 98.126953 71.890625 C 105.13762 71.890625 108.80028 63.102997 103.85156 58.154297 C 102.38352 56.686258 100.25479 55.951172 98.126953 55.951172 z M 143.05859 61.853516 C 141.4556 61.959917 141.10742 62.780126 141.10742 64.996094 C 141.10742 66.91907 141.57261 68.955492 142.14062 69.523438 C 142.70864 70.091442 144.51088 70.36499 146.14648 70.130859 C 148.23376 69.832069 149.12109 68.619 149.12109 66.0625 C 149.12109 63.172069 148.29276 62.324823 145.11328 61.958984 C 144.26682 61.861588 143.59292 61.818049 143.05859 61.853516 z M 84.019531 78.505859 C 81.357376 78.558297 78.468631 81.879873 79.433594 84.394531 C 80.693055 87.676633 86.383967 86.340257 86.912109 82.638672 C 87.161757 80.889028 86.390855 79.177313 85.134766 78.695312 C 84.775529 78.55746 84.399839 78.498368 84.019531 78.505859 z M 155.24414 79.451172 C 152.74447 79.366926 151.1747 82.361654 153.06445 84.638672 C 153.94021 85.693878 155.37839 86.316851 156.25977 86.023438 C 158.90848 85.141666 158.98233 80.691771 156.36523 79.6875 C 155.97758 79.538742 155.60124 79.463207 155.24414 79.451172 z M 174.40234 89.351562 C 169.47578 89.24977 164.48683 90.349557 159.91211 92.765625 C 151.85565 97.020528 144.92233 107.52582 145.20508 115.04688 C 145.31248 117.90365 144.10642 122.77592 142.52539 125.875 C 140.94436 128.97407 139.65039 132.63082 139.65039 134.00195 C 139.65039 137.06859 143.77262 141.82422 146.43164 141.82422 C 147.62894 141.82422 148.39258 143.49136 148.39258 146.10938 C 148.39258 148.46604 149.04829 150.79968 149.84961 151.29492 C 150.65093 151.79017 151.30664 153.84563 151.30664 155.86328 C 151.30664 157.9753 153.11258 161.33915 155.56445 163.79102 C 160.43792 168.66449 167.64744 169.46803 174.53516 165.90625 C 180.49949 162.82197 192.5297 148.7998 198.14453 138.38867 C 202.31168 130.66186 202.97567 128.01484 203 119.00781 C 203.02497 109.75266 202.53189 107.86393 198.63672 102.25391 C 192.98734 94.117348 183.80759 89.545895 174.40234 89.351562 z M 92.398438 96.875 C 82.701322 96.890157 73.188795 100.45542 65.703125 107.35547 C 55.832765 116.45365 53.048881 122.89037 53.001953 136.72461 C 52.966216 147.26003 53.495217 149.49973 58.515625 160.03516 C 68.476597 180.93849 84.352906 198.99849 96.931641 203.73633 C 106.47789 207.33207 115.34571 204.18889 120.77344 195.28711 C 122.33483 192.72638 123.61623 189.25798 123.61914 187.57812 C 123.62214 185.89827 124.65236 182.46084 125.91016 179.93945 C 127.16797 177.41821 127.82691 174.1857 127.37305 172.75586 C 126.74334 170.77179 128.01277 169.47456 132.73438 167.28125 C 140.76349 163.55162 141.18351 160.24075 135.25781 147.38477 C 131.67825 139.61888 130.8257 136.17043 131.54102 132.35742 C 133.36677 122.62533 124.39404 108.66201 111.9707 101.90039 C 105.75313 98.516362 99.033306 96.86463 92.398438 96.875 z "
           style="fill:#001d4d;fill-opacity:1" />
      </g>
    </g>
    <g
       id="g4263"
       transform="matrix(1.456944,0,0,1.456944,-60.736476,-491.22031)"
       style="fill:#ffffff;fill-opacity:1">
      <path
         id="path4265"
         d="m 108.21798,1023.594 c -8.633643,-3.2519 -19.529824,-15.6473 -26.366718,-29.99468 -3.445848,-7.23118 -3.809605,-8.76882 -3.785076,-16 0.03221,-9.49538 1.942644,-13.91301 8.717345,-20.15771 8.653349,-7.97638 21.252879,-9.46203 31.757599,-3.74464 8.52698,4.64096 14.68469,14.22462 13.43155,20.90442 -0.49097,2.61713 0.0946,4.98448 2.5515,10.31474 4.06721,8.82394 3.77908,11.09595 -1.73185,13.65585 -3.24076,1.50542 -4.11255,2.39542 -3.68034,3.75722 0.31152,0.9814 -0.13996,3.2004 -1.00328,4.9309 -0.86331,1.7306 -1.57134,4.0899 -1.5734,5.2429 -0.002,1.153 -0.88057,3.5344 -1.95226,5.292 -3.72542,6.1099 -9.81283,8.267 -16.36507,5.799 z"
         style="fill:#ffffff;fill-opacity:1"
         inkscape:connector-curvature="0" />
      <path
         id="path4267"
         d="m 148.46213,996.17624 c -1.68289,-1.68288 -2.92308,-3.99136 -2.92308,-5.44098 0,-1.38485 -0.45,-2.79602 -1,-3.13594 -0.55,-0.33992 -1,-1.94148 -1,-3.55902 0,-1.79692 -0.52322,-2.94098 -1.34501,-2.94098 -1.82507,0 -4.65499,-3.26374 -4.65499,-5.36858 0,-0.9411 0.88786,-3.45146 1.97303,-5.57856 1.08517,-2.12711 1.91273,-5.47175 1.83901,-7.43255 -0.19407,-5.16221 4.56554,-12.37224 10.09524,-15.29267 9.13438,-4.82418 20.67069,-1.99759 26.57934,6.51239 2.67352,3.85054 3.0112,5.14756 2.99406,11.5 -0.0167,6.18214 -0.47171,7.99882 -3.33191,13.30226 -3.85384,7.14587 -12.11129,16.76985 -16.20502,18.8868 -4.72751,2.44469 -9.67568,1.89283 -13.02067,-1.45217 z"
         style="fill:#ffffff;fill-opacity:1"
         inkscape:connector-curvature="0" />
      <path
         id="path4269"
         d="m 96.208816,941.68113 c -0.756937,-1.97255 1.939496,-4.66898 3.912044,-3.91204 0.86214,0.33083 1.39241,1.50661 1.22106,2.70751 -0.3625,2.54065 -4.26865,3.45726 -5.133104,1.20453 z"
         style="fill:#ffffff;fill-opacity:1"
         inkscape:connector-curvature="0" />
      <path
         id="path4271"
         d="m 146.74634,941.84909 c -1.48236,-1.78614 0.13711,-4.21533 2.26569,-3.39851 1.79629,0.6893 1.74509,3.74396 -0.0729,4.34918 -0.60495,0.20139 -1.59171,-0.22641 -2.1928,-0.95067 z"
         style="fill:#ffffff;fill-opacity:1"
         inkscape:connector-curvature="0" />
      <path
         id="path4273"
         d="m 105.11048,931.52789 c -2.01523,-2.01523 -2.01523,-5.84191 0,-7.85714 2.01523,-2.01523 5.84191,-2.01523 7.85714,0 3.39664,3.39663 0.88333,9.42857 -3.92857,9.42857 -1.29643,0 -3.06429,-0.70714 -3.92857,-1.57143 z"
         style="fill:#ffffff;fill-opacity:1"
         inkscape:connector-curvature="0" />
      <path
         id="path4275"
         d="m 139.2479,931.47479 c -0.38987,-0.38982 -0.70885,-1.78869 -0.70885,-3.10856 0,-2.02796 0.42606,-2.35073 2.75,-2.08333 2.18229,0.2511 2.75,0.83252 2.75,2.81642 0,1.7547 -0.60851,2.5871 -2.04115,2.79218 -1.12263,0.1607 -2.36013,-0.0268 -2.75,-0.41666 z"
         style="fill:#ffffff;fill-opacity:1"
         inkscape:connector-curvature="0" />
      <path
         id="path4277"
         d="m 123.11048,926.52785 c -2.28191,-2.2819 -1.92787,-5.14892 0.86151,-6.97659 4.48852,-2.94099 9.01992,1.68172 6.06669,6.18892 -1.78381,2.72244 -4.66578,3.05009 -6.9282,0.78767 z"
         style="fill:#ffffff;fill-opacity:1"
         inkscape:connector-curvature="0" />
    </g>
  </g>
</svg>
