<?xml version="1.0" encoding="UTF-8" standalone="no"?>
<!-- Created with Inkscape (http://www.inkscape.org/) -->

<svg
   xmlns:dc="http://purl.org/dc/elements/1.1/"
   xmlns:cc="http://creativecommons.org/ns#"
   xmlns:rdf="http://www.w3.org/1999/02/22-rdf-syntax-ns#"
   xmlns:svg="http://www.w3.org/2000/svg"
   xmlns="http://www.w3.org/2000/svg"
   xmlns:sodipodi="http://sodipodi.sourceforge.net/DTD/sodipodi-0.dtd"
   xmlns:inkscape="http://www.inkscape.org/namespaces/inkscape"
   sodipodi:docname="tools-report-bug.svg"
   inkscape:version="0.92.2 (5c3e80d, 2017-08-06)"
   version="1.1"
   id="svg2"
   viewBox="0 0 256 256"
   height="256"
   width="256">
  <sodipodi:namedview
     inkscape:window-maximized="1"
     inkscape:window-y="0"
     inkscape:window-x="0"
     inkscape:window-height="1048"
     inkscape:window-width="1920"
     units="px"
     showgrid="true"
     inkscape:current-layer="layer1"
     inkscape:document-units="px"
     inkscape:cy="127.99998"
     inkscape:cx="128"
     inkscape:zoom="3.3125"
     inkscape:pageshadow="2"
     inkscape:pageopacity="0.0"
     borderopacity="1.0"
     bordercolor="#666666"
     pagecolor="#ffffff"
     id="base">
    <inkscape:grid
       type="xygrid"
       id="grid4168"
       spacingx="5"
       spacingy="5" />
  </sodipodi:namedview>
  <defs
     id="defs4">
    <clipPath
       clipPathUnits="userSpaceOnUse"
       id="clipPath5002">
      <g
         id="g5004">
        <path
           transform="translate(0,796.36216)"
           inkscape:connector-curvature="0"
           id="path5006"
           d="M 88.118406,249.43519 C 46.103287,235.29134 14.771284,201.68742 4.1335861,159.36053 1.3377997,148.23623 0.92261224,144.16281 0.92582381,127.88908 0.92787958,117.47222 1.134384,112.01362 1.6577819,108.54099 4.4653598,89.913336 12.17654,70.638106 23.042737,55.086148 c 3.958678,-5.665755 8.344812,-10.93092 9.101533,-10.925587 0.32809,0.0023 10.488643,18.309713 22.579009,40.683112 12.090365,22.373397 22.374546,41.334697 22.853732,42.136217 0.479186,0.80151 0.924733,2.44098 0.990103,3.64326 0.343424,6.31639 2.524175,14.20976 5.6424,20.42304 2.954444,5.88693 5.065381,8.73258 10.434696,14.06652 6.71418,6.66995 12.88853,10.28643 21.73204,12.72904 3.16587,0.87442 5.10478,1.05037 11.57517,1.05037 8.82596,0 12.60219,-0.76201 19.26429,-3.88733 2.04584,-0.95974 3.93661,-1.66536 4.20172,-1.56805 0.2651,0.0973 -11.0555,17.66459 -25.1569,39.0384 l -25.6389,38.86148 -3.094121,0.11221 c -2.554618,0.0927 -4.195204,-0.25845 -9.409103,-2.01364 z"
           style="fill:#0f9d58;fill-opacity:1;stroke:none;stroke-width:4.85768509;stroke-linejoin:round;stroke-miterlimit:4;stroke-dasharray:none;stroke-opacity:1" />
        <path
           inkscape:connector-curvature="0"
           id="path5008"
           d="m 112.35984,1051.5167 c -10.0014,-1.4495 -12.15632,-1.8201 -12.531784,-2.1556 -0.248854,-0.2223 1.738304,-3.7475 4.550294,-8.0722 7.16635,-11.0213 49.77231,-74.64801 50.25856,-75.05489 3.57509,-2.99158 8.63523,-8.0414 10.57512,-10.55356 3.36154,-4.35318 7.55784,-12.9141 9.06523,-18.494 6.19314,-22.92535 -2.59253,-47.15185 -21.69967,-59.83688 l -2.96081,-1.96565 17.02469,0.29584 c 9.36358,0.1627 31.17032,0.43384 48.45941,0.60252 l 31.43471,0.30668 1.54584,4.18869 c 2.24597,6.08579 4.67816,15.0947 5.93451,21.9816 1.52517,8.36049 1.92536,28.85896 0.73851,37.82758 -3.0805,23.27845 -12.81326,45.72018 -27.80202,64.10577 -20.47622,25.1166 -51.4599,42.1974 -84.14612,46.3885 -5.31244,0.6812 -26.64601,0.9864 -30.44647,0.4356 z"
           style="fill:#f4b400;fill-opacity:1;stroke:none;stroke-width:4.85768509;stroke-linejoin:round;stroke-miterlimit:4;stroke-dasharray:none;stroke-opacity:1" />
        <path
           transform="translate(0,796.36216)"
           inkscape:connector-curvature="0"
           id="path5010"
           d="M 67.989788,108.87302 C 41.284246,59.575543 33.290284,45.149038 32.233625,44.344765 31.651257,43.901497 32.811213,42.549931 38.695603,36.815353 53.43581,22.450419 68.809334,13.040746 87.839196,6.7360352 101.68742,2.1480329 112.58238,0.43719165 127.95142,0.43719165 c 21.3099,0 37.80488,3.80960275 56.83492,13.12633035 25.29351,12.383198 46.19421,33.578863 58.51993,59.345832 1.61138,3.368591 2.92978,6.372442 2.92978,6.675231 0,0.560033 -10.54865,0.49527 -71.16508,-0.436914 l -24.28843,-0.373518 -3.93063,-1.764495 c -6.75732,-3.033425 -10.64587,-3.839529 -18.6576,-3.867747 -5.0296,-0.01773 -7.97946,0.207636 -10.31642,0.788106 -14.50826,3.603659 -26.283291,12.94777 -33.291614,26.418653 -3.58502,6.89086 -5.24713,13.08166 -6.331628,23.58317 l -0.33738,3.26696 -9.92748,-18.32578 z"
           style="fill:#db4437;fill-opacity:1;stroke:none;stroke-width:10;stroke-linejoin:round;stroke-miterlimit:4;stroke-dasharray:none;stroke-opacity:1" />
      </g>
    </clipPath>
    <clipPath
       id="clipPath4271"
       clipPathUnits="userSpaceOnUse">
      <circle
         r="128"
         cy="128.00002"
         cx="128"
         id="circle4273"
         style="fill:#292929;fill-opacity:0.26020412;stroke:none;stroke-width:10;stroke-linejoin:round;stroke-miterlimit:4;stroke-dasharray:none;stroke-opacity:0.25882353" />
    </clipPath>
    <clipPath
       clipPathUnits="userSpaceOnUse"
       id="clipPath4363">
      <circle
         r="128"
         cy="924.36218"
         cx="128"
         id="circle4365"
         style="fill:#4285f4;fill-opacity:1;stroke:none;stroke-width:10;stroke-linejoin:round;stroke-miterlimit:4;stroke-dasharray:none;stroke-opacity:0.25882353" />
    </clipPath>
    <clipPath
       id="clipPath4452"
       clipPathUnits="userSpaceOnUse">
      <circle
         r="128"
         cy="924.36218"
         cx="128"
         id="circle4454"
         style="fill:#4285f4;fill-opacity:1;stroke:none;stroke-width:10;stroke-linejoin:round;stroke-miterlimit:4;stroke-dasharray:none;stroke-opacity:0.25882353" />
    </clipPath>
    <clipPath
       clipPathUnits="userSpaceOnUse"
       id="clipPath5177">
      <circle
         r="128"
         cy="924.36218"
         cx="128"
         id="circle5179"
         style="fill:#4285f4;fill-opacity:1;stroke:none;stroke-width:10;stroke-linejoin:round;stroke-miterlimit:4;stroke-dasharray:none;stroke-opacity:0.25882353" />
    </clipPath>
    <clipPath
       id="clipPath4342"
       clipPathUnits="userSpaceOnUse">
      <circle
         r="128"
         cy="933.48718"
         cx="128"
         id="circle4344"
         style="fill:#4285f4;fill-opacity:1;stroke:none;stroke-width:10;stroke-linejoin:round;stroke-miterlimit:4;stroke-dasharray:none;stroke-opacity:0.25882353" />
    </clipPath>
    <clipPath
       clipPathUnits="userSpaceOnUse"
       id="clipPath4681">
      <circle
         r="128"
         cy="930.43964"
         cx="127.00293"
         id="circle4683"
         style="fill:#9d5fad;fill-opacity:1;stroke:none;stroke-width:10;stroke-linejoin:round;stroke-miterlimit:4;stroke-dasharray:none;stroke-opacity:0.25882353" />
    </clipPath>
    <clipPath
       id="clipPath4235"
       clipPathUnits="userSpaceOnUse">
      <circle
         r="128"
         cy="924.36218"
         cx="128"
         id="circle4237"
         style="fill:#0f9d58;fill-opacity:1;stroke:none;stroke-width:10;stroke-linejoin:round;stroke-miterlimit:4;stroke-dasharray:none;stroke-opacity:0.25882353" />
    </clipPath>
    <clipPath
       clipPathUnits="userSpaceOnUse"
       id="clipPath4771">
      <circle
         r="128"
         cy="924.36218"
         cx="128"
         id="circle4773"
         style="fill:#0f9d58;fill-opacity:1;stroke:none;stroke-width:10;stroke-linejoin:round;stroke-miterlimit:4;stroke-dasharray:none;stroke-opacity:0.25882353" />
    </clipPath>
    <clipPath
       id="clipPath4842"
       clipPathUnits="userSpaceOnUse">
      <circle
         r="128"
         cy="924.36218"
         cx="128"
         id="circle4844"
         style="fill:#0f9d58;fill-opacity:1;stroke:none;stroke-width:10;stroke-linejoin:round;stroke-miterlimit:4;stroke-dasharray:none;stroke-opacity:0.25882353" />
    </clipPath>
    <clipPath
       clipPathUnits="userSpaceOnUse"
       id="clipPath4458">
      <circle
         r="128"
         cy="924.36218"
         cx="128"
         id="circle4460"
         style="fill:#ff3b38;fill-opacity:1;stroke:none;stroke-width:10;stroke-linejoin:round;stroke-miterlimit:4;stroke-dasharray:none;stroke-opacity:0.25882353" />
    </clipPath>
    <clipPath
       id="clipPath4783"
       clipPathUnits="userSpaceOnUse">
      <circle
         r="128"
         cy="924.36218"
         cx="128"
         id="circle4785"
         style="fill:#ff3b38;fill-opacity:1;stroke:none;stroke-width:10;stroke-linejoin:round;stroke-miterlimit:4;stroke-dasharray:none;stroke-opacity:0.25882353" />
    </clipPath>
    <clipPath
       clipPathUnits="userSpaceOnUse"
       id="clipPath4789">
      <circle
         r="128"
         cy="924.36218"
         cx="102.64714"
         id="circle4791"
         style="fill:#80b4ff;fill-opacity:1;stroke:none;stroke-width:10;stroke-linejoin:round;stroke-miterlimit:4;stroke-dasharray:none;stroke-opacity:0.25882353" />
    </clipPath>
    <clipPath
       id="clipPath4721"
       clipPathUnits="userSpaceOnUse">
      <circle
         r="128"
         cy="924.36218"
         cx="128"
         id="circle4723"
         style="fill:#557ae6;fill-opacity:1;stroke:none;stroke-width:10;stroke-linejoin:round;stroke-miterlimit:4;stroke-dasharray:none;stroke-opacity:0.25882353" />
    </clipPath>
    <clipPath
       clipPathUnits="userSpaceOnUse"
       id="clipPath4491">
      <circle
         r="128"
         cy="924.36218"
         cx="128"
         id="circle4493"
         style="fill:#990000;fill-opacity:1;stroke:none;stroke-width:10;stroke-linejoin:round;stroke-miterlimit:4;stroke-dasharray:none;stroke-opacity:0.25882353" />
    </clipPath>
    <clipPath
       id="clipPath1102"
       clipPathUnits="userSpaceOnUse">
      <circle
         r="128"
         cy="924.36218"
         cx="128"
         id="circle1104"
         style="fill:#b40000;fill-opacity:1;stroke:none;stroke-width:10;stroke-linejoin:round;stroke-miterlimit:4;stroke-dasharray:none;stroke-opacity:0.25882353" />
    </clipPath>
    <clipPath
       id="clipPath1102-3"
       clipPathUnits="userSpaceOnUse">
      <circle
         r="128"
         cy="924.36218"
         cx="128"
         id="circle1104-6"
         style="fill:#b40000;fill-opacity:1;stroke:none;stroke-width:10;stroke-linejoin:round;stroke-miterlimit:4;stroke-dasharray:none;stroke-opacity:0.25882353" />
    </clipPath>
    <clipPath
       clipPathUnits="userSpaceOnUse"
       id="clipPath1469">
      <circle
         style="fill:#f93436;fill-opacity:1;stroke:none;stroke-width:7.15706539;stroke-linejoin:round;stroke-miterlimit:4;stroke-dasharray:none;stroke-opacity:0.25882353"
         id="circle1471"
         cx="178.26849"
         cy="933.19714"
         r="91.610435" />
    </clipPath>
  </defs>
  <metadata
     id="metadata7">
    <rdf:RDF>
      <cc:Work
         rdf:about="">
        <dc:format>image/svg+xml</dc:format>
        <dc:type
           rdf:resource="http://purl.org/dc/dcmitype/StillImage" />
        <dc:title />
      </cc:Work>
    </rdf:RDF>
  </metadata>
  <g
     transform="translate(0,-796.36216)"
     id="layer1"
     inkscape:groupmode="layer"
     inkscape:label="Layer 1">
    <circle
       r="128"
       cy="924.36218"
       cx="128"
       id="circle881"
       style="fill:#bd0006;fill-opacity:1;stroke:none;stroke-width:10;stroke-linejoin:round;stroke-miterlimit:4;stroke-dasharray:none;stroke-opacity:0.25882353" />
    <g
       id="g911"
       style="fill:#7b0004;fill-opacity:1"
       transform="matrix(1.3972207,0,0,1.3972207,-121.08043,-379.52019)"
       clip-path="url(#clipPath1469)">
      <g
         id="g1262"
         transform="matrix(0.71570655,0,0,0.71570655,86.658056,841.58669)"
         style="fill:#7b0004;fill-opacity:1">
        <g
           id="g1259"
           style="fill:#7b0004;fill-opacity:1;stroke:none;stroke-width:13.97220707;stroke-linejoin:round;stroke-miterlimit:4;stroke-dasharray:none;stroke-opacity:0.25882353">
          <path
             id="path961"
             d="M186.30859 43.0C185.12944 42.990219 183.28933 43.567607 179.50391 45.039062L38.0825537627 186.460418237C41.8679737627 184.988963237 43.7080837627 184.411575237 44.8872337627 184.421356237Z"
             style="fill:#7b0004;fill-opacity:1" />
          <path
             id="path963"
             d="M179.50391 45.039062C169.16224 49.059467 160.7802 53.751295 153.04297 59.84375L11.6216137627 201.265106237C19.3588437627 195.172651237 27.7408837627 190.480823237 38.0825537627 186.460418237Z"
             style="fill:#7b0004;fill-opacity:1" />
          <path
             id="path965"
             d="M153.04297 59.84375C151.446463116 61.1008964372 149.475876689 62.9139422021 147.429959933 64.9598589576L6.00860369613 206.381215195C8.05452045171 204.335298439 10.0251068787 202.522252675 11.6216137627 201.265106237Z"
             style="fill:#7b0004;fill-opacity:1" />
          <path
             id="path967"
             d="M147.429959933 64.9598589576C143.120593357 69.2692255336 138.477015719 74.6117491758 136.29102 77.96875L-5.13033623731 219.390106237C-2.94434051845 216.033105413 1.69923712017 210.690581771 6.00860369613 206.381215195Z"
             style="fill:#7b0004;fill-opacity:1" />
          <path
             id="path969"
             d="M136.29102 77.96875C134.79209 80.270517 133.40561 82.375745 133.21094 82.646484L-8.21041623731 224.067840237C-8.01574623731 223.797101237 -6.62926623731 221.691873237 -5.13033623731 219.390106237Z"
             style="fill:#7b0004;fill-opacity:1" />
          <path
             id="path971"
             d="M133.21094 82.646484C133.206796292 82.6522409838 133.20192676 82.6579107227 133.196344841 82.663492642L-8.22501139637 224.084848879C-8.21942947709 224.07926696 -8.21455994499 224.073597221 -8.21041623731 224.067840237Z"
             style="fill:#7b0004;fill-opacity:1" />
          <path
             id="path973"
             d="M133.196344841 82.663492642C132.939541881 82.9202956016 131.174920536 82.9912220654 129.21094 82.820312L-12.2104162373 224.241668237C-10.2464357017 224.412578303 -8.48181435593 224.341651839 -8.22501139637 224.084848879Z"
             style="fill:#7b0004;fill-opacity:1" />
          <path
             id="path975"
             d="M129.21094 82.820312C127.20436 82.6458 124.40954 82.772632 123.0 83.099609L-18.4213562373 224.520965237C-17.0118162373 224.193988237 -14.2169962373 224.067156237 -12.2104162373 224.241668237Z"
             style="fill:#7b0004;fill-opacity:1" />
          <path
             id="path977"
             d="M123.0 83.099609C121.29627 83.49466 120.30698 83.428037 120.05469 82.900391L-21.3666662373 224.321747237C-21.1143762373 224.849393237 -20.1250862373 224.916016237 -18.4213562373 224.520965237Z"
             style="fill:#7b0004;fill-opacity:1" />
          <path
             id="path979"
             d="M120.05469 82.900391C119.84589 82.463759 118.15646 80.129356 116.29883 77.712891L-25.1225262373 219.134247237C-23.2648962373 221.550712237 -21.5754662373 223.885115237 -21.3666662373 224.321747237Z"
             style="fill:#7b0004;fill-opacity:1" />
          <path
             id="path981"
             d="M116.29883 77.712891C111.68431 71.710165 100.91239 62.094896 94.310547 58.087891L-47.1108092373 199.509247237C-40.5089662373 203.516252237 -29.7370462373 213.131521237 -25.1225262373 219.134247237Z"
             style="fill:#7b0004;fill-opacity:1" />
          <path
             id="path983"
             d="M94.310547 58.087891C87.57164 53.997639 79.532617 50.39213 71.466797 47.841797L-69.9545592373 189.263153237C-61.8887392373 191.813486237 -53.8497162373 195.418995237 -47.1108092373 199.509247237Z"
             style="fill:#7b0004;fill-opacity:1" />
          <path
             id="path985"
             d="M71.466797 47.841797C65.709605 46.021372 64.160832 45.7503 62.839844 46.339844L-78.5815122373 187.761200237C-77.2605242373 187.171656237 -75.7117512373 187.442728237 -69.9545592373 189.263153237Z"
             style="fill:#7b0004;fill-opacity:1" />
          <path
             id="path987"
             d="M62.839844 46.339844C62.2086096477 46.6215494577 61.6723752272 46.9946516478 61.2367208418 47.4303060332L-80.1846353955 188.851662271C-79.7489810101 188.416007885 -79.2127465896 188.042905695 -78.5815122373 187.761200237Z"
             style="fill:#7b0004;fill-opacity:1" />
          <path
             id="path989"
             d="M61.2367208418 47.4303060332C59.4426597905 49.2243670846 59.3542963399 52.0792264262 61.361328 53.980469L-80.0600282373 195.401825237C-82.0670598974 193.500582664 -81.9786964468 190.645723322 -80.1846353955 188.851662271Z"
             style="fill:#7b0004;fill-opacity:1" />
          <path
             id="path991"
             d="M61.361328 53.980469C62.266853 54.83825 65.087473 56.121661 68.845703 57.386719L-72.5756532373 198.808075237C-76.3338832373 197.543017237 -79.1545032373 196.259606237 -80.0600282373 195.401825237Z"
             style="fill:#7b0004;fill-opacity:1" />
          <path
             id="path993"
             d="M68.845703 57.386719C76.709345 60.033656 82.814491 62.792695 88.962891 66.474609L-52.4584652373 207.895965237C-58.6068652373 204.214051237 -64.7120112373 201.455012237 -72.5756532373 198.808075237Z"
             style="fill:#7b0004;fill-opacity:1" />
          <path
             id="path995"
             d="M88.962891 66.474609C93.077971 68.938929 95.113556 70.562025 100.68555 75.830078L-40.7358062373 217.251434237C-46.3078002373 211.983381237 -48.3433852373 210.360285237 -52.4584652373 207.895965237Z"
             style="fill:#7b0004;fill-opacity:1" />
          <path
             id="path997"
             d="M100.68555 75.830078C104.83102 79.749324 108.26192 83.389388 109.5918 85.279297L-31.8295562373 226.700653237C-33.1594362373 224.810744237 -36.5903362373 221.170680237 -40.7358062373 217.251434237Z"
             style="fill:#7b0004;fill-opacity:1" />
          <path
             id="path999"
             d="M109.5918 85.279297L111.75391 88.351562L-29.6674462373 229.772918237L-31.8295562373 226.700653237Z"
             style="fill:#7b0004;fill-opacity:1" />
          <path
             id="path1001"
             d="M111.75391 88.351562L109.98828 90.21875L-31.4330762373 231.640106237L-29.6674462373 229.772918237Z"
             style="fill:#7b0004;fill-opacity:1" />
          <path
             id="path1003"
             d="M109.98828 90.21875C107.80085 92.527937 105.62336 96.738722 105.00781 99.851562L-36.4135462373 241.272918237C-35.7979962373 238.160078237 -33.6205062373 233.949293237 -31.4330762373 231.640106237Z"
             style="fill:#7b0004;fill-opacity:1" />
          <path
             id="path1005"
             d="M105.00781 99.851562C104.4706 102.56779 104.92199 107.27492 105.80078 108.10742L-35.6205762373 249.528776237C-36.4993662373 248.696276237 -36.9507562373 243.989146237 -36.4135462373 241.272918237Z"
             style="fill:#7b0004;fill-opacity:1" />
          <path
             id="path1007"
             d="M105.80078 108.10742C106.60059369 108.865075633 148.245076274 107.725666659 149.045663071 106.925079862L7.62430683366 248.3464361C6.82372003664 249.147022897 -34.8207625476 250.286431871 -35.6205762373 249.528776237Z"
             style="fill:#7b0004;fill-opacity:1" />
          <path
             id="path1009"
             d="M149.045663071 106.925079862C149.046079784 106.92466315 149.04648543 106.924246529 149.04688 106.92383L7.62552376269 248.345186237C7.62512919318 248.345602766 7.62472354634 248.346019387 7.62430683366 248.3464361Z"
             style="fill:#7b0004;fill-opacity:1" />
          <path
             id="path1011"
             d="M149.04688 106.92383C149.37243 106.58017 149.70678 104.96132 149.78906 103.32812L8.36770376269 244.749476237C8.28542376269 246.382676237 7.95107376269 248.001526237 7.62552376269 248.345186237Z"
             style="fill:#7b0004;fill-opacity:1" />
          <path
             id="path1013"
             d="M149.78906 103.32812C150.00008 99.145182 147.97834 93.981595 144.68164 90.289062L3.26028376269 231.710418237C6.55698376269 235.402951237 8.57872376269 240.566538237 8.36770376269 244.749476237Z"
             style="fill:#7b0004;fill-opacity:1" />
          <path
             id="path1015"
             d="M144.68164 90.289062L142.07227 87.367188L0.650913762691 228.788544237L3.26028376269 231.710418237Z"
             style="fill:#7b0004;fill-opacity:1" />
          <path
             id="path1017"
             d="M142.07227 87.367188L143.66602 84.660156L2.24466376269 226.081512237L0.650913762691 228.788544237Z"
             style="fill:#7b0004;fill-opacity:1" />
          <path
             id="path1019"
             d="M143.66602 84.660156C144.68803 82.923816 147.82372 79.262924 152.41406 74.449219L10.9927037627 215.870575237C6.40236376269 220.684280237 3.26667376269 224.345172237 2.24466376269 226.081512237Z"
             style="fill:#7b0004;fill-opacity:1" />
          <path
             id="path1021"
             d="M152.41406 74.449219C153.977634583 72.8093302965 155.264031489 71.4798276141 156.374798097 70.3690610066L14.9534418596 211.790417244C13.8426752522 212.901183851 12.5562783454 214.230686534 10.9927037627 215.870575237Z"
             style="fill:#7b0004;fill-opacity:1" />
          <path
             id="path1023"
             d="M156.374798097 70.3690610066C159.482256852 67.2616022512 161.215152901 65.8660716344 163.79688 64.175781L22.3755237627 205.597137237C19.7937966633 207.287427872 18.0609006151 208.682958488 14.9534418596 211.790417244Z"
             style="fill:#7b0004;fill-opacity:1" />
          <path
             id="path1025"
             d="M163.79688 64.175781C169.59635 60.378652 177.37278 56.424767 183.74023 54.035156L42.3188737627 195.456512237C35.9514237627 197.846123237 28.1749937627 201.800008237 22.3755237627 205.597137237Z"
             style="fill:#7b0004;fill-opacity:1" />
          <path
             id="path1027"
             d="M183.74023 54.035156C186.770869244 52.8977465282 188.473889123 52.1148296924 189.409429452 51.1792893633L47.988073215 192.600645601C47.052532886 193.53618593 45.3495130067 194.319102766 42.3188737627 195.456512237Z"
             style="fill:#7b0004;fill-opacity:1" />
          <path
             id="path1029"
             d="M189.409429452 51.1792893633C190.244005682 50.3447131334 190.467817383 49.3886782718 190.47852 47.951172L49.0571637627 189.372528237C49.0464611452 190.810034509 48.8226494449 191.766069371 47.988073215 192.600645601Z"
             style="fill:#7b0004;fill-opacity:1" />
          <path
             id="path1031"
             d="M190.47852 47.951172C190.49389 45.889671 189.2321 43.992863 187.31445 43.193359L45.8930937627 184.614715237C47.8107437627 185.414219237 49.0725337627 187.311027237 49.0571637627 189.372528237Z"
             style="fill:#7b0004;fill-opacity:1" />
          <path
             id="path1033"
             d="M187.31445 43.193359C187.01961 43.070404 186.70163 43.003451 186.30859 43.0L44.8872337627 184.421356237C45.2802737627 184.424807237 45.5982537627 184.491760237 45.8930937627 184.614715237Z"
             style="fill:#7b0004;fill-opacity:1" />
          <path
             id="path1035"
             d="M186.80273 81.712891C184.99938 81.657142 182.52324 83.365099 175.38477 88.822266L33.9634137627 230.243622237C41.1018837627 224.786455237 43.5780237627 223.078498237 45.3813737627 223.134247237Z"
             style="fill:#7b0004;fill-opacity:1" />
          <path
             id="path1037"
             d="M175.38477 88.822266L166.30273 95.763672L24.8813737627 237.185028237L33.9634137627 230.243622237Z"
             style="fill:#7b0004;fill-opacity:1" />
          <path
             id="path1039"
             d="M166.30273 95.763672L166.49805 103.53125L25.0766937627 244.952606237L24.8813737627 237.185028237Z"
             style="fill:#7b0004;fill-opacity:1" />
          <path
             id="path1041"
             d="M166.49805 103.53125L166.69727 111.29688L25.2759137627 252.718236237L25.0766937627 244.952606237Z"
             style="fill:#7b0004;fill-opacity:1" />
          <path
             id="path1043"
             d="M166.69727 111.29688L127.53516 112.35547L-13.8861962373 253.776826237L25.2759137627 252.718236237Z"
             style="fill:#7b0004;fill-opacity:1" />
          <path
             id="path1045"
             d="M127.53516 112.35547L88.371094 113.41211L-53.0502622373 254.833466237L-13.8861962373 253.776826237Z"
             style="fill:#7b0004;fill-opacity:1" />
          <path
             id="path1047"
             d="M88.371094 113.41211L88.21875 106.44336L-53.2026062373 247.864716237L-53.0502622373 254.833466237Z"
             style="fill:#7b0004;fill-opacity:1" />
          <path
             id="path1049"
             d="M88.21875 106.44336C88.133939 102.60951 87.929184 99.048543 87.765625 98.53125L-53.6557312373 239.952606237C-53.4921722373 240.469899237 -53.2874172373 244.030866237 -53.2026062373 247.864716237Z"
             style="fill:#7b0004;fill-opacity:1" />
          <path
             id="path1051"
             d="M87.765625 98.53125C87.428699 97.465757 69.415835 85.017866 67.421875 84.472656L-73.9994812373 225.894012237C-72.0055212373 226.439222237 -53.9926572373 238.887113237 -53.6557312373 239.952606237Z"
             style="fill:#7b0004;fill-opacity:1" />
          <path
             id="path1053"
             d="M67.421875 84.472656C65.4975339187 83.9464011446 63.7372778402 84.4300585045 62.5885535621 85.5787827826L-78.8328026753 227.00013902C-77.6840783971 225.851414742 -75.9238223186 225.367757382 -73.9994812373 225.894012237Z"
             style="fill:#7b0004;fill-opacity:1" />
          <path
             id="path1055"
             d="M62.5885535621 85.5787827826C61.7070854851 86.4602508596 61.185698754 87.7333227597 61.226562 89.242188L-80.1947942373 230.663544237C-80.2356574833 229.154678997 -79.7142707522 227.881607097 -78.8328026753 227.00013902Z"
             style="fill:#7b0004;fill-opacity:1" />
          <path
             id="path1057"
             d="M61.226562 89.242188C61.295725 91.797159 61.172627 91.679697 70.876953 98.257812L-70.5444032373 239.679168237C-80.2487292373 233.101053237 -80.1256312373 233.218515237 -80.1947942373 230.663544237Z"
             style="fill:#7b0004;fill-opacity:1" />
          <path
             id="path1059"
             d="M70.876953 98.257812C73.800889 100.23983 76.620615 102.26738 77.144531 102.76367L-64.2768252373 244.185026237C-64.8007412373 243.688736237 -67.6204672373 241.661186237 -70.5444032373 239.679168237Z"
             style="fill:#7b0004;fill-opacity:1" />
          <path
             id="path1061"
             d="M77.144531 102.76367C77.836128 103.41881 78.164819 106.30624 78.345703 113.30078L-63.0756532373 254.722136237C-63.2565372373 247.727596237 -63.5852282373 244.840166237 -64.2768252373 244.185026237Z"
             style="fill:#7b0004;fill-opacity:1" />
          <path
             id="path1063"
             d="M78.345703 113.30078C78.48291 118.5997 78.770974 123.10265 78.986328 123.30664L-62.4350282373 264.727996237C-62.6503822373 264.524006237 -62.9384462373 260.021056237 -63.0756532373 254.722136237Z"
             style="fill:#7b0004;fill-opacity:1" />
          <path
             id="path1065"
             d="M78.986328 123.30664C79.201682 123.51063 81.544928 123.63024 84.193359 123.57031L-57.2279972373 264.991666237C-59.8764282373 265.051596237 -62.2196742373 264.931986237 -62.4350282373 264.727996237Z"
             style="fill:#7b0004;fill-opacity:1" />
          <path
             id="path1067"
             d="M84.193359 123.57031L89.009766 123.46094L-52.4115902373 264.882296237L-57.2279972373 264.991666237Z"
             style="fill:#7b0004;fill-opacity:1" />
          <path
             id="path1069"
             d="M89.009766 123.46094L89.130859 126.52734L-52.2904972373 267.948696237L-52.4115902373 264.882296237Z"
             style="fill:#7b0004;fill-opacity:1" />
          <path
             id="path1071"
             d="M89.130859 126.52734L89.248047 129.5957L-52.1733092373 271.017056237L-52.2904972373 267.948696237Z"
             style="fill:#7b0004;fill-opacity:1" />
          <path
             id="path1073"
             d="M89.248047 129.5957L81.953125 129.85156L-59.4682312373 271.272916237L-52.1733092373 271.017056237Z"
             style="fill:#7b0004;fill-opacity:1" />
          <path
             id="path1075"
             d="M81.953125 129.85156L74.65625 130.10547L-66.7651062373 271.526826237L-59.4682312373 271.272916237Z"
             style="fill:#7b0004;fill-opacity:1" />
          <path
             id="path1077"
             d="M74.65625 130.10547L67.933594 139.09766L-73.4877622373 280.519016237L-66.7651062373 271.526826237Z"
             style="fill:#7b0004;fill-opacity:1" />
          <path
             id="path1079"
             d="M67.933594 139.09766C64.8054004851 143.281925817 61.9725320311 146.822589052 60.9815193815 147.813601702L-80.4398368558 289.234957939C-79.4488242062 288.24394529 -76.6159557522 284.703282054 -73.4877622373 280.519016237Z"
             style="fill:#7b0004;fill-opacity:1" />
          <path
             id="path1081"
             d="M60.9815193815 147.813601702C60.8011958624 147.993925221 60.6818543877 148.089832303 60.632812 148.08984L-80.7885442373 289.511196237C-80.7395018496 289.51118854 -80.6201603749 289.415281458 -80.4398368558 289.234957939Z"
             style="fill:#7b0004;fill-opacity:1" />
          <path
             id="path1083"
             d="M60.632812 148.08984C60.314246 148.0899 57.349653 146.75879 54.046875 145.13281L-87.3744812373 286.554166237C-84.0717032373 288.180146237 -81.1071102373 289.511256237 -80.7885442373 289.511196237Z"
             style="fill:#7b0004;fill-opacity:1" />
          <path
             id="path1085"
             d="M54.046875 145.13281C47.7101883882 142.01321465 45.5437412159 141.692765418 43.5668197622 143.669686872L-97.8545364751 285.091043109C-95.8776150214 283.114121655 -93.7111678491 283.434570887 -87.3744812373 286.554166237Z"
             style="fill:#7b0004;fill-opacity:1" />
          <path
             id="path1087"
             d="M43.5668197622 143.669686872C43.522330313 143.714176321 43.4779368487 143.75982927 43.433594 143.80664L-97.9877622373 285.227996237C-97.9434193886 285.181185507 -97.8990259243 285.135532558 -97.8545364751 285.091043109Z"
             style="fill:#7b0004;fill-opacity:1" />
          <path
             id="path1089"
             d="M43.433594 143.80664C41.906012 145.41923 41.84549 149.0229 43.320312 150.41992L-98.1010442373 291.841276237C-99.5758662373 290.444256237 -99.5153442373 286.840586237 -97.9877622373 285.227996237Z"
             style="fill:#7b0004;fill-opacity:1" />
          <path
             id="path1091"
             d="M43.320312 150.41992C44.593027 151.62554 62.865234 160.70032 63.707031 160.54492L-77.7143252373 301.966276237C-78.5561222373 302.121676237 -96.8283292373 293.046896237 -98.1010442373 291.841276237Z"
             style="fill:#7b0004;fill-opacity:1" />
          <path
             id="path1093"
             d="M63.707031 160.54492C63.7347102161 160.539803631 63.7969684765 160.488462266 63.8908986598 160.394532082L-77.5304575775 301.815888319C-77.6243877608 301.909818503 -77.6866460212 301.961159868 -77.7143252373 301.966276237Z"
             style="fill:#7b0004;fill-opacity:1" />
          <path
             id="path1095"
             d="M63.8908986598 160.394532082C64.7358353928 159.549595349 68.1435589035 155.258512973 71.998047 150.16797L-69.4233092373 291.589326237C-73.2777973338 296.67986921 -76.6855208445 300.970951586 -77.5304575775 301.815888319Z"
             style="fill:#7b0004;fill-opacity:1" />
          <path
             id="path1097"
             d="M71.998047 150.16797L79.783203 139.88281L-61.6381532373 281.304166237L-69.4233092373 291.589326237Z"
             style="fill:#7b0004;fill-opacity:1" />
          <path
             id="path1099"
             d="M79.783203 139.88281L84.630859 139.77344L-56.7904972373 281.194796237L-61.6381532373 281.304166237Z"
             style="fill:#7b0004;fill-opacity:1" />
          <path
             id="path1101"
             d="M84.630859 139.77344L89.476562 139.66406L-51.9447942373 281.085416237L-56.7904972373 281.194796237Z"
             style="fill:#7b0004;fill-opacity:1" />
          <path
             id="path1103"
             d="M89.476562 139.66406L89.591797 143.90625L-51.8295592373 285.327606237L-51.9447942373 281.085416237Z"
             style="fill:#7b0004;fill-opacity:1" />
          <path
             id="path1105"
             d="M89.591797 143.90625L89.707031 148.14844L-51.7143252373 289.569796237L-51.8295592373 285.327606237Z"
             style="fill:#7b0004;fill-opacity:1" />
          <path
             id="path1107"
             d="M89.707031 148.14844L80.972656 153.25195L-60.4487002373 294.673306237L-51.7143252373 289.569796237Z"
             style="fill:#7b0004;fill-opacity:1" />
          <path
             id="path1109"
             d="M80.972656 153.25195L72.238281 158.35352L-69.1830752373 299.774876237L-60.4487002373 294.673306237Z"
             style="fill:#7b0004;fill-opacity:1" />
          <path
             id="path1111"
             d="M72.238281 158.35352L72.603516 172.11523L-68.8178402373 313.536586237L-69.1830752373 299.774876237Z"
             style="fill:#7b0004;fill-opacity:1" />
          <path
             id="path1113"
             d="M72.603516 172.11523L72.966797 185.87695L-68.4545592373 327.298306237L-68.8178402373 313.536586237Z"
             style="fill:#7b0004;fill-opacity:1" />
          <path
             id="path1115"
             d="M72.966797 185.87695L71.283203 187.17383L-70.1381532373 328.595186237L-68.4545592373 327.298306237Z"
             style="fill:#7b0004;fill-opacity:1" />
          <path
             id="path1117"
             d="M71.283203 187.17383C70.356399 187.88647 65.115081 192.11319 59.636719 196.56445L-81.7846372373 337.985806237C-76.3062752373 333.534546237 -71.0649572373 329.307826237 -70.1381532373 328.595186237Z"
             style="fill:#7b0004;fill-opacity:1" />
          <path
             id="path1119"
             d="M59.636719 196.56445C54.4888725656 200.747246454 51.9772379294 202.815150233 50.6613728719 204.131015291L-90.7599833654 345.552371528C-89.4441183079 344.236506471 -86.9324836717 342.168602692 -81.7846372373 337.985806237Z"
             style="fill:#7b0004;fill-opacity:1" />
          <path
             id="path1121"
             d="M50.6613728719 204.131015291C49.5939465784 205.198441584 49.3133859301 205.770995417 49.050781 206.57617L-92.3705752373 347.997526237C-92.1079703072 347.192351655 -91.8274096589 346.619797822 -90.7599833654 345.552371528Z"
             style="fill:#7b0004;fill-opacity:1" />
          <path
             id="path1123"
             d="M49.050781 206.57617C48.336522 208.76619 49.22412 211.30019 51.072266 212.33984L-90.3490902373 353.761196237C-92.1972362373 352.721546237 -93.0848342373 350.187546237 -92.3705752373 347.997526237Z"
             style="fill:#7b0004;fill-opacity:1" />
          <path
             id="path1125"
             d="M51.072266 212.33984C53.330705 213.61035 54.869251 213.14998 58.710938 210.05469L-82.7104182373 351.476046237C-86.5521052373 354.571336237 -88.0906512373 355.031706237 -90.3490902373 353.761196237Z"
             style="fill:#7b0004;fill-opacity:1" />
          <path
             id="path1127"
             d="M58.710938 210.05469C60.698582 208.45318 67.004597 203.34568 72.724609 198.70312L-68.6967472373 340.124476237C-74.4167592373 344.767036237 -80.7227742373 349.874536237 -82.7104182373 351.476046237Z"
             style="fill:#7b0004;fill-opacity:1" />
          <path
             id="path1129"
             d="M72.724609 198.70312L83.123047 190.25977L-58.2983092373 331.681126237L-68.6967472373 340.124476237Z"
             style="fill:#7b0004;fill-opacity:1" />
          <path
             id="path1131"
             d="M83.123047 190.25977L82.818359 177.0625L-58.6029972373 318.483856237L-58.2983092373 331.681126237Z"
             style="fill:#7b0004;fill-opacity:1" />
          <path
             id="path1133"
             d="M82.818359 177.0625L82.511719 163.86328L-58.9096372373 305.284636237L-58.6029972373 318.483856237Z"
             style="fill:#7b0004;fill-opacity:1" />
          <path
             id="path1135"
             d="M82.511719 163.86328L86.039062 161.75L-55.3822942373 303.171356237L-58.9096372373 305.284636237Z"
             style="fill:#7b0004;fill-opacity:1" />
          <path
             id="path1137"
             d="M86.039062 161.75C87.977832 160.58855 89.70022 159.76958 89.867188 159.92773L-51.5541682373 301.349086237C-51.7211362373 301.190936237 -53.4435242373 302.009906237 -55.3822942373 303.171356237Z"
             style="fill:#7b0004;fill-opacity:1" />
          <path
             id="path1139"
             d="M89.867188 159.92773C90.034155 160.0859 90.134747 162.75951 90.091797 165.87109L-51.3295592373 307.292446237C-51.2866092373 304.180866237 -51.3872012373 301.507256237 -51.5541682373 301.349086237Z"
             style="fill:#7b0004;fill-opacity:1" />
          <path
             id="path1141"
             d="M90.091797 165.87109C89.908174 179.17625 93.601776 188.53222 102.28711 196.76562L-39.1342462373 338.186976237C-47.8195802373 329.953576237 -51.5131822373 320.597606237 -51.3295592373 307.292446237Z"
             style="fill:#7b0004;fill-opacity:1" />
          <path
             id="path1143"
             d="M102.28711 196.76562C107.00946 201.24288 111.90232 204.12399 117.77148 205.88086L-23.6498762373 347.302216237C-29.5190362373 345.545346237 -34.4118962373 342.664236237 -39.1342462373 338.186976237Z"
             style="fill:#7b0004;fill-opacity:1" />
          <path
             id="path1145"
             d="M117.77148 205.88086C121.411803343 206.970584181 126.775208746 207.381247302 127.523675772 206.632780276L-13.8976804657 348.054136514C-14.6461474913 348.802603539 -20.0095528942 348.391940418 -23.6498762373 347.302216237Z"
             style="fill:#7b0004;fill-opacity:1" />
          <path
             id="path1147"
             d="M127.523675772 206.632780276C127.526255421 206.630200627 127.528780251 206.627607208 127.53125 206.625L-13.8901062373 348.046356237C-13.8925759867 348.048963445 -13.895100816 348.051556864 -13.8976804657 348.054136514Z"
             style="fill:#7b0004;fill-opacity:1" />
          <path
             id="path1149"
             d="M127.53125 206.625C127.76058 206.3829 127.47907 188.64143 126.90625 167.19922L-14.5151062373 308.620576237C-13.9422862373 330.062786237 -13.6607762373 347.804256237 -13.8901062373 348.046356237Z"
             style="fill:#7b0004;fill-opacity:1" />
          <path
             id="path1151"
             d="M126.90625 167.19922L125.86523 128.21484L-15.5561262373 269.636196237L-14.5151062373 308.620576237Z"
             style="fill:#7b0004;fill-opacity:1" />
          <path
             id="path1153"
             d="M125.86523 128.21484L127.97656 128.15625L-13.4447962373 269.577606237L-15.5561262373 269.636196237Z"
             style="fill:#7b0004;fill-opacity:1" />
          <path
             id="path1155"
             d="M127.97656 128.15625L130.08984 128.09961L-11.3315162373 269.520966237L-13.4447962373 269.577606237Z"
             style="fill:#7b0004;fill-opacity:1" />
          <path
             id="path1157"
             d="M130.08984 128.09961L131.1582 167.08594L-10.2631562373 308.507296237L-11.3315162373 269.520966237Z"
             style="fill:#7b0004;fill-opacity:1" />
          <path
             id="path1159"
             d="M131.1582 167.08594C131.74638 188.5278 132.42594 206.25706 132.66797 206.48633L-8.75338623731 347.907686237C-8.99541623731 347.678416237 -9.67497623731 329.949156237 -10.2631562373 308.507296237Z"
             style="fill:#7b0004;fill-opacity:1" />
          <path
             id="path1161"
             d="M132.66797 206.48633C133.42712 207.20545 138.78275 206.50428 142.37109 205.21484L0.949733762691 346.636196237C-2.63860623731 347.925636237 -7.99423623731 348.626806237 -8.75338623731 347.907686237Z"
             style="fill:#7b0004;fill-opacity:1" />
          <path
             id="path1163"
             d="M142.37109 205.21484C147.638066733 203.322153008 152.56998205 200.066120084 156.647617201 195.988484933L15.226260964 337.40984117C11.1486258123 341.487476322 6.21671049534 344.743509245 0.949733762691 346.636196237Z"
             style="fill:#7b0004;fill-opacity:1" />
          <path
             id="path1165"
             d="M156.647617201 195.988484933C161.14048591 191.495616224 164.596229747 186.005294758 166.32031 180.24219L24.8989537627 321.663546237C23.1748735094 327.426650996 19.7191296728 332.916972461 15.226260964 337.40984117Z"
             style="fill:#7b0004;fill-opacity:1" />
          <path
             id="path1167"
             d="M166.32031 180.24219C167.81275 175.25386 168.13989 171.94528 167.83594 164.80859L26.4145837627 306.229946237C26.7185337627 313.366636237 26.3913937627 316.675216237 24.8989537627 321.663546237Z"
             style="fill:#7b0004;fill-opacity:1" />
          <path
             id="path1169"
             d="M167.83594 164.80859C167.67728 161.08274 167.65768 157.91616 167.79297 157.77344L26.3716137627 299.194796237C26.2363237627 299.337516237 26.2559237627 302.504096237 26.4145837627 306.229946237Z"
             style="fill:#7b0004;fill-opacity:1" />
          <path
             id="path1171"
             d="M167.79297 157.77344C167.793172413 157.773226393 167.793378431 157.773014781 167.79358805 157.772805162L26.3722318124 299.194161399C26.3720221935 299.194371018 26.3718161754 299.19458263 26.3716137627 299.194796237Z"
             style="fill:#7b0004;fill-opacity:1" />
          <path
             id="path1173"
             d="M167.79358805 157.772805162C167.933443608 157.632949603 169.676201173 158.380298699 171.67188 159.43359L30.2505237627 300.854946237C28.2548449355 299.801654936 26.5120873709 299.054305841 26.3722318124 299.194161399Z"
             style="fill:#7b0004;fill-opacity:1" />
          <path
             id="path1175"
             d="M171.67188 159.43359L175.30469 161.35156L33.8833337627 302.772916237L30.2505237627 300.854946237Z"
             style="fill:#7b0004;fill-opacity:1" />
          <path
             id="path1177"
             d="M175.30469 161.35156L175.71484 174.54688L34.2934837627 315.968236237L33.8833337627 302.772916237Z"
             style="fill:#7b0004;fill-opacity:1" />
          <path
             id="path1179"
             d="M175.71484 174.54688L176.12305 187.74023L34.7016937627 329.161586237L34.2934837627 315.968236237Z"
             style="fill:#7b0004;fill-opacity:1" />
          <path
             id="path1181"
             d="M176.12305 187.74023L182.05664 192.06055L40.6352837627 333.481906237L34.7016937627 329.161586237Z"
             style="fill:#7b0004;fill-opacity:1" />
          <path
             id="path1183"
             d="M182.05664 192.06055C206.72612 210.02201 205.90913 209.52498 208.73828 208.24805L67.3169237627 349.669406237C64.4877737627 350.946336237 65.3047637627 351.443366237 40.6352837627 333.481906237Z"
             style="fill:#7b0004;fill-opacity:1" />
          <path
             id="path1185"
             d="M208.73828 208.24805C209.393770813 207.952155943 209.873934707 207.663623777 210.243375531 207.294182953L68.822019294 348.71553919C68.4525784697 349.084980015 67.9724145761 349.37351218 67.3169237627 349.669406237Z"
             style="fill:#7b0004;fill-opacity:1" />
          <path
             id="path1187"
             d="M210.243375531 207.294182953C210.826958853 206.710599631 211.134259221 205.92512809 211.41992 204.58984L69.9985637627 346.011196237C69.712902984 347.346484327 69.4056026162 348.131955868 68.822019294 348.71553919Z"
             style="fill:#7b0004;fill-opacity:1" />
          <path
             id="path1189"
             d="M211.41992 204.58984C211.83329 202.65855 211.73744 202.44556 209.46094 200.28906L68.0395837627 341.710416237C70.3160837627 343.866916237 70.4119337627 344.079906237 69.9985637627 346.011196237Z"
             style="fill:#7b0004;fill-opacity:1" />
          <path
             id="path1191"
             d="M209.46094 200.28906C208.14379 199.04134 202.24254 194.50005 196.34766 190.19922L54.9263037627 331.620576237C60.8211837627 335.921406237 66.7224337627 340.462696237 68.0395837627 341.710416237Z"
             style="fill:#7b0004;fill-opacity:1" />
          <path
             id="path1193"
             d="M196.34766 190.19922L185.63086 182.38086L44.2095037627 323.802216237L54.9263037627 331.620576237Z"
             style="fill:#7b0004;fill-opacity:1" />
          <path
             id="path1195"
             d="M185.63086 182.38086L185.25195 168.73633L43.8305937627 310.157686237L44.2095037627 323.802216237Z"
             style="fill:#7b0004;fill-opacity:1" />
          <path
             id="path1197"
             d="M185.25195 168.73633L184.875 155.09375L43.4536437627 296.515106237L43.8305937627 310.157686237Z"
             style="fill:#7b0004;fill-opacity:1" />
          <path
             id="path1199"
             d="M184.875 155.09375L176.07422 150.58398L34.6528637627 292.005336237L43.4536437627 296.515106237Z"
             style="fill:#7b0004;fill-opacity:1" />
          <path
             id="path1201"
             d="M176.07422 150.58398L167.27344 146.07227L25.8520837627 287.493626237L34.6528637627 292.005336237Z"
             style="fill:#7b0004;fill-opacity:1" />
          <path
             id="path1203"
             d="M167.27344 146.07227L167.1582 141.81836L25.7368437627 283.239716237L25.8520837627 287.493626237Z"
             style="fill:#7b0004;fill-opacity:1" />
          <path
             id="path1205"
             d="M167.1582 141.81836L167.04492 137.56445L25.6235637627 278.985806237L25.7368437627 283.239716237Z"
             style="fill:#7b0004;fill-opacity:1" />
          <path
             id="path1207"
             d="M167.04492 137.56445L171.85352 137.41406L30.4321637627 278.835416237L25.6235637627 278.985806237Z"
             style="fill:#7b0004;fill-opacity:1" />
          <path
             id="path1209"
             d="M171.85352 137.41406L176.66406 137.26172L35.2427037627 278.683076237L30.4321637627 278.835416237Z"
             style="fill:#7b0004;fill-opacity:1" />
          <path
             id="path1211"
             d="M176.66406 137.26172L184.9082 147.03125L43.4868437627 288.452606237L35.2427037627 278.683076237Z"
             style="fill:#7b0004;fill-opacity:1" />
          <path
             id="path1213"
             d="M184.9082 147.03125C190.94262 154.18357 193.38642 156.80003 194.0293 156.80078L52.6079437627 298.222136237C51.9650637627 298.221386237 49.5212637627 295.604926237 43.4868437627 288.452606237Z"
             style="fill:#7b0004;fill-opacity:1" />
          <path
             id="path1215"
             d="M194.0293 156.80078C194.51215 156.80121 198.82215 154.61652 203.60938 151.94727L62.1880237627 293.368626237C57.4007937627 296.037876237 53.0907937627 298.222566237 52.6079437627 298.222136237Z"
             style="fill:#7b0004;fill-opacity:1" />
          <path
             id="path1217"
             d="M203.60938 151.94727C209.090210954 148.891246635 211.405087929 147.475559192 212.472095259 146.408551862L71.0507390221 287.829908099C69.9837316918 288.896915429 67.6688547171 290.312602872 62.1880237627 293.368626237Z"
             style="fill:#7b0004;fill-opacity:1" />
          <path
             id="path1219"
             d="M212.472095259 146.408551862C212.776391355 146.104255766 212.979196534 145.828318293 213.125 145.55078L71.7036437627 286.972136237C71.5578402966 287.249674531 71.3550351176 287.525612004 71.0507390221 287.829908099Z"
             style="fill:#7b0004;fill-opacity:1" />
          <path
             id="path1221"
             d="M213.125 145.55078C214.20965 143.48623 213.86817 141.30414 212.20898 139.73242L70.7876237627 281.153776237C72.4468137627 282.725496237 72.7882937627 284.907586237 71.7036437627 286.972136237Z"
             style="fill:#7b0004;fill-opacity:1" />
          <path
             id="path1223"
             d="M212.20898 139.73242C210.11667 137.75039 207.92564 138.12341 202.0293 141.46289L60.6079437627 282.884246237C66.5042837627 279.544766237 68.6953137627 279.171746237 70.7876237627 281.153776237Z"
             style="fill:#7b0004;fill-opacity:1" />
          <path
             id="path1225"
             d="M202.0293 141.46289C199.19421 143.0687 196.63108 144.39646 196.33398 144.41406L54.9126237627 285.835416237C55.2097237627 285.817816237 57.7728537627 284.490056237 60.6079437627 282.884246237Z"
             style="fill:#7b0004;fill-opacity:1" />
          <path
             id="path1227"
             d="M196.33398 144.41406C196.03698 144.43181 192.46721 140.55222 188.39844 135.79297L46.9770837627 277.214326237C51.0458537627 281.973576237 54.6156237627 285.853166237 54.9126237627 285.835416237Z"
             style="fill:#7b0004;fill-opacity:1" />
          <path
             id="path1229"
             d="M188.39844 135.79297L181.0 127.13867L39.5786437627 268.560026237L46.9770837627 277.214326237Z"
             style="fill:#7b0004;fill-opacity:1" />
          <path
             id="path1231"
             d="M181.0 127.13867L173.86328 127.31836L32.4419237627 268.739716237L39.5786437627 268.560026237Z"
             style="fill:#7b0004;fill-opacity:1" />
          <path
             id="path1233"
             d="M173.86328 127.31836L166.72461 127.49609L25.3032537627 268.917446237L32.4419237627 268.739716237Z"
             style="fill:#7b0004;fill-opacity:1" />
          <path
             id="path1235"
             d="M166.72461 127.49609L166.67969 124.42969L25.2583337627 265.851046237L25.3032537627 268.917446237Z"
             style="fill:#7b0004;fill-opacity:1" />
          <path
             id="path1237"
             d="M166.67969 124.42969L166.63281 121.35938L25.2114537627 262.780736237L25.2583337627 265.851046237Z"
             style="fill:#7b0004;fill-opacity:1" />
          <path
             id="path1239"
             d="M166.63281 121.35938L171.44727 121.20703L30.0259137627 262.628386237L25.2114537627 262.780736237Z"
             style="fill:#7b0004;fill-opacity:1" />
          <path
             id="path1241"
             d="M171.44727 121.20703C174.087972421 121.123705534 176.414368608 120.880597211 176.629162302 120.665803518L35.2078060648 262.087159755C34.9930123711 262.301953449 32.6666161842 262.545061771 30.0259137627 262.628386237Z"
             style="fill:#7b0004;fill-opacity:1" />
          <path
             id="path1243"
             d="M176.629162302 120.665803518C176.629743683 120.665222136 176.630309594 120.664640963 176.63086 120.66406L35.2095037627 262.085416237C35.2089533572 262.0859972 35.208387446 262.086578374 35.2078060648 262.087159755Z"
             style="fill:#7b0004;fill-opacity:1" />
          <path
             id="path1245"
             d="M176.63086 120.66406C176.83473 120.44883 176.87754 115.82783 176.72461 110.39648L35.3032537627 251.817836237C35.4561837627 257.249186237 35.4133737627 261.870186237 35.2095037627 262.085416237Z"
             style="fill:#7b0004;fill-opacity:1" />
          <path
             id="path1247"
             d="M176.72461 110.39648L176.44531 100.52148L35.0239537627 241.942836237L35.3032537627 251.817836237Z"
             style="fill:#7b0004;fill-opacity:1" />
          <path
             id="path1249"
             d="M176.44531 100.52148L182.48828 95.945312L41.0669237627 237.366668237L35.0239537627 241.942836237Z"
             style="fill:#7b0004;fill-opacity:1" />
          <path
             id="path1251"
             d="M182.48828 95.945312C185.754013379 93.4716434613 189.026321844 90.8316985954 189.845524052 90.012496388L48.4241678144 231.433852625C47.604965607 232.253054833 44.3326571413 234.892999699 41.0669237627 237.366668237Z"
             style="fill:#7b0004;fill-opacity:1" />
          <path
             id="path1253"
             d="M189.845524052 90.012496388C189.860029736 89.9979907042 189.87376627 89.9840558976 189.88672 89.970703L48.4653637627 231.392059237C48.452410033 231.405412135 48.4386734982 231.419346941 48.4241678144 231.433852625Z"
             style="fill:#7b0004;fill-opacity:1" />
          <path
             id="path1255"
             d="M189.88672 89.970703C192.14403 87.644652 191.48995 83.948732 188.5293 82.283203L47.1079437627 223.704559237C50.0685937627 225.370088237 50.7226737627 229.066008237 48.4653637627 231.392059237Z"
             style="fill:#7b0004;fill-opacity:1" />
          <path
             id="path1257"
             d="M188.5293 82.283203C187.93 81.946068 187.40385 81.731488 186.80273 81.712891L45.3813737627 223.134247237C45.9824937627 223.152844237 46.5086437627 223.367424237 47.1079437627 223.704559237Z"
             style="fill:#7b0004;fill-opacity:1" />
        </g>
        <path
           transform=""
           id="path907"
           d="M 186.30859 43 C 185.12944 42.990219 183.28933 43.567607 179.50391 45.039062 C 169.16224 49.059467 160.7802 53.751295 153.04297 59.84375 C 148.0837 63.748856 139.51484 73.017978 136.29102 77.96875 C 134.79209 80.270517 133.40561 82.375745 133.21094 82.646484 C 133.01616 82.917098 131.21761 82.994937 129.21094 82.820312 C 127.20436 82.6458 124.40954 82.772632 123 83.099609 C 121.29627 83.49466 120.30698 83.428037 120.05469 82.900391 C 119.84589 82.463759 118.15646 80.129356 116.29883 77.712891 C 111.68431 71.710165 100.91239 62.094896 94.310547 58.087891 C 87.57164 53.997639 79.532617 50.39213 71.466797 47.841797 C 65.709605 46.021372 64.160832 45.7503 62.839844 46.339844 C 59.609134 47.781636 58.866926 51.617545 61.361328 53.980469 C 62.266853 54.83825 65.087473 56.121661 68.845703 57.386719 C 76.709345 60.033656 82.814491 62.792695 88.962891 66.474609 C 93.077971 68.938929 95.113556 70.562025 100.68555 75.830078 C 104.83102 79.749324 108.26192 83.389388 109.5918 85.279297 L 111.75391 88.351562 L 109.98828 90.21875 C 107.80085 92.527937 105.62336 96.738722 105.00781 99.851562 C 104.4706 102.56779 104.92199 107.27492 105.80078 108.10742 C 106.60101 108.86547 148.28844 107.72448 149.04688 106.92383 C 149.37243 106.58017 149.70678 104.96132 149.78906 103.32812 C 150.00008 99.145182 147.97834 93.981595 144.68164 90.289062 L 142.07227 87.367188 L 143.66602 84.660156 C 144.68803 82.923816 147.82372 79.262924 152.41406 74.449219 C 158.35186 68.22161 160.29231 66.470269 163.79688 64.175781 C 169.59635 60.378652 177.37278 56.424767 183.74023 54.035156 C 189.47444 51.883087 190.45582 51.000089 190.47852 47.951172 C 190.49389 45.889671 189.2321 43.992863 187.31445 43.193359 C 187.01961 43.070404 186.70163 43.003451 186.30859 43 z M 186.80273 81.712891 C 184.99938 81.657142 182.52324 83.365099 175.38477 88.822266 L 166.30273 95.763672 L 166.49805 103.53125 L 166.69727 111.29688 L 127.53516 112.35547 L 88.371094 113.41211 L 88.21875 106.44336 C 88.133939 102.60951 87.929184 99.048543 87.765625 98.53125 C 87.428699 97.465757 69.415835 85.017866 67.421875 84.472656 C 64.0209 83.542582 61.132446 85.766978 61.226562 89.242188 C 61.295725 91.797159 61.172627 91.679697 70.876953 98.257812 C 73.800889 100.23983 76.620615 102.26738 77.144531 102.76367 C 77.836128 103.41881 78.164819 106.30624 78.345703 113.30078 C 78.48291 118.5997 78.770974 123.10265 78.986328 123.30664 C 79.201682 123.51063 81.544928 123.63024 84.193359 123.57031 L 89.009766 123.46094 L 89.130859 126.52734 L 89.248047 129.5957 L 81.953125 129.85156 L 74.65625 130.10547 L 67.933594 139.09766 C 64.236198 144.04329 60.951379 148.08979 60.632812 148.08984 C 60.314246 148.0899 57.349653 146.75879 54.046875 145.13281 C 47.567585 141.94301 45.448344 141.67976 43.433594 143.80664 C 41.906012 145.41923 41.84549 149.0229 43.320312 150.41992 C 44.593027 151.62554 62.865234 160.70032 63.707031 160.54492 C 63.983695 160.49378 67.715062 155.82442 71.998047 150.16797 L 79.783203 139.88281 L 84.630859 139.77344 L 89.476562 139.66406 L 89.591797 143.90625 L 89.707031 148.14844 L 80.972656 153.25195 L 72.238281 158.35352 L 72.603516 172.11523 L 72.966797 185.87695 L 71.283203 187.17383 C 70.356399 187.88647 65.115081 192.11319 59.636719 196.56445 C 50.312953 204.14032 49.637111 204.77842 49.050781 206.57617 C 48.336522 208.76619 49.22412 211.30019 51.072266 212.33984 C 53.330705 213.61035 54.869251 213.14998 58.710938 210.05469 C 60.698582 208.45318 67.004597 203.34568 72.724609 198.70312 L 83.123047 190.25977 L 82.818359 177.0625 L 82.511719 163.86328 L 86.039062 161.75 C 87.977832 160.58855 89.70022 159.76958 89.867188 159.92773 C 90.034155 160.0859 90.134747 162.75951 90.091797 165.87109 C 89.908174 179.17625 93.601776 188.53222 102.28711 196.76562 C 107.00946 201.24288 111.90232 204.12399 117.77148 205.88086 C 121.42435 206.97434 126.8122 207.38407 127.53125 206.625 C 127.76058 206.3829 127.47907 188.64143 126.90625 167.19922 L 125.86523 128.21484 L 127.97656 128.15625 L 130.08984 128.09961 L 131.1582 167.08594 C 131.74638 188.5278 132.42594 206.25706 132.66797 206.48633 C 133.42712 207.20545 138.78275 206.50428 142.37109 205.21484 C 153.44139 201.23673 163.03149 191.23577 166.32031 180.24219 C 167.81275 175.25386 168.13989 171.94528 167.83594 164.80859 C 167.67728 161.08274 167.65768 157.91616 167.79297 157.77344 C 167.92822 157.63071 169.67321 158.37872 171.67188 159.43359 L 175.30469 161.35156 L 175.71484 174.54688 L 176.12305 187.74023 L 182.05664 192.06055 C 206.72612 210.02201 205.90913 209.52498 208.73828 208.24805 C 210.42921 207.48475 210.95342 206.77044 211.41992 204.58984 C 211.83329 202.65855 211.73744 202.44556 209.46094 200.28906 C 208.14379 199.04134 202.24254 194.50005 196.34766 190.19922 L 185.63086 182.38086 L 185.25195 168.73633 L 184.875 155.09375 L 176.07422 150.58398 L 167.27344 146.07227 L 167.1582 141.81836 L 167.04492 137.56445 L 171.85352 137.41406 L 176.66406 137.26172 L 184.9082 147.03125 C 190.94262 154.18357 193.38642 156.80003 194.0293 156.80078 C 194.51215 156.80121 198.82215 154.61652 203.60938 151.94727 C 210.65327 148.01971 212.46794 146.8015 213.125 145.55078 C 214.20965 143.48623 213.86817 141.30414 212.20898 139.73242 C 210.11667 137.75039 207.92564 138.12341 202.0293 141.46289 C 199.19421 143.0687 196.63108 144.39646 196.33398 144.41406 C 196.03698 144.43181 192.46721 140.55222 188.39844 135.79297 L 181 127.13867 L 173.86328 127.31836 L 166.72461 127.49609 L 166.67969 124.42969 L 166.63281 121.35938 L 171.44727 121.20703 C 174.09512 121.12348 176.42696 120.87928 176.63086 120.66406 C 176.83473 120.44883 176.87754 115.82783 176.72461 110.39648 L 176.44531 100.52148 L 182.48828 95.945312 C 185.81184 93.427842 189.14221 90.738155 189.88672 89.970703 C 192.14403 87.644652 191.48995 83.948732 188.5293 82.283203 C 187.93 81.946068 187.40385 81.731488 186.80273 81.712891 z "
           style="fill:#7b0004;fill-opacity:1;stroke:none;stroke-width:13.97220707;stroke-linejoin:round;stroke-miterlimit:4;stroke-dasharray:none;stroke-opacity:0.25882353" />
      </g>
    </g>
    <g
       transform="matrix(1.3972207,0,0,1.3972207,-121.08043,-379.52019)"
       style="fill:#ffffff;fill-opacity:1"
       id="g894">
      <path
         inkscape:connector-curvature="0"
         style="fill:#ffffff;fill-opacity:1;stroke:none;stroke-width:10;stroke-linejoin:round;stroke-miterlimit:4;stroke-dasharray:none;stroke-opacity:0.25882353"
         d="m 220,872.36216 c -0.84393,-0.007 -2.15989,0.40586 -4.86914,1.45899 -7.4016,2.87743 -13.40187,6.23529 -18.93946,10.5957 -3.54938,2.79491 -9.68097,9.42935 -11.98828,12.97265 -1.07279,1.64739 -2.06575,3.15389 -2.20508,3.34766 -0.1394,0.19368 -1.42709,0.24998 -2.86328,0.125 -1.43612,-0.1249 -3.43649,-0.0348 -4.44531,0.19922 -1.21937,0.28274 -1.92685,0.23506 -2.10742,-0.14258 -0.14944,-0.3125 -1.35798,-1.98341 -2.6875,-3.71289 -3.30264,-4.29619 -11.0133,-11.17708 -15.73828,-14.04492 -4.82308,-2.92742 -10.57685,-5.5087 -16.34961,-7.33399 -4.12046,-1.30289 -5.22839,-1.49615 -6.17383,-1.07421 -2.31224,1.0319 -2.84386,3.77759 -1.0586,5.46875 0.64809,0.61392 2.66764,1.53209 5.35743,2.4375 5.62806,1.89443 9.99798,3.86873 14.39843,6.5039 2.94519,1.76373 4.40077,2.92493 8.38868,6.69531 2.96694,2.80503 5.4232,5.41106 6.375,6.76368 l 1.54687,2.19922 -1.26367,1.33593 c -1.56556,1.6527 -3.1239,4.66666 -3.56445,6.89454 -0.38449,1.94402 -0.0606,5.31237 0.56836,5.9082 0.57273,0.54254 30.40835,-0.27463 30.95117,-0.84766 0.233,-0.24596 0.47236,-1.40337 0.53125,-2.57226 0.15103,-2.99376 -1.29678,-6.68927 -3.65625,-9.33204 l -1.86719,-2.09179 1.14062,-1.9375 c 0.73146,-1.24271 2.97638,-3.8634 6.26172,-7.3086 4.24972,-4.45714 5.63825,-5.70938 8.14649,-7.35156 4.15072,-2.71763 9.71621,-5.54755 14.27344,-7.25781 4.10401,-1.54025 4.80602,-2.17334 4.82226,-4.35547 0.011,-1.47543 -0.8912,-2.83209 -2.26367,-3.4043 -0.21102,-0.088 -0.4394,-0.1362 -0.7207,-0.13867 z"
         id="path886" />
      <path
         inkscape:connector-curvature="0"
         style="fill:#ffffff;fill-opacity:1;stroke:none;stroke-width:10;stroke-linejoin:round;stroke-miterlimit:4;stroke-dasharray:none;stroke-opacity:0.25882353"
         d="m 220.35351,900.06919 c -1.29067,-0.0399 -3.06282,1.18216 -8.17187,5.08789 l -6.5,4.96875 0.14062,5.5586 0.14258,5.55859 -28.0293,0.75781 -28.02929,0.75586 -0.10938,-4.98828 c -0.0607,-2.74391 -0.20716,-5.29188 -0.32422,-5.66211 -0.24114,-0.76258 -13.13345,-9.67229 -14.56054,-10.0625 -2.4341,-0.66566 -4.50096,0.92683 -4.4336,3.41406 0.0495,1.82861 -0.0392,1.74513 6.90625,6.45313 2.09268,1.41854 4.11136,2.86941 4.48633,3.22461 0.49498,0.46889 0.72991,2.53498 0.85937,7.54102 0.0982,3.79247 0.30486,7.01611 0.45899,7.16211 0.15413,0.146 1.83106,0.23039 3.72656,0.1875 l 3.44727,-0.0781 0.0859,2.19531 0.084,2.19532 -5.2207,0.18359 -5.22266,0.18164 -4.81055,6.43555 c -2.64625,3.53962 -4.99856,6.4355 -5.22656,6.43554 -0.228,4e-5 -2.34907,-0.95151 -4.71289,-2.11523 -4.63727,-2.28296 -6.15373,-2.47144 -7.5957,-0.94922 -1.0933,1.15414 -1.13754,3.73256 -0.082,4.73242 0.91089,0.86287 13.98931,7.35732 14.59179,7.2461 0.19801,-0.0366 2.86824,-3.37743 5.9336,-7.42579 l 5.57226,-7.36132 3.46875,-0.0781 3.46875,-0.0781 0.082,3.03515 0.082,3.03711 -6.25,3.65235 -6.25195,3.65039 0.26172,9.84961 0.25977,9.84961 -1.20508,0.92773 c -0.66332,0.51004 -4.41504,3.5349 -8.33594,6.7207 -6.67308,5.4221 -7.15653,5.87936 -7.57617,7.16602 -0.5112,1.56741 0.12453,3.38091 1.44726,4.125 1.61638,0.90931 2.71728,0.58055 5.4668,-1.63477 1.42257,-1.14621 5.93545,-4.80229 10.0293,-8.125 l 7.44336,-6.04297 -0.21875,-9.44531 -0.21875,-9.44726 2.52343,-1.51172 c 1.38759,-0.83126 2.62074,-1.41788 2.74024,-1.30469 0.1195,0.1132 0.1909,2.02693 0.16016,4.25391 -0.13142,9.52259 2.51236,16.21862 8.72851,22.11132 3.37982,3.2044 6.88143,5.26604 11.08203,6.52344 2.61438,0.78261 6.4717,1.07648 6.98633,0.53321 0.16413,-0.17327 -0.0373,-12.87047 -0.44727,-28.2168 l -0.74609,-27.90235 1.51172,-0.041 1.51172,-0.041 0.76562,27.90235 c 0.42096,15.34608 0.90686,28.03513 1.08008,28.19922 0.54333,0.51468 4.37711,0.0127 6.94531,-0.91016 7.92308,-2.84716 14.7868,-10.00487 17.14063,-17.87305 1.06815,-3.57018 1.30152,-5.93715 1.08398,-11.04492 -0.11355,-2.66662 -0.12803,-4.93301 -0.0312,-5.03516 0.0968,-0.10215 1.34689,0.43252 2.77735,1.1875 l 2.59961,1.37305 0.29296,9.44336 0.29297,9.44336 4.2461,3.0918 c 17.65611,12.85514 17.07086,12.49984 19.0957,11.58593 1.21021,-0.5463 1.58604,-1.05847 1.91992,-2.61914 0.29585,-1.38224 0.22697,-1.5347 -1.40234,-3.07812 -0.94269,-0.893 -5.16576,-4.14257 -9.38477,-7.2207 l -7.66992,-5.59571 -0.27148,-9.76562 -0.26953,-9.76367 -6.29883,-3.22852 -6.29883,-3.22852 -0.082,-3.04492 -0.082,-3.04492 3.4414,-0.10742 3.44336,-0.10938 5.90039,6.99219 c 4.31887,5.11896 6.06724,6.99165 6.52735,6.99219 0.34558,3.1e-4 3.43117,-1.56226 6.85742,-3.47266 5.04136,-2.81098 6.34029,-3.68297 6.81055,-4.57812 0.77629,-1.47761 0.53124,-3.03917 -0.65625,-4.16406 -1.49748,-1.41855 -3.06511,-1.15181 -7.28516,1.23828 -2.02909,1.14929 -3.86354,2.09872 -4.07617,2.11132 -0.21257,0.0127 -2.76764,-2.76369 -5.67969,-6.16992 l -5.29492,-6.19336 -5.10742,0.12891 -5.10938,0.12695 -0.0332,-2.19531 -0.0332,-2.19727 3.44532,-0.10937 c 1.89509,-0.0598 3.56501,-0.23464 3.71094,-0.38867 0.14591,-0.15404 0.17585,-3.46041 0.0664,-7.34766 l -0.19922,-7.06836 4.32422,-3.27539 c 2.37869,-1.80177 4.76207,-3.72612 5.29492,-4.27539 1.61557,-1.66477 1.14826,-4.30992 -0.9707,-5.50195 -0.42892,-0.24129 -0.80611,-0.3949 -1.23633,-0.40821 z"
         id="path4152" />
    </g>
    <g
       id="text918"
       style="font-style:normal;font-variant:normal;font-weight:normal;font-stretch:normal;font-size:192px;line-height:25px;font-family:sans-serif;-inkscape-font-specification:sans-serif;letter-spacing:0px;word-spacing:0px;fill:#ffffff;fill-opacity:1;stroke:none"
       aria-label="Z" />
  </g>
</svg>
