<?xml version="1.0" encoding="UTF-8" standalone="no"?>
<!-- Created with Inkscape (http://www.inkscape.org/) -->

<svg
   xmlns:dc="http://purl.org/dc/elements/1.1/"
   xmlns:cc="http://creativecommons.org/ns#"
   xmlns:rdf="http://www.w3.org/1999/02/22-rdf-syntax-ns#"
   xmlns:svg="http://www.w3.org/2000/svg"
   xmlns="http://www.w3.org/2000/svg"
   xmlns:xlink="http://www.w3.org/1999/xlink"
   xmlns:sodipodi="http://sodipodi.sourceforge.net/DTD/sodipodi-0.dtd"
   xmlns:inkscape="http://www.inkscape.org/namespaces/inkscape"
   width="256"
   height="256"
   viewBox="0 0 256 256"
   id="svg4149"
   version="1.1"
   inkscape:version="0.92pre3 r"
   sodipodi:docname="tracker.svg">
  <sodipodi:namedview
     id="base"
     pagecolor="#ffffff"
     bordercolor="#666666"
     borderopacity="1.0"
     inkscape:pageopacity="0.0"
     inkscape:pageshadow="2"
     inkscape:zoom="3.3359375"
     inkscape:cx="128"
     inkscape:cy="128"
     inkscape:document-units="px"
     inkscape:current-layer="layer1"
     showgrid="false"
     units="px"
     inkscape:window-width="1920"
     inkscape:window-height="1054"
     inkscape:window-x="0"
     inkscape:window-y="0"
     inkscape:window-maximized="1" />
  <defs
     id="defs4151">
    <clipPath
       id="clipPath4863"
       clipPathUnits="userSpaceOnUse">
      <circle
         r="77.263145"
         cy="924.36218"
         cx="128"
         id="circle4865"
         style="fill:#e9e9e9;fill-opacity:1;stroke:none;stroke-width:20;stroke-miterlimit:4;stroke-dasharray:none;stroke-opacity:1" />
    </clipPath>
    <clipPath
       clipPathUnits="userSpaceOnUse"
       id="clipPath4227">
      <circle
         r="77.263145"
         cy="924.36218"
         cx="128"
         id="circle4229"
         style="fill:#e9e9e9;fill-opacity:1;stroke:none;stroke-width:20;stroke-miterlimit:4;stroke-dasharray:none;stroke-opacity:1" />
    </clipPath>
    <clipPath
       id="clipPath5543"
       clipPathUnits="userSpaceOnUse">
      <circle
         r="128"
         cy="924.36218"
         cx="128"
         id="circle5545"
         style="fill:#9e9fe9;fill-opacity:1;stroke:none;stroke-width:20;stroke-miterlimit:4;stroke-dasharray:none;stroke-opacity:1" />
    </clipPath>
    <clipPath
       clipPathUnits="userSpaceOnUse"
       id="clipPath6248">
      <circle
         r="128"
         cy="924.36218"
         cx="128"
         id="circle6250"
         style="fill:#77c445;fill-opacity:1;stroke:none;stroke-width:20;stroke-miterlimit:4;stroke-dasharray:none;stroke-opacity:1" />
    </clipPath>
    <clipPath
       clipPathUnits="userSpaceOnUse"
       id="clipPath4624">
      <path
         style="fill:#0f9d58;fill-opacity:1"
         d="m 151.20117,0.24318 -105.78125,0 c -7.804357,0 -14.087891,6.28158 -14.087891,14.08594 l 0,227.33994 c 0,7.8043 6.283534,14.0878 14.087891,14.0878 l 165.16211,0 c 7.80436,0 14.08594,-6.2835 14.08594,-14.0878 l 0,-154.82237 -73.4668,-86.60351 z"
         id="path4626"
         inkscape:connector-curvature="0" />
    </clipPath>
    <clipPath
       clipPathUnits="userSpaceOnUse"
       id="clipPath6409">
      <circle
         r="128"
         cy="924.36218"
         cx="128"
         id="circle6411"
         style="fill:#77c445;fill-opacity:1;stroke:none;stroke-width:20;stroke-miterlimit:4;stroke-dasharray:none;stroke-opacity:1" />
    </clipPath>
    <clipPath
       id="clipPath4544"
       clipPathUnits="userSpaceOnUse">
      <circle
         r="128"
         cy="128.00002"
         cx="128"
         id="circle4546"
         style="fill:#0f9d97;fill-opacity:1;stroke:none;stroke-width:20;stroke-miterlimit:4;stroke-dasharray:none;stroke-opacity:1" />
    </clipPath>
    <clipPath
       clipPathUnits="userSpaceOnUse"
       id="clipPath4250">
      <circle
         r="128"
         cy="924.36218"
         cx="128"
         id="circle4252"
         style="fill:#b70a01;fill-opacity:1;stroke:none;stroke-width:20;stroke-miterlimit:4;stroke-dasharray:none;stroke-opacity:1" />
    </clipPath>
    <clipPath
       id="clipPath4241"
       clipPathUnits="userSpaceOnUse">
      <circle
         r="128"
         cy="924.36218"
         cx="128"
         id="circle4243"
         style="fill:#01a3d2;fill-opacity:1;stroke:none;stroke-width:20;stroke-miterlimit:4;stroke-dasharray:none;stroke-opacity:1" />
    </clipPath>
    <clipPath
       clipPathUnits="userSpaceOnUse"
       id="clipPath4247">
      <circle
         r="128"
         cy="924.36218"
         cx="128"
         id="circle4249"
         style="fill:#01a3d2;fill-opacity:1;stroke:none;stroke-width:20;stroke-miterlimit:4;stroke-dasharray:none;stroke-opacity:1" />
    </clipPath>
    <clipPath
       id="clipPath4274"
       clipPathUnits="userSpaceOnUse">
      <circle
         r="128"
         cy="924.36218"
         cx="128"
         id="circle4276"
         style="fill:#f77e08;fill-opacity:1;stroke:none;stroke-width:20;stroke-miterlimit:4;stroke-dasharray:none;stroke-opacity:1" />
    </clipPath>
    <clipPath
       clipPathUnits="userSpaceOnUse"
       id="clipPath4856">
      <circle
         r="128"
         cy="924.36218"
         cx="128"
         id="circle4858"
         style="fill:#fffc59;fill-opacity:1;stroke:none;stroke-width:20;stroke-miterlimit:4;stroke-dasharray:none;stroke-opacity:1" />
    </clipPath>
    <clipPath
       id="clipPath4871"
       clipPathUnits="userSpaceOnUse">
      <circle
         r="128"
         cy="128.00002"
         cx="128"
         id="circle4873"
         style="fill:#fffc59;fill-opacity:1;stroke:none;stroke-width:20;stroke-miterlimit:4;stroke-dasharray:none;stroke-opacity:1" />
    </clipPath>
    <linearGradient
       gradientTransform="matrix(6.0730937,0,0,6.0730937,-88.501456,702.09007)"
       gradientUnits="userSpaceOnUse"
       xlink:href="#linearGradient4065-1"
       id="linearGradient4071-6"
       y2="63.997612"
       x2="39.918854"
       y1="21.915087"
       x1="39.918854" />
    <linearGradient
       id="linearGradient4065-1">
      <stop
         offset="0"
         style="stop-color:#2e2a27;stop-opacity:1"
         id="stop4067-8" />
      <stop
         offset="1"
         style="stop-color:#2e2a27;stop-opacity:0"
         id="stop4069-5" />
    </linearGradient>
    <linearGradient
       id="linearGradient4454">
      <stop
         style="stop-color:#ce5c00;stop-opacity:0.20784314"
         offset="0.0000000"
         id="stop4456" />
      <stop
         style="stop-color:#f57900;stop-opacity:0.67619050"
         offset="1.0000000"
         id="stop4458" />
    </linearGradient>
    <clipPath
       clipPathUnits="userSpaceOnUse"
       id="clipPath5381">
      <circle
         r="13.508426"
         cy="18.498234"
         cx="19.001566"
         id="circle5383"
         style="fill:#c5ba46;fill-opacity:1;stroke:none;stroke-width:2.11069155;stroke-miterlimit:4;stroke-dasharray:none;stroke-opacity:1" />
    </clipPath>
  </defs>
  <metadata
     id="metadata4154">
    <rdf:RDF>
      <cc:Work
         rdf:about="">
        <dc:format>image/svg+xml</dc:format>
        <dc:type
           rdf:resource="http://purl.org/dc/dcmitype/StillImage" />
        <dc:title />
      </cc:Work>
    </rdf:RDF>
  </metadata>
  <g
     inkscape:label="Layer 1"
     inkscape:groupmode="layer"
     id="layer1"
     transform="translate(0,-796.36216)">
    <circle
       style="fill:#f67a00;fill-opacity:0.67450982;stroke:none;stroke-width:20;stroke-miterlimit:4;stroke-dasharray:none;stroke-opacity:1"
       id="path4723"
       cx="128"
       cy="924.36218"
       r="128" />
    <g
       transform="matrix(9.4755677,0,0,9.4755677,-52.050621,749.0809)"
       id="g4838"
       style="fill:#ce5c00;fill-opacity:1"
       clip-path="url(#clipPath5381)">
      <g
         id="g5183"
         transform="matrix(0.10553457,0,0,0.10553457,5.4931401,4.9898076)"
         style="fill:#ce5c00;fill-opacity:1">
        <g
           id="g5180"
           style="color:#000000;font-style:normal;font-variant:normal;font-weight:normal;font-stretch:normal;font-size:medium;line-height:normal;font-family:sans-serif;font-variant-ligatures:normal;font-variant-position:normal;font-variant-caps:normal;font-variant-numeric:normal;font-variant-alternates:normal;font-feature-settings:normal;text-indent:0;text-align:start;text-decoration:none;text-decoration-line:none;text-decoration-style:solid;text-decoration-color:#000000;letter-spacing:normal;word-spacing:normal;text-transform:none;writing-mode:lr-tb;direction:ltr;text-orientation:mixed;dominant-baseline:auto;baseline-shift:baseline;text-anchor:start;white-space:normal;shape-padding:0;clip-rule:nonzero;display:inline;overflow:visible;visibility:visible;opacity:1;isolation:auto;mix-blend-mode:normal;color-interpolation:sRGB;color-interpolation-filters:linearRGB;solid-color:#000000;solid-opacity:1;vector-effect:none;fill:#ce5c00;fill-opacity:1;fill-rule:evenodd;stroke:none;stroke-width:9.32462597px;stroke-linecap:butt;stroke-linejoin:miter;stroke-miterlimit:4;stroke-dasharray:none;stroke-dashoffset:0;stroke-opacity:1;color-rendering:auto;image-rendering:auto;shape-rendering:auto;text-rendering:auto;enable-background:accumulate">
          <path
             id="path4896"
             d="M140.75586 38.017578C137.5177 38.139045 134.46132 39.264791 131.59375 40.923828L-9.82760623731 182.345184237C-6.96003623731 180.686147237 -3.90365623731 179.560401237 -0.665496237309 179.438934237Z"
             style="fill:#ce5c00;fill-opacity:1" />
          <path
             id="path4898"
             d="M131.59375 40.923828C128.937351313 42.4606910514 126.39790861 44.4712481515 124.031085012 46.8380717496L-17.390271225 188.259427987C-15.0234476269 185.892604389 -12.4840049243 183.882047289 -9.82760623731 182.345184237Z"
             style="fill:#ce5c00;fill-opacity:1" />
          <path
             id="path4900"
             d="M124.031085012 46.8380717496C121.287958528 49.5811982342 118.776704276 52.8028830375 116.58398 56.320312L-24.8373762373 197.741668237C-22.6446519613 194.224239275 -20.1333977096 191.002554472 -17.390271225 188.259427987Z"
             style="fill:#ce5c00;fill-opacity:1" />
          <path
             id="path4902"
             d="M116.58398 56.320312C112.49934 62.872649 109.54677 70.460564 109.08984 78.140625L-32.3315162373 219.561981237C-31.8745862373 211.881920237 -28.9220162373 204.294005237 -24.8373762373 197.741668237Z"
             style="fill:#ce5c00;fill-opacity:1" />
          <path
             id="path4904"
             d="M109.08984 78.140625C108.63293 85.820696 110.98077 93.835078 117.41797 99.498047L-24.0033862373 240.919403237C-30.4405862373 235.256434237 -32.7884262373 227.242052237 -32.3315162373 219.561981237Z"
             style="fill:#ce5c00;fill-opacity:1" />
          <path
             id="path4906"
             d="M117.41797 99.498047C120.63656 102.32955 124.25046 104.02491 127.92969 104.29102L-13.4916662373 245.712376237C-17.1708962373 245.446266237 -20.7847962373 243.750906237 -24.0033862373 240.919403237Z"
             style="fill:#ce5c00;fill-opacity:1" />
          <path
             id="path4908"
             d="M127.92969 104.29102C131.60891 104.55709 135.11472 103.38429 138.05273 101.47852L-3.36862623731 242.899876237C-6.30663623731 244.805646237 -9.81244623731 245.978446237 -13.4916662373 245.712376237Z"
             style="fill:#ce5c00;fill-opacity:1" />
          <path
             id="path4910"
             d="M138.05273 101.47852C139.533021656 100.518297415 140.905897899 99.3851370614 142.181075131 98.1099598297L0.759718893355 239.531316067C-0.515458338435 240.806493299 -1.8883345814 241.939653652 -3.36862623731 242.899876237Z"
             style="fill:#ce5c00;fill-opacity:1" />
          <path
             id="path4912"
             d="M142.181075131 98.1099598297C145.967733106 94.3233018541 148.892879286 89.284336258 151.21094 83.802734L9.78958376269 225.224090237C7.47152304852 230.705692495 4.54637686896 235.744658091 0.759718893355 239.531316067Z"
             style="fill:#ce5c00;fill-opacity:1" />
          <path
             id="path4914"
             d="M151.21094 83.802734C154.30962 76.475183 156.21861 68.290606 156.41211 60.744141L14.9907537627 202.165497237C14.7972537627 209.711962237 12.8882637627 217.896539237 9.78958376269 225.224090237Z"
             style="fill:#ce5c00;fill-opacity:1" />
          <path
             id="path4916"
             d="M156.41211 60.744141C156.60561 53.197675 155.32584 45.903975 150.06445 41.275391L8.64309376269 182.696747237C13.9044837627 187.325331237 15.1842537627 194.619031237 14.9907537627 202.165497237Z"
             style="fill:#ce5c00;fill-opacity:1" />
          <path
             id="path4918"
             d="M150.06445 41.275391C147.43376 38.9611 143.99403 37.89611 140.75586 38.017578L-0.665496237309 179.438934237C2.57267376269 179.317466237 6.01240376269 180.382456237 8.64309376269 182.696747237Z"
             style="fill:#ce5c00;fill-opacity:1" />
          <path
             id="path4920"
             d="M141.10742 47.345703C142.31089 47.300599 142.99798 47.510645 143.88281 48.289062L2.46145376269 189.710418237C1.57662376269 188.932001237 0.889533762691 188.721955237 -0.313936237309 188.767059237Z"
             style="fill:#ce5c00;fill-opacity:1" />
          <path
             id="path4922"
             d="M143.88281 48.289062C145.65249 49.845889 147.22316 54.390355 147.06641 60.503906L5.64505376269 201.925262237C5.80180376269 195.811711237 4.23113376269 191.267245237 2.46145376269 189.710418237Z"
             style="fill:#ce5c00;fill-opacity:1" />
          <path
             id="path4924"
             d="M147.06641 60.503906C146.90968 66.617457 145.2471 73.929042 142.60547 80.175781L1.18411376269 221.597137237C3.82574376269 215.350398237 5.48832376269 208.038813237 5.64505376269 201.925262237Z"
             style="fill:#ce5c00;fill-opacity:1" />
          <path
             id="path4926"
             d="M142.60547 80.175781C140.573167322 84.9816267968 137.892005644 89.1142305542 135.277400824 91.7288353749L-6.14395541371 233.150191612C-3.52935059301 230.535586791 -0.848188915524 226.402983034 1.18411376269 221.597137237Z"
             style="fill:#ce5c00;fill-opacity:1" />
          <path
             id="path4928"
             d="M135.277400824 91.7288353749C134.493487005 92.5127491934 133.715556163 93.1602059575 132.96289 93.648438L-8.45846623731 235.069794237C-7.70580007386 234.581562195 -6.92786923225 233.934105431 -6.14395541371 233.150191612Z"
             style="fill:#ce5c00;fill-opacity:1" />
          <path
             id="path4930"
             d="M132.96289 93.648438C131.33136 94.706754 129.96235 95.06173 128.5957 94.962891L-12.8256562373 236.384247237C-11.4590062373 236.483086237 -10.0899962373 236.128110237 -8.45846623731 235.069794237Z"
             style="fill:#ce5c00;fill-opacity:1" />
          <path
             id="path4932"
             d="M128.5957 94.962891C127.22906 94.86406 125.63477 94.289972 123.58008 92.482422L-17.8412762373 233.903778237C-15.7865862373 235.711328237 -14.1922962373 236.285416237 -12.8256562373 236.384247237Z"
             style="fill:#ce5c00;fill-opacity:1" />
          <path
             id="path4934"
             d="M123.58008 92.482422C119.47069 88.867284 118.0852 84.288674 118.41797 78.695312L-23.0033862373 220.116668237C-23.3361562373 225.710030237 -21.9506662373 230.288640237 -17.8412762373 233.903778237Z"
             style="fill:#ce5c00;fill-opacity:1" />
          <path
             id="path4936"
             d="M118.41797 78.695312C118.75075 73.101951 121.11001 66.737327 124.52344 61.261719L-16.8979162373 202.683075237C-20.3113462373 208.158683237 -22.6706062373 214.523307237 -23.0033862373 220.116668237Z"
             style="fill:#ce5c00;fill-opacity:1" />
          <path
             id="path4938"
             d="M124.52344 61.261719C126.359819183 58.3159067699 128.509287614 55.6371983884 130.701916472 53.4445695306L-10.7194397651 194.865925768C-12.9120686229 197.058554626 -15.0615370542 199.737263007 -16.8979162373 202.683075237Z"
             style="fill:#ce5c00;fill-opacity:1" />
          <path
             id="path4940"
             d="M130.701916472 53.4445695306C132.584896434 51.5615895683 134.499707147 50.0370925291 136.27539 49.009766L-5.14596623731 190.431122237C-6.92164909037 191.458448766 -8.83645980284 192.982945806 -10.7194397651 194.865925768Z"
             style="fill:#ce5c00;fill-opacity:1" />
          <path
             id="path4942"
             d="M136.27539 49.009766C138.19708 47.897969 139.90395 47.390849 141.10742 47.345703L-0.313936237309 188.767059237C-1.51740623731 188.812205237 -3.22427623731 189.319325237 -5.14596623731 190.431122237Z"
             style="fill:#ce5c00;fill-opacity:1" />
          <path
             id="path4944"
             d="M76.570312 47.505859C72.1896192265 47.6544843983 68.2068727373 49.8762394517 65.1699692915 52.9131428974L-76.2513869458 194.334499135C-73.2144835001 191.297595689 -69.2317370108 189.075840636 -64.8510442373 188.927215237Z"
             style="fill:#ce5c00;fill-opacity:1" />
          <path
             id="path4946"
             d="M65.1699692915 52.9131428974C64.8979083904 53.1852037986 64.633438321 53.463806646 64.376953 53.748047L-77.0444032373 195.169403237C-76.7879179163 194.885162883 -76.523447847 194.606560036 -76.2513869458 194.334499135Z"
             style="fill:#ce5c00;fill-opacity:1" />
          <path
             id="path4948"
             d="M64.376953 53.748047C60.537538 58.002946 57.807332 63.609772 55.808594 69.441406L-85.6127622373 210.862762237C-83.6140242373 205.031128237 -80.8838182373 199.424302237 -77.0444032373 195.169403237Z"
             style="fill:#ce5c00;fill-opacity:1" />
          <path
             id="path4950"
             d="M55.808594 69.441406C53.809865 75.27304 52.600506 81.319202 52.273438 86.542969L-89.1479182373 227.964325237C-88.8208502373 222.740558237 -87.6114912373 216.694396237 -85.6127622373 210.862762237Z"
             style="fill:#ce5c00;fill-opacity:1" />
          <path
             id="path4952"
             d="M52.273438 86.542969C52.109889 89.154852 52.145357 91.567508 52.513672 93.759766L-88.9076842373 235.181122237C-89.2759992373 232.988864237 -89.3114672373 230.576208237 -89.1479182373 227.964325237Z"
             style="fill:#ce5c00;fill-opacity:1" />
          <path
             id="path4954"
             d="M52.513672 93.759766C52.881987 95.952014 53.427309 98.071677 55.363281 99.923828L-86.0580752373 241.345184237C-87.9940472373 239.493033237 -88.5393692373 237.373370237 -88.9076842373 235.181122237Z"
             style="fill:#ce5c00;fill-opacity:1" />
          <path
             id="path4956"
             d="M55.363281 99.923828C58.208084 102.64543 61.634582 104.24839 65.080078 104.32812L-76.3412782373 245.749476237C-79.7867742373 245.669746237 -83.2132722373 244.066786237 -86.0580752373 241.345184237Z"
             style="fill:#ce5c00;fill-opacity:1" />
          <path
             id="path4958"
             d="M65.080078 104.32812C68.525575 104.40772 71.674493 103.04946 74.296875 101.08984L-67.1244812373 242.511196237C-69.7468632373 244.470816237 -72.8957812373 245.829076237 -76.3412782373 245.749476237Z"
             style="fill:#ce5c00;fill-opacity:1" />
          <path
             id="path4960"
             d="M74.296875 101.08984C75.2418258924 100.383713441 76.1396352936 99.5987629424 76.9925954157 98.7458028203L-64.4287608216 240.167159058C-65.2817209437 241.02011918 -66.1795303449 241.805069679 -67.1244812373 242.511196237Z"
             style="fill:#ce5c00;fill-opacity:1" />
          <path
             id="path4962"
             d="M76.9925954157 98.7458028203C80.8738316496 94.8645665863 83.8264475975 89.5751668998 86.066406 83.896484L-55.3549502373 225.317840237C-57.5949086398 230.996523137 -60.5475245877 236.285922824 -64.4287608216 240.167159058Z"
             style="fill:#ce5c00;fill-opacity:1" />
          <path
             id="path4964"
             d="M86.066406 83.896484C88.798629 76.969825 90.378168 69.456308 90.044922 62.835938L-51.3764342373 204.257294237C-51.0431882373 210.877664237 -52.6227272373 218.391181237 -55.3549502373 225.317840237Z"
             style="fill:#ce5c00;fill-opacity:1" />
          <path
             id="path4966"
             d="M90.044922 62.835938C89.878341 59.525752 89.238076 56.402438 87.677734 53.636719L-53.7436222373 195.058075237C-52.1832802373 197.823794237 -51.5430152373 200.947108237 -51.3764342373 204.257294237Z"
             style="fill:#ce5c00;fill-opacity:1" />
          <path
             id="path4968"
             d="M87.677734 53.636719C86.117393 50.87099 83.342292 48.534667 79.941406 47.806641L-61.4799502373 189.227997237C-58.0790642373 189.956023237 -55.3039632373 192.292346237 -53.7436222373 195.058075237Z"
             style="fill:#ce5c00;fill-opacity:1" />
          <path
             id="path4970"
             d="M79.941406 47.806641C78.798265 47.561929 77.671806 47.468489 76.570312 47.505859L-64.8510442373 188.927215237C-63.7495502373 188.889845237 -62.6230912373 188.983285237 -61.4799502373 189.227997237Z"
             style="fill:#ce5c00;fill-opacity:1" />
          <path
             id="path4972"
             d="M77.167969 56.259766C77.47484 56.281219 77.787935 56.325721 78.109375 56.394531L-63.3119812373 197.815887237C-63.6334212373 197.747077237 -63.9465162373 197.702575237 -64.2533872373 197.681122237Z"
             style="fill:#ce5c00;fill-opacity:1" />
          <path
             id="path4974"
             d="M78.109375 56.394531C79.042624 56.594276 79.435977 56.89058 80.033203 57.949219L-61.3881532373 199.370575237C-61.9853792373 198.311936237 -62.3787322373 198.015632237 -63.3119812373 197.815887237Z"
             style="fill:#ce5c00;fill-opacity:1" />
          <path
             id="path4976"
             d="M80.033203 57.949219C80.630448 59.00781 81.135254 60.883257 81.255859 63.279297L-60.1654972373 204.700653237C-60.2861022373 202.304613237 -60.7909082373 200.429166237 -61.3881532373 199.370575237Z"
             style="fill:#ce5c00;fill-opacity:1" />
          <path
             id="path4978"
             d="M81.255859 63.279297C81.497107 68.071366 80.224123 74.732477 77.886719 80.658203L-63.5346372373 222.079559237C-61.1972332373 216.153833237 -59.9242492373 209.492722237 -60.1654972373 204.700653237Z"
             style="fill:#ce5c00;fill-opacity:1" />
          <path
             id="path4980"
             d="M77.886719 80.658203C75.9171351628 85.6514387266 73.1298265157 90.1272654905 70.4949462953 92.762145711L-70.926409942 234.183501948C-68.2915297216 231.548621728 -65.5042210746 227.072794964 -63.5346372373 222.079559237Z"
             style="fill:#ce5c00;fill-opacity:1" />
          <path
             id="path4982"
             d="M70.4949462953 92.762145711C70.0028805664 93.2542114398 69.5161309046 93.6820726403 69.041016 94.037109L-72.3803402373 235.458465237C-71.9052253327 235.103428878 -71.4184756709 234.675567677 -70.926409942 234.183501948Z"
             style="fill:#ce5c00;fill-opacity:1" />
          <path
             id="path4984"
             d="M69.041016 94.037109C67.531397 95.165195 66.308981 95.560846 65.283203 95.537109L-76.1381532373 236.958465237C-75.1123752373 236.982202237 -73.8899592373 236.586551237 -72.3803402373 235.458465237Z"
             style="fill:#ce5c00;fill-opacity:1" />
          <path
             id="path4986"
             d="M65.283203 95.537109C64.257435 95.51342 63.112648 95.163822 61.453125 93.576172L-79.9682312373 234.997528237C-78.3087082373 236.585178237 -77.1639212373 236.934776237 -76.1381532373 236.958465237Z"
             style="fill:#ce5c00;fill-opacity:1" />
          <path
             id="path4988"
             d="M61.453125 93.576172C61.5660940661 93.6842388507 61.6166287084 93.7324426881 61.6259533373 93.7231180592L-79.7954029 235.144474297C-79.8047275289 235.153798925 -79.8552621712 235.105595088 -79.9682312373 234.997528237Z"
             style="fill:#ce5c00;fill-opacity:1" />
          <path
             id="path4990"
             d="M61.6259533373 93.7231180592C61.6524970893 93.6965743072 61.345104055 93.2038605746 61.193359 92.298828L-80.2279972373 233.720184237C-80.0762521823 234.625216812 -79.768859148 235.117930545 -79.7954029 235.144474297Z"
             style="fill:#ce5c00;fill-opacity:1" />
          <path
             id="path4992"
             d="M61.193359 92.298828C60.987834 91.075466 60.911411 89.230654 61.044922 87.097656L-80.3764342373 228.519012237C-80.5099452373 230.652010237 -80.4335222373 232.496822237 -80.2279972373 233.720184237Z"
             style="fill:#ce5c00;fill-opacity:1" />
          <path
             id="path4994"
             d="M61.044922 87.097656C61.312038 82.831642 62.37753 77.386248 64.117188 72.310547L-77.3041682373 213.731903237C-79.0438262373 218.807604237 -80.1093182373 224.252998237 -80.3764342373 228.519012237Z"
             style="fill:#ce5c00;fill-opacity:1" />
          <path
             id="path4996"
             d="M64.117188 72.310547C65.856835 67.234836 68.31983 62.522995 70.910156 59.652344L-70.5112002373 201.073700237C-73.1015262373 203.944351237 -75.5645212373 208.656192237 -77.3041682373 213.731903237Z"
             style="fill:#ce5c00;fill-opacity:1" />
          <path
             id="path4998"
             d="M70.910156 59.652344C71.1670958209 59.3676001232 71.4185949312 59.1018868402 71.665714314 58.8547674574L-69.7556419233 200.276123695C-70.0027613061 200.523243078 -70.2542604164 200.78895636 -70.5112002373 201.073700237Z"
             style="fill:#ce5c00;fill-opacity:1" />
          <path
             id="path5000"
             d="M71.665714314 58.8547674574C73.5985098714 56.9219719 75.2633853261 56.1266169024 77.167969 56.259766L-64.2533872373 197.681122237C-66.1579709112 197.54797314 -67.8228463659 198.343328137 -69.7556419233 200.276123695Z"
             style="fill:#ce5c00;fill-opacity:1" />
          <path
             id="path5002"
             d="M197.07227 85.365234C194.5299 85.387811 191.92275 85.830183 189.39062 86.542969L47.9692637627 227.964325237C50.5013937627 227.251539237 53.1085437627 226.809167237 55.6509137627 226.786590237Z"
             style="fill:#ce5c00;fill-opacity:1" />
          <path
             id="path5004"
             d="M189.39062 86.542969C182.63827 88.44372 175.79966 92.36411 169.99609 97.388672L28.5747337627 238.810028237C34.3783037627 233.785466237 41.2169137627 229.865076237 47.9692637627 227.964325237Z"
             style="fill:#ce5c00;fill-opacity:1" />
          <path
             id="path5006"
             d="M169.99609 97.388672C168.97139801 98.2758230907 167.977165564 99.1970799428 167.023417352 100.150828155L25.6020611149 241.572184392C26.5558093268 240.61843618 27.5500417725 239.697179328 28.5747337627 238.810028237Z"
             style="fill:#ce5c00;fill-opacity:1" />
          <path
             id="path5008"
             d="M167.023417352 100.150828155C162.57541067 104.598834837 159.007944441 109.753535309 157.33789 115.45117L15.9165337627 256.872526237C17.5865882041 251.174891546 21.154054433 246.020191074 25.6020611149 241.572184392Z"
             style="fill:#ce5c00;fill-opacity:1" />
          <path
             id="path5010"
             d="M157.33789 115.45117C155.30974 122.37051 156.7902 130.44091 163.01953 136.28906L21.5981737627 277.710416237C15.3688437627 271.862266237 13.8883837627 263.791866237 15.9165337627 256.872526237Z"
             style="fill:#ce5c00;fill-opacity:1" />
          <path
             id="path5012"
             d="M163.01953 136.28906C169.24889 142.13721 177.37638 143.19431 184.2832 140.93555L42.8618437627 282.356906237C35.9550237627 284.615666237 27.8275337627 283.558566237 21.5981737627 277.710416237Z"
             style="fill:#ce5c00;fill-opacity:1" />
          <path
             id="path5014"
             d="M184.2832 140.93555C189.632437658 139.186168583 194.469808143 135.802904226 198.64728553 131.625426838L57.2259292931 273.046783076C53.048451906 277.224260463 48.2110814205 280.607524821 42.8618437627 282.356906237Z"
             style="fill:#ce5c00;fill-opacity:1" />
          <path
             id="path5016"
             d="M198.64728553 131.625426838C199.863692237 130.409020132 201.024148571 129.125274465 202.125 127.79492L60.7036437627 269.216276237C59.602792334 270.546630702 58.4423359999 271.830376369 57.2259292931 273.046783076Z"
             style="fill:#ce5c00;fill-opacity:1" />
          <path
             id="path5018"
             d="M202.125 127.79492C207.00648 121.89577 210.71437 115.02535 212.37695 108.28906L70.9555937627 249.710416237C69.2930137627 256.446706237 65.5851237627 263.317126237 60.7036437627 269.216276237Z"
             style="fill:#ce5c00;fill-opacity:1" />
          <path
             id="path5020"
             d="M212.37695 108.28906C214.03954 101.55277 213.66313 94.233924 208.56445 89.447266L67.1430937627 230.868622237C72.2417737627 235.655280237 72.6181837627 242.974126237 70.9555937627 249.710416237Z"
             style="fill:#ce5c00;fill-opacity:1" />
          <path
             id="path5022"
             d="M208.56445 89.447266C206.01512 87.053927 202.89918 85.853526 199.58789 85.488281L58.1665337627 226.909637237C61.4778237627 227.274882237 64.5937637627 228.475283237 67.1430937627 230.868622237Z"
             style="fill:#ce5c00;fill-opacity:1" />
          <path
             id="path5024"
             d="M199.58789 85.488281C198.76007 85.39696 197.91972 85.357709 197.07227 85.365234L55.6509137627 226.786590237C56.4983637627 226.779065237 57.3387137627 226.818316237 58.1665337627 226.909637237Z"
             style="fill:#ce5c00;fill-opacity:1" />
          <path
             id="path5026"
             d="M196.94336 94.708984C199.35323 94.669135 201.121 95.265838 202.17969 96.259766L60.7583337627 237.681122237C59.6996437627 236.687194237 57.9318737627 236.090491237 55.5220037627 236.130340237Z"
             style="fill:#ce5c00;fill-opacity:1" />
          <path
             id="path5028"
             d="M202.17969 96.259766C203.87359 97.850003 204.54918 101.11307 203.32617 106.06836L61.9048137627 247.489716237C63.1278237627 242.534426237 62.4522337627 239.271359237 60.7583337627 237.681122237Z"
             style="fill:#ce5c00;fill-opacity:1" />
          <path
             id="path5030"
             d="M203.32617 106.06836C202.10315 111.02364 198.98621 116.94658 194.92578 121.85352L53.5044237627 263.274876237C57.5648537627 258.367936237 60.6817937627 252.444996237 61.9048137627 247.489716237Z"
             style="fill:#ce5c00;fill-opacity:1" />
          <path
             id="path5032"
             d="M194.92578 121.85352C194.065686316 122.892926785 193.162585827 123.884827717 192.230810207 124.816603337L50.8094539698 266.237959575C51.7412295899 265.306183955 52.6443300791 264.314283023 53.5044237627 263.274876237Z"
             style="fill:#ce5c00;fill-opacity:1" />
          <path
             id="path5034"
             d="M192.230810207 124.816603337C188.763762262 128.283651283 184.899703427 130.918256526 181.37695 132.07031L39.9555937627 273.491666237C43.47834719 272.339612763 47.3424060246 269.70500752 50.8094539698 266.237959575Z"
             style="fill:#ce5c00;fill-opacity:1" />
          <path
             id="path5036"
             d="M181.37695 132.07031C176.90745 133.53199 173.3638 133.21526 169.4043 129.49805L27.9829437627 270.919406237C31.9424437627 274.636616237 35.4860937627 274.953346237 39.9555937627 273.491666237Z"
             style="fill:#ce5c00;fill-opacity:1" />
          <path
             id="path5038"
             d="M169.4043 129.49805C165.44478 125.78084 165.01293 122.45181 166.29492 118.07812L24.8735637627 259.499476237C23.5915737627 263.873166237 24.0234237627 267.202196237 27.9829437627 270.919406237Z"
             style="fill:#ce5c00;fill-opacity:1" />
          <path
             id="path5040"
             d="M166.29492 118.07812C167.369868239 114.410790604 170.137921719 110.24847759 173.855247901 106.531151408L32.4338916635 247.952507645C28.7165654819 251.669833827 25.9485120013 255.832146842 24.8735637627 259.499476237Z"
             style="fill:#ce5c00;fill-opacity:1" />
          <path
             id="path5042"
             d="M173.855247901 106.531151408C174.571228199 105.81517111 175.32242383 105.115698565 176.10352 104.43945L34.6821637627 245.860806237C33.9010675926 246.537054802 33.1498719617 247.236527347 32.4338916635 247.952507645Z"
             style="fill:#ce5c00;fill-opacity:1" />
          <path
             id="path5044"
             d="M176.10352 104.43945C180.94001 100.25215 186.87727 96.938714 191.92578 95.517578L50.5044237627 236.938934237C45.4559137627 238.360070237 39.5186537627 241.673506237 34.6821637627 245.860806237Z"
             style="fill:#ce5c00;fill-opacity:1" />
          <path
             id="path5046"
             d="M191.92578 95.517578C193.81897 94.984656 195.49743 94.732894 196.94336 94.708984L55.5220037627 236.130340237C54.0760737627 236.154250237 52.3976137627 236.406012237 50.5044237627 236.938934237Z"
             style="fill:#ce5c00;fill-opacity:1" />
          <path
             id="path5048"
             d="M105.11719 113.79102C97.797146 113.73523 91.157492 116.46412 82.087891 117.39453L-59.3334652373 258.815886237C-50.2638642373 257.885476237 -43.6242102373 255.156586237 -36.3041662373 255.212376237Z"
             style="fill:#ce5c00;fill-opacity:1" />
          <path
             id="path5050"
             d="M82.087891 117.39453C72.650746 118.36266 66.884168 117.77867 61.673828 118.13477L-79.7475282373 259.556126237C-74.5371882373 259.200026237 -68.7706102373 259.784016237 -59.3334652373 258.815886237Z"
             style="fill:#ce5c00;fill-opacity:1" />
          <path
             id="path5052"
             d="M61.673828 118.13477C57.6109651184 118.412438563 53.4944406702 119.998134033 50.2712475407 123.221327163L-91.1501086966 264.6426834C-87.9269155671 261.419490271 -83.8103911189 259.8337948 -79.7475282373 259.556126237Z"
             style="fill:#ce5c00;fill-opacity:1" />
          <path
             id="path5054"
             d="M50.2712475407 123.221327163C49.360926853 124.131647851 48.5218633611 125.172584681 47.775391 126.35156L-93.6459652373 267.772916237C-92.8994928762 266.593940919 -92.0604293843 265.553004088 -91.1501086966 264.6426834Z"
             style="fill:#ce5c00;fill-opacity:1" />
          <path
             id="path5056"
             d="M47.775391 126.35156C40.702019 137.52321 41.685179 150.9993 47.017578 163.3457L-94.4037782373 304.767056237C-99.7361772373 292.420656237 -100.719337237 278.944566237 -93.6459652373 267.772916237Z"
             style="fill:#ce5c00;fill-opacity:1" />
          <path
             id="path5058"
             d="M47.017578 163.3457C52.350001 175.6921 61.945593 187.44705 73.333984 196.97461L-68.0873722373 338.395966237C-79.4757632373 328.868406237 -89.0713552373 317.113456237 -94.4037782373 304.767056237Z"
             style="fill:#ce5c00;fill-opacity:1" />
          <path
             id="path5060"
             d="M73.333984 196.97461C84.722366 206.50217 97.888329 213.81276 110.83008 216.7207L-30.5912762373 358.142056237C-43.5330272373 355.234116237 -56.6989902373 347.923526237 -68.0873722373 338.395966237Z"
             style="fill:#ce5c00;fill-opacity:1" />
          <path
             id="path5062"
             d="M110.83008 216.7207C123.764639166 219.627034254 137.030320063 217.873990613 146.347743887 208.556566789L4.92638764965 349.977923026C-4.39103617431 359.29534685 -17.656717071 361.048390491 -30.5912762373 358.142056237Z"
             style="fill:#ce5c00;fill-opacity:1" />
          <path
             id="path5064"
             d="M146.347743887 208.556566789C146.352923812 208.551386864 146.358102516 208.546204601 146.36328 208.54102L4.94192376269 349.962376237C4.93674627912 349.967560839 4.93156757453 349.972743101 4.92638764965 349.977923026Z"
             style="fill:#ce5c00;fill-opacity:1" />
          <path
             id="path5066"
             d="M146.36328 208.54102C150.89209 204.00598 152.1085 198.21199 151.41406 192.88281L9.99270376269 334.304166237C10.6871437627 339.633346237 9.47073376269 345.427336237 4.94192376269 349.962376237Z"
             style="fill:#ce5c00;fill-opacity:1" />
          <path
             id="path5068"
             d="M151.41406 192.88281C150.71965 187.55359 149.01322 181.8272 148.10156 172.52539L6.68020376269 313.946746237C7.59186376269 323.248556237 9.29829376269 328.974946237 9.99270376269 334.304166237Z"
             style="fill:#ce5c00;fill-opacity:1" />
          <path
             id="path5070"
             d="M148.10156 172.52539C147.13286 162.64175 148.85095 155.38774 147.08398 147.76367L5.66262376269 289.185026237C7.42959376269 296.809096237 5.71150376269 304.063106237 6.68020376269 313.946746237Z"
             style="fill:#ce5c00;fill-opacity:1" />
          <path
             id="path5072"
             d="M147.08398 147.76367C146.2005 143.95164 144.08826 140.14966 140.5332 137.19531L-0.888156237309 278.616666237C2.66690376269 281.571016237 4.77914376269 285.372996237 5.66262376269 289.185026237Z"
             style="fill:#ce5c00;fill-opacity:1" />
          <path
             id="path5074"
             d="M140.5332 137.19531C137.38237 134.57689 132.78202 132.58737 127.28125 130.66406L-14.1401062373 272.085416237C-8.63933623731 274.008726237 -4.03898623731 275.998246237 -0.888156237309 278.616666237Z"
             style="fill:#ce5c00;fill-opacity:1" />
          <path
             id="path5076"
             d="M127.28125 130.66406C124.3317 125.509 121.47899 121.28541 118.28711 118.59766L-23.1342462373 260.019016237C-19.9423662373 262.706766237 -17.0896562373 266.930356237 -14.1401062373 272.085416237Z"
             style="fill:#ce5c00;fill-opacity:1" />
          <path
             id="path5078"
             d="M118.28711 118.59766C114.69409 115.57212 110.55157 114.07845 106.5918 113.83984L-34.8295562373 255.261196237C-30.8697862373 255.499806237 -26.7272662373 256.993476237 -23.1342462373 260.019016237Z"
             style="fill:#ce5c00;fill-opacity:1" />
          <path
             id="path5080"
             d="M106.5918 113.83984C106.09682 113.81002 105.60519 113.79473 105.11719 113.79102L-36.3041662373 255.212376237C-35.8161662373 255.216086237 -35.3245362373 255.231376237 -34.8295562373 255.261196237Z"
             style="fill:#ce5c00;fill-opacity:1" />
          <path
             id="path5082"
             d="M105.125 123.65039C105.42722 123.64546 105.71913 123.65122 105.99805 123.66797L-35.4233062373 265.089326237C-35.7022262373 265.072576237 -35.9941362373 265.066816237 -36.2963562373 265.071746237Z"
             style="fill:#ce5c00;fill-opacity:1" />
          <path
             id="path5084"
             d="M105.99805 123.66797L106.0 123.66797L-35.4213562373 265.089326237L-35.4233062373 265.089326237Z"
             style="fill:#ce5c00;fill-opacity:1" />
          <path
             id="path5086"
             d="M106.0 123.66797C108.23484 123.80289 109.80688 124.29918 111.95898 126.11133L-29.4623762373 267.532686237C-31.6144762373 265.720536237 -33.1865162373 265.224246237 -35.4213562373 265.089326237Z"
             style="fill:#ce5c00;fill-opacity:1" />
          <path
             id="path5088"
             d="M111.95898 126.11133C114.11172 127.92406 116.7297 131.27145 119.75 136.86328L-21.6713562373 278.284636237C-24.6916562373 272.692806237 -27.3096362373 269.345416237 -29.4623762373 267.532686237Z"
             style="fill:#ce5c00;fill-opacity:1" />
          <path
             id="path5090"
             d="M119.75 136.86328L120.69336 138.60352L-20.7279962373 280.024876237L-21.6713562373 278.284636237Z"
             style="fill:#ce5c00;fill-opacity:1" />
          <path
             id="path5092"
             d="M120.69336 138.60352L122.5625 139.19531L-18.8588562373 280.616666237L-20.7279962373 280.024876237Z"
             style="fill:#ce5c00;fill-opacity:1" />
          <path
             id="path5094"
             d="M122.5625 139.19531C128.51527 141.11231 132.17316 143.04783 134.24023 144.76562L-7.18112623731 286.186976237C-9.24819623731 284.469186237 -12.9060862373 282.533666237 -18.8588562373 280.616666237Z"
             style="fill:#ce5c00;fill-opacity:1" />
          <path
             id="path5096"
             d="M134.24023 144.76562C136.30731 146.48342 136.99862 147.82947 137.49805 149.98438L-3.92330623731 291.405736237C-4.42273623731 289.250826237 -5.11404623731 287.904776237 -7.18112623731 286.186976237Z"
             style="fill:#ce5c00;fill-opacity:1" />
          <path
             id="path5098"
             d="M137.49805 149.98438C138.4969 154.2942 137.20916 162.23127 138.3125 173.48828L-3.10885623731 314.909636237C-4.21219623731 303.652626237 -2.92445623731 295.715556237 -3.92330623731 291.405736237Z"
             style="fill:#ce5c00;fill-opacity:1" />
          <path
             id="path5100"
             d="M138.3125 173.48828C139.30069 183.57101 141.14138 190.164 141.66211 194.16016L0.240753762691 335.581516237C-0.279976237309 331.585356237 -2.12066623731 324.992366237 -3.10885623731 314.909636237Z"
             style="fill:#ce5c00;fill-opacity:1" />
          <path
             id="path5102"
             d="M141.66211 194.16016C142.18279 198.15632 142.308 198.69194 139.4043 201.59961L-2.01705623731 343.020966237C0.886643762691 340.113296237 0.761433762691 339.577676237 0.240753762691 335.581516237Z"
             style="fill:#ce5c00;fill-opacity:1" />
          <path
             id="path5104"
             d="M139.4043 201.59961C139.40046722 201.603448053 139.396633568 201.607284341 139.392799044 201.611118865L-2.02855719337 343.032475102C-2.02472266918 343.028640578 -2.02088901711 343.02480429 -2.01705623731 343.020966237Z"
             style="fill:#ce5c00;fill-opacity:1" />
          <path
             id="path5106"
             d="M139.392799044 201.611118865C132.873376027 208.130541882 123.832954942 209.550667551 112.99414 207.11523L-28.4272162373 348.536586237C-17.588401295 350.972023788 -8.54798021067 349.55189812 -2.02855719337 343.032475102Z"
             style="fill:#ce5c00;fill-opacity:1" />
          <path
             id="path5108"
             d="M112.99414 207.11523C102.14895 204.67837 90.044611 198.12457 79.644531 189.42383L-61.7768252373 330.845186237C-51.3767452373 339.545926237 -39.2724062373 346.099726237 -28.4272162373 348.536586237Z"
             style="fill:#ce5c00;fill-opacity:1" />
          <path
             id="path5110"
             d="M79.644531 189.42383C69.244442 180.72309 60.53997 169.88519 56.029297 159.44141L-85.3920592373 300.862766237C-80.8813862373 311.306546237 -72.1769142373 322.144446237 -61.7768252373 330.845186237Z"
             style="fill:#ce5c00;fill-opacity:1" />
          <path
             id="path5112"
             d="M56.029297 159.44141C51.518623 148.99763 51.109729 139.48379 56.085938 131.625L-85.3354182373 273.046356237C-90.3116272373 280.905146237 -89.9027332373 290.418986237 -85.3920592373 300.862766237Z"
             style="fill:#ce5c00;fill-opacity:1" />
          <path
             id="path5114"
             d="M56.085938 131.625C56.8573423412 130.406650201 57.389785594 129.621154441 57.9061731723 129.104766863L-83.515183065 270.5261231C-84.0315706433 271.042510678 -84.5640138961 271.828006438 -85.3354182373 273.046356237Z"
             style="fill:#ce5c00;fill-opacity:1" />
          <path
             id="path5116"
             d="M57.9061731723 129.104766863C58.9058338237 128.105106211 59.8453241751 128.11395629 62.341797 127.94336L-79.0795592373 269.364716237C-81.5760320622 269.535312528 -82.5155224136 269.526462449 -83.515183065 270.5261231Z"
             style="fill:#ce5c00;fill-opacity:1" />
          <path
             id="path5118"
             d="M62.341797 127.94336C66.127845 127.68468 72.864123 128.23244 83.087891 127.18359L-58.3334652373 268.604946237C-68.5572332373 269.653796237 -75.2935112373 269.106036237 -79.0795592373 269.364716237Z"
             style="fill:#ce5c00;fill-opacity:1" />
          <path
             id="path5120"
             d="M83.087891 127.18359C93.390598 126.12668 100.58158 123.72455 105.125 123.65039L-36.2963562373 265.071746237C-40.8397762373 265.145906237 -48.0307582373 267.548036237 -58.3334652373 268.604946237Z"
             style="fill:#ce5c00;fill-opacity:1" />
          <path
             id="path5122"
             d="M200.00781 151.70312C198.86127 151.69696 197.70992 151.80776 196.57227 152.00195L55.1509137627 293.423306237C56.2885637627 293.229116237 57.4399137627 293.118316237 58.5864537627 293.124476237Z"
             style="fill:#ce5c00;fill-opacity:1" />
          <path
             id="path5124"
             d="M196.57227 152.00195C190.50476 153.03759 184.3866 156.4501 179.02734 160.99609L37.6059837627 302.417446237C42.9652437627 297.871456237 49.0834037627 294.458946237 55.1509137627 293.423306237Z"
             style="fill:#ce5c00;fill-opacity:1" />
          <path
             id="path5126"
             d="M179.02734 160.99609C177.962998395 161.898918995 176.928976304 162.847235937 175.938768275 163.837443966L34.5174120375 305.258800203C35.5076200668 304.268592174 36.5416421581 303.320275232 37.6059837627 302.417446237Z"
             style="fill:#ce5c00;fill-opacity:1" />
          <path
             id="path5128"
             d="M175.938768275 163.837443966C171.943009056 167.833203185 168.660692789 172.511092744 166.97852 177.63477L25.5571637627 319.056126237C27.2393365515 313.932448981 30.5216528188 309.254559422 34.5174120375 305.258800203Z"
             style="fill:#ce5c00;fill-opacity:1" />
          <path
             id="path5130"
             d="M166.97852 177.63477C164.87948 184.02816 165.9124 191.67634 171.7168 196.95508L30.2954437627 338.376436237C24.4910437627 333.097696237 23.4581237627 325.449516237 25.5571637627 319.056126237Z"
             style="fill:#ce5c00;fill-opacity:1" />
          <path
             id="path5132"
             d="M171.7168 196.95508C173.68766 198.74744 176.04856 199.11794 178.19531 199.08398L36.7739537627 340.505336237C34.6272037627 340.539296237 32.2663037627 340.168796237 30.2954437627 338.376436237Z"
             style="fill:#ce5c00;fill-opacity:1" />
          <path
             id="path5134"
             d="M178.19531 199.08398C180.34208 199.04987 182.51551 198.56826 184.7832 197.82422L43.3618437627 339.245576237C41.0941537627 339.989616237 38.9207237627 340.471226237 36.7739537627 340.505336237Z"
             style="fill:#ce5c00;fill-opacity:1" />
          <path
             id="path5136"
             d="M184.7832 197.82422C189.31858 196.33609 194.24798 193.70542 198.83008 190.21875L57.4087237627 331.640106237C52.8266237627 335.126776237 47.8972237627 337.757446237 43.3618437627 339.245576237Z"
             style="fill:#ce5c00;fill-opacity:1" />
          <path
             id="path5138"
             d="M198.83008 190.21875C200.617169966 188.858897667 202.35020714 187.37110138 203.962067483 185.759241037L62.5407112456 327.180597274C60.9288509028 328.792457617 59.1958137287 330.280253905 57.4087237627 331.640106237Z"
             style="fill:#ce5c00;fill-opacity:1" />
          <path
             id="path5140"
             d="M203.962067483 185.759241037C206.483027276 183.238281245 208.707574503 180.413846403 210.37891 177.30078L68.9575537627 318.722136237C67.2862182661 321.83520264 65.0616710383 324.659637482 62.5407112456 327.180597274Z"
             style="fill:#ce5c00;fill-opacity:1" />
          <path
             id="path5142"
             d="M210.37891 177.30078C213.11887 172.19727 214.29039 166.03533 212.09961 160.0332L70.6782537627 301.454556237C72.8690337627 307.456686237 71.6975137627 313.618626237 68.9575537627 318.722136237Z"
             style="fill:#ce5c00;fill-opacity:1" />
          <path
             id="path5144"
             d="M212.09961 160.0332C210.90753 156.7672 208.5093 154.1428 205.62109 152.85352L64.1997337627 294.274876237C67.0879437627 295.564156237 69.4861737627 298.188556237 70.6782537627 301.454556237Z"
             style="fill:#ce5c00;fill-opacity:1" />
          <path
             id="path5146"
             d="M205.62109 152.85352C203.81597 152.04771 201.91871 151.71341 200.00781 151.70312L58.5864537627 293.124476237C60.4973537627 293.134766237 62.3946137627 293.469066237 64.1997337627 294.274876237Z"
             style="fill:#ce5c00;fill-opacity:1" />
          <path
             id="path5148"
             d="M199.34375 160.47656C200.5399 160.41072 201.44902 160.57902 202.05078 160.84766L60.6294237627 302.269016237C60.0276637627 302.000376237 59.1185437627 301.832076237 57.9223937627 301.897916237Z"
             style="fill:#ce5c00;fill-opacity:1" />
          <path
             id="path5150"
             d="M202.05078 160.84766C202.85317 161.20583 203.36764 161.61979 203.88281 163.03125L62.4614537627 304.452606237C61.9462837627 303.041146237 61.4318137627 302.627186237 60.6294237627 302.269016237Z"
             style="fill:#ce5c00;fill-opacity:1" />
          <path
             id="path5152"
             d="M203.88281 163.03125C205.10656 166.384 204.57012 169.61633 202.66016 173.17383L61.2388037627 314.595186237C63.1487637627 311.037686237 63.6852037627 307.805356237 62.4614537627 304.452606237Z"
             style="fill:#ce5c00;fill-opacity:1" />
          <path
             id="path5154"
             d="M202.66016 173.17383C201.486249735 175.360383383 199.758143419 177.559894363 197.709843222 179.608194561L56.2884869843 321.029550798C58.3367871818 318.981250601 60.0648934974 316.78173962 61.2388037627 314.595186237Z"
             style="fill:#ce5c00;fill-opacity:1" />
          <path
             id="path5156"
             d="M197.709843222 179.608194561C196.425579939 180.892457844 195.01544326 182.117277721 193.53711 183.24219L52.1157537627 324.663546237C53.594087023 323.538633959 55.0042237015 322.313814081 56.2884869843 321.029550798Z"
             style="fill:#ce5c00;fill-opacity:1" />
          <path
             id="path5158"
             d="M193.53711 183.24219C189.70094 186.16125 185.40014 188.41473 182.04492 189.51562L40.6235637627 330.936976237C43.9787837627 329.836086237 48.2795837627 327.582606237 52.1157537627 324.663546237Z"
             style="fill:#ce5c00;fill-opacity:1" />
          <path
             id="path5160"
             d="M182.04492 189.51562C180.36732 190.06606 178.92555 190.31643 178.06445 190.33008L36.6430937627 331.751436237C37.5041937627 331.737786237 38.9459637627 331.487416237 40.6235637627 330.936976237Z"
             style="fill:#ce5c00;fill-opacity:1" />
          <path
             id="path5162"
             d="M178.06445 190.33008C177.68156 190.33598 177.48468 190.2905 177.39648 190.26953L35.9751237627 331.690886237C36.0633237627 331.711856237 36.2602037627 331.757336237 36.6430937627 331.751436237Z"
             style="fill:#ce5c00;fill-opacity:1" />
          <path
             id="path5164"
             d="M177.39648 190.26953C177.47032 190.33943 177.52451 190.40844 177.60156 190.47852L36.1802037627 331.899876237C36.1031537627 331.829796237 36.0489637627 331.760786237 35.9751237627 331.690886237Z"
             style="fill:#ce5c00;fill-opacity:1" />
          <path
             id="path5166"
             d="M177.60156 190.47852C177.426401267 190.31918187 177.339937896 190.267351379 177.346635397 190.260653878L35.9252791597 331.682010115C35.918581659 331.688707616 36.0050450297 331.740538107 36.1802037627 331.899876237Z"
             style="fill:#ce5c00;fill-opacity:1" />
          <path
             id="path5168"
             d="M177.346635397 190.260653878C177.349225985 190.25806329 177.365754713 190.262225214 177.39648 190.26953L35.9751237627 331.690886237C35.9443984753 331.683581451 35.9278697479 331.679419527 35.9252791597 331.682010115Z"
             style="fill:#ce5c00;fill-opacity:1" />
          <path
             id="path5170"
             d="M177.39648 190.26953C174.21589 187.25867 173.9801 184.39592 175.30664 180.35547L33.8852837627 321.776826237C32.5587437627 325.817276237 32.7945337627 328.680026237 35.9751237627 331.690886237Z"
             style="fill:#ce5c00;fill-opacity:1" />
          <path
             id="path5172"
             d="M175.30664 180.35547C176.415677637 176.977502843 179.027806351 173.158159693 182.356607438 169.829358607L40.9352512003 311.250714844C37.6064501138 314.57951593 34.9943213996 318.39885908 33.8852837627 321.776826237Z"
             style="fill:#ce5c00;fill-opacity:1" />
          <path
             id="path5174"
             d="M182.356607438 169.829358607C183.101892492 169.084073552 183.88310197 168.363377753 184.69141 167.67773L43.2700537627 309.099086237C42.4617457326 309.78473399 41.6805362551 310.505429789 40.9352512003 311.250714844Z"
             style="fill:#ce5c00;fill-opacity:1" />
          <path
             id="path5176"
             d="M184.69141 167.67773C189.11001 163.92965 194.35634 161.25787 198.05273 160.62695L56.6313737627 302.048306237C52.9349837627 302.679226237 47.6886537627 305.351006237 43.2700537627 309.099086237Z"
             style="fill:#ce5c00;fill-opacity:1" />
          <path
             id="path5178"
             d="M198.05273 160.62695C198.51478 160.54809 198.94503 160.49851 199.34375 160.47656L57.9223937627 301.897916237C57.5236737627 301.919866237 57.0934237627 301.969446237 56.6313737627 302.048306237Z"
             style="fill:#ce5c00;fill-opacity:1" />
        </g>
        <path
           id="path4828"
           d="M 140.75586 38.017578 C 137.5177 38.139045 134.46132 39.264791 131.59375 40.923828 C 125.85861 44.241901 120.66863 49.767976 116.58398 56.320312 C 112.49934 62.872649 109.54677 70.460564 109.08984 78.140625 C 108.63293 85.820696 110.98077 93.835078 117.41797 99.498047 C 120.63656 102.32955 124.25046 104.02491 127.92969 104.29102 C 131.60891 104.55709 135.11472 103.38429 138.05273 101.47852 C 143.92877 97.666902 148.11226 91.130295 151.21094 83.802734 C 154.30962 76.475183 156.21861 68.290606 156.41211 60.744141 C 156.60561 53.197675 155.32584 45.903975 150.06445 41.275391 C 147.43376 38.9611 143.99403 37.89611 140.75586 38.017578 z M 141.10742 47.345703 C 142.31089 47.300599 142.99798 47.510645 143.88281 48.289062 C 145.65249 49.845889 147.22316 54.390355 147.06641 60.503906 C 146.90968 66.617457 145.2471 73.929042 142.60547 80.175781 C 139.96384 86.422521 136.22594 91.531795 132.96289 93.648438 C 131.33136 94.706754 129.96235 95.06173 128.5957 94.962891 C 127.22906 94.86406 125.63477 94.289972 123.58008 92.482422 C 119.47069 88.867284 118.0852 84.288674 118.41797 78.695312 C 118.75075 73.101951 121.11001 66.737327 124.52344 61.261719 C 127.93686 55.78611 132.43202 51.233359 136.27539 49.009766 C 138.19708 47.897969 139.90395 47.390849 141.10742 47.345703 z M 76.570312 47.505859 C 71.797175 47.667799 67.496478 50.290949 64.376953 53.748047 C 60.537538 58.002946 57.807332 63.609772 55.808594 69.441406 C 53.809865 75.27304 52.600506 81.319202 52.273438 86.542969 C 52.109889 89.154852 52.145357 91.567508 52.513672 93.759766 C 52.881987 95.952014 53.427309 98.071677 55.363281 99.923828 C 58.208084 102.64543 61.634582 104.24839 65.080078 104.32812 C 68.525575 104.40772 71.674493 103.04946 74.296875 101.08984 C 79.541649 97.170616 83.334183 90.823143 86.066406 83.896484 C 88.798629 76.969825 90.378168 69.456308 90.044922 62.835938 C 89.878341 59.525752 89.238076 56.402438 87.677734 53.636719 C 86.117393 50.87099 83.342292 48.534667 79.941406 47.806641 C 78.798265 47.561929 77.671806 47.468489 76.570312 47.505859 z M 77.167969 56.259766 C 77.47484 56.281219 77.787935 56.325721 78.109375 56.394531 C 79.042624 56.594276 79.435977 56.89058 80.033203 57.949219 C 80.630448 59.00781 81.135254 60.883257 81.255859 63.279297 C 81.497107 68.071366 80.224123 74.732477 77.886719 80.658203 C 75.549314 86.583929 72.060244 91.780948 69.041016 94.037109 C 67.531397 95.165195 66.308981 95.560846 65.283203 95.537109 C 64.257435 95.51342 63.112648 95.163822 61.453125 93.576172 C 61.887675 93.991865 61.398411 93.521792 61.193359 92.298828 C 60.987834 91.075466 60.911411 89.230654 61.044922 87.097656 C 61.312038 82.831642 62.37753 77.386248 64.117188 72.310547 C 65.856835 67.234836 68.31983 62.522995 70.910156 59.652344 C 73.1767 57.140532 75.019873 56.109593 77.167969 56.259766 z M 197.07227 85.365234 C 194.5299 85.387811 191.92275 85.830183 189.39062 86.542969 C 182.63827 88.44372 175.79966 92.36411 169.99609 97.388672 C 164.19253 102.41324 159.36604 108.53184 157.33789 115.45117 C 155.30974 122.37051 156.7902 130.44091 163.01953 136.28906 C 169.24889 142.13721 177.37638 143.19431 184.2832 140.93555 C 191.19004 138.67678 197.24352 133.69408 202.125 127.79492 C 207.00648 121.89577 210.71437 115.02535 212.37695 108.28906 C 214.03954 101.55277 213.66313 94.233924 208.56445 89.447266 C 206.01512 87.053927 202.89918 85.853526 199.58789 85.488281 C 198.76007 85.39696 197.91972 85.357709 197.07227 85.365234 z M 196.94336 94.708984 C 199.35323 94.669135 201.121 95.265838 202.17969 96.259766 C 203.87359 97.850003 204.54918 101.11307 203.32617 106.06836 C 202.10315 111.02364 198.98621 116.94658 194.92578 121.85352 C 190.86536 126.76046 185.84645 130.60864 181.37695 132.07031 C 176.90745 133.53199 173.3638 133.21526 169.4043 129.49805 C 165.44478 125.78084 165.01293 122.45181 166.29492 118.07812 C 167.57691 113.70444 171.26702 108.62674 176.10352 104.43945 C 180.94001 100.25215 186.87727 96.938714 191.92578 95.517578 C 193.81897 94.984656 195.49743 94.732894 196.94336 94.708984 z M 105.11719 113.79102 C 97.797146 113.73523 91.157492 116.46412 82.087891 117.39453 C 72.650746 118.36266 66.884168 117.77867 61.673828 118.13477 C 56.463498 118.49086 51.164915 120.99816 47.775391 126.35156 C 40.702019 137.52321 41.685179 150.9993 47.017578 163.3457 C 52.350001 175.6921 61.945593 187.44705 73.333984 196.97461 C 84.722366 206.50217 97.888329 213.81276 110.83008 216.7207 C 123.77183 219.62865 137.04507 217.87204 146.36328 208.54102 C 150.89209 204.00598 152.1085 198.21199 151.41406 192.88281 C 150.71965 187.55359 149.01322 181.8272 148.10156 172.52539 C 147.13286 162.64175 148.85095 155.38774 147.08398 147.76367 C 146.2005 143.95164 144.08826 140.14966 140.5332 137.19531 C 137.38237 134.57689 132.78202 132.58737 127.28125 130.66406 C 124.3317 125.509 121.47899 121.28541 118.28711 118.59766 C 114.69409 115.57212 110.55157 114.07845 106.5918 113.83984 C 106.09682 113.81002 105.60519 113.79473 105.11719 113.79102 z M 105.125 123.65039 C 105.42722 123.64546 105.71913 123.65122 105.99805 123.66797 L 106 123.66797 C 108.23484 123.80289 109.80688 124.29918 111.95898 126.11133 C 114.11172 127.92406 116.7297 131.27145 119.75 136.86328 L 120.69336 138.60352 L 122.5625 139.19531 C 128.51527 141.11231 132.17316 143.04783 134.24023 144.76562 C 136.30731 146.48342 136.99862 147.82947 137.49805 149.98438 C 138.4969 154.2942 137.20916 162.23127 138.3125 173.48828 C 139.30069 183.57101 141.14138 190.164 141.66211 194.16016 C 142.18279 198.15632 142.308 198.69194 139.4043 201.59961 C 132.88401 208.12887 123.83933 209.5521 112.99414 207.11523 C 102.14895 204.67837 90.044611 198.12457 79.644531 189.42383 C 69.244442 180.72309 60.53997 169.88519 56.029297 159.44141 C 51.518623 148.99763 51.109729 139.48379 56.085938 131.625 C 58.350683 128.04808 58.555739 128.20208 62.341797 127.94336 C 66.127845 127.68468 72.864123 128.23244 83.087891 127.18359 C 93.390598 126.12668 100.58158 123.72455 105.125 123.65039 z M 200.00781 151.70312 C 198.86127 151.69696 197.70992 151.80776 196.57227 152.00195 C 190.50476 153.03759 184.3866 156.4501 179.02734 160.99609 C 173.66809 165.54208 169.07756 171.24137 166.97852 177.63477 C 164.87948 184.02816 165.9124 191.67634 171.7168 196.95508 C 173.68766 198.74744 176.04856 199.11794 178.19531 199.08398 C 180.34208 199.04987 182.51551 198.56826 184.7832 197.82422 C 189.31858 196.33609 194.24798 193.70542 198.83008 190.21875 C 203.41219 186.73208 207.63895 182.40429 210.37891 177.30078 C 213.11887 172.19727 214.29039 166.03533 212.09961 160.0332 C 210.90753 156.7672 208.5093 154.1428 205.62109 152.85352 C 203.81597 152.04771 201.91871 151.71341 200.00781 151.70312 z M 199.34375 160.47656 C 200.5399 160.41072 201.44902 160.57902 202.05078 160.84766 C 202.85317 161.20583 203.36764 161.61979 203.88281 163.03125 C 205.10656 166.384 204.57012 169.61633 202.66016 173.17383 C 200.75022 176.73133 197.37327 180.32313 193.53711 183.24219 C 189.70094 186.16125 185.40014 188.41473 182.04492 189.51562 C 180.36732 190.06606 178.92555 190.31643 178.06445 190.33008 C 177.68156 190.33598 177.48468 190.2905 177.39648 190.26953 C 177.47032 190.33943 177.52451 190.40844 177.60156 190.47852 C 177.35865 190.25755 177.28632 190.24334 177.39648 190.26953 C 174.21589 187.25867 173.9801 184.39592 175.30664 180.35547 C 176.66398 176.22121 180.27281 171.42581 184.69141 167.67773 C 189.11001 163.92965 194.35634 161.25787 198.05273 160.62695 C 198.51478 160.54809 198.94503 160.49851 199.34375 160.47656 z "
           style="color:#000000;font-style:normal;font-variant:normal;font-weight:normal;font-stretch:normal;font-size:medium;line-height:normal;font-family:sans-serif;font-variant-ligatures:normal;font-variant-position:normal;font-variant-caps:normal;font-variant-numeric:normal;font-variant-alternates:normal;font-feature-settings:normal;text-indent:0;text-align:start;text-decoration:none;text-decoration-line:none;text-decoration-style:solid;text-decoration-color:#000000;letter-spacing:normal;word-spacing:normal;text-transform:none;writing-mode:lr-tb;direction:ltr;text-orientation:mixed;dominant-baseline:auto;baseline-shift:baseline;text-anchor:start;white-space:normal;shape-padding:0;clip-rule:nonzero;display:inline;overflow:visible;visibility:visible;opacity:1;isolation:auto;mix-blend-mode:normal;color-interpolation:sRGB;color-interpolation-filters:linearRGB;solid-color:#000000;solid-opacity:1;vector-effect:none;fill:#ce5c00;fill-opacity:1;fill-rule:evenodd;stroke:none;stroke-width:9.32462597px;stroke-linecap:butt;stroke-linejoin:miter;stroke-miterlimit:4;stroke-dasharray:none;stroke-dashoffset:0;stroke-opacity:1;color-rendering:auto;image-rendering:auto;shape-rendering:auto;text-rendering:auto;enable-background:accumulate"
           transform="" />
      </g>
    </g>
    <g
       style="fill:#fffafa;fill-opacity:1;stroke:#ffffff;stroke-opacity:1"
       id="g3895"
       transform="matrix(9.4755677,0,0,9.4755677,-52.050621,749.0809)">
      <path
         style="fill:#fffafa;fill-opacity:1;fill-rule:evenodd;stroke:#ffffff;stroke-width:0.98407042px;stroke-linecap:butt;stroke-linejoin:miter;stroke-opacity:1"
         d="m 27.166932,14.788887 c -1.433705,-1.345967 -6.283706,2.20622 -4.133148,4.225172 2.150558,2.018952 5.566852,-2.879205 4.133148,-4.225172 z"
         id="path2116"
         sodipodi:nodetypes="css"
         inkscape:connector-curvature="0" />
      <path
         style="fill:#fffafa;fill-opacity:1;fill-rule:evenodd;stroke:#ffffff;stroke-width:0.92405277px;stroke-linecap:butt;stroke-linejoin:miter;stroke-opacity:1"
         d="m 23.925869,25.433801 c 0.647317,0.588692 4.237685,-1.422494 3.516983,-3.397019 -0.720696,-1.974527 -5.458932,1.630942 -3.516983,3.397019 z"
         id="path2118"
         sodipodi:nodetypes="css"
         inkscape:connector-curvature="0" />
      <path
         style="fill:#fffafa;fill-opacity:1;fill-rule:evenodd;stroke:#ffffff;stroke-width:0.98604864px;stroke-linecap:butt;stroke-linejoin:miter;stroke-opacity:1"
         d="m 21.003845,9.7167316 c 1.48404,1.3055504 -0.568155,7.3621694 -2.794213,5.4038434 -2.226059,-1.958324 1.310174,-6.7093929 2.794213,-5.4038434 z"
         id="path3032"
         sodipodi:nodetypes="css"
         inkscape:connector-curvature="0" />
      <path
         style="fill:#fffafa;fill-opacity:1;fill-rule:evenodd;stroke:#ffffff;stroke-width:0.92799336px;stroke-linecap:butt;stroke-linejoin:miter;stroke-opacity:1"
         d="m 11.656901,15.199887 c -0.633819,-0.606369 0.346407,-5.103422 2.176008,-4.711759 1.829601,0.391658 -0.274556,6.530863 -2.176008,4.711759 z"
         id="path3034"
         sodipodi:nodetypes="css"
         inkscape:connector-curvature="0" />
      <path
         style="fill:#fffafa;fill-opacity:1;fill-rule:evenodd;stroke:#ffffff;stroke-width:1.03811264px;stroke-linecap:butt;stroke-linejoin:miter;stroke-opacity:1"
         d="m 10.974025,18.60242 c -2.543213,4.016738 6.254634,11.377043 9.597651,8.029424 0.784384,-0.785463 0.235959,-1.338151 0.03546,-3.383892 -0.218669,-2.23107 0.633653,-3.207144 -2.019882,-4.061679 -1.345486,-2.491058 -2.197809,-1.514985 -4.378554,-1.291271 -2.074906,0.212858 -2.63795,-0.235041 -3.234671,0.707418 z"
         id="path2097"
         sodipodi:nodetypes="csscss"
         inkscape:connector-curvature="0" />
    </g>
  </g>
</svg>
