<?xml version="1.0" encoding="UTF-8" standalone="no"?>
<!-- Created with Inkscape (http://www.inkscape.org/) -->

<svg
   xmlns:dc="http://purl.org/dc/elements/1.1/"
   xmlns:cc="http://creativecommons.org/ns#"
   xmlns:rdf="http://www.w3.org/1999/02/22-rdf-syntax-ns#"
   xmlns:svg="http://www.w3.org/2000/svg"
   xmlns="http://www.w3.org/2000/svg"
   xmlns:sodipodi="http://sodipodi.sourceforge.net/DTD/sodipodi-0.dtd"
   xmlns:inkscape="http://www.inkscape.org/namespaces/inkscape"
   sodipodi:docname="transmission.svg"
   inkscape:version="0.91 r13725"
   version="1.1"
   id="svg2"
   viewBox="0 0 256 256"
   height="256"
   width="256">
  <sodipodi:namedview
     inkscape:window-maximized="1"
     inkscape:window-y="0"
     inkscape:window-x="0"
     inkscape:window-height="721"
     inkscape:window-width="1366"
     units="px"
     showgrid="true"
     inkscape:current-layer="layer1"
     inkscape:document-units="px"
     inkscape:cy="128"
     inkscape:cx="160.38841"
     inkscape:zoom="2.0507812"
     inkscape:pageshadow="2"
     inkscape:pageopacity="0.0"
     borderopacity="1.0"
     bordercolor="#666666"
     pagecolor="#ffffff"
     id="base">
    <inkscape:grid
       type="xygrid"
       id="grid4168"
       spacingx="5"
       spacingy="5" />
  </sodipodi:namedview>
  <defs
     id="defs4">
    <inkscape:path-effect
       effect="skeletal"
       id="path-effect4235"
       is_visible="true"
       pattern="M 0,0 1,0"
       copytype="single_stretched"
       prop_scale="1"
       scale_y_rel="false"
       spacing="0"
       normal_offset="0"
       tang_offset="0"
       prop_units="false"
       vertical_pattern="false"
       fuse_tolerance="0" />
    <clipPath
       clipPathUnits="userSpaceOnUse"
       id="clipPath5002">
      <g
         id="g5004">
        <path
           transform="translate(0,796.36216)"
           inkscape:connector-curvature="0"
           id="path5006"
           d="M 88.118406,249.43519 C 46.103287,235.29134 14.771284,201.68742 4.1335861,159.36053 1.3377997,148.23623 0.92261224,144.16281 0.92582381,127.88908 0.92787958,117.47222 1.134384,112.01362 1.6577819,108.54099 4.4653598,89.913336 12.17654,70.638106 23.042737,55.086148 c 3.958678,-5.665755 8.344812,-10.93092 9.101533,-10.925587 0.32809,0.0023 10.488643,18.309713 22.579009,40.683112 12.090365,22.373397 22.374546,41.334697 22.853732,42.136217 0.479186,0.80151 0.924733,2.44098 0.990103,3.64326 0.343424,6.31639 2.524175,14.20976 5.6424,20.42304 2.954444,5.88693 5.065381,8.73258 10.434696,14.06652 6.71418,6.66995 12.88853,10.28643 21.73204,12.72904 3.16587,0.87442 5.10478,1.05037 11.57517,1.05037 8.82596,0 12.60219,-0.76201 19.26429,-3.88733 2.04584,-0.95974 3.93661,-1.66536 4.20172,-1.56805 0.2651,0.0973 -11.0555,17.66459 -25.1569,39.0384 l -25.6389,38.86148 -3.094121,0.11221 c -2.554618,0.0927 -4.195204,-0.25845 -9.409103,-2.01364 z"
           style="fill:#0f9d58;fill-opacity:1;stroke:none;stroke-width:4.85768509;stroke-linejoin:round;stroke-miterlimit:4;stroke-dasharray:none;stroke-opacity:1" />
        <path
           inkscape:connector-curvature="0"
           id="path5008"
           d="m 112.35984,1051.5167 c -10.0014,-1.4495 -12.15632,-1.8201 -12.531784,-2.1556 -0.248854,-0.2223 1.738304,-3.7475 4.550294,-8.0722 7.16635,-11.0213 49.77231,-74.64801 50.25856,-75.05489 3.57509,-2.99158 8.63523,-8.0414 10.57512,-10.55356 3.36154,-4.35318 7.55784,-12.9141 9.06523,-18.494 6.19314,-22.92535 -2.59253,-47.15185 -21.69967,-59.83688 l -2.96081,-1.96565 17.02469,0.29584 c 9.36358,0.1627 31.17032,0.43384 48.45941,0.60252 l 31.43471,0.30668 1.54584,4.18869 c 2.24597,6.08579 4.67816,15.0947 5.93451,21.9816 1.52517,8.36049 1.92536,28.85896 0.73851,37.82758 -3.0805,23.27845 -12.81326,45.72018 -27.80202,64.10577 -20.47622,25.1166 -51.4599,42.1974 -84.14612,46.3885 -5.31244,0.6812 -26.64601,0.9864 -30.44647,0.4356 z"
           style="fill:#f4b400;fill-opacity:1;stroke:none;stroke-width:4.85768509;stroke-linejoin:round;stroke-miterlimit:4;stroke-dasharray:none;stroke-opacity:1" />
        <path
           transform="translate(0,796.36216)"
           inkscape:connector-curvature="0"
           id="path5010"
           d="M 67.989788,108.87302 C 41.284246,59.575543 33.290284,45.149038 32.233625,44.344765 31.651257,43.901497 32.811213,42.549931 38.695603,36.815353 53.43581,22.450419 68.809334,13.040746 87.839196,6.7360352 101.68742,2.1480329 112.58238,0.43719165 127.95142,0.43719165 c 21.3099,0 37.80488,3.80960275 56.83492,13.12633035 25.29351,12.383198 46.19421,33.578863 58.51993,59.345832 1.61138,3.368591 2.92978,6.372442 2.92978,6.675231 0,0.560033 -10.54865,0.49527 -71.16508,-0.436914 l -24.28843,-0.373518 -3.93063,-1.764495 c -6.75732,-3.033425 -10.64587,-3.839529 -18.6576,-3.867747 -5.0296,-0.01773 -7.97946,0.207636 -10.31642,0.788106 -14.50826,3.603659 -26.283291,12.94777 -33.291614,26.418653 -3.58502,6.89086 -5.24713,13.08166 -6.331628,23.58317 l -0.33738,3.26696 -9.92748,-18.32578 z"
           style="fill:#db4437;fill-opacity:1;stroke:none;stroke-width:10;stroke-linejoin:round;stroke-miterlimit:4;stroke-dasharray:none;stroke-opacity:1" />
      </g>
    </clipPath>
    <clipPath
       id="clipPath4271"
       clipPathUnits="userSpaceOnUse">
      <circle
         r="128"
         cy="128.00002"
         cx="128"
         id="circle4273"
         style="fill:#292929;fill-opacity:0.26020412;stroke:none;stroke-width:10;stroke-linejoin:round;stroke-miterlimit:4;stroke-dasharray:none;stroke-opacity:0.25882353" />
    </clipPath>
    <clipPath
       clipPathUnits="userSpaceOnUse"
       id="clipPath4363">
      <circle
         r="128"
         cy="924.36218"
         cx="128"
         id="circle4365"
         style="fill:#4285f4;fill-opacity:1;stroke:none;stroke-width:10;stroke-linejoin:round;stroke-miterlimit:4;stroke-dasharray:none;stroke-opacity:0.25882353" />
    </clipPath>
    <clipPath
       id="clipPath4452"
       clipPathUnits="userSpaceOnUse">
      <circle
         r="128"
         cy="924.36218"
         cx="128"
         id="circle4454"
         style="fill:#4285f4;fill-opacity:1;stroke:none;stroke-width:10;stroke-linejoin:round;stroke-miterlimit:4;stroke-dasharray:none;stroke-opacity:0.25882353" />
    </clipPath>
    <clipPath
       clipPathUnits="userSpaceOnUse"
       id="clipPath5177">
      <circle
         r="128"
         cy="924.36218"
         cx="128"
         id="circle5179"
         style="fill:#4285f4;fill-opacity:1;stroke:none;stroke-width:10;stroke-linejoin:round;stroke-miterlimit:4;stroke-dasharray:none;stroke-opacity:0.25882353" />
    </clipPath>
    <clipPath
       id="clipPath4342"
       clipPathUnits="userSpaceOnUse">
      <circle
         r="128"
         cy="933.48718"
         cx="128"
         id="circle4344"
         style="fill:#4285f4;fill-opacity:1;stroke:none;stroke-width:10;stroke-linejoin:round;stroke-miterlimit:4;stroke-dasharray:none;stroke-opacity:0.25882353" />
    </clipPath>
    <clipPath
       clipPathUnits="userSpaceOnUse"
       id="clipPath4681">
      <circle
         r="128"
         cy="930.43964"
         cx="127.00293"
         id="circle4683"
         style="fill:#9d5fad;fill-opacity:1;stroke:none;stroke-width:10;stroke-linejoin:round;stroke-miterlimit:4;stroke-dasharray:none;stroke-opacity:0.25882353" />
    </clipPath>
    <clipPath
       id="clipPath4480"
       clipPathUnits="userSpaceOnUse">
      <circle
         r="128"
         cy="924.36218"
         cx="128"
         id="circle4482"
         style="fill:#df7618;fill-opacity:1;stroke:none;stroke-width:10;stroke-linejoin:round;stroke-miterlimit:4;stroke-dasharray:none;stroke-opacity:0.25882353" />
    </clipPath>
    <filter
       id="filter4301"
       inkscape:label="Drop Shadow"
       style="color-interpolation-filters:sRGB">
      <feFlood
         id="feFlood4303"
         result="flood"
         flood-color="rgb(0,0,0)"
         flood-opacity="0.498039" />
      <feComposite
         id="feComposite4305"
         result="composite1"
         operator="in"
         in2="SourceGraphic"
         in="flood" />
      <feGaussianBlur
         id="feGaussianBlur4307"
         result="blur"
         stdDeviation="3.7"
         in="composite1" />
      <feOffset
         id="feOffset4309"
         result="offset"
         dy="3.7"
         dx="3.8" />
      <feComposite
         id="feComposite4311"
         result="composite2"
         operator="over"
         in2="offset"
         in="SourceGraphic" />
    </filter>
    <clipPath
       clipPathUnits="userSpaceOnUse"
       id="clipPath5827">
      <circle
         r="128"
         cy="924.36218"
         cx="128"
         id="circle5829"
         style="fill:#df7618;fill-opacity:1;stroke:none;stroke-width:10;stroke-linejoin:round;stroke-miterlimit:4;stroke-dasharray:none;stroke-opacity:0.25882353" />
    </clipPath>
    <clipPath
       clipPathUnits="userSpaceOnUse"
       id="clipPath4792">
      <circle
         r="128"
         cy="922.92651"
         cx="128.03481"
         id="circle4794"
         style="fill:#ee6f53;fill-opacity:1;stroke:none;stroke-width:10;stroke-linejoin:round;stroke-miterlimit:4;stroke-dasharray:none;stroke-opacity:0.25882353" />
    </clipPath>
  </defs>
  <metadata
     id="metadata7">
    <rdf:RDF>
      <cc:Work
         rdf:about="">
        <dc:format>image/svg+xml</dc:format>
        <dc:type
           rdf:resource="http://purl.org/dc/dcmitype/StillImage" />
        <dc:title />
      </cc:Work>
    </rdf:RDF>
  </metadata>
  <g
     transform="translate(0,-796.36216)"
     id="layer1"
     inkscape:groupmode="layer"
     inkscape:label="Layer 1">
    <path
       inkscape:connector-curvature="0"
       id="path4913"
       d="M 154.47438,968.80998 101.03985,1048.476 0.4857685,1048.9618 0,842.0244 l 33.032258,-2.42884 45.176471,83.55218 21.373814,35.4611 26.717267,13.11575 z"
       style="fill:none;fill-rule:evenodd;stroke:none;stroke-width:1px;stroke-linecap:butt;stroke-linejoin:miter;stroke-opacity:1" />
    <circle
       style="fill:#ee6f53;fill-opacity:1;stroke:none;stroke-width:10;stroke-linejoin:round;stroke-miterlimit:4;stroke-dasharray:none;stroke-opacity:0.25882353"
       id="path4152"
       cx="128"
       cy="924.36218"
       r="128" />
    <text
       sodipodi:linespacing="125%"
       id="text4914"
       y="927.36218"
       x="120"
       style="font-style:normal;font-weight:normal;font-size:40px;line-height:125%;font-family:sans-serif;letter-spacing:0px;word-spacing:0px;fill:#000000;fill-opacity:1;stroke:none;stroke-width:1px;stroke-linecap:butt;stroke-linejoin:miter;stroke-opacity:1"
       xml:space="preserve"><tspan
         y="927.36218"
         x="120"
         id="tspan4916"
         sodipodi:role="line" /></text>
    <path
       style="fill:none;stroke:black;stroke-opacity:1;stroke-width:1px;stroke-linejoin:miter;stroke-linecap:butt;fill-rule:evenodd"
       d="m 90,171 c -0.02835,0.10164 -0.09512,0.18781 -0.142791,0.28195 -0.03402,0.0672 -0.06286,0.17517 0.01,0.19433 0.629137,0.16553 1.29252,0 1.943068,0 2e-6,0 4e-6,0 6e-6,0 2.428841,0 4.857683,0 7.286524,0 10e-7,0 2e-6,0 3e-6,0 5.667296,0 11.334596,0 17.001896,0 0,0 0,0 0,0 11.01075,0 22.02151,0 33.03226,0 3.40038,0 6.80076,0 10.20114,0 1.13346,0 2.26692,0 3.40038,0 0.64769,0 1.29538,0 1.94307,0 0,0 0,0 1e-5,0 0.16221,0 0.32574,0.0266 0.48575,0 0,0 1e-5,0 1e-5,0 0.8145,-0.13574 1.61434,-0.35002 2.42884,-0.48577 0,0 1e-5,0 1e-5,0 0.16001,-0.0266 0.32354,0 0.48576,0 0.64769,0 1.29539,0 1.94308,0 1.61923,0 3.23845,0 4.85768,0 1.94307,0 3.88615,0 5.82922,0 0.65029,0 1.31221,0.15772 1.94308,0 0.23053,-0.0576 0.26033,-0.41062 0.48575,-0.48577 10e-6,0 10e-6,0 10e-6,0 0.30935,-0.10312 0.64546,0 0.97153,0 1e-5,0 1e-5,0 1e-5,0 0.48771,0 0.98416,0.11829 1.45731,0 0.22811,-0.057 0.27547,-0.38062 0.48577,-0.48576 0.0332,-0.0166 0.073,-0.0132 0.11001,-0.0156 0,0 0,0 0,0 0.0743,-0.005 0.14882,-0.006 0.22329,-0.007 0.21191,-0.003 0.42387,-6e-4 0.63577,0.003 0.32448,0.005 0.64949,0.0204 0.974,0.0204 1.29538,0 2.59077,0 3.88615,0 0.33969,0 0.67926,0.0178 1.01889,0.024 1e-5,0 1e-5,0 1e-5,0 0.20078,0.004 0.40162,0.007 0.6024,0.003 0,0 10e-6,0 10e-6,0 0.10737,-0.002 0.22572,0.0211 0.32176,-0.027 0.20741,-0.1037 0.27836,-0.38207 0.48577,-0.48577 0.0501,-0.0251 0.11077,-0.0175 0.16675,-0.0206 0.1181,-0.006 0.23641,-0.008 0.35467,-0.01 0.34828,-0.004 0.6966,-6.9e-4 1.04487,0.003 0.61137,0.007 1.22268,0.0269 1.83409,0.0269 0.43027,0 0.86055,-0.006 1.29082,-0.008 0.26002,-0.001 0.52005,-0.002 0.78008,-0.001 0.0852,4.2e-4 0.17049,9e-4 0.25571,0.003 l 0,0 c 0,0 1e-5,0 1e-5,0 0.0244,5.9e-4 0.0489,0.001 0.0733,0.003 0.009,5.7e-4 0.0217,-0.003 0.0289,0.004 0.0602,0.0602 0.0251,0.16159 5e-5,0.24293 -0.0251,0.0813 -0.0602,0.1827 0,0.24289 0.0726,0.0726 0.19615,0.0134 0.2942,-0.0172 0.0707,-0.0221 0.20179,-0.0562 0.19157,0.0172 -0.054,0.38821 -0.41242,0.65005 -0.62239,0.98102"
       id="path4233"
       inkscape:path-effect="#path-effect4235"
       inkscape:original-d="m 90,171 c -0.04428,0.15876 -0.292221,0.43434 -0.132827,0.47628 0.626374,0.1648 1.295382,0 1.943074,0 2.428842,0 4.857685,0 7.286527,0 5.667296,0 11.334596,0 17.001896,0 11.01075,0 22.02151,0 33.03226,0 3.40038,0 6.80076,0 10.20114,0 1.13346,0 2.26692,0 3.40038,0 0.64769,0 1.29538,0 1.94307,0 0.16192,0 0.32605,0.0266 0.48577,0 0.81441,-0.13573 1.61443,-0.35003 2.42884,-0.48577 0.15972,-0.0266 0.32385,0 0.48577,0 0.64769,0 1.29538,0 1.94308,0 1.61922,0 3.23845,0 4.85768,0 1.94307,0 3.88615,0 5.82922,0 0.64769,0 1.31472,0.15709 1.94308,0 0.22215,-0.0555 0.26852,-0.41335 0.48576,-0.48577 0.30723,-0.10241 0.6477,0 0.97154,0 0.48577,0 0.98604,0.11782 1.45731,0 0.22215,-0.0555 0.28095,-0.38336 0.48577,-0.48576 0.10887,-0.0544 1.82764,0 1.94307,0 1.29538,0 2.59077,0 3.88615,0 0.25402,0 1.81534,0.0639 1.94307,0 0.20482,-0.10241 0.28095,-0.38336 0.48577,-0.48577 0.14338,-0.0717 2.89994,0 3.40038,0 0.22904,0 2.40683,-0.022 2.42884,0 0.1145,0.11449 -0.11449,0.37127 0,0.48577 0.1145,0.11449 0.50811,-0.16038 0.48577,0 -0.0534,0.38356 -0.41493,0.65401 -0.62239,0.98102" />
    <path
       style="fill:none;fill-rule:evenodd;stroke:#000000;stroke-width:1px;stroke-linecap:butt;stroke-linejoin:miter;stroke-opacity:1"
       d="m -200,957.36216 25,-130 50,0 25,130 z"
       id="path4460"
       inkscape:connector-curvature="0" />
    <g
       transform="translate(-0.03480928,1.43569)"
       id="g4570"
       clip-path="url(#clipPath4792)"
       style="fill:#c74123;fill-opacity:1">
      <g
         id="g4562"
         style="fill:#c74123;fill-opacity:1" />
      <g
         id="g4630"
         transform="translate(0.03480928,794.92647)"
         style="fill:#c74123;fill-opacity:1">
        <g
           id="g4632"
           style="fill:#c74123;fill-opacity:1;stroke:none;stroke-width:23;stroke-linecap:round;stroke-linejoin:round;stroke-miterlimit:4;stroke-dasharray:none;stroke-opacity:1">
          <path
             id="path4634"
             d="M97.464844 52.435547C93.309844 52.435547 89.964844 55.780547 89.964844 59.935547L-263.588546593 413.488937593C-263.588546593 409.333937593 -260.243546593 405.988937593 -256.088546593 405.988937593Z"
             style="fill:#c74123;fill-opacity:1" />
          <path
             id="path4636"
             d="M89.964844 59.935547C89.964844 64.090547 93.309844 67.435547 97.464844 67.435547L-256.088546593 420.988937593C-260.243546593 420.988937593 -263.588546593 417.643937593 -263.588546593 413.488937593Z"
             style="fill:#c74123;fill-opacity:1" />
          <path
             id="path4638"
             d="M97.464844 67.435547L119.96484 67.435547L-233.588550593 420.988937593L-256.088546593 420.988937593Z"
             style="fill:#c74123;fill-opacity:1" />
          <path
             id="path4640"
             d="M119.96484 67.435547L119.96484 89.435547L-233.588550593 442.988937593L-233.588550593 420.988937593Z"
             style="fill:#c74123;fill-opacity:1" />
          <path
             id="path4642"
             d="M119.96484 89.435547L135.6543 89.435547L-217.899090593 442.988937593L-233.588550593 442.988937593Z"
             style="fill:#c74123;fill-opacity:1" />
          <path
             id="path4644"
             d="M135.6543 89.435547L135.6543 67.435547L-217.899090593 420.988937593L-217.899090593 442.988937593Z"
             style="fill:#c74123;fill-opacity:1" />
          <path
             id="path4646"
             d="M135.6543 67.435547L157.46484 67.435547L-196.088550593 420.988937593L-217.899090593 420.988937593Z"
             style="fill:#c74123;fill-opacity:1" />
          <path
             id="path4648"
             d="M157.46484 67.435547C161.61984 67.435547 164.96484 64.090547 164.96484 59.935547L-188.588550593 413.488937593C-188.588550593 417.643937593 -191.933550593 420.988937593 -196.088550593 420.988937593Z"
             style="fill:#c74123;fill-opacity:1" />
          <path
             id="path4650"
             d="M164.96484 59.935547C164.96484 55.780547 161.61984 52.435547 157.46484 52.435547L-196.088550593 405.988937593C-191.933550593 405.988937593 -188.588550593 409.333937593 -188.588550593 413.488937593Z"
             style="fill:#c74123;fill-opacity:1" />
          <path
             id="path4652"
             d="M157.46484 52.435547L97.464844 52.435547L-256.088546593 405.988937593L-196.088550593 405.988937593Z"
             style="fill:#c74123;fill-opacity:1" />
          <path
             id="path4654"
             d="M77.404297 89.585938L53.785156 175.31445L-299.768234593 528.867840593L-276.149093593 443.139328593Z"
             style="fill:#c74123;fill-opacity:1" />
          <path
             id="path4656"
             d="M53.785156 175.31445C53.500836 174.84913 53.244721 174.37589 53.042969 173.89453L-300.510421593 527.447920593C-300.308669593 527.929280593 -300.052554593 528.402520593 -299.768234593 528.867840593Z"
             style="fill:#c74123;fill-opacity:1" />
          <path
             id="path4658"
             d="M53.042969 173.89453L53.042969 178.00977L-300.510421593 531.563160593L-300.510421593 527.447920593Z"
             style="fill:#c74123;fill-opacity:1" />
          <path
             id="path4660"
             d="M53.042969 178.00977C52.940485 178.38174 52.953294 178.74317 53.042969 179.0918L-300.510421593 532.645190593C-300.600096593 532.296560593 -300.612905593 531.935130593 -300.510421593 531.563160593Z"
             style="fill:#c74123;fill-opacity:1" />
          <path
             id="path4662"
             d="M53.042969 179.0918L53.042969 189.16016L-300.510421593 542.713550593L-300.510421593 532.645190593Z"
             style="fill:#c74123;fill-opacity:1" />
          <path
             id="path4664"
             d="M53.042969 189.16016C53.042969 197.1383 54.05431 203.56445 58.203125 203.56445L-295.350265593 557.117840593C-299.499080593 557.117840593 -300.510421593 550.691690593 -300.510421593 542.713550593Z"
             style="fill:#c74123;fill-opacity:1" />
          <path
             id="path4666"
             d="M58.203125 203.56445L197.87891 203.56445L-155.674480593 557.117840593L-295.350265593 557.117840593Z"
             style="fill:#c74123;fill-opacity:1" />
          <path
             id="path4668"
             d="M197.87891 203.56445C198.894287932 203.56445 199.750476574 203.174272691 200.455511351 202.469237914L-153.097879243 556.022628508C-153.802914019 556.727663284 -154.659102661 557.117840593 -155.674480593 557.117840593Z"
             style="fill:#c74123;fill-opacity:1" />
          <path
             id="path4670"
             d="M200.455511351 202.469237914C202.63123879 200.293510475 203.367481184 195.119297924 202.90039 189.16016L-150.653000593 542.713550593C-150.185909409 548.672688517 -150.922151803 553.846901068 -153.097879243 556.022628508Z"
             style="fill:#c74123;fill-opacity:1" />
          <path
             id="path4672"
             d="M202.90039 189.16016L202.90039 179.05078L-150.653000593 532.604170593L-150.653000593 542.713550593Z"
             style="fill:#c74123;fill-opacity:1" />
          <path
             id="path4674"
             d="M202.90039 179.05078C202.97703 178.71495 202.98609 178.36747 202.90039 178.00977L-150.653000593 531.563160593C-150.567300593 531.920860593 -150.576360593 532.268340593 -150.653000593 532.604170593Z"
             style="fill:#c74123;fill-opacity:1" />
          <path
             id="path4676"
             d="M202.90039 178.00977L202.90039 174.00781L-150.653000593 527.561200593L-150.653000593 531.563160593Z"
             style="fill:#c74123;fill-opacity:1" />
          <path
             id="path4678"
             d="M202.90039 174.00781C202.7215 174.47107 202.50619 174.92084 202.26367 175.35547L-151.289720593 528.908860593C-151.047200593 528.474230593 -150.831890593 528.024460593 -150.653000593 527.561200593Z"
             style="fill:#c74123;fill-opacity:1" />
          <path
             id="path4680"
             d="M202.26367 175.35547L181.71484 89.585938L-171.838550593 443.139328593L-151.289720593 528.908860593Z"
             style="fill:#c74123;fill-opacity:1" />
          <path
             id="path4682"
             d="M181.71484 89.585938L135.88281 89.585938L-217.670580593 443.139328593L-171.838550593 443.139328593Z"
             style="fill:#c74123;fill-opacity:1" />
          <path
             id="path4684"
             d="M135.88281 89.585938L139.54297 126.42773L-214.010420593 479.981120593L-217.670580593 443.139328593Z"
             style="fill:#c74123;fill-opacity:1" />
          <path
             id="path4686"
             d="M139.54297 126.42773L164.42773 126.67383L-189.125660593 480.227220593L-214.010420593 479.981120593Z"
             style="fill:#c74123;fill-opacity:1" />
          <path
             id="path4688"
             d="M164.42773 126.67383L148.25781 144.96289L-205.295580593 498.516280593L-189.125660593 480.227220593Z"
             style="fill:#c74123;fill-opacity:1" />
          <path
             id="path4690"
             d="M148.25781 144.96289L126.14648 169.96484L-227.406910593 523.518230593L-205.295580593 498.516280593Z"
             style="fill:#c74123;fill-opacity:1" />
          <path
             id="path4692"
             d="M126.14648 169.96484L106.08789 144.47852L-247.465500593 498.031910593L-227.406910593 523.518230593Z"
             style="fill:#c74123;fill-opacity:1" />
          <path
             id="path4694"
             d="M106.08789 144.47852L91.501953 125.95117L-262.051437593 479.504560593L-247.465500593 498.031910593Z"
             style="fill:#c74123;fill-opacity:1" />
          <path
             id="path4696"
             d="M91.501953 125.95117L116.18359 126.19531L-237.369800593 479.748700593L-262.051437593 479.504560593Z"
             style="fill:#c74123;fill-opacity:1" />
          <path
             id="path4698"
             d="M116.18359 126.19531L119.82031 89.585938L-233.733080593 443.139328593L-237.369800593 479.748700593Z"
             style="fill:#c74123;fill-opacity:1" />
          <path
             id="path4700"
             d="M119.82031 89.585938L77.404297 89.585938L-276.149093593 443.139328593L-233.733080593 443.139328593Z"
             style="fill:#c74123;fill-opacity:1" />
        </g>
        <path
           id="path4234"
           transform=""
           d="M 97.464844 52.435547 C 93.309844 52.435547 89.964844 55.780547 89.964844 59.935547 C 89.964844 64.090547 93.309844 67.435547 97.464844 67.435547 L 119.96484 67.435547 L 119.96484 89.435547 L 135.6543 89.435547 L 135.6543 67.435547 L 157.46484 67.435547 C 161.61984 67.435547 164.96484 64.090547 164.96484 59.935547 C 164.96484 55.780547 161.61984 52.435547 157.46484 52.435547 L 97.464844 52.435547 z M 77.404297 89.585938 L 53.785156 175.31445 C 53.500836 174.84913 53.244721 174.37589 53.042969 173.89453 L 53.042969 178.00977 C 52.940485 178.38174 52.953294 178.74317 53.042969 179.0918 L 53.042969 189.16016 C 53.042969 197.1383 54.05431 203.56445 58.203125 203.56445 L 197.87891 203.56445 C 202.02773 203.56445 203.51884 197.05033 202.90039 189.16016 L 202.90039 179.05078 C 202.97703 178.71495 202.98609 178.36747 202.90039 178.00977 L 202.90039 174.00781 C 202.7215 174.47107 202.50619 174.92084 202.26367 175.35547 L 181.71484 89.585938 L 135.88281 89.585938 L 139.54297 126.42773 L 164.42773 126.67383 L 148.25781 144.96289 L 126.14648 169.96484 L 106.08789 144.47852 L 91.501953 125.95117 L 116.18359 126.19531 L 119.82031 89.585938 L 77.404297 89.585938 z "
           style="fill:#c74123;fill-opacity:1;stroke:none;stroke-width:23;stroke-linecap:round;stroke-linejoin:round;stroke-miterlimit:4;stroke-dasharray:none;stroke-opacity:1" />
      </g>
    </g>
    <g
       id="g4576"
       transform="translate(-0.03480928,1.43569)">
      <path
         style="fill:#8d8d8d;fill-opacity:1;stroke:none;stroke-width:23;stroke-linecap:round;stroke-linejoin:round;stroke-miterlimit:4;stroke-dasharray:none;stroke-opacity:1"
         d="m 202.93511,968.9345 c -1.39991,3.62512 -4.95199,6.51108 -7.45982,6.51108 l -134.799504,0 c -2.416416,0 -6.170223,-3.21883 -7.597885,-6.62511 l 0,15.26705 c 0,7.97814 1.010975,14.40324 5.15979,14.40324 l 139.675699,0 c 4.14882,0 5.64017,-6.51307 5.02172,-14.40324 z"
         id="path4578"
         inkscape:connector-curvature="0"
         sodipodi:nodetypes="csscssscc" />
      <path
         id="path4580"
         transform="translate(0,796.36216)"
         d="m 120,63 0,25 15.68945,0 0,-25 L 120,63 Z M 77.439453,88.150391 53.078125,176.57422 c -0.70582,2.56183 3.507436,4.69336 7.65625,4.69336 l 134.798825,0 c 4.14881,0 8.0183,-2.12243 7.40235,-4.69336 L 181.75,88.150391 l -45.83203,0 3.66015,36.841799 24.88477,0.24609 -16.16992,18.28906 -22.11133,25.00196 -20.05859,-25.48633 -14.585941,-18.52735 24.681641,0.24415 3.63672,-36.609379 -42.416017,0 z"
         style="fill:#d2d2d2;fill-opacity:1;stroke:none;stroke-width:23;stroke-linecap:round;stroke-linejoin:round;stroke-miterlimit:4;stroke-dasharray:none;stroke-opacity:1"
         inkscape:connector-curvature="0" />
      <g
         style="fill:#d2d2d2;fill-opacity:1"
         id="g4582">
        <path
           id="path4584"
           d="m 97.5,847.36218 60,0 c 4.155,0 7.5,3.345 7.5,7.5 0,4.155 -3.345,7.5 -7.5,7.5 l -60,0 c -4.155,0 -7.5,-3.345 -7.5,-7.5 0,-4.155 3.345,-7.5 7.5,-7.5 z"
           style="opacity:1;fill:#d2d2d2;fill-opacity:1;stroke:none;stroke-width:15;stroke-linecap:round;stroke-linejoin:round;stroke-miterlimit:4;stroke-dasharray:none;stroke-opacity:1"
           inkscape:connector-curvature="0" />
      </g>
    </g>
  </g>
</svg>
