<?xml version="1.0" encoding="UTF-8" standalone="no"?>
<!-- Created with Inkscape (http://www.inkscape.org/) -->

<svg
   xmlns:dc="http://purl.org/dc/elements/1.1/"
   xmlns:cc="http://creativecommons.org/ns#"
   xmlns:rdf="http://www.w3.org/1999/02/22-rdf-syntax-ns#"
   xmlns:svg="http://www.w3.org/2000/svg"
   xmlns="http://www.w3.org/2000/svg"
   xmlns:xlink="http://www.w3.org/1999/xlink"
   xmlns:sodipodi="http://sodipodi.sourceforge.net/DTD/sodipodi-0.dtd"
   xmlns:inkscape="http://www.inkscape.org/namespaces/inkscape"
   sodipodi:docname="ubuntuone.svg"
   inkscape:version="0.91 r13725"
   version="1.1"
   id="svg2"
   viewBox="0 0 256 256"
   height="256"
   width="256">
  <sodipodi:namedview
     inkscape:window-maximized="1"
     inkscape:window-y="0"
     inkscape:window-x="0"
     inkscape:window-height="721"
     inkscape:window-width="1366"
     units="px"
     showgrid="true"
     inkscape:current-layer="layer1"
     inkscape:document-units="px"
     inkscape:cy="128"
     inkscape:cx="128"
     inkscape:zoom="2.0507812"
     inkscape:pageshadow="2"
     inkscape:pageopacity="0.0"
     borderopacity="1.0"
     bordercolor="#666666"
     pagecolor="#ffffff"
     id="base">
    <inkscape:grid
       spacingy="5"
       spacingx="5"
       id="grid4168"
       type="xygrid" />
  </sodipodi:namedview>
  <defs
     id="defs4">
    <clipPath
       id="clipPath5002"
       clipPathUnits="userSpaceOnUse">
      <g
         id="g5004">
        <path
           style="fill:#0f9d58;fill-opacity:1;stroke:none;stroke-width:4.85768509;stroke-linejoin:round;stroke-miterlimit:4;stroke-dasharray:none;stroke-opacity:1"
           d="M 88.118406,249.43519 C 46.103287,235.29134 14.771284,201.68742 4.1335861,159.36053 1.3377997,148.23623 0.92261224,144.16281 0.92582381,127.88908 0.92787958,117.47222 1.134384,112.01362 1.6577819,108.54099 4.4653598,89.913336 12.17654,70.638106 23.042737,55.086148 c 3.958678,-5.665755 8.344812,-10.93092 9.101533,-10.925587 0.32809,0.0023 10.488643,18.309713 22.579009,40.683112 12.090365,22.373397 22.374546,41.334697 22.853732,42.136217 0.479186,0.80151 0.924733,2.44098 0.990103,3.64326 0.343424,6.31639 2.524175,14.20976 5.6424,20.42304 2.954444,5.88693 5.065381,8.73258 10.434696,14.06652 6.71418,6.66995 12.88853,10.28643 21.73204,12.72904 3.16587,0.87442 5.10478,1.05037 11.57517,1.05037 8.82596,0 12.60219,-0.76201 19.26429,-3.88733 2.04584,-0.95974 3.93661,-1.66536 4.20172,-1.56805 0.2651,0.0973 -11.0555,17.66459 -25.1569,39.0384 l -25.6389,38.86148 -3.094121,0.11221 c -2.554618,0.0927 -4.195204,-0.25845 -9.409103,-2.01364 z"
           id="path5006"
           inkscape:connector-curvature="0"
           transform="translate(0,796.36216)" />
        <path
           style="fill:#f4b400;fill-opacity:1;stroke:none;stroke-width:4.85768509;stroke-linejoin:round;stroke-miterlimit:4;stroke-dasharray:none;stroke-opacity:1"
           d="m 112.35984,1051.5167 c -10.0014,-1.4495 -12.15632,-1.8201 -12.531784,-2.1556 -0.248854,-0.2223 1.738304,-3.7475 4.550294,-8.0722 7.16635,-11.0213 49.77231,-74.64801 50.25856,-75.05489 3.57509,-2.99158 8.63523,-8.0414 10.57512,-10.55356 3.36154,-4.35318 7.55784,-12.9141 9.06523,-18.494 6.19314,-22.92535 -2.59253,-47.15185 -21.69967,-59.83688 l -2.96081,-1.96565 17.02469,0.29584 c 9.36358,0.1627 31.17032,0.43384 48.45941,0.60252 l 31.43471,0.30668 1.54584,4.18869 c 2.24597,6.08579 4.67816,15.0947 5.93451,21.9816 1.52517,8.36049 1.92536,28.85896 0.73851,37.82758 -3.0805,23.27845 -12.81326,45.72018 -27.80202,64.10577 -20.47622,25.1166 -51.4599,42.1974 -84.14612,46.3885 -5.31244,0.6812 -26.64601,0.9864 -30.44647,0.4356 z"
           id="path5008"
           inkscape:connector-curvature="0" />
        <path
           style="fill:#db4437;fill-opacity:1;stroke:none;stroke-width:10;stroke-linejoin:round;stroke-miterlimit:4;stroke-dasharray:none;stroke-opacity:1"
           d="M 67.989788,108.87302 C 41.284246,59.575543 33.290284,45.149038 32.233625,44.344765 31.651257,43.901497 32.811213,42.549931 38.695603,36.815353 53.43581,22.450419 68.809334,13.040746 87.839196,6.7360352 101.68742,2.1480329 112.58238,0.43719165 127.95142,0.43719165 c 21.3099,0 37.80488,3.80960275 56.83492,13.12633035 25.29351,12.383198 46.19421,33.578863 58.51993,59.345832 1.61138,3.368591 2.92978,6.372442 2.92978,6.675231 0,0.560033 -10.54865,0.49527 -71.16508,-0.436914 l -24.28843,-0.373518 -3.93063,-1.764495 c -6.75732,-3.033425 -10.64587,-3.839529 -18.6576,-3.867747 -5.0296,-0.01773 -7.97946,0.207636 -10.31642,0.788106 -14.50826,3.603659 -26.283291,12.94777 -33.291614,26.418653 -3.58502,6.89086 -5.24713,13.08166 -6.331628,23.58317 l -0.33738,3.26696 -9.92748,-18.32578 z"
           id="path5010"
           inkscape:connector-curvature="0"
           transform="translate(0,796.36216)" />
      </g>
    </clipPath>
    <clipPath
       clipPathUnits="userSpaceOnUse"
       id="clipPath4271">
      <circle
         style="fill:#292929;fill-opacity:0.26020412;stroke:none;stroke-width:10;stroke-linejoin:round;stroke-miterlimit:4;stroke-dasharray:none;stroke-opacity:0.25882353"
         id="circle4273"
         cx="128"
         cy="128.00002"
         r="128" />
    </clipPath>
    <clipPath
       id="clipPath4363"
       clipPathUnits="userSpaceOnUse">
      <circle
         style="fill:#4285f4;fill-opacity:1;stroke:none;stroke-width:10;stroke-linejoin:round;stroke-miterlimit:4;stroke-dasharray:none;stroke-opacity:0.25882353"
         id="circle4365"
         cx="128"
         cy="924.36218"
         r="128" />
    </clipPath>
    <clipPath
       clipPathUnits="userSpaceOnUse"
       id="clipPath4452">
      <circle
         style="fill:#4285f4;fill-opacity:1;stroke:none;stroke-width:10;stroke-linejoin:round;stroke-miterlimit:4;stroke-dasharray:none;stroke-opacity:0.25882353"
         id="circle4454"
         cx="128"
         cy="924.36218"
         r="128" />
    </clipPath>
    <clipPath
       id="clipPath5177"
       clipPathUnits="userSpaceOnUse">
      <circle
         style="fill:#4285f4;fill-opacity:1;stroke:none;stroke-width:10;stroke-linejoin:round;stroke-miterlimit:4;stroke-dasharray:none;stroke-opacity:0.25882353"
         id="circle5179"
         cx="128"
         cy="924.36218"
         r="128" />
    </clipPath>
    <clipPath
       clipPathUnits="userSpaceOnUse"
       id="clipPath4342">
      <circle
         style="fill:#4285f4;fill-opacity:1;stroke:none;stroke-width:10;stroke-linejoin:round;stroke-miterlimit:4;stroke-dasharray:none;stroke-opacity:0.25882353"
         id="circle4344"
         cx="128"
         cy="933.48718"
         r="128" />
    </clipPath>
    <clipPath
       id="clipPath4681"
       clipPathUnits="userSpaceOnUse">
      <circle
         style="fill:#9d5fad;fill-opacity:1;stroke:none;stroke-width:10;stroke-linejoin:round;stroke-miterlimit:4;stroke-dasharray:none;stroke-opacity:0.25882353"
         id="circle4683"
         cx="127.00293"
         cy="930.43964"
         r="128" />
    </clipPath>
    <clipPath
       clipPathUnits="userSpaceOnUse"
       id="clipPath4235">
      <circle
         style="fill:#0f9d58;fill-opacity:1;stroke:none;stroke-width:10;stroke-linejoin:round;stroke-miterlimit:4;stroke-dasharray:none;stroke-opacity:0.25882353"
         id="circle4237"
         cx="128"
         cy="924.36218"
         r="128" />
    </clipPath>
    <clipPath
       id="clipPath4771"
       clipPathUnits="userSpaceOnUse">
      <circle
         style="fill:#0f9d58;fill-opacity:1;stroke:none;stroke-width:10;stroke-linejoin:round;stroke-miterlimit:4;stroke-dasharray:none;stroke-opacity:0.25882353"
         id="circle4773"
         cx="128"
         cy="924.36218"
         r="128" />
    </clipPath>
    <clipPath
       clipPathUnits="userSpaceOnUse"
       id="clipPath4842">
      <circle
         style="fill:#0f9d58;fill-opacity:1;stroke:none;stroke-width:10;stroke-linejoin:round;stroke-miterlimit:4;stroke-dasharray:none;stroke-opacity:0.25882353"
         id="circle4844"
         cx="128"
         cy="924.36218"
         r="128" />
    </clipPath>
    <clipPath
       id="clipPath4458"
       clipPathUnits="userSpaceOnUse">
      <circle
         style="fill:#ff3b38;fill-opacity:1;stroke:none;stroke-width:10;stroke-linejoin:round;stroke-miterlimit:4;stroke-dasharray:none;stroke-opacity:0.25882353"
         id="circle4460"
         cx="128"
         cy="924.36218"
         r="128" />
    </clipPath>
    <clipPath
       clipPathUnits="userSpaceOnUse"
       id="clipPath4783">
      <circle
         style="fill:#ff3b38;fill-opacity:1;stroke:none;stroke-width:10;stroke-linejoin:round;stroke-miterlimit:4;stroke-dasharray:none;stroke-opacity:0.25882353"
         id="circle4785"
         cx="128"
         cy="924.36218"
         r="128" />
    </clipPath>
    <clipPath
       id="clipPath4789"
       clipPathUnits="userSpaceOnUse">
      <circle
         style="fill:#80b4ff;fill-opacity:1;stroke:none;stroke-width:10;stroke-linejoin:round;stroke-miterlimit:4;stroke-dasharray:none;stroke-opacity:0.25882353"
         id="circle4791"
         cx="102.64714"
         cy="924.36218"
         r="128" />
    </clipPath>
    <linearGradient
       gradientUnits="userSpaceOnUse"
       xlink:href="#linearGradient5105-8"
       id="linearGradient3842"
       y2="16"
       x2="56"
       y1="80"
       x1="56"
       gradientTransform="matrix(3.125,0,0,3.125,-22,771.2372)" />
    <linearGradient
       id="linearGradient5105-8">
      <stop
         offset="0"
         style="stop-color:#f5f5f5;stop-opacity:1"
         id="stop5107-4" />
      <stop
         offset="1"
         style="stop-color:#ebebeb;stop-opacity:1"
         id="stop5109-4" />
    </linearGradient>
    <clipPath
       clipPathUnits="userSpaceOnUse"
       id="clipPath4366">
      <circle
         style="fill:#dd4713;fill-opacity:1;stroke:none;stroke-width:10;stroke-linejoin:round;stroke-miterlimit:4;stroke-dasharray:none;stroke-opacity:0.25882353"
         id="circle4368"
         cx="128"
         cy="924.36218"
         r="128" />
    </clipPath>
  </defs>
  <metadata
     id="metadata7">
    <rdf:RDF>
      <cc:Work
         rdf:about="">
        <dc:format>image/svg+xml</dc:format>
        <dc:type
           rdf:resource="http://purl.org/dc/dcmitype/StillImage" />
        <dc:title />
      </cc:Work>
    </rdf:RDF>
  </metadata>
  <g
     inkscape:label="Layer 1"
     inkscape:groupmode="layer"
     id="layer1"
     transform="translate(0,-796.36216)">
    <circle
       r="128"
       cy="924.36218"
       cx="128"
       id="path4152"
       style="fill:#dd4713;fill-opacity:1;stroke:none;stroke-width:10;stroke-linejoin:round;stroke-miterlimit:4;stroke-dasharray:none;stroke-opacity:0.25882353" />
    <text
       xml:space="preserve"
       style="font-style:normal;font-weight:normal;font-size:40px;line-height:125%;font-family:sans-serif;letter-spacing:0px;word-spacing:0px;fill:#000000;fill-opacity:1;stroke:none;stroke-width:1px;stroke-linecap:butt;stroke-linejoin:miter;stroke-opacity:1"
       x="120"
       y="927.36218"
       id="text4914"
       sodipodi:linespacing="125%"><tspan
         sodipodi:role="line"
         id="tspan4916"
         x="120"
         y="927.36218" /></text>
    <g
       id="g4241"
       transform="translate(-4.11162,138)"
       style="stroke:none">
      <g
         id="g4446"
         style="stroke:none">
        <g
           style="fill:none;fill-rule:evenodd;stroke:none;stroke-width:10;stroke-linecap:round;stroke-linejoin:miter;stroke-miterlimit:4;stroke-dasharray:none;stroke-opacity:1"
           id="g4448">
          <path
             inkscape:connector-curvature="0"
             d="m 129.98857,850.41168 c 0,15 0,15 0,15 L -82.143464,1077.5437 c 0,0 0,0 0,-15 z"
             id="path4450"
             style="stroke:none" />
        </g>
        <path
           style="fill:none;fill-rule:evenodd;stroke:none;stroke-width:10;stroke-linecap:round;stroke-linejoin:miter;stroke-miterlimit:4;stroke-dasharray:none;stroke-opacity:1"
           d="m 129.98857,850.41168 c 0,15 0,15 0,15"
           id="path4247"
           inkscape:connector-curvature="0" />
      </g>
      <g
         id="g4453"
         style="stroke:none">
        <g
           style="fill:none;fill-rule:evenodd;stroke:none;stroke-width:10;stroke-linecap:round;stroke-linejoin:miter;stroke-miterlimit:4;stroke-dasharray:none;stroke-opacity:1"
           id="g4455">
          <path
             inkscape:connector-curvature="0"
             d="m 111.58095,850.41168 c 0,15 0,15 0,15 l -212.13203,212.13202 c 0,0 0,0 0,-15 z"
             id="path4457"
             style="stroke:none" />
        </g>
        <path
           inkscape:connector-curvature="0"
           id="path4245"
           d="m 111.58095,850.41168 c 0,15 0,15 0,15"
           style="fill:none;fill-rule:evenodd;stroke:none;stroke-width:10;stroke-linecap:round;stroke-linejoin:miter;stroke-miterlimit:4;stroke-dasharray:none;stroke-opacity:1" />
      </g>
      <g
         id="g4460"
         style="stroke:none">
        <g
           style="fill:none;fill-rule:evenodd;stroke:none;stroke-width:10;stroke-linecap:round;stroke-linejoin:miter;stroke-miterlimit:4;stroke-dasharray:none;stroke-opacity:1"
           id="g4462">
          <path
             inkscape:connector-curvature="0"
             d="m 93.173333,850.41168 c 0,15 0,15 0,15 L -118.9587,1077.5437 c 0,0 0,0 0,-15 z"
             id="path4464"
             style="stroke:none" />
        </g>
        <path
           style="fill:none;fill-rule:evenodd;stroke:none;stroke-width:10;stroke-linecap:round;stroke-linejoin:miter;stroke-miterlimit:4;stroke-dasharray:none;stroke-opacity:1"
           d="m 93.173333,850.41168 c 0,15 0,15 0,15"
           id="path4243"
           inkscape:connector-curvature="0" />
      </g>
      <g
         id="g4467"
         style="stroke:none">
        <g
           style="fill:none;fill-rule:evenodd;stroke:none;stroke-width:10;stroke-linecap:round;stroke-linejoin:miter;stroke-miterlimit:4;stroke-dasharray:none;stroke-opacity:1"
           id="g4469">
          <path
             inkscape:connector-curvature="0"
             d="m 166.80381,850.41168 c 0,15 0,15 0,15 L -45.328224,1077.5437 c 0,0 0,0 0,-15 z"
             id="path4471"
             style="stroke:none" />
        </g>
        <path
           style="fill:none;fill-rule:evenodd;stroke:none;stroke-width:10;stroke-linecap:round;stroke-linejoin:miter;stroke-miterlimit:4;stroke-dasharray:none;stroke-opacity:1"
           d="m 166.80381,850.41168 c 0,15 0,15 0,15"
           id="path4251"
           inkscape:connector-curvature="0" />
      </g>
      <g
         id="g4474"
         style="stroke:none">
        <g
           style="fill:none;fill-rule:evenodd;stroke:none;stroke-width:10;stroke-linecap:round;stroke-linejoin:miter;stroke-miterlimit:4;stroke-dasharray:none;stroke-opacity:1"
           id="g4476">
          <path
             inkscape:connector-curvature="0"
             d="m 148.39619,850.41168 c 0,15 0,15 0,15 L -63.735844,1077.5437 c 0,0 0,0 0,-15 z"
             id="path4478"
             style="stroke:none" />
        </g>
        <path
           inkscape:connector-curvature="0"
           id="path4249"
           d="m 148.39619,850.41168 c 0,15 0,15 0,15"
           style="fill:none;fill-rule:evenodd;stroke:none;stroke-width:10;stroke-linecap:round;stroke-linejoin:miter;stroke-miterlimit:4;stroke-dasharray:none;stroke-opacity:1" />
      </g>
    </g>
    <g
       id="g4258"
       clip-path="url(#clipPath4366)"
       style="fill:#932f0d;fill-opacity:1">
      <g
         id="g4260"
         style="fill:#932f0d;fill-opacity:1">
        <path
           id="path4262"
           d="M53.0 833.8612L53.0 893.1122L-159.132034356 1105.24423436L-159.132034356 1045.99323436Z"
           style="fill:#932f0d;fill-opacity:1" />
        <path
           id="path4264"
           d="M53.0 893.1122C53.0 942.3796 54.73066 954.17451 56.6575 962.24476L-155.474534356 1174.37679436C-157.401374356 1166.30654436 -159.132034356 1154.51163436 -159.132034356 1105.24423436Z"
           style="fill:#932f0d;fill-opacity:1" />
        <path
           id="path4266"
           d="M56.6575 962.24476C63.90144 992.58457 83.3895 1009.976 114.79472 1014.1738L-97.337314356 1226.30583436C-128.742534356 1222.10803436 -148.230594356 1204.71660436 -155.474534356 1174.37679436Z"
           style="fill:#932f0d;fill-opacity:1" />
        <path
           id="path4268"
           d="M114.79472 1014.1738C131.795 1016.4461 166.13028 1013.8026 193.13325 1008.1742L-18.998784356 1220.30623436C-46.001754356 1225.93463436 -80.337034356 1228.57813436 -97.337314356 1226.30583436Z"
           style="fill:#932f0d;fill-opacity:1" />
        <path
           id="path4270"
           d="M193.13325 1008.1742L203.0 1006.1473L-9.13203435596 1218.27933436L-18.998784356 1220.30623436Z"
           style="fill:#932f0d;fill-opacity:1" />
        <path
           id="path4272"
           d="M203.0 1006.1473L203.0 833.8612L-9.13203435596 1045.99323436L-9.13203435596 1218.27933436Z"
           style="fill:#932f0d;fill-opacity:1" />
        <path
           id="path4274"
           d="M203.0 833.8612L153.0 833.73713L-59.132034356 1045.86916436L-9.13203435596 1045.99323436Z"
           style="fill:#932f0d;fill-opacity:1" />
        <path
           id="path4276"
           d="M153.0 833.73713L153.0 971.23713L-59.132034356 1183.36916436L-59.132034356 1045.86916436Z"
           style="fill:#932f0d;fill-opacity:1" />
        <path
           id="path4278"
           d="M153.0 971.23713L103.0 971.23713L-109.132034356 1183.36916436L-59.132034356 1183.36916436Z"
           style="fill:#932f0d;fill-opacity:1" />
        <path
           id="path4280"
           d="M103.0 971.23713L103.0 874.36213L-109.132034356 1086.49416436L-109.132034356 1183.36916436Z"
           style="fill:#932f0d;fill-opacity:1" />
        <path
           id="path4282"
           d="M103.0 874.36213L84.25 874.36213L-127.882034356 1086.49416436L-109.132034356 1086.49416436Z"
           style="fill:#932f0d;fill-opacity:1" />
        <path
           id="path4284"
           d="M84.25 874.36213L109.25 833.73713L-102.882034356 1045.86916436L-127.882034356 1086.49416436Z"
           style="fill:#932f0d;fill-opacity:1" />
      </g>
      <path
         d="m 53,833.8612 0,59.251 c 0,49.2674 1.73066,61.06231 3.6575,69.13256 7.24394,30.33981 26.732,47.73124 58.13722,51.92904 17.00028,2.2723 51.33556,-0.3712 78.33853,-5.9996 l 9.86675,-2.0269 0,-172.2861 -50,-0.12407 0,137.5 -50,0 0,-96.875 -18.75,0 25,-40.625 z"
         inkscape:connector-curvature="0"
         id="path3865"
         style="fill:#932f0d;fill-opacity:1" />
    </g>
    <path
       style="fill:#ffffff;fill-opacity:1"
       id="path4192"
       inkscape:connector-curvature="0"
       d="m 53,833.8612 0,59.251 c 0,49.2674 1.73066,61.06231 3.6575,69.13256 7.24394,30.33981 26.732,47.73124 58.13722,51.92904 17.00028,2.2723 51.33556,-0.3712 78.33853,-5.9996 l 9.86675,-2.0269 0,-172.2861 -50,-0.12407 0,137.5 -50,0 0,-96.875 -18.75,0 25,-40.625 z" />
  </g>
</svg>
