<?xml version="1.0" encoding="UTF-8" standalone="no"?>
<!-- Created with Inkscape (http://www.inkscape.org/) -->

<svg
   xmlns:dc="http://purl.org/dc/elements/1.1/"
   xmlns:cc="http://creativecommons.org/ns#"
   xmlns:rdf="http://www.w3.org/1999/02/22-rdf-syntax-ns#"
   xmlns:svg="http://www.w3.org/2000/svg"
   xmlns="http://www.w3.org/2000/svg"
   xmlns:sodipodi="http://sodipodi.sourceforge.net/DTD/sodipodi-0.dtd"
   xmlns:inkscape="http://www.inkscape.org/namespaces/inkscape"
   sodipodi:docname="uget-icon.svg"
   inkscape:version="0.91 r13725"
   version="1.1"
   id="svg2"
   viewBox="0 0 256 256"
   height="256"
   width="256">
  <sodipodi:namedview
     inkscape:window-maximized="1"
     inkscape:window-y="0"
     inkscape:window-x="0"
     inkscape:window-height="1054"
     inkscape:window-width="1920"
     units="px"
     showgrid="true"
     inkscape:current-layer="layer1"
     inkscape:document-units="px"
     inkscape:cy="128"
     inkscape:cx="77.013079"
     inkscape:zoom="3.2851562"
     inkscape:pageshadow="2"
     inkscape:pageopacity="0.0"
     borderopacity="1.0"
     bordercolor="#666666"
     pagecolor="#ffffff"
     id="base">
    <inkscape:grid
       type="xygrid"
       id="grid4168"
       spacingx="5"
       spacingy="5" />
  </sodipodi:namedview>
  <defs
     id="defs4">
    <clipPath
       clipPathUnits="userSpaceOnUse"
       id="clipPath5002">
      <g
         id="g5004">
        <path
           transform="translate(0,796.36216)"
           inkscape:connector-curvature="0"
           id="path5006"
           d="M 88.118406,249.43519 C 46.103287,235.29134 14.771284,201.68742 4.1335861,159.36053 1.3377997,148.23623 0.92261224,144.16281 0.92582381,127.88908 0.92787958,117.47222 1.134384,112.01362 1.6577819,108.54099 4.4653598,89.913336 12.17654,70.638106 23.042737,55.086148 c 3.958678,-5.665755 8.344812,-10.93092 9.101533,-10.925587 0.32809,0.0023 10.488643,18.309713 22.579009,40.683112 12.090365,22.373397 22.374546,41.334697 22.853732,42.136217 0.479186,0.80151 0.924733,2.44098 0.990103,3.64326 0.343424,6.31639 2.524175,14.20976 5.6424,20.42304 2.954444,5.88693 5.065381,8.73258 10.434696,14.06652 6.71418,6.66995 12.88853,10.28643 21.73204,12.72904 3.16587,0.87442 5.10478,1.05037 11.57517,1.05037 8.82596,0 12.60219,-0.76201 19.26429,-3.88733 2.04584,-0.95974 3.93661,-1.66536 4.20172,-1.56805 0.2651,0.0973 -11.0555,17.66459 -25.1569,39.0384 l -25.6389,38.86148 -3.094121,0.11221 c -2.554618,0.0927 -4.195204,-0.25845 -9.409103,-2.01364 z"
           style="fill:#0f9d58;fill-opacity:1;stroke:none;stroke-width:4.85768509;stroke-linejoin:round;stroke-miterlimit:4;stroke-dasharray:none;stroke-opacity:1" />
        <path
           inkscape:connector-curvature="0"
           id="path5008"
           d="m 112.35984,1051.5167 c -10.0014,-1.4495 -12.15632,-1.8201 -12.531784,-2.1556 -0.248854,-0.2223 1.738304,-3.7475 4.550294,-8.0722 7.16635,-11.0213 49.77231,-74.64801 50.25856,-75.05489 3.57509,-2.99158 8.63523,-8.0414 10.57512,-10.55356 3.36154,-4.35318 7.55784,-12.9141 9.06523,-18.494 6.19314,-22.92535 -2.59253,-47.15185 -21.69967,-59.83688 l -2.96081,-1.96565 17.02469,0.29584 c 9.36358,0.1627 31.17032,0.43384 48.45941,0.60252 l 31.43471,0.30668 1.54584,4.18869 c 2.24597,6.08579 4.67816,15.0947 5.93451,21.9816 1.52517,8.36049 1.92536,28.85896 0.73851,37.82758 -3.0805,23.27845 -12.81326,45.72018 -27.80202,64.10577 -20.47622,25.1166 -51.4599,42.1974 -84.14612,46.3885 -5.31244,0.6812 -26.64601,0.9864 -30.44647,0.4356 z"
           style="fill:#f4b400;fill-opacity:1;stroke:none;stroke-width:4.85768509;stroke-linejoin:round;stroke-miterlimit:4;stroke-dasharray:none;stroke-opacity:1" />
        <path
           transform="translate(0,796.36216)"
           inkscape:connector-curvature="0"
           id="path5010"
           d="M 67.989788,108.87302 C 41.284246,59.575543 33.290284,45.149038 32.233625,44.344765 31.651257,43.901497 32.811213,42.549931 38.695603,36.815353 53.43581,22.450419 68.809334,13.040746 87.839196,6.7360352 101.68742,2.1480329 112.58238,0.43719165 127.95142,0.43719165 c 21.3099,0 37.80488,3.80960275 56.83492,13.12633035 25.29351,12.383198 46.19421,33.578863 58.51993,59.345832 1.61138,3.368591 2.92978,6.372442 2.92978,6.675231 0,0.560033 -10.54865,0.49527 -71.16508,-0.436914 l -24.28843,-0.373518 -3.93063,-1.764495 c -6.75732,-3.033425 -10.64587,-3.839529 -18.6576,-3.867747 -5.0296,-0.01773 -7.97946,0.207636 -10.31642,0.788106 -14.50826,3.603659 -26.283291,12.94777 -33.291614,26.418653 -3.58502,6.89086 -5.24713,13.08166 -6.331628,23.58317 l -0.33738,3.26696 -9.92748,-18.32578 z"
           style="fill:#db4437;fill-opacity:1;stroke:none;stroke-width:10;stroke-linejoin:round;stroke-miterlimit:4;stroke-dasharray:none;stroke-opacity:1" />
      </g>
    </clipPath>
    <clipPath
       id="clipPath4271"
       clipPathUnits="userSpaceOnUse">
      <circle
         r="128"
         cy="128.00002"
         cx="128"
         id="circle4273"
         style="fill:#292929;fill-opacity:0.26020412;stroke:none;stroke-width:10;stroke-linejoin:round;stroke-miterlimit:4;stroke-dasharray:none;stroke-opacity:0.25882353" />
    </clipPath>
    <clipPath
       clipPathUnits="userSpaceOnUse"
       id="clipPath4363">
      <circle
         r="128"
         cy="924.36218"
         cx="128"
         id="circle4365"
         style="fill:#4285f4;fill-opacity:1;stroke:none;stroke-width:10;stroke-linejoin:round;stroke-miterlimit:4;stroke-dasharray:none;stroke-opacity:0.25882353" />
    </clipPath>
    <clipPath
       id="clipPath4452"
       clipPathUnits="userSpaceOnUse">
      <circle
         r="128"
         cy="924.36218"
         cx="128"
         id="circle4454"
         style="fill:#4285f4;fill-opacity:1;stroke:none;stroke-width:10;stroke-linejoin:round;stroke-miterlimit:4;stroke-dasharray:none;stroke-opacity:0.25882353" />
    </clipPath>
    <clipPath
       clipPathUnits="userSpaceOnUse"
       id="clipPath5177">
      <circle
         r="128"
         cy="924.36218"
         cx="128"
         id="circle5179"
         style="fill:#4285f4;fill-opacity:1;stroke:none;stroke-width:10;stroke-linejoin:round;stroke-miterlimit:4;stroke-dasharray:none;stroke-opacity:0.25882353" />
    </clipPath>
    <clipPath
       id="clipPath4342"
       clipPathUnits="userSpaceOnUse">
      <circle
         r="128"
         cy="933.48718"
         cx="128"
         id="circle4344"
         style="fill:#4285f4;fill-opacity:1;stroke:none;stroke-width:10;stroke-linejoin:round;stroke-miterlimit:4;stroke-dasharray:none;stroke-opacity:0.25882353" />
    </clipPath>
    <clipPath
       clipPathUnits="userSpaceOnUse"
       id="clipPath4681">
      <circle
         r="128"
         cy="930.43964"
         cx="127.00293"
         id="circle4683"
         style="fill:#9d5fad;fill-opacity:1;stroke:none;stroke-width:10;stroke-linejoin:round;stroke-miterlimit:4;stroke-dasharray:none;stroke-opacity:0.25882353" />
    </clipPath>
    <clipPath
       id="clipPath4235"
       clipPathUnits="userSpaceOnUse">
      <circle
         r="128"
         cy="924.36218"
         cx="128"
         id="circle4237"
         style="fill:#0f9d58;fill-opacity:1;stroke:none;stroke-width:10;stroke-linejoin:round;stroke-miterlimit:4;stroke-dasharray:none;stroke-opacity:0.25882353" />
    </clipPath>
    <clipPath
       clipPathUnits="userSpaceOnUse"
       id="clipPath4771">
      <circle
         r="128"
         cy="924.36218"
         cx="128"
         id="circle4773"
         style="fill:#0f9d58;fill-opacity:1;stroke:none;stroke-width:10;stroke-linejoin:round;stroke-miterlimit:4;stroke-dasharray:none;stroke-opacity:0.25882353" />
    </clipPath>
    <clipPath
       id="clipPath4842"
       clipPathUnits="userSpaceOnUse">
      <circle
         r="128"
         cy="924.36218"
         cx="128"
         id="circle4844"
         style="fill:#0f9d58;fill-opacity:1;stroke:none;stroke-width:10;stroke-linejoin:round;stroke-miterlimit:4;stroke-dasharray:none;stroke-opacity:0.25882353" />
    </clipPath>
    <clipPath
       clipPathUnits="userSpaceOnUse"
       id="clipPath4458">
      <circle
         r="128"
         cy="924.36218"
         cx="128"
         id="circle4460"
         style="fill:#ff3b38;fill-opacity:1;stroke:none;stroke-width:10;stroke-linejoin:round;stroke-miterlimit:4;stroke-dasharray:none;stroke-opacity:0.25882353" />
    </clipPath>
    <clipPath
       id="clipPath4783"
       clipPathUnits="userSpaceOnUse">
      <circle
         r="128"
         cy="924.36218"
         cx="128"
         id="circle4785"
         style="fill:#ff3b38;fill-opacity:1;stroke:none;stroke-width:10;stroke-linejoin:round;stroke-miterlimit:4;stroke-dasharray:none;stroke-opacity:0.25882353" />
    </clipPath>
    <clipPath
       clipPathUnits="userSpaceOnUse"
       id="clipPath4789">
      <circle
         r="128"
         cy="924.36218"
         cx="102.64714"
         id="circle4791"
         style="fill:#80b4ff;fill-opacity:1;stroke:none;stroke-width:10;stroke-linejoin:round;stroke-miterlimit:4;stroke-dasharray:none;stroke-opacity:0.25882353" />
    </clipPath>
    <clipPath
       id="clipPath4721"
       clipPathUnits="userSpaceOnUse">
      <circle
         r="128"
         cy="924.36218"
         cx="128"
         id="circle4723"
         style="fill:#557ae6;fill-opacity:1;stroke:none;stroke-width:10;stroke-linejoin:round;stroke-miterlimit:4;stroke-dasharray:none;stroke-opacity:0.25882353" />
    </clipPath>
    <clipPath
       clipPathUnits="userSpaceOnUse"
       id="clipPath4523">
      <circle
         r="85.333336"
         cy="887.36218"
         cx="125"
         id="circle4525"
         style="fill:#469737;fill-opacity:1;stroke:none;stroke-width:10;stroke-linejoin:round;stroke-miterlimit:4;stroke-dasharray:none;stroke-opacity:0.25882353" />
    </clipPath>
  </defs>
  <metadata
     id="metadata7">
    <rdf:RDF>
      <cc:Work
         rdf:about="">
        <dc:format>image/svg+xml</dc:format>
        <dc:type
           rdf:resource="http://purl.org/dc/dcmitype/StillImage" />
        <dc:title />
      </cc:Work>
    </rdf:RDF>
  </metadata>
  <g
     transform="translate(0,-796.36216)"
     id="layer1"
     inkscape:groupmode="layer"
     inkscape:label="Layer 1">
    <circle
       style="fill:#469737;fill-opacity:1;stroke:none;stroke-width:10;stroke-linejoin:round;stroke-miterlimit:4;stroke-dasharray:none;stroke-opacity:0.25882353"
       id="path4152"
       cx="128"
       cy="924.36218"
       r="128" />
    <text
       sodipodi:linespacing="125%"
       id="text4914"
       y="927.36218"
       x="120"
       style="font-style:normal;font-weight:normal;font-size:40px;line-height:125%;font-family:sans-serif;letter-spacing:0px;word-spacing:0px;fill:#000000;fill-opacity:1;stroke:none;stroke-width:1px;stroke-linecap:butt;stroke-linejoin:miter;stroke-opacity:1"
       xml:space="preserve"><tspan
         y="927.36218"
         x="120"
         id="tspan4916"
         sodipodi:role="line" /></text>
    <g
       style="stroke:none"
       transform="translate(-4.11162,138)"
       id="g4241">
      <g
         style="stroke:none"
         id="g4446">
        <g
           id="g4448"
           style="fill:none;fill-rule:evenodd;stroke:none;stroke-width:10;stroke-linecap:round;stroke-linejoin:miter;stroke-miterlimit:4;stroke-dasharray:none;stroke-opacity:1">
          <path
             style="stroke:none"
             id="path4450"
             d="m 129.98857,850.41168 c 0,15 0,15 0,15 L -82.143464,1077.5437 c 0,0 0,0 0,-15 z"
             inkscape:connector-curvature="0" />
        </g>
        <path
           inkscape:connector-curvature="0"
           id="path4247"
           d="m 129.98857,850.41168 c 0,15 0,15 0,15"
           style="fill:none;fill-rule:evenodd;stroke:none;stroke-width:10;stroke-linecap:round;stroke-linejoin:miter;stroke-miterlimit:4;stroke-dasharray:none;stroke-opacity:1" />
      </g>
      <g
         style="stroke:none"
         id="g4453">
        <g
           id="g4455"
           style="fill:none;fill-rule:evenodd;stroke:none;stroke-width:10;stroke-linecap:round;stroke-linejoin:miter;stroke-miterlimit:4;stroke-dasharray:none;stroke-opacity:1">
          <path
             style="stroke:none"
             id="path4457"
             d="m 111.58095,850.41168 c 0,15 0,15 0,15 l -212.13203,212.13202 c 0,0 0,0 0,-15 z"
             inkscape:connector-curvature="0" />
        </g>
        <path
           style="fill:none;fill-rule:evenodd;stroke:none;stroke-width:10;stroke-linecap:round;stroke-linejoin:miter;stroke-miterlimit:4;stroke-dasharray:none;stroke-opacity:1"
           d="m 111.58095,850.41168 c 0,15 0,15 0,15"
           id="path4245"
           inkscape:connector-curvature="0" />
      </g>
      <g
         style="stroke:none"
         id="g4460">
        <g
           id="g4462"
           style="fill:none;fill-rule:evenodd;stroke:none;stroke-width:10;stroke-linecap:round;stroke-linejoin:miter;stroke-miterlimit:4;stroke-dasharray:none;stroke-opacity:1">
          <path
             style="stroke:none"
             id="path4464"
             d="m 93.173333,850.41168 c 0,15 0,15 0,15 L -118.9587,1077.5437 c 0,0 0,0 0,-15 z"
             inkscape:connector-curvature="0" />
        </g>
        <path
           inkscape:connector-curvature="0"
           id="path4243"
           d="m 93.173333,850.41168 c 0,15 0,15 0,15"
           style="fill:none;fill-rule:evenodd;stroke:none;stroke-width:10;stroke-linecap:round;stroke-linejoin:miter;stroke-miterlimit:4;stroke-dasharray:none;stroke-opacity:1" />
      </g>
      <g
         style="stroke:none"
         id="g4467">
        <g
           id="g4469"
           style="fill:none;fill-rule:evenodd;stroke:none;stroke-width:10;stroke-linecap:round;stroke-linejoin:miter;stroke-miterlimit:4;stroke-dasharray:none;stroke-opacity:1">
          <path
             style="stroke:none"
             id="path4471"
             d="m 166.80381,850.41168 c 0,15 0,15 0,15 L -45.328224,1077.5437 c 0,0 0,0 0,-15 z"
             inkscape:connector-curvature="0" />
        </g>
        <path
           inkscape:connector-curvature="0"
           id="path4251"
           d="m 166.80381,850.41168 c 0,15 0,15 0,15"
           style="fill:none;fill-rule:evenodd;stroke:none;stroke-width:10;stroke-linecap:round;stroke-linejoin:miter;stroke-miterlimit:4;stroke-dasharray:none;stroke-opacity:1" />
      </g>
      <g
         style="stroke:none"
         id="g4474">
        <g
           id="g4476"
           style="fill:none;fill-rule:evenodd;stroke:none;stroke-width:10;stroke-linecap:round;stroke-linejoin:miter;stroke-miterlimit:4;stroke-dasharray:none;stroke-opacity:1">
          <path
             style="stroke:none"
             id="path4478"
             d="m 148.39619,850.41168 c 0,15 0,15 0,15 L -63.735844,1077.5437 c 0,0 0,0 0,-15 z"
             inkscape:connector-curvature="0" />
        </g>
        <path
           style="fill:none;fill-rule:evenodd;stroke:none;stroke-width:10;stroke-linecap:round;stroke-linejoin:miter;stroke-miterlimit:4;stroke-dasharray:none;stroke-opacity:1"
           d="m 148.39619,850.41168 c 0,15 0,15 0,15"
           id="path4249"
           inkscape:connector-curvature="0" />
      </g>
    </g>
    <g
       id="g4310"
       transform="matrix(1.5,0,0,1.5,-59.5,-406.68111)"
       style="fill:#1a4f11;fill-opacity:1;stroke:none;stroke-opacity:1"
       clip-path="url(#clipPath4523)">
      <path
         style="fill:#1a4f11;fill-opacity:1;stroke-width:5;stroke-miterlimit:4;stroke-dasharray:none;stroke:none;stroke-opacity:1"
         d="M 128 53 L 128 70.173828 L 144.93359 70.173828 L 144.93359 101 L 203 101 L 203 53 L 128 53 z M 144.93359 111 L 144.93359 120.5 L 203 120.5 L 203 111 L 144.93359 111 z "
         transform="matrix(0.66666667,0,0,0.66666667,39.666667,802.02885)"
         id="path4314" />
      <g
         id="g4384"
         transform="matrix(0.66666667,0,0,0.66666667,39.666667,802.02885)"
         style="stroke:none;stroke-opacity:1;fill:#1a4f11;fill-opacity:1">
        <g
           id="g4386"
           style="fill:#1a4f11;fill-opacity:1;stroke-width:5;stroke-miterlimit:4;stroke-dasharray:none;stroke:none;stroke-opacity:1">
          <path
             id="path4388"
             d="M84.578125 53.0C67.083409 53.0 53.0 67.083409 53.0 84.578125L-88.4213562373 225.999481237C-88.4213562373 208.504765237 -74.3379472373 194.421356237 -56.8432312373 194.421356237Z"
             style="stroke:none;stroke-opacity:1;fill:#1a4f11;fill-opacity:1" />
          <path
             id="path4390"
             d="M53.0 84.578125L53.0 171.42188L-88.4213562373 312.843236237L-88.4213562373 225.999481237Z"
             style="stroke:none;stroke-opacity:1;fill:#1a4f11;fill-opacity:1" />
          <path
             id="path4392"
             d="M53.0 171.42188C53.0 188.91659 67.083409 203.0 84.578125 203.0L-56.8432312373 344.421356237C-74.3379472373 344.421356237 -88.4213562373 330.337946237 -88.4213562373 312.843236237Z"
             style="stroke:none;stroke-opacity:1;fill:#1a4f11;fill-opacity:1" />
          <path
             id="path4394"
             d="M84.578125 203.0L171.42188 203.0L30.0005237627 344.421356237L-56.8432312373 344.421356237Z"
             style="stroke:none;stroke-opacity:1;fill:#1a4f11;fill-opacity:1" />
          <path
             id="path4396"
             d="M171.42188 203.0C188.91659 203.0 203.0 188.91659 203.0 171.42188L61.5786437627 312.843236237C61.5786437627 330.337946237 47.4952337627 344.421356237 30.0005237627 344.421356237Z"
             style="stroke:none;stroke-opacity:1;fill:#1a4f11;fill-opacity:1" />
          <path
             id="path4398"
             d="M203.0 171.42188L203.0 111.0L61.5786437627 252.421356237L61.5786437627 312.843236237Z"
             style="stroke:none;stroke-opacity:1;fill:#1a4f11;fill-opacity:1" />
          <path
             id="path4400"
             d="M203.0 111.0L144.93359 111.0L3.51223376269 252.421356237L61.5786437627 252.421356237Z"
             style="stroke:none;stroke-opacity:1;fill:#1a4f11;fill-opacity:1" />
          <path
             id="path4402"
             d="M144.93359 111.0L144.93359 150.87305L3.51223376269 292.294406237L3.51223376269 252.421356237Z"
             style="stroke:none;stroke-opacity:1;fill:#1a4f11;fill-opacity:1" />
          <path
             id="path4404"
             d="M144.93359 150.87305L173.91797 150.87305L32.4966137627 292.294406237L3.51223376269 292.294406237Z"
             style="stroke:none;stroke-opacity:1;fill:#1a4f11;fill-opacity:1" />
          <path
             id="path4406"
             d="M173.91797 150.87305L150.95898 168.34961L9.53762376269 309.770966237L32.4966137627 292.294406237Z"
             style="stroke:none;stroke-opacity:1;fill:#1a4f11;fill-opacity:1" />
          <path
             id="path4408"
             d="M150.95898 168.34961L128.0 185.82617L-13.4213562373 327.247526237L9.53762376269 309.770966237Z"
             style="stroke:none;stroke-opacity:1;fill:#1a4f11;fill-opacity:1" />
          <path
             id="path4410"
             d="M128.0 185.82617L105.04102 168.34961L-36.3803362373 309.770966237L-13.4213562373 327.247526237Z"
             style="stroke:none;stroke-opacity:1;fill:#1a4f11;fill-opacity:1" />
          <path
             id="path4412"
             d="M105.04102 168.34961L82.082031 150.87305L-59.3393252373 292.294406237L-36.3803362373 309.770966237Z"
             style="stroke:none;stroke-opacity:1;fill:#1a4f11;fill-opacity:1" />
          <path
             id="path4414"
             d="M82.082031 150.87305L111.06641 150.87305L-30.3549462373 292.294406237L-59.3393252373 292.294406237Z"
             style="stroke:none;stroke-opacity:1;fill:#1a4f11;fill-opacity:1" />
          <path
             id="path4416"
             d="M111.06641 150.87305L111.06641 70.173828L-30.3549462373 211.595184237L-30.3549462373 292.294406237Z"
             style="stroke:none;stroke-opacity:1;fill:#1a4f11;fill-opacity:1" />
          <path
             id="path4418"
             d="M111.06641 70.173828L144.93359 70.173828L3.51223376269 211.595184237L-30.3549462373 211.595184237Z"
             style="stroke:none;stroke-opacity:1;fill:#1a4f11;fill-opacity:1" />
          <path
             id="path4420"
             d="M144.93359 70.173828L144.93359 101.0L3.51223376269 242.421356237L3.51223376269 211.595184237Z"
             style="stroke:none;stroke-opacity:1;fill:#1a4f11;fill-opacity:1" />
          <path
             id="path4422"
             d="M144.93359 101.0L203.0 101.0L61.5786437627 242.421356237L3.51223376269 242.421356237Z"
             style="stroke:none;stroke-opacity:1;fill:#1a4f11;fill-opacity:1" />
          <path
             id="path4424"
             d="M203.0 101.0L203.0 84.578125L61.5786437627 225.999481237L61.5786437627 242.421356237Z"
             style="stroke:none;stroke-opacity:1;fill:#1a4f11;fill-opacity:1" />
          <path
             id="path4426"
             d="M203.0 84.578125C203.0 67.083409 188.91659 53.0 171.42188 53.0L30.0005237627 194.421356237C47.4952337627 194.421356237 61.5786437627 208.504765237 61.5786437627 225.999481237Z"
             style="stroke:none;stroke-opacity:1;fill:#1a4f11;fill-opacity:1" />
          <path
             id="path4428"
             d="M171.42188 53.0L84.578125 53.0L-56.8432312373 194.421356237L30.0005237627 194.421356237Z"
             style="stroke:none;stroke-opacity:1;fill:#1a4f11;fill-opacity:1" />
        </g>
        <path
           style="fill:#1a4f11;fill-opacity:1;stroke-width:5;stroke-miterlimit:4;stroke-dasharray:none;stroke:none;stroke-opacity:1"
           d="M 84.578125 53 C 67.083409 53 53 67.083409 53 84.578125 L 53 171.42188 C 53 188.91659 67.083409 203 84.578125 203 L 171.42188 203 C 188.91659 203 203 188.91659 203 171.42188 L 203 111 L 144.93359 111 L 144.93359 150.87305 L 173.91797 150.87305 L 150.95898 168.34961 L 128 185.82617 L 105.04102 168.34961 L 82.082031 150.87305 L 111.06641 150.87305 L 111.06641 70.173828 L 144.93359 70.173828 L 144.93359 101 L 203 101 L 203 84.578125 C 203 67.083409 188.91659 53 171.42188 53 L 84.578125 53 z "
           transform=""
           id="path4312" />
      </g>
    </g>
    <g
       style="fill:#ffffff;fill-opacity:1"
       transform="matrix(1.5,0,0,1.5,-59.5,-406.68111)"
       id="g4277">
      <path
         id="rect4273"
         transform="matrix(0.66666667,0,0,0.66666667,39.666667,802.02885)"
         d="M 84.578125 53 C 67.083409 53 53 67.083409 53 84.578125 L 53 171.42188 C 53 188.91659 67.083409 203 84.578125 203 L 171.42188 203 C 188.91659 203 203 188.91659 203 171.42188 L 203 111 L 144.93359 111 L 144.93359 150.87305 L 173.91797 150.87305 L 150.95898 168.34961 L 128 185.82617 L 105.04102 168.34961 L 82.082031 150.87305 L 111.06641 150.87305 L 111.06641 70.173828 L 144.93359 70.173828 L 144.93359 101 L 203 101 L 203 84.578125 C 203 67.083409 188.91659 53 171.42188 53 L 84.578125 53 z "
         style="fill:#ffffff;fill-opacity:1;stroke-width:5;stroke-miterlimit:4;stroke-dasharray:none" />
      <path
         id="rect4275"
         transform="matrix(0.66666667,0,0,0.66666667,39.666667,802.02885)"
         d="M 128 53 L 128 70.173828 L 144.93359 70.173828 L 144.93359 101 L 203 101 L 203 53 L 128 53 z M 144.93359 111 L 144.93359 120.5 L 203 120.5 L 203 111 L 144.93359 111 z "
         style="fill:#ffffff;fill-opacity:1;stroke-width:5;stroke-miterlimit:4;stroke-dasharray:none" />
    </g>
    <g
       transform="translate(-3.6349612,-1.9994356)"
       id="g4291" />
  </g>
</svg>
