<?xml version="1.0" encoding="UTF-8" standalone="no"?>
<!-- Created with Inkscape (http://www.inkscape.org/) -->

<svg
   xmlns:dc="http://purl.org/dc/elements/1.1/"
   xmlns:cc="http://creativecommons.org/ns#"
   xmlns:rdf="http://www.w3.org/1999/02/22-rdf-syntax-ns#"
   xmlns:svg="http://www.w3.org/2000/svg"
   xmlns="http://www.w3.org/2000/svg"
   xmlns:sodipodi="http://sodipodi.sourceforge.net/DTD/sodipodi-0.dtd"
   xmlns:inkscape="http://www.inkscape.org/namespaces/inkscape"
   sodipodi:docname="vpnui.svg"
   inkscape:version="0.92+devel unknown"
   version="1.1"
   id="svg2"
   viewBox="0 0 256 256"
   height="256"
   width="256">
  <sodipodi:namedview
     inkscape:window-maximized="1"
     inkscape:window-y="0"
     inkscape:window-x="0"
     inkscape:window-height="715"
     inkscape:window-width="1366"
     units="px"
     showgrid="true"
     inkscape:current-layer="layer1"
     inkscape:document-units="px"
     inkscape:cy="128"
     inkscape:cx="128"
     inkscape:zoom="2.0351562"
     inkscape:pageshadow="2"
     inkscape:pageopacity="0.0"
     borderopacity="1.0"
     bordercolor="#666666"
     pagecolor="#ffffff"
     id="base"
     inkscape:document-rotation="0">
    <inkscape:grid
       type="xygrid"
       id="grid4168"
       spacingx="5"
       spacingy="5" />
  </sodipodi:namedview>
  <defs
     id="defs4">
    <clipPath
       clipPathUnits="userSpaceOnUse"
       id="clipPath5002">
      <g
         id="g5004">
        <path
           transform="translate(0,796.36216)"
           inkscape:connector-curvature="0"
           id="path5006"
           d="M 88.118406,249.43519 C 46.103287,235.29134 14.771284,201.68742 4.1335861,159.36053 1.3377997,148.23623 0.92261224,144.16281 0.92582381,127.88908 0.92787958,117.47222 1.134384,112.01362 1.6577819,108.54099 4.4653598,89.913336 12.17654,70.638106 23.042737,55.086148 c 3.958678,-5.665755 8.344812,-10.93092 9.101533,-10.925587 0.32809,0.0023 10.488643,18.309713 22.579009,40.683112 12.090365,22.373397 22.374546,41.334697 22.853732,42.136217 0.479186,0.80151 0.924733,2.44098 0.990103,3.64326 0.343424,6.31639 2.524175,14.20976 5.6424,20.42304 2.954444,5.88693 5.065381,8.73258 10.434696,14.06652 6.71418,6.66995 12.88853,10.28643 21.73204,12.72904 3.16587,0.87442 5.10478,1.05037 11.57517,1.05037 8.82596,0 12.60219,-0.76201 19.26429,-3.88733 2.04584,-0.95974 3.93661,-1.66536 4.20172,-1.56805 0.2651,0.0973 -11.0555,17.66459 -25.1569,39.0384 l -25.6389,38.86148 -3.094121,0.11221 c -2.554618,0.0927 -4.195204,-0.25845 -9.409103,-2.01364 z"
           style="fill:#0f9d58;fill-opacity:1;stroke:none;stroke-width:4.85768509;stroke-linejoin:round;stroke-miterlimit:4;stroke-dasharray:none;stroke-opacity:1" />
        <path
           inkscape:connector-curvature="0"
           id="path5008"
           d="m 112.35984,1051.5167 c -10.0014,-1.4495 -12.15632,-1.8201 -12.531784,-2.1556 -0.248854,-0.2223 1.738304,-3.7475 4.550294,-8.0722 7.16635,-11.0213 49.77231,-74.64801 50.25856,-75.05489 3.57509,-2.99158 8.63523,-8.0414 10.57512,-10.55356 3.36154,-4.35318 7.55784,-12.9141 9.06523,-18.494 6.19314,-22.92535 -2.59253,-47.15185 -21.69967,-59.83688 l -2.96081,-1.96565 17.02469,0.29584 c 9.36358,0.1627 31.17032,0.43384 48.45941,0.60252 l 31.43471,0.30668 1.54584,4.18869 c 2.24597,6.08579 4.67816,15.0947 5.93451,21.9816 1.52517,8.36049 1.92536,28.85896 0.73851,37.82758 -3.0805,23.27845 -12.81326,45.72018 -27.80202,64.10577 -20.47622,25.1166 -51.4599,42.1974 -84.14612,46.3885 -5.31244,0.6812 -26.64601,0.9864 -30.44647,0.4356 z"
           style="fill:#f4b400;fill-opacity:1;stroke:none;stroke-width:4.85768509;stroke-linejoin:round;stroke-miterlimit:4;stroke-dasharray:none;stroke-opacity:1" />
        <path
           transform="translate(0,796.36216)"
           inkscape:connector-curvature="0"
           id="path5010"
           d="M 67.989788,108.87302 C 41.284246,59.575543 33.290284,45.149038 32.233625,44.344765 31.651257,43.901497 32.811213,42.549931 38.695603,36.815353 53.43581,22.450419 68.809334,13.040746 87.839196,6.7360352 101.68742,2.1480329 112.58238,0.43719165 127.95142,0.43719165 c 21.3099,0 37.80488,3.80960275 56.83492,13.12633035 25.29351,12.383198 46.19421,33.578863 58.51993,59.345832 1.61138,3.368591 2.92978,6.372442 2.92978,6.675231 0,0.560033 -10.54865,0.49527 -71.16508,-0.436914 l -24.28843,-0.373518 -3.93063,-1.764495 c -6.75732,-3.033425 -10.64587,-3.839529 -18.6576,-3.867747 -5.0296,-0.01773 -7.97946,0.207636 -10.31642,0.788106 -14.50826,3.603659 -26.283291,12.94777 -33.291614,26.418653 -3.58502,6.89086 -5.24713,13.08166 -6.331628,23.58317 l -0.33738,3.26696 -9.92748,-18.32578 z"
           style="fill:#db4437;fill-opacity:1;stroke:none;stroke-width:10;stroke-linejoin:round;stroke-miterlimit:4;stroke-dasharray:none;stroke-opacity:1" />
      </g>
    </clipPath>
    <clipPath
       id="clipPath4271"
       clipPathUnits="userSpaceOnUse">
      <circle
         r="128"
         cy="128.00002"
         cx="128"
         id="circle4273"
         style="fill:#292929;fill-opacity:0.26020412;stroke:none;stroke-width:10;stroke-linejoin:round;stroke-miterlimit:4;stroke-dasharray:none;stroke-opacity:0.25882353" />
    </clipPath>
    <clipPath
       clipPathUnits="userSpaceOnUse"
       id="clipPath4363">
      <circle
         r="128"
         cy="924.36218"
         cx="128"
         id="circle4365"
         style="fill:#4285f4;fill-opacity:1;stroke:none;stroke-width:10;stroke-linejoin:round;stroke-miterlimit:4;stroke-dasharray:none;stroke-opacity:0.25882353" />
    </clipPath>
    <clipPath
       id="clipPath4452"
       clipPathUnits="userSpaceOnUse">
      <circle
         r="128"
         cy="924.36218"
         cx="128"
         id="circle4454"
         style="fill:#4285f4;fill-opacity:1;stroke:none;stroke-width:10;stroke-linejoin:round;stroke-miterlimit:4;stroke-dasharray:none;stroke-opacity:0.25882353" />
    </clipPath>
    <clipPath
       clipPathUnits="userSpaceOnUse"
       id="clipPath5177">
      <circle
         r="128"
         cy="924.36218"
         cx="128"
         id="circle5179"
         style="fill:#4285f4;fill-opacity:1;stroke:none;stroke-width:10;stroke-linejoin:round;stroke-miterlimit:4;stroke-dasharray:none;stroke-opacity:0.25882353" />
    </clipPath>
    <clipPath
       id="clipPath4342"
       clipPathUnits="userSpaceOnUse">
      <circle
         r="128"
         cy="933.48718"
         cx="128"
         id="circle4344"
         style="fill:#4285f4;fill-opacity:1;stroke:none;stroke-width:10;stroke-linejoin:round;stroke-miterlimit:4;stroke-dasharray:none;stroke-opacity:0.25882353" />
    </clipPath>
    <clipPath
       clipPathUnits="userSpaceOnUse"
       id="clipPath4681">
      <circle
         r="128"
         cy="930.43964"
         cx="127.00293"
         id="circle4683"
         style="fill:#9d5fad;fill-opacity:1;stroke:none;stroke-width:10;stroke-linejoin:round;stroke-miterlimit:4;stroke-dasharray:none;stroke-opacity:0.25882353" />
    </clipPath>
    <clipPath
       id="clipPath4235"
       clipPathUnits="userSpaceOnUse">
      <circle
         r="128"
         cy="924.36218"
         cx="128"
         id="circle4237"
         style="fill:#0f9d58;fill-opacity:1;stroke:none;stroke-width:10;stroke-linejoin:round;stroke-miterlimit:4;stroke-dasharray:none;stroke-opacity:0.25882353" />
    </clipPath>
    <clipPath
       clipPathUnits="userSpaceOnUse"
       id="clipPath4771">
      <circle
         r="128"
         cy="924.36218"
         cx="128"
         id="circle4773"
         style="fill:#0f9d58;fill-opacity:1;stroke:none;stroke-width:10;stroke-linejoin:round;stroke-miterlimit:4;stroke-dasharray:none;stroke-opacity:0.25882353" />
    </clipPath>
    <clipPath
       id="clipPath4842"
       clipPathUnits="userSpaceOnUse">
      <circle
         r="128"
         cy="924.36218"
         cx="128"
         id="circle4844"
         style="fill:#0f9d58;fill-opacity:1;stroke:none;stroke-width:10;stroke-linejoin:round;stroke-miterlimit:4;stroke-dasharray:none;stroke-opacity:0.25882353" />
    </clipPath>
    <clipPath
       clipPathUnits="userSpaceOnUse"
       id="clipPath4458">
      <circle
         r="128"
         cy="924.36218"
         cx="128"
         id="circle4460"
         style="fill:#ff3b38;fill-opacity:1;stroke:none;stroke-width:10;stroke-linejoin:round;stroke-miterlimit:4;stroke-dasharray:none;stroke-opacity:0.25882353" />
    </clipPath>
    <clipPath
       id="clipPath4783"
       clipPathUnits="userSpaceOnUse">
      <circle
         r="128"
         cy="924.36218"
         cx="128"
         id="circle4785"
         style="fill:#ff3b38;fill-opacity:1;stroke:none;stroke-width:10;stroke-linejoin:round;stroke-miterlimit:4;stroke-dasharray:none;stroke-opacity:0.25882353" />
    </clipPath>
    <clipPath
       clipPathUnits="userSpaceOnUse"
       id="clipPath4789">
      <circle
         r="128"
         cy="924.36218"
         cx="102.64714"
         id="circle4791"
         style="fill:#80b4ff;fill-opacity:1;stroke:none;stroke-width:10;stroke-linejoin:round;stroke-miterlimit:4;stroke-dasharray:none;stroke-opacity:0.25882353" />
    </clipPath>
    <clipPath
       id="clipPath4721"
       clipPathUnits="userSpaceOnUse">
      <circle
         r="128"
         cy="924.36218"
         cx="128"
         id="circle4723"
         style="fill:#557ae6;fill-opacity:1;stroke:none;stroke-width:10;stroke-linejoin:round;stroke-miterlimit:4;stroke-dasharray:none;stroke-opacity:0.25882353" />
    </clipPath>
    <clipPath
       clipPathUnits="userSpaceOnUse"
       id="clipPath4491">
      <circle
         r="128"
         cy="924.36218"
         cx="128"
         id="circle4493"
         style="fill:#990000;fill-opacity:1;stroke:none;stroke-width:10;stroke-linejoin:round;stroke-miterlimit:4;stroke-dasharray:none;stroke-opacity:0.25882353" />
    </clipPath>
    <clipPath
       id="clipPath1102"
       clipPathUnits="userSpaceOnUse">
      <circle
         r="128"
         cy="924.36218"
         cx="128"
         id="circle1104"
         style="fill:#b40000;fill-opacity:1;stroke:none;stroke-width:10;stroke-linejoin:round;stroke-miterlimit:4;stroke-dasharray:none;stroke-opacity:0.25882353" />
    </clipPath>
    <clipPath
       id="clipPath4377"
       clipPathUnits="userSpaceOnUse">
      <circle
         style="fill:#c42626;fill-opacity:1;stroke:none;stroke-width:4.37119818;stroke-linejoin:round;stroke-miterlimit:4;stroke-dasharray:none;stroke-opacity:0.25882353"
         id="circle4379"
         cx="97.268661"
         cy="922.80902"
         r="55.95134" />
    </clipPath>
    <clipPath
       clipPathUnits="userSpaceOnUse"
       id="clipPath4701">
      <circle
         style="fill:#209673;fill-opacity:1;stroke:none;stroke-width:36.95041656;stroke-miterlimit:4;stroke-dasharray:none;stroke-opacity:1"
         id="circle4703"
         cx="128"
         cy="924.36218"
         r="128" />
    </clipPath>
  </defs>
  <metadata
     id="metadata7">
    <rdf:RDF>
      <cc:Work
         rdf:about="">
        <dc:format>image/svg+xml</dc:format>
        <dc:type
           rdf:resource="http://purl.org/dc/dcmitype/StillImage" />
        <dc:title />
      </cc:Work>
    </rdf:RDF>
  </metadata>
  <g
     transform="translate(0,-796.36216)"
     id="layer1"
     inkscape:groupmode="layer"
     inkscape:label="Layer 1">
    <circle
       r="128"
       cy="924.36218"
       cx="128"
       id="path4422"
       style="fill:#209673;fill-opacity:1;stroke:none;stroke-width:36.95041656;stroke-miterlimit:4;stroke-dasharray:none;stroke-opacity:1" />
    <g
       id="g4596"
       clip-path="url(#clipPath4701)"
       style="fill:#125441;fill-opacity:1">
      <g
         id="g4593"
         style="fill:#125441;fill-opacity:1;stroke:none;stroke-width:34.83718872;stroke-miterlimit:4;stroke-dasharray:none;stroke-opacity:1">
        <path
           id="path4487"
           d="M116.0391 797.50663L113.76957 800.03592L-98.362464356 1012.16795436L-96.092934356 1009.63866436Z"
           style="fill:#125441;fill-opacity:1" />
        <path
           id="path4489"
           d="M113.76957 800.03592C107.53716 806.98127 103.19071 814.18949 100.33793 822.31132L-111.794104356 1034.44335436C-108.941324356 1026.32152436 -104.594874356 1019.11330436 -98.362464356 1012.16795436Z"
           style="fill:#125441;fill-opacity:1" />
        <path
           id="path4491"
           d="M100.33793 822.31132L99.50981 824.67069L-112.622224356 1036.80272436L-111.794104356 1034.44335436Z"
           style="fill:#125441;fill-opacity:1" />
        <path
           id="path4493"
           d="M99.50981 824.67069L97.507858 824.67469L-114.624176356 1036.80672436L-112.622224356 1036.80272436Z"
           style="fill:#125441;fill-opacity:1" />
        <path
           id="path4495"
           d="M97.507858 824.67469C92.695185 824.68369 82.27466 825.90909 75.488325 827.26453L-136.643709356 1039.39656436C-129.857374356 1038.04112436 -119.436849356 1036.81572436 -114.624176356 1036.80672436Z"
           style="fill:#125441;fill-opacity:1" />
        <path
           id="path4497"
           d="M75.488325 827.26453C60.451568 830.26783 44.996691 836.09901 31.66215 843.79969L-180.469884356 1055.93172436C-167.135343356 1048.23104436 -151.680466356 1042.39986436 -136.643709356 1039.39656436Z"
           style="fill:#125441;fill-opacity:1" />
        <path
           id="path4499"
           d="M31.66215 843.79969C29.733819 844.91329 27.83495 846.03338 27.4434 846.28992L-184.688634356 1058.42195436C-184.297084356 1058.16541436 -182.398215356 1057.04532436 -180.469884356 1055.93172436Z"
           style="fill:#125441;fill-opacity:1" />
        <path
           id="path4501"
           d="M27.4434 846.28992C27.4159 846.30802 27.4009 846.31442 27.375 846.33092L-184.757034356 1058.46295436C-184.731134356 1058.44645436 -184.716134356 1058.44005436 -184.688634356 1058.42195436Z"
           style="fill:#125441;fill-opacity:1" />
        <path
           id="path4503"
           d="M3.0585994 950.37394L4.0039094 948.74304L-208.128124956 1160.87507436L-209.073434956 1162.50597436Z"
           style="fill:#125441;fill-opacity:1" />
        <path
           id="path4505"
           d="M4.0039094 948.74304C6.2788694 944.82364 11.16818 937.45694 14.13086 933.48134L-198.001174356 1145.61337436C-200.963854356 1149.58897436 -205.853164956 1156.95567436 -208.128124956 1160.87507436Z"
           style="fill:#125441;fill-opacity:1" />
        <path
           id="path4507"
           d="M14.13086 933.48134C18.7229473052 927.319265732 23.6266866009 921.629996656 28.8535583342 916.403124922L-183.278476022 1128.53515928C-188.505347755 1133.76203101 -193.409087051 1139.45130009 -198.001174356 1145.61337436Z"
           style="fill:#125441;fill-opacity:1" />
        <path
           id="path4509"
           d="M28.8535583342 916.403124922C37.2958687023 907.960814554 46.581163397 900.724801256 56.757817 894.65123L-155.374217356 1106.78326436C-165.550870959 1112.85683561 -174.836165654 1120.09284891 -183.278476022 1128.53515928Z"
           style="fill:#125441;fill-opacity:1" />
        <path
           id="path4511"
           d="M56.757817 894.65123C61.234528 891.97947 70.622704 887.38755 75.488285 885.48912L-136.643749356 1097.62115436C-141.509330356 1099.51958436 -150.897506356 1104.11150436 -155.374217356 1106.78326436Z"
           style="fill:#125441;fill-opacity:1" />
        <path
           id="path4513"
           d="M75.488285 885.48912C79.239998 884.02529 84.626741 882.15123 85.083988 882.15123L-127.048046356 1094.28326436C-127.505293356 1094.28326436 -132.892036356 1096.15732436 -136.643749356 1097.62115436Z"
           style="fill:#125441;fill-opacity:1" />
        <path
           id="path4515"
           d="M85.083988 882.15123C85.196159 882.15123 85.565545 883.66258 85.904301 885.5106L-126.227733356 1097.64263436C-126.566489356 1095.79461436 -126.935875356 1094.28326436 -127.048046356 1094.28326436Z"
           style="fill:#125441;fill-opacity:1" />
        <path
           id="path4517"
           d="M85.904301 885.5106C88.284801 898.49706 93.440078 913.85454 99.224613 925.18834L-112.907421356 1137.32037436C-118.691956356 1125.98657436 -123.847233356 1110.62909436 -126.227733356 1097.64263436Z"
           style="fill:#125441;fill-opacity:1" />
        <path
           id="path4519"
           d="M99.224613 925.18834C105.14184 936.78214 111.26545 945.26244 120.08593 954.08294L-92.046104356 1166.21497436C-100.866584356 1157.39447436 -106.990194356 1148.91417436 -112.907421356 1137.32037436Z"
           style="fill:#125441;fill-opacity:1" />
        <path
           id="path4521"
           d="M120.08593 954.08294C125.3079 959.30484 128.35037 961.90054 133.53906 965.56144L-78.592974356 1177.69347436C-83.781664356 1174.03257436 -86.824134356 1171.43687436 -92.046104356 1166.21497436Z"
           style="fill:#125441;fill-opacity:1" />
        <path
           id="path4523"
           d="M133.53906 965.56144C143.29079 972.44164 156.01401 978.21573 168.42578 981.39143L-43.706254356 1193.52346436C-56.118024356 1190.34776436 -68.841244356 1184.57367436 -78.592974356 1177.69347436Z"
           style="fill:#125441;fill-opacity:1" />
        <path
           id="path4525"
           d="M168.42578 981.39143C169.84129 981.75364 171.02922 982.06813 171.06445 982.08874L-41.067584356 1194.22077436C-41.102814356 1194.20016436 -42.290744356 1193.88567436 -43.706254356 1193.52346436Z"
           style="fill:#125441;fill-opacity:1" />
        <path
           id="path4527"
           d="M171.06445 982.08874C171.27464 982.21694 170.44898 989.56563 169.85937 992.81923L-42.272664356 1204.95126436C-41.683054356 1201.69766436 -40.857394356 1194.34897436 -41.067584356 1194.22077436Z"
           style="fill:#125441;fill-opacity:1" />
        <path
           id="path4529"
           d="M169.85937 992.81923C167.03426 1008.4084 158.2106 1029.1646 146.72851 1047.2333L-65.403524356 1259.36533436C-53.921434356 1241.29663436 -45.097774356 1220.54043436 -42.272664356 1204.95126436Z"
           style="fill:#125441;fill-opacity:1" />
        <path
           id="path4531"
           d="M146.72851 1047.2333C145.162006571 1049.69823724 144.40140474 1050.95082958 143.728122398 1051.62411192L-68.4039119577 1263.75614628C-67.7306296164 1263.08286394 -66.9700277852 1261.8302716 -65.403524356 1259.36533436Z"
           style="fill:#125441;fill-opacity:1" />
        <path
           id="path4533"
           d="M143.728122398 1051.62411192C143.651297217 1051.7009371 143.57560894 1051.77021964 143.49999 1051.8329L-68.632044356 1263.96493436C-68.5564254156 1263.90225399 -68.4807371389 1263.83297146 -68.4039119577 1263.75614628Z"
           style="fill:#125441;fill-opacity:1" />
        <path
           id="path4535"
           d="M217.85742 1015.8856C217.80882 1014.8525 217.7414 1012.697 217.67383 1009.618L5.54179564404 1221.75003436C5.60936564404 1224.82903436 5.67678564404 1226.98453436 5.72538564404 1228.01763436Z"
           style="fill:#125441;fill-opacity:1" />
        <path
           id="path4537"
           d="M217.67383 1009.618C217.47525 1000.5636 216.40134 991.54154 214.64062 984.15124L2.50858564404 1196.28327436C4.26930564404 1203.67357436 5.34321564404 1212.69563436 5.54179564404 1221.75003436Z"
           style="fill:#125441;fill-opacity:1" />
        <path
           id="path4539"
           d="M214.64062 984.15124L214.13281 982.02624L2.00077564404 1194.15827436L2.50858564404 1196.28327436Z"
           style="fill:#125441;fill-opacity:1" />
        <path
           id="path4541"
           d="M214.13281 982.02624L225.02343 981.90124L12.891395644 1194.03327436L2.00077564404 1194.15827436Z"
           style="fill:#125441;fill-opacity:1" />
        <path
           id="path4543"
           d="M225.02343 981.90124C231.01292 981.83224 237.55725 981.82924 239.5664 981.90124L27.434365644 1194.03327436C25.425215644 1193.96127436 18.880885644 1193.96427436 12.891395644 1194.03327436Z"
           style="fill:#125441;fill-opacity:1" />
        <path
           id="path4545"
           d="M239.5664 981.90124L242.60352 982.00473L30.471485644 1194.13676436L27.434365644 1194.03327436Z"
           style="fill:#125441;fill-opacity:1" />
        <path
           id="path4547"
           d="M255.64062 936.73323L254.10355 936.86983L41.971515644 1149.00186436L43.508585644 1148.86526436Z"
           style="fill:#125441;fill-opacity:1" />
        <path
           id="path4549"
           d="M254.10355 936.86983C243.79576 937.82793 234.13549 938.41403 225.04691 938.63163L12.914875644 1150.76366436C22.003455644 1150.54606436 31.663725644 1149.95996436 41.971515644 1149.00186436Z"
           style="fill:#125441;fill-opacity:1" />
        <path
           id="path4551"
           d="M225.04691 938.63163C221.58676 938.71463 217.72148 938.84283 216.45707 938.91674L4.32503564404 1151.04877436C5.58944564404 1150.97486436 9.45472564404 1150.84666436 12.914875644 1150.76366436Z"
           style="fill:#125441;fill-opacity:1" />
        <path
           id="path4553"
           d="M216.45707 938.91674L214.15824 939.05154L2.02620564404 1151.18357436L4.32503564404 1151.04877436Z"
           style="fill:#125441;fill-opacity:1" />
        <path
           id="path4555"
           d="M214.15824 939.05154L213.37113 933.11984L1.23909564404 1145.25187436L2.02620564404 1151.18357436Z"
           style="fill:#125441;fill-opacity:1" />
        <path
           id="path4557"
           d="M213.37113 933.11984C207.33273 887.53959 188.25559 854.69097 159.33402 840.07694L-52.798014356 1052.20897436C-23.876444356 1066.82300436 -4.79930435596 1099.67162436 1.23909564404 1145.25187436Z"
           style="fill:#125441;fill-opacity:1" />
        <path
           id="path4559"
           d="M159.33402 840.07694L157.10355 838.94999L-55.028484356 1051.08202436L-52.798014356 1052.20897436Z"
           style="fill:#125441;fill-opacity:1" />
        <path
           id="path4561"
           d="M157.10355 838.94999L157.70902 838.1746L-54.423014356 1050.30663436L-55.028484356 1051.08202436Z"
           style="fill:#125441;fill-opacity:1" />
        <path
           id="path4563"
           d="M157.70902 838.1746C158.04142 837.74746 160.00877 835.54926 162.08207 833.28983L-50.049964356 1045.42186436C-52.123264356 1047.68129436 -54.090614356 1049.87949436 -54.423014356 1050.30663436Z"
           style="fill:#125441;fill-opacity:1" />
        <path
           id="path4565"
           d="M162.08207 833.28983C163.395361595 831.858643231 164.801871803 830.394647331 166.274237785 828.922281349L-45.8577965713 1041.0543157C-47.3301625533 1042.52668169 -48.7366727607 1043.99067759 -50.049964356 1045.42186436Z"
           style="fill:#125441;fill-opacity:1" />
        <path
           id="path4567"
           d="M166.274237785 828.922281349C172.353207991 822.843311143 179.554771229 816.621662555 185.95316 811.97733L-26.178874356 1024.10936436C-32.5772631272 1028.75369691 -39.7788263654 1034.9753455 -45.8577965713 1041.0543157Z"
           style="fill:#125441;fill-opacity:1" />
        <path
           id="path4569"
           d="M185.95316 811.97733L187.05277 811.18046L-25.079264356 1023.31249436L-26.178874356 1024.10936436Z"
           style="fill:#125441;fill-opacity:1" />
        <path
           id="path4571"
           d="M128.94925 868.03788C129.46086 867.99348 130.58119 868.57368 133.01175 869.71757L-79.120284356 1081.84960436C-81.550844356 1080.70571436 -82.671174356 1080.12551436 -83.182784356 1080.16991436Z"
           style="fill:#125441;fill-opacity:1" />
        <path
           id="path4573"
           d="M133.01175 869.71757C145.51076 875.59989 158.00295 885.72765 166.86332 897.16287L-45.268714356 1109.29490436C-54.129084356 1097.85968436 -66.621274356 1087.73192436 -79.120284356 1081.84960436Z"
           style="fill:#125441;fill-opacity:1" />
        <path
           id="path4575"
           d="M166.86332 897.16287C173.04272 905.13803 178.25231 914.92498 181.63285 924.90314L-30.499184356 1137.03517436C-33.879724356 1127.05701436 -39.089314356 1117.27006436 -45.268714356 1109.29490436Z"
           style="fill:#125441;fill-opacity:1" />
        <path
           id="path4577"
           d="M181.63285 924.90314C182.8653 928.54084 185.15433 937.21504 185.15433 938.24884L-26.977704356 1150.38087436C-26.977704356 1149.34707436 -29.266734356 1140.67287436 -30.499184356 1137.03517436Z"
           style="fill:#125441;fill-opacity:1" />
        <path
           id="path4579"
           d="M185.15433 938.24884C185.15433 938.406433257 185.133943373 938.527036839 185.055820434 938.605159778L-27.0762139215 1150.73719413C-26.9980909825 1150.65907119 -26.977704356 1150.53846761 -26.977704356 1150.38087436Z"
           style="fill:#125441;fill-opacity:1" />
        <path
           id="path4581"
           d="M185.055820434 938.605159778C184.772609322 938.88837089 183.730624146 938.613298869 180.15043 937.51834L-31.981604356 1149.65037436C-28.4014102103 1150.74533322 -27.3594250343 1151.02040525 -27.0762139215 1150.73719413Z"
           style="fill:#125441;fill-opacity:1" />
        <path
           id="path4583"
           d="M180.15043 937.51834C169.04702 934.12254 161.04182 929.85164 152.94925 923.00664L-59.182784356 1135.13867436C-51.090214356 1141.98367436 -43.085014356 1146.25457436 -31.981604356 1149.65037436Z"
           style="fill:#125441;fill-opacity:1" />
        <path
           id="path4585"
           d="M152.94925 923.00664C143.18866 914.7507 135.57016 902.45795 131.54105 888.45975L-80.590984356 1100.59178436C-76.561874356 1114.58998436 -68.943374356 1126.88273436 -59.182784356 1135.13867436Z"
           style="fill:#125441;fill-opacity:1" />
        <path
           id="path4587"
           d="M131.54105 888.45975C129.86088 882.62236 128.53324 874.52153 128.53324 870.10624L-83.598794356 1082.23827436C-83.598794356 1086.65356436 -82.271154356 1094.75439436 -80.590984356 1100.59178436Z"
           style="fill:#125441;fill-opacity:1" />
        <path
           id="path4589"
           d="M128.53324 870.10624C128.53324 869.022414965 128.472064011 868.37743806 128.709480081 868.14002199L-83.4225542752 1080.27205635C-83.6599703445 1080.50947242 -83.598794356 1081.15444932 -83.598794356 1082.23827436Z"
           style="fill:#125441;fill-opacity:1" />
        <path
           id="path4591"
           d="M128.709480081 868.14002199C128.76885353 868.080648541 128.846901203 868.046764326 128.94925 868.03788L-83.182784356 1080.16991436C-83.2851331529 1080.17879868 -83.3631808264 1080.2126829 -83.4225542752 1080.27205635Z"
           style="fill:#125441;fill-opacity:1" />
      </g>
      <path
         style="fill:#125441;fill-opacity:1;stroke:none;stroke-width:34.83718872;stroke-miterlimit:4;stroke-dasharray:none;stroke-opacity:1"
         d="m 128.35941,796.89139 a 128,128 0 0 0 -12.32031,0.61524 l -2.26953,2.52929 c -6.23241,6.94535 -10.57886,14.15357 -13.43164,22.2754 l -0.82812,2.35937 -2.001952,0.004 c -4.812673,0.009 -15.233198,1.2344 -22.019533,2.58984 -15.036757,3.0033 -30.491634,8.83448 -43.826175,16.53516 -1.928331,1.1136 -3.8272,2.23369 -4.21875,2.49023 -0.0275,0.0181 -0.0425,0.0245 -0.0684,0.041 a 128,128 0 0 0 -27.01562062,78.56052 128,128 0 0 0 2.69922002,25.4825 l 0.94531,-1.6309 c 2.27496,-3.9194 7.1642706,-11.2861 10.1269506,-15.2617 12.00911,-16.1149 26.149651,-28.99622 42.626957,-38.83011 4.476711,-2.67176 13.864887,-7.26368 18.730468,-9.16211 3.751713,-1.46383 9.138456,-3.33789 9.595703,-3.33789 0.112171,0 0.481557,1.51135 0.820313,3.35937 2.3805,12.98646 7.535777,28.34394 13.320312,39.67774 5.917227,11.5938 12.040837,20.0741 20.861317,28.8946 5.22197,5.2219 8.26444,7.8176 13.45313,11.4785 9.75173,6.8802 22.47495,12.65429 34.88672,15.82999 1.41551,0.36221 2.60344,0.6767 2.63867,0.69731 0.21019,0.1282 -0.61547,7.47689 -1.20508,10.73049 -2.82511,15.58917 -11.64877,36.34537 -23.13086,54.41407 -1.74525,2.7462 -2.49019,3.9876 -3.22852,4.5996 a 128,128 0 0 0 74.35743,-35.9473 c -0.0486,-1.0331 -0.11602,-3.1886 -0.18359,-6.2676 -0.19858,-9.0544 -1.27249,-18.07646 -3.03321,-25.46676 l -0.50781,-2.125 10.89062,-0.125 c 5.98949,-0.069 12.53382,-0.072 14.54297,0 l 3.03712,0.10349 a 128,128 0 0 0 13.0371,-45.2715 l -1.53707,0.1366 c -10.30779,0.9581 -19.96806,1.5442 -29.05664,1.7618 -3.46015,0.083 -7.32543,0.2112 -8.58984,0.28511 l -2.29883,0.1348 -0.78711,-5.9317 c -6.0384,-45.58025 -25.11554,-78.42887 -54.03711,-93.0429 l -2.23047,-1.12695 0.60547,-0.77539 c 0.3324,-0.42714 2.29975,-2.62534 4.37305,-4.88477 6.73549,-7.34014 15.92297,-15.54328 23.87109,-21.3125 l 1.09961,-0.79687 a 128,128 0 0 0 -58.69336,-14.28907 z m 0.58984,71.14649 c 0.51161,-0.0444 1.63194,0.5358 4.0625,1.67969 12.49901,5.88232 24.9912,16.01008 33.85157,27.4453 6.1794,7.97516 11.38899,17.76211 14.76953,27.74027 1.23245,3.6377 3.52148,12.3119 3.52148,13.3457 0,0.7289 -0.43612,0.6665 -5.0039,-0.7305 -11.10341,-3.3958 -19.10861,-7.6667 -27.20118,-14.5117 -9.76059,-8.25594 -17.37909,-20.54869 -21.4082,-34.54689 -1.68017,-5.83739 -3.00781,-13.93822 -3.00781,-18.35351 0,-1.35487 -0.0956,-2.02395 0.41601,-2.06836 z"
         id="path4442"
         inkscape:connector-curvature="0" />
    </g>
    <path
       inkscape:connector-curvature="0"
       id="path4381"
       d="m 128.35941,796.89139 a 128,128 0 0 0 -12.32031,0.61524 l -2.26953,2.52929 c -6.23241,6.94535 -10.57886,14.15357 -13.43164,22.2754 l -0.82812,2.35937 -2.001952,0.004 c -4.812673,0.009 -15.233198,1.2344 -22.019533,2.58984 -15.036757,3.0033 -30.491634,8.83448 -43.826175,16.53516 -1.928331,1.1136 -3.8272,2.23369 -4.21875,2.49023 -0.0275,0.0181 -0.0425,0.0245 -0.0684,0.041 a 128,128 0 0 0 -27.01562062,78.56052 128,128 0 0 0 2.69922002,25.4825 l 0.94531,-1.6309 c 2.27496,-3.9194 7.1642706,-11.2861 10.1269506,-15.2617 12.00911,-16.1149 26.149651,-28.99622 42.626957,-38.83011 4.476711,-2.67176 13.864887,-7.26368 18.730468,-9.16211 3.751713,-1.46383 9.138456,-3.33789 9.595703,-3.33789 0.112171,0 0.481557,1.51135 0.820313,3.35937 2.3805,12.98646 7.535777,28.34394 13.320312,39.67774 5.917227,11.5938 12.040837,20.0741 20.861317,28.8946 5.22197,5.2219 8.26444,7.8176 13.45313,11.4785 9.75173,6.8802 22.47495,12.65429 34.88672,15.82999 1.41551,0.36221 2.60344,0.6767 2.63867,0.69731 0.21019,0.1282 -0.61547,7.47689 -1.20508,10.73049 -2.82511,15.58917 -11.64877,36.34537 -23.13086,54.41407 -1.74525,2.7462 -2.49019,3.9876 -3.22852,4.5996 a 128,128 0 0 0 74.35743,-35.9473 c -0.0486,-1.0331 -0.11602,-3.1886 -0.18359,-6.2676 -0.19858,-9.0544 -1.27249,-18.07646 -3.03321,-25.46676 l -0.50781,-2.125 10.89062,-0.125 c 5.98949,-0.069 12.53382,-0.072 14.54297,0 l 3.03712,0.10349 a 128,128 0 0 0 13.0371,-45.2715 l -1.53707,0.1366 c -10.30779,0.9581 -19.96806,1.5442 -29.05664,1.7618 -3.46015,0.083 -7.32543,0.2112 -8.58984,0.28511 l -2.29883,0.1348 -0.78711,-5.9317 c -6.0384,-45.58025 -25.11554,-78.42887 -54.03711,-93.0429 l -2.23047,-1.12695 0.60547,-0.77539 c 0.3324,-0.42714 2.29975,-2.62534 4.37305,-4.88477 6.73549,-7.34014 15.92297,-15.54328 23.87109,-21.3125 l 1.09961,-0.79687 a 128,128 0 0 0 -58.69336,-14.28907 z m 0.58984,71.14649 c 0.51161,-0.0444 1.63194,0.5358 4.0625,1.67969 12.49901,5.88232 24.9912,16.01008 33.85157,27.4453 6.1794,7.97516 11.38899,17.76211 14.76953,27.74027 1.23245,3.6377 3.52148,12.3119 3.52148,13.3457 0,0.7289 -0.43612,0.6665 -5.0039,-0.7305 -11.10341,-3.3958 -19.10861,-7.6667 -27.20118,-14.5117 -9.76059,-8.25594 -17.37909,-20.54869 -21.4082,-34.54689 -1.68017,-5.83739 -3.00781,-13.93822 -3.00781,-18.35351 0,-1.35487 -0.0956,-2.02395 0.41601,-2.06836 z"
       style="fill:#d0e5f6;fill-opacity:1;stroke:none;stroke-width:34.83718872;stroke-miterlimit:4;stroke-dasharray:none;stroke-opacity:1" />
  </g>
</svg>
