<?xml version="1.0" encoding="UTF-8" standalone="no"?>
<!-- Created with Inkscape (http://www.inkscape.org/) -->

<svg
   xmlns:dc="http://purl.org/dc/elements/1.1/"
   xmlns:cc="http://creativecommons.org/ns#"
   xmlns:rdf="http://www.w3.org/1999/02/22-rdf-syntax-ns#"
   xmlns:svg="http://www.w3.org/2000/svg"
   xmlns="http://www.w3.org/2000/svg"
   xmlns:sodipodi="http://sodipodi.sourceforge.net/DTD/sodipodi-0.dtd"
   xmlns:inkscape="http://www.inkscape.org/namespaces/inkscape"
   width="256"
   height="256"
   viewBox="0 0 256 256"
   id="svg4149"
   version="1.1"
   inkscape:version="0.92.0 r"
   sodipodi:docname="winemine.svg">
  <sodipodi:namedview
     id="base"
     pagecolor="#ffffff"
     bordercolor="#666666"
     borderopacity="1.0"
     inkscape:pageopacity="0.0"
     inkscape:pageshadow="2"
     inkscape:zoom="3.2851562"
     inkscape:cx="72.599286"
     inkscape:cy="127.99998"
     inkscape:document-units="px"
     inkscape:current-layer="layer1"
     showgrid="false"
     units="px"
     inkscape:window-width="1920"
     inkscape:window-height="1054"
     inkscape:window-x="0"
     inkscape:window-y="0"
     inkscape:window-maximized="1" />
  <defs
     id="defs4151">
    <clipPath
       clipPathUnits="userSpaceOnUse"
       id="clipPath4863">
      <circle
         style="fill:#e9e9e9;fill-opacity:1;stroke:none;stroke-width:20;stroke-miterlimit:4;stroke-dasharray:none;stroke-opacity:1"
         id="circle4865"
         cx="128"
         cy="924.36218"
         r="77.263145" />
    </clipPath>
    <clipPath
       id="clipPath4227"
       clipPathUnits="userSpaceOnUse">
      <circle
         style="fill:#e9e9e9;fill-opacity:1;stroke:none;stroke-width:20;stroke-miterlimit:4;stroke-dasharray:none;stroke-opacity:1"
         id="circle4229"
         cx="128"
         cy="924.36218"
         r="77.263145" />
    </clipPath>
    <clipPath
       clipPathUnits="userSpaceOnUse"
       id="clipPath5543">
      <circle
         style="fill:#9e9fe9;fill-opacity:1;stroke:none;stroke-width:20;stroke-miterlimit:4;stroke-dasharray:none;stroke-opacity:1"
         id="circle5545"
         cx="128"
         cy="924.36218"
         r="128" />
    </clipPath>
    <clipPath
       id="clipPath6248"
       clipPathUnits="userSpaceOnUse">
      <circle
         style="fill:#77c445;fill-opacity:1;stroke:none;stroke-width:20;stroke-miterlimit:4;stroke-dasharray:none;stroke-opacity:1"
         id="circle6250"
         cx="128"
         cy="924.36218"
         r="128" />
    </clipPath>
    <clipPath
       id="clipPath4624"
       clipPathUnits="userSpaceOnUse">
      <path
         inkscape:connector-curvature="0"
         id="path4626"
         d="m 151.20117,0.24318 -105.78125,0 c -7.804357,0 -14.087891,6.28158 -14.087891,14.08594 l 0,227.33994 c 0,7.8043 6.283534,14.0878 14.087891,14.0878 l 165.16211,0 c 7.80436,0 14.08594,-6.2835 14.08594,-14.0878 l 0,-154.82237 -73.4668,-86.60351 z"
         style="fill:#0f9d58;fill-opacity:1" />
    </clipPath>
    <clipPath
       id="clipPath6409"
       clipPathUnits="userSpaceOnUse">
      <circle
         style="fill:#77c445;fill-opacity:1;stroke:none;stroke-width:20;stroke-miterlimit:4;stroke-dasharray:none;stroke-opacity:1"
         id="circle6411"
         cx="128"
         cy="924.36218"
         r="128" />
    </clipPath>
    <clipPath
       clipPathUnits="userSpaceOnUse"
       id="clipPath4544">
      <circle
         style="fill:#0f9d97;fill-opacity:1;stroke:none;stroke-width:20;stroke-miterlimit:4;stroke-dasharray:none;stroke-opacity:1"
         id="circle4546"
         cx="128"
         cy="128.00002"
         r="128" />
    </clipPath>
    <clipPath
       clipPathUnits="userSpaceOnUse"
       id="clipPath1047">
      <circle
         r="128"
         cy="128.00002"
         cx="128"
         id="circle1049"
         style="fill:#990012;fill-opacity:1;stroke:none;stroke-width:20;stroke-miterlimit:4;stroke-dasharray:none;stroke-opacity:1" />
    </clipPath>
  </defs>
  <metadata
     id="metadata4154">
    <rdf:RDF>
      <cc:Work
         rdf:about="">
        <dc:format>image/svg+xml</dc:format>
        <dc:type
           rdf:resource="http://purl.org/dc/dcmitype/StillImage" />
        <dc:title />
      </cc:Work>
    </rdf:RDF>
  </metadata>
  <g
     transform="translate(0,-796.36216)"
     id="layer1"
     inkscape:groupmode="layer"
     inkscape:label="Layer 1">
    <circle
       r="128"
       cy="924.36218"
       cx="128"
       id="path4723"
       style="fill:#990012;fill-opacity:1;stroke:none;stroke-width:20;stroke-miterlimit:4;stroke-dasharray:none;stroke-opacity:1" />
    <g
       id="g1011"
       transform="translate(-47.046945,-49.562195)">
      <g
         clip-path="url(#clipPath1047)"
         id="g972"
         transform="translate(47.046945,845.92434)">
        <g
           style="fill:#53000a;fill-opacity:1;stroke-width:0.07556668"
           id="g969">
          <path
             d="m 203,52.771484 -0.16992,0.0078 -141.421356,141.421356 0.16992,-0.008 z"
             id="path875"
             inkscape:connector-curvature="0" />
          <path
             d="m 202.83008,52.779297 c -0.0935,0.0022 -18.38044,2.662079 -40.63672,5.912109 L 20.772004,200.11276 c 22.25628,-3.25003 40.5432,-5.90993 40.63672,-5.91211 z"
             id="path877"
             inkscape:connector-curvature="0" />
          <path
             d="m 162.19336,58.691406 -40.46484,5.910156 -141.421356,141.421358 40.46484,-5.91016 z"
             id="path879"
             inkscape:connector-curvature="0" />
          <path
             d="m 121.72852,64.601562 -0.0195,30.087891 -141.421356,141.421357 0.01954,-30.08789 z"
             id="path881"
             inkscape:connector-curvature="0" />
          <path
             d="m 121.70898,94.689453 -0.0195,30.083987 -141.421356,141.42136 0.01953,-30.08399 z"
             id="path883"
             inkscape:connector-curvature="0" />
          <path
             d="m 121.68945,124.77344 2.4375,-0.0352 -141.421356,141.42136 -2.4375,0.0352 z"
             id="path885"
             inkscape:connector-curvature="0" />
          <path
             d="m 124.12695,124.73828 c 1.34042,-0.0197 17.60413,-0.15154 36.14063,-0.29297 L 18.846224,265.86667 c -18.53650024,0.14143 -34.80021,0.27325 -36.14063,0.29297 z"
             id="path887"
             inkscape:connector-curvature="0" />
          <path
             d="m 160.26758,124.44531 c 18.53651,-0.14135 35.73349,-0.27884 38.2168,-0.30664 L 57.063024,265.56003 c -2.48331,0.0278 -19.68029,0.16529 -38.2168,0.30664 z"
             id="path889"
             inkscape:connector-curvature="0" />
          <path
             d="M 198.48438,124.13867 203,124.08789 61.578644,265.50925 l -4.51562,0.0508 z"
             id="path891"
             inkscape:connector-curvature="0" />
          <path
             d="M 203,124.08789 V 88.429688 L 61.578644,229.85104 v 35.65821 z"
             id="path893"
             inkscape:connector-curvature="0" />
          <path
             d="M 203,88.429688 V 52.771484 L 61.578644,194.19284 v 35.6582 z"
             id="path895"
             inkscape:connector-curvature="0" />
          <path
             d="m 114.26367,65.726562 c -0.0111,-0.01106 -13.80069,1.854085 -30.642576,4.146485 L -57.800262,211.2944 c 16.841886,-2.2924 30.631486,-4.15754 30.642576,-4.14648 z"
             id="path897"
             inkscape:connector-curvature="0" />
          <path
             d="M 83.621094,69.873047 53,74.041016 -88.421356,215.46237 -57.800262,211.2944 Z"
             id="path899"
             inkscape:connector-curvature="0" />
          <path
             d="M 53,74.041016 V 99.591797 L -88.421356,241.01315 v -25.55078 z"
             id="path901"
             inkscape:connector-curvature="0" />
          <path
             d="m 53,99.591797 c 0,14.051633 0.02419,25.571313 0.05273,25.601563 L -88.368622,266.61472 c -0.02855,-0.0302 -0.05273,-11.54993 -0.05273,-25.60157 z"
             id="path903"
             inkscape:connector-curvature="0" />
          <path
             d="m 53.052734,125.19336 c 0.02857,0.0291 1.686047,0.035 3.683594,0.0117 L -84.685028,266.62644 c -1.997547,0.0233 -3.65502,0.0174 -3.683594,-0.0117 z"
             id="path905"
             inkscape:connector-curvature="0" />
          <path
             d="m 56.736328,125.20508 c 1.997548,-0.0233 12.982643,-0.091 24.41211,-0.15039 L -60.272918,266.47605 c -11.429467,0.0594 -22.414562,0.12706 -24.41211,0.15039 z"
             id="path907"
             inkscape:connector-curvature="0" />
          <path
             d="m 81.148438,125.05469 c 11.429451,-0.0595 23.584422,-0.13111 27.009762,-0.15821 L -33.263156,266.31784 c -3.42534,0.0271 -15.580311,0.0987 -27.009762,0.15821 z"
             id="path909"
             inkscape:connector-curvature="0" />
          <path
             d="m 108.1582,124.89648 6.22657,-0.0508 -141.421356,141.42136 -6.22657,0.0508 z"
             id="path911"
             inkscape:connector-curvature="0" />
          <path
             d="m 114.38477,124.8457 -0.0508,-29.548825 -141.421356,141.421355 0.05079,29.54883 z"
             id="path913"
             inkscape:connector-curvature="0" />
          <path
             d="m 114.33398,95.296875 c -0.0279,-16.25264 -0.0587,-29.558712 -0.0703,-29.570313 L -27.157686,207.14792 c 0.0116,0.0116 0.04241,13.31767 0.07031,29.57031 z"
             id="path915"
             inkscape:connector-curvature="0" />
          <path
             d="m 53.037109,131.25 -0.01758,25.56445 -141.421356,141.42136 0.01758,-25.56445 z"
             id="path917"
             inkscape:connector-curvature="0" />
          <path
             d="m 53.019531,156.81445 c -0.01518,20.41102 -0.0013,25.56986 0.07422,25.59766 L -88.327606,323.83347 c -0.07549,-0.0278 -0.0894,-5.18664 -0.07422,-25.59766 z"
             id="path919"
             inkscape:connector-curvature="0" />
          <path
             d="m 53.09375,182.41211 c 0.05202,0.0193 13.764862,1.91689 30.472656,4.21875 L -57.85495,328.05222 c -16.707794,-2.30186 -30.420639,-4.19949 -30.472656,-4.21875 z"
             id="path921"
             inkscape:connector-curvature="0" />
          <path
             d="m 83.566406,186.63086 v -0.002 L -57.85495,328.05027 v 0.002 z"
             id="path923"
             inkscape:connector-curvature="0" />
          <path
             d="m 83.566406,186.62891 c 16.707794,2.30185 30.476514,4.18046 30.597654,4.19336 L -27.257296,332.24363 c -0.12114,-0.0129 -13.88986,-1.89151 -30.597654,-4.19336 z"
             id="path925"
             inkscape:connector-curvature="0" />
          <path
             d="m 114.16406,190.82227 0.22071,0.0137 -141.421356,141.42136 -0.22071,-0.0137 z"
             id="path927"
             inkscape:connector-curvature="0" />
          <path
             d="m 114.38477,190.83594 -0.0508,-8.78516 -141.421356,141.42136 0.05079,8.78516 z"
             id="path929"
             inkscape:connector-curvature="0" />
          <path
             d="m 114.33398,182.05078 c -0.0277,-4.83151 -0.0488,-18.14044 -0.0488,-29.57617 L -27.136196,293.89597 c 2e-5,11.43573 0.02112,24.74466 0.04882,29.57617 z"
             id="path931"
             inkscape:connector-curvature="0" />
          <path
             d="M 114.28516,152.47461 V 131.68164 L -27.136196,273.103 v 20.79297 z"
             id="path933"
             inkscape:connector-curvature="0" />
          <path
             d="m 114.28516,131.68164 -0.85157,-0.043 -141.421356,141.42136 0.85157,0.043 z"
             id="path935"
             inkscape:connector-curvature="0" />
          <path
             d="m 113.43359,131.63867 c -0.46756,-0.0235 -12.7849,-0.11171 -27.373043,-0.19531 L -55.360809,272.86472 c 14.588143,0.0836 26.905483,0.17184 27.373043,0.19531 z"
             id="path937"
             inkscape:connector-curvature="0" />
          <path
             d="M 86.060547,131.44336 C 71.472402,131.35962 58.07426,131.28308 56.287109,131.27148 L -85.134247,272.69284 c 1.787151,0.0116 15.185293,0.0881 29.773438,0.17188 z"
             id="path939"
             inkscape:connector-curvature="0" />
          <path
             d="m 56.287109,131.27148 -3.25,-0.0215 -141.421356,141.42136 3.25,0.0215 z"
             id="path941"
             inkscape:connector-curvature="0" />
          <path
             d="m 121.55078,132.04102 0.041,24.80664 -141.421356,141.42136 -0.04102,-24.80664 z"
             id="path943"
             inkscape:connector-curvature="0" />
          <path
             d="m 121.5918,156.84766 c 0.0218,13.64355 0.0613,27.08147 0.0879,29.86328 L -19.741666,328.1323 c -0.0266,-2.78181 -0.06609,-16.21973 -0.08789,-29.86328 z"
             id="path945"
             inkscape:connector-curvature="0" />
          <path
             d="m 121.67969,186.71094 0.0488,5.05859 -141.421356,141.42136 -0.04883,-5.05859 z"
             id="path947"
             inkscape:connector-curvature="0" />
          <path
             d="m 121.72852,191.76953 40.31445,5.68945 -141.421356,141.42136 -40.31445,-5.68945 z"
             id="path949"
             inkscape:connector-curvature="0" />
          <path
             d="m 162.04297,197.45898 c 22.17316,3.1288 40.38174,5.70175 40.46484,5.71875 L 61.086454,344.59909 c -0.0831,-0.017 -18.29168,-2.58995 -40.46484,-5.71875 z"
             id="path951"
             inkscape:connector-curvature="0" />
          <path
             d="m 202.50781,203.17773 0.002,-0.002 -141.421356,141.42136 -0.002,0.002 z"
             id="path953"
             inkscape:connector-curvature="0" />
          <path
             d="m 202.50977,203.17578 c 0.0831,0.017 0.22681,0.028 0.32031,0.041 L 61.408724,344.63816 c -0.0935,-0.013 -0.23718,-0.024 -0.32031,-0.041 z"
             id="path955"
             inkscape:connector-curvature="0" />
          <path
             d="M 202.83008,203.2168 203,203.22852 61.578644,344.64988 l -0.16992,-0.0117 z"
             id="path957"
             inkscape:connector-curvature="0" />
          <path
             d="M 203,203.22852 V 167.72266 L 61.578644,309.14402 v 35.50586 z"
             id="path959"
             inkscape:connector-curvature="0" />
          <path
             d="M 203,167.72266 V 132.21484 L 61.578644,273.6362 v 35.50782 z"
             id="path961"
             inkscape:connector-curvature="0" />
          <path
             d="m 203,132.21484 -18.83398,-0.0449 -141.421356,141.42136 18.83398,0.0449 z"
             id="path963"
             inkscape:connector-curvature="0" />
          <path
             d="m 184.16602,132.16992 c -10.35923,-0.025 -28.68554,-0.0654 -40.72461,-0.0879 L 2.0200538,273.50339 c 12.0390702,0.0225 30.3653802,0.0629 40.7246102,0.0879 z"
             id="path965"
             inkscape:connector-curvature="0" />
          <path
             d="m 143.44141,132.08203 -21.89063,-0.041 -141.421356,141.42136 21.8906298,0.041 z"
             id="path967"
             inkscape:connector-curvature="0" />
        </g>
        <path
           style="fill:#53000a;fill-opacity:1;stroke-width:0.07556668"
           d="m 203,52.771484 -0.16992,0.0078 c -0.0935,0.0022 -18.38044,2.662079 -40.63672,5.912109 l -40.46484,5.910156 -0.0195,30.087891 -0.0195,30.08399 2.4375,-0.0352 c 1.34042,-0.0197 17.60413,-0.15154 36.14063,-0.29297 18.53651,-0.14135 35.73349,-0.27884 38.2168,-0.30664 L 203,124.08789 V 88.429688 Z m -88.73633,12.955078 c -0.0111,-0.01106 -13.80069,1.854085 -30.642576,4.146485 L 53,74.041016 v 25.550781 c 0,14.051633 0.02419,25.571313 0.05273,25.601563 0.02857,0.0291 1.686047,0.035 3.683594,0.0117 1.997548,-0.0233 12.982643,-0.091 24.41211,-0.15039 11.429451,-0.0595 23.584426,-0.13111 27.009766,-0.15821 l 6.22657,-0.0508 -0.0508,-29.548825 c -0.0279,-16.25264 -0.0587,-29.558712 -0.0703,-29.570313 z M 53.037109,131.25 l -0.01758,25.56445 c -0.01518,20.41102 -0.0013,25.56986 0.07422,25.59766 0.05202,0.0193 13.764862,1.91689 30.472656,4.21875 v -0.002 c 16.707795,2.30185 30.476515,4.18046 30.597655,4.19336 l 0.22071,0.0137 -0.0508,-8.78516 c -0.0277,-4.83151 -0.0488,-18.14044 -0.0488,-29.57617 v -20.79297 l -0.85157,-0.043 c -0.46756,-0.0235 -12.7849,-0.11171 -27.373044,-0.19531 -14.588145,-0.0837 -27.986287,-0.16028 -29.773438,-0.17188 z m 68.513671,0.79102 0.041,24.80664 c 0.0218,13.64355 0.0613,27.08147 0.0879,29.86328 l 0.0488,5.05859 40.31445,5.68945 c 22.17316,3.1288 40.38174,5.70175 40.46484,5.71875 l 0.002,-0.002 c 0.0831,0.017 0.22681,0.028 0.32031,0.041 L 203,203.22852 v -35.50586 -35.50782 l -18.83398,-0.0449 c -10.35923,-0.025 -28.68554,-0.0654 -40.72461,-0.0879 z"
           id="path853"
           inkscape:connector-curvature="0" />
      </g>
      <path
         style="fill:#fffcfd;fill-opacity:1;stroke-width:0.07556668"
         d="m 249.55557,1049.1016 c -0.0831,-0.017 -18.2928,-2.5902 -40.46596,-5.719 l -40.31483,-5.6885 -0.0483,-5.0579 c -0.0266,-2.7818 -0.0664,-16.2208 -0.0882,-29.8643 l -0.0397,-24.80656 21.88921,0.0414 c 12.03907,0.0225 30.36497,0.0617 40.7242,0.0867 l 18.83501,0.0459 v 35.50696 35.5071 l -0.17003,-0.013 c -0.0935,-0.013 -0.23803,-0.024 -0.32116,-0.041 z M 130.6136,1032.556 c -16.70779,-2.3019 -30.42035,-4.2009 -30.47237,-4.2202 -0.0755,-0.028 -0.0908,-5.1867 -0.0756,-25.5977 l 0.019,-25.56279 3.24937,0.0203 c 1.78715,0.0116 15.18513,0.0889 29.77327,0.17264 14.58815,0.0836 26.90647,0.17129 27.37403,0.19476 l 0.85013,0.043 3e-5,20.79226 c 2e-5,11.43573 0.0226,24.74533 0.0503,29.57683 l 0.0503,8.7847 -0.2203,-0.013 c -0.12114,-0.013 -13.89032,-1.8927 -30.59812,-4.1945 z m -30.51475,-61.43704 c -0.0285,-0.0285 -0.052,-11.54961 -0.052,-25.60232 v -25.55036 l 30.62163,-4.168 c 16.84189,-2.2924 30.63069,-4.15892 30.64178,-4.14786 0.0116,0.0116 0.0431,13.31775 0.071,29.57039 l 0.0508,29.55016 -6.22791,0.0496 c -3.42534,0.0271 -15.57928,0.0981 -27.00873,0.15759 -11.42947,0.0594 -22.41521,0.12705 -24.41276,0.15038 -1.99755,0.0233 -3.65529,0.0188 -3.68387,-0.0103 z m 68.65695,-30.50507 0.0189,-30.08834 40.46596,-5.90911 c 22.25628,-3.25003 40.54246,-5.91094 40.63598,-5.91312 l 0.17003,-0.008 v 35.65826 35.65825 l -4.51511,0.0504 c -2.48331,0.0278 -19.68134,0.16602 -38.21785,0.30737 -18.5365,0.14143 -34.79945,0.27323 -36.13987,0.29295 l -2.43711,0.0361 z"
         id="path4487-3"
         inkscape:connector-curvature="0" />
    </g>
    <g
       id="g4195"
       transform="matrix(0.81805977,0,0,0.81805977,31.626683,168.44568)"
       style="fill:#1179de;fill-opacity:1">
      <circle
         r="50"
         cy="923.73773"
         cx="118.3082"
         id="circle4197"
         style="fill:#1179de;fill-opacity:1;stroke:none;stroke-width:30;stroke-miterlimit:4;stroke-dasharray:none;stroke-opacity:1" />
      <path
         transform="translate(-35.572687,-446.99477)"
         d="m 181.71895,1441.2718 -26.44567,-44.1455 -20.18559,47.2485 4.34163,-51.5133 -44.010491,26.7074 33.724341,-39.3358 -51.24402,-4.3092 50.20113,-11.6717 -38.650374,-33.9781 47.224424,20.2122 -10.59182,-50.2931 26.38857,43.6566 20.18452,-46.1635 -4.28452,50.943 43.55215,-25.9585 -33.53719,38.3356 50.47455,4.9395 -49.37456,11.5303 37.80638,33.832 -46.14891,-19.899 z"
         inkscape:randomized="0.007"
         inkscape:rounded="0"
         inkscape:flatsided="false"
         sodipodi:arg2="1.5044492"
         sodipodi:arg1="1.1902899"
         sodipodi:r2="26.479115"
         sodipodi:r1="75.65461"
         sodipodi:cy="1370.658"
         sodipodi:cx="153.75529"
         sodipodi:sides="10"
         id="path4199"
         style="fill:#1179de;fill-opacity:1;stroke:none;stroke-width:30;stroke-linejoin:round;stroke-miterlimit:4;stroke-dasharray:none;stroke-opacity:1"
         sodipodi:type="star" />
    </g>
  </g>
</svg>
