<?xml version="1.0" encoding="UTF-8" standalone="no"?>
<!-- Created with Inkscape (http://www.inkscape.org/) -->

<svg
   xmlns:dc="http://purl.org/dc/elements/1.1/"
   xmlns:cc="http://creativecommons.org/ns#"
   xmlns:rdf="http://www.w3.org/1999/02/22-rdf-syntax-ns#"
   xmlns:svg="http://www.w3.org/2000/svg"
   xmlns="http://www.w3.org/2000/svg"
   xmlns:xlink="http://www.w3.org/1999/xlink"
   xmlns:sodipodi="http://sodipodi.sourceforge.net/DTD/sodipodi-0.dtd"
   xmlns:inkscape="http://www.inkscape.org/namespaces/inkscape"
   width="256"
   height="256"
   viewBox="0 0 256 256"
   id="svg2"
   version="1.1"
   inkscape:version="0.92.2 (5c3e80d, 2017-08-06)"
   sodipodi:docname="wps-office-wpsmain.svg">
  <sodipodi:namedview
     id="base"
     pagecolor="#ffffff"
     bordercolor="#666666"
     borderopacity="1.0"
     inkscape:pageopacity="0.0"
     inkscape:pageshadow="2"
     inkscape:zoom="3.34375"
     inkscape:cx="64.598131"
     inkscape:cy="128"
     inkscape:document-units="px"
     inkscape:current-layer="layer1"
     showgrid="true"
     units="px"
     inkscape:window-width="1920"
     inkscape:window-height="1048"
     inkscape:window-x="0"
     inkscape:window-y="0"
     inkscape:window-maximized="1">
    <inkscape:grid
       spacingy="5"
       spacingx="5"
       id="grid4168"
       type="xygrid"
       snapvisiblegridlinesonly="false" />
  </sodipodi:namedview>
  <defs
     id="defs4">
    <clipPath
       id="clipPath5002"
       clipPathUnits="userSpaceOnUse">
      <g
         id="g5004">
        <path
           style="fill:#0f9d58;fill-opacity:1;stroke:none;stroke-width:4.85768509;stroke-linejoin:round;stroke-miterlimit:4;stroke-dasharray:none;stroke-opacity:1"
           d="M 88.118406,249.43519 C 46.103287,235.29134 14.771284,201.68742 4.1335861,159.36053 1.3377997,148.23623 0.92261224,144.16281 0.92582381,127.88908 0.92787958,117.47222 1.134384,112.01362 1.6577819,108.54099 4.4653598,89.913336 12.17654,70.638106 23.042737,55.086148 c 3.958678,-5.665755 8.344812,-10.93092 9.101533,-10.925587 0.32809,0.0023 10.488643,18.309713 22.579009,40.683112 12.090365,22.373397 22.374546,41.334697 22.853732,42.136217 0.479186,0.80151 0.924733,2.44098 0.990103,3.64326 0.343424,6.31639 2.524175,14.20976 5.6424,20.42304 2.954444,5.88693 5.065381,8.73258 10.434696,14.06652 6.71418,6.66995 12.88853,10.28643 21.73204,12.72904 3.16587,0.87442 5.10478,1.05037 11.57517,1.05037 8.82596,0 12.60219,-0.76201 19.26429,-3.88733 2.04584,-0.95974 3.93661,-1.66536 4.20172,-1.56805 0.2651,0.0973 -11.0555,17.66459 -25.1569,39.0384 l -25.6389,38.86148 -3.094121,0.11221 c -2.554618,0.0927 -4.195204,-0.25845 -9.409103,-2.01364 z"
           id="path5006"
           inkscape:connector-curvature="0"
           transform="translate(0,796.36216)" />
        <path
           style="fill:#f4b400;fill-opacity:1;stroke:none;stroke-width:4.85768509;stroke-linejoin:round;stroke-miterlimit:4;stroke-dasharray:none;stroke-opacity:1"
           d="m 112.35984,1051.5167 c -10.0014,-1.4495 -12.15632,-1.8201 -12.531784,-2.1556 -0.248854,-0.2223 1.738304,-3.7475 4.550294,-8.0722 7.16635,-11.0213 49.77231,-74.64801 50.25856,-75.05489 3.57509,-2.99158 8.63523,-8.0414 10.57512,-10.55356 3.36154,-4.35318 7.55784,-12.9141 9.06523,-18.494 6.19314,-22.92535 -2.59253,-47.15185 -21.69967,-59.83688 l -2.96081,-1.96565 17.02469,0.29584 c 9.36358,0.1627 31.17032,0.43384 48.45941,0.60252 l 31.43471,0.30668 1.54584,4.18869 c 2.24597,6.08579 4.67816,15.0947 5.93451,21.9816 1.52517,8.36049 1.92536,28.85896 0.73851,37.82758 -3.0805,23.27845 -12.81326,45.72018 -27.80202,64.10577 -20.47622,25.1166 -51.4599,42.1974 -84.14612,46.3885 -5.31244,0.6812 -26.64601,0.9864 -30.44647,0.4356 z"
           id="path5008"
           inkscape:connector-curvature="0" />
        <path
           style="fill:#db4437;fill-opacity:1;stroke:none;stroke-width:10;stroke-linejoin:round;stroke-miterlimit:4;stroke-dasharray:none;stroke-opacity:1"
           d="M 67.989788,108.87302 C 41.284246,59.575543 33.290284,45.149038 32.233625,44.344765 31.651257,43.901497 32.811213,42.549931 38.695603,36.815353 53.43581,22.450419 68.809334,13.040746 87.839196,6.7360352 101.68742,2.1480329 112.58238,0.43719165 127.95142,0.43719165 c 21.3099,0 37.80488,3.80960275 56.83492,13.12633035 25.29351,12.383198 46.19421,33.578863 58.51993,59.345832 1.61138,3.368591 2.92978,6.372442 2.92978,6.675231 0,0.560033 -10.54865,0.49527 -71.16508,-0.436914 l -24.28843,-0.373518 -3.93063,-1.764495 c -6.75732,-3.033425 -10.64587,-3.839529 -18.6576,-3.867747 -5.0296,-0.01773 -7.97946,0.207636 -10.31642,0.788106 -14.50826,3.603659 -26.283291,12.94777 -33.291614,26.418653 -3.58502,6.89086 -5.24713,13.08166 -6.331628,23.58317 l -0.33738,3.26696 -9.92748,-18.32578 z"
           id="path5010"
           inkscape:connector-curvature="0"
           transform="translate(0,796.36216)" />
      </g>
    </clipPath>
    <clipPath
       clipPathUnits="userSpaceOnUse"
       id="clipPath4271">
      <circle
         style="fill:#292929;fill-opacity:0.26020412;stroke:none;stroke-width:10;stroke-linejoin:round;stroke-miterlimit:4;stroke-dasharray:none;stroke-opacity:0.25882353"
         id="circle4273"
         cx="128"
         cy="128.00002"
         r="128" />
    </clipPath>
    <clipPath
       id="clipPath4363"
       clipPathUnits="userSpaceOnUse">
      <circle
         style="fill:#4285f4;fill-opacity:1;stroke:none;stroke-width:10;stroke-linejoin:round;stroke-miterlimit:4;stroke-dasharray:none;stroke-opacity:0.25882353"
         id="circle4365"
         cx="128"
         cy="924.36218"
         r="128" />
    </clipPath>
    <clipPath
       clipPathUnits="userSpaceOnUse"
       id="clipPath4452">
      <circle
         style="fill:#4285f4;fill-opacity:1;stroke:none;stroke-width:10;stroke-linejoin:round;stroke-miterlimit:4;stroke-dasharray:none;stroke-opacity:0.25882353"
         id="circle4454"
         cx="128"
         cy="924.36218"
         r="128" />
    </clipPath>
    <clipPath
       id="clipPath4954"
       clipPathUnits="userSpaceOnUse">
      <circle
         style="fill:#f16529;fill-opacity:1;stroke:none;stroke-width:10;stroke-linejoin:round;stroke-miterlimit:4;stroke-dasharray:none;stroke-opacity:0.25882353"
         id="circle4956"
         cx="128"
         cy="924.36218"
         r="128" />
    </clipPath>
    <clipPath
       clipPathUnits="userSpaceOnUse"
       id="clipPath5071">
      <circle
         style="fill:#0f9d58;fill-opacity:1;stroke:none;stroke-width:10;stroke-linejoin:round;stroke-miterlimit:4;stroke-dasharray:none;stroke-opacity:0.25882353"
         id="circle5073"
         cx="132.21979"
         cy="933.98254"
         r="99.306747" />
    </clipPath>
    <clipPath
       id="clipPath4232"
       clipPathUnits="userSpaceOnUse">
      <circle
         style="fill:#72a854;fill-opacity:1;stroke:none;stroke-width:10;stroke-linejoin:round;stroke-miterlimit:4;stroke-dasharray:none;stroke-opacity:0.25882353"
         id="circle4234"
         cx="128"
         cy="924.36218"
         r="128" />
    </clipPath>
    <radialGradient
       gradientTransform="matrix(0.9473764,-0.3327843,0.2051643,0.5840656,36.444325,878.82546)"
       gradientUnits="userSpaceOnUse"
       xlink:href="#linearGradient3601-0"
       id="radialGradient3787-5"
       fy="58.66795"
       fx="48.193913"
       r="33.906048"
       cy="58.66795"
       cx="48.193913" />
    <linearGradient
       id="linearGradient3601-0">
      <stop
         offset="0"
         style="stop-color:#b8d9f4;stop-opacity:1"
         id="stop3603-9" />
      <stop
         offset="1"
         style="stop-color:#ebf4fc;stop-opacity:1"
         id="stop3605-3" />
    </linearGradient>
    <radialGradient
       gradientTransform="matrix(0.8476225,-0.3415184,0.2499426,0.620338,43.631027,866.78283)"
       gradientUnits="userSpaceOnUse"
       xlink:href="#linearGradient3601-0"
       id="radialGradient3789-2"
       fy="38.667461"
       fx="48.241459"
       r="25.550245"
       cy="38.667461"
       cx="48.241459" />
    <clipPath
       clipPathUnits="userSpaceOnUse"
       id="clipPath4477">
      <circle
         style="fill:#0e85cd;fill-opacity:1;stroke:none;stroke-width:10;stroke-linejoin:round;stroke-miterlimit:4;stroke-dasharray:none;stroke-opacity:0.25882353"
         id="circle4479"
         cx="112.26152"
         cy="922.84924"
         r="128" />
    </clipPath>
    <clipPath
       id="clipPath4320"
       clipPathUnits="userSpaceOnUse">
      <circle
         style="fill:#52bfe8;fill-opacity:1;stroke:none;stroke-width:10;stroke-linejoin:round;stroke-miterlimit:4;stroke-dasharray:none;stroke-opacity:0.25882353"
         id="circle4322"
         cx="128"
         cy="924.36218"
         r="128" />
    </clipPath>
    <clipPath
       clipPathUnits="userSpaceOnUse"
       id="clipPath982">
      <circle
         style="fill:#52bfe8;fill-opacity:1;stroke:none;stroke-width:10;stroke-linejoin:round;stroke-miterlimit:4;stroke-dasharray:none;stroke-opacity:0.25882353"
         id="circle984"
         cx="128"
         cy="924.36218"
         r="128" />
    </clipPath>
  </defs>
  <metadata
     id="metadata7">
    <rdf:RDF>
      <cc:Work
         rdf:about="">
        <dc:format>image/svg+xml</dc:format>
        <dc:type
           rdf:resource="http://purl.org/dc/dcmitype/StillImage" />
        <dc:title />
      </cc:Work>
    </rdf:RDF>
  </metadata>
  <g
     inkscape:label="Layer 1"
     inkscape:groupmode="layer"
     id="layer1"
     transform="translate(0,-796.36216)">
    <path
       style="fill:none;fill-rule:evenodd;stroke:none;stroke-width:1px;stroke-linecap:butt;stroke-linejoin:miter;stroke-opacity:1"
       d="M 154.47438,968.80998 101.03985,1048.476 0.4857685,1048.9618 0,842.0244 l 33.032258,-2.42884 45.176471,83.55218 21.373814,35.4611 26.717267,13.11575 z"
       id="path4913"
       inkscape:connector-curvature="0" />
    <circle
       r="128"
       cy="924.36218"
       cx="128"
       id="path4152"
       style="fill:#52bfe8;fill-opacity:1;stroke:none;stroke-width:10;stroke-linejoin:round;stroke-miterlimit:4;stroke-dasharray:none;stroke-opacity:0.25882353" />
    <g
       id="g924"
       clip-path="url(#clipPath982)"
       style="fill:#1680a8;fill-opacity:1">
      <g
         id="g921"
         style="color:#000000;font-style:normal;font-variant:normal;font-weight:normal;font-stretch:normal;font-size:medium;line-height:normal;font-family:sans-serif;font-variant-ligatures:normal;font-variant-position:normal;font-variant-caps:normal;font-variant-numeric:normal;font-variant-alternates:normal;font-feature-settings:normal;text-indent:0;text-align:start;text-decoration:none;text-decoration-line:none;text-decoration-style:solid;text-decoration-color:#000000;letter-spacing:normal;word-spacing:normal;text-transform:none;writing-mode:lr-tb;direction:ltr;text-orientation:mixed;dominant-baseline:auto;baseline-shift:baseline;text-anchor:start;white-space:normal;shape-padding:0;clip-rule:nonzero;display:inline;overflow:visible;visibility:visible;opacity:1;isolation:auto;mix-blend-mode:normal;color-interpolation:sRGB;color-interpolation-filters:linearRGB;solid-color:#000000;solid-opacity:1;vector-effect:none;fill:#1680a8;fill-opacity:1;fill-rule:evenodd;stroke:none;stroke-width:14.54545498;stroke-linecap:butt;stroke-linejoin:round;stroke-miterlimit:4;stroke-dasharray:none;stroke-dashoffset:0;stroke-opacity:1;color-rendering:auto;image-rendering:auto;shape-rendering:auto;text-rendering:auto;enable-background:accumulate">
        <path
           id="path889"
           d="M197.47461 881.49414L139.29297 910.58398L-2.12838623731 1052.00533624L56.0532537627 1022.91549624Z"
           style="fill:#1680a8;fill-opacity:1" />
        <path
           id="path891"
           d="M139.29297 910.58398L145.79883 923.59375L4.37747376269 1065.01510624L-2.12838623731 1052.00533624Z"
           style="fill:#1680a8;fill-opacity:1" />
        <path
           id="path893"
           d="M145.79883 923.59375L193.45508 899.76562L52.0337237627 1041.18697624L4.37747376269 1065.01510624Z"
           style="fill:#1680a8;fill-opacity:1" />
        <path
           id="path895"
           d="M193.45508 899.76562L193.45508 948.95898L52.0337237627 1090.38033624L52.0337237627 1041.18697624Z"
           style="fill:#1680a8;fill-opacity:1" />
        <path
           id="path897"
           d="M193.45508 948.95898L131.25195 917.85742L-10.1694062373 1059.27877624L52.0337237627 1090.38033624Z"
           style="fill:#1680a8;fill-opacity:1" />
        <path
           id="path899"
           d="M124.74805 917.85742L62.544922 948.95898L-78.8764342373 1090.38033624L-16.6733062373 1059.27877624Z"
           style="fill:#1680a8;fill-opacity:1" />
        <path
           id="path901"
           d="M62.544922 948.95898L62.544922 899.76562L-78.8764342373 1041.18697624L-78.8764342373 1090.38033624Z"
           style="fill:#1680a8;fill-opacity:1" />
        <path
           id="path903"
           d="M62.544922 899.76562L109.44141 923.21289L-31.9799462373 1064.63424624L-78.8764342373 1041.18697624Z"
           style="fill:#1680a8;fill-opacity:1" />
        <path
           id="path905"
           d="M109.44141 923.21289L110.20117 923.59375L-31.2201862373 1065.01510624L-31.9799462373 1064.63424624Z"
           style="fill:#1680a8;fill-opacity:1" />
        <path
           id="path907"
           d="M110.20117 923.59375L116.70703 910.58398L-24.7143262373 1052.00533624L-31.2201862373 1065.01510624Z"
           style="fill:#1680a8;fill-opacity:1" />
        <path
           id="path909"
           d="M116.70703 910.58398L115.94531 910.20312L-25.4760462373 1051.62447624L-24.7143262373 1052.00533624Z"
           style="fill:#1680a8;fill-opacity:1" />
        <path
           id="path911"
           d="M115.94531 910.20312L58.525391 881.49414L-82.8959652373 1022.91549624L-25.4760462373 1051.62447624Z"
           style="fill:#1680a8;fill-opacity:1" />
        <path
           id="path913"
           d="M48.0 887.99805L48.0 960.72656L-93.4213562373 1102.14791624L-93.4213562373 1029.41940624Z"
           style="fill:#1680a8;fill-opacity:1" />
        <path
           id="path915"
           d="M58.525391 967.23047L128.0 932.49414L-13.4213562373 1073.91549624L-82.8959652373 1108.65182624Z"
           style="fill:#1680a8;fill-opacity:1" />
        <path
           id="path917"
           d="M128.0 932.49414L197.47461 967.23047L56.0532537627 1108.65182624L-13.4213562373 1073.91549624Z"
           style="fill:#1680a8;fill-opacity:1" />
        <path
           id="path919"
           d="M208.0 960.72656L208.0 887.99805L66.5786437627 1029.41940624L66.5786437627 1102.14791624Z"
           style="fill:#1680a8;fill-opacity:1" />
      </g>
      <path
         inkscape:connector-curvature="0"
         id="path852"
         d="m 200.51367,880.72852 a 7.2734548,7.2734548 0 0 0 -3.03906,0.76562 l -58.18164,29.08984 6.50586,13.00977 47.65625,-23.82813 v 49.19336 l -62.20313,-31.10156 a 7.2734548,7.2734548 0 0 0 -6.5039,0 l -62.203128,31.10156 v -49.19336 l 46.896488,23.44727 0.75976,0.38086 6.50586,-13.00977 -0.76172,-0.38086 -57.419919,-28.70898 A 7.2734548,7.2734548 0 0 0 48,887.99805 v 72.72851 a 7.2734548,7.2734548 0 0 0 10.525391,6.50391 L 128,932.49414 197.47461,967.23047 A 7.2734548,7.2734548 0 0 0 208,960.72656 v -72.72851 a 7.2734548,7.2734548 0 0 0 -7.48633,-7.26953 z"
         style="color:#000000;font-style:normal;font-variant:normal;font-weight:normal;font-stretch:normal;font-size:medium;line-height:normal;font-family:sans-serif;font-variant-ligatures:normal;font-variant-position:normal;font-variant-caps:normal;font-variant-numeric:normal;font-variant-alternates:normal;font-feature-settings:normal;text-indent:0;text-align:start;text-decoration:none;text-decoration-line:none;text-decoration-style:solid;text-decoration-color:#000000;letter-spacing:normal;word-spacing:normal;text-transform:none;writing-mode:lr-tb;direction:ltr;text-orientation:mixed;dominant-baseline:auto;baseline-shift:baseline;text-anchor:start;white-space:normal;shape-padding:0;clip-rule:nonzero;display:inline;overflow:visible;visibility:visible;opacity:1;isolation:auto;mix-blend-mode:normal;color-interpolation:sRGB;color-interpolation-filters:linearRGB;solid-color:#000000;solid-opacity:1;vector-effect:none;fill:#1680a8;fill-opacity:1;fill-rule:evenodd;stroke:none;stroke-width:14.54545498;stroke-linecap:butt;stroke-linejoin:round;stroke-miterlimit:4;stroke-dasharray:none;stroke-dashoffset:0;stroke-opacity:1;color-rendering:auto;image-rendering:auto;shape-rendering:auto;text-rendering:auto;enable-background:accumulate" />
    </g>
    <path
       style="fill:none;fill-rule:evenodd;stroke:#ffffff;stroke-width:14.54545498;stroke-linecap:butt;stroke-linejoin:round;stroke-miterlimit:4;stroke-dasharray:none;stroke-opacity:1"
       d="m 142.54545,917.08943 58.18182,-29.09091 0,72.72727 L 128,924.36216 l -72.727272,36.36363 0,-72.72727 57.420562,28.71028 0.76126,0.38063"
       id="path4219"
       inkscape:connector-curvature="0"
       sodipodi:nodetypes="cccccccc" />
  </g>
</svg>
