<?xml version="1.0" encoding="UTF-8" standalone="no"?>
<!-- Created with Inkscape (http://www.inkscape.org/) -->

<svg
   xmlns:dc="http://purl.org/dc/elements/1.1/"
   xmlns:cc="http://creativecommons.org/ns#"
   xmlns:rdf="http://www.w3.org/1999/02/22-rdf-syntax-ns#"
   xmlns:svg="http://www.w3.org/2000/svg"
   xmlns="http://www.w3.org/2000/svg"
   xmlns:sodipodi="http://sodipodi.sourceforge.net/DTD/sodipodi-0.dtd"
   xmlns:inkscape="http://www.inkscape.org/namespaces/inkscape"
   sodipodi:docname="xboard.svg"
   inkscape:version="0.92.0 r"
   version="1.1"
   id="svg2"
   viewBox="0 0 256 256"
   height="256"
   width="256">
  <sodipodi:namedview
     inkscape:window-maximized="1"
     inkscape:window-y="0"
     inkscape:window-x="0"
     inkscape:window-height="1054"
     inkscape:window-width="1920"
     units="px"
     showgrid="true"
     inkscape:current-layer="layer1"
     inkscape:document-units="px"
     inkscape:cy="128"
     inkscape:cx="128"
     inkscape:zoom="3.3359375"
     inkscape:pageshadow="2"
     inkscape:pageopacity="0.0"
     borderopacity="1.0"
     bordercolor="#666666"
     pagecolor="#ffffff"
     id="base">
    <inkscape:grid
       type="xygrid"
       id="grid4168"
       spacingx="5"
       spacingy="5" />
  </sodipodi:namedview>
  <defs
     id="defs4">
    <clipPath
       clipPathUnits="userSpaceOnUse"
       id="clipPath5002">
      <g
         id="g5004">
        <path
           transform="translate(0,796.36216)"
           inkscape:connector-curvature="0"
           id="path5006"
           d="M 88.118406,249.43519 C 46.103287,235.29134 14.771284,201.68742 4.1335861,159.36053 1.3377997,148.23623 0.92261224,144.16281 0.92582381,127.88908 0.92787958,117.47222 1.134384,112.01362 1.6577819,108.54099 4.4653598,89.913336 12.17654,70.638106 23.042737,55.086148 c 3.958678,-5.665755 8.344812,-10.93092 9.101533,-10.925587 0.32809,0.0023 10.488643,18.309713 22.579009,40.683112 12.090365,22.373397 22.374546,41.334697 22.853732,42.136217 0.479186,0.80151 0.924733,2.44098 0.990103,3.64326 0.343424,6.31639 2.524175,14.20976 5.6424,20.42304 2.954444,5.88693 5.065381,8.73258 10.434696,14.06652 6.71418,6.66995 12.88853,10.28643 21.73204,12.72904 3.16587,0.87442 5.10478,1.05037 11.57517,1.05037 8.82596,0 12.60219,-0.76201 19.26429,-3.88733 2.04584,-0.95974 3.93661,-1.66536 4.20172,-1.56805 0.2651,0.0973 -11.0555,17.66459 -25.1569,39.0384 l -25.6389,38.86148 -3.094121,0.11221 c -2.554618,0.0927 -4.195204,-0.25845 -9.409103,-2.01364 z"
           style="fill:#0f9d58;fill-opacity:1;stroke:none;stroke-width:4.85768509;stroke-linejoin:round;stroke-miterlimit:4;stroke-dasharray:none;stroke-opacity:1" />
        <path
           inkscape:connector-curvature="0"
           id="path5008"
           d="m 112.35984,1051.5167 c -10.0014,-1.4495 -12.15632,-1.8201 -12.531784,-2.1556 -0.248854,-0.2223 1.738304,-3.7475 4.550294,-8.0722 7.16635,-11.0213 49.77231,-74.64801 50.25856,-75.05489 3.57509,-2.99158 8.63523,-8.0414 10.57512,-10.55356 3.36154,-4.35318 7.55784,-12.9141 9.06523,-18.494 6.19314,-22.92535 -2.59253,-47.15185 -21.69967,-59.83688 l -2.96081,-1.96565 17.02469,0.29584 c 9.36358,0.1627 31.17032,0.43384 48.45941,0.60252 l 31.43471,0.30668 1.54584,4.18869 c 2.24597,6.08579 4.67816,15.0947 5.93451,21.9816 1.52517,8.36049 1.92536,28.85896 0.73851,37.82758 -3.0805,23.27845 -12.81326,45.72018 -27.80202,64.10577 -20.47622,25.1166 -51.4599,42.1974 -84.14612,46.3885 -5.31244,0.6812 -26.64601,0.9864 -30.44647,0.4356 z"
           style="fill:#f4b400;fill-opacity:1;stroke:none;stroke-width:4.85768509;stroke-linejoin:round;stroke-miterlimit:4;stroke-dasharray:none;stroke-opacity:1" />
        <path
           transform="translate(0,796.36216)"
           inkscape:connector-curvature="0"
           id="path5010"
           d="M 67.989788,108.87302 C 41.284246,59.575543 33.290284,45.149038 32.233625,44.344765 31.651257,43.901497 32.811213,42.549931 38.695603,36.815353 53.43581,22.450419 68.809334,13.040746 87.839196,6.7360352 101.68742,2.1480329 112.58238,0.43719165 127.95142,0.43719165 c 21.3099,0 37.80488,3.80960275 56.83492,13.12633035 25.29351,12.383198 46.19421,33.578863 58.51993,59.345832 1.61138,3.368591 2.92978,6.372442 2.92978,6.675231 0,0.560033 -10.54865,0.49527 -71.16508,-0.436914 l -24.28843,-0.373518 -3.93063,-1.764495 c -6.75732,-3.033425 -10.64587,-3.839529 -18.6576,-3.867747 -5.0296,-0.01773 -7.97946,0.207636 -10.31642,0.788106 -14.50826,3.603659 -26.283291,12.94777 -33.291614,26.418653 -3.58502,6.89086 -5.24713,13.08166 -6.331628,23.58317 l -0.33738,3.26696 -9.92748,-18.32578 z"
           style="fill:#db4437;fill-opacity:1;stroke:none;stroke-width:10;stroke-linejoin:round;stroke-miterlimit:4;stroke-dasharray:none;stroke-opacity:1" />
      </g>
    </clipPath>
    <clipPath
       id="clipPath4271"
       clipPathUnits="userSpaceOnUse">
      <circle
         r="128"
         cy="128.00002"
         cx="128"
         id="circle4273"
         style="fill:#292929;fill-opacity:0.26020412;stroke:none;stroke-width:10;stroke-linejoin:round;stroke-miterlimit:4;stroke-dasharray:none;stroke-opacity:0.25882353" />
    </clipPath>
    <clipPath
       clipPathUnits="userSpaceOnUse"
       id="clipPath4363">
      <circle
         r="128"
         cy="924.36218"
         cx="128"
         id="circle4365"
         style="fill:#4285f4;fill-opacity:1;stroke:none;stroke-width:10;stroke-linejoin:round;stroke-miterlimit:4;stroke-dasharray:none;stroke-opacity:0.25882353" />
    </clipPath>
    <clipPath
       id="clipPath4452"
       clipPathUnits="userSpaceOnUse">
      <circle
         r="128"
         cy="924.36218"
         cx="128"
         id="circle4454"
         style="fill:#4285f4;fill-opacity:1;stroke:none;stroke-width:10;stroke-linejoin:round;stroke-miterlimit:4;stroke-dasharray:none;stroke-opacity:0.25882353" />
    </clipPath>
    <clipPath
       clipPathUnits="userSpaceOnUse"
       id="clipPath5177">
      <circle
         r="128"
         cy="924.36218"
         cx="128"
         id="circle5179"
         style="fill:#4285f4;fill-opacity:1;stroke:none;stroke-width:10;stroke-linejoin:round;stroke-miterlimit:4;stroke-dasharray:none;stroke-opacity:0.25882353" />
    </clipPath>
    <clipPath
       id="clipPath4342"
       clipPathUnits="userSpaceOnUse">
      <circle
         r="128"
         cy="933.48718"
         cx="128"
         id="circle4344"
         style="fill:#4285f4;fill-opacity:1;stroke:none;stroke-width:10;stroke-linejoin:round;stroke-miterlimit:4;stroke-dasharray:none;stroke-opacity:0.25882353" />
    </clipPath>
    <clipPath
       clipPathUnits="userSpaceOnUse"
       id="clipPath4681">
      <circle
         r="128"
         cy="930.43964"
         cx="127.00293"
         id="circle4683"
         style="fill:#9d5fad;fill-opacity:1;stroke:none;stroke-width:10;stroke-linejoin:round;stroke-miterlimit:4;stroke-dasharray:none;stroke-opacity:0.25882353" />
    </clipPath>
    <clipPath
       clipPathUnits="userSpaceOnUse"
       id="clipPath4893">
      <circle
         r="128"
         cy="924.36218"
         cx="128"
         id="circle4895"
         style="opacity:1;fill:#0f9d58;fill-opacity:1;stroke:none;stroke-width:0.1;stroke-linecap:round;stroke-linejoin:round;stroke-miterlimit:4;stroke-dasharray:none;stroke-opacity:1" />
    </clipPath>
    <clipPath
       clipPathUnits="userSpaceOnUse"
       id="clipPath4780">
      <circle
         r="128"
         cy="924.36218"
         cx="128"
         id="circle4782"
         style="opacity:1;fill:#0f9d58;fill-opacity:1;stroke:none;stroke-width:0.1;stroke-linecap:round;stroke-linejoin:round;stroke-miterlimit:4;stroke-dasharray:none;stroke-opacity:1" />
    </clipPath>
    <clipPath
       id="clipPath4306"
       clipPathUnits="userSpaceOnUse">
      <circle
         r="128"
         cy="917.04791"
         cx="130.92572"
         id="circle4308"
         style="opacity:1;fill:#0f9d58;fill-opacity:1;stroke:none;stroke-width:0.1;stroke-linecap:round;stroke-linejoin:round;stroke-miterlimit:4;stroke-dasharray:none;stroke-opacity:1" />
    </clipPath>
    <clipPath
       id="clipPath4204"
       clipPathUnits="userSpaceOnUse">
      <circle
         r="128"
         cy="924.36218"
         cx="128"
         id="circle4206"
         style="opacity:1;fill:#0f9d58;fill-opacity:1;stroke:none;stroke-width:0.1;stroke-linecap:round;stroke-linejoin:round;stroke-miterlimit:4;stroke-dasharray:none;stroke-opacity:1" />
    </clipPath>
    <clipPath
       clipPathUnits="userSpaceOnUse"
       id="clipPath5576">
      <circle
         r="128"
         cy="918.63556"
         cx="125.90217"
         id="circle5578"
         style="opacity:1;fill:#0f9d58;fill-opacity:1;stroke:none;stroke-width:0.1;stroke-linecap:round;stroke-linejoin:round;stroke-miterlimit:4;stroke-dasharray:none;stroke-opacity:1" />
    </clipPath>
    <clipPath
       id="clipPath5828"
       clipPathUnits="userSpaceOnUse">
      <circle
         r="105.66147"
         cy="918.6355"
         cx="125.90217"
         id="circle5830"
         style="opacity:1;fill:#e0e0e0;fill-opacity:1;stroke:none;stroke-width:0.1;stroke-linecap:round;stroke-linejoin:round;stroke-miterlimit:4;stroke-dasharray:none;stroke-opacity:1" />
    </clipPath>
    <clipPath
       clipPathUnits="userSpaceOnUse"
       id="clipPath1151">
      <circle
         r="128"
         cy="885.97839"
         cx="-163.90063"
         id="circle1153"
         style="opacity:1;fill:#f2cc9d;fill-opacity:1;stroke:none;stroke-width:0.1;stroke-linecap:round;stroke-linejoin:round;stroke-miterlimit:4;stroke-dasharray:none;stroke-opacity:1" />
    </clipPath>
  </defs>
  <metadata
     id="metadata7">
    <rdf:RDF>
      <cc:Work
         rdf:about="">
        <dc:format>image/svg+xml</dc:format>
        <dc:type
           rdf:resource="http://purl.org/dc/dcmitype/StillImage" />
        <dc:title />
      </cc:Work>
    </rdf:RDF>
  </metadata>
  <g
     transform="translate(0,-796.36216)"
     id="layer1"
     inkscape:groupmode="layer"
     inkscape:label="Layer 1">
    <text
       id="text4914"
       y="927.36218"
       x="120"
       style="font-style:normal;font-weight:normal;font-size:40px;line-height:125%;font-family:sans-serif;letter-spacing:0px;word-spacing:0px;fill:#000000;fill-opacity:1;stroke:none;stroke-width:1px;stroke-linecap:butt;stroke-linejoin:miter;stroke-opacity:1"
       xml:space="preserve"><tspan
         y="927.36218"
         x="120"
         id="tspan4916"
         sodipodi:role="line" /></text>
    <circle
       style="opacity:1;fill:#eaac60;fill-opacity:1;stroke:none;stroke-width:0.1;stroke-linecap:round;stroke-linejoin:round;stroke-miterlimit:4;stroke-dasharray:none;stroke-opacity:1"
       id="path4856"
       cx="128"
       cy="924.36218"
       r="128" />
    <g
       id="g953"
       transform="translate(291.90063,38.38377)"
       clip-path="url(#clipPath1151)"
       style="fill:#c27619;fill-opacity:1">
      <g
         id="g951"
         style="fill:#c27619;fill-opacity:1">
        <path
           style="opacity:1;fill:#c27619;fill-opacity:1;stroke:none;stroke-width:15;stroke-miterlimit:4;stroke-dasharray:none;stroke-opacity:1"
           d="m -157.75586,31.105469 c -1.51721,0.03578 -3.02304,0.204854 -4.50976,0.523437 3.39822,6.79645 10.19566,5.662327 15.85937,9.060547 7.9292,2.26549 13.59217,9.062843 19.25586,14.726563 16.99114,21.5221 24.91992,55.503664 24.91992,82.689454 0,10.19468 -2.26476,26.05469 11.328126,26.05469 0,-37.38049 -3.398039,-80.425739 -28.318356,-111.009769 -8.21238,-10.265484 -23.86877,-22.39078 -38.53516,-22.044922 z"
           transform="translate(0,796.36216)"
           id="path939"
           inkscape:connector-curvature="0" />
        <path
           style="opacity:1;fill:#c27619;fill-opacity:1;stroke:none;stroke-width:15;stroke-miterlimit:4;stroke-dasharray:none;stroke-opacity:1"
           d="m -186.48438,32.851562 c -4.42978,-0.109411 -10.96735,1.997196 -12.02929,7.837891 2.26547,0 5.66423,-8.2e-5 7.92969,-1.132812 11.43362,-3.610614 9.12003,-6.581079 4.0996,-6.705079 z"
           transform="translate(0,796.36216)"
           id="path941"
           inkscape:connector-curvature="0" />
        <path
           style="opacity:1;fill:#c27619;fill-opacity:1;stroke:none;stroke-width:15;stroke-miterlimit:4;stroke-dasharray:none;stroke-opacity:1"
           d="m -193.41211,48.273438 c -8.96524,-0.209536 -16.21521,8.098979 -14.16211,17.33789 l 2.26367,-5.664062 c 6.79646,1.13274 10.19523,-2.26603 9.0625,-9.0625 l 5.66407,-1.132813 v -1.132812 c -0.95575,-0.212392 -1.90069,-0.324027 -2.82813,-0.345703 z"
           transform="translate(0,796.36216)"
           id="path943"
           inkscape:connector-curvature="0" />
        <path
           style="opacity:1;fill:#c27619;fill-opacity:1;stroke:none;stroke-width:15;stroke-miterlimit:4;stroke-dasharray:none;stroke-opacity:1"
           d="M -154.33594,73.539062 C -158.86691,75.804543 -160,81.46903 -160,86 h 2.26562 z"
           transform="translate(0,796.36216)"
           id="path945"
           inkscape:connector-curvature="0" />
        <path
           style="opacity:1;fill:#c27619;fill-opacity:1;stroke:none;stroke-width:15;stroke-miterlimit:4;stroke-dasharray:none;stroke-opacity:1"
           d="m -227.96484,100.72656 c -5.66371,0 -6.79655,11.3261 -1.13282,10.19336 5.6637,-1.13274 7.92926,-10.19336 1.13282,-10.19336 z"
           transform="translate(0,796.36216)"
           id="path947"
           inkscape:connector-curvature="0" />
        <path
           style="opacity:1;fill:#c27619;fill-opacity:1;stroke:none;stroke-width:15;stroke-miterlimit:4;stroke-dasharray:none;stroke-opacity:1"
           d="m -215.50391,112.05273 -5.66406,10.19532 3.39844,1.13281 3.39844,-11.32813 z"
           transform="translate(0,796.36216)"
           id="path949"
           inkscape:connector-curvature="0" />
      </g>
      <g
         id="g1062"
         transform="translate(0,796.36216)"
         style="fill:#c27619;fill-opacity:1">
        <g
           id="g1059"
           style="opacity:1;fill:#c27619;fill-opacity:1;stroke:none;stroke-width:15;stroke-miterlimit:4;stroke-dasharray:none;stroke-opacity:1">
          <path
             id="path1007"
             d="M-170.70312 8.9121094C-164.38588 8.7481517 -162.08827 22.637347 -156.60156 24.832031L-298.022916237 166.253387237C-303.509626237 164.058703237 -305.807236237 150.169507937 -312.124476237 150.333465637Z"
             style="fill:#c27619;fill-opacity:1" />
          <path
             id="path1009"
             d="M-156.60156 24.832031C-147.53963 28.230261 -138.47799 28.230831 -129.41602 33.894531L-270.837376237 175.315887237C-279.899346237 169.652187237 -288.960986237 169.651617237 -298.022916237 166.253387237Z"
             style="fill:#c27619;fill-opacity:1" />
          <path
             id="path1011"
             d="M-129.41602 33.894531C-101.0975 52.018411 -92.034876 87.132767 -87.503906 117.7168L-228.925262237 259.138156237C-233.456232237 228.554123237 -242.518856237 193.439767237 -270.837376237 175.315887237Z"
             style="fill:#c27619;fill-opacity:1" />
          <path
             id="path1013"
             d="M-87.503906 117.7168C-85.238416 130.17696 -84.105469 142.6375 -84.105469 155.09766L-225.526825237 296.519016237C-225.526825237 284.058856237 -226.659772237 271.598316237 -228.925262237 259.138156237Z"
             style="fill:#c27619;fill-opacity:1" />
          <path
             id="path1015"
             d="M-84.105469 155.09766C-84.105469 158.49589 -83.187201 165.09541 -85.238281 167.55664L-226.659637237 308.977996237C-224.608557237 306.516766237 -225.526825237 299.917246237 -225.526825237 296.519016237Z"
             style="fill:#c27619;fill-opacity:1" />
          <path
             id="path1017"
             d="M-85.238281 167.55664C-85.3065139244 167.638519585 -85.3793999835 167.718119803 -85.4567776279 167.795497447L-226.878133865 309.216853685C-226.800756221 309.13947604 -226.727870162 309.059875822 -226.659637237 308.977996237Z"
             style="fill:#c27619;fill-opacity:1" />
          <path
             id="path1019"
             d="M-85.4567776279 167.795497447C-89.4911713405 171.82989116 -105.735833094 169.82227 -111.29297 169.82227L-252.714326237 311.243626237C-247.157189331 311.243626237 -230.912527578 313.251247397 -226.878133865 309.216853685Z"
             style="fill:#c27619;fill-opacity:1" />
          <path
             id="path1021"
             d="M-111.29297 169.82227L-179.25586 169.82227L-320.677216237 311.243626237L-252.714326237 311.243626237Z"
             style="fill:#c27619;fill-opacity:1" />
          <path
             id="path1023"
             d="M-179.25586 169.82227C-194.75529 169.82227 -201.70337 173.10301 -199.64648 160.76172L-341.067836237 302.183076237C-343.124726237 314.524366237 -336.176646237 311.243626237 -320.677216237 311.243626237Z"
             style="fill:#c27619;fill-opacity:1" />
          <path
             id="path1025"
             d="M-199.64648 160.76172C-194.89873 132.27529 -161.13274 119.98254 -160.0 90.53125L-301.421356237 231.952606237C-302.554096237 261.403896237 -336.320086237 273.696646237 -341.067836237 302.183076237Z"
             style="fill:#c27619;fill-opacity:1" />
          <path
             id="path1027"
             d="M-160.0 90.53125C-170.19466 98.46043 -182.65487 101.85792 -191.7168 109.78711L-333.138156237 251.208466237C-324.076226237 243.279276237 -311.616016237 239.881786237 -301.421356237 231.952606237Z"
             style="fill:#c27619;fill-opacity:1" />
          <path
             id="path1029"
             d="M-191.7168 109.78711C-192.346115227 110.311540128 -192.965712363 110.884541679 -193.577391124 111.49622044L-334.998747361 252.917576677C-334.3870686 252.305897916 -333.767471465 251.732896365 -333.138156237 251.208466237Z"
             style="fill:#c27619;fill-opacity:1" />
          <path
             id="path1031"
             d="M-193.577391124 111.49622044C-198.555654599 116.474483915 -203.009418652 124.014658693 -207.90889731 128.782846635L-349.330253548 270.204202873C-344.43077489 265.43601493 -339.977010836 257.895840152 -334.998747361 252.917576677Z"
             style="fill:#c27619;fill-opacity:1" />
          <path
             id="path1033"
             d="M-207.90889731 128.782846635C-208.908836854 129.755990925 -209.927341811 130.613673258 -210.97266 131.31055L-352.394016237 272.731906237C-351.348698048 272.035029495 -350.330193092 271.177347162 -349.330253548 270.204202873Z"
             style="fill:#c27619;fill-opacity:1" />
          <path
             id="path1035"
             d="M-210.97266 131.31055C-215.50363 133.57603 -220.0353 131.31026 -222.30078 126.7793L-363.722136237 268.200656237C-361.456656237 272.731616237 -356.924986237 274.997386237 -352.394016237 272.731906237Z"
             style="fill:#c27619;fill-opacity:1" />
          <path
             id="path1037"
             d="M-222.30078 126.7793C-233.62819 130.17752 -244.95503 122.24726 -243.82227 109.78711L-385.243626237 251.208466237C-386.376386237 263.668616237 -375.049546237 271.598876237 -363.722136237 268.200656237Z"
             style="fill:#c27619;fill-opacity:1" />
          <path
             id="path1039"
             d="M-243.82227 109.78711C-242.68954 95.061449 -232.49566 83.733628 -225.69922 71.273438L-367.120576237 212.694794237C-373.917016237 225.154984237 -384.110896237 236.482805237 -385.243626237 251.208466237Z"
             style="fill:#c27619;fill-opacity:1" />
          <path
             id="path1041"
             d="M-225.69922 71.273438C-221.16825 63.344277 -222.30057 55.415518 -218.90234 47.486328L-360.323696237 188.907684237C-363.721926237 196.836874237 -362.589606237 204.765633237 -367.120576237 212.694794237Z"
             style="fill:#c27619;fill-opacity:1" />
          <path
             id="path1043"
             d="M-218.90234 47.486328C-216.63687 41.822598 -210.97252 38.425419 -208.70703 32.761719L-350.128386237 174.183075237C-352.393876237 179.846775237 -358.058226237 183.243954237 -360.323696237 188.907684237Z"
             style="fill:#c27619;fill-opacity:1" />
          <path
             id="path1045"
             d="M-208.70703 32.761719C-205.395879029 28.3468412949 -212.839037667 15.3271145696 -207.983213908 10.4712908109L-349.404570146 151.892647048C-354.260393904 156.748470807 -346.817235266 169.768197532 -350.128386237 174.183075237Z"
             style="fill:#c27619;fill-opacity:1" />
          <path
             id="path1047"
             d="M-207.983213908 10.4712908109C-207.855526629 10.3436035313 -207.719335048 10.2215612949 -207.57422 10.105469L-348.995576237 151.526825237C-349.140691286 151.642917532 -349.276882866 151.764959769 -349.404570146 151.892647048Z"
             style="fill:#c27619;fill-opacity:1" />
          <path
             id="path1049"
             d="M-207.57422 10.105469C-201.91051 5.5745087 -188.31822 21.433874 -186.05273 25.964844L-327.474086237 167.386200237C-329.739576237 162.855230237 -343.331866237 146.995864937 -348.995576237 151.526825237Z"
             style="fill:#c27619;fill-opacity:1" />
          <path
             id="path1051"
             d="M-186.05273 25.964844C-185.744751119 25.7338605192 -185.436776905 25.4610038824 -185.128450991 25.1526779686L-326.549807229 166.574034206C-326.858133142 166.88236012 -327.166107357 167.155216757 -327.474086237 167.386200237Z"
             style="fill:#c27619;fill-opacity:1" />
          <path
             id="path1053"
             d="M-185.128450991 25.1526779686C-181.855486656 21.879713633 -178.542891393 14.6099271263 -174.764390186 11.0034613382L-316.185746424 152.424817575C-319.96424763 156.031283364 -323.276842893 163.30106987 -326.549807229 166.574034206Z"
             style="fill:#c27619;fill-opacity:1" />
          <path
             id="path1055"
             d="M-174.764390186 11.0034613382C-173.662141842 9.95139843621 -172.520245794 9.21107710703 -171.32812 8.9726562L-312.749476237 150.394012437C-313.941602031 150.632433344 -315.083498079 151.372754674 -316.185746424 152.424817575Z"
             style="fill:#c27619;fill-opacity:1" />
          <path
             id="path1057"
             d="M-171.32812 8.9726562C-171.11574 8.9372582 -170.90691 8.9173982 -170.70312 8.9121092L-312.124476237 150.333465437C-312.328266237 150.338754437 -312.537096237 150.358614437 -312.749476237 150.394012437Z"
             style="fill:#c27619;fill-opacity:1" />
        </g>
        <path
           transform=""
           id="path937"
           d="m -170.70312,8.9121094 c 6.31724,-0.1639577 8.61485,13.7252376 14.10156,15.9199216 9.06193,3.39823 18.12357,3.3988 27.18554,9.0625 28.31852,18.12388 37.381144,53.238236 41.912114,83.822269 2.26549,12.46016 3.398437,24.9207 3.398437,37.38086 0,3.39823 0.918268,9.99775 -1.132812,12.45898 -3.62583,4.351 -20.390969,2.26563 -26.054689,2.26563 h -67.96289 c -15.49943,0 -22.44751,3.28074 -20.39062,-9.06055 4.74775,-28.48643 38.51374,-40.77918 39.64648,-70.23047 -10.19466,7.92918 -22.65487,11.32667 -31.7168,19.25586 -6.79643,5.6637 -12.4594,16.99248 -19.25586,21.52344 -4.53097,2.26548 -9.06264,-2.9e-4 -11.32812,-4.53125 -11.32741,3.39822 -22.65425,-4.53204 -21.52149,-16.99219 1.13273,-14.725661 11.32661,-26.053482 18.12305,-38.513672 4.53097,-7.929161 3.39865,-15.85792 6.79688,-23.78711 2.26547,-5.66373 7.92982,-9.060909 10.19531,-14.724609 3.39822,-4.53097 -4.53089,-18.12528 1.13281,-22.65625 5.66371,-4.5309603 19.256,11.328405 21.52149,15.859375 4.53096,-3.39821 9.06091,-15.859468 14.72461,-16.9921878 0.21238,-0.035398 0.42121,-0.055258 0.625,-0.060547 z"
           style="opacity:1;fill:#c27619;fill-opacity:1;stroke:none;stroke-width:15;stroke-miterlimit:4;stroke-dasharray:none;stroke-opacity:1"
           inkscape:connector-curvature="0" />
      </g>
    </g>
    <path
       style="opacity:1;fill:#ffffff;fill-opacity:1;stroke:none;stroke-width:15;stroke-miterlimit:4;stroke-dasharray:none;stroke-opacity:1"
       d="M 121.19727 47.294922 L 121.19727 47.296875 C 120.99348 47.302075 120.78465 47.320069 120.57227 47.355469 C 114.90857 48.488189 110.37862 60.949446 105.84766 64.347656 C 103.58217 59.816686 89.989882 43.957321 84.326172 48.488281 C 78.662472 53.019251 86.591579 66.613561 83.193359 71.144531 C 80.927869 76.808231 75.263517 80.205411 72.998047 85.869141 C 69.599817 93.798331 70.732142 101.72709 66.201172 109.65625 C 59.404732 122.11644 49.210855 133.44426 48.078125 148.16992 C 46.945365 160.63007 58.272199 168.56033 69.599609 165.16211 C 71.865089 169.69307 76.396764 171.95884 80.927734 169.69336 C 87.724194 165.1624 93.387184 153.83362 100.18359 148.16992 C 109.24552 140.24073 121.70573 136.84324 131.90039 128.91406 C 130.76765 158.36535 97.001656 170.6581 92.253906 199.14453 C 90.197016 211.48578 97.145106 208.20508 112.64453 208.20508 L 180.60742 208.20508 C 186.27114 208.20508 203.03628 210.29241 206.66211 205.94141 C 208.71319 203.48015 207.79492 196.8787 207.79492 193.48047 C 207.79492 181.02031 206.66197 168.55977 204.39648 156.09961 C 199.86551 125.51558 190.8029 90.401224 162.48438 72.277344 C 153.4224 66.613644 144.36076 66.613074 135.29883 63.214844 C 129.81212 61.020164 127.51451 47.130962 121.19727 47.294922 z M 134.14453 69.488281 C 148.81092 69.142421 164.46731 81.267723 172.67969 91.533203 C 197.60001 122.11723 200.99805 165.16248 200.99805 202.54297 C 187.40516 202.54297 189.66992 186.68296 189.66992 176.48828 C 189.66992 149.30249 181.74114 115.32093 164.75 93.798828 C 159.08631 88.135108 153.42334 81.337756 145.49414 79.072266 C 139.83043 75.674046 133.03299 76.808169 129.63477 70.011719 C 131.12149 69.693129 132.62732 69.524081 134.14453 69.488281 z M 105.41602 71.234375 C 110.43645 71.358375 112.75003 74.328843 101.31641 77.939453 C 99.05093 79.072183 95.652189 79.072266 93.386719 79.072266 C 94.448659 73.231576 100.98624 71.124965 105.41602 71.234375 z M 98.488281 86.65625 C 99.415721 86.67792 100.36066 86.789563 101.31641 87.001953 L 101.31641 88.134766 L 95.652344 89.267578 C 96.785074 96.064048 93.386304 99.462818 86.589844 98.330078 L 84.326172 103.99414 C 82.273072 94.755234 89.523041 86.44671 98.488281 86.65625 z M 137.56445 111.92188 L 134.16602 124.38281 L 131.90039 124.38281 C 131.90039 119.85184 133.03348 114.18736 137.56445 111.92188 z M 63.935547 139.10938 C 70.731987 139.10938 68.466434 148.16999 62.802734 149.30273 C 57.139004 150.43547 58.271837 139.10938 63.935547 139.10938 z M 76.396484 150.43555 L 77.529297 150.43555 L 74.130859 161.76367 L 70.732422 160.63086 L 76.396484 150.43555 z "
       transform="translate(0,796.36216)"
       id="path915" />
  </g>
</svg>
