<?xml version="1.0" encoding="UTF-8" standalone="no"?>
<!-- Created with Inkscape (http://www.inkscape.org/) -->

<svg
   xmlns:dc="http://purl.org/dc/elements/1.1/"
   xmlns:cc="http://creativecommons.org/ns#"
   xmlns:rdf="http://www.w3.org/1999/02/22-rdf-syntax-ns#"
   xmlns:svg="http://www.w3.org/2000/svg"
   xmlns="http://www.w3.org/2000/svg"
   xmlns:sodipodi="http://sodipodi.sourceforge.net/DTD/sodipodi-0.dtd"
   xmlns:inkscape="http://www.inkscape.org/namespaces/inkscape"
   sodipodi:docname="xdiagnose.svg"
   inkscape:version="0.91 r13725"
   version="1.1"
   id="svg2"
   viewBox="0 0 256 256"
   height="256"
   width="256">
  <sodipodi:namedview
     inkscape:window-maximized="1"
     inkscape:window-y="0"
     inkscape:window-x="0"
     inkscape:window-height="1033"
     inkscape:window-width="1920"
     units="px"
     showgrid="true"
     inkscape:current-layer="layer1"
     inkscape:document-units="px"
     inkscape:cy="128"
     inkscape:cx="76.55648"
     inkscape:zoom="3.2851562"
     inkscape:pageshadow="2"
     inkscape:pageopacity="0.0"
     borderopacity="1.0"
     bordercolor="#666666"
     pagecolor="#ffffff"
     id="base">
    <inkscape:grid
       spacingy="5"
       spacingx="5"
       id="grid4168"
       type="xygrid" />
  </sodipodi:namedview>
  <defs
     id="defs4">
    <clipPath
       id="clipPath5002"
       clipPathUnits="userSpaceOnUse">
      <g
         id="g5004">
        <path
           style="fill:#0f9d58;fill-opacity:1;stroke:none;stroke-width:4.85768509;stroke-linejoin:round;stroke-miterlimit:4;stroke-dasharray:none;stroke-opacity:1"
           d="M 88.118406,249.43519 C 46.103287,235.29134 14.771284,201.68742 4.1335861,159.36053 1.3377997,148.23623 0.92261224,144.16281 0.92582381,127.88908 0.92787958,117.47222 1.134384,112.01362 1.6577819,108.54099 4.4653598,89.913336 12.17654,70.638106 23.042737,55.086148 c 3.958678,-5.665755 8.344812,-10.93092 9.101533,-10.925587 0.32809,0.0023 10.488643,18.309713 22.579009,40.683112 12.090365,22.373397 22.374546,41.334697 22.853732,42.136217 0.479186,0.80151 0.924733,2.44098 0.990103,3.64326 0.343424,6.31639 2.524175,14.20976 5.6424,20.42304 2.954444,5.88693 5.065381,8.73258 10.434696,14.06652 6.71418,6.66995 12.88853,10.28643 21.73204,12.72904 3.16587,0.87442 5.10478,1.05037 11.57517,1.05037 8.82596,0 12.60219,-0.76201 19.26429,-3.88733 2.04584,-0.95974 3.93661,-1.66536 4.20172,-1.56805 0.2651,0.0973 -11.0555,17.66459 -25.1569,39.0384 l -25.6389,38.86148 -3.094121,0.11221 c -2.554618,0.0927 -4.195204,-0.25845 -9.409103,-2.01364 z"
           id="path5006"
           inkscape:connector-curvature="0"
           transform="translate(0,796.36216)" />
        <path
           style="fill:#f4b400;fill-opacity:1;stroke:none;stroke-width:4.85768509;stroke-linejoin:round;stroke-miterlimit:4;stroke-dasharray:none;stroke-opacity:1"
           d="m 112.35984,1051.5167 c -10.0014,-1.4495 -12.15632,-1.8201 -12.531784,-2.1556 -0.248854,-0.2223 1.738304,-3.7475 4.550294,-8.0722 7.16635,-11.0213 49.77231,-74.64801 50.25856,-75.05489 3.57509,-2.99158 8.63523,-8.0414 10.57512,-10.55356 3.36154,-4.35318 7.55784,-12.9141 9.06523,-18.494 6.19314,-22.92535 -2.59253,-47.15185 -21.69967,-59.83688 l -2.96081,-1.96565 17.02469,0.29584 c 9.36358,0.1627 31.17032,0.43384 48.45941,0.60252 l 31.43471,0.30668 1.54584,4.18869 c 2.24597,6.08579 4.67816,15.0947 5.93451,21.9816 1.52517,8.36049 1.92536,28.85896 0.73851,37.82758 -3.0805,23.27845 -12.81326,45.72018 -27.80202,64.10577 -20.47622,25.1166 -51.4599,42.1974 -84.14612,46.3885 -5.31244,0.6812 -26.64601,0.9864 -30.44647,0.4356 z"
           id="path5008"
           inkscape:connector-curvature="0" />
        <path
           style="fill:#db4437;fill-opacity:1;stroke:none;stroke-width:10;stroke-linejoin:round;stroke-miterlimit:4;stroke-dasharray:none;stroke-opacity:1"
           d="M 67.989788,108.87302 C 41.284246,59.575543 33.290284,45.149038 32.233625,44.344765 31.651257,43.901497 32.811213,42.549931 38.695603,36.815353 53.43581,22.450419 68.809334,13.040746 87.839196,6.7360352 101.68742,2.1480329 112.58238,0.43719165 127.95142,0.43719165 c 21.3099,0 37.80488,3.80960275 56.83492,13.12633035 25.29351,12.383198 46.19421,33.578863 58.51993,59.345832 1.61138,3.368591 2.92978,6.372442 2.92978,6.675231 0,0.560033 -10.54865,0.49527 -71.16508,-0.436914 l -24.28843,-0.373518 -3.93063,-1.764495 c -6.75732,-3.033425 -10.64587,-3.839529 -18.6576,-3.867747 -5.0296,-0.01773 -7.97946,0.207636 -10.31642,0.788106 -14.50826,3.603659 -26.283291,12.94777 -33.291614,26.418653 -3.58502,6.89086 -5.24713,13.08166 -6.331628,23.58317 l -0.33738,3.26696 -9.92748,-18.32578 z"
           id="path5010"
           inkscape:connector-curvature="0"
           transform="translate(0,796.36216)" />
      </g>
    </clipPath>
    <clipPath
       clipPathUnits="userSpaceOnUse"
       id="clipPath4271">
      <circle
         style="fill:#292929;fill-opacity:0.26020412;stroke:none;stroke-width:10;stroke-linejoin:round;stroke-miterlimit:4;stroke-dasharray:none;stroke-opacity:0.25882353"
         id="circle4273"
         cx="128"
         cy="128.00002"
         r="128" />
    </clipPath>
    <clipPath
       id="clipPath4363"
       clipPathUnits="userSpaceOnUse">
      <circle
         style="fill:#4285f4;fill-opacity:1;stroke:none;stroke-width:10;stroke-linejoin:round;stroke-miterlimit:4;stroke-dasharray:none;stroke-opacity:0.25882353"
         id="circle4365"
         cx="128"
         cy="924.36218"
         r="128" />
    </clipPath>
    <clipPath
       clipPathUnits="userSpaceOnUse"
       id="clipPath4452">
      <circle
         style="fill:#4285f4;fill-opacity:1;stroke:none;stroke-width:10;stroke-linejoin:round;stroke-miterlimit:4;stroke-dasharray:none;stroke-opacity:0.25882353"
         id="circle4454"
         cx="128"
         cy="924.36218"
         r="128" />
    </clipPath>
    <clipPath
       id="clipPath5177"
       clipPathUnits="userSpaceOnUse">
      <circle
         style="fill:#4285f4;fill-opacity:1;stroke:none;stroke-width:10;stroke-linejoin:round;stroke-miterlimit:4;stroke-dasharray:none;stroke-opacity:0.25882353"
         id="circle5179"
         cx="128"
         cy="924.36218"
         r="128" />
    </clipPath>
    <clipPath
       clipPathUnits="userSpaceOnUse"
       id="clipPath4342">
      <circle
         style="fill:#4285f4;fill-opacity:1;stroke:none;stroke-width:10;stroke-linejoin:round;stroke-miterlimit:4;stroke-dasharray:none;stroke-opacity:0.25882353"
         id="circle4344"
         cx="128"
         cy="933.48718"
         r="128" />
    </clipPath>
    <clipPath
       id="clipPath4677"
       clipPathUnits="userSpaceOnUse">
      <circle
         style="fill:#7c9fc8;fill-opacity:1;stroke:none;stroke-width:10;stroke-linejoin:round;stroke-miterlimit:4;stroke-dasharray:none;stroke-opacity:0.25882353"
         id="circle4679"
         cx="119.54858"
         cy="928.36218"
         r="128" />
    </clipPath>
    <clipPath
       clipPathUnits="userSpaceOnUse"
       id="clipPath4660">
      <circle
         style="fill:#dd4814;fill-opacity:1;stroke:none;stroke-width:10;stroke-linejoin:round;stroke-miterlimit:4;stroke-dasharray:none;stroke-opacity:0.25882353"
         id="circle4662"
         cx="128"
         cy="924.36218"
         r="128" />
    </clipPath>
  </defs>
  <metadata
     id="metadata7">
    <rdf:RDF>
      <cc:Work
         rdf:about="">
        <dc:format>image/svg+xml</dc:format>
        <dc:type
           rdf:resource="http://purl.org/dc/dcmitype/StillImage" />
        <dc:title />
      </cc:Work>
    </rdf:RDF>
  </metadata>
  <g
     inkscape:label="Layer 1"
     inkscape:groupmode="layer"
     id="layer1"
     transform="translate(0,-796.36216)">
    <circle
       r="128"
       cy="924.36218"
       cx="128"
       id="path4152"
       style="fill:#dd4814;fill-opacity:1;stroke:none;stroke-width:10;stroke-linejoin:round;stroke-miterlimit:4;stroke-dasharray:none;stroke-opacity:0.25882353" />
    <text
       xml:space="preserve"
       style="font-style:normal;font-weight:normal;font-size:40px;line-height:125%;font-family:sans-serif;letter-spacing:0px;word-spacing:0px;fill:#000000;fill-opacity:1;stroke:none;stroke-width:1px;stroke-linecap:butt;stroke-linejoin:miter;stroke-opacity:1"
       x="120"
       y="927.36218"
       id="text4914"
       sodipodi:linespacing="125%"><tspan
         sodipodi:role="line"
         id="tspan4916"
         x="120"
         y="927.36218" /></text>
    <g
       id="g4379"
       clip-path="url(#clipPath4660)"
       style="fill:#842b0c;fill-opacity:1;stroke:#842b0c;stroke-opacity:1">
      <g
         id="g4381"
         style="fill:#842b0c;fill-opacity:1;stroke:#842b0c;stroke-opacity:1">
        <path
           id="path4383"
           d="M120.74615 847.64611C119.449093468 847.645110057 118.873285228 848.044354771 117.61054458 849.307095418L-23.8108116574 990.728451656C-22.5480710095 989.465711008 -21.9722627692 989.066466294 -20.6752062373 989.067466237Z"
           style="fill:#842b0c;fill-opacity:1;stroke:#842b0c;stroke-opacity:1" />
        <path
           id="path4385"
           d="M117.61054458 849.307095418C117.610473055 849.307166943 117.610401529 849.30723847 117.61033 849.30731L-23.8110262373 990.728666237C-23.8109547085 990.728594707 -23.8108831818 990.72852318 -23.8108116574 990.728451656Z"
           style="fill:#842b0c;fill-opacity:1;stroke:#842b0c;stroke-opacity:1" />
        <path
           id="path4387"
           d="M117.61033 849.30731C117.610326935 849.307313065 117.610323871 849.307316129 117.610320806 849.307319194L-23.8110354312 990.728675431C-23.8110323666 990.728672367 -23.8110293019 990.728669302 -23.8110262373 990.728666237Z"
           style="fill:#842b0c;fill-opacity:1;stroke:#842b0c;stroke-opacity:1" />
        <path
           id="path4389"
           d="M117.610320806 849.307319194C115.11748958 851.80015042 114.946712828 856.038032828 117.24675 858.33806L-24.1746062373 999.759416237C-26.4746434097 997.459389065 -26.3038666572 993.221506657 -23.8110354312 990.728675431Z"
           style="fill:#842b0c;fill-opacity:1;stroke:#842b0c;stroke-opacity:1" />
        <path
           id="path4391"
           d="M117.24675 858.33806C119.171564432 860.262874432 123.992655489 860.481234302 125.71442845 858.759461341L-15.7069277873 1000.18081758C-17.4287007479 1001.90259054 -22.2497918052 1001.68423067 -24.1746062373 999.759416237Z"
           style="fill:#842b0c;fill-opacity:1;stroke:#842b0c;stroke-opacity:1" />
        <path
           id="path4393"
           d="M125.71442845 858.759461341C125.743129431 858.73076036 125.770969205 858.701520273 125.79792 858.67174L-15.6234362373 1000.09309624C-15.6503870322 1000.12287651 -15.6782268059 1000.1521166 -15.7069277873 1000.18081758Z"
           style="fill:#842b0c;fill-opacity:1;stroke:#842b0c;stroke-opacity:1" />
        <path
           id="path4395"
           d="M125.79792 858.67174C125.830046311 858.636240772 125.862685595 858.601905545 125.895854396 858.568736744L-15.5255018414 999.990092982C-15.5586706425 1000.02326178 -15.5913099259 1000.05759701 -15.6234362373 1000.09309624Z"
           style="fill:#842b0c;fill-opacity:1;stroke:#842b0c;stroke-opacity:1" />
        <path
           id="path4397"
           d="M125.895854396 858.568736744C127.090639986 857.373951154 128.972495334 857.692647729 132.31475 859.63808L-9.10660623731 1001.05943624C-12.4488609033 999.114003966 -14.3307162509 998.795307391 -15.5255018414 999.990092982Z"
           style="fill:#842b0c;fill-opacity:1;stroke:#842b0c;stroke-opacity:1" />
        <path
           id="path4399"
           d="M132.31475 859.63808C134.20566 860.73872 134.23552 860.82667 133.88147 864.28322L-7.53988623731 1005.70457624C-7.18583623731 1002.24802624 -7.21569623731 1002.16007624 -9.10660623731 1001.05943624Z"
           style="fill:#842b0c;fill-opacity:1;stroke:#842b0c;stroke-opacity:1" />
        <path
           id="path4401"
           d="M133.88147 864.28322C132.81502 874.69502 126.99384 895.93337 121.93614 907.86789L-19.4852162373 1049.28924624C-14.4275162373 1037.35472624 -8.60633623731 1016.11637624 -7.53988623731 1005.70457624Z"
           style="fill:#842b0c;fill-opacity:1;stroke:#842b0c;stroke-opacity:1" />
        <path
           id="path4403"
           d="M121.93614 907.86789C118.325089027 916.388784787 113.508746038 924.090737763 109.847255507 927.752228293L-31.5741007302 1069.17358453C-27.9126101998 1065.512094 -23.0962672103 1057.81014102 -19.4852162373 1049.28924624Z"
           style="fill:#842b0c;fill-opacity:1;stroke:#842b0c;stroke-opacity:1" />
        <path
           id="path4405"
           d="M109.847255507 927.752228293C108.170518268 929.428965532 106.735962377 930.258387052 105.77024 929.93112L-35.6511162373 1071.35247624C-34.6853938599 1071.67974329 -33.2508379691 1070.85032177 -31.5741007302 1069.17358453Z"
           style="fill:#842b0c;fill-opacity:1;stroke:#842b0c;stroke-opacity:1" />
        <path
           id="path4407"
           d="M105.77024 929.93112C103.42174 929.13525 91.546569 928.89606 89.038638 929.59385L-52.3827182373 1071.01520624C-49.8747872373 1070.31741624 -37.9996162373 1070.55660624 -35.6511162373 1071.35247624Z"
           style="fill:#842b0c;fill-opacity:1;stroke:#842b0c;stroke-opacity:1" />
        <path
           id="path4409"
           d="M89.038638 929.59385C86.021255 930.43339 84.830636 929.63785 80.341557 923.78623L-61.0797992373 1065.20758624C-56.5907202373 1071.05920624 -55.4001012373 1071.85474624 -52.3827182373 1071.01520624Z"
           style="fill:#842b0c;fill-opacity:1;stroke:#842b0c;stroke-opacity:1" />
        <path
           id="path4411"
           d="M80.341557 923.78623C73.580328 914.97277 66.657972 897.54219 62.18915 878.07871L-79.2322062373 1019.50006624C-74.7633842373 1038.96354624 -67.8410282373 1056.39412624 -61.0797992373 1065.20758624Z"
           style="fill:#842b0c;fill-opacity:1;stroke:#842b0c;stroke-opacity:1" />
        <path
           id="path4413"
           d="M62.18915 878.07871C60.97385 872.7856 59.811894 866.65977 59.607055 864.4662L-81.8143012373 1005.88755624C-81.6094622373 1008.08112624 -80.4475062373 1014.20695624 -79.2322062373 1019.50006624Z"
           style="fill:#842b0c;fill-opacity:1;stroke:#842b0c;stroke-opacity:1" />
        <path
           id="path4415"
           d="M59.607055 864.4662L59.233913 860.47765L-82.1874432373 1001.89900624L-81.8143012373 1005.88755624Z"
           style="fill:#842b0c;fill-opacity:1;stroke:#842b0c;stroke-opacity:1" />
        <path
           id="path4417"
           d="M59.233913 860.47765L62.486946 858.97193L-78.9344102373 1000.39328624L-82.1874432373 1001.89900624Z"
           style="fill:#842b0c;fill-opacity:1;stroke:#842b0c;stroke-opacity:1" />
        <path
           id="path4419"
           d="M62.486946 858.97193C65.724306 857.47203 65.745563 857.46977 67.249292 858.6526L-74.1720642373 1000.07395624C-75.6757932373 998.891126237 -75.6970502373 998.893386237 -78.9344102373 1000.39328624Z"
           style="fill:#842b0c;fill-opacity:1;stroke:#842b0c;stroke-opacity:1" />
        <path
           id="path4421"
           d="M67.249292 858.6526C68.983875 860.01703 73.818971 860.25652 75.383072 859.05564L-66.0382842373 1000.47699624C-67.6023852373 1001.67787624 -72.4374812373 1001.43838624 -74.1720642373 1000.07395624Z"
           style="fill:#842b0c;fill-opacity:1;stroke:#842b0c;stroke-opacity:1" />
        <path
           id="path4423"
           d="M75.383072 859.05564C75.5713852851 858.911057731 75.748959282 858.754702927 75.9156545861 858.588007623L-65.5057016513 1000.00936386C-65.6723969553 1000.17605916 -65.8499709522 1000.33241397 -66.0382842373 1000.47699624Z"
           style="fill:#842b0c;fill-opacity:1;stroke:#842b0c;stroke-opacity:1" />
        <path
           id="path4425"
           d="M75.9156545861 858.588007623C78.1927746166 856.310887592 78.4398675571 852.104170319 76.301576 849.61826L-65.1197802373 991.039616237C-62.9814886802 993.525526556 -63.2285816207 997.73224383 -65.5057016513 1000.00936386Z"
           style="fill:#842b0c;fill-opacity:1;stroke:#842b0c;stroke-opacity:1" />
        <path
           id="path4427"
           d="M76.301576 849.61826C75.047292 848.16007 74.357965 847.90085 71.748524 847.90085L-69.6728322373 989.322206237C-67.0633912373 989.322206237 -66.3740642373 989.581426237 -65.1197802373 991.039616237Z"
           style="fill:#842b0c;fill-opacity:1;stroke:#842b0c;stroke-opacity:1" />
        <path
           id="path4429"
           d="M71.748524 847.90085C69.275066 847.90085 68.337381 848.21514 66.9503 849.50942L-74.4710562373 990.930776237C-73.0839752373 989.636496237 -72.1462902373 989.322206237 -69.6728322373 989.322206237Z"
           style="fill:#842b0c;fill-opacity:1;stroke:#842b0c;stroke-opacity:1" />
        <path
           id="path4431"
           d="M66.9503 849.50942C66.002027 850.39426 63.8002 851.58104 62.056398 852.14653L-79.3649582373 993.567886237C-77.6211562373 993.002396237 -75.4193292373 991.815616237 -74.4710562373 990.930776237Z"
           style="fill:#842b0c;fill-opacity:1;stroke:#842b0c;stroke-opacity:1" />
        <path
           id="path4433"
           d="M62.056398 852.14653C59.2011115911 853.072471012 56.6939060534 854.550132521 55.0734017022 856.170636872L-86.3479545352 997.591993109C-84.7274501839 995.971488758 -82.2202446462 994.49382725 -79.3649582373 993.567886237Z"
           style="fill:#842b0c;fill-opacity:1;stroke:#842b0c;stroke-opacity:1" />
        <path
           id="path4435"
           d="M55.0734017022 856.170636872C54.2269597817 857.017078792 53.6224375496 857.902492687 53.336593 858.76861L-88.0847632373 1000.18996624C-87.7989186877 999.323848925 -87.1943964556 998.43843503 -86.3479545352 997.591993109Z"
           style="fill:#842b0c;fill-opacity:1;stroke:#842b0c;stroke-opacity:1" />
        <path
           id="path4437"
           d="M53.336593 858.76861C52.502283 861.2966 53.202683 867.02565 55.750057 878.51763L-85.6712992373 1019.93898624C-88.2186732373 1008.44700624 -88.9190732373 1002.71795624 -88.0847632373 1000.18996624Z"
           style="fill:#842b0c;fill-opacity:1;stroke:#842b0c;stroke-opacity:1" />
        <path
           id="path4439"
           d="M55.750057 878.51763C61.652467 905.14521 70.263229 924.46291 80.262623 933.51184L-61.1587332373 1074.93319624C-71.1581272373 1065.88426624 -79.7688892373 1046.56656624 -85.6712992373 1019.93898624Z"
           style="fill:#842b0c;fill-opacity:1;stroke:#842b0c;stroke-opacity:1" />
        <path
           id="path4441"
           d="M80.262623 933.51184C83.733735 936.65301 83.98205 937.06542 84.556149 940.63025L-56.8652072373 1082.05160624C-57.4393062373 1078.48677624 -57.6876212373 1078.07436624 -61.1587332373 1074.93319624Z"
           style="fill:#842b0c;fill-opacity:1;stroke:#842b0c;stroke-opacity:1" />
        <path
           id="path4443"
           d="M84.556149 940.63025C85.583351 947.00859 88.252572 952.53913 91.705647 955.4447L-49.7157092373 1096.86605624C-53.1687842373 1093.96048624 -55.8380052373 1088.42994624 -56.8652072373 1082.05160624Z"
           style="fill:#842b0c;fill-opacity:1;stroke:#842b0c;stroke-opacity:1" />
        <path
           id="path4445"
           d="M91.705647 955.4447C93.370023 956.8452 93.526807 957.3487 93.889485 962.4363L-47.5318712373 1103.85765624C-47.8945492373 1098.77005624 -48.0513332373 1098.26655624 -49.7157092373 1096.86605624Z"
           style="fill:#842b0c;fill-opacity:1;stroke:#842b0c;stroke-opacity:1" />
        <path
           id="path4447"
           d="M93.889485 962.4363C95.504062 985.0853 107.26654 997.4615 130.19311 1000.6356L-11.2282462373 1142.05695624C-34.1548162373 1138.88285624 -45.9172942373 1126.50665624 -47.5318712373 1103.85765624Z"
           style="fill:#842b0c;fill-opacity:1;stroke:#842b0c;stroke-opacity:1" />
        <path
           id="path4449"
           d="M130.19311 1000.6356C136.75569 1001.5441 149.52701 1000.9633 155.1434 999.5006L13.7220437627 1140.92195624C8.10565376269 1142.38465624 -4.66566623731 1142.96545624 -11.2282462373 1142.05695624Z"
           style="fill:#842b0c;fill-opacity:1;stroke:#842b0c;stroke-opacity:1" />
        <path
           id="path4451"
           d="M155.1434 999.5006C162.339002832 997.626595532 168.362239904 994.269621876 173.043030432 989.588831348L31.6216741943 1131.01018759C26.9408836667 1135.69097811 20.9176465945 1139.04795177 13.7220437627 1140.92195624Z"
           style="fill:#842b0c;fill-opacity:1;stroke:#842b0c;stroke-opacity:1" />
        <path
           id="path4453"
           d="M173.043030432 989.588831348C177.164303133 985.467558647 180.244886044 980.320038229 182.16869 974.2549L40.7473337627 1115.67625624C38.8235298066 1121.74139447 35.7429468952 1126.88891488 31.6216741943 1131.01018759Z"
           style="fill:#842b0c;fill-opacity:1;stroke:#842b0c;stroke-opacity:1" />
        <path
           id="path4455"
           d="M182.16869 974.2549C182.98601 971.6782 183.84129 968.1649 184.06909 966.4476L42.6477337627 1107.86895624C42.4199337627 1109.58625624 41.5646537627 1113.09955624 40.7473337627 1115.67625624Z"
           style="fill:#842b0c;fill-opacity:1;stroke:#842b0c;stroke-opacity:1" />
        <path
           id="path4457"
           d="M184.06909 966.4476C184.275025942 964.895150206 184.59314762 963.863096211 184.970310179 963.485933652L43.5489539417 1104.90728989C43.1717913824 1105.28445245 42.8536697046 1106.31650644 42.6477337627 1107.86895624Z"
           style="fill:#842b0c;fill-opacity:1;stroke:#842b0c;stroke-opacity:1" />
        <path
           id="path4459"
           d="M184.970310179 963.485933652C185.075882719 963.380361112 185.186081174 963.3261 185.29974 963.3261L43.8783837627 1104.74745624C43.7647249365 1104.74745624 43.6545264817 1104.80171735 43.5489539417 1104.90728989Z"
           style="fill:#842b0c;fill-opacity:1;stroke:#842b0c;stroke-opacity:1" />
        <path
           id="path4461"
           d="M185.29974 963.3261C185.7489 963.3261 187.64213 962.7558 189.50596 962.0584L48.0846037627 1103.47975624C46.2207737627 1104.17715624 44.3275437627 1104.74745624 43.8783837627 1104.74745624Z"
           style="fill:#842b0c;fill-opacity:1;stroke:#842b0c;stroke-opacity:1" />
        <path
           id="path4463"
           d="M189.50596 962.0584C192.058687867 961.103300117 194.611485301 959.359371481 196.772942129 957.197914653L55.3515858921 1098.61927089C53.1901290638 1100.78072772 50.6373316299 1102.52465635 48.0846037627 1103.47975624Z"
           style="fill:#842b0c;fill-opacity:1;stroke:#842b0c;stroke-opacity:1" />
        <path
           id="path4465"
           d="M196.772942129 957.197914653C198.626169507 955.344687275 200.191710574 953.184522302 201.22286 950.95145L59.8015037627 1092.37280624C58.7703543364 1094.60587854 57.2048132693 1096.76604351 55.3515858921 1098.61927089Z"
           style="fill:#842b0c;fill-opacity:1;stroke:#842b0c;stroke-opacity:1" />
        <path
           id="path4467"
           d="M201.22286 950.95145C202.76942 947.60221 203.00246 946.37932 203.00246 941.58822L61.5811037627 1083.00957624C61.5811037627 1087.80067624 61.3480637627 1089.02356624 59.8015037627 1092.37280624Z"
           style="fill:#842b0c;fill-opacity:1;stroke:#842b0c;stroke-opacity:1" />
        <path
           id="path4469"
           d="M203.00246 941.58822C203.00246 936.91326 202.75672 935.55446 201.3879 932.6352L59.9665437627 1074.05655624C61.3353637627 1076.97581624 61.5811037627 1078.33461624 61.5811037627 1083.00957624Z"
           style="fill:#842b0c;fill-opacity:1;stroke:#842b0c;stroke-opacity:1" />
        <path
           id="path4471"
           d="M201.3879 932.6352C197.82868 925.04445 191.16973 920.44269 183.06447 919.97348L41.6431137627 1061.39483624C49.7483737627 1061.86404624 56.4073237627 1066.46580624 59.9665437627 1074.05655624Z"
           style="fill:#842b0c;fill-opacity:1;stroke:#842b0c;stroke-opacity:1" />
        <path
           id="path4473"
           d="M183.06447 919.97348C175.957531594 919.562070286 169.886263717 921.846343626 165.701966682 926.030640661L24.280610445 1067.4519969C28.4649074796 1063.26769986 34.536175357 1060.98342652 41.6431137627 1061.39483624Z"
           style="fill:#842b0c;fill-opacity:1;stroke:#842b0c;stroke-opacity:1" />
        <path
           id="path4475"
           d="M165.701966682 926.030640661C161.830512479 929.902094865 159.574414943 935.400079736 159.60795 941.89439L18.1865937627 1083.31574624C18.153058706 1076.82143597 20.4091562414 1071.3234511 24.280610445 1067.4519969Z"
           style="fill:#842b0c;fill-opacity:1;stroke:#842b0c;stroke-opacity:1" />
        <path
           id="path4477"
           d="M159.60795 941.89439C159.65945 951.86944 165.34732 959.62 174.73814 962.5117L33.3167837627 1103.93305624C23.9259637627 1101.04135624 18.2380937627 1093.29079624 18.1865937627 1083.31574624Z"
           style="fill:#842b0c;fill-opacity:1;stroke:#842b0c;stroke-opacity:1" />
        <path
           id="path4479"
           d="M174.73814 962.5117C178.01826 963.5217 178.11521 963.6134 177.80222 965.4298L36.3808637627 1106.85115624C36.6938537627 1105.03475624 36.5969037627 1104.94305624 33.3167837627 1103.93305624Z"
           style="fill:#842b0c;fill-opacity:1;stroke:#842b0c;stroke-opacity:1" />
        <path
           id="path4481"
           d="M177.80222 965.4298C176.410330751 973.50762686 173.187914133 980.081481853 168.299282773 984.970113213L26.8779265356 1126.39146945C31.7665578958 1121.50283809 34.9889745133 1114.9289831 36.3808637627 1106.85115624Z"
           style="fill:#842b0c;fill-opacity:1;stroke:#842b0c;stroke-opacity:1" />
        <path
           id="path4483"
           d="M168.299282773 984.970113213C164.099815373 989.169580614 158.670801855 992.125474709 152.1164 993.7229L10.6950437627 1135.14425624C17.249445618 1133.54683095 22.6784591352 1130.59093685 26.8779265356 1126.39146945Z"
           style="fill:#842b0c;fill-opacity:1;stroke:#842b0c;stroke-opacity:1" />
        <path
           id="path4485"
           d="M152.1164 993.7229C146.45279 995.1032 133.733 995.0658 127.07282 993.6499L-14.3485362373 1135.07125624C-7.68835623731 1136.48715624 5.03143376269 1136.52455624 10.6950437627 1135.14425624Z"
           style="fill:#842b0c;fill-opacity:1;stroke:#842b0c;stroke-opacity:1" />
        <path
           id="path4487"
           d="M127.07282 993.6499C110.38863 990.1031 101.79709 979.902 100.07742 961.5956L-41.3439362373 1103.01695624C-39.6242662373 1121.32335624 -31.0327262373 1131.52445624 -14.3485362373 1135.07125624Z"
           style="fill:#842b0c;fill-opacity:1;stroke:#842b0c;stroke-opacity:1" />
        <path
           id="path4489"
           d="M100.07742 961.5956L99.656444 957.1107L-41.7649122373 1098.53205624L-41.3439362373 1103.01695624Z"
           style="fill:#842b0c;fill-opacity:1;stroke:#842b0c;stroke-opacity:1" />
        <path
           id="path4491"
           d="M99.656444 957.1107L101.90367 955.2569L-39.5176862373 1096.67825624L-41.7649122373 1098.53205624Z"
           style="fill:#842b0c;fill-opacity:1;stroke:#842b0c;stroke-opacity:1" />
        <path
           id="path4493"
           d="M101.90367 955.2569C102.128304411 955.071740348 102.352462974 954.866797643 102.575344273 954.643916345L-38.8460119648 1096.06527258C-39.0688932628 1096.28815388 -39.2930518267 1096.49309659 -39.5176862373 1096.67825624Z"
           style="fill:#842b0c;fill-opacity:1;stroke:#842b0c;stroke-opacity:1" />
        <path
           id="path4495"
           d="M102.575344273 954.643916345C105.896734872 951.322525745 108.934481252 944.017486536 109.03643 938.83271L-32.3849262373 1080.25406624C-32.4868749855 1085.43884277 -35.5246213651 1092.74388198 -38.8460119648 1096.06527258Z"
           style="fill:#842b0c;fill-opacity:1;stroke:#842b0c;stroke-opacity:1" />
        <path
           id="path4497"
           d="M109.03643 938.83271C109.060641679 937.599978113 109.27337642 936.901103802 110.200083713 935.974396509L-31.2212725247 1077.39575275C-32.1479798178 1078.32246004 -32.3607145586 1079.02133435 -32.3849262373 1080.25406624Z"
           style="fill:#842b0c;fill-opacity:1;stroke:#842b0c;stroke-opacity:1" />
        <path
           id="path4499"
           d="M110.200083713 935.974396509C110.647456766 935.527023456 111.261223181 935.02655327 112.1005 934.38729L-29.3208562373 1075.80864624C-30.1601330566 1076.44790951 -30.7738994717 1076.94837969 -31.2212725247 1077.39575275Z"
           style="fill:#842b0c;fill-opacity:1;stroke:#842b0c;stroke-opacity:1" />
        <path
           id="path4501"
           d="M112.1005 934.38729C113.069644577 933.649108361 113.993314826 932.844938865 114.891949792 931.946303899L-26.5294064456 1073.36766014C-27.428041411 1074.2662951 -28.3517116602 1075.0704646 -29.3208562373 1075.80864624Z"
           style="fill:#842b0c;fill-opacity:1;stroke:#842b0c;stroke-opacity:1" />
        <path
           id="path4503"
           d="M114.891949792 931.946303899C118.241972335 928.596281356 121.24407331 923.933448689 124.95715 916.48245L-16.4642062373 1057.90380624C-20.1772829271 1065.35480493 -23.1793839026 1070.01763759 -26.5294064456 1073.36766014Z"
           style="fill:#842b0c;fill-opacity:1;stroke:#842b0c;stroke-opacity:1" />
        <path
           id="path4505"
           d="M124.95715 916.48245C129.75141 906.86186 134.17571 893.99806 137.11776 881.12724L-4.30359623731 1022.54859624C-7.24564623731 1035.41941624 -11.6699462373 1048.28321624 -16.4642062373 1057.90380624Z"
           style="fill:#842b0c;fill-opacity:1;stroke:#842b0c;stroke-opacity:1" />
        <path
           id="path4507"
           d="M137.11776 881.12724C139.90749 868.92281 140.90915 861.63605 140.16628 858.94561L-1.25507623731 1000.36696624C-0.51220623731 1003.05740624 -1.51386623731 1010.34416624 -4.30359623731 1022.54859624Z"
           style="fill:#842b0c;fill-opacity:1;stroke:#842b0c;stroke-opacity:1" />
        <path
           id="path4509"
           d="M140.16628 858.94561C139.4097 856.20548 135.91935 853.54116 131.11878 852.0377L-10.3025762373 993.459056237C-5.50200623731 994.962516237 -2.01165623731 997.626836237 -1.25507623731 1000.36696624Z"
           style="fill:#842b0c;fill-opacity:1;stroke:#842b0c;stroke-opacity:1" />
        <path
           id="path4511"
           d="M131.11878 852.0377C129.22967 851.44606 127.12484 850.31468 126.44016 849.52378L-14.9811962373 990.945136237C-14.2965162373 991.736036237 -12.1916862373 992.867416237 -10.3025762373 993.459056237Z"
           style="fill:#842b0c;fill-opacity:1;stroke:#842b0c;stroke-opacity:1" />
        <path
           id="path4513"
           d="M126.44016 849.52378C125.58355 848.53428 124.30301 847.98626 122.33559 847.76451L-19.0857662373 989.185866237C-17.1183462373 989.407616237 -15.8378062373 989.955636237 -14.9811962373 990.945136237Z"
           style="fill:#842b0c;fill-opacity:1;stroke:#842b0c;stroke-opacity:1" />
        <path
           id="path4515"
           d="M122.33559 847.76451C121.69065 847.69181 121.17853 847.64654 120.74615 847.64611L-20.6752062373 989.067466237C-20.2428262373 989.067896237 -19.7307062373 989.113166237 -19.0857662373 989.185866237Z"
           style="fill:#842b0c;fill-opacity:1;stroke:#842b0c;stroke-opacity:1" />
        <path
           id="path4517"
           d="M181.34228 932.26086C184.50972 932.15306 187.46477 933.66766 189.28709 936.56993L47.8657337627 1077.99128624C46.0434137627 1075.08901624 43.0883637627 1073.57441624 39.9209237627 1073.68221624Z"
           style="fill:#842b0c;fill-opacity:1;stroke:#842b0c;stroke-opacity:1" />
        <path
           id="path4519"
           d="M189.28709 936.56993C191.07309 939.41434 190.69161 945.48511 188.58387 947.77018L47.1625137627 1089.19153624C49.2702537627 1086.90646624 49.6517337627 1080.83569624 47.8657337627 1077.99128624Z"
           style="fill:#842b0c;fill-opacity:1;stroke:#842b0c;stroke-opacity:1" />
        <path
           id="path4521"
           d="M188.58387 947.77018C188.488727883 947.873326798 188.391894304 947.974129887 188.293450697 948.072573493L46.8720944601 1089.49392973C46.9705380665 1089.39548612 47.0673716461 1089.29468304 47.1625137627 1089.19153624Z"
           style="fill:#842b0c;fill-opacity:1;stroke:#842b0c;stroke-opacity:1" />
        <path
           id="path4523"
           d="M188.293450697 948.072573493C185.268629808 951.097394382 180.723760479 951.894595967 177.02124 950.00664L35.5998837627 1091.42799624C39.3024042415 1093.3159522 43.8472735709 1092.51875062 46.8720944601 1089.49392973Z"
           style="fill:#842b0c;fill-opacity:1;stroke:#842b0c;stroke-opacity:1" />
        <path
           id="path4525"
           d="M177.02124 950.00664C173.97533 948.45348 172.52856 946.14039 172.25053 942.37875L30.8291737627 1083.80010624C31.1072037627 1087.56174624 32.5539737627 1089.87483624 35.5998837627 1091.42799624Z"
           style="fill:#842b0c;fill-opacity:1;stroke:#842b0c;stroke-opacity:1" />
        <path
           id="path4527"
           d="M172.25053 942.37875C172.019203773 939.248909649 172.686220757 936.972470523 174.409991092 935.248700188L32.9886348547 1076.67005643C31.2648645196 1078.39382676 30.5978475353 1080.67026589 30.8291737627 1083.80010624Z"
           style="fill:#842b0c;fill-opacity:1;stroke:#842b0c;stroke-opacity:1" />
        <path
           id="path4529"
           d="M174.409991092 935.248700188C175.095574286 934.563116994 175.948318556 933.964956952 176.97819 933.4353L35.5568337627 1074.85665624C34.5269623183 1075.38631319 33.674218049 1075.98447323 32.9886348547 1076.67005643Z"
           style="fill:#842b0c;fill-opacity:1;stroke:#842b0c;stroke-opacity:1" />
        <path
           id="path4531"
           d="M176.97819 933.4353C178.41954 932.69402 179.90254 932.30986 181.34228 932.26086L39.9209237627 1073.68221624C38.4811837627 1073.73121624 36.9981837627 1074.11537624 35.5568337627 1074.85665624Z"
           style="fill:#842b0c;fill-opacity:1;stroke:#842b0c;stroke-opacity:1" />
        <path
           id="path4533"
           d="M95.358134 935.17782C98.193829 935.13542 101.60584 935.33642 102.21103 935.7196L-39.2103262373 1077.14095624C-39.8155162373 1076.75777624 -43.2275272373 1076.55677624 -46.0632222373 1076.59917624Z"
           style="fill:#842b0c;fill-opacity:1;stroke:#842b0c;stroke-opacity:1" />
        <path
           id="path4535"
           d="M102.21103 935.7196C103.95641 936.82469 101.16472 946.68048 98.16866 949.99109L-43.2526962373 1091.41244624C-40.2566362373 1088.10183624 -37.4649462373 1078.24604624 -39.2103262373 1077.14095624Z"
           style="fill:#842b0c;fill-opacity:1;stroke:#842b0c;stroke-opacity:1" />
        <path
           id="path4537"
           d="M98.16866 949.99109C98.0419674634 950.131083024 97.9238977263 950.257077085 97.8124586495 950.368516162L-43.6088975878 1091.7898724C-43.4974585111 1091.67843332 -43.3793887739 1091.55243926 -43.2526962373 1091.41244624Z"
           style="fill:#842b0c;fill-opacity:1;stroke:#842b0c;stroke-opacity:1" />
        <path
           id="path4539"
           d="M97.8124586495 950.368516162C96.7321884588 951.448786353 96.2750022068 951.161322949 94.626202 948.99963L-46.7951542373 1090.42098624C-45.1463540305 1092.58267919 -44.6891677785 1092.87014259 -43.6088975878 1091.7898724Z"
           style="fill:#842b0c;fill-opacity:1;stroke:#842b0c;stroke-opacity:1" />
        <path
           id="path4541"
           d="M94.626202 948.99963C91.5619006721 944.982126129 89.7147899395 937.308145252 91.2758178611 935.74711733L-50.1455383762 1077.16847357C-51.7065662978 1078.72950149 -49.8594555652 1086.40348237 -46.7951542373 1090.42098624Z"
           style="fill:#842b0c;fill-opacity:1;stroke:#842b0c;stroke-opacity:1" />
        <path
           id="path4543"
           d="M91.2758178611 935.74711733C91.3727029624 935.650232229 91.4827164064 935.576894568 91.606382 935.52944L-49.8149742373 1076.95079624C-49.9386398309 1076.99825081 -50.0486532749 1077.07158847 -50.1455383762 1077.16847357Z"
           style="fill:#842b0c;fill-opacity:1;stroke:#842b0c;stroke-opacity:1" />
        <path
           id="path4545"
           d="M91.606382 935.52944C92.162664 935.31598 93.656718 935.20326 95.358134 935.17782L-46.0632222373 1076.59917624C-47.7646382373 1076.62461624 -49.2586922373 1076.73733624 -49.8149742373 1076.95079624Z"
           style="fill:#842b0c;fill-opacity:1;stroke:#842b0c;stroke-opacity:1" />
      </g>
      <path
         style="fill:#842b0c;fill-opacity:1;stroke:#842b0c;stroke-opacity:1"
         d="m 120.74615,847.64611 c -1.29713,-10e-4 -1.87293,0.39829 -3.13582,1.6612 -2.49284,2.49283 -2.66362,6.73072 -0.36358,9.03075 1.9569,1.9569 6.90744,2.14998 8.55117,0.33368 1.18936,-1.31423 3.08179,-1.0331 6.51683,0.96634 1.89091,1.10064 1.92077,1.18859 1.56672,4.64514 -1.06645,10.4118 -6.88763,31.65015 -11.94533,43.58467 -5.26469,12.42294 -13.09133,23.10515 -16.1659,22.06323 -2.3485,-0.79587 -14.223671,-1.03506 -16.731602,-0.33727 -3.017383,0.83954 -4.208002,0.044 -8.697081,-5.80762 -6.761229,-8.81346 -13.683585,-26.24404 -18.152407,-45.70752 -1.2153,-5.29311 -2.377256,-11.41894 -2.582095,-13.61251 l -0.373142,-3.98855 3.253033,-1.50572 c 3.23736,-1.4999 3.258617,-1.50216 4.762346,-0.31933 1.734583,1.36443 6.569679,1.60392 8.13378,0.40304 2.760743,-2.11963 3.213328,-6.76949 0.918504,-9.43738 -1.254284,-1.45819 -1.943611,-1.71741 -4.553052,-1.71741 -2.473458,0 -3.411143,0.31429 -4.798224,1.60857 -0.948273,0.88484 -3.1501,2.07162 -4.893902,2.63711 -4.346695,1.40959 -7.886714,4.09779 -8.719805,6.62208 -0.83431,2.52799 -0.13391,8.25704 2.413464,19.74902 5.90241,26.62758 14.513172,45.94528 24.512566,54.99421 3.471112,3.14117 3.719427,3.55358 4.293526,7.11841 1.027202,6.37834 3.696423,11.90888 7.149498,14.81445 1.664376,1.4005 1.82116,1.904 2.183838,6.9916 1.614577,22.649 13.377055,35.0252 36.303625,38.1993 6.56258,0.9085 19.3339,0.3277 24.95029,-1.135 13.53108,-3.524 22.9165,-12.292 27.02529,-25.2457 0.81732,-2.5767 1.6726,-6.09 1.9004,-7.8073 0.26358,-1.987 0.71094,-3.1215 1.23065,-3.1215 0.44916,0 2.34239,-0.5703 4.20622,-1.2677 4.74143,-1.774 9.4831,-6.2694 11.7169,-11.10695 1.54656,-3.34924 1.7796,-4.57213 1.7796,-9.36323 0,-4.67496 -0.24574,-6.03376 -1.61456,-8.95302 -3.55922,-7.59075 -10.21817,-12.19251 -18.32343,-12.66172 -13.68252,-0.79206 -23.5263,8.4075 -23.45652,21.92091 0.0515,9.97505 5.73937,17.72561 15.13019,20.61731 3.28012,1.01 3.37707,1.1017 3.06408,2.9181 -2.58756,15.0169 -11.50139,24.8361 -25.68582,28.2931 -5.66361,1.3803 -18.3834,1.3429 -25.04358,-0.073 -16.68419,-3.5468 -25.27573,-13.7479 -26.9954,-32.0543 l -0.420976,-4.4849 2.247226,-1.8538 c 3.57215,-2.94442 7.02397,-10.89149 7.13276,-16.42419 0.0359,-1.82784 0.48628,-2.48196 3.06407,-4.44542 4.58202,-3.49005 8.14755,-8.45513 12.85665,-17.90484 4.79426,-9.62059 9.21856,-22.48439 12.16061,-35.35521 2.78973,-12.20443 3.79139,-19.49119 3.04852,-22.18163 -0.75658,-2.74013 -4.24693,-5.40445 -9.0475,-6.90791 -1.88911,-0.59164 -3.99394,-1.72302 -4.67862,-2.51392 -0.85661,-0.9895 -2.13715,-1.53752 -4.10457,-1.75927 -0.64494,-0.0727 -1.15706,-0.11797 -1.58944,-0.1184 z m 60.59613,84.61475 c 3.16744,-0.1078 6.12249,1.4068 7.94481,4.30907 1.786,2.84441 1.40452,8.91518 -0.70322,11.20025 -3.01852,3.27248 -7.73961,4.18586 -11.56263,2.23646 -3.04591,-1.55316 -4.49268,-3.86625 -4.77071,-7.62789 -0.32333,-4.37465 1.10837,-7.08207 4.72766,-8.94345 1.44135,-0.74128 2.92435,-1.12544 4.36409,-1.17444 z m -85.984146,2.91696 c 2.835695,-0.0424 6.247706,0.1586 6.852896,0.54178 1.74538,1.10509 -1.04631,10.96088 -4.04237,14.27149 -1.354827,1.49706 -1.72357,1.39323 -3.542458,-0.99146 -3.254487,-4.26685 -5.136005,-12.65814 -3.01982,-13.47019 0.556282,-0.21346 2.050336,-0.32618 3.751752,-0.35162 z"
         id="path4350"
         inkscape:connector-curvature="0" />
    </g>
    <path
       inkscape:connector-curvature="0"
       id="path4346"
       d="m 120.74615,847.64611 c -1.29713,-10e-4 -1.87293,0.39829 -3.13582,1.6612 -2.49284,2.49283 -2.66362,6.73072 -0.36358,9.03075 1.9569,1.9569 6.90744,2.14998 8.55117,0.33368 1.18936,-1.31423 3.08179,-1.0331 6.51683,0.96634 1.89091,1.10064 1.92077,1.18859 1.56672,4.64514 -1.06645,10.4118 -6.88763,31.65015 -11.94533,43.58467 -5.26469,12.42294 -13.09133,23.10515 -16.1659,22.06323 -2.3485,-0.79587 -14.223671,-1.03506 -16.731602,-0.33727 -3.017383,0.83954 -4.208002,0.044 -8.697081,-5.80762 -6.761229,-8.81346 -13.683585,-26.24404 -18.152407,-45.70752 -1.2153,-5.29311 -2.377256,-11.41894 -2.582095,-13.61251 l -0.373142,-3.98855 3.253033,-1.50572 c 3.23736,-1.4999 3.258617,-1.50216 4.762346,-0.31933 1.734583,1.36443 6.569679,1.60392 8.13378,0.40304 2.760743,-2.11963 3.213328,-6.76949 0.918504,-9.43738 -1.254284,-1.45819 -1.943611,-1.71741 -4.553052,-1.71741 -2.473458,0 -3.411143,0.31429 -4.798224,1.60857 -0.948273,0.88484 -3.1501,2.07162 -4.893902,2.63711 -4.346695,1.40959 -7.886714,4.09779 -8.719805,6.62208 -0.83431,2.52799 -0.13391,8.25704 2.413464,19.74902 5.90241,26.62758 14.513172,45.94528 24.512566,54.99421 3.471112,3.14117 3.719427,3.55358 4.293526,7.11841 1.027202,6.37834 3.696423,11.90888 7.149498,14.81445 1.664376,1.4005 1.82116,1.904 2.183838,6.9916 1.614577,22.649 13.377055,35.0252 36.303625,38.1993 6.56258,0.9085 19.3339,0.3277 24.95029,-1.135 13.53108,-3.524 22.9165,-12.292 27.02529,-25.2457 0.81732,-2.5767 1.6726,-6.09 1.9004,-7.8073 0.26358,-1.987 0.71094,-3.1215 1.23065,-3.1215 0.44916,0 2.34239,-0.5703 4.20622,-1.2677 4.74143,-1.774 9.4831,-6.2694 11.7169,-11.10695 1.54656,-3.34924 1.7796,-4.57213 1.7796,-9.36323 0,-4.67496 -0.24574,-6.03376 -1.61456,-8.95302 -3.55922,-7.59075 -10.21817,-12.19251 -18.32343,-12.66172 -13.68252,-0.79206 -23.5263,8.4075 -23.45652,21.92091 0.0515,9.97505 5.73937,17.72561 15.13019,20.61731 3.28012,1.01 3.37707,1.1017 3.06408,2.9181 -2.58756,15.0169 -11.50139,24.8361 -25.68582,28.2931 -5.66361,1.3803 -18.3834,1.3429 -25.04358,-0.073 -16.68419,-3.5468 -25.27573,-13.7479 -26.9954,-32.0543 l -0.420976,-4.4849 2.247226,-1.8538 c 3.57215,-2.94442 7.02397,-10.89149 7.13276,-16.42419 0.0359,-1.82784 0.48628,-2.48196 3.06407,-4.44542 4.58202,-3.49005 8.14755,-8.45513 12.85665,-17.90484 4.79426,-9.62059 9.21856,-22.48439 12.16061,-35.35521 2.78973,-12.20443 3.79139,-19.49119 3.04852,-22.18163 -0.75658,-2.74013 -4.24693,-5.40445 -9.0475,-6.90791 -1.88911,-0.59164 -3.99394,-1.72302 -4.67862,-2.51392 -0.85661,-0.9895 -2.13715,-1.53752 -4.10457,-1.75927 -0.64494,-0.0727 -1.15706,-0.11797 -1.58944,-0.1184 z m 60.59613,84.61475 c 3.16744,-0.1078 6.12249,1.4068 7.94481,4.30907 1.786,2.84441 1.40452,8.91518 -0.70322,11.20025 -3.01852,3.27248 -7.73961,4.18586 -11.56263,2.23646 -3.04591,-1.55316 -4.49268,-3.86625 -4.77071,-7.62789 -0.32333,-4.37465 1.10837,-7.08207 4.72766,-8.94345 1.44135,-0.74128 2.92435,-1.12544 4.36409,-1.17444 z m -85.984146,2.91696 c 2.835695,-0.0424 6.247706,0.1586 6.852896,0.54178 1.74538,1.10509 -1.04631,10.96088 -4.04237,14.27149 -1.354827,1.49706 -1.72357,1.39323 -3.542458,-0.99146 -3.254487,-4.26685 -5.136005,-12.65814 -3.01982,-13.47019 0.556282,-0.21346 2.050336,-0.32618 3.751752,-0.35162 z"
       style="fill:#ffffff;fill-opacity:1;stroke:#ffffff;stroke-opacity:1" />
  </g>
</svg>
