<?xml version="1.0" encoding="UTF-8" standalone="no"?>
<!-- Created with Inkscape (http://www.inkscape.org/) -->

<svg
   xmlns:dc="http://purl.org/dc/elements/1.1/"
   xmlns:cc="http://creativecommons.org/ns#"
   xmlns:rdf="http://www.w3.org/1999/02/22-rdf-syntax-ns#"
   xmlns:svg="http://www.w3.org/2000/svg"
   xmlns="http://www.w3.org/2000/svg"
   xmlns:sodipodi="http://sodipodi.sourceforge.net/DTD/sodipodi-0.dtd"
   xmlns:inkscape="http://www.inkscape.org/namespaces/inkscape"
   sodipodi:docname="xmlcopyeditor.svg"
   inkscape:version="0.92+devel unknown"
   version="1.1"
   id="svg2"
   viewBox="0 0 256 256"
   height="256"
   width="256">
  <sodipodi:namedview
     inkscape:window-maximized="1"
     inkscape:window-y="0"
     inkscape:window-x="0"
     inkscape:window-height="1054"
     inkscape:window-width="1920"
     units="px"
     showgrid="true"
     inkscape:current-layer="layer1"
     inkscape:document-units="px"
     inkscape:cy="128"
     inkscape:cx="123.45562"
     inkscape:zoom="3.3007812"
     inkscape:pageshadow="2"
     inkscape:pageopacity="0.0"
     borderopacity="1.0"
     bordercolor="#666666"
     pagecolor="#ffffff"
     id="base"
     inkscape:document-rotation="0" />
  <defs
     id="defs4">
    <clipPath
       clipPathUnits="userSpaceOnUse"
       id="clipPath5002">
      <g
         id="g5004">
        <path
           transform="translate(0,796.36216)"
           inkscape:connector-curvature="0"
           id="path5006"
           d="M 88.118406,249.43519 C 46.103287,235.29134 14.771284,201.68742 4.1335861,159.36053 1.3377997,148.23623 0.92261224,144.16281 0.92582381,127.88908 0.92787958,117.47222 1.134384,112.01362 1.6577819,108.54099 4.4653598,89.913336 12.17654,70.638106 23.042737,55.086148 c 3.958678,-5.665755 8.344812,-10.93092 9.101533,-10.925587 0.32809,0.0023 10.488643,18.309713 22.579009,40.683112 12.090365,22.373397 22.374546,41.334697 22.853732,42.136217 0.479186,0.80151 0.924733,2.44098 0.990103,3.64326 0.343424,6.31639 2.524175,14.20976 5.6424,20.42304 2.954444,5.88693 5.065381,8.73258 10.434696,14.06652 6.71418,6.66995 12.88853,10.28643 21.73204,12.72904 3.16587,0.87442 5.10478,1.05037 11.57517,1.05037 8.82596,0 12.60219,-0.76201 19.26429,-3.88733 2.04584,-0.95974 3.93661,-1.66536 4.20172,-1.56805 0.2651,0.0973 -11.0555,17.66459 -25.1569,39.0384 l -25.6389,38.86148 -3.094121,0.11221 c -2.554618,0.0927 -4.195204,-0.25845 -9.409103,-2.01364 z"
           style="fill:#0f9d58;fill-opacity:1;stroke:none;stroke-width:4.85768509;stroke-linejoin:round;stroke-miterlimit:4;stroke-dasharray:none;stroke-opacity:1" />
        <path
           inkscape:connector-curvature="0"
           id="path5008"
           d="m 112.35984,1051.5167 c -10.0014,-1.4495 -12.15632,-1.8201 -12.531784,-2.1556 -0.248854,-0.2223 1.738304,-3.7475 4.550294,-8.0722 7.16635,-11.0213 49.77231,-74.64801 50.25856,-75.05489 3.57509,-2.99158 8.63523,-8.0414 10.57512,-10.55356 3.36154,-4.35318 7.55784,-12.9141 9.06523,-18.494 6.19314,-22.92535 -2.59253,-47.15185 -21.69967,-59.83688 l -2.96081,-1.96565 17.02469,0.29584 c 9.36358,0.1627 31.17032,0.43384 48.45941,0.60252 l 31.43471,0.30668 1.54584,4.18869 c 2.24597,6.08579 4.67816,15.0947 5.93451,21.9816 1.52517,8.36049 1.92536,28.85896 0.73851,37.82758 -3.0805,23.27845 -12.81326,45.72018 -27.80202,64.10577 -20.47622,25.1166 -51.4599,42.1974 -84.14612,46.3885 -5.31244,0.6812 -26.64601,0.9864 -30.44647,0.4356 z"
           style="fill:#f4b400;fill-opacity:1;stroke:none;stroke-width:4.85768509;stroke-linejoin:round;stroke-miterlimit:4;stroke-dasharray:none;stroke-opacity:1" />
        <path
           transform="translate(0,796.36216)"
           inkscape:connector-curvature="0"
           id="path5010"
           d="M 67.989788,108.87302 C 41.284246,59.575543 33.290284,45.149038 32.233625,44.344765 31.651257,43.901497 32.811213,42.549931 38.695603,36.815353 53.43581,22.450419 68.809334,13.040746 87.839196,6.7360352 101.68742,2.1480329 112.58238,0.43719165 127.95142,0.43719165 c 21.3099,0 37.80488,3.80960275 56.83492,13.12633035 25.29351,12.383198 46.19421,33.578863 58.51993,59.345832 1.61138,3.368591 2.92978,6.372442 2.92978,6.675231 0,0.560033 -10.54865,0.49527 -71.16508,-0.436914 l -24.28843,-0.373518 -3.93063,-1.764495 c -6.75732,-3.033425 -10.64587,-3.839529 -18.6576,-3.867747 -5.0296,-0.01773 -7.97946,0.207636 -10.31642,0.788106 -14.50826,3.603659 -26.283291,12.94777 -33.291614,26.418653 -3.58502,6.89086 -5.24713,13.08166 -6.331628,23.58317 l -0.33738,3.26696 -9.92748,-18.32578 z"
           style="fill:#db4437;fill-opacity:1;stroke:none;stroke-width:10;stroke-linejoin:round;stroke-miterlimit:4;stroke-dasharray:none;stroke-opacity:1" />
      </g>
    </clipPath>
    <clipPath
       id="clipPath4271"
       clipPathUnits="userSpaceOnUse">
      <circle
         r="128"
         cy="128.00002"
         cx="128"
         id="circle4273"
         style="fill:#292929;fill-opacity:0.26020412;stroke:none;stroke-width:10;stroke-linejoin:round;stroke-miterlimit:4;stroke-dasharray:none;stroke-opacity:0.25882353" />
    </clipPath>
    <clipPath
       clipPathUnits="userSpaceOnUse"
       id="clipPath4363">
      <circle
         r="128"
         cy="924.36218"
         cx="128"
         id="circle4365"
         style="fill:#4285f4;fill-opacity:1;stroke:none;stroke-width:10;stroke-linejoin:round;stroke-miterlimit:4;stroke-dasharray:none;stroke-opacity:0.25882353" />
    </clipPath>
    <clipPath
       id="clipPath4452"
       clipPathUnits="userSpaceOnUse">
      <circle
         r="128"
         cy="924.36218"
         cx="128"
         id="circle4454"
         style="fill:#4285f4;fill-opacity:1;stroke:none;stroke-width:10;stroke-linejoin:round;stroke-miterlimit:4;stroke-dasharray:none;stroke-opacity:0.25882353" />
    </clipPath>
    <clipPath
       clipPathUnits="userSpaceOnUse"
       id="clipPath5177">
      <circle
         r="128"
         cy="924.36218"
         cx="128"
         id="circle5179"
         style="fill:#4285f4;fill-opacity:1;stroke:none;stroke-width:10;stroke-linejoin:round;stroke-miterlimit:4;stroke-dasharray:none;stroke-opacity:0.25882353" />
    </clipPath>
    <clipPath
       id="clipPath4342"
       clipPathUnits="userSpaceOnUse">
      <circle
         r="128"
         cy="933.48718"
         cx="128"
         id="circle4344"
         style="fill:#4285f4;fill-opacity:1;stroke:none;stroke-width:10;stroke-linejoin:round;stroke-miterlimit:4;stroke-dasharray:none;stroke-opacity:0.25882353" />
    </clipPath>
    <clipPath
       clipPathUnits="userSpaceOnUse"
       id="clipPath4681">
      <circle
         r="128"
         cy="930.43964"
         cx="127.00293"
         id="circle4683"
         style="fill:#9d5fad;fill-opacity:1;stroke:none;stroke-width:10;stroke-linejoin:round;stroke-miterlimit:4;stroke-dasharray:none;stroke-opacity:0.25882353" />
    </clipPath>
    <clipPath
       id="clipPath4235"
       clipPathUnits="userSpaceOnUse">
      <circle
         r="128"
         cy="924.36218"
         cx="128"
         id="circle4237"
         style="fill:#0f9d58;fill-opacity:1;stroke:none;stroke-width:10;stroke-linejoin:round;stroke-miterlimit:4;stroke-dasharray:none;stroke-opacity:0.25882353" />
    </clipPath>
    <clipPath
       clipPathUnits="userSpaceOnUse"
       id="clipPath4771">
      <circle
         r="128"
         cy="924.36218"
         cx="128"
         id="circle4773"
         style="fill:#0f9d58;fill-opacity:1;stroke:none;stroke-width:10;stroke-linejoin:round;stroke-miterlimit:4;stroke-dasharray:none;stroke-opacity:0.25882353" />
    </clipPath>
    <clipPath
       id="clipPath4842"
       clipPathUnits="userSpaceOnUse">
      <circle
         r="128"
         cy="924.36218"
         cx="128"
         id="circle4844"
         style="fill:#0f9d58;fill-opacity:1;stroke:none;stroke-width:10;stroke-linejoin:round;stroke-miterlimit:4;stroke-dasharray:none;stroke-opacity:0.25882353" />
    </clipPath>
    <clipPath
       clipPathUnits="userSpaceOnUse"
       id="clipPath4458">
      <circle
         r="128"
         cy="924.36218"
         cx="128"
         id="circle4460"
         style="fill:#ff3b38;fill-opacity:1;stroke:none;stroke-width:10;stroke-linejoin:round;stroke-miterlimit:4;stroke-dasharray:none;stroke-opacity:0.25882353" />
    </clipPath>
    <clipPath
       id="clipPath4783"
       clipPathUnits="userSpaceOnUse">
      <circle
         r="128"
         cy="924.36218"
         cx="128"
         id="circle4785"
         style="fill:#ff3b38;fill-opacity:1;stroke:none;stroke-width:10;stroke-linejoin:round;stroke-miterlimit:4;stroke-dasharray:none;stroke-opacity:0.25882353" />
    </clipPath>
    <clipPath
       clipPathUnits="userSpaceOnUse"
       id="clipPath4789">
      <circle
         r="128"
         cy="924.36218"
         cx="102.64714"
         id="circle4791"
         style="fill:#80b4ff;fill-opacity:1;stroke:none;stroke-width:10;stroke-linejoin:round;stroke-miterlimit:4;stroke-dasharray:none;stroke-opacity:0.25882353" />
    </clipPath>
    <clipPath
       id="clipPath4721"
       clipPathUnits="userSpaceOnUse">
      <circle
         r="128"
         cy="924.36218"
         cx="128"
         id="circle4723"
         style="fill:#557ae6;fill-opacity:1;stroke:none;stroke-width:10;stroke-linejoin:round;stroke-miterlimit:4;stroke-dasharray:none;stroke-opacity:0.25882353" />
    </clipPath>
    <clipPath
       clipPathUnits="userSpaceOnUse"
       id="clipPath4491">
      <circle
         r="128"
         cy="924.36218"
         cx="128"
         id="circle4493"
         style="fill:#990000;fill-opacity:1;stroke:none;stroke-width:10;stroke-linejoin:round;stroke-miterlimit:4;stroke-dasharray:none;stroke-opacity:0.25882353" />
    </clipPath>
    <clipPath
       id="clipPath1102"
       clipPathUnits="userSpaceOnUse">
      <circle
         r="128"
         cy="924.36218"
         cx="128"
         id="circle1104"
         style="fill:#b40000;fill-opacity:1;stroke:none;stroke-width:10;stroke-linejoin:round;stroke-miterlimit:4;stroke-dasharray:none;stroke-opacity:0.25882353" />
    </clipPath>
    <clipPath
       id="clipPath4379"
       clipPathUnits="userSpaceOnUse">
      <circle
         r="34.006767"
         cy="917.35425"
         cx="102.0823"
         id="circle4381"
         style="fill:#c42626;fill-opacity:1;stroke:none;stroke-width:2.65677881;stroke-linejoin:round;stroke-miterlimit:4;stroke-dasharray:none;stroke-opacity:0.25882353" />
    </clipPath>
    <clipPath
       clipPathUnits="userSpaceOnUse"
       id="clipPath4535">
      <path
         style="fill:#d75e41;fill-opacity:1;stroke:none;stroke-width:10;stroke-linejoin:round;stroke-miterlimit:4;stroke-dasharray:none;stroke-opacity:0.25882353"
         d="m 128,796.36216 a 128,128 0 0 0 -128,128 128,128 0 0 0 128,128.00004 128,128 0 0 0 128,-128.00004 128,128 0 0 0 -128,-128 z m -18,73.04492 c 0.5394,-0.0411 7.87564,3.58361 22.44336,11.0918 11.90295,6.13477 21.74307,11.24671 21.86719,11.35937 0.12411,0.11267 2.668,11.10504 5.65429,24.42774 2.9863,13.3227 5.51901,24.57468 5.62696,25.0039 0.18056,0.71796 -1.3266,2.22222 -18.83399,18.79883 -10.46664,9.91019 -19.98759,18.92041 -21.1582,20.02149 l -2.12891,2.00195 -39.529294,-15.11719 c -21.74063,-8.3146 -39.613869,-15.15398 -39.71875,-15.19726 -0.167129,-0.069 29.195188,-76.44519 29.509766,-76.75977 0.128821,-0.12882 34.891788,-5.52603 36.267578,-5.63086 z"
         id="path4537"
         inkscape:connector-curvature="0" />
    </clipPath>
  </defs>
  <metadata
     id="metadata7">
    <rdf:RDF>
      <cc:Work
         rdf:about="">
        <dc:format>image/svg+xml</dc:format>
        <dc:type
           rdf:resource="http://purl.org/dc/dcmitype/StillImage" />
        <dc:title />
      </cc:Work>
    </rdf:RDF>
  </metadata>
  <g
     transform="translate(0,-796.36216)"
     id="layer1"
     inkscape:groupmode="layer"
     inkscape:label="Layer 1">
    <path
       transform="translate(0,796.36216)"
       id="path4152"
       d="M 128 0 A 128 128 0 0 0 0 128 A 128 128 0 0 0 128 256 A 128 128 0 0 0 256 128 A 128 128 0 0 0 128 0 z M 110 73.044922 C 110.5394 73.003822 117.87564 76.628527 132.44336 84.136719 C 144.34631 90.271489 154.18643 95.383426 154.31055 95.496094 C 154.43466 95.608762 156.97855 106.60113 159.96484 119.92383 C 162.95114 133.24653 165.48385 144.49851 165.5918 144.92773 C 165.77236 145.64569 164.2652 147.14995 146.75781 163.72656 C 136.29117 173.63675 126.77022 182.64697 125.59961 183.74805 L 123.4707 185.75 L 83.941406 170.63281 C 62.200776 162.31821 44.327537 155.47883 44.222656 155.43555 C 44.055527 155.36655 73.417844 78.99036 73.732422 78.675781 C 73.861243 78.54696 108.62421 73.149754 110 73.044922 z "
       style="fill:#d75e41;fill-opacity:1;stroke:none;stroke-width:10;stroke-linejoin:round;stroke-miterlimit:4;stroke-dasharray:none;stroke-opacity:0.25882353" />
    <text
       id="text4914"
       y="927.36218"
       x="120"
       style="font-style:normal;font-weight:normal;font-size:40px;line-height:125%;font-family:sans-serif;letter-spacing:0px;word-spacing:0px;fill:#000000;fill-opacity:1;stroke:none;stroke-width:1px;stroke-linecap:butt;stroke-linejoin:miter;stroke-opacity:1"
       xml:space="preserve"><tspan
         y="927.36218"
         x="120"
         id="tspan4916"
         sodipodi:role="line" /></text>
    <g
       style="stroke:none"
       transform="translate(-4.11162,138)"
       id="g4241">
      <g
         style="stroke:none"
         id="g4446">
        <g
           id="g4448"
           style="fill:none;fill-rule:evenodd;stroke:none;stroke-width:10;stroke-linecap:round;stroke-linejoin:miter;stroke-miterlimit:4;stroke-dasharray:none;stroke-opacity:1">
          <path
             style="stroke:none"
             id="path4450"
             d="m 129.98857,850.41168 c 0,15 0,15 0,15 L -82.143464,1077.5437 c 0,0 0,0 0,-15 z"
             inkscape:connector-curvature="0" />
        </g>
        <path
           inkscape:connector-curvature="0"
           id="path4247"
           d="m 129.98857,850.41168 c 0,15 0,15 0,15"
           style="fill:none;fill-rule:evenodd;stroke:none;stroke-width:10;stroke-linecap:round;stroke-linejoin:miter;stroke-miterlimit:4;stroke-dasharray:none;stroke-opacity:1" />
      </g>
      <g
         style="stroke:none"
         id="g4453">
        <g
           id="g4455"
           style="fill:none;fill-rule:evenodd;stroke:none;stroke-width:10;stroke-linecap:round;stroke-linejoin:miter;stroke-miterlimit:4;stroke-dasharray:none;stroke-opacity:1">
          <path
             style="stroke:none"
             id="path4457"
             d="m 111.58095,850.41168 c 0,15 0,15 0,15 l -212.13203,212.13202 c 0,0 0,0 0,-15 z"
             inkscape:connector-curvature="0" />
        </g>
        <path
           style="fill:none;fill-rule:evenodd;stroke:none;stroke-width:10;stroke-linecap:round;stroke-linejoin:miter;stroke-miterlimit:4;stroke-dasharray:none;stroke-opacity:1"
           d="m 111.58095,850.41168 c 0,15 0,15 0,15"
           id="path4245"
           inkscape:connector-curvature="0" />
      </g>
      <g
         style="stroke:none"
         id="g4460">
        <g
           id="g4462"
           style="fill:none;fill-rule:evenodd;stroke:none;stroke-width:10;stroke-linecap:round;stroke-linejoin:miter;stroke-miterlimit:4;stroke-dasharray:none;stroke-opacity:1">
          <path
             style="stroke:none"
             id="path4464"
             d="m 93.173333,850.41168 c 0,15 0,15 0,15 L -118.9587,1077.5437 c 0,0 0,0 0,-15 z"
             inkscape:connector-curvature="0" />
        </g>
        <path
           inkscape:connector-curvature="0"
           id="path4243"
           d="m 93.173333,850.41168 c 0,15 0,15 0,15"
           style="fill:none;fill-rule:evenodd;stroke:none;stroke-width:10;stroke-linecap:round;stroke-linejoin:miter;stroke-miterlimit:4;stroke-dasharray:none;stroke-opacity:1" />
      </g>
      <g
         style="stroke:none"
         id="g4467">
        <g
           id="g4469"
           style="fill:none;fill-rule:evenodd;stroke:none;stroke-width:10;stroke-linecap:round;stroke-linejoin:miter;stroke-miterlimit:4;stroke-dasharray:none;stroke-opacity:1">
          <path
             style="stroke:none"
             id="path4471"
             d="m 166.80381,850.41168 c 0,15 0,15 0,15 L -45.328224,1077.5437 c 0,0 0,0 0,-15 z"
             inkscape:connector-curvature="0" />
        </g>
        <path
           inkscape:connector-curvature="0"
           id="path4251"
           d="m 166.80381,850.41168 c 0,15 0,15 0,15"
           style="fill:none;fill-rule:evenodd;stroke:none;stroke-width:10;stroke-linecap:round;stroke-linejoin:miter;stroke-miterlimit:4;stroke-dasharray:none;stroke-opacity:1" />
      </g>
      <g
         style="stroke:none"
         id="g4474">
        <g
           id="g4476"
           style="fill:none;fill-rule:evenodd;stroke:none;stroke-width:10;stroke-linecap:round;stroke-linejoin:miter;stroke-miterlimit:4;stroke-dasharray:none;stroke-opacity:1">
          <path
             style="stroke:none"
             id="path4478"
             d="m 148.39619,850.41168 c 0,15 0,15 0,15 L -63.735844,1077.5437 c 0,0 0,0 0,-15 z"
             inkscape:connector-curvature="0" />
        </g>
        <path
           style="fill:none;fill-rule:evenodd;stroke:none;stroke-width:10;stroke-linecap:round;stroke-linejoin:miter;stroke-miterlimit:4;stroke-dasharray:none;stroke-opacity:1"
           d="m 148.39619,850.41168 c 0,15 0,15 0,15"
           id="path4249"
           inkscape:connector-curvature="0" />
      </g>
    </g>
    <text
       id="text4291"
       y="997.36218"
       x="120"
       style="font-style:normal;font-weight:normal;font-size:40px;line-height:125%;font-family:sans-serif;letter-spacing:0px;word-spacing:0px;fill:#000000;fill-opacity:1;stroke:none;stroke-width:1px;stroke-linecap:butt;stroke-linejoin:miter;stroke-opacity:1"
       xml:space="preserve"><tspan
         y="997.36218"
         x="120"
         id="tspan4293"
         sodipodi:role="line" /></text>
    <g
       id="g4441"
       clip-path="url(#clipPath4535)"
       style="fill:#a33b22;fill-opacity:1">
      <g
         id="g4438"
         style="fill:#a33b22;fill-opacity:1;stroke:none;stroke-width:1.88046384">
        <path
           id="path4416"
           d="M83.942286 966.9947C62.201656 958.6801 44.328055 951.84182 44.223174 951.79854L-97.1981822373 1093.21989624C-97.0933012373 1093.26317624 -79.2197002373 1100.10145624 -57.4790702373 1108.41605624Z"
           style="fill:#a33b22;fill-opacity:1" />
        <path
           id="path4418"
           d="M44.223174 951.79854C44.056045 951.72954 73.41717 875.35401 73.731748 875.03943L-67.6896082373 1016.46078624C-68.0041862373 1016.77536624 -97.3653112373 1093.15089624 -97.1981822373 1093.21989624Z"
           style="fill:#a33b22;fill-opacity:1" />
        <path
           id="path4420"
           d="M73.731748 875.03943C73.860569 874.91061 108.62429 869.51212 110.00008 869.40729L-31.4212762373 1010.82864624C-32.7970662373 1010.93347624 -67.5607872373 1016.33196624 -67.6896082373 1016.46078624Z"
           style="fill:#a33b22;fill-opacity:1" />
        <path
           id="path4422"
           d="M110.00008 869.40729C110.53948 869.36619 117.87542 872.99216 132.44314 880.50035L-8.97821623731 1021.92170624C-23.5459362373 1014.41351624 -30.8818762373 1010.78754624 -31.4212762373 1010.82864624Z"
           style="fill:#a33b22;fill-opacity:1" />
        <path
           id="path4424"
           d="M132.44314 880.50035C144.34609 886.63512 154.18642 891.74666 154.31054 891.85933L12.8891837627 1033.28068624C12.7650637627 1033.16801624 2.92473376269 1028.05647624 -8.97821623731 1021.92170624Z"
           style="fill:#a33b22;fill-opacity:1" />
        <path
           id="path4426"
           d="M154.31054 891.85933C154.43465 891.972 156.97953 902.96458 159.96582 916.28728L18.5444637627 1057.70863624C15.5581737627 1044.38593624 13.0132937627 1033.39335624 12.8891837627 1033.28068624Z"
           style="fill:#a33b22;fill-opacity:1" />
        <path
           id="path4428"
           d="M159.96582 916.28728C162.95212 929.60998 165.48378 940.86156 165.59173 941.29078L24.1703737627 1082.71213624C24.0624237627 1082.28291624 21.5307637627 1071.03133624 18.5444637627 1057.70863624Z"
           style="fill:#a33b22;fill-opacity:1" />
        <path
           id="path4430"
           d="M165.59173 941.29078C165.681075692 941.646044916 165.357179303 942.19386166 162.885949297 944.665091666L21.46459306 1086.0864479C23.9358230656 1083.6152179 24.2597194549 1083.06740115 24.1703737627 1082.71213624Z"
           style="fill:#a33b22;fill-opacity:1" />
        <path
           id="path4432"
           d="M162.885949297 944.665091666C160.363034886 947.188006077 155.602026999 951.715629323 146.75774 960.08971L5.33638376269 1101.51106624C14.1806707617 1093.13698556 18.9416786484 1088.60936231 21.46459306 1086.0864479Z"
           style="fill:#a33b22;fill-opacity:1" />
        <path
           id="path4434"
           d="M146.75774 960.08971C136.2911 969.9999 126.7697 979.00911 125.59909 980.11019L-15.8222662373 1121.53154624C-14.6516562373 1120.43046624 -5.13025623731 1111.42125624 5.33638376269 1101.51106624Z"
           style="fill:#a33b22;fill-opacity:1" />
        <path
           id="path4436"
           d="M125.59909 980.11019L123.4707 982.11216L-17.9506562373 1123.53351624L-15.8222662373 1121.53154624Z"
           style="fill:#a33b22;fill-opacity:1" />
      </g>
      <path
         style="fill:#a33b22;fill-opacity:1;stroke:none;stroke-width:1.88046384"
         d="m 83.942286,966.9947 c -21.74063,-8.3146 -39.614231,-15.15288 -39.719112,-15.19616 -0.167129,-0.069 29.193996,-76.44453 29.508574,-76.75911 0.128821,-0.12882 34.892542,-5.52731 36.268332,-5.63214 0.5394,-0.0411 7.87534,3.58487 22.44306,11.09306 11.90295,6.13477 21.74328,11.24631 21.8674,11.35898 0.12411,0.11267 2.66899,11.10525 5.65528,24.42795 2.9863,13.3227 5.51796,24.57428 5.62591,25.0035 0.18056,0.71796 -1.3266,2.22232 -18.83399,18.79893 -10.46664,9.91019 -19.98804,18.9194 -21.15865,20.02048 l -2.12839,2.00197 z"
         id="path4340"
         inkscape:connector-curvature="0" />
    </g>
    <g
       clip-path="url(#clipPath4379)"
       transform="matrix(3.7639566,0,0,3.7639566,-256.23335,-2528.5194)"
       id="g4375">
      <path
         style="fill:none;stroke:#000000;stroke-width:1px;stroke-linecap:butt;stroke-linejoin:miter;stroke-opacity:1"
         d="m 95.565402,882.11216 2,20.03899 12.028828,6.208 3.11506,13.89531 -11.69784,11.07663 -21.940845,-8.39124 8.189934,-21.20613 10.304863,-1.58257"
         id="path4357"
         inkscape:connector-curvature="0" />
      <path
         style="fill:none;stroke:#000000;stroke-width:1px;stroke-linecap:butt;stroke-linejoin:miter;stroke-opacity:1"
         d="M 87.260539,903.73372 69.565402,891.8594"
         id="path4359"
         inkscape:connector-curvature="0" />
      <path
         style="fill:none;stroke:#000000;stroke-width:1px;stroke-linecap:butt;stroke-linejoin:miter;stroke-opacity:1"
         d="m 69.336614,929.14701 9.733991,-4.20716"
         id="path4361"
         inkscape:connector-curvature="0" />
      <path
         style="fill:none;stroke:#000000;stroke-width:1px;stroke-linecap:butt;stroke-linejoin:miter;stroke-opacity:1"
         d="m 109.59423,908.35915 27.23218,-23.33867"
         id="path4363"
         inkscape:connector-curvature="0" />
      <path
         style="fill:none;stroke:#000000;stroke-width:1px;stroke-linecap:butt;stroke-linejoin:miter;stroke-opacity:1"
         d="m 112.70929,922.25446 23.8978,11.61716"
         id="path4365"
         inkscape:connector-curvature="0" />
      <path
         style="fill:none;stroke:#000000;stroke-width:1px;stroke-linecap:butt;stroke-linejoin:miter;stroke-opacity:1"
         d="m 101.01145,933.33109 0.0346,19.31398"
         id="path4367"
         inkscape:connector-curvature="0" />
    </g>
    <path
       inkscape:connector-curvature="0"
       id="path4397"
       d="m 83.942286,966.9947 c -21.74063,-8.3146 -39.614231,-15.15288 -39.719112,-15.19616 -0.167129,-0.069 29.193996,-76.44453 29.508574,-76.75911 0.128821,-0.12882 34.892542,-5.52731 36.268332,-5.63214 0.5394,-0.0411 7.87534,3.58487 22.44306,11.09306 11.90295,6.13477 21.74328,11.24631 21.8674,11.35898 0.12411,0.11267 2.66899,11.10525 5.65528,24.42795 2.9863,13.3227 5.51796,24.57428 5.62591,25.0035 0.18056,0.71796 -1.3266,2.22232 -18.83399,18.79893 -10.46664,9.91019 -19.98804,18.9194 -21.15865,20.02048 l -2.12839,2.00197 z"
       style="fill:#0c37b7;fill-opacity:1;stroke:none;stroke-width:1.88046384" />
  </g>
</svg>
