<?xml version="1.0" encoding="UTF-8" standalone="no"?>
<!-- Created with Inkscape (http://www.inkscape.org/) -->

<svg
   xmlns:dc="http://purl.org/dc/elements/1.1/"
   xmlns:cc="http://creativecommons.org/ns#"
   xmlns:rdf="http://www.w3.org/1999/02/22-rdf-syntax-ns#"
   xmlns:svg="http://www.w3.org/2000/svg"
   xmlns="http://www.w3.org/2000/svg"
   xmlns:sodipodi="http://sodipodi.sourceforge.net/DTD/sodipodi-0.dtd"
   xmlns:inkscape="http://www.inkscape.org/namespaces/inkscape"
   sodipodi:docname="xonotic.svg"
   inkscape:version="0.92.0 r"
   version="1.1"
   id="svg2"
   viewBox="0 0 256 256"
   height="256"
   width="256">
  <sodipodi:namedview
     inkscape:window-maximized="1"
     inkscape:window-y="0"
     inkscape:window-x="0"
     inkscape:window-height="1054"
     inkscape:window-width="1920"
     units="px"
     showgrid="true"
     inkscape:current-layer="layer1"
     inkscape:document-units="px"
     inkscape:cy="128"
     inkscape:cx="128"
     inkscape:zoom="3.3359375"
     inkscape:pageshadow="2"
     inkscape:pageopacity="0.0"
     borderopacity="1.0"
     bordercolor="#666666"
     pagecolor="#ffffff"
     id="base">
    <inkscape:grid
       spacingy="5"
       spacingx="5"
       id="grid4168"
       type="xygrid" />
  </sodipodi:namedview>
  <defs
     id="defs4">
    <clipPath
       id="clipPath5002"
       clipPathUnits="userSpaceOnUse">
      <g
         id="g5004">
        <path
           style="fill:#0f9d58;fill-opacity:1;stroke:none;stroke-width:4.85768509;stroke-linejoin:round;stroke-miterlimit:4;stroke-dasharray:none;stroke-opacity:1"
           d="M 88.118406,249.43519 C 46.103287,235.29134 14.771284,201.68742 4.1335861,159.36053 1.3377997,148.23623 0.92261224,144.16281 0.92582381,127.88908 0.92787958,117.47222 1.134384,112.01362 1.6577819,108.54099 4.4653598,89.913336 12.17654,70.638106 23.042737,55.086148 c 3.958678,-5.665755 8.344812,-10.93092 9.101533,-10.925587 0.32809,0.0023 10.488643,18.309713 22.579009,40.683112 12.090365,22.373397 22.374546,41.334697 22.853732,42.136217 0.479186,0.80151 0.924733,2.44098 0.990103,3.64326 0.343424,6.31639 2.524175,14.20976 5.6424,20.42304 2.954444,5.88693 5.065381,8.73258 10.434696,14.06652 6.71418,6.66995 12.88853,10.28643 21.73204,12.72904 3.16587,0.87442 5.10478,1.05037 11.57517,1.05037 8.82596,0 12.60219,-0.76201 19.26429,-3.88733 2.04584,-0.95974 3.93661,-1.66536 4.20172,-1.56805 0.2651,0.0973 -11.0555,17.66459 -25.1569,39.0384 l -25.6389,38.86148 -3.094121,0.11221 c -2.554618,0.0927 -4.195204,-0.25845 -9.409103,-2.01364 z"
           id="path5006"
           inkscape:connector-curvature="0"
           transform="translate(0,796.36216)" />
        <path
           style="fill:#f4b400;fill-opacity:1;stroke:none;stroke-width:4.85768509;stroke-linejoin:round;stroke-miterlimit:4;stroke-dasharray:none;stroke-opacity:1"
           d="m 112.35984,1051.5167 c -10.0014,-1.4495 -12.15632,-1.8201 -12.531784,-2.1556 -0.248854,-0.2223 1.738304,-3.7475 4.550294,-8.0722 7.16635,-11.0213 49.77231,-74.64801 50.25856,-75.05489 3.57509,-2.99158 8.63523,-8.0414 10.57512,-10.55356 3.36154,-4.35318 7.55784,-12.9141 9.06523,-18.494 6.19314,-22.92535 -2.59253,-47.15185 -21.69967,-59.83688 l -2.96081,-1.96565 17.02469,0.29584 c 9.36358,0.1627 31.17032,0.43384 48.45941,0.60252 l 31.43471,0.30668 1.54584,4.18869 c 2.24597,6.08579 4.67816,15.0947 5.93451,21.9816 1.52517,8.36049 1.92536,28.85896 0.73851,37.82758 -3.0805,23.27845 -12.81326,45.72018 -27.80202,64.10577 -20.47622,25.1166 -51.4599,42.1974 -84.14612,46.3885 -5.31244,0.6812 -26.64601,0.9864 -30.44647,0.4356 z"
           id="path5008"
           inkscape:connector-curvature="0" />
        <path
           style="fill:#db4437;fill-opacity:1;stroke:none;stroke-width:10;stroke-linejoin:round;stroke-miterlimit:4;stroke-dasharray:none;stroke-opacity:1"
           d="M 67.989788,108.87302 C 41.284246,59.575543 33.290284,45.149038 32.233625,44.344765 31.651257,43.901497 32.811213,42.549931 38.695603,36.815353 53.43581,22.450419 68.809334,13.040746 87.839196,6.7360352 101.68742,2.1480329 112.58238,0.43719165 127.95142,0.43719165 c 21.3099,0 37.80488,3.80960275 56.83492,13.12633035 25.29351,12.383198 46.19421,33.578863 58.51993,59.345832 1.61138,3.368591 2.92978,6.372442 2.92978,6.675231 0,0.560033 -10.54865,0.49527 -71.16508,-0.436914 l -24.28843,-0.373518 -3.93063,-1.764495 c -6.75732,-3.033425 -10.64587,-3.839529 -18.6576,-3.867747 -5.0296,-0.01773 -7.97946,0.207636 -10.31642,0.788106 -14.50826,3.603659 -26.283291,12.94777 -33.291614,26.418653 -3.58502,6.89086 -5.24713,13.08166 -6.331628,23.58317 l -0.33738,3.26696 -9.92748,-18.32578 z"
           id="path5010"
           inkscape:connector-curvature="0"
           transform="translate(0,796.36216)" />
      </g>
    </clipPath>
    <clipPath
       clipPathUnits="userSpaceOnUse"
       id="clipPath4271">
      <circle
         style="fill:#292929;fill-opacity:0.26020412;stroke:none;stroke-width:10;stroke-linejoin:round;stroke-miterlimit:4;stroke-dasharray:none;stroke-opacity:0.25882353"
         id="circle4273"
         cx="128"
         cy="128.00002"
         r="128" />
    </clipPath>
    <clipPath
       id="clipPath4363"
       clipPathUnits="userSpaceOnUse">
      <circle
         style="fill:#4285f4;fill-opacity:1;stroke:none;stroke-width:10;stroke-linejoin:round;stroke-miterlimit:4;stroke-dasharray:none;stroke-opacity:0.25882353"
         id="circle4365"
         cx="128"
         cy="924.36218"
         r="128" />
    </clipPath>
    <clipPath
       clipPathUnits="userSpaceOnUse"
       id="clipPath4452">
      <circle
         style="fill:#4285f4;fill-opacity:1;stroke:none;stroke-width:10;stroke-linejoin:round;stroke-miterlimit:4;stroke-dasharray:none;stroke-opacity:0.25882353"
         id="circle4454"
         cx="128"
         cy="924.36218"
         r="128" />
    </clipPath>
    <clipPath
       id="clipPath5177"
       clipPathUnits="userSpaceOnUse">
      <circle
         style="fill:#4285f4;fill-opacity:1;stroke:none;stroke-width:10;stroke-linejoin:round;stroke-miterlimit:4;stroke-dasharray:none;stroke-opacity:0.25882353"
         id="circle5179"
         cx="128"
         cy="924.36218"
         r="128" />
    </clipPath>
    <clipPath
       clipPathUnits="userSpaceOnUse"
       id="clipPath4342">
      <circle
         style="fill:#4285f4;fill-opacity:1;stroke:none;stroke-width:10;stroke-linejoin:round;stroke-miterlimit:4;stroke-dasharray:none;stroke-opacity:0.25882353"
         id="circle4344"
         cx="128"
         cy="933.48718"
         r="128" />
    </clipPath>
    <clipPath
       id="clipPath4681"
       clipPathUnits="userSpaceOnUse">
      <circle
         style="fill:#9d5fad;fill-opacity:1;stroke:none;stroke-width:10;stroke-linejoin:round;stroke-miterlimit:4;stroke-dasharray:none;stroke-opacity:0.25882353"
         id="circle4683"
         cx="127.00293"
         cy="930.43964"
         r="128" />
    </clipPath>
    <clipPath
       clipPathUnits="userSpaceOnUse"
       id="clipPath4235">
      <circle
         style="fill:#0f9d58;fill-opacity:1;stroke:none;stroke-width:10;stroke-linejoin:round;stroke-miterlimit:4;stroke-dasharray:none;stroke-opacity:0.25882353"
         id="circle4237"
         cx="128"
         cy="924.36218"
         r="128" />
    </clipPath>
    <clipPath
       id="clipPath4771"
       clipPathUnits="userSpaceOnUse">
      <circle
         style="fill:#0f9d58;fill-opacity:1;stroke:none;stroke-width:10;stroke-linejoin:round;stroke-miterlimit:4;stroke-dasharray:none;stroke-opacity:0.25882353"
         id="circle4773"
         cx="128"
         cy="924.36218"
         r="128" />
    </clipPath>
    <clipPath
       clipPathUnits="userSpaceOnUse"
       id="clipPath4842">
      <circle
         style="fill:#0f9d58;fill-opacity:1;stroke:none;stroke-width:10;stroke-linejoin:round;stroke-miterlimit:4;stroke-dasharray:none;stroke-opacity:0.25882353"
         id="circle4844"
         cx="128"
         cy="924.36218"
         r="128" />
    </clipPath>
    <clipPath
       id="clipPath4458"
       clipPathUnits="userSpaceOnUse">
      <circle
         style="fill:#ff3b38;fill-opacity:1;stroke:none;stroke-width:10;stroke-linejoin:round;stroke-miterlimit:4;stroke-dasharray:none;stroke-opacity:0.25882353"
         id="circle4460"
         cx="128"
         cy="924.36218"
         r="128" />
    </clipPath>
    <clipPath
       clipPathUnits="userSpaceOnUse"
       id="clipPath4783">
      <circle
         style="fill:#ff3b38;fill-opacity:1;stroke:none;stroke-width:10;stroke-linejoin:round;stroke-miterlimit:4;stroke-dasharray:none;stroke-opacity:0.25882353"
         id="circle4785"
         cx="128"
         cy="924.36218"
         r="128" />
    </clipPath>
    <clipPath
       id="clipPath4789"
       clipPathUnits="userSpaceOnUse">
      <circle
         style="fill:#80b4ff;fill-opacity:1;stroke:none;stroke-width:10;stroke-linejoin:round;stroke-miterlimit:4;stroke-dasharray:none;stroke-opacity:0.25882353"
         id="circle4791"
         cx="102.64714"
         cy="924.36218"
         r="128" />
    </clipPath>
    <clipPath
       clipPathUnits="userSpaceOnUse"
       id="clipPath4721">
      <circle
         style="fill:#557ae6;fill-opacity:1;stroke:none;stroke-width:10;stroke-linejoin:round;stroke-miterlimit:4;stroke-dasharray:none;stroke-opacity:0.25882353"
         id="circle4723"
         cx="128"
         cy="924.36218"
         r="128" />
    </clipPath>
    <clipPath
       id="clipPath4491"
       clipPathUnits="userSpaceOnUse">
      <circle
         style="fill:#990000;fill-opacity:1;stroke:none;stroke-width:10;stroke-linejoin:round;stroke-miterlimit:4;stroke-dasharray:none;stroke-opacity:0.25882353"
         id="circle4493"
         cx="128"
         cy="924.36218"
         r="128" />
    </clipPath>
    <clipPath
       clipPathUnits="userSpaceOnUse"
       id="clipPath1102">
      <circle
         style="fill:#b40000;fill-opacity:1;stroke:none;stroke-width:10;stroke-linejoin:round;stroke-miterlimit:4;stroke-dasharray:none;stroke-opacity:0.25882353"
         id="circle1104"
         cx="128"
         cy="924.36218"
         r="128" />
    </clipPath>
    <linearGradient
       id="linearGradient3674">
      <stop
         style="stop-color:#000000;stop-opacity:1;"
         offset="0"
         id="stop3676" />
      <stop
         style="stop-color:#4f0f00;stop-opacity:1;"
         offset="1"
         id="stop3678" />
    </linearGradient>
    <linearGradient
       id="linearGradient3666">
      <stop
         style="stop-color:#3f0f00;stop-opacity:1;"
         offset="0"
         id="stop3668" />
      <stop
         id="stop3671"
         offset="0.75"
         style="stop-color:#ff7f2f;stop-opacity:1;" />
      <stop
         style="stop-color:#ff9f5f;stop-opacity:1;"
         offset="1"
         id="stop3670" />
    </linearGradient>
    <linearGradient
       id="linearGradient3698">
      <stop
         style="stop-color:#000000;stop-opacity:1;"
         offset="0"
         id="stop3700" />
      <stop
         id="stop3706"
         offset="0.5"
         style="stop-color:#0f3f6f;stop-opacity:1;" />
      <stop
         style="stop-color:#000000;stop-opacity:1;"
         offset="1"
         id="stop3702" />
    </linearGradient>
    <linearGradient
       id="linearGradient3606">
      <stop
         style="stop-color:#bfdfff;stop-opacity:1;"
         offset="0"
         id="stop3608" />
      <stop
         id="stop3616"
         offset="0.2"
         style="stop-color:#5fafff;stop-opacity:1;" />
      <stop
         id="stop3614"
         offset="0.80000001"
         style="stop-color:#5fafff;stop-opacity:1;" />
      <stop
         style="stop-color:#bfdfff;stop-opacity:1;"
         offset="1"
         id="stop3610" />
    </linearGradient>
    <clipPath
       id="clipPath5076"
       clipPathUnits="userSpaceOnUse">
      <circle
         style="fill:#4c0e00;fill-opacity:1;stroke:none;stroke-width:10;stroke-linejoin:round;stroke-miterlimit:4;stroke-dasharray:none;stroke-opacity:0.25882353"
         id="circle5078"
         cx="128"
         cy="915.487"
         r="128" />
    </clipPath>
    <clipPath
       clipPathUnits="userSpaceOnUse"
       id="clipPath5396">
      <circle
         style="fill:#ef762b;fill-opacity:1;stroke:none;stroke-width:8.82352924;stroke-linejoin:round;stroke-miterlimit:4;stroke-dasharray:none;stroke-opacity:0.25882353"
         id="circle5398"
         cx="128"
         cy="924.36243"
         r="112.94118" />
    </clipPath>
  </defs>
  <metadata
     id="metadata7">
    <rdf:RDF>
      <cc:Work
         rdf:about="">
        <dc:format>image/svg+xml</dc:format>
        <dc:type
           rdf:resource="http://purl.org/dc/dcmitype/StillImage" />
        <dc:title />
      </cc:Work>
    </rdf:RDF>
  </metadata>
  <g
     inkscape:label="Layer 1"
     inkscape:groupmode="layer"
     id="layer1"
     transform="translate(0,-796.36216)">
    <circle
       r="128"
       cy="924.36218"
       cx="128"
       id="path4152"
       style="fill:#ff8538;fill-opacity:1;stroke:none;stroke-width:10;stroke-linejoin:round;stroke-miterlimit:4;stroke-dasharray:none;stroke-opacity:0.25882353" />
    <text
       xml:space="preserve"
       style="font-style:normal;font-weight:normal;font-size:40px;line-height:125%;font-family:sans-serif;letter-spacing:0px;word-spacing:0px;fill:#000000;fill-opacity:1;stroke:none;stroke-width:1px;stroke-linecap:butt;stroke-linejoin:miter;stroke-opacity:1"
       x="120"
       y="927.36218"
       id="text4914"><tspan
         sodipodi:role="line"
         id="tspan4916"
         x="120"
         y="927.36218" /></text>
    <g
       id="g4241"
       transform="translate(-4.11162,138)"
       style="stroke:none">
      <g
         id="g4446"
         style="stroke:none">
        <g
           style="fill:none;fill-rule:evenodd;stroke:none;stroke-width:10;stroke-linecap:round;stroke-linejoin:miter;stroke-miterlimit:4;stroke-dasharray:none;stroke-opacity:1"
           id="g4448">
          <path
             inkscape:connector-curvature="0"
             d="m 129.98857,850.41168 c 0,15 0,15 0,15 L -82.143464,1077.5437 c 0,0 0,0 0,-15 z"
             id="path4450"
             style="stroke:none" />
        </g>
        <path
           style="fill:none;fill-rule:evenodd;stroke:none;stroke-width:10;stroke-linecap:round;stroke-linejoin:miter;stroke-miterlimit:4;stroke-dasharray:none;stroke-opacity:1"
           d="m 129.98857,850.41168 c 0,15 0,15 0,15"
           id="path4247"
           inkscape:connector-curvature="0" />
      </g>
      <g
         id="g4453"
         style="stroke:none">
        <g
           style="fill:none;fill-rule:evenodd;stroke:none;stroke-width:10;stroke-linecap:round;stroke-linejoin:miter;stroke-miterlimit:4;stroke-dasharray:none;stroke-opacity:1"
           id="g4455">
          <path
             inkscape:connector-curvature="0"
             d="m 111.58095,850.41168 c 0,15 0,15 0,15 l -212.13203,212.13202 c 0,0 0,0 0,-15 z"
             id="path4457"
             style="stroke:none" />
        </g>
        <path
           inkscape:connector-curvature="0"
           id="path4245"
           d="m 111.58095,850.41168 c 0,15 0,15 0,15"
           style="fill:none;fill-rule:evenodd;stroke:none;stroke-width:10;stroke-linecap:round;stroke-linejoin:miter;stroke-miterlimit:4;stroke-dasharray:none;stroke-opacity:1" />
      </g>
      <g
         id="g4460"
         style="stroke:none">
        <g
           style="fill:none;fill-rule:evenodd;stroke:none;stroke-width:10;stroke-linecap:round;stroke-linejoin:miter;stroke-miterlimit:4;stroke-dasharray:none;stroke-opacity:1"
           id="g4462">
          <path
             inkscape:connector-curvature="0"
             d="m 93.173333,850.41168 c 0,15 0,15 0,15 L -118.9587,1077.5437 c 0,0 0,0 0,-15 z"
             id="path4464"
             style="stroke:none" />
        </g>
        <path
           style="fill:none;fill-rule:evenodd;stroke:none;stroke-width:10;stroke-linecap:round;stroke-linejoin:miter;stroke-miterlimit:4;stroke-dasharray:none;stroke-opacity:1"
           d="m 93.173333,850.41168 c 0,15 0,15 0,15"
           id="path4243"
           inkscape:connector-curvature="0" />
      </g>
      <g
         id="g4467"
         style="stroke:none">
        <g
           style="fill:none;fill-rule:evenodd;stroke:none;stroke-width:10;stroke-linecap:round;stroke-linejoin:miter;stroke-miterlimit:4;stroke-dasharray:none;stroke-opacity:1"
           id="g4469">
          <path
             inkscape:connector-curvature="0"
             d="m 166.80381,850.41168 c 0,15 0,15 0,15 L -45.328224,1077.5437 c 0,0 0,0 0,-15 z"
             id="path4471"
             style="stroke:none" />
        </g>
        <path
           style="fill:none;fill-rule:evenodd;stroke:none;stroke-width:10;stroke-linecap:round;stroke-linejoin:miter;stroke-miterlimit:4;stroke-dasharray:none;stroke-opacity:1"
           d="m 166.80381,850.41168 c 0,15 0,15 0,15"
           id="path4251"
           inkscape:connector-curvature="0" />
      </g>
      <g
         id="g4474"
         style="stroke:none">
        <g
           style="fill:none;fill-rule:evenodd;stroke:none;stroke-width:10;stroke-linecap:round;stroke-linejoin:miter;stroke-miterlimit:4;stroke-dasharray:none;stroke-opacity:1"
           id="g4476">
          <path
             inkscape:connector-curvature="0"
             d="m 148.39619,850.41168 c 0,15 0,15 0,15 L -63.735844,1077.5437 c 0,0 0,0 0,-15 z"
             id="path4478"
             style="stroke:none" />
        </g>
        <path
           inkscape:connector-curvature="0"
           id="path4249"
           d="m 148.39619,850.41168 c 0,15 0,15 0,15"
           style="fill:none;fill-rule:evenodd;stroke:none;stroke-width:10;stroke-linecap:round;stroke-linejoin:miter;stroke-miterlimit:4;stroke-dasharray:none;stroke-opacity:1" />
      </g>
    </g>
    <text
       xml:space="preserve"
       style="font-style:normal;font-weight:normal;font-size:40px;line-height:125%;font-family:sans-serif;letter-spacing:0px;word-spacing:0px;fill:#000000;fill-opacity:1;stroke:none;stroke-width:1px;stroke-linecap:butt;stroke-linejoin:miter;stroke-opacity:1"
       x="120"
       y="997.36218"
       id="text4291"><tspan
         sodipodi:role="line"
         id="tspan4293"
         x="120"
         y="997.36218" /></text>
    <g
       id="g5090"
       transform="matrix(1.1333333,0,0,1.1333333,-17.066662,-123.24856)"
       clip-path="url(#clipPath5396)"
       style="stroke:none;fill:#762f0d;fill-opacity:1">
      <g
         id="g5260"
         transform="matrix(0.88235297,0,0,0.88235297,15.05882,811.42125)"
         style="stroke:none;fill:#762f0d;fill-opacity:1">
        <g
           id="g5257"
           style="fill:#762f0d;fill-opacity:1;fill-rule:evenodd;stroke:none;stroke-width:2.21884608;stroke-linejoin:round;stroke-miterlimit:4;stroke-dasharray:none;stroke-opacity:1">
          <path
             id="path5179"
             d="M90.058594 43.503906C80.7969562204 47.8950583789 72.4141280377 53.8421819098 65.249236425 61.0070735226L-76.1721198123 202.42842976C-69.0072281996 195.263538147 -60.624400017 189.316414616 -51.3627622373 184.925262237Z"
             style="stroke:none;fill:#762f0d;fill-opacity:1" />
          <path
             id="path5181"
             d="M65.249236425 61.0070735226C49.1873230696 77.068986878 39.246094 99.2507377903 39.246094 123.74219L-102.175262237 265.163546237C-102.175262237 240.672094028 -92.2340331677 218.490343115 -76.1721198123 202.42842976Z"
             style="stroke:none;fill:#762f0d;fill-opacity:1" />
          <path
             id="path5183"
             d="M39.246094 123.74219C39.246094 172.73433 79.007807 212.49609 128.0 212.49609L-13.4213562373 353.917446237C-62.4135492373 353.917446237 -102.175262237 314.155686237 -102.175262237 265.163546237Z"
             style="stroke:none;fill:#762f0d;fill-opacity:1" />
          <path
             id="path5185"
             d="M128.0 212.49609C152.496065 212.49609 174.684546557 202.555645942 190.749009836 186.491182664L49.3276535991 327.912538901C33.2631903202 343.97700218 11.0747087624 353.917446237 -13.4213562373 353.917446237Z"
             style="stroke:none;fill:#762f0d;fill-opacity:1" />
          <path
             id="path5187"
             d="M190.749009836 186.491182664C206.813466558 170.426725943 216.75391 148.238255 216.75391 123.74219L75.3325537627 265.163546237C75.3325537627 289.659611238 65.3921103204 311.84808218 49.3276535991 327.912538901Z"
             style="stroke:none;fill:#762f0d;fill-opacity:1" />
          <path
             id="path5189"
             d="M216.75391 123.74219C216.75391 88.325601 195.96538 57.738935 165.94141 43.503906L24.5200537627 184.925262237C54.5440237627 199.160291237 75.3325537627 229.746957237 75.3325537627 265.163546237Z"
             style="stroke:none;fill:#762f0d;fill-opacity:1" />
          <path
             id="path5191"
             d="M165.94141 43.503906C189.63819 56.806859 205.66016 82.169733 205.66016 111.26172L64.2388037627 252.683076237C64.2388037627 223.591089237 48.2168337627 198.228215237 24.5200537627 184.925262237Z"
             style="stroke:none;fill:#762f0d;fill-opacity:1" />
          <path
             id="path5193"
             d="M205.66016 111.26172C205.66016 132.692601688 196.963379426 152.102897389 182.909316088 166.156960727L41.4879598511 307.578316964C55.5420231886 293.524253627 64.2388037627 274.113957925 64.2388037627 252.683076237Z"
             style="stroke:none;fill:#762f0d;fill-opacity:1" />
          <path
             id="path5195"
             d="M182.909316088 166.156960727C172.160538924 176.905737891 158.27805124 184.521418959 142.75586 187.51172L1.33450376269 328.933076237C16.8566950026 325.942775196 30.7391826871 318.327094128 41.4879598511 307.578316964Z"
             style="stroke:none;fill:#762f0d;fill-opacity:1" />
          <path
             id="path5197"
             d="M142.75586 187.51172C142.217958323 187.615363802 141.666911573 187.977063208 141.106561018 188.537413763L-0.314795219254 329.958770001C0.245555336121 329.398419445 0.796602085358 329.03672004 1.33450376269 328.933076237Z"
             style="stroke:none;fill:#762f0d;fill-opacity:1" />
          <path
             id="path5199"
             d="M141.106561018 188.537413763C137.220037292 192.423937489 132.885940767 205.866856744 129.385949369 209.045263253L-12.035406868 350.466619491C-8.53541547079 347.288212981 -4.20131894504 333.845293726 -0.314795219254 329.958770001Z"
             style="stroke:none;fill:#762f0d;fill-opacity:1" />
          <path
             id="path5201"
             d="M129.385949369 209.045263253C128.907271578 209.479959353 128.444195539 209.72266 128.0 209.72266L-13.4213562373 351.144016237C-12.9771606979 351.144016237 -12.5140846594 350.90131559 -12.035406868 350.466619491Z"
             style="stroke:none;fill:#762f0d;fill-opacity:1" />
          <path
             id="path5203"
             d="M128.0 209.72266C123.83967 209.72266 118.02311 188.43254 113.24414 187.51172L-28.1772162373 328.933076237C-23.3982462373 329.853896237 -17.5816862373 351.144016237 -13.4213562373 351.144016237Z"
             style="stroke:none;fill:#762f0d;fill-opacity:1" />
          <path
             id="path5205"
             d="M113.24414 187.51172C77.426725 180.61159 50.339844 149.08329 50.339844 111.26172L-91.0815122373 252.683076237C-91.0815122373 290.504646237 -63.9946312373 322.032946237 -28.1772162373 328.933076237Z"
             style="stroke:none;fill:#762f0d;fill-opacity:1" />
          <path
             id="path5207"
             d="M50.339844 111.26172C50.339844 89.8299415288 59.0351384601 70.4219984991 73.0884993535 56.3686376057L-68.3328568838 197.789993843C-82.3862177772 211.843354736 -91.0815122373 231.251297766 -91.0815122373 252.683076237Z"
             style="stroke:none;fill:#762f0d;fill-opacity:1" />
          <path
             id="path5209"
             d="M73.0884993535 56.3686376057C78.1114924345 51.3456445248 83.8189845746 47.0067053801 90.058594 43.503906L-51.3627622373 184.925262237C-57.6023716628 188.428061617 -63.3098638028 192.767000762 -68.3328568838 197.789993843Z"
             style="stroke:none;fill:#762f0d;fill-opacity:1" />
          <path
             id="path5211"
             d="M150.94727 71.355469C127.37104 75.158289 97.200267 104.60072 67.804688 128.25781L-73.6166682373 269.679166237C-44.2210892373 246.022076237 -14.0503162373 216.579645237 9.52591376269 212.776825237Z"
             style="stroke:none;fill:#762f0d;fill-opacity:1" />
          <path
             id="path5213"
             d="M67.804688 128.25781L103.94727 111.57227L-37.4740862373 252.993626237L-73.6166682373 269.679166237Z"
             style="stroke:none;fill:#762f0d;fill-opacity:1" />
          <path
             id="path5215"
             d="M103.94727 111.57227L83.060547 133.7832L-58.3608092373 275.204556237L-37.4740862373 252.993626237Z"
             style="stroke:none;fill:#762f0d;fill-opacity:1" />
          <path
             id="path5217"
             d="M83.060547 133.7832L101.10938 125.33203L-40.3119762373 266.753386237L-58.3608092373 275.204556237Z"
             style="stroke:none;fill:#762f0d;fill-opacity:1" />
          <path
             id="path5219"
             d="M101.10938 125.33203C96.7366456088 133.95147721 95.9364209569 147.212420293 87.9793418871 155.169499362L-53.4420143502 296.5908556C-45.4849352804 288.63377653 -44.6847106285 275.372833447 -40.3119762373 266.753386237Z"
             style="stroke:none;fill:#762f0d;fill-opacity:1" />
          <path
             id="path5221"
             d="M87.9793418871 155.169499362C85.1547828062 157.994058443 81.4284114092 160.150294598 76.320312 161.19336L-65.1010442373 302.614716237C-59.9929448281 301.571650835 -56.2665734311 299.415414681 -53.4420143502 296.5908556Z"
             style="stroke:none;fill:#762f0d;fill-opacity:1" />
          <path
             id="path5223"
             d="M76.320312 161.19336C86.472777 171.24119 99.521033 178.37617 114.11133 181.17188L-27.3100262373 322.593236237C-41.9003232373 319.797526237 -54.9485792373 312.662546237 -65.1010442373 302.614716237Z"
             style="stroke:none;fill:#762f0d;fill-opacity:1" />
          <path
             id="path5225"
             d="M114.11133 181.17188C121.06683 182.4939 125.91983 201.9082 128.0 201.9082L-13.4213562373 343.329556237C-15.5015262373 343.329556237 -20.3545262373 323.915256237 -27.3100262373 322.593236237Z"
             style="stroke:none;fill:#762f0d;fill-opacity:1" />
          <path
             id="path5227"
             d="M128.0 201.9082C128.140514844 201.9082 128.293682004 201.819613306 128.459294865 201.654000445L-12.9620613721 343.075356682C-13.1276742333 343.240969544 -13.2808413929 343.329556237 -13.4213562373 343.329556237Z"
             style="stroke:none;fill:#762f0d;fill-opacity:1" />
          <path
             id="path5229"
             d="M128.459294865 201.654000445C130.370452093 199.742843218 133.938996967 187.57415108 138.847413309 182.913720022L-2.57394292868 324.33507626C-7.48235926998 328.995507317 -11.0509041446 341.164199455 -12.9620613721 343.075356682Z"
             style="stroke:none;fill:#762f0d;fill-opacity:1" />
          <path
             id="path5231"
             d="M138.847413309 182.913720022C139.810392723 181.9993927 140.824944183 181.374060548 141.88867 181.17188L0.467313762691 322.593236237C-0.596412054677 322.795416786 -1.61096351451 323.420748937 -2.57394292868 324.33507626Z"
             style="stroke:none;fill:#762f0d;fill-opacity:1" />
          <path
             id="path5233"
             d="M141.88867 181.17188C156.606583483 178.351886367 169.751086175 171.115703419 179.939751711 160.927037882L38.5183954739 302.348394119C28.3297299373 312.537059656 15.1852272454 319.773242604 0.467313762691 322.593236237Z"
             style="stroke:none;fill:#762f0d;fill-opacity:1" />
          <path
             id="path5235"
             d="M179.939751711 160.927037882C180.23842613 160.628363463 180.534560502 160.327151878 180.82812 160.02344L39.4067637627 301.444796237C39.1132042642 301.748508115 38.8170698931 302.0497197 38.5183954739 302.348394119Z"
             style="stroke:none;fill:#762f0d;fill-opacity:1" />
          <path
             id="path5237"
             d="M180.82812 160.02344C141.170283126 160.519173244 133.928597668 129.698683428 153.409042478 110.218238618L11.9876862403 251.639594855C-7.49275856948 271.120039665 -0.251073111043 301.940529481 39.4067637627 301.444796237Z"
             style="stroke:none;fill:#762f0d;fill-opacity:1" />
          <path
             id="path5239"
             d="M153.409042478 110.218238618C159.266803183 104.360477913 167.540784536 99.5280864655 178.07617 96.880859L36.6548137627 238.302215237C26.1194282986 240.949442703 17.8454469456 245.78183415 11.9876862403 251.639594855Z"
             style="stroke:none;fill:#762f0d;fill-opacity:1" />
          <path
             id="path5241"
             d="M178.07617 96.880859C174.56138 93.605968 162.86316 94.219535 153.28711 95.732422L11.8657537627 237.153778237C21.4418037627 235.640891237 33.1400237627 235.027324237 36.6548137627 238.302215237Z"
             style="stroke:none;fill:#762f0d;fill-opacity:1" />
          <path
             id="path5243"
             d="M153.28711 95.732422C153.73595577 92.7308415247 155.208864949 90.1500082818 157.350030089 88.0088431422L15.9286738514 229.43019938C13.7875087118 231.571364519 12.3145995329 234.152197762 11.8657537627 237.153778237Z"
             style="stroke:none;fill:#762f0d;fill-opacity:1" />
          <path
             id="path5245"
             d="M157.350030089 88.0088431422C163.169628335 82.1892448955 173.92583321 79.6176064134 182.47461 80.673828L41.0532537627 222.095184237C32.5044769725 221.038962651 21.7482720981 223.610601133 15.9286738514 229.43019938Z"
             style="stroke:none;fill:#762f0d;fill-opacity:1" />
          <path
             id="path5247"
             d="M182.47461 80.673828C175.79144 73.893798 167.65473 68.995979 154.1543 74.628906L12.7329437627 216.050262237C26.2333737627 210.417335237 34.3700837627 215.315154237 41.0532537627 222.095184237Z"
             style="stroke:none;fill:#762f0d;fill-opacity:1" />
          <path
             id="path5249"
             d="M154.1543 74.628906L150.94727 71.355469L9.52591376269 212.776825237L12.7329437627 216.050262237Z"
             style="stroke:none;fill:#762f0d;fill-opacity:1" />
          <path
             id="path5251"
             d="M144.46875 80.759766L147.97852 84.226562L6.55716376269 225.647918237L3.04739376269 222.181122237Z"
             style="stroke:none;fill:#762f0d;fill-opacity:1" />
          <path
             id="path5253"
             d="M147.97852 84.226562C143.39536 88.107855 139.32209 88.366052 135.45312 84.898438L-5.96823623731 226.319794237C-2.09926623731 229.787408237 1.97400376269 229.529211237 6.55716376269 225.647918237Z"
             style="stroke:none;fill:#762f0d;fill-opacity:1" />
          <path
             id="path5255"
             d="M135.45312 84.898438L144.46875 80.759766L3.04739376269 222.181122237L-5.96823623731 226.319794237Z"
             style="stroke:none;fill:#762f0d;fill-opacity:1" />
        </g>
        <path
           id="path5086"
           transform=""
           d="M 90.058594 43.503906 C 60.034657 57.738935 39.246094 88.325601 39.246094 123.74219 C 39.246094 172.73433 79.007807 212.49609 128 212.49609 C 176.99212 212.49609 216.75391 172.73433 216.75391 123.74219 C 216.75391 88.325601 195.96538 57.738935 165.94141 43.503906 C 189.63819 56.806859 205.66016 82.169733 205.66016 111.26172 C 205.66016 149.08329 178.57337 180.61159 142.75586 187.51172 C 137.97689 188.43254 132.16033 209.72266 128 209.72266 C 123.83967 209.72266 118.02311 188.43254 113.24414 187.51172 C 77.426725 180.61159 50.339844 149.08329 50.339844 111.26172 C 50.339844 82.169733 66.361767 56.806859 90.058594 43.503906 z M 150.94727 71.355469 C 127.37104 75.158289 97.200267 104.60072 67.804688 128.25781 L 103.94727 111.57227 L 83.060547 133.7832 L 101.10938 125.33203 C 95.184437 137.01116 95.818463 157.21187 76.320312 161.19336 C 86.472777 171.24119 99.521033 178.37617 114.11133 181.17188 C 121.06683 182.4939 125.91983 201.9082 128 201.9082 C 130.08017 201.9082 134.93317 182.4939 141.88867 181.17188 C 157.03803 178.26922 170.52038 170.68766 180.82812 160.02344 C 129.24519 160.66824 132.50453 108.33165 178.07617 96.880859 C 174.56138 93.605968 162.86316 94.219535 153.28711 95.732422 C 154.9559 84.57267 170.78054 79.228998 182.47461 80.673828 C 175.79144 73.893798 167.65473 68.995979 154.1543 74.628906 L 150.94727 71.355469 z M 144.46875 80.759766 L 147.97852 84.226562 C 143.39536 88.107855 139.32209 88.366052 135.45312 84.898438 L 144.46875 80.759766 z "
           style="fill:#762f0d;fill-opacity:1;fill-rule:evenodd;stroke:none;stroke-width:2.21884608;stroke-linejoin:round;stroke-miterlimit:4;stroke-dasharray:none;stroke-opacity:1" />
      </g>
    </g>
    <g
       transform="matrix(1.1333333,0,0,1.1333333,-17.066662,-123.24856)"
       id="g5084">
      <path
         sodipodi:nodetypes="cccccccsccccccccccc"
         id="PhoenixHead"
         d="m 148.24724,874.38254 c -20.80255,3.35543 -47.4231,29.33342 -73.360377,50.20733 l 31.890807,-14.72209 -18.430898,19.59742 15.926278,-7.45689 c -5.227887,10.30511 -4.668116,28.12898 -21.872367,31.64206 8.958057,8.86573 20.470147,15.16126 33.343937,17.62806 6.13721,1.16649 10.41991,18.29726 12.25535,18.29726 1.83544,0 6.11814,-17.13077 12.25535,-18.29726 13.36708,-2.56117 25.26219,-9.2506 34.35726,-18.66021 -45.51436,0.56894 -42.63838,-45.60962 -2.42811,-55.71326 -3.10129,-2.88961 -13.42291,-2.34819 -21.87237,-1.01329 1.47246,-9.84684 15.43522,-14.56273 25.75352,-13.28788 -5.89691,-5.98238 -13.07661,-10.30447 -24.98876,-5.33424 z m -5.71667,8.29775 3.09728,3.05909 c -4.04396,3.42467 -7.63708,3.65231 -11.05087,0.59265 z"
         style="fill:#f9f9f9;fill-opacity:1;fill-rule:evenodd;stroke:#ffffff;stroke-width:1.9578054;stroke-linejoin:round;stroke-miterlimit:4;stroke-dasharray:none;stroke-opacity:1"
         inkscape:connector-curvature="0" />
      <path
         id="RingBorder"
         d="m 94.52226,849.80685 c -26.49171,12.56032 -44.83451,39.54847 -44.83451,70.7984 0,43.22836 35.083873,78.31222 78.31228,78.31222 43.22834,0 78.31222,-35.08386 78.31222,-78.31222 0,-31.24993 -18.34274,-58.23808 -44.83448,-70.7984 20.90893,11.7379 35.04545,34.11634 35.04545,59.78574 0,33.37198 -23.89936,61.19202 -55.50305,67.28037 -4.21674,0.81249 -9.34926,19.59725 -13.02014,19.59725 -3.67088,0 -8.80352,-18.78476 -13.02026,-19.59725 -31.603603,-6.08835 -55.502992,-33.90839 -55.502992,-67.28037 0,-25.6694 14.136517,-48.04784 35.045482,-59.78574 z"
         style="fill:#ffffff;fill-opacity:1;stroke:#ffffff;stroke-width:0.88991195;stroke-linejoin:round;stroke-miterlimit:4;stroke-dasharray:none;stroke-opacity:1"
         inkscape:connector-curvature="0" />
    </g>
  </g>
</svg>
