<?xml version="1.0" encoding="UTF-8" standalone="no"?>
<!-- Created with Inkscape (http://www.inkscape.org/) -->

<svg
   xmlns:dc="http://purl.org/dc/elements/1.1/"
   xmlns:cc="http://creativecommons.org/ns#"
   xmlns:rdf="http://www.w3.org/1999/02/22-rdf-syntax-ns#"
   xmlns:svg="http://www.w3.org/2000/svg"
   xmlns="http://www.w3.org/2000/svg"
   xmlns:sodipodi="http://sodipodi.sourceforge.net/DTD/sodipodi-0.dtd"
   xmlns:inkscape="http://www.inkscape.org/namespaces/inkscape"
   width="256"
   height="256"
   viewBox="0 0 256 256"
   id="svg2"
   version="1.1"
   inkscape:version="0.92pre3 r"
   sodipodi:docname="avatar-default.svg">
  <sodipodi:namedview
     id="base"
     pagecolor="#ffffff"
     bordercolor="#666666"
     borderopacity="1.0"
     inkscape:pageopacity="0.0"
     inkscape:pageshadow="2"
     inkscape:zoom="3.3359375"
     inkscape:cx="128"
     inkscape:cy="128"
     inkscape:document-units="px"
     inkscape:current-layer="layer1"
     showgrid="true"
     units="px"
     inkscape:window-width="1920"
     inkscape:window-height="1054"
     inkscape:window-x="0"
     inkscape:window-y="0"
     inkscape:window-maximized="1">
    <inkscape:grid
       spacingy="5"
       spacingx="5"
       id="grid4136"
       type="xygrid" />
  </sodipodi:namedview>
  <defs
     id="defs4">
    <clipPath
       id="clipPath4828"
       clipPathUnits="userSpaceOnUse">
      <circle
         style="opacity:1;fill:#68bdff;fill-opacity:1;stroke:none;stroke-width:52.82038116;stroke-linecap:round;stroke-linejoin:round;stroke-miterlimit:4;stroke-dasharray:none;stroke-opacity:1"
         id="circle4830"
         cx="128"
         cy="924.36218"
         r="128" />
    </clipPath>
    <clipPath
       id="clipPath4851"
       clipPathUnits="userSpaceOnUse">
      <path
         inkscape:connector-curvature="0"
         style="opacity:1;fill:#68bdff;fill-opacity:1;stroke:none;stroke-width:52.82038116;stroke-linecap:round;stroke-linejoin:round;stroke-miterlimit:4;stroke-dasharray:none;stroke-opacity:1"
         d="m 128,796.36216 a 128,128 0 0 0 -87.652344,34.83789 l 86.988284,87.51367 90.69336,-85.25976 A 128,128 0 0 0 128,796.36216 Z M 23.730469,850.28404 A 128,128 0 0 0 0,924.36216 128,128 0 0 0 128,1052.3622 128,128 0 0 0 256,924.36216 128,128 0 0 0 234.1582,852.93052 l -95.94336,90.19922 c -0.48074,0.45195 -0.99482,0.84265 -1.52148,1.20508 -0.25351,0.30378 -0.51825,0.602 -0.80469,0.88672 -4.95863,4.92876 -12.91888,4.90394 -17.84765,-0.0547 L 23.730469,850.28404 Z"
         id="path4853" />
    </clipPath>
    <clipPath
       id="clipPath4147"
       clipPathUnits="userSpaceOnUse">
      <path
         inkscape:connector-curvature="0"
         style="opacity:1;fill:#fff168;fill-opacity:1;stroke:none;stroke-width:52.82038116;stroke-linecap:round;stroke-linejoin:round;stroke-miterlimit:4;stroke-dasharray:none;stroke-opacity:1"
         d="M 23.730469,850.28404 A 128,128 0 0 0 0,924.36216 128,128 0 0 0 128,1052.3622 128,128 0 0 0 256,924.36216 128,128 0 0 0 234.1582,852.93052 l -95.94336,90.19922 c -0.48074,0.45195 -0.99482,0.84265 -1.52148,1.20508 -0.25351,0.30378 -0.51825,0.602 -0.80469,0.88672 -4.95863,4.92876 -12.91888,4.90394 -17.84765,-0.0547 l -94.310551,-94.8828 z"
         id="path4149" />
    </clipPath>
    <clipPath
       clipPathUnits="userSpaceOnUse"
       id="clipPath6177">
      <circle
         style="fill:#4974aa;fill-opacity:1;stroke-width:1.37815011"
         id="circle6179"
         cx="128"
         cy="928.8067"
         r="94.732162" />
    </clipPath>
  </defs>
  <metadata
     id="metadata7">
    <rdf:RDF>
      <cc:Work
         rdf:about="">
        <dc:format>image/svg+xml</dc:format>
        <dc:type
           rdf:resource="http://purl.org/dc/dcmitype/StillImage" />
        <dc:title />
      </cc:Work>
    </rdf:RDF>
  </metadata>
  <g
     transform="translate(0,-796.36216)"
     id="layer1"
     inkscape:groupmode="layer"
     inkscape:label="Layer 1">
    <circle
       r="128"
       cy="924.36218"
       cx="128"
       id="path6075"
       style="fill:#5bc792;fill-opacity:1;stroke-width:1.86212587" />
    <g
       id="g6095"
       transform="matrix(1.3511778,0,0,1.3511778,-44.950758,-330.62083)"
       clip-path="url(#clipPath6177)"
       style="fill:#2d845a;fill-opacity:1">
      <g
         id="g6140"
         transform="matrix(0.74009505,0,0,0.74009505,33.267833,834.07453)"
         style="fill:#2d845a;fill-opacity:1">
        <g
           id="g6137"
           style="opacity:1;fill:#2d845a;fill-opacity:1;stroke:none;stroke-width:0;stroke-linecap:round;stroke-linejoin:round;stroke-miterlimit:4;stroke-dasharray:none;stroke-opacity:1">
          <path
             id="path6113"
             d="M128.0 53.0C117.902531207 54.8231171949 109.932876773 59.2211639713 103.887266276 65.2667744681L-37.5340899613 206.688130705C-31.4884794645 200.642520209 -23.5188250306 196.244473432 -13.4213562373 194.421356237Z"
             style="fill:#2d845a;fill-opacity:1" />
          <path
             id="path6115"
             d="M103.887266276 65.2667744681C74.6826442193 94.4713965248 90.3771432221 162.123250223 128.0 163.68164L-13.4213562373 305.102996237C-51.0442130152 303.54460646 -66.7387120181 235.892752762 -37.5340899613 206.688130705Z"
             style="fill:#2d845a;fill-opacity:1" />
          <path
             id="path6117"
             d="M128.0 163.68164C136.968679637 163.68187608 145.257893987 159.714895503 151.975409459 152.99738003L10.5540532218 294.418736268C3.83653774953 301.13625174 -4.45267660068 305.103232317 -13.4213562373 305.102996237Z"
             style="fill:#2d845a;fill-opacity:1" />
          <path
             id="path6119"
             d="M151.975409459 152.99738003C162.045990969 142.92679852 168.58424394 126.674503041 168.58398 108.33984L27.1626237627 249.761196237C27.162887703 268.095859279 20.6246347322 284.348154757 10.5540532218 294.418736268Z"
             style="fill:#2d845a;fill-opacity:1" />
          <path
             id="path6121"
             d="M168.58398 108.33984C168.58363 77.775928 150.41353 52.999406 128.0 53.0L-13.4213562373 194.421356237C8.99217376269 194.420762237 27.1622737627 219.197284237 27.1626237627 249.761196237Z"
             style="fill:#2d845a;fill-opacity:1" />
          <path
             id="path6123"
             d="M100.05859 155.59961C75.8918542942 160.627305072 55.7598164459 171.761824925 44.2896146518 183.232026719L-97.1317415855 324.653382956C-85.6615397914 313.183181162 -65.5295019431 302.04866131 -41.3627662373 297.020966237Z"
             style="fill:#2d845a;fill-opacity:1" />
          <path
             id="path6125"
             d="M44.2896146518 183.232026719C37.7047652955 189.816876075 33.9746097294 196.512356613 33.974609 202.22656L-107.446747237 343.647916237C-107.446746508 337.93371285 -103.716590942 331.238232312 -97.1317415855 324.653382956Z"
             style="fill:#2d845a;fill-opacity:1" />
          <path
             id="path6127"
             d="M33.974609 202.22656C102.53409 203.25842 143.00963 203.25842 222.02539 202.22656L80.6040337627 343.647916237C1.58827376269 344.679776237 -38.8872662373 344.679776237 -107.446747237 343.647916237Z"
             style="fill:#2d845a;fill-opacity:1" />
          <path
             id="path6129"
             d="M222.02539 202.22656C222.02539 186.78796 193.39932 164.19091 155.66406 155.96094L14.2427037627 297.382296237C51.9779637627 305.612266237 80.6040337627 328.209316237 80.6040337627 343.647916237Z"
             style="fill:#2d845a;fill-opacity:1" />
          <path
             id="path6131"
             d="M155.66406 155.96094C155.235021782 156.423963315 154.800422937 156.875487616 154.360518789 157.315391764L12.9391625517 298.736748001C13.3790666992 298.296843853 13.8136655449 297.845319552 14.2427037627 297.382296237Z"
             style="fill:#2d845a;fill-opacity:1" />
          <path
             id="path6133"
             d="M154.360518789 157.315391764C146.726583649 164.949326904 137.494964375 169.083869322 128.0 169.08594L-13.4213562373 310.507296237C-3.92639186184 310.50522556 5.3052274115 306.370683141 12.9391625517 298.736748001Z"
             style="fill:#2d845a;fill-opacity:1" />
          <path
             id="path6135"
             d="M128.0 169.08594C117.83092 169.06684 107.97213 164.30836 100.05859 155.59961L-41.3627662373 297.020966237C-33.4492262373 305.729716237 -23.5904362373 310.488196237 -13.4213562373 310.507296237Z"
             style="fill:#2d845a;fill-opacity:1" />
        </g>
        <path
           sodipodi:nodetypes="cccccccccc"
           inkscape:connector-curvature="0"
           id="ellipse6091"
           transform=""
           d="m 128,53 c -58.875464,10.630077 -45.411115,108.80065 0,110.68164 22.4141,5.9e-4 40.58442,-24.77712 40.58398,-55.3418 C 168.58363,77.775928 150.41353,52.999406 128,53 Z m -27.94141,102.59961 c -38.040451,7.91401 -66.083979,30.95913 -66.083981,46.62695 68.559481,1.03186 109.035021,1.03186 188.050781,0 0,-15.4386 -28.62607,-38.03565 -66.36133,-46.26562 -7.87441,8.49816 -17.62195,13.12281 -27.66406,13.125 -10.16908,-0.0191 -20.02787,-4.77758 -27.94141,-13.48633 z"
           style="opacity:1;fill:#2d845a;fill-opacity:1;stroke:none;stroke-width:0;stroke-linecap:round;stroke-linejoin:round;stroke-miterlimit:4;stroke-dasharray:none;stroke-opacity:1" />
      </g>
    </g>
    <g
       transform="matrix(1.3511778,0,0,1.3511778,-44.950758,-330.62083)"
       id="g6089">
      <ellipse
         ry="40.95739"
         rx="30.035419"
         cy="914.25696"
         cx="128"
         id="ellipse4260"
         style="opacity:1;fill:#ffffff;fill-opacity:1;stroke:none;stroke-width:0;stroke-linecap:round;stroke-linejoin:round;stroke-miterlimit:4;stroke-dasharray:none;stroke-opacity:1" />
      <path
         inkscape:connector-curvature="0"
         style="opacity:1;fill:#ffffff;fill-opacity:1;stroke:none;stroke-width:0;stroke-linecap:round;stroke-linejoin:round;stroke-miterlimit:4;stroke-dasharray:none;stroke-opacity:1"
         d="m 107.32031,152.87109 c -28.153552,5.85712 -48.9082,22.91214 -48.908201,34.50782 50.740531,0.76367 80.696611,0.76367 139.175781,0 0,-11.42603 -21.1856,-28.14928 -49.11328,-34.24024 A 33,45 0 0 1 128,162.85156 33,45 0 0 1 107.32031,152.87109 Z"
         transform="translate(0,796.36216)"
         id="path4262" />
    </g>
  </g>
</svg>
