<?xml version="1.0" encoding="UTF-8" standalone="no"?>
<!-- Created with Inkscape (http://www.inkscape.org/) -->

<svg
   xmlns:dc="http://purl.org/dc/elements/1.1/"
   xmlns:cc="http://creativecommons.org/ns#"
   xmlns:rdf="http://www.w3.org/1999/02/22-rdf-syntax-ns#"
   xmlns:svg="http://www.w3.org/2000/svg"
   xmlns="http://www.w3.org/2000/svg"
   xmlns:sodipodi="http://sodipodi.sourceforge.net/DTD/sodipodi-0.dtd"
   xmlns:inkscape="http://www.inkscape.org/namespaces/inkscape"
   width="256"
   height="256"
   viewBox="0 0 67.733332 67.733335"
   version="1.1"
   id="svg822"
   inkscape:version="0.92.4 (unknown)"
   sodipodi:docname="battery-level-30-symbolic.svg">
  <defs
     id="defs816" />
  <sodipodi:namedview
     id="base"
     pagecolor="#ffffff"
     bordercolor="#666666"
     borderopacity="1.0"
     inkscape:pageopacity="0.0"
     inkscape:pageshadow="2"
     inkscape:zoom="3.3085939"
     inkscape:cx="62.715459"
     inkscape:cy="84.999975"
     inkscape:document-units="mm"
     inkscape:current-layer="layer1"
     showgrid="true"
     units="px"
     inkscape:window-width="1920"
     inkscape:window-height="1048"
     inkscape:window-x="0"
     inkscape:window-y="0"
     inkscape:window-maximized="1">
    <inkscape:grid
       empspacing="5"
       units="mm"
       dotted="false"
       type="xygrid"
       id="grid871" />
  </sodipodi:namedview>
  <metadata
     id="metadata819">
    <rdf:RDF>
      <cc:Work
         rdf:about="">
        <dc:format>image/svg+xml</dc:format>
        <dc:type
           rdf:resource="http://purl.org/dc/dcmitype/StillImage" />
        <dc:title />
      </cc:Work>
    </rdf:RDF>
  </metadata>
  <g
     inkscape:label="Layer 1"
     inkscape:groupmode="layer"
     id="layer1"
     transform="translate(0,-229.26665)">
    <path
       style="opacity:1;fill:#48ee33;fill-opacity:1;stroke:none;stroke-width:12.12749195;stroke-miterlimit:4;stroke-dasharray:none;stroke-opacity:1"
       d="M 33.866667,229.26665 A 33.866664,33.866664 0 0 0 4.2666666e-7,263.13332 33.866664,33.866664 0 0 0 33.866667,296.99999 33.866664,33.866664 0 0 0 67.733333,263.13332 33.866664,33.866664 0 0 0 33.866667,229.26665 Z m -9.230961,11.35642 h 18.461921 v 4.70152 h 6.713286 v 25.72194 l 14.805813,0.0227 c -3.524027,13.69481 -15.955253,23.81405 -30.750059,23.81405 -14.8287,0 -27.2831862,-10.16553 -30.7743489,-23.9081 l 14.8301019,0.0227 v -25.67337 h 6.713286 z m -6.713286,30.37489 v 14.62494 h 31.888493 v -14.57637 z"
       id="path814"
       inkscape:connector-curvature="0" />
  </g>
</svg>
