<?xml version="1.0" encoding="UTF-8" standalone="no"?>
<!-- Created with Inkscape (http://www.inkscape.org/) -->

<svg
   xmlns:dc="http://purl.org/dc/elements/1.1/"
   xmlns:cc="http://creativecommons.org/ns#"
   xmlns:rdf="http://www.w3.org/1999/02/22-rdf-syntax-ns#"
   xmlns:svg="http://www.w3.org/2000/svg"
   xmlns="http://www.w3.org/2000/svg"
   xmlns:sodipodi="http://sodipodi.sourceforge.net/DTD/sodipodi-0.dtd"
   xmlns:inkscape="http://www.inkscape.org/namespaces/inkscape"
   width="256"
   height="256"
   viewBox="0 0 67.733332 67.733335"
   version="1.1"
   id="svg822"
   inkscape:version="0.92.4 (unknown)"
   sodipodi:docname="battery-level-70-charging-symbolic.svg">
  <defs
     id="defs816" />
  <sodipodi:namedview
     id="base"
     pagecolor="#ffffff"
     bordercolor="#666666"
     borderopacity="1.0"
     inkscape:pageopacity="0.0"
     inkscape:pageshadow="2"
     inkscape:zoom="3.3085939"
     inkscape:cx="127.99999"
     inkscape:cy="127.99999"
     inkscape:document-units="mm"
     inkscape:current-layer="layer1"
     showgrid="true"
     units="px"
     inkscape:window-width="1920"
     inkscape:window-height="1048"
     inkscape:window-x="0"
     inkscape:window-y="0"
     inkscape:window-maximized="1"
     showguides="false">
    <inkscape:grid
       empspacing="5"
       units="mm"
       dotted="false"
       type="xygrid"
       id="grid871" />
  </sodipodi:namedview>
  <metadata
     id="metadata819">
    <rdf:RDF>
      <cc:Work
         rdf:about="">
        <dc:format>image/svg+xml</dc:format>
        <dc:type
           rdf:resource="http://purl.org/dc/dcmitype/StillImage" />
        <dc:title />
      </cc:Work>
    </rdf:RDF>
  </metadata>
  <g
     inkscape:label="Layer 1"
     inkscape:groupmode="layer"
     id="layer1"
     transform="translate(0,-229.26665)">
    <path
       style="opacity:1;fill:#48ee33;fill-opacity:1;stroke:none;stroke-width:45.83618927;stroke-miterlimit:4;stroke-dasharray:none;stroke-opacity:1"
       d="M 128 0 A 127.99999 127.99999 0 0 0 0 128 A 127.99999 127.99999 0 0 0 128 256 A 127.99999 127.99999 0 0 0 256 128 A 127.99999 127.99999 0 0 0 128 0 z M 93.111328 24.023438 L 162.88867 24.023438 L 162.88867 43.767578 L 188.26172 43.767578 L 188.26172 88.109375 L 241.19531 88.064453 C 245.60269 100.55719 248 113.99897 248 128 C 248 194.27417 194.27417 248 128 248 C 61.725829 248 8 194.27417 8 128 C 8 114.06964 10.373358 100.69305 14.738281 88.253906 L 67.738281 88.208984 L 67.738281 43.767578 L 93.111328 43.767578 L 93.111328 24.023438 z M 67.738281 88.208984 L 67.738281 213 L 188.26172 213 L 188.26172 88.109375 L 137.35742 88.152344 L 131.30078 101.69141 L 173 96.490234 L 105.72266 196.34375 L 133.09961 126.55859 L 83 132.20312 L 99.507812 88.183594 L 67.738281 88.208984 z M 99.507812 88.183594 L 137.35742 88.152344 L 150.10547 59.65625 L 110.20508 59.65625 L 99.507812 88.183594 z "
       transform="matrix(0.26458333,0,0,0.26458333,0,229.26665)"
       id="path814" />
  </g>
</svg>
