<?xml version="1.0" encoding="UTF-8" standalone="no"?>
<!-- Created with Inkscape (http://www.inkscape.org/) -->

<svg
   xmlns:dc="http://purl.org/dc/elements/1.1/"
   xmlns:cc="http://creativecommons.org/ns#"
   xmlns:rdf="http://www.w3.org/1999/02/22-rdf-syntax-ns#"
   xmlns:svg="http://www.w3.org/2000/svg"
   xmlns="http://www.w3.org/2000/svg"
   xmlns:sodipodi="http://sodipodi.sourceforge.net/DTD/sodipodi-0.dtd"
   xmlns:inkscape="http://www.inkscape.org/namespaces/inkscape"
   width="256"
   height="256"
   viewBox="0 0 256 256"
   id="svg2"
   version="1.1"
   inkscape:version="0.92.3 (2405546, 2018-03-11)"
   sodipodi:docname="battery-missing-symbolic.svg.2019_01_18_12_50_51.0.svg">
  <defs
     id="defs4" />
  <sodipodi:namedview
     id="base"
     pagecolor="#ffffff"
     bordercolor="#666666"
     borderopacity="1.0"
     inkscape:pageopacity="0.0"
     inkscape:pageshadow="2"
     inkscape:zoom="2.4282565"
     inkscape:cx="-11.47586"
     inkscape:cy="129.02987"
     inkscape:document-units="px"
     inkscape:current-layer="layer1"
     showgrid="false"
     units="px"
     inkscape:window-width="1920"
     inkscape:window-height="1048"
     inkscape:window-x="0"
     inkscape:window-y="0"
     inkscape:window-maximized="1" />
  <metadata
     id="metadata7">
    <rdf:RDF>
      <cc:Work
         rdf:about="">
        <dc:format>image/svg+xml</dc:format>
        <dc:type
           rdf:resource="http://purl.org/dc/dcmitype/StillImage" />
        <dc:title />
      </cc:Work>
    </rdf:RDF>
  </metadata>
  <g
     inkscape:label="Layer 1"
     inkscape:groupmode="layer"
     id="layer1"
     transform="translate(0,-796.36216)">
    <path
       style="fill:#6bbfff;fill-opacity:1;stroke:none;stroke-width:91.5949707;stroke-linecap:round;stroke-miterlimit:4;stroke-dasharray:none;stroke-opacity:1"
       d="M 128 0 A 128 128 0 0 0 0 128 A 128 128 0 0 0 128 256 A 128 128 0 0 0 256 128 A 128 128 0 0 0 128 0 z M 90.605469 24.400391 L 165.39453 24.400391 L 165.39453 58.267578 L 188 58.267578 L 188 231.59961 L 68 231.59961 L 68 58.267578 L 90.605469 58.267578 L 90.605469 24.400391 z M 124.00195 69.322266 C 118.23609 69.322266 112.25259 69.94167 106.05273 71.181641 C 99.852884 72.421611 93.001823 74.343327 85.5 76.947266 L 85.5 106.14844 C 91.823851 102.05653 97.900649 98.987358 103.72852 96.941406 C 109.55638 94.833456 114.98007 93.779297 120.00195 93.779297 C 125.33383 93.779297 129.48891 95.020058 132.46484 97.5 C 135.44077 99.917943 136.92773 103.29682 136.92773 107.63672 C 136.92773 110.48865 136.08998 113.34143 134.41602 116.19336 C 132.80405 119.04529 130.23118 122.08272 126.69727 125.30664 L 120.74609 130.70117 C 114.17425 136.77703 109.86626 141.79772 107.82031 145.76562 C 105.77436 149.67153 104.75 154.16612 104.75 159.25 L 104.75 163.80664 L 138.32227 163.80664 L 138.32227 159.62305 C 138.32227 156.83311 138.97342 154.29004 140.27539 151.99609 C 141.57736 149.64015 144.33683 146.54118 148.55273 142.69727 L 154.50391 137.39648 C 160.33177 131.87861 164.4551 126.73287 166.87305 121.95898 C 169.29099 117.1231 170.5 111.66765 170.5 105.5918 C 170.5 93.750073 166.53152 84.758949 158.5957 78.621094 C 150.65989 72.42124 139.1296 69.322266 124.00195 69.322266 z M 104.75 177.57031 L 104.75 210.67773 L 138.32227 210.67773 L 138.32227 177.57031 L 104.75 177.57031 z "
       transform="translate(0,796.36216)"
       id="circle822" />
    <g
       aria-label="!"
       style="font-style:normal;font-variant:normal;font-weight:bold;font-stretch:normal;font-size:192px;line-height:1.25;font-family:Roboto;-inkscape-font-specification:'Roboto Bold';letter-spacing:0px;word-spacing:0px;fill:#000000;fill-opacity:1;stroke:none"
       id="text830" />
  </g>
</svg>
