<?xml version="1.0" encoding="UTF-8" standalone="no"?>
<!-- Created with Inkscape (http://www.inkscape.org/) -->

<svg
   xmlns:dc="http://purl.org/dc/elements/1.1/"
   xmlns:cc="http://creativecommons.org/ns#"
   xmlns:rdf="http://www.w3.org/1999/02/22-rdf-syntax-ns#"
   xmlns:svg="http://www.w3.org/2000/svg"
   xmlns="http://www.w3.org/2000/svg"
   xmlns:sodipodi="http://sodipodi.sourceforge.net/DTD/sodipodi-0.dtd"
   xmlns:inkscape="http://www.inkscape.org/namespaces/inkscape"
   sodipodi:docname="folder-open.svg"
   inkscape:version="0.92.2 (5c3e80d, 2017-08-06)"
   version="1.1"
   id="svg2"
   viewBox="0 0 256 256"
   height="256"
   width="256">
  <sodipodi:namedview
     inkscape:window-maximized="1"
     inkscape:window-y="0"
     inkscape:window-x="0"
     inkscape:window-height="1054"
     inkscape:window-width="1920"
     units="px"
     showgrid="true"
     inkscape:current-layer="layer1"
     inkscape:document-units="px"
     inkscape:cy="128"
     inkscape:cx="72.599286"
     inkscape:zoom="3.2851562"
     inkscape:pageshadow="2"
     inkscape:pageopacity="0.0"
     borderopacity="1.0"
     bordercolor="#666666"
     pagecolor="#ffffff"
     id="base">
    <inkscape:grid
       spacingy="5"
       spacingx="5"
       id="grid4168"
       type="xygrid" />
  </sodipodi:namedview>
  <defs
     id="defs4">
    <clipPath
       id="clipPath5002"
       clipPathUnits="userSpaceOnUse">
      <g
         id="g5004">
        <path
           style="fill:#0f9d58;fill-opacity:1;stroke:none;stroke-width:4.85768509;stroke-linejoin:round;stroke-miterlimit:4;stroke-dasharray:none;stroke-opacity:1"
           d="M 88.118406,249.43519 C 46.103287,235.29134 14.771284,201.68742 4.1335861,159.36053 1.3377997,148.23623 0.92261224,144.16281 0.92582381,127.88908 0.92787958,117.47222 1.134384,112.01362 1.6577819,108.54099 4.4653598,89.913336 12.17654,70.638106 23.042737,55.086148 c 3.958678,-5.665755 8.344812,-10.93092 9.101533,-10.925587 0.32809,0.0023 10.488643,18.309713 22.579009,40.683112 12.090365,22.373397 22.374546,41.334697 22.853732,42.136217 0.479186,0.80151 0.924733,2.44098 0.990103,3.64326 0.343424,6.31639 2.524175,14.20976 5.6424,20.42304 2.954444,5.88693 5.065381,8.73258 10.434696,14.06652 6.71418,6.66995 12.88853,10.28643 21.73204,12.72904 3.16587,0.87442 5.10478,1.05037 11.57517,1.05037 8.82596,0 12.60219,-0.76201 19.26429,-3.88733 2.04584,-0.95974 3.93661,-1.66536 4.20172,-1.56805 0.2651,0.0973 -11.0555,17.66459 -25.1569,39.0384 l -25.6389,38.86148 -3.094121,0.11221 c -2.554618,0.0927 -4.195204,-0.25845 -9.409103,-2.01364 z"
           id="path5006"
           inkscape:connector-curvature="0"
           transform="translate(0,796.36216)" />
        <path
           style="fill:#f4b400;fill-opacity:1;stroke:none;stroke-width:4.85768509;stroke-linejoin:round;stroke-miterlimit:4;stroke-dasharray:none;stroke-opacity:1"
           d="m 112.35984,1051.5167 c -10.0014,-1.4495 -12.15632,-1.8201 -12.531784,-2.1556 -0.248854,-0.2223 1.738304,-3.7475 4.550294,-8.0722 7.16635,-11.0213 49.77231,-74.64801 50.25856,-75.05489 3.57509,-2.99158 8.63523,-8.0414 10.57512,-10.55356 3.36154,-4.35318 7.55784,-12.9141 9.06523,-18.494 6.19314,-22.92535 -2.59253,-47.15185 -21.69967,-59.83688 l -2.96081,-1.96565 17.02469,0.29584 c 9.36358,0.1627 31.17032,0.43384 48.45941,0.60252 l 31.43471,0.30668 1.54584,4.18869 c 2.24597,6.08579 4.67816,15.0947 5.93451,21.9816 1.52517,8.36049 1.92536,28.85896 0.73851,37.82758 -3.0805,23.27845 -12.81326,45.72018 -27.80202,64.10577 -20.47622,25.1166 -51.4599,42.1974 -84.14612,46.3885 -5.31244,0.6812 -26.64601,0.9864 -30.44647,0.4356 z"
           id="path5008"
           inkscape:connector-curvature="0" />
        <path
           style="fill:#db4437;fill-opacity:1;stroke:none;stroke-width:10;stroke-linejoin:round;stroke-miterlimit:4;stroke-dasharray:none;stroke-opacity:1"
           d="M 67.989788,108.87302 C 41.284246,59.575543 33.290284,45.149038 32.233625,44.344765 31.651257,43.901497 32.811213,42.549931 38.695603,36.815353 53.43581,22.450419 68.809334,13.040746 87.839196,6.7360352 101.68742,2.1480329 112.58238,0.43719165 127.95142,0.43719165 c 21.3099,0 37.80488,3.80960275 56.83492,13.12633035 25.29351,12.383198 46.19421,33.578863 58.51993,59.345832 1.61138,3.368591 2.92978,6.372442 2.92978,6.675231 0,0.560033 -10.54865,0.49527 -71.16508,-0.436914 l -24.28843,-0.373518 -3.93063,-1.764495 c -6.75732,-3.033425 -10.64587,-3.839529 -18.6576,-3.867747 -5.0296,-0.01773 -7.97946,0.207636 -10.31642,0.788106 -14.50826,3.603659 -26.283291,12.94777 -33.291614,26.418653 -3.58502,6.89086 -5.24713,13.08166 -6.331628,23.58317 l -0.33738,3.26696 -9.92748,-18.32578 z"
           id="path5010"
           inkscape:connector-curvature="0"
           transform="translate(0,796.36216)" />
      </g>
    </clipPath>
    <clipPath
       clipPathUnits="userSpaceOnUse"
       id="clipPath4271">
      <circle
         style="fill:#292929;fill-opacity:0.26020412;stroke:none;stroke-width:10;stroke-linejoin:round;stroke-miterlimit:4;stroke-dasharray:none;stroke-opacity:0.25882353"
         id="circle4273"
         cx="128"
         cy="128.00002"
         r="128" />
    </clipPath>
    <clipPath
       id="clipPath4363"
       clipPathUnits="userSpaceOnUse">
      <circle
         style="fill:#4285f4;fill-opacity:1;stroke:none;stroke-width:10;stroke-linejoin:round;stroke-miterlimit:4;stroke-dasharray:none;stroke-opacity:0.25882353"
         id="circle4365"
         cx="128"
         cy="924.36218"
         r="128" />
    </clipPath>
    <clipPath
       clipPathUnits="userSpaceOnUse"
       id="clipPath4452">
      <circle
         style="fill:#4285f4;fill-opacity:1;stroke:none;stroke-width:10;stroke-linejoin:round;stroke-miterlimit:4;stroke-dasharray:none;stroke-opacity:0.25882353"
         id="circle4454"
         cx="128"
         cy="924.36218"
         r="128" />
    </clipPath>
    <clipPath
       id="clipPath5177"
       clipPathUnits="userSpaceOnUse">
      <circle
         style="fill:#4285f4;fill-opacity:1;stroke:none;stroke-width:10;stroke-linejoin:round;stroke-miterlimit:4;stroke-dasharray:none;stroke-opacity:0.25882353"
         id="circle5179"
         cx="128"
         cy="924.36218"
         r="128" />
    </clipPath>
    <clipPath
       clipPathUnits="userSpaceOnUse"
       id="clipPath4342">
      <circle
         style="fill:#4285f4;fill-opacity:1;stroke:none;stroke-width:10;stroke-linejoin:round;stroke-miterlimit:4;stroke-dasharray:none;stroke-opacity:0.25882353"
         id="circle4344"
         cx="128"
         cy="933.48718"
         r="128" />
    </clipPath>
    <clipPath
       id="clipPath4681"
       clipPathUnits="userSpaceOnUse">
      <circle
         style="fill:#9d5fad;fill-opacity:1;stroke:none;stroke-width:10;stroke-linejoin:round;stroke-miterlimit:4;stroke-dasharray:none;stroke-opacity:0.25882353"
         id="circle4683"
         cx="127.00293"
         cy="930.43964"
         r="128" />
    </clipPath>
    <clipPath
       clipPathUnits="userSpaceOnUse"
       id="clipPath4235">
      <circle
         style="fill:#0f9d58;fill-opacity:1;stroke:none;stroke-width:10;stroke-linejoin:round;stroke-miterlimit:4;stroke-dasharray:none;stroke-opacity:0.25882353"
         id="circle4237"
         cx="128"
         cy="924.36218"
         r="128" />
    </clipPath>
    <clipPath
       id="clipPath4771"
       clipPathUnits="userSpaceOnUse">
      <circle
         style="fill:#0f9d58;fill-opacity:1;stroke:none;stroke-width:10;stroke-linejoin:round;stroke-miterlimit:4;stroke-dasharray:none;stroke-opacity:0.25882353"
         id="circle4773"
         cx="128"
         cy="924.36218"
         r="128" />
    </clipPath>
    <clipPath
       clipPathUnits="userSpaceOnUse"
       id="clipPath4842">
      <circle
         style="fill:#0f9d58;fill-opacity:1;stroke:none;stroke-width:10;stroke-linejoin:round;stroke-miterlimit:4;stroke-dasharray:none;stroke-opacity:0.25882353"
         id="circle4844"
         cx="128"
         cy="924.36218"
         r="128" />
    </clipPath>
    <clipPath
       id="clipPath4458"
       clipPathUnits="userSpaceOnUse">
      <circle
         style="fill:#ff3b38;fill-opacity:1;stroke:none;stroke-width:10;stroke-linejoin:round;stroke-miterlimit:4;stroke-dasharray:none;stroke-opacity:0.25882353"
         id="circle4460"
         cx="128"
         cy="924.36218"
         r="128" />
    </clipPath>
    <clipPath
       clipPathUnits="userSpaceOnUse"
       id="clipPath4783">
      <circle
         style="fill:#ff3b38;fill-opacity:1;stroke:none;stroke-width:10;stroke-linejoin:round;stroke-miterlimit:4;stroke-dasharray:none;stroke-opacity:0.25882353"
         id="circle4785"
         cx="128"
         cy="924.36218"
         r="128" />
    </clipPath>
    <clipPath
       id="clipPath4789"
       clipPathUnits="userSpaceOnUse">
      <circle
         style="fill:#80b4ff;fill-opacity:1;stroke:none;stroke-width:10;stroke-linejoin:round;stroke-miterlimit:4;stroke-dasharray:none;stroke-opacity:0.25882353"
         id="circle4791"
         cx="102.64714"
         cy="924.36218"
         r="128" />
    </clipPath>
    <clipPath
       clipPathUnits="userSpaceOnUse"
       id="clipPath4476">
      <circle
         style="fill:#80b4ff;fill-opacity:1;stroke:none;stroke-width:10;stroke-linejoin:round;stroke-miterlimit:4;stroke-dasharray:none;stroke-opacity:0.25882353"
         id="circle4478"
         cx="112.59232"
         cy="920.23456"
         r="82.027672" />
    </clipPath>
    <filter
       id="filter4298"
       inkscape:label="Drop Shadow"
       style="color-interpolation-filters:sRGB">
      <feFlood
         id="feFlood4300"
         result="flood"
         flood-color="rgb(0,0,0)"
         flood-opacity="0.498039" />
      <feComposite
         id="feComposite4302"
         result="composite1"
         operator="in"
         in2="SourceGraphic"
         in="flood" />
      <feGaussianBlur
         id="feGaussianBlur4304"
         result="blur"
         stdDeviation="1.6"
         in="composite1" />
      <feOffset
         id="feOffset4306"
         result="offset"
         dy="-7.7"
         dx="-2.77556e-17" />
      <feComposite
         id="feComposite4308"
         result="composite2"
         operator="over"
         in2="offset"
         in="SourceGraphic" />
    </filter>
    <clipPath
       clipPathUnits="userSpaceOnUse"
       id="clipPath5389">
      <circle
         style="fill:#2496e3;fill-opacity:1;stroke:none;stroke-width:10;stroke-linejoin:round;stroke-miterlimit:4;stroke-dasharray:none;stroke-opacity:0.25882353"
         id="circle5391"
         cx="128"
         cy="924.36218"
         r="128" />
    </clipPath>
    <clipPath
       clipPathUnits="userSpaceOnUse"
       id="clipPath5092">
      <path
         transform="matrix(1.2315339,0,0,1.0608965,-109.24268,-939.37809)"
         sodipodi:nodetypes="cccccccccccccccccccccssscccccccccazzzzzzzzzzzsccccccccc"
         inkscape:connector-curvature="0"
         id="path5094"
         d="m 10.42124,864.27189 42.534575,-0.0913 21.267287,-0.0456 c 7.245384,-0.0152 14.490768,-0.0305 21.736152,-0.0456 8.394956,-10.58827 10.291846,-15.47699 14.084686,-17.71727 3.79283,-2.24028 9.4816,-1.8321 25.46032,-1.82658 23.36644,-0.007 109.60565,-0.67788 109.60565,-0.67788 l -0.0879,12.1518 -0.0879,12.1518 -0.0879,12.15181 -0.0879,12.1518 -0.0879,12.1518 -0.0879,12.1518 -0.0879,12.15181 -0.0879,12.1518 -0.0879,12.1518 -0.0879,12.1518 -0.0879,12.15181 -0.0879,12.1518 -0.0879,12.15181 -0.0879,12.1518 c 0,0 0.59382,8.1589 -0.0879,12.1518 -0.58177,3.4075 -0.78038,7.5176 -3.36995,9.8075 -2.83121,2.5035 -7.3341,1.9515 -11.09295,2.3443 -4.76571,0.4981 -14.375,0 -14.375,0 l -14.375,0 -14.375,0 -14.37501,0 -14.375,0 -14.375,0 -14.375,0 -14.375,0 -14.375,0 -14.375001,0 c 0,0 -9.583334,0 -14.375001,0 -4.791667,0 -9.583334,0 -14.375001,0 -4.791667,0 -9.500662,0.094 -14.375001,0 -4.874339,-0.093 -10.854147,0.062 -15.030858,-0.571 -4.176712,-0.6329 -7.699545,-0.5576 -9.968228,-2.7111 -2.268683,-2.1535 -2.21606,-4.4991 -2.972258,-7.5945 -0.756198,-3.0955 -0.95689,-7.246 -1.188915,-10.8765 -0.232024,-3.6305 -0.136752,-7.251 -0.205128,-10.8765 -0.06838,-3.6255 -0.136752,-7.25106 -0.205128,-10.87658 -0.06838,-3.62552 -0.136753,-7.25102 -0.205129,-10.87653 -0.06838,-3.62551 -0.136752,-7.25103 -0.205128,-10.87654 -0.06838,-3.62551 -0.205129,-10.87653 -0.205129,-10.87653 L 12.062467,951.28418 11.857339,940.40764 11.65221,929.53111 11.447082,918.65457 11.241954,907.77803 11.036825,896.9015 10.831697,886.02496 10.626568,875.14843 Z"
         style="opacity:0.91000001;fill:#38bae1;fill-opacity:1;stroke:none;stroke-width:0;stroke-linecap:round;stroke-linejoin:round;stroke-miterlimit:4;stroke-dasharray:none;stroke-opacity:1;filter:url(#filter4298)" />
    </clipPath>
    <clipPath
       clipPathUnits="userSpaceOnUse"
       id="clipPath5147">
      <circle
         style="fill:#2496e3;fill-opacity:1;stroke:none;stroke-width:10;stroke-linejoin:round;stroke-miterlimit:4;stroke-dasharray:none;stroke-opacity:0.25882353"
         id="circle5149"
         cx="128"
         cy="924.36218"
         r="128" />
    </clipPath>
    <clipPath
       clipPathUnits="userSpaceOnUse"
       id="clipPath5153">
      <path
         clip-path="url(#clipPath5147)"
         sodipodi:nodetypes="ccccccc"
         inkscape:connector-curvature="0"
         id="path5155"
         d="m 255.70093,889.77993 -111.25234,-0.29907 -33.49532,-57.12149 -110.95327,0 0,220.00003 256,0 z"
         style="opacity:1;fill:#37bae1;fill-opacity:1;stroke:none;stroke-width:10;stroke-linecap:butt;stroke-linejoin:miter;stroke-miterlimit:4;stroke-dasharray:none;stroke-opacity:1"
         transform="matrix(0.96310564,0,0,0.96310582,-73.608259,-871.10273)" />
    </clipPath>
    <clipPath
       id="clipPath4537"
       clipPathUnits="userSpaceOnUse">
      <path
         transform="matrix(0.87468356,0,0,0.87468371,-63.854543,-777.38198)"
         clip-path="url(#clipPath5147)"
         sodipodi:nodetypes="ccccccc"
         inkscape:connector-curvature="0"
         id="path4539"
         d="m 255.40186,879.31264 -121.71963,0 -22.72896,-46.95327 -110.95327,0 0,220.00003 256,0 z"
         style="opacity:1;fill:#2ccaff;fill-opacity:1;stroke:none;stroke-width:10;stroke-linecap:butt;stroke-linejoin:miter;stroke-miterlimit:4;stroke-dasharray:none;stroke-opacity:1" />
    </clipPath>
    <clipPath
       clipPathUnits="userSpaceOnUse"
       id="clipPath4592">
      <ellipse
         style="fill:#218dd7;fill-opacity:1;stroke:none;stroke-width:10;stroke-linejoin:round;stroke-miterlimit:4;stroke-dasharray:none;stroke-opacity:0.25882353"
         id="circle4594"
         cx="48.104954"
         cy="31.142565"
         rx="111.9595"
         ry="111.95952" />
    </clipPath>
    <clipPath
       clipPathUnits="userSpaceOnUse"
       id="clipPath4270">
      <path
         clip-path="url(#clipPath5147)"
         sodipodi:nodetypes="ccccccc"
         inkscape:connector-curvature="0"
         id="path4273"
         d="m 255.40186,897.88101 -132.67801,0 -7.50899,-24.4277 L 0,872.84451 l 0,179.51489 256,0 z"
         style="opacity:1;fill:#2ccaff;fill-opacity:1;stroke:none;stroke-width:10;stroke-linecap:butt;stroke-linejoin:miter;stroke-miterlimit:4;stroke-dasharray:none;stroke-opacity:1"
         transform="matrix(0.87468356,0,0,0.87468371,-63.854543,-786.12882)" />
    </clipPath>
  </defs>
  <metadata
     id="metadata7">
    <rdf:RDF>
      <cc:Work
         rdf:about="">
        <dc:format>image/svg+xml</dc:format>
        <dc:type
           rdf:resource="http://purl.org/dc/dcmitype/StillImage" />
        <dc:title />
      </cc:Work>
    </rdf:RDF>
  </metadata>
  <g
     inkscape:label="Layer 1"
     inkscape:groupmode="layer"
     id="layer1"
     transform="translate(0,-796.36216)">
    <circle
       r="128"
       cy="924.36218"
       cx="128"
       id="path4152"
       style="fill:#218dd7;fill-opacity:1;stroke:none;stroke-width:10;stroke-linejoin:round;stroke-miterlimit:4;stroke-dasharray:none;stroke-opacity:0.25882353" />
    <text
       xml:space="preserve"
       style="font-style:normal;font-weight:normal;line-height:0%;font-family:sans-serif;letter-spacing:0px;word-spacing:0px;fill:#000000;fill-opacity:1;stroke:none;stroke-width:1px;stroke-linecap:butt;stroke-linejoin:miter;stroke-opacity:1"
       x="120"
       y="927.36218"
       id="text4914"><tspan
         sodipodi:role="line"
         id="tspan4916"
         x="120"
         y="927.36218"
         style="font-size:40px;line-height:1.25"> </tspan></text>
    <g
       id="g4241"
       transform="translate(-4.11162,138)"
       style="stroke:none">
      <g
         id="g4446"
         style="stroke:none">
        <g
           style="fill:none;fill-rule:evenodd;stroke:none;stroke-width:10;stroke-linecap:round;stroke-linejoin:miter;stroke-miterlimit:4;stroke-dasharray:none;stroke-opacity:1"
           id="g4448">
          <path
             inkscape:connector-curvature="0"
             d="m 129.98857,850.41168 c 0,15 0,15 0,15 L -82.143464,1077.5437 c 0,0 0,0 0,-15 z"
             id="path4450"
             style="stroke:none" />
        </g>
        <path
           style="fill:none;fill-rule:evenodd;stroke:none;stroke-width:10;stroke-linecap:round;stroke-linejoin:miter;stroke-miterlimit:4;stroke-dasharray:none;stroke-opacity:1"
           d="m 129.98857,850.41168 c 0,15 0,15 0,15"
           id="path4247"
           inkscape:connector-curvature="0" />
      </g>
      <g
         id="g4453"
         style="stroke:none">
        <g
           style="fill:none;fill-rule:evenodd;stroke:none;stroke-width:10;stroke-linecap:round;stroke-linejoin:miter;stroke-miterlimit:4;stroke-dasharray:none;stroke-opacity:1"
           id="g4455">
          <path
             inkscape:connector-curvature="0"
             d="m 111.58095,850.41168 c 0,15 0,15 0,15 l -212.13203,212.13202 c 0,0 0,0 0,-15 z"
             id="path4457"
             style="stroke:none" />
        </g>
        <path
           inkscape:connector-curvature="0"
           id="path4245"
           d="m 111.58095,850.41168 c 0,15 0,15 0,15"
           style="fill:none;fill-rule:evenodd;stroke:none;stroke-width:10;stroke-linecap:round;stroke-linejoin:miter;stroke-miterlimit:4;stroke-dasharray:none;stroke-opacity:1" />
      </g>
      <g
         id="g4460"
         style="stroke:none">
        <g
           style="fill:none;fill-rule:evenodd;stroke:none;stroke-width:10;stroke-linecap:round;stroke-linejoin:miter;stroke-miterlimit:4;stroke-dasharray:none;stroke-opacity:1"
           id="g4462">
          <path
             inkscape:connector-curvature="0"
             d="m 93.173333,850.41168 c 0,15 0,15 0,15 L -118.9587,1077.5437 c 0,0 0,0 0,-15 z"
             id="path4464"
             style="stroke:none" />
        </g>
        <path
           style="fill:none;fill-rule:evenodd;stroke:none;stroke-width:10;stroke-linecap:round;stroke-linejoin:miter;stroke-miterlimit:4;stroke-dasharray:none;stroke-opacity:1"
           d="m 93.173333,850.41168 c 0,15 0,15 0,15"
           id="path4243"
           inkscape:connector-curvature="0" />
      </g>
      <g
         id="g4467"
         style="stroke:none">
        <g
           style="fill:none;fill-rule:evenodd;stroke:none;stroke-width:10;stroke-linecap:round;stroke-linejoin:miter;stroke-miterlimit:4;stroke-dasharray:none;stroke-opacity:1"
           id="g4469">
          <path
             inkscape:connector-curvature="0"
             d="m 166.80381,850.41168 c 0,15 0,15 0,15 L -45.328224,1077.5437 c 0,0 0,0 0,-15 z"
             id="path4471"
             style="stroke:none" />
        </g>
        <path
           style="fill:none;fill-rule:evenodd;stroke:none;stroke-width:10;stroke-linecap:round;stroke-linejoin:miter;stroke-miterlimit:4;stroke-dasharray:none;stroke-opacity:1"
           d="m 166.80381,850.41168 c 0,15 0,15 0,15"
           id="path4251"
           inkscape:connector-curvature="0" />
      </g>
      <g
         id="g4474"
         style="stroke:none">
        <g
           style="fill:none;fill-rule:evenodd;stroke:none;stroke-width:10;stroke-linecap:round;stroke-linejoin:miter;stroke-miterlimit:4;stroke-dasharray:none;stroke-opacity:1"
           id="g4476">
          <path
             inkscape:connector-curvature="0"
             d="m 148.39619,850.41168 c 0,15 0,15 0,15 L -63.735844,1077.5437 c 0,0 0,0 0,-15 z"
             id="path4478"
             style="stroke:none" />
        </g>
        <path
           inkscape:connector-curvature="0"
           id="path4249"
           d="m 148.39619,850.41168 c 0,15 0,15 0,15"
           style="fill:none;fill-rule:evenodd;stroke:none;stroke-width:10;stroke-linecap:round;stroke-linejoin:miter;stroke-miterlimit:4;stroke-dasharray:none;stroke-opacity:1" />
      </g>
    </g>
    <rect
       y="846.76666"
       x="52.692635"
       height="45"
       width="150.61473"
       id="rect4275"
       style="opacity:1;fill:#7e7979;fill-opacity:1;stroke:none;stroke-width:10;stroke-linecap:butt;stroke-linejoin:miter;stroke-miterlimit:4;stroke-dasharray:none;stroke-opacity:1" />
    <rect
       style="opacity:1;fill:#b5b2b2;fill-opacity:1;stroke:none;stroke-width:10;stroke-linecap:butt;stroke-linejoin:miter;stroke-miterlimit:4;stroke-dasharray:none;stroke-opacity:1"
       id="rect5393"
       width="170.40071"
       height="45"
       x="42.799644"
       y="857.94147" />
    <rect
       y="870.67578"
       x="28.645065"
       height="45"
       width="198.70987"
       id="rect5395"
       style="opacity:1;fill:#ffffff;fill-opacity:1;stroke:none;stroke-width:10;stroke-linecap:butt;stroke-linejoin:miter;stroke-miterlimit:4;stroke-dasharray:none;stroke-opacity:1" />
    <path
       style="opacity:1;fill:#2ccaff;fill-opacity:1;stroke:none;stroke-width:10;stroke-linecap:butt;stroke-linejoin:miter;stroke-miterlimit:4;stroke-dasharray:none;stroke-opacity:1"
       d="m 255.40186,885.36276 -132.67801,0 -122.72385,0 0,166.99664 256,0 z"
       id="rect5130"
       inkscape:connector-curvature="0"
       sodipodi:nodetypes="cccccc"
       clip-path="url(#clipPath5147)" />
    <g
       style="opacity:1;fill:#0082ad;fill-opacity:1;fill-rule:nonzero;stroke:none;stroke-width:1.00008464;stroke-miterlimit:4;stroke-dasharray:none;stroke-opacity:1"
       id="g4266"
       transform="matrix(1.1432706,0,0,1.1432704,73.003022,898.75781)"
       clip-path="url(#clipPath4270)">
      <g
         style="fill:#0082ad;fill-opacity:1;stroke:none;stroke-width:1.00008464;stroke-miterlimit:4;stroke-dasharray:none;stroke-opacity:1"
         id="g4268">
        <g
           id="g4371"
           style="fill:#0082ad;fill-opacity:1">
          <g
             id="g4373"
             style="fill:#0082ad;fill-opacity:1;stroke:none;stroke-width:1.00008464;stroke-miterlimit:4;stroke-dasharray:none;stroke-opacity:1">
            <path
               id="path4375"
               d="m 45.217,30.699 c 1.130286,0.06902 2.277417,-0.544744 3.359654,-1.626981 L -92.844702,170.49337 c -1.082238,1.08224 -2.229368,1.69601 -3.359654,1.62699 z"
               style="fill:#0082ad;fill-opacity:1"
               inkscape:connector-curvature="0" />
            <path
               id="path4377"
               d="M 48.576654,29.072019 C 54.550161,23.098512 58.546633,2.8526308 46.821,4.374 L -94.600356,145.79536 c 11.725633,-1.52137 7.729161,18.72451 1.755654,24.69801 z"
               style="fill:#0082ad;fill-opacity:1"
               inkscape:connector-curvature="0" />
            <path
               id="path4379"
               d="M 46.821,4.374 C 44.488931,4.6766889 42.687824,5.6115443 41.340206,6.959163 L -100.08115,148.38052 c 1.347618,-1.34762 3.148725,-2.28247 5.480794,-2.58516 z"
               style="fill:#0082ad;fill-opacity:1"
               inkscape:connector-curvature="0" />
            <path
               id="path4381"
               d="M 41.340206,6.959163 C 34.687297,13.612072 39.086749,30.324799 45.217,30.699 L -96.204356,172.12036 c -6.130254,-0.37421 -10.529704,-17.08693 -3.876794,-23.73984 z"
               style="fill:#0082ad;fill-opacity:1"
               inkscape:connector-curvature="0" />
          </g>
          <path
             style="fill:#0082ad;fill-opacity:1;stroke:none;stroke-width:1.00008464;stroke-miterlimit:4;stroke-dasharray:none;stroke-opacity:1"
             inkscape:connector-curvature="0"
             d="M 45.217,30.699 C 52.586,31.149 60.671,2.577 46.821,4.374 32.976,6.171 37.845,30.249 45.217,30.699 Z"
             id="path4272" />
        </g>
        <g
           id="g4384"
           style="fill:#0082ad;fill-opacity:1">
          <g
             id="g4386"
             style="fill:#0082ad;fill-opacity:1;stroke:none;stroke-width:1.00008464;stroke-miterlimit:4;stroke-dasharray:none;stroke-opacity:1">
            <path
               id="path4388"
               d="M 86.068,0 C 79.388341,0 74.182064,2.5831181 70.418506,6.3466757 L -71.00285,147.76803 c 3.763558,-3.76356 8.969835,-6.34667 15.649494,-6.34667 z"
               style="fill:#0082ad;fill-opacity:1"
               inkscape:connector-curvature="0" />
            <path
               id="path4390"
               d="M 70.418506,6.3466757 C 60.320422,16.44476 60.608682,35.041 70.691,35.041 L -70.730356,176.46236 c -10.082319,0 -10.370579,-18.59624 -0.272494,-28.69433 z"
               style="fill:#0082ad;fill-opacity:1"
               inkscape:connector-curvature="0" />
            <path
               id="path4392"
               d="m 70.691,35.041 c 4.430355,0 10.121889,-3.591757 15.005539,-8.475406 L -55.724817,167.98695 c -4.88365,4.88365 -10.575184,8.47541 -15.005539,8.47541 z"
               style="fill:#0082ad;fill-opacity:1"
               inkscape:connector-curvature="0" />
            <path
               id="path4394"
               d="M 85.696539,26.565594 C 96.066733,16.1954 102.79414,0 86.068,0 L -55.353356,141.42136 c 16.726137,0 9.998732,16.1954 -0.371461,26.56559 z"
               style="fill:#0082ad;fill-opacity:1"
               inkscape:connector-curvature="0" />
          </g>
          <path
             style="fill:#0082ad;fill-opacity:1;stroke:none;stroke-width:1.00008464;stroke-miterlimit:4;stroke-dasharray:none;stroke-opacity:1"
             inkscape:connector-curvature="0"
             d="M 86.068,0 C 61.466,0 56.851,35.041 70.691,35.041 84.529,35.041 110.671,0 86.068,0 Z"
             id="path4270" />
        </g>
        <g
           id="g4397"
           style="fill:#0082ad;fill-opacity:1">
          <g
             id="g4399"
             style="fill:#0082ad;fill-opacity:1;stroke:none;stroke-width:1.00008464;stroke-miterlimit:4;stroke-dasharray:none;stroke-opacity:1">
            <path
               id="path4401"
               d="m 26.212,36.642 c 0.552373,-0.112617 1.058522,-0.415868 1.514581,-0.871927 L -113.69477,177.19143 c -0.45606,0.45606 -0.96221,0.75931 -1.51459,0.87193 z"
               style="fill:#0082ad;fill-opacity:1"
               inkscape:connector-curvature="0" />
            <path
               id="path4403"
               d="M 27.726581,35.770073 C 32.421666,31.074989 31.807954,10.184467 21.667,14.369 l -141.42136,141.42136 c 10.14096,-4.18454 10.75467,16.70599 6.05959,21.40107 z"
               style="fill:#0082ad;fill-opacity:1"
               inkscape:connector-curvature="0" />
            <path
               id="path4405"
               d="m 21.667,14.369 c -1.138417,0.469771 -2.061586,1.089861 -2.794959,1.823233 L -122.54931,157.61359 c 0.73337,-0.73337 1.65654,-1.35346 2.79495,-1.82323 z"
               style="fill:#0082ad;fill-opacity:1"
               inkscape:connector-curvature="0" />
            <path
               id="path4407"
               d="M 18.872041,16.192233 C 12.436715,22.62756 20.615751,37.785667 26.212,36.642 l -141.42136,141.42136 c -5.59625,1.14366 -13.77528,-14.01444 -7.33995,-20.44977 z"
               style="fill:#0082ad;fill-opacity:1"
               inkscape:connector-curvature="0" />
            <path
               id="path4409"
               d="m 26.212,36.642 0,0 -141.42136,141.42136 0,0 z"
               style="fill:#0082ad;fill-opacity:1"
               inkscape:connector-curvature="0" />
          </g>
          <path
             style="fill:#0082ad;fill-opacity:1;stroke:none;stroke-width:1.00008464;stroke-miterlimit:4;stroke-dasharray:none;stroke-opacity:1"
             inkscape:connector-curvature="0"
             d="M 26.212,36.642 C 32.451,35.37 32.793,9.778 21.667,14.369 10.539,18.961 19.978,37.916 26.212,36.642 l 0,0 z"
             id="path4276" />
        </g>
        <g
           id="g4412"
           style="fill:#0082ad;fill-opacity:1">
          <g
             id="g4414"
             style="fill:#0082ad;fill-opacity:1;stroke:none;stroke-width:1.00008464;stroke-miterlimit:4;stroke-dasharray:none;stroke-opacity:1">
            <path
               id="path4416"
               d="m 58.791,93.913 c 0.438937,3.352102 -0.445295,6.031456 -2.118634,7.70479 L -84.74899,243.03915 c 1.673338,-1.67334 2.557571,-4.35269 2.118634,-7.70479 z"
               style="fill:#0082ad;fill-opacity:1"
               inkscape:connector-curvature="0" />
            <path
               id="path4418"
               d="m 56.672366,101.61779 c -2.54682,2.54682 -6.92159,2.76323 -11.241366,-0.52579 L -95.990356,242.51336 c 4.319776,3.28901 8.694546,3.07261 11.241366,0.52579 z"
               style="fill:#0082ad;fill-opacity:1"
               inkscape:connector-curvature="0" />
            <path
               id="path4420"
               d="M 45.431,101.092 C 38.487802,95.805761 39.278627,91.32669 43.622137,86.98318 L -97.79922,228.40454 c -4.34351,4.34351 -5.13433,8.82258 1.808864,14.10882 z"
               style="fill:#0082ad;fill-opacity:1"
               inkscape:connector-curvature="0" />
            <path
               id="path4422"
               d="M 43.622137,86.98318 C 51.232655,79.372662 69.75013,72.178322 76.68219,61.787423 L -64.739166,203.20878 c -6.93206,10.3909 -25.449535,17.58524 -33.060054,25.19576 z"
               style="fill:#0082ad;fill-opacity:1"
               inkscape:connector-curvature="0" />
            <path
               id="path4424"
               d="M 76.68219,61.787423 C 78.778073,58.645774 79.814894,55.211916 79.171,51.386 L -62.250356,192.80736 c 0.643894,3.82591 -0.392928,7.25977 -2.48881,10.40142 z"
               style="fill:#0082ad;fill-opacity:1"
               inkscape:connector-curvature="0" />
            <path
               id="path4426"
               d="M 79.171,51.386 C 76.436299,35.136373 34.78028,36.44002 16.48906,54.731239 L -124.9323,196.1526 c 18.29122,-18.29122 59.947242,-19.59487 62.681944,-3.34524 z"
               style="fill:#0082ad;fill-opacity:1"
               inkscape:connector-curvature="0" />
            <path
               id="path4428"
               d="M 16.48906,54.731239 C 12.634451,58.585848 9.8174594,63.194867 8.621,68.553 l -141.42136,141.42136 c 1.19646,-5.35814 4.01345,-9.96716 7.86806,-13.82176 z"
               style="fill:#0082ad;fill-opacity:1"
               inkscape:connector-curvature="0" />
            <path
               id="path4430"
               d="M 8.621,68.553 C 3.968,89.374 27.774,118.26 52.614,118.26 L -88.807356,259.68136 c -24.840004,0 -48.646004,-28.886 -43.993004,-49.707 z"
               style="fill:#0082ad;fill-opacity:1"
               inkscape:connector-curvature="0" />
            <path
               id="path4432"
               d="m 52.614,118.26 c 7.003244,0 14.622313,-3.62401 20.347564,-9.34926 L -68.459792,250.3321 c -5.725251,5.72525 -13.34432,9.34926 -20.347564,9.34926 z"
               style="fill:#0082ad;fill-opacity:1"
               inkscape:connector-curvature="0" />
            <path
               id="path4434"
               d="M 72.961564,108.91074 C 77.226335,104.64597 80.440257,99.215252 81.566,93.248 L -59.855356,234.66936 c -1.125744,5.96725 -4.339665,11.39797 -8.604436,15.66274 z"
               style="fill:#0082ad;fill-opacity:1"
               inkscape:connector-curvature="0" />
            <path
               id="path4436"
               d="M 81.566,93.248 C 83.273479,84.21125 65.051543,85.905777 60.028473,90.928848 L -81.392883,232.3502 c 5.02307,-5.02307 23.245005,-6.71759 21.537527,2.31916 z"
               style="fill:#0082ad;fill-opacity:1"
               inkscape:connector-curvature="0" />
            <path
               id="path4438"
               d="M 60.028473,90.928848 C 59.126747,91.830574 58.650372,92.839567 58.791,93.913 L -82.630356,235.33436 c -0.140629,-1.07344 0.335747,-2.08243 1.237473,-2.98416 z"
               style="fill:#0082ad;fill-opacity:1"
               inkscape:connector-curvature="0" />
            <path
               id="path4440"
               d="m 58.791,93.913 0,0 -141.421356,141.42136 0,0 z"
               style="fill:#0082ad;fill-opacity:1"
               inkscape:connector-curvature="0" />
          </g>
          <path
             style="fill:#0082ad;fill-opacity:1;stroke:none;stroke-width:1.00008464;stroke-miterlimit:4;stroke-dasharray:none;stroke-opacity:1"
             inkscape:connector-curvature="0"
             d="m 58.791,93.913 c 1.107,8.454 -6.202,12.629 -13.36,7.179 C 22.644,83.743 83.16,75.088 79.171,51.386 75.86,31.712 15.495,37.769 8.621,68.553 3.968,89.374 27.774,118.26 52.614,118.26 c 12.22,0 26.315,-11.034 28.952,-25.012 C 83.58,82.589 57.867,86.86 58.791,93.913 l 0,0 z"
             id="path4278" />
        </g>
        <g
           id="g4443"
           style="fill:#0082ad;fill-opacity:1">
          <g
             id="g4445"
             style="fill:#0082ad;fill-opacity:1;stroke:none;stroke-width:1.00008464;stroke-miterlimit:4;stroke-dasharray:none;stroke-opacity:1">
            <path
               id="path4447"
               d="m 11.445,48.453 c 0.268152,-0.118036 0.510631,-0.289103 0.728169,-0.506641 L -129.24819,189.36772 c -0.21754,0.21753 -0.46001,0.3886 -0.72817,0.50664 z"
               style="fill:#0082ad;fill-opacity:1"
               inkscape:connector-curvature="0" />
            <path
               id="path4449"
               d="M 12.173169,47.946359 C 16.207391,43.912137 11.664024,23.895865 3.208,29.735 l -141.42136,141.42136 c 8.45603,-5.83914 12.99939,14.17713 8.96517,18.21136 z"
               style="fill:#0082ad;fill-opacity:1"
               inkscape:connector-curvature="0" />
            <path
               id="path4451"
               d="M 3.208,29.735 C 2.7735633,30.035175 2.3886267,30.356076 2.0500034,30.694699 L -139.37135,172.11606 c 0.33862,-0.33863 0.72356,-0.65953 1.15799,-0.9597 z"
               style="fill:#0082ad;fill-opacity:1"
               inkscape:connector-curvature="0" />
            <path
               id="path4453"
               d="M 2.0500034,30.694699 C -4.5547487,37.299451 6.4595998,50.646538 11.445,48.453 l -141.42136,141.42136 c -4.9854,2.19353 -15.99974,-11.15355 -9.39499,-17.7583 z"
               style="fill:#0082ad;fill-opacity:1"
               inkscape:connector-curvature="0" />
          </g>
          <path
             style="fill:#0082ad;fill-opacity:1;stroke:none;stroke-width:1.00008464;stroke-miterlimit:4;stroke-dasharray:none;stroke-opacity:1"
             inkscape:connector-curvature="0"
             d="M 11.445,48.453 C 16.686,46.146 12.12,23.581 3.208,29.735 -5.7,35.89 6.204,50.759 11.445,48.453 Z"
             id="path4274" />
        </g>
      </g>
    </g>
    <g
       transform="matrix(1.1432706,0,0,1.1432704,73.003022,898.75781)"
       id="g4212"
       style="opacity:1;fill:#ffffff;fill-opacity:1;fill-rule:nonzero;stroke:none;stroke-width:1.00008464;stroke-miterlimit:4;stroke-dasharray:none;stroke-opacity:1">
      <g
         id="g4214"
         style="fill:#ffffff;fill-opacity:1;stroke:none;stroke-width:1.00008464;stroke-miterlimit:4;stroke-dasharray:none;stroke-opacity:1">
        <path
           id="path4216"
           d="M 86.068,0 C 61.466,0 56.851,35.041 70.691,35.041 84.529,35.041 110.671,0 86.068,0 Z"
           inkscape:connector-curvature="0"
           style="fill:#ffffff;fill-opacity:1;stroke:none;stroke-width:1.00008464;stroke-miterlimit:4;stroke-dasharray:none;stroke-opacity:1" />
        <path
           id="path4218"
           d="M 45.217,30.699 C 52.586,31.149 60.671,2.577 46.821,4.374 32.976,6.171 37.845,30.249 45.217,30.699 Z"
           inkscape:connector-curvature="0"
           style="fill:#ffffff;fill-opacity:1;stroke:none;stroke-width:1.00008464;stroke-miterlimit:4;stroke-dasharray:none;stroke-opacity:1" />
        <path
           id="path4220"
           d="M 11.445,48.453 C 16.686,46.146 12.12,23.581 3.208,29.735 -5.7,35.89 6.204,50.759 11.445,48.453 Z"
           inkscape:connector-curvature="0"
           style="fill:#ffffff;fill-opacity:1;stroke:none;stroke-width:1.00008464;stroke-miterlimit:4;stroke-dasharray:none;stroke-opacity:1" />
        <path
           id="path4222"
           d="M 26.212,36.642 C 32.451,35.37 32.793,9.778 21.667,14.369 10.539,18.961 19.978,37.916 26.212,36.642 l 0,0 z"
           inkscape:connector-curvature="0"
           style="fill:#ffffff;fill-opacity:1;stroke:none;stroke-width:1.00008464;stroke-miterlimit:4;stroke-dasharray:none;stroke-opacity:1" />
        <path
           id="path4224"
           d="m 58.791,93.913 c 1.107,8.454 -6.202,12.629 -13.36,7.179 C 22.644,83.743 83.16,75.088 79.171,51.386 75.86,31.712 15.495,37.769 8.621,68.553 3.968,89.374 27.774,118.26 52.614,118.26 c 12.22,0 26.315,-11.034 28.952,-25.012 C 83.58,82.589 57.867,86.86 58.791,93.913 l 0,0 z"
           inkscape:connector-curvature="0"
           style="fill:#ffffff;fill-opacity:1;stroke:none;stroke-width:1.00008464;stroke-miterlimit:4;stroke-dasharray:none;stroke-opacity:1" />
      </g>
    </g>
    <g
       style="opacity:1;fill:#ffffff;fill-opacity:1;fill-rule:nonzero;stroke:none;stroke-width:1.00008464;stroke-miterlimit:4;stroke-dasharray:none;stroke-opacity:1"
       id="g4228"
       transform="matrix(1.1432706,0,0,1.1432704,73.003022,888.75781)">
      <g
         style="fill:#ffffff;fill-opacity:1;stroke:none;stroke-width:1.00008464;stroke-miterlimit:4;stroke-dasharray:none;stroke-opacity:1"
         id="g4230" />
    </g>
  </g>
</svg>
