<?xml version="1.0" encoding="UTF-8" standalone="no"?>
<!-- Created with Inkscape (http://www.inkscape.org/) -->

<svg
   xmlns:dc="http://purl.org/dc/elements/1.1/"
   xmlns:cc="http://creativecommons.org/ns#"
   xmlns:rdf="http://www.w3.org/1999/02/22-rdf-syntax-ns#"
   xmlns:svg="http://www.w3.org/2000/svg"
   xmlns="http://www.w3.org/2000/svg"
   xmlns:sodipodi="http://sodipodi.sourceforge.net/DTD/sodipodi-0.dtd"
   xmlns:inkscape="http://www.inkscape.org/namespaces/inkscape"
   width="256"
   height="256"
   viewBox="0 0 256 256"
   id="svg2"
   version="1.1"
   inkscape:version="0.91 r13725"
   sodipodi:docname="gnome-netstatus-75-100.svg">
  <defs
     id="defs4">
    <inkscape:path-effect
       effect="spiro"
       id="path-effect5026"
       is_visible="true" />
    <inkscape:path-effect
       effect="spiro"
       id="path-effect4146"
       is_visible="true" />
    <clipPath
       clipPathUnits="userSpaceOnUse"
       id="clipPath4198">
      <path
         style="fill:#b18585;fill-opacity:1;stroke:none;stroke-width:25;stroke-linecap:round;stroke-linejoin:round;stroke-miterlimit:4;stroke-dasharray:none;stroke-opacity:1"
         id="path4200"
         sodipodi:type="arc"
         sodipodi:cx="128"
         sodipodi:cy="924.36218"
         sodipodi:rx="128"
         sodipodi:ry="128"
         sodipodi:start="0"
         sodipodi:end="1.5707963"
         d="M 256,924.36218 A 128,128 0 0 1 128,1052.3622 l 0,-128.00002 z" />
    </clipPath>
  </defs>
  <sodipodi:namedview
     id="base"
     pagecolor="#ffffff"
     bordercolor="#666666"
     borderopacity="1.0"
     inkscape:pageopacity="0.0"
     inkscape:pageshadow="2"
     inkscape:zoom="2.0507812"
     inkscape:cx="128"
     inkscape:cy="128"
     inkscape:document-units="px"
     inkscape:current-layer="layer1"
     showgrid="true"
     units="px"
     inkscape:window-width="1366"
     inkscape:window-height="721"
     inkscape:window-x="0"
     inkscape:window-y="0"
     inkscape:window-maximized="1">
    <inkscape:grid
       type="xygrid"
       id="grid4140"
       spacingx="5"
       spacingy="5" />
  </sodipodi:namedview>
  <metadata
     id="metadata7">
    <rdf:RDF>
      <cc:Work
         rdf:about="">
        <dc:format>image/svg+xml</dc:format>
        <dc:type
           rdf:resource="http://purl.org/dc/dcmitype/StillImage" />
        <dc:title></dc:title>
      </cc:Work>
    </rdf:RDF>
  </metadata>
  <g
     inkscape:label="Layer 1"
     inkscape:groupmode="layer"
     id="layer1"
     transform="translate(0,-796.36216)">
    <circle
       style="fill:#b18585;fill-opacity:1;stroke:none;stroke-width:25;stroke-linecap:round;stroke-linejoin:round;stroke-miterlimit:4;stroke-dasharray:none;stroke-opacity:1"
       id="path4189"
       cx="0"
       cy="0"
       r="0"
       transform="translate(0,796.36216)" />
    <path
       style="fill:#ffffff;fill-opacity:1"
       d="m 120.02615,1027.7979 c -9.95279,-3.5847 -18.28709,-11.9409 -21.555485,-21.612 -2.00341,-5.928 -2.01728,-17.90674 -0.0273,-23.54702 3.595785,-10.19157 12.518715,-18.85676 22.486005,-21.83652 7.61939,-2.27785 19.91165,-1.50385 26.59136,1.67435 21.58984,10.27245 26.5501,39.92679 9.53193,56.98559 -7.01584,7.0327 -12.77417,9.4076 -23.53193,9.7054 -6.31549,0.1748 -10.34064,-0.2338 -13.4946,-1.3698 z"
       id="path4158" />
    <path
       style="fill:#ffffff;fill-opacity:1"
       d="m 86.844835,954.66958 c -6.95551,-6.4625 -12.68636,-12.3026 -12.73523,-12.97801 -0.16539,-2.28611 13.35928,-12.4002 22.41116,-16.75962 12.982225,-6.25228 20.525425,-7.93359 35.499995,-7.91259 13.94975,0.0196 22.75077,1.92259 34.44549,7.44809 7.18816,3.39624 18.3318,11.20817 19.19419,13.45555 0.53675,1.39874 -22.14648,26.49521 -23.94832,26.49615 -0.44475,2.4e-4 -2.46975,-1.32905 -4.5,-2.95397 -8.15811,-6.52939 -20.76502,-9.80212 -31.25268,-8.11313 -7.39438,1.19083 -17.16903,5.57486 -22.11806,9.92017 -1.97156,1.73105 -3.75689,3.14736 -3.967405,3.14736 -0.21051,0 -6.07363,-5.2875 -13.02914,-11.75 z"
       id="path4156" />
    <path
       style="fill:#ffffff;fill-opacity:1"
       d="m 50.298725,920.16958 -13.08743,-12.25001 4.15473,-4.3369 c 10.08464,-10.52681 29.34574,-22.74883 45.33544,-28.76733 35.342235,-13.30279 78.940545,-9.31985 111.235765,10.16197 8.49994,5.12752 23.1844,16.4308 22.79457,17.546 -0.11607,0.33206 -5.66805,6.34504 -12.33773,13.36219 l -12.12668,12.75845 -7.37332,-5.67028 c -8.83807,-6.79673 -22.4238,-13.6178 -33.37331,-16.75594 -10.75558,-3.08256 -35.17997,-3.30077 -45.91554,-0.41021 -15.380325,4.14116 -32.130305,13.33782 -41.037405,22.5318 -2.17412,2.24414 -4.22941,4.08026 -4.56731,4.08026 -0.3379,0 -6.5037,-5.5125 -13.70178,-12.25 z"
       id="path4154" />
    <path
       style="fill:#ffffff;fill-opacity:1"
       d="m 15.232855,887.16957 -13.20313,-12.25 7.42665,-7.20309 c 14.36982,-13.93726 34.11081,-26.87895 53.20019,-34.87669 13.7298,-5.75228 24.45288,-8.8165 40.151235,-11.4736 11.1239,-1.88282 15.33785,-2.09021 33.71296,-1.65912 23.34863,0.54777 32.64895,2.05016 51.5,8.3194 21.39622,7.11569 46.08274,21.18173 59.72476,34.03036 l 6.22476,5.86274 c -8.26296,8.61997 -16.52592,17.23993 -24.78889,25.85989 l -3.60871,-2.92994 c -21.276,-17.27417 -39.70025,-26.72603 -62.55191,-32.08989 -14.65474,-3.43983 -37.23719,-4.25658 -52.5,-1.89878 -12.413685,1.91767 -30.853595,7.69244 -41.121275,12.87782 -11.03944,5.57513 -24.65603,15.00014 -32.67231,22.61482 -4.09132,3.88635 -7.63055,7.06608 -7.86497,7.06608 -0.23443,0 -6.36764,-5.5125 -13.62936,-12.25 z"
       id="path4138"
       inkscape:connector-curvature="0"
       sodipodi:nodetypes="scssssssccsssssss" />
  </g>
</svg>
