<?xml version="1.0" encoding="UTF-8" standalone="no"?>
<!-- Created with Inkscape (http://www.inkscape.org/) -->

<svg
   xmlns:dc="http://purl.org/dc/elements/1.1/"
   xmlns:cc="http://creativecommons.org/ns#"
   xmlns:rdf="http://www.w3.org/1999/02/22-rdf-syntax-ns#"
   xmlns:svg="http://www.w3.org/2000/svg"
   xmlns="http://www.w3.org/2000/svg"
   xmlns:sodipodi="http://sodipodi.sourceforge.net/DTD/sodipodi-0.dtd"
   xmlns:inkscape="http://www.inkscape.org/namespaces/inkscape"
   sodipodi:docname="mail-attachment.svg"
   viewBox="0 0 256 256"
   height="256"
   width="256"
   inkscape:version="0.92.4 (unknown)"
   version="1.1"
   id="svg2">
  <sodipodi:namedview
     showguides="true"
     inkscape:current-layer="svg2"
     inkscape:window-maximized="1"
     inkscape:window-y="0"
     inkscape:window-x="0"
     inkscape:cy="128"
     inkscape:cx="128"
     inkscape:zoom="3.3046875"
     showgrid="true"
     id="namedview4"
     inkscape:window-height="1048"
     inkscape:window-width="1920"
     inkscape:pageshadow="2"
     inkscape:pageopacity="0"
     guidetolerance="10"
     gridtolerance="10"
     objecttolerance="10"
     borderopacity="1"
     bordercolor="#666666"
     pagecolor="#ffffff">
    <inkscape:grid
       type="xygrid"
       id="grid4156"
       spacingx="5"
       spacingy="5" />
  </sodipodi:namedview>
  <metadata
     id="metadata8">
    <rdf:RDF>
      <cc:Work
         rdf:about="">
        <dc:format>image/svg+xml</dc:format>
        <dc:type
           rdf:resource="http://purl.org/dc/dcmitype/StillImage" />
        <dc:title />
      </cc:Work>
    </rdf:RDF>
  </metadata>
  <defs
     id="defs6">
    <clipPath
       id="clipPath4209"
       clipPathUnits="userSpaceOnUse">
      <circle
         r="128"
         cy="128"
         cx="128"
         id="circle4211"
         style="opacity:1;fill:#66a767;fill-opacity:1;stroke:none;stroke-width:3.5;stroke-linecap:round;stroke-linejoin:round;stroke-miterlimit:4;stroke-dasharray:none;stroke-opacity:1" />
    </clipPath>
    <clipPath
       clipPathUnits="userSpaceOnUse"
       id="clipPath4300">
      <circle
         r="128"
         cy="128"
         cx="128"
         id="circle4302"
         style="opacity:1;fill:#f4b2b2;fill-opacity:1;stroke:none;stroke-width:3.5;stroke-linecap:round;stroke-linejoin:round;stroke-miterlimit:4;stroke-dasharray:none;stroke-opacity:1" />
    </clipPath>
    <clipPath
       clipPathUnits="userSpaceOnUse"
       id="clipPath954">
      <circle
         r="128"
         cy="128"
         cx="128"
         id="circle956"
         style="opacity:1;fill:#82e08a;fill-opacity:1;stroke:none;stroke-width:3.5;stroke-linecap:round;stroke-linejoin:round;stroke-miterlimit:4;stroke-dasharray:none;stroke-opacity:1" />
    </clipPath>
  </defs>
  <circle
     style="opacity:1;fill:#3a8757;fill-opacity:1;stroke:none;stroke-width:3.5;stroke-linecap:round;stroke-linejoin:round;stroke-miterlimit:4;stroke-dasharray:none;stroke-opacity:1"
     id="path4166"
     cx="128"
     cy="128"
     r="128" />
  <g
     id="g918"
     clip-path="url(#clipPath954)"
     style="fill:#29603e;fill-opacity:1">
    <g
       id="g915"
       style="fill:#29603e;fill-opacity:1;stroke-width:0.46875003">
      <path
         id="path861"
         d="M139.09173 203.2622L61.310202 125.48067L-80.1111542373 266.902026237L-2.32962623731 344.683556237Z"
         style="fill:#29603e;fill-opacity:1" />
      <path
         id="path863"
         d="M61.310202 125.48067C45.752312 109.92278 45.752312 84.469584 61.310203 68.911693L-80.1111532373 210.333049237C-95.6690442373 225.890940237 -95.6690442373 251.344136237 -80.1111542373 266.902026237Z"
         style="fill:#29603e;fill-opacity:1" />
      <path
         id="path865"
         d="M61.310203 68.911693C61.310203 68.911693 61.310203 68.911693 61.310203 68.911693L-80.1111532373 210.333049237C-80.1111532373 210.333049237 -80.1111532373 210.333049237 -80.1111532373 210.333049237Z"
         style="fill:#29603e;fill-opacity:1" />
      <path
         id="path867"
         d="M61.310203 68.911693C61.3102048337 68.9116911663 61.3102066673 68.9116893327 61.310208501 68.911687499L-80.1111477363 210.333043736C-80.11114957 210.33304557 -80.1111514036 210.333047404 -80.1111532373 210.333049237Z"
         style="fill:#29603e;fill-opacity:1" />
      <path
         id="path869"
         d="M61.310208501 68.911687499C76.867764 53.354132 102.320961834 53.3541358337 117.87885 68.912024L-23.5425062373 210.333380237C-39.1003944036 194.775492071 -64.5535922373 194.775488237 -80.1111477363 210.333043736Z"
         style="fill:#29603e;fill-opacity:1" />
      <path
         id="path871"
         d="M117.87885 68.912024L199.1957 150.22886L57.7743437627 291.650216237L-23.5425062373 210.333380237Z"
         style="fill:#29603e;fill-opacity:1" />
      <path
         id="path873"
         d="M199.1957 150.22886C209.09465 160.12781 209.09498 175.68536 199.19603 185.58431L57.7746737627 327.005666237C67.6736237627 317.106716237 67.6732937627 301.549166237 57.7743437627 291.650216237Z"
         style="fill:#29603e;fill-opacity:1" />
      <path
         id="path875"
         d="M199.19603 185.58431C199.19603 185.58431 199.19603 185.58431 199.19603 185.58431L57.7746737627 327.005666237C57.7746737627 327.005666237 57.7746737627 327.005666237 57.7746737627 327.005666237Z"
         style="fill:#29603e;fill-opacity:1" />
      <path
         id="path877"
         d="M199.19603 185.58431C199.196026819 185.584313181 199.196023638 185.584316362 199.196020456 185.584319544L57.774664219 327.005675781C57.7746674003 327.0056726 57.7746705815 327.005669419 57.7746737627 327.005666237Z"
         style="fill:#29603e;fill-opacity:1" />
      <path
         id="path879"
         d="M199.196020456 185.584319544C189.29741 195.48293 173.739526819 195.482926819 163.84059 185.58399L22.4192337627 327.005346237C32.3181705814 336.904283056 47.8760537627 336.904286237 57.774664219 327.005675781Z"
         style="fill:#29603e;fill-opacity:1" />
      <path
         id="path881"
         d="M163.84059 185.58399L82.523404 104.2668L-58.8979522373 245.688156237L22.4192337627 327.005346237Z"
         style="fill:#29603e;fill-opacity:1" />
      <path
         id="path883"
         d="M82.523404 104.2668C78.635762 100.37916 78.636078 94.012221 82.523729 90.124569L-58.8976272373 231.545925237C-62.7852782373 235.433577237 -62.7855942373 241.800516237 -58.8979522373 245.688156237Z"
         style="fill:#29603e;fill-opacity:1" />
      <path
         id="path885"
         d="M82.523729 90.124569C86.411391 86.236913 92.778012 86.236914 96.665646 90.124563L-44.7557102373 231.545919237C-48.6433442373 227.658270237 -55.0099652373 227.658269237 -58.8976272373 231.545925237Z"
         style="fill:#29603e;fill-opacity:1" />
      <path
         id="path887"
         d="M96.665646 90.124563L163.84092 157.29982L22.4195637627 298.721176237L-44.7557102373 231.545919237Z"
         style="fill:#29603e;fill-opacity:1" />
      <path
         id="path889"
         d="M163.84092 157.29982L174.44752 146.69322L33.0261637627 288.114576237L22.4195637627 298.721176237Z"
         style="fill:#29603e;fill-opacity:1" />
      <path
         id="path891"
         d="M174.44752 146.69322L107.27225 79.517961L-34.1491062373 220.939317237L33.0261637627 288.114576237Z"
         style="fill:#29603e;fill-opacity:1" />
      <path
         id="path893"
         d="M107.27225 79.517961C97.373316 69.619676 81.815742 69.619345 71.916788 79.518292L-69.5045682373 220.939648237C-59.6056142373 211.040701237 -44.0480402373 211.041032237 -34.1491062373 220.939317237Z"
         style="fill:#29603e;fill-opacity:1" />
      <path
         id="path895"
         d="M71.916788 79.518292C62.017853 89.417231 62.017857 104.97514 71.916467 114.87375L-69.5048892373 256.295106237C-79.4034992373 246.396496237 -79.4035032373 230.838587237 -69.5045682373 220.939648237Z"
         style="fill:#29603e;fill-opacity:1" />
      <path
         id="path897"
         d="M71.916467 114.87375L153.23365 196.19092L11.8122937627 337.612276237L-69.5048892373 256.295106237Z"
         style="fill:#29603e;fill-opacity:1" />
      <path
         id="path899"
         d="M153.23365 196.19092C168.78989 211.74716 194.24474 211.74881 209.80263 196.19092L68.3812737627 337.612276237C52.8233837627 353.170166237 27.3685337627 353.168516237 11.8122937627 337.612276237Z"
         style="fill:#29603e;fill-opacity:1" />
      <path
         id="path901"
         d="M209.80263 196.19092C225.36053 180.63301 225.35887 155.17816 209.80264 139.62193L68.3812837627 281.043286237C83.9375137627 296.599516237 83.9391737627 322.054366237 68.3812737627 337.612276237Z"
         style="fill:#29603e;fill-opacity:1" />
      <path
         id="path903"
         d="M209.80264 139.62193L128.48578 58.30509L-12.9355762373 199.726446237L68.3812837627 281.043286237Z"
         style="fill:#29603e;fill-opacity:1" />
      <path
         id="path905"
         d="M128.48578 58.30509C106.919910311 36.7398833112 72.26881 36.739884 50.7036029335 58.3050910665L-90.7177533038 199.726447304C-69.1525462373 178.161240237 -34.5014459261 178.161239548 -12.9355762373 199.726446237Z"
         style="fill:#29603e;fill-opacity:1" />
      <path
         id="path907"
         d="M50.7036029335 58.3050910665C50.7036026224 58.3050913776 50.7036023112 58.3050916888 50.703602 58.305092L-90.7177542373 199.726448237C-90.7177539261 199.726447926 -90.717753615 199.726447615 -90.7177533038 199.726447304Z"
         style="fill:#29603e;fill-opacity:1" />
      <path
         id="path909"
         d="M50.703602 58.305092C50.7036016888 58.3050923112 50.7036013776 58.3050926224 50.7036010665 58.3050929335L-90.7177551708 199.726449171C-90.7177548597 199.72644886 -90.7177545485 199.726448548 -90.7177542373 199.726448237Z"
         style="fill:#29603e;fill-opacity:1" />
      <path
         id="path911"
         d="M50.7036010665 58.3050929335C29.138393 79.870301 29.1380613112 114.521730311 50.703601 136.08727L-90.7177552373 277.508626237C-112.283294926 255.943086548 -112.282963237 221.291657237 -90.7177551708 199.726449171Z"
         style="fill:#29603e;fill-opacity:1" />
      <path
         id="path913"
         d="M50.703601 136.08727L128.48512 213.86881L-12.9362362373 355.290166237L-90.7177552373 277.508626237Z"
         style="fill:#29603e;fill-opacity:1" />
    </g>
    <path
       inkscape:connector-curvature="0"
       d="M 139.09173,203.2622 61.310202,125.48067 c -15.55789,-15.55789 -15.55789,-41.011086 1e-6,-56.568977 15.557555,-15.557561 41.010757,-15.557559 56.568647,3.31e-4 l 81.31685,81.316836 c 9.89895,9.89895 9.89928,25.4565 3.3e-4,35.35545 -9.89861,9.89862 -25.4565,9.89862 -35.35544,-3.2e-4 L 82.523404,104.2668 c -3.887642,-3.88764 -3.887326,-10.254579 3.25e-4,-14.142231 3.887662,-3.887656 10.254283,-3.887655 14.141917,-6e-6 l 67.175274,67.175257 10.6066,-10.6066 -67.17527,-67.175259 c -9.898934,-9.898285 -25.456508,-9.898616 -35.355462,3.31e-4 -9.898935,9.898939 -9.898931,25.456848 -3.21e-4,35.355458 l 81.317183,81.31717 c 15.55624,15.55624 41.01109,15.55789 56.56898,0 15.5579,-15.55791 15.55624,-41.01276 1e-5,-56.56899 L 128.48578,58.30509 c -21.56587,-21.565207 -56.216971,-21.565206 -77.782178,2e-6 -21.565209,21.565208 -21.565541,56.216638 -10e-7,77.782178 l 77.781519,77.78154 z"
       id="path849"
       style="fill:#29603e;fill-opacity:1;stroke-width:0.46875003" />
  </g>
  <path
     inkscape:connector-curvature="0"
     d="M 139.09173,203.2622 61.310202,125.48067 c -15.55789,-15.55789 -15.55789,-41.011086 1e-6,-56.568977 15.557555,-15.557561 41.010757,-15.557559 56.568647,3.31e-4 l 81.31685,81.316836 c 9.89895,9.89895 9.89928,25.4565 3.3e-4,35.35545 -9.89861,9.89862 -25.4565,9.89862 -35.35544,-3.2e-4 L 82.523404,104.2668 c -3.887642,-3.88764 -3.887326,-10.254579 3.25e-4,-14.142231 3.887662,-3.887656 10.254283,-3.887655 14.141917,-6e-6 l 67.175274,67.175257 10.6066,-10.6066 -67.17527,-67.175259 c -9.898934,-9.898285 -25.456508,-9.898616 -35.355462,3.31e-4 -9.898935,9.898939 -9.898931,25.456848 -3.21e-4,35.355458 l 81.317183,81.31717 c 15.55624,15.55624 41.01109,15.55789 56.56898,0 15.5579,-15.55791 15.55624,-41.01276 1e-5,-56.56899 L 128.48578,58.30509 c -21.56587,-21.565207 -56.216971,-21.565206 -77.782178,2e-6 -21.565209,21.565208 -21.565541,56.216638 -10e-7,77.782178 l 77.781519,77.78154 z"
     id="Icon_3_"
     style="fill:#ffffff;fill-opacity:1;stroke-width:0.46875003" />
</svg>
