<?xml version="1.0" encoding="UTF-8" standalone="no"?>
<!-- Created with Inkscape (http://www.inkscape.org/) -->

<svg
   xmlns:dc="http://purl.org/dc/elements/1.1/"
   xmlns:cc="http://creativecommons.org/ns#"
   xmlns:rdf="http://www.w3.org/1999/02/22-rdf-syntax-ns#"
   xmlns:svg="http://www.w3.org/2000/svg"
   xmlns="http://www.w3.org/2000/svg"
   xmlns:sodipodi="http://sodipodi.sourceforge.net/DTD/sodipodi-0.dtd"
   xmlns:inkscape="http://www.inkscape.org/namespaces/inkscape"
   width="256"
   height="256"
   viewBox="0 0 256 256"
   id="svg4147"
   version="1.1"
   inkscape:version="0.92pre3 r"
   sodipodi:docname="network-cellular-edge-symbolic.svg">
  <sodipodi:namedview
     id="base"
     pagecolor="#ffffff"
     bordercolor="#666666"
     borderopacity="1.0"
     inkscape:pageopacity="0.0"
     inkscape:pageshadow="2"
     inkscape:zoom="3.3359375"
     inkscape:cx="73.142853"
     inkscape:cy="156.97133"
     inkscape:document-units="px"
     inkscape:current-layer="layer1"
     showgrid="false"
     units="px"
     inkscape:window-width="1920"
     inkscape:window-height="1054"
     inkscape:window-x="0"
     inkscape:window-y="0"
     inkscape:window-maximized="1" />
  <defs
     id="defs4149">
    <clipPath
       clipPathUnits="userSpaceOnUse"
       id="clipPath4260">
      <circle
         style="fill:#46a148;fill-opacity:1;stroke:none;stroke-width:35;stroke-linecap:round;stroke-linejoin:round;stroke-miterlimit:4;stroke-dasharray:none;stroke-opacity:1"
         id="circle4262"
         cx="128"
         cy="835.52533"
         r="173.17647" />
    </clipPath>
  </defs>
  <metadata
     id="metadata4152">
    <rdf:RDF>
      <cc:Work
         rdf:about="">
        <dc:format>image/svg+xml</dc:format>
        <dc:type
           rdf:resource="http://purl.org/dc/dcmitype/StillImage" />
        <dc:title />
      </cc:Work>
    </rdf:RDF>
  </metadata>
  <g
     transform="translate(0,-796.36216)"
     id="layer1"
     inkscape:groupmode="layer"
     inkscape:label="Layer 1">
    <path
       style="fill:#f85656;fill-opacity:1;stroke:none;stroke-width:35;stroke-linecap:round;stroke-linejoin:round;stroke-miterlimit:4;stroke-dasharray:none;stroke-opacity:1"
       d="M 128 0 A 128 128 0 0 0 0 128 A 128 128 0 0 0 128 256 A 128 128 0 0 0 256 128 A 128 128 0 0 0 128 0 z M 83.28125 53 L 169.67969 53 C 172.57404 53 174.74423 53.578588 176.19141 54.736328 C 177.7833 55.894075 178.72423 57.051244 179.01367 58.208984 C 179.30311 59.366724 179.44727 60.886245 179.44727 62.767578 L 179.44727 66.242188 C 179.44727 72.609768 176.40822 75.792969 170.33008 75.792969 L 162.94922 75.792969 C 159.91015 75.648255 153.03529 75.504095 142.32617 75.359375 C 131.61706 75.214655 118.88231 75.068541 104.12109 74.923828 L 104.12109 115.08398 L 161.64648 115.08398 C 163.3831 115.08398 164.75846 115.15607 165.77148 115.30078 C 166.7845 115.4455 167.8696 115.80785 169.02734 116.38672 C 170.3298 116.96559 171.27074 118.05068 171.84961 119.64258 C 172.5732 121.08975 172.93555 123.0437 172.93555 125.50391 C 172.93555 132.30564 169.67832 135.70703 163.16602 135.70703 L 104.12109 135.70703 L 104.12109 179.77344 L 173.58594 178.9043 C 179.66408 179.04901 182.70313 182.37832 182.70312 188.89062 L 182.70312 193.44922 C 182.70313 199.8168 179.44785 203 172.93555 203 L 83.28125 203 C 80.242176 203 77.927834 202.34934 76.335938 201.04688 C 74.744042 199.74441 73.803108 198.51321 73.513672 197.35547 C 73.368955 196.19772 73.296875 194.6782 73.296875 192.79688 L 73.296875 63.203125 C 73.296875 59.295745 74.091698 56.617095 75.683594 55.169922 C 77.420208 53.722742 79.952741 53 83.28125 53 z "
       transform="translate(0,796.36216)"
       id="path4134" />
    <g
       aria-label="E"
       style="font-style:normal;font-variant:normal;font-weight:bold;font-stretch:normal;font-size:217.07670593px;line-height:31.30914116px;font-family:'CMU Sans Serif';-inkscape-font-specification:'CMU Sans Serif Bold';letter-spacing:0px;word-spacing:0px;fill:#000000;fill-opacity:1;stroke:none;stroke-width:1.25236559px;stroke-linecap:butt;stroke-linejoin:miter;stroke-opacity:1"
       id="text4516" />
  </g>
</svg>
