<?xml version="1.0" encoding="UTF-8" standalone="no"?>
<!-- Created with Inkscape (http://www.inkscape.org/) -->

<svg
   xmlns:dc="http://purl.org/dc/elements/1.1/"
   xmlns:cc="http://creativecommons.org/ns#"
   xmlns:rdf="http://www.w3.org/1999/02/22-rdf-syntax-ns#"
   xmlns:svg="http://www.w3.org/2000/svg"
   xmlns="http://www.w3.org/2000/svg"
   xmlns:sodipodi="http://sodipodi.sourceforge.net/DTD/sodipodi-0.dtd"
   xmlns:inkscape="http://www.inkscape.org/namespaces/inkscape"
   sodipodi:docname="org.gnome.Shell.Extensions.GSConnect.svg"
   inkscape:version="0.92.3 (2405546, 2018-03-11)"
   version="1.1"
   id="svg2"
   viewBox="0 0 256 256"
   height="256"
   width="256">
  <sodipodi:namedview
     inkscape:window-maximized="1"
     inkscape:window-y="0"
     inkscape:window-x="0"
     inkscape:window-height="1048"
     inkscape:window-width="1920"
     units="px"
     showgrid="true"
     inkscape:current-layer="layer1"
     inkscape:document-units="px"
     inkscape:cy="128"
     inkscape:cx="128"
     inkscape:zoom="3.3125"
     inkscape:pageshadow="2"
     inkscape:pageopacity="0.0"
     borderopacity="1.0"
     bordercolor="#666666"
     pagecolor="#ffffff"
     id="base">
    <inkscape:grid
       spacingy="5"
       spacingx="5"
       id="grid4136"
       type="xygrid" />
  </sodipodi:namedview>
  <defs
     id="defs4">
    <clipPath
       id="clipPath4828"
       clipPathUnits="userSpaceOnUse">
      <circle
         style="opacity:1;fill:#68bdff;fill-opacity:1;stroke:none;stroke-width:52.82038116;stroke-linecap:round;stroke-linejoin:round;stroke-miterlimit:4;stroke-dasharray:none;stroke-opacity:1"
         id="circle4830"
         cx="128"
         cy="924.36218"
         r="128" />
    </clipPath>
    <clipPath
       id="clipPath4851"
       clipPathUnits="userSpaceOnUse">
      <path
         inkscape:connector-curvature="0"
         style="opacity:1;fill:#68bdff;fill-opacity:1;stroke:none;stroke-width:52.82038116;stroke-linecap:round;stroke-linejoin:round;stroke-miterlimit:4;stroke-dasharray:none;stroke-opacity:1"
         d="m 128,796.36216 a 128,128 0 0 0 -87.652344,34.83789 l 86.988284,87.51367 90.69336,-85.25976 A 128,128 0 0 0 128,796.36216 Z M 23.730469,850.28404 A 128,128 0 0 0 0,924.36216 128,128 0 0 0 128,1052.3622 128,128 0 0 0 256,924.36216 128,128 0 0 0 234.1582,852.93052 l -95.94336,90.19922 c -0.48074,0.45195 -0.99482,0.84265 -1.52148,1.20508 -0.25351,0.30378 -0.51825,0.602 -0.80469,0.88672 -4.95863,4.92876 -12.91888,4.90394 -17.84765,-0.0547 L 23.730469,850.28404 Z"
         id="path4853" />
    </clipPath>
    <clipPath
       id="clipPath4147"
       clipPathUnits="userSpaceOnUse">
      <path
         inkscape:connector-curvature="0"
         style="opacity:1;fill:#fff168;fill-opacity:1;stroke:none;stroke-width:52.82038116;stroke-linecap:round;stroke-linejoin:round;stroke-miterlimit:4;stroke-dasharray:none;stroke-opacity:1"
         d="M 23.730469,850.28404 A 128,128 0 0 0 0,924.36216 128,128 0 0 0 128,1052.3622 128,128 0 0 0 256,924.36216 128,128 0 0 0 234.1582,852.93052 l -95.94336,90.19922 c -0.48074,0.45195 -0.99482,0.84265 -1.52148,1.20508 -0.25351,0.30378 -0.51825,0.602 -0.80469,0.88672 -4.95863,4.92876 -12.91888,4.90394 -17.84765,-0.0547 l -94.310551,-94.8828 z"
         id="path4149" />
    </clipPath>
    <clipPath
       clipPathUnits="userSpaceOnUse"
       id="clipPath4292">
      <circle
         style="fill:#ffaa31;fill-opacity:1;stroke:none;stroke-width:9.51799965;stroke-linecap:butt;stroke-linejoin:miter;stroke-miterlimit:4;stroke-dasharray:none;stroke-opacity:1"
         id="circle4294"
         cx="132.27344"
         cy="904.67468"
         r="105.41177" />
    </clipPath>
    <clipPath
       id="clipPath4203"
       clipPathUnits="userSpaceOnUse">
      <circle
         style="fill:#62b7dc;fill-opacity:1;stroke:none;stroke-width:9.51799965;stroke-linecap:butt;stroke-linejoin:miter;stroke-miterlimit:4;stroke-dasharray:none;stroke-opacity:1"
         id="circle4205"
         cx="128"
         cy="924.36218"
         r="128" />
    </clipPath>
    <clipPath
       clipPathUnits="userSpaceOnUse"
       id="clipPath5130">
      <ellipse
         style="fill:#62b7dc;fill-opacity:1;stroke:none;stroke-width:9.12146091;stroke-linecap:butt;stroke-linejoin:miter;stroke-miterlimit:4;stroke-dasharray:none;stroke-opacity:1"
         id="circle5132"
         cx="128"
         cy="930.0899"
         rx="128"
         ry="117.55671" />
    </clipPath>
  </defs>
  <metadata
     id="metadata7">
    <rdf:RDF>
      <cc:Work
         rdf:about="">
        <dc:format>image/svg+xml</dc:format>
        <dc:type
           rdf:resource="http://purl.org/dc/dcmitype/StillImage" />
        <dc:title></dc:title>
      </cc:Work>
    </rdf:RDF>
  </metadata>
  <g
     transform="translate(0,-796.36216)"
     id="layer1"
     inkscape:groupmode="layer"
     inkscape:label="Layer 1">
    <circle
       r="128"
       cy="924.36218"
       cx="128"
       id="path4145"
       style="fill:#3cb9ef;fill-opacity:1;stroke:none;stroke-width:9.51799965;stroke-linecap:butt;stroke-linejoin:miter;stroke-miterlimit:4;stroke-dasharray:none;stroke-opacity:1" />
    <g
       id="g4853"
       transform="matrix(1,0,0,1.0888362,0,-88.353356)"
       clip-path="url(#clipPath5130)"
       style="fill:#108fc5;fill-opacity:1">
      <g
         id="g4839"
         transform="translate(-2,2.2023048)"
         style="fill:#108fc5;fill-opacity:1">
        <path
           inkscape:connector-curvature="0"
           style="color:#000000;font-style:normal;font-variant:normal;font-weight:normal;font-stretch:normal;font-size:medium;line-height:normal;font-family:sans-serif;font-variant-ligatures:normal;font-variant-position:normal;font-variant-caps:normal;font-variant-numeric:normal;font-variant-alternates:normal;font-feature-settings:normal;text-indent:0;text-align:start;text-decoration:none;text-decoration-line:none;text-decoration-style:solid;text-decoration-color:#000000;letter-spacing:normal;word-spacing:normal;text-transform:none;writing-mode:lr-tb;direction:ltr;text-orientation:mixed;dominant-baseline:auto;baseline-shift:baseline;text-anchor:start;white-space:normal;shape-padding:0;clip-rule:nonzero;display:inline;overflow:visible;visibility:visible;opacity:0.98999999;isolation:auto;mix-blend-mode:normal;color-interpolation:sRGB;color-interpolation-filters:linearRGB;solid-color:#000000;solid-opacity:1;vector-effect:none;fill:#108fc5;fill-opacity:1;fill-rule:nonzero;stroke:none;stroke-width:8.89999962;stroke-linecap:butt;stroke-linejoin:miter;stroke-miterlimit:4;stroke-dasharray:none;stroke-dashoffset:0;stroke-opacity:1;color-rendering:auto;image-rendering:auto;shape-rendering:auto;text-rendering:auto;enable-background:accumulate"
           d="m 70,62.550781 c -5.158315,0 -9.449219,4.290899 -9.449219,9.449219 v 80 c 0,0.16878 0.01632,0.3332 0.02539,0.5 H 45 c -5.18515,0 -9.5,3.23614 -9.5,7.125 v 3.75 c 0,3.88886 4.31485,7.125 9.5,7.125 h 170 c 5.18515,0 9.5,-3.23614 9.5,-7.125 v -3.75 c 0,-3.88886 -4.31485,-7.125 -9.5,-7.125 h -15.57617 c 0.009,-0.1668 0.0254,-0.33122 0.0254,-0.5 V 72 c 0,-5.15832 -4.2909,-9.449219 -9.44922,-9.449219 z m 0,8.900391 h 120 c 0.38166,0 0.55078,0.167158 0.55078,0.548828 v 80 c 0,0.26968 -0.0892,0.42724 -0.27344,0.5 H 69.722656 C 69.53844,152.4272 69.449219,152.26968 69.449219,152 V 72 c 0,-0.38167 0.16912,-0.548828 0.550781,-0.548828 z"
           transform="translate(0,796.36216)"
           id="path4829" />
        <g
           id="g4837"
           style="fill:#108fc5;fill-opacity:1">
          <g
             id="g4835"
             style="fill:#108fc5;fill-opacity:1">
            <path
               id="rect4831"
               d="m 169.99998,907.36218 h 35.00004 c 2.76999,0 4.99998,2.22999 4.99998,4.99998 v 75.00004 c 0,2.76999 -2.22999,4.99998 -4.99998,4.99998 h -35.00004 c -2.76999,0 -4.99998,-2.22999 -4.99998,-4.99998 v -75.00004 c 0,-2.76999 2.22999,-4.99998 4.99998,-4.99998 z"
               style="opacity:0.98999999;fill:#108fc5;fill-opacity:1;stroke:#ffffff;stroke-width:9;stroke-miterlimit:4;stroke-dasharray:none;stroke-opacity:1" />
            <path
               id="rect4833"
               d="m 170,982.36218 h 35 c 1.385,0 2.5,1.115 2.5,2.5 0,1.385 -1.115,2.5 -2.5,2.5 h -35 c -1.385,0 -2.5,-1.115 -2.5,-2.5 0,-1.385 1.115,-2.5 2.5,-2.5 z"
               style="opacity:0.98999999;fill:#108fc5;fill-opacity:1;stroke:#ffffff;stroke-width:9;stroke-miterlimit:4;stroke-dasharray:none;stroke-opacity:1" />
          </g>
        </g>
      </g>
      <g
         transform="translate(-2,2.2023048)"
         id="g4851"
         style="fill:#108fc5;fill-opacity:1">
        <g
           id="g4849"
           style="fill:#108fc5;fill-opacity:1">
          <g
             id="g4847"
             style="fill:#108fc5;fill-opacity:1" />
        </g>
        <g
           id="g5021"
           transform="matrix(1,0,0,0.91841179,2,810.33085)"
           style="fill:#108fc5;fill-opacity:1">
          <g
             id="g5018"
             style="color:#000000;font-style:normal;font-variant:normal;font-weight:normal;font-stretch:normal;font-size:medium;line-height:normal;font-family:sans-serif;font-variant-ligatures:normal;font-variant-position:normal;font-variant-caps:normal;font-variant-numeric:normal;font-variant-alternates:normal;font-feature-settings:normal;text-indent:0;text-align:start;text-decoration:none;text-decoration-line:none;text-decoration-style:solid;text-decoration-color:#000000;letter-spacing:normal;word-spacing:normal;text-transform:none;writing-mode:lr-tb;direction:ltr;text-orientation:mixed;dominant-baseline:auto;baseline-shift:baseline;text-anchor:start;white-space:normal;shape-padding:0;clip-rule:nonzero;display:inline;overflow:visible;visibility:visible;opacity:0.98999999;isolation:auto;mix-blend-mode:normal;color-interpolation:sRGB;color-interpolation-filters:linearRGB;solid-color:#000000;solid-opacity:1;vector-effect:none;fill:#108fc5;fill-opacity:1;fill-rule:nonzero;stroke:none;stroke-width:9.28691101;stroke-linecap:butt;stroke-linejoin:miter;stroke-miterlimit:4;stroke-dasharray:none;stroke-dashoffset:0;stroke-opacity:1;color-rendering:auto;image-rendering:auto;shape-rendering:auto;text-rendering:auto;enable-background:accumulate">
            <path
               id="path4898"
               d="M68.0 52.898438C65.56691143 52.898438 63.3268085217 53.9379967936 61.638960173 55.6258451424L-79.7823960643 197.04720138C-78.0945477156 195.359353031 -75.8544448073 194.319794237 -73.4213562373 194.319794237Z"
               style="fill:#108fc5;fill-opacity:1" />
            <path
               id="path4900"
               d="M61.638960173 55.6258451424C59.7484540129 57.5163513025 58.550781 60.2201716944 58.550781 63.1875L-82.8705752373 204.608856237C-82.8705752373 201.641527932 -81.6729022244 198.93770754 -79.7823960643 197.04720138Z"
               style="fill:#108fc5;fill-opacity:1" />
            <path
               id="path4902"
               d="M58.550781 63.1875L58.550781 150.29297L-82.8705752373 291.714326237L-82.8705752373 204.608856237Z"
               style="fill:#108fc5;fill-opacity:1" />
            <path
               id="path4904"
               d="M58.550781 150.29297C58.550781 150.47674 58.567102 150.65627 58.576172 150.83789L-82.8451842373 292.259246237C-82.8542542373 292.077626237 -82.8705752373 291.898096237 -82.8705752373 291.714326237Z"
               style="fill:#108fc5;fill-opacity:1" />
            <path
               id="path4906"
               d="M58.576172 150.83789L43.0 150.83789L-98.4213562373 292.259246237L-82.8451842373 292.259246237Z"
               style="fill:#108fc5;fill-opacity:1" />
            <path
               id="path4908"
               d="M43.0 150.83789C40.0603210214 150.83789 37.4003766178 151.970418071 35.6478611688 153.72293352L-105.773495069 295.144289757C-104.02097962 293.391774308 -101.361035216 292.259246237 -98.4213562373 292.259246237Z"
               style="fill:#108fc5;fill-opacity:1" />
            <path
               id="path4910"
               d="M35.6478611688 153.72293352C34.3092038923 155.061590796 33.5 156.761989247 33.5 158.5957L-107.921356237 300.017056237C-107.921356237 298.183345484 -107.112152345 296.482947034 -105.773495069 295.144289757Z"
               style="fill:#108fc5;fill-opacity:1" />
            <path
               id="path4912"
               d="M33.5 158.5957L33.5 162.67969L-107.921356237 304.101046237L-107.921356237 300.017056237Z"
               style="fill:#108fc5;fill-opacity:1" />
            <path
               id="path4914"
               d="M33.5 162.67969C33.5 166.91402 37.81485 170.4375 43.0 170.4375L-98.4213562373 311.858856237C-103.606506237 311.858856237 -107.921356237 308.335376237 -107.921356237 304.101046237Z"
               style="fill:#108fc5;fill-opacity:1" />
            <path
               id="path4916"
               d="M43.0 170.4375L158.5 170.4375L17.0786437627 311.858856237L-98.4213562373 311.858856237Z"
               style="fill:#108fc5;fill-opacity:1" />
            <path
               id="path4918"
               d="M158.5 170.4375L158.5 192.75781L17.0786437627 334.179166237L17.0786437627 311.858856237Z"
               style="fill:#108fc5;fill-opacity:1" />
            <path
               id="path4920"
               d="M158.5 192.75781C158.5 198.40359 162.81485 203.10156 168.0 203.10156L26.5786437627 344.522916237C21.3934937627 344.522916237 17.0786437627 339.824946237 17.0786437627 334.179166237Z"
               style="fill:#108fc5;fill-opacity:1" />
            <path
               id="path4922"
               d="M168.0 203.10156L203.0 203.10156L61.5786437627 344.522916237L26.5786437627 344.522916237Z"
               style="fill:#108fc5;fill-opacity:1" />
            <path
               id="path4924"
               d="M203.0 203.10156C205.445855607 203.10156 207.698065466 202.056240098 209.39510239 200.359203174L67.9737461531 341.780559411C66.2767092287 343.477596335 64.0244993693 344.522916237 61.5786437627 344.522916237Z"
               style="fill:#108fc5;fill-opacity:1" />
            <path
               id="path4926"
               d="M209.39510239 200.359203174C211.295739419 198.458566145 212.5 195.740453414 212.5 192.75781L71.0786437627 334.179166237C71.0786437627 337.161809652 69.8743831816 339.879922382 67.9737461531 341.780559411Z"
               style="fill:#108fc5;fill-opacity:1" />
            <path
               id="path4928"
               d="M212.5 192.75781L212.5 170.4375L71.0786437627 311.858856237L71.0786437627 334.179166237Z"
               style="fill:#108fc5;fill-opacity:1" />
            <path
               id="path4930"
               d="M212.5 170.4375L213.0 170.4375L71.5786437627 311.858856237L71.0786437627 311.858856237Z"
               style="fill:#108fc5;fill-opacity:1" />
            <path
               id="path4932"
               d="M213.0 170.4375C215.939678979 170.4375 218.599623382 169.304971929 220.352138831 167.55245648L78.9307825939 308.973812717C77.1782671449 310.726328166 74.5183227413 311.858856237 71.5786437627 311.858856237Z"
               style="fill:#108fc5;fill-opacity:1" />
            <path
               id="path4934"
               d="M220.352138831 167.55245648C221.690796108 166.213799204 222.5 164.513400753 222.5 162.67969L81.0786437627 304.101046237C81.0786437627 305.93475699 80.2694398704 307.635155441 78.9307825939 308.973812717Z"
               style="fill:#108fc5;fill-opacity:1" />
            <path
               id="path4936"
               d="M222.5 162.67969L222.5 158.5957L81.0786437627 300.017056237L81.0786437627 304.101046237Z"
               style="fill:#108fc5;fill-opacity:1" />
            <path
               id="path4938"
               d="M222.5 158.5957C222.5 154.36137 218.18515 150.83789 213.0 150.83789L71.5786437627 292.259246237C76.7637937627 292.259246237 81.0786437627 295.782726237 81.0786437627 300.017056237Z"
               style="fill:#108fc5;fill-opacity:1" />
            <path
               id="path4940"
               d="M213.0 150.83789L212.5 150.83789L71.0786437627 292.259246237L71.5786437627 292.259246237Z"
               style="fill:#108fc5;fill-opacity:1" />
            <path
               id="path4942"
               d="M212.5 150.83789L212.5 111.09375L71.0786437627 252.515106237L71.0786437627 292.259246237Z"
               style="fill:#108fc5;fill-opacity:1" />
            <path
               id="path4944"
               d="M212.5 111.09375C212.5 105.44797 208.18515 100.75 203.0 100.75L61.5786437627 242.171356237C66.7637937627 242.171356237 71.0786437627 246.869326237 71.0786437627 252.515106237Z"
               style="fill:#108fc5;fill-opacity:1" />
            <path
               id="path4946"
               d="M203.0 100.75L197.44922 100.75L56.0278637627 242.171356237L61.5786437627 242.171356237Z"
               style="fill:#108fc5;fill-opacity:1" />
            <path
               id="path4948"
               d="M197.44922 100.75L197.44922 63.1875L56.0278637627 204.608856237L56.0278637627 242.171356237Z"
               style="fill:#108fc5;fill-opacity:1" />
            <path
               id="path4950"
               d="M197.44922 63.1875C197.44922 57.570934 193.15832 52.898438 188.0 52.898438L46.5786437627 194.319794237C51.7369637627 194.319794237 56.0278637627 198.992290237 56.0278637627 204.608856237Z"
               style="fill:#108fc5;fill-opacity:1" />
            <path
               id="path4952"
               d="M188.0 52.898438L68.0 52.898438L-73.4213562373 194.319794237L46.5786437627 194.319794237Z"
               style="fill:#108fc5;fill-opacity:1" />
            <path
               id="path4954"
               d="M68.0 62.589844L188.0 62.589844L46.5786437627 204.011200237L-73.4213562373 204.011200237Z"
               style="fill:#108fc5;fill-opacity:1" />
            <path
               id="path4956"
               d="M188.0 62.589844C188.38166 62.589844 188.55078 62.771924 188.55078 63.1875L47.1294237627 204.608856237C47.1294237627 204.193280237 46.9603037627 204.011200237 46.5786437627 204.011200237Z"
               style="fill:#108fc5;fill-opacity:1" />
            <path
               id="path4958"
               d="M188.55078 63.1875L188.55078 100.75L47.1294237627 242.171356237L47.1294237627 204.608856237Z"
               style="fill:#108fc5;fill-opacity:1" />
            <path
               id="path4960"
               d="M188.55078 100.75L168.0 100.75L26.5786437627 242.171356237L47.1294237627 242.171356237Z"
               style="fill:#108fc5;fill-opacity:1" />
            <path
               id="path4962"
               d="M168.0 100.75C165.554144393 100.75 163.301934534 101.795319902 161.60489761 103.492356826L20.1835413723 244.913713064C21.8805782967 243.216676139 24.1327881561 242.171356237 26.5786437627 242.171356237Z"
               style="fill:#108fc5;fill-opacity:1" />
            <path
               id="path4964"
               d="M161.60489761 103.492356826C159.704260581 105.392993855 158.5 108.111106586 158.5 111.09375L17.0786437627 252.515106237C17.0786437627 249.532462823 18.2829043437 246.814350092 20.1835413723 244.913713064Z"
               style="fill:#108fc5;fill-opacity:1" />
            <path
               id="path4966"
               d="M158.5 111.09375L158.5 150.83789L17.0786437627 292.259246237L17.0786437627 252.515106237Z"
               style="fill:#108fc5;fill-opacity:1" />
            <path
               id="path4968"
               d="M158.5 150.83789L67.722656 150.83789L-73.6987002373 292.259246237L17.0786437627 292.259246237Z"
               style="fill:#108fc5;fill-opacity:1" />
            <path
               id="path4970"
               d="M67.722656 150.83789C67.53844 150.75862 67.449219 150.58661 67.449219 150.29297L-73.9721372373 291.714326237C-73.9721372373 292.007966237 -73.8829162373 292.179976237 -73.6987002373 292.259246237Z"
               style="fill:#108fc5;fill-opacity:1" />
            <path
               id="path4972"
               d="M67.449219 150.29297L67.449219 63.1875L-73.9721372373 204.608856237L-73.9721372373 291.714326237Z"
               style="fill:#108fc5;fill-opacity:1" />
            <path
               id="path4974"
               d="M67.449219 63.1875C67.449219 62.9719129796 67.4947323993 62.8191641609 67.5918212027 62.7220753575L-73.8295350346 204.143431595C-73.926623838 204.240520398 -73.9721372373 204.393269217 -73.9721372373 204.608856237Z"
               style="fill:#108fc5;fill-opacity:1" />
            <path
               id="path4976"
               d="M67.5918212027 62.7220753575C67.6818854872 62.6320110731 67.8163320453 62.589844 68.0 62.589844L-73.4213562373 204.011200237C-73.605024192 204.011200237 -73.7394707501 204.05336731 -73.8295350346 204.143431595Z"
               style="fill:#108fc5;fill-opacity:1" />
            <path
               id="path4978"
               d="M168.0 110.55078L188.55078 110.55078L47.1294237627 251.972136237L26.5786437627 251.972136237Z"
               style="fill:#108fc5;fill-opacity:1" />
            <path
               id="path4980"
               d="M188.55078 110.55078L188.55078 150.29297L47.1294237627 291.714326237L47.1294237627 251.972136237Z"
               style="fill:#108fc5;fill-opacity:1" />
            <path
               id="path4982"
               d="M188.55078 150.29297C188.55078 150.50589364 188.503878991 150.654890994 188.40785039 150.750919594L46.9864941529 292.172275832C47.0825227537 292.076247231 47.1294237627 291.927249877 47.1294237627 291.714326237Z"
               style="fill:#108fc5;fill-opacity:1" />
            <path
               id="path4984"
               d="M188.40785039 150.750919594C188.371447297 150.787322688 188.327984266 150.816113845 188.27734 150.83789L46.8559837627 292.259246237C46.9066280286 292.237470083 46.9500910595 292.208678925 46.9864941529 292.172275832Z"
               style="fill:#108fc5;fill-opacity:1" />
            <path
               id="path4986"
               d="M188.27734 150.83789L167.5 150.83789L26.0786437627 292.259246237L46.8559837627 292.259246237Z"
               style="fill:#108fc5;fill-opacity:1" />
            <path
               id="path4988"
               d="M167.5 150.83789L167.5 111.09375L26.0786437627 252.515106237L26.0786437627 292.259246237Z"
               style="fill:#108fc5;fill-opacity:1" />
            <path
               id="path4990"
               d="M167.5 111.09375C167.5 110.893481697 167.539006724 110.754941125 167.626002446 110.667945403L26.2046462089 252.08930164C26.1176504869 252.176297362 26.0786437627 252.314837934 26.0786437627 252.515106237Z"
               style="fill:#108fc5;fill-opacity:1" />
            <path
               id="path4992"
               d="M167.626002446 110.667945403C167.706835565 110.587112284 167.829099603 110.55078 168.0 110.55078L26.5786437627 251.972136237C26.4077433653 251.972136237 26.2854793279 252.008468521 26.2046462089 252.08930164Z"
               style="fill:#108fc5;fill-opacity:1" />
            <path
               id="path4994"
               d="M197.44922 110.55078L203.0 110.55078L61.5786437627 251.972136237L56.0278637627 251.972136237Z"
               style="fill:#108fc5;fill-opacity:1" />
            <path
               id="path4996"
               d="M203.0 110.55078C203.35483 110.55078 203.5 110.7074 203.5 111.09375L62.0786437627 252.515106237C62.0786437627 252.128756237 61.9334737627 251.972136237 61.5786437627 251.972136237Z"
               style="fill:#108fc5;fill-opacity:1" />
            <path
               id="path4998"
               d="M203.5 111.09375L203.5 150.83789L62.0786437627 292.259246237L62.0786437627 252.515106237Z"
               style="fill:#108fc5;fill-opacity:1" />
            <path
               id="path5000"
               d="M203.5 150.83789L197.42383 150.83789L56.0024737627 292.259246237L62.0786437627 292.259246237Z"
               style="fill:#108fc5;fill-opacity:1" />
            <path
               id="path5002"
               d="M197.42383 150.83789C197.43283 150.65627 197.44922 150.47674 197.44922 150.29297L56.0278637627 291.714326237C56.0278637627 291.898096237 56.0114737627 292.077626237 56.0024737627 292.259246237Z"
               style="fill:#108fc5;fill-opacity:1" />
            <path
               id="path5004"
               d="M197.44922 150.29297L197.44922 110.55078L56.0278637627 251.972136237L56.0278637627 291.714326237Z"
               style="fill:#108fc5;fill-opacity:1" />
            <path
               id="path5006"
               d="M167.5 170.4375L203.5 170.4375L62.0786437627 311.858856237L26.0786437627 311.858856237Z"
               style="fill:#108fc5;fill-opacity:1" />
            <path
               id="path5008"
               d="M203.5 170.4375L203.5 182.44141L62.0786437627 323.862766237L62.0786437627 311.858856237Z"
               style="fill:#108fc5;fill-opacity:1" />
            <path
               id="path5010"
               d="M203.5 182.44141C203.33416 182.42797 203.16842 182.41406 203.0 182.41406L61.5786437627 323.835416237C61.7470637627 323.835416237 61.9128037627 323.849326237 62.0786437627 323.862766237Z"
               style="fill:#108fc5;fill-opacity:1" />
            <path
               id="path5012"
               d="M203.0 182.41406L168.0 182.41406L26.5786437627 323.835416237L61.5786437627 323.835416237Z"
               style="fill:#108fc5;fill-opacity:1" />
            <path
               id="path5014"
               d="M168.0 182.41406C167.83158 182.41406 167.66584 182.42797 167.5 182.44141L26.0786437627 323.862766237C26.2444837627 323.849326237 26.4102237627 323.835416237 26.5786437627 323.835416237Z"
               style="fill:#108fc5;fill-opacity:1" />
            <path
               id="path5016"
               d="M167.5 182.44141L167.5 170.4375L26.0786437627 311.858856237L26.0786437627 323.862766237Z"
               style="fill:#108fc5;fill-opacity:1" />
          </g>
          <path
             id="path4841"
             d="M 68 52.898438 C 62.841685 52.898438 58.550781 57.570934 58.550781 63.1875 L 58.550781 150.29297 C 58.550781 150.47674 58.567102 150.65627 58.576172 150.83789 L 43 150.83789 C 37.81485 150.83789 33.5 154.36137 33.5 158.5957 L 33.5 162.67969 C 33.5 166.91402 37.81485 170.4375 43 170.4375 L 158.5 170.4375 L 158.5 192.75781 C 158.5 198.40359 162.81485 203.10156 168 203.10156 L 203 203.10156 C 208.18515 203.10156 212.5 198.40359 212.5 192.75781 L 212.5 170.4375 L 213 170.4375 C 218.18515 170.4375 222.5 166.91402 222.5 162.67969 L 222.5 158.5957 C 222.5 154.36137 218.18515 150.83789 213 150.83789 L 212.5 150.83789 L 212.5 111.09375 C 212.5 105.44797 208.18515 100.75 203 100.75 L 197.44922 100.75 L 197.44922 63.1875 C 197.44922 57.570934 193.15832 52.898438 188 52.898438 L 68 52.898438 z M 68 62.589844 L 188 62.589844 C 188.38166 62.589844 188.55078 62.771924 188.55078 63.1875 L 188.55078 100.75 L 168 100.75 C 162.81485 100.75 158.5 105.44797 158.5 111.09375 L 158.5 150.83789 L 67.722656 150.83789 C 67.53844 150.75862 67.449219 150.58661 67.449219 150.29297 L 67.449219 63.1875 C 67.449219 62.771924 67.618339 62.589844 68 62.589844 z M 168 110.55078 L 188.55078 110.55078 L 188.55078 150.29297 C 188.55078 150.58661 188.46158 150.75867 188.27734 150.83789 L 167.5 150.83789 L 167.5 111.09375 C 167.5 110.7074 167.64517 110.55078 168 110.55078 z M 197.44922 110.55078 L 203 110.55078 C 203.35483 110.55078 203.5 110.7074 203.5 111.09375 L 203.5 150.83789 L 197.42383 150.83789 C 197.43283 150.65627 197.44922 150.47674 197.44922 150.29297 L 197.44922 110.55078 z M 167.5 170.4375 L 203.5 170.4375 L 203.5 182.44141 C 203.33416 182.42797 203.16842 182.41406 203 182.41406 L 168 182.41406 C 167.83158 182.41406 167.66584 182.42797 167.5 182.44141 L 167.5 170.4375 z "
             style="color:#000000;font-style:normal;font-variant:normal;font-weight:normal;font-stretch:normal;font-size:medium;line-height:normal;font-family:sans-serif;font-variant-ligatures:normal;font-variant-position:normal;font-variant-caps:normal;font-variant-numeric:normal;font-variant-alternates:normal;font-feature-settings:normal;text-indent:0;text-align:start;text-decoration:none;text-decoration-line:none;text-decoration-style:solid;text-decoration-color:#000000;letter-spacing:normal;word-spacing:normal;text-transform:none;writing-mode:lr-tb;direction:ltr;text-orientation:mixed;dominant-baseline:auto;baseline-shift:baseline;text-anchor:start;white-space:normal;shape-padding:0;clip-rule:nonzero;display:inline;overflow:visible;visibility:visible;opacity:0.98999999;isolation:auto;mix-blend-mode:normal;color-interpolation:sRGB;color-interpolation-filters:linearRGB;solid-color:#000000;solid-opacity:1;vector-effect:none;fill:#108fc5;fill-opacity:1;fill-rule:nonzero;stroke:none;stroke-width:9.28691101;stroke-linecap:butt;stroke-linejoin:miter;stroke-miterlimit:4;stroke-dasharray:none;stroke-dashoffset:0;stroke-opacity:1;color-rendering:auto;image-rendering:auto;shape-rendering:auto;text-rendering:auto;enable-background:accumulate"
             transform="" />
        </g>
      </g>
    </g>
    <path
       id="rect4537"
       d="m 68,849.26009 c -5.158315,0 -9.449219,4.67209 -9.449219,10.28866 v 87.10689 c 0,0.18378 0.01632,0.3628 0.02539,0.54442 H 43 c -5.18515,0 -9.5,3.52363 -9.5,7.75796 v 4.08313 c 0,4.23434 4.31485,7.75796 9.5,7.75796 h 170 c 5.18515,0 9.5,-3.52362 9.5,-7.75796 v -4.08313 c 0,-4.23433 -4.31485,-7.75796 -9.5,-7.75796 h -15.57617 c 0.009,-0.18162 0.0254,-0.36064 0.0254,-0.54442 v -87.10689 c 0,-5.61657 -4.2909,-10.28866 -9.44922,-10.28866 z m 0,9.69107 h 120 c 0.38166,0 0.55078,0.18201 0.55078,0.59759 v 87.10689 c 0,0.29364 -0.0892,0.4652 -0.27344,0.54442 H 67.722656 c -0.184216,-0.0793 -0.273437,-0.25078 -0.273437,-0.54442 v -87.10689 c 0,-0.41558 0.16912,-0.59759 0.550781,-0.59759 z"
       style="color:#000000;font-style:normal;font-variant:normal;font-weight:normal;font-stretch:normal;font-size:medium;line-height:normal;font-family:sans-serif;font-variant-ligatures:normal;font-variant-position:normal;font-variant-caps:normal;font-variant-numeric:normal;font-variant-alternates:normal;font-feature-settings:normal;text-indent:0;text-align:start;text-decoration:none;text-decoration-line:none;text-decoration-style:solid;text-decoration-color:#000000;letter-spacing:normal;word-spacing:normal;text-transform:none;writing-mode:lr-tb;direction:ltr;text-orientation:mixed;dominant-baseline:auto;baseline-shift:baseline;text-anchor:start;white-space:normal;shape-padding:0;clip-rule:nonzero;display:inline;overflow:visible;visibility:visible;opacity:0.98999999;isolation:auto;mix-blend-mode:normal;color-interpolation:sRGB;color-interpolation-filters:linearRGB;solid-color:#000000;solid-opacity:1;vector-effect:none;fill:#ffffff;fill-opacity:1;fill-rule:nonzero;stroke:none;stroke-width:9.28691101;stroke-linecap:butt;stroke-linejoin:miter;stroke-miterlimit:4;stroke-dasharray:none;stroke-dashoffset:0;stroke-opacity:1;color-rendering:auto;image-rendering:auto;shape-rendering:auto;text-rendering:auto;enable-background:accumulate"
       inkscape:connector-curvature="0" />
    <g
       id="g4558"
       transform="matrix(1,0,0,1.0888362,-2,-85.955407)">
      <g
         id="g4563">
        <rect
           ry="4.99998"
           y="907.36218"
           x="165"
           height="85"
           width="45"
           id="rect4552"
           style="opacity:0.98999999;fill:#62b7dc;fill-opacity:1;stroke:#ffffff;stroke-width:9;stroke-miterlimit:4;stroke-dasharray:none;stroke-opacity:1" />
        <rect
           ry="2.5"
           y="982.36218"
           x="167.5"
           height="5"
           width="40"
           id="rect4554"
           style="opacity:0.98999999;fill:none;fill-opacity:1;stroke:#ffffff;stroke-width:9;stroke-miterlimit:4;stroke-dasharray:none;stroke-opacity:1" />
      </g>
    </g>
    <path
       inkscape:connector-curvature="0"
       style="color:#000000;font-style:normal;font-variant:normal;font-weight:normal;font-stretch:normal;font-size:medium;line-height:normal;font-family:sans-serif;font-variant-ligatures:normal;font-variant-position:normal;font-variant-caps:normal;font-variant-numeric:normal;font-variant-alternates:normal;font-feature-settings:normal;text-indent:0;text-align:start;text-decoration:none;text-decoration-line:none;text-decoration-style:solid;text-decoration-color:#000000;letter-spacing:normal;word-spacing:normal;text-transform:none;writing-mode:lr-tb;direction:ltr;text-orientation:mixed;dominant-baseline:auto;baseline-shift:baseline;text-anchor:start;white-space:normal;shape-padding:0;clip-rule:nonzero;display:inline;overflow:visible;visibility:visible;opacity:0.98999999;isolation:auto;mix-blend-mode:normal;color-interpolation:sRGB;color-interpolation-filters:linearRGB;solid-color:#000000;solid-opacity:1;vector-effect:none;fill:#ffffff;fill-opacity:1;fill-rule:nonzero;stroke:none;stroke-width:9.28691101;stroke-linecap:butt;stroke-linejoin:miter;stroke-miterlimit:4;stroke-dasharray:none;stroke-dashoffset:0;stroke-opacity:1;color-rendering:auto;image-rendering:auto;shape-rendering:auto;text-rendering:auto;enable-background:accumulate"
       d="m 68,849.26009 c -5.158315,0 -9.449219,4.67209 -9.449219,10.28866 v 87.10689 c 0,0.18378 0.01632,0.3628 0.02539,0.54442 H 43 c -5.18515,0 -9.5,3.52363 -9.5,7.75796 v 4.08313 c 0,4.23434 4.31485,7.75796 9.5,7.75796 h 170 c 5.18515,0 9.5,-3.52362 9.5,-7.75796 v -4.08313 c 0,-4.23433 -4.31485,-7.75796 -9.5,-7.75796 h -15.57617 c 0.009,-0.18162 0.0254,-0.36064 0.0254,-0.54442 v -87.10689 c 0,-5.61657 -4.2909,-10.28866 -9.44922,-10.28866 z m 0,9.69107 h 120 c 0.38166,0 0.55078,0.18201 0.55078,0.59759 v 87.10689 c 0,0.29364 -0.0892,0.4652 -0.27344,0.54442 H 67.722656 c -0.184216,-0.0793 -0.273437,-0.25078 -0.273437,-0.54442 v -87.10689 c 0,-0.41558 0.16912,-0.59759 0.550781,-0.59759 z"
       id="path4579" />
    <g
       id="g4587"
       transform="matrix(1,0,0,1.0888362,-2,-85.955407)"
       style="fill:#108fc5;fill-opacity:1">
      <g
         id="g4585"
         style="fill:#108fc5;fill-opacity:1">
        <path
           id="rect4581"
           d="m 169.99998,907.36218 h 35.00004 c 2.76999,0 4.99998,2.22999 4.99998,4.99998 v 75.00004 c 0,2.76999 -2.22999,4.99998 -4.99998,4.99998 h -35.00004 c -2.76999,0 -4.99998,-2.22999 -4.99998,-4.99998 v -75.00004 c 0,-2.76999 2.22999,-4.99998 4.99998,-4.99998 z"
           style="opacity:0.98999999;fill:#108fc5;fill-opacity:1;stroke:#ffffff;stroke-width:9;stroke-miterlimit:4;stroke-dasharray:none;stroke-opacity:1"
           inkscape:connector-curvature="0" />
        <path
           id="rect4583"
           d="m 170,982.36218 h 35 c 1.385,0 2.5,1.115 2.5,2.5 0,1.385 -1.115,2.5 -2.5,2.5 h -35 c -1.385,0 -2.5,-1.115 -2.5,-2.5 0,-1.385 1.115,-2.5 2.5,-2.5 z"
           style="opacity:0.98999999;fill:#108fc5;fill-opacity:1;stroke:#ffffff;stroke-width:9;stroke-miterlimit:4;stroke-dasharray:none;stroke-opacity:1"
           inkscape:connector-curvature="0" />
      </g>
    </g>
  </g>
</svg>
