<?xml version="1.0" encoding="UTF-8" standalone="no"?>
<!-- Created with Inkscape (http://www.inkscape.org/) -->

<svg
   xmlns:dc="http://purl.org/dc/elements/1.1/"
   xmlns:cc="http://creativecommons.org/ns#"
   xmlns:rdf="http://www.w3.org/1999/02/22-rdf-syntax-ns#"
   xmlns:svg="http://www.w3.org/2000/svg"
   xmlns="http://www.w3.org/2000/svg"
   xmlns:sodipodi="http://sodipodi.sourceforge.net/DTD/sodipodi-0.dtd"
   xmlns:inkscape="http://www.inkscape.org/namespaces/inkscape"
   width="256"
   height="256"
   viewBox="0 0 256 256"
   id="svg2"
   version="1.1"
   inkscape:version="0.91 r13725"
   sodipodi:docname="weather-fog-symolic.svg">
  <sodipodi:namedview
     id="base"
     pagecolor="#ffffff"
     bordercolor="#666666"
     borderopacity="1.0"
     inkscape:pageopacity="0.0"
     inkscape:pageshadow="2"
     inkscape:zoom="3.2851562"
     inkscape:cx="77.013079"
     inkscape:cy="128"
     inkscape:document-units="px"
     inkscape:current-layer="layer1"
     showgrid="true"
     units="px"
     inkscape:window-width="1920"
     inkscape:window-height="1054"
     inkscape:window-x="0"
     inkscape:window-y="0"
     inkscape:window-maximized="1">
    <inkscape:grid
       type="xygrid"
       id="grid4136"
       spacingx="5"
       spacingy="5" />
  </sodipodi:namedview>
  <defs
     id="defs4">
    <clipPath
       clipPathUnits="userSpaceOnUse"
       id="clipPath4828">
      <circle
         r="128"
         cy="924.36218"
         cx="128"
         id="circle4830"
         style="opacity:1;fill:#68bdff;fill-opacity:1;stroke:none;stroke-width:52.82038116;stroke-linecap:round;stroke-linejoin:round;stroke-miterlimit:4;stroke-dasharray:none;stroke-opacity:1" />
    </clipPath>
    <clipPath
       clipPathUnits="userSpaceOnUse"
       id="clipPath4851">
      <path
         id="path4853"
         d="m 128,796.36216 a 128,128 0 0 0 -87.652344,34.83789 l 86.988284,87.51367 90.69336,-85.25976 A 128,128 0 0 0 128,796.36216 Z M 23.730469,850.28404 A 128,128 0 0 0 0,924.36216 128,128 0 0 0 128,1052.3622 128,128 0 0 0 256,924.36216 128,128 0 0 0 234.1582,852.93052 l -95.94336,90.19922 c -0.48074,0.45195 -0.99482,0.84265 -1.52148,1.20508 -0.25351,0.30378 -0.51825,0.602 -0.80469,0.88672 -4.95863,4.92876 -12.91888,4.90394 -17.84765,-0.0547 L 23.730469,850.28404 Z"
         style="opacity:1;fill:#68bdff;fill-opacity:1;stroke:none;stroke-width:52.82038116;stroke-linecap:round;stroke-linejoin:round;stroke-miterlimit:4;stroke-dasharray:none;stroke-opacity:1"
         inkscape:connector-curvature="0" />
    </clipPath>
    <clipPath
       clipPathUnits="userSpaceOnUse"
       id="clipPath4147">
      <path
         id="path4149"
         d="M 23.730469,850.28404 A 128,128 0 0 0 0,924.36216 128,128 0 0 0 128,1052.3622 128,128 0 0 0 256,924.36216 128,128 0 0 0 234.1582,852.93052 l -95.94336,90.19922 c -0.48074,0.45195 -0.99482,0.84265 -1.52148,1.20508 -0.25351,0.30378 -0.51825,0.602 -0.80469,0.88672 -4.95863,4.92876 -12.91888,4.90394 -17.84765,-0.0547 l -94.310551,-94.8828 z"
         style="opacity:1;fill:#fff168;fill-opacity:1;stroke:none;stroke-width:52.82038116;stroke-linecap:round;stroke-linejoin:round;stroke-miterlimit:4;stroke-dasharray:none;stroke-opacity:1"
         inkscape:connector-curvature="0" />
    </clipPath>
    <clipPath
       id="clipPath4292"
       clipPathUnits="userSpaceOnUse">
      <circle
         r="105.41177"
         cy="904.67468"
         cx="132.27344"
         id="circle4294"
         style="fill:#ffaa31;fill-opacity:1;stroke:none;stroke-width:9.51799965;stroke-linecap:butt;stroke-linejoin:miter;stroke-miterlimit:4;stroke-dasharray:none;stroke-opacity:1" />
    </clipPath>
    <clipPath
       clipPathUnits="userSpaceOnUse"
       id="clipPath4712">
      <circle
         r="128"
         cy="925.57971"
         cx="125.25592"
         id="circle4714"
         style="fill:#94d6d8;fill-opacity:1;stroke:none;stroke-width:9.51799965;stroke-linecap:butt;stroke-linejoin:miter;stroke-miterlimit:4;stroke-dasharray:none;stroke-opacity:1" />
    </clipPath>
  </defs>
  <metadata
     id="metadata7">
    <rdf:RDF>
      <cc:Work
         rdf:about="">
        <dc:format>image/svg+xml</dc:format>
        <dc:type
           rdf:resource="http://purl.org/dc/dcmitype/StillImage" />
        <dc:title></dc:title>
      </cc:Work>
    </rdf:RDF>
  </metadata>
  <g
     inkscape:label="Layer 1"
     inkscape:groupmode="layer"
     id="layer1"
     transform="translate(0,-796.36216)">
    <path
       style="fill:#94d6d8;fill-opacity:1;stroke:none;stroke-width:9.51799965;stroke-linecap:butt;stroke-linejoin:miter;stroke-miterlimit:4;stroke-dasharray:none;stroke-opacity:1"
       d="M 128 0 A 128 128 0 0 0 0 128 A 128 128 0 0 0 128 256 A 128 128 0 0 0 256 128 A 128 128 0 0 0 128 0 z M 75.419922 48.943359 C 82.46098 48.946409 86.808648 52.660021 89.888672 55.650391 C 92.968708 58.640761 95.469458 61.647176 97.652344 64.472656 C 99.328614 66.642446 100.31176 68.398795 101.53516 69.765625 C 102.77417 68.397545 104.03747 66.713256 105.76953 64.472656 C 107.95243 61.648976 110.454 58.639281 113.53516 55.650391 C 116.61633 52.661501 120.96285 48.940359 128.00391 48.943359 C 135.04496 48.946409 139.04106 52.660021 142.12109 55.650391 C 145.20114 58.640761 147.70189 61.647176 149.88477 64.472656 C 151.61694 66.714716 152.87947 68.395855 154.11914 69.765625 C 155.34549 68.399575 156.66791 66.655556 158.35547 64.472656 C 160.53837 61.648976 162.68447 58.639281 165.76562 55.650391 C 168.84678 52.661501 173.19528 48.940359 180.23633 48.943359 C 187.2774 48.946409 191.62504 52.660021 194.70508 55.650391 C 197.78511 58.640761 199.93431 61.647176 202.11719 64.472656 C 204.30008 67.298146 206.47792 69.929384 207.76367 71.177734 C 208.01677 71.423394 208.01248 71.547141 207.89844 71.601562 A 11.298858 11.298858 0 0 1 206.35156 94.117188 C 199.31038 94.114137 194.96274 90.402479 191.88281 87.412109 C 188.80289 84.421739 186.65359 81.061818 184.4707 78.236328 C 182.86738 76.161058 181.43547 75.005996 180.23633 73.648438 C 179.03778 75.004407 177.60332 76.162418 176 78.236328 C 173.81712 81.059998 171.67099 84.423219 168.58984 87.412109 C 165.50867 90.400999 161.16009 94.120188 154.11914 94.117188 C 147.07808 94.114137 142.73032 90.402479 139.65039 87.412109 C 136.57048 84.421739 134.06961 81.061818 131.88672 78.236328 C 130.16912 76.013008 128.886 74.664362 127.65039 73.294922 C 126.43331 74.658362 125.42751 76.091608 123.76953 78.236328 C 121.58664 81.059998 119.08507 84.423219 116.00391 87.412109 C 112.92274 90.400999 108.57611 94.120188 101.53516 94.117188 C 94.494097 94.114137 90.498005 90.402479 87.417969 87.412109 C 84.337933 84.421739 81.837184 81.061818 79.654297 78.236328 C 78.050987 76.161058 76.619045 75.005996 75.419922 73.648438 C 74.221351 75.004407 72.786797 76.162418 71.183594 78.236328 C 69.000707 81.059998 66.854482 84.423219 63.773438 87.412109 C 60.692394 90.400999 56.343803 94.120188 49.302734 94.117188 A 11.293345 11.293345 0 0 1 47.230469 71.730469 C 47.370895 71.634222 47.592618 71.468703 47.892578 71.177734 C 49.1772 69.931634 51.356164 67.296336 53.539062 64.472656 C 55.72195 61.648976 57.868055 58.639281 60.949219 55.650391 C 64.030382 52.661501 68.378864 48.940359 75.419922 48.943359 z M 49.302734 71.53125 C 48.919988 71.53125 48.606164 71.550423 48.328125 71.578125 A 11.293345 11.293345 0 0 1 49.302734 71.53125 z M 75.419922 105.41016 C 82.461088 105.41321 86.808648 109.12683 89.888672 112.11719 C 92.968708 115.10756 95.469458 118.11386 97.652344 120.93945 C 99.328614 123.10924 100.31176 124.86546 101.53516 126.23242 C 102.77417 124.86433 104.03747 123.18006 105.76953 120.93945 C 107.95243 118.11577 110.45411 115.10609 113.53516 112.11719 C 116.61621 109.1283 120.96285 105.40716 128.00391 105.41016 C 135.04496 105.41321 139.04106 109.12673 142.12109 112.11719 C 145.20114 115.10768 147.70189 118.11386 149.88477 120.93945 C 151.61694 123.18152 152.87947 124.86263 154.11914 126.23242 C 155.34549 124.86636 156.66791 123.12245 158.35547 120.93945 C 160.53837 118.11577 162.68447 115.10609 165.76562 112.11719 C 168.84678 109.1283 173.19528 105.40716 180.23633 105.41016 C 187.2774 105.41321 191.62504 109.12683 194.70508 112.11719 C 197.78511 115.10756 199.93431 118.11386 202.11719 120.93945 C 204.30008 123.76504 206.47792 126.39616 207.76367 127.64453 C 208.01677 127.89019 208.01248 128.01394 207.89844 128.06836 A 11.298856 11.298856 0 0 1 206.35156 150.58398 C 199.31038 150.58095 194.96274 146.86929 191.88281 143.87891 C 188.80289 140.88855 186.65359 137.52872 184.4707 134.70312 C 182.86738 132.62785 181.43547 131.4728 180.23633 130.11523 C 179.03778 131.47122 177.60332 132.62922 176 134.70312 C 173.81712 137.52679 171.67099 140.89003 168.58984 143.87891 C 165.50867 146.86781 161.1602 150.58698 154.11914 150.58398 C 147.07797 150.58095 142.73032 146.8694 139.65039 143.87891 C 136.57048 140.88844 134.06961 137.52872 131.88672 134.70312 C 130.16912 132.47969 128.886 131.13116 127.65039 129.76172 C 126.43331 131.12517 125.42751 132.55841 123.76953 134.70312 C 121.58664 137.52679 119.08507 140.89003 116.00391 143.87891 C 112.92274 146.86781 108.57622 150.58698 101.53516 150.58398 C 94.493981 150.58095 90.498005 146.86929 87.417969 143.87891 C 84.337933 140.88855 81.837184 137.52872 79.654297 134.70312 C 78.050987 132.62785 76.619045 131.4728 75.419922 130.11523 C 74.221351 131.47122 72.786797 132.62922 71.183594 134.70312 C 69.000707 137.52679 66.854482 140.89003 63.773438 143.87891 C 60.692393 146.86781 56.343911 150.58698 49.302734 150.58398 A 11.293343 11.293343 0 0 1 47.238281 128.19141 C 47.379214 128.09429 47.597108 127.93114 47.892578 127.64453 C 49.1772 126.39844 51.356164 123.76313 53.539062 120.93945 C 55.72195 118.11577 57.868055 115.10609 60.949219 112.11719 C 64.030382 109.1283 68.378864 105.40716 75.419922 105.41016 z M 49.302734 127.99609 C 48.921954 127.99609 48.609157 128.01746 48.332031 128.04492 A 11.293343 11.293343 0 0 1 49.302734 127.99609 z M 75.419922 161.87695 C 82.46098 161.88 86.808648 165.59362 89.888672 168.58398 C 92.968708 171.57436 95.469458 174.58078 97.652344 177.40625 C 99.328614 179.57604 100.31176 181.33237 101.53516 182.69922 C 102.77417 181.33113 104.03747 179.64686 105.76953 177.40625 C 107.95243 174.58258 110.454 171.57288 113.53516 168.58398 C 116.61633 165.5951 120.96285 161.87395 128.00391 161.87695 C 135.04496 161.88 139.04106 165.59362 142.12109 168.58398 C 145.20114 171.57436 147.70189 174.58078 149.88477 177.40625 C 151.61694 179.64832 152.87947 181.32944 154.11914 182.69922 C 155.34549 181.33316 156.66791 179.58915 158.35547 177.40625 C 160.53837 174.58258 162.68446 171.57288 165.76562 168.58398 C 168.84678 165.5951 173.19528 161.87395 180.23633 161.87695 C 187.2774 161.88 191.62504 165.59362 194.70508 168.58398 C 197.78511 171.57436 199.93431 174.58078 202.11719 177.40625 C 204.30008 180.23174 206.47792 182.86295 207.76367 184.11133 C 208.01677 184.35698 208.01248 184.48073 207.89844 184.53516 A 11.298873 11.298873 0 0 1 206.35156 207.05078 C 199.31038 207.04768 194.96274 203.33608 191.88281 200.3457 C 188.80289 197.35534 186.65359 194.34696 184.4707 191.52148 C 182.85033 189.4241 181.44145 187.94233 180.23633 186.58203 C 179.03778 187.93803 177.60332 189.09601 176 191.16992 C 173.81712 193.99359 171.67099 197.35682 168.58984 200.3457 C 165.50867 203.3346 161.16009 207.05078 154.11914 207.05078 C 147.07808 207.04768 142.73032 203.33608 139.65039 200.3457 C 136.57048 197.35534 134.06961 193.9954 131.88672 191.16992 C 130.16912 188.94661 128.886 187.59796 127.65039 186.22852 C 126.43331 187.59197 125.42751 189.02521 123.76953 191.16992 C 121.58664 193.99359 119.08507 197.35682 116.00391 200.3457 C 112.92274 203.3346 108.57611 207.05078 101.53516 207.05078 C 94.494105 207.04768 90.498005 203.33608 87.417969 200.3457 C 84.337933 197.35534 81.837184 193.9954 79.654297 191.16992 C 78.050987 189.09466 76.619045 187.93962 75.419922 186.58203 C 74.221351 187.93803 72.786797 189.09601 71.183594 191.16992 C 69.000707 193.99359 66.854482 197.35682 63.773438 200.3457 C 60.692394 203.3346 56.343803 207.05078 49.302734 207.05078 A 11.29336 11.29336 0 0 1 47.230469 184.66406 C 47.370895 184.56782 47.592618 184.40229 47.892578 184.11133 C 49.1772 182.86523 51.356164 180.22992 53.539062 177.40625 C 55.721949 174.58258 57.868055 171.57288 60.949219 168.58398 C 64.030382 165.5951 68.378864 161.87395 75.419922 161.87695 z M 49.302734 184.46289 C 48.921969 184.46289 48.60915 184.48426 48.332031 184.51172 A 11.29336 11.29336 0 0 1 49.302734 184.46289 z "
       transform="translate(0,796.36216)"
       id="path4145" />
  </g>
</svg>
