<?xml version="1.0" encoding="UTF-8" standalone="no"?>
<!-- Created with Inkscape (http://www.inkscape.org/) -->

<svg
   xmlns:dc="http://purl.org/dc/elements/1.1/"
   xmlns:cc="http://creativecommons.org/ns#"
   xmlns:rdf="http://www.w3.org/1999/02/22-rdf-syntax-ns#"
   xmlns:svg="http://www.w3.org/2000/svg"
   xmlns="http://www.w3.org/2000/svg"
   xmlns:sodipodi="http://sodipodi.sourceforge.net/DTD/sodipodi-0.dtd"
   xmlns:inkscape="http://www.inkscape.org/namespaces/inkscape"
   width="256"
   height="256"
   viewBox="0 0 256 256"
   id="svg2"
   version="1.1"
   inkscape:version="0.92.2 (5c3e80d, 2017-08-06)"
   sodipodi:docname="weather-clear.svg">
  <sodipodi:namedview
     id="base"
     pagecolor="#ffffff"
     bordercolor="#666666"
     borderopacity="1.0"
     inkscape:pageopacity="0.0"
     inkscape:pageshadow="2"
     inkscape:zoom="3.2851562"
     inkscape:cx="63.771699"
     inkscape:cy="128"
     inkscape:document-units="px"
     inkscape:current-layer="layer1"
     showgrid="true"
     units="px"
     inkscape:window-width="1920"
     inkscape:window-height="1048"
     inkscape:window-x="0"
     inkscape:window-y="0"
     inkscape:window-maximized="1">
    <inkscape:grid
       spacingy="5"
       spacingx="5"
       id="grid4136"
       type="xygrid" />
  </sodipodi:namedview>
  <defs
     id="defs4">
    <clipPath
       id="clipPath4828"
       clipPathUnits="userSpaceOnUse">
      <circle
         style="opacity:1;fill:#68bdff;fill-opacity:1;stroke:none;stroke-width:52.82038116;stroke-linecap:round;stroke-linejoin:round;stroke-miterlimit:4;stroke-dasharray:none;stroke-opacity:1"
         id="circle4830"
         cx="128"
         cy="924.36218"
         r="128" />
    </clipPath>
    <clipPath
       id="clipPath4851"
       clipPathUnits="userSpaceOnUse">
      <path
         inkscape:connector-curvature="0"
         style="opacity:1;fill:#68bdff;fill-opacity:1;stroke:none;stroke-width:52.82038116;stroke-linecap:round;stroke-linejoin:round;stroke-miterlimit:4;stroke-dasharray:none;stroke-opacity:1"
         d="m 128,796.36216 a 128,128 0 0 0 -87.652344,34.83789 l 86.988284,87.51367 90.69336,-85.25976 A 128,128 0 0 0 128,796.36216 Z M 23.730469,850.28404 A 128,128 0 0 0 0,924.36216 128,128 0 0 0 128,1052.3622 128,128 0 0 0 256,924.36216 128,128 0 0 0 234.1582,852.93052 l -95.94336,90.19922 c -0.48074,0.45195 -0.99482,0.84265 -1.52148,1.20508 -0.25351,0.30378 -0.51825,0.602 -0.80469,0.88672 -4.95863,4.92876 -12.91888,4.90394 -17.84765,-0.0547 L 23.730469,850.28404 Z"
         id="path4853" />
    </clipPath>
    <clipPath
       id="clipPath4147"
       clipPathUnits="userSpaceOnUse">
      <path
         inkscape:connector-curvature="0"
         style="opacity:1;fill:#fff168;fill-opacity:1;stroke:none;stroke-width:52.82038116;stroke-linecap:round;stroke-linejoin:round;stroke-miterlimit:4;stroke-dasharray:none;stroke-opacity:1"
         d="M 23.730469,850.28404 A 128,128 0 0 0 0,924.36216 128,128 0 0 0 128,1052.3622 128,128 0 0 0 256,924.36216 128,128 0 0 0 234.1582,852.93052 l -95.94336,90.19922 c -0.48074,0.45195 -0.99482,0.84265 -1.52148,1.20508 -0.25351,0.30378 -0.51825,0.602 -0.80469,0.88672 -4.95863,4.92876 -12.91888,4.90394 -17.84765,-0.0547 l -94.310551,-94.8828 z"
         id="path4149" />
    </clipPath>
    <clipPath
       clipPathUnits="userSpaceOnUse"
       id="clipPath4292">
      <circle
         style="fill:#ffaa31;fill-opacity:1;stroke:none;stroke-width:9.51799965;stroke-linecap:butt;stroke-linejoin:miter;stroke-miterlimit:4;stroke-dasharray:none;stroke-opacity:1"
         id="circle4294"
         cx="132.27344"
         cy="904.67468"
         r="105.41177" />
    </clipPath>
  </defs>
  <metadata
     id="metadata7">
    <rdf:RDF>
      <cc:Work
         rdf:about="">
        <dc:format>image/svg+xml</dc:format>
        <dc:type
           rdf:resource="http://purl.org/dc/dcmitype/StillImage" />
        <dc:title />
      </cc:Work>
    </rdf:RDF>
  </metadata>
  <g
     transform="translate(0,-796.36216)"
     id="layer1"
     inkscape:groupmode="layer"
     inkscape:label="Layer 1">
    <circle
       r="128"
       cy="924.36218"
       cx="128"
       id="path4145"
       style="fill:#ffaa31;fill-opacity:1;stroke:none;stroke-width:9.51799965;stroke-linecap:butt;stroke-linejoin:miter;stroke-miterlimit:4;stroke-dasharray:none;stroke-opacity:1" />
    <g
       id="g4179"
       transform="matrix(1.2142857,0,0,1.2142857,-32.617745,-174.17134)"
       clip-path="url(#clipPath4292)"
       style="fill:#9c5b00;fill-opacity:1">
      <path
         id="circle4183"
         d="m 177.27344,904.67468 a 45,45 0 0 1 -45,45 45,45 0 0 1 -45.000003,-45 45,45 0 0 1 45.000003,-45 45,45 0 0 1 45,45 z"
         style="fill:#9c5b00;fill-opacity:1;stroke:none;stroke-width:4.28571415;stroke-linecap:butt;stroke-linejoin:miter;stroke-miterlimit:4;stroke-dasharray:none;stroke-opacity:0.22033901" />
      <g
         id="g4205"
         transform="translate(0,796.36216)"
         style="fill:#9c5b00;fill-opacity:1">
        <g
           id="g4207"
           style="fill:#9c5b00;fill-opacity:1;stroke:none;stroke-width:5;stroke-linecap:butt;stroke-linejoin:miter;stroke-miterlimit:4;stroke-dasharray:none;stroke-opacity:1">
          <path
             id="path4209"
             d="M143.87891 38.480469L125.3125 58.853516L-16.1088562373 200.274872237L2.45755376269 179.901825237Z"
             style="fill:#9c5b00;fill-opacity:1" />
          <path
             id="path4211"
             d="M154.85742 63.763672L143.87891 38.480469L2.45755376269 179.901825237L13.4360637627 205.185028237Z"
             style="fill:#9c5b00;fill-opacity:1" />
          <path
             id="path4213"
             d="M100.61523 44.996094L97.578125 72.322266L-43.8432312373 213.743622237L-40.8061262373 186.417450237Z"
             style="fill:#9c5b00;fill-opacity:1" />
          <path
             id="path4215"
             d="M124.32227 58.974609L100.61523 44.996094L-40.8061262373 186.417450237L-17.0990862373 200.395965237Z"
             style="fill:#9c5b00;fill-opacity:1" />
          <path
             id="path4217"
             d="M182.70703 58.638672L155.75977 64.199219L14.3384137627 205.620575237L41.2856737627 200.060028237Z"
             style="fill:#9c5b00;fill-opacity:1" />
          <path
             id="path4219"
             d="M176.74609 85.478516L182.70703 58.638672L41.2856737627 200.060028237L35.3247337627 226.899872237Z"
             style="fill:#9c5b00;fill-opacity:1" />
          <path
             id="path4221"
             d="M96.853516 73.072266L69.445312 75.697266L-71.9760442373 217.118622237L-44.5678402373 214.493622237Z"
             style="fill:#9c5b00;fill-opacity:1" />
          <path
             id="path4223"
             d="M69.445312 75.697266L83.078125 99.642578L-58.3432312373 241.063934237L-71.9760442373 217.118622237Z"
             style="fill:#9c5b00;fill-opacity:1" />
          <path
             id="path4225"
             d="M181.61133 116.0332L202.27344 97.769531L60.8520837627 239.190887237L40.1899737627 257.454556237Z"
             style="fill:#9c5b00;fill-opacity:1" />
          <path
             id="path4227"
             d="M202.27344 97.769531L177.18555 86.419922L35.7641937627 227.841278237L60.8520837627 239.190887237Z"
             style="fill:#9c5b00;fill-opacity:1" />
          <path
             id="path4229"
             d="M82.935547 100.5918L62.273438 118.85547L-79.1479182373 260.276826237L-58.4858092373 242.013156237Z"
             style="fill:#9c5b00;fill-opacity:1" />
          <path
             id="path4231"
             d="M62.273438 118.85547L87.361328 130.20508L-54.0600282373 271.626436237L-79.1479182373 260.276826237Z"
             style="fill:#9c5b00;fill-opacity:1" />
          <path
             id="path4233"
             d="M167.69336 143.55469L195.10156 140.92773L53.6802037627 282.349086237L26.2720037627 284.976046237Z"
             style="fill:#9c5b00;fill-opacity:1" />
          <path
             id="path4235"
             d="M195.10156 140.92773L181.46875 116.98242L40.0473937627 258.403776237L53.6802037627 282.349086237Z"
             style="fill:#9c5b00;fill-opacity:1" />
          <path
             id="path4237"
             d="M87.802734 131.14844L81.839844 157.98828L-59.5815122373 299.409636237L-53.6186222373 272.569796237Z"
             style="fill:#9c5b00;fill-opacity:1" />
          <path
             id="path4239"
             d="M81.839844 157.98828L108.79102 152.42773L-32.6303362373 293.849086237L-59.5815122373 299.409636237Z"
             style="fill:#9c5b00;fill-opacity:1" />
          <path
             id="path4241"
             d="M140.22852 157.65234L163.93164 171.62891L22.5102837627 313.050266237L-1.19283623731 299.073696237Z"
             style="fill:#9c5b00;fill-opacity:1" />
          <path
             id="path4243"
             d="M163.93164 171.62891L166.96875 144.30469L25.5473937627 285.726046237L22.5102837627 313.050266237Z"
             style="fill:#9c5b00;fill-opacity:1" />
          <path
             id="path4245"
             d="M109.68945 152.86133L120.66992 178.14453L-20.7514362373 319.565886237L-31.7319062373 294.282686237Z"
             style="fill:#9c5b00;fill-opacity:1" />
          <path
             id="path4247"
             d="M120.66992 178.14453L139.23633 157.77148L-2.18502623731 299.192836237L-20.7514362373 319.565886237Z"
             style="fill:#9c5b00;fill-opacity:1" />
        </g>
        <path
           transform=""
           id="path4181"
           d="M 143.87891,38.480469 125.3125,58.853516 a 50,50 0 0 1 6.96094,-0.541016 50,50 0 0 1 22.58398,5.451172 L 143.87891,38.480469 Z m -43.26368,6.515625 -3.037105,27.326172 A 50,50 0 0 1 124.32227,58.974609 L 100.61523,44.996094 Z m 82.0918,13.642578 -26.94726,5.560547 a 50,50 0 0 1 20.98632,21.279297 l 5.96094,-26.839844 z m -85.853514,14.433594 -27.408204,2.625 13.632813,23.945312 A 50,50 0 0 1 96.853516,73.072266 Z m 80.332034,13.347656 a 50,50 0 0 1 5.08789,21.892578 50,50 0 0 1 -0.66211,7.7207 L 202.27344,97.769531 177.18555,86.419922 Z m -94.250003,14.171878 -20.662109,18.26367 25.08789,11.34961 a 50,50 0 0 1 -5.08789,-21.89258 50,50 0 0 1 0.662109,-7.7207 z m 98.533203,16.39062 a 50,50 0 0 1 -13.77539,26.57227 l 27.4082,-2.62696 -13.63281,-23.94531 z m -93.666016,14.16602 -5.96289,26.83984 26.951176,-5.56055 A 50,50 0 0 1 87.802734,131.14844 Z m 79.166016,13.15625 a 50,50 0 0 1 -26.74023,13.34765 l 23.70312,13.97657 3.03711,-27.32422 z m -57.2793,8.55664 10.98047,25.2832 18.56641,-20.37305 a 50,50 0 0 1 -6.96289,0.54102 50,50 0 0 1 -22.58399,-5.45117 z"
           style="fill:#9c5b00;fill-opacity:1;stroke:none;stroke-width:5;stroke-linecap:butt;stroke-linejoin:miter;stroke-miterlimit:4;stroke-dasharray:none;stroke-opacity:1"
           inkscape:connector-curvature="0" />
      </g>
    </g>
    <g
       transform="matrix(1.2142857,0,0,1.2142857,-32.617745,-174.17134)"
       id="g4175">
      <path
         inkscape:connector-curvature="0"
         style="fill:#ffffff;fill-opacity:1;stroke:none;stroke-width:5;stroke-linecap:butt;stroke-linejoin:miter;stroke-miterlimit:4;stroke-dasharray:none;stroke-opacity:1"
         d="M 143.87891,38.480469 125.3125,58.853516 a 50,50 0 0 1 6.96094,-0.541016 50,50 0 0 1 22.58398,5.451172 L 143.87891,38.480469 Z m -43.26368,6.515625 -3.037105,27.326172 A 50,50 0 0 1 124.32227,58.974609 L 100.61523,44.996094 Z m 82.0918,13.642578 -26.94726,5.560547 a 50,50 0 0 1 20.98632,21.279297 l 5.96094,-26.839844 z m -85.853514,14.433594 -27.408204,2.625 13.632813,23.945312 A 50,50 0 0 1 96.853516,73.072266 Z m 80.332034,13.347656 a 50,50 0 0 1 5.08789,21.892578 50,50 0 0 1 -0.66211,7.7207 L 202.27344,97.769531 177.18555,86.419922 Z m -94.250003,14.171878 -20.662109,18.26367 25.08789,11.34961 a 50,50 0 0 1 -5.08789,-21.89258 50,50 0 0 1 0.662109,-7.7207 z m 98.533203,16.39062 a 50,50 0 0 1 -13.77539,26.57227 l 27.4082,-2.62696 -13.63281,-23.94531 z m -93.666016,14.16602 -5.96289,26.83984 26.951176,-5.56055 A 50,50 0 0 1 87.802734,131.14844 Z m 79.166016,13.15625 a 50,50 0 0 1 -26.74023,13.34765 l 23.70312,13.97657 3.03711,-27.32422 z m -57.2793,8.55664 10.98047,25.2832 18.56641,-20.37305 a 50,50 0 0 1 -6.96289,0.54102 50,50 0 0 1 -22.58399,-5.45117 z"
         id="path4166"
         transform="translate(0,796.36216)" />
      <circle
         style="fill:#ffffff;fill-opacity:1;stroke:none;stroke-width:4.28571415;stroke-linecap:butt;stroke-linejoin:miter;stroke-miterlimit:4;stroke-dasharray:none;stroke-opacity:0.22033901"
         id="path4158"
         cx="132.27344"
         cy="904.67468"
         r="45" />
    </g>
  </g>
</svg>
