<?xml version="1.0" encoding="UTF-8" standalone="no"?>
<!-- Created with Inkscape (http://www.inkscape.org/) -->

<svg
   xmlns:dc="http://purl.org/dc/elements/1.1/"
   xmlns:cc="http://creativecommons.org/ns#"
   xmlns:rdf="http://www.w3.org/1999/02/22-rdf-syntax-ns#"
   xmlns:svg="http://www.w3.org/2000/svg"
   xmlns="http://www.w3.org/2000/svg"
   xmlns:sodipodi="http://sodipodi.sourceforge.net/DTD/sodipodi-0.dtd"
   xmlns:inkscape="http://www.inkscape.org/namespaces/inkscape"
   width="256"
   height="256"
   viewBox="0 0 256 256"
   id="svg2"
   version="1.1"
   inkscape:version="0.92.2 (5c3e80d, 2017-08-06)"
   sodipodi:docname="folder-download.svg">
  <sodipodi:namedview
     id="base"
     pagecolor="#ffffff"
     bordercolor="#666666"
     borderopacity="1.0"
     inkscape:pageopacity="0.0"
     inkscape:pageshadow="2"
     inkscape:zoom="2.1328125"
     inkscape:cx="29.069597"
     inkscape:cy="128"
     inkscape:document-units="px"
     inkscape:current-layer="layer1"
     showgrid="true"
     units="px"
     inkscape:window-width="1920"
     inkscape:window-height="1048"
     inkscape:window-x="0"
     inkscape:window-y="0"
     inkscape:window-maximized="1">
    <inkscape:grid
       type="xygrid"
       id="grid4136"
       spacingx="5"
       spacingy="5" />
  </sodipodi:namedview>
  <defs
     id="defs4">
    <inkscape:path-effect
       effect="skeletal"
       id="path-effect4169"
       is_visible="true"
       pattern="m 1.516486,784.11822 1,0"
       copytype="single_stretched"
       prop_scale="1"
       scale_y_rel="false"
       spacing="0"
       normal_offset="0"
       tang_offset="0"
       prop_units="false"
       vertical_pattern="false"
       fuse_tolerance="0" />
    <inkscape:path-effect
       effect="spiro"
       id="path-effect4167"
       is_visible="true" />
    <inkscape:path-effect
       effect="skeletal"
       id="path-effect6008"
       is_visible="true"
       pattern="m 14.79671,785.95245 1,0"
       copytype="single_stretched"
       prop_scale="1"
       scale_y_rel="false"
       spacing="0"
       normal_offset="0"
       tang_offset="0"
       prop_units="false"
       vertical_pattern="false"
       fuse_tolerance="0" />
    <inkscape:path-effect
       effect="spiro"
       id="path-effect6006"
       is_visible="true" />
    <marker
       inkscape:stockid="Arrow1Send"
       orient="auto"
       refY="0.0"
       refX="0.0"
       id="Arrow1Send"
       style="overflow:visible;"
       inkscape:isstock="true">
      <path
         id="path5108"
         d="M 0.0,0.0 L 5.0,-5.0 L -12.5,0.0 L 5.0,5.0 L 0.0,0.0 z "
         style="fill-rule:evenodd;stroke:#043863;stroke-width:1pt;stroke-opacity:1;fill:#043863;fill-opacity:1"
         transform="scale(0.2) rotate(180) translate(6,0)" />
    </marker>
    <inkscape:path-effect
       effect="skeletal"
       id="path-effect5087"
       is_visible="true"
       pattern="m 0,796.36216 1,0"
       copytype="single_stretched"
       prop_scale="1"
       scale_y_rel="false"
       spacing="0"
       normal_offset="0"
       tang_offset="0"
       prop_units="false"
       vertical_pattern="false"
       fuse_tolerance="0" />
    <inkscape:path-effect
       effect="spiro"
       id="path-effect5085"
       is_visible="true" />
    <filter
       style="color-interpolation-filters:sRGB;"
       inkscape:label="Drop Shadow"
       id="filter4298">
      <feFlood
         flood-opacity="0.498039"
         flood-color="rgb(0,0,0)"
         result="flood"
         id="feFlood4300" />
      <feComposite
         in="flood"
         in2="SourceGraphic"
         operator="in"
         result="composite1"
         id="feComposite4302" />
      <feGaussianBlur
         in="composite1"
         stdDeviation="1.6"
         result="blur"
         id="feGaussianBlur4304" />
      <feOffset
         dx="-2.77556e-17"
         dy="-7.7"
         result="offset"
         id="feOffset4306" />
      <feComposite
         in="SourceGraphic"
         in2="offset"
         operator="over"
         result="composite2"
         id="feComposite4308" />
    </filter>
    <clipPath
       id="clipPath4341"
       clipPathUnits="userSpaceOnUse">
      <path
         style="opacity:0.91000001;fill:#38bae1;fill-opacity:1;stroke:none;stroke-width:0;stroke-linecap:round;stroke-linejoin:round;stroke-miterlimit:4;stroke-dasharray:none;stroke-opacity:1;filter:url(#filter4298)"
         d="m 10.42124,864.27189 42.534575,-0.0913 21.267287,-0.0456 c 7.245384,-0.0152 14.490768,-0.0305 21.736152,-0.0456 8.394956,-10.58827 10.291846,-15.47699 14.084686,-17.71727 3.79283,-2.24028 9.4816,-1.8321 25.46032,-1.82658 23.36644,-0.007 109.60565,-0.67788 109.60565,-0.67788 l -0.0879,12.1518 -0.0879,12.1518 -0.0879,12.15181 -0.0879,12.1518 -0.0879,12.1518 -0.0879,12.1518 -0.0879,12.15181 -0.0879,12.1518 -0.0879,12.1518 -0.0879,12.1518 -0.0879,12.15181 -0.0879,12.1518 -0.0879,12.15181 -0.0879,12.1518 c 0,0 0.59382,8.1589 -0.0879,12.1518 -0.58177,3.4075 -0.78038,7.5176 -3.36995,9.8075 -2.83121,2.5035 -7.3341,1.9515 -11.09295,2.3443 -4.76571,0.4981 -14.375,0 -14.375,0 l -14.375,0 -14.375,0 -14.37501,0 -14.375,0 -14.375,0 -14.375,0 -14.375,0 -14.375,0 -14.375001,0 c 0,0 -9.583334,0 -14.375001,0 -4.791667,0 -9.583334,0 -14.375001,0 -4.791667,0 -9.500662,0.094 -14.375001,0 -4.874339,-0.093 -10.854147,0.062 -15.030858,-0.571 -4.176712,-0.6329 -7.699545,-0.5576 -9.968228,-2.7111 -2.268683,-2.1535 -2.21606,-4.4991 -2.972258,-7.5945 -0.756198,-3.0955 -0.95689,-7.246 -1.188915,-10.8765 -0.232024,-3.6305 -0.136752,-7.251 -0.205128,-10.8765 -0.06838,-3.6255 -0.136752,-7.25106 -0.205128,-10.87658 -0.06838,-3.62552 -0.136753,-7.25102 -0.205129,-10.87653 -0.06838,-3.62551 -0.136752,-7.25103 -0.205128,-10.87654 -0.06838,-3.62551 -0.205129,-10.87653 -0.205129,-10.87653 L 12.062467,951.28418 11.857339,940.40764 11.65221,929.53111 11.447082,918.65457 11.241954,907.77803 11.036825,896.9015 10.831697,886.02496 10.626568,875.14843 Z"
         id="path4343"
         inkscape:connector-curvature="0"
         sodipodi:nodetypes="cccccccccccccccccccccssscccccccccazzzzzzzzzzzsccccccccc"
         transform="matrix(1.0110039,0,0,0.87092225,-1.8747837,107.42735)" />
    </clipPath>
    <clipPath
       clipPathUnits="userSpaceOnUse"
       id="clipPath997">
      <path
         sodipodi:nodetypes="ccccccc"
         inkscape:connector-curvature="0"
         id="path999"
         d="M 8.8589806,857.5212 H 93.858981 c 6.706959,-4.99999 13.413919,-9.99999 20.120879,-14.99998 H 243.85898 V 1012.5213 H 8.8589806 Z"
         style="opacity:1;fill:#2ccaff;fill-opacity:1;stroke:none;stroke-width:19.99508667;stroke-linecap:butt;stroke-linejoin:round;stroke-miterlimit:4;stroke-dasharray:none;stroke-opacity:1" />
    </clipPath>
  </defs>
  <metadata
     id="metadata7">
    <rdf:RDF>
      <cc:Work
         rdf:about="">
        <dc:format>image/svg+xml</dc:format>
        <dc:type
           rdf:resource="http://purl.org/dc/dcmitype/StillImage" />
        <dc:title />
      </cc:Work>
    </rdf:RDF>
  </metadata>
  <g
     inkscape:label="Layer 1"
     inkscape:groupmode="layer"
     id="layer1"
     transform="translate(0,-796.36216)">
    <g
       id="g4149"
       transform="matrix(1.15,0,0,1,-15.75,2.5934066)"
       style="fill:#218dd7;fill-opacity:1">
      <path
         style="opacity:0.98000004;fill:#218dd7;fill-opacity:1;stroke:none;stroke-width:0;stroke-linecap:round;stroke-linejoin:round;stroke-miterlimit:4;stroke-dasharray:none;stroke-opacity:1"
         d="m 30,11 c -2.769989,0 -5,2.23001 -5,5 l 0,20 0,50 c 0,2.76999 2.230012,5 5,5 l 190,0 c 2.76999,0 5,-2.23001 5,-5 l 0,-50 c 0,-2.76999 -2.23004,-5.013008 -5,-5 L 120.16211,31.468864 112.19141,16 c -1.26877,-2.462328 -2.23002,-5 -5,-5 z"
         transform="translate(0,796.36216)"
         id="rect4138"
         inkscape:connector-curvature="0"
         sodipodi:nodetypes="sscsssssscsss" />
    </g>
    <rect
       style="opacity:0.95999995;fill:#ffffff;fill-opacity:1;stroke:none;stroke-width:0;stroke-linecap:round;stroke-linejoin:round;stroke-miterlimit:4;stroke-dasharray:none;stroke-opacity:1"
       id="rect4222"
       width="95"
       height="35"
       x="25"
       y="847.36218" />
    <path
       style="opacity:1;fill:#2ccaff;fill-opacity:1;stroke:none;stroke-width:19.99508667;stroke-linecap:butt;stroke-linejoin:round;stroke-miterlimit:4;stroke-dasharray:none;stroke-opacity:1"
       d="M 9.7967095,855.13302 H 94.79671 c 6.70696,-4.99999 13.41392,-9.99999 20.12088,-14.99998 H 244.79671 V 1010.1331 H 9.7967095 Z"
       id="rect872-3"
       inkscape:connector-curvature="0"
       sodipodi:nodetypes="ccccccc" />
    <g
       transform="translate(0.93772892,-2.3881823)"
       id="g880"
       style="stroke:#ffffff;stroke-opacity:1;fill:#218dd7;fill-opacity:1"
       clip-path="url(#clipPath997)">
      <g
         id="g946"
         transform="translate(-0.93772892,798.75034)"
         style="fill:#218dd7;fill-opacity:1">
        <g
           id="g943"
           style="color:#000000;font-style:normal;font-variant:normal;font-weight:normal;font-stretch:normal;font-size:medium;line-height:normal;font-family:sans-serif;font-variant-ligatures:normal;font-variant-position:normal;font-variant-caps:normal;font-variant-numeric:normal;font-variant-alternates:normal;font-feature-settings:normal;text-indent:0;text-align:start;text-decoration:none;text-decoration-line:none;text-decoration-style:solid;text-decoration-color:#000000;letter-spacing:normal;word-spacing:normal;text-transform:none;writing-mode:lr-tb;direction:ltr;text-orientation:mixed;dominant-baseline:auto;baseline-shift:baseline;text-anchor:start;white-space:normal;shape-padding:0;clip-rule:nonzero;display:inline;overflow:visible;visibility:visible;opacity:1;isolation:auto;mix-blend-mode:normal;color-interpolation:sRGB;color-interpolation-filters:linearRGB;solid-color:#000000;solid-opacity:1;vector-effect:none;fill:#218dd7;fill-opacity:1;fill-rule:evenodd;stroke:none;stroke-width:7.80000019;stroke-linecap:round;stroke-linejoin:round;stroke-miterlimit:4;stroke-dasharray:none;stroke-dashoffset:0;stroke-opacity:1;color-rendering:auto;image-rendering:auto;shape-rendering:auto;text-rendering:auto;enable-background:accumulate">
          <path
             id="path919"
             d="M124.36133 87.740234L124.36133 130.04492L-17.0600262373 271.466276237L-17.0600262373 229.161590237Z"
             style="fill:#218dd7;fill-opacity:1" />
          <path
             id="path921"
             d="M132.10742 130.04492L132.10742 87.740234L-9.31393623731 229.161590237L-9.31393623731 271.466276237Z"
             style="fill:#218dd7;fill-opacity:1" />
          <path
             id="path923"
             d="M99.330078 131.36914L125.96484 150.38867L-15.4565162373 291.810026237L-42.0912782373 272.790496237Z"
             style="fill:#218dd7;fill-opacity:1" />
          <path
             id="path925"
             d="M130.50195 150.38867L157.13867 131.36914L15.7173137627 272.790496237L-10.9194062373 291.810026237Z"
             style="fill:#218dd7;fill-opacity:1" />
          <path
             id="path927"
             d="M152.59961 125.01562L128.23438 142.41406L-13.1869762373 283.835416237L11.1782537627 266.436976237Z"
             style="fill:#218dd7;fill-opacity:1" />
          <path
             id="path929"
             d="M128.23438 142.41406L103.86719 125.01562L-37.5541662373 266.436976237L-13.1869762373 283.835416237Z"
             style="fill:#218dd7;fill-opacity:1" />
          <path
             id="path931"
             d="M86.833984 143.20312L86.833984 168.20312L-54.5873722373 309.624476237L-54.5873722373 284.624476237Z"
             style="fill:#218dd7;fill-opacity:1" />
          <path
             id="path933"
             d="M90.734375 172.10156L165.73438 172.10156L24.3130237627 313.522916237L-50.6869812373 313.522916237Z"
             style="fill:#218dd7;fill-opacity:1" />
          <path
             id="path935"
             d="M169.63477 168.20312L169.63477 143.20312L28.2134137627 284.624476237L28.2134137627 309.624476237Z"
             style="fill:#218dd7;fill-opacity:1" />
          <path
             id="path937"
             d="M161.83398 143.20312L161.83398 164.30273L20.4126237627 305.724086237L20.4126237627 284.624476237Z"
             style="fill:#218dd7;fill-opacity:1" />
          <path
             id="path939"
             d="M161.83398 164.30273L94.634766 164.30273L-46.7865902373 305.724086237L20.4126237627 305.724086237Z"
             style="fill:#218dd7;fill-opacity:1" />
          <path
             id="path941"
             d="M94.634766 164.30273L94.634766 143.20312L-46.7865902373 284.624476237L-46.7865902373 305.724086237Z"
             style="fill:#218dd7;fill-opacity:1" />
        </g>
        <path
           id="path874"
           transform=""
           d="M 128.17578 83.814453 A 3.8727224 3.8727224 0 0 0 124.36133 87.740234 L 124.36133 130.04492 A 3.873045 3.873045 0 0 0 132.10742 130.04492 L 132.10742 87.740234 A 3.8727224 3.8727224 0 0 0 128.17578 83.814453 z M 101.6875 124.25781 A 3.904239 3.904239 0 0 0 99.330078 131.36914 L 125.96484 150.38867 A 3.904239 3.904239 0 0 0 130.50195 150.38867 L 157.13867 131.36914 A 3.904239 3.904239 0 1 0 152.59961 125.01562 L 128.23438 142.41406 L 103.86719 125.01562 A 3.904239 3.904239 0 0 0 101.6875 124.25781 z M 90.675781 139.24805 A 3.9003901 3.9003901 0 0 0 86.833984 143.20312 L 86.833984 168.20312 A 3.9003901 3.9003901 0 0 0 90.734375 172.10156 L 165.73438 172.10156 A 3.9003901 3.9003901 0 0 0 169.63477 168.20312 L 169.63477 143.20312 A 3.900395 3.900395 0 1 0 161.83398 143.20312 L 161.83398 164.30273 L 94.634766 164.30273 L 94.634766 143.20312 A 3.9003901 3.9003901 0 0 0 90.675781 139.24805 z "
           style="color:#000000;font-style:normal;font-variant:normal;font-weight:normal;font-stretch:normal;font-size:medium;line-height:normal;font-family:sans-serif;font-variant-ligatures:normal;font-variant-position:normal;font-variant-caps:normal;font-variant-numeric:normal;font-variant-alternates:normal;font-feature-settings:normal;text-indent:0;text-align:start;text-decoration:none;text-decoration-line:none;text-decoration-style:solid;text-decoration-color:#000000;letter-spacing:normal;word-spacing:normal;text-transform:none;writing-mode:lr-tb;direction:ltr;text-orientation:mixed;dominant-baseline:auto;baseline-shift:baseline;text-anchor:start;white-space:normal;shape-padding:0;clip-rule:nonzero;display:inline;overflow:visible;visibility:visible;opacity:1;isolation:auto;mix-blend-mode:normal;color-interpolation:sRGB;color-interpolation-filters:linearRGB;solid-color:#000000;solid-opacity:1;vector-effect:none;fill:#218dd7;fill-opacity:1;fill-rule:evenodd;stroke:none;stroke-width:7.80000019;stroke-linecap:round;stroke-linejoin:round;stroke-miterlimit:4;stroke-dasharray:none;stroke-dashoffset:0;stroke-opacity:1;color-rendering:auto;image-rendering:auto;shape-rendering:auto;text-rendering:auto;enable-background:accumulate" />
      </g>
    </g>
    <g
       style="stroke:#ffffff;stroke-opacity:1"
       id="g4167"
       transform="translate(0.93772892,-2.3881823)">
      <path
         style="fill:none;fill-rule:evenodd;stroke:#ffffff;stroke-width:7.80000019;stroke-linecap:round;stroke-linejoin:round;stroke-miterlimit:4;stroke-dasharray:none;stroke-opacity:1"
         d="m 89.79671,941.95245 v 25 h 3e-6 74.999987 1e-5 l 0,-25"
         id="path4169"
         inkscape:path-effect="#path-effect6006;#path-effect6008"
         inkscape:original-d="m 89.79671,941.95245 0,25 75,0 0,-25"
         inkscape:connector-curvature="0" />
      <path
         style="fill:#043863;fill-opacity:1;fill-rule:evenodd;stroke:#ffffff;stroke-width:7.74467039;stroke-linecap:round;stroke-linejoin:miter;stroke-miterlimit:4;stroke-dasharray:none;stroke-opacity:1"
         d="m 127.29671,886.49119 c 0,14.10097 0,28.20192 0,42.30287"
         id="path4171"
         inkscape:connector-curvature="0" />
      <path
         style="fill:none;fill-rule:evenodd;stroke:#ffffff;stroke-width:7.8076973;stroke-linecap:round;stroke-linejoin:round;stroke-miterlimit:4;stroke-dasharray:none;stroke-opacity:1"
         d="m 100.66179,926.94179 26.63492,19.01992 26.63492,-19.01992"
         id="path4173"
         inkscape:path-effect="#path-effect4167;#path-effect4169"
         inkscape:original-d="m 100.66179,926.94179 26.63492,19.01992 26.63492,-19.01992"
         inkscape:connector-curvature="0" />
    </g>
  </g>
</svg>
