<?xml version="1.0" encoding="UTF-8" standalone="no"?>
<!-- Created with Inkscape (http://www.inkscape.org/) -->

<svg
   xmlns:dc="http://purl.org/dc/elements/1.1/"
   xmlns:cc="http://creativecommons.org/ns#"
   xmlns:rdf="http://www.w3.org/1999/02/22-rdf-syntax-ns#"
   xmlns:svg="http://www.w3.org/2000/svg"
   xmlns="http://www.w3.org/2000/svg"
   xmlns:sodipodi="http://sodipodi.sourceforge.net/DTD/sodipodi-0.dtd"
   xmlns:inkscape="http://www.inkscape.org/namespaces/inkscape"
   width="256"
   height="256"
   viewBox="0 0 256 256"
   id="svg2"
   version="1.1"
   inkscape:version="0.92.2 (5c3e80d, 2017-08-06)"
   sodipodi:docname="folder_unity.svg">
  <sodipodi:namedview
     id="base"
     pagecolor="#ffffff"
     bordercolor="#666666"
     borderopacity="1.0"
     inkscape:pageopacity="0.0"
     inkscape:pageshadow="2"
     inkscape:zoom="2.1328125"
     inkscape:cx="29.069597"
     inkscape:cy="128"
     inkscape:document-units="px"
     inkscape:current-layer="layer1"
     showgrid="true"
     units="px"
     inkscape:window-width="1920"
     inkscape:window-height="1048"
     inkscape:window-x="0"
     inkscape:window-y="0"
     inkscape:window-maximized="1">
    <inkscape:grid
       type="xygrid"
       id="grid4136"
       spacingx="5"
       spacingy="5" />
  </sodipodi:namedview>
  <defs
     id="defs4">
    <filter
       style="color-interpolation-filters:sRGB;"
       inkscape:label="Drop Shadow"
       id="filter4298">
      <feFlood
         flood-opacity="0.498039"
         flood-color="rgb(0,0,0)"
         result="flood"
         id="feFlood4300" />
      <feComposite
         in="flood"
         in2="SourceGraphic"
         operator="in"
         result="composite1"
         id="feComposite4302" />
      <feGaussianBlur
         in="composite1"
         stdDeviation="1.6"
         result="blur"
         id="feGaussianBlur4304" />
      <feOffset
         dx="-2.77556e-17"
         dy="-7.7"
         result="offset"
         id="feOffset4306" />
      <feComposite
         in="SourceGraphic"
         in2="offset"
         operator="over"
         result="composite2"
         id="feComposite4308" />
    </filter>
    <clipPath
       id="clipPath5092"
       clipPathUnits="userSpaceOnUse">
      <path
         style="opacity:0.91000001;fill:#38bae1;fill-opacity:1;stroke:none;stroke-width:0;stroke-linecap:round;stroke-linejoin:round;stroke-miterlimit:4;stroke-dasharray:none;stroke-opacity:1;filter:url(#filter4298)"
         d="m 10.42124,864.27189 42.534575,-0.0913 21.267287,-0.0456 c 7.245384,-0.0152 14.490768,-0.0305 21.736152,-0.0456 8.394956,-10.58827 10.291846,-15.47699 14.084686,-17.71727 3.79283,-2.24028 9.4816,-1.8321 25.46032,-1.82658 23.36644,-0.007 109.60565,-0.67788 109.60565,-0.67788 l -0.0879,12.1518 -0.0879,12.1518 -0.0879,12.15181 -0.0879,12.1518 -0.0879,12.1518 -0.0879,12.1518 -0.0879,12.15181 -0.0879,12.1518 -0.0879,12.1518 -0.0879,12.1518 -0.0879,12.15181 -0.0879,12.1518 -0.0879,12.15181 -0.0879,12.1518 c 0,0 0.59382,8.1589 -0.0879,12.1518 -0.58177,3.4075 -0.78038,7.5176 -3.36995,9.8075 -2.83121,2.5035 -7.3341,1.9515 -11.09295,2.3443 -4.76571,0.4981 -14.375,0 -14.375,0 l -14.375,0 -14.375,0 -14.37501,0 -14.375,0 -14.375,0 -14.375,0 -14.375,0 -14.375,0 -14.375001,0 c 0,0 -9.583334,0 -14.375001,0 -4.791667,0 -9.583334,0 -14.375001,0 -4.791667,0 -9.500662,0.094 -14.375001,0 -4.874339,-0.093 -10.854147,0.062 -15.030858,-0.571 -4.176712,-0.6329 -7.699545,-0.5576 -9.968228,-2.7111 -2.268683,-2.1535 -2.21606,-4.4991 -2.972258,-7.5945 -0.756198,-3.0955 -0.95689,-7.246 -1.188915,-10.8765 -0.232024,-3.6305 -0.136752,-7.251 -0.205128,-10.8765 -0.06838,-3.6255 -0.136752,-7.25106 -0.205128,-10.87658 -0.06838,-3.62552 -0.136753,-7.25102 -0.205129,-10.87653 -0.06838,-3.62551 -0.136752,-7.25103 -0.205128,-10.87654 -0.06838,-3.62551 -0.205129,-10.87653 -0.205129,-10.87653 L 12.062467,951.28418 11.857339,940.40764 11.65221,929.53111 11.447082,918.65457 11.241954,907.77803 11.036825,896.9015 10.831697,886.02496 10.626568,875.14843 Z"
         id="path5094"
         inkscape:connector-curvature="0"
         sodipodi:nodetypes="cccccccccccccccccccccssscccccccccazzzzzzzzzzzsccccccccc"
         transform="matrix(1.2315339,0,0,1.0608965,-109.24268,-939.37809)" />
    </clipPath>
    <clipPath
       clipPathUnits="userSpaceOnUse"
       id="clipPath1092">
      <path
         style="opacity:0.93500001;fill:#38bae1;fill-opacity:1;stroke:none;stroke-width:0;stroke-linecap:round;stroke-linejoin:round;stroke-miterlimit:4;stroke-dasharray:none;stroke-opacity:1;filter:url(#filter4298)"
         d="m 10.42124,864.27189 42.534575,-0.0913 21.267287,-0.0456 c 7.245384,-0.0152 14.490768,-0.0305 21.736152,-0.0456 8.394956,-10.58827 10.291846,-15.47699 14.084686,-17.71727 3.79283,-2.24028 9.4816,-1.8321 25.46032,-1.82658 23.36644,-0.007 109.60565,-0.67788 109.60565,-0.67788 l -0.0879,12.1518 -0.0879,12.1518 -0.0879,12.15181 -0.0879,12.1518 -0.0879,12.1518 -0.0879,12.1518 -0.0879,12.15181 -0.0879,12.1518 -0.0879,12.1518 -0.0879,12.1518 -0.0879,12.15181 -0.0879,12.1518 -0.0879,12.15181 -0.0879,12.1518 c 0,0 0.59382,8.1589 -0.0879,12.1518 -0.58177,3.4075 -0.78038,7.5176 -3.36995,9.8075 -2.83121,2.5035 -7.3341,1.9515 -11.09295,2.3443 -4.76571,0.4981 -14.375,0 -14.375,0 h -14.375 -14.375 -14.37501 -14.375 -14.375 -14.375 -14.375 -14.375 -14.375001 c 0,0 -9.583334,0 -14.375001,0 -4.791667,0 -9.583334,0 -14.375001,0 -4.791667,0 -9.500662,0.094 -14.375001,0 -4.874339,-0.093 -10.854147,0.062 -15.030858,-0.571 -4.176712,-0.6329 -7.699545,-0.5576 -9.968228,-2.7111 -2.268683,-2.1535 -2.21606,-4.4991 -2.972258,-7.5945 -0.756198,-3.0955 -0.95689,-7.246 -1.188915,-10.8765 -0.232024,-3.6305 -0.136752,-7.251 -0.205128,-10.8765 -0.06838,-3.6255 -0.136752,-7.25106 -0.205128,-10.87658 -0.06838,-3.62552 -0.136753,-7.25102 -0.205129,-10.87653 -0.06838,-3.62551 -0.136752,-7.25103 -0.205128,-10.87654 -0.06838,-3.62551 -0.205129,-10.87653 -0.205129,-10.87653 L 12.062467,951.28418 11.857339,940.40764 11.65221,929.53111 11.447082,918.65457 11.241954,907.77803 11.036825,896.9015 10.831697,886.02496 10.626568,875.14843 Z"
         id="path1094"
         inkscape:connector-curvature="0"
         sodipodi:nodetypes="cccccccccccccccccccccssscccccccccazzzzzzzzzzzsccccccccc"
         transform="matrix(1.0110039,0,0,0.87092225,-1.4059192,-688.46595)" />
    </clipPath>
  </defs>
  <metadata
     id="metadata7">
    <rdf:RDF>
      <cc:Work
         rdf:about="">
        <dc:format>image/svg+xml</dc:format>
        <dc:type
           rdf:resource="http://purl.org/dc/dcmitype/StillImage" />
        <dc:title />
      </cc:Work>
    </rdf:RDF>
  </metadata>
  <g
     inkscape:label="Layer 1"
     inkscape:groupmode="layer"
     id="layer1"
     transform="translate(0,-796.36216)">
    <g
       id="g4149"
       transform="matrix(1.15,0,0,1,-15.75,2.5934066)"
       style="fill:#2496e3;fill-opacity:1">
      <path
         style="opacity:0.98000004;fill:#2496e3;fill-opacity:1;stroke:none;stroke-width:0;stroke-linecap:round;stroke-linejoin:round;stroke-miterlimit:4;stroke-dasharray:none;stroke-opacity:1"
         d="m 30,11 c -2.769989,0 -5,2.23001 -5,5 l 0,20 0,50 c 0,2.76999 2.230012,5 5,5 l 190,0 c 2.76999,0 5,-2.23001 5,-5 l 0,-50 c 0,-2.76999 -2.23004,-5.013008 -5,-5 L 120.16211,31.468864 112.19141,16 c -1.26877,-2.462328 -2.23002,-5 -5,-5 z"
         transform="translate(0,796.36216)"
         id="rect4138"
         inkscape:connector-curvature="0"
         sodipodi:nodetypes="sscsssssscsss" />
    </g>
    <rect
       style="opacity:0.95999995;fill:#ffffff;fill-opacity:1;stroke:none;stroke-width:0;stroke-linecap:round;stroke-linejoin:round;stroke-miterlimit:4;stroke-dasharray:none;stroke-opacity:1"
       id="rect4222"
       width="95"
       height="35"
       x="25"
       y="847.36218" />
    <path
       style="opacity:0.91000001;fill:#0285f4;fill-opacity:1;stroke:none;stroke-width:0;stroke-linecap:round;stroke-linejoin:round;stroke-miterlimit:4;stroke-dasharray:none;stroke-opacity:1;filter:url(#filter4298)"
       d="m 10.42124,864.27189 42.534575,-0.0913 21.267287,-0.0456 c 7.245384,-0.0152 14.490768,-0.0305 21.736152,-0.0456 8.394956,-10.58827 10.291846,-15.47699 14.084686,-17.71727 3.79283,-2.24028 9.4816,-1.8321 25.46032,-1.82658 23.36644,-0.007 109.60565,-0.67788 109.60565,-0.67788 l -0.0879,12.1518 -0.0879,12.1518 -0.0879,12.15181 -0.0879,12.1518 -0.0879,12.1518 -0.0879,12.1518 -0.0879,12.15181 -0.0879,12.1518 -0.0879,12.1518 -0.0879,12.1518 -0.0879,12.15181 -0.0879,12.1518 -0.0879,12.15181 -0.0879,12.1518 c 0,0 0.59382,8.1589 -0.0879,12.1518 -0.58177,3.4075 -0.78038,7.5176 -3.36995,9.8075 -2.83121,2.5035 -7.3341,1.9515 -11.09295,2.3443 -4.76571,0.4981 -14.375,0 -14.375,0 l -14.375,0 -14.375,0 -14.37501,0 -14.375,0 -14.375,0 -14.375,0 -14.375,0 -14.375,0 -14.375001,0 c 0,0 -9.583334,0 -14.375001,0 -4.791667,0 -9.583334,0 -14.375001,0 -4.791667,0 -9.500662,0.094 -14.375001,0 -4.874339,-0.093 -10.854147,0.062 -15.030858,-0.571 -4.176712,-0.6329 -7.699545,-0.5576 -9.968228,-2.7111 -2.268683,-2.1535 -2.21606,-4.4991 -2.972258,-7.5945 -0.756198,-3.0955 -0.95689,-7.246 -1.188915,-10.8765 -0.232024,-3.6305 -0.136752,-7.251 -0.205128,-10.8765 -0.06838,-3.6255 -0.136752,-7.25106 -0.205128,-10.87658 -0.06838,-3.62552 -0.136753,-7.25102 -0.205129,-10.87653 -0.06838,-3.62551 -0.136752,-7.25103 -0.205128,-10.87654 -0.06838,-3.62551 -0.205129,-10.87653 -0.205129,-10.87653 L 12.062467,951.28418 11.857339,940.40764 11.65221,929.53111 11.447082,918.65457 11.241954,907.77803 11.036825,896.9015 10.831697,886.02496 10.626568,875.14843 Z"
       id="path4296"
       inkscape:connector-curvature="0"
       sodipodi:nodetypes="cccccccccccccccccccccssscccccccccazzzzzzzzzzzsccccccccc"
       transform="matrix(1.0110039,0,0,0.87092225,-1.4059192,107.89621)" />
    <path
       transform="matrix(1.0110039,0,0,0.87092225,-1.4059192,107.89621)"
       sodipodi:nodetypes="cccccccccccccccccccccssscccccccccazzzzzzzzzzzsccccccccc"
       inkscape:connector-curvature="0"
       id="path4154"
       d="m 10.42124,864.27189 42.534575,-0.0913 21.267287,-0.0456 c 7.245384,-0.0152 14.490768,-0.0305 21.736152,-0.0456 8.394956,-10.58827 10.291846,-15.47699 14.084686,-17.71727 3.79283,-2.24028 9.4816,-1.8321 25.46032,-1.82658 23.36644,-0.007 109.60565,-0.67788 109.60565,-0.67788 l -0.0879,12.1518 -0.0879,12.1518 -0.0879,12.15181 -0.0879,12.1518 -0.0879,12.1518 -0.0879,12.1518 -0.0879,12.15181 -0.0879,12.1518 -0.0879,12.1518 -0.0879,12.1518 -0.0879,12.15181 -0.0879,12.1518 -0.0879,12.15181 -0.0879,12.1518 c 0,0 0.59382,8.1589 -0.0879,12.1518 -0.58177,3.4075 -0.78038,7.5176 -3.36995,9.8075 -2.83121,2.5035 -7.3341,1.9515 -11.09295,2.3443 -4.76571,0.4981 -14.375,0 -14.375,0 l -14.375,0 -14.375,0 -14.37501,0 -14.375,0 -14.375,0 -14.375,0 -14.375,0 -14.375,0 -14.375001,0 c 0,0 -9.583334,0 -14.375001,0 -4.791667,0 -9.583334,0 -14.375001,0 -4.791667,0 -9.500662,0.094 -14.375001,0 -4.874339,-0.093 -10.854147,0.062 -15.030858,-0.571 -4.176712,-0.6329 -7.699545,-0.5576 -9.968228,-2.7111 -2.268683,-2.1535 -2.21606,-4.4991 -2.972258,-7.5945 -0.756198,-3.0955 -0.95689,-7.246 -1.188915,-10.8765 -0.232024,-3.6305 -0.136752,-7.251 -0.205128,-10.8765 -0.06838,-3.6255 -0.136752,-7.25106 -0.205128,-10.87658 -0.06838,-3.62552 -0.136753,-7.25102 -0.205129,-10.87653 -0.06838,-3.62551 -0.136752,-7.25103 -0.205128,-10.87654 -0.06838,-3.62551 -0.205129,-10.87653 -0.205129,-10.87653 L 12.062467,951.28418 11.857339,940.40764 11.65221,929.53111 11.447082,918.65457 11.241954,907.77803 11.036825,896.9015 10.831697,886.02496 10.626568,875.14843 Z"
       style="opacity:0.935;fill:#38bae1;fill-opacity:1;stroke:none;stroke-width:0;stroke-linecap:round;stroke-linejoin:round;stroke-miterlimit:4;stroke-dasharray:none;stroke-opacity:1;filter:url(#filter4298)" />
    <g
       id="g1013"
       transform="translate(0,796.36216)"
       clip-path="url(#clipPath1092)">
      <g
         id="g1010"
         style="fill:#0f7898;fill-opacity:1;stroke-width:0.4963569">
        <path
           id="path906"
           d="M158.69922 82.742188C156.249704654 82.6784597654 153.832420247 83.6142903167 152.061735931 85.3849746326L10.6403796939 226.80633087C12.4110640098 225.035646554 14.8283484168 224.099816003 17.2778637627 224.163544237Z" />
        <path
           id="path908"
           d="M152.061735931 85.3849746326C151.514323826 85.932386738 151.028710838 86.5595903974 150.62305 87.261719L9.20169376269 228.683075237C9.60735460079 227.980946635 10.0929675885 227.353742975 10.6403796939 226.80633087Z" />
        <path
           id="path910"
           d="M150.62305 87.261719C148.12539 91.587469 149.60735 97.117564 153.93359 99.615234L12.5122337627 241.036590237C8.18599376269 238.538920237 6.70403376269 233.008825237 9.20169376269 228.683075237Z" />
        <path
           id="path912"
           d="M153.93359 99.615234C157.556342892 101.706742927 162.025005332 101.008682905 164.847380971 98.1863072665L23.4260247335 239.607663504C20.6036490948 242.430039143 16.1349866544 243.128099165 12.5122337627 241.036590237Z" />
        <path
           id="path914"
           d="M164.847380971 98.1863072665C165.395453986 97.6382342514 165.881446858 97.010055014 166.28711 96.306641L24.8657537627 237.727997237C24.4600906211 238.431411251 23.9740977486 239.059590489 23.4260247335 239.607663504Z" />
        <path
           id="path916"
           d="M166.28711 96.306641C168.78479 91.979881 167.30527 86.448305 162.97656 83.953125L21.5552037627 225.374481237C25.8839137627 227.869661237 27.3634337627 233.401237237 24.8657537627 237.727997237Z" />
        <path
           id="path918"
           d="M162.97656 83.953125C161.62554 83.172603 160.15685 82.78011 158.69922 82.742188L17.2778637627 224.163544237C18.7354937627 224.201466237 20.2041837627 224.593959237 21.5552037627 225.374481237Z" />
        <path
           id="path920"
           d="M135.67578 92.380859C129.48571 92.380859 123.63531 93.827734 118.43945 96.402344L-22.9819062373 237.823700237C-17.7860462373 235.249090237 -11.9356462373 233.802215237 -5.74557623731 233.802215237Z" />
        <path
           id="path922"
           d="M118.43945 96.402344L124.80859 107.83984L-16.6127662373 249.261196237L-22.9819062373 237.823700237Z" />
        <path
           id="path924"
           d="M124.80859 107.83984C128.10936 106.30609 131.79526 105.44531 135.67578 105.44531L-5.74557623731 246.866666237C-9.62609623731 246.866666237 -13.3119962373 247.727446237 -16.6127662373 249.261196237Z" />
        <path
           id="path926"
           d="M135.67578 105.44531C149.15336 105.44531 160.21217 115.7768 161.36719 128.95508L19.9458337627 270.376436237C18.7908137627 257.198156237 7.73200376269 246.866666237 -5.74557623731 246.866666237Z" />
        <path
           id="path928"
           d="M161.36719 128.95508L174.45703 128.74805L33.0356737627 270.169406237L19.9458337627 270.376436237Z" />
        <path
           id="path930"
           d="M174.45703 128.74805C173.83559 118.95641 169.58989 110.14959 163.04492 103.65625L21.6235637627 245.077606237C28.1685337627 251.570946237 32.4142337627 260.377766237 33.0356737627 270.169406237Z" />
        <path
           id="path932"
           d="M163.04492 103.65625C159.58035 104.99294 155.55984 104.81238 152.0918 102.80859L10.6704437627 244.229946237C14.1384837627 246.233736237 18.1589937627 246.414296237 21.6235637627 245.077606237Z" />
        <path
           id="path934"
           d="M152.0918 102.80859C148.62126 100.80479 146.45415 97.413311 145.88086 93.738281L4.45950376269 235.159637237C5.03279376269 238.834667237 7.19990376269 242.226146237 10.6704437627 244.229946237Z" />
        <path
           id="path936"
           d="M145.88086 93.738281C142.62773 92.854771 139.20488 92.380859 135.67578 92.380859L-5.74557623731 233.802215237C-2.21647623731 233.802215237 1.20637376269 234.276127237 4.45950376269 235.159637237Z" />
        <path
           id="path938"
           d="M114.12891 98.898438C111.994603231 100.323757071 110.009499624 101.954299772 108.201795146 103.762004251L-33.2195610916 245.183360488C-31.411856613 243.37565601 -29.4267530065 241.745113308 -27.2924462373 240.319794237Z" />
        <path
           id="path940"
           d="M108.201795146 103.762004251C103.415909346 108.547890051 99.8734533568 114.575542015 98.097656 121.32422L-43.3237002373 262.745576237C-41.5479028805 255.996898252 -38.0054468914 249.969246288 -33.2195610916 245.183360488Z" />
        <path
           id="path942"
           d="M98.097656 121.32422C100.99291 123.6556 102.84766 127.2302 102.84766 131.23828L-38.5736962373 272.659636237C-38.5736962373 268.651556237 -40.4284462373 265.076956237 -43.3237002373 262.745576237Z" />
        <path
           id="path944"
           d="M102.84766 131.23828C102.84766 134.754207953 101.42182204 137.934275269 99.1197585572 140.236338752L-42.3015976801 281.657694989C-39.9995341972 279.355631506 -38.5736962373 276.17556419 -38.5736962373 272.659636237Z" />
        <path
           id="path946"
           d="M99.1197585572 140.236338752C98.7958903184 140.56020699 98.454679327 140.866697279 98.097656 141.1543L-43.3237002373 282.575656237C-42.9666769103 282.288053517 -42.6254659189 281.981563228 -42.3015976801 281.657694989Z" />
        <path
           id="path948"
           d="M98.097656 141.1543C100.5442 150.45154 106.34404 158.38212 114.12891 163.58398L-27.2924462373 305.005336237C-35.0773162373 299.803476237 -40.8771562373 291.872896237 -43.3237002373 282.575656237Z" />
        <path
           id="path950"
           d="M114.12891 163.58398L120.84961 152.34961L-20.5717462373 293.770966237L-27.2924462373 305.005336237Z" />
        <path
           id="path952"
           d="M120.84961 152.34961C114.21679 147.68084 109.88086 139.96871 109.88086 131.23828L-31.5404962373 272.659636237C-31.5404962373 281.390066237 -27.2045662373 289.102196237 -20.5717462373 293.770966237Z" />
        <path
           id="path954"
           d="M109.88086 131.23828C109.88086 124.118971279 112.768086151 117.671346347 117.434579793 113.004852705L-23.9867764438 254.426208942C-28.6532700864 259.092702585 -31.5404962373 265.540327517 -31.5404962373 272.659636237Z" />
        <path
           id="path956"
           d="M117.434579793 113.004852705C118.486708383 111.952724116 119.629284672 110.991137972 120.84961 110.13281L-20.5717462373 251.554166237C-21.792071565 252.412494209 -22.9346478547 253.374080353 -23.9867764438 254.426208942Z" />
        <path
           id="path958"
           d="M120.84961 110.13281L114.12891 98.898438L-27.2924462373 240.319794237L-20.5717462373 251.554166237Z" />
        <path
           id="path960"
           d="M90.115234 122.19531C87.6192324784 122.19531 85.3593237094 123.207367432 83.7232428743 124.843448267L-57.698113363 266.264804504C-56.0620325279 264.628723669 -53.8021237589 263.616666237 -51.3061222373 263.616666237Z" />
        <path
           id="path962"
           d="M83.7232428743 124.843448267C82.0866042535 126.480086888 81.074219 128.741174478 81.074219 131.23828L-60.3471372373 272.659636237C-60.3471372373 270.162530716 -59.3347519838 267.901443125 -57.698113363 266.264804504Z" />
        <path
           id="path964"
           d="M81.074219 131.23828C81.074219 136.23411 85.12238 140.2832 90.115234 140.2832L-51.3061222373 281.704556237C-56.2989762373 281.704556237 -60.3471372373 277.655466237 -60.3471372373 272.659636237Z" />
        <path
           id="path966"
           d="M90.115234 140.2832C92.6151824386 140.2832 94.8778297195 139.270364708 96.5152696784 137.632924749L-44.9060865589 279.054280986C-46.5435265179 280.691720945 -48.8061737987 281.704556237 -51.3061222373 281.704556237Z" />
        <path
           id="path968"
           d="M96.5152696784 137.632924749C98.1519977442 135.996196683 99.164062 133.735406939 99.164062 131.23828L-42.2572942373 272.659636237C-42.2572942373 275.156763176 -43.2693584931 277.41755292 -44.9060865589 279.054280986Z" />
        <path
           id="path970"
           d="M99.164062 131.23828C99.164063 126.24492 95.114044 122.19531 90.115234 122.19531L-51.3061222373 263.616666237C-46.3073122373 263.616666237 -42.2572932373 267.666276237 -42.2572942373 272.659636237Z" />
        <path
           id="path972"
           d="M161.36719 133.52539C160.822343916 139.737518032 158.075837575 145.318274415 153.912174725 149.481937264L12.4908184881 290.903293501C16.6544813373 286.739630652 19.400987679 281.158874269 19.9458337627 274.946746237Z" />
        <path
           id="path974"
           d="M153.912174725 149.481937264C149.245461732 154.148650258 142.798466376 157.03516 135.67578 157.03516L-5.74557623731 298.456516237C1.3771101386 298.456516237 7.82410549422 295.570006495 12.4908184881 290.903293501Z" />
        <path
           id="path976"
           d="M135.67578 157.03516C131.79576 157.03516 128.10986 156.17349 124.80859 154.63672L-16.6127662373 296.058076237C-13.3114962373 297.594846237 -9.62559623731 298.456516237 -5.74557623731 298.456516237Z" />
        <path
           id="path978"
           d="M124.80859 154.63672L118.43945 166.07422L-22.9819062373 307.495576237L-16.6127662373 296.058076237Z" />
        <path
           id="path980"
           d="M118.43945 166.07422C123.63531 168.65079 129.48522 170.09766 135.67578 170.09766L-5.74557623731 311.519016237C-11.9361362373 311.519016237 -17.7860462373 310.072146237 -22.9819062373 307.495576237Z" />
        <path
           id="path982"
           d="M135.67578 170.09766C139.20439 170.09766 142.62773 169.62723 145.88086 168.74219L4.45950376269 310.163546237C1.20637376269 311.048586237 -2.21696623731 311.519016237 -5.74557623731 311.519016237Z" />
        <path
           id="path984"
           d="M145.88086 168.74219C146.290280973 166.113587128 147.514275411 163.631606867 149.446772635 161.699109644L8.02541639789 303.120465881C6.09291917411 305.052963105 4.86892473544 307.534943366 4.45950376269 310.163546237Z" />
        <path
           id="path986"
           d="M149.446772635 161.699109644C150.217886507 160.927995772 151.101808623 160.244370922 152.0918 159.67383L10.6704437627 301.095186237C9.68045238545 301.665727159 8.79653026999 302.349352009 8.02541639789 303.120465881Z" />
        <path
           id="path988"
           d="M152.0918 159.67383C155.55984 157.67005 159.58035 157.48755 163.04492 158.82422L21.6235637627 300.245576237C18.1589937627 298.908906237 14.1384837627 299.091406237 10.6704437627 301.095186237Z" />
        <path
           id="path990"
           d="M163.04492 158.82422C163.079751077 158.789650098 163.114517016 158.755014746 163.149217619 158.720314143L21.7278613818 300.14167038C21.6931607788 300.176370983 21.6583948393 300.211006336 21.6235637627 300.245576237Z" />
        <path
           id="path992"
           d="M163.149217619 158.720314143C169.635458391 152.234073371 173.838896937 143.468034775 174.45703 133.72852L33.0356737627 275.149876237C32.4175406998 284.889391012 28.2141021532 293.655429609 21.7278613818 300.14167038Z" />
        <path
           id="path994"
           d="M174.45703 133.72852L161.36719 133.52539L19.9458337627 274.946746237L33.0356737627 275.149876237Z" />
        <path
           id="path996"
           d="M158.21289 161.6543C156.75519 161.69258 155.28539 162.08473 153.93359 162.86523L12.5122337627 304.286586237C13.8640337627 303.506086237 15.3338337627 303.113936237 16.7915337627 303.075656237Z" />
        <path
           id="path998"
           d="M153.93359 162.86523C153.230441963 163.271265587 152.602429519 163.757375802 152.054427053 164.305378268L10.6330708157 305.726734505C11.1810732818 305.178732039 11.8090857262 304.692621824 12.5122337627 304.286586237Z" />
        <path
           id="path1000"
           d="M152.054427053 164.305378268C149.230741701 167.12906362 148.531336195 171.595999774 150.62305 175.21875L9.20169376269 316.640106237C7.10997995741 313.017356011 7.80938546395 308.550419857 10.6330708157 305.726734505Z" />
        <path
           id="path1002"
           d="M150.62305 175.21875C153.12121 179.54139 158.65228 181.024 162.97852 178.5293L21.5571637627 319.950656237C17.2309237627 322.445356237 11.6998537627 320.962746237 9.20169376269 316.640106237Z" />
        <path
           id="path1004"
           d="M162.97852 178.5293C163.680902876 178.123661001 164.308271479 177.638010539 164.85577578 177.090506238L23.4344195426 318.511862475C22.8869152418 319.059366776 22.2595466386 319.545017238 21.5571637627 319.950656237Z" />
        <path
           id="path1006"
           d="M164.85577578 177.090506238C167.680174199 174.266107819 168.379227058 169.795657562 166.28711 166.17188L24.8657537627 307.593236237C26.957870821 311.217013799 26.2588179613 315.687464057 23.4344195426 318.511862475Z" />
        <path
           id="path1008"
           d="M166.28711 166.17188C164.56996 163.19793 161.41983 161.57007 158.21289 161.6543L16.7915337627 303.075656237C19.9984737627 302.991426237 23.1486037627 304.619286237 24.8657537627 307.593236237Z" />
      </g>
      <path
         id="path885"
         transform=""
         d="M 158.69922 82.742188 C 155.49243 82.658758 152.34088 84.288453 150.62305 87.261719 C 148.12539 91.587469 149.60735 97.117564 153.93359 99.615234 C 158.25984 102.11289 163.79243 100.63238 166.28711 96.306641 C 168.78479 91.979881 167.30527 86.448305 162.97656 83.953125 C 161.62554 83.172603 160.15685 82.78011 158.69922 82.742188 z M 135.67578 92.380859 C 129.48571 92.380859 123.63531 93.827734 118.43945 96.402344 L 124.80859 107.83984 C 128.10936 106.30609 131.79526 105.44531 135.67578 105.44531 C 149.15336 105.44531 160.21217 115.7768 161.36719 128.95508 L 174.45703 128.74805 C 173.83559 118.95641 169.58989 110.14959 163.04492 103.65625 C 159.58035 104.99294 155.55984 104.81238 152.0918 102.80859 C 148.62126 100.80479 146.45415 97.413311 145.88086 93.738281 C 142.62773 92.854771 139.20488 92.380859 135.67578 92.380859 z M 114.12891 98.898438 C 106.34404 104.09728 100.5442 112.02646 98.097656 121.32422 C 100.99291 123.6556 102.84766 127.2302 102.84766 131.23828 C 102.84766 135.24885 100.99241 138.82241 98.097656 141.1543 C 100.5442 150.45154 106.34404 158.38212 114.12891 163.58398 L 120.84961 152.34961 C 114.21679 147.68084 109.88086 139.96871 109.88086 131.23828 C 109.88086 122.51382 114.21679 114.79807 120.84961 110.13281 L 114.12891 98.898438 z M 90.115234 122.19531 C 85.12238 122.19531 81.074219 126.24492 81.074219 131.23828 C 81.074219 136.23411 85.12238 140.2832 90.115234 140.2832 C 95.114044 140.2832 99.164062 136.23362 99.164062 131.23828 C 99.164063 126.24492 95.114044 122.19531 90.115234 122.19531 z M 161.36719 133.52539 C 160.21167 146.70019 149.15336 157.03516 135.67578 157.03516 C 131.79576 157.03516 128.10986 156.17349 124.80859 154.63672 L 118.43945 166.07422 C 123.63531 168.65079 129.48522 170.09766 135.67578 170.09766 C 139.20439 170.09766 142.62773 169.62723 145.88086 168.74219 C 146.45365 165.06471 148.62078 161.67421 152.0918 159.67383 C 155.55984 157.67005 159.58035 157.48755 163.04492 158.82422 C 169.59038 152.32784 173.83559 143.52014 174.45703 133.72852 L 161.36719 133.52539 z M 158.21289 161.6543 C 156.75519 161.69258 155.28539 162.08473 153.93359 162.86523 C 149.60734 165.36344 148.12539 170.89292 150.62305 175.21875 C 153.12121 179.54139 158.65228 181.024 162.97852 178.5293 C 167.30427 176.0311 168.78478 170.49812 166.28711 166.17188 C 164.56996 163.19793 161.41983 161.57007 158.21289 161.6543 z "
         style="fill:#0f7898;fill-opacity:1;stroke-width:0.4963569" />
    </g>
    <path
       d="m 99.164502,927.59976 c 0,4.99534 -4.049776,9.04611 -9.048586,9.04611 -4.992854,0 -9.04263,-4.05028 -9.04263,-9.04611 0,-4.99336 4.049776,-9.04312 9.04263,-9.04312 4.99881,0 9.048586,4.04976 9.048586,9.04312 z m 51.459298,43.9803 c 2.49816,4.32264 8.02758,5.80534 12.35382,3.31064 4.32575,-2.4982 5.80788,-8.03056 3.31021,-12.35681 -2.49767,-4.32574 -8.02758,-5.80487 -12.35333,-3.30726 -4.32625,2.49821 -5.80836,8.0276 -3.3107,12.35343 z m 15.66353,-78.9119 c 2.49768,-4.32676 1.01852,-9.85766 -3.31019,-12.35284 -4.32327,-2.49767 -9.85518,-1.01555 -12.35384,3.3092 -2.49766,4.32575 -1.01554,9.85617 3.3107,12.35384 4.32625,2.49766 9.85865,1.01554 12.35333,-3.3102 z m -30.61132,9.13941 c 13.47758,0 24.53691,10.33117 25.69193,23.50945 l 13.08992,-0.20648 c -0.62144,-9.79164 -4.86875,-18.59801 -11.41372,-25.09135 -3.46457,1.33669 -7.48457,1.15503 -10.95261,-0.84876 -3.47054,-2.0038 -5.63812,-5.3959 -6.21141,-9.07093 -3.25313,-0.88351 -6.67501,-1.35654 -10.20411,-1.35654 -6.19007,0 -12.04112,1.44737 -17.23698,4.02198 l 6.36925,11.43755 c 3.30077,-1.53375 6.98721,-2.39492 10.86773,-2.39492 z m -25.79517,25.79219 c 0,-8.72446 4.33518,-16.43983 10.968,-21.10509 l -6.72067,-11.23454 c -7.78487,5.19884 -13.5838,13.12913 -16.030339,22.42689 2.895249,2.33138 4.750129,5.90516 4.750129,9.91324 0,4.01057 -1.85538,7.58433 -4.750129,9.91622 2.446539,9.29724 8.245469,17.22761 16.030339,22.42947 l 6.72067,-11.2346 c -6.63282,-4.66877 -10.968,-12.38116 -10.968,-21.11159 z m 25.79517,25.79721 c -3.88002,0 -7.56646,-0.86076 -10.86773,-2.39753 l -6.36925,11.43767 c 5.19586,2.57657 11.04642,4.0225 17.23698,4.0225 3.52861,0 6.95098,-0.46955 10.20411,-1.35459 0.57279,-3.67748 2.74039,-7.06955 6.21141,-9.06993 3.46804,-2.00378 7.48804,-2.18596 10.95261,-0.84929 6.54546,-6.49638 10.79228,-15.3027 11.41372,-25.09432 l -13.08992,-0.20302 c -1.15552,13.1748 -12.21435,23.50851 -25.69193,23.50851 z"
       id="path4"
       inkscape:connector-curvature="0"
       style="fill:#ffffff;fill-opacity:1;stroke-width:0.4963569" />
  </g>
</svg>
