<?xml version="1.0" encoding="UTF-8" standalone="no"?>
<!-- Created with Inkscape (http://www.inkscape.org/) -->

<svg
   xmlns:dc="http://purl.org/dc/elements/1.1/"
   xmlns:cc="http://creativecommons.org/ns#"
   xmlns:rdf="http://www.w3.org/1999/02/22-rdf-syntax-ns#"
   xmlns:svg="http://www.w3.org/2000/svg"
   xmlns="http://www.w3.org/2000/svg"
   xmlns:sodipodi="http://sodipodi.sourceforge.net/DTD/sodipodi-0.dtd"
   xmlns:inkscape="http://www.inkscape.org/namespaces/inkscape"
   width="256"
   height="256"
   viewBox="0 0 256 256"
   id="svg4149"
   version="1.1"
   inkscape:version="0.91 r13725"
   sodipodi:docname="distributor-logo-opensuse.svg">
  <sodipodi:namedview
     id="base"
     pagecolor="#ffffff"
     bordercolor="#666666"
     borderopacity="1.0"
     inkscape:pageopacity="0.0"
     inkscape:pageshadow="2"
     inkscape:zoom="3.3632812"
     inkscape:cx="73.886178"
     inkscape:cy="128"
     inkscape:document-units="px"
     inkscape:current-layer="layer1"
     showgrid="false"
     units="px"
     inkscape:window-width="1920"
     inkscape:window-height="1054"
     inkscape:window-x="0"
     inkscape:window-y="0"
     inkscape:window-maximized="1" />
  <defs
     id="defs4151">
    <clipPath
       id="clipPath4863"
       clipPathUnits="userSpaceOnUse">
      <circle
         r="77.263145"
         cy="924.36218"
         cx="128"
         id="circle4865"
         style="fill:#e9e9e9;fill-opacity:1;stroke:none;stroke-width:20;stroke-miterlimit:4;stroke-dasharray:none;stroke-opacity:1" />
    </clipPath>
    <clipPath
       clipPathUnits="userSpaceOnUse"
       id="clipPath4227">
      <circle
         r="77.263145"
         cy="924.36218"
         cx="128"
         id="circle4229"
         style="fill:#e9e9e9;fill-opacity:1;stroke:none;stroke-width:20;stroke-miterlimit:4;stroke-dasharray:none;stroke-opacity:1" />
    </clipPath>
    <clipPath
       id="clipPath5242"
       clipPathUnits="userSpaceOnUse">
      <circle
         r="53.296803"
         cy="27.298298"
         cx="-91.568832"
         id="circle5244"
         style="fill:#294172;fill-opacity:1;stroke:none;stroke-width:20;stroke-miterlimit:4;stroke-dasharray:none;stroke-opacity:1" />
    </clipPath>
    <clipPath
       clipPathUnits="userSpaceOnUse"
       id="clipPath4588">
      <circle
         r="128"
         cy="924.36218"
         cx="128"
         id="circle4590"
         style="fill:#73ba25;fill-opacity:1;stroke:none;stroke-width:20;stroke-miterlimit:4;stroke-dasharray:none;stroke-opacity:1" />
    </clipPath>
  </defs>
  <metadata
     id="metadata4154">
    <rdf:RDF>
      <cc:Work
         rdf:about="">
        <dc:format>image/svg+xml</dc:format>
        <dc:type
           rdf:resource="http://purl.org/dc/dcmitype/StillImage" />
        <dc:title />
      </cc:Work>
    </rdf:RDF>
  </metadata>
  <g
     inkscape:label="Layer 1"
     inkscape:groupmode="layer"
     id="layer1"
     transform="translate(0,-796.36216)">
    <circle
       style="fill:#34b6a9;fill-opacity:1;stroke:none;stroke-width:20;stroke-miterlimit:4;stroke-dasharray:none;stroke-opacity:1"
       id="path4723"
       cx="128"
       cy="924.36218"
       r="128" />
    <g
       id="g4285"
       clip-path="url(#clipPath4588)"
       style="fill:#1a5b54;fill-opacity:1">
      <g
         id="g4287"
         style="fill:#1a5b54;fill-rule:evenodd;fill-opacity:1">
        <path
           id="path4289"
           d="M107.92729 961.78889L108.27872 961.75589L-33.1426362373 1103.17724624L-33.4940662373 1103.21024624Z"
           style="fill:#1a5b54;fill-opacity:1" />
        <path
           id="path4291"
           d="M108.27872 961.75589L108.33572 961.33975L-33.0856362373 1102.76110624L-33.1426362373 1103.17724624Z"
           style="fill:#1a5b54;fill-opacity:1" />
        <path
           id="path4293"
           d="M108.33572 961.33975C108.24572 961.01301 108.03379 960.71939 107.70639 956.6689L-33.7149662373 1098.09025624C-33.3875662373 1102.14074624 -33.1756362373 1102.43436624 -33.0856362373 1102.76110624Z"
           style="fill:#1a5b54;fill-opacity:1" />
        <path
           id="path4295"
           d="M107.70639 956.6689C107.429462351 953.096593121 106.869098604 943.321908417 111.761542871 938.429464151L-29.6598133668 1079.85082039C-34.5522576328 1084.74326465 -33.991893886 1094.51794936 -33.7149662373 1098.09025624Z"
           style="fill:#1a5b54;fill-opacity:1" />
        <path
           id="path4297"
           d="M111.761542871 938.429464151C111.778721272 938.41228575 111.795966899 938.395167539 111.81328 938.37811L-29.6080762373 1079.79946624C-29.6253893382 1079.81652378 -29.6426349652 1079.83364199 -29.6598133668 1079.85082039Z"
           style="fill:#1a5b54;fill-opacity:1" />
        <path
           id="path4299"
           d="M111.81328 938.37811C113.73283 936.47556 116.66369 934.78506 118.97533 934.23823L-22.4460262373 1075.65958624C-24.7576662373 1076.20641624 -27.6885262373 1077.89691624 -29.6080762373 1079.79946624Z"
           style="fill:#1a5b54;fill-opacity:1" />
        <path
           id="path4301"
           d="M118.97533 934.23823C128.45539 931.92723 140.76093 933.5277 151.26984 945.67852L9.84848376269 1087.09987624C-0.66042623731 1074.94905624 -12.9659662373 1073.34858624 -22.4460262373 1075.65958624Z"
           style="fill:#1a5b54;fill-opacity:1" />
        <path
           id="path4303"
           d="M151.26984 945.67852C156.6924 951.95751 159.35431 954.82366 160.6852 956.1057L19.2638437627 1097.52705624C17.9329537627 1096.24501624 15.2710437627 1093.37886624 9.84848376269 1087.09987624Z"
           style="fill:#1a5b54;fill-opacity:1" />
        <path
           id="path4305"
           d="M160.6852 956.1057L161.142 956.53014L19.7206437627 1097.95149624L19.2638437627 1097.52705624Z"
           style="fill:#1a5b54;fill-opacity:1" />
        <path
           id="path4307"
           d="M161.142 956.53014L161.69766 956.93043L20.2763037627 1098.35178624L19.7206437627 1097.95149624Z"
           style="fill:#1a5b54;fill-opacity:1" />
        <path
           id="path4309"
           d="M161.69766 956.93043C162.13029 957.17532 179.75941 965.29201 179.75941 965.29201L38.3380537627 1106.71336624C38.3380537627 1106.71336624 20.7089337627 1098.59667624 20.2763037627 1098.35178624Z"
           style="fill:#1a5b54;fill-opacity:1" />
        <path
           id="path4311"
           d="M179.75941 965.29201L180.11851 965.20201L38.6971537627 1106.62336624L38.3380537627 1106.71336624Z"
           style="fill:#1a5b54;fill-opacity:1" />
        <path
           id="path4313"
           d="M180.11851 965.20201L180.12751 964.81889L38.7061537627 1106.24024624L38.6971537627 1106.62336624Z"
           style="fill:#1a5b54;fill-opacity:1" />
        <path
           id="path4315"
           d="M180.12751 964.81889C180.01332 964.68819 168.95746 950.40592 170.91651 938.63966L29.4951537627 1080.06101624C27.5361037627 1091.82727624 38.5919637627 1106.10954624 38.7061537627 1106.24024624Z"
           style="fill:#1a5b54;fill-opacity:1" />
        <path
           id="path4317"
           d="M170.91651 938.63966C171.338989951 936.087261596 172.199715058 934.292195779 173.43690659 933.055004247L32.015550353 1074.47636048C30.7783588208 1075.71355202 29.9176337139 1077.50861783 29.4951537627 1080.06101624Z"
           style="fill:#1a5b54;fill-opacity:1" />
        <path
           id="path4319"
           d="M173.43690659 933.055004247C176.743483632 929.748427205 182.739177465 930.426771543 190.24458 931.28221L48.8232237627 1072.70356624C41.3178212274 1071.84812778 35.3221273948 1071.16978344 32.015550353 1074.47636048Z"
           style="fill:#1a5b54;fill-opacity:1" />
        <path
           id="path4321"
           d="M190.24458 931.28221C193.61688 931.66599 197.45483 932.10694 201.42347 932.19697L60.0021137627 1073.61832624C56.0334737627 1073.52829624 52.1955237627 1073.08734624 48.8232237627 1072.70356624Z"
           style="fill:#1a5b54;fill-opacity:1" />
        <path
           id="path4323"
           d="M201.42347 932.19697C212.50337 932.26237 224.4423 930.22922 231.79975 927.01164L90.3783937627 1068.43299624C83.0209437627 1071.65057624 71.0820137627 1073.68372624 60.0021137627 1073.61832624Z"
           style="fill:#1a5b54;fill-opacity:1" />
        <path
           id="path4325"
           d="M231.79975 927.01164C236.56011 924.92968 239.5975 923.55747 241.50055 921.8263L100.079193763 1063.24765624C98.1761437627 1064.97882624 95.1387537627 1066.35103624 90.3783937627 1068.43299624Z"
           style="fill:#1a5b54;fill-opacity:1" />
        <path
           id="path4327"
           d="M241.50055 921.8263C241.563412548 921.774607653 241.623530419 921.719822789 241.681162287 921.662190921L100.25980605 1063.08354716C100.202174182 1063.14117903 100.14205631 1063.19596389 100.079193763 1063.24765624Z"
           style="fill:#1a5b54;fill-opacity:1" />
        <path
           id="path4329"
           d="M241.681162287 921.662190921C242.251587811 921.091765398 242.578471114 920.242432126 242.91263 919.35225L101.491273763 1060.77360624C101.157114876 1061.66378836 100.830231573 1062.51312164 100.25980605 1063.08354716Z"
           style="fill:#1a5b54;fill-opacity:1" />
        <path
           id="path4331"
           d="M242.91263 919.35225L243.16637 918.69122L101.745013763 1060.11257624L101.491273763 1060.77360624Z"
           style="fill:#1a5b54;fill-opacity:1" />
        <path
           id="path4333"
           d="M243.16637 918.69122C243.47596 917.89885 243.9251 916.20067 244.1218 915.27773L102.700443763 1056.69908624C102.503743763 1057.62202624 102.054603763 1059.32020624 101.745013763 1060.11257624Z"
           style="fill:#1a5b54;fill-opacity:1" />
        <path
           id="path4335"
           d="M244.1218 915.27773C244.2118 914.86978 244.25248 914.42832 243.96576 914.20823L102.544403763 1055.62958624C102.831123763 1055.84967624 102.790443763 1056.29113624 102.700443763 1056.69908624Z"
           style="fill:#1a5b54;fill-opacity:1" />
        <path
           id="path4337"
           d="M243.96576 914.20823L242.94563 914.39597L101.524273763 1055.81732624L102.544403763 1055.62958624Z"
           style="fill:#1a5b54;fill-opacity:1" />
        <path
           id="path4339"
           d="M242.94563 914.39597C239.72052 916.33137 231.64371 920.02224 224.0832 920.16932L82.6618437627 1061.59067624C90.2223537627 1061.44359624 98.2991637627 1057.75272624 101.524273763 1055.81732624Z"
           style="fill:#1a5b54;fill-opacity:1" />
        <path
           id="path4341"
           d="M224.0832 920.16932C214.71732 920.36471 195.83851 910.74576 193.87062 909.72499L52.4492637627 1051.14634624C54.4171537627 1052.16711624 73.2959637627 1061.78606624 82.6618437627 1061.59067624Z"
           style="fill:#1a5b54;fill-opacity:1" />
        <path
           id="path4343"
           d="M193.87062 909.72499L193.68288 909.5049L52.2615237627 1050.92625624L52.4492637627 1051.14634624Z"
           style="fill:#1a5b54;fill-opacity:1" />
        <path
           id="path4345"
           d="M193.68288 909.5049C193.20843 908.3776 190.37528 901.67363 189.77896 900.26154L48.3576037627 1041.68289624C48.9539237627 1043.09498624 51.7870737627 1049.79895624 52.2615237627 1050.92625624Z"
           style="fill:#1a5b54;fill-opacity:1" />
        <path
           id="path4347"
           d="M189.77896 900.26154C203.3672 909.21063 214.63482 914.15939 223.26613 914.92694L81.8447737627 1056.34829624C73.2134637627 1055.58074624 61.9458437627 1050.63198624 48.3576037627 1041.68289624Z"
           style="fill:#1a5b54;fill-opacity:1" />
        <path
           id="path4349"
           d="M223.26613 914.92694C232.86923 915.78402 240.35738 910.54217 243.55833 908.30405L102.136973763 1049.72540624C98.9360237627 1051.96352624 91.4478737627 1057.20537624 81.8447737627 1056.34829624Z"
           style="fill:#1a5b54;fill-opacity:1" />
        <path
           id="path4351"
           d="M243.55833 908.30405C244.18636 907.87961 244.66082 907.5365 244.85622 907.46348L103.434863763 1048.88483624C103.239463763 1048.95785624 102.765003763 1049.30096624 102.136973763 1049.72540624Z"
           style="fill:#1a5b54;fill-opacity:1" />
        <path
           id="path4353"
           d="M244.85622 907.46348L245.06045 907.12855L103.639093763 1048.54990624L103.434863763 1048.88483624Z"
           style="fill:#1a5b54;fill-opacity:1" />
        <path
           id="path4355"
           d="M245.06045 907.12855C244.52883 903.75624 239.50718 887.42501 235.71876 883.50522L94.2974037627 1024.92657624C98.0858237627 1028.84636624 103.107473763 1045.17759624 103.639093763 1048.54990624Z"
           style="fill:#1a5b54;fill-opacity:1" />
        <path
           id="path4357"
           d="M235.71876 883.50522C234.66575 882.42741 233.82453 881.3826 232.12571 880.38599L90.7043537627 1021.80734624C92.4031737627 1022.80395624 93.2443937627 1023.84876624 94.2974037627 1024.92657624Z"
           style="fill:#1a5b54;fill-opacity:1" />
        <path
           id="path4359"
           d="M232.12571 880.38599C218.39923 872.38401 185.81031 867.54946 184.28401 867.32937L42.8626537627 1008.75072624C44.3889537627 1008.97081624 76.9778737627 1013.80536624 90.7043537627 1021.80734624Z"
           style="fill:#1a5b54;fill-opacity:1" />
        <path
           id="path4361"
           d="M184.28401 867.32937L184.02262 867.40287L42.6012637627 1008.82422624L42.8626537627 1008.75072624Z"
           style="fill:#1a5b54;fill-opacity:1" />
        <path
           id="path4363"
           d="M184.02262 867.40287L183.92492 867.63127L42.5035637627 1009.05262624L42.6012637627 1008.82422624Z"
           style="fill:#1a5b54;fill-opacity:1" />
        <path
           id="path4365"
           d="M183.92492 867.63127C183.92492 867.63127 183.8019 874.39239 183.78538 875.1441L42.3640237627 1016.56545624C42.3805437627 1015.81374624 42.5035637627 1009.05262624 42.5035637627 1009.05262624Z"
           style="fill:#1a5b54;fill-opacity:1" />
        <path
           id="path4367"
           d="M183.78538 875.1441C180.45361 874.03329 156.26007 866.21853 133.57488 865.4268L-7.84647623731 1006.84815624C14.8387137627 1007.63988624 39.0322537627 1015.45464624 42.3640237627 1016.56545624Z"
           style="fill:#1a5b54;fill-opacity:1" />
        <path
           id="path4369"
           d="M133.57488 865.4268C114.34595 864.74914 88.076687 863.83439 50.955795 886.64896L-90.4655612373 1028.07031624C-53.3446692373 1005.25574624 -27.0754062373 1006.17049624 -7.84647623731 1006.84815624Z"
           style="fill:#1a5b54;fill-opacity:1" />
        <path
           id="path4371"
           d="M50.955795 886.64896L49.861485 887.33467L-91.5598712373 1028.75602624L-90.4655612373 1028.07031624Z"
           style="fill:#1a5b54;fill-opacity:1" />
        <path
           id="path4373"
           d="M49.861485 887.33467C42.6414231293 891.83961914 36.3459056686 896.777594313 30.9992217712 902.12427821L-110.422134466 1043.54563445C-105.075450569 1038.19895055 -98.779933108 1033.26097538 -91.5598712373 1028.75602624Z"
           style="fill:#1a5b54;fill-opacity:1" />
        <path
           id="path4375"
           d="M30.9992217712 902.12427821C23.4177866279 909.705713353 17.7441120578 918.108913685 14.047447 927.26455L-127.373909237 1068.68590624C-123.677244179 1059.53026992 -118.003569609 1051.12706959 -110.422134466 1043.54563445Z"
           style="fill:#1a5b54;fill-opacity:1" />
        <path
           id="path4377"
           d="M14.047447 927.26455C12.071377 932.17199 9.4095934 943.25319 12.038377 953.68037L-129.382979237 1095.10172624C-132.011762837 1084.67454624 -129.349979237 1073.59334624 -127.373909237 1068.68590624Z"
           style="fill:#1a5b54;fill-opacity:1" />
        <path
           id="path4379"
           d="M12.038377 953.68037C13.181536 958.24534 15.29649 962.81785 18.154971 966.91717L-123.266385237 1108.33852624C-126.124866237 1104.23920624 -128.239820237 1099.66669624 -129.382979237 1095.10172624Z"
           style="fill:#1a5b54;fill-opacity:1" />
        <path
           id="path4381"
           d="M18.154971 966.91717C24.597663 976.17651 35.416815 982.32611 47.069005 983.3626L-94.3523512373 1124.78395624C-106.004541237 1123.74746624 -116.823693237 1117.59786624 -123.266385237 1108.33852624Z"
           style="fill:#1a5b54;fill-opacity:1" />
        <path
           id="path4383"
           d="M47.069005 983.3626C58.0722186613 984.345637932 67.2917382511 981.363116639 73.5166551836 975.138199706L-67.9047010537 1116.55955594C-74.1296179862 1122.78447288 -83.349137576 1125.76699417 -94.3523512373 1124.78395624Z"
           style="fill:#1a5b54;fill-opacity:1" />
        <path
           id="path4385"
           d="M73.5166551836 975.138199706C76.5955086378 972.059346252 78.9417904198 968.187303361 80.408987 963.60957L-61.0123692373 1105.03092624C-62.4795658175 1109.6086596 -64.8258475995 1113.48070249 -67.9047010537 1116.55955594Z"
           style="fill:#1a5b54;fill-opacity:1" />
        <path
           id="path4387"
           d="M80.408987 963.60957C83.454547 954.06416 80.408987 940.06043 68.732109 932.91552L-72.6892472373 1074.33687624C-61.0123692373 1081.48178624 -57.9668092373 1095.48551624 -61.0123692373 1105.03092624Z"
           style="fill:#1a5b54;fill-opacity:1" />
        <path
           id="path4389"
           d="M68.732109 932.91552C59.235535 927.09332 49.012075 928.42422 43.092045 932.3357L-98.3293112373 1073.75705624C-92.4092812373 1069.84557624 -82.1858212373 1068.51467624 -72.6892472373 1074.33687624Z"
           style="fill:#1a5b54;fill-opacity:1" />
        <path
           id="path4391"
           d="M43.092045 932.3357C41.9906545378 933.066435419 40.9914572625 933.883271952 40.1017416715 934.772987543L-101.319614566 1076.19434378C-100.429898975 1075.30462819 -99.4307016995 1074.48779166 -98.3293112373 1073.75705624Z"
           style="fill:#1a5b54;fill-opacity:1" />
        <path
           id="path4393"
           d="M40.1017416715 934.772987543C36.835955091 938.038774124 35.0452454328 942.286480344 35.090065 946.86221L-106.331291237 1088.28356624C-106.376110804 1083.70783658 -104.585401146 1079.46013036 -101.319614566 1076.19434378Z"
           style="fill:#1a5b54;fill-opacity:1" />
        <path
           id="path4395"
           d="M35.090065 946.86221C35.204265 957.1752 44.096845 962.66246 50.482495 962.67077L-90.9388612373 1104.09212624C-97.3245112373 1104.08381624 -106.217091237 1098.59655624 -106.331291237 1088.28356624Z"
           style="fill:#1a5b54;fill-opacity:1" />
        <path
           id="path4397"
           d="M50.482495 962.67077C52.343715 962.67077 54.205585 962.35234 56.312355 961.66663L-85.1090012373 1103.08798624C-87.2157712373 1103.77369624 -89.0776412373 1104.09212624 -90.9388612373 1104.09212624Z"
           style="fill:#1a5b54;fill-opacity:1" />
        <path
           id="path4399"
           d="M56.312355 961.66663C57.055885 961.43758 57.765765 961.16046 58.541515 960.67833L-82.8798412373 1102.09968624C-83.6555912373 1102.58181624 -84.3654712373 1102.85893624 -85.1090012373 1103.08798624Z"
           style="fill:#1a5b54;fill-opacity:1" />
        <path
           id="path4401"
           d="M58.541515 960.67833L58.778745 960.5236L-82.6426112373 1101.94495624L-82.8798412373 1102.09968624Z"
           style="fill:#1a5b54;fill-opacity:1" />
        <path
           id="path4403"
           d="M58.778745 960.5236L58.933475 960.4336L-82.4878812373 1101.85495624L-82.6426112373 1101.94495624Z"
           style="fill:#1a5b54;fill-opacity:1" />
        <path
           id="path4405"
           d="M58.933475 960.4336L58.876475 960.4583L-82.5448812373 1101.87965624L-82.4878812373 1101.85495624Z"
           style="fill:#1a5b54;fill-opacity:1" />
        <path
           id="path4407"
           d="M58.876475 960.4583C59.1711829105 960.260675379 59.4423168284 960.037184132 59.6874015842 959.792099376L-81.7339546531 1101.21345561C-81.9790394089 1101.45854037 -82.2501733268 1101.68203162 -82.5448812373 1101.87965624Z"
           style="fill:#1a5b54;fill-opacity:1" />
        <path
           id="path4409"
           d="M59.6874015842 959.792099376C60.6578031301 958.82169783 61.219825 957.512769075 61.219825 956.13056L-80.2015312373 1097.55191624C-80.2015312373 1098.93412531 -80.7635531072 1100.24305407 -81.7339546531 1101.21345561Z"
           style="fill:#1a5b54;fill-opacity:1" />
        <path
           id="path4411"
           d="M61.219825 956.13056C61.219825 955.65675 61.146325 955.17514 61.015595 954.69314L-80.4057612373 1096.11449624C-80.2750312373 1096.59649624 -80.2015312373 1097.07810624 -80.2015312373 1097.55191624Z"
           style="fill:#1a5b54;fill-opacity:1" />
        <path
           id="path4413"
           d="M61.015595 954.69314C60.264525 952.0884 57.683815 950.50441 55.005535 950.99408L-86.4158212373 1092.41543624C-83.7375412373 1091.92576624 -81.1568312373 1093.50975624 -80.4057612373 1096.11449624Z"
           style="fill:#1a5b54;fill-opacity:1" />
        <path
           id="path4415"
           d="M55.005535 950.99408L54.646435 951.06758L-86.7749212373 1092.48893624L-86.4158212373 1092.41543624Z"
           style="fill:#1a5b54;fill-opacity:1" />
        <path
           id="path4417"
           d="M54.646435 951.06758L54.156635 951.23063L-87.2647212373 1092.65198624L-86.7749212373 1092.48893624Z"
           style="fill:#1a5b54;fill-opacity:1" />
        <path
           id="path4419"
           d="M54.156635 951.23063L53.446115 951.46786L-87.9752412373 1092.88921624L-87.2647212373 1092.65198624Z"
           style="fill:#1a5b54;fill-opacity:1" />
        <path
           id="path4421"
           d="M53.446115 951.46786C51.976335 951.83515 50.865525 951.85997 50.637135 951.8675L-90.7842212373 1093.28885624C-90.5558312373 1093.28132624 -89.4450212373 1093.25650624 -87.9752412373 1092.88921624Z"
           style="fill:#1a5b54;fill-opacity:1" />
        <path
           id="path4423"
           d="M50.637135 951.8675C49.886065 951.8186 46.202855 950.71681 46.202855 946.68281L-95.2185012373 1088.10416624C-95.2185012373 1092.13816624 -91.5352912373 1093.23995624 -90.7842212373 1093.28885624Z"
           style="fill:#1a5b54;fill-opacity:1" />
        <path
           id="path4425"
           d="M46.202855 946.68281L46.202855 946.63401L-95.2185012373 1088.05536624L-95.2185012373 1088.10416624Z"
           style="fill:#1a5b54;fill-opacity:1" />
        <path
           id="path4427"
           d="M46.202855 946.63401C46.211855 945.15591 46.807375 944.11877 47.134115 943.55544L-94.2872412373 1084.97679624C-94.6139812373 1085.54012624 -95.2095012373 1086.57726624 -95.2185012373 1088.05536624Z"
           style="fill:#1a5b54;fill-opacity:1" />
        <path
           id="path4429"
           d="M47.134115 943.55544C47.3105718111 943.276100713 47.5354036216 942.99755902 47.8052307255 942.727731916L-93.6161255118 1084.14908815C-93.8859526157 1084.41891526 -94.1107844262 1084.69745695 -94.2872412373 1084.97679624Z"
           style="fill:#1a5b54;fill-opacity:1" />
        <path
           id="path4431"
           d="M47.8052307255 942.727731916C49.2707477376 941.262214904 52.0635909678 940.053771494 55.642265 940.37086L-85.7790912373 1081.79221624C-89.3577652695 1081.47512773 -92.1506084997 1082.68357114 -93.6161255118 1084.14908815Z"
           style="fill:#1a5b54;fill-opacity:1" />
        <path
           id="path4433"
           d="M55.642265 940.37086C61.195525 940.84415 65.196515 943.69433 67.850119 949.06739L-73.5712372373 1090.48874624C-76.2248412373 1085.11568624 -80.2258312373 1082.26550624 -85.7790912373 1081.79221624Z"
           style="fill:#1a5b54;fill-opacity:1" />
        <path
           id="path4435"
           d="M67.850119 949.06739C70.316509 954.06434 69.671459 960.2051 66.192489 964.71226L-75.2288672373 1106.13361624C-71.7498972373 1101.62645624 -71.1048472373 1095.48569624 -73.5712372373 1090.48874624Z"
           style="fill:#1a5b54;fill-opacity:1" />
        <path
           id="path4437"
           d="M66.192489 964.71226C65.8589298709 965.143649778 65.5002476242 965.551045494 65.1170367964 965.934256322L-76.3043194409 1107.35561256C-75.9211086131 1106.97240173 -75.5624263664 1106.56500602 -75.2288672373 1106.13361624Z"
           style="fill:#1a5b54;fill-opacity:1" />
        <path
           id="path4439"
           d="M65.1170367964 965.934256322C61.5319050941 969.519388024 55.7998966409 970.9877249 48.407845 970.18301L-93.0135112373 1111.60436624C-85.6214595964 1112.40908114 -79.8894511432 1110.94074426 -76.3043194409 1107.35561256Z"
           style="fill:#1a5b54;fill-opacity:1" />
        <path
           id="path4441"
           d="M48.407845 970.18301C40.160445 969.27708 33.187425 964.5327 29.284138 957.14291L-112.137218237 1098.56426624C-108.233931237 1105.95405624 -101.260911237 1110.69843624 -93.0135112373 1111.60436624Z"
           style="fill:#1a5b54;fill-opacity:1" />
        <path
           id="path4443"
           d="M29.284138 957.14291C25.462696 949.92434 25.250148 941.35851 28.737308 934.77759L-112.684048237 1076.19894624C-116.171208237 1082.77986624 -115.958660237 1091.34569624 -112.137218237 1098.56426624Z"
           style="fill:#1a5b54;fill-opacity:1" />
        <path
           id="path4445"
           d="M28.737308 934.77759C30.2291093382 931.963128399 31.9573588015 929.6564897 33.8392806014 927.7745679L-107.582075636 1069.19592414C-109.463997436 1071.07784594 -111.192246899 1073.38448464 -112.684048237 1076.19894624Z"
           style="fill:#1a5b54;fill-opacity:1" />
        <path
           id="path4447"
           d="M33.8392806014 927.7745679C42.4952750463 919.118573455 54.4023407364 919.447832494 61.505775 920.67551L-79.9155812373 1062.09686624C-87.0190155009 1060.86918873 -98.926081191 1060.53992969 -107.582075636 1069.19592414Z"
           style="fill:#1a5b54;fill-opacity:1" />
        <path
           id="path4449"
           d="M61.505775 920.67551C74.309309 922.88817 85.929017 933.13579 91.097857 946.76471L-50.3234992373 1088.18606624C-55.4923392373 1074.55714624 -67.1120472373 1064.30952624 -79.9155812373 1062.09686624Z"
           style="fill:#1a5b54;fill-opacity:1" />
        <path
           id="path4451"
           d="M91.097857 946.76471C91.922577 948.93682 92.346897 950.65968 92.714177 952.22729L-48.7071792373 1093.64864624C-49.0744592373 1092.08103624 -49.4987792373 1090.35817624 -50.3234992373 1088.18606624Z"
           style="fill:#1a5b54;fill-opacity:1" />
        <path
           id="path4453"
           d="M92.714177 952.22729L93.269837 954.58714L-48.1515192373 1096.00849624L-48.7071792373 1093.64864624Z"
           style="fill:#1a5b54;fill-opacity:1" />
        <path
           id="path4455"
           d="M93.269837 954.58714L107.73037 961.65019L-33.6909862373 1103.07154624L-48.1515192373 1096.00849624Z"
           style="fill:#1a5b54;fill-opacity:1" />
        <path
           id="path4457"
           d="M107.73037 961.65019L107.92706 961.78907L-33.4942962373 1103.21042624L-33.6909862373 1103.07154624Z"
           style="fill:#1a5b54;fill-opacity:1" />
        <path
           id="path4459"
           d="M107.92706 961.78907L107.92745 961.78894L-33.4939062373 1103.21029624L-33.4942962373 1103.21042624Z"
           style="fill:#1a5b54;fill-opacity:1" />
        <path
           id="path4461"
           d="M210.71568 884.86896C210.587597243 884.987862951 210.462087456 885.108803026 210.339178008 885.231712474L68.9178217704 1026.65306871C69.0407312184 1026.53015926 69.1662410052 1026.40921919 69.2943237627 1026.29031624Z"
           style="fill:#1a5b54;fill-opacity:1" />
        <path
           id="path4463"
           d="M210.339178008 885.231712474C207.845721385 887.725169096 206.422460085 891.02914073 206.2979 894.57795L64.8765437627 1035.99930624C65.0011038479 1032.45049697 66.4243651478 1029.14652533 68.9178217704 1026.65306871Z"
           style="fill:#1a5b54;fill-opacity:1" />
        <path
           id="path4465"
           d="M206.2979 894.57795C206.04548 902.25319 212.0719 908.72056 219.74662 909.00677L78.3252637627 1050.42812624C70.6505437627 1050.14191624 64.6241237627 1043.67454624 64.8765437627 1035.99930624Z"
           style="fill:#1a5b54;fill-opacity:1" />
        <path
           id="path4467"
           d="M219.74662 909.00677C223.48687 909.12915 227.0304 907.81411 229.74935 905.26653L88.3279937627 1046.68788624C85.6090437627 1049.23546624 82.0655137627 1050.55050624 78.3252637627 1050.42812624Z"
           style="fill:#1a5b54;fill-opacity:1" />
        <path
           id="path4469"
           d="M229.74935 905.26653C229.868021666 905.155694561 229.984486445 905.043132386 230.098722417 904.928896415L88.6773661793 1046.35025265C88.5631302081 1046.46448862 88.4466654291 1046.5770508 88.3279937627 1046.68788624Z"
           style="fill:#1a5b54;fill-opacity:1" />
        <path
           id="path4471"
           d="M230.098722417 904.928896415C232.60180786 902.425810972 234.034808443 899.119110156 234.16712 895.56572L92.7457637627 1036.98707624C92.6134522059 1040.54046639 91.1804516223 1043.84716721 88.6773661793 1046.35025265Z"
           style="fill:#1a5b54;fill-opacity:1" />
        <path
           id="path4473"
           d="M234.16712 895.56572C234.42852 887.88218 228.40197 881.40662 220.71088 881.12936L79.2895237627 1022.55071624C86.9806137627 1022.82797624 93.0071637627 1029.30353624 92.7457637627 1036.98707624Z"
           style="fill:#1a5b54;fill-opacity:1" />
        <path
           id="path4475"
           d="M220.71088 881.12936C216.98714 881.00699 213.43463 882.32138 210.71568 884.86896L69.2943237627 1026.29031624C72.0132737627 1023.74273624 75.5657837627 1022.42834624 79.2895237627 1022.55071624Z"
           style="fill:#1a5b54;fill-opacity:1" />
      </g>
      <path
         inkscape:connector-curvature="0"
         d="m 107.92729,961.78889 0.35143,-0.033 0.057,-0.41614 c -0.09,-0.32674 -0.30193,-0.62036 -0.62933,-4.67085 -0.2779,-3.58485 -0.84123,-13.41571 4.10689,-18.29079 1.91955,-1.90255 4.85041,-3.59305 7.16205,-4.13988 9.48006,-2.311 21.7856,-0.71053 32.29451,11.44029 5.42256,6.27899 8.08447,9.14514 9.41536,10.42718 l 0.4568,0.42444 0.55566,0.40029 c 0.43263,0.24489 18.06175,8.36158 18.06175,8.36158 l 0.3591,-0.09 0.009,-0.38312 c -0.11419,-0.1307 -11.17005,-14.41297 -9.211,-26.17923 1.55162,-9.37406 9.01444,-8.53296 19.32807,-7.35745 3.3723,0.38378 7.21025,0.82473 11.17889,0.91476 11.0799,0.0654 23.01883,-1.96775 30.37628,-5.18533 4.76036,-2.08196 7.79775,-3.45417 9.7008,-5.18534 0.68506,-0.56333 1.04416,-1.49393 1.41208,-2.47405 l 0.25374,-0.66103 c 0.30959,-0.79237 0.75873,-2.49055 0.95543,-3.41349 0.09,-0.40795 0.13068,-0.84941 -0.15604,-1.0695 l -1.02013,0.18774 c -3.22511,1.9354 -11.30192,5.62627 -18.86243,5.77335 -9.36588,0.19539 -28.24469,-9.42356 -30.21258,-10.44433 l -0.18774,-0.22009 c -0.47445,-1.1273 -3.3076,-7.83127 -3.90392,-9.24336 13.58824,8.94909 24.85586,13.89785 33.48717,14.6654 9.6031,0.85708 17.09125,-4.38477 20.2922,-6.62289 0.62803,-0.42444 1.10249,-0.76755 1.29789,-0.84057 l 0.20423,-0.33493 c -0.53162,-3.37231 -5.55327,-19.70354 -9.34169,-23.62333 -1.05301,-1.07781 -1.89423,-2.12262 -3.59305,-3.11923 -13.72648,-8.00198 -46.3154,-12.83653 -47.8417,-13.05662 l -0.26139,0.0735 -0.0977,0.2284 c 0,0 -0.12302,6.76112 -0.13954,7.51283 -3.33177,-1.11081 -27.52531,-8.92557 -50.2105,-9.7173 -19.22893,-0.67766 -45.498193,-1.59241 -82.619085,21.22216 l -1.09431,0.68571 c -17.45789,10.89283 -29.51036,24.31738 -35.814038,39.92988 -1.97607,4.90744 -4.6378536,15.98864 -2.00907,26.41582 1.143159,4.56497 3.258113,9.13748 6.116594,13.2368 6.442692,9.25934 17.261844,15.40894 28.914034,16.44543 16.44542,1.46925 28.906364,-5.9199 33.339982,-19.75303 3.04556,-9.54541 0,-23.54914 -11.676878,-30.69405 -9.496574,-5.8222 -19.720034,-4.4913 -25.640064,-0.57982 -5.14415,3.41297 -8.05901,8.70419 -8.00198,14.52651 0.1142,10.31299 9.00678,15.80025 15.39243,15.80856 1.86122,0 3.72309,-0.31843 5.82986,-1.00414 0.74353,-0.22905 1.45341,-0.50617 2.22916,-0.9883 l 0.23723,-0.15473 0.15473,-0.09 -0.057,0.0247 c 1.46159,-0.98011 2.34335,-2.59644 2.34335,-4.32774 0,-0.47381 -0.0735,-0.95542 -0.20423,-1.43742 -0.75107,-2.60474 -3.33178,-4.18873 -6.01006,-3.69906 l -0.3591,0.0735 -0.4898,0.16305 -0.71052,0.23723 c -1.46978,0.36729 -2.58059,0.39211 -2.80898,0.39964 -0.75107,-0.0489 -4.43428,-1.15069 -4.43428,-5.18469 l 0,-0.0488 c 0.009,-1.4781 0.60452,-2.51524 0.93126,-3.07857 1.13485,-1.79652 4.27058,-3.56005 8.50815,-3.18458 5.55326,0.47329 9.55425,3.32347 12.207854,8.69653 2.46639,4.99695 1.82134,11.13771 -1.65763,15.64487 -3.454174,4.46726 -9.602464,6.36148 -17.784644,5.47075 -8.2474,-0.90593 -15.22042,-5.65031 -19.123707,-13.0401 -3.821442,-7.21857 -4.03399,-15.7844 -0.54683,-22.36532 8.353417,-15.75972 24.120657,-15.59667 32.768467,-14.10208 12.803534,2.21266 24.423242,12.46028 29.592082,26.0892 0.82472,2.17211 1.24904,3.89497 1.61632,5.46258 l 0.55566,2.35985 14.460533,7.06305 0.19669,0.13888 3.9e-4,-1.3e-4 z m 102.78839,-76.91993 c -2.72649,2.53108 -4.28708,5.98525 -4.41778,9.70899 -0.25242,7.67524 5.774,14.14261 13.44872,14.42882 3.74025,0.12238 7.28378,-1.19266 10.00273,-3.74024 2.71895,-2.53941 4.27942,-5.98525 4.41777,-9.70081 0.2614,-7.68354 -5.76515,-14.1591 -13.45624,-14.43636 -3.72374,-0.12237 -7.27625,1.19202 -9.9952,3.7396"
         style="fill:#1a5b54;fill-rule:evenodd;fill-opacity:1"
         id="path4270" />
    </g>
    <path
       id="path6"
       style="fill:#ffffff;fill-rule:evenodd;fill-opacity:1"
       d="m 107.92729,961.78889 0.35143,-0.033 0.057,-0.41614 c -0.09,-0.32674 -0.30193,-0.62036 -0.62933,-4.67085 -0.2779,-3.58485 -0.84123,-13.41571 4.10689,-18.29079 1.91955,-1.90255 4.85041,-3.59305 7.16205,-4.13988 9.48006,-2.311 21.7856,-0.71053 32.29451,11.44029 5.42256,6.27899 8.08447,9.14514 9.41536,10.42718 l 0.4568,0.42444 0.55566,0.40029 c 0.43263,0.24489 18.06175,8.36158 18.06175,8.36158 l 0.3591,-0.09 0.009,-0.38312 c -0.11419,-0.1307 -11.17005,-14.41297 -9.211,-26.17923 1.55162,-9.37406 9.01444,-8.53296 19.32807,-7.35745 3.3723,0.38378 7.21025,0.82473 11.17889,0.91476 11.0799,0.0654 23.01883,-1.96775 30.37628,-5.18533 4.76036,-2.08196 7.79775,-3.45417 9.7008,-5.18534 0.68506,-0.56333 1.04416,-1.49393 1.41208,-2.47405 l 0.25374,-0.66103 c 0.30959,-0.79237 0.75873,-2.49055 0.95543,-3.41349 0.09,-0.40795 0.13068,-0.84941 -0.15604,-1.0695 l -1.02013,0.18774 c -3.22511,1.9354 -11.30192,5.62627 -18.86243,5.77335 -9.36588,0.19539 -28.24469,-9.42356 -30.21258,-10.44433 l -0.18774,-0.22009 c -0.47445,-1.1273 -3.3076,-7.83127 -3.90392,-9.24336 13.58824,8.94909 24.85586,13.89785 33.48717,14.6654 9.6031,0.85708 17.09125,-4.38477 20.2922,-6.62289 0.62803,-0.42444 1.10249,-0.76755 1.29789,-0.84057 l 0.20423,-0.33493 c -0.53162,-3.37231 -5.55327,-19.70354 -9.34169,-23.62333 -1.05301,-1.07781 -1.89423,-2.12262 -3.59305,-3.11923 -13.72648,-8.00198 -46.3154,-12.83653 -47.8417,-13.05662 l -0.26139,0.0735 -0.0977,0.2284 c 0,0 -0.12302,6.76112 -0.13954,7.51283 -3.33177,-1.11081 -27.52531,-8.92557 -50.2105,-9.7173 -19.22893,-0.67766 -45.498193,-1.59241 -82.619085,21.22216 l -1.09431,0.68571 c -17.45789,10.89283 -29.51036,24.31738 -35.814038,39.92988 -1.97607,4.90744 -4.6378536,15.98864 -2.00907,26.41582 1.143159,4.56497 3.258113,9.13748 6.116594,13.2368 6.442692,9.25934 17.261844,15.40894 28.914034,16.44543 16.44542,1.46925 28.906364,-5.9199 33.339982,-19.75303 3.04556,-9.54541 0,-23.54914 -11.676878,-30.69405 -9.496574,-5.8222 -19.720034,-4.4913 -25.640064,-0.57982 -5.14415,3.41297 -8.05901,8.70419 -8.00198,14.52651 0.1142,10.31299 9.00678,15.80025 15.39243,15.80856 1.86122,0 3.72309,-0.31843 5.82986,-1.00414 0.74353,-0.22905 1.45341,-0.50617 2.22916,-0.9883 l 0.23723,-0.15473 0.15473,-0.09 -0.057,0.0247 c 1.46159,-0.98011 2.34335,-2.59644 2.34335,-4.32774 0,-0.47381 -0.0735,-0.95542 -0.20423,-1.43742 -0.75107,-2.60474 -3.33178,-4.18873 -6.01006,-3.69906 l -0.3591,0.0735 -0.4898,0.16305 -0.71052,0.23723 c -1.46978,0.36729 -2.58059,0.39211 -2.80898,0.39964 -0.75107,-0.0489 -4.43428,-1.15069 -4.43428,-5.18469 l 0,-0.0488 c 0.009,-1.4781 0.60452,-2.51524 0.93126,-3.07857 1.13485,-1.79652 4.27058,-3.56005 8.50815,-3.18458 5.55326,0.47329 9.55425,3.32347 12.207854,8.69653 2.46639,4.99695 1.82134,11.13771 -1.65763,15.64487 -3.454174,4.46726 -9.602464,6.36148 -17.784644,5.47075 -8.2474,-0.90593 -15.22042,-5.65031 -19.123707,-13.0401 -3.821442,-7.21857 -4.03399,-15.7844 -0.54683,-22.36532 8.353417,-15.75972 24.120657,-15.59667 32.768467,-14.10208 12.803534,2.21266 24.423242,12.46028 29.592082,26.0892 0.82472,2.17211 1.24904,3.89497 1.61632,5.46258 l 0.55566,2.35985 14.460533,7.06305 0.19669,0.13888 3.9e-4,-1.3e-4 z m 102.78839,-76.91993 c -2.72649,2.53108 -4.28708,5.98525 -4.41778,9.70899 -0.25242,7.67524 5.774,14.14261 13.44872,14.42882 3.74025,0.12238 7.28378,-1.19266 10.00273,-3.74024 2.71895,-2.53941 4.27942,-5.98525 4.41777,-9.70081 0.2614,-7.68354 -5.76515,-14.1591 -13.45624,-14.43636 -3.72374,-0.12237 -7.27625,1.19202 -9.9952,3.7396"
       inkscape:connector-curvature="0" />
  </g>
</svg>
