<?xml version="1.0" encoding="UTF-8" standalone="no"?>
<!-- Created with Inkscape (http://www.inkscape.org/) -->

<svg
   xmlns:dc="http://purl.org/dc/elements/1.1/"
   xmlns:cc="http://creativecommons.org/ns#"
   xmlns:rdf="http://www.w3.org/1999/02/22-rdf-syntax-ns#"
   xmlns:svg="http://www.w3.org/2000/svg"
   xmlns="http://www.w3.org/2000/svg"
   xmlns:sodipodi="http://sodipodi.sourceforge.net/DTD/sodipodi-0.dtd"
   xmlns:inkscape="http://www.inkscape.org/namespaces/inkscape"
   width="72.248886mm"
   height="72.248886mm"
   viewBox="0 0 256 256"
   id="svg4214"
   version="1.1"
   inkscape:version="0.91 r13725"
   sodipodi:docname="audio-input-microphone-symbolic.svg">
  <defs
     id="defs4216" />
  <sodipodi:namedview
     id="base"
     pagecolor="#ffffff"
     bordercolor="#666666"
     borderopacity="1.0"
     inkscape:pageopacity="0.0"
     inkscape:pageshadow="2"
     inkscape:zoom="3.3632814"
     inkscape:cx="128"
     inkscape:cy="128"
     inkscape:document-units="px"
     inkscape:current-layer="layer1"
     showgrid="false"
     units="mm"
     inkscape:window-width="1920"
     inkscape:window-height="1054"
     inkscape:window-x="0"
     inkscape:window-y="0"
     inkscape:window-maximized="1" />
  <metadata
     id="metadata4219">
    <rdf:RDF>
      <cc:Work
         rdf:about="">
        <dc:format>image/svg+xml</dc:format>
        <dc:type
           rdf:resource="http://purl.org/dc/dcmitype/StillImage" />
        <dc:title></dc:title>
      </cc:Work>
    </rdf:RDF>
  </metadata>
  <g
     inkscape:label="Layer 1"
     inkscape:groupmode="layer"
     id="layer1"
     transform="translate(0,-796.36216)">
    <path
       style="fill:#59af5e;fill-opacity:1;stroke:none;stroke-width:7;stroke-linecap:round;stroke-linejoin:miter;stroke-miterlimit:4;stroke-dasharray:none;stroke-opacity:1"
       d="M 128 0 A 127.99999 127.99999 0 0 0 0 128 A 127.99999 127.99999 0 0 0 128 256 A 127.99999 127.99999 0 0 0 256 128 A 127.99999 127.99999 0 0 0 128 0 z M 128 14.861328 C 150.82809 14.861328 169.20508 37.100565 169.20508 64.724609 L 169.20508 107.46484 C 169.20508 135.08889 150.82809 157.32812 128 157.32812 C 105.17191 157.32812 86.794922 135.08889 86.794922 107.46484 L 86.794922 64.724609 C 86.794922 37.100565 105.17191 14.861328 128 14.861328 z M 80.222656 84.410156 L 80.222656 117.57031 C 80.222656 145.19435 101.53073 167.43359 128 167.43359 C 154.46927 167.43359 175.77734 145.19435 175.77734 117.57031 L 175.77734 84.410156 C 183.44726 94.488136 188 107.07901 188 120.77734 L 188 135.49414 C 188 165.50823 166.18054 190.23249 137.47461 194.75 L 137.47461 231.66406 C 137.47461 236.91248 133.24842 241.13867 128 241.13867 C 122.75158 241.13867 118.52539 236.91248 118.52539 231.66406 L 118.52539 194.75 C 89.819462 190.23249 68 165.50823 68 135.49414 L 68 120.77734 C 68 107.07901 72.552732 94.488136 80.222656 84.410156 z "
       transform="translate(0,796.36216)"
       id="path4762" />
  </g>
</svg>
