<?xml version="1.0" encoding="UTF-8" standalone="no"?>
<!-- Created with Inkscape (http://www.inkscape.org/) -->

<svg
   xmlns:dc="http://purl.org/dc/elements/1.1/"
   xmlns:cc="http://creativecommons.org/ns#"
   xmlns:rdf="http://www.w3.org/1999/02/22-rdf-syntax-ns#"
   xmlns:svg="http://www.w3.org/2000/svg"
   xmlns="http://www.w3.org/2000/svg"
   xmlns:sodipodi="http://sodipodi.sourceforge.net/DTD/sodipodi-0.dtd"
   xmlns:inkscape="http://www.inkscape.org/namespaces/inkscape"
   sodipodi:docname="audio-headset.svg"
   inkscape:version="0.91 r13725"
   version="1.1"
   id="svg2"
   viewBox="0 0 256 256"
   height="256"
   width="256">
  <sodipodi:namedview
     inkscape:window-maximized="1"
     inkscape:window-y="0"
     inkscape:window-x="0"
     inkscape:window-height="1054"
     inkscape:window-width="1920"
     units="px"
     showgrid="true"
     inkscape:current-layer="layer1"
     inkscape:document-units="px"
     inkscape:cy="128"
     inkscape:cx="73.886178"
     inkscape:zoom="3.3632812"
     inkscape:pageshadow="2"
     inkscape:pageopacity="0.0"
     borderopacity="1.0"
     bordercolor="#666666"
     pagecolor="#ffffff"
     id="base" />
  <defs
     id="defs4">
    <clipPath
       id="clipPath5002"
       clipPathUnits="userSpaceOnUse">
      <g
         id="g5004">
        <path
           style="fill:#0f9d58;fill-opacity:1;stroke:none;stroke-width:4.85768509;stroke-linejoin:round;stroke-miterlimit:4;stroke-dasharray:none;stroke-opacity:1"
           d="M 88.118406,249.43519 C 46.103287,235.29134 14.771284,201.68742 4.1335861,159.36053 1.3377997,148.23623 0.92261224,144.16281 0.92582381,127.88908 0.92787958,117.47222 1.134384,112.01362 1.6577819,108.54099 4.4653598,89.913336 12.17654,70.638106 23.042737,55.086148 c 3.958678,-5.665755 8.344812,-10.93092 9.101533,-10.925587 0.32809,0.0023 10.488643,18.309713 22.579009,40.683112 12.090365,22.373397 22.374546,41.334697 22.853732,42.136217 0.479186,0.80151 0.924733,2.44098 0.990103,3.64326 0.343424,6.31639 2.524175,14.20976 5.6424,20.42304 2.954444,5.88693 5.065381,8.73258 10.434696,14.06652 6.71418,6.66995 12.88853,10.28643 21.73204,12.72904 3.16587,0.87442 5.10478,1.05037 11.57517,1.05037 8.82596,0 12.60219,-0.76201 19.26429,-3.88733 2.04584,-0.95974 3.93661,-1.66536 4.20172,-1.56805 0.2651,0.0973 -11.0555,17.66459 -25.1569,39.0384 l -25.6389,38.86148 -3.094121,0.11221 c -2.554618,0.0927 -4.195204,-0.25845 -9.409103,-2.01364 z"
           id="path5006"
           inkscape:connector-curvature="0"
           transform="translate(0,796.36216)" />
        <path
           style="fill:#f4b400;fill-opacity:1;stroke:none;stroke-width:4.85768509;stroke-linejoin:round;stroke-miterlimit:4;stroke-dasharray:none;stroke-opacity:1"
           d="m 112.35984,1051.5167 c -10.0014,-1.4495 -12.15632,-1.8201 -12.531784,-2.1556 -0.248854,-0.2223 1.738304,-3.7475 4.550294,-8.0722 7.16635,-11.0213 49.77231,-74.64801 50.25856,-75.05489 3.57509,-2.99158 8.63523,-8.0414 10.57512,-10.55356 3.36154,-4.35318 7.55784,-12.9141 9.06523,-18.494 6.19314,-22.92535 -2.59253,-47.15185 -21.69967,-59.83688 l -2.96081,-1.96565 17.02469,0.29584 c 9.36358,0.1627 31.17032,0.43384 48.45941,0.60252 l 31.43471,0.30668 1.54584,4.18869 c 2.24597,6.08579 4.67816,15.0947 5.93451,21.9816 1.52517,8.36049 1.92536,28.85896 0.73851,37.82758 -3.0805,23.27845 -12.81326,45.72018 -27.80202,64.10577 -20.47622,25.1166 -51.4599,42.1974 -84.14612,46.3885 -5.31244,0.6812 -26.64601,0.9864 -30.44647,0.4356 z"
           id="path5008"
           inkscape:connector-curvature="0" />
        <path
           style="fill:#db4437;fill-opacity:1;stroke:none;stroke-width:10;stroke-linejoin:round;stroke-miterlimit:4;stroke-dasharray:none;stroke-opacity:1"
           d="M 67.989788,108.87302 C 41.284246,59.575543 33.290284,45.149038 32.233625,44.344765 31.651257,43.901497 32.811213,42.549931 38.695603,36.815353 53.43581,22.450419 68.809334,13.040746 87.839196,6.7360352 101.68742,2.1480329 112.58238,0.43719165 127.95142,0.43719165 c 21.3099,0 37.80488,3.80960275 56.83492,13.12633035 25.29351,12.383198 46.19421,33.578863 58.51993,59.345832 1.61138,3.368591 2.92978,6.372442 2.92978,6.675231 0,0.560033 -10.54865,0.49527 -71.16508,-0.436914 l -24.28843,-0.373518 -3.93063,-1.764495 c -6.75732,-3.033425 -10.64587,-3.839529 -18.6576,-3.867747 -5.0296,-0.01773 -7.97946,0.207636 -10.31642,0.788106 -14.50826,3.603659 -26.283291,12.94777 -33.291614,26.418653 -3.58502,6.89086 -5.24713,13.08166 -6.331628,23.58317 l -0.33738,3.26696 -9.92748,-18.32578 z"
           id="path5010"
           inkscape:connector-curvature="0"
           transform="translate(0,796.36216)" />
      </g>
    </clipPath>
    <clipPath
       clipPathUnits="userSpaceOnUse"
       id="clipPath4253">
      <circle
         style="fill:#bababa;fill-opacity:1;stroke:none;stroke-width:0.1;stroke-linecap:round;stroke-linejoin:round;stroke-miterlimit:4;stroke-dasharray:none;stroke-opacity:1"
         id="circle4255"
         cx="128"
         cy="924.36218"
         r="128" />
    </clipPath>
    <clipPath
       id="clipPath4350"
       clipPathUnits="userSpaceOnUse">
      <circle
         style="fill:#7e7e7e;fill-opacity:1;stroke:none;stroke-width:0.1;stroke-linecap:round;stroke-linejoin:round;stroke-miterlimit:4;stroke-dasharray:none;stroke-opacity:1"
         id="circle4352"
         cx="128"
         cy="924.36218"
         r="128" />
    </clipPath>
    <clipPath
       clipPathUnits="userSpaceOnUse"
       id="clipPath4362">
      <circle
         style="fill:#ef7007;fill-opacity:1;stroke:none;stroke-width:0.1;stroke-linecap:round;stroke-linejoin:round;stroke-miterlimit:4;stroke-dasharray:none;stroke-opacity:1"
         id="circle4364"
         cx="195.75423"
         cy="930.83661"
         r="96.217636" />
    </clipPath>
    <clipPath
       id="clipPath4529"
       clipPathUnits="userSpaceOnUse">
      <circle
         style="fill:#ef7109;fill-opacity:1;stroke:none;stroke-width:0.1;stroke-linecap:round;stroke-linejoin:round;stroke-miterlimit:4;stroke-dasharray:none;stroke-opacity:1"
         id="circle4531"
         cx="128"
         cy="922.36218"
         r="120.88889" />
    </clipPath>
    <clipPath
       clipPathUnits="userSpaceOnUse"
       id="clipPath4706">
      <circle
         style="fill:#ef7109;fill-opacity:1;stroke:none;stroke-width:0.1;stroke-linecap:round;stroke-linejoin:round;stroke-miterlimit:4;stroke-dasharray:none;stroke-opacity:1"
         id="circle4708"
         cx="128"
         cy="922.38025"
         r="128" />
    </clipPath>
  </defs>
  <metadata
     id="metadata7">
    <rdf:RDF>
      <cc:Work
         rdf:about="">
        <dc:format>image/svg+xml</dc:format>
        <dc:type
           rdf:resource="http://purl.org/dc/dcmitype/StillImage" />
        <dc:title />
      </cc:Work>
    </rdf:RDF>
  </metadata>
  <g
     inkscape:label="Layer 1"
     inkscape:groupmode="layer"
     id="layer1"
     transform="translate(0,-796.36216)">
    <path
       style="fill:none;fill-rule:evenodd;stroke:none;stroke-width:1px;stroke-linecap:butt;stroke-linejoin:miter;stroke-opacity:1"
       d="M 154.47438,968.80998 101.03985,1048.476 0.4857685,1048.9618 0,842.0244 l 33.032258,-2.42884 45.176471,83.55218 21.373814,35.4611 26.717267,13.11575 z"
       id="path4913"
       inkscape:connector-curvature="0" />
    <circle
       r="128"
       cy="924.36218"
       cx="128"
       id="path4152"
       style="fill:#ef7109;fill-opacity:1;stroke:none;stroke-width:0.1;stroke-linecap:round;stroke-linejoin:round;stroke-miterlimit:4;stroke-dasharray:none;stroke-opacity:1" />
    <g
       id="g4277"
       transform="translate(-3.6989775e-8,1.9819044)"
       clip-path="url(#clipPath4706)"
       style="fill:#8d4305;fill-opacity:1">
      <g
         id="g4281"
         transform="matrix(1.0588235,0,0,1.0588235,-7.5294076,-72.256596)"
         style="fill:#8d4305;fill-opacity:1" />
      <g
         id="g4322"
         transform="translate(3.6989775e-8,794.38026)"
         style="fill:#8d4305;fill-opacity:1">
        <g
           id="g4324"
           style="color:#000000;font-style:normal;font-variant:normal;font-weight:normal;font-stretch:normal;font-size:medium;line-height:normal;font-family:sans-serif;text-indent:0;text-align:start;text-decoration:none;text-decoration-line:none;text-decoration-style:solid;text-decoration-color:#000000;letter-spacing:normal;word-spacing:normal;text-transform:none;direction:ltr;block-progression:tb;writing-mode:lr-tb;baseline-shift:baseline;text-anchor:start;white-space:normal;clip-rule:nonzero;display:inline;overflow:visible;visibility:visible;opacity:1;isolation:auto;mix-blend-mode:normal;color-interpolation:sRGB;color-interpolation-filters:linearRGB;solid-color:#000000;solid-opacity:1;fill:#8d4305;fill-opacity:1;fill-rule:evenodd;stroke:none;stroke-width:7;stroke-linecap:butt;stroke-linejoin:miter;stroke-miterlimit:4;stroke-dasharray:none;stroke-dashoffset:0;stroke-opacity:1;color-rendering:auto;image-rendering:auto;shape-rendering:auto;text-rendering:auto;enable-background:accumulate">
          <path
             id="path4326"
             d="M126.82812 20.025391C116.94401 20.129473 107.04367 21.83244 97.53125 25.175781L-43.8901062373 166.597137237C-34.3776862373 163.253796237 -24.4773462373 161.550829237 -14.5932362373 161.446747237Z"
             style="fill:#8d4305;fill-opacity:1" />
          <path
             id="path4328"
             d="M97.53125 25.175781C85.0595043517 29.5592460513 73.9029914625 36.7830405087 64.7153974303 45.9706345409L-76.705958807 187.391990778C-67.5183647748 178.204396746 -56.3618518856 170.980602289 -43.8901062373 166.597137237Z"
             style="fill:#8d4305;fill-opacity:1" />
          <path
             id="path4330"
             d="M64.7153974303 45.9706345409C49.2842287872 61.401803184 39.4072645622 82.3727350508 38.181641 104.73047L-103.239715237 246.151826237C-102.014091675 223.794091288 -92.1371274501 202.823159421 -76.705958807 187.391990778Z"
             style="fill:#8d4305;fill-opacity:1" />
          <path
             id="path4332"
             d="M38.181641 104.73047C37.591943 115.48759 38.287081 121.81865 42.539062 144.29883L-98.8822942373 285.720186237C-103.134275237 263.240006237 -103.829413237 256.908946237 -103.239715237 246.151826237Z"
             style="fill:#8d4305;fill-opacity:1" />
          <path
             id="path4334"
             d="M42.539062 144.29883C45.323146 159.0184 47.926523 172.48736 48.324219 174.23047L-93.0971372373 315.651826237C-93.4948332373 313.908716237 -96.0982102373 300.439756237 -98.8822942373 285.720186237Z"
             style="fill:#8d4305;fill-opacity:1" />
          <path
             id="path4336"
             d="M48.324219 174.23047C48.523969 175.10598 48.788819 175.73634 49.207031 176.20508L-92.2143252373 317.626436237C-92.6325372373 317.157696237 -92.8973872373 316.527336237 -93.0971372373 315.651826237Z"
             style="fill:#8d4305;fill-opacity:1" />
          <path
             id="path4338"
             d="M49.207031 176.20508L49.373047 177.05859L-92.0483092373 318.479946237L-92.2143252373 317.626436237Z"
             style="fill:#8d4305;fill-opacity:1" />
          <path
             id="path4340"
             d="M49.373047 177.05859L50.6875 177.05859L-90.7338562373 318.479946237L-92.0483092373 318.479946237Z"
             style="fill:#8d4305;fill-opacity:1" />
          <path
             id="path4342"
             d="M50.6875 177.05859C51.579167 177.30959 52.801015 177.40039 54.556641 177.40039L-86.8647152373 318.821746237C-88.6203412373 318.821746237 -89.8421892373 318.730946237 -90.7338562373 318.479946237Z"
             style="fill:#8d4305;fill-opacity:1" />
          <path
             id="path4344"
             d="M54.556641 177.40039L60.064453 177.40039L-81.3569032373 318.821746237L-86.8647152373 318.821746237Z"
             style="fill:#8d4305;fill-opacity:1" />
          <path
             id="path4346"
             d="M60.064453 177.40039L61.634766 185.5L-79.7865902373 326.921356237L-81.3569032373 318.821746237Z"
             style="fill:#8d4305;fill-opacity:1" />
          <path
             id="path4348"
             d="M61.634766 185.5C62.498713 189.95461 63.79769 195.02454 64.521484 196.76758L-76.8998722373 338.188936237C-77.6236662373 336.445896237 -78.9226432373 331.375966237 -79.7865902373 326.921356237Z"
             style="fill:#8d4305;fill-opacity:1" />
          <path
             id="path4350"
             d="M64.521484 196.76758C65.774239 199.78459 66.586598 199.9375 81.453125 199.9375L-59.9682312373 341.358856237C-74.8347582373 341.358856237 -75.6471172373 341.205946237 -76.8998722373 338.188936237Z"
             style="fill:#8d4305;fill-opacity:1" />
          <path
             id="path4352"
             d="M81.453125 199.9375C92.5472060004 199.9375 98.8706426224 199.882491345 101.914873883 196.838260084L-39.506482354 338.259616322C-42.5507136149 341.303847583 -48.874150237 341.358856237 -59.9682312373 341.358856237Z"
             style="fill:#8d4305;fill-opacity:1" />
          <path
             id="path4354"
             d="M101.914873883 196.838260084C105.90866375 192.844470218 104.258495867 183.705822304 100.33203 162.79688L-41.0893262373 304.218236237C-37.1628603706 325.127178542 -35.5126924878 334.265826456 -39.506482354 338.259616322Z"
             style="fill:#8d4305;fill-opacity:1" />
          <path
             id="path4356"
             d="M100.33203 162.79688C97.548595 147.97465 94.664437 133.47989 93.919922 130.58789L-47.5014342373 272.009246237C-46.7569192373 274.901246237 -43.8727612373 289.396006237 -41.0893262373 304.218236237Z"
             style="fill:#8d4305;fill-opacity:1" />
          <path
             id="path4358"
             d="M93.919922 130.58789C92.459022 124.91318 89.332962 122.4668 83.552734 122.4668L-57.8686222373 263.888156237C-52.0883942373 263.888156237 -48.9623342373 266.334536237 -47.5014342373 272.009246237Z"
             style="fill:#8d4305;fill-opacity:1" />
          <path
             id="path4360"
             d="M83.552734 122.4668C79.463201 122.4668 65.173946 127.02246 57.232422 130.85938L-84.1889342373 272.280736237C-76.2474102373 268.443816237 -61.9581552373 263.888156237 -57.8686222373 263.888156237Z"
             style="fill:#8d4305;fill-opacity:1" />
          <path
             id="path4362"
             d="M57.232422 130.85938L52.039062 133.36914L-89.3822942373 274.790496237L-84.1889342373 272.280736237Z"
             style="fill:#8d4305;fill-opacity:1" />
          <path
             id="path4364"
             d="M52.039062 133.36914L50.515625 124.63477L-90.9057312373 266.056126237L-89.3822942373 274.790496237Z"
             style="fill:#8d4305;fill-opacity:1" />
          <path
             id="path4366"
             d="M50.515625 124.63477C48.9921360083 115.886245784 48.3397348721 112.292796492 49.8155100707 110.817021294L-91.6058461666 252.238377531C-93.0816213652 253.71415273 -92.429220229 257.307602021 -90.9057312373 266.056126237Z"
             style="fill:#8d4305;fill-opacity:1" />
          <path
             id="path4368"
             d="M49.8155100707 110.817021294C50.86627155 109.766259815 52.9959188394 109.78906 56.658203 109.78906L-84.7631532373 251.210416237C-88.4254373979 251.210416237 -90.5550846873 251.187616052 -91.6058461666 252.238377531Z"
             style="fill:#8d4305;fill-opacity:1" />
          <path
             id="path4370"
             d="M56.658203 109.78906C60.9731450214 109.78906 64.3262299016 109.16894094 65.275307111 108.219863731L-76.1460491263 249.641219968C-77.0951263357 250.590297178 -80.4482112159 251.210416237 -84.7631532373 251.210416237Z"
             style="fill:#8d4305;fill-opacity:1" />
          <path
             id="path4372"
             d="M65.275307111 108.219863731C65.3380710963 108.157099746 65.3903214251 108.092897099 65.431641 108.02734L-75.9897152373 249.448696237C-76.0310348122 249.514253336 -76.083285141 249.578455983 -76.1460491263 249.641219968Z"
             style="fill:#8d4305;fill-opacity:1" />
          <path
             id="path4374"
             d="M65.431641 108.02734C66.042003 107.05895 67.672616 101.84967 69.052734 96.451172L-72.3686222373 237.872528237C-73.7487402373 243.271026237 -75.3793532373 248.480306237 -75.9897152373 249.448696237Z"
             style="fill:#8d4305;fill-opacity:1" />
          <path
             id="path4376"
             d="M69.052734 96.451172C72.010958729 84.8796240416 77.9333156217 74.857279338 85.7221178604 67.0684770994L-55.6992383769 208.489833337C-63.4880406156 216.278635575 -69.4103975083 226.300980279 -72.3686222373 237.872528237Z"
             style="fill:#8d4305;fill-opacity:1" />
          <path
             id="path4378"
             d="M85.7221178604 67.0684770994C100.2349276 52.5556673599 121.227766 45.7973944563 141.59961 51.220703L0.178253762691 192.642059237C-20.1935902377 187.218750694 -41.1864286375 193.977023597 -55.6992383769 208.489833337Z"
             style="fill:#8d4305;fill-opacity:1" />
          <path
             id="path4380"
             d="M141.59961 51.220703C164.74644 57.382759 180.8343 73.517298 186.69727 96.451172L45.2759137627 237.872528237C39.4129437627 214.938654237 23.3250837627 198.804115237 0.178253762691 192.642059237Z"
             style="fill:#8d4305;fill-opacity:1" />
          <path
             id="path4382"
             d="M186.69727 96.451172C188.07737 101.84967 189.70798 107.05895 190.31836 108.02734L48.8970037627 249.448696237C48.2866237627 248.480306237 46.6560137627 243.271026237 45.2759137627 237.872528237Z"
             style="fill:#8d4305;fill-opacity:1" />
          <path
             id="path4384"
             d="M190.31836 108.02734C190.98449 109.08421 194.49149 109.78906 199.0918 109.78906L57.6704437627 251.210416237C53.0701337627 251.210416237 49.5631337627 250.505566237 48.8970037627 249.448696237Z"
             style="fill:#8d4305;fill-opacity:1" />
          <path
             id="path4386"
             d="M199.0918 109.78906C203.36975 109.78906 205.54286 109.77195 206.36133 111.45703L64.9399737627 252.878386237C64.1215037627 251.193306237 61.9483937627 251.210416237 57.6704437627 251.210416237Z"
             style="fill:#8d4305;fill-opacity:1" />
          <path
             id="path4388"
             d="M206.36133 111.45703C206.40519 113.78132 206.38093 116.05465 206.28906 118.20508L64.8677037627 259.626436237C64.9595737627 257.476006237 64.9838337627 255.202676237 64.9399737627 252.878386237Z"
             style="fill:#8d4305;fill-opacity:1" />
          <path
             id="path4390"
             d="M206.28906 118.20508C206.02658 119.97624 205.69233 121.99374 205.23242 124.63477L63.8110637627 266.056126237C64.2709737627 263.415096237 64.6052237627 261.397596237 64.8677037627 259.626436237Z"
             style="fill:#8d4305;fill-opacity:1" />
          <path
             id="path4392"
             d="M205.23242 124.63477L203.94922 131.99805L62.5278637627 273.419406237L63.8110637627 266.056126237Z"
             style="fill:#8d4305;fill-opacity:1" />
          <path
             id="path4394"
             d="M203.94922 131.99805C204.38846 131.17529 204.77423 129.98716 205.10547 128.54688L63.6841137627 269.968236237C63.3528737627 271.408516237 62.9671037627 272.596646237 62.5278637627 273.419406237Z"
             style="fill:#8d4305;fill-opacity:1" />
          <path
             id="path4396"
             d="M205.10547 128.54688C204.609961759 130.787682589 203.983904609 132.419620486 203.24520463 133.158320465L61.823848393 274.579676702C62.5625483714 273.840976723 63.1886055216 272.209038826 63.6841137627 269.968236237Z"
             style="fill:#8d4305;fill-opacity:1" />
          <path
             id="path4398"
             d="M203.24520463 133.158320465C202.697022691 133.706502404 202.086808605 133.762780264 201.42188 133.21094L60.0005237627 274.632296237C60.6654523673 275.184136501 61.2756664541 275.127858641 61.823848393 274.579676702Z"
             style="fill:#8d4305;fill-opacity:1" />
          <path
             id="path4400"
             d="M201.42188 133.21094C200.28234 132.26521 196.37872 130.43216 192.74805 129.13672L51.3266937627 270.558076237C54.9573637627 271.853516237 58.8609837627 273.686566237 60.0005237627 274.632296237Z"
             style="fill:#8d4305;fill-opacity:1" />
          <path
             id="path4402"
             d="M192.74805 129.13672C189.11738 127.84128 185.12198 126.33223 183.86914 125.7832L42.4477837627 267.204556237C43.7006237627 267.753586237 47.6960237627 269.262636237 51.3266937627 270.558076237Z"
             style="fill:#8d4305;fill-opacity:1" />
          <path
             id="path4404"
             d="M183.86914 125.7832C183.499605564 125.621259452 183.157426785 125.64847173 182.807506963 125.998391552L41.3861507255 267.41974779C41.7360705475 267.069827968 42.0782493267 267.04261569 42.4477837627 267.204556237Z"
             style="fill:#8d4305;fill-opacity:1" />
          <path
             id="path4406"
             d="M182.807506963 125.998391552C181.989324297 126.816574218 181.128819949 129.399057465 179.77734 135.45312L38.3559837627 276.874476237C39.7074637112 270.820413702 40.5679680595 268.237930456 41.3861507255 267.41974779Z"
             style="fill:#8d4305;fill-opacity:1" />
          <path
             id="path4408"
             d="M179.77734 135.45312C179.39295 137.17506 178.9703 139.18105 178.49609 141.50391L37.0747337627 282.925266237C37.5489437627 280.602406237 37.9715937627 278.596416237 38.3559837627 276.874476237Z"
             style="fill:#8d4305;fill-opacity:1" />
          <path
             id="path4410"
             d="M178.49609 141.50391C178.96944 139.18124 179.39298 137.18225 179.77734 135.45312L38.3559837627 276.874476237C37.9716237627 278.603606237 37.5480837627 280.602596237 37.0747337627 282.925266237Z"
             style="fill:#8d4305;fill-opacity:1" />
          <path
             id="path4412"
             d="M179.77734 135.45312C181.158535368 129.239583003 182.032646362 126.593973462 182.863256827 125.763362997L41.4419005897 267.184719234C40.6112901243 268.0153297 39.7371791302 270.660939241 38.3559837627 276.874476237Z"
             style="fill:#8d4305;fill-opacity:1" />
          <path
             id="path4414"
             d="M182.863256827 125.763362997C183.211723882 125.414895942 183.552534562 125.385880482 183.91992 125.54688L42.4985637627 266.968236237C42.1311783247 266.807236719 41.7903676446 266.836252179 41.4419005897 267.184719234Z"
             style="fill:#8d4305;fill-opacity:1" />
          <path
             id="path4416"
             d="M183.91992 125.54688C185.17276 126.09591 189.16621 127.60495 192.79688 128.90039L51.3755237627 270.321746237C47.7448537627 269.026306237 43.7514037627 267.517266237 42.4985637627 266.968236237Z"
             style="fill:#8d4305;fill-opacity:1" />
          <path
             id="path4418"
             d="M192.79688 128.90039C196.42755 130.19583 200.33118 132.02888 201.4707 132.97461L60.0493437627 274.395966237C58.9098237627 273.450236237 55.0061937627 271.617186237 51.3755237627 270.321746237Z"
             style="fill:#8d4305;fill-opacity:1" />
          <path
             id="path4420"
             d="M201.4707 132.97461C202.06751 133.46991 202.62025 133.47897 203.125 133.08594L61.7036437627 274.507296237C61.1988937627 274.900326237 60.6461537627 274.891266237 60.0493437627 274.395966237Z"
             style="fill:#8d4305;fill-opacity:1" />
          <path
             id="path4422"
             d="M203.125 133.08594L198.51562 130.85938L57.0942637627 272.280736237L61.7036437627 274.507296237Z"
             style="fill:#8d4305;fill-opacity:1" />
          <path
             id="path4424"
             d="M198.51562 130.85938C190.13432 126.80997 176.19702 122.4668 171.58594 122.4668L30.1645837627 263.888156237C34.7756637627 263.888156237 48.7129637627 268.231326237 57.0942637627 272.280736237Z"
             style="fill:#8d4305;fill-opacity:1" />
          <path
             id="path4426"
             d="M171.58594 122.4668C168.922691297 122.4668 165.264091851 124.36921879 163.220521151 126.41278949L21.7991649134 267.834145728C23.8427356138 265.790575027 27.5013350599 263.888156237 30.1645837627 263.888156237Z"
             style="fill:#8d4305;fill-opacity:1" />
          <path
             id="path4428"
             d="M163.220521151 126.41278949C162.27852434 127.354786302 161.67969 128.326775172 161.67969 129.15625L20.2583337627 270.577606237C20.2583337627 269.74813141 20.8571681022 268.776142539 21.7991649134 267.834145728Z"
             style="fill:#8d4305;fill-opacity:1" />
          <path
             id="path4430"
             d="M161.67969 129.15625C161.67969 129.73805 159.14378 143.52549 156.04492 159.79297L14.6235637627 301.214326237C17.7224237627 284.946846237 20.2583337627 271.159406237 20.2583337627 270.577606237Z"
             style="fill:#8d4305;fill-opacity:1" />
          <path
             id="path4432"
             d="M156.04492 159.79297C152.94606 176.06045 150.41016 190.1929 150.41016 191.19727L8.98880376269 332.618626237C8.98880376269 331.614256237 11.5247037627 317.481806237 14.6235637627 301.214326237Z"
             style="fill:#8d4305;fill-opacity:1" />
          <path
             id="path4434"
             d="M150.41016 191.19727C150.41016 192.20162 151.96757 194.57697 153.86914 196.47852L12.4477837627 337.899876237C10.5462137627 335.998326237 8.98880376269 333.622976237 8.98880376269 332.618626237Z"
             style="fill:#8d4305;fill-opacity:1" />
          <path
             id="path4436"
             d="M153.86914 196.47852C157.14142 199.75081 158.19872 199.9375 173.61914 199.9375L32.1977837627 341.358856237C16.7773637627 341.358856237 15.7200637627 341.172166237 12.4477837627 337.899876237Z"
             style="fill:#8d4305;fill-opacity:1" />
          <path
             id="path4438"
             d="M173.61914 199.9375C174.93018 199.9375 175.93451 199.93795 177.05859 199.93945L35.6372337627 341.360806237C34.5131537627 341.359306237 33.5088237627 341.358856237 32.1977837627 341.358856237Z"
             style="fill:#8d4305;fill-opacity:1" />
          <path
             id="path4440"
             d="M177.05859 199.93945L174.94922 200.30664L33.5278637627 341.727996237L35.6372337627 341.360806237Z"
             style="fill:#8d4305;fill-opacity:1" />
          <path
             id="path4442"
             d="M174.94922 200.30664C176.770540705 210.731896502 175.514098623 216.098553557 172.377680599 219.234971581L30.9563243614 360.656327818C34.0927423857 357.519909794 35.3491844679 352.153252739 33.5278637627 341.727996237Z"
             style="fill:#8d4305;fill-opacity:1" />
          <path
             id="path4444"
             d="M172.377680599 219.234971581C172.247821497 219.364830683 172.114739625 219.490866573 171.97852 219.61328L30.5571637627 361.034636237C30.6933833882 360.912222811 30.8264652594 360.78618692 30.9563243614 360.656327818Z"
             style="fill:#8d4305;fill-opacity:1" />
          <path
             id="path4446"
             d="M171.97852 219.61328C168.87098 222.40594 162.88606 223.85559 154.10156 224.10352L12.6802037627 365.524876237C21.4647037627 365.276946237 27.4496237627 363.827296237 30.5571637627 361.034636237Z"
             style="fill:#8d4305;fill-opacity:1" />
          <path
             id="path4448"
             d="M154.10156 224.10352C152.88556 220.62628 149.59388 218.14062 145.69141 218.14062L4.27005376269 359.561976237C8.17252376269 359.561976237 11.4642037627 362.047636237 12.6802037627 365.524876237Z"
             style="fill:#8d4305;fill-opacity:1" />
          <path
             id="path4450"
             d="M145.69141 218.14062L106.14648 218.14062L-35.2748762373 359.561976237L4.27005376269 359.561976237Z"
             style="fill:#8d4305;fill-opacity:1" />
          <path
             id="path4452"
             d="M106.14648 218.14062C103.675683 218.14062 101.445705915 219.135200085 99.833426873 220.747479127L-41.5879293644 362.168835364C-39.975650322 360.556556322 -37.7456732372 359.561976237 -35.2748762373 359.561976237Z"
             style="fill:#8d4305;fill-opacity:1" />
          <path
             id="path4454"
             d="M99.833426873 220.747479127C98.2211439153 222.359762085 97.226562 224.589747 97.226562 227.06055L-44.1947942373 368.481906237C-44.1947942373 366.011103237 -43.200212322 363.781118322 -41.5879293644 362.168835364Z"
             style="fill:#8d4305;fill-opacity:1" />
          <path
             id="path4456"
             d="M97.226562 227.06055C97.226562 232.00215 101.20488 235.98047 106.14648 235.98047L-35.2748762373 377.401826237C-40.2164762373 377.401826237 -44.1947942373 373.423506237 -44.1947942373 368.481906237Z"
             style="fill:#8d4305;fill-opacity:1" />
          <path
             id="path4458"
             d="M106.14648 235.98047L145.69141 235.98047L4.27005376269 377.401826237L-35.2748762373 377.401826237Z"
             style="fill:#8d4305;fill-opacity:1" />
          <path
             id="path4460"
             d="M145.69141 235.98047C148.15893383 235.98047 150.382802703 234.986369667 151.992559471 233.376612899L10.5712032337 374.797969136C8.96144646542 376.407725904 6.73757759295 377.401826237 4.27005376269 377.401826237Z"
             style="fill:#8d4305;fill-opacity:1" />
          <path
             id="path4462"
             d="M151.992559471 233.376612899C152.650238195 232.718934175 153.205409636 231.958490388 153.63281 231.12109L12.2114537627 372.542446237C11.7840533991 373.379846625 11.228881958 374.140290412 10.5712032337 374.797969136Z"
             style="fill:#8d4305;fill-opacity:1" />
          <path
             id="path4464"
             d="M153.63281 231.12109C163.43792 230.95563 171.28421 229.64782 176.6582 224.81836L35.2368437627 366.239716237C29.8628537627 371.069176237 22.0165637627 372.376986237 12.2114537627 372.542446237Z"
             style="fill:#8d4305;fill-opacity:1" />
          <path
             id="path4466"
             d="M176.6582 224.81836C176.878435034 224.620444501 177.092414334 224.417600395 177.30018081 224.209833919L35.8788245728 365.631190156C35.6710580968 365.838956632 35.4570787972 366.041800738 35.2368437627 366.239716237Z"
             style="fill:#8d4305;fill-opacity:1" />
          <path
             id="path4468"
             d="M177.30018081 224.209833919C182.430597325 219.079417403 183.772722855 210.94756869 181.97266 199.9082L40.5513037627 341.329556237C42.3513666178 352.368924927 41.0092410879 360.500773641 35.8788245728 365.631190156Z"
             style="fill:#8d4305;fill-opacity:1" />
          <path
             id="path4470"
             d="M181.97266 199.9082C186.42906107 199.804032761 188.847041212 199.393864114 190.372397045 197.868508282L48.9510408073 339.289864519C47.4256849747 340.815220352 45.007704833 341.225388998 40.5513037627 341.329556237Z"
             style="fill:#8d4305;fill-opacity:1" />
          <path
             id="path4472"
             d="M190.372397045 197.868508282C192.264502857 195.976402469 192.783144875 192.36837966 194.11523 185.5L52.6938737627 326.921356237C51.361788638 333.789735897 50.8431466198 337.397758706 48.9510408073 339.289864519Z"
             style="fill:#8d4305;fill-opacity:1" />
          <path
             id="path4474"
             d="M194.11523 185.5L195.62891 177.69531L54.2075537627 319.116666237L52.6938737627 326.921356237Z"
             style="fill:#8d4305;fill-opacity:1" />
          <path
             id="path4476"
             d="M195.62891 177.69531L199.63086 177.40039L58.2095037627 318.821746237L54.2075537627 319.116666237Z"
             style="fill:#8d4305;fill-opacity:1" />
          <path
             id="path4478"
             d="M199.63086 177.40039L201.19336 177.40039L59.7720037627 318.821746237L58.2095037627 318.821746237Z"
             style="fill:#8d4305;fill-opacity:1" />
          <path
             id="path4480"
             d="M201.19336 177.40039C203.10438 177.40039 204.38829 177.29332 205.29492 176.98438L63.8735637627 318.405736237C62.9669337627 318.714676237 61.6830237627 318.821746237 59.7720037627 318.821746237Z"
             style="fill:#8d4305;fill-opacity:1" />
          <path
             id="path4482"
             d="M205.29492 176.98438L206.24219 176.91406L64.8208337627 318.335416237L63.8735637627 318.405736237Z"
             style="fill:#8d4305;fill-opacity:1" />
          <path
             id="path4484"
             d="M206.24219 176.91406L209.88086 157.61914L68.4595037627 299.040496237L64.8208337627 318.335416237Z"
             style="fill:#8d4305;fill-opacity:1" />
          <path
             id="path4486"
             d="M209.88086 157.61914C217.20076 118.78977 218.14125 111.76811 217.18555 103.10938L75.7641937627 244.530736237C76.7198937627 253.189466237 75.7794037627 260.211126237 68.4595037627 299.040496237Z"
             style="fill:#8d4305;fill-opacity:1" />
          <path
             id="path4488"
             d="M217.18555 103.10938C214.64519 80.093602 206.48133 62.555633 191.23047 47.351562L49.8091137627 188.772918237C65.0599737627 203.976989237 73.2238337627 221.514958237 75.7641937627 244.530736237Z"
             style="fill:#8d4305;fill-opacity:1" />
          <path
             id="path4490"
             d="M191.23047 47.351562C172.6728 28.850814 152.56905 20.418292 128.04883 20.851562L-13.3725262373 162.272918237C11.1476937627 161.839648237 31.2514437627 170.272170237 49.8091137627 188.772918237Z"
             style="fill:#8d4305;fill-opacity:1" />
          <path
             id="path4492"
             d="M128.04883 20.851562C112.74015 21.122071 100.5246 23.676309 90.527344 28.695312L-50.8940122373 170.116668237C-40.8967562373 165.097665237 -28.6812062373 162.543427237 -13.3725262373 162.272918237Z"
             style="fill:#8d4305;fill-opacity:1" />
          <path
             id="path4494"
             d="M90.527344 28.695312C80.3358851941 33.8118283307 71.46471203 40.1876899473 64.0713084645 47.5810935129L-77.3500477729 189.00244975C-69.9566442073 181.609046185 -61.0854710433 175.233184568 -50.8940122373 170.116668237Z"
             style="fill:#8d4305;fill-opacity:1" />
          <path
             id="path4496"
             d="M64.0713084645 47.5810935129C52.212879467 59.4395225104 44.156101229 73.9156390873 40.550781 90.011719L-100.870575237 231.433075237C-97.2652550083 215.336995325 -89.2084767703 200.860878748 -77.3500477729 189.00244975Z"
             style="fill:#8d4305;fill-opacity:1" />
          <path
             id="path4498"
             d="M40.550781 90.011719C44.1302357725 73.8207343043 52.2071990591 59.2606764942 64.123689802 47.3441857512L-77.2976664353 188.765541989C-89.2141571782 200.682032731 -97.2911204648 215.242090542 -100.870575237 231.433075237Z"
             style="fill:#8d4305;fill-opacity:1" />
          <path
             id="path4500"
             d="M64.123689802 47.3441857512C71.515996477 39.9518790763 80.3858490101 33.5768828948 90.576172 28.460938L-50.8451842373 169.882294237C-61.0355072273 174.998239132 -69.9053597603 181.373235314 -77.2976664353 188.765541989Z"
             style="fill:#8d4305;fill-opacity:1" />
          <path
             id="path4502"
             d="M90.576172 28.460938C100.57342 23.441934 112.79092 20.887696 128.09961 20.617188L-13.3217462373 162.038544237C-28.6304362373 162.309052237 -40.8479362373 164.863290237 -50.8451842373 169.882294237Z"
             style="fill:#8d4305;fill-opacity:1" />
          <path
             id="path4504"
             d="M128.09961 20.617188C152.61983 20.183917 172.72163 28.614485 191.2793 47.115234L49.8579437627 188.536590237C31.3002737627 170.035841237 11.1984737627 161.605273237 -13.3217462373 162.038544237Z"
             style="fill:#8d4305;fill-opacity:1" />
          <path
             id="path4506"
             d="M191.2793 47.115234C206.53015 62.319294 214.69401 79.857273 217.23438 102.87305L75.8130237627 244.294406237C73.2726537627 221.278629237 65.1087937627 203.740650237 49.8579437627 188.536590237Z"
             style="fill:#8d4305;fill-opacity:1" />
          <path
             id="path4508"
             d="M217.23438 102.87305C218.19007 111.53178 217.2474 118.55345 209.92773 157.38281L68.5063737627 298.804166237C75.8260437627 259.974806237 76.7687137627 252.953136237 75.8130237627 244.294406237Z"
             style="fill:#8d4305;fill-opacity:1" />
          <path
             id="path4510"
             d="M209.92773 157.38281L206.33789 176.42383L64.9165337627 317.845186237L68.5063737627 298.804166237Z"
             style="fill:#8d4305;fill-opacity:1" />
          <path
             id="path4512"
             d="M206.33789 176.42383C206.380861893 176.386306882 206.422405908 176.347473896 206.462595898 176.307283906L65.0412396607 317.728640143C65.001049671 317.768830133 64.9595056561 317.80766312 64.9165337627 317.845186237Z"
             style="fill:#8d4305;fill-opacity:1" />
          <path
             id="path4514"
             d="M206.462595898 176.307283906C206.938502324 175.83137748 207.22454849 175.165193228 207.44336 174.23047L66.0220037627 315.651826237C65.8031922531 316.586549465 65.5171460869 317.252733717 65.0412396607 317.728640143Z"
             style="fill:#8d4305;fill-opacity:1" />
          <path
             id="path4516"
             d="M207.44336 174.23047C211.3432 157.57076 218.01944 116.69573 218.0 109.5957L76.5786437627 251.017056237C76.5980837627 258.117086237 69.9218437627 298.992116237 66.0220037627 315.651826237Z"
             style="fill:#8d4305;fill-opacity:1" />
          <path
             id="path4518"
             d="M218.0 109.5957C217.91731 79.287272 200.0183 47.828112 174.22656 32.652344L32.8052037627 174.073700237C58.5969437627 189.249468237 76.4959537627 220.708628237 76.5786437627 251.017056237Z"
             style="fill:#8d4305;fill-opacity:1" />
          <path
             id="path4520"
             d="M174.22656 32.652344C159.72749 24.121149 143.30164 19.851871 126.82812 20.025391L-14.5932362373 161.446747237C1.88028376269 161.273227237 18.3061337627 165.542505237 32.8052037627 174.073700237Z"
             style="fill:#8d4305;fill-opacity:1" />
          <path
             id="path4522"
             d="M50.550781 94.230469C48.255721 105.08287 48.15974 116.52359 50.445312 127.9043L-90.9760442373 269.325656237C-93.2616162373 257.944946237 -93.1656352373 246.504226237 -90.8705752373 235.651825237Z"
             style="fill:#8d4305;fill-opacity:1" />
          <path
             id="path4524"
             d="M50.445312 127.9043L52.03125 135.79883L-89.3901062373 277.220186237L-90.9760442373 269.325656237Z"
             style="fill:#8d4305;fill-opacity:1" />
          <path
             id="path4526"
             d="M52.03125 135.79883L55.728516 133.13477L-85.6928402373 274.556126237L-89.3901062373 277.220186237Z"
             style="fill:#8d4305;fill-opacity:1" />
          <path
             id="path4528"
             d="M55.728516 133.13477C60.215407 129.90277 74.21189 124.33777 74.21875 125.7832L-67.2026062373 267.204556237C-67.2094662373 265.759126237 -81.2059492373 271.324126237 -85.6928402373 274.556126237Z"
             style="fill:#8d4305;fill-opacity:1" />
          <path
             id="path4530"
             d="M74.21875 125.7832C74.224362 126.93269 86.448045 191.1678 87.617188 196.19141L-53.8041682373 337.612766237C-54.9733112373 332.589156237 -67.1969942373 268.354046237 -67.2026062373 267.204556237Z"
             style="fill:#8d4305;fill-opacity:1" />
          <path
             id="path4532"
             d="M87.617188 196.19141C87.812531 197.03075 87.920575 197.64178 87.783203 198.0957L-53.6381532373 339.517056237C-53.5007812373 339.063136237 -53.6088252373 338.452106237 -53.8041682373 337.612766237Z"
             style="fill:#8d4305;fill-opacity:1" />
          <path
             id="path4534"
             d="M87.783203 198.0957C87.831989 197.67005 87.731717 197.12964 87.568359 196.42773L-53.8529972373 337.849086237C-53.6896392373 338.550996237 -53.5893672373 339.091406237 -53.6381532373 339.517056237Z"
             style="fill:#8d4305;fill-opacity:1" />
          <path
             id="path4536"
             d="M87.568359 196.42773C86.399217 191.40406 74.175534 127.16902 74.169922 126.01953L-67.2514342373 267.440886237C-67.2458222373 268.590376237 -55.0221392373 332.825416237 -53.8529972373 337.849086237Z"
             style="fill:#8d4305;fill-opacity:1" />
          <path
             id="path4538"
             d="M74.169922 126.01953C74.163062 124.5741 60.166579 130.1391 55.679688 133.37109L-85.7416682373 274.792446237C-81.2547772373 271.560456237 -67.2582942373 265.995456237 -67.2514342373 267.440886237Z"
             style="fill:#8d4305;fill-opacity:1" />
          <path
             id="path4540"
             d="M55.679688 133.37109L51.982422 136.0332L-89.4389342373 277.454556237L-85.7416682373 274.792446237Z"
             style="fill:#8d4305;fill-opacity:1" />
          <path
             id="path4542"
             d="M51.982422 136.0332L50.396484 128.14062L-91.0248722373 269.561976237L-89.4389342373 277.454556237Z"
             style="fill:#8d4305;fill-opacity:1" />
          <path
             id="path4544"
             d="M50.396484 128.14062C48.094468 116.67804 48.207337 105.15238 50.550781 94.230469L-90.8705752373 235.651825237C-93.2140192373 246.573736237 -93.3268882373 258.099396237 -91.0248722373 269.561976237Z"
             style="fill:#8d4305;fill-opacity:1" />
          <path
             id="path4546"
             d="M205.45117 126.82812C205.42472 126.98402 205.39468 127.12183 205.36719 127.27344L63.9458337627 268.694796237C63.9733237627 268.543186237 64.0033637627 268.405376237 64.0298137627 268.249476237Z"
             style="fill:#8d4305;fill-opacity:1" />
          <path
             id="path4548"
             d="M205.36719 127.27344C205.39524 127.12461 205.42416 126.98131 205.45117 126.82812L64.0298137627 268.249476237C64.0028037627 268.402666237 63.9738837627 268.545966237 63.9458337627 268.694796237Z"
             style="fill:#8d4305;fill-opacity:1" />
          <path
             id="path4550"
             d="M194.71094 177.76367L194.71484 177.76367L53.2934837627 319.185026237L53.2895837627 319.185026237Z"
             style="fill:#8d4305;fill-opacity:1" />
          <path
             id="path4552"
             d="M194.71484 177.76367L192.94336 186.53906L51.5220037627 327.960416237L53.2934837627 319.185026237Z"
             style="fill:#8d4305;fill-opacity:1" />
          <path
             id="path4554"
             d="M192.94336 186.53906C192.93922 186.55961 192.93385 186.57907 192.92969 186.59961L51.5083337627 328.020966237C51.5124937627 328.000426237 51.5178637627 327.980966237 51.5220037627 327.960416237Z"
             style="fill:#8d4305;fill-opacity:1" />
          <path
             id="path4556"
             d="M192.92969 186.59961L194.71094 177.76367L53.2895837627 319.185026237L51.5083337627 328.020966237Z"
             style="fill:#8d4305;fill-opacity:1" />
        </g>
        <path
           id="path4279"
           transform=""
           d="M 126.82812 20.025391 C 116.94401 20.129473 107.04367 21.83244 97.53125 25.175781 C 64.112387 36.921564 40.136991 69.061119 38.181641 104.73047 C 37.591943 115.48759 38.287081 121.81865 42.539062 144.29883 C 45.323146 159.0184 47.926523 172.48736 48.324219 174.23047 C 48.523969 175.10598 48.788819 175.73634 49.207031 176.20508 L 49.373047 177.05859 L 50.6875 177.05859 C 51.579167 177.30959 52.801015 177.40039 54.556641 177.40039 L 60.064453 177.40039 L 61.634766 185.5 C 62.498713 189.95461 63.79769 195.02454 64.521484 196.76758 C 65.774239 199.78459 66.586598 199.9375 81.453125 199.9375 C 107.10176 199.9375 107.25141 199.64348 100.33203 162.79688 C 97.548595 147.97465 94.664437 133.47989 93.919922 130.58789 C 92.459022 124.91318 89.332962 122.4668 83.552734 122.4668 C 79.463201 122.4668 65.173946 127.02246 57.232422 130.85938 L 52.039062 133.36914 L 50.515625 124.63477 C 47.907402 109.65724 47.852308 109.78906 56.658203 109.78906 C 61.258499 109.78906 64.765513 109.08421 65.431641 108.02734 C 66.042003 107.05895 67.672616 101.84967 69.052734 96.451172 C 77.522994 63.318456 110.29451 42.886788 141.59961 51.220703 C 164.74644 57.382759 180.8343 73.517298 186.69727 96.451172 C 188.07737 101.84967 189.70798 107.05895 190.31836 108.02734 C 190.98449 109.08421 194.49149 109.78906 199.0918 109.78906 C 203.36975 109.78906 205.54286 109.77195 206.36133 111.45703 C 206.40519 113.78132 206.38093 116.05465 206.28906 118.20508 C 206.02658 119.97624 205.69233 121.99374 205.23242 124.63477 L 203.94922 131.99805 C 204.38846 131.17529 204.77423 129.98716 205.10547 128.54688 C 204.24225 132.45056 202.98283 134.50641 201.42188 133.21094 C 200.28234 132.26521 196.37872 130.43216 192.74805 129.13672 C 189.11738 127.84128 185.12198 126.33223 183.86914 125.7832 C 182.63556 125.24261 181.70682 126.80986 179.77734 135.45312 C 179.39295 137.17506 178.9703 139.18105 178.49609 141.50391 C 178.96944 139.18124 179.39298 137.18225 179.77734 135.45312 C 181.73799 126.63281 182.67683 125.00212 183.91992 125.54688 C 185.17276 126.09591 189.16621 127.60495 192.79688 128.90039 C 196.42755 130.19583 200.33118 132.02888 201.4707 132.97461 C 202.06751 133.46991 202.62025 133.47897 203.125 133.08594 L 198.51562 130.85938 C 190.13432 126.80997 176.19702 122.4668 171.58594 122.4668 C 167.69505 122.4668 161.67969 126.52731 161.67969 129.15625 C 161.67969 129.73805 159.14378 143.52549 156.04492 159.79297 C 152.94606 176.06045 150.41016 190.1929 150.41016 191.19727 C 150.41016 192.20162 151.96757 194.57697 153.86914 196.47852 C 157.14142 199.75081 158.19872 199.9375 173.61914 199.9375 C 174.93018 199.9375 175.93451 199.93795 177.05859 199.93945 L 174.94922 200.30664 C 176.84595 211.16354 175.40478 216.53428 171.97852 219.61328 C 168.87098 222.40594 162.88606 223.85559 154.10156 224.10352 C 152.88556 220.62628 149.59388 218.14062 145.69141 218.14062 L 106.14648 218.14062 C 101.20488 218.14062 97.226562 222.11895 97.226562 227.06055 C 97.226562 232.00215 101.20488 235.98047 106.14648 235.98047 L 145.69141 235.98047 C 149.16706 235.98047 152.15929 234.00814 153.63281 231.12109 C 163.43792 230.95563 171.28421 229.64782 176.6582 224.81836 C 182.31674 219.73328 183.84562 211.39463 181.97266 199.9082 C 191.95694 199.67482 191.70926 197.90545 194.11523 185.5 L 195.62891 177.69531 L 199.63086 177.40039 L 201.19336 177.40039 C 203.10438 177.40039 204.38829 177.29332 205.29492 176.98438 L 206.24219 176.91406 L 209.88086 157.61914 C 217.20076 118.78977 218.14125 111.76811 217.18555 103.10938 C 214.64519 80.093602 206.48133 62.555633 191.23047 47.351562 C 172.6728 28.850814 152.56905 20.418292 128.04883 20.851562 C 112.74015 21.122071 100.5246 23.676309 90.527344 28.695312 C 63.989599 42.018312 46.403919 63.880177 40.550781 90.011719 C 46.350724 63.776777 63.958921 41.82385 90.576172 28.460938 C 100.57342 23.441934 112.79092 20.887696 128.09961 20.617188 C 152.61983 20.183917 172.72163 28.614485 191.2793 47.115234 C 206.53015 62.319294 214.69401 79.857273 217.23438 102.87305 C 218.19007 111.53178 217.2474 118.55345 209.92773 157.38281 L 206.33789 176.42383 C 206.88971 175.94198 207.20607 175.24413 207.44336 174.23047 C 211.3432 157.57076 218.01944 116.69573 218 109.5957 C 217.91731 79.287272 200.0183 47.828112 174.22656 32.652344 C 159.72749 24.121149 143.30164 19.851871 126.82812 20.025391 z M 50.550781 94.230469 C 48.255721 105.08287 48.15974 116.52359 50.445312 127.9043 L 52.03125 135.79883 L 55.728516 133.13477 C 60.215407 129.90277 74.21189 124.33777 74.21875 125.7832 C 74.224362 126.93269 86.448045 191.1678 87.617188 196.19141 C 87.812531 197.03075 87.920575 197.64178 87.783203 198.0957 C 87.831989 197.67005 87.731717 197.12964 87.568359 196.42773 C 86.399217 191.40406 74.175534 127.16902 74.169922 126.01953 C 74.163062 124.5741 60.166579 130.1391 55.679688 133.37109 L 51.982422 136.0332 L 50.396484 128.14062 C 48.094468 116.67804 48.207337 105.15238 50.550781 94.230469 z M 205.45117 126.82812 C 205.42472 126.98402 205.39468 127.12183 205.36719 127.27344 C 205.39524 127.12461 205.42416 126.98131 205.45117 126.82812 z M 194.71094 177.76367 L 194.71484 177.76367 L 192.94336 186.53906 C 192.93922 186.55961 192.93385 186.57907 192.92969 186.59961 L 194.71094 177.76367 z "
           style="color:#000000;font-style:normal;font-variant:normal;font-weight:normal;font-stretch:normal;font-size:medium;line-height:normal;font-family:sans-serif;text-indent:0;text-align:start;text-decoration:none;text-decoration-line:none;text-decoration-style:solid;text-decoration-color:#000000;letter-spacing:normal;word-spacing:normal;text-transform:none;direction:ltr;block-progression:tb;writing-mode:lr-tb;baseline-shift:baseline;text-anchor:start;white-space:normal;clip-rule:nonzero;display:inline;overflow:visible;visibility:visible;opacity:1;isolation:auto;mix-blend-mode:normal;color-interpolation:sRGB;color-interpolation-filters:linearRGB;solid-color:#000000;solid-opacity:1;fill:#8d4305;fill-opacity:1;fill-rule:evenodd;stroke:none;stroke-width:7;stroke-linecap:butt;stroke-linejoin:miter;stroke-miterlimit:4;stroke-dasharray:none;stroke-dashoffset:0;stroke-opacity:1;color-rendering:auto;image-rendering:auto;shape-rendering:auto;text-rendering:auto;enable-background:accumulate" />
      </g>
    </g>
    <g
       transform="translate(-3.6989775e-8,1.9819044)"
       id="g4258">
      <path
         style="fill:none;fill-rule:evenodd;stroke:#ffffff;stroke-width:7;stroke-linecap:butt;stroke-linejoin:miter;stroke-miterlimit:4;stroke-dasharray:none;stroke-opacity:1"
         d="m 178.39722,994.08574 c 3.97695,22.76406 -5.836,27.94886 -27.05692,27.94886"
         id="path4247"
         inkscape:connector-curvature="0" />
      <g
         transform="matrix(1.0588235,0,0,1.0588235,-7.5294076,-72.256596)"
         id="g4195">
        <path
           style="fill:#c0c0c0;fill-opacity:1"
           d="m 126.89309,837.40339 c -9.335,0.0983 -18.68509,1.70637 -27.669044,4.86397 -31.56226,11.09324 -54.205885,41.44664 -56.052605,75.13436 -0.556937,10.1595 0.09991,16.13971 4.11567,37.37099 2.629412,13.90182 5.08857,26.62298 5.464172,28.26925 0.207463,0.90932 0.479353,1.5484 0.94837,2.00068 l -5.14459,-26.49202 c -3.596846,-18.51819 -5.19904,-30.26564 -5.123797,-37.58147 0.333297,-32.40479 18.373958,-60.11134 49.224337,-75.59945 9.441847,-4.74017 20.979677,-7.15221 35.437887,-7.40769 23.15799,-0.4092 42.14273,7.55367 59.66942,25.0266 14.40358,14.35939 22.1155,30.92215 24.51473,52.65927 0.9026,8.17769 0.012,14.81007 -6.90102,51.48225 l -3.39076,17.98265 c 0.52116,-0.45508 0.82041,-1.11347 1.04452,-2.07082 3.68318,-15.73417 9.98794,-54.33832 9.96958,-61.0439 -0.0781,-28.62463 -16.98231,-58.33592 -41.34117,-72.66859 -13.69357,-8.05724 -29.20738,-12.08996 -44.7657,-11.92608 z m -0.46769,10.62435 c -21.37974,0.1379 -37.852128,7.51177 -53.030824,23.73785 -16.699181,17.8515 -23.597289,42.83993 -18.640021,67.524 l 1.496607,7.45446 3.492083,-2.51514 c 4.23762,-3.05244 17.456531,-8.30772 17.46301,-6.94259 0.0053,1.08563 11.549417,61.75056 12.653607,66.49508 0.674231,2.897 0.380457,2.9932 -9.143338,2.9932 -6.973737,0 -10.305384,-0.5606 -11.440211,-1.9279 -0.88067,-1.0612 -2.273659,-5.85028 -3.094545,-10.64254 l -1.491405,-8.71462 -5.451189,0 -4.884752,0 c 0.863615,0.4167 2.174803,0.54563 4.281959,0.54563 l 5.201741,0 1.48361,7.64933 c 0.81595,4.20713 2.04201,8.9963 2.725594,10.6425 1.183157,2.8494 1.951788,2.9933 15.992397,2.9933 24.223707,0 24.364337,-0.2772 17.829367,-35.07677 -2.628801,-13.99877 -5.353424,-27.68929 -6.056577,-30.42062 -1.379739,-5.35945 -4.331207,-7.67011 -9.790311,-7.67011 -3.862337,0 -17.357383,4.30359 -24.857712,7.92734 l -4.905532,2.36963 -1.439444,-8.24952 c -2.463322,-14.14544 -2.514739,-14.02031 5.80194,-14.02031 4.344724,0 7.656788,-0.66475 8.285909,-1.6629 0.576453,-0.91459 2.115883,-5.83496 3.419328,-10.93354 7.99969,-31.29201 38.950619,-50.58917 68.516549,-42.71825 21.8609,5.81972 37.05628,21.05848 42.59353,42.71825 1.30343,5.09858 2.84287,10.01895 3.41934,10.93354 0.62912,0.99815 3.94117,1.6629 8.2859,1.6629 4.1136,0 6.1743,-0.0255 6.91401,1.6551 -0.0931,-5.79146 -0.64348,-11.93673 -1.76163,-17.21358 -2.94925,-13.91826 -9.33074,-25.52591 -19.98854,-36.36286 -15.14292,-15.39746 -32.04338,-22.37171 -53.88045,-22.23086 z m 75.56307,81.79373 c -0.25303,1.73794 -0.58811,3.74297 -1.04711,6.37878 l -1.2108,6.95557 c 1.20618,-2.25933 2.00502,-7.28211 2.25791,-13.33435 z m -32.82402,4.33133 c -3.67473,0 -9.35639,3.83611 -9.35639,6.319 0,0.54948 -2.39457,13.57068 -5.32127,28.93441 -2.9267,15.36373 -5.32127,28.71076 -5.32127,29.65933 0,0.94856 1.47009,3.19276 3.26602,4.98866 3.09049,3.0905 4.0893,3.2661 18.65303,3.2661 17.56682,0 16.57737,0.6971 19.35716,-13.6358 l 1.47322,-7.59216 -0.86263,0.0624 -1.71746,8.51194 c -0.94358,4.68067 -2.38738,9.32002 -3.20887,10.30992 -1.01068,1.2178 -4.69679,1.798 -11.39864,1.798 -8.78845,0 -9.831,-0.2623 -9.26544,-2.328 0.35056,-1.2804 3.46228,-17.17623 6.9166,-35.32616 5.44194,-28.59349 6.56993,-32.87443 8.43401,-32.05754 1.18324,0.51853 4.95567,1.94383 8.38463,3.1673 3.42897,1.22347 7.11615,2.95486 8.19237,3.84805 0.56365,0.46778 1.08485,0.4751 1.56156,0.1039 l -4.35211,-2.10201 c -7.91568,-3.82444 -21.07961,-7.92735 -25.43452,-7.92735 z m 32.43947,51.22501 -5.10821,0.37676 -3.81687,0.2806 4.44825,0 c 2.2727,0 3.61663,-0.15528 4.47683,-0.65736 z"
           id="path4191"
           inkscape:connector-curvature="0" />
        <path
           style="fill:#ffffff;fill-opacity:1"
           d="m 69.229592,1005.0686 c -0.880683,-1.0611 -2.272861,-5.85026 -3.093733,-10.64252 l -1.49251,-8.71318 -5.451481,0 -5.451481,0 -5.232431,-26.93892 c -3.596859,-18.51819 -5.198228,-30.26564 -5.122985,-37.58147 0.333284,-32.40479 18.374676,-60.11333 49.225069,-75.60145 9.44185,-4.74017 20.97844,-7.15158 35.43664,-7.40706 23.15799,-0.4092 42.14372,7.55368 59.67041,25.02661 14.40359,14.3594 22.11412,30.92351 24.51335,52.66063 0.90261,8.17769 0.014,14.80871 -6.89924,51.48089 l -3.43527,18.22297 -5.4455,0.40147 -5.44553,0.40149 -1.71557,8.51028 c -0.94358,4.68066 -2.38771,9.32016 -3.20919,10.30996 -1.01069,1.2178 -4.69589,1.7997 -11.39774,1.7997 -8.78845,0 -9.83233,-0.2623 -9.26678,-2.3281 0.35057,-1.2804 3.46363,-17.17798 6.91795,-35.32791 5.44194,-28.59348 6.56784,-32.87398 8.43192,-32.05708 1.18324,0.51853 4.95687,1.9438 8.38583,3.16727 3.42897,1.22347 7.11503,2.95527 8.19126,3.84846 4.44972,3.69295 6.37179,-21.09505 2.90451,-37.45808 -2.94925,-13.91826 -9.32933,-25.5255 -19.98713,-36.36245 -15.14293,-15.39746 -32.04454,-22.37045 -53.88161,-22.22959 -21.37973,0.1379 -37.85156,7.51087 -53.030255,23.73696 -16.699208,17.8515 -23.597263,42.83998 -18.639995,67.52405 l 1.497193,7.45507 3.491497,-2.51499 c 4.23762,-3.05244 17.457995,-8.30843 17.464474,-6.9433 0.0053,1.08563 11.548419,61.75191 12.652609,66.49649 0.674231,2.897 0.380577,2.9932 -9.143219,2.9932 -6.973736,0 -10.306235,-0.562 -11.441062,-1.9294 z"
           id="path4193"
           inkscape:connector-curvature="0" />
      </g>
      <rect
         style="fill:#c0c0c0;fill-opacity:1;stroke:none;stroke-width:30;stroke-linecap:round;stroke-linejoin:miter;stroke-miterlimit:4;stroke-dasharray:none;stroke-opacity:1"
         id="rect4249"
         width="57.384438"
         height="17.839722"
         x="97.226479"
         y="1012.5201"
         ry="8.9198608" />
    </g>
  </g>
</svg>
