<?xml version="1.0" encoding="UTF-8" standalone="no"?>
<!-- Created with Inkscape (http://www.inkscape.org/) -->

<svg
   xmlns:dc="http://purl.org/dc/elements/1.1/"
   xmlns:cc="http://creativecommons.org/ns#"
   xmlns:rdf="http://www.w3.org/1999/02/22-rdf-syntax-ns#"
   xmlns:svg="http://www.w3.org/2000/svg"
   xmlns="http://www.w3.org/2000/svg"
   xmlns:sodipodi="http://sodipodi.sourceforge.net/DTD/sodipodi-0.dtd"
   xmlns:inkscape="http://www.inkscape.org/namespaces/inkscape"
   width="256"
   height="256"
   viewBox="0 0 256 256"
   id="svg2"
   version="1.1"
   inkscape:version="0.91 r13725"
   sodipodi:docname="audio-speakers-symbolic.svg">
  <defs
     id="defs4" />
  <sodipodi:namedview
     id="base"
     pagecolor="#ffffff"
     bordercolor="#666666"
     borderopacity="1.0"
     inkscape:pageopacity="0.0"
     inkscape:pageshadow="2"
     inkscape:zoom="3.3632812"
     inkscape:cx="128"
     inkscape:cy="128"
     inkscape:document-units="px"
     inkscape:current-layer="layer1"
     showgrid="false"
     units="px"
     inkscape:window-width="1920"
     inkscape:window-height="1054"
     inkscape:window-x="0"
     inkscape:window-y="0"
     inkscape:window-maximized="1" />
  <metadata
     id="metadata7">
    <rdf:RDF>
      <cc:Work
         rdf:about="">
        <dc:format>image/svg+xml</dc:format>
        <dc:type
           rdf:resource="http://purl.org/dc/dcmitype/StillImage" />
        <dc:title></dc:title>
      </cc:Work>
    </rdf:RDF>
  </metadata>
  <g
     inkscape:label="Layer 1"
     inkscape:groupmode="layer"
     id="layer1"
     transform="translate(0,-796.36216)">
    <path
       style="fill:#d64843;fill-opacity:1;stroke:none;stroke-width:20;stroke-linecap:round;stroke-linejoin:miter;stroke-miterlimit:4;stroke-dasharray:none;stroke-opacity:1"
       d="M 128 0 A 128 128 0 0 0 0 128 A 128 128 0 0 0 128 256 A 128 128 0 0 0 256 128 A 128 128 0 0 0 128 0 z M 182.19336 33.105469 A 13.52905 13.52905 0 0 1 191.52539 56.535156 L 164.46875 83.589844 A 13.750448 13.750448 0 0 1 145.02344 64.144531 L 172.07812 37.089844 A 13.52905 13.52905 0 0 1 180.11133 33.285156 A 13.52905 13.52905 0 0 1 182.19336 33.105469 z M 106.76758 46.8125 L 114.16602 47.023438 L 114.16602 209.35547 L 107.73633 209.36719 L 66.607422 168.56055 L 33 168.56055 L 33 87.394531 L 66.607422 87.394531 L 106.76758 46.8125 z M 153.47852 114.45117 A 13.52905 13.52905 0 0 1 154.74609 114.45117 L 209.2793 114.87305 A 13.52905 13.52905 0 1 1 209.2793 141.92773 L 154.74609 141.50586 A 13.542551 13.542551 0 1 1 153.47852 114.45117 z M 154.77539 168.23633 A 13.52905 13.52905 0 0 1 164.46875 172.36523 L 191.52539 199.42188 A 13.750473 13.750473 0 1 1 172.07812 218.86719 L 145.02344 191.8125 A 13.52905 13.52905 0 0 1 151.78711 168.56055 A 13.52905 13.52905 0 0 1 154.77539 168.23633 z "
       transform="translate(0,796.36216)"
       id="path4136" />
  </g>
</svg>
