<?xml version="1.0" encoding="UTF-8" standalone="no"?>
<!-- Created with Inkscape (http://www.inkscape.org/) -->

<svg
   xmlns:dc="http://purl.org/dc/elements/1.1/"
   xmlns:cc="http://creativecommons.org/ns#"
   xmlns:rdf="http://www.w3.org/1999/02/22-rdf-syntax-ns#"
   xmlns:svg="http://www.w3.org/2000/svg"
   xmlns="http://www.w3.org/2000/svg"
   xmlns:sodipodi="http://sodipodi.sourceforge.net/DTD/sodipodi-0.dtd"
   xmlns:inkscape="http://www.inkscape.org/namespaces/inkscape"
   width="256"
   height="256"
   viewBox="0 0 256 256"
   id="svg2"
   version="1.1"
   inkscape:version="0.91 r13725"
   sodipodi:docname="drive-optical-symbolic.svg">
  <defs
     id="defs4" />
  <sodipodi:namedview
     id="base"
     pagecolor="#ffffff"
     bordercolor="#666666"
     borderopacity="1.0"
     inkscape:pageopacity="0.0"
     inkscape:pageshadow="2"
     inkscape:zoom="3.3632812"
     inkscape:cx="128"
     inkscape:cy="128"
     inkscape:document-units="px"
     inkscape:current-layer="layer1"
     showgrid="false"
     units="px"
     inkscape:window-width="1920"
     inkscape:window-height="1054"
     inkscape:window-x="0"
     inkscape:window-y="0"
     inkscape:window-maximized="1" />
  <metadata
     id="metadata7">
    <rdf:RDF>
      <cc:Work
         rdf:about="">
        <dc:format>image/svg+xml</dc:format>
        <dc:type
           rdf:resource="http://purl.org/dc/dcmitype/StillImage" />
        <dc:title></dc:title>
      </cc:Work>
    </rdf:RDF>
  </metadata>
  <g
     inkscape:label="Layer 1"
     inkscape:groupmode="layer"
     id="layer1"
     transform="translate(0,-796.36216)">
    <path
       style="fill:#0f9d58;fill-opacity:1"
       d="M 128 0 A 128 128 0 0 0 0 128 A 128 128 0 0 0 128 256 A 128 128 0 0 0 256 128 A 128 128 0 0 0 128 0 z M 128 33 A 95.000007 95.000007 0 0 1 223 128 A 95.000007 95.000007 0 0 1 128 223 A 95.000007 95.000007 0 0 1 33 128 A 95.000007 95.000007 0 0 1 128 33 z M 127.94531 85.947266 C 104.79674 85.947276 85.945312 104.7987 85.945312 127.94727 C 85.945313 151.09585 104.79674 169.94727 127.94531 169.94727 C 151.09389 169.94727 169.94531 151.09585 169.94531 127.94727 C 169.94531 104.79869 151.09389 85.947266 127.94531 85.947266 z M 127.94531 93.947266 C 146.77037 93.947266 161.94531 109.12221 161.94531 127.94727 C 161.94531 146.77233 146.77037 161.94727 127.94531 161.94727 C 109.12026 161.94727 93.945312 146.77233 93.945312 127.94727 C 93.945312 109.12222 109.12026 93.947276 127.94531 93.947266 z M 128 111.92578 A 16.075747 16.075747 0 0 0 111.92578 128 A 16.075747 16.075747 0 0 0 128 144.07422 A 16.075747 16.075747 0 0 0 144.07422 128 A 16.075747 16.075747 0 0 0 128 111.92578 z "
       transform="translate(0,796.36216)"
       id="path4136" />
    <g
       id="g4152"
       transform="matrix(1.0857143,0,0,1.0857143,-10.971431,-79.23105)" />
  </g>
</svg>
