<?xml version="1.0" encoding="UTF-8" standalone="no"?>
<!-- Created with Inkscape (http://www.inkscape.org/) -->

<svg
   xmlns:dc="http://purl.org/dc/elements/1.1/"
   xmlns:cc="http://creativecommons.org/ns#"
   xmlns:rdf="http://www.w3.org/1999/02/22-rdf-syntax-ns#"
   xmlns:svg="http://www.w3.org/2000/svg"
   xmlns="http://www.w3.org/2000/svg"
   xmlns:sodipodi="http://sodipodi.sourceforge.net/DTD/sodipodi-0.dtd"
   xmlns:inkscape="http://www.inkscape.org/namespaces/inkscape"
   width="256"
   height="256"
   viewBox="0 0 256 256"
   id="svg2"
   version="1.1"
   inkscape:version="0.91 r13725"
   sodipodi:docname="input-gaming.svg">
  <sodipodi:namedview
     id="base"
     pagecolor="#ffffff"
     bordercolor="#666666"
     borderopacity="1.0"
     inkscape:pageopacity="0.0"
     inkscape:pageshadow="2"
     inkscape:zoom="2.0507812"
     inkscape:cx="128.97524"
     inkscape:cy="128"
     inkscape:document-units="px"
     inkscape:current-layer="layer1"
     showgrid="true"
     units="px"
     inkscape:window-width="1366"
     inkscape:window-height="721"
     inkscape:window-x="0"
     inkscape:window-y="0"
     inkscape:window-maximized="1">
    <inkscape:grid
       type="xygrid"
       id="grid4168"
       spacingx="5"
       spacingy="5" />
  </sodipodi:namedview>
  <defs
     id="defs4">
    <clipPath
       clipPathUnits="userSpaceOnUse"
       id="clipPath5002">
      <g
         id="g5004">
        <path
           transform="translate(0,796.36216)"
           inkscape:connector-curvature="0"
           id="path5006"
           d="M 88.118406,249.43519 C 46.103287,235.29134 14.771284,201.68742 4.1335861,159.36053 1.3377997,148.23623 0.92261224,144.16281 0.92582381,127.88908 0.92787958,117.47222 1.134384,112.01362 1.6577819,108.54099 4.4653598,89.913336 12.17654,70.638106 23.042737,55.086148 c 3.958678,-5.665755 8.344812,-10.93092 9.101533,-10.925587 0.32809,0.0023 10.488643,18.309713 22.579009,40.683112 12.090365,22.373397 22.374546,41.334697 22.853732,42.136217 0.479186,0.80151 0.924733,2.44098 0.990103,3.64326 0.343424,6.31639 2.524175,14.20976 5.6424,20.42304 2.954444,5.88693 5.065381,8.73258 10.434696,14.06652 6.71418,6.66995 12.88853,10.28643 21.73204,12.72904 3.16587,0.87442 5.10478,1.05037 11.57517,1.05037 8.82596,0 12.60219,-0.76201 19.26429,-3.88733 2.04584,-0.95974 3.93661,-1.66536 4.20172,-1.56805 0.2651,0.0973 -11.0555,17.66459 -25.1569,39.0384 l -25.6389,38.86148 -3.094121,0.11221 c -2.554618,0.0927 -4.195204,-0.25845 -9.409103,-2.01364 z"
           style="fill:#0f9d58;fill-opacity:1;stroke:none;stroke-width:4.85768509;stroke-linejoin:round;stroke-miterlimit:4;stroke-dasharray:none;stroke-opacity:1" />
        <path
           inkscape:connector-curvature="0"
           id="path5008"
           d="m 112.35984,1051.5167 c -10.0014,-1.4495 -12.15632,-1.8201 -12.531784,-2.1556 -0.248854,-0.2223 1.738304,-3.7475 4.550294,-8.0722 7.16635,-11.0213 49.77231,-74.64801 50.25856,-75.05489 3.57509,-2.99158 8.63523,-8.0414 10.57512,-10.55356 3.36154,-4.35318 7.55784,-12.9141 9.06523,-18.494 6.19314,-22.92535 -2.59253,-47.15185 -21.69967,-59.83688 l -2.96081,-1.96565 17.02469,0.29584 c 9.36358,0.1627 31.17032,0.43384 48.45941,0.60252 l 31.43471,0.30668 1.54584,4.18869 c 2.24597,6.08579 4.67816,15.0947 5.93451,21.9816 1.52517,8.36049 1.92536,28.85896 0.73851,37.82758 -3.0805,23.27845 -12.81326,45.72018 -27.80202,64.10577 -20.47622,25.1166 -51.4599,42.1974 -84.14612,46.3885 -5.31244,0.6812 -26.64601,0.9864 -30.44647,0.4356 z"
           style="fill:#f4b400;fill-opacity:1;stroke:none;stroke-width:4.85768509;stroke-linejoin:round;stroke-miterlimit:4;stroke-dasharray:none;stroke-opacity:1" />
        <path
           transform="translate(0,796.36216)"
           inkscape:connector-curvature="0"
           id="path5010"
           d="M 67.989788,108.87302 C 41.284246,59.575543 33.290284,45.149038 32.233625,44.344765 31.651257,43.901497 32.811213,42.549931 38.695603,36.815353 53.43581,22.450419 68.809334,13.040746 87.839196,6.7360352 101.68742,2.1480329 112.58238,0.43719165 127.95142,0.43719165 c 21.3099,0 37.80488,3.80960275 56.83492,13.12633035 25.29351,12.383198 46.19421,33.578863 58.51993,59.345832 1.61138,3.368591 2.92978,6.372442 2.92978,6.675231 0,0.560033 -10.54865,0.49527 -71.16508,-0.436914 l -24.28843,-0.373518 -3.93063,-1.764495 c -6.75732,-3.033425 -10.64587,-3.839529 -18.6576,-3.867747 -5.0296,-0.01773 -7.97946,0.207636 -10.31642,0.788106 -14.50826,3.603659 -26.283291,12.94777 -33.291614,26.418653 -3.58502,6.89086 -5.24713,13.08166 -6.331628,23.58317 l -0.33738,3.26696 -9.92748,-18.32578 z"
           style="fill:#db4437;fill-opacity:1;stroke:none;stroke-width:10;stroke-linejoin:round;stroke-miterlimit:4;stroke-dasharray:none;stroke-opacity:1" />
      </g>
    </clipPath>
    <clipPath
       id="clipPath4271"
       clipPathUnits="userSpaceOnUse">
      <circle
         r="128"
         cy="128.00002"
         cx="128"
         id="circle4273"
         style="fill:#292929;fill-opacity:0.26020412;stroke:none;stroke-width:10;stroke-linejoin:round;stroke-miterlimit:4;stroke-dasharray:none;stroke-opacity:0.25882353" />
    </clipPath>
    <clipPath
       clipPathUnits="userSpaceOnUse"
       id="clipPath4363">
      <circle
         r="128"
         cy="924.36218"
         cx="128"
         id="circle4365"
         style="fill:#4285f4;fill-opacity:1;stroke:none;stroke-width:10;stroke-linejoin:round;stroke-miterlimit:4;stroke-dasharray:none;stroke-opacity:0.25882353" />
    </clipPath>
    <clipPath
       id="clipPath4452"
       clipPathUnits="userSpaceOnUse">
      <circle
         r="128"
         cy="924.36218"
         cx="128"
         id="circle4454"
         style="fill:#4285f4;fill-opacity:1;stroke:none;stroke-width:10;stroke-linejoin:round;stroke-miterlimit:4;stroke-dasharray:none;stroke-opacity:0.25882353" />
    </clipPath>
    <inkscape:path-effect
       effect="spiro"
       id="path-effect4168"
       is_visible="true" />
    <inkscape:path-effect
       effect="skeletal"
       id="path-effect4170"
       is_visible="true"
       pattern="m 0,796.36216 1,0"
       copytype="single_stretched"
       prop_scale="1"
       scale_y_rel="false"
       spacing="0"
       normal_offset="0"
       tang_offset="0"
       prop_units="false"
       vertical_pattern="false"
       fuse_tolerance="0" />
    <inkscape:path-effect
       effect="spiro"
       id="path-effect4174"
       is_visible="true" />
    <inkscape:path-effect
       effect="skeletal"
       id="path-effect4176"
       is_visible="true"
       pattern="m 0,796.36216 1,0"
       copytype="single_stretched"
       prop_scale="1"
       scale_y_rel="false"
       spacing="0"
       normal_offset="0"
       tang_offset="0"
       prop_units="false"
       vertical_pattern="false"
       fuse_tolerance="0" />
    <clipPath
       id="clipPath4980"
       clipPathUnits="userSpaceOnUse">
      <path
         style="opacity:0.91000001;fill:#38bae1;fill-opacity:1;stroke:none;stroke-width:0;stroke-linecap:round;stroke-linejoin:round;stroke-miterlimit:4;stroke-dasharray:none;stroke-opacity:1;filter:url(#filter4298)"
         d="m 10.42124,864.27189 42.534575,-0.0913 21.267287,-0.0456 c 7.245384,-0.0152 14.490768,-0.0305 21.736152,-0.0456 8.394956,-10.58827 10.291846,-15.47699 14.084686,-17.71727 3.79283,-2.24028 9.4816,-1.8321 25.46032,-1.82658 23.36644,-0.007 109.60565,-0.67788 109.60565,-0.67788 l -0.0879,12.1518 -0.0879,12.1518 -0.0879,12.15181 -0.0879,12.1518 -0.0879,12.1518 -0.0879,12.1518 -0.0879,12.15181 -0.0879,12.1518 -0.0879,12.1518 -0.0879,12.1518 -0.0879,12.15181 -0.0879,12.1518 -0.0879,12.15181 -0.0879,12.1518 c 0,0 0.59382,8.1589 -0.0879,12.1518 -0.58177,3.4075 -0.78038,7.5176 -3.36995,9.8075 -2.83121,2.5035 -7.3341,1.9515 -11.09295,2.3443 -4.76571,0.4981 -14.375,0 -14.375,0 l -14.375,0 -14.375,0 -14.37501,0 -14.375,0 -14.375,0 -14.375,0 -14.375,0 -14.375,0 -14.375001,0 c 0,0 -9.583334,0 -14.375001,0 -4.791667,0 -9.583334,0 -14.375001,0 -4.791667,0 -9.500662,0.094 -14.375001,0 -4.874339,-0.093 -10.854147,0.062 -15.030858,-0.571 -4.176712,-0.6329 -7.699545,-0.5576 -9.968228,-2.7111 -2.268683,-2.1535 -2.21606,-4.4991 -2.972258,-7.5945 -0.756198,-3.0955 -0.95689,-7.246 -1.188915,-10.8765 -0.232024,-3.6305 -0.136752,-7.251 -0.205128,-10.8765 -0.06838,-3.6255 -0.136752,-7.25106 -0.205128,-10.87658 -0.06838,-3.62552 -0.136753,-7.25102 -0.205129,-10.87653 -0.06838,-3.62551 -0.136752,-7.25103 -0.205128,-10.87654 -0.06838,-3.62551 -0.205129,-10.87653 -0.205129,-10.87653 L 12.062467,951.28418 11.857339,940.40764 11.65221,929.53111 11.447082,918.65457 11.241954,907.77803 11.036825,896.9015 10.831697,886.02496 10.626568,875.14843 Z"
         id="path4982"
         inkscape:connector-curvature="0"
         sodipodi:nodetypes="cccccccccccccccccccccssscccccccccazzzzzzzzzzzsccccccccc"
         transform="matrix(1.0110039,0,0,0.87092225,-1.4059192,107.89621)" />
    </clipPath>
    <filter
       style="color-interpolation-filters:sRGB"
       inkscape:label="Drop Shadow"
       id="filter4298">
      <feFlood
         flood-opacity="0.498039"
         flood-color="rgb(0,0,0)"
         result="flood"
         id="feFlood4300" />
      <feComposite
         in="flood"
         in2="SourceGraphic"
         operator="in"
         result="composite1"
         id="feComposite4302" />
      <feGaussianBlur
         in="composite1"
         stdDeviation="1.6"
         result="blur"
         id="feGaussianBlur4304" />
      <feOffset
         dx="-2.77556e-17"
         dy="-7.7"
         result="offset"
         id="feOffset4306" />
      <feComposite
         in="SourceGraphic"
         in2="offset"
         operator="over"
         result="composite2"
         id="feComposite4308" />
    </filter>
    <clipPath
       clipPathUnits="userSpaceOnUse"
       id="clipPath6010">
      <circle
         r="128"
         cy="921.46759"
         cx="125.30894"
         id="circle6012"
         style="fill:#0f9d58;fill-opacity:1;stroke:none;stroke-width:10;stroke-linejoin:round;stroke-miterlimit:4;stroke-dasharray:none;stroke-opacity:0.25882353" />
    </clipPath>
    <clipPath
       clipPathUnits="userSpaceOnUse"
       id="clipPath6287">
      <ellipse
         cy="917.04297"
         cx="124.93641"
         id="circle6289"
         style="fill:#0f9d58;fill-opacity:1;stroke:none;stroke-width:10;stroke-linejoin:round;stroke-miterlimit:4;stroke-dasharray:none;stroke-opacity:0.25882353"
         rx="243.77826"
         ry="280.345" />
    </clipPath>
    <clipPath
       id="clipPath4376"
       clipPathUnits="userSpaceOnUse">
      <ellipse
         ry="228.68375"
         rx="198.85544"
         cy="905.0332"
         cx="125.53584"
         id="circle4378"
         style="fill:#aae3c7;fill-opacity:1;stroke:none;stroke-width:10;stroke-linejoin:round;stroke-miterlimit:4;stroke-dasharray:none;stroke-opacity:0.25882353" />
    </clipPath>
    <clipPath
       id="clipPath5279"
       clipPathUnits="userSpaceOnUse">
      <circle
         r="128"
         cy="984.82697"
         cx="191.19023"
         id="circle5281"
         style="fill:#f4b400;fill-opacity:1;stroke:none;stroke-width:10;stroke-linejoin:round;stroke-miterlimit:4;stroke-dasharray:none;stroke-opacity:0.25882353" />
    </clipPath>
    <clipPath
       clipPathUnits="userSpaceOnUse"
       id="clipPath4206">
      <circle
         r="128"
         cy="924.36218"
         cx="128"
         id="circle4208"
         style="fill:#f4b400;fill-opacity:1;stroke:none;stroke-width:10;stroke-linejoin:round;stroke-miterlimit:4;stroke-dasharray:none;stroke-opacity:0.25882353" />
    </clipPath>
    <clipPath
       clipPathUnits="userSpaceOnUse"
       id="clipPath4228">
      <circle
         r="128"
         cy="924.36218"
         cx="128"
         id="circle4230"
         style="fill:#f4b400;fill-opacity:1;stroke:none;stroke-width:10;stroke-linejoin:round;stroke-miterlimit:4;stroke-dasharray:none;stroke-opacity:0.25882353" />
    </clipPath>
    <clipPath
       clipPathUnits="userSpaceOnUse"
       id="clipPath4359">
      <circle
         r="128"
         cy="930.17133"
         cx="101.19023"
         id="circle4361"
         style="fill:#f4b400;fill-opacity:1;stroke:none;stroke-width:10;stroke-linejoin:round;stroke-miterlimit:4;stroke-dasharray:none;stroke-opacity:0.25882353" />
    </clipPath>
    <clipPath
       id="clipPath5177"
       clipPathUnits="userSpaceOnUse">
      <circle
         r="128"
         cy="916.84381"
         cx="129.17496"
         id="circle5179"
         style="fill:#ff7900;fill-opacity:1;stroke:none;stroke-width:10;stroke-linejoin:round;stroke-miterlimit:4;stroke-dasharray:none;stroke-opacity:0.25882353" />
    </clipPath>
    <clipPath
       clipPathUnits="userSpaceOnUse"
       id="clipPath4451">
      <circle
         r="107.5042"
         cy="906.42456"
         cx="126.64474"
         id="circle4453"
         style="fill:#ff7900;fill-opacity:1;stroke:none;stroke-width:10;stroke-linejoin:round;stroke-miterlimit:4;stroke-dasharray:none;stroke-opacity:0.25882353" />
    </clipPath>
    <clipPath
       id="clipPath4246"
       clipPathUnits="userSpaceOnUse">
      <circle
         r="85.460251"
         cy="941.9812"
         cx="150.39798"
         id="circle4248"
         style="fill:#0f9d58;fill-opacity:1;stroke:none;stroke-width:10;stroke-linejoin:round;stroke-miterlimit:4;stroke-dasharray:none;stroke-opacity:0.25882353" />
    </clipPath>
    <clipPath
       clipPathUnits="userSpaceOnUse"
       id="clipPath4438">
      <circle
         r="76.799995"
         cy="881.185"
         cx="98.521912"
         id="circle4440"
         style="fill:#d8d8d8;fill-opacity:1;stroke:none;stroke-width:10;stroke-linejoin:round;stroke-miterlimit:4;stroke-dasharray:none;stroke-opacity:0.25882353" />
    </clipPath>
  </defs>
  <metadata
     id="metadata7">
    <rdf:RDF>
      <cc:Work
         rdf:about="">
        <dc:format>image/svg+xml</dc:format>
        <dc:type
           rdf:resource="http://purl.org/dc/dcmitype/StillImage" />
        <dc:title />
      </cc:Work>
    </rdf:RDF>
  </metadata>
  <g
     transform="translate(0,-796.36216)"
     id="layer1"
     inkscape:groupmode="layer"
     inkscape:label="Layer 1">
    <path
       inkscape:connector-curvature="0"
       id="path4913"
       d="M 154.47438,968.80998 101.03985,1048.476 0.4857685,1048.9618 0,842.0244 l 33.032258,-2.42884 45.176471,83.55218 21.373814,35.4611 26.717267,13.11575 z"
       style="fill:none;fill-rule:evenodd;stroke:none;stroke-width:1px;stroke-linecap:butt;stroke-linejoin:miter;stroke-opacity:1" />
    <circle
       style="fill:#c0c0c0;fill-opacity:1;stroke:none;stroke-width:10;stroke-linejoin:round;stroke-miterlimit:4;stroke-dasharray:none;stroke-opacity:0.25882353"
       id="path4152"
       cx="128"
       cy="924.36218"
       r="128" />
    <g
       transform="matrix(1.6666667,0,0,1.6666667,-36.203189,-544.27953)"
       id="g4209"
       clip-path="url(#clipPath4438)"
       style="fill:#666666;fill-opacity:1">
      <g
         id="g4292"
         transform="matrix(0.59999999,0,0,0.59999999,21.721913,804.385)"
         style="fill:#666666;fill-opacity:1">
        <g
           id="g4294"
           style="fill:#666666;fill-opacity:1;stroke:none;stroke-opacity:1">
          <path
             id="path4296"
             d="M116.20898 53.0C113.704111 53.0 111.443371805 54.0083039451 109.808849457 55.6428262928L-31.6125067801 197.06418253C-29.9779844326 195.429660182 -27.7172452375 194.421356237 -25.2123762373 194.421356237Z"
             style="fill:#666666;fill-opacity:1" />
          <path
             id="path4298"
             d="M109.808849457 55.6428262928C108.174325805 57.2773499453 107.16602 59.5380930002 107.16602 62.042969L-34.2553362373 203.464325237C-34.2553362373 200.959449238 -33.2470304324 198.698706183 -31.6125067801 197.06418253Z"
             style="fill:#666666;fill-opacity:1" />
          <path
             id="path4300"
             d="M107.16602 62.042969L107.16602 107.16602L-34.2553362373 248.587376237L-34.2553362373 203.464325237Z"
             style="fill:#666666;fill-opacity:1" />
          <path
             id="path4302"
             d="M107.16602 107.16602L62.042969 107.16602L-79.3783872373 248.587376237L-34.2553362373 248.587376237Z"
             style="fill:#666666;fill-opacity:1" />
          <path
             id="path4304"
             d="M62.042969 107.16602C59.5380955 107.16602 57.2773504322 108.174325318 55.6428251483 109.808850602L-85.778531089 251.230206839C-84.1440058051 249.595681555 -81.8832607373 248.587376237 -79.3783872373 248.587376237Z"
             style="fill:#666666;fill-opacity:1" />
          <path
             id="path4306"
             d="M55.6428251483 109.808850602C54.0083044322 111.443371318 53.0 113.7041085 53.0 116.20898L-88.4213562373 257.630336237C-88.4213562373 255.125464737 -87.4130518051 252.864727555 -85.778531089 251.230206839Z"
             style="fill:#666666;fill-opacity:1" />
          <path
             id="path4308"
             d="M53.0 116.20898L53.0 139.79102L-88.4213562373 281.212376237L-88.4213562373 257.630336237Z"
             style="fill:#666666;fill-opacity:1" />
          <path
             id="path4310"
             d="M53.0 139.79102C53.0 144.80075 57.033229 148.83398 62.042969 148.83398L-79.3783872373 290.255336237C-84.3881272373 290.255336237 -88.4213562373 286.222106237 -88.4213562373 281.212376237Z"
             style="fill:#666666;fill-opacity:1" />
          <path
             id="path4312"
             d="M62.042969 148.83398L107.16602 148.83398L-34.2553362373 290.255336237L-79.3783872373 290.255336237Z"
             style="fill:#666666;fill-opacity:1" />
          <path
             id="path4314"
             d="M107.16602 148.83398L107.16602 193.95703L-34.2553362373 335.378386237L-34.2553362373 290.255336237Z"
             style="fill:#666666;fill-opacity:1" />
          <path
             id="path4316"
             d="M107.16602 193.95703C107.16602 198.96676 111.19924 203.0 116.20898 203.0L-25.2123762373 344.421356237C-30.2221162373 344.421356237 -34.2553362373 340.388116237 -34.2553362373 335.378386237Z"
             style="fill:#666666;fill-opacity:1" />
          <path
             id="path4318"
             d="M116.20898 203.0L139.79102 203.0L-1.63033623731 344.421356237L-25.2123762373 344.421356237Z"
             style="fill:#666666;fill-opacity:1" />
          <path
             id="path4320"
             d="M139.79102 203.0C142.2958825 203.0 144.556620487 201.991692013 146.191143856 200.357168644L4.7697876187 341.778524881C3.13526425004 343.41304825 0.87452626272 344.421356237 -1.63033623731 344.421356237Z"
             style="fill:#666666;fill-opacity:1" />
          <path
             id="path4322"
             d="M146.191143856 200.357168644C147.825670487 198.722642013 148.83398 196.4618975 148.83398 193.95703L7.41262376269 335.378386237C7.41262376269 337.883253737 6.40431425001 340.14399825 4.7697876187 341.778524881Z"
             style="fill:#666666;fill-opacity:1" />
          <path
             id="path4324"
             d="M148.83398 193.95703L148.83398 148.83398L7.41262376269 290.255336237L7.41262376269 335.378386237Z"
             style="fill:#666666;fill-opacity:1" />
          <path
             id="path4326"
             d="M148.83398 148.83398L193.95703 148.83398L52.5356737627 290.255336237L7.41262376269 290.255336237Z"
             style="fill:#666666;fill-opacity:1" />
          <path
             id="path4328"
             d="M193.95703 148.83398C196.4618975 148.83398 198.722642013 147.825670487 200.357168644 146.191143856L58.9358124067 287.612500093C57.3012857753 289.247026725 55.0405412627 290.255336237 52.5356737627 290.255336237Z"
             style="fill:#666666;fill-opacity:1" />
          <path
             id="path4330"
             d="M200.357168644 146.191143856C201.991692013 144.556620487 203.0 142.2958825 203.0 139.79102L61.5786437627 281.212376237C61.5786437627 283.717238737 60.5703357754 285.977976725 58.9358124067 287.612500093Z"
             style="fill:#666666;fill-opacity:1" />
          <path
             id="path4332"
             d="M203.0 139.79102L203.0 116.20898L61.5786437627 257.630336237L61.5786437627 281.212376237Z"
             style="fill:#666666;fill-opacity:1" />
          <path
             id="path4334"
             d="M203.0 116.20898C203.0 111.19923 198.96676 107.16602 193.95703 107.16602L52.5356737627 248.587376237C57.5454037627 248.587376237 61.5786437627 252.620586237 61.5786437627 257.630336237Z"
             style="fill:#666666;fill-opacity:1" />
          <path
             id="path4336"
             d="M193.95703 107.16602L148.83398 107.16602L7.41262376269 248.587376237L52.5356737627 248.587376237Z"
             style="fill:#666666;fill-opacity:1" />
          <path
             id="path4338"
             d="M148.83398 107.16602L148.83398 62.042969L7.41262376269 203.464325237L7.41262376269 248.587376237Z"
             style="fill:#666666;fill-opacity:1" />
          <path
             id="path4340"
             d="M148.83398 62.042969C148.83398 57.033219 144.80075 53.0 139.79102 53.0L-1.63033623731 194.421356237C3.37939376269 194.421356237 7.41262376269 198.454575237 7.41262376269 203.464325237Z"
             style="fill:#666666;fill-opacity:1" />
          <path
             id="path4342"
             d="M139.79102 53.0L116.20898 53.0L-25.2123762373 194.421356237L-1.63033623731 194.421356237Z"
             style="fill:#666666;fill-opacity:1" />
        </g>
        <path
           id="rect4205"
           transform=""
           d="M 116.20898 53 C 111.19924 53 107.16602 57.033219 107.16602 62.042969 L 107.16602 107.16602 L 62.042969 107.16602 C 57.033229 107.16602 53 111.19923 53 116.20898 L 53 139.79102 C 53 144.80075 57.033229 148.83398 62.042969 148.83398 L 107.16602 148.83398 L 107.16602 193.95703 C 107.16602 198.96676 111.19924 203 116.20898 203 L 139.79102 203 C 144.80075 203 148.83398 198.96676 148.83398 193.95703 L 148.83398 148.83398 L 193.95703 148.83398 C 198.96676 148.83398 203 144.80075 203 139.79102 L 203 116.20898 C 203 111.19923 198.96676 107.16602 193.95703 107.16602 L 148.83398 107.16602 L 148.83398 62.042969 C 148.83398 57.033219 144.80075 53 139.79102 53 L 116.20898 53 z "
           style="fill:#666666;fill-opacity:1;stroke:none;stroke-opacity:1" />
      </g>
    </g>
    <circle
       r="25"
       cy="878.29364"
       cx="173.92383"
       id="path4219"
       style="fill:#ff0000;fill-opacity:1;stroke:none;stroke-opacity:1" />
    <circle
       style="fill:#0000ff;fill-opacity:1;stroke:none;stroke-opacity:1"
       id="circle4221"
       cx="173.62668"
       cy="970.13757"
       r="25" />
    <circle
       r="25"
       cy="878.04224"
       cx="81.104767"
       id="circle4223"
       style="fill:#00ff00;fill-opacity:1;stroke:none;stroke-opacity:1" />
    <circle
       style="fill:#ffee00;fill-opacity:1;stroke:none;stroke-opacity:1"
       id="circle4225"
       cx="81.420952"
       cy="970.10321"
       r="25" />
    <g
       id="g4231"
       transform="matrix(1.6666667,0,0,1.6666667,-36.203189,-544.27953)">
      <rect
         ry="5.4257102"
         y="836.185"
         x="86.021912"
         height="90"
         width="25"
         id="rect4233"
         style="fill:#ffffff;fill-opacity:1;stroke:none;stroke-opacity:1" />
      <rect
         transform="matrix(0,1,-1,0,0,0)"
         style="fill:#ffffff;fill-opacity:1;stroke:none;stroke-opacity:1"
         id="rect4235"
         width="25"
         height="90"
         x="868.685"
         y="-143.52191"
         ry="5.4257102" />
    </g>
  </g>
</svg>
