<?xml version="1.0" encoding="UTF-8" standalone="no"?>
<!-- Created with Inkscape (http://www.inkscape.org/) -->

<svg
   xmlns:dc="http://purl.org/dc/elements/1.1/"
   xmlns:cc="http://creativecommons.org/ns#"
   xmlns:rdf="http://www.w3.org/1999/02/22-rdf-syntax-ns#"
   xmlns:svg="http://www.w3.org/2000/svg"
   xmlns="http://www.w3.org/2000/svg"
   xmlns:xlink="http://www.w3.org/1999/xlink"
   xmlns:sodipodi="http://sodipodi.sourceforge.net/DTD/sodipodi-0.dtd"
   xmlns:inkscape="http://www.inkscape.org/namespaces/inkscape"
   width="256"
   height="256"
   viewBox="0 0 256 256"
   id="svg2"
   version="1.1"
   inkscape:version="0.92.2 (5c3e80d, 2017-08-06)"
   sodipodi:docname="application-pdf.svg">
  <sodipodi:namedview
     id="base"
     pagecolor="#ffffff"
     bordercolor="#666666"
     borderopacity="1.0"
     inkscape:pageopacity="0.0"
     inkscape:pageshadow="2"
     inkscape:zoom="3.3125"
     inkscape:cx="62.792453"
     inkscape:cy="128"
     inkscape:document-units="px"
     inkscape:current-layer="layer1"
     showgrid="false"
     units="px"
     inkscape:window-width="1920"
     inkscape:window-height="1048"
     inkscape:window-x="0"
     inkscape:window-y="0"
     inkscape:window-maximized="1" />
  <defs
     id="defs4">
    <radialGradient
       spreadMethod="pad"
       gradientTransform="matrix(45.124908,0,0,-45.124908,74.972946,125.50104)"
       gradientUnits="userSpaceOnUse"
       id="radialGradient4895"
       fy="0"
       fx="0"
       r="1"
       cy="0"
       cx="0">
      <stop
         offset="0"
         style="stop-color:#ebeaea;stop-opacity:1"
         id="stop4899" />
      <stop
         offset="1"
         style="stop-color:#ebeaea;stop-opacity:1"
         id="stop4901" />
    </radialGradient>
    <filter
       style="color-interpolation-filters:sRGB;"
       inkscape:label="Drop Shadow"
       id="filter4301">
      <feFlood
         flood-opacity="0.498039"
         flood-color="rgb(0,0,0)"
         result="flood"
         id="feFlood4303" />
      <feComposite
         in="flood"
         in2="SourceGraphic"
         operator="in"
         result="composite1"
         id="feComposite4305" />
      <feGaussianBlur
         in="composite1"
         stdDeviation="3.7"
         result="blur"
         id="feGaussianBlur4307" />
      <feOffset
         dx="3.8"
         dy="3.7"
         result="offset"
         id="feOffset4309" />
      <feComposite
         in="SourceGraphic"
         in2="offset"
         operator="over"
         result="composite2"
         id="feComposite4311" />
    </filter>
    <radialGradient
       cx="0"
       cy="0"
       r="0.80999798"
       fx="0"
       fy="0"
       id="radialGradient8118"
       xlink:href="#radialGradient4895"
       gradientUnits="userSpaceOnUse"
       gradientTransform="matrix(228.32686,0,0,222.71229,48.684695,874.0012)"
       spreadMethod="pad" />
    <radialGradient
       cx="0"
       cy="0"
       r="1"
       fx="0"
       fy="0"
       id="radialGradient4453"
       gradientUnits="userSpaceOnUse"
       gradientTransform="matrix(45.124908,0,0,-45.124908,74.972946,125.50104)"
       spreadMethod="pad">
      <stop
         id="stop4455"
         style="stop-color:#ffffff;stop-opacity:1"
         offset="0" />
      <stop
         id="stop4457"
         style="stop-color:#ebeaea;stop-opacity:1"
         offset="0.80999798" />
      <stop
         id="stop4459"
         style="stop-color:#ebeaea;stop-opacity:1"
         offset="0.80999798" />
      <stop
         id="stop4461"
         style="stop-color:#d4d3d4;stop-opacity:1"
         offset="1" />
    </radialGradient>
    <clipPath
       id="clipPath5238"
       clipPathUnits="userSpaceOnUse">
      <path
         inkscape:connector-curvature="0"
         id="path5240"
         d="m 151.20117,796.60532 -105.78125,0 c -7.804357,0 -14.087891,6.28158 -14.087891,14.08594 l 0,227.33994 c 0,7.8043 6.283534,14.0878 14.087891,14.0878 l 165.16211,0 c 7.80436,0 14.08594,-6.2835 14.08594,-14.0878 l 0,-154.82237 -73.4668,-86.60351 z"
         style="fill:#df1818;fill-opacity:1" />
    </clipPath>
    <clipPath
       clipPathUnits="userSpaceOnUse"
       id="clipPath4791">
      <g
         id="g4793"
         transform="translate(168.80455,53.191645)">
        <path
           inkscape:connector-curvature="0"
           id="path4795"
           d="m -40.96861,743.56636 a 128,128 0 0 0 -127.83594,127.99414 128,128 0 0 0 128,128.00004 A 128,128 0 0 0 87.18764,871.72261 L -40.96861,743.56636 Z m 12.42383,0.60742 a 128,128 0 0 1 7.76757,1.1211 128,128 0 0 0 -7.76757,-1.1211 z m 12.58789,1.84961 a 128,128 0 0 1 8.42187,2.08984 128,128 0 0 0 -8.42187,-2.08984 z m 12.36328,3.09766 a 128,128 0 0 1 8.94531,3.19726 128,128 0 0 0 -8.94531,-3.19726 z m 11.98437,4.30468 a 128,128 0 0 1 9.34375,4.43946 128,128 0 0 0 -9.34375,-4.43946 z m 11.49805,5.47852 a 128,128 0 0 1 9.49414,5.73438 128,128 0 0 0 -9.49414,-5.73438 z m 10.90625,6.59961 a 128,128 0 0 1 9.66016,7.24414 128,128 0 0 0 -9.66016,-7.24414 z m 10.17773,7.63867 a 128,128 0 0 1 9.38868,8.62891 128,128 0 0 0 -9.38868,-8.62891 z m 9.38868,8.62891 0.98046,0.98047 a 128,128 0 0 0 -0.98046,-0.98047 z m 7.65039,8.57226 a 128,128 0 0 1 4.5039,5.92188 128,128 0 0 0 -4.5039,-5.92188 z m 7.63867,10.30469 a 128,128 0 0 1 3.81054,6.21289 128,128 0 0 0 -3.81054,-6.21289 z m 6.57617,11.03125 a 128,128 0 0 1 3.08203,6.37695 128,128 0 0 0 -3.08203,-6.37695 z m 5.4375,11.63867 a 128,128 0 0 1 2.37695,6.50782 128,128 0 0 0 -2.37695,-6.50782 z m 4.23242,12.09375 a 128,128 0 0 1 1.68555,6.59375 128,128 0 0 0 -1.68555,-6.59375 z m 3.00781,12.48633 a 128,128 0 0 1 0.99024,6.53906 128,128 0 0 0 -0.99024,-6.53906 z m 1.74024,12.71094 a 128,128 0 0 1 0.55078,10.95117 128,128 0 0 0 -0.55078,-10.95117 z"
           style="fill:#df1818;fill-opacity:1" />
        <path
           inkscape:connector-curvature="0"
           id="path4797"
           d="m 86.8096,870.94257 a 128,128 0 0 0 0.16406,-0.006 L -41.18258,742.78045 a 128,128 0 0 0 -0.008,0.16211 128,128 0 0 0 35.85352,88.80861 l 0.98046,0.98046 a 128,128 0 0 0 91.16603,38.21094 z"
           style="fill:#ff7272;fill-opacity:1" />
      </g>
    </clipPath>
    <clipPath
       id="clipPath1277"
       clipPathUnits="userSpaceOnUse">
      <path
         style="fill:#df1818;fill-opacity:1"
         d="M 127.83594,796.75801 A 128,128 0 0 0 0,924.75215 128,128 0 0 0 128,1052.7522 128,128 0 0 0 255.99219,924.91426 Z m 12.42383,0.60742 a 128,128 0 0 1 7.76757,1.1211 128,128 0 0 0 -7.76757,-1.1211 z m 12.58789,1.84961 a 128,128 0 0 1 8.42187,2.08984 128,128 0 0 0 -8.42187,-2.08984 z m 12.36328,3.09766 a 128,128 0 0 1 8.94531,3.19726 128,128 0 0 0 -8.94531,-3.19726 z m 11.98437,4.30468 a 128,128 0 0 1 9.34375,4.43946 128,128 0 0 0 -9.34375,-4.43946 z m 11.49805,5.47852 a 128,128 0 0 1 9.49414,5.73438 128,128 0 0 0 -9.49414,-5.73438 z m 10.90625,6.59961 a 128,128 0 0 1 9.66016,7.24414 128,128 0 0 0 -9.66016,-7.24414 z m 10.17773,7.63867 a 128,128 0 0 1 9.38868,8.62891 128,128 0 0 0 -9.38868,-8.62891 z m 9.38868,8.62891 0.98046,0.98047 a 128,128 0 0 0 -0.98046,-0.98047 z m 7.65039,8.57226 a 128,128 0 0 1 4.5039,5.92188 128,128 0 0 0 -4.5039,-5.92188 z m 7.63867,10.30469 a 128,128 0 0 1 3.81054,6.21289 128,128 0 0 0 -3.81054,-6.21289 z m 6.57617,11.03125 a 128,128 0 0 1 3.08203,6.37695 128,128 0 0 0 -3.08203,-6.37695 z m 5.4375,11.63867 a 128,128 0 0 1 2.37695,6.50782 128,128 0 0 0 -2.37695,-6.50782 z m 4.23242,12.09375 a 128,128 0 0 1 1.68555,6.59375 128,128 0 0 0 -1.68555,-6.59375 z m 3.00781,12.48633 a 128,128 0 0 1 0.99024,6.53906 128,128 0 0 0 -0.99024,-6.53906 z m 1.74024,12.71094 A 128,128 0 0 1 256,924.75215 128,128 0 0 0 255.44922,913.80098 Z"
         id="path1279"
         inkscape:connector-curvature="0" />
    </clipPath>
    <clipPath
       clipPathUnits="userSpaceOnUse"
       id="clipPath1278">
      <path
         style="fill:#df1818;fill-opacity:1"
         d="M 127.83594,796.75801 A 128,128 0 0 0 0,924.75215 128,128 0 0 0 128,1052.7522 128,128 0 0 0 255.99219,924.91426 Z m 12.42383,0.60742 a 128,128 0 0 1 7.76757,1.1211 128,128 0 0 0 -7.76757,-1.1211 z m 12.58789,1.84961 a 128,128 0 0 1 8.42187,2.08984 128,128 0 0 0 -8.42187,-2.08984 z m 12.36328,3.09766 a 128,128 0 0 1 8.94531,3.19726 128,128 0 0 0 -8.94531,-3.19726 z m 11.98437,4.30468 a 128,128 0 0 1 9.34375,4.43946 128,128 0 0 0 -9.34375,-4.43946 z m 11.49805,5.47852 a 128,128 0 0 1 9.49414,5.73438 128,128 0 0 0 -9.49414,-5.73438 z m 10.90625,6.59961 a 128,128 0 0 1 9.66016,7.24414 128,128 0 0 0 -9.66016,-7.24414 z m 10.17773,7.63867 a 128,128 0 0 1 9.38868,8.62891 128,128 0 0 0 -9.38868,-8.62891 z m 9.38868,8.62891 0.98046,0.98047 a 128,128 0 0 0 -0.98046,-0.98047 z m 7.65039,8.57226 a 128,128 0 0 1 4.5039,5.92188 128,128 0 0 0 -4.5039,-5.92188 z m 7.63867,10.30469 a 128,128 0 0 1 3.81054,6.21289 128,128 0 0 0 -3.81054,-6.21289 z m 6.57617,11.03125 a 128,128 0 0 1 3.08203,6.37695 128,128 0 0 0 -3.08203,-6.37695 z m 5.4375,11.63867 a 128,128 0 0 1 2.37695,6.50782 128,128 0 0 0 -2.37695,-6.50782 z m 4.23242,12.09375 a 128,128 0 0 1 1.68555,6.59375 128,128 0 0 0 -1.68555,-6.59375 z m 3.00781,12.48633 a 128,128 0 0 1 0.99024,6.53906 128,128 0 0 0 -0.99024,-6.53906 z m 1.74024,12.71094 A 128,128 0 0 1 256,924.75215 128,128 0 0 0 255.44922,913.80098 Z"
         id="path1280"
         inkscape:connector-curvature="0" />
    </clipPath>
  </defs>
  <metadata
     id="metadata7">
    <rdf:RDF>
      <cc:Work
         rdf:about="">
        <dc:format>image/svg+xml</dc:format>
        <dc:type
           rdf:resource="http://purl.org/dc/dcmitype/StillImage" />
        <dc:title />
      </cc:Work>
    </rdf:RDF>
  </metadata>
  <g
     inkscape:label="Layer 1"
     inkscape:groupmode="layer"
     id="layer1"
     transform="translate(0,-796.36214)">
    <path
       inkscape:connector-curvature="0"
       id="path4957"
       d="M 127.83594,796.75801 A 128,128 0 0 0 0,924.75215 128,128 0 0 0 128,1052.7522 128,128 0 0 0 255.99219,924.91426 Z m 12.42383,0.60742 a 128,128 0 0 1 7.76757,1.1211 128,128 0 0 0 -7.76757,-1.1211 z m 12.58789,1.84961 a 128,128 0 0 1 8.42187,2.08984 128,128 0 0 0 -8.42187,-2.08984 z m 12.36328,3.09766 a 128,128 0 0 1 8.94531,3.19726 128,128 0 0 0 -8.94531,-3.19726 z m 11.98437,4.30468 a 128,128 0 0 1 9.34375,4.43946 128,128 0 0 0 -9.34375,-4.43946 z m 11.49805,5.47852 a 128,128 0 0 1 9.49414,5.73438 128,128 0 0 0 -9.49414,-5.73438 z m 10.90625,6.59961 a 128,128 0 0 1 9.66016,7.24414 128,128 0 0 0 -9.66016,-7.24414 z m 10.17773,7.63867 a 128,128 0 0 1 9.38868,8.62891 128,128 0 0 0 -9.38868,-8.62891 z m 9.38868,8.62891 0.98046,0.98047 a 128,128 0 0 0 -0.98046,-0.98047 z m 7.65039,8.57226 a 128,128 0 0 1 4.5039,5.92188 128,128 0 0 0 -4.5039,-5.92188 z m 7.63867,10.30469 a 128,128 0 0 1 3.81054,6.21289 128,128 0 0 0 -3.81054,-6.21289 z m 6.57617,11.03125 a 128,128 0 0 1 3.08203,6.37695 128,128 0 0 0 -3.08203,-6.37695 z m 5.4375,11.63867 a 128,128 0 0 1 2.37695,6.50782 128,128 0 0 0 -2.37695,-6.50782 z m 4.23242,12.09375 a 128,128 0 0 1 1.68555,6.59375 128,128 0 0 0 -1.68555,-6.59375 z m 3.00781,12.48633 a 128,128 0 0 1 0.99024,6.53906 128,128 0 0 0 -0.99024,-6.53906 z m 1.74024,12.71094 A 128,128 0 0 1 256,924.75215 128,128 0 0 0 255.44922,913.80098 Z"
       style="fill:#df1818;fill-opacity:1" />
    <path
       inkscape:connector-curvature="0"
       id="rect4961"
       d="m 255.61415,924.13422 a 128,128 0 0 0 0.16406,-0.006 L 127.62197,795.97209 a 128,128 0 0 0 -0.008,0.16211 128,128 0 0 0 35.85352,88.80861 l 0.98046,0.98046 a 128,128 0 0 0 91.16603,38.21095 z"
       style="fill:#ff7272;fill-opacity:1" />
    <g
       id="g1148"
       clip-path="url(#clipPath1278)">
      <g
         id="g1145"
         style="opacity:1;fill:#880e0e;fill-opacity:1;stroke:none;stroke-width:0.93023258">
        <path
           id="path963"
           d="M106.87908 954.72202C110.53162 947.73895 114.68307 939.86974 118.00613 931.96844L-23.4152262373 1073.38979624C-26.7382862373 1081.29109624 -30.8897362373 1089.16030624 -34.5422762373 1096.14337624Z" />
        <path
           id="path965"
           d="M118.00613 931.96844L118.00613 931.96844L-23.4152262373 1073.38979624L-23.4152262373 1073.38979624Z" />
        <path
           id="path967"
           d="M118.00613 931.96844L119.31934 928.85104L-22.1020162373 1070.27239624L-23.4152262373 1073.38979624Z" />
        <path
           id="path969"
           d="M119.31934 928.85104C114.97961 912.74081 112.37671 899.8076 114.70191 891.44713L-26.7194462373 1032.86848624C-29.0446462373 1041.22895624 -26.4417462373 1054.16216624 -22.1020162373 1070.27239624Z" />
        <path
           id="path971"
           d="M114.70191 891.44713L114.70191 891.44713L-26.7194462373 1032.86848624L-26.7194462373 1032.86848624Z" />
        <path
           id="path973"
           d="M114.70191 891.44713C114.887241357 890.801488498 115.244602909 890.231101277 115.727705864 889.747998322L-25.6936503735 1031.16935456C-26.1767533284 1031.65245751 -26.5341148803 1032.22284474 -26.7194462373 1032.86848624Z" />
        <path
           id="path975"
           d="M115.727705864 889.747998322C116.876422185 888.599282001 118.73606467 887.94406 120.68434 887.94406L-20.7370162373 1029.36541624C-22.6852915675 1029.36541624 -24.5449340524 1030.02063824 -25.6936503735 1031.16935456Z" />
        <path
           id="path977"
           d="M120.68434 887.94406L120.68434 887.94406L-20.7370162373 1029.36541624L-20.7370162373 1029.36541624Z" />
        <path
           id="path979"
           d="M120.68434 887.94406L122.3694 887.96636L-19.0519562373 1029.38771624L-20.7370162373 1029.36541624Z" />
        <path
           id="path981"
           d="M122.3694 887.96636L122.68005 887.96636L-18.7413062373 1029.38771624L-19.0519562373 1029.38771624Z" />
        <path
           id="path983"
           d="M122.68005 887.96636C126.46908 887.91146 128.25299 892.61259 128.45538 894.43985L-12.9659762373 1035.86120624C-13.1683662373 1034.03394624 -14.9522762373 1029.33281624 -18.7413062373 1029.38771624Z" />
        <path
           id="path985"
           d="M128.45538 894.43985L128.45538 894.43985L-12.9659762373 1035.86120624L-12.9659762373 1035.86120624Z" />
        <path
           id="path987"
           d="M128.45538 894.43985C128.78957 897.48375 127.34456 902.63501 127.34456 902.63501L-14.0767962373 1044.05636624C-14.0767962373 1044.05636624 -12.6317862373 1038.90510624 -12.9659762373 1035.86120624Z" />
        <path
           id="path989"
           d="M127.34456 902.63501L127.34456 902.63501L-14.0767962373 1044.05636624L-14.0767962373 1044.05636624Z" />
        <path
           id="path991"
           d="M127.34456 902.63501C127.34456 900.5552 127.42926 897.19454 126.08312 894.29296L-15.3382362373 1035.71431624C-13.9920962373 1038.61589624 -14.0767962373 1041.97655624 -14.0767962373 1044.05636624Z" />
        <path
           id="path993"
           d="M126.08312 894.29296L126.08312 894.29296L-15.3382362373 1035.71431624L-15.3382362373 1035.71431624Z" />
        <path
           id="path995"
           d="M126.08312 894.29296C124.51573 890.93678 123.01894 888.93045 121.67749 888.61371L-19.7438662373 1030.03506624C-18.4024162373 1030.35180624 -16.9056262373 1032.35813624 -15.3382362373 1035.71431624Z" />
        <path
           id="path997"
           d="M121.67749 888.61371L121.67749 888.61371L-19.7438662373 1030.03506624L-19.7438662373 1030.03506624Z" />
        <path
           id="path999"
           d="M121.67749 888.61371C121.53729857 888.704870936 121.39791271 888.816264369 121.262997457 888.951179622L-20.1583587804 1030.37253586C-20.0234435277 1030.23762061 -19.8840576672 1030.12622717 -19.7438662373 1030.03506624Z" />
        <path
           id="path1001"
           d="M121.262997457 888.951179622C120.745631688 889.468545391 120.294007455 890.331806093 120.1148 891.72645L-21.3065562373 1033.14780624C-21.1273487823 1031.75316233 -20.6757245496 1030.88990163 -20.1583587804 1030.37253586Z" />
        <path
           id="path1003"
           d="M120.1148 891.72645L120.1148 891.72645L-21.3065562373 1033.14780624L-21.3065562373 1033.14780624Z" />
        <path
           id="path1005"
           d="M120.1148 891.72645C119.64883 894.19194 119.50762 897.30468 119.50762 898.90701L-21.9137362373 1040.32836624C-21.9137362373 1038.72603624 -21.7725262373 1035.61329624 -21.3065562373 1033.14780624Z" />
        <path
           id="path1007"
           d="M119.50762 898.90701L119.50762 898.90701L-21.9137362373 1040.32836624L-21.9137362373 1040.32836624Z" />
        <path
           id="path1009"
           d="M119.50762 898.90701C119.50762 904.57706 120.65139 912.05603 122.90128 919.76906L-18.5200762373 1061.19041624C-20.7699662373 1053.47738624 -21.9137362373 1045.99841624 -21.9137362373 1040.32836624Z" />
        <path
           id="path1011"
           d="M122.90128 919.76906L122.90128 919.76906L-18.5200762373 1061.19041624L-18.5200762373 1061.19041624Z" />
        <path
           id="path1013"
           d="M122.90128 919.76906C123.3249 918.57538 123.69674 917.42766 123.99327 916.35334L-17.4280862373 1057.77469624C-17.7246162373 1058.84901624 -18.0964562373 1059.99673624 -18.5200762373 1061.19041624Z" />
        <path
           id="path1015"
           d="M123.99327 916.35334L123.99327 916.35334L-17.4280862373 1057.77469624L-17.4280862373 1057.77469624Z" />
        <path
           id="path1017"
           d="M123.99327 916.35334C124.45454 914.6592 127.38692 903.42924 127.38692 903.42924L-14.0344362373 1044.85059624C-14.0344362373 1044.85059624 -16.9668162373 1056.08055624 -17.4280862373 1057.77469624Z" />
        <path
           id="path1019"
           d="M127.38692 903.42924L127.38692 903.42924L-14.0344362373 1044.85059624L-14.0344362373 1044.85059624Z" />
        <path
           id="path1021"
           d="M127.38692 903.42924C127.38692 903.42924 126.64795 918.37799 125.61714 922.90022L-15.8042162373 1064.32157624C-14.7734062373 1059.79934624 -14.0344362373 1044.85059624 -14.0344362373 1044.85059624Z" />
        <path
           id="path1023"
           d="M125.61714 922.90022L125.61714 922.90022L-15.8042162373 1064.32157624L-15.8042162373 1064.32157624Z" />
        <path
           id="path1025"
           d="M125.61714 922.90022C125.39591 923.8552 125.15116 924.80096 124.89699 925.76971L-16.5243662373 1067.19106624C-16.2701962373 1066.22231624 -16.0254462373 1065.27655624 -15.8042162373 1064.32157624Z" />
        <path
           id="path1027"
           d="M124.89699 925.76971L124.89699 925.76971L-16.5243662373 1067.19106624L-16.5243662373 1067.19106624Z" />
        <path
           id="path1029"
           d="M124.89699 925.76971C128.606 935.87473 134.57902 944.89176 141.70522 951.38357L0.28386376269 1092.80492624C-6.84233623731 1086.31311624 -12.8153562373 1077.29608624 -16.5243662373 1067.19106624Z" />
        <path
           id="path1031"
           d="M141.70522 951.38357L141.70522 951.38357L0.28386376269 1092.80492624L0.28386376269 1092.80492624Z" />
        <path
           id="path1033"
           d="M141.70522 951.38357C144.51522 953.94552 148.0642 956.01148 151.42491 957.8938L10.0035537627 1099.31515624C6.64284376269 1097.43283624 3.09386376269 1095.36687624 0.28386376269 1092.80492624Z" />
        <path
           id="path1035"
           d="M151.42491 957.8938L151.42491 957.8938L10.0035537627 1099.31515624L10.0035537627 1099.31515624Z" />
        <path
           id="path1037"
           d="M151.42491 957.8938C158.75821 956.86999 165.51257 956.38794 171.14669 956.44766L29.7253337627 1097.86901624C24.0912137627 1097.80929624 17.3368537627 1098.29134624 10.0035537627 1099.31515624Z" />
        <path
           id="path1039"
           d="M171.14669 956.44766L171.14669 956.44766L29.7253337627 1097.86901624L29.7253337627 1097.86901624Z" />
        <path
           id="path1041"
           d="M171.14669 956.44766C178.62121 956.54406 184.10942 957.62292 186.33106 959.7578L44.9097037627 1101.17915624C42.6880637627 1099.04427624 37.1998537627 1097.96541624 29.7253337627 1097.86901624Z" />
        <path
           id="path1043"
           d="M186.33106 959.7578L186.33106 959.7578L44.9097037627 1101.17915624L44.9097037627 1101.17915624Z" />
        <path
           id="path1045"
           d="M186.33106 959.7578C187.41835 960.79548 187.86079 962.04878 187.99729 963.45371L46.5759337627 1104.87506624C46.4394337627 1103.47013624 45.9969937627 1102.21683624 44.9097037627 1101.17915624Z" />
        <path
           id="path1047"
           d="M187.99729 963.45371L187.99729 963.45371L46.5759337627 1104.87506624L46.5759337627 1104.87506624Z" />
        <path
           id="path1049"
           d="M187.99729 963.45371C188.02999 964.00004 187.75724 965.28552 187.67723 965.60692L46.2558737627 1107.02827624C46.3358837627 1106.70687624 46.6086337627 1105.42139624 46.5759337627 1104.87506624Z" />
        <path
           id="path1051"
           d="M187.67723 965.60692L187.67723 965.60692L46.2558737627 1107.02827624L46.2558737627 1107.02827624Z" />
        <path
           id="path1053"
           d="M187.67723 965.60692C187.75723 965.21669 187.75723 963.29762 181.75598 961.42897L40.3346237627 1102.85032624C46.3358737627 1104.71897624 46.3358737627 1106.63804624 46.2558737627 1107.02827624Z" />
        <path
           id="path1055"
           d="M181.75598 961.42897L181.75598 961.42897L40.3346237627 1102.85032624L40.3346237627 1102.85032624Z" />
        <path
           id="path1057"
           d="M181.75598 961.42897C177.03029 959.95529 168.18607 960.00115 157.57208 961.10301L16.1507237627 1102.52436624C26.7647137627 1101.42250624 35.6089337627 1101.37664624 40.3346237627 1102.85032624Z" />
        <path
           id="path1059"
           d="M157.57208 961.10301L157.57208 961.10301L16.1507237627 1102.52436624L16.1507237627 1102.52436624Z" />
        <path
           id="path1061"
           d="M157.57208 961.10301C169.8476 966.96134 181.80776 969.87213 185.59679 968.12748L44.1754337627 1109.54883624C40.3864037627 1111.29348624 28.4262437627 1108.38269624 16.1507237627 1102.52436624Z" />
        <path
           id="path1063"
           d="M185.59679 968.12748L185.59679 968.12748L44.1754337627 1109.54883624L44.1754337627 1109.54883624Z" />
        <path
           id="path1065"
           d="M185.59679 968.12748C185.960815052 967.954447871 186.355308779 967.617960065 186.700243236 967.273025608L45.2788869984 1108.69438184C44.9339525414 1109.0393163 44.5394588147 1109.37580411 44.1754337627 1109.54883624Z" />
        <path
           id="path1067"
           d="M186.700243236 967.273025608C187.233930932 966.739337911 187.64898 966.18543 187.64898 966.18543L46.2276237627 1107.60678624C46.2276237627 1107.60678624 45.8125746951 1108.16069415 45.2788869984 1108.69438184Z" />
        <path
           id="path1069"
           d="M187.64898 966.18543L187.64898 966.18543L46.2276237627 1107.60678624L46.2276237627 1107.60678624Z" />
        <path
           id="path1071"
           d="M187.64898 966.18543C187.64898 966.18543 186.98061 969.14664 186.50051 969.8859L45.0791537627 1111.30725624C45.5592537627 1110.56799624 46.2276237627 1107.60678624 46.2276237627 1107.60678624Z" />
        <path
           id="path1073"
           d="M186.50051 969.8859L186.50051 969.8859L45.0791537627 1111.30725624L45.0791537627 1111.30725624Z" />
        <path
           id="path1075"
           d="M186.50051 969.8859C186.387662532 970.034071547 186.254804539 970.184584429 186.106010198 970.33337877L44.6846539608 1111.75473501C44.8334483014 1111.60594067 44.9663062947 1111.45542778 45.0791537627 1111.30725624Z" />
        <path
           id="path1077"
           d="M186.106010198 970.33337877C185.447987526 970.991401442 184.478292935 971.615814079 183.5493 971.85548L42.1279437627 1113.27683624C43.056936698 1113.03717032 44.0266312887 1112.41275768 44.6846539608 1111.75473501Z" />
        <path
           id="path1079"
           d="M183.5493 971.85548L183.5493 971.85548L42.1279437627 1113.27683624L42.1279437627 1113.27683624Z" />
        <path
           id="path1081"
           d="M183.5493 971.85548C177.56216 973.41185 161.98241 969.80785 148.39839 962.23706L6.97703376269 1103.65841624C20.5610537627 1111.22920624 36.1408037627 1114.83320624 42.1279437627 1113.27683624Z" />
        <path
           id="path1083"
           d="M148.39839 962.23706L148.39839 962.23706L6.97703376269 1103.65841624L6.97703376269 1103.65841624Z" />
        <path
           id="path1085"
           d="M148.39839 962.23706C133.22345 964.4178 116.55641 968.44422 103.19831 972.71855L-38.2230462373 1114.13990624C-24.8649462373 1109.86557624 -8.19790623731 1105.83915624 6.97703376269 1103.65841624Z" />
        <path
           id="path1087"
           d="M103.19831 972.71855L103.19831 972.71855L-38.2230462373 1114.13990624L-38.2230462373 1114.13990624Z" />
        <path
           id="path1089"
           d="M103.19831 972.71855C96.9076667825 983.47244961 91.364963046 991.439899506 86.4143014106 996.390561141L-55.0070548267 1137.81191738C-50.0563931914 1132.86125574 -44.5136894548 1124.89380585 -38.2230462373 1114.13990624Z" />
        <path
           id="path1091"
           d="M86.4143014106 996.390561141C81.0338108025 1001.77105175 76.3526303861 1003.5881627 72.170629 1001.5462L-69.2507272373 1142.96755624C-65.0687258512 1145.00951894 -60.3875454348 1143.19240799 -55.0070548267 1137.81191738Z" />
        <path
           id="path1093"
           d="M72.170629 1001.5462L72.170629 1001.5462L-69.2507272373 1142.96755624L-69.2507272373 1142.96755624Z" />
        <path
           id="path1095"
           d="M72.170629 1001.5462L69.21942 1000.1L-72.2019362373 1141.52135624L-69.2507272373 1142.96755624Z" />
        <path
           id="path1097"
           d="M69.21942 1000.1C68.019169 999.42973 67.835596 997.79993 68.113308 996.47303L-73.3080482373 1137.89438624C-73.5857602373 1139.22128624 -73.4021872373 1140.85108624 -72.2019362373 1141.52135624Z" />
        <path
           id="path1099"
           d="M68.113308 996.47303L68.113308 996.47303L-73.3080482373 1137.89438624L-73.3080482373 1137.89438624Z" />
        <path
           id="path1101"
           d="M68.113308 996.47303C68.6007549054 994.148258481 70.3897139501 991.210500234 73.619495987 987.980718197L-67.8018602503 1129.40207443C-71.0316422872 1132.63185647 -72.8206013319 1135.56961472 -73.3080482373 1137.89438624Z" />
        <path
           id="path1103"
           d="M73.619495987 987.980718197C76.5959506476 985.004263537 80.7960708868 981.779798217 86.328891 978.55853L-55.0924652373 1119.97988624C-60.6252853505 1123.20115445 -64.8254055897 1126.42561977 -67.8018602503 1129.40207443Z" />
        <path
           id="path1105"
           d="M86.328891 978.55853L86.328891 978.55853L-55.0924652373 1119.97988624L-55.0924652373 1119.97988624Z" />
        <path
           id="path1107"
           d="M86.328891 978.55853C87.571505 977.82393 93.102082 974.97287 93.102082 974.97287L-48.3192742373 1116.39422624C-48.3192742373 1116.39422624 -53.8498512373 1119.24528624 -55.0924652373 1119.97988624Z" />
        <path
           id="path1109"
           d="M93.102082 974.97287L93.102082 974.97287L-48.3192742373 1116.39422624L-48.3192742373 1116.39422624Z" />
        <path
           id="path1111"
           d="M93.102082 974.97287C93.102082 974.97287 89.007105 978.83853 88.0469 979.59613L-53.3744562373 1121.01748624C-52.4142512373 1120.25988624 -48.3192742373 1116.39422624 -48.3192742373 1116.39422624Z" />
        <path
           id="path1113"
           d="M88.0469 979.59613L88.0469 979.59613L-53.3744562373 1121.01748624L-53.3744562373 1121.01748624Z" />
        <path
           id="path1115"
           d="M88.0469 979.59613C85.8992035357 981.312932671 83.8826498631 983.13317345 82.0550786334 984.96074468L-59.366277604 1126.38210092C-57.5387063742 1124.55452969 -55.5221527017 1122.73428891 -53.3744562373 1121.01748624Z" />
        <path
           id="path1117"
           d="M82.0550786334 984.96074468C76.0483129944 990.967510319 72.0830700345 997.053464701 72.212992 999.80623L-69.2083642373 1141.22758624C-69.3382862028 1138.47482094 -65.3730432429 1132.38886656 -59.366277604 1126.38210092Z" />
        <path
           id="path1119"
           d="M72.212992 999.80623L72.212992 999.80623L-69.2083642373 1141.22758624L-69.2083642373 1141.22758624Z" />
        <path
           id="path1121"
           d="M72.212992 999.80623L72.245922 1000.1184L-69.1754342373 1141.53975624L-69.2083642373 1141.22758624Z" />
        <path
           id="path1123"
           d="M72.245922 1000.1184C74.7713296275 999.767142956 77.7038795797 997.911080148 81.024885671 994.590074057L-60.3964705663 1136.01143029C-63.7174766576 1139.33243639 -66.6500266098 1141.18849919 -69.1754342373 1141.53975624Z" />
        <path
           id="path1125"
           d="M81.024885671 994.590074057C87.9911810305 987.623778697 96.666729634 974.211558542 106.87906 954.72134L-34.5422962373 1096.14269624C-44.7546266033 1115.63291478 -53.4301752068 1129.04513493 -60.3964705663 1136.01143029Z" />
        <path
           id="path1127"
           d="M111.65654 957.10878C109.13837 961.73659 106.67667 966.02469 104.40325 969.96394L-37.0181062373 1111.38529624C-34.7446862373 1107.44604624 -32.2829862373 1103.15794624 -29.7648162373 1098.53013624Z" />
        <path
           id="path1129"
           d="M104.40325 969.96394L104.40325 969.96394L-37.0181062373 1111.38529624L-37.0181062373 1111.38529624Z" />
        <path
           id="path1131"
           d="M104.40325 969.96394C116.97531 964.82645 130.50756 961.5392 143.39027 959.20227L1.96891376269 1100.62362624C-10.9137962373 1102.96055624 -24.4460462373 1106.24780624 -37.0181062373 1111.38529624Z" />
        <path
           id="path1133"
           d="M143.39027 959.20227L143.39027 959.20227L1.96891376269 1100.62362624L1.96891376269 1100.62362624Z" />
        <path
           id="path1135"
           d="M143.39027 959.20227C141.65813 958.03613 139.97778 956.80115 138.39627 955.49724L-3.02508623731 1096.91859624C-1.44357623731 1098.22250624 0.236773762691 1099.45748624 1.96891376269 1100.62362624Z" />
        <path
           id="path1137"
           d="M138.39627 955.49724L138.39627 955.49724L-3.02508623731 1096.91859624L-3.02508623731 1096.91859624Z" />
        <path
           id="path1139"
           d="M138.39627 955.49724C131.30302 949.63901 125.89482 942.3299 121.974 934.63976L-19.4473562373 1076.06111624C-15.5265362373 1083.75125624 -10.1183362373 1091.06036624 -3.02508623731 1096.91859624Z" />
        <path
           id="path1141"
           d="M121.974 934.63976L121.974 934.63976L-19.4473562373 1076.06111624L-19.4473562373 1076.06111624Z" />
        <path
           id="path1143"
           d="M121.974 934.63976C119.48878 941.17296 116.53286 948.11473 111.65654 957.10878L-29.7648162373 1098.53013624C-24.8884962373 1089.53608624 -21.9325762373 1082.59431624 -19.4473562373 1076.06111624Z" />
      </g>
      <path
         d="m 106.87908,954.72202 c 3.65254,-6.98307 7.80399,-14.85228 11.12705,-22.75358 v 0 l 1.31321,-3.1174 c -4.33973,-16.11023 -6.94263,-29.04344 -4.61743,-37.40391 v 0 c 0.62601,-2.18084 3.21479,-3.50307 5.98243,-3.50307 v 0 l 1.68506,0.0223 h 0.31065 c 3.78903,-0.0549 5.57294,4.64623 5.77533,6.47349 v 0 c 0.33419,3.0439 -1.11082,8.19516 -1.11082,8.19516 v 0 c 0,-2.07981 0.0847,-5.44047 -1.26144,-8.34205 v 0 c -1.56739,-3.35618 -3.06418,-5.36251 -4.40563,-5.67925 v 0 c -0.67779,0.44074 -1.33675,1.35441 -1.56269,3.11274 v 0 c -0.46597,2.46549 -0.60718,5.57823 -0.60718,7.18056 v 0 c 0,5.67005 1.14377,13.14902 3.39366,20.86205 v 0 c 0.42362,-1.19368 0.79546,-2.3414 1.09199,-3.41572 v 0 c 0.46127,-1.69414 3.39365,-12.9241 3.39365,-12.9241 v 0 c 0,0 -0.73897,14.94875 -1.76978,19.47098 v 0 c -0.22123,0.95498 -0.46598,1.90074 -0.72015,2.86949 v 0 c 3.70901,10.10502 9.68203,19.12205 16.80823,25.61386 v 0 c 2.81,2.56195 6.35898,4.62791 9.71969,6.51023 v 0 c 7.3333,-1.02381 14.08766,-1.50586 19.72178,-1.44614 v 0 c 7.47452,0.0964 12.96273,1.17526 15.18437,3.31014 v 0 c 1.08729,1.03768 1.52973,2.29098 1.66623,3.69591 v 0 c 0.0327,0.54633 -0.24005,1.83181 -0.32006,2.15321 v 0 c 0.08,-0.39023 0.08,-2.3093 -5.92125,-4.17795 v 0 c -4.72569,-1.47368 -13.56991,-1.42782 -24.1839,-0.32596 v 0 c 12.27552,5.85833 24.23568,8.76912 28.02471,7.02447 v 0 c 0.92725,-0.44075 2.05219,-1.94205 2.05219,-1.94205 v 0 c 0,0 -0.66837,2.96121 -1.14847,3.70047 v 0 c -0.6119,0.80344 -1.81215,1.67572 -2.95121,1.96958 v 0 c -5.98714,1.55637 -21.56689,-2.04763 -35.15091,-9.61842 v 0 c -15.17494,2.18074 -31.84198,6.20716 -45.20008,10.48149 v 0 C 90.070854,995.16003 80.200546,1005.467 72.170629,1001.5462 v 0 L 69.21942,1000.1 c -1.200251,-0.67027 -1.383824,-2.30007 -1.106112,-3.62697 v 0 c 0.936661,-4.4672 6.679042,-11.1978 18.215583,-17.9145 v 0 c 1.242614,-0.7346 6.773191,-3.58566 6.773191,-3.58566 v 0 c 0,0 -4.094977,3.86566 -5.055182,4.62326 v 0 c -9.206633,7.3595 -16.003359,16.6198 -15.833908,20.2101 v 0 l 0.03293,0.31217 c 7.822819,-1.08807 19.552336,-16.61537 34.633138,-45.39706 m 4.77748,2.38744 c -2.51817,4.62781 -4.97987,8.91591 -7.25329,12.85516 v 0 c 12.57206,-5.13749 26.10431,-8.42474 38.98702,-10.76167 v 0 c -1.73214,-1.16614 -3.41249,-2.40112 -4.994,-3.70503 v 0 C 131.30302,949.63901 125.89482,942.3299 121.974,934.63976 v 0 c -2.48522,6.5332 -5.44114,13.47497 -10.31746,22.46902"
         id="path932"
         style="opacity:1;fill:#880e0e;fill-opacity:1;stroke:none;stroke-width:0.93023258"
         inkscape:connector-curvature="0"
         sodipodi:nodetypes="ccccccccccccccccccccccccccccccccccccccccccccccccccccccccccccccccccccccccccccccccccccc" />
    </g>
    <path
       sodipodi:nodetypes="ccccccccccccccccccccccccccccccccccccccccccccccccccccccccccccccccccccccccccccccccccccc"
       inkscape:connector-curvature="0"
       style="opacity:1;fill:#ffffff;fill-opacity:1;stroke:none;stroke-width:0.93023258"
       id="path4905"
       d="m 106.87908,954.72202 c 3.65254,-6.98307 7.80399,-14.85228 11.12705,-22.75358 v 0 l 1.31321,-3.1174 c -4.33973,-16.11023 -6.94263,-29.04344 -4.61743,-37.40391 v 0 c 0.62601,-2.18084 3.21479,-3.50307 5.98243,-3.50307 v 0 l 1.68506,0.0223 h 0.31065 c 3.78903,-0.0549 5.57294,4.64623 5.77533,6.47349 v 0 c 0.33419,3.0439 -1.11082,8.19516 -1.11082,8.19516 v 0 c 0,-2.07981 0.0847,-5.44047 -1.26144,-8.34205 v 0 c -1.56739,-3.35618 -3.06418,-5.36251 -4.40563,-5.67925 v 0 c -0.67779,0.44074 -1.33675,1.35441 -1.56269,3.11274 v 0 c -0.46597,2.46549 -0.60718,5.57823 -0.60718,7.18056 v 0 c 0,5.67005 1.14377,13.14902 3.39366,20.86205 v 0 c 0.42362,-1.19368 0.79546,-2.3414 1.09199,-3.41572 v 0 c 0.46127,-1.69414 3.39365,-12.9241 3.39365,-12.9241 v 0 c 0,0 -0.73897,14.94875 -1.76978,19.47098 v 0 c -0.22123,0.95498 -0.46598,1.90074 -0.72015,2.86949 v 0 c 3.70901,10.10502 9.68203,19.12205 16.80823,25.61386 v 0 c 2.81,2.56195 6.35898,4.62791 9.71969,6.51023 v 0 c 7.3333,-1.02381 14.08766,-1.50586 19.72178,-1.44614 v 0 c 7.47452,0.0964 12.96273,1.17526 15.18437,3.31014 v 0 c 1.08729,1.03768 1.52973,2.29098 1.66623,3.69591 v 0 c 0.0327,0.54633 -0.24005,1.83181 -0.32006,2.15321 v 0 c 0.08,-0.39023 0.08,-2.3093 -5.92125,-4.17795 v 0 c -4.72569,-1.47368 -13.56991,-1.42782 -24.1839,-0.32596 v 0 c 12.27552,5.85833 24.23568,8.76912 28.02471,7.02447 v 0 c 0.92725,-0.44075 2.05219,-1.94205 2.05219,-1.94205 v 0 c 0,0 -0.66837,2.96121 -1.14847,3.70047 v 0 c -0.6119,0.80344 -1.81215,1.67572 -2.95121,1.96958 v 0 c -5.98714,1.55637 -21.56689,-2.04763 -35.15091,-9.61842 v 0 c -15.17494,2.18074 -31.84198,6.20716 -45.20008,10.48149 v 0 C 90.070854,995.16003 80.200546,1005.467 72.170629,1001.5462 v 0 L 69.21942,1000.1 c -1.200251,-0.67027 -1.383824,-2.30007 -1.106112,-3.62697 v 0 c 0.936661,-4.4672 6.679042,-11.1978 18.215583,-17.9145 v 0 c 1.242614,-0.7346 6.773191,-3.58566 6.773191,-3.58566 v 0 c 0,0 -4.094977,3.86566 -5.055182,4.62326 v 0 c -9.206633,7.3595 -16.003359,16.6198 -15.833908,20.2101 v 0 l 0.03293,0.31217 c 7.822819,-1.08807 19.552336,-16.61537 34.633138,-45.39706 m 4.77748,2.38744 c -2.51817,4.62781 -4.97987,8.91591 -7.25329,12.85516 v 0 c 12.57206,-5.13749 26.10431,-8.42474 38.98702,-10.76167 v 0 c -1.73214,-1.16614 -3.41249,-2.40112 -4.994,-3.70503 v 0 C 131.30302,949.63901 125.89482,942.3299 121.974,934.63976 v 0 c -2.48522,6.5332 -5.44114,13.47497 -10.31746,22.46902" />
  </g>
</svg>
