<?xml version="1.0" encoding="UTF-8" standalone="no"?>
<!-- Created with Inkscape (http://www.inkscape.org/) -->

<svg
   xmlns:dc="http://purl.org/dc/elements/1.1/"
   xmlns:cc="http://creativecommons.org/ns#"
   xmlns:rdf="http://www.w3.org/1999/02/22-rdf-syntax-ns#"
   xmlns:svg="http://www.w3.org/2000/svg"
   xmlns="http://www.w3.org/2000/svg"
   xmlns:sodipodi="http://sodipodi.sourceforge.net/DTD/sodipodi-0.dtd"
   xmlns:inkscape="http://www.inkscape.org/namespaces/inkscape"
   sodipodi:docname="application-certificate.svg"
   inkscape:version="0.92.2 (5c3e80d, 2017-08-06)"
   version="1.1"
   id="svg2"
   viewBox="0 0 256 256"
   height="256"
   width="256">
  <sodipodi:namedview
     inkscape:window-maximized="1"
     inkscape:window-y="0"
     inkscape:window-x="0"
     inkscape:window-height="1048"
     inkscape:window-width="1920"
     units="px"
     showgrid="false"
     inkscape:current-layer="layer1"
     inkscape:document-units="px"
     inkscape:cy="128"
     inkscape:cx="128"
     inkscape:zoom="3.3125"
     inkscape:pageshadow="2"
     inkscape:pageopacity="0.0"
     borderopacity="1.0"
     bordercolor="#666666"
     pagecolor="#ffffff"
     id="base" />
  <defs
     id="defs4">
    <filter
       id="filter4301"
       inkscape:label="Drop Shadow"
       style="color-interpolation-filters:sRGB;">
      <feFlood
         id="feFlood4303"
         result="flood"
         flood-color="rgb(0,0,0)"
         flood-opacity="0.498039" />
      <feComposite
         id="feComposite4305"
         result="composite1"
         operator="in"
         in2="SourceGraphic"
         in="flood" />
      <feGaussianBlur
         id="feGaussianBlur4307"
         result="blur"
         stdDeviation="3.7"
         in="composite1" />
      <feOffset
         id="feOffset4309"
         result="offset"
         dy="3.7"
         dx="3.8" />
      <feComposite
         id="feComposite4311"
         result="composite2"
         operator="over"
         in2="offset"
         in="SourceGraphic" />
    </filter>
    <clipPath
       clipPathUnits="userSpaceOnUse"
       id="clipPath4321">
      <path
         style="fill:#ec6155;fill-opacity:1"
         d="M 45.894155,-46.540706 A 56.84453,68.796377 0 0 0 -10.877516,22.252521 56.84453,68.796377 0 0 0 45.967014,91.048898 56.84453,68.796377 0 0 0 102.80808,22.339651 L 45.894155,-46.540706 Z m 5.517397,0.326471 a 56.84453,68.796377 0 0 1 3.449561,0.60256 56.84453,68.796377 0 0 0 -3.449561,-0.60256 z m 5.590255,0.994113 a 56.84453,68.796377 0 0 1 3.740135,1.12323 56.84453,68.796377 0 0 0 -3.740135,-1.12323 z m 5.490507,1.664905 a 56.84453,68.796377 0 0 1 3.972593,1.718437 56.84453,68.796377 0 0 0 -3.972593,-1.718437 z m 5.322233,2.313643 a 56.84453,68.796377 0 0 1 4.14954,2.386084 56.84453,68.796377 0 0 0 -4.14954,-2.386084 z m 5.10626,2.94455 a 56.84453,68.796377 0 0 1 4.216327,3.082067 56.84453,68.796377 0 0 0 -4.216327,-3.082067 z m 4.843443,3.547103 a 56.84453,68.796377 0 0 1 4.290056,3.893521 56.84453,68.796377 0 0 0 -4.290056,-3.893521 z m 4.519908,4.105569 a 56.84453,68.796377 0 0 1 4.169493,4.637795 56.84453,68.796377 0 0 0 -4.169493,-4.637795 z m 4.169493,4.637795 0.43542,0.526975 a 56.84453,68.796377 0 0 0 -0.43542,-0.526975 z m 3.397522,4.607347 a 56.84453,68.796377 0 0 1 2.000173,3.182843 56.84453,68.796377 0 0 0 -2.000173,-3.182843 z m 3.392317,5.538479 a 56.84453,68.796377 0 0 1 1.692253,3.339253 56.84453,68.796377 0 0 0 -1.692253,-3.339253 z m 2.920463,5.9289851 a 56.84453,68.796377 0 0 1 1.368724,3.4274301 56.84453,68.796377 0 0 0 -1.368724,-3.4274301 z m 2.414783,6.2554556 a 56.84453,68.796377 0 0 1 1.055598,3.49776908 56.84453,68.796377 0 0 0 -1.055598,-3.49776908 z m 1.879604,6.5000483 a 56.84453,68.796377 0 0 1 0.74855,3.543954 56.84453,68.796377 0 0 0 -0.74855,-3.543954 z m 1.33577,6.711049 a 56.84453,68.796377 0 0 1 0.43976,3.51456 56.84453,68.796377 0 0 0 -0.43976,-3.51456 z m 0.77283,6.83177 a 56.84453,68.796377 0 0 1 0.2446,5.885944 56.84453,68.796377 0 0 0 -0.2446,-5.885944 z"
         id="path4323"
         inkscape:connector-curvature="0" />
    </clipPath>
    <clipPath
       id="clipPath1111"
       clipPathUnits="userSpaceOnUse">
      <path
         style="fill:#ec6155;fill-opacity:1;stroke-width:1.08863842"
         d="M -69.590304,700.13678 A 128.35909,151.27273 0 0 0 -197.78488,851.40259 128.35909,151.27273 0 0 0 -69.425783,1002.6753 128.35909,151.27273 0 0 0 58.925478,851.59417 Z m 12.458684,0.71786 a 128.35909,151.27273 0 0 1 7.789362,1.32494 128.35909,151.27273 0 0 0 -7.789362,-1.32494 z m 12.623205,2.1859 a 128.35909,151.27273 0 0 1 8.445496,2.46981 128.35909,151.27273 0 0 0 -8.445496,-2.46981 z m 12.397964,3.66087 a 128.35909,151.27273 0 0 1 8.970405,3.77858 128.35909,151.27273 0 0 0 -8.970405,-3.77858 z m 12.017991,5.08735 a 128.35909,151.27273 0 0 1 9.369963,5.24664 128.35909,151.27273 0 0 0 -9.369963,-5.24664 z m 11.5303068,6.47462 a 128.35909,151.27273 0 0 1 9.52077501,6.77699 128.35909,151.27273 0 0 0 -9.52077501,-6.77699 z m 10.9368466,7.79954 a 128.35909,151.27273 0 0 1 9.6872606,8.56125 128.35909,151.27273 0 0 0 -9.6872606,-8.56125 z m 10.2062826,9.02752 a 128.35909,151.27273 0 0 1 9.415019,10.1978 128.35909,151.27273 0 0 0 -9.415019,-10.1978 z m 9.415019,10.1978 0.983211,1.15874 a 128.35909,151.27273 0 0 0 -0.983211,-1.15874 z m 7.671853,10.13085 a 128.35909,151.27273 0 0 1 4.516535,6.99859 128.35909,151.27273 0 0 0 -4.516535,-6.99859 z m 7.6601,12.17827 a 128.35909,151.27273 0 0 1 3.82123,7.34251 128.35909,151.27273 0 0 0 -3.82123,-7.34251 z m 6.594618,13.03693 a 128.35909,151.27273 0 0 1 3.090677,7.5364 128.35909,151.27273 0 0 0 -3.090677,-7.5364 z m 5.452755,13.7548 a 128.35909,151.27273 0 0 1 2.383618,7.69106 128.35909,151.27273 0 0 0 -2.383618,-7.69106 z m 4.244294,14.29261 a 128.35909,151.27273 0 0 1 1.690278,7.79261 128.35909,151.27273 0 0 0 -1.690278,-7.79261 z m 3.016248,14.75657 a 128.35909,151.27273 0 0 1 0.993018,7.72798 128.35909,151.27273 0 0 0 -0.993018,-7.72798 z m 1.745122,15.02202 a 128.35909,151.27273 0 0 1 0.552325,12.9423 128.35909,151.27273 0 0 0 -0.552325,-12.9423 z"
         id="path1113"
         inkscape:connector-curvature="0" />
    </clipPath>
    <clipPath
       clipPathUnits="userSpaceOnUse"
       id="clipPath1091">
      <path
         style="fill:#ecbb55;fill-opacity:1"
         d="M 127.83594,796.36506 A 128,128 0 0 0 0,924.3592 a 128,128 0 0 0 128,128 128,128 0 0 0 127.99219,-127.83789 z m 12.42383,0.60742 a 128,128 0 0 1 7.76757,1.1211 128,128 0 0 0 -7.76757,-1.1211 z m 12.58789,1.84961 a 128,128 0 0 1 8.42187,2.08984 128,128 0 0 0 -8.42187,-2.08984 z m 12.36328,3.09766 a 128,128 0 0 1 8.94531,3.19726 128,128 0 0 0 -8.94531,-3.19726 z m 11.98437,4.30468 a 128,128 0 0 1 9.34375,4.43946 128,128 0 0 0 -9.34375,-4.43946 z m 11.49805,5.47852 a 128,128 0 0 1 9.49414,5.73438 128,128 0 0 0 -9.49414,-5.73438 z m 10.90625,6.59961 a 128,128 0 0 1 9.66016,7.24414 128,128 0 0 0 -9.66016,-7.24414 z m 10.17773,7.63867 a 128,128 0 0 1 9.38868,8.62891 128,128 0 0 0 -9.38868,-8.62891 z m 9.38868,8.62891 0.98046,0.98047 a 128,128 0 0 0 -0.98046,-0.98047 z m 7.65039,8.57226 a 128,128 0 0 1 4.5039,5.92188 128,128 0 0 0 -4.5039,-5.92188 z m 7.63867,10.30469 a 128,128 0 0 1 3.81054,6.21289 128,128 0 0 0 -3.81054,-6.21289 z m 6.57617,11.03125 a 128,128 0 0 1 3.08203,6.37695 128,128 0 0 0 -3.08203,-6.37695 z m 5.4375,11.63867 a 128,128 0 0 1 2.37695,6.50782 128,128 0 0 0 -2.37695,-6.50782 z m 4.23242,12.09375 a 128,128 0 0 1 1.68555,6.59375 128,128 0 0 0 -1.68555,-6.59375 z m 3.00781,12.48633 a 128,128 0 0 1 0.99024,6.53906 128,128 0 0 0 -0.99024,-6.53906 z m 1.74024,12.71094 A 128,128 0 0 1 256,924.3592 128,128 0 0 0 255.44922,913.40803 Z"
         id="path1093"
         inkscape:connector-curvature="0" />
    </clipPath>
  </defs>
  <metadata
     id="metadata7">
    <rdf:RDF>
      <cc:Work
         rdf:about="">
        <dc:format>image/svg+xml</dc:format>
        <dc:type
           rdf:resource="http://purl.org/dc/dcmitype/StillImage" />
        <dc:title />
      </cc:Work>
    </rdf:RDF>
  </metadata>
  <g
     transform="translate(0,-796.36214)"
     id="layer1"
     inkscape:groupmode="layer"
     inkscape:label="Layer 1">
    <path
       inkscape:connector-curvature="0"
       id="path4957"
       d="M 127.83594,796.36506 A 128,128 0 0 0 0,924.3592 a 128,128 0 0 0 128,128 128,128 0 0 0 127.99219,-127.83789 L 127.83594,796.36506 Z m 12.42383,0.60742 a 128,128 0 0 1 7.76757,1.1211 128,128 0 0 0 -7.76757,-1.1211 z m 12.58789,1.84961 a 128,128 0 0 1 8.42187,2.08984 128,128 0 0 0 -8.42187,-2.08984 z m 12.36328,3.09766 a 128,128 0 0 1 8.94531,3.19726 128,128 0 0 0 -8.94531,-3.19726 z m 11.98437,4.30468 a 128,128 0 0 1 9.34375,4.43946 128,128 0 0 0 -9.34375,-4.43946 z m 11.49805,5.47852 a 128,128 0 0 1 9.49414,5.73438 128,128 0 0 0 -9.49414,-5.73438 z m 10.90625,6.59961 a 128,128 0 0 1 9.66016,7.24414 128,128 0 0 0 -9.66016,-7.24414 z m 10.17773,7.63867 a 128,128 0 0 1 9.38868,8.62891 128,128 0 0 0 -9.38868,-8.62891 z m 9.38868,8.62891 0.98046,0.98047 a 128,128 0 0 0 -0.98046,-0.98047 z m 7.65039,8.57226 a 128,128 0 0 1 4.5039,5.92188 128,128 0 0 0 -4.5039,-5.92188 z m 7.63867,10.30469 a 128,128 0 0 1 3.81054,6.21289 128,128 0 0 0 -3.81054,-6.21289 z m 6.57617,11.03125 a 128,128 0 0 1 3.08203,6.37695 128,128 0 0 0 -3.08203,-6.37695 z m 5.4375,11.63867 a 128,128 0 0 1 2.37695,6.50782 128,128 0 0 0 -2.37695,-6.50782 z m 4.23242,12.09375 a 128,128 0 0 1 1.68555,6.59375 128,128 0 0 0 -1.68555,-6.59375 z m 3.00781,12.48633 a 128,128 0 0 1 0.99024,6.53906 128,128 0 0 0 -0.99024,-6.53906 z m 1.74024,12.71094 A 128,128 0 0 1 256,924.3592 128,128 0 0 0 255.44922,913.40803 Z"
       style="fill:#ecbb55;fill-opacity:1" />
    <path
       inkscape:connector-curvature="0"
       id="rect4961"
       d="m 255.61415,924.52718 a 128,128 0 0 0 0.16406,-0.006 L 127.62197,796.36506 a 128,128 0 0 0 -0.008,0.16211 128,128 0 0 0 35.85352,88.80861 l 0.98046,0.98046 a 128,128 0 0 0 91.16603,38.21094 z"
       style="fill:#f4d79b;fill-opacity:1" />
    <text
       id="text4164"
       y="965.15338"
       x="54.857143"
       style="font-style:normal;font-weight:normal;line-height:0%;font-family:sans-serif;letter-spacing:0px;word-spacing:0px;fill:#000000;fill-opacity:1;stroke:none;stroke-width:1px;stroke-linecap:butt;stroke-linejoin:miter;stroke-opacity:1"
       xml:space="preserve"><tspan
         y="965.15338"
         x="54.857143"
         id="tspan4166"
         sodipodi:role="line"
         style="font-size:40px;line-height:1.25"> </tspan></text>
    <g
       id="g905"
       clip-path="url(#clipPath1091)"
       style="fill:#c08915;fill-opacity:1">
      <g
         id="g1017"
         transform="translate(0,796.36214)"
         style="fill:#c08915;fill-opacity:1">
        <g
           id="g1014"
           style="fill:#c08915;fill-opacity:1;stroke:none;stroke-width:0.72843033;stroke-linecap:square;stroke-linejoin:miter;stroke-miterlimit:4;stroke-dasharray:none;stroke-dashoffset:0;stroke-opacity:1">
          <path
             id="path930"
             d="M124.80859 119.8125L121.05078 131.12695L-20.3705762373 272.548306237L-16.6127662373 261.233856237Z"
             style="fill:#c08915;fill-opacity:1" />
          <path
             id="path932"
             d="M121.05078 131.12695L112.53906 122.78125L-28.8822962373 264.202606237L-20.3705762373 272.548306237Z"
             style="fill:#c08915;fill-opacity:1" />
          <path
             id="path934"
             d="M112.53906 122.78125L112.2832 134.69922L-29.1381562373 276.120576237L-28.8822962373 264.202606237Z"
             style="fill:#c08915;fill-opacity:1" />
          <path
             id="path936"
             d="M112.2832 134.69922L101.68945 129.23242L-39.7319062373 270.653776237L-29.1381562373 276.120576237Z"
             style="fill:#c08915;fill-opacity:1" />
          <path
             id="path938"
             d="M101.68945 129.23242L104.95703 140.69727L-36.4643262373 282.118626237L-39.7319062373 270.653776237Z"
             style="fill:#c08915;fill-opacity:1" />
          <path
             id="path940"
             d="M104.95703 140.69727L93.222656 138.5957L-48.1987002373 280.017056237L-36.4643262373 282.118626237Z"
             style="fill:#c08915;fill-opacity:1" />
          <path
             id="path942"
             d="M93.222656 138.5957L99.726562 148.58789L-41.6947942373 290.009246237L-48.1987002373 280.017056237Z"
             style="fill:#c08915;fill-opacity:1" />
          <path
             id="path944"
             d="M99.726562 148.58789L87.892578 150.03906L-53.5287782373 291.460416237L-41.6947942373 290.009246237Z"
             style="fill:#c08915;fill-opacity:1" />
          <path
             id="path946"
             d="M87.892578 150.03906L97.052734 157.66992L-44.3686222373 299.091276237L-53.5287782373 291.460416237Z"
             style="fill:#c08915;fill-opacity:1" />
          <path
             id="path948"
             d="M97.052734 157.66992L86.171875 162.54492L-55.2494812373 303.966276237L-44.3686222373 299.091276237Z"
             style="fill:#c08915;fill-opacity:1" />
          <path
             id="path950"
             d="M86.171875 162.54492L97.173828 167.13672L-44.2475282373 308.558076237L-55.2494812373 303.966276237Z"
             style="fill:#c08915;fill-opacity:1" />
          <path
             id="path952"
             d="M97.173828 167.13672L88.214844 175.00195L-53.2065122373 316.423306237L-44.2475282373 308.558076237Z"
             style="fill:#c08915;fill-opacity:1" />
          <path
             id="path954"
             d="M88.214844 175.00195L100.08203 176.14648L-41.3393262373 317.567836237L-53.2065122373 316.423306237Z"
             style="fill:#c08915;fill-opacity:1" />
          <path
             id="path956"
             d="M100.08203 176.14648L93.837891 186.30273L-47.5834652373 327.724086237L-41.3393262373 317.567836237Z"
             style="fill:#c08915;fill-opacity:1" />
          <path
             id="path958"
             d="M93.837891 186.30273L93.869141 186.29688L-47.5522152373 327.718236237L-47.5834652373 327.724086237Z"
             style="fill:#c08915;fill-opacity:1" />
          <path
             id="path960"
             d="M93.869141 186.29688L73.255859 213.02734L-68.1654972373 354.448696237L-47.5522152373 327.718236237Z"
             style="fill:#c08915;fill-opacity:1" />
          <path
             id="path962"
             d="M73.255859 213.02734L93.40625 209.4043L-48.0151062373 350.825656237L-68.1654972373 354.448696237Z"
             style="fill:#c08915;fill-opacity:1" />
          <path
             id="path964"
             d="M93.40625 209.4043L95.023438 229.8125L-46.3979182373 371.233856237L-48.0151062373 350.825656237Z"
             style="fill:#c08915;fill-opacity:1" />
          <path
             id="path966"
             d="M95.023438 229.8125L122.33594 194.39648L-19.0854162373 335.817836237L-46.3979182373 371.233856237Z"
             style="fill:#c08915;fill-opacity:1" />
          <path
             id="path968"
             d="M122.33594 194.39648L125.89648 204.26562L-15.5248762373 345.686976237L-19.0854162373 335.817836237Z"
             style="fill:#c08915;fill-opacity:1" />
          <path
             id="path970"
             d="M125.89648 204.26562L131.29883 193.63672L-10.1225262373 335.058076237L-15.5248762373 345.686976237Z"
             style="fill:#c08915;fill-opacity:1" />
          <path
             id="path972"
             d="M131.29883 193.63672L138.47266 203.16016L-2.94869623731 344.581516237L-10.1225262373 335.058076237Z"
             style="fill:#c08915;fill-opacity:1" />
          <path
             id="path974"
             d="M138.47266 203.16016L138.83008 201.09375L-2.59127623731 342.515106237L-2.94869623731 344.581516237Z"
             style="fill:#c08915;fill-opacity:1" />
          <path
             id="path976"
             d="M138.83008 201.09375L160.97656 229.8125L19.5552037627 371.233856237L-2.59127623731 342.515106237Z"
             style="fill:#c08915;fill-opacity:1" />
          <path
             id="path978"
             d="M160.97656 229.8125L162.59375 209.4043L21.1723937627 350.825656237L19.5552037627 371.233856237Z"
             style="fill:#c08915;fill-opacity:1" />
          <path
             id="path980"
             d="M162.59375 209.4043L182.74414 213.02734L41.3227837627 354.448696237L21.1723937627 350.825656237Z"
             style="fill:#c08915;fill-opacity:1" />
          <path
             id="path982"
             d="M182.74414 213.02734L156.9707 179.60547L15.5493437627 321.026826237L41.3227837627 354.448696237Z"
             style="fill:#c08915;fill-opacity:1" />
          <path
             id="path984"
             d="M156.9707 179.60547L166.9043 179.87891L25.4829437627 321.300266237L15.5493437627 321.026826237Z"
             style="fill:#c08915;fill-opacity:1" />
          <path
             id="path986"
             d="M166.9043 179.87891L158.98438 170.96875L17.5630237627 312.390106237L25.4829437627 321.300266237Z"
             style="fill:#c08915;fill-opacity:1" />
          <path
             id="path988"
             d="M158.98438 170.96875L170.46875 167.76953L29.0473937627 309.190886237L17.5630237627 312.390106237Z"
             style="fill:#c08915;fill-opacity:1" />
          <path
             id="path990"
             d="M170.46875 167.76953L160.27539 161.58984L18.8540337627 303.011196237L29.0473937627 309.190886237Z"
             style="fill:#c08915;fill-opacity:1" />
          <path
             id="path992"
             d="M160.27539 161.58984L170.30664 155.14648L28.8852837627 296.567836237L18.8540337627 303.011196237Z"
             style="fill:#c08915;fill-opacity:1" />
          <path
             id="path994"
             d="M170.30664 155.14648L158.74414 152.24609L17.3227837627 293.667446237L28.8852837627 296.567836237Z"
             style="fill:#c08915;fill-opacity:1" />
          <path
             id="path996"
             d="M158.74414 152.24609L166.43164 143.13477L25.0102837627 284.556126237L17.3227837627 293.667446237Z"
             style="fill:#c08915;fill-opacity:1" />
          <path
             id="path998"
             d="M166.43164 143.13477L154.52539 143.76953L13.1040337627 285.190886237L25.0102837627 284.556126237Z"
             style="fill:#c08915;fill-opacity:1" />
          <path
             id="path1000"
             d="M154.52539 143.76953L159.18555 132.79688L17.7641937627 274.218236237L13.1040337627 285.190886237Z"
             style="fill:#c08915;fill-opacity:1" />
          <path
             id="path1002"
             d="M159.18555 132.79688L147.99805 136.91406L6.57669376269 278.335416237L17.7641937627 274.218236237Z"
             style="fill:#c08915;fill-opacity:1" />
          <path
             id="path1004"
             d="M147.99805 136.91406L149.2168 125.05469L7.79544376269 266.476046237L6.57669376269 278.335416237Z"
             style="fill:#c08915;fill-opacity:1" />
          <path
             id="path1006"
             d="M149.2168 125.05469L139.73828 132.28516L-1.68307623731 273.706516237L7.79544376269 266.476046237Z"
             style="fill:#c08915;fill-opacity:1" />
          <path
             id="path1008"
             d="M139.73828 132.28516L137.40625 120.59375L-4.01510623731 262.015106237L-1.68307623731 273.706516237Z"
             style="fill:#c08915;fill-opacity:1" />
          <path
             id="path1010"
             d="M137.40625 120.59375L130.48242 130.29883L-10.9389362373 271.720186237L-4.01510623731 262.015106237Z"
             style="fill:#c08915;fill-opacity:1" />
          <path
             id="path1012"
             d="M130.48242 130.29883L124.80859 119.8125L-16.6127662373 261.233856237L-10.9389362373 271.720186237Z"
             style="fill:#c08915;fill-opacity:1" />
        </g>
        <path
           id="path899"
           transform=""
           d="M 124.80859 119.8125 L 121.05078 131.12695 L 112.53906 122.78125 L 112.2832 134.69922 L 101.68945 129.23242 L 104.95703 140.69727 L 93.222656 138.5957 L 99.726562 148.58789 L 87.892578 150.03906 L 97.052734 157.66992 L 86.171875 162.54492 L 97.173828 167.13672 L 88.214844 175.00195 L 100.08203 176.14648 L 93.837891 186.30273 L 93.869141 186.29688 L 73.255859 213.02734 L 93.40625 209.4043 L 95.023438 229.8125 L 122.33594 194.39648 L 125.89648 204.26562 L 131.29883 193.63672 L 138.47266 203.16016 L 138.83008 201.09375 L 160.97656 229.8125 L 162.59375 209.4043 L 182.74414 213.02734 L 156.9707 179.60547 L 166.9043 179.87891 L 158.98438 170.96875 L 170.46875 167.76953 L 160.27539 161.58984 L 170.30664 155.14648 L 158.74414 152.24609 L 166.43164 143.13477 L 154.52539 143.76953 L 159.18555 132.79688 L 147.99805 136.91406 L 149.2168 125.05469 L 139.73828 132.28516 L 137.40625 120.59375 L 130.48242 130.29883 L 124.80859 119.8125 z "
           style="fill:#c08915;fill-opacity:1;stroke:none;stroke-width:0.72843033;stroke-linecap:square;stroke-linejoin:miter;stroke-miterlimit:4;stroke-dasharray:none;stroke-dashoffset:0;stroke-opacity:1" />
      </g>
    </g>
    <g
       id="g897">
      <path
         sodipodi:nodetypes="cccccc"
         inkscape:connector-curvature="0"
         id="path868"
         d="m 102.93386,970.90485 21.76759,16.78569 -29.677079,38.48506 -1.618092,-20.4086 -20.149489,3.6229 z"
         style="fill:#188fff;fill-opacity:1;stroke:none;stroke-width:0.72843033;stroke-linecap:square;stroke-linejoin:miter;stroke-miterlimit:4;stroke-dasharray:none;stroke-dashoffset:0;stroke-opacity:1" />
      <path
         style="fill:#188fff;fill-opacity:1;stroke:none;stroke-width:0.72843033;stroke-linecap:square;stroke-linejoin:miter;stroke-miterlimit:4;stroke-dasharray:none;stroke-dashoffset:0;stroke-opacity:1"
         d="m 153.06613,970.90486 -21.76758,16.78568 29.67708,38.48506 1.61809,-20.4085 20.14949,3.6228 z"
         id="path876"
         inkscape:connector-curvature="0"
         sodipodi:nodetypes="cccccc" />
      <path
         sodipodi:type="star"
         style="fill:#ffffff;fill-opacity:1;stroke:none;stroke-width:0.72843033;stroke-linecap:square;stroke-linejoin:miter;stroke-miterlimit:4;stroke-dasharray:none;stroke-dashoffset:0;stroke-opacity:1"
         id="path853"
         sodipodi:sides="21"
         sodipodi:cx="128.51682"
         sodipodi:cy="958.36072"
         sodipodi:r1="31.760881"
         sodipodi:r2="42.347843"
         sodipodi:arg1="0.88470145"
         sodipodi:arg2="1.0343011"
         inkscape:flatsided="false"
         inkscape:rounded="0"
         inkscape:randomized="0"
         d="m 148.63799,982.93493 1.52394,11.82399 -9.66125,-6.98493 -2.02894,11.74787 -7.17318,-9.52231 -5.40155,10.62785 -4.04775,-11.21354 -8.29419,8.5636 -0.56266,-11.9085 -10.44987,5.73838 2.97243,-11.54528 -11.677034,2.40329 6.243404,-10.15622 -11.866635,-1.14535 8.95963,-7.86473 -11.001841,-4.59221 10.879748,-4.87443 -9.159481,-7.63104 11.833153,-1.45101 -6.503261,-9.99182 11.735127,2.10134 -3.26919,-11.46478 10.59439,5.46697 0.25535,-11.91905 8.51229,8.34685 3.75721,-11.31426 5.67384,10.48506 6.92521,-9.70414 2.33125,11.69164 9.47789,-7.23177 -1.2185,11.85935 11.18842,-4.11682 -4.65997,10.97331 11.90481,-0.63607 -7.68738,9.11225 11.56339,2.90118 -10.03173,6.44153 10.19452,6.18066 -11.48472,3.19844 7.91982,8.91096 -11.91724,-0.32884 4.94142,10.84949 z"
         inkscape:transform-center-x="-0.26876686"
         inkscape:transform-center-y="-0.056026936" />
    </g>
  </g>
</svg>
