<?xml version="1.0" encoding="UTF-8" standalone="no"?>
<!-- Created with Inkscape (http://www.inkscape.org/) -->

<svg
   xmlns:dc="http://purl.org/dc/elements/1.1/"
   xmlns:cc="http://creativecommons.org/ns#"
   xmlns:rdf="http://www.w3.org/1999/02/22-rdf-syntax-ns#"
   xmlns:svg="http://www.w3.org/2000/svg"
   xmlns="http://www.w3.org/2000/svg"
   xmlns:sodipodi="http://sodipodi.sourceforge.net/DTD/sodipodi-0.dtd"
   xmlns:inkscape="http://www.inkscape.org/namespaces/inkscape"
   sodipodi:docname="application-x-archive.svg"
   inkscape:version="0.92.4 (unknown)"
   version="1.1"
   id="svg2"
   viewBox="0 0 256 256"
   height="256"
   width="256">
  <sodipodi:namedview
     inkscape:window-maximized="1"
     inkscape:window-y="0"
     inkscape:window-x="0"
     inkscape:window-height="1048"
     inkscape:window-width="1920"
     units="px"
     showgrid="false"
     inkscape:current-layer="layer1"
     inkscape:document-units="px"
     inkscape:cy="253.37144"
     inkscape:cx="117.07921"
     inkscape:zoom="6.7814045"
     inkscape:pageshadow="2"
     inkscape:pageopacity="0.0"
     borderopacity="1.0"
     bordercolor="#666666"
     pagecolor="#ffffff"
     id="base" />
  <defs
     id="defs4">
    <filter
       style="color-interpolation-filters:sRGB;"
       inkscape:label="Drop Shadow"
       id="filter4301">
      <feFlood
         flood-opacity="0.498039"
         flood-color="rgb(0,0,0)"
         result="flood"
         id="feFlood4303" />
      <feComposite
         in="flood"
         in2="SourceGraphic"
         operator="in"
         result="composite1"
         id="feComposite4305" />
      <feGaussianBlur
         in="composite1"
         stdDeviation="3.7"
         result="blur"
         id="feGaussianBlur4307" />
      <feOffset
         dx="3.8"
         dy="3.7"
         result="offset"
         id="feOffset4309" />
      <feComposite
         in="SourceGraphic"
         in2="offset"
         operator="over"
         result="composite2"
         id="feComposite4311" />
    </filter>
    <inkscape:perspective
       id="perspective4280"
       inkscape:persp3d-origin="145.00924 : 107.91388 : 1"
       inkscape:vp_z="492.61536 : 242.25177 : 1"
       inkscape:vp_y="-31.58481 : 2876.4958 : 0"
       inkscape:vp_x="-205.29213 : 219.03694 : 1"
       sodipodi:type="inkscape:persp3d" />
    <clipPath
       id="clipPath4826"
       clipPathUnits="userSpaceOnUse">
      <path
         inkscape:connector-curvature="0"
         id="path4828"
         d="m 151.20117,796.84847 -105.78125,0 c -7.804357,0 -14.087891,6.28158 -14.087891,14.08594 l 0,227.33989 c 0,7.8043 6.283534,14.0878 14.087891,14.0878 l 165.16211,0 c 7.80436,0 14.08594,-6.2835 14.08594,-14.0878 l 0,-154.82232 -73.4668,-86.60351 z"
         style="fill:#f4b400;fill-opacity:1" />
    </clipPath>
    <clipPath
       clipPathUnits="userSpaceOnUse"
       id="clipPath5056">
      <path
         inkscape:connector-curvature="0"
         id="path5058"
         d="m 151.20117,796.84847 -105.78125,0 c -7.804357,0 -14.087891,6.28158 -14.087891,14.08594 l 0,227.33989 c 0,7.8043 6.283534,14.0878 14.087891,14.0878 l 165.16211,0 c 7.80436,0 14.08594,-6.2835 14.08594,-14.0878 l 0,-154.82232 -73.4668,-86.60351 z"
         style="fill:#f4b400;fill-opacity:1" />
    </clipPath>
    <clipPath
       clipPathUnits="userSpaceOnUse"
       id="clipPath4340">
      <g
         transform="translate(191.76557,138.78388)"
         id="g4342">
        <path
           style="fill:#f4b400;fill-opacity:1"
           d="m -63.92963,657.58118 a 128,128 0 0 0 -127.83594,127.99414 128,128 0 0 0 128,128.00002 A 128,128 0 0 0 64.22662,785.73743 L -63.92963,657.58118 Z m 12.42383,0.60742 a 128,128 0 0 1 7.76757,1.1211 128,128 0 0 0 -7.76757,-1.1211 z m 12.58789,1.84961 a 128,128 0 0 1 8.42187,2.08984 128,128 0 0 0 -8.42187,-2.08984 z m 12.36328,3.09766 a 128,128 0 0 1 8.94531,3.19726 128,128 0 0 0 -8.94531,-3.19726 z m 11.98437,4.30468 a 128,128 0 0 1 9.34375,4.43946 128,128 0 0 0 -9.34375,-4.43946 z m 11.49805,5.47852 a 128,128 0 0 1 9.49414,5.73438 128,128 0 0 0 -9.49414,-5.73438 z m 10.90625,6.59961 a 128,128 0 0 1 9.66016,7.24414 128,128 0 0 0 -9.66016,-7.24414 z m 10.17773,7.63867 a 128,128 0 0 1 9.38868,8.62891 128,128 0 0 0 -9.38868,-8.62891 z m 9.38868,8.62891 0.98046,0.98047 a 128,128 0 0 0 -0.98046,-0.98047 z m 7.65039,8.57226 a 128,128 0 0 1 4.5039,5.92188 128,128 0 0 0 -4.5039,-5.92188 z m 7.63867,10.30469 a 128,128 0 0 1 3.81054,6.21289 128,128 0 0 0 -3.81054,-6.21289 z m 6.57617,11.03125 a 128,128 0 0 1 3.08203,6.37695 128,128 0 0 0 -3.08203,-6.37695 z m 5.4375,11.63867 a 128,128 0 0 1 2.37695,6.50782 128,128 0 0 0 -2.37695,-6.50782 z m 4.23242,12.09375 a 128,128 0 0 1 1.68555,6.59375 128,128 0 0 0 -1.68555,-6.59375 z m 3.00781,12.48633 a 128,128 0 0 1 0.99024,6.53906 128,128 0 0 0 -0.99024,-6.53906 z m 1.74024,12.71094 a 128,128 0 0 1 0.55078,10.95117 128,128 0 0 0 -0.55078,-10.95117 z"
           id="path4344"
           inkscape:connector-curvature="0" />
        <path
           style="fill:#f9d264;fill-opacity:1"
           d="m 63.84858,785.74331 a 128,128 0 0 0 0.16406,-0.006 L -64.1436,657.58118 a 128,128 0 0 0 -0.008,0.16211 128,128 0 0 0 35.85352,88.80861 l 0.98046,0.98046 a 128,128 0 0 0 91.16603,38.21095 z"
           id="path4346"
           inkscape:connector-curvature="0" />
      </g>
    </clipPath>
    <clipPath
       clipPathUnits="userSpaceOnUse"
       id="clipPath4354">
      <g
         transform="matrix(1.0233305,0,0,0.97283514,193.39615,161.75603)"
         id="g4356">
        <path
           style="fill:#f4b400;fill-opacity:1"
           d="m -63.92963,657.58118 a 128,128 0 0 0 -127.83594,127.99414 128,128 0 0 0 128,128.00002 A 128,128 0 0 0 64.22662,785.73743 L -63.92963,657.58118 Z m 12.42383,0.60742 a 128,128 0 0 1 7.76757,1.1211 128,128 0 0 0 -7.76757,-1.1211 z m 12.58789,1.84961 a 128,128 0 0 1 8.42187,2.08984 128,128 0 0 0 -8.42187,-2.08984 z m 12.36328,3.09766 a 128,128 0 0 1 8.94531,3.19726 128,128 0 0 0 -8.94531,-3.19726 z m 11.98437,4.30468 a 128,128 0 0 1 9.34375,4.43946 128,128 0 0 0 -9.34375,-4.43946 z m 11.49805,5.47852 a 128,128 0 0 1 9.49414,5.73438 128,128 0 0 0 -9.49414,-5.73438 z m 10.90625,6.59961 a 128,128 0 0 1 9.66016,7.24414 128,128 0 0 0 -9.66016,-7.24414 z m 10.17773,7.63867 a 128,128 0 0 1 9.38868,8.62891 128,128 0 0 0 -9.38868,-8.62891 z m 9.38868,8.62891 0.98046,0.98047 a 128,128 0 0 0 -0.98046,-0.98047 z m 7.65039,8.57226 a 128,128 0 0 1 4.5039,5.92188 128,128 0 0 0 -4.5039,-5.92188 z m 7.63867,10.30469 a 128,128 0 0 1 3.81054,6.21289 128,128 0 0 0 -3.81054,-6.21289 z m 6.57617,11.03125 a 128,128 0 0 1 3.08203,6.37695 128,128 0 0 0 -3.08203,-6.37695 z m 5.4375,11.63867 a 128,128 0 0 1 2.37695,6.50782 128,128 0 0 0 -2.37695,-6.50782 z m 4.23242,12.09375 a 128,128 0 0 1 1.68555,6.59375 128,128 0 0 0 -1.68555,-6.59375 z m 3.00781,12.48633 a 128,128 0 0 1 0.99024,6.53906 128,128 0 0 0 -0.99024,-6.53906 z m 1.74024,12.71094 a 128,128 0 0 1 0.55078,10.95117 128,128 0 0 0 -0.55078,-10.95117 z"
           id="path4358"
           inkscape:connector-curvature="0" />
        <path
           style="fill:#f9d264;fill-opacity:1"
           d="m 63.84858,785.74331 a 128,128 0 0 0 0.16406,-0.006 L -64.1436,657.58118 a 128,128 0 0 0 -0.008,0.16211 128,128 0 0 0 35.85352,88.80861 l 0.98046,0.98046 a 128,128 0 0 0 91.16603,38.21095 z"
           id="path4360"
           inkscape:connector-curvature="0" />
      </g>
    </clipPath>
    <clipPath
       clipPathUnits="userSpaceOnUse"
       id="clipPath4368">
      <g
         transform="translate(191.76557,138.78388)"
         id="g4370">
        <path
           style="fill:#f4b400;fill-opacity:1"
           d="m -63.92963,657.58118 a 128,128 0 0 0 -127.83594,127.99414 128,128 0 0 0 128,128.00002 A 128,128 0 0 0 64.22662,785.73743 L -63.92963,657.58118 Z m 12.42383,0.60742 a 128,128 0 0 1 7.76757,1.1211 128,128 0 0 0 -7.76757,-1.1211 z m 12.58789,1.84961 a 128,128 0 0 1 8.42187,2.08984 128,128 0 0 0 -8.42187,-2.08984 z m 12.36328,3.09766 a 128,128 0 0 1 8.94531,3.19726 128,128 0 0 0 -8.94531,-3.19726 z m 11.98437,4.30468 a 128,128 0 0 1 9.34375,4.43946 128,128 0 0 0 -9.34375,-4.43946 z m 11.49805,5.47852 a 128,128 0 0 1 9.49414,5.73438 128,128 0 0 0 -9.49414,-5.73438 z m 10.90625,6.59961 a 128,128 0 0 1 9.66016,7.24414 128,128 0 0 0 -9.66016,-7.24414 z m 10.17773,7.63867 a 128,128 0 0 1 9.38868,8.62891 128,128 0 0 0 -9.38868,-8.62891 z m 9.38868,8.62891 0.98046,0.98047 a 128,128 0 0 0 -0.98046,-0.98047 z m 7.65039,8.57226 a 128,128 0 0 1 4.5039,5.92188 128,128 0 0 0 -4.5039,-5.92188 z m 7.63867,10.30469 a 128,128 0 0 1 3.81054,6.21289 128,128 0 0 0 -3.81054,-6.21289 z m 6.57617,11.03125 a 128,128 0 0 1 3.08203,6.37695 128,128 0 0 0 -3.08203,-6.37695 z m 5.4375,11.63867 a 128,128 0 0 1 2.37695,6.50782 128,128 0 0 0 -2.37695,-6.50782 z m 4.23242,12.09375 a 128,128 0 0 1 1.68555,6.59375 128,128 0 0 0 -1.68555,-6.59375 z m 3.00781,12.48633 a 128,128 0 0 1 0.99024,6.53906 128,128 0 0 0 -0.99024,-6.53906 z m 1.74024,12.71094 a 128,128 0 0 1 0.55078,10.95117 128,128 0 0 0 -0.55078,-10.95117 z"
           id="path4372"
           inkscape:connector-curvature="0" />
        <path
           style="fill:#f9d264;fill-opacity:1"
           d="m 63.84858,785.74331 a 128,128 0 0 0 0.16406,-0.006 L -64.1436,657.58118 a 128,128 0 0 0 -0.008,0.16211 128,128 0 0 0 35.85352,88.80861 l 0.98046,0.98046 a 128,128 0 0 0 91.16603,38.21095 z"
           id="path4374"
           inkscape:connector-curvature="0" />
      </g>
    </clipPath>
    <clipPath
       clipPathUnits="userSpaceOnUse"
       id="clipPath1645">
      <path
         inkscape:connector-curvature="0"
         id="path1647"
         d="M 127.36708,796.36506 A 128,128 0 0 0 -0.46886408,924.3592 a 128,128 0 0 0 128.00000408,128 128,128 0 0 0 127.99219,-127.83789 z m 12.42383,0.60742 a 128,128 0 0 1 7.76757,1.1211 128,128 0 0 0 -7.76757,-1.1211 z m 12.58789,1.84961 a 128,128 0 0 1 8.42187,2.08984 128,128 0 0 0 -8.42187,-2.08984 z m 12.36328,3.09766 a 128,128 0 0 1 8.94531,3.19726 128,128 0 0 0 -8.94531,-3.19726 z m 11.98437,4.30468 a 128,128 0 0 1 9.34375,4.43946 128,128 0 0 0 -9.34375,-4.43946 z m 11.49805,5.47852 a 128,128 0 0 1 9.49414,5.73438 128,128 0 0 0 -9.49414,-5.73438 z m 10.90625,6.59961 a 128,128 0 0 1 9.66016,7.24414 128,128 0 0 0 -9.66016,-7.24414 z m 10.17773,7.63867 a 128,128 0 0 1 9.38868,8.62891 128,128 0 0 0 -9.38868,-8.62891 z m 9.38868,8.62891 0.98046,0.98047 a 128,128 0 0 0 -0.98046,-0.98047 z m 7.65039,8.57226 a 128,128 0 0 1 4.5039,5.92188 128,128 0 0 0 -4.5039,-5.92188 z m 7.63867,10.30469 a 128,128 0 0 1 3.81054,6.21289 128,128 0 0 0 -3.81054,-6.21289 z m 6.57617,11.03125 a 128,128 0 0 1 3.08203,6.37695 128,128 0 0 0 -3.08203,-6.37695 z m 5.4375,11.63867 a 128,128 0 0 1 2.37695,6.50782 128,128 0 0 0 -2.37695,-6.50782 z m 4.23242,12.09375 a 128,128 0 0 1 1.68555,6.59375 128,128 0 0 0 -1.68555,-6.59375 z m 3.00781,12.48633 a 128,128 0 0 1 0.99024,6.53906 128,128 0 0 0 -0.99024,-6.53906 z m 1.74024,12.71094 a 128,128 0 0 1 0.55078,10.95117 128,128 0 0 0 -0.55078,-10.95117 z"
         style="fill:#cdab8f;fill-opacity:1" />
    </clipPath>
    <clipPath
       clipPathUnits="userSpaceOnUse"
       id="clipPath1651">
      <path
         inkscape:connector-curvature="0"
         id="path1653"
         d="M 127.83594,797.1971 A 128,128 0 0 0 0,925.19124 128,128 0 0 0 128,1053.1912 128,128 0 0 0 255.99219,925.35335 Z m 12.42383,0.60742 a 128,128 0 0 1 7.76757,1.1211 128,128 0 0 0 -7.76757,-1.1211 z m 12.58789,1.84961 a 128,128 0 0 1 8.42187,2.08984 128,128 0 0 0 -8.42187,-2.08984 z m 12.36328,3.09766 a 128,128 0 0 1 8.94531,3.19726 128,128 0 0 0 -8.94531,-3.19726 z m 11.98437,4.30468 a 128,128 0 0 1 9.34375,4.43946 128,128 0 0 0 -9.34375,-4.43946 z m 11.49805,5.47852 a 128,128 0 0 1 9.49414,5.73438 128,128 0 0 0 -9.49414,-5.73438 z m 10.90625,6.59961 a 128,128 0 0 1 9.66016,7.24414 128,128 0 0 0 -9.66016,-7.24414 z m 10.17773,7.63867 a 128,128 0 0 1 9.38868,8.62891 128,128 0 0 0 -9.38868,-8.62891 z m 9.38868,8.62891 0.98046,0.98047 a 128,128 0 0 0 -0.98046,-0.98047 z m 7.65039,8.57226 a 128,128 0 0 1 4.5039,5.92188 128,128 0 0 0 -4.5039,-5.92188 z m 7.63867,10.30469 a 128,128 0 0 1 3.81054,6.21289 128,128 0 0 0 -3.81054,-6.21289 z m 6.57617,11.03125 a 128,128 0 0 1 3.08203,6.37695 128,128 0 0 0 -3.08203,-6.37695 z m 5.4375,11.63867 a 128,128 0 0 1 2.37695,6.50782 128,128 0 0 0 -2.37695,-6.50782 z m 4.23242,12.09375 a 128,128 0 0 1 1.68555,6.59375 128,128 0 0 0 -1.68555,-6.59375 z m 3.00781,12.48633 a 128,128 0 0 1 0.99024,6.53906 128,128 0 0 0 -0.99024,-6.53906 z m 1.74024,12.71094 A 128,128 0 0 1 256,925.19124 128,128 0 0 0 255.44922,914.24007 Z"
         style="fill:#cdab8f;fill-opacity:1" />
    </clipPath>
    <clipPath
       clipPathUnits="userSpaceOnUse"
       id="clipPath1657">
      <path
         inkscape:connector-curvature="0"
         id="path1659"
         d="M 127.83594,796.36506 A 128,128 0 0 0 0,924.3592 a 128,128 0 0 0 128,128 128,128 0 0 0 127.99219,-127.83789 z m 12.42383,0.60742 a 128,128 0 0 1 7.76757,1.1211 128,128 0 0 0 -7.76757,-1.1211 z m 12.58789,1.84961 a 128,128 0 0 1 8.42187,2.08984 128,128 0 0 0 -8.42187,-2.08984 z m 12.36328,3.09766 a 128,128 0 0 1 8.94531,3.19726 128,128 0 0 0 -8.94531,-3.19726 z m 11.98437,4.30468 a 128,128 0 0 1 9.34375,4.43946 128,128 0 0 0 -9.34375,-4.43946 z m 11.49805,5.47852 a 128,128 0 0 1 9.49414,5.73438 128,128 0 0 0 -9.49414,-5.73438 z m 10.90625,6.59961 a 128,128 0 0 1 9.66016,7.24414 128,128 0 0 0 -9.66016,-7.24414 z m 10.17773,7.63867 a 128,128 0 0 1 9.38868,8.62891 128,128 0 0 0 -9.38868,-8.62891 z m 9.38868,8.62891 0.98046,0.98047 a 128,128 0 0 0 -0.98046,-0.98047 z m 7.65039,8.57226 a 128,128 0 0 1 4.5039,5.92188 128,128 0 0 0 -4.5039,-5.92188 z m 7.63867,10.30469 a 128,128 0 0 1 3.81054,6.21289 128,128 0 0 0 -3.81054,-6.21289 z m 6.57617,11.03125 a 128,128 0 0 1 3.08203,6.37695 128,128 0 0 0 -3.08203,-6.37695 z m 5.4375,11.63867 a 128,128 0 0 1 2.37695,6.50782 128,128 0 0 0 -2.37695,-6.50782 z m 4.23242,12.09375 a 128,128 0 0 1 1.68555,6.59375 128,128 0 0 0 -1.68555,-6.59375 z m 3.00781,12.48633 a 128,128 0 0 1 0.99024,6.53906 128,128 0 0 0 -0.99024,-6.53906 z m 1.74024,12.71094 A 128,128 0 0 1 256,924.3592 128,128 0 0 0 255.44922,913.40803 Z"
         style="fill:#cdab8f;fill-opacity:1" />
    </clipPath>
  </defs>
  <metadata
     id="metadata7">
    <rdf:RDF>
      <cc:Work
         rdf:about="">
        <dc:format>image/svg+xml</dc:format>
        <dc:type
           rdf:resource="http://purl.org/dc/dcmitype/StillImage" />
        <dc:title />
      </cc:Work>
    </rdf:RDF>
  </metadata>
  <g
     inkscape:label="Layer 1"
     inkscape:groupmode="layer"
     id="layer1"
     transform="translate(0,-796.36214)">
    <path
       style="fill:#cdab8f;fill-opacity:1"
       d="M 127.83594,796.36506 A 128,128 0 0 0 0,924.3592 a 128,128 0 0 0 128,128 128,128 0 0 0 127.99219,-127.83789 z m 12.42383,0.60742 a 128,128 0 0 1 7.76757,1.1211 128,128 0 0 0 -7.76757,-1.1211 z m 12.58789,1.84961 a 128,128 0 0 1 8.42187,2.08984 128,128 0 0 0 -8.42187,-2.08984 z m 12.36328,3.09766 a 128,128 0 0 1 8.94531,3.19726 128,128 0 0 0 -8.94531,-3.19726 z m 11.98437,4.30468 a 128,128 0 0 1 9.34375,4.43946 128,128 0 0 0 -9.34375,-4.43946 z m 11.49805,5.47852 a 128,128 0 0 1 9.49414,5.73438 128,128 0 0 0 -9.49414,-5.73438 z m 10.90625,6.59961 a 128,128 0 0 1 9.66016,7.24414 128,128 0 0 0 -9.66016,-7.24414 z m 10.17773,7.63867 a 128,128 0 0 1 9.38868,8.62891 128,128 0 0 0 -9.38868,-8.62891 z m 9.38868,8.62891 0.98046,0.98047 a 128,128 0 0 0 -0.98046,-0.98047 z m 7.65039,8.57226 a 128,128 0 0 1 4.5039,5.92188 128,128 0 0 0 -4.5039,-5.92188 z m 7.63867,10.30469 a 128,128 0 0 1 3.81054,6.21289 128,128 0 0 0 -3.81054,-6.21289 z m 6.57617,11.03125 a 128,128 0 0 1 3.08203,6.37695 128,128 0 0 0 -3.08203,-6.37695 z m 5.4375,11.63867 a 128,128 0 0 1 2.37695,6.50782 128,128 0 0 0 -2.37695,-6.50782 z m 4.23242,12.09375 a 128,128 0 0 1 1.68555,6.59375 128,128 0 0 0 -1.68555,-6.59375 z m 3.00781,12.48633 a 128,128 0 0 1 0.99024,6.53906 128,128 0 0 0 -0.99024,-6.53906 z m 1.74024,12.71094 A 128,128 0 0 1 256,924.3592 128,128 0 0 0 255.44922,913.40803 Z"
       id="path4957"
       inkscape:connector-curvature="0" />
    <path
       style="fill:#d8bda7;fill-opacity:1"
       d="m 255.61415,924.52719 a 128,128 0 0 0 0.16406,-0.006 L 127.62197,796.36506 a 128,128 0 0 0 -0.008,0.16211 128,128 0 0 0 35.85352,88.80861 l 0.98046,0.98046 a 128,128 0 0 0 91.16603,38.21095 z"
       id="rect4961"
       inkscape:connector-curvature="0" />
    <path
       style="fill:#f4b400;fill-opacity:1;stroke:#000000;stroke-width:0;stroke-miterlimit:4;stroke-dasharray:none;stroke-opacity:1"
       d="m 83.360784,810.22465 0,-13.34335 8.627738,0 8.627738,0 0,13.34335 0,13.34335 -8.627738,0 -8.627738,0 0,-13.34335 z"
       id="path4741"
       inkscape:connector-curvature="0"
       clip-path="url(#clipPath4368)" />
    <g
       transform="matrix(0.9772014,0,0,1.0279234,2.7785797,-27.488927)"
       id="g4600"
       style="fill:#986a44;fill-opacity:1"
       clip-path="url(#clipPath4354)">
      <path
         inkscape:connector-curvature="0"
         id="rect4604"
         d="m 90.111975,940.75226 20.753925,0 c 0.80253,0 1.44862,0.6142 1.44862,1.37714 l 0,10.61887 c 0,0.76293 -0.64609,1.37714 -1.44862,1.37714 l -20.753925,0 c -0.802536,0 -1.448622,-0.61421 -1.448622,-1.37714 l 0,-10.61887 c 0,-0.76294 0.646086,-1.37714 1.448622,-1.37714 z"
         style="fill:#986a44;fill-opacity:1;stroke:#000000;stroke-width:0;stroke-linecap:round;stroke-linejoin:miter;stroke-miterlimit:4;stroke-dasharray:none;stroke-opacity:1" />
      <g
         id="g4936"
         style="fill:#986a44;fill-opacity:1">
        <g
           id="g4938"
           style="fill:#986a44;fill-opacity:1;stroke:#000000;stroke-width:0;stroke-linecap:round;stroke-linejoin:miter;stroke-miterlimit:4;stroke-dasharray:none;stroke-opacity:1">
          <path
             inkscape:connector-curvature="0"
             id="path4940"
             d="m 95.39034,937.409 10.08001,0 -353.55339,353.5534 -10.08001,0 z"
             style="fill:#986a44;fill-opacity:1" />
          <path
             inkscape:connector-curvature="0"
             id="path4942"
             d="m 105.47035,937.409 c 5.66925,0 10.2333,4.33884 10.2333,9.72835 l -353.55339,353.55335 c 0,-5.3895 -4.56405,-9.7283 -10.2333,-9.7283 z"
             style="fill:#986a44;fill-opacity:1" />
          <path
             inkscape:connector-curvature="0"
             id="path4944"
             d="m 115.70365,947.13735 0,27.57324 -353.55339,353.55341 0,-27.5733 z"
             style="fill:#986a44;fill-opacity:1" />
          <path
             inkscape:connector-curvature="0"
             id="path4946"
             d="m 115.70365,974.71059 c 0,2.60581 -1.06694,4.96601 -2.80987,6.70895 l -353.55339,353.55336 c 1.74293,-1.7429 2.80987,-4.1031 2.80987,-6.7089 z"
             style="fill:#986a44;fill-opacity:1" />
          <path
             inkscape:connector-curvature="0"
             id="path4948"
             d="m 112.89378,981.41954 c -1.86191,1.86191 -4.49525,3.0194 -7.42343,3.0194 l -353.55339,353.55336 c 2.92818,0 5.56152,-1.1575 7.42343,-3.0194 z"
             style="fill:#986a44;fill-opacity:1" />
          <path
             inkscape:connector-curvature="0"
             id="path4950"
             d="m 105.47035,984.43894 -10.08001,0 -353.55339,353.55336 10.08001,0 z"
             style="fill:#986a44;fill-opacity:1" />
          <path
             inkscape:connector-curvature="0"
             id="path4952"
             d="m 95.39034,984.43894 c -5.669251,0 -10.233304,-4.33885 -10.233304,-9.72835 L -268.39635,1328.264 c 0,5.3895 4.56405,9.7283 10.2333,9.7283 z"
             style="fill:#986a44;fill-opacity:1" />
          <path
             inkscape:connector-curvature="0"
             id="path4954"
             d="m 85.157036,974.71059 0,-27.57324 -353.553386,353.55335 0,27.5733 z"
             style="fill:#986a44;fill-opacity:1" />
          <path
             inkscape:connector-curvature="0"
             id="path4956"
             d="m 85.157036,947.13735 c 0,-2.60582 1.066939,-4.96602 2.809871,-6.70895 l -353.553387,353.5534 c -1.74294,1.7429 -2.80987,4.1031 -2.80987,6.7089 z"
             style="fill:#986a44;fill-opacity:1" />
          <path
             inkscape:connector-curvature="0"
             id="path4958"
             d="m 87.966907,940.4284 c 1.861909,-1.86191 4.495252,-3.0194 7.423433,-3.0194 l -353.55339,353.5534 c -2.92818,0 -5.56152,1.1575 -7.42343,3.0194 z"
             style="fill:#986a44;fill-opacity:1" />
        </g>
        <path
           inkscape:connector-curvature="0"
           id="rect4602"
           d="m 95.39034,937.409 10.08001,0 c 5.66925,0 10.2333,4.33884 10.2333,9.72835 l 0,27.57324 c 0,5.3895 -4.56405,9.72835 -10.2333,9.72835 l -10.08001,0 c -5.669251,0 -10.233304,-4.33885 -10.233304,-9.72835 l 0,-27.57324 c 0,-5.38951 4.564053,-9.72835 10.233304,-9.72835 z"
           style="fill:#986a44;fill-opacity:1;stroke:#000000;stroke-width:0;stroke-linecap:round;stroke-linejoin:miter;stroke-miterlimit:4;stroke-dasharray:none;stroke-opacity:1" />
      </g>
    </g>
    <path
       inkscape:connector-curvature="0"
       id="path4588"
       d="m 101.27474,836.5859 v -13.34335 h 8.62774 8.62773 v 13.34335 13.34335 h -8.62773 -8.62774 z"
       style="fill:#af8e1d;fill-opacity:1;stroke:#000000;stroke-width:0;stroke-miterlimit:4;stroke-dasharray:none;stroke-opacity:1" />
    <path
       style="fill:#af8e1d;fill-opacity:1;stroke:#000000;stroke-width:0;stroke-miterlimit:4;stroke-dasharray:none;stroke-opacity:1"
       d="m 83.743181,863.3322 v -13.34335 h 8.627737 8.627732 v 13.34335 13.34335 h -8.627732 -8.627737 z"
       id="path4590"
       inkscape:connector-curvature="0" />
    <path
       inkscape:connector-curvature="0"
       id="path4592"
       d="m 101.27474,890.0785 v -13.34335 h 8.62774 8.62773 v 13.34335 13.34335 h -8.62773 -8.62774 z"
       style="fill:#af8e1d;fill-opacity:1;stroke:#000000;stroke-width:0;stroke-miterlimit:4;stroke-dasharray:none;stroke-opacity:1" />
    <path
       style="fill:#af8e1d;fill-opacity:1;stroke:#000000;stroke-width:0;stroke-miterlimit:4;stroke-dasharray:none;stroke-opacity:1"
       d="m 83.743181,916.8248 v -13.34335 h 8.627737 8.627732 v 13.34335 13.34335 h -8.627732 -8.627737 z"
       id="path4594"
       inkscape:connector-curvature="0" />
    <g
       style="fill:#986a44;fill-opacity:1"
       id="g4923"
       transform="translate(0.46886408)"
       clip-path="url(#clipPath1645)">
      <g
         style="fill:#986a44;fill-opacity:1;stroke:#000000;stroke-width:0;stroke-miterlimit:4;stroke-dasharray:none;stroke-opacity:1"
         id="g4925">
        <path
           style="fill:#986a44;fill-opacity:1"
           d="m 81.786934,796.81616 h 37.824126 l -353.55339,353.55344 h -37.82413 z"
           id="path4927"
           inkscape:connector-curvature="0" />
        <path
           style="fill:#986a44;fill-opacity:1"
           d="M 119.61106,796.81616 V 933.02982 L -233.94233,1286.5832 V 1150.3696 Z"
           id="path4929"
           inkscape:connector-curvature="0" />
        <path
           style="fill:#986a44;fill-opacity:1"
           d="M 119.61106,933.02982 H 81.786934 L -271.76646,1286.5832 h 37.82413 z"
           id="path4931"
           inkscape:connector-curvature="0" />
      </g>
      <path
         style="fill:#986a44;fill-opacity:1;stroke:#000000;stroke-width:0;stroke-miterlimit:4;stroke-dasharray:none;stroke-opacity:1"
         d="M 81.786934,796.81616 H 119.61106 V 933.02982 H 81.786934 Z"
         id="rect4584"
         inkscape:connector-curvature="0" />
    </g>
    <rect
       style="fill:#ffffff;fill-opacity:0.94117647;stroke:#000000;stroke-width:0;stroke-miterlimit:4;stroke-dasharray:none;stroke-opacity:1"
       id="rect4871"
       width="37.824127"
       height="136.21365"
       x="82.278175"
       y="796.84845"
       clip-path="url(#clipPath1657)" />
    <path
       inkscape:connector-curvature="0"
       id="path4885"
       d="m 96.265139,936.22026 h 9.850211 c 5.53999,0 9.99999,4.46 9.99999,10 v 28.34318 c 0,5.53999 -4.46,10 -9.99999,10 h -9.850211 c -5.54,0 -9.999999,-4.46001 -9.999999,-10 v -28.34318 c 0,-5.54 4.459999,-10 9.999999,-10 z"
       style="fill:#fefefe;fill-opacity:1;stroke:#000000;stroke-width:0;stroke-linecap:round;stroke-linejoin:miter;stroke-miterlimit:4;stroke-dasharray:none;stroke-opacity:1" />
    <path
       inkscape:connector-curvature="0"
       id="path4887"
       d="m 91.049856,939.65688 h 20.280764 c 0.78424,0 1.4156,0.63135 1.4156,1.41559 v 10.91539 c 0,0.78423 -0.63136,1.41559 -1.4156,1.41559 H 91.049856 c -0.784239,0 -1.415596,-0.63136 -1.415596,-1.41559 v -10.91539 c 0,-0.78424 0.631357,-1.41559 1.415596,-1.41559 z"
       style="fill:#cdab8f;fill-opacity:1;stroke:#000000;stroke-width:0;stroke-linecap:round;stroke-linejoin:miter;stroke-miterlimit:4;stroke-dasharray:none;stroke-opacity:1" />
    <g
       id="g4267"
       transform="translate(0,-0.83203625)"
       style="fill:#cdab8f;fill-opacity:1"
       clip-path="url(#clipPath1651)">
      <g
         transform="translate(-0.3241806)"
         id="g4232"
         style="fill:#cdab8f;fill-opacity:1">
        <rect
           style="opacity:0.98999999;fill:#cdab8f;fill-opacity:1;stroke:none;stroke-width:3.91300011;stroke-linecap:round;stroke-linejoin:round;stroke-miterlimit:4;stroke-dasharray:none;stroke-opacity:1"
           id="rect4228"
           width="18"
           height="11.3333"
           x="83.547386"
           y="797.68048" />
        <rect
           y="808.99182"
           x="101.48145"
           height="11.3333"
           width="18"
           id="rect4230"
           style="opacity:0.98999999;fill:#cdab8f;fill-opacity:1;stroke:none;stroke-width:3.91300011;stroke-linecap:round;stroke-linejoin:round;stroke-miterlimit:4;stroke-dasharray:none;stroke-opacity:1" />
      </g>
      <g
         id="g4236"
         transform="translate(-0.3241806,22.582488)"
         style="fill:#cdab8f;fill-opacity:1">
        <rect
           y="797.68048"
           x="83.547386"
           height="11.3333"
           width="18"
           id="rect4238"
           style="opacity:0.98999999;fill:#cdab8f;fill-opacity:1;stroke:none;stroke-width:3.91300011;stroke-linecap:round;stroke-linejoin:round;stroke-miterlimit:4;stroke-dasharray:none;stroke-opacity:1" />
        <rect
           style="opacity:0.98999999;fill:#cdab8f;fill-opacity:1;stroke:none;stroke-width:3.91300011;stroke-linecap:round;stroke-linejoin:round;stroke-miterlimit:4;stroke-dasharray:none;stroke-opacity:1"
           id="rect4240"
           width="18"
           height="11.3333"
           x="101.48145"
           y="808.99182" />
      </g>
      <g
         transform="translate(-0.3241806,45.209905)"
         id="g4242"
         style="fill:#cdab8f;fill-opacity:1">
        <rect
           style="opacity:0.98999999;fill:#cdab8f;fill-opacity:1;stroke:none;stroke-width:3.91300011;stroke-linecap:round;stroke-linejoin:round;stroke-miterlimit:4;stroke-dasharray:none;stroke-opacity:1"
           id="rect4244"
           width="18"
           height="11.3333"
           x="83.547386"
           y="797.68048" />
        <rect
           y="808.99182"
           x="101.48145"
           height="11.3333"
           width="18"
           id="rect4246"
           style="opacity:0.98999999;fill:#cdab8f;fill-opacity:1;stroke:none;stroke-width:3.91300011;stroke-linecap:round;stroke-linejoin:round;stroke-miterlimit:4;stroke-dasharray:none;stroke-opacity:1" />
      </g>
      <g
         id="g4248"
         transform="translate(-0.3241806,67.754438)"
         style="fill:#cdab8f;fill-opacity:1">
        <rect
           y="797.68048"
           x="83.547386"
           height="11.3333"
           width="18"
           id="rect4250"
           style="opacity:0.98999999;fill:#cdab8f;fill-opacity:1;stroke:none;stroke-width:3.91300011;stroke-linecap:round;stroke-linejoin:round;stroke-miterlimit:4;stroke-dasharray:none;stroke-opacity:1" />
        <rect
           style="opacity:0.98999999;fill:#cdab8f;fill-opacity:1;stroke:none;stroke-width:3.91300011;stroke-linecap:round;stroke-linejoin:round;stroke-miterlimit:4;stroke-dasharray:none;stroke-opacity:1"
           id="rect4252"
           width="18"
           height="11.3333"
           x="101.48145"
           y="808.99182" />
      </g>
      <g
         transform="translate(-0.3241806,90.298971)"
         id="g4254"
         style="fill:#cdab8f;fill-opacity:1">
        <rect
           style="opacity:0.98999999;fill:#cdab8f;fill-opacity:1;stroke:none;stroke-width:3.91300011;stroke-linecap:round;stroke-linejoin:round;stroke-miterlimit:4;stroke-dasharray:none;stroke-opacity:1"
           id="rect4257"
           width="18"
           height="11.3333"
           x="83.547386"
           y="797.68048" />
        <rect
           y="808.99182"
           x="101.48145"
           height="11.3333"
           width="18"
           id="rect4259"
           style="opacity:0.98999999;fill:#cdab8f;fill-opacity:1;stroke:none;stroke-width:3.91300011;stroke-linecap:round;stroke-linejoin:round;stroke-miterlimit:4;stroke-dasharray:none;stroke-opacity:1" />
      </g>
      <g
         id="g4261"
         transform="translate(-0.3241806,112.8435)"
         style="fill:#cdab8f;fill-opacity:1">
        <rect
           y="797.68048"
           x="83.547386"
           height="11.3333"
           width="18"
           id="rect4263"
           style="opacity:0.98999999;fill:#cdab8f;fill-opacity:1;stroke:none;stroke-width:3.91300011;stroke-linecap:round;stroke-linejoin:round;stroke-miterlimit:4;stroke-dasharray:none;stroke-opacity:1" />
        <rect
           style="opacity:0.98999999;fill:#cdab8f;fill-opacity:1;stroke:none;stroke-width:3.91300011;stroke-linecap:round;stroke-linejoin:round;stroke-miterlimit:4;stroke-dasharray:none;stroke-opacity:1"
           id="rect4265"
           width="18"
           height="11.3333"
           x="101.48145"
           y="808.99182" />
      </g>
    </g>
  </g>
</svg>
