<?xml version="1.0" encoding="UTF-8" standalone="no"?>
<!-- Created with Inkscape (http://www.inkscape.org/) -->

<svg
   xmlns:ns2="http://ns.adobe.com/AdobeIllustrator/10.0/"
   xmlns:dc="http://purl.org/dc/elements/1.1/"
   xmlns:cc="http://creativecommons.org/ns#"
   xmlns:rdf="http://www.w3.org/1999/02/22-rdf-syntax-ns#"
   xmlns:svg="http://www.w3.org/2000/svg"
   xmlns="http://www.w3.org/2000/svg"
   xmlns:sodipodi="http://sodipodi.sourceforge.net/DTD/sodipodi-0.dtd"
   xmlns:inkscape="http://www.inkscape.org/namespaces/inkscape"
   width="256"
   height="256"
   viewBox="0 0 256 256"
   id="svg2"
   version="1.1"
   inkscape:version="0.92.2 (5c3e80d, 2017-08-06)"
   sodipodi:docname="deb.svg">
  <sodipodi:namedview
     id="base"
     pagecolor="#ffffff"
     bordercolor="#666666"
     borderopacity="1.0"
     inkscape:pageopacity="0.0"
     inkscape:pageshadow="2"
     inkscape:zoom="3.3125"
     inkscape:cx="128"
     inkscape:cy="128"
     inkscape:document-units="px"
     inkscape:current-layer="layer1"
     showgrid="false"
     units="px"
     inkscape:window-width="1920"
     inkscape:window-height="1048"
     inkscape:window-x="0"
     inkscape:window-y="0"
     inkscape:window-maximized="1" />
  <defs
     id="defs4">
    <filter
       id="filter4301"
       inkscape:label="Drop Shadow"
       style="color-interpolation-filters:sRGB;">
      <feFlood
         id="feFlood4303"
         result="flood"
         flood-color="rgb(0,0,0)"
         flood-opacity="0.498039" />
      <feComposite
         id="feComposite4305"
         result="composite1"
         operator="in"
         in2="SourceGraphic"
         in="flood" />
      <feGaussianBlur
         id="feGaussianBlur4307"
         result="blur"
         stdDeviation="3.7"
         in="composite1" />
      <feOffset
         id="feOffset4309"
         result="offset"
         dy="3.7"
         dx="3.8" />
      <feComposite
         id="feComposite4311"
         result="composite2"
         operator="over"
         in2="offset"
         in="SourceGraphic" />
    </filter>
    <clipPath
       clipPathUnits="userSpaceOnUse"
       id="clipPath4567">
      <path
         style="fill:#d72226;fill-opacity:1"
         d="M 127.83594,796.36506 A 128,128 0 0 0 0,924.3592 a 128,128 0 0 0 128,128 128,128 0 0 0 127.99219,-127.83789 L 127.83594,796.36506 Z m 12.42383,0.60742 a 128,128 0 0 1 7.76757,1.1211 128,128 0 0 0 -7.76757,-1.1211 z m 12.58789,1.84961 a 128,128 0 0 1 8.42187,2.08984 128,128 0 0 0 -8.42187,-2.08984 z m 12.36328,3.09766 a 128,128 0 0 1 8.94531,3.19726 128,128 0 0 0 -8.94531,-3.19726 z m 11.98437,4.30468 a 128,128 0 0 1 9.34375,4.43946 128,128 0 0 0 -9.34375,-4.43946 z m 11.49805,5.47852 a 128,128 0 0 1 9.49414,5.73438 128,128 0 0 0 -9.49414,-5.73438 z m 10.90625,6.59961 a 128,128 0 0 1 9.66016,7.24414 128,128 0 0 0 -9.66016,-7.24414 z m 10.17773,7.63867 a 128,128 0 0 1 9.38868,8.62891 128,128 0 0 0 -9.38868,-8.62891 z m 9.38868,8.62891 0.98046,0.98047 a 128,128 0 0 0 -0.98046,-0.98047 z m 7.65039,8.57226 a 128,128 0 0 1 4.5039,5.92188 128,128 0 0 0 -4.5039,-5.92188 z m 7.63867,10.30469 a 128,128 0 0 1 3.81054,6.21289 128,128 0 0 0 -3.81054,-6.21289 z m 6.57617,11.03125 a 128,128 0 0 1 3.08203,6.37695 128,128 0 0 0 -3.08203,-6.37695 z m 5.4375,11.63867 a 128,128 0 0 1 2.37695,6.50782 128,128 0 0 0 -2.37695,-6.50782 z m 4.23242,12.09375 a 128,128 0 0 1 1.68555,6.59375 128,128 0 0 0 -1.68555,-6.59375 z m 3.00781,12.48633 a 128,128 0 0 1 0.99024,6.53906 128,128 0 0 0 -0.99024,-6.53906 z m 1.74024,12.71094 A 128,128 0 0 1 256,924.3592 128,128 0 0 0 255.44922,913.40803 Z"
         id="path4569"
         inkscape:connector-curvature="0" />
    </clipPath>
    <clipPath
       id="clipPath4830"
       clipPathUnits="userSpaceOnUse">
      <path
         style="fill:#d72226;fill-opacity:1"
         d="M 36.100903,-65.836023 A 92.933449,92.933449 0 0 0 -56.713432,27.093172 92.933449,92.933449 0 0 0 36.220018,120.02662 92.933449,92.933449 0 0 0 129.1478,27.21087 L 36.100903,-65.836023 Z m 9.02023,0.441013 a 92.933449,92.933449 0 0 1 5.639586,0.813966 92.933449,92.933449 0 0 0 -5.639586,-0.813966 z m 9.139344,1.342895 a 92.933449,92.933449 0 0 1 6.114636,1.517313 92.933449,92.933449 0 0 0 -6.114636,-1.517313 z m 8.976267,2.249033 a 92.933449,92.933449 0 0 1 6.494676,2.321347 92.933449,92.933449 0 0 0 -6.494676,-2.321347 z m 8.701163,3.125381 a 92.933449,92.933449 0 0 1 6.78396,3.223237 92.933449,92.933449 0 0 0 -6.78396,-3.223237 z m 8.348074,3.977639 a 92.933449,92.933449 0 0 1 6.89315,4.163404 92.933449,92.933449 0 0 0 -6.89315,-4.163404 z m 7.918402,4.791598 a 92.933449,92.933449 0 0 1 7.013687,5.259554 92.933449,92.933449 0 0 0 -7.013687,-5.259554 z m 7.389465,5.545999 a 92.933449,92.933449 0 0 1 6.816582,6.264956 92.933449,92.933449 0 0 0 -6.816582,-6.264956 z m 6.816582,6.264956 0.71186,0.711863 a 92.933449,92.933449 0 0 0 -0.71186,-0.711863 z m 5.55451,6.223826 a 92.933449,92.933449 0 0 1 3.27002,4.299537 92.933449,92.933449 0 0 0 -3.27002,-4.299537 z m 5.546,7.481644 a 92.933449,92.933449 0 0 1 2.76661,4.510822 92.933449,92.933449 0 0 0 -2.76661,-4.510822 z m 4.77458,8.009157 a 92.933449,92.933449 0 0 1 2.23768,4.629937 92.933449,92.933449 0 0 0 -2.23768,-4.629937 z m 3.94785,8.4501699 a 92.933449,92.933449 0 0 1 1.72577,4.7249544 92.933449,92.933449 0 0 0 -1.72577,-4.7249544 z m 3.07292,8.78057736 a 92.933449,92.933449 0 0 1 1.22378,4.78734324 92.933449,92.933449 0 0 0 -1.22378,-4.78734324 z m 2.1838,9.06560714 a 92.933449,92.933449 0 0 1 0.71896,4.7476356 92.933449,92.933449 0 0 0 -0.71896,-4.7476356 z m 1.26349,9.2286836 a 92.933449,92.933449 0 0 1 0.39989,7.951016 92.933449,92.933449 0 0 0 -0.39989,-7.951016 z"
         id="path4832"
         inkscape:connector-curvature="0" />
    </clipPath>
    <clipPath
       clipPathUnits="userSpaceOnUse"
       id="clipPath1471">
      <path
         style="fill:#d72226;fill-opacity:1;stroke-width:0.79204649"
         d="M 43.350502,-81.680116 A 101.38195,101.38195 0 0 0 -57.901501,19.69719 101.38195,101.38195 0 0 0 43.480445,121.07914 101.38195,101.38195 0 0 0 144.85621,19.825588 Z m 9.840251,0.481105 a 101.38195,101.38195 0 0 1 6.152276,0.887963 101.38195,101.38195 0 0 0 -6.152276,-0.887963 z m 9.970194,1.464977 a 101.38195,101.38195 0 0 1 6.670512,1.65525 101.38195,101.38195 0 0 0 -6.670512,-1.65525 z m 9.792292,2.453491 a 101.38195,101.38195 0 0 1 7.085101,2.532378 101.38195,101.38195 0 0 0 -7.085101,-2.532378 z m 9.492178,3.409506 a 101.38195,101.38195 0 0 1 7.400684,3.516259 101.38195,101.38195 0 0 0 -7.400684,-3.516259 z m 9.106989,4.339243 a 101.38195,101.38195 0 0 1 7.5198,4.541895 101.38195,101.38195 0 0 0 -7.5198,-4.541895 z m 8.638254,5.227197 a 101.38195,101.38195 0 0 1 7.6513,5.737696 101.38195,101.38195 0 0 0 -7.6513,-5.737696 z m 8.06124,6.050182 a 101.38195,101.38195 0 0 1 7.43627,6.834497 101.38195,101.38195 0 0 0 -7.43627,-6.834497 z m 7.43627,6.834497 0.77657,0.776578 a 101.38195,101.38195 0 0 0 -0.77657,-0.776578 z m 6.05946,6.789629 a 101.38195,101.38195 0 0 1 3.5673,4.690404 101.38195,101.38195 0 0 0 -3.5673,-4.690404 z m 6.05018,8.161793 a 101.38195,101.38195 0 0 1 3.01813,4.920897 101.38195,101.38195 0 0 0 -3.01813,-4.920897 z m 5.20864,8.737262 a 101.38195,101.38195 0 0 1 2.44111,5.050841 101.38195,101.38195 0 0 0 -2.44111,-5.050841 z m 4.30675,9.218368 a 101.38195,101.38195 0 0 1 1.88265,5.154496 101.38195,101.38195 0 0 0 -1.88265,-5.154496 z m 3.35227,9.5788116 a 101.38195,101.38195 0 0 1 1.33504,5.2225564 101.38195,101.38195 0 0 0 -1.33504,-5.2225564 z m 2.38233,9.8897535 a 101.38195,101.38195 0 0 1 0.78431,5.1792393 101.38195,101.38195 0 0 0 -0.78431,-5.1792393 z m 1.37835,10.0676549 a 101.38195,101.38195 0 0 1 0.43624,8.673836 101.38195,101.38195 0 0 0 -0.43624,-8.673836 z"
         id="path1473"
         inkscape:connector-curvature="0" />
    </clipPath>
  </defs>
  <metadata
     id="metadata7">
    <rdf:RDF>
      <cc:Work
         rdf:about="">
        <dc:format>image/svg+xml</dc:format>
        <dc:type
           rdf:resource="http://purl.org/dc/dcmitype/StillImage" />
        <dc:title />
      </cc:Work>
    </rdf:RDF>
  </metadata>
  <g
     transform="translate(0,-796.36214)"
     id="layer1"
     inkscape:groupmode="layer"
     inkscape:label="Layer 1">
    <path
       inkscape:connector-curvature="0"
       id="path4957"
       d="M 127.83594,796.36506 A 128,128 0 0 0 0,924.3592 a 128,128 0 0 0 128,128 128,128 0 0 0 127.99219,-127.83789 L 127.83594,796.36506 Z m 12.42383,0.60742 a 128,128 0 0 1 7.76757,1.1211 128,128 0 0 0 -7.76757,-1.1211 z m 12.58789,1.84961 a 128,128 0 0 1 8.42187,2.08984 128,128 0 0 0 -8.42187,-2.08984 z m 12.36328,3.09766 a 128,128 0 0 1 8.94531,3.19726 128,128 0 0 0 -8.94531,-3.19726 z m 11.98437,4.30468 a 128,128 0 0 1 9.34375,4.43946 128,128 0 0 0 -9.34375,-4.43946 z m 11.49805,5.47852 a 128,128 0 0 1 9.49414,5.73438 128,128 0 0 0 -9.49414,-5.73438 z m 10.90625,6.59961 a 128,128 0 0 1 9.66016,7.24414 128,128 0 0 0 -9.66016,-7.24414 z m 10.17773,7.63867 a 128,128 0 0 1 9.38868,8.62891 128,128 0 0 0 -9.38868,-8.62891 z m 9.38868,8.62891 0.98046,0.98047 a 128,128 0 0 0 -0.98046,-0.98047 z m 7.65039,8.57226 a 128,128 0 0 1 4.5039,5.92188 128,128 0 0 0 -4.5039,-5.92188 z m 7.63867,10.30469 a 128,128 0 0 1 3.81054,6.21289 128,128 0 0 0 -3.81054,-6.21289 z m 6.57617,11.03125 a 128,128 0 0 1 3.08203,6.37695 128,128 0 0 0 -3.08203,-6.37695 z m 5.4375,11.63867 a 128,128 0 0 1 2.37695,6.50782 128,128 0 0 0 -2.37695,-6.50782 z m 4.23242,12.09375 a 128,128 0 0 1 1.68555,6.59375 128,128 0 0 0 -1.68555,-6.59375 z m 3.00781,12.48633 a 128,128 0 0 1 0.99024,6.53906 128,128 0 0 0 -0.99024,-6.53906 z m 1.74024,12.71094 A 128,128 0 0 1 256,924.3592 128,128 0 0 0 255.44922,913.40803 Z"
       style="fill:#d72226;fill-opacity:1" />
    <path
       inkscape:connector-curvature="0"
       id="rect4961"
       d="m 255.61415,924.52718 a 128,128 0 0 0 0.16406,-0.006 L 127.62197,796.36506 a 128,128 0 0 0 -0.008,0.16211 128,128 0 0 0 35.85352,88.80861 l 0.98046,0.98046 a 128,128 0 0 0 91.16603,38.21094 z"
       style="fill:#ff7272;fill-opacity:1" />
    <text
       id="text4164"
       y="965.15338"
       x="54.857143"
       style="font-style:normal;font-weight:normal;line-height:0%;font-family:sans-serif;letter-spacing:0px;word-spacing:0px;fill:#000000;fill-opacity:1;stroke:none;stroke-width:1px;stroke-linecap:butt;stroke-linejoin:miter;stroke-opacity:1"
       xml:space="preserve"><tspan
         style="font-size:40px;line-height:1.25"
         y="965.15338"
         x="54.857143"
         id="tspan4166"
         sodipodi:role="line"> </tspan></text>
    <g
       transform="matrix(1.2625522,0,0,1.2625522,73.103668,899.49047)"
       id="g1006"
       ns2:layer="yes"
       ns2:dimmedPercent="50"
       ns2:rgbTrio="#4F008000FFFF"
       style="fill:#840202;fill-opacity:1"
       clip-path="url(#clipPath1471)">
      <g
         id="g1004"
         style="fill:#840202;fill-opacity:1">
        <path
           style="fill:#840202;fill-opacity:1"
           inkscape:connector-curvature="0"
           ns2:knockout="Off"
           d="m 51.986,57.297 c -1.797,0.025 0.34,0.926 2.686,1.287 0.648,-0.506 1.236,-1.018 1.76,-1.516 -1.461,0.358 -2.948,0.366 -4.446,0.229"
           id="path986" />
        <path
           style="fill:#840202;fill-opacity:1"
           inkscape:connector-curvature="0"
           ns2:knockout="Off"
           d="m 61.631,54.893 c 1.07,-1.477 1.85,-3.094 2.125,-4.766 -0.24,1.192 -0.887,2.221 -1.496,3.307 -3.359,2.115 -0.316,-1.256 -0.002,-2.537 -3.612,4.546 -0.496,2.726 -0.627,3.996"
           id="path988" />
        <path
           style="fill:#840202;fill-opacity:1"
           inkscape:connector-curvature="0"
           ns2:knockout="Off"
           d="m 65.191,45.629 c 0.217,-3.236 -0.637,-2.213 -0.924,-0.978 0.335,0.174 0.6,2.281 0.924,0.978"
           id="path990" />
        <path
           style="fill:#840202;fill-opacity:1"
           inkscape:connector-curvature="0"
           ns2:knockout="Off"
           d="m 45.172,1.399 c 0.959,0.172 2.072,0.304 1.916,0.533 1.049,-0.23 1.287,-0.442 -1.916,-0.533"
           id="path992" />
        <path
           style="fill:#840202;fill-opacity:1"
           inkscape:connector-curvature="0"
           ns2:knockout="Off"
           d="M 47.088,1.932 46.41,2.072 47.041,2.016 47.088,1.932"
           id="path994" />
        <path
           style="fill:#840202;fill-opacity:1"
           inkscape:connector-curvature="0"
           ns2:knockout="Off"
           d="m 32.372,59.764 -0.252,1.26 c 1.181,1.604 2.118,3.342 3.626,4.596 -1.085,-2.118 -1.891,-2.993 -3.374,-5.856"
           id="path998" />
        <path
           style="fill:#840202;fill-opacity:1"
           inkscape:connector-curvature="0"
           ns2:knockout="Off"
           d="m 35.164,59.654 c -0.625,-0.691 -0.995,-1.523 -1.409,-2.352 0.396,1.457 1.207,2.709 1.962,3.982 l -0.553,-1.63"
           id="path1000" />
        <path
           style="fill:#840202;fill-opacity:1"
           inkscape:connector-curvature="0"
           ns2:knockout="Off"
           d="M 45.527,0.537 C 46.742,0.092 48.514,0.293 49.803,0 48.123,0.141 46.451,0.225 44.8,0.438 l 0.727,0.099"
           id="path1002" />
        <g
           id="g1297">
          <g
             id="g1294"
             style="fill:#840202;fill-opacity:1">
            <path
               id="path1044"
               d="M76.992 46.856C77.099 49.762 76.142 51.172 75.279 53.668L-66.1423562373 195.089356237C-65.2793562373 192.593356237 -64.3223562373 191.183356237 -64.4293562373 188.277356237Z" />
            <path
               id="path1046"
               d="M75.279 53.668L73.726 54.444L-67.6953562373 195.865356237L-66.1423562373 195.089356237Z" />
            <path
               id="path1048"
               d="M73.726 54.444C72.455 56.912 73.849 56.011 72.939 57.974L-68.4823562373 199.395356237C-67.5723562373 197.432356237 -68.9663562373 198.333356237 -67.6953562373 195.865356237Z" />
            <path
               id="path1050"
               d="M72.939 57.974C70.955 59.738 66.918 63.494 65.626 63.837L-75.7953562373 205.258356237C-74.5033562373 204.915356237 -70.4663562373 201.159356237 -68.4823562373 199.395356237Z" />
            <path
               id="path1052"
               d="M65.626 63.837C65.0643322485 63.8244920225 65.3984354501 63.4320352565 65.8042322185 63.0262384881L-75.6171240188 204.447594725C-76.0229207872 204.853391494 -76.3570239889 205.24584826 -75.7953562373 205.258356237Z" />
            <path
               id="path1054"
               d="M65.8042322185 63.0262384881C66.0101927319 62.8202779748 66.2346217166 62.610881038 66.369774913 62.4459800599L-75.0515813243 203.867336297C-75.1867345207 204.032237275 -75.4111635054 204.241634212 -75.6171240188 204.447594725Z" />
            <path
               id="path1056"
               d="M66.369774913 62.4459800599C66.415411958 62.3902981111 66.450869746 62.3396896074 66.472 62.296L-74.9493562373 203.717356237C-74.9704864914 203.761045845 -75.0059442793 203.811654348 -75.0515813243 203.867336297Z" />
            <path
               id="path1058"
               d="M66.472 62.296C63.816 64.12 64.341 65.034 60.279 66.142L-81.1423562373 207.563356237C-77.0803562373 206.455356237 -77.6053562373 205.541356237 -74.9493562373 203.717356237Z" />
            <path
               id="path1060"
               d="M60.279 66.142L60.16 65.878L-81.2613562373 207.299356237L-81.1423562373 207.563356237Z" />
            <path
               id="path1062"
               d="M60.16 65.878C50.142 70.591 36.226 61.251 36.409 48.507L-105.012356237 189.928356237C-105.195356237 202.672356237 -91.2793562373 212.012356237 -81.2613562373 207.299356237Z" />
            <path
               id="path1064"
               d="M36.409 48.507C36.3550925627 48.9145805307 36.2783411161 49.065546691 36.1870577091 49.156830098L-105.234298528 190.578186335C-105.143015121 190.486902928 -105.066263675 190.335936768 -105.012356237 189.928356237Z" />
            <path
               id="path1066"
               d="M36.1870577091 49.156830098C36.109007511 49.2348802961 36.0203333012 49.2692976838 35.9262309054 49.3831833666L-105.495125332 190.804539604C-105.401022936 190.690653921 -105.312348726 190.656236533 -105.234298528 190.578186335Z" />
            <path
               id="path1068"
               d="M35.9262309054 49.3831833666C35.9119397327 49.4004789938 35.8975233645 49.4196074766 35.883 49.441L-105.538356237 190.862356237C-105.523832873 190.840963714 -105.509416505 190.821835231 -105.495125332 190.804539604Z" />
            <path
               id="path1070"
               d="M35.883 49.441C35.5073468523 44.6766717805 37.2762275138 39.8970330045 40.5651255551 36.6081349632L-100.856230682 178.029491201C-104.145128723 181.318389242 -105.914009385 186.098028018 -105.538356237 190.862356237Z" />
            <path
               id="path1072"
               d="M40.5651255551 36.6081349632C41.8026378414 35.370622677 43.25535236 34.3441676708 44.89 33.609L-96.5313562373 175.030356237C-98.1660038773 175.765523908 -99.618718396 176.791978914 -100.856230682 178.029491201Z" />
            <path
               id="path1074"
               d="M44.89 33.609C50.738 30.714 57.594 31.902 61.783 35.806L-79.6383562373 177.227356237C-83.8273562373 173.323356237 -90.6833562373 172.135356237 -96.5313562373 175.030356237Z" />
            <path
               id="path1076"
               d="M61.783 35.806C59.482 32.792 54.902 29.597 49.474 29.896L-91.9473562373 171.317356237C-86.5193562373 171.018356237 -81.9393562373 174.213356237 -79.6383562373 177.227356237Z" />
            <path
               id="path1078"
               d="M49.474 29.896C45.6366176508 29.9566244343 41.9778967896 31.7335450867 39.614720959 34.0967209173L-101.806635278 175.518077155C-99.4434594477 173.154901324 -95.7847385865 171.377980672 -91.9473562373 171.317356237Z" />
            <path
               id="path1080"
               d="M39.614720959 34.0967209173C38.7035277672 35.0079141091 37.9849457025 36.0062669657 37.523 37.027L-103.898356237 178.448356237C-103.436410535 177.427623203 -102.71782847 176.429270346 -101.806635278 175.518077155Z" />
            <path
               id="path1082"
               d="M37.523 37.027C37.2518584986 37.1977076633 37.0045750101 37.3999320788 36.7779157722 37.6265913167L-104.643440465 179.047947554C-104.416781227 178.821288316 -104.169497739 178.619063901 -103.898356237 178.448356237Z" />
            <path
               id="path1084"
               d="M36.7779157722 37.6265913167C34.7908121673 39.6136949216 34.3888658102 43.4788321447 33.3931162 44.4500861341L-108.028240037 185.871442371C-107.032490427 184.900188382 -106.63054407 181.035051159 -104.643440465 179.047947554Z" />
            <path
               id="path1086"
               d="M33.3931162 44.4500861341C33.36137119 44.4810502111 33.3290226577 44.5090730402 33.296 44.534L-108.125356237 185.955356237C-108.09233358 185.930429277 -108.059985047 185.902406448 -108.028240037 185.871442371Z" />
            <path
               id="path1088"
               d="M33.296 44.534C31.699 56.271 36.3 61.342 44.083 67.307L-97.3383562373 208.728356237C-105.121356237 202.763356237 -109.722356237 197.692356237 -108.125356237 185.955356237Z" />
            <path
               id="path1090"
               d="M44.083 67.307C45.308 68.133 44.428 68.258 44.594 68.887L-96.8273562373 210.308356237C-96.9933562373 209.679356237 -96.1133562373 209.554356237 -97.3383562373 208.728356237Z" />
            <path
               id="path1092"
               d="M44.594 68.887C42.008 67.676 39.64 65.848 37.693 63.61L-103.728356237 205.031356237C-101.781356237 207.269356237 -99.4133562373 209.097356237 -96.8273562373 210.308356237Z" />
            <path
               id="path1094"
               d="M37.693 63.61C38.726 65.122 39.841 66.592 41.282 67.747L-100.139356237 209.168356237C-101.580356237 208.013356237 -102.695356237 206.543356237 -103.728356237 205.031356237Z" />
            <path
               id="path1096"
               d="M41.282 67.747C38.844 66.921 35.587 61.839 34.636 61.632L-106.785356237 203.053356237C-105.834356237 203.260356237 -102.577356237 208.342356237 -100.139356237 209.168356237Z" />
            <path
               id="path1098"
               d="M34.636 61.632C38.839 69.157 51.688 74.829 58.416 72.015L-83.0053562373 213.436356237C-89.7333562373 216.250356237 -102.582356237 210.578356237 -106.785356237 203.053356237Z" />
            <path
               id="path1100"
               d="M58.416 72.015C55.303 72.13 51.348 72.079 47.85 70.786L-93.5713562373 212.207356237C-90.0733562373 213.500356237 -86.1183562373 213.551356237 -83.0053562373 213.436356237Z" />
            <path
               id="path1102"
               d="M47.85 70.786C46.3940361922 70.0367088913 44.4184196232 68.4917301897 44.7310501 68.1790997129L-96.6903061373 209.60045595C-97.0029366141 209.913086427 -95.0273200451 211.458065129 -93.5713562373 212.207356237Z" />
            <path
               id="path1104"
               d="M44.7310501 68.1790997129C44.7338492843 68.1763005286 44.7368319124 68.1736001391 44.74 68.171L-96.6813562373 209.592356237C-96.6845243249 209.594956376 -96.687506953 209.597656766 -96.6903061373 209.60045595Z" />
            <path
               id="path1106"
               d="M44.74 68.171C53.922 71.601 63.407 70.769 71.352 64.4L-70.0693562373 205.821356237C-78.0143562373 212.190356237 -87.4993562373 213.022356237 -96.6813562373 209.592356237Z" />
            <path
               id="path1108"
               d="M71.352 64.4C73.373 62.826 75.581 60.148 76.219 60.111L-65.2023562373 201.532356237C-65.8403562373 201.569356237 -68.0483562373 204.247356237 -70.0693562373 205.821356237Z" />
            <path
               id="path1110"
               d="M76.219 60.111C75.258 61.556 76.383 60.806 75.645 62.082L-65.7763562373 203.503356237C-65.0383562373 202.227356237 -66.1633562373 202.977356237 -65.2023562373 201.532356237Z" />
            <path
               id="path1112"
               d="M75.645 62.082C77.659 58.834 74.77 60.76 77.727 56.473L-63.6943562373 197.894356237C-66.6513562373 202.181356237 -63.7623562373 200.255356237 -65.7763562373 203.503356237Z" />
            <path
               id="path1114"
               d="M77.727 56.473L78.819 57.977L-62.6023562373 199.398356237L-63.6943562373 197.894356237Z" />
            <path
               id="path1116"
               d="M78.819 57.977C78.413 55.281 82.167 52.007 81.786 47.743L-59.6353562373 189.164356237C-59.2543562373 193.428356237 -63.0083562373 196.702356237 -62.6023562373 199.398356237Z" />
            <path
               id="path1118"
               d="M81.786 47.743C81.8473511875 47.6500825221 81.904838489 47.5775304142 81.9583703711 47.5239985321L-59.4629858662 188.945354769C-59.5165177483 188.998886652 -59.5740050498 189.071438759 -59.6353562373 189.164356237Z" />
            <path
               id="path1120"
               d="M81.9583703711 47.5239985321C82.6561026839 46.8262662193 82.6818722586 49.3597672038 81.833 52.146L-59.5883562373 193.567356237C-58.7394839787 190.781123441 -58.7652535534 188.247622457 -59.4629858662 188.945354769Z" />
            <path
               id="path1122"
               d="M81.833 52.146C83.101 48.818 82.167 48.283 82.493 45.537L-58.9283562373 186.958356237C-59.2543562373 189.704356237 -58.3203562373 190.239356237 -59.5883562373 193.567356237Z" />
            <path
               id="path1124"
               d="M82.493 45.537C82.845 46.46 83.307 47.441 83.544 48.415L-57.8773562373 189.836356237C-58.1143562373 188.862356237 -58.5763562373 187.881356237 -58.9283562373 186.958356237Z" />
            <path
               id="path1126"
               d="M83.544 48.415C82.718 45.199 84.392 42.999 84.806 41.13L-56.6153562373 182.551356237C-57.0293562373 184.420356237 -58.7033562373 186.620356237 -57.8773562373 189.836356237Z" />
            <path
               id="path1128"
               d="M84.806 41.13C84.398 40.949 83.531 42.552 83.333 38.753L-58.0883562373 180.174356237C-57.8903562373 183.973356237 -57.0233562373 182.370356237 -56.6153562373 182.551356237Z" />
            <path
               id="path1130"
               d="M83.333 38.753C83.3451198398 38.0634229094 83.4272790339 37.7991471349 83.5309355129 37.6954906559L-57.8904207244 179.116846893C-57.9940772034 179.220503372 -58.0762363975 179.484779147 -58.0883562373 180.174356237Z" />
            <path
               id="path1132"
               d="M83.5309355129 37.6954906559C83.6614328827 37.5649932861 83.8260019855 37.6890665645 83.9277851096 37.5395810735L-57.4935711277 178.960937311C-57.5953542518 179.110422802 -57.7599233546 178.986349523 -57.8904207244 179.116846893Z" />
            <path
               id="path1134"
               d="M83.9277851096 37.5395810735C83.9386050363 37.5236902069 83.9487154509 37.5047079935 83.958 37.482L-57.4633562373 178.903356237C-57.4726407864 178.926064231 -57.482751201 178.945046444 -57.4935711277 178.960937311Z" />
            <path
               id="path1136"
               d="M83.958 37.482C83.634 37.296 82.784 36.031 82.267 33.605L-59.1543562373 175.026356237C-58.6373562373 177.452356237 -57.7873562373 178.717356237 -57.4633562373 178.903356237Z" />
            <path
               id="path1138"
               d="M82.267 33.605C82.2801364709 33.5850325643 82.2935821816 33.5682777867 82.3073212697 33.5545386986L-59.1140349676 174.975894936C-59.1277740557 174.989634024 -59.1412197664 175.006388802 -59.1543562373 175.026356237Z" />
            <path
               id="path1140"
               d="M82.3073212697 33.5545386986C82.685784783 33.1760751853 83.2868656004 35.0859425695 83.779 35.167L-57.6423562373 176.588356237C-58.1344906369 176.507298807 -58.7355714543 174.597431423 -59.1140349676 174.975894936Z" />
            <path
               id="path1142"
               d="M83.779 35.167C83.451 33.238 82.886 31.767 82.863 30.287L-58.5583562373 171.708356237C-58.5353562373 173.188356237 -57.9703562373 174.659356237 -57.6423562373 176.588356237Z" />
            <path
               id="path1144"
               d="M82.863 30.287C82.2743866087 29.0568375165 82.0685849926 28.8633723922 81.9604648674 28.9714925173L-59.4608913699 170.392848755C-59.3527712447 170.284728629 -59.1469696286 170.478193754 -58.5583562373 171.708356237Z" />
            <path
               id="path1146"
               d="M81.9604648674 28.9714925173C81.8438625472 29.0880948375 81.8408694489 29.55545824 81.5938462162 29.451530469L-59.8275100211 170.872886706C-59.5804867884 170.976814477 -59.5774936901 170.509451075 -59.4608913699 170.392848755Z" />
            <path
               id="path1148"
               d="M81.5938462162 29.451530469C81.490102947 29.407883535 81.3433181461 29.2634734425 81.127 28.95L-60.2943562373 170.371356237C-60.0780380912 170.68482968 -59.9312532903 170.829239772 -59.8275100211 170.872886706Z" />
            <path
               id="path1150"
               d="M81.127 28.95C80.5772183939 27.2351389625 80.5667324085 26.5712314675 80.7958801626 26.3420837134L-60.6254760747 167.763439951C-60.8546238288 167.992587705 -60.8441378434 168.6564952 -60.2943562373 170.371356237Z" />
            <path
               id="path1152"
               d="M80.7958801626 26.3420837134C81.1660801124 25.9718837635 82.1617255534 26.7364093337 82.5192626418 26.0374185544L-58.9020935955 167.458774792C-59.2596306839 168.157765571 -60.2552761249 167.393240001 -60.6254760747 167.763439951Z" />
            <path
               id="path1154"
               d="M82.5192626418 26.0374185544C82.5788459629 25.9209322 82.6207077364 25.7638010643 82.639 25.554L-58.7823562373 166.975356237C-58.8006485009 167.185157302 -58.8425102744 167.342288437 -58.9020935955 167.458774792Z" />
            <path
               id="path1156"
               d="M82.639 25.554C85.043 29.037 86.414 34.435 87.043 36.671L-54.3783562373 178.092356237C-55.0073562373 175.856356237 -56.3783562373 170.458356237 -58.7823562373 166.975356237Z" />
            <path
               id="path1158"
               d="M87.043 36.671C86.563 33.945 85.787 31.304 84.84 28.749L-56.5813562373 170.170356237C-55.6343562373 172.725356237 -54.8583562373 175.366356237 -54.3783562373 178.092356237Z" />
            <path
               id="path1160"
               d="M84.84 28.749C84.8865290901 28.7685677132 84.922349183 28.7628539054 84.9491866553 28.736016433L-56.472169582 170.15737267C-56.4990070543 170.184210143 -56.5348271472 170.189923951 -56.5813562373 170.170356237Z" />
            <path
               id="path1162"
               d="M84.9491866553 28.736016433C85.2314336727 28.4537694157 84.5201562455 25.8351354923 84.8235166651 25.7166321238L-56.5978395722 167.137988361C-56.9011999918 167.25649173 -56.1899225646 169.875125653 -56.472169582 170.15737267Z" />
            <path
               id="path1164"
               d="M84.8235166651 25.7166321238C84.9438642222 25.6696200881 85.2238981253 26.0160851083 85.789 27.058L-55.6323562373 168.479356237C-56.197458112 167.437441346 -56.4774920151 167.090976325 -56.5978395722 167.137988361Z" />
            <path
               id="path1166"
               d="M85.789 27.058C83.519 18.706 76.074 10.902 69.225 7.24L-72.1963562373 148.661356237C-65.3473562373 152.323356237 -57.9023562373 160.127356237 -55.6323562373 168.479356237Z" />
            <path
               id="path1168"
               d="M69.225 7.24C70.0189855071 7.96671465865 71.0104676917 8.86938090273 70.7892157531 9.09063284132L-70.6321404842 150.511989079C-70.4108885456 150.29073714 -71.4023707302 149.388070896 -72.1963562373 148.661356237Z" />
            <path
               id="path1170"
               d="M70.7892157531 9.09063284132C70.776950678 9.10289791642 70.7609588393 9.11306898756 70.741 9.121L-70.6803562373 150.542356237C-70.660397398 150.534425225 -70.6444055593 150.524254154 -70.6321404842 150.511989079Z" />
            <path
               id="path1172"
               d="M70.741 9.121C67.335 7.093 67.934 6.935 67.446 6.078L-73.9753562373 147.499356237C-73.4873562373 148.356356237 -74.0863562373 148.514356237 -70.6803562373 150.542356237Z" />
            <path
               id="path1174"
               d="M67.446 6.078C64.671 4.949 64.489 6.169 62.651 6.08L-78.7703562373 147.501356237C-76.9323562373 147.590356237 -76.7503562373 146.370356237 -73.9753562373 147.499356237Z" />
            <path
               id="path1176"
               d="M62.651 6.08C57.421 3.306 56.413 3.601 51.6 1.863L-89.8213562373 143.284356237C-85.0083562373 145.022356237 -84.0003562373 144.727356237 -78.7703562373 147.501356237Z" />
            <path
               id="path1178"
               d="M51.6 1.863L51.819 2.886L-89.6023562373 144.307356237L-89.8213562373 143.284356237Z" />
            <path
               id="path1180"
               d="M51.819 2.886C48.354 1.732 47.782 3.324 44.037 2.89L-97.3843562373 144.311356237C-93.6393562373 144.745356237 -93.0673562373 143.153356237 -89.6023562373 144.307356237Z" />
            <path
               id="path1182"
               d="M44.037 2.89C44.0003043182 2.86135161683 44.0065050082 2.82524299507 44.0476432943 2.78410470902L-97.373712943 144.205460946C-97.4148512291 144.246599232 -97.4210519191 144.282707854 -97.3843562373 144.311356237Z" />
            <path
               id="path1184"
               d="M44.0476432943 2.78410470902C44.2621080862 2.5696399171 45.4261115181 2.21847823864 46.412 2.075L-95.0093562373 143.496356237C-95.9952447192 143.639834476 -97.1592481511 143.990996154 -97.373712943 144.205460946Z" />
            <path
               id="path1186"
               d="M46.412 2.075C43.062 2.517 43.219 1.415 39.941 2.197L-101.480356237 143.618356237C-98.2023562373 142.836356237 -98.3593562373 143.938356237 -95.0093562373 143.496356237Z" />
            <path
               id="path1188"
               d="M39.941 2.197C40.749 1.63 41.603 1.255 42.465 0.773L-98.9563562373 142.194356237C-99.8183562373 142.676356237 -100.672356237 143.051356237 -101.480356237 143.618356237Z" />
            <path
               id="path1190"
               d="M42.465 0.773C39.733 0.939 35.943 2.363 37.113 1.068L-104.308356237 142.489356237C-105.478356237 143.784356237 -101.688356237 142.360356237 -98.9563562373 142.194356237Z" />
            <path
               id="path1192"
               d="M37.113 1.068C32.657 3.056 24.743 5.847 20.302 10.011L-121.119356237 151.432356237C-116.678356237 147.268356237 -108.764356237 144.477356237 -104.308356237 142.489356237Z" />
            <path
               id="path1194"
               d="M20.302 10.011L20.162 9.078L-121.259356237 150.499356237L-121.119356237 151.432356237Z" />
            <path
               id="path1196"
               d="M20.162 9.078C19.9589862572 9.32171625236 19.7081618205 9.58941746985 19.4205453247 9.87703396562L-122.000810913 151.298390203C-121.713194417 151.010773707 -121.46236998 150.74307249 -121.259356237 150.499356237Z" />
            <path
               id="path1198"
               d="M19.4205453247 9.87703396562C17.9039360435 11.3936432469 15.3643307728 13.4639929368 13.4172316979 15.4914040431L-128.004124539 156.91276028C-126.057025464 154.885349174 -123.517420194 152.814999484 -122.000810913 151.298390203Z" />
            <path
               id="path1200"
               d="M13.4172316979 15.4914040431C12.0321779965 16.9335870801 10.946936991 18.3540428633 10.743 19.538L-130.678356237 160.959356237C-130.474419246 159.775399101 -129.389178241 158.354943317 -128.004124539 156.91276028Z" />
            <path
               id="path1202"
               d="M10.743 19.538L10.199 19.665L-131.222356237 161.086356237L-130.678356237 160.959356237Z" />
            <path
               id="path1204"
               d="M10.199 19.665C9.14 21.458 8.455 23.49 7.615 25.335L-133.806356237 166.756356237C-132.966356237 164.911356237 -132.281356237 162.879356237 -131.222356237 161.086356237Z" />
            <path
               id="path1206"
               d="M7.615 25.335C7.3466830703 25.792204299 7.10613949427 26.106338295 6.89411091519 26.3183668741L-134.527245322 167.739723111C-134.315216743 167.527694532 -134.074673167 167.213560536 -133.806356237 166.756356237Z" />
            <path
               id="path1208"
               d="M6.89411091519 26.3183668741C6.11987479252 27.0926029968 5.72585554088 26.5053730033 5.74816354869 26.5512448172L-135.673192689 167.972601054C-135.695500696 167.926729241 -135.301481445 168.513959234 -134.527245322 167.739723111Z" />
            <path
               id="path1210"
               d="M5.74816354869 26.5512448172C5.75128069635 26.557654588 5.76252667364 26.5764257322 5.782 26.613L-135.639356237 168.034356237C-135.658829564 167.99778197 -135.670075541 167.979010825 -135.673192689 167.972601054Z" />
            <path
               id="path1212"
               d="M5.782 26.613C3.058 32.136 1.705 36.777 0.536 40.583L-140.885356237 182.004356237C-139.716356237 178.198356237 -138.363356237 173.557356237 -135.639356237 168.034356237Z" />
            <path
               id="path1214"
               d="M0.536 40.583C3.3372769 67.924713 13.025696 99.477398 38.656 107.308L-102.765356237 248.729356237C-128.395660237 240.898754237 -138.084079337 209.346069237 -140.885356237 182.004356237Z" />
            <path
               id="path1216"
               d="M38.656 107.308C41.653 108.38 46.11 108.339 49.901 108.449L-91.5203562373 249.870356237C-95.3113562373 249.760356237 -99.7683562373 249.801356237 -102.765356237 248.729356237Z" />
            <path
               id="path1218"
               d="M49.901 108.449C45.428 107.17 44.85 107.771 40.493 106.252L-100.928356237 247.673356237C-96.5713562373 249.192356237 -95.9933562373 248.591356237 -91.5203562373 249.870356237Z" />
            <path
               id="path1220"
               d="M40.493 106.252C37.35 104.772 36.661 103.082 34.435 101.15L-106.986356237 242.571356237C-104.760356237 244.503356237 -104.071356237 246.193356237 -100.928356237 247.673356237Z" />
            <path
               id="path1222"
               d="M34.435 101.15L35.316 102.707L-106.105356237 244.128356237L-106.986356237 242.571356237Z" />
            <path
               id="path1224"
               d="M35.316 102.707C30.95 101.162 32.777 100.795 29.225 99.67L-112.196356237 241.091356237C-108.644356237 242.216356237 -110.471356237 242.583356237 -106.105356237 244.128356237Z" />
            <path
               id="path1226"
               d="M29.225 99.67L30.166 98.441L-111.255356237 239.862356237L-112.196356237 241.091356237Z" />
            <path
               id="path1228"
               d="M30.166 98.441C28.751 98.334 26.418 96.056 25.78 94.795L-115.641356237 236.216356237C-115.003356237 237.477356237 -112.670356237 239.755356237 -111.255356237 239.862356237Z" />
            <path
               id="path1230"
               d="M25.78 94.795L24.232 94.856L-117.189356237 236.277356237L-115.641356237 236.216356237Z" />
            <path
               id="path1232"
               d="M24.232 94.856C22.372 92.561 21.381 90.907 21.453 89.626L-119.968356237 231.047356237C-120.040356237 232.328356237 -119.049356237 233.982356237 -117.189356237 236.277356237Z" />
            <path
               id="path1234"
               d="M21.453 89.626L20.953 90.517L-120.468356237 231.938356237L-119.968356237 231.047356237Z" />
            <path
               id="path1236"
               d="M20.953 90.517C20.4721397012 89.6918199811 15.885158156 84.0758055564 16.4885891577 83.4723745546L-124.93276708 224.893730792C-125.536198081 225.497161794 -120.949216536 231.113176218 -120.468356237 231.938356237Z" />
            <path
               id="path1238"
               d="M16.4885891577 83.4723745546C16.5966857635 83.3642779488 16.8713423861 83.4170348342 17.366 83.687L-124.055356237 225.108356237C-124.550013851 224.838391072 -124.824670474 224.785634186 -124.93276708 224.893730792Z" />
            <path
               id="path1240"
               d="M17.366 83.687C16.761 83.134 15.957 82.787 15.085 81.203L-126.336356237 222.624356237C-125.464356237 224.208356237 -124.660356237 224.555356237 -124.055356237 225.108356237Z" />
            <path
               id="path1242"
               d="M15.085 81.203L15.748 80.445L-125.673356237 221.866356237L-126.336356237 222.624356237Z" />
            <path
               id="path1244"
               d="M15.748 80.445C14.181 78.429 12.864 75.845 12.964 74.984L-128.457356237 216.405356237C-128.557356237 217.266356237 -127.240356237 219.850356237 -125.673356237 221.866356237Z" />
            <path
               id="path1246"
               d="M12.964 74.984C13.8 76.113 14.38 76.324 14.954 76.517L-126.467356237 217.938356237C-127.041356237 217.745356237 -127.621356237 217.534356237 -128.457356237 216.405356237Z" />
            <path
               id="path1248"
               d="M14.954 76.517C10.997 66.699 10.775 75.976 7.778 66.523L-133.643356237 207.944356237C-130.646356237 217.397356237 -130.424356237 208.120356237 -126.467356237 217.938356237Z" />
            <path
               id="path1250"
               d="M7.778 66.523L8.412 66.472L-133.009356237 207.893356237L-133.643356237 207.944356237Z" />
            <path
               id="path1252"
               d="M8.412 66.472C7.926 65.74 7.631 64.945 7.24 64.165L-134.181356237 205.586356237C-133.790356237 206.366356237 -133.495356237 207.161356237 -133.009356237 207.893356237Z" />
            <path
               id="path1254"
               d="M7.24 64.165L7.516 61.415L-133.905356237 202.836356237L-134.181356237 205.586356237Z" />
            <path
               id="path1256"
               d="M7.516 61.415C4.667 58.121 6.719 47.409 7.13 41.534L-134.291356237 182.955356237C-134.702356237 188.830356237 -136.754356237 199.542356237 -133.905356237 202.836356237Z" />
            <path
               id="path1258"
               d="M7.13 41.534C7.415 39.145 9.508 36.602 11.1 32.614L-130.321356237 174.035356237C-131.913356237 178.023356237 -134.006356237 180.566356237 -134.291356237 182.955356237Z" />
            <path
               id="path1260"
               d="M11.1 32.614L10.13 32.447L-131.291356237 173.868356237L-130.321356237 174.035356237Z" />
            <path
               id="path1262"
               d="M10.13 32.447C10.965251398 30.9900404416 13.1964761683 28.2097679453 15.7661128106 25.640131303L-125.655243427 167.06148754C-128.224880069 169.631124183 -130.456104839 172.411396679 -131.291356237 173.868356237Z" />
            <path
               id="path1264"
               d="M15.7661128106 25.640131303C18.9002754627 22.5059686509 22.5378752177 19.6851576062 24.76 19.961L-116.661356237 161.382356237C-118.88348102 161.106513843 -122.521080775 163.927324888 -125.655243427 167.06148754Z" />
            <path
               id="path1266"
               d="M24.76 19.961C26.719 17.5 24.371 19.952 23.988 19.332L-117.433356237 160.753356237C-117.050356237 161.373356237 -114.702356237 158.921356237 -116.661356237 161.382356237Z" />
            <path
               id="path1268"
               d="M23.988 19.332C24.1047464332 19.2111838561 24.2193213328 19.0946077237 24.3318145916 18.9821144649L-117.089541646 160.403470702C-117.202034905 160.515963961 -117.316609804 160.632540093 -117.433356237 160.753356237Z" />
            <path
               id="path1270"
               d="M24.3318145916 18.9821144649C28.3655592918 14.9483697647 29.7227895984 16.1642677451 32.548 15.385L-108.873356237 156.806356237C-111.698566639 157.585623982 -113.055796946 156.369726002 -117.089541646 160.403470702Z" />
            <path
               id="path1272"
               d="M32.548 15.385C33.0634570404 15.0790502433 33.3364421233 14.8934426343 33.4394242998 14.7904604579L-107.981931938 156.211816695C-108.084914114 156.314798872 -108.357899197 156.500406481 -108.873356237 156.806356237Z" />
            <path
               id="path1274"
               d="M33.4394242998 14.7904604579C33.9580849623 14.2717997953 30.164546215 15.8489700141 31.3167895173 14.7036294073L-110.10456672 156.124985645C-111.256810022 157.270326251 -107.463271275 155.693156033 -107.981931938 156.211816695Z" />
            <path
               id="path1276"
               d="M31.3167895173 14.7036294073C31.3258834257 14.6945899774 31.3352854028 14.6853809646 31.345 14.676L-110.076356237 156.097356237C-110.086070835 156.106737202 -110.095472812 156.115946215 -110.10456672 156.124985645Z" />
            <path
               id="path1278"
               d="M31.345 14.676C36.759 13.293 35.182 11.532 42.245 10.83L-99.1763562373 152.251356237C-106.239356237 152.953356237 -104.662356237 154.714356237 -110.076356237 156.097356237Z" />
            <path
               id="path1280"
               d="M42.245 10.83C42.3985060094 10.9173644939 42.4153464244 10.996534996 42.339890953 11.0719904674L-99.0814652843 152.493346705C-99.006009813 152.417891233 -99.0228502279 152.338720731 -99.1763562373 152.251356237Z" />
            <path
               id="path1282"
               d="M42.339890953 11.0719904674C42.0491436525 11.3627377679 40.3880439841 11.5983265841 39.895 12.035L-101.526356237 153.456356237C-101.033312253 153.019682821 -99.3722125849 152.784094005 -99.0814652843 152.493346705Z" />
            <path
               id="path1284"
               d="M39.895 12.035C44.406 9.828 54.17 10.33 60.512 13.26L-80.9093562373 154.681356237C-87.2513562373 151.751356237 -97.0153562373 151.249356237 -101.526356237 153.456356237Z" />
            <path
               id="path1286"
               d="M60.512 13.26C67.871 16.699 76.139 26.865 76.465 36.43L-64.9563562373 177.851356237C-65.2823562373 168.286356237 -73.5503562373 158.120356237 -80.9093562373 154.681356237Z" />
            <path
               id="path1288"
               d="M76.465 36.43L76.836 36.53L-64.5853562373 177.951356237L-64.9563562373 177.851356237Z" />
            <path
               id="path1290"
               d="M76.836 36.53C76.648 40.332 77.418 44.729 76.084 48.768L-65.3373562373 190.189356237C-64.0033562373 186.150356237 -64.7733562373 181.753356237 -64.5853562373 177.951356237Z" />
            <path
               id="path1292"
               d="M76.084 48.768L76.992 46.856L-64.4293562373 188.277356237L-65.3373562373 190.189356237Z" />
          </g>
          <path
             style="fill:#840202;fill-opacity:1"
             d="m 76.992,46.856 c 0.107,2.906 -0.85,4.316 -1.713,6.812 l -1.553,0.776 c -1.271,2.468 0.123,1.567 -0.787,3.53 -1.984,1.764 -6.021,5.52 -7.313,5.863 -0.943,-0.021 0.639,-1.113 0.846,-1.541 -2.656,1.824 -2.131,2.738 -6.193,3.846 L 60.16,65.878 C 50.142,70.591 36.226,61.251 36.409,48.507 c -0.107,0.809 -0.304,0.607 -0.526,0.934 -0.517,-6.557 3.028,-13.143 9.007,-15.832 5.848,-2.895 12.704,-1.707 16.893,2.197 -2.301,-3.014 -6.881,-6.209 -12.309,-5.91 -5.317,0.084 -10.291,3.463 -11.951,7.131 -2.724,1.715 -3.04,6.611 -4.227,7.507 -1.597,11.737 3.004,16.808 10.787,22.773 1.225,0.826 0.345,0.951 0.511,1.58 -2.586,-1.211 -4.954,-3.039 -6.901,-5.277 1.033,1.512 2.148,2.982 3.589,4.137 -2.438,-0.826 -5.695,-5.908 -6.646,-6.115 4.203,7.525 17.052,13.197 23.78,10.383 -3.113,0.115 -7.068,0.064 -10.566,-1.229 -1.469,-0.756 -3.467,-2.322 -3.11,-2.615 9.182,3.43 18.667,2.598 26.612,-3.771 2.021,-1.574 4.229,-4.252 4.867,-4.289 -0.961,1.445 0.164,0.695 -0.574,1.971 2.014,-3.248 -0.875,-1.322 2.082,-5.609 l 1.092,1.504 c -0.406,-2.696 3.348,-5.97 2.967,-10.234 0.861,-1.304 0.961,1.403 0.047,4.403 1.268,-3.328 0.334,-3.863 0.66,-6.609 0.352,0.923 0.814,1.904 1.051,2.878 -0.826,-3.216 0.848,-5.416 1.262,-7.285 -0.408,-0.181 -1.275,1.422 -1.473,-2.377 0.029,-1.65 0.459,-0.865 0.625,-1.271 -0.324,-0.186 -1.174,-1.451 -1.691,-3.877 0.375,-0.57 1.002,1.478 1.512,1.562 -0.328,-1.929 -0.893,-3.4 -0.916,-4.88 -1.49,-3.114 -0.527,0.415 -1.736,-1.337 -1.586,-4.947 1.316,-1.148 1.512,-3.396 2.404,3.483 3.775,8.881 4.404,11.117 -0.48,-2.726 -1.256,-5.367 -2.203,-7.922 0.73,0.307 -1.176,-5.609 0.949,-1.691 C 83.519,18.706 76.074,10.902 69.225,7.24 70.063,8.007 71.121,8.97 70.741,9.121 67.335,7.093 67.934,6.935 67.446,6.078 64.671,4.949 64.489,6.169 62.651,6.08 57.421,3.306 56.413,3.601 51.6,1.863 l 0.219,1.023 c -3.465,-1.154 -4.037,0.438 -7.782,0.004 -0.228,-0.178 1.2,-0.644 2.375,-0.815 -3.35,0.442 -3.193,-0.66 -6.471,0.122 0.808,-0.567 1.662,-0.942 2.524,-1.424 -2.732,0.166 -6.522,1.59 -5.352,0.295 -4.456,1.988 -12.37,4.779 -16.811,8.943 l -0.14,-0.933 c -2.035,2.443 -8.874,7.296 -9.419,10.46 l -0.544,0.127 c -1.059,1.793 -1.744,3.825 -2.584,5.67 -1.385,2.36 -2.03,0.908 -1.833,1.278 -2.724,5.523 -4.077,10.164 -5.246,13.97 2.8012769,27.341713 12.489696,58.894398 38.12,66.725 2.997,1.072 7.454,1.031 11.245,1.141 -4.473,-1.279 -5.051,-0.678 -9.408,-2.197 -3.143,-1.48 -3.832,-3.17 -6.058,-5.102 l 0.881,1.557 c -4.366,-1.545 -2.539,-1.912 -6.091,-3.037 l 0.941,-1.229 C 28.751,98.334 26.418,96.056 25.78,94.795 l -1.548,0.061 c -1.86,-2.295 -2.851,-3.949 -2.779,-5.23 l -0.5,0.891 c -0.567,-0.973 -6.843,-8.607 -3.587,-6.83 -0.605,-0.553 -1.409,-0.9 -2.281,-2.484 l 0.663,-0.758 c -1.567,-2.016 -2.884,-4.6 -2.784,-5.461 0.836,1.129 1.416,1.34 1.99,1.533 -3.957,-9.818 -4.179,-0.541 -7.176,-9.994 L 8.412,66.472 C 7.926,65.74 7.631,64.945 7.24,64.165 l 0.276,-2.75 C 4.667,58.121 6.719,47.409 7.13,41.534 7.415,39.145 9.508,36.602 11.1,32.614 l -0.97,-0.167 c 1.854,-3.234 10.586,-12.988 14.63,-12.486 1.959,-2.461 -0.389,-0.009 -0.772,-0.629 4.303,-4.453 5.656,-3.146 8.56,-3.947 3.132,-1.859 -2.688,0.725 -1.203,-0.709 5.414,-1.383 3.837,-3.144 10.9,-3.846 0.745,0.424 -1.729,0.655 -2.35,1.205 4.511,-2.207 14.275,-1.705 20.617,1.225 7.359,3.439 15.627,13.605 15.953,23.17 l 0.371,0.1 c -0.188,3.802 0.582,8.199 -0.752,12.238 l 0.908,-1.912"
             id="path996"
             inkscape:connector-curvature="0"
             sodipodi:nodetypes="ccccccccccccccccccccccccccccccccccccccccccccccccccccccccccccccccccccccccccccccccccccccccccccccc" />
        </g>
      </g>
    </g>
    <g
       style="fill:#ffffff;fill-opacity:1"
       ns2:rgbTrio="#4F008000FFFF"
       ns2:dimmedPercent="50"
       ns2:layer="yes"
       id="g4964"
       transform="matrix(1.2625522,0,0,1.2625522,73.103668,899.49047)">
      <g
         style="fill:#ffffff;fill-opacity:1"
         id="g4966">
        <path
           id="path4968"
           d="m 51.986,57.297 c -1.797,0.025 0.34,0.926 2.686,1.287 0.648,-0.506 1.236,-1.018 1.76,-1.516 -1.461,0.358 -2.948,0.366 -4.446,0.229"
           ns2:knockout="Off"
           inkscape:connector-curvature="0"
           style="fill:#ffffff;fill-opacity:1" />
        <path
           id="path4970"
           d="m 61.631,54.893 c 1.07,-1.477 1.85,-3.094 2.125,-4.766 -0.24,1.192 -0.887,2.221 -1.496,3.307 -3.359,2.115 -0.316,-1.256 -0.002,-2.537 -3.612,4.546 -0.496,2.726 -0.627,3.996"
           ns2:knockout="Off"
           inkscape:connector-curvature="0"
           style="fill:#ffffff;fill-opacity:1" />
        <path
           id="path4972"
           d="m 65.191,45.629 c 0.217,-3.236 -0.637,-2.213 -0.924,-0.978 0.335,0.174 0.6,2.281 0.924,0.978"
           ns2:knockout="Off"
           inkscape:connector-curvature="0"
           style="fill:#ffffff;fill-opacity:1" />
        <path
           id="path4974"
           d="m 45.172,1.399 c 0.959,0.172 2.072,0.304 1.916,0.533 1.049,-0.23 1.287,-0.442 -1.916,-0.533"
           ns2:knockout="Off"
           inkscape:connector-curvature="0"
           style="fill:#ffffff;fill-opacity:1" />
        <path
           id="path4976"
           d="M 47.088,1.932 46.41,2.072 47.041,2.016 47.088,1.932"
           ns2:knockout="Off"
           inkscape:connector-curvature="0"
           style="fill:#ffffff;fill-opacity:1" />
        <path
           sodipodi:nodetypes="cccccccccccccccccccccccccccccccccccccccccccccccccccccccccccccccccccccccccccccccccccccccccccccccc"
           inkscape:connector-curvature="0"
           id="path4978"
           d="m 76.992,46.856 c 0.107,2.906 -0.85,4.316 -1.713,6.812 l -1.553,0.776 c -1.271,2.468 0.123,1.567 -0.787,3.53 -1.984,1.764 -6.021,5.52 -7.313,5.863 -0.943,-0.021 0.639,-1.113 0.846,-1.541 -2.656,1.824 -2.131,2.738 -6.193,3.846 L 60.16,65.878 C 50.142,70.591 36.226,61.251 36.409,48.507 c -0.107,0.809 -0.304,0.607 -0.526,0.934 -0.517,-6.557 3.028,-13.143 9.007,-15.832 5.848,-2.895 12.704,-1.707 16.893,2.197 -2.301,-3.014 -6.881,-6.209 -12.309,-5.91 -5.317,0.084 -10.291,3.463 -11.951,7.131 -2.724,1.715 -3.04,6.611 -4.227,7.507 -1.597,11.737 3.004,16.808 10.787,22.773 1.225,0.826 0.345,0.951 0.511,1.58 -2.586,-1.211 -4.954,-3.039 -6.901,-5.277 1.033,1.512 2.148,2.982 3.589,4.137 -2.438,-0.826 -5.695,-5.908 -6.646,-6.115 4.203,7.525 17.052,13.197 23.78,10.383 -3.113,0.115 -7.068,0.064 -10.566,-1.229 -1.469,-0.756 -3.467,-2.322 -3.11,-2.615 9.182,3.43 18.667,2.598 26.612,-3.771 2.021,-1.574 4.229,-4.252 4.867,-4.289 -0.961,1.445 0.164,0.695 -0.574,1.971 2.014,-3.248 -0.875,-1.322 2.082,-5.609 l 1.092,1.504 c -0.406,-2.696 3.348,-5.97 2.967,-10.234 0.861,-1.304 0.961,1.403 0.047,4.403 1.268,-3.328 0.334,-3.863 0.66,-6.609 0.352,0.923 0.814,1.904 1.051,2.878 -0.826,-3.216 0.848,-5.416 1.262,-7.285 -0.408,-0.181 -1.275,1.422 -1.473,-2.377 0.029,-1.65 0.459,-0.865 0.625,-1.271 -0.324,-0.186 -1.174,-1.451 -1.691,-3.877 0.375,-0.57 1.002,1.478 1.512,1.562 -0.328,-1.929 -0.893,-3.4 -0.916,-4.88 -1.49,-3.114 -0.527,0.415 -1.736,-1.337 -1.586,-4.947 1.316,-1.148 1.512,-3.396 2.404,3.483 3.775,8.881 4.404,11.117 -0.48,-2.726 -1.256,-5.367 -2.203,-7.922 0.73,0.307 -1.176,-5.609 0.949,-1.691 C 83.519,18.706 76.074,10.902 69.225,7.24 70.063,8.007 71.121,8.97 70.741,9.121 67.335,7.093 67.934,6.935 67.446,6.078 64.671,4.949 64.489,6.169 62.651,6.08 57.421,3.306 56.413,3.601 51.6,1.863 l 0.219,1.023 c -3.465,-1.154 -4.037,0.438 -7.782,0.004 -0.228,-0.178 1.2,-0.644 2.375,-0.815 -3.35,0.442 -3.193,-0.66 -6.471,0.122 0.808,-0.567 1.662,-0.942 2.524,-1.424 -2.732,0.166 -6.522,1.59 -5.352,0.295 -4.456,1.988 -12.37,4.779 -16.811,8.943 l -0.14,-0.933 c -2.035,2.443 -8.874,7.296 -9.419,10.46 l -0.544,0.127 c -1.059,1.793 -1.744,3.825 -2.584,5.67 -1.385,2.36 -2.03,0.908 -1.833,1.278 -2.724,5.523 -4.077,10.164 -5.246,13.97 0.833,1.245 0.02,7.495 0.335,12.497 -1.368,24.704 17.338,48.69 37.785,54.228 2.997,1.072 7.454,1.031 11.245,1.141 -4.473,-1.279 -5.051,-0.678 -9.408,-2.197 -3.143,-1.48 -3.832,-3.17 -6.058,-5.102 l 0.881,1.557 c -4.366,-1.545 -2.539,-1.912 -6.091,-3.037 l 0.941,-1.229 C 28.751,98.334 26.418,96.056 25.78,94.795 l -1.548,0.061 c -1.86,-2.295 -2.851,-3.949 -2.779,-5.23 l -0.5,0.891 c -0.567,-0.973 -6.843,-8.607 -3.587,-6.83 -0.605,-0.553 -1.409,-0.9 -2.281,-2.484 l 0.663,-0.758 c -1.567,-2.016 -2.884,-4.6 -2.784,-5.461 0.836,1.129 1.416,1.34 1.99,1.533 -3.957,-9.818 -4.179,-0.541 -7.176,-9.994 L 8.412,66.472 C 7.926,65.74 7.631,64.945 7.24,64.165 l 0.276,-2.75 C 4.667,58.121 6.719,47.409 7.13,41.534 7.415,39.145 9.508,36.602 11.1,32.614 l -0.97,-0.167 c 1.854,-3.234 10.586,-12.988 14.63,-12.486 1.959,-2.461 -0.389,-0.009 -0.772,-0.629 4.303,-4.453 5.656,-3.146 8.56,-3.947 3.132,-1.859 -2.688,0.725 -1.203,-0.709 5.414,-1.383 3.837,-3.144 10.9,-3.846 0.745,0.424 -1.729,0.655 -2.35,1.205 4.511,-2.207 14.275,-1.705 20.617,1.225 7.359,3.439 15.627,13.605 15.953,23.17 l 0.371,0.1 c -0.188,3.802 0.582,8.199 -0.752,12.238 l 0.908,-1.912"
           style="fill:#ffffff;fill-opacity:1" />
        <path
           id="path4980"
           d="m 32.372,59.764 -0.252,1.26 c 1.181,1.604 2.118,3.342 3.626,4.596 -1.085,-2.118 -1.891,-2.993 -3.374,-5.856"
           ns2:knockout="Off"
           inkscape:connector-curvature="0"
           style="fill:#ffffff;fill-opacity:1" />
        <path
           id="path4982"
           d="m 35.164,59.654 c -0.625,-0.691 -0.995,-1.523 -1.409,-2.352 0.396,1.457 1.207,2.709 1.962,3.982 l -0.553,-1.63"
           ns2:knockout="Off"
           inkscape:connector-curvature="0"
           style="fill:#ffffff;fill-opacity:1" />
        <path
           id="path4986"
           d="M 45.527,0.537 C 46.742,0.092 48.514,0.293 49.803,0 48.123,0.141 46.451,0.225 44.8,0.438 l 0.727,0.099"
           ns2:knockout="Off"
           inkscape:connector-curvature="0"
           style="fill:#ffffff;fill-opacity:1" />
      </g>
    </g>
  </g>
</svg>
