<?xml version="1.0" encoding="UTF-8" standalone="no"?>
<!-- Created with Inkscape (http://www.inkscape.org/) -->

<svg
   xmlns:dc="http://purl.org/dc/elements/1.1/"
   xmlns:cc="http://creativecommons.org/ns#"
   xmlns:rdf="http://www.w3.org/1999/02/22-rdf-syntax-ns#"
   xmlns:svg="http://www.w3.org/2000/svg"
   xmlns="http://www.w3.org/2000/svg"
   xmlns:sodipodi="http://sodipodi.sourceforge.net/DTD/sodipodi-0.dtd"
   xmlns:inkscape="http://www.inkscape.org/namespaces/inkscape"
   sodipodi:docname="font-x-generic.svg"
   inkscape:version="0.91 r13725"
   version="1.1"
   id="svg2"
   viewBox="0 0 256 256"
   height="256"
   width="256">
  <sodipodi:namedview
     inkscape:window-maximized="1"
     inkscape:window-y="0"
     inkscape:window-x="0"
     inkscape:window-height="1033"
     inkscape:window-width="1920"
     units="px"
     showgrid="false"
     inkscape:current-layer="layer1"
     inkscape:document-units="px"
     inkscape:cy="128"
     inkscape:cx="128"
     inkscape:zoom="3.2851562"
     inkscape:pageshadow="2"
     inkscape:pageopacity="0.0"
     borderopacity="1.0"
     bordercolor="#666666"
     pagecolor="#ffffff"
     id="base" />
  <defs
     id="defs4">
    <filter
       id="filter4301"
       inkscape:label="Drop Shadow"
       style="color-interpolation-filters:sRGB;">
      <feFlood
         id="feFlood4303"
         result="flood"
         flood-color="rgb(0,0,0)"
         flood-opacity="0.498039" />
      <feComposite
         id="feComposite4305"
         result="composite1"
         operator="in"
         in2="SourceGraphic"
         in="flood" />
      <feGaussianBlur
         id="feGaussianBlur4307"
         result="blur"
         stdDeviation="3.7"
         in="composite1" />
      <feOffset
         id="feOffset4309"
         result="offset"
         dy="3.7"
         dx="3.8" />
      <feComposite
         id="feComposite4311"
         result="composite2"
         operator="over"
         in2="offset"
         in="SourceGraphic" />
    </filter>
    <clipPath
       clipPathUnits="userSpaceOnUse"
       id="clipPath4403">
      <path
         style="fill:#d7875f;fill-opacity:1"
         d="m 151.20117,796.84847 -105.78125,0 c -7.804357,0 -14.087891,6.28158 -14.087891,14.08594 l 0,227.33989 c 0,7.8043 6.283534,14.0878 14.087891,14.0878 l 165.16211,0 c 7.80436,0 14.08594,-6.2835 14.08594,-14.0878 l 0,-154.82232 -73.4668,-86.60351 z"
         id="path4405"
         inkscape:connector-curvature="0" />
    </clipPath>
    <clipPath
       clipPathUnits="userSpaceOnUse"
       id="clipPath4632">
      <path
         inkscape:connector-curvature="0"
         id="path4634"
         d="m 151.20117,796.60532 -105.78125,0 c -7.804357,0 -14.087891,6.28158 -14.087891,14.08594 l 0,227.33994 c 0,7.8043 6.283534,14.0878 14.087891,14.0878 l 165.16211,0 c 7.80436,0 14.08594,-6.2835 14.08594,-14.0878 l 0,-154.82237 -73.4668,-86.60351 z"
         style="opacity:0.93000016;fill:#f4b400;fill-opacity:1" />
    </clipPath>
    <clipPath
       id="clipPath6996"
       clipPathUnits="userSpaceOnUse">
      <path
         style="fill:#f16529;fill-opacity:1"
         d="m 151.20117,0.48637 -105.78125,0 c -7.804357,0 -14.087891,6.28158 -14.087891,14.08594 l 0,227.33985 c 0,7.8043 6.283534,14.0878 14.087891,14.0878 l 165.16211,0 c 7.80436,0 14.08594,-6.2835 14.08594,-14.0878 l 0,-154.82228 -73.4668,-86.60351 z"
         id="path6998"
         inkscape:connector-curvature="0" />
    </clipPath>
    <clipPath
       clipPathUnits="userSpaceOnUse"
       id="clipPath4601">
      <path
         style="fill:#f16529;fill-opacity:1"
         d="m 153.72271,734.9085 -117.277737,0 c -8.652548,0 -15.618987,6.96427 -15.618987,15.61682 l 0,252.04758 c 0,8.6524 6.966439,15.6188 15.618987,15.6188 l 183.112217,0 c 8.65255,0 15.61682,-6.9664 15.61682,-15.6188 l 0,-171.64867 -81.4513,-96.01573 z"
         id="path4603"
         inkscape:connector-curvature="0" />
    </clipPath>
  </defs>
  <metadata
     id="metadata7">
    <rdf:RDF>
      <cc:Work
         rdf:about="">
        <dc:format>image/svg+xml</dc:format>
        <dc:type
           rdf:resource="http://purl.org/dc/dcmitype/StillImage" />
        <dc:title />
      </cc:Work>
    </rdf:RDF>
  </metadata>
  <g
     transform="translate(0,-796.36214)"
     id="layer1"
     inkscape:groupmode="layer"
     inkscape:label="Layer 1">
    <path
       inkscape:connector-curvature="0"
       id="path4141"
       d="m 151.20117,796.84851 -105.78125,0 c -7.804357,0 -14.087891,6.28158 -14.087891,14.08594 l 0,227.33985 c 0,7.8043 6.283534,14.0878 14.087891,14.0878 l 165.16211,0 c 7.80436,0 14.08594,-6.2835 14.08594,-14.0878 l 0,-154.82228 -73.4668,-86.60351 z"
       style="fill:#4285f4;fill-opacity:1" />
    <path
       inkscape:connector-curvature="0"
       id="rect4136"
       d="m 224.85352,883.45199 -73.4668,-86.60352 0,72.51758 c 0,7.80436 6.28158,14.08594 14.08594,14.08594 l 59.38086,0 z"
       style="fill:#c3d8fb;fill-opacity:1;filter:url(#filter4301)" />
    <text
       sodipodi:linespacing="125%"
       id="text4143"
       y="951.72528"
       x="74.722427"
       style="font-style:normal;font-variant:normal;font-weight:bold;font-stretch:normal;font-size:80px;line-height:125%;font-family:FreeSerif;-inkscape-font-specification:'FreeSerif Bold';letter-spacing:0px;word-spacing:0px;fill:#ffffff;fill-opacity:1;stroke:none;stroke-width:1px;stroke-linecap:butt;stroke-linejoin:miter;stroke-opacity:1"
       xml:space="preserve"><tspan
         y="951.72528"
         x="74.722427"
         id="tspan4145"
         sodipodi:role="line" /></text>
    <text
       sodipodi:linespacing="125%"
       id="text4162"
       y="922.95557"
       x="69.391937"
       style="font-style:normal;font-weight:normal;font-size:80px;line-height:125%;font-family:sans-serif;letter-spacing:0px;word-spacing:0px;fill:#000000;fill-opacity:1;stroke:none;stroke-width:1px;stroke-linecap:butt;stroke-linejoin:miter;stroke-opacity:1"
       xml:space="preserve"><tspan
         y="922.95557"
         x="69.391937"
         id="tspan4164"
         sodipodi:role="line" /></text>
    <g
       transform="matrix(0.9019721,0,0,0.9019721,12.547571,133.98155)"
       id="g4257"
       clip-path="url(#clipPath4601)"
       style="fill:#224f9b;fill-opacity:1">
      <g
         id="text4259"
         style="font-style:normal;font-weight:normal;font-size:90px;line-height:125%;font-family:sans-serif;letter-spacing:0px;word-spacing:0px;fill:#224f9b;fill-opacity:1;stroke:none;stroke-width:1px;stroke-linecap:butt;stroke-linejoin:miter;stroke-opacity:1">
        <g
           id="g4313"
           transform="matrix(1.1086817,0,0,1.1086817,-13.911263,734.36927)"
           style="fill:#224f9b;fill-opacity:1">
          <g
             id="g4315"
             style="fill:#224f9b;fill-opacity:1">
            <path
               id="path4317"
               d="M117.05664 101.42773C114.67839 101.42773 112.23498 101.69025 109.72461 102.21875L-102.407424356 314.350784356C-99.897054356 313.822284356 -97.453644356 313.559764356 -95.075394356 313.559764356Z"
               style="fill:#224f9b;fill-opacity:1" />
            <path
               id="path4319"
               d="M109.72461 102.21875C107.21424 102.72082 104.624 103.487 101.95508 104.51758L-110.176954356 316.649614356C-107.508034356 315.619034356 -104.917794356 314.852854356 -102.407424356 314.350784356Z"
               style="fill:#224f9b;fill-opacity:1" />
            <path
               id="path4321"
               d="M101.95508 104.51758L101.95508 111.25781L-110.176954356 323.389844356L-110.176954356 316.649614356Z"
               style="fill:#224f9b;fill-opacity:1" />
            <path
               id="path4323"
               d="M101.95508 111.25781C104.17478 110.04227 106.48791 109.12926 108.89258 108.52148L-103.239454356 320.653514356C-105.644124356 321.261294356 -107.957254356 322.174304356 -110.176954356 323.389844356Z"
               style="fill:#224f9b;fill-opacity:1" />
            <path
               id="path4325"
               d="M108.89258 108.52148C111.29725 107.91371 113.76789 107.60938 116.30469 107.60938L-95.827344356 319.741414356C-98.364144356 319.741414356 -100.834784356 320.045744356 -103.239454356 320.653514356Z"
               style="fill:#224f9b;fill-opacity:1" />
            <path
               id="path4327"
               d="M116.30469 107.60938C120.29486 107.60938 123.38485 108.53501 125.57812 110.38477L-86.553914356 322.516804356C-88.747184356 320.667044356 -91.837174356 319.741414356 -95.827344356 319.741414356Z"
               style="fill:#224f9b;fill-opacity:1" />
            <path
               id="path4329"
               d="M125.57812 110.38477C127.79782 112.20808 128.9082 114.79832 128.9082 118.1543L-83.223834356 330.286334356C-83.223834356 326.930354356 -84.334214356 324.340114356 -86.553914356 322.516804356Z"
               style="fill:#224f9b;fill-opacity:1" />
            <path
               id="path4331"
               d="M128.9082 118.1543L128.9082 118.86719L-83.223834356 330.999224356L-83.223834356 330.286334356Z"
               style="fill:#224f9b;fill-opacity:1" />
            <path
               id="path4333"
               d="M128.9082 118.86719L118.68164 118.86719L-93.450394356 330.999224356L-83.223834356 330.999224356Z"
               style="fill:#224f9b;fill-opacity:1" />
            <path
               id="path4335"
               d="M118.68164 118.86719C112.04898 118.86719 107.05519 120.13508 103.69922 122.67188L-108.432814356 334.803914356C-105.076844356 332.267114356 -100.083054356 330.999224356 -93.450394356 330.999224356Z"
               style="fill:#224f9b;fill-opacity:1" />
            <path
               id="path4337"
               d="M103.69922 122.67188C103.243164678 123.019349352 102.818346208 123.389875834 102.424763649 123.783458393L-109.707270707 335.915492749C-109.313688148 335.52191019 -108.888869678 335.151383708 -108.432814356 334.803914356Z"
               style="fill:#224f9b;fill-opacity:1" />
            <path
               id="path4339"
               d="M102.424763649 123.783458393C99.9448947948 126.263327247 98.705078 129.658512298 98.705078 133.96875L-113.426956356 346.100784356C-113.426956356 341.790546654 -112.187139561 338.395361603 -109.707270707 335.915492749Z"
               style="fill:#224f9b;fill-opacity:1" />
            <path
               id="path4341"
               d="M98.705078 133.96875C98.705078 138.24959 100.04006 141.67116 102.70898 144.23438L-109.423054356 356.366414356C-112.091974356 353.803194356 -113.426956356 350.381624356 -113.426956356 346.100784356Z"
               style="fill:#224f9b;fill-opacity:1" />
            <path
               id="path4343"
               d="M102.70898 144.23438C105.40433 146.77117 109.02327 148.04102 113.56836 148.04102L-98.563674356 360.173054356C-103.108764356 360.173054356 -106.727704356 358.903204356 -109.423054356 356.366414356Z"
               style="fill:#224f9b;fill-opacity:1" />
            <path
               id="path4345"
               d="M113.56836 148.04102C117.16215 148.04102 120.2016 147.40707 122.68555 146.13867L-89.446484356 358.270704356C-91.930434356 359.539104356 -94.969884356 360.173054356 -98.563674356 360.173054356Z"
               style="fill:#224f9b;fill-opacity:1" />
            <path
               id="path4347"
               d="M122.68555 146.13867C124.015397034 145.445451751 125.227725895 144.551208635 126.322663951 143.456270579L-85.8093704054 355.588304935C-86.9043084607 356.683242991 -88.1166373216 357.577486107 -89.446484356 358.270704356Z"
               style="fill:#224f9b;fill-opacity:1" />
            <path
               id="path4349"
               d="M126.322663951 143.456270579C127.27289377 142.50604076 128.13471137 141.404658685 128.9082 140.15234L-83.223834356 352.284374356C-83.9973229855 353.536693041 -84.8591405858 354.638075116 -85.8093704054 355.588304935Z"
               style="fill:#224f9b;fill-opacity:1" />
            <path
               id="path4351"
               d="M128.9082 140.15234L128.9082 146.89062L-83.223834356 359.022654356L-83.223834356 352.284374356Z"
               style="fill:#224f9b;fill-opacity:1" />
            <path
               id="path4353"
               d="M128.9082 146.89062L136.20117 146.89062L-75.930864356 359.022654356L-83.223834356 359.022654356Z"
               style="fill:#224f9b;fill-opacity:1" />
            <path
               id="path4355"
               d="M136.20117 146.89062L136.20117 121.5625L-75.930864356 333.694534356L-75.930864356 359.022654356Z"
               style="fill:#224f9b;fill-opacity:1" />
            <path
               id="path4357"
               d="M136.20117 121.5625C136.20117 114.79771 134.6163 109.75142 131.44531 106.42188L-80.686724356 318.553914356C-77.515734356 321.883454356 -75.930864356 326.929744356 -75.930864356 333.694534356Z"
               style="fill:#224f9b;fill-opacity:1" />
            <path
               id="path4359"
               d="M131.44531 106.42188C128.27432 103.09233 123.47791 101.42773 117.05664 101.42773L-95.075394356 313.559764356C-88.654124356 313.559764356 -83.857714356 315.224364356 -80.686724356 318.553914356Z"
               style="fill:#224f9b;fill-opacity:1" />
            <path
               id="path4361"
               d="M121.6543 124.57422L128.9082 124.57422L-83.223834356 336.706254356L-90.477734356 336.706254356Z"
               style="fill:#224f9b;fill-opacity:1" />
            <path
               id="path4363"
               d="M128.9082 124.57422L128.9082 126.19922L-83.223834356 338.331254356L-83.223834356 336.706254356Z"
               style="fill:#224f9b;fill-opacity:1" />
            <path
               id="path4365"
               d="M128.9082 126.19922C128.9082 130.95571 127.68018 134.77593 125.22266 137.65625L-86.909374356 349.788284356C-84.451854356 346.907964356 -83.223834356 343.087744356 -83.223834356 338.331254356Z"
               style="fill:#224f9b;fill-opacity:1" />
            <path
               id="path4367"
               d="M125.22266 137.65625C124.992622146 137.926293491 124.755370277 138.183547082 124.510903984 138.428013374L-87.621130372 350.56004773C-87.3766640794 350.315581438 -87.1394122096 350.058327847 -86.909374356 349.788284356Z"
               style="fill:#224f9b;fill-opacity:1" />
            <path
               id="path4369"
               d="M124.510903984 138.428013374C122.171786772 140.767130586 119.172177521 141.93555 115.51172 141.93555L-96.620314356 354.067584356C-92.9598568351 354.067584356 -89.9602475835 352.899164942 -87.621130372 350.56004773Z"
               style="fill:#224f9b;fill-opacity:1" />
            <path
               id="path4371"
               d="M115.51172 141.93555C112.57855 141.93555 110.25278 141.18396 108.53516 139.67773L-103.596874356 351.809764356C-101.879254356 353.315994356 -99.553484356 354.067584356 -96.620314356 354.067584356Z"
               style="fill:#224f9b;fill-opacity:1" />
            <path
               id="path4373"
               d="M108.53516 139.67773C106.84396 138.14509 105.99805 136.08379 105.99805 133.49414L-106.133984356 345.626174356C-106.133984356 348.215824356 -105.288074356 350.277124356 -103.596874356 351.809764356Z"
               style="fill:#224f9b;fill-opacity:1" />
            <path
               id="path4375"
               d="M105.99805 133.49414C105.99805 130.963290099 106.686604632 129.008300207 108.06430403 127.630600809L-104.067730326 339.762635165C-105.445429724 341.140334563 -106.133984356 343.095324455 -106.133984356 345.626174356Z"
               style="fill:#224f9b;fill-opacity:1" />
            <path
               id="path4377"
               d="M108.06430403 127.630600809C108.455929246 127.238975593 108.903240051 126.893997704 109.40625 126.5957L-102.725784356 338.727734356C-103.228794305 339.02603206 -103.67610511 339.371009949 -104.067730326 339.762635165Z"
               style="fill:#224f9b;fill-opacity:1" />
            <path
               id="path4379"
               d="M109.40625 126.5957C111.6788 125.24803 115.76153 124.57422 121.6543 124.57422L-90.477734356 336.706254356C-96.370504356 336.706254356 -100.453234356 337.380064356 -102.725784356 338.727734356Z"
               style="fill:#224f9b;fill-opacity:1" />
            <path
               id="path4381"
               d="M148.2832 138.3418L148.2832 200.01758L-63.848834356 412.149614356L-63.848834356 350.473834356Z"
               style="fill:#224f9b;fill-opacity:1" />
            <path
               id="path4383"
               d="M148.2832 200.01758L155.61523 200.01758L-56.516804356 412.149614356L-63.848834356 412.149614356Z"
               style="fill:#224f9b;fill-opacity:1" />
            <path
               id="path4385"
               d="M155.61523 200.01758L155.61523 193.35938L-56.516804356 405.491414356L-56.516804356 412.149614356Z"
               style="fill:#224f9b;fill-opacity:1" />
            <path
               id="path4387"
               d="M155.61523 193.35938C157.14788 196.00187 159.07695 197.9708 161.40234 199.26562L-50.729694356 411.397654356C-53.055084356 410.102834356 -54.984154356 408.133904356 -56.516804356 405.491414356Z"
               style="fill:#224f9b;fill-opacity:1" />
            <path
               id="path4389"
               d="M161.40234 199.26562C163.75416 200.53402 166.55637 201.16797 169.80664 201.16797L-42.325394356 413.300004356C-45.575664356 413.300004356 -48.377874356 412.666054356 -50.729694356 411.397654356Z"
               style="fill:#224f9b;fill-opacity:1" />
            <path
               id="path4391"
               d="M169.80664 201.16797C174.407582939 201.16797 178.266801869 199.60831791 181.385353746 196.489766034L-30.74668061 408.62180039C-33.8652324865 411.740352266 -37.7244514169 413.300004356 -42.325394356 413.300004356Z"
               style="fill:#224f9b;fill-opacity:1" />
            <path
               id="path4393"
               d="M181.385353746 196.489766034C181.920649926 195.954469854 182.434123562 195.373243241 182.92578 194.74609L-29.206254356 406.878124356C-29.697910794 407.505277597 -30.2113844302 408.08650421 -30.74668061 408.62180039Z"
               style="fill:#224f9b;fill-opacity:1" />
            <path
               id="path4395"
               d="M182.92578 194.74609C186.30818 190.46525 188.0 184.83752 188.0 177.86133L-24.132034356 389.993364356C-24.132034356 396.969554356 -25.823854356 402.597284356 -29.206254356 406.878124356Z"
               style="fill:#224f9b;fill-opacity:1" />
            <path
               id="path4397"
               d="M188.0 177.86133C188.0 170.88514 186.30818 165.25545 182.92578 160.97461L-29.206254356 373.106644356C-25.823854356 377.387484356 -24.132034356 383.017174356 -24.132034356 389.993364356Z"
               style="fill:#224f9b;fill-opacity:1" />
            <path
               id="path4399"
               d="M182.92578 160.97461C179.56981 156.69377 175.19733 154.55469 169.80664 154.55469L-42.325394356 366.686724356C-36.934704356 366.686724356 -32.562224356 368.825804356 -29.206254356 373.106644356Z"
               style="fill:#224f9b;fill-opacity:1" />
            <path
               id="path4401"
               d="M169.80664 154.55469C166.55637 154.55469 163.75416 155.20127 161.40234 156.49609L-50.729694356 368.628124356C-48.377874356 367.333304356 -45.575664356 366.686724356 -42.325394356 366.686724356Z"
               style="fill:#224f9b;fill-opacity:1" />
            <path
               id="path4403"
               d="M161.40234 156.49609C160.268435365 157.114586097 159.228764691 157.896645835 158.283339574 158.842070953L-53.8486947822 370.974105309C-52.9032696646 370.028680191 -51.8635989911 369.246620453 -50.729694356 368.628124356Z"
               style="fill:#224f9b;fill-opacity:1" />
            <path
               id="path4406"
               d="M158.283339574 158.842070953C157.289904891 159.835505635 156.400530549 161.009318659 155.61523 162.36328L-56.516804356 374.495314356C-55.7315038066 373.141353015 -54.8421294648 371.967539991 -53.8486947822 370.974105309Z"
               style="fill:#224f9b;fill-opacity:1" />
            <path
               id="path4408"
               d="M155.61523 162.36328L155.61523 138.3418L-56.516804356 350.473834356L-56.516804356 374.495314356Z"
               style="fill:#224f9b;fill-opacity:1" />
            <path
               id="path4410"
               d="M155.61523 138.3418L148.2832 138.3418L-63.848834356 350.473834356L-56.516804356 350.473834356Z"
               style="fill:#224f9b;fill-opacity:1" />
            <path
               id="path4412"
               d="M116.5 156.03516C108.86612 156.03516 102.16836 157.35555 96.40625 159.99805L-115.725784356 372.130084356C-109.963674356 369.487584356 -103.265914356 368.167194356 -95.632034356 368.167194356Z"
               style="fill:#224f9b;fill-opacity:1" />
            <path
               id="path4414"
               d="M96.40625 159.99805C92.1504615387 161.962262689 88.2392757163 164.727870697 84.6728802209 168.294266192L-127.459154135 380.426300548C-123.89275864 376.859905053 -119.981572817 374.094297045 -115.725784356 372.130084356Z"
               style="fill:#224f9b;fill-opacity:1" />
            <path
               id="path4416"
               d="M84.6728802209 168.294266192C83.4413227512 169.525823662 82.2508807679 170.852873274 81.101562 172.27539L-131.030472356 384.407424356C-129.881153588 382.98490763 -128.690711605 381.657858018 -127.459154135 380.426300548Z"
               style="fill:#224f9b;fill-opacity:1" />
            <path
               id="path4418"
               d="M81.101562 172.27539C76.880909 177.48699 73.632905 183.24792 71.357422 189.56055L-140.774612356 401.692584356C-138.499129356 395.379954356 -135.251125356 389.619024356 -131.030472356 384.407424356Z"
               style="fill:#224f9b;fill-opacity:1" />
            <path
               id="path4420"
               d="M71.357422 189.56055C69.11864 195.87318 68.0 202.29724 68.0 208.83008L-144.132034356 420.962114356C-144.132034356 414.429274356 -143.013394356 408.005214356 -140.774612356 401.692584356Z"
               style="fill:#224f9b;fill-opacity:1" />
            <path
               id="path4422"
               d="M68.0 208.83008C68.0 219.03305 70.954365 226.99724 76.863281 232.72266L-135.268753356 444.854694356C-141.177669356 439.129274356 -144.132034356 431.165084356 -144.132034356 420.962114356Z"
               style="fill:#224f9b;fill-opacity:1" />
            <path
               id="path4424"
               d="M76.863281 232.72266C82.808898 238.44807 91.048747 241.31055 101.58203 241.31055L-110.550004356 453.442584356C-121.083287356 453.442584356 -129.323136356 450.580104356 -135.268753356 444.854694356Z"
               style="fill:#224f9b;fill-opacity:1" />
            <path
               id="path4426"
               d="M101.58203 241.31055C106.05959 241.31055 110.51812 240.83313 114.95898 239.87891L-97.173054356 452.010944356C-101.613914356 452.965164356 -106.072444356 453.442584356 -110.550004356 453.442584356Z"
               style="fill:#224f9b;fill-opacity:1" />
            <path
               id="path4428"
               d="M114.95898 239.87891C119.43655 238.92466 123.8591 237.51044 128.22656 235.63867L-83.905474356 447.770704356C-88.272934356 449.642474356 -92.695484356 451.056694356 -97.173054356 452.010944356Z"
               style="fill:#224f9b;fill-opacity:1" />
            <path
               id="path4430"
               d="M128.22656 235.63867L130.81445 222.48242L-81.317584356 434.614454356L-83.905474356 447.770704356Z"
               style="fill:#224f9b;fill-opacity:1" />
            <path
               id="path4432"
               d="M130.81445 222.48242C126.37359 225.74884 121.80324 228.20782 117.10547 229.85938L-95.026564356 441.991414356C-90.328794356 440.339854356 -85.758444356 437.880874356 -81.317584356 434.614454356Z"
               style="fill:#224f9b;fill-opacity:1" />
            <path
               id="path4434"
               d="M117.10547 229.85938C112.4077 231.47423 107.50969 232.28125 102.4082 232.28125L-109.723834356 444.413284356C-104.622344356 444.413284356 -99.724334356 443.606264356 -95.026564356 441.991414356Z"
               style="fill:#224f9b;fill-opacity:1" />
            <path
               id="path4436"
               d="M102.4082 232.28125C95.031234 232.28125 89.396202 230.31767 85.505859 226.39062L-126.626175356 438.522654356C-122.735832356 442.449704356 -117.100800356 444.413284356 -109.723834356 444.413284356Z"
               style="fill:#224f9b;fill-opacity:1" />
            <path
               id="path4438"
               d="M85.505859 226.39062C81.652219 222.46358 79.726562 216.7566 79.726562 209.26953L-132.405472356 421.401564356C-132.405472356 428.888634356 -130.479815356 434.595614356 -126.626175356 438.522654356Z"
               style="fill:#224f9b;fill-opacity:1" />
            <path
               id="path4440"
               d="M79.726562 209.26953C79.726563 204.79197 80.295852 200.35143 81.433594 195.94727L-130.698440356 408.079304356C-131.836182356 412.483464356 -132.405471356 416.924004356 -132.405472356 421.401564356Z"
               style="fill:#224f9b;fill-opacity:1" />
            <path
               id="path4442"
               d="M81.433594 195.94727C82.608037 191.50641 84.295967 187.30359 86.498047 183.33984L-125.633987356 395.471874356C-127.836067356 399.435624356 -129.523997356 403.638444356 -130.698440356 408.079304356Z"
               style="fill:#224f9b;fill-opacity:1" />
            <path
               id="path4444"
               d="M86.498047 183.33984C88.6086122126 179.567769179 90.9591053157 176.386092247 93.5500792573 173.795118306L-118.581955099 385.927152662C-121.17292904 388.518126603 -123.523422143 391.699803535 -125.633987356 395.471874356Z"
               style="fill:#224f9b;fill-opacity:1" />
            <path
               id="path4446"
               d="M93.5500792573 173.795118306C95.1943065373 172.150891026 96.935379014 170.744548592 98.773438 169.57617L-113.358596356 381.708204356C-115.196655342 382.876582948 -116.937727819 384.282925382 -118.581955099 385.927152662Z"
               style="fill:#224f9b;fill-opacity:1" />
            <path
               id="path4448"
               d="M98.773438 169.57617C103.54461 166.56666 109.06978 165.0625 115.3457 165.0625L-96.786334356 377.194534356C-103.062254356 377.194534356 -108.587424356 378.698694356 -113.358596356 381.708204356Z"
               style="fill:#224f9b;fill-opacity:1" />
            <path
               id="path4450"
               d="M115.3457 165.0625C119.93337 165.0625 124.19014 165.92543 128.11719 167.65039L-84.014844356 379.782424356C-87.941894356 378.057464356 -92.198664356 377.194534356 -96.786334356 377.194534356Z"
               style="fill:#224f9b;fill-opacity:1" />
            <path
               id="path4452"
               d="M128.11719 167.65039C132.08093 169.37535 135.82432 172.0181 139.34766 175.57812L-72.784374356 387.710154356C-76.307714356 384.150134356 -80.051104356 381.507384356 -84.014844356 379.782424356Z"
               style="fill:#224f9b;fill-opacity:1" />
            <path
               id="path4454"
               d="M139.34766 175.57812L141.60547 163.85156L-70.526564356 375.983594356L-72.784374356 387.710154356Z"
               style="fill:#224f9b;fill-opacity:1" />
            <path
               id="path4456"
               d="M141.60547 163.85156C137.97204 161.24577 134.04487 159.30017 129.82422 158.01562L-82.307814356 370.147654356C-78.087164356 371.432204356 -74.159994356 373.377804356 -70.526564356 375.983594356Z"
               style="fill:#224f9b;fill-opacity:1" />
            <path
               id="path4458"
               d="M129.82422 158.01562C125.64026 156.69437 121.19777 156.03516 116.5 156.03516L-95.632034356 368.167194356C-90.934264356 368.167194356 -86.491774356 368.826404356 -82.307814356 370.147654356Z"
               style="fill:#224f9b;fill-opacity:1" />
            <path
               id="path4460"
               d="M168.02344 160.6582C171.88148 160.6582 174.90634 162.19056 177.09961 165.25586L-35.032424356 377.387894356C-37.225694356 374.322594356 -40.250554356 372.790234356 -44.108594356 372.790234356Z"
               style="fill:#224f9b;fill-opacity:1" />
            <path
               id="path4462"
               d="M177.09961 165.25586C179.31931 168.29473 180.42969 172.49706 180.42969 177.86133L-31.702344356 389.993364356C-31.702344356 384.629094356 -32.812724356 380.426764356 -35.032424356 377.387894356Z"
               style="fill:#224f9b;fill-opacity:1" />
            <path
               id="path4464"
               d="M180.42969 177.86133C180.42969 183.2256 179.31931 187.44057 177.09961 190.50586L-35.032424356 402.637894356C-32.812724356 399.572604356 -31.702344356 395.357634356 -31.702344356 389.993364356Z"
               style="fill:#224f9b;fill-opacity:1" />
            <path
               id="path4466"
               d="M177.09961 190.50586C176.705431279 191.052013383 176.284392224 191.549034632 175.836483605 191.996943251L-36.2955507509 404.128977607C-35.8476421317 403.681068988 -35.4266030767 403.184047739 -35.032424356 402.637894356Z"
               style="fill:#224f9b;fill-opacity:1" />
            <path
               id="path4468"
               d="M175.836483605 191.996943251C173.792160945 194.041265911 171.188105599 195.0625 168.02344 195.0625L-44.108594356 407.194534356C-40.9439287566 407.194534356 -38.3398734107 406.173300267 -36.2955507509 404.128977607Z"
               style="fill:#224f9b;fill-opacity:1" />
            <path
               id="path4470"
               d="M168.02344 195.0625C164.16539 195.0625 161.12594 193.54474 158.90625 190.50586L-53.225784356 402.637894356C-51.006094356 405.676774356 -47.966644356 407.194534356 -44.108594356 407.194534356Z"
               style="fill:#224f9b;fill-opacity:1" />
            <path
               id="path4472"
               d="M158.90625 190.50586C156.71297 187.44057 155.61523 183.2256 155.61523 177.86133L-56.516804356 389.993364356C-56.516804356 395.357634356 -55.419064356 399.572604356 -53.225784356 402.637894356Z"
               style="fill:#224f9b;fill-opacity:1" />
            <path
               id="path4474"
               d="M155.61523 177.86133C155.61523 172.49706 156.71297 168.29473 158.90625 165.25586L-53.225784356 377.387894356C-55.419064356 380.426764356 -56.516804356 384.629094356 -56.516804356 389.993364356Z"
               style="fill:#224f9b;fill-opacity:1" />
            <path
               id="path4476"
               d="M158.90625 165.25586C159.305178213 164.704956653 159.730584816 164.203567533 160.182463075 163.751689274L-51.9495712813 375.88372363C-52.4014495403 376.335601889 -52.8268561431 376.836991009 -53.225784356 377.387894356Z"
               style="fill:#224f9b;fill-opacity:1" />
            <path
               id="path4478"
               d="M160.182463075 163.751689274C162.244895964 161.689256385 164.858768351 160.6582 168.02344 160.6582L-44.108594356 372.790234356C-47.2732660052 372.790234356 -49.8871383925 373.821290741 -51.9495712813 375.88372363Z"
               style="fill:#224f9b;fill-opacity:1" />
          </g>
          <path
             id="path4272"
             transform=""
             d="M 117.05664 101.42773 C 114.67839 101.42773 112.23498 101.69025 109.72461 102.21875 C 107.21424 102.72082 104.624 103.487 101.95508 104.51758 L 101.95508 111.25781 C 104.17478 110.04227 106.48791 109.12926 108.89258 108.52148 C 111.29725 107.91371 113.76789 107.60938 116.30469 107.60938 C 120.29486 107.60938 123.38485 108.53501 125.57812 110.38477 C 127.79782 112.20808 128.9082 114.79832 128.9082 118.1543 L 128.9082 118.86719 L 118.68164 118.86719 C 112.04898 118.86719 107.05519 120.13508 103.69922 122.67188 C 100.36967 125.20867 98.705078 128.97443 98.705078 133.96875 C 98.705078 138.24959 100.04006 141.67116 102.70898 144.23438 C 105.40433 146.77117 109.02327 148.04102 113.56836 148.04102 C 117.16215 148.04102 120.2016 147.40707 122.68555 146.13867 C 125.16949 144.84385 127.24343 142.84769 128.9082 140.15234 L 128.9082 146.89062 L 136.20117 146.89062 L 136.20117 121.5625 C 136.20117 114.79771 134.6163 109.75142 131.44531 106.42188 C 128.27432 103.09233 123.47791 101.42773 117.05664 101.42773 z M 121.6543 124.57422 L 128.9082 124.57422 L 128.9082 126.19922 C 128.9082 130.95571 127.68018 134.77593 125.22266 137.65625 C 122.79156 140.51014 119.55474 141.93555 115.51172 141.93555 C 112.57855 141.93555 110.25278 141.18396 108.53516 139.67773 C 106.84396 138.14509 105.99805 136.08379 105.99805 133.49414 C 105.99805 130.24387 107.1337 127.94338 109.40625 126.5957 C 111.6788 125.24803 115.76153 124.57422 121.6543 124.57422 z M 148.2832 138.3418 L 148.2832 200.01758 L 155.61523 200.01758 L 155.61523 193.35938 C 157.14788 196.00187 159.07695 197.9708 161.40234 199.26562 C 163.75416 200.53402 166.55637 201.16797 169.80664 201.16797 C 175.19733 201.16797 179.56981 199.02694 182.92578 194.74609 C 186.30818 190.46525 188 184.83752 188 177.86133 C 188 170.88514 186.30818 165.25545 182.92578 160.97461 C 179.56981 156.69377 175.19733 154.55469 169.80664 154.55469 C 166.55637 154.55469 163.75416 155.20127 161.40234 156.49609 C 159.07695 157.76449 157.14788 159.72079 155.61523 162.36328 L 155.61523 138.3418 L 148.2832 138.3418 z M 116.5 156.03516 C 108.86612 156.03516 102.16836 157.35555 96.40625 159.99805 C 90.680841 162.64055 85.579126 166.73349 81.101562 172.27539 C 76.880909 177.48699 73.632905 183.24792 71.357422 189.56055 C 69.11864 195.87318 68 202.29724 68 208.83008 C 68 219.03305 70.954365 226.99724 76.863281 232.72266 C 82.808898 238.44807 91.048747 241.31055 101.58203 241.31055 C 106.05959 241.31055 110.51812 240.83313 114.95898 239.87891 C 119.43655 238.92466 123.8591 237.51044 128.22656 235.63867 L 130.81445 222.48242 C 126.37359 225.74884 121.80324 228.20782 117.10547 229.85938 C 112.4077 231.47423 107.50969 232.28125 102.4082 232.28125 C 95.031234 232.28125 89.396202 230.31767 85.505859 226.39062 C 81.652219 222.46358 79.726562 216.7566 79.726562 209.26953 C 79.726563 204.79197 80.295852 200.35143 81.433594 195.94727 C 82.608037 191.50641 84.295967 187.30359 86.498047 183.33984 C 89.947973 177.17402 94.038965 172.58568 98.773438 169.57617 C 103.54461 166.56666 109.06978 165.0625 115.3457 165.0625 C 119.93337 165.0625 124.19014 165.92543 128.11719 167.65039 C 132.08093 169.37535 135.82432 172.0181 139.34766 175.57812 L 141.60547 163.85156 C 137.97204 161.24577 134.04487 159.30017 129.82422 158.01562 C 125.64026 156.69437 121.19777 156.03516 116.5 156.03516 z M 168.02344 160.6582 C 171.88148 160.6582 174.90634 162.19056 177.09961 165.25586 C 179.31931 168.29473 180.42969 172.49706 180.42969 177.86133 C 180.42969 183.2256 179.31931 187.44057 177.09961 190.50586 C 174.90634 193.54474 171.88148 195.0625 168.02344 195.0625 C 164.16539 195.0625 161.12594 193.54474 158.90625 190.50586 C 156.71297 187.44057 155.61523 183.2256 155.61523 177.86133 C 155.61523 172.49706 156.71297 168.29473 158.90625 165.25586 C 161.12594 162.19056 164.16539 160.6582 168.02344 160.6582 z "
             style="fill:#224f9b;fill-opacity:1" />
        </g>
      </g>
      <g
         id="text4263"
         style="font-style:normal;font-weight:normal;font-size:90px;line-height:125%;font-family:sans-serif;letter-spacing:0px;word-spacing:0px;fill:#224f9b;fill-opacity:1;stroke:none;stroke-width:1px;stroke-linecap:butt;stroke-linejoin:miter;stroke-opacity:1" />
      <g
         id="text4267"
         style="font-style:italic;font-variant:normal;font-weight:normal;font-stretch:normal;font-size:125px;line-height:125%;font-family:sans-serif;-inkscape-font-specification:'sans-serif Italic';letter-spacing:0px;word-spacing:0px;fill:#224f9b;fill-opacity:1;stroke:none;stroke-width:1px;stroke-linecap:butt;stroke-linejoin:miter;stroke-opacity:1" />
    </g>
    <g
       id="g4432"
       transform="matrix(0.9019721,0,0,0.9019721,12.547571,133.98155)">
      <text
         xml:space="preserve"
         style="font-style:normal;font-weight:normal;font-size:90px;line-height:125%;font-family:sans-serif;letter-spacing:0px;word-spacing:0px;fill:#ffffff;fill-opacity:1;stroke:none;stroke-width:1px;stroke-linecap:butt;stroke-linejoin:miter;stroke-opacity:1"
         x="90.115784"
         y="897.22455"
         id="text4434"
         sodipodi:linespacing="125%"><tspan
           sodipodi:role="line"
           id="tspan4436"
           x="90.115784"
           y="897.22455">a</tspan></text>
      <text
         xml:space="preserve"
         style="font-style:normal;font-weight:normal;font-size:90px;line-height:125%;font-family:sans-serif;letter-spacing:0px;word-spacing:0px;fill:#ffffff;fill-opacity:1;stroke:none;stroke-width:1px;stroke-linecap:butt;stroke-linejoin:miter;stroke-opacity:1"
         x="142.31387"
         y="956.12555"
         id="text4438"
         sodipodi:linespacing="125%"><tspan
           sodipodi:role="line"
           id="tspan4440"
           x="142.31387"
           y="956.12555">b</tspan></text>
      <text
         xml:space="preserve"
         style="font-style:italic;font-variant:normal;font-weight:normal;font-stretch:normal;font-size:125px;line-height:125%;font-family:sans-serif;-inkscape-font-specification:'sans-serif Italic';letter-spacing:0px;word-spacing:0px;fill:#ffffff;fill-opacity:1;stroke:none;stroke-width:1px;stroke-linecap:butt;stroke-linejoin:miter;stroke-opacity:1"
         x="56.230072"
         y="1000.1351"
         id="text4442"
         sodipodi:linespacing="125%"><tspan
           sodipodi:role="line"
           id="tspan4444"
           x="56.230072"
           y="1000.1351">C</tspan></text>
    </g>
  </g>
</svg>
