<?xml version="1.0" encoding="UTF-8" standalone="no"?>
<!-- Created with Inkscape (http://www.inkscape.org/) -->

<svg
   xmlns:dc="http://purl.org/dc/elements/1.1/"
   xmlns:cc="http://creativecommons.org/ns#"
   xmlns:rdf="http://www.w3.org/1999/02/22-rdf-syntax-ns#"
   xmlns:svg="http://www.w3.org/2000/svg"
   xmlns="http://www.w3.org/2000/svg"
   xmlns:sodipodi="http://sodipodi.sourceforge.net/DTD/sodipodi-0.dtd"
   xmlns:inkscape="http://www.inkscape.org/namespaces/inkscape"
   sodipodi:docname="text-x-r.svg"
   inkscape:version="0.91 r13725"
   version="1.1"
   id="svg2"
   viewBox="0 0 256 256"
   height="256"
   width="256">
  <sodipodi:namedview
     inkscape:window-maximized="1"
     inkscape:window-y="0"
     inkscape:window-x="0"
     inkscape:window-height="721"
     inkscape:window-width="1366"
     units="px"
     showgrid="false"
     inkscape:current-layer="layer1"
     inkscape:document-units="px"
     inkscape:cy="128"
     inkscape:cx="128"
     inkscape:zoom="2.0585938"
     inkscape:pageshadow="2"
     inkscape:pageopacity="0.0"
     borderopacity="1.0"
     bordercolor="#666666"
     pagecolor="#ffffff"
     id="base" />
  <defs
     id="defs4">
    <filter
       style="color-interpolation-filters:sRGB;"
       inkscape:label="Drop Shadow"
       id="filter4301">
      <feFlood
         flood-opacity="0.498039"
         flood-color="rgb(0,0,0)"
         result="flood"
         id="feFlood4303" />
      <feComposite
         in="flood"
         in2="SourceGraphic"
         operator="in"
         result="composite1"
         id="feComposite4305" />
      <feGaussianBlur
         in="composite1"
         stdDeviation="3.7"
         result="blur"
         id="feGaussianBlur4307" />
      <feOffset
         dx="3.8"
         dy="3.7"
         result="offset"
         id="feOffset4309" />
      <feComposite
         in="SourceGraphic"
         in2="offset"
         operator="over"
         result="composite2"
         id="feComposite4311" />
    </filter>
    <clipPath
       id="clipPath4266"
       clipPathUnits="userSpaceOnUse">
      <path
         inkscape:connector-curvature="0"
         id="path4268"
         d="m 153.38672,796.84847 -105.781251,0 c -7.804357,0 -14.087891,6.28158 -14.087891,14.08594 l 0,227.33989 c 0,7.8043 6.283534,14.0878 14.087891,14.0878 l 165.162111,0 c 7.80436,0 14.08594,-6.2835 14.08594,-14.0878 l 0,-154.82232 -73.4668,-86.60351 z"
         style="fill:#db4437;fill-opacity:1" />
    </clipPath>
    <clipPath
       clipPathUnits="userSpaceOnUse"
       id="clipPath6136">
      <path
         id="path6138"
         d="m 151.20117,796.84847 -105.78125,0 c -7.804357,0 -14.087891,6.28158 -14.087891,14.08594 l 0,227.33989 c 0,7.8043 6.283534,14.0878 14.087891,14.0878 l 165.16211,0 c 7.80436,0 14.08594,-6.2835 14.08594,-14.0878 l 0,-154.82232 -73.4668,-86.60351 z"
         style="fill:#db4437;fill-opacity:1"
         inkscape:connector-curvature="0" />
    </clipPath>
  </defs>
  <metadata
     id="metadata7">
    <rdf:RDF>
      <cc:Work
         rdf:about="">
        <dc:format>image/svg+xml</dc:format>
        <dc:type
           rdf:resource="http://purl.org/dc/dcmitype/StillImage" />
        <dc:title />
      </cc:Work>
    </rdf:RDF>
  </metadata>
  <g
     inkscape:label="Layer 1"
     inkscape:groupmode="layer"
     id="layer1"
     transform="translate(0,-796.36214)">
    <path
       inkscape:connector-curvature="0"
       style="fill:#db4437;fill-opacity:1"
       d="m 151.20117,796.84847 -105.78125,0 c -7.804357,0 -14.087891,6.28158 -14.087891,14.08594 l 0,227.33989 c 0,7.8043 6.283534,14.0878 14.087891,14.0878 l 165.16211,0 c 7.80436,0 14.08594,-6.2835 14.08594,-14.0878 l 0,-154.82232 -73.4668,-86.60351 z"
       id="path4141" />
    <path
       style="fill:#ec6155;fill-opacity:1;filter:url(#filter4301)"
       d="m 226.85352,883.45199 -73.4668,-86.60352 0,72.51758 c 0,7.80436 6.28158,14.08594 14.08594,14.08594 l 59.38086,0 z"
       id="rect4136"
       inkscape:connector-curvature="0" />
    <g
       id="g4825"
       style="fill:#8d3e38;fill-opacity:1"
       clip-path="url(#clipPath6136)">
      <g
         id="g4827"
         style="fill:#8d3e38;fill-opacity:1">
        <path
           id="path4829"
           d="M118.62177 987.47943L118.76442 982.35573L48.0537418813 1053.06640812L47.9110918813 1058.19010812Z"
           style="fill:#8d3e38;fill-opacity:1" />
        <path
           id="path4831"
           d="M118.76442 982.35573L113.50874 981.28863L42.7980618813 1051.99930812L48.0537418813 1053.06640812Z"
           style="fill:#8d3e38;fill-opacity:1" />
        <path
           id="path4833"
           d="M113.50874 981.28863C102.17874 978.98793 93.632173 974.70013 86.675629 967.82623L15.9649508813 1038.53690812C22.9214948813 1045.41080812 31.4680618813 1049.69860812 42.7980618813 1051.99930812Z"
           style="fill:#8d3e38;fill-opacity:1" />
        <path
           id="path4835"
           d="M86.675629 967.82623C83.036362 964.23023 81.724558 962.52073 80.173496 959.35293L9.46281788135 1030.06360812C11.0138798813 1033.23140812 12.3256838813 1034.94090812 15.9649508813 1038.53690812Z"
           style="fill:#8d3e38;fill-opacity:1" />
        <path
           id="path4837"
           d="M80.173496 959.35293C78.353928 955.63673 78.219015 955.04813 78.051013 950.09295L7.34033488135 1020.80362812C7.50833688135 1025.75880812 7.64324988135 1026.34740812 9.46281788135 1030.06360812Z"
           style="fill:#8d3e38;fill-opacity:1" />
        <path
           id="path4839"
           d="M78.051013 950.09295C77.900495 945.65347 78.048213 944.27752 78.968352 941.54789L8.25767388135 1012.25856812C7.33753488135 1014.98819812 7.18981688135 1016.36414812 7.34033488135 1020.80362812Z"
           style="fill:#8d3e38;fill-opacity:1" />
        <path
           id="path4841"
           d="M78.968352 941.54789C80.4036567681 937.290036737 82.923872888 933.459100672 86.2606033467 930.122370214L15.5499252281 1000.83304833C12.2131947693 1004.16977879 9.69297864943 1008.00071486 8.25767388135 1012.25856812Z"
           style="fill:#8d3e38;fill-opacity:1" />
        <path
           id="path4843"
           d="M86.2606033467 930.122370214C101.533760899 914.849212662 133.914130079 909.9304108 157.66217 921.81899L86.9514918813 992.529668119C63.2034519601 980.641088919 30.8230827801 985.55989078 15.5499252281 1000.83304833Z"
           style="fill:#8d3e38;fill-opacity:1" />
        <path
           id="path4845"
           d="M157.66217 921.81899C168.03486 927.01169 175.58529 935.41686 177.5835 943.99549L106.872821881 1014.70616812C104.874611881 1006.12753812 97.3241818813 997.722368119 86.9514918813 992.529668119Z"
           style="fill:#8d3e38;fill-opacity:1" />
        <path
           id="path4847"
           d="M177.5835 943.99549C178.40986 947.54316 177.96598 953.53927 176.61109 957.13133L105.900411881 1027.84200812C107.255301881 1024.24994812 107.699181881 1018.25383812 106.872821881 1014.70616812Z"
           style="fill:#8d3e38;fill-opacity:1" />
        <path
           id="path4849"
           d="M176.61109 957.13133C175.305155579 960.593676618 172.427276835 964.740613174 169.142807114 968.025082895L98.432128995 1038.73576101C101.716598716 1035.45129129 104.59447746 1031.30435474 105.900411881 1027.84200812Z"
           style="fill:#8d3e38;fill-opacity:1" />
        <path
           id="path4851"
           d="M169.142807114 968.025082895C168.378449041 968.789440968 167.592070785 969.5070895 166.79836 970.15853L96.0876818813 1040.86920812C96.8813926668 1040.21776762 97.6677709224 1039.50011909 98.432128995 1038.73576101Z"
           style="fill:#8d3e38;fill-opacity:1" />
        <path
           id="path4853"
           d="M166.79836 970.15853L163.06671 973.22123L92.3560318813 1043.93190812L96.0876818813 1040.86920812Z"
           style="fill:#8d3e38;fill-opacity:1" />
        <path
           id="path4855"
           d="M163.06671 973.22123L164.00968 974.77833L93.2990018813 1045.48900812L92.3560318813 1043.93190812Z"
           style="fill:#8d3e38;fill-opacity:1" />
        <path
           id="path4857"
           d="M164.00968 974.77833C164.52831 975.63473 166.80658 979.48883 169.0725 983.34303L98.3618218813 1054.05370812C96.0959018813 1050.19950812 93.8176318813 1046.34540812 93.2990018813 1045.48900812Z"
           style="fill:#8d3e38;fill-opacity:1" />
        <path
           id="path4859"
           d="M169.0725 983.34303C171.33841 987.19723 173.50856 990.85743 173.89505 991.47683L103.184371881 1062.18750812C102.797881881 1061.56810812 100.627731881 1057.90790812 98.3618218813 1054.05370812Z"
           style="fill:#8d3e38;fill-opacity:1" />
        <path
           id="path4861"
           d="M173.89505 991.47683L174.59776 992.60303L103.887081881 1063.31370812L103.184371881 1062.18750812Z"
           style="fill:#8d3e38;fill-opacity:1" />
        <path
           id="path4863"
           d="M174.59776 992.60303L164.60334 992.60303L93.8926618813 1063.31370812L103.887081881 1063.31370812Z"
           style="fill:#8d3e38;fill-opacity:1" />
        <path
           id="path4865"
           d="M164.60334 992.60303L154.60892 992.60303L83.8982418813 1063.31370812L93.8926618813 1063.31370812Z"
           style="fill:#8d3e38;fill-opacity:1" />
        <path
           id="path4867"
           d="M154.60892 992.60303L151.26713 986.30363L80.5564518813 1057.01430812L83.8982418813 1063.31370812Z"
           style="fill:#8d3e38;fill-opacity:1" />
        <path
           id="path4869"
           d="M151.26713 986.30363C148.31881 980.74603 147.79985 980.03913 146.85947 980.29993L76.1487918813 1051.01060812C77.0891718813 1050.74980812 77.6081318813 1051.45670812 80.5564518813 1057.01430812Z"
           style="fill:#8d3e38;fill-opacity:1" />
        <path
           id="path4871"
           d="M146.85947 980.29993C146.27324 980.46253 143.7101 980.98613 141.1636 981.46353L70.4529218813 1052.17420812C72.9994218813 1051.69680812 75.5625618813 1051.17320812 76.1487918813 1051.01060812Z"
           style="fill:#8d3e38;fill-opacity:1" />
        <path
           id="path4873"
           d="M141.1636 981.46353L136.5336 982.33153L65.8229218813 1053.04220812L70.4529218813 1052.17420812Z"
           style="fill:#8d3e38;fill-opacity:1" />
        <path
           id="path4875"
           d="M136.5336 982.33153L136.5336 987.46723L65.8229218813 1058.17790812L65.8229218813 1053.04220812Z"
           style="fill:#8d3e38;fill-opacity:1" />
        <path
           id="path4877"
           d="M136.5336 987.46723L136.5336 992.60303L65.8229218813 1063.31370812L65.8229218813 1058.17790812Z"
           style="fill:#8d3e38;fill-opacity:1" />
        <path
           id="path4879"
           d="M136.5336 992.60303L127.50636 992.60303L56.7956818813 1063.31370812L65.8229218813 1063.31370812Z"
           style="fill:#8d3e38;fill-opacity:1" />
        <path
           id="path4881"
           d="M127.50636 992.60303L118.47912 992.60303L47.7684418813 1063.31370812L56.7956818813 1063.31370812Z"
           style="fill:#8d3e38;fill-opacity:1" />
        <path
           id="path4883"
           d="M118.47912 992.60303L118.62177 987.47943L47.9110918813 1058.19010812L47.7684418813 1063.31370812Z"
           style="fill:#8d3e38;fill-opacity:1" />
        <path
           id="path4885"
           d="M142.18819 973.67873C143.055759579 973.520542204 143.518217365 973.419315223 143.686538782 973.250993805L72.9758606637 1043.96167192C72.8075392459 1044.12999334 72.3450814605 1044.23122032 71.4775118813 1044.38940812Z"
           style="fill:#8d3e38;fill-opacity:1" />
        <path
           id="path4887"
           d="M143.686538782 973.250993805C143.863292251 973.074240337 143.715701731 972.823501875 143.37227 972.35513L72.6615918813 1043.06580812C73.0050236122 1043.53417999 73.152614132 1043.78491846 72.9758606637 1043.96167192Z"
           style="fill:#8d3e38;fill-opacity:1" />
        <path
           id="path4889"
           d="M143.37227 972.35513C142.85087 971.64393 141.82255 971.29833 139.59472 971.08533L68.8840418813 1041.79600812C71.1118718813 1042.00900812 72.1401918813 1042.35460812 72.6615918813 1043.06580812Z"
           style="fill:#8d3e38;fill-opacity:1" />
        <path
           id="path4891"
           d="M139.59472 971.08533L136.5336 970.79263L65.8229218813 1041.50330812L68.8840418813 1041.79600812Z"
           style="fill:#8d3e38;fill-opacity:1" />
        <path
           id="path4893"
           d="M136.5336 970.79263L136.5336 972.43783L65.8229218813 1043.14850812L65.8229218813 1041.50330812Z"
           style="fill:#8d3e38;fill-opacity:1" />
        <path
           id="path4895"
           d="M136.5336 972.43783C136.5336 974.01033 136.6165 974.08173 138.41063 974.05423L67.6999518813 1044.76490812C65.9058218813 1044.79240812 65.8229218813 1044.72100812 65.8229218813 1043.14850812Z"
           style="fill:#8d3e38;fill-opacity:1" />
        <path
           id="path4897"
           d="M138.41063 974.05423C139.44299 974.03823 141.1429 973.86943 142.18819 973.67873L71.4775118813 1044.38940812C70.4322218813 1044.58010812 68.7323118813 1044.74890812 67.6999518813 1044.76490812Z"
           style="fill:#8d3e38;fill-opacity:1" />
        <path
           id="path4899"
           d="M118.62683 953.78951L118.48923 935.99828L47.7785518813 1006.70895812L47.9161518813 1024.50018812Z"
           style="fill:#8d3e38;fill-opacity:1" />
        <path
           id="path4901"
           d="M118.48923 935.99828L138.14791 936.14525L67.4372318813 1006.85592812L47.7785518813 1006.70895812Z"
           style="fill:#8d3e38;fill-opacity:1" />
        <path
           id="path4903"
           d="M138.14791 936.14525C157.13867 936.28723 157.88598 936.32929 160.14394 937.38341L89.4332618813 1008.09408812C87.1753018813 1007.03996812 86.4279918813 1006.99790812 67.4372318813 1006.85592812Z"
           style="fill:#8d3e38;fill-opacity:1" />
        <path
           id="path4905"
           d="M160.14394 937.38341C163.18552 938.80337 166.37103 941.71053 167.68629 944.26672L96.9756118813 1014.97739812C95.6603518813 1012.42120812 92.4748418813 1009.51404812 89.4332618813 1008.09408812Z"
           style="fill:#8d3e38;fill-opacity:1" />
        <path
           id="path4907"
           d="M167.68629 944.26672C169.12718 947.06707 169.45719 952.96952 168.38005 956.67473L97.6693718813 1027.38540812C98.7465118813 1023.68019812 98.4165018813 1017.77774812 96.9756118813 1014.97739812Z"
           style="fill:#8d3e38;fill-opacity:1" />
        <path
           id="path4909"
           d="M168.38005 956.67473C167.772051773 958.766159166 166.415150836 960.847883286 164.659346455 962.603687667L93.9486683366 1033.31436579C95.7044727178 1031.5585614 97.0613736541 1029.47683728 97.6693718813 1027.38540812Z"
           style="fill:#8d3e38;fill-opacity:1" />
        <path
           id="path4911"
           d="M164.659346455 962.603687667C162.469893094 964.793141029 159.660160949 966.475802327 156.9088 967.03853L86.1981218813 1037.74920812C88.94948283 1037.18648045 91.7592149755 1035.50381915 93.9486683366 1033.31436579Z"
           style="fill:#8d3e38;fill-opacity:1" />
        <path
           id="path4913"
           d="M156.9088 967.03853L155.45081 967.33673L84.7401318813 1038.04740812L86.1981218813 1037.74920812Z"
           style="fill:#8d3e38;fill-opacity:1" />
        <path
           id="path4915"
           d="M155.45081 967.33673L157.77499 968.40593L87.0643118813 1039.11660812L84.7401318813 1038.04740812Z"
           style="fill:#8d3e38;fill-opacity:1" />
        <path
           id="path4917"
           d="M157.77499 968.40593L160.09916 969.47513L89.3884818813 1040.18580812L87.0643118813 1039.11660812Z"
           style="fill:#8d3e38;fill-opacity:1" />
        <path
           id="path4919"
           d="M160.09916 969.47513L163.1312 967.45043L92.4205218813 1038.16110812L89.3884818813 1040.18580812Z"
           style="fill:#8d3e38;fill-opacity:1" />
        <path
           id="path4921"
           d="M163.1312 967.45043C164.257792388 966.698121748 165.275242954 965.866202016 166.180644026 964.960800944L95.4699659073 1035.67147906C94.5645648351 1036.57688013 93.5471142696 1037.40879987 92.4205218813 1038.16110812Z"
           style="fill:#8d3e38;fill-opacity:1" />
        <path
           id="path4923"
           d="M166.180644026 964.960800944C170.02015205 961.12129292 171.844641532 955.960348638 171.43237 949.94546L100.721691881 1020.65613812C101.133963414 1026.67102676 99.3094739309 1031.83197104 95.4699659073 1035.67147906Z"
           style="fill:#8d3e38;fill-opacity:1" />
        <path
           id="path4925"
           d="M171.43237 949.94546C170.75832 940.11129 164.08425 933.67 151.20012 930.41887L80.4894418813 1001.12954812C93.3735718813 1004.38067812 100.047641881 1010.82196812 100.721691881 1020.65613812Z"
           style="fill:#8d3e38;fill-opacity:1" />
        <path
           id="path4927"
           d="M151.20012 930.41887C147.31153 929.43764 145.53214 929.30929 136.03306 929.32485L65.3223818813 1000.03552812C74.8214618813 1000.01996812 76.6008518813 1000.14831812 80.4894418813 1001.12954812Z"
           style="fill:#8d3e38;fill-opacity:1" />
        <path
           id="path4929"
           d="M136.03306 929.32485C126.59235 929.34025 124.79578 929.47452 121.39618 930.4183L50.6855018813 1001.12897812C54.0851018813 1000.18519812 55.8816718813 1000.05092812 65.3223818813 1000.03552812Z"
           style="fill:#8d3e38;fill-opacity:1" />
        <path
           id="path4931"
           d="M121.39618 930.4183C113.33264818 932.656840848 107.372139714 935.719293527 103.42496917 939.666464071L32.7142910512 1010.37714219C36.6614615954 1006.42997165 42.6219700615 1003.36751897 50.6855018813 1001.12897812Z"
           style="fill:#8d3e38;fill-opacity:1" />
        <path
           id="path4933"
           d="M103.42496917 939.666464071C101.708066565 941.383366675 100.372086096 943.267657285 99.409647 945.32434L28.6989688813 1016.03501812C29.6614079774 1013.9783354 30.9973884467 1012.09404479 32.7142910512 1010.37714219Z"
           style="fill:#8d3e38;fill-opacity:1" />
        <path
           id="path4935"
           d="M99.409647 945.32434C98.01844 948.29728 97.888169 948.9829 98.099547 952.21942L27.3888688813 1022.93009812C27.1774908813 1019.69357812 27.3077618813 1019.00795812 28.6989688813 1016.03501812Z"
           style="fill:#8d3e38;fill-opacity:1" />
        <path
           id="path4937"
           d="M98.099547 952.21942C98.466789 957.84243 101.30549 962.25143 107.15052 966.27703L36.4398418813 1036.98770812C30.5948118813 1032.96210812 27.7561108813 1028.55310812 27.3888688813 1022.93009812Z"
           style="fill:#8d3e38;fill-opacity:1" />
        <path
           id="path4939"
           d="M107.15052 966.27703C109.59067 967.95763 117.14877 971.56033 118.26388 971.57443L47.5532018813 1042.28510812C46.4380918813 1042.27100812 38.8799918813 1038.66830812 36.4398418813 1036.98770812Z"
           style="fill:#8d3e38;fill-opacity:1" />
        <path
           id="path4941"
           d="M118.26388 971.57443C118.272291105 971.57443 118.28056912 971.570351669 118.288713797 971.562206993L47.5780356779 1042.27288511C47.5698910015 1042.28102979 47.5616129864 1042.28510812 47.5532018813 1042.28510812Z"
           style="fill:#8d3e38;fill-opacity:1" />
        <path
           id="path4943"
           d="M118.288713797 971.562206993C118.597182078 971.253738711 118.714388149 965.112463152 118.62683 953.78951L47.9161518813 1024.50018812C48.0037100301 1035.82314127 47.8865039598 1041.96441683 47.5780356779 1042.27288511Z"
           style="fill:#8d3e38;fill-opacity:1" />
        <path
           id="path4945"
           d="M148.73946 956.99973C149.099494665 956.835685933 149.421470997 956.607651477 149.7005119 956.328610574L78.989833781 1027.03928869C78.7107928784 1027.3183296 78.3888165461 1027.54636405 78.0287818813 1027.71040812Z"
           style="fill:#8d3e38;fill-opacity:1" />
        <path
           id="path4947"
           d="M149.7005119 956.328610574C150.762497709 955.266624765 151.202587887 953.465839165 150.75193 951.642L80.0412518813 1022.35267812C80.4919097684 1024.17651728 80.0518195902 1025.97730288 78.989833781 1027.03928869Z"
           style="fill:#8d3e38;fill-opacity:1" />
        <path
           id="path4949"
           d="M150.75193 951.642C150.14533 949.18704 148.30074 948.57608 141.66414 948.63194L70.9534618813 1019.34261812C77.5900618813 1019.28675812 79.4346518813 1019.89771812 80.0412518813 1022.35267812Z"
           style="fill:#8d3e38;fill-opacity:1" />
        <path
           id="path4951"
           d="M141.66414 948.63194L136.5336 948.67514L65.8229218813 1019.38581812L70.9534618813 1019.34261812Z"
           style="fill:#8d3e38;fill-opacity:1" />
        <path
           id="path4953"
           d="M136.5336 948.67514L136.5336 953.12017L65.8229218813 1023.83084812L65.8229218813 1019.38581812Z"
           style="fill:#8d3e38;fill-opacity:1" />
        <path
           id="path4955"
           d="M136.5336 953.12017L136.5336 957.56523L65.8229218813 1028.27590812L65.8229218813 1023.83084812Z"
           style="fill:#8d3e38;fill-opacity:1" />
        <path
           id="path4957"
           d="M136.5336 957.56523L142.016 957.56523L71.3053218813 1028.27590812L65.8229218813 1028.27590812Z"
           style="fill:#8d3e38;fill-opacity:1" />
        <path
           id="path4959"
           d="M142.016 957.56523C145.03132 957.56523 148.05687 957.31073 148.73946 956.99973L78.0287818813 1027.71040812C77.3461918813 1028.02140812 74.3206418813 1028.27590812 71.3053218813 1028.27590812Z"
           style="fill:#8d3e38;fill-opacity:1" />
      </g>
      <path
         inkscape:connector-curvature="0"
         id="path4793"
         d="m 118.62177,987.47943 0.14265,-5.1237 -5.25568,-1.0671 c -11.33,-2.3007 -19.876567,-6.5885 -26.833111,-13.4624 -3.639267,-3.596 -4.951071,-5.3055 -6.502133,-8.4733 -1.819568,-3.7162 -1.954481,-4.3048 -2.122483,-9.25998 -0.150518,-4.43948 -0.0028,-5.81543 0.917339,-8.54506 8.0051,-23.74725 49.757538,-34.21478 78.693818,-19.7289 10.37269,5.1927 17.92312,13.59787 19.92133,22.1765 0.82636,3.54767 0.38248,9.54378 -0.97241,13.13584 -1.60985,4.2681 -5.60842,9.5765 -9.81273,13.0272 l -3.73165,3.0627 0.94297,1.5571 c 0.51863,0.8564 2.7969,4.7105 5.06282,8.5647 2.26591,3.8542 4.43606,7.5144 4.82255,8.1338 l 0.70271,1.1262 -9.99442,0 -9.99442,0 -3.34179,-6.2994 c -2.94832,-5.5576 -3.46728,-6.2645 -4.40766,-6.0037 -0.58623,0.1626 -3.14937,0.6862 -5.69587,1.1636 l -4.63,0.868 0,5.1357 0,5.1358 -9.02724,0 -9.02724,0 0.14265,-5.1236 z m 23.56642,-13.8007 c 1.7786,-0.3243 1.85456,-0.4092 1.18408,-1.3236 -0.5214,-0.7112 -1.54972,-1.0568 -3.77755,-1.2698 l -3.06112,-0.2927 0,1.6452 c 0,1.5725 0.0829,1.6439 1.87703,1.6164 1.03236,-0.016 2.73227,-0.1848 3.77756,-0.3755 z m -23.56136,-19.88922 -0.1376,-17.79123 19.65868,0.14697 c 18.99076,0.14198 19.73807,0.18404 21.99603,1.23816 3.04158,1.41996 6.22709,4.32712 7.54235,6.88331 1.44089,2.80035 1.7709,8.7028 0.69376,12.40801 -1.36616,4.6994 -6.51347,9.3498 -11.47125,10.3638 l -1.45799,0.2982 2.32418,1.0692 2.32417,1.0692 3.03204,-2.0247 c 5.9041,-3.9426 8.81066,-10.0717 8.30117,-17.50497 -0.67405,-9.83417 -7.34812,-16.27546 -20.23225,-19.52659 -3.88859,-0.98123 -5.66798,-1.10958 -15.16706,-1.09402 -9.44071,0.0154 -11.23728,0.14967 -14.63688,1.09345 -11.57093,3.21224 -18.81144,8.12103 -21.986533,14.90604 -1.391207,2.97294 -1.521478,3.65856 -1.3101,6.89508 0.367242,5.62301 3.205943,10.03201 9.050973,14.05761 2.44015,1.6806 9.99825,5.2833 11.11336,5.2974 0.32697,0 0.45282,-6.163 0.36295,-17.78492 z m 30.11263,3.21022 c 1.73027,-0.78837 2.58154,-3.05467 2.01247,-5.35773 -0.6066,-2.45496 -2.45119,-3.06592 -9.08779,-3.01006 l -5.13054,0.0432 0,4.44503 0,4.44506 5.4824,0 c 3.01532,0 6.04087,-0.2545 6.72346,-0.5655 z"
         style="fill:#8d3e38;fill-opacity:1" />
    </g>
    <path
       style="fill:#ffffff;fill-opacity:1"
       d="m 118.62177,987.96517 0.14264,-5.12362 -5.25567,-1.06719 c -11.33,-2.30061 -19.876566,-6.58847 -26.83311,-13.46233 -3.639267,-3.59601 -4.951071,-5.3055 -6.502133,-8.47332 -1.819568,-3.71621 -1.954481,-4.30481 -2.122483,-9.26 -0.150518,-4.43948 -0.0028,-5.81543 0.917339,-8.54505 8.0051,-23.74725 49.757537,-34.21479 78.693817,-19.72891 10.37269,5.19271 17.92312,13.59787 19.92133,22.1765 0.82636,3.54768 0.38248,9.54378 -0.97241,13.13589 -1.60985,4.26806 -5.60842,9.57647 -9.81273,13.02715 l -3.73165,3.06275 0.94297,1.55709 c 0.51863,0.8564 2.7969,4.7105 5.06281,8.56466 2.26592,3.85416 4.43607,7.51436 4.82256,8.13378 l 0.70271,1.12622 -9.99442,0 -9.99442,0 -3.34179,-6.29935 c -2.94833,-5.55767 -3.46729,-6.26455 -4.40766,-6.00376 -0.58623,0.16258 -3.14937,0.68619 -5.69587,1.16359 l -4.63,0.868 0,5.13576 0,5.13576 -9.02724,0 -9.02724,0 0.14265,-5.12362 z m 23.56641,-13.80063 c 1.77861,-0.32433 1.85457,-0.40924 1.18409,-1.32367 -0.52141,-0.71113 -1.54972,-1.05679 -3.77755,-1.26979 l -3.06112,-0.29267 0,1.64519 c 0,1.57254 0.0829,1.64392 1.87703,1.61634 1.03236,-0.0159 2.73227,-0.1848 3.77755,-0.3754 z m -23.56135,-19.88926 -0.1376,-17.79124 19.65868,0.14697 c 18.99076,0.14198 19.73807,0.18404 21.99602,1.23817 3.04159,1.41995 6.2271,4.32712 7.54236,6.88331 1.44088,2.80034 1.7709,8.70279 0.69376,12.40803 -1.36616,4.69942 -6.51348,9.3498 -11.47125,10.36377 l -1.45799,0.29819 2.32417,1.06923 2.32418,1.06923 3.03204,-2.02473 c 5.9041,-3.9426 8.81066,-10.07176 8.30117,-17.50498 -0.67405,-9.83417 -7.34812,-16.27546 -20.23225,-19.52659 -3.8886,-0.98124 -5.66798,-1.10959 -15.16706,-1.09403 -9.44071,0.0155 -11.23728,0.14968 -14.63688,1.09345 -11.57094,3.21224 -18.81144,8.12103 -21.986532,14.90604 -1.391207,2.97295 -1.521478,3.65856 -1.3101,6.89508 0.367242,5.62302 3.205942,10.03197 9.050972,14.0576 2.44015,1.68059 9.99825,5.28332 11.11335,5.29741 0.32698,0.004 0.45283,-6.16302 0.36296,-17.78491 z m 30.11263,3.2102 c 1.73027,-0.78836 2.58154,-3.05466 2.01246,-5.35772 -0.6066,-2.45495 -2.45118,-3.06592 -9.08778,-3.01005 l -5.13054,0.0432 0,4.44504 0,4.44502 5.4824,0 c 3.01531,0 6.04087,-0.25446 6.72346,-0.56547 z"
       id="path4793-6"
       inkscape:connector-curvature="0" />
  </g>
</svg>
