<?xml version="1.0" encoding="UTF-8" standalone="no"?>
<!-- Created with Inkscape (http://www.inkscape.org/) -->

<svg
   xmlns:dc="http://purl.org/dc/elements/1.1/"
   xmlns:cc="http://creativecommons.org/ns#"
   xmlns:rdf="http://www.w3.org/1999/02/22-rdf-syntax-ns#"
   xmlns:svg="http://www.w3.org/2000/svg"
   xmlns="http://www.w3.org/2000/svg"
   xmlns:sodipodi="http://sodipodi.sourceforge.net/DTD/sodipodi-0.dtd"
   xmlns:inkscape="http://www.inkscape.org/namespaces/inkscape"
   width="256"
   height="256"
   viewBox="0 0 256 256"
   id="svg2"
   version="1.1"
   inkscape:version="0.91 r13725"
   sodipodi:docname="text-x-tex.svg">
  <sodipodi:namedview
     id="base"
     pagecolor="#ffffff"
     bordercolor="#666666"
     borderopacity="1.0"
     inkscape:pageopacity="0.0"
     inkscape:pageshadow="2"
     inkscape:zoom="2.1328125"
     inkscape:cx="-36.571428"
     inkscape:cy="128"
     inkscape:document-units="px"
     inkscape:current-layer="layer1"
     showgrid="false"
     units="px"
     inkscape:window-width="1920"
     inkscape:window-height="1054"
     inkscape:window-x="0"
     inkscape:window-y="0"
     inkscape:window-maximized="1" />
  <defs
     id="defs4">
    <filter
       id="filter4301"
       inkscape:label="Drop Shadow"
       style="color-interpolation-filters:sRGB;">
      <feFlood
         id="feFlood4303"
         result="flood"
         flood-color="rgb(0,0,0)"
         flood-opacity="0.498039" />
      <feComposite
         id="feComposite4305"
         result="composite1"
         operator="in"
         in2="SourceGraphic"
         in="flood" />
      <feGaussianBlur
         id="feGaussianBlur4307"
         result="blur"
         stdDeviation="3.7"
         in="composite1" />
      <feOffset
         id="feOffset4309"
         result="offset"
         dy="3.7"
         dx="3.8" />
      <feComposite
         id="feComposite4311"
         result="composite2"
         operator="over"
         in2="offset"
         in="SourceGraphic" />
    </filter>
    <clipPath
       clipPathUnits="userSpaceOnUse"
       id="clipPath4651">
      <path
         style="fill:#d2a577;fill-opacity:1"
         d="M 126.67481,782.85322 A 128,128 0 0 0 -1.1611335,910.84736 128,128 0 0 0 126.83887,1038.8474 128,128 0 0 0 254.83106,911.00947 L 126.67481,782.85322 Z m 12.42383,0.60742 a 128,128 0 0 1 7.76757,1.1211 128,128 0 0 0 -7.76757,-1.1211 z m 12.58789,1.84961 a 128,128 0 0 1 8.42187,2.08984 128,128 0 0 0 -8.42187,-2.08984 z m 12.36328,3.09766 a 128,128 0 0 1 8.94531,3.19726 128,128 0 0 0 -8.94531,-3.19726 z m 11.98437,4.30468 a 128,128 0 0 1 9.34375,4.43946 128,128 0 0 0 -9.34375,-4.43946 z m 11.49805,5.47852 a 128,128 0 0 1 9.49414,5.73438 128,128 0 0 0 -9.49414,-5.73438 z m 10.90625,6.59961 a 128,128 0 0 1 9.66016,7.24414 128,128 0 0 0 -9.66016,-7.24414 z m 10.17773,7.63867 a 128,128 0 0 1 9.38868,8.62891 128,128 0 0 0 -9.38868,-8.62891 z m 9.38868,8.62891 0.98046,0.98047 a 128,128 0 0 0 -0.98046,-0.98047 z m 7.65039,8.57226 a 128,128 0 0 1 4.5039,5.92188 128,128 0 0 0 -4.5039,-5.92188 z m 7.63867,10.30469 a 128,128 0 0 1 3.81054,6.21289 128,128 0 0 0 -3.81054,-6.21289 z m 6.57617,11.03125 a 128,128 0 0 1 3.08203,6.37695 128,128 0 0 0 -3.08203,-6.37695 z m 5.4375,11.63867 a 128,128 0 0 1 2.37695,6.50782 128,128 0 0 0 -2.37695,-6.50782 z m 4.23242,12.09375 a 128,128 0 0 1 1.68555,6.59375 128,128 0 0 0 -1.68555,-6.59375 z m 3.00781,12.48633 a 128,128 0 0 1 0.99024,6.53906 128,128 0 0 0 -0.99024,-6.53906 z m 1.74024,12.71094 a 128,128 0 0 1 0.55078,10.95117 128,128 0 0 0 -0.55078,-10.95117 z"
         id="path4653"
         inkscape:connector-curvature="0" />
    </clipPath>
  </defs>
  <metadata
     id="metadata7">
    <rdf:RDF>
      <cc:Work
         rdf:about="">
        <dc:format>image/svg+xml</dc:format>
        <dc:type
           rdf:resource="http://purl.org/dc/dcmitype/StillImage" />
        <dc:title />
      </cc:Work>
    </rdf:RDF>
  </metadata>
  <g
     transform="translate(0,-796.36214)"
     id="layer1"
     inkscape:groupmode="layer"
     inkscape:label="Layer 1">
    <path
       inkscape:connector-curvature="0"
       id="path4957"
       d="M 127.83594,796.36506 A 128,128 0 0 0 0,924.3592 a 128,128 0 0 0 128,128 128,128 0 0 0 127.99219,-127.83789 L 127.83594,796.36506 Z m 12.42383,0.60742 a 128,128 0 0 1 7.76757,1.1211 128,128 0 0 0 -7.76757,-1.1211 z m 12.58789,1.84961 a 128,128 0 0 1 8.42187,2.08984 128,128 0 0 0 -8.42187,-2.08984 z m 12.36328,3.09766 a 128,128 0 0 1 8.94531,3.19726 128,128 0 0 0 -8.94531,-3.19726 z m 11.98437,4.30468 a 128,128 0 0 1 9.34375,4.43946 128,128 0 0 0 -9.34375,-4.43946 z m 11.49805,5.47852 a 128,128 0 0 1 9.49414,5.73438 128,128 0 0 0 -9.49414,-5.73438 z m 10.90625,6.59961 a 128,128 0 0 1 9.66016,7.24414 128,128 0 0 0 -9.66016,-7.24414 z m 10.17773,7.63867 a 128,128 0 0 1 9.38868,8.62891 128,128 0 0 0 -9.38868,-8.62891 z m 9.38868,8.62891 0.98046,0.98047 a 128,128 0 0 0 -0.98046,-0.98047 z m 7.65039,8.57226 a 128,128 0 0 1 4.5039,5.92188 128,128 0 0 0 -4.5039,-5.92188 z m 7.63867,10.30469 a 128,128 0 0 1 3.81054,6.21289 128,128 0 0 0 -3.81054,-6.21289 z m 6.57617,11.03125 a 128,128 0 0 1 3.08203,6.37695 128,128 0 0 0 -3.08203,-6.37695 z m 5.4375,11.63867 a 128,128 0 0 1 2.37695,6.50782 128,128 0 0 0 -2.37695,-6.50782 z m 4.23242,12.09375 a 128,128 0 0 1 1.68555,6.59375 128,128 0 0 0 -1.68555,-6.59375 z m 3.00781,12.48633 a 128,128 0 0 1 0.99024,6.53906 128,128 0 0 0 -0.99024,-6.53906 z m 1.74024,12.71094 A 128,128 0 0 1 256,924.3592 128,128 0 0 0 255.44922,913.40803 Z"
       style="fill:#d2a577;fill-opacity:1" />
    <path
       inkscape:connector-curvature="0"
       id="rect4961"
       d="m 255.61415,924.52718 a 128,128 0 0 0 0.16406,-0.006 L 127.62197,796.36506 a 128,128 0 0 0 -0.008,0.16211 128,128 0 0 0 35.85352,88.80861 l 0.98046,0.98046 a 128,128 0 0 0 91.16603,38.21094 z"
       style="fill:#e3c6aa;fill-opacity:1" />
    <text
       sodipodi:linespacing="125%"
       id="text4164"
       y="965.15338"
       x="54.857143"
       style="font-style:normal;font-weight:normal;font-size:40px;line-height:125%;font-family:sans-serif;letter-spacing:0px;word-spacing:0px;fill:#000000;fill-opacity:1;stroke:none;stroke-width:1px;stroke-linecap:butt;stroke-linejoin:miter;stroke-opacity:1"
       xml:space="preserve"><tspan
         y="965.15338"
         x="54.857143"
         id="tspan4166"
         sodipodi:role="line" /></text>
    <g
       transform="translate(1.1611335,13.511836)"
       id="g4179"
       style="fill:#966432;fill-opacity:1"
       clip-path="url(#clipPath4651)">
      <g
         id="g4181"
         style="font-style:normal;font-variant:normal;font-weight:500;font-stretch:normal;font-size:90px;line-height:125%;font-family:'CMU Serif';-inkscape-font-specification:'CMU Serif Medium';letter-spacing:0px;word-spacing:0px;fill:#966432;fill-opacity:1;stroke:none;stroke-width:1px;stroke-linecap:butt;stroke-linejoin:miter;stroke-opacity:1">
        <g
           id="g4183"
           style="fill:#966432;fill-opacity:1">
          <g
             id="g4210"
             transform="translate(-1.1611335,782.8503)"
             style="fill:#966432;fill-opacity:1">
            <g
               id="g4212"
               style="fill:#966432;fill-opacity:1">
              <path
                 id="path4214"
                 d="M142.23438 121.92383L142.23438 124.71484L0.813023762691 266.136196237L0.813023762691 263.345186237Z"
                 style="fill:#966432;fill-opacity:1" />
              <path
                 id="path4216"
                 d="M142.23438 124.71484L143.94336 124.71484L2.52200376269 266.136196237L0.813023762691 266.136196237Z"
                 style="fill:#966432;fill-opacity:1" />
              <path
                 id="path4218"
                 d="M143.94336 124.71484C146.40336 124.71485 148.20375 124.92375 149.34375 125.34375L7.92239376269 266.765106237C6.78239376269 266.345106237 4.98200376269 266.136206237 2.52200376269 266.136196237Z"
                 style="fill:#966432;fill-opacity:1" />
              <path
                 id="path4220"
                 d="M149.34375 125.34375C150.48375 125.76375 151.4725 126.60523 152.3125 127.86523L10.8911437627 269.286586237C10.0511437627 268.026586237 9.06239376269 267.185106237 7.92239376269 266.765106237Z"
                 style="fill:#966432;fill-opacity:1" />
              <path
                 id="path4222"
                 d="M152.3125 127.86523L168.875 152.88477L27.4536437627 294.306126237L10.8911437627 269.286586237Z"
                 style="fill:#966432;fill-opacity:1" />
              <path
                 id="path4224"
                 d="M168.875 152.88477L154.11133 174.66406L12.6899737627 316.085416237L27.4536437627 294.306126237Z"
                 style="fill:#966432;fill-opacity:1" />
              <path
                 id="path4226"
                 d="M154.11133 174.66406C153.39133 175.68406 152.73477 176.52359 152.13477 177.18359L10.7134137627 318.604946237C11.3134137627 317.944946237 11.9699737627 317.105416237 12.6899737627 316.085416237Z"
                 style="fill:#966432;fill-opacity:1" />
              <path
                 id="path4228"
                 d="M152.13477 177.18359C151.53477 177.78358 150.21383 178.50375 148.17383 179.34375L6.75247376269 320.765106237C8.79247376269 319.925106237 10.1134137627 319.204936237 10.7134137627 318.604946237Z"
                 style="fill:#966432;fill-opacity:1" />
              <path
                 id="path4230"
                 d="M148.17383 179.34375C146.19383 180.18375 143.8225 180.60547 141.0625 180.60547L-0.358856237309 322.026826237C2.40114376269 322.026826237 4.77247376269 321.605106237 6.75247376269 320.765106237Z"
                 style="fill:#966432;fill-opacity:1" />
              <path
                 id="path4232"
                 d="M141.0625 180.60547L141.0625 183.39453L-0.358856237309 324.815886237L-0.358856237309 322.026826237Z"
                 style="fill:#966432;fill-opacity:1" />
              <path
                 id="path4234"
                 d="M141.0625 183.39453C147.5425 183.21453 150.87469 183.125 151.05469 183.125L9.63333376269 324.546356237C9.45333376269 324.546356237 6.12114376269 324.635886237 -0.358856237309 324.815886237Z"
                 style="fill:#966432;fill-opacity:1" />
              <path
                 id="path4236"
                 d="M151.05469 183.125C151.22364 183.125 151.31858 183.12891 151.48438 183.12891L10.0630237627 324.550266237C9.89722376269 324.550266237 9.80228376269 324.546356237 9.63333376269 324.546356237Z"
                 style="fill:#966432;fill-opacity:1" />
              <path
                 id="path4238"
                 d="M151.48438 183.12891C151.25235 184.43147 151.02775 185.61342 150.81641 186.56445L9.39505376269 327.985806237C9.60639376269 327.034776237 9.83099376269 325.852826237 10.0630237627 324.550266237Z"
                 style="fill:#966432;fill-opacity:1" />
              <path
                 id="path4240"
                 d="M150.81641 186.56445C150.45641 188.18445 149.94711 189.86547 149.28711 191.60547L7.86575376269 333.026826237C8.52575376269 331.286826237 9.03505376269 329.605806237 9.39505376269 327.985806237Z"
                 style="fill:#966432;fill-opacity:1" />
              <path
                 id="path4242"
                 d="M149.28711 191.60547C148.68711 193.34547 147.93711 194.6943 147.03711 195.6543L5.61575376269 337.075656237C6.51575376269 336.115656237 7.26575376269 334.766826237 7.86575376269 333.026826237Z"
                 style="fill:#966432;fill-opacity:1" />
              <path
                 id="path4244"
                 d="M147.03711 195.6543C146.937392428 195.760665411 146.835071966 195.866308622 146.730154137 195.97122645L5.30879790002 337.392582687C5.41371572867 337.287664859 5.5160361903 337.182021648 5.61575376269 337.075656237Z"
                 style="fill:#966432;fill-opacity:1" />
              <path
                 id="path4246"
                 d="M146.730154137 195.97122645C145.888137103 196.813243485 144.87882756 197.608539734 143.70508 198.35547L2.28372376269 339.776826237C3.45747132319 339.029895972 4.46678086524 338.234599722 5.30879790002 337.392582687Z"
                 style="fill:#966432;fill-opacity:1" />
              <path
                 id="path4248"
                 d="M143.70508 198.35547C142.38508 199.19547 140.76375 199.7943 138.84375 200.1543L-2.57760623731 341.575656237C-0.657606237309 341.215656237 0.963723762691 340.616826237 2.28372376269 339.776826237Z"
                 style="fill:#966432;fill-opacity:1" />
              <path
                 id="path4250"
                 d="M138.84375 200.1543C136.98375 200.4543 134.76555 200.60547 132.18555 200.60547L-9.23580623731 342.026826237C-6.65580623731 342.026826237 -4.43760623731 341.875656237 -2.57760623731 341.575656237Z"
                 style="fill:#966432;fill-opacity:1" />
              <path
                 id="path4252"
                 d="M132.18555 200.60547L120.2168 200.60547L-21.2045562373 342.026826237L-9.23580623731 342.026826237Z"
                 style="fill:#966432;fill-opacity:1" />
              <path
                 id="path4254"
                 d="M120.2168 200.60547C118.1768 200.60547 116.91555 200.39461 116.43555 199.97461L-24.9858062373 341.395966237C-24.5058062373 341.815966237 -23.2445562373 342.026826237 -21.2045562373 342.026826237Z"
                 style="fill:#966432;fill-opacity:1" />
              <path
                 id="path4256"
                 d="M116.43555 199.97461C116.01555 199.55461 115.80469 198.56391 115.80469 197.00391L-25.6166662373 338.425266237C-25.6166662373 339.985266237 -25.4058062373 340.975966237 -24.9858062373 341.395966237Z"
                 style="fill:#966432;fill-opacity:1" />
              <path
                 id="path4258"
                 d="M115.80469 197.00391L115.80469 172.97461L-25.6166662373 314.395966237L-25.6166662373 338.425266237Z"
                 style="fill:#966432;fill-opacity:1" />
              <path
                 id="path4260"
                 d="M115.80469 172.97461L123.90625 172.97461L-17.5151062373 314.395966237L-25.6166662373 314.395966237Z"
                 style="fill:#966432;fill-opacity:1" />
              <path
                 id="path4262"
                 d="M123.90625 172.97461C128.04625 172.97461 130.68422 173.72461 131.82422 175.22461L-9.59713623731 316.645966237C-10.7371362373 315.145966237 -13.3751062373 314.395966237 -17.5151062373 314.395966237Z"
                 style="fill:#966432;fill-opacity:1" />
              <path
                 id="path4264"
                 d="M131.82422 175.22461C133.02422 176.66461 133.625 179.42391 133.625 183.50391L-7.79635623731 324.925266237C-7.79635623731 320.845266237 -8.39713623731 318.085966237 -9.59713623731 316.645966237Z"
                 style="fill:#966432;fill-opacity:1" />
              <path
                 id="path4266"
                 d="M133.625 183.50391L135.875 183.50391L-5.54635623731 324.925266237L-7.79635623731 324.925266237Z"
                 style="fill:#966432;fill-opacity:1" />
              <path
                 id="path4268"
                 d="M135.875 183.50391L135.875 159.6543L-5.54635623731 301.075656237L-5.54635623731 324.925266237Z"
                 style="fill:#966432;fill-opacity:1" />
              <path
                 id="path4270"
                 d="M135.875 159.6543L133.625 159.6543L-7.79635623731 301.075656237L-5.54635623731 301.075656237Z"
                 style="fill:#966432;fill-opacity:1" />
              <path
                 id="path4272"
                 d="M133.625 159.6543C133.625 163.7943 133.02422 166.58539 131.82422 168.02539L-9.59713623731 309.446746237C-8.39713623731 308.006746237 -7.79635623731 305.215656237 -7.79635623731 301.075656237Z"
                 style="fill:#966432;fill-opacity:1" />
              <path
                 id="path4274"
                 d="M131.82422 168.02539C131.747185531 168.122696697 131.663310944 168.216707469 131.572594987 168.307423427L-9.84876125051 309.728779664C-9.75804529289 309.638063707 -9.67417070607 309.544052935 -9.59713623731 309.446746237Z"
                 style="fill:#966432;fill-opacity:1" />
              <path
                 id="path4276"
                 d="M131.572594987 168.307423427C130.32084447 169.559173944 127.766493245 170.18359 123.90625 170.18359L-17.5151062373 311.604946237C-13.6548629923 311.604946237 -11.1005117673 310.980530181 -9.84876125051 309.728779664Z"
                 style="fill:#966432;fill-opacity:1" />
              <path
                 id="path4278"
                 d="M123.90625 170.18359L115.80469 170.18359L-25.6166662373 311.604946237L-17.5151062373 311.604946237Z"
                 style="fill:#966432;fill-opacity:1" />
              <path
                 id="path4280"
                 d="M115.80469 170.18359L115.80469 148.58398L-25.6166662373 290.005336237L-25.6166662373 311.604946237Z"
                 style="fill:#966432;fill-opacity:1" />
              <path
                 id="path4282"
                 d="M115.80469 148.58398C115.80469 147.02398 116.01555 146.03523 116.43555 145.61523L-24.9858062373 287.036586237C-25.4058062373 287.456586237 -25.6166662373 288.445336237 -25.6166662373 290.005336237Z"
                 style="fill:#966432;fill-opacity:1" />
              <path
                 id="path4284"
                 d="M116.43555 145.61523C116.91555 145.19523 118.1768 144.98438 120.2168 144.98438L-21.2045562373 286.405736237C-23.2445562373 286.405736237 -24.5058062373 286.616586237 -24.9858062373 287.036586237Z"
                 style="fill:#966432;fill-opacity:1" />
              <path
                 id="path4286"
                 d="M120.2168 144.98438L131.82422 144.98438L-9.59713623731 286.405736237L-21.2045562373 286.405736237Z"
                 style="fill:#966432;fill-opacity:1" />
              <path
                 id="path4288"
                 d="M131.82422 144.98438C135.24422 144.98438 138.00547 145.28477 140.10547 145.88477L-1.31588623731 287.306126237C-3.41588623731 286.706126237 -6.17713623731 286.405736237 -9.59713623731 286.405736237Z"
                 style="fill:#966432;fill-opacity:1" />
              <path
                 id="path4290"
                 d="M140.10547 145.88477C142.26547 146.48477 143.97633 147.565 145.23633 149.125L3.81497376269 290.546356237C2.55497376269 288.986356237 0.844113762691 287.906126237 -1.31588623731 287.306126237Z"
                 style="fill:#966432;fill-opacity:1" />
              <path
                 id="path4292"
                 d="M145.23633 149.125C146.55633 150.625 147.48539 152.36375 148.02539 154.34375L6.60403376269 295.765106237C6.06403376269 293.785106237 5.13497376269 292.046356237 3.81497376269 290.546356237Z"
                 style="fill:#966432;fill-opacity:1" />
              <path
                 id="path4294"
                 d="M148.02539 154.34375C148.56539 156.32375 149.0468 159.02531 149.4668 162.44531L8.04544376269 303.866666237C7.62544376269 300.446666237 7.14403376269 297.745106237 6.60403376269 295.765106237Z"
                 style="fill:#966432;fill-opacity:1" />
              <path
                 id="path4296"
                 d="M149.4668 162.44531L151.7168 162.44531L10.2954437627 303.866666237L8.04544376269 303.866666237Z"
                 style="fill:#966432;fill-opacity:1" />
              <path
                 id="path4298"
                 d="M151.7168 162.44531L149.19727 142.19531L7.77591376269 283.616666237L10.2954437627 303.866666237Z"
                 style="fill:#966432;fill-opacity:1" />
              <path
                 id="path4300"
                 d="M149.19727 142.19531L110.125 142.19531L-31.2963562373 283.616666237L7.77591376269 283.616666237Z"
                 style="fill:#966432;fill-opacity:1" />
              <path
                 id="path4302"
                 d="M110.125 142.19531L108.45508 122.46484L-32.9662762373 263.886196237L-31.2963562373 283.616666237Z"
                 style="fill:#966432;fill-opacity:1" />
              <path
                 id="path4304"
                 d="M108.45508 122.46484L53.466797 122.46484L-87.9545592373 263.886196237L-32.9662762373 263.886196237Z"
                 style="fill:#966432;fill-opacity:1" />
              <path
                 id="path4306"
                 d="M53.466797 122.46484L51.757812 142.71484L-89.6635442373 284.136196237L-87.9545592373 263.886196237Z"
                 style="fill:#966432;fill-opacity:1" />
              <path
                 id="path4308"
                 d="M51.757812 142.71484L54.007812 142.71484L-87.4135442373 284.136196237L-89.6635442373 284.136196237Z"
                 style="fill:#966432;fill-opacity:1" />
              <path
                 id="path4310"
                 d="M54.007812 142.71484C54.247813 140.01484 54.456719 137.88422 54.636719 136.32422L-86.7846372373 277.745576237C-86.9646372373 279.305576237 -87.1735432373 281.436196237 -87.4135442373 284.136196237Z"
                 style="fill:#966432;fill-opacity:1" />
              <path
                 id="path4312"
                 d="M54.636719 136.32422C54.876719 134.76422 55.236796 133.26422 55.716797 131.82422L-85.7045592373 273.245576237C-86.1845602373 274.685576237 -86.5446372373 276.185576237 -86.7846372373 277.745576237Z"
                 style="fill:#966432;fill-opacity:1" />
              <path
                 id="path4314"
                 d="M55.716797 131.82422C56.256797 130.32422 56.827734 129.21414 57.427734 128.49414L-83.9936222373 269.915496237C-84.5936222373 270.635496237 -85.1645592373 271.745576237 -85.7045592373 273.245576237Z"
                 style="fill:#966432;fill-opacity:1" />
              <path
                 id="path4316"
                 d="M57.427734 128.49414C57.4826791453 128.434199842 57.5394890514 128.374892655 57.5981648014 128.316216905L-83.8231914359 269.737573142C-83.8818671859 269.796248892 -83.938677092 269.855556079 -83.9936222373 269.915496237Z"
                 style="fill:#966432;fill-opacity:1" />
              <path
                 id="path4318"
                 d="M57.5981648014 128.316216905C58.2443010016 127.670080704 59.1166963474 127.100514881 60.216797 126.60547L-81.2045592373 268.026826237C-82.3046598899 268.521871118 -83.1770552357 269.091436942 -83.8231914359 269.737573142Z"
                 style="fill:#966432;fill-opacity:1" />
              <path
                 id="path4320"
                 d="M60.216797 126.60547C61.416797 126.00547 62.797423 125.64539 64.357422 125.52539L-77.0639342373 266.946746237C-78.6239332373 267.066746237 -80.0045592373 267.426826237 -81.2045592373 268.026826237Z"
                 style="fill:#966432;fill-opacity:1" />
              <path
                 id="path4322"
                 d="M64.357422 125.52539C65.917423 125.34539 67.867031 125.25391 70.207031 125.25391L-71.2143252373 266.675266237C-73.5543252373 266.675266237 -75.5039332373 266.766746237 -77.0639342373 266.946746237Z"
                 style="fill:#966432;fill-opacity:1" />
              <path
                 id="path4324"
                 d="M70.207031 125.25391C72.847031 125.25391 74.468359 125.3136 75.068359 125.43359L-66.3529972373 266.854946237C-66.9529972373 266.734956237 -68.5743252373 266.675266237 -71.2143252373 266.675266237Z"
                 style="fill:#966432;fill-opacity:1" />
              <path
                 id="path4326"
                 d="M75.068359 125.43359C75.668359 125.55358 76.088125 125.76445 76.328125 126.06445L-65.0932312373 267.485806237C-65.3332312373 267.185806237 -65.7529972373 266.974936237 -66.3529972373 266.854946237Z"
                 style="fill:#966432;fill-opacity:1" />
              <path
                 id="path4328"
                 d="M76.328125 126.06445C76.628125 126.36445 76.807187 126.69469 76.867188 127.05469L-64.5541682373 268.476046237C-64.6141692373 268.116046237 -64.7932312373 267.785806237 -65.0932312373 267.485806237Z"
                 style="fill:#966432;fill-opacity:1" />
              <path
                 id="path4330"
                 d="M76.867188 127.05469C76.927188 127.41469 76.955078 128.01547 76.955078 128.85547L-64.4662782373 270.276826237C-64.4662782373 269.436826237 -64.4941682373 268.836046237 -64.5541682373 268.476046237Z"
                 style="fill:#966432;fill-opacity:1" />
              <path
                 id="path4332"
                 d="M76.955078 128.85547L76.955078 176.28516L-64.4662782373 317.706516237L-64.4662782373 270.276826237Z"
                 style="fill:#966432;fill-opacity:1" />
              <path
                 id="path4334"
                 d="M76.955078 176.28516C76.955078 177.48516 76.835703 178.32469 76.595703 178.80469L-64.8256532373 320.226046237C-64.5856532373 319.746046237 -64.4662782373 318.906516237 -64.4662782373 317.706516237Z"
                 style="fill:#966432;fill-opacity:1" />
              <path
                 id="path4336"
                 d="M76.595703 178.80469C76.5499844259 178.896127148 76.4835930576 178.985378308 76.396524568 179.072446798L-65.0248316694 320.493803035C-64.9377631797 320.406734545 -64.8713718114 320.317483386 -64.8256532373 320.226046237Z"
                 style="fill:#966432;fill-opacity:1" />
              <path
                 id="path4338"
                 d="M76.396524568 179.072446798C76.0265263636 179.442445002 75.2831341989 179.773027861 74.166016 180.06445L-67.2553402373 321.485806237C-66.1382220385 321.194384098 -65.3948298737 320.863801239 -65.0248316694 320.493803035Z"
                 style="fill:#966432;fill-opacity:1" />
              <path
                 id="path4340"
                 d="M74.166016 180.06445C72.786016 180.42445 70.565859 180.60547 67.505859 180.60547L-73.9154972373 322.026826237C-70.8554972373 322.026826237 -68.6353402373 321.845806237 -67.2553402373 321.485806237Z"
                 style="fill:#966432;fill-opacity:1" />
              <path
                 id="path4342"
                 d="M67.505859 180.60547L63.90625 180.60547L-77.5151062373 322.026826237L-73.9154972373 322.026826237Z"
                 style="fill:#966432;fill-opacity:1" />
              <path
                 id="path4344"
                 d="M63.90625 180.60547L63.90625 183.39453L-77.5151062373 324.815886237L-77.5151062373 322.026826237Z"
                 style="fill:#966432;fill-opacity:1" />
              <path
                 id="path4346"
                 d="M63.90625 183.39453C66.36625 183.21453 72.036016 183.125 80.916016 183.125L-60.5053402373 324.546356237C-69.3853402373 324.546356237 -75.0551062373 324.635886237 -77.5151062373 324.815886237Z"
                 style="fill:#966432;fill-opacity:1" />
              <path
                 id="path4348"
                 d="M80.916016 183.125C89.856016 183.125 95.555625 183.2145 98.015625 183.39453L-43.4057312373 324.815886237C-45.8657312373 324.635856237 -51.5653402373 324.546356237 -60.5053402373 324.546356237Z"
                 style="fill:#966432;fill-opacity:1" />
              <path
                 id="path4350"
                 d="M98.015625 183.39453L98.015625 180.60547L-43.4057312373 322.026826237L-43.4057312373 324.815886237Z"
                 style="fill:#966432;fill-opacity:1" />
              <path
                 id="path4352"
                 d="M98.015625 180.60547L94.416016 180.60547L-47.0053402373 322.026826237L-43.4057312373 322.026826237Z"
                 style="fill:#966432;fill-opacity:1" />
              <path
                 id="path4354"
                 d="M94.416016 180.60547C91.356016 180.60547 89.135859 180.42445 87.755859 180.06445L-53.6654972373 321.485806237C-52.2854972373 321.845806237 -50.0653402373 322.026826237 -47.0053402373 322.026826237Z"
                 style="fill:#966432;fill-opacity:1" />
              <path
                 id="path4356"
                 d="M87.755859 180.06445C86.375859 179.70445 85.566172 179.28469 85.326172 178.80469L-56.0951842373 320.226046237C-55.8551842373 320.706046237 -55.0454972373 321.125806237 -53.6654972373 321.485806237Z"
                 style="fill:#966432;fill-opacity:1" />
              <path
                 id="path4358"
                 d="M85.326172 178.80469C85.086172 178.32469 84.964844 177.48516 84.964844 176.28516L-56.4565122373 317.706516237C-56.4565122373 318.906516237 -56.3351842373 319.746046237 -56.0951842373 320.226046237Z"
                 style="fill:#966432;fill-opacity:1" />
              <path
                 id="path4360"
                 d="M84.964844 176.28516L84.964844 128.85547L-56.4565122373 270.276826237L-56.4565122373 317.706516237Z"
                 style="fill:#966432;fill-opacity:1" />
              <path
                 id="path4362"
                 d="M84.964844 128.85547C84.964844 127.77547 85.056324 126.99367 85.236328 126.51367L-56.1850282373 267.935026237C-56.3650322373 268.415026237 -56.4565122373 269.196826237 -56.4565122373 270.276826237Z"
                 style="fill:#966432;fill-opacity:1" />
              <path
                 id="path4364"
                 d="M85.236328 126.51367C85.3083738333 126.2975325 85.4236120445 126.11021726 85.5820928413 125.951736463L-55.839263396 267.373092701C-55.9977441928 267.531573497 -56.112982404 267.718888737 -56.1850282373 267.935026237Z"
                 style="fill:#966432;fill-opacity:1" />
              <path
                 id="path4366"
                 d="M85.5820928413 125.951736463C85.819561985 125.71426732 86.1541207336 125.541538169 86.585938 125.43359L-54.8354182373 266.854946237C-55.2672355037 266.962894407 -55.6017942524 267.135623557 -55.839263396 267.373092701Z"
                 style="fill:#966432;fill-opacity:1" />
              <path
                 id="path4368"
                 d="M86.585938 125.43359C87.245937 125.31359 88.954843 125.25391 91.714844 125.25391L-49.7065122373 266.675266237C-52.4665132373 266.675266237 -54.1754192373 266.734946237 -54.8354182373 266.854946237Z"
                 style="fill:#966432;fill-opacity:1" />
              <path
                 id="path4370"
                 d="M91.714844 125.25391C94.054843 125.25391 96.006406 125.34541 97.566406 125.52539L-43.8549502373 266.946746237C-45.4149502373 266.766766237 -47.3665132373 266.675266237 -49.7065122373 266.675266237Z"
                 style="fill:#966432;fill-opacity:1" />
              <path
                 id="path4372"
                 d="M97.566406 125.52539C99.126406 125.64539 100.50508 126.00547 101.70508 126.60547L-39.7162762373 268.026826237C-40.9162762373 267.426826237 -42.2949502373 267.066746237 -43.8549502373 266.946746237Z"
                 style="fill:#966432;fill-opacity:1" />
              <path
                 id="path4374"
                 d="M101.70508 126.60547C102.90508 127.14547 103.80625 127.77414 104.40625 128.49414L-37.0151062373 269.915496237C-37.6151062373 269.195496237 -38.5162762373 268.566826237 -39.7162762373 268.026826237Z"
                 style="fill:#966432;fill-opacity:1" />
              <path
                 id="path4376"
                 d="M104.40625 128.49414C105.06625 129.21414 105.63719 130.32422 106.11719 131.82422L-35.3041662373 273.245576237C-35.7841662373 271.745576237 -36.3551062373 270.635496237 -37.0151062373 269.915496237Z"
                 style="fill:#966432;fill-opacity:1" />
              <path
                 id="path4378"
                 d="M106.11719 131.82422C106.65719 133.26422 107.01727 134.76422 107.19727 136.32422L-34.2240862373 277.745576237C-34.4040862373 276.185576237 -34.7641662373 274.685576237 -35.3041662373 273.245576237Z"
                 style="fill:#966432;fill-opacity:1" />
              <path
                 id="path4380"
                 d="M107.19727 136.32422C107.42006 137.77235 107.6405 139.76482 107.86328 142.19531L-33.5580762373 283.616666237C-33.7808562373 281.186176237 -34.0012962373 279.193706237 -34.2240862373 277.745576237Z"
                 style="fill:#966432;fill-opacity:1" />
              <path
                 id="path4382"
                 d="M107.86328 142.19531L98.525391 142.19531L-42.8959652373 283.616666237L-33.5580762373 283.616666237Z"
                 style="fill:#966432;fill-opacity:1" />
              <path
                 id="path4384"
                 d="M98.525391 142.19531L98.525391 144.98438L-42.8959652373 286.405736237L-42.8959652373 283.616666237Z"
                 style="fill:#966432;fill-opacity:1" />
              <path
                 id="path4386"
                 d="M98.525391 144.98438L100.68359 144.98438L-40.7377662373 286.405736237L-42.8959652373 286.405736237Z"
                 style="fill:#966432;fill-opacity:1" />
              <path
                 id="path4388"
                 d="M100.68359 144.98438C103.9236 144.98438 105.905 145.25492 106.625 145.79492L-34.7963562373 287.216276237C-35.5163562373 286.676276237 -37.4977562373 286.405736237 -40.7377662373 286.405736237Z"
                 style="fill:#966432;fill-opacity:1" />
              <path
                 id="path4390"
                 d="M106.625 145.79492C107.405 146.33492 107.79687 147.47484 107.79688 149.21484L-33.6244762373 290.636196237C-33.6244862373 288.896196237 -34.0163562373 287.756276237 -34.7963562373 287.216276237Z"
                 style="fill:#966432;fill-opacity:1" />
              <path
                 id="path4392"
                 d="M107.79688 149.21484L107.79688 196.375L-33.6244762373 337.796356237L-33.6244762373 290.636196237Z"
                 style="fill:#966432;fill-opacity:1" />
              <path
                 id="path4394"
                 d="M107.79688 196.375C107.79688 197.903723414 107.494389014 198.969246892 106.891956964 199.571678942L-34.5293992729 340.993035179C-33.9269672231 340.390603129 -33.6244762373 339.325079651 -33.6244762373 337.796356237Z"
                 style="fill:#966432;fill-opacity:1" />
              <path
                 id="path4396"
                 d="M106.891956964 199.571678942C106.808698092 199.654937814 106.719710194 199.729351404 106.625 199.79492L-34.7963562373 341.216276237C-34.7016460434 341.150707642 -34.6126581449 341.076294051 -34.5293992729 340.993035179Z"
                 style="fill:#966432;fill-opacity:1" />
              <path
                 id="path4398"
                 d="M106.625 199.79492C105.905 200.33492 103.9236 200.60547 100.68359 200.60547L-40.7377662373 342.026826237C-37.4977562373 342.026826237 -35.5163562373 341.756276237 -34.7963562373 341.216276237Z"
                 style="fill:#966432;fill-opacity:1" />
              <path
                 id="path4400"
                 d="M100.68359 200.60547L98.525391 200.60547L-42.8959652373 342.026826237L-40.7377662373 342.026826237Z"
                 style="fill:#966432;fill-opacity:1" />
              <path
                 id="path4402"
                 d="M98.525391 200.60547L98.525391 203.39453L-42.8959652373 344.815886237L-42.8959652373 342.026826237Z"
                 style="fill:#966432;fill-opacity:1" />
              <path
                 id="path4404"
                 d="M98.525391 203.39453L150.45508 203.39453L9.03372376269 344.815886237L-42.8959652373 344.815886237Z"
                 style="fill:#966432;fill-opacity:1" />
              <path
                 id="path4406"
                 d="M150.45508 203.39453L153.75 183.15039L12.3286437627 324.571746237L9.03372376269 344.815886237Z"
                 style="fill:#966432;fill-opacity:1" />
              <path
                 id="path4408"
                 d="M153.75 183.15039C157.68795 183.17829 160.82921 183.24909 162.57422 183.39453L21.1528637627 324.815886237C19.4078537627 324.670446237 16.2665937627 324.599646237 12.3286437627 324.571746237Z"
                 style="fill:#966432;fill-opacity:1" />
              <path
                 id="path4410"
                 d="M162.57422 183.39453L162.57422 180.60547L21.1528637627 322.026826237L21.1528637627 324.815886237Z"
                 style="fill:#966432;fill-opacity:1" />
              <path
                 id="path4412"
                 d="M162.57422 180.60547C160.71422 180.54547 159.30375 180.09391 158.34375 179.25391L16.9223937627 320.675266237C17.8823937627 321.515266237 19.2928637627 321.966826237 21.1528637627 322.026826237Z"
                 style="fill:#966432;fill-opacity:1" />
              <path
                 id="path4414"
                 d="M158.34375 179.25391C157.38375 178.35391 156.9043 177.42485 156.9043 176.46484L15.4829437627 317.886196237C15.4829437627 318.846206237 15.9623937627 319.775266237 16.9223937627 320.675266237Z"
                 style="fill:#966432;fill-opacity:1" />
              <path
                 id="path4416"
                 d="M156.9043 176.46484C156.9043 175.98485 157.20469 175.26469 157.80469 174.30469L16.3833337627 315.726046237C15.7833337627 316.686046237 15.4829437627 317.406206237 15.4829437627 317.886196237Z"
                 style="fill:#966432;fill-opacity:1" />
              <path
                 id="path4418"
                 d="M157.80469 174.30469L170.58398 155.4043L29.1626237627 296.825656237L16.3833337627 315.726046237Z"
                 style="fill:#966432;fill-opacity:1" />
              <path
                 id="path4420"
                 d="M170.58398 155.4043L184.80469 176.91406L43.3833337627 318.335416237L29.1626237627 296.825656237Z"
                 style="fill:#966432;fill-opacity:1" />
              <path
                 id="path4422"
                 d="M184.80469 176.91406C185.10469 177.51406 185.25391 177.8443 185.25391 177.9043L43.8325537627 319.325656237C43.8325537627 319.265656237 43.6833337627 318.935416237 43.3833337627 318.335416237Z"
                 style="fill:#966432;fill-opacity:1" />
              <path
                 id="path4424"
                 d="M185.25391 177.9043C185.25391 178.238083112 185.0870594 178.572107615 184.75306208 178.906104934L43.3317058432 320.327461172C43.6657031629 319.993463852 43.8325537627 319.659439349 43.8325537627 319.325656237Z"
                 style="fill:#966432;fill-opacity:1" />
              <path
                 id="path4426"
                 d="M184.75306208 178.906104934C184.486674346 179.172492669 184.113960398 179.438863112 183.63477 179.70508L42.2134137627 321.126436237C42.6926041612 320.860219349 43.0653181085 320.593848906 43.3317058432 320.327461172Z"
                 style="fill:#966432;fill-opacity:1" />
              <path
                 id="path4428"
                 d="M183.63477 179.70508C182.61477 180.24508 181.2043 180.54547 179.4043 180.60547L37.9829437627 322.026826237C39.7829437627 321.966826237 41.1934137627 321.666436237 42.2134137627 321.126436237Z"
                 style="fill:#966432;fill-opacity:1" />
              <path
                 id="path4430"
                 d="M179.4043 180.60547L179.4043 183.39453L37.9829437627 324.815886237L37.9829437627 322.026826237Z"
                 style="fill:#966432;fill-opacity:1" />
              <path
                 id="path4432"
                 d="M179.4043 183.39453C181.5043 183.21453 185.88297 183.125 192.54297 183.125L51.1216137627 324.546356237C44.4616137627 324.546356237 40.0829437627 324.635886237 37.9829437627 324.815886237Z"
                 style="fill:#966432;fill-opacity:1" />
              <path
                 id="path4434"
                 d="M192.54297 183.125C196.56297 183.125 200.46219 183.2145 204.24219 183.39453L62.8208337627 324.815886237C59.0408337627 324.635856237 55.1416137627 324.546356237 51.1216137627 324.546356237Z"
                 style="fill:#966432;fill-opacity:1" />
              <path
                 id="path4436"
                 d="M204.24219 183.39453L204.24219 180.60547L62.8208337627 322.026826237L62.8208337627 324.815886237Z"
                 style="fill:#966432;fill-opacity:1" />
              <path
                 id="path4438"
                 d="M204.24219 180.60547L202.53125 180.60547L61.1098937627 322.026826237L62.8208337627 322.026826237Z"
                 style="fill:#966432;fill-opacity:1" />
              <path
                 id="path4440"
                 d="M202.53125 180.60547C200.07125 180.60547 198.27477 180.39461 197.13477 179.97461L55.7134137627 321.395966237C56.8534137627 321.815966237 58.6498937627 322.026826237 61.1098937627 322.026826237Z"
                 style="fill:#966432;fill-opacity:1" />
              <path
                 id="path4442"
                 d="M197.13477 179.97461C195.99477 179.55461 194.97422 178.68523 194.07422 177.36523L52.6528637627 318.786586237C53.5528637627 320.106586237 54.5734137627 320.975966237 55.7134137627 321.395966237Z"
                 style="fill:#966432;fill-opacity:1" />
              <path
                 id="path4444"
                 d="M194.07422 177.36523L175.08398 148.6543L33.6626237627 290.075656237L52.6528637627 318.786586237Z"
                 style="fill:#966432;fill-opacity:1" />
              <path
                 id="path4446"
                 d="M175.08398 148.6543L187.41211 130.56445L45.9907537627 271.985806237L33.6626237627 290.075656237Z"
                 style="fill:#966432;fill-opacity:1" />
              <path
                 id="path4448"
                 d="M187.41211 130.56445C187.851989943 129.924624629 188.339365623 129.337281716 188.874229823 128.802417516L47.4528735858 270.223773753C46.9180093853 270.758637953 46.4306337055 271.345980866 45.9907537627 271.985806237Z"
                 style="fill:#966432;fill-opacity:1" />
              <path
                 id="path4450"
                 d="M188.874229823 128.802417516C191.549426713 126.127220625 195.412614414 124.764851062 200.46289 124.71484L59.0415337627 266.136196237C53.991258177 266.1862073 50.1280704761 267.548576863 47.4528735858 270.223773753Z"
                 style="fill:#966432;fill-opacity:1" />
              <path
                 id="path4452"
                 d="M200.46289 124.71484L200.46289 121.92383L59.0415337627 263.345186237L59.0415337627 266.136196237Z"
                 style="fill:#966432;fill-opacity:1" />
              <path
                 id="path4454"
                 d="M200.46289 121.92383C199.62289 121.92383 198.45508 121.95367 196.95508 122.01367L55.5337237627 263.435026237C57.0337237627 263.375026237 58.2015337627 263.345186237 59.0415337627 263.345186237Z"
                 style="fill:#966432;fill-opacity:1" />
              <path
                 id="path4456"
                 d="M196.95508 122.01367C195.51508 122.07367 194.22398 122.13531 193.08398 122.19531L51.6626237627 263.616666237C52.8026237627 263.556666237 54.0937237627 263.495026237 55.5337237627 263.435026237Z"
                 style="fill:#966432;fill-opacity:1" />
              <path
                 id="path4458"
                 d="M193.08398 122.19531L190.47461 122.19531L49.0532537627 263.616666237L51.6626237627 263.616666237Z"
                 style="fill:#966432;fill-opacity:1" />
              <path
                 id="path4460"
                 d="M190.47461 122.19531C185.19461 122.19531 181.35508 122.10381 178.95508 121.92383L37.5337237627 263.345186237C39.9337237627 263.525166237 43.7732537627 263.616666237 49.0532537627 263.616666237Z"
                 style="fill:#966432;fill-opacity:1" />
              <path
                 id="path4462"
                 d="M178.95508 121.92383L178.95508 124.71484L37.5337237627 266.136196237L37.5337237627 263.345186237Z"
                 style="fill:#966432;fill-opacity:1" />
              <path
                 id="path4464"
                 d="M178.95508 124.71484C180.69508 124.77484 182.04391 125.22445 183.00391 126.06445L41.5825537627 267.485806237C40.6225537627 266.645806237 39.2737237627 266.196196237 37.5337237627 266.136196237Z"
                 style="fill:#966432;fill-opacity:1" />
              <path
                 id="path4466"
                 d="M183.00391 126.06445C184.02391 126.84445 184.53125 127.77547 184.53125 128.85547L43.1098937627 270.276826237C43.1098937627 269.196826237 42.6025537627 268.265806237 41.5825537627 267.485806237Z"
                 style="fill:#966432;fill-opacity:1" />
              <path
                 id="path4468"
                 d="M184.53125 128.85547C184.53125 129.39547 184.26461 130.08383 183.72461 130.92383L42.3032537627 272.345186237C42.8432537627 271.505186237 43.1098937627 270.816826237 43.1098937627 270.276826237Z"
                 style="fill:#966432;fill-opacity:1" />
              <path
                 id="path4470"
                 d="M183.72461 130.92383L173.46289 146.13477L32.0415337627 287.556126237L42.3032537627 272.345186237Z"
                 style="fill:#966432;fill-opacity:1" />
              <path
                 id="path4472"
                 d="M173.46289 146.13477L161.85352 128.76367L20.4321637627 270.185026237L32.0415337627 287.556126237Z"
                 style="fill:#966432;fill-opacity:1" />
              <path
                 id="path4474"
                 d="M161.85352 128.76367C161.43352 128.10367 161.22461 127.65406 161.22461 127.41406L19.8032537627 268.835416237C19.8032537627 269.075416237 20.0121637627 269.525026237 20.4321637627 270.185026237Z"
                 style="fill:#966432;fill-opacity:1" />
              <path
                 id="path4476"
                 d="M161.22461 127.41406C161.22461 127.080814464 161.381718563 126.757137959 161.696175555 126.442680968L20.2748193172 267.864037205C19.9603623258 268.178494196 19.8032537627 268.502170701 19.8032537627 268.835416237Z"
                 style="fill:#966432;fill-opacity:1" />
              <path
                 id="path4478"
                 d="M161.696175555 126.442680968C161.947890273 126.19096625 162.300427411 125.945159018 162.75391 125.70508L21.3325537627 267.126436237C20.879071174 267.366515255 20.5265340354 267.612322487 20.2748193172 267.864037205Z"
                 style="fill:#966432;fill-opacity:1" />
              <path
                 id="path4480"
                 d="M162.75391 125.70508C163.83391 125.10508 165.27422 124.77485 167.07422 124.71484L25.6528637627 266.136196237C23.8528637627 266.196206237 22.4125537627 266.526436237 21.3325537627 267.126436237Z"
                 style="fill:#966432;fill-opacity:1" />
              <path
                 id="path4482"
                 d="M167.07422 124.71484L167.07422 121.92383L25.6528637627 263.345186237L25.6528637627 266.136196237Z"
                 style="fill:#966432;fill-opacity:1" />
              <path
                 id="path4484"
                 d="M167.07422 121.92383C164.97422 122.10383 160.59164 122.19531 153.93164 122.19531L12.5102837627 263.616666237C19.1702837627 263.616666237 23.5528637627 263.525186237 25.6528637627 263.345186237Z"
                 style="fill:#966432;fill-opacity:1" />
              <path
                 id="path4486"
                 d="M153.93164 122.19531C149.43164 122.19531 145.53437 122.10381 142.23438 121.92383L0.813023762691 263.345186237C4.11301376269 263.525166237 8.01028376269 263.616666237 12.5102837627 263.616666237Z"
                 style="fill:#966432;fill-opacity:1" />
            </g>
            <path
               id="path4185"
               transform=""
               d="M 142.23438 121.92383 L 142.23438 124.71484 L 143.94336 124.71484 C 146.40336 124.71485 148.20375 124.92375 149.34375 125.34375 C 150.48375 125.76375 151.4725 126.60523 152.3125 127.86523 L 168.875 152.88477 L 154.11133 174.66406 C 153.39133 175.68406 152.73477 176.52359 152.13477 177.18359 C 151.53477 177.78358 150.21383 178.50375 148.17383 179.34375 C 146.19383 180.18375 143.8225 180.60547 141.0625 180.60547 L 141.0625 183.39453 C 147.5425 183.21453 150.87469 183.125 151.05469 183.125 C 151.22364 183.125 151.31858 183.12891 151.48438 183.12891 C 151.25235 184.43147 151.02775 185.61342 150.81641 186.56445 C 150.45641 188.18445 149.94711 189.86547 149.28711 191.60547 C 148.68711 193.34547 147.93711 194.6943 147.03711 195.6543 C 146.13711 196.6143 145.02508 197.51547 143.70508 198.35547 C 142.38508 199.19547 140.76375 199.7943 138.84375 200.1543 C 136.98375 200.4543 134.76555 200.60547 132.18555 200.60547 L 120.2168 200.60547 C 118.1768 200.60547 116.91555 200.39461 116.43555 199.97461 C 116.01555 199.55461 115.80469 198.56391 115.80469 197.00391 L 115.80469 172.97461 L 123.90625 172.97461 C 128.04625 172.97461 130.68422 173.72461 131.82422 175.22461 C 133.02422 176.66461 133.625 179.42391 133.625 183.50391 L 135.875 183.50391 L 135.875 159.6543 L 133.625 159.6543 C 133.625 163.7943 133.02422 166.58539 131.82422 168.02539 C 130.68422 169.46539 128.04625 170.18359 123.90625 170.18359 L 115.80469 170.18359 L 115.80469 148.58398 C 115.80469 147.02398 116.01555 146.03523 116.43555 145.61523 C 116.91555 145.19523 118.1768 144.98438 120.2168 144.98438 L 131.82422 144.98438 C 135.24422 144.98438 138.00547 145.28477 140.10547 145.88477 C 142.26547 146.48477 143.97633 147.565 145.23633 149.125 C 146.55633 150.625 147.48539 152.36375 148.02539 154.34375 C 148.56539 156.32375 149.0468 159.02531 149.4668 162.44531 L 151.7168 162.44531 L 149.19727 142.19531 L 110.125 142.19531 L 108.45508 122.46484 L 53.466797 122.46484 L 51.757812 142.71484 L 54.007812 142.71484 C 54.247813 140.01484 54.456719 137.88422 54.636719 136.32422 C 54.876719 134.76422 55.236796 133.26422 55.716797 131.82422 C 56.256797 130.32422 56.827734 129.21414 57.427734 128.49414 C 58.087734 127.77414 59.016796 127.14547 60.216797 126.60547 C 61.416797 126.00547 62.797423 125.64539 64.357422 125.52539 C 65.917423 125.34539 67.867031 125.25391 70.207031 125.25391 C 72.847031 125.25391 74.468359 125.3136 75.068359 125.43359 C 75.668359 125.55358 76.088125 125.76445 76.328125 126.06445 C 76.628125 126.36445 76.807187 126.69469 76.867188 127.05469 C 76.927188 127.41469 76.955078 128.01547 76.955078 128.85547 L 76.955078 176.28516 C 76.955078 177.48516 76.835703 178.32469 76.595703 178.80469 C 76.355703 179.28469 75.546016 179.70445 74.166016 180.06445 C 72.786016 180.42445 70.565859 180.60547 67.505859 180.60547 L 63.90625 180.60547 L 63.90625 183.39453 C 66.36625 183.21453 72.036016 183.125 80.916016 183.125 C 89.856016 183.125 95.555625 183.2145 98.015625 183.39453 L 98.015625 180.60547 L 94.416016 180.60547 C 91.356016 180.60547 89.135859 180.42445 87.755859 180.06445 C 86.375859 179.70445 85.566172 179.28469 85.326172 178.80469 C 85.086172 178.32469 84.964844 177.48516 84.964844 176.28516 L 84.964844 128.85547 C 84.964844 127.77547 85.056324 126.99367 85.236328 126.51367 C 85.416328 125.97367 85.865937 125.61358 86.585938 125.43359 C 87.245937 125.31359 88.954843 125.25391 91.714844 125.25391 C 94.054843 125.25391 96.006406 125.34541 97.566406 125.52539 C 99.126406 125.64539 100.50508 126.00547 101.70508 126.60547 C 102.90508 127.14547 103.80625 127.77414 104.40625 128.49414 C 105.06625 129.21414 105.63719 130.32422 106.11719 131.82422 C 106.65719 133.26422 107.01727 134.76422 107.19727 136.32422 C 107.42006 137.77235 107.6405 139.76482 107.86328 142.19531 L 98.525391 142.19531 L 98.525391 144.98438 L 100.68359 144.98438 C 103.9236 144.98438 105.905 145.25492 106.625 145.79492 C 107.405 146.33492 107.79687 147.47484 107.79688 149.21484 L 107.79688 196.375 C 107.79688 198.115 107.405 199.25492 106.625 199.79492 C 105.905 200.33492 103.9236 200.60547 100.68359 200.60547 L 98.525391 200.60547 L 98.525391 203.39453 L 150.45508 203.39453 L 153.75 183.15039 C 157.68795 183.17829 160.82921 183.24909 162.57422 183.39453 L 162.57422 180.60547 C 160.71422 180.54547 159.30375 180.09391 158.34375 179.25391 C 157.38375 178.35391 156.9043 177.42485 156.9043 176.46484 C 156.9043 175.98485 157.20469 175.26469 157.80469 174.30469 L 170.58398 155.4043 L 184.80469 176.91406 C 185.10469 177.51406 185.25391 177.8443 185.25391 177.9043 C 185.25391 178.5043 184.71477 179.10508 183.63477 179.70508 C 182.61477 180.24508 181.2043 180.54547 179.4043 180.60547 L 179.4043 183.39453 C 181.5043 183.21453 185.88297 183.125 192.54297 183.125 C 196.56297 183.125 200.46219 183.2145 204.24219 183.39453 L 204.24219 180.60547 L 202.53125 180.60547 C 200.07125 180.60547 198.27477 180.39461 197.13477 179.97461 C 195.99477 179.55461 194.97422 178.68523 194.07422 177.36523 L 175.08398 148.6543 L 187.41211 130.56445 C 190.05211 126.72445 194.40289 124.77485 200.46289 124.71484 L 200.46289 121.92383 C 199.62289 121.92383 198.45508 121.95367 196.95508 122.01367 C 195.51508 122.07367 194.22398 122.13531 193.08398 122.19531 L 190.47461 122.19531 C 185.19461 122.19531 181.35508 122.10381 178.95508 121.92383 L 178.95508 124.71484 C 180.69508 124.77484 182.04391 125.22445 183.00391 126.06445 C 184.02391 126.84445 184.53125 127.77547 184.53125 128.85547 C 184.53125 129.39547 184.26461 130.08383 183.72461 130.92383 L 173.46289 146.13477 L 161.85352 128.76367 C 161.43352 128.10367 161.22461 127.65406 161.22461 127.41406 C 161.22461 126.81406 161.73391 126.24508 162.75391 125.70508 C 163.83391 125.10508 165.27422 124.77485 167.07422 124.71484 L 167.07422 121.92383 C 164.97422 122.10383 160.59164 122.19531 153.93164 122.19531 C 149.43164 122.19531 145.53437 122.10381 142.23438 121.92383 z "
               style="fill:#966432;fill-opacity:1" />
          </g>
        </g>
      </g>
    </g>
    <g
       style="fill:#ffffff;fill-opacity:1"
       id="g4152"
       transform="translate(1.1611335,13.511836)">
      <g
         style="font-style:normal;font-variant:normal;font-weight:500;font-stretch:normal;font-size:90px;line-height:125%;font-family:'CMU Serif';-inkscape-font-specification:'CMU Serif Medium';letter-spacing:0px;word-spacing:0px;fill:#ffffff;fill-opacity:1;stroke:none;stroke-width:1px;stroke-linecap:butt;stroke-linejoin:miter;stroke-opacity:1"
         id="g4154">
        <g
           style="fill:#ffffff;fill-opacity:1"
           id="g4156">
          <path
             id="path4158"
             transform="translate(0,796.36214)"
             d="m 141.07227,108.41211 0,2.79101 1.70898,0 c 2.46,1e-5 4.26039,0.20891 5.40039,0.62891 1.14,0.42 2.1307,1.26149 2.9707,2.52149 l 16.56055,25.01953 -14.76172,21.77929 c -0.72,1.02 -1.37851,1.85954 -1.97851,2.51954 -0.6,0.59999 -1.92094,1.32015 -3.96094,2.16015 -1.98,0.84 -4.34938,1.26172 -7.10938,1.26172 l 0,2.78906 c 6.48,-0.18 9.81024,-0.26953 9.99024,-0.26953 0.16895,0 0.26389,0.004 0.42969,0.004 -0.23202,1.30256 -0.45663,2.48451 -0.66797,3.43554 -0.36,1.62 -0.8693,3.30102 -1.5293,5.04102 -0.6,1.74 -1.35,3.08883 -2.25,4.04883 -0.9,0.96 -2.01008,1.86117 -3.33008,2.70117 -1.32,0.84 -2.94133,1.43883 -4.86133,1.79883 -1.86,0.3 -4.08015,0.45117 -6.66015,0.45117 l -11.96875,0 c -2.04,0 -3.30125,-0.21086 -3.78125,-0.63086 -0.42,-0.42 -0.62891,-1.4107 -0.62891,-2.9707 l 0,-24.0293 8.09961,0 c 4.14,0 6.77992,0.75 7.91992,2.25 1.2,1.44 1.80078,4.1993 1.80078,8.2793 l 2.25,0 0,-23.84961 -2.25,0 c 0,4.14 -0.60078,6.93109 -1.80078,8.37109 -1.14,1.44 -3.77992,2.15821 -7.91992,2.15821 l -8.09961,0 0,-21.59961 c 0,-1.56 0.20891,-2.54875 0.62891,-2.96875 0.48,-0.42 1.74125,-0.63086 3.78125,-0.63086 l 11.60937,0 c 3.42,0 6.18125,0.30039 8.28125,0.90039 2.16,0.6 3.86891,1.68023 5.12891,3.24023 1.32,1.5 2.25101,3.23875 2.79101,5.21875 0.54,1.98 1.01946,4.68156 1.43946,8.10156 l 2.25,0 -2.51953,-20.25 -39.07227,0 -1.66797,-19.73047 -54.990232,0 -1.708985,20.25 2.25,0 c 0.24,-2.7 0.448906,-4.83062 0.628906,-6.39062 0.24,-1.56 0.600078,-3.06 1.080079,-4.5 0.54,-1.5 1.110937,-2.61008 1.710937,-3.33008 0.66,-0.72 1.589062,-1.34867 2.789063,-1.88867 1.2,-0.6 2.580625,-0.96008 4.140624,-1.08008 1.560001,-0.18 3.50961,-0.27148 5.84961,-0.27148 2.64,0 4.261328,0.0597 4.861328,0.17969 0.6,0.11999 1.019766,0.33085 1.259766,0.63085 0.3,0.3 0.479062,0.63024 0.539062,0.99024 0.06,0.36 0.08984,0.96078 0.08984,1.80078 l 0,47.42969 c 0,1.2 -0.119375,2.03953 -0.359375,2.51953 -0.24,0.48 -1.049688,0.89976 -2.429688,1.25976 -1.38,0.36 -3.600156,0.54102 -6.660156,0.54102 l -3.599609,0 0,2.78906 c 2.46,-0.18 8.129765,-0.26953 17.009765,-0.26953 8.94,0 14.63961,0.0895 17.09961,0.26953 l 0,-2.78906 -3.59961,0 c -3.06,0 -5.280156,-0.18102 -6.660156,-0.54102 -1.38,-0.36 -2.189687,-0.77976 -2.429687,-1.25976 -0.24,-0.48 -0.361328,-1.31953 -0.361328,-2.51953 l 0,-47.42969 c 0,-1.08 0.09148,-1.8618 0.271484,-2.3418 0.18,-0.54 0.629609,-0.90008 1.349609,-1.08007 0.66,-0.12 2.368906,-0.17969 5.128907,-0.17969 2.339999,0 4.291562,0.0915 5.851562,0.27148 1.56,0.12 2.938673,0.48008 4.138674,1.08008 1.2,0.54 2.10117,1.16867 2.70117,1.88867 0.66,0.72 1.22899,1.83008 1.70899,3.33008 0.54,1.44 0.90008,2.94 1.08008,4.5 0.22279,1.44813 0.44518,3.4406 0.66796,5.87109 l -9.33789,0 0,2.78907 2.158204,0 c 3.240006,0 5.221406,0.27054 5.941406,0.81054 0.78,0.54 1.16993,1.67992 1.16993,3.41992 l 0,47.16016 c 0,1.74 -0.38993,2.87992 -1.16993,3.41992 -0.72,0.54 -2.7014,0.81055 -5.941406,0.81055 l -2.158204,0 0,2.78906 51.92969,0 3.29492,-20.24414 c 3.93795,0.0279 7.07726,0.0987 8.82227,0.24414 l 0,-2.78906 c -1.86,-0.06 -3.27047,-0.51156 -4.23047,-1.35156 -0.96,-0.9 -1.43945,-1.82906 -1.43945,-2.78907 0,-0.47999 0.30039,-1.20015 0.90039,-2.16015 l 12.7793,-18.90039 14.2207,21.50976 c 0.3,0.6 0.44922,0.93024 0.44922,0.99024 0,0.6 -0.53914,1.20078 -1.61914,1.80078 -1.02,0.54 -2.43047,0.84039 -4.23047,0.90039 l 0,2.78906 c 2.1,-0.18 6.48062,-0.26953 13.14062,-0.26953 4.02,0 7.91922,0.0895 11.69922,0.26953 l 0,-2.78906 -1.71094,0 c -2.46,0 -4.25843,-0.21086 -5.39843,-0.63086 -1.14,-0.42 -2.16055,-1.28937 -3.06055,-2.60937 l -18.99023,-28.71094 12.33007,-18.08985 c 2.64,-3.84 6.99078,-5.7896 13.05078,-5.84961 l 0,-2.79101 c -0.84,0 -2.00976,0.0298 -3.50976,0.0898 -1.44,0.06 -2.73109,0.12164 -3.87109,0.18164 l -2.60938,0 c -5.28,0 -9.11953,-0.0915 -11.51953,-0.27148 l 0,2.79101 c 1.74,0.06 3.08883,0.50961 4.04883,1.34961 1.02,0.78 1.52929,1.71102 1.52929,2.79102 0,0.54 -0.26859,1.22836 -0.80859,2.06836 L 172.30273,132.6231 160.69141,115.252 c -0.42,-0.66 -0.62891,-1.10961 -0.62891,-1.34961 0,-0.6 0.5093,-1.16898 1.5293,-1.70898 1.08,-0.6 2.52031,-0.93023 4.32031,-0.99024 l 0,-2.79101 c -2.1,0.18 -6.48063,0.27148 -13.14063,0.27148 -4.5,0 -8.39921,-0.0915 -11.69921,-0.27148 z"
             style="fill:#ffffff;fill-opacity:1"
             inkscape:connector-curvature="0" />
        </g>
      </g>
    </g>
  </g>
</svg>
