<?xml version="1.0" encoding="UTF-8" standalone="no"?>
<!-- Created with Inkscape (http://www.inkscape.org/) -->

<svg
   xmlns:dc="http://purl.org/dc/elements/1.1/"
   xmlns:cc="http://creativecommons.org/ns#"
   xmlns:rdf="http://www.w3.org/1999/02/22-rdf-syntax-ns#"
   xmlns:svg="http://www.w3.org/2000/svg"
   xmlns="http://www.w3.org/2000/svg"
   xmlns:sodipodi="http://sodipodi.sourceforge.net/DTD/sodipodi-0.dtd"
   xmlns:inkscape="http://www.inkscape.org/namespaces/inkscape"
   width="256"
   height="256"
   viewBox="0 0 256 256"
   id="svg2"
   version="1.1"
   inkscape:version="0.91 r13725"
   sodipodi:docname="text-css.svg">
  <sodipodi:namedview
     id="base"
     pagecolor="#ffffff"
     bordercolor="#666666"
     borderopacity="1.0"
     inkscape:pageopacity="0.0"
     inkscape:pageshadow="2"
     inkscape:zoom="2.0585938"
     inkscape:cx="128"
     inkscape:cy="128"
     inkscape:document-units="px"
     inkscape:current-layer="layer1"
     showgrid="false"
     units="px"
     inkscape:window-width="1366"
     inkscape:window-height="721"
     inkscape:window-x="0"
     inkscape:window-y="0"
     inkscape:window-maximized="1" />
  <defs
     id="defs4">
    <filter
       id="filter4301"
       inkscape:label="Drop Shadow"
       style="color-interpolation-filters:sRGB;">
      <feFlood
         id="feFlood4303"
         result="flood"
         flood-color="rgb(0,0,0)"
         flood-opacity="0.498039" />
      <feComposite
         id="feComposite4305"
         result="composite1"
         operator="in"
         in2="SourceGraphic"
         in="flood" />
      <feGaussianBlur
         id="feGaussianBlur4307"
         result="blur"
         stdDeviation="3.7"
         in="composite1" />
      <feOffset
         id="feOffset4309"
         result="offset"
         dy="3.7"
         dx="3.8" />
      <feComposite
         id="feComposite4311"
         result="composite2"
         operator="over"
         in2="offset"
         in="SourceGraphic" />
    </filter>
    <clipPath
       clipPathUnits="userSpaceOnUse"
       id="clipPath4403">
      <path
         style="fill:#d7875f;fill-opacity:1"
         d="m 151.20117,796.84847 -105.78125,0 c -7.804357,0 -14.087891,6.28158 -14.087891,14.08594 l 0,227.33989 c 0,7.8043 6.283534,14.0878 14.087891,14.0878 l 165.16211,0 c 7.80436,0 14.08594,-6.2835 14.08594,-14.0878 l 0,-154.82232 -73.4668,-86.60351 z"
         id="path4405"
         inkscape:connector-curvature="0" />
    </clipPath>
    <clipPath
       clipPathUnits="userSpaceOnUse"
       id="clipPath4632">
      <path
         inkscape:connector-curvature="0"
         id="path4634"
         d="m 151.20117,796.60532 -105.78125,0 c -7.804357,0 -14.087891,6.28158 -14.087891,14.08594 l 0,227.33994 c 0,7.8043 6.283534,14.0878 14.087891,14.0878 l 165.16211,0 c 7.80436,0 14.08594,-6.2835 14.08594,-14.0878 l 0,-154.82237 -73.4668,-86.60351 z"
         style="opacity:0.93000016;fill:#f4b400;fill-opacity:1" />
    </clipPath>
    <clipPath
       clipPathUnits="userSpaceOnUse"
       id="clipPath5837">
      <path
         style="opacity:0.93000016;fill:#f4b400;fill-opacity:1;stroke:#383838;stroke-opacity:0"
         d="m 151.20117,0.24318 -105.78125,0 c -7.804357,0 -14.087891,6.28158 -14.087891,14.08594 l 0,227.33994 c 0,7.8043 6.283534,14.0878 14.087891,14.0878 l 165.16211,0 c 7.80436,0 14.08594,-6.2835 14.08594,-14.0878 l 0,-154.82237 -73.4668,-86.60351 z"
         id="path5839"
         inkscape:connector-curvature="0" />
    </clipPath>
  </defs>
  <metadata
     id="metadata7">
    <rdf:RDF>
      <cc:Work
         rdf:about="">
        <dc:format>image/svg+xml</dc:format>
        <dc:type
           rdf:resource="http://purl.org/dc/dcmitype/StillImage" />
        <dc:title></dc:title>
      </cc:Work>
    </rdf:RDF>
  </metadata>
  <g
     transform="translate(0,-796.36214)"
     id="layer1"
     inkscape:groupmode="layer"
     inkscape:label="Layer 1">
    <path
       inkscape:connector-curvature="0"
       id="path4141"
       d="m 151.20117,796.84851 -105.78125,0 c -7.804357,0 -14.087891,6.28158 -14.087891,14.08594 l 0,227.33985 c 0,7.8043 6.283534,14.0878 14.087891,14.0878 l 165.16211,0 c 7.80436,0 14.08594,-6.2835 14.08594,-14.0878 l 0,-154.82228 -73.4668,-86.60351 z"
       style="fill:#f16529;fill-opacity:1" />
    <path
       inkscape:connector-curvature="0"
       id="rect4136"
       d="m 224.85352,883.45199 -73.4668,-86.60352 0,72.51758 c 0,7.80436 6.28158,14.08594 14.08594,14.08594 l 59.38086,0 z"
       style="fill:#fe976b;fill-opacity:1;filter:url(#filter4301)" />
    <text
       sodipodi:linespacing="125%"
       id="text4143"
       y="951.72528"
       x="74.722427"
       style="font-style:normal;font-variant:normal;font-weight:bold;font-stretch:normal;font-size:80px;line-height:125%;font-family:FreeSerif;-inkscape-font-specification:'FreeSerif Bold';letter-spacing:0px;word-spacing:0px;fill:#ffffff;fill-opacity:1;stroke:none;stroke-width:1px;stroke-linecap:butt;stroke-linejoin:miter;stroke-opacity:1"
       xml:space="preserve"><tspan
         y="951.72528"
         x="74.722427"
         id="tspan4145"
         sodipodi:role="line" /></text>
    <text
       sodipodi:linespacing="125%"
       id="text4162"
       y="922.95557"
       x="69.391937"
       style="font-style:normal;font-weight:normal;font-size:80px;line-height:125%;font-family:sans-serif;letter-spacing:0px;word-spacing:0px;fill:#000000;fill-opacity:1;stroke:none;stroke-width:1px;stroke-linecap:butt;stroke-linejoin:miter;stroke-opacity:1"
       xml:space="preserve"><tspan
         y="922.95557"
         x="69.391937"
         id="tspan4164"
         sodipodi:role="line" /></text>
    <path
       id="path4360"
       d="m 146.98869,955.33056 a 18.022408,18.960136 0 0 1 -18.02241,18.9601 18.022408,18.960136 0 0 1 -18.02241,-18.9601 18.022408,18.960136 0 0 1 18.02241,-18.96014 18.022408,18.960136 0 0 1 18.02241,18.96014 z"
       style="opacity:0.95999995;fill:#600000;fill-opacity:0;stroke:#f16529;stroke-width:3.82661533;stroke-linecap:round;stroke-linejoin:miter;stroke-miterlimit:4;stroke-dasharray:none;stroke-opacity:1"
       inkscape:connector-curvature="0" />
    <path
       style="opacity:0.98000004;fill:#f16529;fill-opacity:1;stroke:#f43838;stroke-width:0.05701777;stroke-linecap:round;stroke-linejoin:round;stroke-miterlimit:4;stroke-dasharray:none;stroke-opacity:0"
       d="m 128.71079,934.68485 46.43482,-0.41945 c 0.12986,-10e-4 -0.0743,-0.18212 0.0493,0.1181 l 1.60281,3.89222 c 0.12363,0.30023 0.15372,0.0256 0.0238,0.0247 l -48.11089,-0.33154 c -0.12987,-8.9e-4 -0.23443,-0.26139 -0.23443,-0.58608 l 0,-2.11186 c 0,-0.32469 0.10456,-0.58609 0.23443,-0.58609 z"
       id="rect4666"
       inkscape:connector-curvature="0"
       sodipodi:nodetypes="cssssssssc" />
    <path
       sodipodi:nodetypes="cssssssssc"
       inkscape:connector-curvature="0"
       id="path4669"
       d="m 145.91006,966.28156 -25.04517,39.10384 c -0.0702,0.1093 0.19296,0.038 -0.12572,-0.023 l -4.13513,-0.7868 c -0.31885,-0.061 -0.10545,0.1146 -0.0338,0.01 l 26.59056,-40.09644 c 0.0717,-0.1082 0.34705,-0.053 0.61888,0.1243 l 1.76802,1.155 c 0.27183,0.1775 0.43347,0.4081 0.36245,0.5168 z"
       style="opacity:0.98000004;fill:#f16529;fill-opacity:1;stroke:#f43838;stroke-width:0.05701777;stroke-linecap:round;stroke-linejoin:round;stroke-miterlimit:4;stroke-dasharray:none;stroke-opacity:0" />
    <path
       style="opacity:0.98000004;fill:#f16529;fill-opacity:1;stroke:#f43838;stroke-width:0.05701777;stroke-linecap:round;stroke-linejoin:round;stroke-miterlimit:4;stroke-dasharray:none;stroke-opacity:0"
       d="m 111.60092,964.74846 -23.006288,-40.337 c -0.06425,-0.1129 -0.122893,0.15342 0.07909,-0.1005 l 2.616701,-3.29713 c 0.202115,-0.25407 -0.05253,-0.14667 0.0099,-0.033 l 23.167877,42.16653 c 0.0625,0.1138 -0.11391,0.3321 -0.39734,0.4905 l -1.84385,1.0297 c -0.28343,0.1584 -0.56269,0.1945 -0.626,0.081 z"
       id="path4671"
       inkscape:connector-curvature="0"
       sodipodi:nodetypes="cssssssssc" />
    <g
       transform="translate(0,796.60528)"
       id="g5021"
       style="fill:#b04e24;fill-opacity:1"
       clip-path="url(#clipPath5837)">
      <g
         id="g5023"
         style="fill:#b04e24;fill-opacity:1;fill-rule:evenodd;stroke:none;stroke-width:1">
        <path
           inkscape:connector-curvature="0"
           id="path5025"
           d="m 85.771484,113.79297 0.421875,4.73633 -141.421356,141.42136 -0.421875,-4.73633 z"
           style="fill:#b04e24;fill-opacity:1" />
        <path
           inkscape:connector-curvature="0"
           id="path5027"
           d="M 86.193359,118.5293 87,127.48242 -54.421356,268.90378 l -0.806641,-8.95312 z"
           style="fill:#b04e24;fill-opacity:1" />
        <path
           inkscape:connector-curvature="0"
           id="path5029"
           d="m 87,127.48242 0.353516,3.96875 -141.421356,141.42136 -0.353516,-3.96875 z"
           style="fill:#b04e24;fill-opacity:1" />
        <path
           inkscape:connector-curvature="0"
           id="path5031"
           d="m 87.353516,131.45117 0.05664,0 -141.421356,141.42136 -0.05664,0 z"
           style="fill:#b04e24;fill-opacity:1" />
        <path
           inkscape:connector-curvature="0"
           id="path5033"
           d="m 87.410156,131.45117 42.597654,0 -141.421356,141.42136 -42.597654,0 z"
           style="fill:#b04e24;fill-opacity:1" />
        <path
           inkscape:connector-curvature="0"
           id="path5035"
           d="m 130.00781,131.45117 22.91992,0 -141.421356,141.42136 -22.91992,0 z"
           style="fill:#b04e24;fill-opacity:1" />
        <path
           inkscape:connector-curvature="0"
           id="path5037"
           d="M 152.92773,131.45117 151.31445,149.53516 9.8930938,290.95652 11.506374,272.87253 Z"
           style="fill:#b04e24;fill-opacity:1" />
        <path
           inkscape:connector-curvature="0"
           id="path5039"
           d="m 151.31445,149.53516 -23.36718,0 -141.421356,141.42136 23.3671798,0 z"
           style="fill:#b04e24;fill-opacity:1" />
        <path
           inkscape:connector-curvature="0"
           id="path5041"
           d="m 127.94727,149.53516 0,0.002 -141.421356,141.42136 0,-0.002 z"
           style="fill:#b04e24;fill-opacity:1" />
        <path
           inkscape:connector-curvature="0"
           id="path5043"
           d="m 127.94727,149.53711 -19,0 -141.421356,141.42136 19,0 z"
           style="fill:#b04e24;fill-opacity:1" />
        <path
           inkscape:connector-curvature="0"
           id="path5045"
           d="m 108.94727,149.53711 0.42382,4.73828 -141.421356,141.42136 -0.42382,-4.73828 z"
           style="fill:#b04e24;fill-opacity:1" />
        <path
           inkscape:connector-curvature="0"
           id="path5047"
           d="m 109.37109,154.27539 0.80469,8.95117 -141.421356,141.42136 -0.80469,-8.95117 z"
           style="fill:#b04e24;fill-opacity:1" />
        <path
           inkscape:connector-curvature="0"
           id="path5049"
           d="m 110.17578,163.22656 0.35352,3.96875 -141.421356,141.42136 -0.35352,-3.96875 z"
           style="fill:#b04e24;fill-opacity:1" />
        <path
           inkscape:connector-curvature="0"
           id="path5051"
           d="m 110.5293,167.19531 0.0566,0 -141.421356,141.42136 -0.05664,0 z"
           style="fill:#b04e24;fill-opacity:1" />
        <path
           inkscape:connector-curvature="0"
           id="path5053"
           d="m 110.58594,167.19531 19.36133,0 -141.421356,141.42136 -19.36133,0 z"
           style="fill:#b04e24;fill-opacity:1" />
        <path
           inkscape:connector-curvature="0"
           id="path5055"
           d="m 129.94727,167.19531 0,-0.002 -141.421356,141.42136 0,0.002 z"
           style="fill:#b04e24;fill-opacity:1" />
        <path
           inkscape:connector-curvature="0"
           id="path5057"
           d="m 129.94727,167.19336 19.80078,0 -141.4213562,141.42136 -19.8007798,0 z"
           style="fill:#b04e24;fill-opacity:1" />
        <path
           inkscape:connector-curvature="0"
           id="path5059"
           d="M 149.74805,167.19336 147.6875,190.0957 6.2661438,331.51706 l 2.06055,-22.90234 z"
           style="fill:#b04e24;fill-opacity:1" />
        <path
           inkscape:connector-curvature="0"
           id="path5061"
           d="m 147.6875,190.0957 -18.71484,5.05078 -141.421356,141.42136 18.7148398,-5.05078 z"
           style="fill:#b04e24;fill-opacity:1" />
        <path
           inkscape:connector-curvature="0"
           id="path5063"
           d="m 128.97266,195.14648 -18.66407,-5.03906 -141.421356,141.42136 18.66407,5.03906 z"
           style="fill:#b04e24;fill-opacity:1" />
        <path
           inkscape:connector-curvature="0"
           id="path5065"
           d="m 110.30859,190.10742 -1.25781,-14.08398 -141.421356,141.42136 1.25781,14.08398 z"
           style="fill:#b04e24;fill-opacity:1" />
        <path
           inkscape:connector-curvature="0"
           id="path5067"
           d="m 109.05078,176.02344 -9.556639,0 -141.421356,141.42136 9.556639,0 z"
           style="fill:#b04e24;fill-opacity:1" />
        <path
           inkscape:connector-curvature="0"
           id="path5069"
           d="m 99.494141,176.02344 -8.169922,0 -141.421356,141.42136 8.169922,0 z"
           style="fill:#b04e24;fill-opacity:1" />
        <path
           inkscape:connector-curvature="0"
           id="path5071"
           d="M 91.324219,176.02344 93.798828,203.75 -47.622528,345.17136 -50.097137,317.4448 Z"
           style="fill:#b04e24;fill-opacity:1" />
        <path
           inkscape:connector-curvature="0"
           id="path5073"
           d="m 93.798828,203.75 34.193362,9.49414 -141.421356,141.42136 -34.193362,-9.49414 z"
           style="fill:#b04e24;fill-opacity:1" />
        <path
           inkscape:connector-curvature="0"
           id="path5075"
           d="m 127.99219,213.24414 0,0.53906 -141.421356,141.42136 0,-0.53906 z"
           style="fill:#b04e24;fill-opacity:1" />
        <path
           inkscape:connector-curvature="0"
           id="path5077"
           d="m 127.99219,213.7832 0.97265,-0.26953 -141.421356,141.42136 -0.97265,0.26953 z"
           style="fill:#b04e24;fill-opacity:1" />
        <path
           inkscape:connector-curvature="0"
           id="path5079"
           d="m 128.96484,213.51367 1.00586,0.2793 -141.421356,141.42136 -1.00586,-0.2793 z"
           style="fill:#b04e24;fill-opacity:1" />
        <path
           inkscape:connector-curvature="0"
           id="path5081"
           d="m 129.9707,213.79297 0.082,-0.0234 -141.421356,141.42136 -0.08203,0.0234 z"
           style="fill:#b04e24;fill-opacity:1" />
        <path
           inkscape:connector-curvature="0"
           id="path5083"
           d="m 130.05273,213.76953 0,-0.55664 -141.421356,141.42136 0,0.55664 z"
           style="fill:#b04e24;fill-opacity:1" />
        <path
           inkscape:connector-curvature="0"
           id="path5085"
           d="M 130.05273,213.21289 164.19336,203.75 22.772004,345.17136 l -34.14063,9.46289 z"
           style="fill:#b04e24;fill-opacity:1" />
        <path
           inkscape:connector-curvature="0"
           id="path5087"
           d="m 164.19336,203.75 0.26562,-2.98242 -141.421356,141.42136 -0.26562,2.98242 z"
           style="fill:#b04e24;fill-opacity:1" />
        <path
           inkscape:connector-curvature="0"
           id="path5089"
           d="m 164.45898,200.76758 3.07227,-34.32227 -141.421356,141.42136 -3.07227,34.32227 z"
           style="fill:#b04e24;fill-opacity:1" />
        <path
           inkscape:connector-curvature="0"
           id="path5091"
           d="m 167.53125,166.44531 4.27344,-47.91601 -141.421356,141.42136 -4.27344,47.91601 z"
           style="fill:#b04e24;fill-opacity:1" />
        <path
           inkscape:connector-curvature="0"
           id="path5093"
           d="m 171.80469,118.5293 0.42383,-4.73633 -141.421356,141.42136 -0.42383,4.73633 z"
           style="fill:#b04e24;fill-opacity:1" />
        <path
           inkscape:connector-curvature="0"
           id="path5095"
           d="m 172.22852,113.79297 -42.22071,0 -141.421356,141.42136 42.22071,0 z"
           style="fill:#b04e24;fill-opacity:1" />
        <path
           inkscape:connector-curvature="0"
           id="path5097"
           d="m 130.00781,113.79297 -44.236326,0 -141.421356,141.42136 44.236326,0 z"
           style="fill:#b04e24;fill-opacity:1" />
      </g>
      <path
         inkscape:connector-curvature="0"
         id="path4360-2"
         d="m 85.771484,113.79297 0.421875,4.73633 0.806641,8.95312 0.353516,3.96875 0.05664,0 42.597654,0 22.91992,0 -1.61328,18.08399 -23.36718,0 0,0.002 -19,0 0.42382,4.73828 0.80469,8.95117 0.35352,3.96875 0.0566,0 19.36133,0 0,-0.002 19.80078,0 -2.06055,22.90234 -18.71484,5.05078 -18.66407,-5.03906 -1.25781,-14.08398 -9.556639,0 -8.169922,0 2.474609,27.72656 34.193362,9.49414 0,0.53906 0.97265,-0.26953 1.00586,0.2793 0.082,-0.0234 0,-0.55664 34.14063,-9.46289 0.26562,-2.98242 3.07227,-34.32227 4.27344,-47.91601 0.42383,-4.73633 -42.22071,0 -44.236326,0 z"
         style="fill:#b04e24;fill-opacity:1;fill-rule:evenodd;stroke:none;stroke-width:1" />
    </g>
    <g
       transform="translate(0.20263746,-0.66827354)"
       id="g4980">
      <path
         d="m 127.94712,945.89708 23.36737,0 1.61378,-18.08309 -24.98115,0 0,-17.65961 0.0612,0 44.21945,0 -0.42348,4.73797 -4.34009,48.66292 -39.51706,0 0,-17.65819 z m 0,0"
         id="path4982"
         inkscape:connector-curvature="0"
         style="fill:#ffffff;fill-opacity:1;fill-rule:evenodd;stroke:none;stroke-width:1" />
      <path
         d="m 130.05288,991.7583 -0.0773,0.0218 -19.667,-5.31083 -1.25764,-14.08349 -9.556083,0 -8.169924,0 2.47355,27.72642 36.172827,10.0422 0.0816,-0.023 0,-18.37331 z m 0,0"
         id="path4984"
         inkscape:connector-curvature="0"
         style="fill:#ffffff;fill-opacity:1;fill-rule:evenodd;stroke:none;stroke-width:1" />
      <path
         d="m 149.81357,962.8079 -2.12642,23.64953 -19.69545,5.31604 0,18.37233 36.20176,-10.0336 0.26556,-2.98285 3.07202,-34.32145 -17.71747,0 z m 0,0"
         id="path4986"
         inkscape:connector-curvature="0"
         style="fill:#ffffff;fill-opacity:1;fill-rule:evenodd;stroke:none;stroke-width:1" />
      <path
         d="m 130.0083,910.15438 0,10.96784 0,6.64814 0,0.0436 -42.598557,0 -0.05643,0 -0.354245,-3.96925 -0.804758,-8.95239 -0.422059,-4.73797 44.236049,0 z m 0,0"
         id="path4988"
         inkscape:connector-curvature="0"
         style="fill:#ffffff;fill-opacity:1;fill-rule:evenodd;stroke:none;stroke-width:1" />
      <path
         d="m 129.94712,945.89898 0,10.96832 0,6.64719 0,0.0436 -19.3616,0 -0.0564,0 -0.35377,-3.96878 -0.80523,-8.95239 -0.42206,-4.73797 20.99909,0 z m 0,0"
         id="path4990"
         inkscape:connector-curvature="0"
         style="fill:#ffffff;fill-opacity:1;fill-rule:evenodd;stroke:none;stroke-width:1" />
    </g>
  </g>
</svg>
