<?xml version="1.0" encoding="UTF-8" standalone="no"?>
<!-- Created with Inkscape (http://www.inkscape.org/) -->

<svg
   xmlns:dc="http://purl.org/dc/elements/1.1/"
   xmlns:cc="http://creativecommons.org/ns#"
   xmlns:rdf="http://www.w3.org/1999/02/22-rdf-syntax-ns#"
   xmlns:svg="http://www.w3.org/2000/svg"
   xmlns="http://www.w3.org/2000/svg"
   xmlns:sodipodi="http://sodipodi.sourceforge.net/DTD/sodipodi-0.dtd"
   xmlns:inkscape="http://www.inkscape.org/namespaces/inkscape"
   width="256"
   height="256"
   viewBox="0 0 256 256"
   id="svg2"
   version="1.1"
   inkscape:version="0.91 r13725"
   sodipodi:docname="text-x-script.svg">
  <sodipodi:namedview
     id="base"
     pagecolor="#ffffff"
     bordercolor="#666666"
     borderopacity="1.0"
     inkscape:pageopacity="0.0"
     inkscape:pageshadow="2"
     inkscape:zoom="2.1328125"
     inkscape:cx="-24.380952"
     inkscape:cy="128"
     inkscape:document-units="px"
     inkscape:current-layer="layer1"
     showgrid="false"
     units="px"
     inkscape:window-width="1920"
     inkscape:window-height="1054"
     inkscape:window-x="0"
     inkscape:window-y="0"
     inkscape:window-maximized="1" />
  <defs
     id="defs4">
    <filter
       id="filter4301"
       inkscape:label="Drop Shadow"
       style="color-interpolation-filters:sRGB;">
      <feFlood
         id="feFlood4303"
         result="flood"
         flood-color="rgb(0,0,0)"
         flood-opacity="0.498039" />
      <feComposite
         id="feComposite4305"
         result="composite1"
         operator="in"
         in2="SourceGraphic"
         in="flood" />
      <feGaussianBlur
         id="feGaussianBlur4307"
         result="blur"
         stdDeviation="3.7"
         in="composite1" />
      <feOffset
         id="feOffset4309"
         result="offset"
         dy="3.7"
         dx="3.8" />
      <feComposite
         id="feComposite4311"
         result="composite2"
         operator="over"
         in2="offset"
         in="SourceGraphic" />
    </filter>
    <clipPath
       clipPathUnits="userSpaceOnUse"
       id="clipPath4383">
      <path
         style="fill:#958add;fill-opacity:1"
         d="M 127.83594,796.36506 A 128,128 0 0 0 0,924.3592 a 128,128 0 0 0 128,128 128,128 0 0 0 127.99219,-127.83789 L 127.83594,796.36506 Z m 12.42383,0.60742 a 128,128 0 0 1 7.76757,1.1211 128,128 0 0 0 -7.76757,-1.1211 z m 12.58789,1.84961 a 128,128 0 0 1 8.42187,2.08984 128,128 0 0 0 -8.42187,-2.08984 z m 12.36328,3.09766 a 128,128 0 0 1 8.94531,3.19726 128,128 0 0 0 -8.94531,-3.19726 z m 11.98437,4.30468 a 128,128 0 0 1 9.34375,4.43946 128,128 0 0 0 -9.34375,-4.43946 z m 11.49805,5.47852 a 128,128 0 0 1 9.49414,5.73438 128,128 0 0 0 -9.49414,-5.73438 z m 10.90625,6.59961 a 128,128 0 0 1 9.66016,7.24414 128,128 0 0 0 -9.66016,-7.24414 z m 10.17773,7.63867 a 128,128 0 0 1 9.38868,8.62891 128,128 0 0 0 -9.38868,-8.62891 z m 9.38868,8.62891 0.98046,0.98047 a 128,128 0 0 0 -0.98046,-0.98047 z m 7.65039,8.57226 a 128,128 0 0 1 4.5039,5.92188 128,128 0 0 0 -4.5039,-5.92188 z m 7.63867,10.30469 a 128,128 0 0 1 3.81054,6.21289 128,128 0 0 0 -3.81054,-6.21289 z m 6.57617,11.03125 a 128,128 0 0 1 3.08203,6.37695 128,128 0 0 0 -3.08203,-6.37695 z m 5.4375,11.63867 a 128,128 0 0 1 2.37695,6.50782 128,128 0 0 0 -2.37695,-6.50782 z m 4.23242,12.09375 a 128,128 0 0 1 1.68555,6.59375 128,128 0 0 0 -1.68555,-6.59375 z m 3.00781,12.48633 a 128,128 0 0 1 0.99024,6.53906 128,128 0 0 0 -0.99024,-6.53906 z m 1.74024,12.71094 A 128,128 0 0 1 256,924.3592 128,128 0 0 0 255.44922,913.40803 Z"
         id="path4385"
         inkscape:connector-curvature="0" />
    </clipPath>
  </defs>
  <metadata
     id="metadata7">
    <rdf:RDF>
      <cc:Work
         rdf:about="">
        <dc:format>image/svg+xml</dc:format>
        <dc:type
           rdf:resource="http://purl.org/dc/dcmitype/StillImage" />
        <dc:title />
      </cc:Work>
    </rdf:RDF>
  </metadata>
  <g
     transform="translate(0,-796.36214)"
     id="layer1"
     inkscape:groupmode="layer"
     inkscape:label="Layer 1">
    <path
       inkscape:connector-curvature="0"
       id="path4957"
       d="M 127.83594,796.36506 A 128,128 0 0 0 0,924.3592 a 128,128 0 0 0 128,128 128,128 0 0 0 127.99219,-127.83789 L 127.83594,796.36506 Z m 12.42383,0.60742 a 128,128 0 0 1 7.76757,1.1211 128,128 0 0 0 -7.76757,-1.1211 z m 12.58789,1.84961 a 128,128 0 0 1 8.42187,2.08984 128,128 0 0 0 -8.42187,-2.08984 z m 12.36328,3.09766 a 128,128 0 0 1 8.94531,3.19726 128,128 0 0 0 -8.94531,-3.19726 z m 11.98437,4.30468 a 128,128 0 0 1 9.34375,4.43946 128,128 0 0 0 -9.34375,-4.43946 z m 11.49805,5.47852 a 128,128 0 0 1 9.49414,5.73438 128,128 0 0 0 -9.49414,-5.73438 z m 10.90625,6.59961 a 128,128 0 0 1 9.66016,7.24414 128,128 0 0 0 -9.66016,-7.24414 z m 10.17773,7.63867 a 128,128 0 0 1 9.38868,8.62891 128,128 0 0 0 -9.38868,-8.62891 z m 9.38868,8.62891 0.98046,0.98047 a 128,128 0 0 0 -0.98046,-0.98047 z m 7.65039,8.57226 a 128,128 0 0 1 4.5039,5.92188 128,128 0 0 0 -4.5039,-5.92188 z m 7.63867,10.30469 a 128,128 0 0 1 3.81054,6.21289 128,128 0 0 0 -3.81054,-6.21289 z m 6.57617,11.03125 a 128,128 0 0 1 3.08203,6.37695 128,128 0 0 0 -3.08203,-6.37695 z m 5.4375,11.63867 a 128,128 0 0 1 2.37695,6.50782 128,128 0 0 0 -2.37695,-6.50782 z m 4.23242,12.09375 a 128,128 0 0 1 1.68555,6.59375 128,128 0 0 0 -1.68555,-6.59375 z m 3.00781,12.48633 a 128,128 0 0 1 0.99024,6.53906 128,128 0 0 0 -0.99024,-6.53906 z m 1.74024,12.71094 A 128,128 0 0 1 256,924.3592 128,128 0 0 0 255.44922,913.40803 Z"
       style="fill:#958add;fill-opacity:1" />
    <path
       inkscape:connector-curvature="0"
       id="rect4961"
       d="m 255.61415,924.52718 a 128,128 0 0 0 0.16406,-0.006 L 127.62197,796.36506 a 128,128 0 0 0 -0.008,0.16211 128,128 0 0 0 35.85352,88.80861 l 0.98046,0.98046 a 128,128 0 0 0 91.16603,38.21094 z"
       style="fill:#c8c3ed;fill-opacity:1" />
    <text
       sodipodi:linespacing="125%"
       id="text4164"
       y="965.15338"
       x="54.857143"
       style="font-style:normal;font-weight:normal;font-size:40px;line-height:125%;font-family:sans-serif;letter-spacing:0px;word-spacing:0px;fill:#000000;fill-opacity:1;stroke:none;stroke-width:1px;stroke-linecap:butt;stroke-linejoin:miter;stroke-opacity:1"
       xml:space="preserve"><tspan
         y="965.15338"
         x="54.857143"
         id="tspan4166"
         sodipodi:role="line" /></text>
    <g
       id="text4173"
       style="font-style:normal;font-variant:normal;font-weight:bold;font-stretch:normal;font-size:126.36746216px;line-height:125%;font-family:FreeSerif;-inkscape-font-specification:'FreeSerif Bold';letter-spacing:0px;word-spacing:0px;fill:#6f6998;fill-opacity:1;stroke:none;stroke-width:1px;stroke-linecap:butt;stroke-linejoin:miter;stroke-opacity:1"
       clip-path="url(#clipPath4383)">
      <g
         id="g4201"
         transform="translate(0,796.36214)"
         style="fill:#6f6998;fill-opacity:1">
        <g
           id="g4203"
           style="fill:#6f6998;fill-opacity:1">
          <path
             id="path4205"
             d="M101.65234 112.42188L97.861328 138.95898L-43.5600282373 280.380336237L-39.7690162373 253.843236237Z"
             style="fill:#6f6998;fill-opacity:1" />
          <path
             id="path4207"
             d="M97.861328 138.95898L84.466797 138.95898L-56.9545592373 280.380336237L-43.5600282373 280.380336237Z"
             style="fill:#6f6998;fill-opacity:1" />
          <path
             id="path4209"
             d="M84.466797 138.95898L84.466797 148.18359L-56.9545592373 289.604946237L-56.9545592373 280.380336237Z"
             style="fill:#6f6998;fill-opacity:1" />
          <path
             id="path4211"
             d="M84.466797 148.18359L96.597656 148.18359L-44.8237002373 289.604946237L-56.9545592373 289.604946237Z"
             style="fill:#6f6998;fill-opacity:1" />
          <path
             id="path4213"
             d="M96.597656 148.18359L94.322266 165.11719L-47.0990902373 306.538546237L-44.8237002373 289.604946237Z"
             style="fill:#6f6998;fill-opacity:1" />
          <path
             id="path4215"
             d="M94.322266 165.11719L80.800781 165.11719L-60.6205752373 306.538546237L-47.0990902373 306.538546237Z"
             style="fill:#6f6998;fill-opacity:1" />
          <path
             id="path4217"
             d="M80.800781 165.11719L80.800781 174.3418L-60.6205752373 315.763156237L-60.6205752373 306.538546237Z"
             style="fill:#6f6998;fill-opacity:1" />
          <path
             id="path4219"
             d="M80.800781 174.3418L92.933594 174.3418L-48.4877622373 315.763156237L-60.6205752373 315.763156237Z"
             style="fill:#6f6998;fill-opacity:1" />
          <path
             id="path4221"
             d="M92.933594 174.3418L89.267578 200.87891L-52.1537782373 342.300266237L-48.4877622373 315.763156237Z"
             style="fill:#6f6998;fill-opacity:1" />
          <path
             id="path4223"
             d="M89.267578 200.87891L99.125 200.87891L-42.2963562373 342.300266237L-52.1537782373 342.300266237Z"
             style="fill:#6f6998;fill-opacity:1" />
          <path
             id="path4225"
             d="M99.125 200.87891L102.78906 174.3418L-38.6322962373 315.763156237L-42.2963562373 342.300266237Z"
             style="fill:#6f6998;fill-opacity:1" />
          <path
             id="path4227"
             d="M102.78906 174.3418L117.06836 174.3418L-24.3529962373 315.763156237L-38.6322962373 315.763156237Z"
             style="fill:#6f6998;fill-opacity:1" />
          <path
             id="path4229"
             d="M117.06836 174.3418L113.4043 200.87891L-28.0170562373 342.300266237L-24.3529962373 315.763156237Z"
             style="fill:#6f6998;fill-opacity:1" />
          <path
             id="path4231"
             d="M113.4043 200.87891L123.26172 200.87891L-18.1596362373 342.300266237L-28.0170562373 342.300266237Z"
             style="fill:#6f6998;fill-opacity:1" />
          <path
             id="path4233"
             d="M123.26172 200.87891L126.92578 174.3418L-14.4955762373 315.763156237L-18.1596362373 342.300266237Z"
             style="fill:#6f6998;fill-opacity:1" />
          <path
             id="path4235"
             d="M126.92578 174.3418L139.31055 174.3418L-2.11080623731 315.763156237L-14.4955762373 315.763156237Z"
             style="fill:#6f6998;fill-opacity:1" />
          <path
             id="path4237"
             d="M139.31055 174.3418L139.31055 165.11719L-2.11080623731 306.538546237L-2.11080623731 315.763156237Z"
             style="fill:#6f6998;fill-opacity:1" />
          <path
             id="path4239"
             d="M139.31055 165.11719L128.31641 165.11719L-13.1049462373 306.538546237L-2.11080623731 306.538546237Z"
             style="fill:#6f6998;fill-opacity:1" />
          <path
             id="path4241"
             d="M128.31641 165.11719L130.58984 148.18359L-10.8315162373 289.604946237L-13.1049462373 306.538546237Z"
             style="fill:#6f6998;fill-opacity:1" />
          <path
             id="path4243"
             d="M130.58984 148.18359L142.97461 148.18359L1.55325376269 289.604946237L-10.8315162373 289.604946237Z"
             style="fill:#6f6998;fill-opacity:1" />
          <path
             id="path4245"
             d="M142.97461 148.18359L142.97461 138.95898L1.55325376269 280.380336237L1.55325376269 289.604946237Z"
             style="fill:#6f6998;fill-opacity:1" />
          <path
             id="path4247"
             d="M142.97461 138.95898L131.85352 138.95898L-9.56783623731 280.380336237L1.55325376269 280.380336237Z"
             style="fill:#6f6998;fill-opacity:1" />
          <path
             id="path4249"
             d="M131.85352 138.95898L135.51953 112.42188L-5.90182623731 253.843236237L-9.56783623731 280.380336237Z"
             style="fill:#6f6998;fill-opacity:1" />
          <path
             id="path4251"
             d="M135.51953 112.42188L125.78906 112.42188L-15.6322962373 253.843236237L-5.90182623731 253.843236237Z"
             style="fill:#6f6998;fill-opacity:1" />
          <path
             id="path4253"
             d="M125.78906 112.42188L121.99805 138.95898L-19.4233062373 280.380336237L-15.6322962373 253.843236237Z"
             style="fill:#6f6998;fill-opacity:1" />
          <path
             id="path4255"
             d="M121.99805 138.95898L107.71875 138.95898L-33.7026062373 280.380336237L-19.4233062373 280.380336237Z"
             style="fill:#6f6998;fill-opacity:1" />
          <path
             id="path4257"
             d="M107.71875 138.95898L111.38281 112.42188L-30.0385462373 253.843236237L-33.7026062373 280.380336237Z"
             style="fill:#6f6998;fill-opacity:1" />
          <path
             id="path4259"
             d="M111.38281 112.42188L101.65234 112.42188L-39.7690162373 253.843236237L-30.0385462373 253.843236237Z"
             style="fill:#6f6998;fill-opacity:1" />
          <path
             id="path4261"
             d="M164.45703 113.56055C163.44609 113.56055 162.43477 113.68672 161.42383 113.93945L20.0024737627 255.360806237C21.0134137627 255.108076237 22.0247337627 254.981906237 23.0356737627 254.981906237Z"
             style="fill:#6f6998;fill-opacity:1" />
          <path
             id="path4263"
             d="M161.42383 113.93945C159.576935424 114.393606643 158.061845618 115.212308217 156.87861443 116.395539405L15.4572581932 257.816895643C16.640489381 256.633664455 18.1555791866 255.81496288 20.0024737627 255.360806237Z"
             style="fill:#6f6998;fill-opacity:1" />
          <path
             id="path4265"
             d="M156.87861443 116.395539405C154.769533128 118.504620708 153.71484 121.771893157 153.71484 126.19727L12.2934837627 267.618626237C12.2934837627 263.193249394 13.348176891 259.925976945 15.4572581932 257.816895643Z"
             style="fill:#6f6998;fill-opacity:1" />
          <path
             id="path4267"
             d="M153.71484 126.19727C153.71484 128.72462 154.34765 132.00898 155.61133 136.05273L14.1899737627 277.474086237C12.9262937627 273.430336237 12.2934837627 270.145976237 12.2934837627 267.618626237Z"
             style="fill:#6f6998;fill-opacity:1" />
          <path
             id="path4269"
             d="M155.61133 136.05273C158.89688 146.58336 161.21263 158.33682 162.56055 171.31055L21.1391937627 312.731906237C19.7912737627 299.758176237 17.4755237627 288.004716237 14.1899737627 277.474086237Z"
             style="fill:#6f6998;fill-opacity:1" />
          <path
             id="path4271"
             d="M162.56055 171.31055L166.22656 171.31055L24.8052037627 312.731906237L21.1391937627 312.731906237Z"
             style="fill:#6f6998;fill-opacity:1" />
          <path
             id="path4273"
             d="M166.22656 171.31055C167.65873 157.83135 169.8056 146.62528 172.66992 137.69531L31.2485637627 279.116666237C28.3842437627 288.046636237 26.2373737627 299.252706237 24.8052037627 312.731906237Z"
             style="fill:#6f6998;fill-opacity:1" />
          <path
             id="path4275"
             d="M172.66992 137.69531C174.27058 132.80911 175.07227 129.06081 175.07227 126.44922L33.6509137627 267.870576237C33.6509137627 270.482166237 32.8492237627 274.230466237 31.2485637627 279.116666237Z"
             style="fill:#6f6998;fill-opacity:1" />
          <path
             id="path4277"
             d="M175.07227 126.44922C175.07227 125.01705 174.9461 123.62722 174.69336 122.2793L33.2720037627 263.700656237C33.5247437627 265.048576237 33.6509137627 266.438406237 33.6509137627 267.870576237Z"
             style="fill:#6f6998;fill-opacity:1" />
          <path
             id="path4279"
             d="M174.69336 122.2793C173.51393 116.4664 170.10144 113.56055 164.45703 113.56055L23.0356737627 254.981906237C28.6800837627 254.981906237 32.0925737627 257.887756237 33.2720037627 263.700656237Z"
             style="fill:#6f6998;fill-opacity:1" />
          <path
             id="path4281"
             d="M106.45508 148.18359L120.73438 148.18359L-20.6869762373 289.604946237L-34.9662762373 289.604946237Z"
             style="fill:#6f6998;fill-opacity:1" />
          <path
             id="path4283"
             d="M120.73438 148.18359L118.45898 165.11719L-22.9623762373 306.538546237L-20.6869762373 289.604946237Z"
             style="fill:#6f6998;fill-opacity:1" />
          <path
             id="path4285"
             d="M118.45898 165.11719L104.17969 165.11719L-37.2416662373 306.538546237L-22.9623762373 306.538546237Z"
             style="fill:#6f6998;fill-opacity:1" />
          <path
             id="path4287"
             d="M104.17969 165.11719L106.45508 148.18359L-34.9662762373 289.604946237L-37.2416662373 306.538546237Z"
             style="fill:#6f6998;fill-opacity:1" />
          <path
             id="path4289"
             d="M164.45703 181.16602C162.5194 181.16602 160.66563 181.71341 158.89648 182.80859L17.4751237627 324.229946237C19.2442737627 323.134766237 21.0980437627 322.587376237 23.0356737627 322.587376237Z"
             style="fill:#6f6998;fill-opacity:1" />
          <path
             id="path4291"
             d="M158.89648 182.80859C158.067982866 183.32639948 157.34133386 183.8977135 156.716532389 184.522514971L15.295176152 325.943871209C15.919977623 325.319069738 16.6466266284 324.747755717 17.4751237627 324.229946237Z"
             style="fill:#6f6998;fill-opacity:1" />
          <path
             id="path4293"
             d="M156.716532389 184.522514971C154.800038411 186.439008949 153.8418 188.858751704 153.8418 191.78125L12.4204437627 333.202606237C12.4204437627 330.280107942 13.3786821738 327.860365187 15.295176152 325.943871209Z"
             style="fill:#6f6998;fill-opacity:1" />
          <path
             id="path4295"
             d="M153.8418 191.78125C153.8418 193.63464 154.26302 195.40299 155.10547 197.08789L13.6841137627 338.509246237C12.8416637627 336.824346237 12.4204437627 335.055996237 12.4204437627 333.202606237Z"
             style="fill:#6f6998;fill-opacity:1" />
          <path
             id="path4297"
             d="M155.10547 197.08789C157.0431 200.71042 160.11783 202.52344 164.33008 202.52344L22.9087237627 343.944796237C18.6964737627 343.944796237 15.6217437627 342.131776237 13.6841137627 338.509246237Z"
             style="fill:#6f6998;fill-opacity:1" />
          <path
             id="path4299"
             d="M164.33008 202.52344C166.26771 202.52344 168.12148 202.0168 169.89062 201.00586L28.4692637627 342.427216237C26.7001237627 343.438156237 24.8463537627 343.944796237 22.9087237627 343.944796237Z"
             style="fill:#6f6998;fill-opacity:1" />
          <path
             id="path4301"
             d="M169.89062 201.00586C170.870105294 200.446154118 171.713957677 199.812162908 172.422210456 199.103910129L31.000854219 340.525266366C30.2926014402 341.233519145 29.4487490565 341.867510355 28.4692637627 342.427216237Z"
             style="fill:#6f6998;fill-opacity:1" />
          <path
             id="path4303"
             d="M172.422210456 199.103910129C174.272448081 197.253672504 175.19727 194.89662793 175.19727 192.0332L33.7759137627 333.454556237C33.7759137627 336.317984167 32.8510918438 338.675028741 31.000854219 340.525266366Z"
             style="fill:#6f6998;fill-opacity:1" />
          <path
             id="path4305"
             d="M175.19727 192.0332C175.19727 190.09557 174.69258 188.24376 173.68164 186.47461L32.2602837627 327.895966237C33.2712237627 329.665116237 33.7759137627 331.516926237 33.7759137627 333.454556237Z"
             style="fill:#6f6998;fill-opacity:1" />
          <path
             id="path4307"
             d="M173.68164 186.47461C171.57552 182.93632 168.50079 181.16602 164.45703 181.16602L23.0356737627 322.587376237C27.0794337627 322.587376237 30.1541637627 324.357676237 32.2602837627 327.895966237Z"
             style="fill:#6f6998;fill-opacity:1" />
        </g>
        <path
           id="path4178"
           transform=""
           d="M 101.65234 112.42188 L 97.861328 138.95898 L 84.466797 138.95898 L 84.466797 148.18359 L 96.597656 148.18359 L 94.322266 165.11719 L 80.800781 165.11719 L 80.800781 174.3418 L 92.933594 174.3418 L 89.267578 200.87891 L 99.125 200.87891 L 102.78906 174.3418 L 117.06836 174.3418 L 113.4043 200.87891 L 123.26172 200.87891 L 126.92578 174.3418 L 139.31055 174.3418 L 139.31055 165.11719 L 128.31641 165.11719 L 130.58984 148.18359 L 142.97461 148.18359 L 142.97461 138.95898 L 131.85352 138.95898 L 135.51953 112.42188 L 125.78906 112.42188 L 121.99805 138.95898 L 107.71875 138.95898 L 111.38281 112.42188 L 101.65234 112.42188 z M 164.45703 113.56055 C 163.44609 113.56055 162.43477 113.68672 161.42383 113.93945 C 156.28489 115.20313 153.71484 119.28918 153.71484 126.19727 C 153.71484 128.72462 154.34765 132.00898 155.61133 136.05273 C 158.89688 146.58336 161.21263 158.33682 162.56055 171.31055 L 166.22656 171.31055 C 167.65873 157.83135 169.8056 146.62528 172.66992 137.69531 C 174.27058 132.80911 175.07227 129.06081 175.07227 126.44922 C 175.07227 125.01705 174.9461 123.62722 174.69336 122.2793 C 173.51393 116.4664 170.10144 113.56055 164.45703 113.56055 z M 106.45508 148.18359 L 120.73438 148.18359 L 118.45898 165.11719 L 104.17969 165.11719 L 106.45508 148.18359 z M 164.45703 181.16602 C 162.5194 181.16602 160.66563 181.71341 158.89648 182.80859 C 155.52668 184.91471 153.8418 187.90598 153.8418 191.78125 C 153.8418 193.63464 154.26302 195.40299 155.10547 197.08789 C 157.0431 200.71042 160.11783 202.52344 164.33008 202.52344 C 166.26771 202.52344 168.12148 202.0168 169.89062 201.00586 C 173.42891 198.98398 175.19727 195.99272 175.19727 192.0332 C 175.19727 190.09557 174.69258 188.24376 173.68164 186.47461 C 171.57552 182.93632 168.50079 181.16602 164.45703 181.16602 z "
           style="fill:#6f6998;fill-opacity:1" />
      </g>
    </g>
    <text
       sodipodi:linespacing="125%"
       id="text4201"
       y="997.24188"
       x="80.29628"
       style="font-style:normal;font-variant:normal;font-weight:bold;font-stretch:normal;font-size:126.36746216px;line-height:125%;font-family:FreeSerif;-inkscape-font-specification:'FreeSerif Bold';letter-spacing:0px;word-spacing:0px;fill:#ffffff;fill-opacity:1;stroke:none;stroke-width:1px;stroke-linecap:butt;stroke-linejoin:miter;stroke-opacity:1"
       xml:space="preserve"><tspan
         y="997.24188"
         x="80.29628"
         id="tspan4203"
         sodipodi:role="line">#!</tspan></text>
  </g>
</svg>
