<?xml version="1.0" encoding="UTF-8" standalone="no"?>
<!-- Created with Inkscape (http://www.inkscape.org/) -->

<svg
   xmlns:dc="http://purl.org/dc/elements/1.1/"
   xmlns:cc="http://creativecommons.org/ns#"
   xmlns:rdf="http://www.w3.org/1999/02/22-rdf-syntax-ns#"
   xmlns:svg="http://www.w3.org/2000/svg"
   xmlns="http://www.w3.org/2000/svg"
   xmlns:sodipodi="http://sodipodi.sourceforge.net/DTD/sodipodi-0.dtd"
   xmlns:inkscape="http://www.inkscape.org/namespaces/inkscape"
   sodipodi:docname="text-x-r.svg"
   inkscape:version="0.91 r13725"
   version="1.1"
   id="svg2"
   viewBox="0 0 256 256"
   height="256"
   width="256">
  <sodipodi:namedview
     inkscape:window-maximized="1"
     inkscape:window-y="0"
     inkscape:window-x="0"
     inkscape:window-height="1054"
     inkscape:window-width="1920"
     units="px"
     showgrid="false"
     inkscape:current-layer="layer1"
     inkscape:document-units="px"
     inkscape:cy="128"
     inkscape:cx="80.818073"
     inkscape:zoom="3.2851562"
     inkscape:pageshadow="2"
     inkscape:pageopacity="0.0"
     borderopacity="1.0"
     bordercolor="#666666"
     pagecolor="#ffffff"
     id="base" />
  <defs
     id="defs4">
    <filter
       style="color-interpolation-filters:sRGB;"
       inkscape:label="Drop Shadow"
       id="filter4301">
      <feFlood
         flood-opacity="0.498039"
         flood-color="rgb(0,0,0)"
         result="flood"
         id="feFlood4303" />
      <feComposite
         in="flood"
         in2="SourceGraphic"
         operator="in"
         result="composite1"
         id="feComposite4305" />
      <feGaussianBlur
         in="composite1"
         stdDeviation="3.7"
         result="blur"
         id="feGaussianBlur4307" />
      <feOffset
         dx="3.8"
         dy="3.7"
         result="offset"
         id="feOffset4309" />
      <feComposite
         in="SourceGraphic"
         in2="offset"
         operator="over"
         result="composite2"
         id="feComposite4311" />
    </filter>
    <clipPath
       id="clipPath4266"
       clipPathUnits="userSpaceOnUse">
      <path
         inkscape:connector-curvature="0"
         id="path4268"
         d="m 153.38672,796.84847 -105.781251,0 c -7.804357,0 -14.087891,6.28158 -14.087891,14.08594 l 0,227.33989 c 0,7.8043 6.283534,14.0878 14.087891,14.0878 l 165.162111,0 c 7.80436,0 14.08594,-6.2835 14.08594,-14.0878 l 0,-154.82232 -73.4668,-86.60351 z"
         style="fill:#db4437;fill-opacity:1" />
    </clipPath>
    <clipPath
       clipPathUnits="userSpaceOnUse"
       id="clipPath6136">
      <path
         id="path6138"
         d="m 151.20117,796.84847 -105.78125,0 c -7.804357,0 -14.087891,6.28158 -14.087891,14.08594 l 0,227.33989 c 0,7.8043 6.283534,14.0878 14.087891,14.0878 l 165.16211,0 c 7.80436,0 14.08594,-6.2835 14.08594,-14.0878 l 0,-154.82232 -73.4668,-86.60351 z"
         style="fill:#db4437;fill-opacity:1"
         inkscape:connector-curvature="0" />
    </clipPath>
    <clipPath
       id="clipPath4461"
       clipPathUnits="userSpaceOnUse">
      <path
         id="path4463"
         d="m 152.17271,796.3627 -105.781253,0 c -7.804357,0 -14.087891,6.28158 -14.087891,14.08594 l 0,227.33986 c 0,7.8043 6.283534,14.0878 14.087891,14.0878 l 165.162113,0 c 7.80436,0 14.08594,-6.2835 14.08594,-14.0878 l 0,-154.82229 -73.4668,-86.60351 z"
         style="fill:#db4437;fill-opacity:1"
         inkscape:connector-curvature="0" />
    </clipPath>
    <clipPath
       clipPathUnits="userSpaceOnUse"
       id="clipPath4484">
      <g
         transform="translate(0,0.389985)"
         id="g4486">
        <path
           id="path4488"
           d="M 127.83594,796.36802 A 128,128 0 0 0 0,924.36216 128,128 0 0 0 128,1052.3622 128,128 0 0 0 255.99219,924.52427 L 127.83594,796.36802 Z m 12.42383,0.60742 a 128,128 0 0 1 7.76757,1.1211 128,128 0 0 0 -7.76757,-1.1211 z m 12.58789,1.84961 a 128,128 0 0 1 8.42187,2.08984 128,128 0 0 0 -8.42187,-2.08984 z m 12.36328,3.09766 a 128,128 0 0 1 8.94531,3.19726 128,128 0 0 0 -8.94531,-3.19726 z m 11.98437,4.30468 a 128,128 0 0 1 9.34375,4.43946 128,128 0 0 0 -9.34375,-4.43946 z m 11.49805,5.47852 a 128,128 0 0 1 9.49414,5.73438 128,128 0 0 0 -9.49414,-5.73438 z m 10.90625,6.59961 a 128,128 0 0 1 9.66016,7.24414 128,128 0 0 0 -9.66016,-7.24414 z m 10.17773,7.63867 a 128,128 0 0 1 9.38868,8.62891 128,128 0 0 0 -9.38868,-8.62891 z m 9.38868,8.62891 0.98046,0.98047 a 128,128 0 0 0 -0.98046,-0.98047 z m 7.65039,8.57226 a 128,128 0 0 1 4.5039,5.92188 128,128 0 0 0 -4.5039,-5.92188 z m 7.63867,10.30469 a 128,128 0 0 1 3.81054,6.21289 128,128 0 0 0 -3.81054,-6.21289 z m 6.57617,11.03125 a 128,128 0 0 1 3.08203,6.37695 128,128 0 0 0 -3.08203,-6.37695 z m 5.4375,11.63867 a 128,128 0 0 1 2.37695,6.50782 128,128 0 0 0 -2.37695,-6.50782 z m 4.23242,12.09375 a 128,128 0 0 1 1.68555,6.59375 128,128 0 0 0 -1.68555,-6.59375 z m 3.00781,12.48633 a 128,128 0 0 1 0.99024,6.53906 128,128 0 0 0 -0.99024,-6.53906 z m 1.74024,12.71094 A 128,128 0 0 1 256,924.36216 128,128 0 0 0 255.44922,913.41099 Z"
           style="fill:#db4437;fill-opacity:1"
           inkscape:connector-curvature="0" />
        <path
           inkscape:connector-curvature="0"
           id="path4490"
           d="m 255.61415,923.74423 a 128,128 0 0 0 0.16406,-0.006 L 127.62197,795.58211 a 128,128 0 0 0 -0.008,0.16211 128,128 0 0 0 35.85352,88.80861 l 0.98046,0.98046 a 128,128 0 0 0 91.16603,38.21094 z"
           style="fill:#ef7e74;fill-opacity:1" />
      </g>
    </clipPath>
  </defs>
  <metadata
     id="metadata7">
    <rdf:RDF>
      <cc:Work
         rdf:about="">
        <dc:format>image/svg+xml</dc:format>
        <dc:type
           rdf:resource="http://purl.org/dc/dcmitype/StillImage" />
        <dc:title />
      </cc:Work>
    </rdf:RDF>
  </metadata>
  <g
     inkscape:label="Layer 1"
     inkscape:groupmode="layer"
     id="layer1"
     transform="translate(0,-796.36214)">
    <g
       id="g4277"
       transform="translate(0,0.389985)">
      <path
         inkscape:connector-curvature="0"
         style="fill:#db4437;fill-opacity:1"
         d="M 127.83594,796.36802 A 128,128 0 0 0 0,924.36216 128,128 0 0 0 128,1052.3622 128,128 0 0 0 255.99219,924.52427 L 127.83594,796.36802 Z m 12.42383,0.60742 a 128,128 0 0 1 7.76757,1.1211 128,128 0 0 0 -7.76757,-1.1211 z m 12.58789,1.84961 a 128,128 0 0 1 8.42187,2.08984 128,128 0 0 0 -8.42187,-2.08984 z m 12.36328,3.09766 a 128,128 0 0 1 8.94531,3.19726 128,128 0 0 0 -8.94531,-3.19726 z m 11.98437,4.30468 a 128,128 0 0 1 9.34375,4.43946 128,128 0 0 0 -9.34375,-4.43946 z m 11.49805,5.47852 a 128,128 0 0 1 9.49414,5.73438 128,128 0 0 0 -9.49414,-5.73438 z m 10.90625,6.59961 a 128,128 0 0 1 9.66016,7.24414 128,128 0 0 0 -9.66016,-7.24414 z m 10.17773,7.63867 a 128,128 0 0 1 9.38868,8.62891 128,128 0 0 0 -9.38868,-8.62891 z m 9.38868,8.62891 0.98046,0.98047 a 128,128 0 0 0 -0.98046,-0.98047 z m 7.65039,8.57226 a 128,128 0 0 1 4.5039,5.92188 128,128 0 0 0 -4.5039,-5.92188 z m 7.63867,10.30469 a 128,128 0 0 1 3.81054,6.21289 128,128 0 0 0 -3.81054,-6.21289 z m 6.57617,11.03125 a 128,128 0 0 1 3.08203,6.37695 128,128 0 0 0 -3.08203,-6.37695 z m 5.4375,11.63867 a 128,128 0 0 1 2.37695,6.50782 128,128 0 0 0 -2.37695,-6.50782 z m 4.23242,12.09375 a 128,128 0 0 1 1.68555,6.59375 128,128 0 0 0 -1.68555,-6.59375 z m 3.00781,12.48633 a 128,128 0 0 1 0.99024,6.53906 128,128 0 0 0 -0.99024,-6.53906 z m 1.74024,12.71094 A 128,128 0 0 1 256,924.36216 128,128 0 0 0 255.44922,913.41099 Z"
         id="path4957" />
      <path
         style="fill:#ef7e74;fill-opacity:1"
         d="m 255.61415,923.74423 a 128,128 0 0 0 0.16406,-0.006 L 127.62197,795.58211 a 128,128 0 0 0 -0.008,0.16211 128,128 0 0 0 35.85352,88.80861 l 0.98046,0.98046 a 128,128 0 0 0 91.16603,38.21094 z"
         id="rect4961"
         inkscape:connector-curvature="0" />
    </g>
    <g
       id="g4252"
       clip-path="url(#clipPath4484)"
       style="fill:#8a2219;fill-opacity:1">
      <g
         id="g4254"
         style="fill:#8a2219;fill-opacity:1">
        <path
           id="path4256"
           d="M114.67353 1012.0814L114.87621 1004.8008L-26.5451462373 1146.22215624L-26.7478262373 1153.50275624Z"
           style="fill:#8a2219;fill-opacity:1" />
        <path
           id="path4258"
           d="M114.87621 1004.8008L107.40791 1003.2843L-34.0134462373 1144.70565624L-26.5451462373 1146.22215624Z"
           style="fill:#8a2219;fill-opacity:1" />
        <path
           id="path4260"
           d="M107.40791 1003.2843C91.307976 1000.0152 79.163295 993.9221 69.27805 984.15434L-72.1433062373 1125.57569624C-62.2580612373 1135.34345624 -50.1133802373 1141.43655624 -34.0134462373 1144.70565624Z"
           style="fill:#8a2219;fill-opacity:1" />
        <path
           id="path4262"
           d="M69.27805 984.15434C64.106657 979.04442 62.242573 976.61525 60.038515 972.11376L-81.3828412373 1113.53511624C-79.1787832373 1118.03660624 -77.3146992373 1120.46577624 -72.1433062373 1125.57569624Z"
           style="fill:#8a2219;fill-opacity:1" />
        <path
           id="path4264"
           d="M60.038515 972.11376C57.452917 966.83303 57.261199 965.99662 57.022475 958.95531L-84.3988812373 1100.37666624C-84.1601572373 1107.41797624 -83.9684392373 1108.25438624 -81.3828412373 1113.53511624Z"
           style="fill:#8a2219;fill-opacity:1" />
        <path
           id="path4266"
           d="M57.022475 958.95531C56.808585 952.64681 57.018875 950.69158 58.326011 946.81278L-83.0953452373 1088.23413624C-84.4024812373 1092.11293624 -84.6127712373 1094.06816624 -84.3988812373 1100.37666624Z"
           style="fill:#8a2219;fill-opacity:1" />
        <path
           id="path4269"
           d="M58.326011 946.81278C60.3655785482 940.762373157 63.9468049542 935.31861453 68.6882982326 930.577121252L-72.7330580047 1071.99847749C-77.4745512831 1076.73997077 -81.0557776891 1082.18372939 -83.0953452373 1088.23413624Z"
           style="fill:#8a2219;fill-opacity:1" />
        <path
           id="path4271"
           d="M68.6882982326 930.577121252C90.3914538478 908.873965636 136.403961497 901.884334974 170.14994 918.77801L28.7285837627 1060.19936624C-5.01739473981 1043.30569121 -51.0299023895 1050.29532187 -72.7330580047 1071.99847749Z"
           style="fill:#8a2219;fill-opacity:1" />
        <path
           id="path4273"
           d="M170.14994 918.77801C184.88951 926.15685 195.61868 938.10058 198.45813 950.29082L57.0367737627 1091.71217624C54.1973237627 1079.52193624 43.4681537627 1067.57820624 28.7285837627 1060.19936624Z"
           style="fill:#8a2219;fill-opacity:1" />
        <path
           id="path4275"
           d="M198.45813 950.29082C199.63239 955.33207 199.00165 963.85253 197.07634 968.95691L55.6549837627 1110.37826624C57.5802937627 1105.27388624 58.2110337627 1096.75342624 57.0367737627 1091.71217624Z"
           style="fill:#8a2219;fill-opacity:1" />
        <path
           id="path4277"
           d="M197.07634 968.95691C195.220617772 973.876837178 191.131208191 979.76958822 186.464008713 984.436787699L45.042652476 1125.85814394C49.7098519541 1121.19094446 53.7992615349 1115.29819341 55.6549837627 1110.37826624Z"
           style="fill:#8a2219;fill-opacity:1" />
        <path
           id="path4279"
           d="M186.464008713 984.436787699C185.377822601 985.522973811 184.260342154 986.542781436 183.13244 987.4685L41.7110837627 1128.88985624C42.838985917 1127.96413767 43.9564663633 1126.94433005 45.042652476 1125.85814394Z"
           style="fill:#8a2219;fill-opacity:1" />
        <path
           id="path4281"
           d="M183.13244 987.4685L177.82977 991.82067L36.4084137627 1133.24202624L41.7110837627 1128.88985624Z"
           style="fill:#8a2219;fill-opacity:1" />
        <path
           id="path4283"
           d="M177.82977 991.82067L179.16973 994.03329L37.7483737627 1135.45464624L36.4084137627 1133.24202624Z"
           style="fill:#8a2219;fill-opacity:1" />
        <path
           id="path4285"
           d="M179.16973 994.03329C179.90671 995.25022 183.14413 1000.7269 186.36399 1006.2037L44.9426337627 1147.62505624C41.7227737627 1142.14825624 38.4853537627 1136.67157624 37.7483737627 1135.45464624Z"
           style="fill:#8a2219;fill-opacity:1" />
        <path
           id="path4287"
           d="M186.36399 1006.2037C189.58386 1011.6804 192.66765 1016.8815 193.21686 1017.7617L51.7955037627 1159.18305624C51.2462937627 1158.30285624 48.1625037627 1153.10175624 44.9426337627 1147.62505624Z"
           style="fill:#8a2219;fill-opacity:1" />
        <path
           id="path4289"
           d="M193.21686 1017.7617L194.2154 1019.3621L52.7940437627 1160.78345624L51.7955037627 1159.18305624Z"
           style="fill:#8a2219;fill-opacity:1" />
        <path
           id="path4291"
           d="M194.2154 1019.3621L180.01333 1019.3621L38.5919737627 1160.78345624L52.7940437627 1160.78345624Z"
           style="fill:#8a2219;fill-opacity:1" />
        <path
           id="path4293"
           d="M180.01333 1019.3621L165.81127 1019.3621L24.3899137627 1160.78345624L38.5919737627 1160.78345624Z"
           style="fill:#8a2219;fill-opacity:1" />
        <path
           id="path4295"
           d="M165.81127 1019.3621L161.06258 1010.4107L19.6412237627 1151.83205624L24.3899137627 1160.78345624Z"
           style="fill:#8a2219;fill-opacity:1" />
        <path
           id="path4297"
           d="M161.06258 1010.4107C156.873 1002.5133 156.13556 1001.5088 154.79929 1001.8794L13.3779337627 1143.30075624C14.7142037627 1142.93015624 15.4516437627 1143.93465624 19.6412237627 1151.83205624Z"
           style="fill:#8a2219;fill-opacity:1" />
        <path
           id="path4299"
           d="M154.79929 1001.8794C153.96625 1002.1104 150.32403 1002.8545 146.70546 1003.5329L5.28410376269 1144.95425624C8.90267376269 1144.27585624 12.5448937627 1143.53175624 13.3779337627 1143.30075624Z"
           style="fill:#8a2219;fill-opacity:1" />
        <path
           id="path4301"
           d="M146.70546 1003.5329L140.12624 1004.7663L-1.29511623731 1146.18765624L5.28410376269 1144.95425624Z"
           style="fill:#8a2219;fill-opacity:1" />
        <path
           id="path4303"
           d="M140.12624 1004.7663L140.12624 1012.0642L-1.29511623731 1153.48555624L-1.29511623731 1146.18765624Z"
           style="fill:#8a2219;fill-opacity:1" />
        <path
           id="path4305"
           d="M140.12624 1012.0642L140.12624 1019.3621L-1.29511623731 1160.78345624L-1.29511623731 1153.48555624Z"
           style="fill:#8a2219;fill-opacity:1" />
        <path
           id="path4307"
           d="M140.12624 1019.3621L127.29852 1019.3621L-14.1228362373 1160.78345624L-1.29511623731 1160.78345624Z"
           style="fill:#8a2219;fill-opacity:1" />
        <path
           id="path4309"
           d="M127.29852 1019.3621L114.47082 1019.3621L-26.9505362373 1160.78345624L-14.1228362373 1160.78345624Z"
           style="fill:#8a2219;fill-opacity:1" />
        <path
           id="path4311"
           d="M114.47082 1019.3621L114.67353 1012.0814L-26.7478262373 1153.50275624L-26.9505362373 1160.78345624Z"
           style="fill:#8a2219;fill-opacity:1" />
        <path
           id="path4313"
           d="M148.16138 992.47077C149.39419635 992.245963518 150.0513507 992.102106604 150.290544042 991.862913263L8.869187805 1133.2842695C8.62999446305 1133.52346284 7.9728401125 1133.66731976 6.74002376269 1133.89212624Z"
           style="fill:#8a2219;fill-opacity:1" />
        <path
           id="path4315"
           d="M150.290544042 991.862913263C150.541725472 991.611731833 150.332000594 991.2554182 149.84399 990.58983L8.42263376269 1132.01118624C8.91064435675 1132.67677444 9.12036923493 1133.03308807 8.869187805 1133.2842695Z"
           style="fill:#8a2219;fill-opacity:1" />
        <path
           id="path4317"
           d="M149.84399 990.58983C149.10306 989.57931 147.64183 989.08815 144.47608 988.78547L3.05472376269 1130.20682624C6.22047376269 1130.50950624 7.68170376269 1131.00066624 8.42263376269 1132.01118624Z"
           style="fill:#8a2219;fill-opacity:1" />
        <path
           id="path4319"
           d="M144.47608 988.78547L140.12624 988.36959L-1.29511623731 1129.79094624L3.05472376269 1130.20682624Z"
           style="fill:#8a2219;fill-opacity:1" />
        <path
           id="path4321"
           d="M140.12624 988.36959L140.12624 990.7074L-1.29511623731 1132.12875624L-1.29511623731 1129.79094624Z"
           style="fill:#8a2219;fill-opacity:1" />
        <path
           id="path4323"
           d="M140.12624 990.7074C140.12624 992.94198 140.24402 993.04341 142.79349 993.00421L1.37213376269 1134.42556624C-1.17733623731 1134.46476624 -1.29511623731 1134.36333624 -1.29511623731 1132.12875624Z"
           style="fill:#8a2219;fill-opacity:1" />
        <path
           id="path4325"
           d="M142.79349 993.00421C144.26046 992.98161 146.67604 992.74161 148.16138 992.47077L6.74002376269 1133.89212624C5.25468376269 1134.16296624 2.83910376269 1134.40296624 1.37213376269 1134.42556624Z"
           style="fill:#8a2219;fill-opacity:1" />
        <path
           id="path4327"
           d="M114.68072 964.20813L114.48517 938.92678L-26.9361862373 1080.34813624L-26.7406362373 1105.62948624Z"
           style="fill:#8a2219;fill-opacity:1" />
        <path
           id="path4329"
           d="M114.48517 938.92678L142.42016 939.13563L0.998803762691 1080.55698624L-26.9361862373 1080.34813624Z"
           style="fill:#8a2219;fill-opacity:1" />
        <path
           id="path4331"
           d="M142.42016 939.13563C169.40603 939.33738 170.46796 939.39715 173.67651 940.89508L32.2551537627 1082.31643624C29.0466037627 1080.81850624 27.9846737627 1080.75873624 0.998803762691 1080.55698624Z"
           style="fill:#8a2219;fill-opacity:1" />
        <path
           id="path4333"
           d="M173.67651 940.89508C177.9986 942.91281 182.52523 947.04389 184.3942 950.67624L42.9728437627 1092.09759624C41.1038737627 1088.46524624 36.5772437627 1084.33416624 32.2551537627 1082.31643624Z"
           style="fill:#8a2219;fill-opacity:1" />
        <path
           id="path4335"
           d="M184.3942 950.67624C186.44169 954.65553 186.91065 963.0429 185.38004 968.30805L43.9586837627 1109.72940624C45.4892937627 1104.46425624 45.0203337627 1096.07688624 42.9728437627 1092.09759624Z"
           style="fill:#8a2219;fill-opacity:1" />
        <path
           id="path4337"
           d="M185.38004 968.30805C184.516079145 971.279974584 182.587930133 974.238098297 180.092942128 976.733086302L38.6715858907 1118.15444254C41.1665738956 1115.65945453 43.0947229077 1112.70133082 43.9586837627 1109.72940624Z"
           style="fill:#8a2219;fill-opacity:1" />
        <path
           id="path4339"
           d="M180.092942128 976.733086302C176.981721083 979.844307347 172.989076734 982.235361621 169.07939 983.03497L27.6580337627 1124.45632624C31.5677204964 1123.65671786 35.5603648461 1121.26566358 38.6715858907 1118.15444254Z"
           style="fill:#8a2219;fill-opacity:1" />
        <path
           id="path4341"
           d="M169.07939 983.03497L167.00759 983.45872L25.5862337627 1124.88007624L27.6580337627 1124.45632624Z"
           style="fill:#8a2219;fill-opacity:1" />
        <path
           id="path4343"
           d="M167.00759 983.45872L170.31023 984.97807L28.8888737627 1126.39942624L25.5862337627 1124.88007624Z"
           style="fill:#8a2219;fill-opacity:1" />
        <path
           id="path4345"
           d="M170.31023 984.97807L173.61288 986.49747L32.1915237627 1127.91882624L28.8888737627 1126.39942624Z"
           style="fill:#8a2219;fill-opacity:1" />
        <path
           id="path4347"
           d="M173.61288 986.49747L177.92142 983.62031L36.5000637627 1125.04166624L32.1915237627 1127.91882624Z"
           style="fill:#8a2219;fill-opacity:1" />
        <path
           id="path4349"
           d="M177.92142 983.62031C179.522292501 982.551288372 180.968077729 981.369138514 182.254643805 980.082572438L40.8332875682 1121.50392868C39.5467214922 1122.79049475 38.1009362637 1123.97264461 36.5000637627 1125.04166624Z"
           style="fill:#8a2219;fill-opacity:1" />
        <path
           id="path4351"
           d="M182.254643805 980.082572438C187.710606652 974.626609592 190.303222877 967.292858673 189.71738 958.74573L48.2960237627 1100.16708624C48.8818666395 1108.71421491 46.2892504145 1116.04796583 40.8332875682 1121.50392868Z"
           style="fill:#8a2219;fill-opacity:1" />
        <path
           id="path4353"
           d="M189.71738 958.74573C188.75955 944.77138 179.2757 935.61831 160.96735 930.99846L19.5459937627 1072.41981624C37.8543437627 1077.03966624 47.3381937627 1086.19273624 48.2960237627 1100.16708624Z"
           style="fill:#8a2219;fill-opacity:1" />
        <path
           id="path4355"
           d="M160.96735 930.99846C155.44166 929.60411 152.91315 929.42173 139.41496 929.44384L-2.00639623731 1070.86519624C11.4917937627 1070.84308624 14.0203037627 1071.02546624 19.5459937627 1072.41981624Z"
           style="fill:#8a2219;fill-opacity:1" />
        <path
           id="path4357"
           d="M139.41496 929.44384C125.99972 929.46584 123.44678 929.65653 118.61595 930.99763L-22.8054062373 1072.41898624C-17.9745762373 1071.07788624 -15.4216362373 1070.88719624 -2.00639623731 1070.86519624Z"
           style="fill:#8a2219;fill-opacity:1" />
        <path
           id="path4359"
           d="M118.61595 930.99763C107.157679052 934.178583662 98.6878103587 938.530329002 93.0788855602 944.1392538L-48.3424706771 1085.56061004C-42.7335458786 1079.95168524 -34.2636771852 1075.5999399 -22.8054062373 1072.41898624Z"
           style="fill:#8a2219;fill-opacity:1" />
        <path
           id="path4361"
           d="M93.0788855602 944.1392538C90.6391593333 946.578980027 88.7407259635 949.256565606 87.373096 952.17912L-54.0482602373 1093.60047624C-52.6806302738 1090.67792184 -50.7821969041 1088.00033626 -48.3424706771 1085.56061004Z"
           style="fill:#8a2219;fill-opacity:1" />
        <path
           id="path4363"
           d="M87.373096 952.17912C85.396189 956.40367 85.211071 957.37792 85.511444 961.97702L-55.9099122373 1103.39837624C-56.2102852373 1098.79927624 -56.0251672373 1097.82502624 -54.0482602373 1093.60047624Z"
           style="fill:#8a2219;fill-opacity:1" />
        <path
           id="path4365"
           d="M85.511444 961.97702C86.033296 969.96734 90.067082 976.23245 98.372867 981.95287L-43.0484892373 1123.37422624C-51.3542742373 1117.65380624 -55.3880602373 1111.38869624 -55.9099122373 1103.39837624Z"
           style="fill:#8a2219;fill-opacity:1" />
        <path
           id="path4367"
           d="M98.372867 981.95287C101.84033 984.34099 112.58039 989.46047 114.16494 989.48048L-27.2564162373 1130.90183624C-28.8409662373 1130.88182624 -39.5810262373 1125.76234624 -43.0484892373 1123.37422624Z"
           style="fill:#8a2219;fill-opacity:1" />
        <path
           id="path4369"
           d="M114.16494 989.48048C114.177054818 989.480662515 114.188975335 989.474881795 114.200701181 989.463155948L-27.2206550561 1130.88451219C-27.2323809027 1130.89623803 -27.2443014189 1130.90201875 -27.2564162373 1130.90183624Z"
           style="fill:#8a2219;fill-opacity:1" />
        <path
           id="path4371"
           d="M114.200701181 989.463155948C114.638697087 989.025160042 114.805080667 980.292232995 114.68072 964.20813L-26.7406362373 1105.62948624C-26.6162755701 1121.71358923 -26.7826591498 1130.44651628 -27.2206550561 1130.88451219Z"
           style="fill:#8a2219;fill-opacity:1" />
        <path
           id="path4373"
           d="M157.47076 968.76982C157.982371666 968.536716881 158.439901729 968.212680931 158.83641965 967.81616301L17.4150634128 1109.23751925C17.0185454916 1109.63403717 16.5610154292 1109.95807312 16.0494037627 1110.19117624Z"
           style="fill:#8a2219;fill-opacity:1" />
        <path
           id="path4375"
           d="M158.83641965 967.81616301C160.345492711 966.307089949 160.970852945 963.748172609 160.33046 961.1565L18.9091037627 1102.57785624C19.5494967079 1105.16952885 18.9241364737 1107.72844619 17.4150634128 1109.23751925Z"
           style="fill:#8a2219;fill-opacity:1" />
        <path
           id="path4377"
           d="M160.33046 961.1565C159.46848 957.66803 156.84733 956.79983 147.41673 956.87923L5.99537376269 1098.30058624C15.4259737627 1098.22118624 18.0471237627 1099.08938624 18.9091037627 1102.57785624Z"
           style="fill:#8a2219;fill-opacity:1" />
        <path
           id="path4379"
           d="M147.41673 956.87923L140.12624 956.94063L-1.29511623731 1098.36198624L5.99537376269 1098.30058624Z"
           style="fill:#8a2219;fill-opacity:1" />
        <path
           id="path4381"
           d="M140.12624 956.94063L140.12624 963.25703L-1.29511623731 1104.67838624L-1.29511623731 1098.36198624Z"
           style="fill:#8a2219;fill-opacity:1" />
        <path
           id="path4383"
           d="M140.12624 963.25703L140.12624 969.57339L-1.29511623731 1110.99474624L-1.29511623731 1104.67838624Z"
           style="fill:#8a2219;fill-opacity:1" />
        <path
           id="path4385"
           d="M140.12624 969.57339L147.91672 969.57339L6.49536376269 1110.99474624L-1.29511623731 1110.99474624Z"
           style="fill:#8a2219;fill-opacity:1" />
        <path
           id="path4387"
           d="M147.91672 969.57339C152.20148 969.57339 156.50079 969.21181 157.47076 968.76988L16.0494037627 1110.19123624C15.0794337627 1110.63316624 10.7801237627 1110.99474624 6.49536376269 1110.99474624Z"
           style="fill:#8a2219;fill-opacity:1" />
      </g>
      <path
         style="fill:#8a2219;fill-opacity:1"
         d="m 114.67353,1012.0814 0.20268,-7.2806 -7.4683,-1.5165 c -16.099934,-3.2691 -28.244615,-9.3622 -38.12986,-19.12996 -5.171393,-5.10992 -7.035477,-7.53909 -9.239535,-12.04058 -2.585598,-5.28073 -2.777316,-6.11714 -3.01604,-13.15845 -0.21389,-6.3085 -0.0036,-8.26373 1.303536,-12.14253 11.375245,-33.74483 70.705459,-48.61921 111.823929,-28.03477 14.73957,7.37884 25.46874,19.32257 28.30819,31.51281 1.17426,5.04125 0.54352,13.56171 -1.38179,18.66609 -2.2876,6.06493 -7.96955,13.60818 -13.9439,18.51159 l -5.30267,4.35217 1.33996,2.21262 c 0.73698,1.21693 3.9744,6.69361 7.19426,12.17041 3.21987,5.4767 6.30366,10.6778 6.85287,11.558 l 0.99854,1.6004 -14.20207,0 -14.20206,0 -4.74869,-8.9514 c -4.18958,-7.8974 -4.92702,-8.9019 -6.26329,-8.5313 -0.83304,0.231 -4.47526,0.9751 -8.09383,1.6535 l -6.57922,1.2334 0,7.2979 0,7.2979 -12.82772,0 -12.8277,0 0.20271,-7.2807 z m 33.48785,-19.61063 c 2.52742,-0.46088 2.63534,-0.58153 1.68261,-1.88094 -0.74093,-1.01052 -2.20216,-1.50168 -5.36791,-1.80436 l -4.34984,-0.41588 0,2.33781 c 0,2.23458 0.11778,2.33601 2.66725,2.29681 1.46697,-0.0226 3.88255,-0.2626 5.36789,-0.53344 z m -33.48066,-28.26264 -0.19555,-25.28135 27.93499,0.20885 c 26.98587,0.20175 28.0478,0.26152 31.25635,1.75945 4.32209,2.01773 8.84872,6.14881 10.71769,9.78116 2.04749,3.97929 2.51645,12.36666 0.98584,17.63181 -1.94131,6.67788 -9.25566,13.28608 -16.30065,14.72692 l -2.0718,0.42375 3.30264,1.51935 3.30265,1.5194 4.30854,-2.87716 c 8.38972,-5.60244 12.51995,-14.31196 11.79596,-24.87458 -0.95783,-13.97435 -10.44168,-23.12742 -28.75003,-27.74727 -5.52569,-1.39435 -8.0542,-1.57673 -21.55239,-1.55462 -13.41524,0.022 -15.96818,0.21269 -20.79901,1.55379 -16.4423,4.56458 -26.731046,11.53999 -31.242854,21.18149 -1.976907,4.22455 -2.162025,5.1988 -1.861652,9.7979 0.521852,7.99032 4.555638,14.25543 12.861423,19.97585 3.467463,2.38812 14.207523,7.5076 15.792073,7.52761 0.46464,0.007 0.64347,-8.75765 0.51578,-25.27235 z m 42.79004,4.56169 c 2.45871,-1.12025 3.66836,-4.34067 2.8597,-7.61332 -0.86198,-3.48847 -3.48313,-4.35667 -12.91373,-4.27727 l -7.29049,0.0614 0,6.3164 0,6.31636 7.79048,0 c 4.28476,0 8.58407,-0.36158 9.55404,-0.80351 z"
         id="path4227"
         inkscape:connector-curvature="0" />
    </g>
    <path
       inkscape:connector-curvature="0"
       id="path4217"
       d="m 114.67353,1012.0814 0.20268,-7.2806 -7.4683,-1.5165 c -16.099934,-3.2691 -28.244615,-9.3622 -38.12986,-19.12996 -5.171393,-5.10992 -7.035477,-7.53909 -9.239535,-12.04058 -2.585598,-5.28073 -2.777316,-6.11714 -3.01604,-13.15845 -0.21389,-6.3085 -0.0036,-8.26373 1.303536,-12.14253 11.375245,-33.74483 70.705459,-48.61921 111.823929,-28.03477 14.73957,7.37884 25.46874,19.32257 28.30819,31.51281 1.17426,5.04125 0.54352,13.56171 -1.38179,18.66609 -2.2876,6.06493 -7.96955,13.60818 -13.9439,18.51159 l -5.30267,4.35217 1.33996,2.21262 c 0.73698,1.21693 3.9744,6.69361 7.19426,12.17041 3.21987,5.4767 6.30366,10.6778 6.85287,11.558 l 0.99854,1.6004 -14.20207,0 -14.20206,0 -4.74869,-8.9514 c -4.18958,-7.8974 -4.92702,-8.9019 -6.26329,-8.5313 -0.83304,0.231 -4.47526,0.9751 -8.09383,1.6535 l -6.57922,1.2334 0,7.2979 0,7.2979 -12.82772,0 -12.8277,0 0.20271,-7.2807 z m 33.48785,-19.61063 c 2.52742,-0.46088 2.63534,-0.58153 1.68261,-1.88094 -0.74093,-1.01052 -2.20216,-1.50168 -5.36791,-1.80436 l -4.34984,-0.41588 0,2.33781 c 0,2.23458 0.11778,2.33601 2.66725,2.29681 1.46697,-0.0226 3.88255,-0.2626 5.36789,-0.53344 z m -33.48066,-28.26264 -0.19555,-25.28135 27.93499,0.20885 c 26.98587,0.20175 28.0478,0.26152 31.25635,1.75945 4.32209,2.01773 8.84872,6.14881 10.71769,9.78116 2.04749,3.97929 2.51645,12.36666 0.98584,17.63181 -1.94131,6.67788 -9.25566,13.28608 -16.30065,14.72692 l -2.0718,0.42375 3.30264,1.51935 3.30265,1.5194 4.30854,-2.87716 c 8.38972,-5.60244 12.51995,-14.31196 11.79596,-24.87458 -0.95783,-13.97435 -10.44168,-23.12742 -28.75003,-27.74727 -5.52569,-1.39435 -8.0542,-1.57673 -21.55239,-1.55462 -13.41524,0.022 -15.96818,0.21269 -20.79901,1.55379 -16.4423,4.56458 -26.731046,11.53999 -31.242854,21.18149 -1.976907,4.22455 -2.162025,5.1988 -1.861652,9.7979 0.521852,7.99032 4.555638,14.25543 12.861423,19.97585 3.467463,2.38812 14.207523,7.5076 15.792073,7.52761 0.46464,0.007 0.64347,-8.75765 0.51578,-25.27235 z m 42.79004,4.56169 c 2.45871,-1.12025 3.66836,-4.34067 2.8597,-7.61332 -0.86198,-3.48847 -3.48313,-4.35667 -12.91373,-4.27727 l -7.29049,0.0614 0,6.3164 0,6.31636 7.79048,0 c 4.28476,0 8.58407,-0.36158 9.55404,-0.80351 z"
       style="fill:#ffffff;fill-opacity:1" />
  </g>
</svg>
