<?xml version="1.0" encoding="UTF-8" standalone="no"?>
<!-- Created with Inkscape (http://www.inkscape.org/) -->

<svg
   xmlns:dc="http://purl.org/dc/elements/1.1/"
   xmlns:cc="http://creativecommons.org/ns#"
   xmlns:rdf="http://www.w3.org/1999/02/22-rdf-syntax-ns#"
   xmlns:svg="http://www.w3.org/2000/svg"
   xmlns="http://www.w3.org/2000/svg"
   xmlns:sodipodi="http://sodipodi.sourceforge.net/DTD/sodipodi-0.dtd"
   xmlns:inkscape="http://www.inkscape.org/namespaces/inkscape"
   sodipodi:docname="text-x-java.svg"
   inkscape:version="0.91 r13725"
   version="1.1"
   id="svg2"
   viewBox="0 0 256 256"
   height="256"
   width="256">
  <sodipodi:namedview
     inkscape:window-maximized="1"
     inkscape:window-y="0"
     inkscape:window-x="0"
     inkscape:window-height="1054"
     inkscape:window-width="1920"
     units="px"
     showgrid="false"
     inkscape:current-layer="layer1"
     inkscape:document-units="px"
     inkscape:cy="128"
     inkscape:cx="80.818073"
     inkscape:zoom="3.2851562"
     inkscape:pageshadow="2"
     inkscape:pageopacity="0.0"
     borderopacity="1.0"
     bordercolor="#666666"
     pagecolor="#ffffff"
     id="base" />
  <defs
     id="defs4">
    <filter
       style="color-interpolation-filters:sRGB;"
       inkscape:label="Drop Shadow"
       id="filter4301">
      <feFlood
         flood-opacity="0.498039"
         flood-color="rgb(0,0,0)"
         result="flood"
         id="feFlood4303" />
      <feComposite
         in="flood"
         in2="SourceGraphic"
         operator="in"
         result="composite1"
         id="feComposite4305" />
      <feGaussianBlur
         in="composite1"
         stdDeviation="3.7"
         result="blur"
         id="feGaussianBlur4307" />
      <feOffset
         dx="3.8"
         dy="3.7"
         result="offset"
         id="feOffset4309" />
      <feComposite
         in="SourceGraphic"
         in2="offset"
         operator="over"
         result="composite2"
         id="feComposite4311" />
    </filter>
    <clipPath
       id="clipPath4266"
       clipPathUnits="userSpaceOnUse">
      <path
         inkscape:connector-curvature="0"
         id="path4268"
         d="m 153.38672,796.84847 -105.781251,0 c -7.804357,0 -14.087891,6.28158 -14.087891,14.08594 l 0,227.33989 c 0,7.8043 6.283534,14.0878 14.087891,14.0878 l 165.162111,0 c 7.80436,0 14.08594,-6.2835 14.08594,-14.0878 l 0,-154.82232 -73.4668,-86.60351 z"
         style="fill:#db4437;fill-opacity:1" />
    </clipPath>
    <clipPath
       clipPathUnits="userSpaceOnUse"
       id="clipPath6236">
      <path
         id="path6238"
         d="m 153.38672,796.84847 -105.781251,0 c -7.804357,0 -14.087891,6.28158 -14.087891,14.08594 l 0,227.33989 c 0,7.8043 6.283534,14.0878 14.087891,14.0878 l 165.162111,0 c 7.80436,0 14.08594,-6.2835 14.08594,-14.0878 l 0,-154.82232 -73.4668,-86.60351 z"
         style="fill:#db4437;fill-opacity:1"
         inkscape:connector-curvature="0" />
    </clipPath>
    <clipPath
       id="clipPath5522"
       clipPathUnits="userSpaceOnUse">
      <path
         inkscape:connector-curvature="0"
         id="path5524"
         d="m 153.38672,796.84847 -105.781251,0 c -7.804357,0 -14.087891,6.28158 -14.087891,14.08594 l 0,227.33989 c 0,7.8043 6.283534,14.0878 14.087891,14.0878 l 165.162111,0 c 7.80436,0 14.08594,-6.2835 14.08594,-14.0878 l 0,-154.82232 -73.4668,-86.60351 z"
         style="fill:#db4437;fill-opacity:1" />
    </clipPath>
    <clipPath
       clipPathUnits="userSpaceOnUse"
       id="clipPath4528">
      <g
         transform="translate(0.00754619,-809.07747)"
         id="g4530">
        <path
           style="fill:#db4437;fill-opacity:1"
           d="M 127.83594,796.36802 A 128,128 0 0 0 0,924.36216 128,128 0 0 0 128,1052.3622 128,128 0 0 0 255.99219,924.52427 L 127.83594,796.36802 Z m 12.42383,0.60742 a 128,128 0 0 1 7.76757,1.1211 128,128 0 0 0 -7.76757,-1.1211 z m 12.58789,1.84961 a 128,128 0 0 1 8.42187,2.08984 128,128 0 0 0 -8.42187,-2.08984 z m 12.36328,3.09766 a 128,128 0 0 1 8.94531,3.19726 128,128 0 0 0 -8.94531,-3.19726 z m 11.98437,4.30468 a 128,128 0 0 1 9.34375,4.43946 128,128 0 0 0 -9.34375,-4.43946 z m 11.49805,5.47852 a 128,128 0 0 1 9.49414,5.73438 128,128 0 0 0 -9.49414,-5.73438 z m 10.90625,6.59961 a 128,128 0 0 1 9.66016,7.24414 128,128 0 0 0 -9.66016,-7.24414 z m 10.17773,7.63867 a 128,128 0 0 1 9.38868,8.62891 128,128 0 0 0 -9.38868,-8.62891 z m 9.38868,8.62891 0.98046,0.98047 a 128,128 0 0 0 -0.98046,-0.98047 z m 7.65039,8.57226 a 128,128 0 0 1 4.5039,5.92188 128,128 0 0 0 -4.5039,-5.92188 z m 7.63867,10.30469 a 128,128 0 0 1 3.81054,6.21289 128,128 0 0 0 -3.81054,-6.21289 z m 6.57617,11.03125 a 128,128 0 0 1 3.08203,6.37695 128,128 0 0 0 -3.08203,-6.37695 z m 5.4375,11.63867 a 128,128 0 0 1 2.37695,6.50782 128,128 0 0 0 -2.37695,-6.50782 z m 4.23242,12.09375 a 128,128 0 0 1 1.68555,6.59375 128,128 0 0 0 -1.68555,-6.59375 z m 3.00781,12.48633 a 128,128 0 0 1 0.99024,6.53906 128,128 0 0 0 -0.99024,-6.53906 z m 1.74024,12.71094 A 128,128 0 0 1 256,924.36216 128,128 0 0 0 255.44922,913.41099 Z"
           id="path4532"
           inkscape:connector-curvature="0" />
        <path
           style="fill:#ef7e74;fill-opacity:1"
           d="m 255.61415,923.74423 a 128,128 0 0 0 0.16406,-0.006 L 127.62197,795.58211 a 128,128 0 0 0 -0.008,0.16211 128,128 0 0 0 35.85352,88.80861 l 0.98046,0.98046 a 128,128 0 0 0 91.16603,38.21094 z"
           id="path4534"
           inkscape:connector-curvature="0" />
      </g>
    </clipPath>
  </defs>
  <metadata
     id="metadata7">
    <rdf:RDF>
      <cc:Work
         rdf:about="">
        <dc:format>image/svg+xml</dc:format>
        <dc:type
           rdf:resource="http://purl.org/dc/dcmitype/StillImage" />
        <dc:title />
      </cc:Work>
    </rdf:RDF>
  </metadata>
  <g
     inkscape:label="Layer 1"
     inkscape:groupmode="layer"
     id="layer1"
     transform="translate(0,-796.36214)">
    <g
       id="g4338"
       transform="translate(0,0.389985)">
      <path
         inkscape:connector-curvature="0"
         id="path4957"
         d="M 127.83594,796.36802 A 128,128 0 0 0 0,924.36216 128,128 0 0 0 128,1052.3622 128,128 0 0 0 255.99219,924.52427 L 127.83594,796.36802 Z m 12.42383,0.60742 a 128,128 0 0 1 7.76757,1.1211 128,128 0 0 0 -7.76757,-1.1211 z m 12.58789,1.84961 a 128,128 0 0 1 8.42187,2.08984 128,128 0 0 0 -8.42187,-2.08984 z m 12.36328,3.09766 a 128,128 0 0 1 8.94531,3.19726 128,128 0 0 0 -8.94531,-3.19726 z m 11.98437,4.30468 a 128,128 0 0 1 9.34375,4.43946 128,128 0 0 0 -9.34375,-4.43946 z m 11.49805,5.47852 a 128,128 0 0 1 9.49414,5.73438 128,128 0 0 0 -9.49414,-5.73438 z m 10.90625,6.59961 a 128,128 0 0 1 9.66016,7.24414 128,128 0 0 0 -9.66016,-7.24414 z m 10.17773,7.63867 a 128,128 0 0 1 9.38868,8.62891 128,128 0 0 0 -9.38868,-8.62891 z m 9.38868,8.62891 0.98046,0.98047 a 128,128 0 0 0 -0.98046,-0.98047 z m 7.65039,8.57226 a 128,128 0 0 1 4.5039,5.92188 128,128 0 0 0 -4.5039,-5.92188 z m 7.63867,10.30469 a 128,128 0 0 1 3.81054,6.21289 128,128 0 0 0 -3.81054,-6.21289 z m 6.57617,11.03125 a 128,128 0 0 1 3.08203,6.37695 128,128 0 0 0 -3.08203,-6.37695 z m 5.4375,11.63867 a 128,128 0 0 1 2.37695,6.50782 128,128 0 0 0 -2.37695,-6.50782 z m 4.23242,12.09375 a 128,128 0 0 1 1.68555,6.59375 128,128 0 0 0 -1.68555,-6.59375 z m 3.00781,12.48633 a 128,128 0 0 1 0.99024,6.53906 128,128 0 0 0 -0.99024,-6.53906 z m 1.74024,12.71094 A 128,128 0 0 1 256,924.36216 128,128 0 0 0 255.44922,913.41099 Z"
         style="fill:#db4437;fill-opacity:1" />
      <path
         inkscape:connector-curvature="0"
         id="rect4961"
         d="m 255.61415,923.74423 a 128,128 0 0 0 0.16406,-0.006 L 127.62197,795.58211 a 128,128 0 0 0 -0.008,0.16211 128,128 0 0 0 35.85352,88.80861 l 0.98046,0.98046 a 128,128 0 0 0 91.16603,38.21094 z"
         style="fill:#ef7e74;fill-opacity:1" />
    </g>
    <g
       transform="translate(-0.00754619,809.46746)"
       id="g4235"
       clip-path="url(#clipPath4528)"
       style="fill:#8a2219;fill-opacity:1">
      <g
         id="g4285"
         transform="translate(0.00754619,-13.10532)"
         style="fill:#8a2219;fill-opacity:1">
        <g
           id="g4287"
           style="fill:#8a2219;fill-opacity:1;fill-rule:evenodd;stroke:none">
          <path
             id="path4289"
             d="M141.17969 91.949219C143.556247104 100.817669074 140.290729812 107.02373182 135.076409228 112.238052405L-6.34494700926 253.659408642C-1.13062642483 248.445088057 2.13489086676 242.239025311 -0.241666237309 233.370575237Z"
             style="fill:#8a2219;fill-opacity:1" />
          <path
             id="path4291"
             d="M135.076409228 112.238052405C128.841799459 118.472662174 119.821125625 123.289449421 114.327533666 129.544155424L-27.0938225718 270.965511661C-21.600230612 264.710805658 -12.5795567782 259.894018411 -6.34494700926 253.659408642Z"
             style="fill:#8a2219;fill-opacity:1" />
          <path
             id="path4293"
             d="M114.327533666 129.544155424C113.722195109 130.23336109 113.159681753 130.94002571 112.64844 131.66797L-28.7729162373 273.089326237C-28.2616744839 272.361381948 -27.6991611287 271.654717327 -27.0938225718 270.965511661Z"
             style="fill:#8a2219;fill-opacity:1" />
          <path
             id="path4295"
             d="M112.64844 131.66797C106.50782 140.41797 115.71094 149.80859 128.19531 160.51172L-13.2260462373 301.933076237C-25.7104162373 291.229946237 -34.9135362373 281.839326237 -28.7729162373 273.089326237Z"
             style="fill:#8a2219;fill-opacity:1" />
          <path
             id="path4297"
             d="M128.19531 160.51172C123.75738222 151.026166836 109.746949846 142.634258942 123.186455559 129.194753229L-18.2349006787 270.616109466C-31.6744063914 284.055615179 -17.6639740171 292.447523074 -13.2260462373 301.933076237Z"
             style="fill:#8a2219;fill-opacity:1" />
          <path
             id="path4299"
             d="M123.186455559 129.194753229C124.557356569 127.823852218 126.213876498 126.400430527 128.19531 124.91797L-13.2260462373 266.339326237C-15.2074797388 267.821786764 -16.8639996679 269.245208456 -18.2349006787 270.616109466Z"
             style="fill:#8a2219;fill-opacity:1" />
          <path
             id="path4301"
             d="M128.19531 124.91797C131.172925954 122.688244146 133.647733999 120.545658819 135.694866901 118.498525917L-5.72648933601 259.919882154C-7.77362223839 261.967015056 -10.2484302833 264.109600384 -13.2260462373 266.339326237Z"
             style="fill:#8a2219;fill-opacity:1" />
          <path
             id="path4303"
             d="M135.694866901 118.498525917C151.995586837 102.197805981 141.17969 91.949219 141.17969 91.949219L-0.241666237309 233.370575237C-0.241666237309 233.370575237 10.5742305998 243.619162218 -5.72648933601 259.919882154Z"
             style="fill:#8a2219;fill-opacity:1" />
          <path
             id="path4305"
             d="M157.69531 117.46484C157.69531 117.46484 141.229825566 121.370264032 132.943715394 129.656374205L-8.47764084349 271.077730442C-0.191530671299 262.79162027 16.2739537627 258.886196237 16.2739537627 258.886196237Z"
             style="fill:#8a2219;fill-opacity:1" />
          <path
             id="path4307"
             d="M132.943715394 129.656374205C127.512419138 135.08767046 125.595316282 142.401088481 134.13281 151.73047L-7.28854623731 293.151826237C-15.8260399549 283.822444718 -13.9089370991 276.509026698 -8.47764084349 271.077730442Z"
             style="fill:#8a2219;fill-opacity:1" />
          <path
             id="path4309"
             d="M134.13281 151.73047C139.132345316 157.173313866 135.193750627 162.218257279 133.300127889 164.111880017L-8.12122834853 305.533236254C-6.22760561018 303.639613516 -2.28901092132 298.594670103 -7.28854623731 293.151826237Z"
             style="fill:#8a2219;fill-opacity:1" />
          <path
             id="path4311"
             d="M133.300127889 164.111880017C132.790993473 164.621014433 132.42969 164.90234 132.42969 164.90234L-8.99166623731 306.323696237C-8.99166623731 306.323696237 -8.63036276403 306.04237067 -8.12122834853 305.533236254Z"
             style="fill:#8a2219;fill-opacity:1" />
          <path
             id="path4313"
             d="M132.42969 164.90234C132.42969 164.90234 136.269141303 163.01603317 139.346659989 159.938514485L-2.07469624878 301.359870722C-5.15221493384 304.437389407 -8.99166623731 306.323696237 -8.99166623731 306.323696237Z"
             style="fill:#8a2219;fill-opacity:1" />
          <path
             id="path4315"
             d="M139.346659989 159.938514485C142.582150165 156.703024308 144.975478925 152.1508919 141.17969 147.08984L-0.241666237309 288.511196237C3.55412268762 293.572248137 1.16079392773 298.124380546 -2.07469624878 301.359870722Z"
             style="fill:#8a2219;fill-opacity:1" />
          <path
             id="path4317"
             d="M141.17969 147.08984C136.477452731 140.816660059 132.510717481 136.699490097 139.468318889 129.741888689L-1.9530373487 271.163244927C-8.91063875627 278.120846334 -4.9439035065 282.238016296 -0.241666237309 288.511196237Z"
             style="fill:#8a2219;fill-opacity:1" />
          <path
             id="path4319"
             d="M139.468318889 129.741888689C142.75258306 126.457624518 148.471024209 122.540451178 157.69531 117.46484L16.2739537627 258.886196237C7.04966797181 263.961807415 1.3312268226 267.878980755 -1.9530373487 271.163244927Z"
             style="fill:#8a2219;fill-opacity:1" />
          <path
             id="path4321"
             d="M166.36719 159.55273C164.58838 159.47379 162.66992 159.72656 160.69531 160.38672L19.2739537627 301.808076237C21.2485637627 301.147916237 23.1670237627 300.895146237 24.9458337627 300.974086237Z"
             style="fill:#8a2219;fill-opacity:1" />
          <path
             id="path4323"
             d="M160.69531 160.38672C159.922012281 160.633153684 159.365928957 161.069075035 159.019520303 161.415483689L17.598164066 302.836839926C17.9445727193 302.490431273 18.5006560434 302.054509922 19.2739537627 301.808076237Z"
             style="fill:#8a2219;fill-opacity:1" />
          <path
             id="path4325"
             d="M159.019520303 161.415483689C158.728984014 161.706019978 158.58594 161.93359 158.58594 161.93359L17.1645837627 303.354946237C17.1645837627 303.354946237 17.3076277762 303.127376216 17.598164066 302.836839926Z"
             style="fill:#8a2219;fill-opacity:1" />
          <path
             id="path4327"
             d="M158.58594 161.93359C158.58594 161.93359 158.58594 161.93359 158.58594 161.93359L17.1645837627 303.354946237C17.1645837627 303.354946237 17.1645837627 303.354946237 17.1645837627 303.354946237Z"
             style="fill:#8a2219;fill-opacity:1" />
          <path
             id="path4329"
             d="M158.58594 161.93359C158.58594 161.93359 159.44531 161.57422 161.39844 161.19922L19.9770837627 302.620576237C18.0239537627 302.995576237 17.1645837627 303.354946237 17.1645837627 303.354946237Z"
             style="fill:#8a2219;fill-opacity:1" />
          <path
             id="path4331"
             d="M161.39844 161.19922C167.712260068 159.948832064 176.203674575 167.045892613 167.155424338 176.09414285L25.734068101 317.515499087C34.7823183376 308.46724885 26.2909038311 301.370188301 19.9770837627 302.620576237Z"
             style="fill:#8a2219;fill-opacity:1" />
          <path
             id="path4333"
             d="M167.155424338 176.09414285C164.783766612 178.465800576 161.207083748 180.971510614 156.07031 183.49609L14.6489537627 324.917446237C19.7857275103 322.392866851 23.3624103752 319.887156813 25.734068101 317.515499087Z"
             style="fill:#8a2219;fill-opacity:1" />
          <path
             id="path4335"
             d="M156.07031 183.49609C156.01406096 183.69296464 155.84531576 183.88983568 155.719316451 184.015834989L14.2979602137 325.437191226C14.4239595224 325.311191918 14.5927047227 325.114320877 14.6489537627 324.917446237Z"
             style="fill:#8a2219;fill-opacity:1" />
          <path
             id="path4337"
             d="M155.719316451 184.015834989C155.635313328 184.099838112 155.57031 184.15234 155.57031 184.15234L14.1489537627 325.573696237C14.1489537627 325.573696237 14.2139570906 325.521194349 14.2979602137 325.437191226Z"
             style="fill:#8a2219;fill-opacity:1" />
          <path
             id="path4339"
             d="M155.57031 184.15234C164.251363677 181.981054345 169.815417414 178.946133436 173.014675748 175.746875103L31.5933195106 317.16823134C28.3940611769 320.367489674 22.8300074396 323.402410582 14.1489537627 325.573696237Z"
             style="fill:#8a2219;fill-opacity:1" />
          <path
             id="path4341"
             d="M173.014675748 175.746875103C180.471936934 168.289613916 175.080661659 159.939465593 166.36719 159.55273L24.9458337627 300.974086237C33.6593054219 301.36082183 39.0505806971 309.710970153 31.5933195106 317.16823134Z"
             style="fill:#8a2219;fill-opacity:1" />
          <path
             id="path4343"
             d="M111.47266 160.74805C108.32471 160.82202 100.95313 161.46093 92.351562 165.38672L-49.0697942373 306.808076237C-40.4682262373 302.882286237 -33.0966462373 302.243376237 -29.9486962373 302.169406237Z"
             style="fill:#8a2219;fill-opacity:1" />
          <path
             id="path4345"
             d="M92.351562 165.38672C91.4376305682 165.805120979 90.8004076397 166.20830404 90.414172053 166.594539627L-51.0071841843 308.015895864C-50.6209485977 307.629660278 -49.9837256691 307.226477216 -49.0697942373 306.808076237Z"
             style="fill:#8a2219;fill-opacity:1" />
          <path
             id="path4347"
             d="M90.414172053 166.594539627C85.0885837885 171.920127891 127.481016239 174.023641566 150.16406 168.37109L8.74270376269 309.792446237C-13.9403399982 315.444997803 -56.3327724489 313.341484129 -51.0071841843 308.015895864Z"
             style="fill:#8a2219;fill-opacity:1" />
          <path
             id="path4349"
             d="M150.16406 168.37109C152.67969 166.69922 156.17969 165.30859 156.17969 165.30859L14.7583337627 306.729946237C14.7583337627 306.729946237 11.2583337627 308.120576237 8.74270376269 309.792446237Z"
             style="fill:#8a2219;fill-opacity:1" />
          <path
             id="path4351"
             d="M156.17969 165.30859C156.17969 165.30859 146.21094 166.98047 136.33594 167.74609L-5.08541623731 309.167446237C4.78958376269 308.401826237 14.7583337627 306.729946237 14.7583337627 306.729946237Z"
             style="fill:#8a2219;fill-opacity:1" />
          <path
             id="path4353"
             d="M136.33594 167.74609C124.16407 168.73047 111.14843 168.93359 104.63281 168.07422L-36.7885462373 309.495576237C-30.2729262373 310.354946237 -17.2572862373 310.151826237 -5.08541623731 309.167446237Z"
             style="fill:#8a2219;fill-opacity:1" />
          <path
             id="path4355"
             d="M104.63281 168.07422C99.684681241 167.450714356 98.7588287099 166.480077456 99.7914229125 165.447483253L-41.6299333248 306.868839491C-42.6625275274 307.901433693 -41.7366749963 308.872070594 -36.7885462373 309.495576237Z"
             style="fill:#8a2219;fill-opacity:1" />
          <path
             id="path4357"
             d="M99.7914229125 165.447483253C101.993427683 163.245478482 113.10156 160.76172 113.10156 160.76172L-28.3197962373 302.183076237C-28.3197962373 302.183076237 -39.4279285538 304.66683472 -41.6299333248 306.868839491Z"
             style="fill:#8a2219;fill-opacity:1" />
          <path
             id="path4359"
             d="M113.10156 160.76172C113.10156 160.76172 112.52197 160.72339 111.47266 160.74805L-29.9486962373 302.169406237C-28.8993862373 302.144746237 -28.3197962373 302.183076237 -28.3197962373 302.183076237Z"
             style="fill:#8a2219;fill-opacity:1" />
          <path
             id="path4361"
             d="M107.52344 174.91797C104.260595673 175.945457625 102.217290072 176.99329859 101.204046786 178.006541877L-40.2173094517 319.427898114C-39.2040661649 318.414654827 -37.1607605642 317.366813862 -33.8979162373 316.339326237Z"
             style="fill:#8a2219;fill-opacity:1" />
          <path
             id="path4363"
             d="M101.204046786 178.006541877C95.2835161857 183.927072477 124.531764405 188.666355994 151.14844 181.26172L9.72708376269 322.683076237C-16.8895918322 330.087712231 -46.1378400516 325.348428714 -40.2173094517 319.427898114Z"
             style="fill:#8a2219;fill-opacity:1" />
          <path
             id="path4365"
             d="M151.14844 181.26172C147.85156 180.16797 145.72656 178.12109 145.72656 178.12109L4.30520376269 319.542446237C4.30520376269 319.542446237 6.43020376269 321.589326237 9.72708376269 322.683076237Z"
             style="fill:#8a2219;fill-opacity:1" />
          <path
             id="path4367"
             d="M145.72656 178.12109C130.47656 180.90234 121.67969 180.80859 110.49219 179.71484L-30.9291662373 321.136196237C-19.7416662373 322.229946237 -10.9447962373 322.323696237 4.30520376269 319.542446237Z"
             style="fill:#8a2219;fill-opacity:1" />
          <path
             id="path4369"
             d="M110.49219 179.71484C104.123613076 179.114901594 105.54136626 176.785616886 106.719053495 175.60792965L-34.7023027422 317.029285888C-35.8799899777 318.206973123 -37.2977431617 320.536257831 -30.9291662373 321.136196237Z"
             style="fill:#8a2219;fill-opacity:1" />
          <path
             id="path4371"
             d="M106.719053495 175.60792965C107.13631479 175.190668355 107.52344 174.91797 107.52344 174.91797L-33.8979162373 316.339326237C-33.8979162373 316.339326237 -34.2850414473 316.612024593 -34.7023027422 317.029285888Z"
             style="fill:#8a2219;fill-opacity:1" />
          <path
             id="path4373"
             d="M107.52344 174.91797C107.52344 174.91797 107.52344 174.91797 107.52344 174.91797L-33.8979162373 316.339326237C-33.8979162373 316.339326237 -33.8979162373 316.339326237 -33.8979162373 316.339326237Z"
             style="fill:#8a2219;fill-opacity:1" />
          <path
             id="path4375"
             d="M110.69531 188.58984C107.818041217 189.351339975 106.007309543 190.228925395 105.09212102 191.144113918L-36.3292352171 332.565470156C-35.4140466939 331.650281632 -33.6033150205 330.772696212 -30.7260462373 330.011196237Z"
             style="fill:#8a2219;fill-opacity:1" />
          <path
             id="path4377"
             d="M105.09212102 191.144113918C99.5662810069 196.669953932 126.688848284 203.566673074 148.82031 194.55859L7.39895376269 335.979946237C-14.7325079529 344.988029311 -41.8550752304 338.091310169 -36.3292352171 332.565470156Z"
             style="fill:#8a2219;fill-opacity:1" />
          <path
             id="path4379"
             d="M148.82031 194.55859C144.58594 193.01172 141.58594 191.23047 141.58594 191.23047L0.164583762691 332.651826237C0.164583762691 332.651826237 3.16458376269 334.433076237 7.39895376269 335.979946237Z"
             style="fill:#8a2219;fill-opacity:1" />
          <path
             id="path4381"
             d="M141.58594 191.23047C130.07031 193.30859 124.74219 193.46484 114.27344 192.32422L-27.1479162373 333.745576237C-16.6791662373 334.886196237 -11.3510462373 334.729946237 0.164583762691 332.651826237Z"
             style="fill:#8a2219;fill-opacity:1" />
          <path
             id="path4383"
             d="M114.27344 192.32422C108.408431659 191.686719093 108.865313988 190.189438429 109.758291018 189.296461398L-31.663065219 330.717817636C-32.5560422497 331.610794666 -33.0129245787 333.108075331 -27.1479162373 333.745576237Z"
             style="fill:#8a2219;fill-opacity:1" />
          <path
             id="path4385"
             d="M109.758291018 189.296461398C110.178513636 188.876238781 110.69531 188.58984 110.69531 188.58984L-30.7260462373 330.011196237C-30.7260462373 330.011196237 -31.2428426015 330.297595018 -31.663065219 330.717817636Z"
             style="fill:#8a2219;fill-opacity:1" />
          <path
             id="path4387"
             d="M110.69531 188.58984C110.69531 188.58984 110.69531 188.58984 110.69531 188.58984L-30.7260462373 330.011196237C-30.7260462373 330.011196237 -30.7260462373 330.011196237 -30.7260462373 330.011196237Z"
             style="fill:#8a2219;fill-opacity:1" />
          <path
             id="path4389"
             d="M96.605469 197.67969C91.2928392694 197.831507283 83.010339648 200.538858523 80.2850056248 203.264192547L-61.1363506125 344.685548784C-58.4110165893 341.960214761 -50.1285169679 339.25286352 -44.8158872373 339.101046237Z"
             style="fill:#8a2219;fill-opacity:1" />
          <path
             id="path4391"
             d="M80.2850056248 203.264192547C78.3431530204 205.206045151 79.2225816901 207.157027317 86.007812 208.19922L-55.4135442373 349.620576237C-62.1987745472 348.578383555 -63.0782032169 346.627401388 -61.1363506125 344.685548784Z"
             style="fill:#8a2219;fill-opacity:1" />
          <path
             id="path4393"
             d="M86.007812 208.19922C128.111150636 214.676656344 164.23999385 208.464548702 169.982805404 202.721737148L28.561449167 344.143093386C22.8186376128 349.88590494 -13.310205601 356.098012581 -55.4135442373 349.620576237Z"
             style="fill:#8a2219;fill-opacity:1" />
          <path
             id="path4395"
             d="M169.982805404 202.721737148C171.415808254 201.288734299 170.956820553 199.884952236 168.22656 198.71484L26.8052037627 340.136196237C29.5354643154 341.306308473 29.9944520167 342.710090536 28.561449167 344.143093386Z"
             style="fill:#8a2219;fill-opacity:1" />
          <path
             id="path4397"
             d="M168.22656 198.71484C168.22656 198.71484 170.084844072 200.170495856 168.443511552 201.811828376L27.0221553147 343.233184613C28.6634878344 341.591852094 26.8052037627 340.136196237 26.8052037627 340.136196237Z"
             style="fill:#8a2219;fill-opacity:1" />
          <path
             id="path4399"
             d="M168.443511552 201.811828376C167.753232748 202.50210718 166.443974259 203.225226749 164.11719 203.88672L22.6958337627 345.308076237C25.0226180219 344.646582986 26.3318765102 343.923463418 27.0221553147 343.233184613Z"
             style="fill:#8a2219;fill-opacity:1" />
          <path
             id="path4401"
             d="M164.11719 203.88672C149.22656 208.15234 102.14844 209.44922 89.054688 204.04297L-52.3666682373 345.464326237C-39.2729162373 350.870576237 7.80520376269 349.573696237 22.6958337627 345.308076237Z"
             style="fill:#8a2219;fill-opacity:1" />
          <path
             id="path4403"
             d="M89.054688 204.04297C87.5030501801 203.40986039 87.4353693317 202.68540329 88.1401234676 201.980649154L-53.2812327697 343.402005391C-53.9859869056 344.106759527 -53.9183060572 344.831216627 -52.3666682373 345.464326237Z"
             style="fill:#8a2219;fill-opacity:1" />
          <path
             id="path4405"
             d="M88.1401234676 201.980649154C89.5573361279 200.563436493 94.0981581465 199.225899617 95.976562 198.87109L-45.4447942373 340.292446237C-47.3231980908 340.647255854 -51.8640201094 341.984792731 -53.2812327697 343.402005391Z"
             style="fill:#8a2219;fill-opacity:1" />
          <path
             id="path4407"
             d="M95.976562 198.87109C98.867188 198.26172 100.49219 198.38672 100.49219 198.38672L-40.9291662373 339.808076237C-40.9291662373 339.808076237 -42.5541682373 339.683076237 -45.4447942373 340.292446237Z"
             style="fill:#8a2219;fill-opacity:1" />
          <path
             id="path4409"
             d="M100.49219 198.38672C99.676758 197.83984 98.29028 197.63154 96.605469 197.67969L-44.8158872373 339.101046237C-43.1310762373 339.052896237 -41.7445982373 339.261196237 -40.9291662373 339.808076237Z"
             style="fill:#8a2219;fill-opacity:1" />
          <path
             id="path4411"
             d="M176.61719 205.10547C176.61719 205.10547 176.519288708 205.341530353 176.11602623 205.744792831L34.6946699931 347.166149068C35.0979324709 346.76288659 35.1958337627 346.526826237 35.1958337627 346.526826237Z"
             style="fill:#8a2219;fill-opacity:1" />
          <path
             id="path4413"
             d="M176.11602623 205.744792831C174.852823871 207.00799519 170.59333002 209.911832729 156.96094 212.33984L15.5395837627 353.761196237C29.1719737825 351.333188967 33.4314676342 348.429351427 34.6946699931 347.166149068Z"
             style="fill:#8a2219;fill-opacity:1" />
          <path
             id="path4415"
             d="M156.96094 212.33984C136.69531 215.91797 111.71094 215.51172 96.914062 213.19922L-44.5072942373 354.620576237C-29.7104162373 356.933076237 -4.72604623731 357.339326237 15.5395837627 353.761196237Z"
             style="fill:#8a2219;fill-opacity:1" />
          <path
             id="path4417"
             d="M96.914062 213.19922C96.914062 213.19922 99.960933 215.60547 115.53906 216.54297L-25.8822962373 357.964326237C-41.4604232373 357.026826237 -44.5072942373 354.620576237 -44.5072942373 354.620576237Z"
             style="fill:#8a2219;fill-opacity:1" />
          <path
             id="path4419"
             d="M115.53906 216.54297C136.434159388 217.795570896 167.212152856 216.198512421 174.86366206 208.547003217L33.4423058228 349.968359454C25.7907966187 357.619868658 -4.98719684935 359.216927133 -25.8822962373 357.964326237Z"
             style="fill:#8a2219;fill-opacity:1" />
          <path
             id="path4421"
             d="M174.86366206 208.547003217C175.897641929 207.513023348 176.509303818 206.368481779 176.61719 205.10547L35.1958337627 346.526826237C35.0879475805 347.789838016 34.4762856919 348.934379585 33.4423058228 349.968359454Z"
             style="fill:#8a2219;fill-opacity:1" />
        </g>
        <path
           id="path4238"
           transform=""
           d="M 141.17969 91.949219 C 146.71094 112.58984 121.67969 118.8086 112.64844 131.66797 C 106.50782 140.41797 115.71094 149.80859 128.19531 160.51172 C 123.30469 150.05859 106.78907 140.9336 128.19531 124.91797 C 154.88281 104.93359 141.17969 91.949219 141.17969 91.949219 z M 157.69531 117.46484 C 157.69531 117.46484 112.57032 128.16797 134.13281 151.73047 C 140.47656 158.63672 132.42969 164.90234 132.42969 164.90234 C 132.42969 164.90234 148.58594 156.96484 141.17969 147.08984 C 134.25781 137.85547 128.92969 133.29296 157.69531 117.46484 z M 166.36719 159.55273 C 164.58838 159.47379 162.66992 159.72656 160.69531 160.38672 C 159.27344 160.83984 158.58594 161.93359 158.58594 161.93359 C 158.58594 161.93359 159.44531 161.57422 161.39844 161.19922 C 169.36719 159.62109 180.80469 171.33984 156.07031 183.49609 C 155.97656 183.82422 155.57031 184.15234 155.57031 184.15234 C 184.48633 176.91993 178.81885 160.10538 166.36719 159.55273 z M 111.47266 160.74805 C 108.32471 160.82202 100.95313 161.46093 92.351562 165.38672 C 78.835937 171.57422 125.83594 174.43359 150.16406 168.37109 C 152.67969 166.69922 156.17969 165.30859 156.17969 165.30859 C 156.17969 165.30859 146.21094 166.98047 136.33594 167.74609 C 124.16407 168.73047 111.14843 168.93359 104.63281 168.07422 C 89.132808 166.12109 113.10156 160.76172 113.10156 160.76172 C 113.10156 160.76172 112.52197 160.72339 111.47266 160.74805 z M 107.52344 174.91797 C 85.195313 181.94922 119.97657 189.93359 151.14844 181.26172 C 147.85156 180.16797 145.72656 178.12109 145.72656 178.12109 C 130.47656 180.90234 121.67969 180.80859 110.49219 179.71484 C 101.86719 178.90234 107.52344 174.91797 107.52344 174.91797 z M 110.69531 188.58984 C 90.445307 193.94922 123.02344 205.05859 148.82031 194.55859 C 144.58594 193.01172 141.58594 191.23047 141.58594 191.23047 C 130.07031 193.30859 124.74219 193.46484 114.27344 192.32422 C 105.64844 191.38672 110.69531 188.58984 110.69531 188.58984 z M 96.605469 197.67969 C 87.507489 197.93968 69.699707 205.69434 86.007812 208.19922 C 138.61719 216.29297 181.89844 204.57422 168.22656 198.71484 C 168.22656 198.71484 171.97656 201.65234 164.11719 203.88672 C 149.22656 208.15234 102.14844 209.44922 89.054688 204.04297 C 84.382812 202.13672 93.164062 199.40234 95.976562 198.87109 C 98.867188 198.26172 100.49219 198.38672 100.49219 198.38672 C 99.676758 197.83984 98.29028 197.63154 96.605469 197.67969 z M 176.61719 205.10547 C 176.61719 205.10547 174.94531 209.13672 156.96094 212.33984 C 136.69531 215.91797 111.71094 215.51172 96.914062 213.19922 C 96.914062 213.19922 99.960933 215.60547 115.53906 216.54297 C 139.2578 217.96484 175.71094 215.71484 176.61719 205.10547 z "
           style="fill:#8a2219;fill-opacity:1;fill-rule:evenodd;stroke:none" />
      </g>
    </g>
    <g
       id="g4231"
       transform="translate(-0.00754619,809.46746)">
      <path
         inkscape:connector-curvature="0"
         id="path4233"
         d="m 110.70313,175.48437 c 0,0 -5.04688,2.79688 3.57812,3.73438 10.46875,1.14062 15.79687,0.98437 27.3125,-1.09375 0,0 3,1.78125 7.23437,3.32812 -25.79687,10.5 -58.374995,-0.60937 -38.12499,-5.96875"
         style="fill:#ffffff;fill-opacity:1;fill-rule:evenodd;stroke:none" />
      <path
         inkscape:connector-curvature="0"
         id="path4235"
         d="m 107.53125,161.8125 c 0,0 -5.65625,3.98437 2.96875,4.79687 11.1875,1.09375 19.98437,1.1875 35.23437,-1.59375 0,0 2.125,2.04688 5.42188,3.14063 -31.17187,8.67187 -65.953125,0.6875 -43.625,-6.34375"
         style="fill:#ffffff;fill-opacity:1;fill-rule:evenodd;stroke:none" />
      <path
         inkscape:connector-curvature="0"
         id="path4237"
         d="m 134.14062,138.625 c 6.34375,6.90625 -1.70312,13.17187 -1.70312,13.17187 0,0 16.15625,-7.9375 8.75,-17.8125 -6.92188,-9.23437 -12.25,-13.79687 16.51562,-29.62499 0,0 -45.12499,10.70312 -23.5625,34.26562"
         style="fill:#ffffff;fill-opacity:1;fill-rule:evenodd;stroke:none" />
      <path
         inkscape:connector-curvature="0"
         id="path4239"
         d="m 168.23437,185.60937 c 0,0 3.75,2.9375 -4.10937,5.17188 -14.89063,4.26562 -61.96875,5.5625 -75.0625,0.15625 -4.671875,-1.90625 4.109375,-4.64063 6.921875,-5.17188 C 98.875,185.15625 100.5,185.28125 100.5,185.28125 c -5.21875,-3.5 -33.8125,6.84375 -14.484375,9.8125 52.609375,8.09375 95.890625,-3.625 82.218745,-9.48438"
         style="fill:#ffffff;fill-opacity:1;fill-rule:evenodd;stroke:none" />
      <path
         inkscape:connector-curvature="0"
         id="path4241"
         d="m 113.10938,147.65625 c 0,0 -23.968755,5.35937 -8.46875,7.3125 6.51562,0.85937 19.53125,0.65625 31.70312,-0.32813 9.875,-0.76562 19.84375,-2.4375 19.84375,-2.4375 0,0 -3.5,1.39063 -6.01563,3.0625 -24.32812,6.0625 -71.32812,3.20313 -57.812495,-2.98437 11.468755,-5.23438 20.750005,-4.625 20.750005,-4.625"
         style="fill:#ffffff;fill-opacity:1;fill-rule:evenodd;stroke:none" />
      <path
         inkscape:connector-curvature="0"
         id="path4243"
         d="m 156.07812,170.39062 c 24.73438,-12.15625 13.29688,-23.875 5.32813,-22.29687 -1.95313,0.375 -2.8125,0.73437 -2.8125,0.73437 0,0 0.6875,-1.09375 2.10937,-1.54687 15.79688,-5.28125 27.92188,15.5 -5.125,23.76562 0,0 0.40625,-0.32812 0.5,-0.65625"
         style="fill:#ffffff;fill-opacity:1;fill-rule:evenodd;stroke:none" />
      <path
         inkscape:connector-curvature="0"
         id="path4245"
         d="m 141.1875,78.84375 c 0,0 13.70312,12.984375 -12.98438,32.96875 -21.40624,16.01563 -4.89062,25.14062 0,35.59375 -12.48437,-10.70313 -21.68749,-20.09375 -15.54687,-28.84375 9.03125,-12.85937 34.0625,-19.078125 28.53125,-39.71875"
         style="fill:#ffffff;fill-opacity:1;fill-rule:evenodd;stroke:none" />
      <path
         inkscape:connector-curvature="0"
         id="path4247"
         d="m 115.54688,203.4375 c 23.71874,1.42187 60.17187,-0.82813 61.07812,-11.4375 0,0 -1.67188,4.03125 -19.65625,7.23437 -20.26563,3.57813 -45.25,3.17188 -60.046875,0.85938 0,0 3.046875,2.40625 18.625005,3.34375"
         style="fill:#ffffff;fill-opacity:1;fill-rule:evenodd;stroke:none" />
    </g>
  </g>
</svg>
