<?xml version="1.0" encoding="UTF-8" standalone="no"?>
<!-- Created with Inkscape (http://www.inkscape.org/) -->

<svg
   xmlns:dc="http://purl.org/dc/elements/1.1/"
   xmlns:cc="http://creativecommons.org/ns#"
   xmlns:rdf="http://www.w3.org/1999/02/22-rdf-syntax-ns#"
   xmlns:svg="http://www.w3.org/2000/svg"
   xmlns="http://www.w3.org/2000/svg"
   xmlns:sodipodi="http://sodipodi.sourceforge.net/DTD/sodipodi-0.dtd"
   xmlns:inkscape="http://www.inkscape.org/namespaces/inkscape"
   sodipodi:docname="text-x-csharp.svg"
   inkscape:version="0.91 r13725"
   version="1.1"
   id="svg2"
   viewBox="0 0 256 256"
   height="256"
   width="256">
  <sodipodi:namedview
     inkscape:window-maximized="1"
     inkscape:window-y="0"
     inkscape:window-x="0"
     inkscape:window-height="1033"
     inkscape:window-width="1920"
     units="px"
     showgrid="false"
     inkscape:current-layer="layer1"
     inkscape:document-units="px"
     inkscape:cy="128"
     inkscape:cx="127.6956"
     inkscape:zoom="3.2851562"
     inkscape:pageshadow="2"
     inkscape:pageopacity="0.0"
     borderopacity="1.0"
     bordercolor="#666666"
     pagecolor="#ffffff"
     id="base" />
  <defs
     id="defs4">
    <filter
       id="filter4301"
       inkscape:label="Drop Shadow"
       style="color-interpolation-filters:sRGB;">
      <feFlood
         id="feFlood4303"
         result="flood"
         flood-color="rgb(0,0,0)"
         flood-opacity="0.498039" />
      <feComposite
         id="feComposite4305"
         result="composite1"
         operator="in"
         in2="SourceGraphic"
         in="flood" />
      <feGaussianBlur
         id="feGaussianBlur4307"
         result="blur"
         stdDeviation="3.7"
         in="composite1" />
      <feOffset
         id="feOffset4309"
         result="offset"
         dy="3.7"
         dx="3.8" />
      <feComposite
         id="feComposite4311"
         result="composite2"
         operator="over"
         in2="offset"
         in="SourceGraphic" />
    </filter>
    <clipPath
       clipPathUnits="userSpaceOnUse"
       id="clipPath4266">
      <path
         style="fill:#db4437;fill-opacity:1"
         d="m 153.38672,796.84847 -105.781251,0 c -7.804357,0 -14.087891,6.28158 -14.087891,14.08594 l 0,227.33989 c 0,7.8043 6.283534,14.0878 14.087891,14.0878 l 165.162111,0 c 7.80436,0 14.08594,-6.2835 14.08594,-14.0878 l 0,-154.82232 -73.4668,-86.60351 z"
         id="path4268"
         inkscape:connector-curvature="0" />
    </clipPath>
    <clipPath
       id="clipPath6236"
       clipPathUnits="userSpaceOnUse">
      <path
         inkscape:connector-curvature="0"
         style="fill:#db4437;fill-opacity:1"
         d="m 153.38672,796.84847 -105.781251,0 c -7.804357,0 -14.087891,6.28158 -14.087891,14.08594 l 0,227.33989 c 0,7.8043 6.283534,14.0878 14.087891,14.0878 l 165.162111,0 c 7.80436,0 14.08594,-6.2835 14.08594,-14.0878 l 0,-154.82232 -73.4668,-86.60351 z"
         id="path6238" />
    </clipPath>
    <clipPath
       clipPathUnits="userSpaceOnUse"
       id="clipPath4403">
      <g
         id="g4405"
         transform="translate(-64.0761,60.42331)">
        <path
           style="fill:#db4437;fill-opacity:1"
           d="M 191.91204,736.33471 A 128,128 0 0 0 64.0761,864.32885 a 128,128 0 0 0 128,128.00001 128,128 0 0 0 127.99219,-127.8379 L 191.91204,736.33471 Z m 12.42383,0.60742 a 128,128 0 0 1 7.76757,1.1211 128,128 0 0 0 -7.76757,-1.1211 z m 12.58789,1.84961 a 128,128 0 0 1 8.42187,2.08984 128,128 0 0 0 -8.42187,-2.08984 z m 12.36328,3.09766 a 128,128 0 0 1 8.94531,3.19726 128,128 0 0 0 -8.94531,-3.19726 z m 11.98437,4.30468 a 128,128 0 0 1 9.34375,4.43946 128,128 0 0 0 -9.34375,-4.43946 z m 11.49805,5.47852 a 128,128 0 0 1 9.49414,5.73438 128,128 0 0 0 -9.49414,-5.73438 z m 10.90625,6.59961 a 128,128 0 0 1 9.66016,7.24414 128,128 0 0 0 -9.66016,-7.24414 z m 10.17773,7.63867 a 128,128 0 0 1 9.38868,8.62891 128,128 0 0 0 -9.38868,-8.62891 z m 9.38868,8.62891 0.98046,0.98047 a 128,128 0 0 0 -0.98046,-0.98047 z m 7.65039,8.57226 a 128,128 0 0 1 4.5039,5.92188 128,128 0 0 0 -4.5039,-5.92188 z m 7.63867,10.30469 a 128,128 0 0 1 3.81054,6.21289 128,128 0 0 0 -3.81054,-6.21289 z m 6.57617,11.03125 a 128,128 0 0 1 3.08203,6.37695 128,128 0 0 0 -3.08203,-6.37695 z m 5.4375,11.63867 a 128,128 0 0 1 2.37695,6.50782 128,128 0 0 0 -2.37695,-6.50782 z m 4.23242,12.09375 a 128,128 0 0 1 1.68555,6.59375 128,128 0 0 0 -1.68555,-6.59375 z m 3.00781,12.48633 a 128,128 0 0 1 0.99024,6.53906 128,128 0 0 0 -0.99024,-6.53906 z m 1.74024,12.71094 a 128,128 0 0 1 0.55078,10.95117 128,128 0 0 0 -0.55078,-10.95117 z"
           id="path4407"
           inkscape:connector-curvature="0" />
        <path
           style="fill:#ef7e74;fill-opacity:1"
           d="m 319.69025,863.71092 a 128,128 0 0 0 0.16406,-0.006 L 191.69807,735.5488 a 128,128 0 0 0 -0.008,0.16211 128,128 0 0 0 35.85352,88.80861 l 0.98046,0.98046 a 128,128 0 0 0 91.16603,38.21094 z"
           id="path4409"
           inkscape:connector-curvature="0" />
      </g>
    </clipPath>
  </defs>
  <metadata
     id="metadata7">
    <rdf:RDF>
      <cc:Work
         rdf:about="">
        <dc:format>image/svg+xml</dc:format>
        <dc:type
           rdf:resource="http://purl.org/dc/dcmitype/StillImage" />
        <dc:title />
      </cc:Work>
    </rdf:RDF>
  </metadata>
  <g
     transform="translate(0,-796.36214)"
     id="layer1"
     inkscape:groupmode="layer"
     inkscape:label="Layer 1">
    <g
       transform="translate(-64.0761,60.42331)"
       id="g4217">
      <path
         inkscape:connector-curvature="0"
         id="path4957"
         d="M 191.91204,736.33471 A 128,128 0 0 0 64.0761,864.32885 a 128,128 0 0 0 128,128.00001 128,128 0 0 0 127.99219,-127.8379 L 191.91204,736.33471 Z m 12.42383,0.60742 a 128,128 0 0 1 7.76757,1.1211 128,128 0 0 0 -7.76757,-1.1211 z m 12.58789,1.84961 a 128,128 0 0 1 8.42187,2.08984 128,128 0 0 0 -8.42187,-2.08984 z m 12.36328,3.09766 a 128,128 0 0 1 8.94531,3.19726 128,128 0 0 0 -8.94531,-3.19726 z m 11.98437,4.30468 a 128,128 0 0 1 9.34375,4.43946 128,128 0 0 0 -9.34375,-4.43946 z m 11.49805,5.47852 a 128,128 0 0 1 9.49414,5.73438 128,128 0 0 0 -9.49414,-5.73438 z m 10.90625,6.59961 a 128,128 0 0 1 9.66016,7.24414 128,128 0 0 0 -9.66016,-7.24414 z m 10.17773,7.63867 a 128,128 0 0 1 9.38868,8.62891 128,128 0 0 0 -9.38868,-8.62891 z m 9.38868,8.62891 0.98046,0.98047 a 128,128 0 0 0 -0.98046,-0.98047 z m 7.65039,8.57226 a 128,128 0 0 1 4.5039,5.92188 128,128 0 0 0 -4.5039,-5.92188 z m 7.63867,10.30469 a 128,128 0 0 1 3.81054,6.21289 128,128 0 0 0 -3.81054,-6.21289 z m 6.57617,11.03125 a 128,128 0 0 1 3.08203,6.37695 128,128 0 0 0 -3.08203,-6.37695 z m 5.4375,11.63867 a 128,128 0 0 1 2.37695,6.50782 128,128 0 0 0 -2.37695,-6.50782 z m 4.23242,12.09375 a 128,128 0 0 1 1.68555,6.59375 128,128 0 0 0 -1.68555,-6.59375 z m 3.00781,12.48633 a 128,128 0 0 1 0.99024,6.53906 128,128 0 0 0 -0.99024,-6.53906 z m 1.74024,12.71094 a 128,128 0 0 1 0.55078,10.95117 128,128 0 0 0 -0.55078,-10.95117 z"
         style="fill:#db4437;fill-opacity:1" />
      <path
         inkscape:connector-curvature="0"
         id="rect4961"
         d="m 319.69025,863.71092 a 128,128 0 0 0 0.16406,-0.006 L 191.69807,735.5488 a 128,128 0 0 0 -0.008,0.16211 128,128 0 0 0 35.85352,88.80861 l 0.98046,0.98046 a 128,128 0 0 0 91.16603,38.21094 z"
         style="fill:#ef7e74;fill-opacity:1" />
    </g>
    <g
       id="text4221"
       style="font-style:normal;font-variant:normal;font-weight:bold;font-stretch:normal;font-size:100.13908386px;line-height:125%;font-family:FreeSerif;-inkscape-font-specification:'FreeSerif Bold';letter-spacing:0px;word-spacing:0px;fill:#8d3e38;fill-opacity:1;stroke:none;stroke-width:1px;stroke-linecap:butt;stroke-linejoin:miter;stroke-opacity:1"
       clip-path="url(#clipPath4403)">
      <g
         id="g4251"
         style="fill:#8d3e38;fill-opacity:1">
        <g
           id="g4253"
           style="fill:#8d3e38;fill-opacity:1">
          <path
             id="path4255"
             d="M183.57876 949.91857L183.57876 957.22873L42.1574037627 1098.65008624L42.1574037627 1091.33992624Z"
             style="fill:#8d3e38;fill-opacity:1" />
          <path
             id="path4257"
             d="M183.57876 957.22873L173.76513 957.22873L32.3437737627 1098.65008624L42.1574037627 1098.65008624Z"
             style="fill:#8d3e38;fill-opacity:1" />
          <path
             id="path4259"
             d="M173.76513 957.22873L170.86109 978.25793L29.4397337627 1119.67928624L32.3437737627 1098.65008624Z"
             style="fill:#8d3e38;fill-opacity:1" />
          <path
             id="path4261"
             d="M170.86109 978.25793L163.05024 978.25793L21.6288837627 1119.67928624L29.4397337627 1119.67928624Z"
             style="fill:#8d3e38;fill-opacity:1" />
          <path
             id="path4263"
             d="M163.05024 978.25793L165.95428 957.22873L24.5329237627 1098.65008624L21.6288837627 1119.67928624Z"
             style="fill:#8d3e38;fill-opacity:1" />
          <path
             id="path4265"
             d="M165.95428 957.22873L154.63856 957.22873L13.2172037627 1098.65008624L24.5329237627 1098.65008624Z"
             style="fill:#8d3e38;fill-opacity:1" />
          <path
             id="path4267"
             d="M154.63856 957.22873L151.73453 978.25793L10.3131737627 1119.67928624L13.2172037627 1098.65008624Z"
             style="fill:#8d3e38;fill-opacity:1" />
          <path
             id="path4269"
             d="M151.73453 978.25793L143.92368 978.25793L2.50232376269 1119.67928624L10.3131737627 1119.67928624Z"
             style="fill:#8d3e38;fill-opacity:1" />
          <path
             id="path4271"
             d="M143.92368 978.25793L146.82771 957.22873L5.40635376269 1098.65008624L2.50232376269 1119.67928624Z"
             style="fill:#8d3e38;fill-opacity:1" />
          <path
             id="path4273"
             d="M146.82771 957.22873L137.21436 957.22873L-4.20699623731 1098.65008624L5.40635376269 1098.65008624Z"
             style="fill:#8d3e38;fill-opacity:1" />
          <path
             id="path4275"
             d="M137.21436 957.22873L137.21436 949.91857L-4.20699623731 1091.33992624L-4.20699623731 1098.65008624Z"
             style="fill:#8d3e38;fill-opacity:1" />
          <path
             id="path4277"
             d="M137.21436 949.91857L147.92924 949.91857L6.50788376269 1091.33992624L-4.20699623731 1091.33992624Z"
             style="fill:#8d3e38;fill-opacity:1" />
          <path
             id="path4279"
             d="M147.92924 949.91857L149.73175 936.49994L8.31039376269 1077.92129624L6.50788376269 1091.33992624Z"
             style="fill:#8d3e38;fill-opacity:1" />
          <path
             id="path4281"
             d="M149.73175 936.49994L140.11839 936.49994L-1.30296623731 1077.92129624L8.31039376269 1077.92129624Z"
             style="fill:#8d3e38;fill-opacity:1" />
          <path
             id="path4283"
             d="M140.11839 936.49994L140.11839 929.18978L-1.30296623731 1070.61113624L-1.30296623731 1077.92129624Z"
             style="fill:#8d3e38;fill-opacity:1" />
          <path
             id="path4285"
             d="M140.11839 929.18978L150.73314 929.18978L9.31178376269 1070.61113624L-1.30296623731 1070.61113624Z"
             style="fill:#8d3e38;fill-opacity:1" />
          <path
             id="path4287"
             d="M150.73314 929.18978L153.73731 908.16058L12.3159537627 1049.58193624L9.31178376269 1070.61113624Z"
             style="fill:#8d3e38;fill-opacity:1" />
          <path
             id="path4289"
             d="M153.73731 908.16058L161.44802 908.16058L20.0266637627 1049.58193624L12.3159537627 1049.58193624Z"
             style="fill:#8d3e38;fill-opacity:1" />
          <path
             id="path4291"
             d="M161.44802 908.16058L158.54399 929.18978L17.1226337627 1070.61113624L20.0266637627 1049.58193624Z"
             style="fill:#8d3e38;fill-opacity:1" />
          <path
             id="path4293"
             d="M158.54399 929.18978L169.8597 929.18978L28.4383437627 1070.61113624L17.1226337627 1070.61113624Z"
             style="fill:#8d3e38;fill-opacity:1" />
          <path
             id="path4295"
             d="M169.8597 929.18978L172.86387 908.16058L31.4425137627 1049.58193624L28.4383437627 1070.61113624Z"
             style="fill:#8d3e38;fill-opacity:1" />
          <path
             id="path4297"
             d="M172.86387 908.16058L180.57458 908.16058L39.1532237627 1049.58193624L31.4425137627 1049.58193624Z"
             style="fill:#8d3e38;fill-opacity:1" />
          <path
             id="path4299"
             d="M180.57458 908.16058L177.67055 929.18978L36.2491937627 1070.61113624L39.1532237627 1049.58193624Z"
             style="fill:#8d3e38;fill-opacity:1" />
          <path
             id="path4301"
             d="M177.67055 929.18978L186.48279 929.18978L45.0614337627 1070.61113624L36.2491937627 1070.61113624Z"
             style="fill:#8d3e38;fill-opacity:1" />
          <path
             id="path4303"
             d="M186.48279 929.18978L186.48279 936.49994L45.0614337627 1077.92129624L45.0614337627 1070.61113624Z"
             style="fill:#8d3e38;fill-opacity:1" />
          <path
             id="path4305"
             d="M186.48279 936.49994L176.66916 936.49994L35.2478037627 1077.92129624L45.0614337627 1077.92129624Z"
             style="fill:#8d3e38;fill-opacity:1" />
          <path
             id="path4307"
             d="M176.66916 936.49994L174.86666 949.91857L33.4453037627 1091.33992624L35.2478037627 1077.92129624Z"
             style="fill:#8d3e38;fill-opacity:1" />
          <path
             id="path4309"
             d="M174.86666 949.91857L183.57876 949.91857L42.1574037627 1091.33992624L33.4453037627 1091.33992624Z"
             style="fill:#8d3e38;fill-opacity:1" />
          <path
             id="path4311"
             d="M168.85831 936.49994L157.54259 936.49994L16.1212337627 1077.92129624L27.4369537627 1077.92129624Z"
             style="fill:#8d3e38;fill-opacity:1" />
          <path
             id="path4313"
             d="M157.54259 936.49994L155.74009 949.91857L14.3187337627 1091.33992624L16.1212337627 1077.92129624Z"
             style="fill:#8d3e38;fill-opacity:1" />
          <path
             id="path4315"
             d="M155.74009 949.91857L167.05581 949.91857L25.6344537627 1091.33992624L14.3187337627 1091.33992624Z"
             style="fill:#8d3e38;fill-opacity:1" />
          <path
             id="path4317"
             d="M167.05581 949.91857L168.85831 936.49994L27.4369537627 1077.92129624L25.6344537627 1091.33992624Z"
             style="fill:#8d3e38;fill-opacity:1" />
        </g>
        <path
           id="path4228"
           style="fill:#8d3e38;fill-opacity:1"
           d="m 183.57876,949.91857 0,7.31016 -9.81363,0 -2.90404,21.0292 -7.81085,0 2.90404,-21.0292 -11.31572,0 -2.90403,21.0292 -7.81085,0 2.90403,-21.0292 -9.61335,0 0,-7.31016 10.71488,0 1.80251,-13.41863 -9.61336,0 0,-7.31016 10.61475,0 3.00417,-21.0292 7.71071,0 -2.90403,21.0292 11.31571,0 3.00417,-21.0292 7.71071,0 -2.90403,21.0292 8.81224,0 0,7.31016 -9.81363,0 -1.8025,13.41863 8.7121,0 z m -14.72045,-13.41863 -11.31572,0 -1.8025,13.41863 11.31572,0 1.8025,-13.41863 z" />
      </g>
      <g
         id="g4320"
         style="fill:#8d3e38;fill-opacity:1">
        <g
           id="g4322"
           style="fill:#8d3e38;fill-opacity:1">
          <path
             id="path4324"
             d="M130.40178 963.03679L133.40595 965.54027L-8.01540623731 1106.96162624L-11.0195762373 1104.45814624Z"
             style="fill:#8d3e38;fill-opacity:1" />
          <path
             id="path4326"
             d="M133.40595 965.54027L132.10414 967.04236L-9.31721623731 1108.46371624L-8.01540623731 1106.96162624Z"
             style="fill:#8d3e38;fill-opacity:1" />
          <path
             id="path4328"
             d="M128.89969 909.36224L131.60344 909.36224L-9.81791623731 1050.78359624L-12.5216662373 1050.78359624Z"
             style="fill:#8d3e38;fill-opacity:1" />
          <path
             id="path4330"
             d="M131.60344 909.36224L131.60344 932.79479L-9.81791623731 1074.21614624L-9.81791623731 1050.78359624Z"
             style="fill:#8d3e38;fill-opacity:1" />
          <path
             id="path4332"
             d="M131.60344 932.79479L129.09997 932.79479L-12.3213862373 1074.21614624L-9.81791623731 1074.21614624Z"
             style="fill:#8d3e38;fill-opacity:1" />
        </g>
        <path
           id="path4226"
           style="fill:#8d3e38;fill-opacity:1"
           d="m 107.36979,975.3539 q 6.60918,0 12.01669,-3.20445 5.40751,-3.20445 11.0153,-9.11266 l 3.00417,2.50348 -1.30181,1.50209 q -1.30181,1.40194 -1.70236,1.8025 -0.30042,0.30042 -1.80251,1.8025 -1.40195,1.40195 -2.20306,2.00279 -0.80111,0.60083 -2.50348,1.90264 -1.70236,1.20167 -3.00417,1.8025 -1.20167,0.60084 -3.20445,1.50209 -2.00278,0.80111 -3.90542,1.20167 -1.80251,0.50069 -4.10571,0.80111 -2.30319,0.30042 -4.70653,0.30042 -15.52156,0 -25.535468,-9.91377 -9.91377,-9.91377 -9.91377,-25.33519 0,-15.32128 9.91377,-25.53547 10.013908,-10.31432 24.934628,-10.31432 4.70654,0 8.81224,1.30181 4.20584,1.20166 7.00974,2.40333 2.80389,1.20167 4.30598,1.20167 1.40195,0 2.40334,-1.00139 1.00139,-1.00139 2.00278,-3.60501 l 2.70375,0 0,23.43255 -2.50347,0 q -1.00139,-2.20306 -2.10292,-4.1057 -1.10153,-2.00278 -3.40473,-5.20723 -2.3032,-3.20445 -4.70654,-5.40751 -2.40334,-2.3032 -6.00834,-4.00557 -3.50487,-1.70236 -7.21002,-1.70236 -9.012516,0 -13.719053,8.11126 -4.706537,8.11127 -4.706537,23.63283 0,31.24339 20.12796,31.24339 z" />
      </g>
    </g>
    <text
       sodipodi:linespacing="125%"
       id="text6008"
       y="978.25793"
       x="66.012344"
       style="font-style:normal;font-variant:normal;font-weight:bold;font-stretch:normal;font-size:100.13908386px;line-height:125%;font-family:FreeSerif;-inkscape-font-specification:'FreeSerif Bold';letter-spacing:0px;word-spacing:0px;fill:#ffffff;fill-opacity:1;stroke:none;stroke-width:1px;stroke-linecap:butt;stroke-linejoin:miter;stroke-opacity:1"
       xml:space="preserve"><tspan
         y="978.25793"
         x="66.012344"
         id="tspan6010"
         sodipodi:role="line">C#</tspan></text>
  </g>
</svg>
