<?xml version="1.0" encoding="UTF-8" standalone="no"?>
<!-- Created with Inkscape (http://www.inkscape.org/) -->

<svg
   xmlns:dc="http://purl.org/dc/elements/1.1/"
   xmlns:cc="http://creativecommons.org/ns#"
   xmlns:rdf="http://www.w3.org/1999/02/22-rdf-syntax-ns#"
   xmlns:svg="http://www.w3.org/2000/svg"
   xmlns="http://www.w3.org/2000/svg"
   xmlns:sodipodi="http://sodipodi.sourceforge.net/DTD/sodipodi-0.dtd"
   xmlns:inkscape="http://www.inkscape.org/namespaces/inkscape"
   sodipodi:docname="text-x-ddsrc.svg"
   inkscape:version="0.91 r13725"
   version="1.1"
   id="svg2"
   viewBox="0 0 256 256"
   height="256"
   width="256">
  <sodipodi:namedview
     inkscape:window-maximized="1"
     inkscape:window-y="0"
     inkscape:window-x="0"
     inkscape:window-height="1054"
     inkscape:window-width="1920"
     units="px"
     showgrid="true"
     inkscape:current-layer="layer1"
     inkscape:document-units="px"
     inkscape:cy="128"
     inkscape:cx="-111.48387"
     inkscape:zoom="2.0585938"
     inkscape:pageshadow="2"
     inkscape:pageopacity="0.0"
     borderopacity="1.0"
     bordercolor="#666666"
     pagecolor="#ffffff"
     id="base">
    <inkscape:grid
       enabled="false"
       snapvisiblegridlinesonly="true"
       spacingy="5"
       spacingx="5"
       id="grid4179"
       type="xygrid" />
  </sodipodi:namedview>
  <defs
     id="defs4">
    <filter
       style="color-interpolation-filters:sRGB;"
       inkscape:label="Drop Shadow"
       id="filter4301">
      <feFlood
         flood-opacity="0.498039"
         flood-color="rgb(0,0,0)"
         result="flood"
         id="feFlood4303" />
      <feComposite
         in="flood"
         in2="SourceGraphic"
         operator="in"
         result="composite1"
         id="feComposite4305" />
      <feGaussianBlur
         in="composite1"
         stdDeviation="3.7"
         result="blur"
         id="feGaussianBlur4307" />
      <feOffset
         dx="3.8"
         dy="3.7"
         result="offset"
         id="feOffset4309" />
      <feComposite
         in="SourceGraphic"
         in2="offset"
         operator="over"
         result="composite2"
         id="feComposite4311" />
    </filter>
    <clipPath
       id="clipPath4266"
       clipPathUnits="userSpaceOnUse">
      <path
         inkscape:connector-curvature="0"
         id="path4268"
         d="m 153.38672,796.84847 -105.781251,0 c -7.804357,0 -14.087891,6.28158 -14.087891,14.08594 l 0,227.33989 c 0,7.8043 6.283534,14.0878 14.087891,14.0878 l 165.162111,0 c 7.80436,0 14.08594,-6.2835 14.08594,-14.0878 l 0,-154.82232 -73.4668,-86.60351 z"
         style="fill:#db4437;fill-opacity:1" />
    </clipPath>
    <clipPath
       clipPathUnits="userSpaceOnUse"
       id="clipPath6370">
      <path
         id="path6372"
         d="m 153.38672,796.84847 -105.781251,0 c -7.804357,0 -14.087891,6.28158 -14.087891,14.08594 l 0,227.33989 c 0,7.8043 6.283534,14.0878 14.087891,14.0878 l 165.162111,0 c 7.80436,0 14.08594,-6.2835 14.08594,-14.0878 l 0,-154.82232 -73.4668,-86.60351 z"
         style="fill:#db4437;fill-opacity:1"
         inkscape:connector-curvature="0" />
    </clipPath>
    <clipPath
       id="clipPath4317"
       clipPathUnits="userSpaceOnUse">
      <path
         inkscape:connector-curvature="0"
         id="path4319"
         d="m 153.38672,796.84847 -105.781251,0 c -7.804357,0 -14.087891,6.28158 -14.087891,14.08594 l 0,227.33989 c 0,7.8043 6.283534,14.0878 14.087891,14.0878 l 165.162111,0 c 7.80436,0 14.08594,-6.2835 14.08594,-14.0878 l 0,-154.82232 -73.4668,-86.60351 z"
         style="fill:#db4437;fill-opacity:1" />
    </clipPath>
    <clipPath
       clipPathUnits="userSpaceOnUse"
       id="clipPath5183">
      <path
         id="path5185"
         d="m 153.38672,0.48632812 -105.781251,0 c -7.804357,0 -14.087891,6.28158058 -14.087891,14.08593788 l 0,227.339844 c 0,7.80436 6.283534,14.08789 14.087891,14.08789 l 165.162111,0 c 7.80436,0 14.08594,-6.28353 14.08594,-14.08789 l 0,-154.822266 -73.4668,-86.60351588 z"
         style="fill:#db4437;fill-opacity:1"
         inkscape:connector-curvature="0" />
    </clipPath>
    <clipPath
       id="clipPath4443"
       clipPathUnits="userSpaceOnUse">
      <path
         inkscape:connector-curvature="0"
         id="path4445"
         d="m 136.13532,861.96317 -74.568051,0 c -5.501501,0 -9.930933,4.42805 -9.930933,9.92955 l 0,160.25798 c 0,5.5015 4.429432,9.9309 9.930933,9.9309 l 116.427211,0 c 5.50151,0 9.92956,-4.4294 9.92956,-9.9309 l 0,-109.13839 -51.78872,-61.04914 z"
         style="fill:#db4437;fill-opacity:1" />
    </clipPath>
    <clipPath
       clipPathUnits="userSpaceOnUse"
       id="clipPath4374">
      <g
         transform="matrix(0.7049269,0,0,0.7049269,28.008893,300.51815)"
         id="g4376">
        <path
           style="fill:#db4437;fill-opacity:1"
           d="M 127.83594,796.36802 A 128,128 0 0 0 0,924.36216 128,128 0 0 0 128,1052.3622 128,128 0 0 0 255.99219,924.52427 L 127.83594,796.36802 Z m 12.42383,0.60742 a 128,128 0 0 1 7.76757,1.1211 128,128 0 0 0 -7.76757,-1.1211 z m 12.58789,1.84961 a 128,128 0 0 1 8.42187,2.08984 128,128 0 0 0 -8.42187,-2.08984 z m 12.36328,3.09766 a 128,128 0 0 1 8.94531,3.19726 128,128 0 0 0 -8.94531,-3.19726 z m 11.98437,4.30468 a 128,128 0 0 1 9.34375,4.43946 128,128 0 0 0 -9.34375,-4.43946 z m 11.49805,5.47852 a 128,128 0 0 1 9.49414,5.73438 128,128 0 0 0 -9.49414,-5.73438 z m 10.90625,6.59961 a 128,128 0 0 1 9.66016,7.24414 128,128 0 0 0 -9.66016,-7.24414 z m 10.17773,7.63867 a 128,128 0 0 1 9.38868,8.62891 128,128 0 0 0 -9.38868,-8.62891 z m 9.38868,8.62891 0.98046,0.98047 a 128,128 0 0 0 -0.98046,-0.98047 z m 7.65039,8.57226 a 128,128 0 0 1 4.5039,5.92188 128,128 0 0 0 -4.5039,-5.92188 z m 7.63867,10.30469 a 128,128 0 0 1 3.81054,6.21289 128,128 0 0 0 -3.81054,-6.21289 z m 6.57617,11.03125 a 128,128 0 0 1 3.08203,6.37695 128,128 0 0 0 -3.08203,-6.37695 z m 5.4375,11.63867 a 128,128 0 0 1 2.37695,6.50782 128,128 0 0 0 -2.37695,-6.50782 z m 4.23242,12.09375 a 128,128 0 0 1 1.68555,6.59375 128,128 0 0 0 -1.68555,-6.59375 z m 3.00781,12.48633 a 128,128 0 0 1 0.99024,6.53906 128,128 0 0 0 -0.99024,-6.53906 z m 1.74024,12.71094 A 128,128 0 0 1 256,924.36216 128,128 0 0 0 255.44922,913.41099 Z"
           id="path4378"
           inkscape:connector-curvature="0" />
        <path
           style="fill:#ef7e74;fill-opacity:1"
           d="m 255.61415,923.74423 a 128,128 0 0 0 0.16406,-0.006 L 127.62197,795.58211 a 128,128 0 0 0 -0.008,0.16211 128,128 0 0 0 35.85352,88.80861 l 0.98046,0.98046 a 128,128 0 0 0 91.16603,38.21094 z"
           id="path4380"
           inkscape:connector-curvature="0" />
      </g>
    </clipPath>
  </defs>
  <metadata
     id="metadata7">
    <rdf:RDF>
      <cc:Work
         rdf:about="">
        <dc:format>image/svg+xml</dc:format>
        <dc:type
           rdf:resource="http://purl.org/dc/dcmitype/StillImage" />
        <dc:title />
      </cc:Work>
    </rdf:RDF>
  </metadata>
  <g
     inkscape:label="Layer 1"
     inkscape:groupmode="layer"
     id="layer1"
     transform="translate(0,-796.36214)">
    <g
       style="fill:#000000;fill-opacity:1;stroke:#ac5050;stroke-width:5.5;stroke-linecap:round;stroke-miterlimit:4;stroke-dasharray:none;stroke-opacity:1"
       id="g4209"
       transform="matrix(1.1184263,0,0,1.1184263,-11.803288,-124.51005)" />
    <g
       id="g4338"
       transform="translate(0,0.389985)">
      <path
         inkscape:connector-curvature="0"
         id="path4957"
         d="M 127.83594,796.36802 A 128,128 0 0 0 0,924.36216 128,128 0 0 0 128,1052.3622 128,128 0 0 0 255.99219,924.52427 L 127.83594,796.36802 Z m 12.42383,0.60742 a 128,128 0 0 1 7.76757,1.1211 128,128 0 0 0 -7.76757,-1.1211 z m 12.58789,1.84961 a 128,128 0 0 1 8.42187,2.08984 128,128 0 0 0 -8.42187,-2.08984 z m 12.36328,3.09766 a 128,128 0 0 1 8.94531,3.19726 128,128 0 0 0 -8.94531,-3.19726 z m 11.98437,4.30468 a 128,128 0 0 1 9.34375,4.43946 128,128 0 0 0 -9.34375,-4.43946 z m 11.49805,5.47852 a 128,128 0 0 1 9.49414,5.73438 128,128 0 0 0 -9.49414,-5.73438 z m 10.90625,6.59961 a 128,128 0 0 1 9.66016,7.24414 128,128 0 0 0 -9.66016,-7.24414 z m 10.17773,7.63867 a 128,128 0 0 1 9.38868,8.62891 128,128 0 0 0 -9.38868,-8.62891 z m 9.38868,8.62891 0.98046,0.98047 a 128,128 0 0 0 -0.98046,-0.98047 z m 7.65039,8.57226 a 128,128 0 0 1 4.5039,5.92188 128,128 0 0 0 -4.5039,-5.92188 z m 7.63867,10.30469 a 128,128 0 0 1 3.81054,6.21289 128,128 0 0 0 -3.81054,-6.21289 z m 6.57617,11.03125 a 128,128 0 0 1 3.08203,6.37695 128,128 0 0 0 -3.08203,-6.37695 z m 5.4375,11.63867 a 128,128 0 0 1 2.37695,6.50782 128,128 0 0 0 -2.37695,-6.50782 z m 4.23242,12.09375 a 128,128 0 0 1 1.68555,6.59375 128,128 0 0 0 -1.68555,-6.59375 z m 3.00781,12.48633 a 128,128 0 0 1 0.99024,6.53906 128,128 0 0 0 -0.99024,-6.53906 z m 1.74024,12.71094 A 128,128 0 0 1 256,924.36216 128,128 0 0 0 255.44922,913.41099 Z"
         style="fill:#db4437;fill-opacity:1" />
      <path
         inkscape:connector-curvature="0"
         id="rect4961"
         d="m 255.61415,923.74423 a 128,128 0 0 0 0.16406,-0.006 L 127.62197,795.58211 a 128,128 0 0 0 -0.008,0.16211 128,128 0 0 0 35.85352,88.80861 l 0.98046,0.98046 a 128,128 0 0 0 91.16603,38.21094 z"
         style="fill:#ef7e74;fill-opacity:1" />
    </g>
    <g
       transform="matrix(1.4185868,0,0,1.4185868,-39.733046,-425.9211)"
       id="g4201"
       clip-path="url(#clipPath4374)"
       style="fill:#8a2219;fill-opacity:1">
      <g
         style="font-style:normal;font-variant:normal;font-weight:bold;font-stretch:normal;font-size:40px;line-height:125%;font-family:sans-serif;-inkscape-font-specification:'sans-serif Bold';letter-spacing:0px;word-spacing:0px;fill:#8a2219;fill-opacity:1;stroke:none;stroke-width:1px;stroke-linecap:butt;stroke-linejoin:miter;stroke-opacity:1"
         id="g4203"
         transform="matrix(2.5010487,0,0,2.5010487,-179.60617,-1389.8917)">
        <g
           id="g4245"
           transform="matrix(0.28185253,0,0,0.28185253,83.011204,900.22719)"
           style="fill:#8a2219;fill-opacity:1">
          <g
             id="g4247"
             style="fill:#8a2219;fill-opacity:1">
            <path
               id="path4249"
               d="M195.90625 116.0C193.867811225 116.000307018 192.030346043 116.808364375 190.736754222 118.101956196L49.3153979847 259.523312433C50.6089898054 258.229720613 52.4464549882 257.421663255 54.4848937627 257.421356237Z"
               style="fill:#8a2219;fill-opacity:1" />
            <path
               id="path4251"
               d="M190.736754222 118.101956196C189.544436548 119.29427387 188.814167018 120.899077819 188.81445 122.66406L47.3930937627 264.085416237C47.3928107808 262.320434056 48.123080311 260.715630107 49.3153979847 259.523312433Z"
               style="fill:#8a2219;fill-opacity:1" />
            <path
               id="path4253"
               d="M188.81445 122.66406C188.81501 126.34318 191.98977 129.32558 195.90625 129.32617L54.4848937627 270.747526237C50.5684137627 270.746936237 47.3936537627 267.764536237 47.3930937627 264.085416237Z"
               style="fill:#8a2219;fill-opacity:1" />
            <path
               id="path4255"
               d="M195.90625 129.32617C198.239903109 128.985086819 199.912400192 128.142738539 201.017572283 127.037566448L59.5962160455 268.458922685C58.491043955 269.564094776 56.8185468721 270.406443056 54.4848937627 270.747526237Z"
               style="fill:#8a2219;fill-opacity:1" />
            <path
               id="path4257"
               d="M201.017572283 127.037566448C204.861877668 123.193261063 201.84169967 116.168856611 195.90625 116.0L54.4848937627 257.421356237C60.4203434325 257.590212848 63.4405214305 264.6146173 59.5962160455 268.458922685Z"
               style="fill:#8a2219;fill-opacity:1" />
            <path
               id="path4259"
               d="M165.65039 122.0C157.500994111 122.007893354 149.838177323 125.204954614 144.391480968 130.651650968L2.97012473074 272.073007206C8.41682108529 266.626310851 16.0796378739 263.429249592 24.2290337627 263.421356237Z"
               style="fill:#8a2219;fill-opacity:1" />
            <path
               id="path4261"
               d="M144.391480968 130.651650968C142.868816573 132.174315363 141.519347203 133.872794033 140.38086 135.72656L-1.04049623731 277.147916237C0.0979909661192 275.294150271 1.44746033567 273.595671601 2.97012473074 272.073007206Z"
               style="fill:#8a2219;fill-opacity:1" />
            <path
               id="path4263"
               d="M140.38086 135.72656C137.83117 134.47699 135.13026 133.43914 132.27734 132.61914L-9.14401623731 274.040496237C-6.29109623731 274.860496237 -3.59018623731 275.898346237 -1.04049623731 277.147916237Z"
               style="fill:#8a2219;fill-opacity:1" />
            <path
               id="path4265"
               d="M132.27734 132.61914C124.60858 130.35547 96.841845 129.22461 81.134766 129.22461L-60.2865902373 270.645966237C-44.5795112373 270.645966237 -16.8127762373 271.776826237 -9.14401623731 274.040496237Z"
               style="fill:#8a2219;fill-opacity:1" />
            <path
               id="path4267"
               d="M81.134766 129.22461L53.0 129.22461L-88.4213562373 270.645966237L-60.2865902373 270.645966237Z"
               style="fill:#8a2219;fill-opacity:1" />
            <path
               id="path4269"
               d="M53.0 129.22461L53.0 232.68359L-88.4213562373 374.104946237L-88.4213562373 270.645966237Z"
               style="fill:#8a2219;fill-opacity:1" />
            <path
               id="path4271"
               d="M53.0 232.68359L81.134766 232.68359L-60.2865902373 374.104946237L-88.4213562373 374.104946237Z"
               style="fill:#8a2219;fill-opacity:1" />
            <path
               id="path4273"
               d="M81.134766 232.68359C96.657067 232.68359 124.37752 231.57489 132.13867 229.35742L-9.28268623731 370.778776237C-17.0438362373 372.996246237 -44.7642892373 374.104946237 -60.2865902373 374.104946237Z"
               style="fill:#8a2219;fill-opacity:1" />
            <path
               id="path4275"
               d="M132.13867 229.35742C139.89982 227.09376 146.55398 223.28273 152.09766 217.92383L10.6763037627 359.345186237C5.13262376269 364.704086237 -1.52153623731 368.515116237 -9.28268623731 370.778776237Z"
               style="fill:#8a2219;fill-opacity:1" />
            <path
               id="path4277"
               d="M152.09766 217.92383C152.325678049 217.704497444 152.550936449 217.483581577 152.773435527 217.261082499L11.3520792897 358.682438736C11.129580212 358.904937814 10.9043218114 359.125853682 10.6763037627 359.345186237Z"
               style="fill:#8a2219;fill-opacity:1" />
            <path
               id="path4279"
               d="M152.773435527 217.261082499C157.28424915 212.750268876 160.660950966 207.588738645 162.90625 201.77734L21.4848937627 343.198696237C19.2395947282 349.010094882 15.862892913 354.171625113 11.3520792897 358.682438736Z"
               style="fill:#8a2219;fill-opacity:1" />
            <path
               id="path4281"
               d="M162.90625 201.77734C165.26234 195.6331 166.44141 188.65695 166.44141 180.84961L25.0200537627 322.270966237C25.0200537627 330.078306237 23.8409837627 337.054456237 21.4848937627 343.198696237Z"
               style="fill:#8a2219;fill-opacity:1" />
            <path
               id="path4283"
               d="M166.44141 180.84961C167.245318765 179.727987997 168.151197078 178.686352553 169.132591179 177.704958452L27.711234942 319.126314689C26.7298408409 320.10770879 25.8239625274 321.149344235 25.0200537627 322.270966237Z"
               style="fill:#8a2219;fill-opacity:1" />
            <path
               id="path4285"
               d="M169.132591179 177.704958452C175.234834207 171.602715424 184.256721033 167.829565022 189.838713228 161.638717034L48.417356991 303.060073271C42.8353647952 309.250921259 33.8134779694 313.024071662 27.711234942 319.126314689Z"
               style="fill:#8a2219;fill-opacity:1" />
            <path
               id="path4287"
               d="M189.838713228 161.638717034C192.725460364 158.437097958 194.692215233 154.588870972 194.85938 149.4375L53.4380237627 290.858856237C53.2708589953 296.010227209 51.3041041265 299.858454196 48.417356991 303.060073271Z"
               style="fill:#8a2219;fill-opacity:1" />
            <path
               id="path4289"
               d="M194.85938 149.4375C194.85905 134.28383 181.78172 121.99962 165.65039 122.0L24.2290337627 263.421356237C40.3603637627 263.420976237 53.4376937627 275.705186237 53.4380237627 290.858856237Z"
               style="fill:#8a2219;fill-opacity:1" />
            <path
               id="path4291"
               d="M79.679688 149.38867L89.242188 149.38867L-52.1791682373 290.810026237L-61.7416682373 290.810026237Z"
               style="fill:#8a2219;fill-opacity:1" />
            <path
               id="path4293"
               d="M89.242188 149.38867C100.19096 149.38867 124.60943 152.06883 130.33789 157.42773L-11.0834662373 298.849086237C-16.8119262373 293.490186237 -41.2303962373 290.810026237 -52.1791682373 290.810026237Z"
               style="fill:#8a2219;fill-opacity:1" />
            <path
               id="path4295"
               d="M130.33789 157.42773C136.06638 162.7866 138.92969 170.59379 138.92969 180.84961L-2.49166623731 322.270966237C-2.49166623731 312.015146237 -5.35497623731 304.207956237 -11.0834662373 298.849086237Z"
               style="fill:#8a2219;fill-opacity:1" />
            <path
               id="path4297"
               d="M138.92969 180.84961C138.92969 190.794952623 136.240563176 198.458320714 130.858935696 203.839948194L-10.5624205409 345.261304431C-5.18079306146 339.879676952 -2.49166623731 332.21630886 -2.49166623731 322.270966237Z"
               style="fill:#8a2219;fill-opacity:1" />
            <path
               id="path4299"
               d="M130.858935696 203.839948194C130.665930302 204.032953588 130.469461788 204.223024187 130.26953 204.41016L-11.1518262373 345.831516237C-10.9518944488 345.644380424 -10.7554259353 345.454309826 -10.5624205409 345.261304431Z"
               style="fill:#8a2219;fill-opacity:1" />
            <path
               id="path4301"
               d="M130.26953 204.41016C124.54107 209.81522 100.14477 212.51758 89.242188 212.51758L-52.1791682373 353.938936237C-41.2765862373 353.938936237 -16.8802862373 351.236576237 -11.1518262373 345.831516237Z"
               style="fill:#8a2219;fill-opacity:1" />
            <path
               id="path4303"
               d="M89.242188 212.51758L79.679688 212.51758L-61.7416682373 353.938936237L-52.1791682373 353.938936237Z"
               style="fill:#8a2219;fill-opacity:1" />
          </g>
          <path
             sodipodi:nodetypes="cscccccsccscccccccssscscc"
             inkscape:connector-curvature="0"
             id="path4205"
             transform=""
             d="m 195.90625,116 c -3.91729,5.9e-4 -7.09239,2.98418 -7.0918,6.66406 5.6e-4,3.67912 3.17532,6.66152 7.0918,6.66211 10.45119,-1.52753 7.64179,-13.10877 0,-13.32617 z m -30.25586,6 c -10.42762,0.0101 -20.05858,5.24172 -25.26953,13.72656 -2.54969,-1.24957 -5.2506,-2.28742 -8.10352,-3.10742 -7.66876,-2.26367 -35.435495,-3.39453 -51.142574,-3.39453 l -28.134766,0 0,103.45898 28.134766,0 c 15.522301,0 43.242754,-1.1087 51.003904,-3.32617 7.76115,-2.26366 14.41531,-6.07469 19.95899,-11.43359 4.85072,-4.66595 8.45254,-10.04844 10.80859,-16.14649 2.35609,-6.14424 3.53516,-13.12039 3.53516,-20.92773 8.38763,-11.70251 27.87558,-14.69775 28.41797,-31.41211 C 194.85905,134.28383 181.78172,121.99962 165.65039,122 Z m -85.970702,27.38867 9.5625,0 c 10.948772,0 35.367242,2.68016 41.095702,8.03906 5.72849,5.35887 8.5918,13.16606 8.5918,23.42188 0,10.30202 -2.88547,18.15545 -8.66016,23.56055 -5.72846,5.40506 -30.12476,8.10742 -41.027342,8.10742 l -9.5625,0 z"
             style="fill:#8a2219;fill-opacity:1" />
        </g>
      </g>
    </g>
    <g
       id="g4213"
       transform="matrix(1.4185868,0,0,1.4185868,-39.733046,-425.9211)">
      <g
         transform="matrix(2.5010487,0,0,2.5010487,-179.60617,-1389.8917)"
         id="text4202"
         style="font-style:normal;font-variant:normal;font-weight:bold;font-stretch:normal;font-size:40px;line-height:125%;font-family:sans-serif;-inkscape-font-specification:'sans-serif Bold';letter-spacing:0px;word-spacing:0px;fill:#ffffff;fill-opacity:1;stroke:none;stroke-width:1px;stroke-linecap:butt;stroke-linejoin:miter;stroke-opacity:1">
        <path
           sodipodi:nodetypes="ccscsssccsccsscccscc"
           style="fill:#ffffff;fill-opacity:1"
           inkscape:connector-curvature="0"
           id="path4207"
           d="m 105.46892,942.33295 0,17.79297 2.69531,0 c 3.07292,0 9.94893,-0.76172 11.56351,-2.28515 1.62761,-1.52344 2.44141,-3.73698 2.44141,-6.64063 0,-2.89063 -0.80729,-5.09115 -2.42188,-6.60156 -1.61458,-1.51042 -8.4971,-2.26563 -11.58304,-2.26563 z m -7.519532,-5.68359 7.929692,0 c 4.42708,0 12.25361,0.31901 14.41507,0.95703 2.17448,0.625 4.03646,1.69271 5.58594,3.20313 1.36719,1.3151 2.38281,2.83203 3.04687,4.55078 0.66407,1.71875 0.9961,3.66536 0.9961,5.83984 0,2.20052 -0.33203,4.16667 -0.9961,5.89844 -0.66406,1.71875 -1.67968,3.23567 -3.04687,4.55078 -1.5625,1.51042 -3.4375,2.58464 -5.625,3.22266 -2.1875,0.625 -10.00101,0.9375 -14.37601,0.9375 l -7.929692,0 z" />
      </g>
      <ellipse
         ry="19.341831"
         rx="20.589691"
         cy="966.96259"
         cx="144.78033"
         id="path4209"
         style="opacity:1;fill:#ffffff;fill-opacity:1;stroke:none;stroke-width:3;stroke-linejoin:round;stroke-miterlimit:4;stroke-dasharray:none;stroke-opacity:1" />
      <ellipse
         style="opacity:1;fill:#ffffff;fill-opacity:1;stroke:none;stroke-width:3;stroke-linejoin:round;stroke-miterlimit:4;stroke-dasharray:none;stroke-opacity:1"
         id="ellipse4211"
         cx="166.10905"
         cy="948.08936"
         rx="5"
         ry="4.6969695" />
    </g>
  </g>
</svg>
