<?xml version="1.0" encoding="UTF-8" standalone="no"?>
<!-- Created with Inkscape (http://www.inkscape.org/) -->

<svg
   xmlns:dc="http://purl.org/dc/elements/1.1/"
   xmlns:cc="http://creativecommons.org/ns#"
   xmlns:rdf="http://www.w3.org/1999/02/22-rdf-syntax-ns#"
   xmlns:svg="http://www.w3.org/2000/svg"
   xmlns="http://www.w3.org/2000/svg"
   xmlns:sodipodi="http://sodipodi.sourceforge.net/DTD/sodipodi-0.dtd"
   xmlns:inkscape="http://www.inkscape.org/namespaces/inkscape"
   width="256"
   height="256"
   viewBox="0 0 256 256"
   id="svg2"
   version="1.1"
   inkscape:version="0.91 r13725"
   sodipodi:docname="text-x-fortran.svg">
  <sodipodi:namedview
     id="base"
     pagecolor="#ffffff"
     bordercolor="#666666"
     borderopacity="1.0"
     inkscape:pageopacity="0.0"
     inkscape:pageshadow="2"
     inkscape:zoom="2.1328125"
     inkscape:cx="110.06222"
     inkscape:cy="128"
     inkscape:document-units="px"
     inkscape:current-layer="layer1"
     showgrid="false"
     units="px"
     inkscape:window-width="1366"
     inkscape:window-height="721"
     inkscape:window-x="0"
     inkscape:window-y="0"
     inkscape:window-maximized="1" />
  <defs
     id="defs4">
    <filter
       id="filter4301"
       inkscape:label="Drop Shadow"
       style="color-interpolation-filters:sRGB;">
      <feFlood
         id="feFlood4303"
         result="flood"
         flood-color="rgb(0,0,0)"
         flood-opacity="0.498039" />
      <feComposite
         id="feComposite4305"
         result="composite1"
         operator="in"
         in2="SourceGraphic"
         in="flood" />
      <feGaussianBlur
         id="feGaussianBlur4307"
         result="blur"
         stdDeviation="3.7"
         in="composite1" />
      <feOffset
         id="feOffset4309"
         result="offset"
         dy="3.7"
         dx="3.8" />
      <feComposite
         id="feComposite4311"
         result="composite2"
         operator="over"
         in2="offset"
         in="SourceGraphic" />
    </filter>
    <clipPath
       clipPathUnits="userSpaceOnUse"
       id="clipPath5055">
      <path
         style="fill:#db4437;fill-opacity:1"
         d="m 153.38672,796.84847 -105.781251,0 c -7.804357,0 -14.087891,6.28158 -14.087891,14.08594 l 0,227.33989 c 0,7.8043 6.283534,14.0878 14.087891,14.0878 l 165.162111,0 c 7.80436,0 14.08594,-6.2835 14.08594,-14.0878 l 0,-154.82232 -73.4668,-86.60351 z"
         id="path5057"
         inkscape:connector-curvature="0" />
    </clipPath>
  </defs>
  <metadata
     id="metadata7">
    <rdf:RDF>
      <cc:Work
         rdf:about="">
        <dc:format>image/svg+xml</dc:format>
        <dc:type
           rdf:resource="http://purl.org/dc/dcmitype/StillImage" />
        <dc:title />
      </cc:Work>
    </rdf:RDF>
  </metadata>
  <g
     transform="translate(0,-796.36214)"
     id="layer1"
     inkscape:groupmode="layer"
     inkscape:label="Layer 1">
    <path
       id="path4141"
       d="M 153.38672 0.48632812 L 47.605469 0.48632812 C 39.801112 0.48632812 33.517578 6.7679087 33.517578 14.572266 L 33.517578 241.91211 C 33.517578 249.71647 39.801112 256 47.605469 256 L 212.76758 256 C 220.57194 256 226.85352 249.71647 226.85352 241.91211 L 226.85352 87.089844 L 153.38672 0.48632812 z "
       style="fill:#db4437;fill-opacity:1"
       transform="translate(0,796.36214)" />
    <path
       inkscape:connector-curvature="0"
       id="rect4136"
       d="m 226.85352,883.45199 -73.4668,-86.60352 0,72.51758 c 0,7.80436 6.28158,14.08594 14.08594,14.08594 l 59.38086,0 z"
       style="fill:#ec6155;fill-opacity:1;filter:url(#filter4301)" />
    <g
       id="text4144"
       style="font-style:normal;font-variant:normal;font-weight:bold;font-stretch:normal;font-size:80px;line-height:125%;font-family:FreeSerif;-inkscape-font-specification:'FreeSerif Bold';letter-spacing:0px;word-spacing:0px;fill:#8d3e38;fill-opacity:1;stroke:none;stroke-width:1px;stroke-linecap:butt;stroke-linejoin:miter;stroke-opacity:1"
       clip-path="url(#clipPath5055)">
      <g
         id="g4172"
         transform="translate(0,796.36214)"
         style="fill:#8d3e38;fill-opacity:1;stroke:none;stroke-opacity:1">
        <g
           id="g4174"
           style="fill:#8d3e38;fill-opacity:1;stroke:none;stroke-opacity:1">
          <path
             id="path4176"
             d="M94.722656 118.08398C90.1752138776 118.08398 86.7521232028 119.232691473 84.454445164 121.530369512L-127.677589192 333.662403868C-125.379911153 331.364725829 -121.956820478 330.216014356 -117.409378356 330.216014356Z"
             style="fill:#8d3e38;fill-opacity:1;stroke:none;stroke-opacity:1" />
          <path
             id="path4178"
             d="M84.454445164 121.530369512C84.3268356918 121.657978984 84.2026975766 121.789132465 84.082031 121.92383L-128.050003356 334.055864356C-127.929336779 333.921166821 -127.805198664 333.79001334 -127.677589192 333.662403868Z"
             style="fill:#8d3e38;fill-opacity:1;stroke:none;stroke-opacity:1" />
          <path
             id="path4180"
             d="M84.082031 121.92383C81.842031 124.53716 80.722656 129.38909 80.722656 136.48242L-131.409378356 348.614454356C-131.409378356 341.521124356 -130.290003356 336.669194356 -128.050003356 334.055864356Z"
             style="fill:#8d3e38;fill-opacity:1;stroke:none;stroke-opacity:1" />
          <path
             id="path4182"
             d="M80.722656 136.48242L76.162109 136.48242L-135.969925356 348.614454356L-131.409378356 348.614454356Z"
             style="fill:#8d3e38;fill-opacity:1;stroke:none;stroke-opacity:1" />
          <path
             id="path4184"
             d="M76.162109 136.48242L76.162109 140.00391L-135.969925356 352.135944356L-135.969925356 348.614454356Z"
             style="fill:#8d3e38;fill-opacity:1;stroke:none;stroke-opacity:1" />
          <path
             id="path4186"
             d="M76.162109 140.00391L80.722656 140.00391L-131.409378356 352.135944356L-135.969925356 352.135944356Z"
             style="fill:#8d3e38;fill-opacity:1;stroke:none;stroke-opacity:1" />
          <path
             id="path4188"
             d="M80.722656 140.00391L80.722656 166.64258L-131.409378356 378.774614356L-131.409378356 352.135944356Z"
             style="fill:#8d3e38;fill-opacity:1;stroke:none;stroke-opacity:1" />
          <path
             id="path4190"
             d="M80.722656 166.64258C80.722656 167.76258 80.588932 168.66995 80.322266 169.36328L-131.809768356 381.495314356C-131.543102356 380.801984356 -131.409378356 379.894614356 -131.409378356 378.774614356Z"
             style="fill:#8d3e38;fill-opacity:1;stroke:none;stroke-opacity:1" />
          <path
             id="path4192"
             d="M80.322266 169.36328C80.215603846 169.643267935 80.0489371133 169.896596293 79.8222706762 170.123262731L-132.30976368 382.255297086C-132.083097243 382.028630649 -131.91643051 381.775302291 -131.809768356 381.495314356Z"
             style="fill:#8d3e38;fill-opacity:1;stroke:none;stroke-opacity:1" />
          <path
             id="path4194"
             d="M79.8222706762 170.123262731C79.1422322971 170.80330111 77.9221345281 171.243354627 76.162109 171.44336L-135.969925356 383.575394356C-134.209899828 383.375388983 -132.989802059 382.935335466 -132.30976368 382.255297086Z"
             style="fill:#8d3e38;fill-opacity:1;stroke:none;stroke-opacity:1" />
          <path
             id="path4196"
             d="M76.162109 171.44336L76.162109 173.36328L-135.969925356 385.495314356L-135.969925356 383.575394356Z"
             style="fill:#8d3e38;fill-opacity:1;stroke:none;stroke-opacity:1" />
          <path
             id="path4198"
             d="M76.162109 173.36328L98.402344 173.36328L-113.729690356 385.495314356L-135.969925356 385.495314356Z"
             style="fill:#8d3e38;fill-opacity:1;stroke:none;stroke-opacity:1" />
          <path
             id="path4200"
             d="M98.402344 173.36328L98.402344 171.44336L-113.729690356 383.575394356L-113.729690356 385.495314356Z"
             style="fill:#8d3e38;fill-opacity:1;stroke:none;stroke-opacity:1" />
          <path
             id="path4202"
             d="M98.402344 171.44336C95.94901 171.39003 94.269948 171.06909 93.363281 170.48242L-118.768753356 382.614454356C-117.862086356 383.201124356 -116.183024356 383.522064356 -113.729690356 383.575394356Z"
             style="fill:#8d3e38;fill-opacity:1;stroke:none;stroke-opacity:1" />
          <path
             id="path4204"
             d="M93.363281 170.48242C92.349948 169.78909 91.841797 168.00305 91.841797 165.12305L-120.290237356 377.255084356C-120.290237356 380.135084356 -119.782086356 381.921124356 -118.768753356 382.614454356Z"
             style="fill:#8d3e38;fill-opacity:1;stroke:none;stroke-opacity:1" />
          <path
             id="path4206"
             d="M91.841797 165.12305L91.841797 140.00391L-120.290237356 352.135944356L-120.290237356 377.255084356Z"
             style="fill:#8d3e38;fill-opacity:1;stroke:none;stroke-opacity:1" />
          <path
             id="path4208"
             d="M91.841797 140.00391L98.802734 140.00391L-113.329300356 352.135944356L-120.290237356 352.135944356Z"
             style="fill:#8d3e38;fill-opacity:1;stroke:none;stroke-opacity:1" />
          <path
             id="path4210"
             d="M98.802734 140.00391L98.802734 136.48242L-113.329300356 348.614454356L-113.329300356 352.135944356Z"
             style="fill:#8d3e38;fill-opacity:1;stroke:none;stroke-opacity:1" />
          <path
             id="path4212"
             d="M98.802734 136.48242L91.841797 136.48242L-120.290237356 348.614454356L-113.329300356 348.614454356Z"
             style="fill:#8d3e38;fill-opacity:1;stroke:none;stroke-opacity:1" />
          <path
             id="path4214"
             d="M91.841797 136.48242L91.841797 126.72266L-120.290237356 338.854694356L-120.290237356 348.614454356Z"
             style="fill:#8d3e38;fill-opacity:1;stroke:none;stroke-opacity:1" />
          <path
             id="path4216"
             d="M91.841797 126.72266C91.841797 125.81599 91.895286 125.0156 92.001953 124.32227L-120.130081356 336.454304356C-120.236748356 337.147634356 -120.290237356 337.948024356 -120.290237356 338.854694356Z"
             style="fill:#8d3e38;fill-opacity:1;stroke:none;stroke-opacity:1" />
          <path
             id="path4218"
             d="M92.001953 124.32227C92.1863117084 123.084430206 92.5917291271 122.152281758 93.2182428273 121.525768058L-118.913791529 333.657802414C-119.540305229 334.284316114 -119.945722648 335.216464562 -120.130081356 336.454304356Z"
             style="fill:#8d3e38;fill-opacity:1;stroke:none;stroke-opacity:1" />
          <path
             id="path4220"
             d="M93.2182428273 121.525768058C93.8604418515 120.883569034 94.7349464209 120.5625 95.841797 120.5625L-116.290237356 332.694534356C-117.397087935 332.694534356 -118.271592504 333.01560339 -118.913791529 333.657802414Z"
             style="fill:#8d3e38;fill-opacity:1;stroke:none;stroke-opacity:1" />
          <path
             id="path4222"
             d="M95.841797 120.5625C97.281797 120.61583 98.055443 121.12398 98.162109 122.08398L-113.969925356 334.216014356C-114.076591356 333.256014356 -114.850237356 332.747864356 -116.290237356 332.694534356Z"
             style="fill:#8d3e38;fill-opacity:1;stroke:none;stroke-opacity:1" />
          <path
             id="path4224"
             d="M98.162109 122.08398C98.162109 122.29732 98.028385 122.64305 97.761719 123.12305L-114.370315356 335.255084356C-114.103649356 334.775084356 -113.969925356 334.429354356 -113.969925356 334.216014356Z"
             style="fill:#8d3e38;fill-opacity:1;stroke:none;stroke-opacity:1" />
          <path
             id="path4226"
             d="M97.761719 123.12305C96.855052 124.82971 96.402344 126.00258 96.402344 126.64258L-115.729690356 338.774614356C-115.729690356 338.134614356 -115.276982356 336.961744356 -114.370315356 335.255084356Z"
             style="fill:#8d3e38;fill-opacity:1;stroke:none;stroke-opacity:1" />
          <path
             id="path4228"
             d="M96.402344 126.64258C96.402344 127.28258 96.536068 127.89576 96.802734 128.48242L-115.329300356 340.614454356C-115.595966356 340.027794356 -115.729690356 339.414614356 -115.729690356 338.774614356Z"
             style="fill:#8d3e38;fill-opacity:1;stroke:none;stroke-opacity:1" />
          <path
             id="path4230"
             d="M96.802734 128.48242C97.656068 130.18909 99.123123 131.04297 101.20312 131.04297L-110.928914356 343.175004356C-113.008911356 343.175004356 -114.475966356 342.321124356 -115.329300356 340.614454356Z"
             style="fill:#8d3e38;fill-opacity:1;stroke:none;stroke-opacity:1" />
          <path
             id="path4232"
             d="M101.20312 131.04297C101.84312 131.04297 102.4563 130.93599 103.04297 130.72266L-109.089064356 342.854694356C-109.675734356 343.068024356 -110.288914356 343.175004356 -110.928914356 343.175004356Z"
             style="fill:#8d3e38;fill-opacity:1;stroke:none;stroke-opacity:1" />
          <path
             id="path4234"
             d="M103.04297 130.72266C103.804777668 130.468721669 104.426962541 130.100494556 104.909609122 129.617847975L-107.222425234 341.749882331C-107.705071815 342.232528912 -108.327256688 342.600756025 -109.089064356 342.854694356Z"
             style="fill:#8d3e38;fill-opacity:1;stroke:none;stroke-opacity:1" />
          <path
             id="path4236"
             d="M104.909609122 129.617847975C105.74475564 128.782701456 106.16211 127.604971152 106.16211 126.08398L-105.969924356 338.216014356C-105.969924356 339.737005508 -106.387278716 340.914735812 -107.222425234 341.749882331Z"
             style="fill:#8d3e38;fill-opacity:1;stroke:none;stroke-opacity:1" />
          <path
             id="path4238"
             d="M106.16211 126.08398C106.16211 124.69732 105.73615 123.39073 104.88281 122.16406L-107.249224356 334.296094356C-106.395884356 335.522764356 -105.969924356 336.829354356 -105.969924356 338.216014356Z"
             style="fill:#8d3e38;fill-opacity:1;stroke:none;stroke-opacity:1" />
          <path
             id="path4240"
             d="M104.88281 122.16406C102.90948 119.44406 99.522658 118.08398 94.722656 118.08398L-117.409378356 330.216014356C-112.609376356 330.216014356 -109.222554356 331.576094356 -107.249224356 334.296094356Z"
             style="fill:#8d3e38;fill-opacity:1;stroke:none;stroke-opacity:1" />
          <path
             id="path4242"
             d="M125.4082 118.32227C121.2482 118.32227 117.62263 119.62885 114.5293 122.24219L-97.602734356 334.374224356C-94.509404356 331.760884356 -90.883834356 330.454304356 -86.723834356 330.454304356Z"
             style="fill:#8d3e38;fill-opacity:1;stroke:none;stroke-opacity:1" />
          <path
             id="path4244"
             d="M114.5293 122.24219C114.146325469 122.566990368 113.780753748 122.903475477 113.432585302 123.251643923L-98.6994490544 335.383678279C-98.3512806084 335.035509833 -97.9857088871 334.699024724 -97.602734356 334.374224356Z"
             style="fill:#8d3e38;fill-opacity:1;stroke:none;stroke-opacity:1" />
          <path
             id="path4246"
             d="M113.432585302 123.251643923C109.950337046 126.733892178 108.20898 131.384852544 108.20898 137.20312L-103.923054356 349.335154356C-103.923054356 343.5168869 -102.18169731 338.865926534 -98.6994490544 335.383678279Z"
             style="fill:#8d3e38;fill-opacity:1;stroke:none;stroke-opacity:1" />
          <path
             id="path4248"
             d="M108.20898 137.20312C108.20898 140.82979 109.03612 143.97591 110.68945 146.64258L-101.442584356 358.774614356C-103.095914356 356.107944356 -103.923054356 352.961824356 -103.923054356 349.335154356Z"
             style="fill:#8d3e38;fill-opacity:1;stroke:none;stroke-opacity:1" />
          <path
             id="path4250"
             d="M110.68945 146.64258C113.35612 150.90924 117.38286 153.04297 122.76953 153.04297L-89.362504356 365.175004356C-94.749174356 365.175004356 -98.775914356 363.041274356 -101.442584356 358.774614356Z"
             style="fill:#8d3e38;fill-opacity:1;stroke:none;stroke-opacity:1" />
          <path
             id="path4252"
             d="M122.76953 153.04297C125.5962 153.04297 128.02216 152.53677 130.04883 151.52344L-82.083204356 363.655474356C-84.109874356 364.668804356 -86.535834356 365.175004356 -89.362504356 365.175004356Z"
             style="fill:#8d3e38;fill-opacity:1;stroke:none;stroke-opacity:1" />
          <path
             id="path4254"
             d="M130.04883 151.52344C129.14216 154.6701 128.02279 157.47049 126.68945 159.92383L-85.442584356 372.055864356C-84.109244356 369.602524356 -82.989874356 366.802134356 -82.083204356 363.655474356Z"
             style="fill:#8d3e38;fill-opacity:1;stroke:none;stroke-opacity:1" />
          <path
             id="path4256"
             d="M126.68945 159.92383C125.57954795 161.902351045 124.256175018 163.659988482 122.719335318 165.196828181L-89.4126990379 377.328862537C-87.8758593383 375.792022838 -86.5524864058 374.034385401 -85.442584356 372.055864356Z"
             style="fill:#8d3e38;fill-opacity:1;stroke:none;stroke-opacity:1" />
          <path
             id="path4258"
             d="M122.719335318 165.196828181C119.160617175 168.755546324 114.457281703 171.130338188 108.60938 172.32227L-103.522654356 384.454304356C-97.6747526525 383.262372544 -92.9714171808 380.88758068 -89.4126990379 377.328862537Z"
             style="fill:#8d3e38;fill-opacity:1;stroke:none;stroke-opacity:1" />
          <path
             id="path4260"
             d="M108.60938 172.32227L108.60938 174.40234L-103.522654356 386.534374356L-103.522654356 384.454304356Z"
             style="fill:#8d3e38;fill-opacity:1;stroke:none;stroke-opacity:1" />
          <path
             id="path4262"
             d="M108.60938 174.40234C111.64938 173.97568 114.2893 173.49622 116.5293 172.96289L-95.602734356 385.094924356C-97.842734356 385.628254356 -100.482654356 386.107714356 -103.522654356 386.534374356Z"
             style="fill:#8d3e38;fill-opacity:1;stroke:none;stroke-opacity:1" />
          <path
             id="path4264"
             d="M116.5293 172.96289C122.1293 171.68289 127.11495 169.39065 131.48828 166.08398L-80.643754356 378.216014356C-85.017084356 381.522684356 -90.002734356 383.814924356 -95.602734356 385.094924356Z"
             style="fill:#8d3e38;fill-opacity:1;stroke:none;stroke-opacity:1" />
          <path
             id="path4266"
             d="M131.48828 166.08398C132.823874929 165.067205454 134.052286238 163.998202713 135.173509963 162.876978988L-76.9585243926 375.009013344C-78.079748118 376.130237069 -79.3081594272 377.19923981 -80.643754356 378.216014356Z"
             style="fill:#8d3e38;fill-opacity:1;stroke:none;stroke-opacity:1" />
          <path
             id="path4268"
             d="M135.173509963 162.876978988C140.992104842 157.058384109 143.924036199 149.833428489 143.96875 141.20312L-68.163284356 353.335154356C-68.2079981565 361.965462845 -71.139929514 369.190418465 -76.9585243926 375.009013344Z"
             style="fill:#8d3e38;fill-opacity:1;stroke:none;stroke-opacity:1" />
          <path
             id="path4270"
             d="M143.96875 141.20312C143.96875 135.44313 142.7424 130.5625 140.28906 126.5625L-71.842974356 338.694534356C-69.389634356 342.694534356 -68.163284356 347.575164356 -68.163284356 353.335154356Z"
             style="fill:#8d3e38;fill-opacity:1;stroke:none;stroke-opacity:1" />
          <path
             id="path4272"
             d="M140.28906 126.5625C136.87573 121.06917 131.91487 118.32227 125.4082 118.32227L-86.723834356 330.454304356C-80.217164356 330.454304356 -75.256304356 333.201204356 -71.842974356 338.694534356Z"
             style="fill:#8d3e38;fill-opacity:1;stroke:none;stroke-opacity:1" />
          <path
             id="path4274"
             d="M166.12891 118.32227C162.395740495 118.366186832 159.060523404 119.857171289 156.123080023 122.794614669L-56.0089543327 334.926649025C-53.0715109522 331.989205645 -49.7362938605 330.498221188 -46.003124356 330.454304356Z"
             style="fill:#8d3e38;fill-opacity:1;stroke:none;stroke-opacity:1" />
          <path
             id="path4276"
             d="M156.123080023 122.794614669C155.493466093 123.4242286 154.882126672 124.120295708 154.28906 124.88281L-57.842974356 337.014844356C-57.2499076844 336.252330064 -56.6385682632 335.556262956 -56.0089543327 334.926649025Z"
             style="fill:#8d3e38;fill-opacity:1;stroke:none;stroke-opacity:1" />
          <path
             id="path4278"
             d="M154.28906 124.88281C150.12906 130.32281 148.04883 137.4174 148.04883 146.16406L-64.083204356 358.296094356C-64.083204356 349.549434356 -62.002974356 342.454844356 -57.842974356 337.014844356Z"
             style="fill:#8d3e38;fill-opacity:1;stroke:none;stroke-opacity:1" />
          <path
             id="path4280"
             d="M148.04883 146.16406C148.04883 154.00406 149.62286 160.56375 152.76953 165.84375L-59.362504356 377.975784356C-62.509174356 372.695784356 -64.083204356 366.136094356 -64.083204356 358.296094356Z"
             style="fill:#8d3e38;fill-opacity:1;stroke:none;stroke-opacity:1" />
          <path
             id="path4282"
             d="M152.76953 165.84375C156.18286 171.55042 160.66232 174.40234 166.20898 174.40234L-45.923054356 386.534374356C-51.469714356 386.534374356 -55.949174356 383.682454356 -59.362504356 377.975784356Z"
             style="fill:#8d3e38;fill-opacity:1;stroke:none;stroke-opacity:1" />
          <path
             id="path4284"
             d="M166.20898 174.40234C169.989974929 174.356788726 173.362134666 172.852011203 176.325939031 169.888206839L-35.806095325 382.020241195C-38.7698996897 384.984045559 -42.142059427 386.488823082 -45.923054356 386.534374356Z"
             style="fill:#8d3e38;fill-opacity:1;stroke:none;stroke-opacity:1" />
          <path
             id="path4286"
             d="M176.325939031 169.888206839C176.832063644 169.382082226 177.326279837 168.833409616 177.80859 168.24219L-34.323444356 380.374224356C-34.8057545192 380.965443972 -35.2999707124 381.514116582 -35.806095325 382.020241195Z"
             style="fill:#8d3e38;fill-opacity:1;stroke:none;stroke-opacity:1" />
          <path
             id="path4288"
             d="M177.80859 168.24219C182.07526 162.80219 184.20898 155.52234 184.20898 146.40234L-27.923054356 358.534374356C-27.923054356 367.654374356 -30.056774356 374.934224356 -34.323444356 380.374224356Z"
             style="fill:#8d3e38;fill-opacity:1;stroke:none;stroke-opacity:1" />
          <path
             id="path4290"
             d="M184.20898 146.40234C184.20898 138.50901 182.50122 131.86909 179.08789 126.48242L-33.044144356 338.614454356C-29.630814356 344.001124356 -27.923054356 350.641044356 -27.923054356 358.534374356Z"
             style="fill:#8d3e38;fill-opacity:1;stroke:none;stroke-opacity:1" />
          <path
             id="path4292"
             d="M179.08789 126.48242C175.67456 121.04242 171.35557 118.32227 166.12891 118.32227L-46.003124356 330.454304356C-40.776464356 330.454304356 -36.457474356 333.174454356 -33.044144356 338.614454356Z"
             style="fill:#8d3e38;fill-opacity:1;stroke:none;stroke-opacity:1" />
          <path
             id="path4294"
             d="M125.24805 120.48242C125.72805 120.48242 126.20945 120.56266 126.68945 120.72266L-85.442584356 332.854694356C-85.922584356 332.694694356 -86.403984356 332.614454356 -86.883984356 332.614454356Z"
             style="fill:#8d3e38;fill-opacity:1;stroke:none;stroke-opacity:1" />
          <path
             id="path4296"
             d="M126.68945 120.72266C129.88945 121.68266 131.48828 127.01599 131.48828 136.72266L-80.643754356 348.854694356C-80.643754356 339.148024356 -82.242584356 333.814694356 -85.442584356 332.854694356Z"
             style="fill:#8d3e38;fill-opacity:1;stroke:none;stroke-opacity:1" />
          <path
             id="path4298"
             d="M131.48828 136.72266C131.48828 138.26932 131.35456 141.04297 131.08789 145.04297L-81.044144356 357.175004356C-80.777474356 353.175004356 -80.643754356 350.401354356 -80.643754356 348.854694356Z"
             style="fill:#8d3e38;fill-opacity:1;stroke:none;stroke-opacity:1" />
          <path
             id="path4300"
             d="M131.08789 145.04297L130.84961 147.12305L-81.282424356 359.255084356L-81.044144356 357.175004356Z"
             style="fill:#8d3e38;fill-opacity:1;stroke:none;stroke-opacity:1" />
          <path
             id="path4302"
             d="M130.84961 147.12305L130.84961 147.44336L-81.282424356 359.575394356L-81.282424356 359.255084356Z"
             style="fill:#8d3e38;fill-opacity:1;stroke:none;stroke-opacity:1" />
          <path
             id="path4304"
             d="M130.84961 147.44336C130.84961 147.60336 130.82286 147.71034 130.76953 147.76367L-81.362504356 359.895704356C-81.309174356 359.842374356 -81.282424356 359.735394356 -81.282424356 359.575394356Z"
             style="fill:#8d3e38;fill-opacity:1;stroke:none;stroke-opacity:1" />
          <path
             id="path4306"
             d="M130.76953 147.76367C130.76953 147.81701 130.74279 147.92398 130.68945 148.08398L-81.442584356 360.216014356C-81.389244356 360.056014356 -81.362504356 359.949044356 -81.362504356 359.895704356Z"
             style="fill:#8d3e38;fill-opacity:1;stroke:none;stroke-opacity:1" />
          <path
             id="path4308"
             d="M130.68945 148.08398C130.68945 148.24398 130.63596 148.37576 130.5293 148.48242L-81.602734356 360.614454356C-81.496074356 360.507794356 -81.442584356 360.376014356 -81.442584356 360.216014356Z"
             style="fill:#8d3e38;fill-opacity:1;stroke:none;stroke-opacity:1" />
          <path
             id="path4310"
             d="M130.5293 148.48242C130.5293 148.48242 130.5293 148.48242 130.5293 148.48242L-81.602734356 360.614454356C-81.602734356 360.614454356 -81.602734356 360.614454356 -81.602734356 360.614454356Z"
             style="fill:#8d3e38;fill-opacity:1;stroke:none;stroke-opacity:1" />
          <path
             id="path4312"
             d="M130.5293 148.48242L130.20898 148.80273L-81.923054356 360.934764356L-81.602734356 360.614454356Z"
             style="fill:#8d3e38;fill-opacity:1;stroke:none;stroke-opacity:1" />
          <path
             id="path4314"
             d="M130.20898 148.80273C130.208970032 148.802739969 130.208960063 148.802749938 130.208950095 148.802759907L-81.9230842614 360.934794263C-81.9230742927 360.934784294 -81.9230643242 360.934774325 -81.923054356 360.934764356Z"
             style="fill:#8d3e38;fill-opacity:1;stroke:none;stroke-opacity:1" />
          <path
             id="path4316"
             d="M130.208950095 148.802759907C130.102295004 148.909414998 129.968575047 148.989644984 129.80859 149.04297L-82.323444356 361.175004356C-82.1634593092 361.12167934 -82.0297393525 361.041449354 -81.9230842614 360.934794263Z"
             style="fill:#8d3e38;fill-opacity:1;stroke:none;stroke-opacity:1" />
          <path
             id="path4318"
             d="M129.80859 149.04297C129.64859 149.0963 129.43464 149.17654 129.16797 149.2832L-82.964064356 361.415234356C-82.697394356 361.308574356 -82.483444356 361.228334356 -82.323444356 361.175004356Z"
             style="fill:#8d3e38;fill-opacity:1;stroke:none;stroke-opacity:1" />
          <path
             id="path4320"
             d="M129.16797 149.2832C128.95464 149.33654 128.6624 149.39003 128.28906 149.44336L-83.842974356 361.575394356C-83.469634356 361.522064356 -83.177394356 361.468574356 -82.964064356 361.415234356Z"
             style="fill:#8d3e38;fill-opacity:1;stroke:none;stroke-opacity:1" />
          <path
             id="path4322"
             d="M128.28906 149.44336L127.16797 149.44336L-84.964064356 361.575394356L-83.842974356 361.575394356Z"
             style="fill:#8d3e38;fill-opacity:1;stroke:none;stroke-opacity:1" />
          <path
             id="path4324"
             d="M127.16797 149.44336C125.88797 149.44336 124.76859 149.06893 123.80859 148.32227L-88.323444356 360.454304356C-87.363444356 361.200964356 -86.244064356 361.575394356 -84.964064356 361.575394356Z"
             style="fill:#8d3e38;fill-opacity:1;stroke:none;stroke-opacity:1" />
          <path
             id="path4326"
             d="M123.80859 148.32227C121.51526 146.4556 120.36914 141.07073 120.36914 132.16406L-91.762894356 344.296094356C-91.762894356 353.202764356 -90.616774356 358.587634356 -88.323444356 360.454304356Z"
             style="fill:#8d3e38;fill-opacity:1;stroke:none;stroke-opacity:1" />
          <path
             id="path4328"
             d="M120.36914 132.16406C120.36914 127.8974 120.63464 124.93654 121.16797 123.2832L-90.964064356 335.415234356C-91.497394356 337.068574356 -91.762894356 340.029434356 -91.762894356 344.296094356Z"
             style="fill:#8d3e38;fill-opacity:1;stroke:none;stroke-opacity:1" />
          <path
             id="path4330"
             d="M121.16797 123.2832C121.405452684 122.590544645 121.742083537 122.026291181 122.177854385 121.590520334L-89.9541799713 333.72255469C-90.3899508187 334.158325537 -90.7265816718 334.722579001 -90.964064356 335.415234356Z"
             style="fill:#8d3e38;fill-opacity:1;stroke:none;stroke-opacity:1" />
          <path
             id="path4332"
             d="M122.177854385 121.590520334C122.916456917 120.851917801 123.939868723 120.48242 125.24805 120.48242L-86.883984356 332.614454356C-88.1921656326 332.614454356 -89.2155774392 332.983952157 -89.9541799713 333.72255469Z"
             style="fill:#8d3e38;fill-opacity:1;stroke:none;stroke-opacity:1" />
          <path
             id="path4334"
             d="M166.04883 120.5625C166.63549 120.5625 167.19518 120.69622 167.72852 120.96289L-44.403514356 333.094924356C-44.936854356 332.828254356 -45.496544356 332.694534356 -46.083204356 332.694534356Z"
             style="fill:#8d3e38;fill-opacity:1;stroke:none;stroke-opacity:1" />
          <path
             id="path4336"
             d="M167.72852 120.96289C170.28852 122.24289 171.56836 127.6832 171.56836 137.2832L-40.563674356 349.415234356C-40.563674356 339.815234356 -41.843514356 334.374924356 -44.403514356 333.094924356Z"
             style="fill:#8d3e38;fill-opacity:1;stroke:none;stroke-opacity:1" />
          <path
             id="path4338"
             d="M171.56836 137.2832L171.56836 155.60352L-40.563674356 367.735554356L-40.563674356 349.415234356Z"
             style="fill:#8d3e38;fill-opacity:1;stroke:none;stroke-opacity:1" />
          <path
             id="path4340"
             d="M171.56836 155.60352C171.56836 159.71018 171.3544 163.04352 170.92773 165.60352L-41.204304356 377.735554356C-40.777634356 375.175554356 -40.563674356 371.842214356 -40.563674356 367.735554356Z"
             style="fill:#8d3e38;fill-opacity:1;stroke:none;stroke-opacity:1" />
          <path
             id="path4342"
             d="M170.92773 165.60352C170.478306333 168.235880118 169.729830911 170.076213023 168.681762917 171.124281018L-43.4502714392 383.256315374C-42.4022034449 382.208247379 -41.653728023 380.367914474 -41.204304356 377.735554356Z"
             style="fill:#8d3e38;fill-opacity:1;stroke:none;stroke-opacity:1" />
          <path
             id="path4344"
             d="M168.681762917 171.124281018C167.98859985 171.817444084 167.164391029 172.16406 166.20898 172.16406L-45.923054356 384.296094356C-44.9676433267 384.296094356 -44.143434506 383.94947844 -43.4502714392 383.256315374Z"
             style="fill:#8d3e38;fill-opacity:1;stroke:none;stroke-opacity:1" />
          <path
             id="path4346"
             d="M166.20898 172.16406C165.40898 172.16406 164.68883 171.9501 164.04883 171.52344L-48.083204356 383.655474356C-47.443204356 384.082134356 -46.723054356 384.296094356 -45.923054356 384.296094356Z"
             style="fill:#8d3e38;fill-opacity:1;stroke:none;stroke-opacity:1" />
          <path
             id="path4348"
             d="M164.04883 171.52344C161.80883 169.97677 160.68945 164.67018 160.68945 155.60352L-51.442584356 367.735554356C-51.442584356 376.802214356 -50.323204356 382.108804356 -48.083204356 383.655474356Z"
             style="fill:#8d3e38;fill-opacity:1;stroke:none;stroke-opacity:1" />
          <path
             id="path4350"
             d="M160.68945 155.60352L160.68945 137.2832L-51.442584356 349.415234356L-51.442584356 367.735554356Z"
             style="fill:#8d3e38;fill-opacity:1;stroke:none;stroke-opacity:1" />
          <path
             id="path4352"
             d="M160.68945 137.2832C160.68945 133.06987 160.87471 129.70979 161.24805 127.20312L-50.883984356 339.335154356C-51.257324356 341.841824356 -51.442584356 345.201904356 -51.442584356 349.415234356Z"
             style="fill:#8d3e38;fill-opacity:1;stroke:none;stroke-opacity:1" />
          <path
             id="path4354"
             d="M161.24805 127.20312C161.696036748 124.547178853 162.451493995 122.687776803 163.514084803 121.625185995L-48.6179495527 333.757220351C-49.6805403607 334.819811159 -50.4359976081 336.679213209 -50.883984356 339.335154356Z"
             style="fill:#8d3e38;fill-opacity:1;stroke:none;stroke-opacity:1" />
          <path
             id="path4356"
             d="M163.514084803 121.625185995C164.222515251 120.916755548 165.0674636 120.5625 166.04883 120.5625L-46.083204356 332.694534356C-47.0645707563 332.694534356 -47.909519105 333.048789904 -48.6179495527 333.757220351Z"
             style="fill:#8d3e38;fill-opacity:1;stroke:none;stroke-opacity:1" />
        </g>
        <path
           id="path4149"
           transform=""
           d="M 94.722656 118.08398 C 89.922656 118.08398 86.375365 119.36383 84.082031 121.92383 C 81.842031 124.53716 80.722656 129.38909 80.722656 136.48242 L 76.162109 136.48242 L 76.162109 140.00391 L 80.722656 140.00391 L 80.722656 166.64258 C 80.722656 167.76258 80.588932 168.66995 80.322266 169.36328 C 79.895599 170.48328 78.508776 171.17669 76.162109 171.44336 L 76.162109 173.36328 L 98.402344 173.36328 L 98.402344 171.44336 C 95.94901 171.39003 94.269948 171.06909 93.363281 170.48242 C 92.349948 169.78909 91.841797 168.00305 91.841797 165.12305 L 91.841797 140.00391 L 98.802734 140.00391 L 98.802734 136.48242 L 91.841797 136.48242 L 91.841797 126.72266 C 91.841797 125.81599 91.895286 125.0156 92.001953 124.32227 C 92.375286 121.8156 93.65513 120.5625 95.841797 120.5625 C 97.281797 120.61583 98.055443 121.12398 98.162109 122.08398 C 98.162109 122.29732 98.028385 122.64305 97.761719 123.12305 C 96.855052 124.82971 96.402344 126.00258 96.402344 126.64258 C 96.402344 127.28258 96.536068 127.89576 96.802734 128.48242 C 97.656068 130.18909 99.123123 131.04297 101.20312 131.04297 C 101.84312 131.04297 102.4563 130.93599 103.04297 130.72266 C 105.12297 130.02932 106.16211 128.48398 106.16211 126.08398 C 106.16211 124.69732 105.73615 123.39073 104.88281 122.16406 C 102.90948 119.44406 99.522658 118.08398 94.722656 118.08398 z M 125.4082 118.32227 C 121.2482 118.32227 117.62263 119.62885 114.5293 122.24219 C 110.31596 125.81552 108.20898 130.80312 108.20898 137.20312 C 108.20898 140.82979 109.03612 143.97591 110.68945 146.64258 C 113.35612 150.90924 117.38286 153.04297 122.76953 153.04297 C 125.5962 153.04297 128.02216 152.53677 130.04883 151.52344 C 129.14216 154.6701 128.02279 157.47049 126.68945 159.92383 C 123.00945 166.48383 116.98271 170.6156 108.60938 172.32227 L 108.60938 174.40234 C 111.64938 173.97568 114.2893 173.49622 116.5293 172.96289 C 122.1293 171.68289 127.11495 169.39065 131.48828 166.08398 C 139.75495 159.79065 143.91542 151.49646 143.96875 141.20312 C 143.96875 135.44313 142.7424 130.5625 140.28906 126.5625 C 136.87573 121.06917 131.91487 118.32227 125.4082 118.32227 z M 166.12891 118.32227 C 161.59557 118.3756 157.64906 120.56281 154.28906 124.88281 C 150.12906 130.32281 148.04883 137.4174 148.04883 146.16406 C 148.04883 154.00406 149.62286 160.56375 152.76953 165.84375 C 156.18286 171.55042 160.66232 174.40234 166.20898 174.40234 C 170.63565 174.34901 174.50193 172.29552 177.80859 168.24219 C 182.07526 162.80219 184.20898 155.52234 184.20898 146.40234 C 184.20898 138.50901 182.50122 131.86909 179.08789 126.48242 C 175.67456 121.04242 171.35557 118.32227 166.12891 118.32227 z M 125.24805 120.48242 C 125.72805 120.48242 126.20945 120.56266 126.68945 120.72266 C 129.88945 121.68266 131.48828 127.01599 131.48828 136.72266 C 131.48828 138.26932 131.35456 141.04297 131.08789 145.04297 L 130.84961 147.12305 L 130.84961 147.44336 C 130.84961 147.60336 130.82286 147.71034 130.76953 147.76367 C 130.76953 147.81701 130.74279 147.92398 130.68945 148.08398 C 130.68945 148.24398 130.63596 148.37576 130.5293 148.48242 L 130.20898 148.80273 C 130.10232 148.9094 129.96859 148.98964 129.80859 149.04297 C 129.64859 149.0963 129.43464 149.17654 129.16797 149.2832 C 128.95464 149.33654 128.6624 149.39003 128.28906 149.44336 L 127.16797 149.44336 C 125.88797 149.44336 124.76859 149.06893 123.80859 148.32227 C 121.51526 146.4556 120.36914 141.07073 120.36914 132.16406 C 120.36914 127.8974 120.63464 124.93654 121.16797 123.2832 C 121.80797 121.41654 123.16805 120.48242 125.24805 120.48242 z M 166.04883 120.5625 C 166.63549 120.5625 167.19518 120.69622 167.72852 120.96289 C 170.28852 122.24289 171.56836 127.6832 171.56836 137.2832 L 171.56836 155.60352 C 171.56836 159.71018 171.3544 163.04352 170.92773 165.60352 C 170.18107 169.97685 168.60898 172.16406 166.20898 172.16406 C 165.40898 172.16406 164.68883 171.9501 164.04883 171.52344 C 161.80883 169.97677 160.68945 164.67018 160.68945 155.60352 L 160.68945 137.2832 C 160.68945 133.06987 160.87471 129.70979 161.24805 127.20312 C 161.99471 122.77646 163.59549 120.5625 166.04883 120.5625 z "
           style="fill:#8d3e38;fill-opacity:1;stroke:none;stroke-opacity:1" />
      </g>
    </g>
    <text
       xml:space="preserve"
       style="font-style:normal;font-variant:normal;font-weight:bold;font-stretch:normal;font-size:80px;line-height:125%;font-family:FreeSerif;-inkscape-font-specification:'FreeSerif Bold';letter-spacing:0px;word-spacing:0px;fill:#ffffff;fill-opacity:1;stroke:none;stroke-width:1px;stroke-linecap:butt;stroke-linejoin:miter;stroke-opacity:1"
       x="74.876266"
       y="968.56775"
       id="text5049"
       sodipodi:linespacing="125%"><tspan
         sodipodi:role="line"
         id="tspan5051"
         x="74.876266"
         y="968.56775">f90</tspan></text>
  </g>
</svg>
