<?xml version="1.0" encoding="UTF-8" standalone="no"?>
<!-- Created with Inkscape (http://www.inkscape.org/) -->

<svg
   xmlns:dc="http://purl.org/dc/elements/1.1/"
   xmlns:cc="http://creativecommons.org/ns#"
   xmlns:rdf="http://www.w3.org/1999/02/22-rdf-syntax-ns#"
   xmlns:svg="http://www.w3.org/2000/svg"
   xmlns="http://www.w3.org/2000/svg"
   xmlns:sodipodi="http://sodipodi.sourceforge.net/DTD/sodipodi-0.dtd"
   xmlns:inkscape="http://www.inkscape.org/namespaces/inkscape"
   sodipodi:docname="text-x-csharp.svg"
   inkscape:version="0.91 r13725"
   version="1.1"
   id="svg2"
   viewBox="0 0 256 256"
   height="256"
   width="256">
  <sodipodi:namedview
     inkscape:window-maximized="1"
     inkscape:window-y="0"
     inkscape:window-x="0"
     inkscape:window-height="721"
     inkscape:window-width="1366"
     units="px"
     showgrid="false"
     inkscape:current-layer="layer1"
     inkscape:document-units="px"
     inkscape:cy="128"
     inkscape:cx="99.802356"
     inkscape:zoom="2.1328125"
     inkscape:pageshadow="2"
     inkscape:pageopacity="0.0"
     borderopacity="1.0"
     bordercolor="#666666"
     pagecolor="#ffffff"
     id="base" />
  <defs
     id="defs4">
    <filter
       style="color-interpolation-filters:sRGB;"
       inkscape:label="Drop Shadow"
       id="filter4301">
      <feFlood
         flood-opacity="0.498039"
         flood-color="rgb(0,0,0)"
         result="flood"
         id="feFlood4303" />
      <feComposite
         in="flood"
         in2="SourceGraphic"
         operator="in"
         result="composite1"
         id="feComposite4305" />
      <feGaussianBlur
         in="composite1"
         stdDeviation="3.7"
         result="blur"
         id="feGaussianBlur4307" />
      <feOffset
         dx="3.8"
         dy="3.7"
         result="offset"
         id="feOffset4309" />
      <feComposite
         in="SourceGraphic"
         in2="offset"
         operator="over"
         result="composite2"
         id="feComposite4311" />
    </filter>
    <clipPath
       id="clipPath4266"
       clipPathUnits="userSpaceOnUse">
      <path
         inkscape:connector-curvature="0"
         id="path4268"
         d="m 153.38672,796.84847 -105.781251,0 c -7.804357,0 -14.087891,6.28158 -14.087891,14.08594 l 0,227.33989 c 0,7.8043 6.283534,14.0878 14.087891,14.0878 l 165.162111,0 c 7.80436,0 14.08594,-6.2835 14.08594,-14.0878 l 0,-154.82232 -73.4668,-86.60351 z"
         style="fill:#db4437;fill-opacity:1" />
    </clipPath>
    <clipPath
       clipPathUnits="userSpaceOnUse"
       id="clipPath6236">
      <path
         id="path6238"
         d="m 153.38672,796.84847 -105.781251,0 c -7.804357,0 -14.087891,6.28158 -14.087891,14.08594 l 0,227.33989 c 0,7.8043 6.283534,14.0878 14.087891,14.0878 l 165.162111,0 c 7.80436,0 14.08594,-6.2835 14.08594,-14.0878 l 0,-154.82232 -73.4668,-86.60351 z"
         style="fill:#db4437;fill-opacity:1"
         inkscape:connector-curvature="0" />
    </clipPath>
  </defs>
  <metadata
     id="metadata7">
    <rdf:RDF>
      <cc:Work
         rdf:about="">
        <dc:format>image/svg+xml</dc:format>
        <dc:type
           rdf:resource="http://purl.org/dc/dcmitype/StillImage" />
        <dc:title />
      </cc:Work>
    </rdf:RDF>
  </metadata>
  <g
     inkscape:label="Layer 1"
     inkscape:groupmode="layer"
     id="layer1"
     transform="translate(0,-796.36214)">
    <path
       style="fill:#db4437;fill-opacity:1"
       d="M 153.38672 0.48632812 L 47.605469 0.48632812 C 39.801112 0.48632812 33.517578 6.7679087 33.517578 14.572266 L 33.517578 241.91211 C 33.517578 249.71647 39.801112 256 47.605469 256 L 212.76758 256 C 220.57194 256 226.85352 249.71647 226.85352 241.91211 L 226.85352 87.089844 L 153.38672 0.48632812 z "
       id="path4141"
       transform="translate(0,796.36214)" />
    <path
       style="fill:#ec6155;fill-opacity:1;filter:url(#filter4301)"
       d="m 226.85352,883.45199 -73.4668,-86.60352 0,72.51758 c 0,7.80436 6.28158,14.08594 14.08594,14.08594 l 59.38086,0 z"
       id="rect4136"
       inkscape:connector-curvature="0" />
    <g
       id="text4144"
       style="font-style:normal;font-variant:normal;font-weight:bold;font-stretch:normal;font-size:90px;line-height:125%;font-family:FreeSerif;-inkscape-font-specification:'FreeSerif Bold';letter-spacing:0px;word-spacing:0px;fill:#8d3e38;fill-opacity:1;stroke:none;stroke-width:1px;stroke-linecap:butt;stroke-linejoin:miter;stroke-opacity:1"
       clip-path="url(#clipPath6236)">
      <g
         id="g6034"
         transform="translate(0,796.36214)"
         style="fill:#8d3e38;fill-opacity:1">
        <g
           id="g6036"
           style="fill:#8d3e38;fill-opacity:1">
          <path
             id="path6038"
             d="M151.13086 120.02539L148.43164 138.92578L7.01028376269 280.347136237L9.70950376269 261.446746237Z"
             style="fill:#8d3e38;fill-opacity:1" />
          <path
             id="path6040"
             d="M148.43164 138.92578L138.89062 138.92578L-2.53073623731 280.347136237L7.01028376269 280.347136237Z"
             style="fill:#8d3e38;fill-opacity:1" />
          <path
             id="path6042"
             d="M138.89062 138.92578L138.89062 145.49609L-2.53073623731 286.917446237L-2.53073623731 280.347136237Z"
             style="fill:#8d3e38;fill-opacity:1" />
          <path
             id="path6044"
             d="M138.89062 145.49609L147.53125 145.49609L6.10989376269 286.917446237L-2.53073623731 286.917446237Z"
             style="fill:#8d3e38;fill-opacity:1" />
          <path
             id="path6046"
             d="M147.53125 145.49609L145.91211 157.55664L4.49075376269 298.977996237L6.10989376269 286.917446237Z"
             style="fill:#8d3e38;fill-opacity:1" />
          <path
             id="path6048"
             d="M145.91211 157.55664L136.28125 157.55664L-5.14010623731 298.977996237L4.49075376269 298.977996237Z"
             style="fill:#8d3e38;fill-opacity:1" />
          <path
             id="path6050"
             d="M136.28125 157.55664L136.28125 164.12695L-5.14010623731 305.548306237L-5.14010623731 298.977996237Z"
             style="fill:#8d3e38;fill-opacity:1" />
          <path
             id="path6052"
             d="M136.28125 164.12695L144.92188 164.12695L3.50052376269 305.548306237L-5.14010623731 305.548306237Z"
             style="fill:#8d3e38;fill-opacity:1" />
          <path
             id="path6054"
             d="M144.92188 164.12695L142.31055 183.02539L0.889193762691 324.446746237L3.50052376269 305.548306237Z"
             style="fill:#8d3e38;fill-opacity:1" />
          <path
             id="path6056"
             d="M142.31055 183.02539L149.33203 183.02539L7.91067376269 324.446746237L0.889193762691 324.446746237Z"
             style="fill:#8d3e38;fill-opacity:1" />
          <path
             id="path6058"
             d="M149.33203 183.02539L151.94141 164.12695L10.5200537627 305.548306237L7.91067376269 324.446746237Z"
             style="fill:#8d3e38;fill-opacity:1" />
          <path
             id="path6060"
             d="M151.94141 164.12695L162.11133 164.12695L20.6899737627 305.548306237L10.5200537627 305.548306237Z"
             style="fill:#8d3e38;fill-opacity:1" />
          <path
             id="path6062"
             d="M162.11133 164.12695L159.50195 183.02539L18.0805937627 324.446746237L20.6899737627 305.548306237Z"
             style="fill:#8d3e38;fill-opacity:1" />
          <path
             id="path6064"
             d="M159.50195 183.02539L166.52148 183.02539L25.1001237627 324.446746237L18.0805937627 324.446746237Z"
             style="fill:#8d3e38;fill-opacity:1" />
          <path
             id="path6066"
             d="M166.52148 183.02539L169.13086 164.12695L27.7095037627 305.548306237L25.1001237627 324.446746237Z"
             style="fill:#8d3e38;fill-opacity:1" />
          <path
             id="path6068"
             d="M169.13086 164.12695L177.95117 164.12695L36.5298137627 305.548306237L27.7095037627 305.548306237Z"
             style="fill:#8d3e38;fill-opacity:1" />
          <path
             id="path6070"
             d="M177.95117 164.12695L177.95117 157.55664L36.5298137627 298.977996237L36.5298137627 305.548306237Z"
             style="fill:#8d3e38;fill-opacity:1" />
          <path
             id="path6072"
             d="M177.95117 157.55664L170.12109 157.55664L28.6997337627 298.977996237L36.5298137627 298.977996237Z"
             style="fill:#8d3e38;fill-opacity:1" />
          <path
             id="path6074"
             d="M170.12109 157.55664L171.74219 145.49609L30.3208337627 286.917446237L28.6997337627 298.977996237Z"
             style="fill:#8d3e38;fill-opacity:1" />
          <path
             id="path6076"
             d="M171.74219 145.49609L180.56055 145.49609L39.1391937627 286.917446237L30.3208337627 286.917446237Z"
             style="fill:#8d3e38;fill-opacity:1" />
          <path
             id="path6078"
             d="M180.56055 145.49609L180.56055 138.92578L39.1391937627 280.347136237L39.1391937627 286.917446237Z"
             style="fill:#8d3e38;fill-opacity:1" />
          <path
             id="path6080"
             d="M180.56055 138.92578L172.64062 138.92578L31.2192637627 280.347136237L39.1391937627 280.347136237Z"
             style="fill:#8d3e38;fill-opacity:1" />
          <path
             id="path6082"
             d="M172.64062 138.92578L175.25195 120.02539L33.8305937627 261.446746237L31.2192637627 280.347136237Z"
             style="fill:#8d3e38;fill-opacity:1" />
          <path
             id="path6084"
             d="M175.25195 120.02539L168.32227 120.02539L26.9009137627 261.446746237L33.8305937627 261.446746237Z"
             style="fill:#8d3e38;fill-opacity:1" />
          <path
             id="path6086"
             d="M168.32227 120.02539L165.62109 138.92578L24.1997337627 280.347136237L26.9009137627 261.446746237Z"
             style="fill:#8d3e38;fill-opacity:1" />
          <path
             id="path6088"
             d="M165.62109 138.92578L155.45117 138.92578L14.0298137627 280.347136237L24.1997337627 280.347136237Z"
             style="fill:#8d3e38;fill-opacity:1" />
          <path
             id="path6090"
             d="M155.45117 138.92578L158.06055 120.02539L16.6391937627 261.446746237L14.0298137627 280.347136237Z"
             style="fill:#8d3e38;fill-opacity:1" />
          <path
             id="path6092"
             d="M158.06055 120.02539L151.13086 120.02539L9.70950376269 261.446746237L16.6391937627 261.446746237Z"
             style="fill:#8d3e38;fill-opacity:1" />
          <path
             id="path6094"
             d="M106.75781 120.83594C97.937811 120.83594 90.529297 123.83594 84.529297 129.83594L-56.8920592373 271.257296237C-50.8920592373 265.257296237 -43.4835452373 262.257296237 -34.6635462373 262.257296237Z"
             style="fill:#8d3e38;fill-opacity:1" />
          <path
             id="path6096"
             d="M84.529297 129.83594C84.529297 129.83594 84.529297 129.83594 84.529297 129.83594L-56.8920592373 271.257296237C-56.8920592373 271.257296237 -56.8920592373 271.257296237 -56.8920592373 271.257296237Z"
             style="fill:#8d3e38;fill-opacity:1" />
          <path
             id="path6098"
             d="M84.529297 129.83594C78.469297 136.01594 75.439453 143.75664 75.439453 153.05664L-65.9819032373 294.477996237C-65.9819032373 285.177996237 -62.9520592373 277.437296237 -56.8920592373 271.257296237Z"
             style="fill:#8d3e38;fill-opacity:1" />
          <path
             id="path6100"
             d="M75.439453 153.05664C75.439453 161.87664 78.19875 169.25531 83.71875 175.19531L-57.7026062373 316.616666237C-63.2226062373 310.676666237 -65.9819032373 303.297996237 -65.9819032373 294.477996237Z"
             style="fill:#8d3e38;fill-opacity:1" />
          <path
             id="path6102"
             d="M83.71875 175.19531C89.71875 181.55531 97.578826 184.73633 107.29883 184.73633L-34.1225262373 326.157686237C-43.8425302373 326.157686237 -51.7026062373 322.976666237 -57.7026062373 316.616666237Z"
             style="fill:#8d3e38;fill-opacity:1" />
          <path
             id="path6104"
             d="M107.29883 184.73633C114.37883 184.73633 120.61953 182.6057 126.01953 178.3457L-15.4018262373 319.767056237C-20.8018262373 324.027056237 -27.0425262373 326.157686237 -34.1225262373 326.157686237Z"
             style="fill:#8d3e38;fill-opacity:1" />
          <path
             id="path6106"
             d="M126.01953 178.3457C126.870263276 177.691289788 127.935078305 176.724611963 129.214023743 175.445666525L-12.2073324943 316.867022762C-13.486277932 318.1459682 -14.5510929613 319.112646025 -15.4018262373 319.767056237Z"
             style="fill:#8d3e38;fill-opacity:1" />
          <path
             id="path6108"
             d="M129.214023743 175.445666525C130.280296177 174.379394091 131.495405531 173.096071916 132.85938 171.5957L-8.56197623731 313.017056237C-9.92595070656 314.517428153 -11.1410600605 315.800750329 -12.2073324943 316.867022762Z"
             style="fill:#8d3e38;fill-opacity:1" />
          <path
             id="path6110"
             d="M132.85938 171.5957L130.1582 169.3457L-11.2631562373 310.767056237L-8.56197623731 313.017056237Z"
             style="fill:#8d3e38;fill-opacity:1" />
          <path
             id="path6112"
             d="M130.1582 169.3457C129.738195727 169.795704578 129.318308957 170.230591348 128.898422186 170.650477814L-12.5229340512 312.071834051C-12.1030472799 311.651947585 -11.6831605098 311.217060815 -11.2631562373 310.767056237Z"
             style="fill:#8d3e38;fill-opacity:1" />
          <path
             id="path6114"
             d="M128.898422186 170.650477814C128.478543957 171.070355737 128.058665727 171.475233967 127.63867 171.86523L-13.7826862373 313.286586237C-13.3626905098 312.896590205 -12.9428122799 312.491711975 -12.5229340512 312.071834051Z"
             style="fill:#8d3e38;fill-opacity:1" />
          <path
             id="path6116"
             d="M127.63867 171.86523C121.63867 177.56523 115.57898 180.41602 109.45898 180.41602L-31.9623762373 321.837376237C-25.8423762373 321.837376237 -19.7826862373 318.986586237 -13.7826862373 313.286586237Z"
             style="fill:#8d3e38;fill-opacity:1" />
          <path
             id="path6118"
             d="M109.45898 180.41602C97.458982 180.35602 91.429141 170.99594 91.369141 152.33594L-50.0522152373 293.757296237C-49.9922152373 312.417296237 -43.9623742373 321.777376237 -31.9623762373 321.837376237Z"
             style="fill:#8d3e38;fill-opacity:1" />
          <path
             id="path6120"
             d="M91.369141 152.33594C91.369141 147.95594 91.699375 144.05672 92.359375 140.63672L-49.0619812373 282.058076237C-49.7219812373 285.478076237 -50.0522152373 289.377296237 -50.0522152373 293.757296237Z"
             style="fill:#8d3e38;fill-opacity:1" />
          <path
             id="path6122"
             d="M92.359375 140.63672C93.4283792536 134.757196605 95.3619183559 130.418150144 98.1604648601 127.619603639L-43.2608913772 269.040959877C-46.0594378815 271.839506381 -47.9929769837 276.178552842 -49.0619812373 282.058076237Z"
             style="fill:#8d3e38;fill-opacity:1" />
          <path
             id="path6124"
             d="M98.1604648601 127.619603639C100.702434868 125.077633631 103.958071871 123.80664 107.92773 123.80664L-33.4936262373 265.227996237C-37.463284366 265.227996237 -40.7189213688 266.498989868 -43.2608913772 269.040959877Z"
             style="fill:#8d3e38;fill-opacity:1" />
          <path
             id="path6126"
             d="M107.92773 123.80664C109.18773 123.80664 110.44898 123.95586 111.70898 124.25586L-29.7123762373 265.677216237C-30.9723762373 265.377216237 -32.2336262373 265.227996237 -33.4936262373 265.227996237Z"
             style="fill:#8d3e38;fill-opacity:1" />
          <path
             id="path6128"
             d="M111.70898 124.25586C118.42898 125.99586 124.18828 131.96602 128.98828 142.16602L-12.4330762373 283.587376237C-17.2330762373 273.387376237 -22.9923762373 267.417216237 -29.7123762373 265.677216237Z"
             style="fill:#8d3e38;fill-opacity:1" />
          <path
             id="path6130"
             d="M128.98828 142.16602L131.23828 142.16602L-10.1830762373 283.587376237L-12.4330762373 283.587376237Z"
             style="fill:#8d3e38;fill-opacity:1" />
          <path
             id="path6132"
             d="M131.23828 142.16602L131.23828 121.10547L-10.1830762373 262.526826237L-10.1830762373 283.587376237Z"
             style="fill:#8d3e38;fill-opacity:1" />
          <path
             id="path6134"
             d="M131.23828 121.10547L128.80859 121.10547L-12.6127662373 262.526826237L-10.1830762373 262.526826237Z"
             style="fill:#8d3e38;fill-opacity:1" />
          <path
             id="path6136"
             d="M128.80859 121.10547C128.62859 121.46547 128.47937 121.82555 128.35938 122.18555L-13.0619762373 263.606906237C-12.9419862373 263.246906237 -12.7927662373 262.886826237 -12.6127662373 262.526826237Z"
             style="fill:#8d3e38;fill-opacity:1" />
          <path
             id="path6138"
             d="M128.35938 122.18555C127.938143378 123.080677821 127.476143239 123.779523871 126.973670199 124.281996911L-14.4476860384 265.703353148C-13.9452129987 265.200880109 -13.4832128588 264.502034058 -13.0619762373 263.606906237Z"
             style="fill:#8d3e38;fill-opacity:1" />
          <path
             id="path6140"
             d="M126.973670199 124.281996911C126.331005106 124.924662004 125.622132357 125.24609 124.84766 125.24609L-16.5736962373 266.667446237C-15.7992238808 266.667446237 -15.0903511313 266.346018241 -14.4476860384 265.703353148Z"
             style="fill:#8d3e38;fill-opacity:1" />
          <path
             id="path6142"
             d="M124.84766 125.24609C123.94766 125.24609 122.41781 124.79648 120.25781 123.89648L-21.1635462373 265.317836237C-19.0035462373 266.217836237 -17.4736962373 266.667446237 -16.5736962373 266.667446237Z"
             style="fill:#8d3e38;fill-opacity:1" />
          <path
             id="path6144"
             d="M120.25781 123.89648C115.33781 121.85648 110.83781 120.83594 106.75781 120.83594L-34.6635462373 262.257296237C-30.5835462373 262.257296237 -26.0835462373 263.277836237 -21.1635462373 265.317836237Z"
             style="fill:#8d3e38;fill-opacity:1" />
          <path
             id="path6146"
             d="M154.55078 145.49609L164.7207 145.49609L23.2993437627 286.917446237L13.1294237627 286.917446237Z"
             style="fill:#8d3e38;fill-opacity:1" />
          <path
             id="path6148"
             d="M164.7207 145.49609L163.10156 157.55664L21.6802037627 298.977996237L23.2993437627 286.917446237Z"
             style="fill:#8d3e38;fill-opacity:1" />
          <path
             id="path6150"
             d="M163.10156 157.55664L152.93164 157.55664L11.5102837627 298.977996237L21.6802037627 298.977996237Z"
             style="fill:#8d3e38;fill-opacity:1" />
          <path
             id="path6152"
             d="M152.93164 157.55664L154.55078 145.49609L13.1294237627 286.917446237L11.5102837627 298.977996237Z"
             style="fill:#8d3e38;fill-opacity:1" />
        </g>
        <path
           id="path6013"
           transform=""
           d="M 151.13086 120.02539 L 148.43164 138.92578 L 138.89062 138.92578 L 138.89062 145.49609 L 147.53125 145.49609 L 145.91211 157.55664 L 136.28125 157.55664 L 136.28125 164.12695 L 144.92188 164.12695 L 142.31055 183.02539 L 149.33203 183.02539 L 151.94141 164.12695 L 162.11133 164.12695 L 159.50195 183.02539 L 166.52148 183.02539 L 169.13086 164.12695 L 177.95117 164.12695 L 177.95117 157.55664 L 170.12109 157.55664 L 171.74219 145.49609 L 180.56055 145.49609 L 180.56055 138.92578 L 172.64062 138.92578 L 175.25195 120.02539 L 168.32227 120.02539 L 165.62109 138.92578 L 155.45117 138.92578 L 158.06055 120.02539 L 151.13086 120.02539 z M 106.75781 120.83594 C 97.937811 120.83594 90.529297 123.83594 84.529297 129.83594 C 78.469297 136.01594 75.439453 143.75664 75.439453 153.05664 C 75.439453 161.87664 78.19875 169.25531 83.71875 175.19531 C 89.71875 181.55531 97.578826 184.73633 107.29883 184.73633 C 114.37883 184.73633 120.61953 182.6057 126.01953 178.3457 C 127.57953 177.1457 129.85938 174.8957 132.85938 171.5957 L 130.1582 169.3457 C 129.3182 170.2457 128.47867 171.08523 127.63867 171.86523 C 121.63867 177.56523 115.57898 180.41602 109.45898 180.41602 C 97.458982 180.35602 91.429141 170.99594 91.369141 152.33594 C 91.369141 147.95594 91.699375 144.05672 92.359375 140.63672 C 94.399375 129.41672 99.587732 123.80664 107.92773 123.80664 C 109.18773 123.80664 110.44898 123.95586 111.70898 124.25586 C 118.42898 125.99586 124.18828 131.96602 128.98828 142.16602 L 131.23828 142.16602 L 131.23828 121.10547 L 128.80859 121.10547 C 128.62859 121.46547 128.47937 121.82555 128.35938 122.18555 C 127.39938 124.22555 126.22766 125.24609 124.84766 125.24609 C 123.94766 125.24609 122.41781 124.79648 120.25781 123.89648 C 115.33781 121.85648 110.83781 120.83594 106.75781 120.83594 z M 154.55078 145.49609 L 164.7207 145.49609 L 163.10156 157.55664 L 152.93164 157.55664 L 154.55078 145.49609 z "
           style="fill:#8d3e38;fill-opacity:1" />
      </g>
    </g>
    <text
       xml:space="preserve"
       style="font-style:normal;font-variant:normal;font-weight:bold;font-stretch:normal;font-size:90px;line-height:125%;font-family:FreeSerif;-inkscape-font-specification:'FreeSerif Bold';letter-spacing:0px;word-spacing:0px;fill:#ffffff;fill-opacity:1;stroke:none;stroke-width:1px;stroke-linecap:butt;stroke-linejoin:miter;stroke-opacity:1"
       x="72.288597"
       y="978.45056"
       id="text6008"
       sodipodi:linespacing="125%"><tspan
         sodipodi:role="line"
         id="tspan6010"
         x="72.288597"
         y="978.45056">C#</tspan></text>
  </g>
</svg>
