<?xml version="1.0" encoding="UTF-8" standalone="no"?>
<!-- Created with Inkscape (http://www.inkscape.org/) -->

<svg
   xmlns:dc="http://purl.org/dc/elements/1.1/"
   xmlns:cc="http://creativecommons.org/ns#"
   xmlns:rdf="http://www.w3.org/1999/02/22-rdf-syntax-ns#"
   xmlns:svg="http://www.w3.org/2000/svg"
   xmlns="http://www.w3.org/2000/svg"
   xmlns:sodipodi="http://sodipodi.sourceforge.net/DTD/sodipodi-0.dtd"
   xmlns:inkscape="http://www.inkscape.org/namespaces/inkscape"
   width="256"
   height="256"
   viewBox="0 0 256 256"
   id="svg2"
   version="1.1"
   inkscape:version="0.91 r13725"
   sodipodi:docname="x-office-spreadsheet.svg">
  <sodipodi:namedview
     id="base"
     pagecolor="#ffffff"
     bordercolor="#666666"
     borderopacity="1.0"
     inkscape:pageopacity="0.0"
     inkscape:pageshadow="2"
     inkscape:zoom="3.3632812"
     inkscape:cx="127.70267"
     inkscape:cy="128"
     inkscape:document-units="px"
     inkscape:current-layer="layer1"
     showgrid="false"
     units="px"
     inkscape:window-width="1920"
     inkscape:window-height="1054"
     inkscape:window-x="0"
     inkscape:window-y="0"
     inkscape:window-maximized="1" />
  <defs
     id="defs4">
    <filter
       style="color-interpolation-filters:sRGB;"
       inkscape:label="Drop Shadow"
       id="filter4301">
      <feFlood
         flood-opacity="0.498039"
         flood-color="rgb(0,0,0)"
         result="flood"
         id="feFlood4303" />
      <feComposite
         in="flood"
         in2="SourceGraphic"
         operator="in"
         result="composite1"
         id="feComposite4305" />
      <feGaussianBlur
         in="composite1"
         stdDeviation="3.7"
         result="blur"
         id="feGaussianBlur4307" />
      <feOffset
         dx="3.8"
         dy="3.7"
         result="offset"
         id="feOffset4309" />
      <feComposite
         in="SourceGraphic"
         in2="offset"
         operator="over"
         result="composite2"
         id="feComposite4311" />
    </filter>
    <clipPath
       id="clipPath4369"
       clipPathUnits="userSpaceOnUse">
      <path
         inkscape:connector-curvature="0"
         id="path4371"
         d="M 121.77164,792.46477 A 124.37042,124.37042 0 0 0 -2.4393803,916.8295 124.37042,124.37042 0 0 0 121.93104,1041.1999 124.37042,124.37042 0 0 0 246.29388,916.98701 L 121.77164,792.46477 Z m 12.07153,0.59019 a 124.37042,124.37042 0 0 1 7.54732,1.08931 124.37042,124.37042 0 0 0 -7.54732,-1.08931 z m 12.23095,1.79717 a 124.37042,124.37042 0 0 1 8.18306,2.03058 124.37042,124.37042 0 0 0 -8.18306,-2.03058 z m 12.01271,3.00982 a 124.37042,124.37042 0 0 1 8.69165,3.1066 124.37042,124.37042 0 0 0 -8.69165,-3.1066 z m 11.64454,4.18261 a 124.37042,124.37042 0 0 1 9.0788,4.31358 124.37042,124.37042 0 0 0 -9.0788,-4.31358 z m 11.17201,5.32317 a 124.37042,124.37042 0 0 1 9.22492,5.57178 124.37042,124.37042 0 0 0 -9.22492,-5.57178 z m 10.59699,6.41248 a 124.37042,124.37042 0 0 1 9.38624,7.03872 124.37042,124.37042 0 0 0 -9.38624,-7.03872 z m 9.88913,7.42206 a 124.37042,124.37042 0 0 1 9.12245,8.38423 124.37042,124.37042 0 0 0 -9.12245,-8.38423 z m 9.12245,8.38423 0.95266,0.95267 a 124.37042,124.37042 0 0 0 -0.95266,-0.95267 z m 7.43346,8.32919 a 124.37042,124.37042 0 0 1 4.37619,5.75395 124.37042,124.37042 0 0 0 -4.37619,-5.75395 z m 7.42207,10.01249 a 124.37042,124.37042 0 0 1 3.70248,6.03671 124.37042,124.37042 0 0 0 -3.70248,-6.03671 z m 6.38969,10.71844 a 124.37042,124.37042 0 0 1 2.99464,6.19613 124.37042,124.37042 0 0 0 -2.99464,-6.19613 z m 5.28332,11.30865 a 124.37042,124.37042 0 0 1 2.30954,6.32328 124.37042,124.37042 0 0 0 -2.30954,-6.32328 z m 4.1124,11.75081 a 124.37042,124.37042 0 0 1 1.63775,6.40678 124.37042,124.37042 0 0 0 -1.63775,-6.40678 z m 2.92252,12.13227 a 124.37042,124.37042 0 0 1 0.96216,6.35364 124.37042,124.37042 0 0 0 -0.96216,-6.35364 z m 1.69089,12.35051 a 124.37042,124.37042 0 0 1 0.53517,10.64064 124.37042,124.37042 0 0 0 -0.53517,-10.64064 z"
         style="fill:#72a854;fill-opacity:1" />
    </clipPath>
    <clipPath
       clipPathUnits="userSpaceOnUse"
       id="clipPath4571">
      <path
         inkscape:connector-curvature="0"
         id="path4573"
         d="M 175.85452,772.36506 A 128,128 0 0 0 48.018585,900.3592 a 128,128 0 0 0 127.999995,128 128,128 0 0 0 127.99219,-127.83789 L 175.85452,772.36506 Z m 12.42383,0.60742 a 128,128 0 0 1 7.76757,1.1211 128,128 0 0 0 -7.76757,-1.1211 z m 12.58789,1.84961 a 128,128 0 0 1 8.42187,2.08984 128,128 0 0 0 -8.42187,-2.08984 z m 12.36328,3.09766 a 128,128 0 0 1 8.94531,3.19726 128,128 0 0 0 -8.94531,-3.19726 z m 11.98437,4.30468 a 128,128 0 0 1 9.34375,4.43946 128,128 0 0 0 -9.34375,-4.43946 z m 11.49806,5.47852 a 128,128 0 0 1 9.49413,5.73438 128,128 0 0 0 -9.49413,-5.73438 z m 10.90625,6.59961 a 128,128 0 0 1 9.66016,7.24414 128,128 0 0 0 -9.66016,-7.24414 z m 10.17772,7.63867 a 128,128 0 0 1 9.38869,8.62891 128,128 0 0 0 -9.38869,-8.62891 z m 9.38869,8.62891 0.98046,0.98047 a 128,128 0 0 0 -0.98046,-0.98047 z m 7.65038,8.57226 a 128,128 0 0 1 4.5039,5.92188 128,128 0 0 0 -4.5039,-5.92188 z m 7.63867,10.30469 a 128,128 0 0 1 3.81054,6.21289 128,128 0 0 0 -3.81054,-6.21289 z m 6.57617,11.03125 a 128,128 0 0 1 3.08203,6.37695 128,128 0 0 0 -3.08203,-6.37695 z m 5.4375,11.63867 a 128,128 0 0 1 2.37695,6.50782 128,128 0 0 0 -2.37695,-6.50782 z m 4.23242,12.09375 a 128,128 0 0 1 1.68555,6.59375 128,128 0 0 0 -1.68555,-6.59375 z m 3.00781,12.48633 a 128,128 0 0 1 0.99024,6.53906 128,128 0 0 0 -0.99024,-6.53906 z m 1.74024,12.71094 a 128,128 0 0 1 0.55079,10.95117 128,128 0 0 0 -0.55079,-10.95117 z"
         style="fill:#72a854;fill-opacity:1" />
    </clipPath>
    <clipPath
       id="clipPath4833"
       clipPathUnits="userSpaceOnUse">
      <path
         inkscape:connector-curvature="0"
         id="path4835"
         d="M 127.83594,786.43835 A 128,128 0 0 0 0,914.43249 128,128 0 0 0 128,1042.4325 128,128 0 0 0 255.99219,914.5946 L 127.83594,786.43835 Z m 12.42383,0.60742 a 128,128 0 0 1 7.76757,1.1211 128,128 0 0 0 -7.76757,-1.1211 z m 12.58789,1.84961 a 128,128 0 0 1 8.42187,2.08984 128,128 0 0 0 -8.42187,-2.08984 z m 12.36328,3.09766 a 128,128 0 0 1 8.94531,3.19726 128,128 0 0 0 -8.94531,-3.19726 z m 11.98437,4.30468 a 128,128 0 0 1 9.34375,4.43946 128,128 0 0 0 -9.34375,-4.43946 z m 11.49805,5.47852 a 128,128 0 0 1 9.49414,5.73438 128,128 0 0 0 -9.49414,-5.73438 z m 10.90625,6.59961 a 128,128 0 0 1 9.66016,7.24414 128,128 0 0 0 -9.66016,-7.24414 z m 10.17773,7.63867 a 128,128 0 0 1 9.38868,8.62891 128,128 0 0 0 -9.38868,-8.62891 z m 9.38868,8.62891 0.98046,0.98047 a 128,128 0 0 0 -0.98046,-0.98047 z m 7.65039,8.57226 a 128,128 0 0 1 4.5039,5.92188 128,128 0 0 0 -4.5039,-5.92188 z m 7.63867,10.30469 a 128,128 0 0 1 3.81054,6.21289 128,128 0 0 0 -3.81054,-6.21289 z m 6.57617,11.03125 a 128,128 0 0 1 3.08203,6.37695 128,128 0 0 0 -3.08203,-6.37695 z m 5.4375,11.63867 a 128,128 0 0 1 2.37695,6.50782 128,128 0 0 0 -2.37695,-6.50782 z m 4.23242,12.09375 a 128,128 0 0 1 1.68555,6.59375 128,128 0 0 0 -1.68555,-6.59375 z m 3.00781,12.48633 a 128,128 0 0 1 0.99024,6.53906 128,128 0 0 0 -0.99024,-6.53906 z m 1.74024,12.71094 A 128,128 0 0 1 256,914.43249 128,128 0 0 0 255.44922,903.48132 Z"
         style="fill:#72a854;fill-opacity:1" />
    </clipPath>
    <clipPath
       clipPathUnits="userSpaceOnUse"
       id="clipPath5026">
      <path
         inkscape:connector-curvature="0"
         id="path5028"
         d="M 125.33127,793.84038 A 120.54249,120.54249 0 0 0 4.943276,914.37736 120.54249,120.54249 0 0 0 125.48577,1034.9198 120.54249,120.54249 0 0 0 246.02091,914.53002 L 125.33127,793.84038 Z m 11.69999,0.57203 a 120.54249,120.54249 0 0 1 7.31502,1.05578 120.54249,120.54249 0 0 0 -7.31502,-1.05578 z m 11.8545,1.74185 a 120.54249,120.54249 0 0 1 7.9312,1.96808 120.54249,120.54249 0 0 0 -7.9312,-1.96808 z m 11.64297,2.91718 a 120.54249,120.54249 0 0 1 8.42415,3.01099 120.54249,120.54249 0 0 0 -8.42415,-3.01099 z m 11.28614,4.05389 a 120.54249,120.54249 0 0 1 8.79937,4.18081 120.54249,120.54249 0 0 0 -8.79937,-4.18081 z m 10.82816,5.15933 a 120.54249,120.54249 0 0 1 8.94099,5.40028 120.54249,120.54249 0 0 0 -8.94099,-5.40028 z m 10.27083,6.2151 a 120.54249,120.54249 0 0 1 9.09734,6.82209 120.54249,120.54249 0 0 0 -9.09734,-6.82209 z m 9.58476,7.19363 a 120.54249,120.54249 0 0 1 8.84168,8.12617 120.54249,120.54249 0 0 0 -8.84168,-8.12617 z m 8.84168,8.12617 0.92333,0.92335 a 120.54249,120.54249 0 0 0 -0.92333,-0.92335 z m 7.20466,8.07283 a 120.54249,120.54249 0 0 1 4.2415,5.57686 120.54249,120.54249 0 0 0 -4.2415,-5.57686 z m 7.19363,9.70432 a 120.54249,120.54249 0 0 1 3.58853,5.85092 120.54249,120.54249 0 0 0 -3.58853,-5.85092 z m 6.19303,10.38855 a 120.54249,120.54249 0 0 1 2.90247,6.00542 120.54249,120.54249 0 0 0 -2.90247,-6.00542 z m 5.1207,10.96058 a 120.54249,120.54249 0 0 1 2.23847,6.12866 120.54249,120.54249 0 0 0 -2.23847,-6.12866 z m 3.98583,11.38915 a 120.54249,120.54249 0 0 1 1.58735,6.20958 120.54249,120.54249 0 0 0 -1.58735,-6.20958 z m 2.83257,11.75885 a 120.54249,120.54249 0 0 1 0.93255,6.15808 120.54249,120.54249 0 0 0 -0.93255,-6.15808 z m 1.63885,11.97038 a 120.54249,120.54249 0 0 1 0.51869,10.31314 120.54249,120.54249 0 0 0 -0.51869,-10.31314 z"
         style="fill:#72a854;fill-opacity:1" />
    </clipPath>
  </defs>
  <metadata
     id="metadata7">
    <rdf:RDF>
      <cc:Work
         rdf:about="">
        <dc:format>image/svg+xml</dc:format>
        <dc:type
           rdf:resource="http://purl.org/dc/dcmitype/StillImage" />
        <dc:title />
      </cc:Work>
    </rdf:RDF>
  </metadata>
  <g
     inkscape:label="Layer 1"
     inkscape:groupmode="layer"
     id="layer1"
     transform="translate(0,-796.36214)">
    <path
       style="fill:#72a854;fill-opacity:1"
       d="M 127.83594,796.36506 A 128,128 0 0 0 0,924.3592 a 128,128 0 0 0 128,128 128,128 0 0 0 127.99219,-127.83789 L 127.83594,796.36506 Z m 12.42383,0.60742 a 128,128 0 0 1 7.76757,1.1211 128,128 0 0 0 -7.76757,-1.1211 z m 12.58789,1.84961 a 128,128 0 0 1 8.42187,2.08984 128,128 0 0 0 -8.42187,-2.08984 z m 12.36328,3.09766 a 128,128 0 0 1 8.94531,3.19726 128,128 0 0 0 -8.94531,-3.19726 z m 11.98437,4.30468 a 128,128 0 0 1 9.34375,4.43946 128,128 0 0 0 -9.34375,-4.43946 z m 11.49805,5.47852 a 128,128 0 0 1 9.49414,5.73438 128,128 0 0 0 -9.49414,-5.73438 z m 10.90625,6.59961 a 128,128 0 0 1 9.66016,7.24414 128,128 0 0 0 -9.66016,-7.24414 z m 10.17773,7.63867 a 128,128 0 0 1 9.38868,8.62891 128,128 0 0 0 -9.38868,-8.62891 z m 9.38868,8.62891 0.98046,0.98047 a 128,128 0 0 0 -0.98046,-0.98047 z m 7.65039,8.57226 a 128,128 0 0 1 4.5039,5.92188 128,128 0 0 0 -4.5039,-5.92188 z m 7.63867,10.30469 a 128,128 0 0 1 3.81054,6.21289 128,128 0 0 0 -3.81054,-6.21289 z m 6.57617,11.03125 a 128,128 0 0 1 3.08203,6.37695 128,128 0 0 0 -3.08203,-6.37695 z m 5.4375,11.63867 a 128,128 0 0 1 2.37695,6.50782 128,128 0 0 0 -2.37695,-6.50782 z m 4.23242,12.09375 a 128,128 0 0 1 1.68555,6.59375 128,128 0 0 0 -1.68555,-6.59375 z m 3.00781,12.48633 a 128,128 0 0 1 0.99024,6.53906 128,128 0 0 0 -0.99024,-6.53906 z m 1.74024,12.71094 A 128,128 0 0 1 256,924.3592 128,128 0 0 0 255.44922,913.40803 Z"
       id="path4957"
       inkscape:connector-curvature="0" />
    <path
       style="fill:#a4c790;fill-opacity:1"
       d="m 255.61415,924.52718 a 128,128 0 0 0 0.16406,-0.006 L 127.62197,796.36506 a 128,128 0 0 0 -0.008,0.16211 128,128 0 0 0 35.85352,88.80861 l 0.98046,0.98046 a 128,128 0 0 0 91.16603,38.21094 z"
       id="rect4961"
       inkscape:connector-curvature="0" />
    <text
       xml:space="preserve"
       style="font-style:normal;font-weight:normal;font-size:40px;line-height:125%;font-family:sans-serif;letter-spacing:0px;word-spacing:0px;fill:#000000;fill-opacity:1;stroke:none;stroke-width:1px;stroke-linecap:butt;stroke-linejoin:miter;stroke-opacity:1"
       x="54.857143"
       y="965.15338"
       id="text4164"
       sodipodi:linespacing="125%"><tspan
         sodipodi:role="line"
         id="tspan4166"
         x="54.857143"
         y="965.15338" /></text>
    <g
       transform="matrix(1.0618662,0,0,1.0618662,-5.2490977,-46.587208)"
       id="g4930"
       style="stroke:#3d6328;stroke-opacity:1;fill:#3d6328;fill-opacity:1;stroke-width:1.000126;stroke-miterlimit:4;stroke-dasharray:none"
       clip-path="url(#clipPath5026)">
      <path
         inkscape:connector-curvature="0"
         id="path4932"
         d="m 75,927.36214 100,0"
         style="fill:#3d6328;fill-rule:evenodd;stroke:#3d6328;stroke-width:1.000126;stroke-linecap:butt;stroke-linejoin:miter;stroke-miterlimit:4;stroke-dasharray:none;stroke-opacity:1;fill-opacity:1" />
      <path
         inkscape:connector-curvature="0"
         id="path4934"
         d="m 75,952.36214 100,0"
         style="fill:#3d6328;fill-rule:evenodd;stroke:#3d6328;stroke-width:1.000126;stroke-linecap:butt;stroke-linejoin:miter;stroke-miterlimit:4;stroke-dasharray:none;stroke-opacity:1;fill-opacity:1" />
      <path
         inkscape:connector-curvature="0"
         id="path4936"
         d="m 75,977.36214 100,0"
         style="fill:#3d6328;fill-rule:evenodd;stroke:#3d6328;stroke-width:1.000126;stroke-linecap:butt;stroke-linejoin:miter;stroke-miterlimit:4;stroke-dasharray:none;stroke-opacity:1;fill-opacity:1" />
      <path
         inkscape:connector-curvature="0"
         id="path4938"
         d="m 110,902.36214 0,99.99996"
         style="fill:#3d6328;fill-rule:evenodd;stroke:#3d6328;stroke-width:1.000126;stroke-linecap:butt;stroke-linejoin:miter;stroke-miterlimit:4;stroke-dasharray:none;stroke-opacity:1;fill-opacity:1" />
      <g
         id="g4974"
         style="fill:#3d6328;fill-opacity:1;stroke:#3d6328;stroke-opacity:1;stroke-width:1.000126;stroke-miterlimit:4;stroke-dasharray:none">
        <g
           id="g4976"
           style="fill:#3d6328;fill-rule:evenodd;stroke:#3d6328;stroke-width:1.000126;stroke-linecap:butt;stroke-linejoin:miter;stroke-miterlimit:4;stroke-dasharray:none;stroke-opacity:1;fill-opacity:1">
          <path
             id="path4978"
             d="M72.7417 904.39091L72.7417 1004.6204L-68.6796562373 1146.04175624L-68.6796562373 1045.81226624Z"
             style="fill:#3d6328;fill-opacity:1;stroke:#3d6328;stroke-opacity:1;stroke-width:1.000126;stroke-miterlimit:4;stroke-dasharray:none" />
          <path
             id="path4980"
             d="M72.7417 1004.6204L178.22984 1004.6204L36.8084837627 1146.04175624L-68.6796562373 1146.04175624Z"
             style="fill:#3d6328;fill-opacity:1;stroke:#3d6328;stroke-opacity:1;stroke-width:1.000126;stroke-miterlimit:4;stroke-dasharray:none" />
          <path
             id="path4982"
             d="M178.22984 1004.6204L178.22984 899.61807L36.8084837627 1041.03942624L36.8084837627 1146.04175624Z"
             style="fill:#3d6328;fill-opacity:1;stroke:#3d6328;stroke-opacity:1;stroke-width:1.000126;stroke-miterlimit:4;stroke-dasharray:none" />
          <path
             id="path4984"
             d="M178.22984 899.61807L72.7417 899.61807L-68.6796562373 1041.03942624L36.8084837627 1041.03942624Z"
             style="fill:#3d6328;fill-opacity:1;stroke:#3d6328;stroke-opacity:1;stroke-width:1.000126;stroke-miterlimit:4;stroke-dasharray:none" />
        </g>
        <path
           inkscape:connector-curvature="0"
           id="path4940"
           d="m 72.7417,904.39091 0,100.22949 105.48814,0 0,-105.00233 -105.48814,0 z"
           style="fill:#3d6328;fill-rule:evenodd;stroke:#3d6328;stroke-width:1.000126;stroke-linecap:butt;stroke-linejoin:miter;stroke-miterlimit:4;stroke-dasharray:none;stroke-opacity:1;fill-opacity:1" />
      </g>
    </g>
    <g
       style="stroke:#ffffff;stroke-opacity:1"
       id="g4170"
       transform="matrix(1.0618662,0,0,1.0618662,-5.2490977,-46.587208)">
      <path
         style="fill:none;fill-rule:evenodd;stroke:#ffffff;stroke-width:8;stroke-linecap:butt;stroke-linejoin:miter;stroke-miterlimit:4;stroke-dasharray:none;stroke-opacity:1"
         d="m 75,927.36214 100,0"
         id="path4172"
         inkscape:connector-curvature="0" />
      <path
         style="fill:none;fill-rule:evenodd;stroke:#ffffff;stroke-width:8;stroke-linecap:butt;stroke-linejoin:miter;stroke-miterlimit:4;stroke-dasharray:none;stroke-opacity:1"
         d="m 75,952.36214 100,0"
         id="path4174"
         inkscape:connector-curvature="0" />
      <path
         style="fill:none;fill-rule:evenodd;stroke:#ffffff;stroke-width:8;stroke-linecap:butt;stroke-linejoin:miter;stroke-miterlimit:4;stroke-dasharray:none;stroke-opacity:1"
         d="m 75,977.36214 100,0"
         id="path4176"
         inkscape:connector-curvature="0" />
      <path
         style="fill:none;fill-rule:evenodd;stroke:#ffffff;stroke-width:8;stroke-linecap:butt;stroke-linejoin:miter;stroke-miterlimit:4;stroke-dasharray:none;stroke-opacity:1"
         d="m 110,902.36214 0,99.99996"
         id="path4178"
         inkscape:connector-curvature="0" />
      <path
         style="fill:none;fill-rule:evenodd;stroke:#ffffff;stroke-width:7.65418005;stroke-linecap:butt;stroke-linejoin:miter;stroke-miterlimit:4;stroke-dasharray:none;stroke-opacity:1"
         d="m 72.7417,904.39091 0,100.22949 105.48814,0 0,-105.00233 -105.48814,0 z"
         id="path4180"
         inkscape:connector-curvature="0" />
    </g>
  </g>
</svg>
