<?xml version="1.0" encoding="UTF-8" standalone="no"?>
<!-- Created with Inkscape (http://www.inkscape.org/) -->

<svg
   xmlns:dc="http://purl.org/dc/elements/1.1/"
   xmlns:cc="http://creativecommons.org/ns#"
   xmlns:rdf="http://www.w3.org/1999/02/22-rdf-syntax-ns#"
   xmlns:svg="http://www.w3.org/2000/svg"
   xmlns="http://www.w3.org/2000/svg"
   xmlns:sodipodi="http://sodipodi.sourceforge.net/DTD/sodipodi-0.dtd"
   xmlns:inkscape="http://www.inkscape.org/namespaces/inkscape"
   width="256"
   height="256"
   viewBox="0 0 256 256"
   id="svg4149"
   version="1.1"
   inkscape:version="0.92.2 (5c3e80d, 2017-08-06)"
   sodipodi:docname="distributor-logo-mate.svg">
  <sodipodi:namedview
     id="base"
     pagecolor="#ffffff"
     bordercolor="#666666"
     borderopacity="1.0"
     inkscape:pageopacity="0.0"
     inkscape:pageshadow="2"
     inkscape:zoom="3.296875"
     inkscape:cx="128"
     inkscape:cy="127.99998"
     inkscape:document-units="px"
     inkscape:current-layer="layer1"
     showgrid="false"
     units="px"
     inkscape:window-width="1920"
     inkscape:window-height="1048"
     inkscape:window-x="0"
     inkscape:window-y="0"
     inkscape:window-maximized="1" />
  <defs
     id="defs4151">
    <clipPath
       id="clipPath4863"
       clipPathUnits="userSpaceOnUse">
      <circle
         r="77.263145"
         cy="924.36218"
         cx="128"
         id="circle4865"
         style="fill:#e9e9e9;fill-opacity:1;stroke:none;stroke-width:20;stroke-miterlimit:4;stroke-dasharray:none;stroke-opacity:1" />
    </clipPath>
    <clipPath
       clipPathUnits="userSpaceOnUse"
       id="clipPath4227">
      <circle
         r="77.263145"
         cy="924.36218"
         cx="128"
         id="circle4229"
         style="fill:#e9e9e9;fill-opacity:1;stroke:none;stroke-width:20;stroke-miterlimit:4;stroke-dasharray:none;stroke-opacity:1" />
    </clipPath>
    <clipPath
       id="clipPath5242"
       clipPathUnits="userSpaceOnUse">
      <circle
         r="53.296803"
         cy="27.298298"
         cx="-91.568832"
         id="circle5244"
         style="fill:#294172;fill-opacity:1;stroke:none;stroke-width:20;stroke-miterlimit:4;stroke-dasharray:none;stroke-opacity:1" />
    </clipPath>
    <clipPath
       clipPathUnits="userSpaceOnUse"
       id="clipPath1073">
      <circle
         r="128"
         cy="924.36218"
         cx="128"
         id="circle1075"
         style="fill:#92d74e;fill-opacity:1;stroke:none;stroke-width:20;stroke-miterlimit:4;stroke-dasharray:none;stroke-opacity:1" />
    </clipPath>
  </defs>
  <metadata
     id="metadata4154">
    <rdf:RDF>
      <cc:Work
         rdf:about="">
        <dc:format>image/svg+xml</dc:format>
        <dc:type
           rdf:resource="http://purl.org/dc/dcmitype/StillImage" />
        <dc:title />
      </cc:Work>
    </rdf:RDF>
  </metadata>
  <g
     inkscape:label="Layer 1"
     inkscape:groupmode="layer"
     id="layer1"
     transform="translate(0,-796.36216)">
    <circle
       style="fill:#92d74e;fill-opacity:1;stroke:none;stroke-width:20;stroke-miterlimit:4;stroke-dasharray:none;stroke-opacity:1"
       id="path4723"
       cx="128"
       cy="924.36218"
       r="128" />
    <g
       id="g969"
       clip-path="url(#clipPath1073)"
       style="fill:#66a826;fill-opacity:1">
      <path
         id="path967"
         d="m 183.31495,924.36212 c 0,-28.54106 -23.16378,-51.70485 -51.70488,-51.70485 -15.19531,0 -28.83237,6.57261 -38.295115,17.02004 l 10.959875,6.83381 c 7.0494,-6.96228 16.6867,-11.21775 27.33524,-11.21775 21.56596,0 39.06879,17.61834 39.06879,39.32664 0,21.70831 -17.50283,39.32665 -39.06879,39.32665 -10.84701,0 -20.64089,-4.41184 -27.72205,-11.60459 l -10.573065,6.70487 c 9.462745,10.44746 23.099805,17.02007 38.295115,17.02007 28.5411,0 51.70488,-23.16379 51.70488,-51.70489 z"
         style="fill:#66a826;fill-opacity:1;stroke:none;stroke-width:4.12607431;stroke-linecap:round;stroke-linejoin:round;stroke-miterlimit:4;stroke-dasharray:none;stroke-dashoffset:0;stroke-opacity:1"
         inkscape:connector-curvature="0" />
      <g
         id="g994"
         style="fill:#66a826;fill-opacity:1">
        <g
           id="g991"
           style="fill:#66a826;fill-opacity:1;fill-rule:evenodd;stroke:none;stroke-width:4.20239496px;stroke-linecap:butt;stroke-linejoin:miter;stroke-opacity:1">
          <path
             id="path987"
             d="M45.050166 870.67587L135.98051 924.34158L-5.44084623731 1065.76293624L-96.3711902373 1012.09722624Z"
             style="fill:#66a826;fill-opacity:1" />
          <path
             id="path989"
             d="M135.98051 924.34158L44.98051 978.04841L-96.4408462373 1119.46976624L-5.44084623731 1065.76293624Z"
             style="fill:#66a826;fill-opacity:1" />
        </g>
        <path
           id="path963"
           d="m 45.050166,870.67587 90.930344,53.66571 -91,53.70683 z"
           style="fill:#66a826;fill-opacity:1;fill-rule:evenodd;stroke:none;stroke-width:4.20239496px;stroke-linecap:butt;stroke-linejoin:miter;stroke-opacity:1"
           inkscape:connector-curvature="0" />
      </g>
      <g
         id="g1027"
         style="fill:#66a826;fill-opacity:1">
        <g
           id="g1024"
           style="fill:#66a826;fill-opacity:1;stroke:none;stroke-width:4.0513258;stroke-linecap:round;stroke-linejoin:round;stroke-miterlimit:4;stroke-dasharray:none;stroke-dashoffset:0;stroke-opacity:1">
          <path
             id="path996"
             d="M214.48472 924.36218C214.48472 878.51737 177.33405 841.30999 131.55914 841.30999L-9.86221623731 982.731346237C35.9126937627 982.731346237 73.0633637627 1019.93872624 73.0633637627 1065.78353624Z"
             style="fill:#66a826;fill-opacity:1" />
          <path
             id="path998"
             d="M131.55914 841.30999C108.727729909 841.30999 88.1179267901 850.611650733 73.1379497122 865.59162781L-68.2834065251 1007.01298405C-53.3034294472 992.03300697 -32.6936263282 982.731346237 -9.86221623731 982.731346237Z"
             style="fill:#66a826;fill-opacity:1" />
          <path
             id="path1000"
             d="M73.1379497122 865.59162781C70.7757605045 867.953817018 68.5535629171 870.457203609 66.484721 873.08758L-74.9366352373 1014.50893624C-72.8677933202 1011.87855985 -70.6455957328 1009.37517326 -68.2834065251 1007.01298405Z"
             style="fill:#66a826;fill-opacity:1" />
          <path
             id="path1002"
             d="M66.484721 873.08758L76.866244 879.67098L-64.5551122373 1021.09233624L-74.9366352373 1014.50893624Z"
             style="fill:#66a826;fill-opacity:1" />
          <path
             id="path1004"
             d="M76.866244 879.67098C78.3592842082 877.843594733 79.9431386541 876.092758372 81.610806304 874.425090722L-59.8105499333 1015.84644696C-61.4782175832 1017.51411461 -63.0620720291 1019.26495097 -64.5551122373 1021.09233624Z"
             style="fill:#66a826;fill-opacity:1" />
          <path
             id="path1006"
             d="M81.610806304 874.425090722C94.4169021772 861.618994848 112.165273342 853.71717 131.68574 853.71717L-9.73561623731 995.138526237C-29.256082895 995.138526237 -47.0044540601 1003.04035109 -59.8105499333 1015.84644696Z"
             style="fill:#66a826;fill-opacity:1" />
          <path
             id="path1008"
             d="M131.68574 853.71717C170.68179 853.71717 202.33073 885.36616 202.33073 924.36218L60.9093737627 1065.78353624C60.9093737627 1026.78751624 29.2604337627 995.138526237 -9.73561623731 995.138526237Z"
             style="fill:#66a826;fill-opacity:1" />
          <path
             id="path1010"
             d="M202.33073 924.36218C202.33073 943.860197498 194.418492972 961.521447026 181.631748835 974.308191165L40.2103925974 1115.7295474C52.997136735 1102.94280326 60.9093737627 1085.28155374 60.9093737627 1065.78353624Z"
             style="fill:#66a826;fill-opacity:1" />
          <path
             id="path1012"
             d="M181.631748835 974.308191165C168.845007974 987.094932028 151.183762502 995.00717 131.68574 995.00717L-9.73561623731 1136.42852624C9.76240626432 1136.42852624 27.4236517367 1128.51628826 40.2103925974 1115.7295474Z"
             style="fill:#66a826;fill-opacity:1" />
          <path
             id="path1014"
             d="M131.68574 995.00717C109.68684 995.00717 89.952459 984.96123 76.992848 969.17998L-64.4285082373 1110.60133624C-51.4688972373 1126.38258624 -31.7345162373 1136.42852624 -9.73561623731 1136.42852624Z"
             style="fill:#66a826;fill-opacity:1" />
          <path
             id="path1016"
             d="M76.992848 969.17998L66.611324 975.76337L-74.8100322373 1117.18472624L-64.4285082373 1110.60133624Z"
             style="fill:#66a826;fill-opacity:1" />
          <path
             id="path1018"
             d="M66.611324 975.76337C81.803471 994.99451 105.19127 1007.4143 131.55914 1007.4143L-9.86221623731 1148.83565624C-36.2300862373 1148.83565624 -59.6178852373 1136.41586624 -74.8100322373 1117.18472624Z"
             style="fill:#66a826;fill-opacity:1" />
          <path
             id="path1020"
             d="M131.55914 1007.4143C154.423724969 1007.4143 175.136544472 998.131062378 190.142491557 983.125115293L48.7211353194 1124.54647153C33.7151882348 1139.55241862 13.0023687313 1148.83565624 -9.86221623731 1148.83565624Z"
             style="fill:#66a826;fill-opacity:1" />
          <path
             id="path1022"
             d="M190.142491557 983.125115293C205.178477373 968.089129477 214.48472 947.307499958 214.48472 924.36218L73.0633637627 1065.78353624C73.0633637627 1088.7288562 63.7571211361 1109.51048571 48.7211353194 1124.54647153Z"
             style="fill:#66a826;fill-opacity:1" />
        </g>
        <path
           id="path965"
           d="m 214.48472,924.36218 c 0,-45.84481 -37.15067,-83.05219 -82.92558,-83.05219 -26.43169,0 -49.885881,12.46651 -65.074419,31.77759 l 10.381523,6.5834 c 12.958164,-15.85996 32.756986,-25.95381 54.819496,-25.95381 38.99605,0 70.64499,31.64899 70.64499,70.64501 0,38.99603 -31.64894,70.64499 -70.64499,70.64499 -21.9989,0 -41.733281,-10.04594 -54.692892,-25.82719 l -10.381524,6.58339 c 15.192147,19.23114 38.579946,31.65093 64.947816,31.65093 45.77494,0 82.92558,-37.20732 82.92558,-83.05212 z"
           style="fill:#66a826;fill-opacity:1;stroke:none;stroke-width:4.0513258;stroke-linecap:round;stroke-linejoin:round;stroke-miterlimit:4;stroke-dasharray:none;stroke-dashoffset:0;stroke-opacity:1"
           inkscape:connector-curvature="0" />
      </g>
    </g>
    <g
       id="g961">
      <path
         inkscape:connector-curvature="0"
         style="fill:#ffffff;fill-opacity:1;fill-rule:evenodd;stroke:none;stroke-width:4.20239496px;stroke-linecap:butt;stroke-linejoin:miter;stroke-opacity:1"
         d="m 45.050166,870.67587 90.930344,53.66571 -91,53.70683 z"
         id="path5070" />
      <path
         inkscape:connector-curvature="0"
         style="fill:#ffffff;fill-opacity:1;stroke:none;stroke-width:4.0513258;stroke-linecap:round;stroke-linejoin:round;stroke-miterlimit:4;stroke-dasharray:none;stroke-dashoffset:0;stroke-opacity:1"
         d="m 214.48472,924.36218 c 0,-45.84481 -37.15067,-83.05219 -82.92558,-83.05219 -26.43169,0 -49.885881,12.46651 -65.074419,31.77759 l 10.381523,6.5834 c 12.958164,-15.85996 32.756986,-25.95381 54.819496,-25.95381 38.99605,0 70.64499,31.64899 70.64499,70.64501 0,38.99603 -31.64894,70.64499 -70.64499,70.64499 -21.9989,0 -41.733281,-10.04594 -54.692892,-25.82719 l -10.381524,6.58339 c 15.192147,19.23114 38.579946,31.65093 64.947816,31.65093 45.77494,0 82.92558,-37.20732 82.92558,-83.05212 z"
         id="path5067" />
      <path
         inkscape:connector-curvature="0"
         style="fill:#ffffff;fill-opacity:1;stroke:none;stroke-width:4.12607431;stroke-linecap:round;stroke-linejoin:round;stroke-miterlimit:4;stroke-dasharray:none;stroke-dashoffset:0;stroke-opacity:1"
         d="m 183.31495,924.36212 c 0,-28.54106 -23.16378,-51.70485 -51.70488,-51.70485 -15.19531,0 -28.83237,6.57261 -38.295115,17.02004 l 10.959875,6.83381 c 7.0494,-6.96228 16.6867,-11.21775 27.33524,-11.21775 21.56596,0 39.06879,17.61834 39.06879,39.32664 0,21.70831 -17.50283,39.32665 -39.06879,39.32665 -10.84701,0 -20.64089,-4.41184 -27.72205,-11.60459 l -10.573065,6.70487 c 9.462745,10.44746 23.099805,17.02007 38.295115,17.02007 28.5411,0 51.70488,-23.16379 51.70488,-51.70489 z"
         id="path5648" />
    </g>
  </g>
</svg>
