<?xml version="1.0" encoding="UTF-8" standalone="no"?>
<!-- Created with Inkscape (http://www.inkscape.org/) -->

<svg
   xmlns:dc="http://purl.org/dc/elements/1.1/"
   xmlns:cc="http://creativecommons.org/ns#"
   xmlns:rdf="http://www.w3.org/1999/02/22-rdf-syntax-ns#"
   xmlns:svg="http://www.w3.org/2000/svg"
   xmlns="http://www.w3.org/2000/svg"
   xmlns:xlink="http://www.w3.org/1999/xlink"
   xmlns:sodipodi="http://sodipodi.sourceforge.net/DTD/sodipodi-0.dtd"
   xmlns:inkscape="http://www.inkscape.org/namespaces/inkscape"
   sodipodi:docname="folder-symbolic_kde.svg"
   inkscape:version="0.92.2 (5c3e80d, 2017-08-06)"
   version="1.1"
   id="svg2"
   viewBox="0 0 256 256"
   height="256"
   width="256">
  <sodipodi:namedview
     inkscape:window-maximized="1"
     inkscape:window-y="0"
     inkscape:window-x="0"
     inkscape:window-height="1048"
     inkscape:window-width="1920"
     units="px"
     showgrid="true"
     inkscape:current-layer="layer1"
     inkscape:document-units="px"
     inkscape:cy="128"
     inkscape:cx="128"
     inkscape:zoom="3.3125"
     inkscape:pageshadow="2"
     inkscape:pageopacity="0.0"
     borderopacity="1.0"
     bordercolor="#666666"
     pagecolor="#ffffff"
     id="base">
    <inkscape:grid
       spacingy="5"
       spacingx="5"
       id="grid4168"
       type="xygrid" />
  </sodipodi:namedview>
  <defs
     id="defs4">
    <clipPath
       id="clipPath5002"
       clipPathUnits="userSpaceOnUse">
      <g
         id="g5004">
        <path
           style="fill:#0f9d58;fill-opacity:1;stroke:none;stroke-width:4.85768509;stroke-linejoin:round;stroke-miterlimit:4;stroke-dasharray:none;stroke-opacity:1"
           d="M 88.118406,249.43519 C 46.103287,235.29134 14.771284,201.68742 4.1335861,159.36053 1.3377997,148.23623 0.92261224,144.16281 0.92582381,127.88908 0.92787958,117.47222 1.134384,112.01362 1.6577819,108.54099 4.4653598,89.913336 12.17654,70.638106 23.042737,55.086148 c 3.958678,-5.665755 8.344812,-10.93092 9.101533,-10.925587 0.32809,0.0023 10.488643,18.309713 22.579009,40.683112 12.090365,22.373397 22.374546,41.334697 22.853732,42.136217 0.479186,0.80151 0.924733,2.44098 0.990103,3.64326 0.343424,6.31639 2.524175,14.20976 5.6424,20.42304 2.954444,5.88693 5.065381,8.73258 10.434696,14.06652 6.71418,6.66995 12.88853,10.28643 21.73204,12.72904 3.16587,0.87442 5.10478,1.05037 11.57517,1.05037 8.82596,0 12.60219,-0.76201 19.26429,-3.88733 2.04584,-0.95974 3.93661,-1.66536 4.20172,-1.56805 0.2651,0.0973 -11.0555,17.66459 -25.1569,39.0384 l -25.6389,38.86148 -3.094121,0.11221 c -2.554618,0.0927 -4.195204,-0.25845 -9.409103,-2.01364 z"
           id="path5006"
           inkscape:connector-curvature="0"
           transform="translate(0,796.36216)" />
        <path
           style="fill:#f4b400;fill-opacity:1;stroke:none;stroke-width:4.85768509;stroke-linejoin:round;stroke-miterlimit:4;stroke-dasharray:none;stroke-opacity:1"
           d="m 112.35984,1051.5167 c -10.0014,-1.4495 -12.15632,-1.8201 -12.531784,-2.1556 -0.248854,-0.2223 1.738304,-3.7475 4.550294,-8.0722 7.16635,-11.0213 49.77231,-74.64801 50.25856,-75.05489 3.57509,-2.99158 8.63523,-8.0414 10.57512,-10.55356 3.36154,-4.35318 7.55784,-12.9141 9.06523,-18.494 6.19314,-22.92535 -2.59253,-47.15185 -21.69967,-59.83688 l -2.96081,-1.96565 17.02469,0.29584 c 9.36358,0.1627 31.17032,0.43384 48.45941,0.60252 l 31.43471,0.30668 1.54584,4.18869 c 2.24597,6.08579 4.67816,15.0947 5.93451,21.9816 1.52517,8.36049 1.92536,28.85896 0.73851,37.82758 -3.0805,23.27845 -12.81326,45.72018 -27.80202,64.10577 -20.47622,25.1166 -51.4599,42.1974 -84.14612,46.3885 -5.31244,0.6812 -26.64601,0.9864 -30.44647,0.4356 z"
           id="path5008"
           inkscape:connector-curvature="0" />
        <path
           style="fill:#db4437;fill-opacity:1;stroke:none;stroke-width:10;stroke-linejoin:round;stroke-miterlimit:4;stroke-dasharray:none;stroke-opacity:1"
           d="M 67.989788,108.87302 C 41.284246,59.575543 33.290284,45.149038 32.233625,44.344765 31.651257,43.901497 32.811213,42.549931 38.695603,36.815353 53.43581,22.450419 68.809334,13.040746 87.839196,6.7360352 101.68742,2.1480329 112.58238,0.43719165 127.95142,0.43719165 c 21.3099,0 37.80488,3.80960275 56.83492,13.12633035 25.29351,12.383198 46.19421,33.578863 58.51993,59.345832 1.61138,3.368591 2.92978,6.372442 2.92978,6.675231 0,0.560033 -10.54865,0.49527 -71.16508,-0.436914 l -24.28843,-0.373518 -3.93063,-1.764495 c -6.75732,-3.033425 -10.64587,-3.839529 -18.6576,-3.867747 -5.0296,-0.01773 -7.97946,0.207636 -10.31642,0.788106 -14.50826,3.603659 -26.283291,12.94777 -33.291614,26.418653 -3.58502,6.89086 -5.24713,13.08166 -6.331628,23.58317 l -0.33738,3.26696 -9.92748,-18.32578 z"
           id="path5010"
           inkscape:connector-curvature="0"
           transform="translate(0,796.36216)" />
      </g>
    </clipPath>
    <clipPath
       clipPathUnits="userSpaceOnUse"
       id="clipPath4271">
      <circle
         style="fill:#292929;fill-opacity:0.26020412;stroke:none;stroke-width:10;stroke-linejoin:round;stroke-miterlimit:4;stroke-dasharray:none;stroke-opacity:0.25882353"
         id="circle4273"
         cx="128"
         cy="128.00002"
         r="128" />
    </clipPath>
    <clipPath
       id="clipPath4363"
       clipPathUnits="userSpaceOnUse">
      <circle
         style="fill:#4285f4;fill-opacity:1;stroke:none;stroke-width:10;stroke-linejoin:round;stroke-miterlimit:4;stroke-dasharray:none;stroke-opacity:0.25882353"
         id="circle4365"
         cx="128"
         cy="924.36218"
         r="128" />
    </clipPath>
    <clipPath
       clipPathUnits="userSpaceOnUse"
       id="clipPath4452">
      <circle
         style="fill:#4285f4;fill-opacity:1;stroke:none;stroke-width:10;stroke-linejoin:round;stroke-miterlimit:4;stroke-dasharray:none;stroke-opacity:0.25882353"
         id="circle4454"
         cx="128"
         cy="924.36218"
         r="128" />
    </clipPath>
    <clipPath
       id="clipPath5177"
       clipPathUnits="userSpaceOnUse">
      <circle
         style="fill:#4285f4;fill-opacity:1;stroke:none;stroke-width:10;stroke-linejoin:round;stroke-miterlimit:4;stroke-dasharray:none;stroke-opacity:0.25882353"
         id="circle5179"
         cx="128"
         cy="924.36218"
         r="128" />
    </clipPath>
    <clipPath
       clipPathUnits="userSpaceOnUse"
       id="clipPath4342">
      <circle
         style="fill:#4285f4;fill-opacity:1;stroke:none;stroke-width:10;stroke-linejoin:round;stroke-miterlimit:4;stroke-dasharray:none;stroke-opacity:0.25882353"
         id="circle4344"
         cx="128"
         cy="933.48718"
         r="128" />
    </clipPath>
    <clipPath
       id="clipPath4681"
       clipPathUnits="userSpaceOnUse">
      <circle
         style="fill:#9d5fad;fill-opacity:1;stroke:none;stroke-width:10;stroke-linejoin:round;stroke-miterlimit:4;stroke-dasharray:none;stroke-opacity:0.25882353"
         id="circle4683"
         cx="127.00293"
         cy="930.43964"
         r="128" />
    </clipPath>
    <clipPath
       clipPathUnits="userSpaceOnUse"
       id="clipPath4235">
      <circle
         style="fill:#0f9d58;fill-opacity:1;stroke:none;stroke-width:10;stroke-linejoin:round;stroke-miterlimit:4;stroke-dasharray:none;stroke-opacity:0.25882353"
         id="circle4237"
         cx="128"
         cy="924.36218"
         r="128" />
    </clipPath>
    <clipPath
       id="clipPath4771"
       clipPathUnits="userSpaceOnUse">
      <circle
         style="fill:#0f9d58;fill-opacity:1;stroke:none;stroke-width:10;stroke-linejoin:round;stroke-miterlimit:4;stroke-dasharray:none;stroke-opacity:0.25882353"
         id="circle4773"
         cx="128"
         cy="924.36218"
         r="128" />
    </clipPath>
    <clipPath
       clipPathUnits="userSpaceOnUse"
       id="clipPath4842">
      <circle
         style="fill:#0f9d58;fill-opacity:1;stroke:none;stroke-width:10;stroke-linejoin:round;stroke-miterlimit:4;stroke-dasharray:none;stroke-opacity:0.25882353"
         id="circle4844"
         cx="128"
         cy="924.36218"
         r="128" />
    </clipPath>
    <clipPath
       id="clipPath4458"
       clipPathUnits="userSpaceOnUse">
      <circle
         style="fill:#ff3b38;fill-opacity:1;stroke:none;stroke-width:10;stroke-linejoin:round;stroke-miterlimit:4;stroke-dasharray:none;stroke-opacity:0.25882353"
         id="circle4460"
         cx="128"
         cy="924.36218"
         r="128" />
    </clipPath>
    <clipPath
       clipPathUnits="userSpaceOnUse"
       id="clipPath4783">
      <circle
         style="fill:#ff3b38;fill-opacity:1;stroke:none;stroke-width:10;stroke-linejoin:round;stroke-miterlimit:4;stroke-dasharray:none;stroke-opacity:0.25882353"
         id="circle4785"
         cx="128"
         cy="924.36218"
         r="128" />
    </clipPath>
    <clipPath
       id="clipPath4789"
       clipPathUnits="userSpaceOnUse">
      <circle
         style="fill:#80b4ff;fill-opacity:1;stroke:none;stroke-width:10;stroke-linejoin:round;stroke-miterlimit:4;stroke-dasharray:none;stroke-opacity:0.25882353"
         id="circle4791"
         cx="102.64714"
         cy="924.36218"
         r="128" />
    </clipPath>
    <clipPath
       clipPathUnits="userSpaceOnUse"
       id="clipPath4476">
      <circle
         style="fill:#80b4ff;fill-opacity:1;stroke:none;stroke-width:10;stroke-linejoin:round;stroke-miterlimit:4;stroke-dasharray:none;stroke-opacity:0.25882353"
         id="circle4478"
         cx="112.59232"
         cy="920.23456"
         r="82.027672" />
    </clipPath>
    <filter
       id="filter4298"
       inkscape:label="Drop Shadow"
       style="color-interpolation-filters:sRGB">
      <feFlood
         id="feFlood4300"
         result="flood"
         flood-color="rgb(0,0,0)"
         flood-opacity="0.498039" />
      <feComposite
         id="feComposite4302"
         result="composite1"
         operator="in"
         in2="SourceGraphic"
         in="flood" />
      <feGaussianBlur
         id="feGaussianBlur4304"
         result="blur"
         stdDeviation="1.6"
         in="composite1" />
      <feOffset
         id="feOffset4306"
         result="offset"
         dy="-7.7"
         dx="-2.77556e-17" />
      <feComposite
         id="feComposite4308"
         result="composite2"
         operator="over"
         in2="offset"
         in="SourceGraphic" />
    </filter>
    <clipPath
       clipPathUnits="userSpaceOnUse"
       id="clipPath5389">
      <circle
         style="fill:#2496e3;fill-opacity:1;stroke:none;stroke-width:10;stroke-linejoin:round;stroke-miterlimit:4;stroke-dasharray:none;stroke-opacity:0.25882353"
         id="circle5391"
         cx="128"
         cy="924.36218"
         r="128" />
    </clipPath>
    <clipPath
       clipPathUnits="userSpaceOnUse"
       id="clipPath5092">
      <path
         transform="matrix(1.2315339,0,0,1.0608965,-109.24268,-939.37809)"
         sodipodi:nodetypes="cccccccccccccccccccccssscccccccccazzzzzzzzzzzsccccccccc"
         inkscape:connector-curvature="0"
         id="path5094"
         d="m 10.42124,864.27189 42.534575,-0.0913 21.267287,-0.0456 c 7.245384,-0.0152 14.490768,-0.0305 21.736152,-0.0456 8.394956,-10.58827 10.291846,-15.47699 14.084686,-17.71727 3.79283,-2.24028 9.4816,-1.8321 25.46032,-1.82658 23.36644,-0.007 109.60565,-0.67788 109.60565,-0.67788 l -0.0879,12.1518 -0.0879,12.1518 -0.0879,12.15181 -0.0879,12.1518 -0.0879,12.1518 -0.0879,12.1518 -0.0879,12.15181 -0.0879,12.1518 -0.0879,12.1518 -0.0879,12.1518 -0.0879,12.15181 -0.0879,12.1518 -0.0879,12.15181 -0.0879,12.1518 c 0,0 0.59382,8.1589 -0.0879,12.1518 -0.58177,3.4075 -0.78038,7.5176 -3.36995,9.8075 -2.83121,2.5035 -7.3341,1.9515 -11.09295,2.3443 -4.76571,0.4981 -14.375,0 -14.375,0 l -14.375,0 -14.375,0 -14.37501,0 -14.375,0 -14.375,0 -14.375,0 -14.375,0 -14.375,0 -14.375001,0 c 0,0 -9.583334,0 -14.375001,0 -4.791667,0 -9.583334,0 -14.375001,0 -4.791667,0 -9.500662,0.094 -14.375001,0 -4.874339,-0.093 -10.854147,0.062 -15.030858,-0.571 -4.176712,-0.6329 -7.699545,-0.5576 -9.968228,-2.7111 -2.268683,-2.1535 -2.21606,-4.4991 -2.972258,-7.5945 -0.756198,-3.0955 -0.95689,-7.246 -1.188915,-10.8765 -0.232024,-3.6305 -0.136752,-7.251 -0.205128,-10.8765 -0.06838,-3.6255 -0.136752,-7.25106 -0.205128,-10.87658 -0.06838,-3.62552 -0.136753,-7.25102 -0.205129,-10.87653 -0.06838,-3.62551 -0.136752,-7.25103 -0.205128,-10.87654 -0.06838,-3.62551 -0.205129,-10.87653 -0.205129,-10.87653 L 12.062467,951.28418 11.857339,940.40764 11.65221,929.53111 11.447082,918.65457 11.241954,907.77803 11.036825,896.9015 10.831697,886.02496 10.626568,875.14843 Z"
         style="opacity:0.91000001;fill:#38bae1;fill-opacity:1;stroke:none;stroke-width:0;stroke-linecap:round;stroke-linejoin:round;stroke-miterlimit:4;stroke-dasharray:none;stroke-opacity:1;filter:url(#filter4298)" />
    </clipPath>
    <clipPath
       clipPathUnits="userSpaceOnUse"
       id="clipPath5147">
      <circle
         style="fill:#2496e3;fill-opacity:1;stroke:none;stroke-width:10;stroke-linejoin:round;stroke-miterlimit:4;stroke-dasharray:none;stroke-opacity:0.25882353"
         id="circle5149"
         cx="128"
         cy="924.36218"
         r="128" />
    </clipPath>
    <clipPath
       clipPathUnits="userSpaceOnUse"
       id="clipPath5153">
      <path
         clip-path="url(#clipPath5147)"
         sodipodi:nodetypes="ccccccc"
         inkscape:connector-curvature="0"
         id="path5155"
         d="m 255.70093,889.77993 -111.25234,-0.29907 -33.49532,-57.12149 -110.95327,0 0,220.00003 256,0 z"
         style="opacity:1;fill:#37bae1;fill-opacity:1;stroke:none;stroke-width:10;stroke-linecap:butt;stroke-linejoin:miter;stroke-miterlimit:4;stroke-dasharray:none;stroke-opacity:1"
         transform="matrix(0.96310564,0,0,0.96310582,-73.608259,-871.10273)" />
    </clipPath>
    <clipPath
       id="clipPath4537"
       clipPathUnits="userSpaceOnUse">
      <path
         transform="matrix(0.87468356,0,0,0.87468371,-63.854543,-777.38198)"
         clip-path="url(#clipPath5147)"
         sodipodi:nodetypes="ccccccc"
         inkscape:connector-curvature="0"
         id="path4539"
         d="m 255.40186,879.31264 -121.71963,0 -22.72896,-46.95327 -110.95327,0 0,220.00003 256,0 z"
         style="opacity:1;fill:#2ccaff;fill-opacity:1;stroke:none;stroke-width:10;stroke-linecap:butt;stroke-linejoin:miter;stroke-miterlimit:4;stroke-dasharray:none;stroke-opacity:1" />
    </clipPath>
    <clipPath
       clipPathUnits="userSpaceOnUse"
       id="clipPath4592">
      <ellipse
         style="fill:#218dd7;fill-opacity:1;stroke:none;stroke-width:10;stroke-linejoin:round;stroke-miterlimit:4;stroke-dasharray:none;stroke-opacity:0.25882353"
         id="circle4594"
         cx="48.104954"
         cy="31.142565"
         rx="111.9595"
         ry="111.95952" />
    </clipPath>
    <clipPath
       id="clipPath5011"
       clipPathUnits="userSpaceOnUse">
      <g
         transform="matrix(1.0750907,0,0,1.0750909,-89.50666,-875.08197)"
         id="g5021">
        <rect
           y="737.36218"
           x="52.372032"
           height="45"
           width="151.25594"
           id="rect5013"
           style="opacity:1;fill:#a7a7a7;fill-opacity:1;stroke:none;stroke-width:11.4685173;stroke-linecap:butt;stroke-linejoin:miter;stroke-miterlimit:4;stroke-dasharray:none;stroke-opacity:1" />
        <rect
           style="opacity:1;fill:#d3d3d3;fill-opacity:1;stroke:none;stroke-width:12.10504246;stroke-linecap:butt;stroke-linejoin:miter;stroke-miterlimit:4;stroke-dasharray:none;stroke-opacity:1"
           id="rect5015"
           width="168.51187"
           height="45"
           x="43.744064"
           y="752.36218" />
        <rect
           y="767.36218"
           x="28"
           height="45"
           width="200"
           id="rect5017"
           style="opacity:1;fill:#ffffff;fill-opacity:1;stroke:none;stroke-width:13.18760967;stroke-linecap:butt;stroke-linejoin:miter;stroke-miterlimit:4;stroke-dasharray:none;stroke-opacity:1" />
        <path
           inkscape:connector-curvature="0"
           style="fill:#2ccaff;fill-opacity:1;fill-rule:evenodd;stroke:none;stroke-width:2.84884405px;stroke-linecap:butt;stroke-linejoin:miter;stroke-opacity:1"
           d="M 5.505859,787.36214 A 128,128 0 0 0 0,824.36214 128,128 0 0 0 128,952.3621 128,128 0 0 0 256,824.36214 a 128,128 0 0 0 -5.58203,-37 z"
           id="path5019" />
      </g>
    </clipPath>
    <clipPath
       id="clipPath4606"
       clipPathUnits="userSpaceOnUse">
      <g
         transform="matrix(1.0750907,0,0,1.0750909,-89.50666,-879.38234)"
         id="g4616">
        <rect
           y="737.36218"
           x="52.372032"
           height="45"
           width="151.25594"
           id="rect4608"
           style="opacity:1;fill:#a7a7a7;fill-opacity:1;stroke:none;stroke-width:11.4685173;stroke-linecap:butt;stroke-linejoin:miter;stroke-miterlimit:4;stroke-dasharray:none;stroke-opacity:1" />
        <rect
           style="opacity:1;fill:#d3d3d3;fill-opacity:1;stroke:none;stroke-width:12.10504246;stroke-linecap:butt;stroke-linejoin:miter;stroke-miterlimit:4;stroke-dasharray:none;stroke-opacity:1"
           id="rect4610"
           width="168.51187"
           height="45"
           x="43.744064"
           y="752.36218" />
        <rect
           y="767.36218"
           x="28"
           height="45"
           width="200"
           id="rect4612"
           style="opacity:1;fill:#ffffff;fill-opacity:1;stroke:none;stroke-width:13.18760967;stroke-linecap:butt;stroke-linejoin:miter;stroke-miterlimit:4;stroke-dasharray:none;stroke-opacity:1" />
        <path
           inkscape:connector-curvature="0"
           style="fill:#2ccaff;fill-opacity:1;fill-rule:evenodd;stroke:none;stroke-width:2.84884405px;stroke-linecap:butt;stroke-linejoin:miter;stroke-opacity:1"
           d="M 5.505859,787.36214 A 128,128 0 0 0 0,824.36214 128,128 0 0 0 128,952.3621 128,128 0 0 0 256,824.36214 a 128,128 0 0 0 -5.58203,-37 z"
           id="path4614" />
      </g>
    </clipPath>
    <radialGradient
       gradientTransform="matrix(0.51708534,-0.69842852,-0.62373908,-0.46178835,147.56594,1099.9191)"
       gradientUnits="userSpaceOnUse"
       xlink:href="#XMLID_27_"
       id="radialGradient2247"
       fy="123.17536"
       fx="110.74259"
       r="81.292717"
       cy="123.17536"
       cx="110.74259" />
    <radialGradient
       gradientTransform="matrix(0.9397,0,0,0.9397,4.2153,4.1331)"
       gradientUnits="userSpaceOnUse"
       id="XMLID_27_"
       r="66.164497"
       cy="58.0625"
       cx="76.764198">
      <stop
         id="stop107"
         offset="0"
         style="stop-color:#ffffff;stop-opacity:1" />
      <stop
         id="stop109"
         offset="0.32780001"
         style="stop-color:#fdfdfc;stop-opacity:1" />
      <stop
         id="stop111"
         offset="0.6773591"
         style="stop-color:#f4f5f4;stop-opacity:1" />
      <stop
         id="stop113"
         offset="1"
         style="stop-color:#cacfd0;stop-opacity:1" />
    </radialGradient>
    <clipPath
       clipPathUnits="userSpaceOnUse"
       id="clipPath1353">
      <path
         id="path1355"
         d="m 5.505859,887.3622 a 128,128 0 0 0 -5.505859,37 128,128 0 0 0 128,128 128,128 0 0 0 128,-128 128,128 0 0 0 -5.58203,-37 z"
         style="fill:#4f8ef1;fill-opacity:1;fill-rule:evenodd;stroke:none;stroke-width:2.84884405px;stroke-linecap:butt;stroke-linejoin:miter;stroke-opacity:1"
         inkscape:connector-curvature="0" />
    </clipPath>
  </defs>
  <metadata
     id="metadata7">
    <rdf:RDF>
      <cc:Work
         rdf:about="">
        <dc:format>image/svg+xml</dc:format>
        <dc:type
           rdf:resource="http://purl.org/dc/dcmitype/StillImage" />
        <dc:title />
      </cc:Work>
    </rdf:RDF>
  </metadata>
  <g
     inkscape:label="Layer 1"
     inkscape:groupmode="layer"
     id="layer1"
     transform="translate(0,-796.36216)">
    <path
       style="fill:#800e19;fill-opacity:1;stroke:none;stroke-width:10;stroke-linejoin:round;stroke-miterlimit:4;stroke-dasharray:none;stroke-opacity:0.25882353"
       d="M 128 0 A 128 128 0 0 0 0 128 A 128 128 0 0 0 128 256 A 128 128 0 0 0 256 128 A 128 128 0 0 0 128 0 z M 142.12695 38 L 141.80664 92.140625 L 181.30859 39.279297 L 213.14258 46.564453 L 172.04102 99.427734 L 212.82227 155.48633 L 181.62891 165.39258 L 141.80664 107.09766 L 141.80664 159.64062 L 112.21094 164.11523 L 112.21094 40.876953 L 142.12695 38 z M 74.306641 68.042969 C 74.644911 68.007989 74.963915 68.036985 75.265625 68.234375 L 97.701172 82.935547 C 97.704172 82.938447 97.698172 82.998 97.701172 83 C 100.46865 81.49252 103.38058 80.218993 106.39453 79.164062 L 106.39453 91.4375 C 89.834145 98.89005 78.269531 115.50076 78.269531 134.83984 C 78.269531 161.13088 99.599589 182.45898 125.89062 182.45898 C 144.39261 182.45898 160.45698 171.92119 168.33398 156.50781 C 174.92028 166.14998 179.9668 173.57422 179.9668 173.57422 C 180.19178 173.90378 180.6118 174.07516 180.99023 173.95898 L 183.61133 173.12695 L 191.60156 186.29492 C 191.96564 186.89332 191.84273 187.65231 191.3457 188.14844 L 179.64844 199.91016 C 179.13606 200.4202 178.33488 200.49543 177.73047 200.10156 L 155.80469 185.7207 C 151.32927 188.35524 146.49137 190.40926 141.35938 191.79297 L 135.22266 216.84961 C 135.05698 217.53171 134.44945 218 133.75195 218 L 117.13281 218 C 116.41334 218 115.80937 217.48976 115.66406 216.78516 L 110.48633 191.85742 C 105.5103 190.51349 100.78674 188.49558 96.423828 185.97656 L 74.179688 199.46289 C 73.581397 199.82665 72.821673 199.76549 72.326172 199.27148 L 60.564453 187.50977 C 60.054122 187.00054 59.977255 186.19513 60.373047 185.5918 L 74.5625 163.98633 C 71.88554 159.27874 69.863758 154.10998 68.554688 148.70898 L 44.072266 142.76562 C 43.392151 142.59994 42.857422 141.99755 42.857422 141.29492 L 42.857422 124.67578 C 42.857422 123.95578 43.369656 123.28789 44.072266 123.14258 L 69.320312 117.90039 C 70.715303 113.23526 72.698462 108.83454 75.138672 104.73242 L 61.394531 82.041016 C 61.031978 81.441176 61.091963 80.68301 61.585938 80.1875 L 73.347656 68.425781 C 73.602316 68.170561 73.96838 68.077969 74.306641 68.042969 z "
       transform="translate(0,796.36216)"
       id="path4152" />
    <text
       xml:space="preserve"
       style="font-style:normal;font-weight:normal;font-size:40px;line-height:125%;font-family:sans-serif;letter-spacing:0px;word-spacing:0px;fill:#000000;fill-opacity:1;stroke:none;stroke-width:1px;stroke-linecap:butt;stroke-linejoin:miter;stroke-opacity:1"
       x="120"
       y="927.36218"
       id="text4914"><tspan
         sodipodi:role="line"
         id="tspan4916"
         x="120"
         y="927.36218" /></text>
    <g
       id="g4241"
       transform="translate(-4.11162,138)"
       style="stroke:none">
      <g
         id="g4446"
         style="stroke:none">
        <g
           style="fill:none;fill-rule:evenodd;stroke:none;stroke-width:10;stroke-linecap:round;stroke-linejoin:miter;stroke-miterlimit:4;stroke-dasharray:none;stroke-opacity:1"
           id="g4448">
          <path
             inkscape:connector-curvature="0"
             d="m 129.98857,850.41168 c 0,15 0,15 0,15 L -82.143464,1077.5437 c 0,0 0,0 0,-15 z"
             id="path4450"
             style="stroke:none" />
        </g>
        <path
           style="fill:none;fill-rule:evenodd;stroke:none;stroke-width:10;stroke-linecap:round;stroke-linejoin:miter;stroke-miterlimit:4;stroke-dasharray:none;stroke-opacity:1"
           d="m 129.98857,850.41168 c 0,15 0,15 0,15"
           id="path4247"
           inkscape:connector-curvature="0" />
      </g>
      <g
         id="g4453"
         style="stroke:none">
        <g
           style="fill:none;fill-rule:evenodd;stroke:none;stroke-width:10;stroke-linecap:round;stroke-linejoin:miter;stroke-miterlimit:4;stroke-dasharray:none;stroke-opacity:1"
           id="g4455">
          <path
             inkscape:connector-curvature="0"
             d="m 111.58095,850.41168 c 0,15 0,15 0,15 l -212.13203,212.13202 c 0,0 0,0 0,-15 z"
             id="path4457"
             style="stroke:none" />
        </g>
        <path
           inkscape:connector-curvature="0"
           id="path4245"
           d="m 111.58095,850.41168 c 0,15 0,15 0,15"
           style="fill:none;fill-rule:evenodd;stroke:none;stroke-width:10;stroke-linecap:round;stroke-linejoin:miter;stroke-miterlimit:4;stroke-dasharray:none;stroke-opacity:1" />
      </g>
      <g
         id="g4460"
         style="stroke:none">
        <g
           style="fill:none;fill-rule:evenodd;stroke:none;stroke-width:10;stroke-linecap:round;stroke-linejoin:miter;stroke-miterlimit:4;stroke-dasharray:none;stroke-opacity:1"
           id="g4462">
          <path
             inkscape:connector-curvature="0"
             d="m 93.173333,850.41168 c 0,15 0,15 0,15 L -118.9587,1077.5437 c 0,0 0,0 0,-15 z"
             id="path4464"
             style="stroke:none" />
        </g>
        <path
           style="fill:none;fill-rule:evenodd;stroke:none;stroke-width:10;stroke-linecap:round;stroke-linejoin:miter;stroke-miterlimit:4;stroke-dasharray:none;stroke-opacity:1"
           d="m 93.173333,850.41168 c 0,15 0,15 0,15"
           id="path4243"
           inkscape:connector-curvature="0" />
      </g>
      <g
         id="g4467"
         style="stroke:none">
        <g
           style="fill:none;fill-rule:evenodd;stroke:none;stroke-width:10;stroke-linecap:round;stroke-linejoin:miter;stroke-miterlimit:4;stroke-dasharray:none;stroke-opacity:1"
           id="g4469">
          <path
             inkscape:connector-curvature="0"
             d="m 166.80381,850.41168 c 0,15 0,15 0,15 L -45.328224,1077.5437 c 0,0 0,0 0,-15 z"
             id="path4471"
             style="stroke:none" />
        </g>
        <path
           style="fill:none;fill-rule:evenodd;stroke:none;stroke-width:10;stroke-linecap:round;stroke-linejoin:miter;stroke-miterlimit:4;stroke-dasharray:none;stroke-opacity:1"
           d="m 166.80381,850.41168 c 0,15 0,15 0,15"
           id="path4251"
           inkscape:connector-curvature="0" />
      </g>
      <g
         id="g4474"
         style="stroke:none">
        <g
           style="fill:none;fill-rule:evenodd;stroke:none;stroke-width:10;stroke-linecap:round;stroke-linejoin:miter;stroke-miterlimit:4;stroke-dasharray:none;stroke-opacity:1"
           id="g4476">
          <path
             inkscape:connector-curvature="0"
             d="m 148.39619,850.41168 c 0,15 0,15 0,15 L -63.735844,1077.5437 c 0,0 0,0 0,-15 z"
             id="path4478"
             style="stroke:none" />
        </g>
        <path
           inkscape:connector-curvature="0"
           id="path4249"
           d="m 148.39619,850.41168 c 0,15 0,15 0,15"
           style="fill:none;fill-rule:evenodd;stroke:none;stroke-width:10;stroke-linecap:round;stroke-linejoin:miter;stroke-miterlimit:4;stroke-dasharray:none;stroke-opacity:1" />
      </g>
    </g>
    <g
       style="opacity:1;fill:#ffffff;fill-opacity:1;fill-rule:nonzero;stroke:none;stroke-width:1.00008464;stroke-miterlimit:4;stroke-dasharray:none;stroke-opacity:1"
       id="g4228"
       transform="matrix(1.1432706,0,0,1.1432704,73.003022,888.75781)">
      <g
         style="fill:#ffffff;fill-opacity:1;stroke:none;stroke-width:1.00008464;stroke-miterlimit:4;stroke-dasharray:none;stroke-opacity:1"
         id="g4230" />
    </g>
  </g>
</svg>
